<?xml version="1.0" encoding="UTF-8"?>
<svg width="229px" height="229px" viewBox="0 0 229 229" version="1.1" xmlns="http://www.w3.org/2000/svg" xmlns:xlink="http://www.w3.org/1999/xlink">
    <!-- Generator: Sketch 58 (84663) - https://sketch.com -->
    <title>Group 3</title>
    <desc>Created with Sketch.</desc>
    <defs>
        <rect id="path-1" x="28.7999994" y="28.7999994" width="154.799997" height="154.799997" rx="11.5199998"></rect>
        <filter x="-12.3%" y="-12.3%" width="124.7%" height="124.7%" filterUnits="objectBoundingBox" id="filter-3">
            <feMorphology radius="1.07999998" operator="dilate" in="SourceAlpha" result="shadowSpreadOuter1"></feMorphology>
            <feOffset dx="0" dy="0" in="shadowSpreadOuter1" result="shadowOffsetOuter1"></feOffset>
            <feGaussianBlur stdDeviation="6" in="shadowOffsetOuter1" result="shadowBlurOuter1"></feGaussianBlur>
            <feComposite in="shadowBlurOuter1" in2="SourceAlpha" operator="out" result="shadowBlurOuter1"></feComposite>
            <feColorMatrix values="0 0 0 0 0   0 0 0 0 0   0 0 0 0 0  0 0 0 0.147235577 0" type="matrix" in="shadowBlurOuter1"></feColorMatrix>
        </filter>
    </defs>
    <g id="desktop" stroke="none" stroke-width="1" fill="none" fill-rule="evenodd">
        <g id="cloud_monitoring" transform="translate(-978.000000, -1803.000000)">
            <g id="Group-22" transform="translate(240.000000, 1297.000000)">
                <g id="Group-3" transform="translate(747.000000, 514.000000)">
                    <g id="Group-16">
                        <circle id="Oval" fill="#F1F1F1" cx="107.999998" cy="100.799998" r="92.1599982"></circle>
                        <mask id="mask-2" fill="white">
                            <use xlink:href="#path-1"></use>
                        </mask>
                        <g id="Rectangle" fill-rule="nonzero" transform="translate(106.199998, 106.199998) rotate(-30.000000) translate(-106.199998, -106.199998) ">
                            <use fill="black" fill-opacity="1" filter="url(#filter-3)" xlink:href="#path-1"></use>
                            <use stroke="#F1F1F1" stroke-width="2.15999996" fill="#FFFFFF" xlink:href="#path-1"></use>
                        </g>
                        <g id="warning-(1)" mask="url(#mask-2)" fill-rule="nonzero">
                            <g transform="translate(47.000000, 49.000000)" id="Path">
                                <polygon fill="#464655" points="17.5149903 90.7382759 17.5149903 109.257645 95.2758155 109.257645 95.2758155 90.7382759"></polygon>
                                <path d="M56.3954029,42.5981787 C40.0387337,42.5981787 26.7740492,55.8628631 26.7740492,72.2189067 L26.7740492,90.7382759 L56.3954029,90.7382759 L56.3954029,42.5981787 Z" fill="#FFC400"></path>
                                <path d="M86.0161309,72.2189067 C86.0161309,55.8628631 72.7514464,42.5981787 56.3954029,42.5981787 L56.3954029,49.9992932 C68.6663467,50.0155634 78.5987461,59.9479628 78.6150165,72.2189067 C78.5987461,59.9479628 68.6663467,50.0155634 56.3954029,49.9992932 L56.3954029,90.7382759 L86.0161309,90.7382759 L86.0161309,72.2189067 Z" fill="#FFD800"></path>
                                <path d="M56.3954029,33.3384942 C55.3697475,33.3384942 54.5368328,32.5055793 54.5368328,31.4805496 L54.5368328,1.85919602 C54.5368328,0.834166317 55.3697475,0.00125156243 56.3954029,0.00125156243 C57.4204326,0.00125156243 58.2533473,0.834166317 58.2533473,1.85919602 L58.2533473,31.4805496 C58.2533473,32.5055793 57.4204326,33.3384942 56.3954029,33.3384942 Z" fill="#FF5023"></path>
                                <path d="M39.7346039,37.792179 C39.0775337,37.792179 38.453004,37.4398642 38.132604,36.862894 L23.3141049,11.2152508 C22.80159,10.3341509 23.0894494,9.19648071 23.9705493,8.68396585 C24.8516493,8.171451 25.9893196,8.45931052 26.5018345,9.34041047 C26.5018345,9.34041047 26.5181047,9.3566807 26.5181047,9.3566807 L41.3366038,35.0205941 C41.8491187,35.901694 41.5449889,37.0393642 40.663889,37.551879 C40.3754039,37.712079 40.0550039,37.792179 39.7346039,37.792179 Z" fill="#FF5023"></path>
                                <path d="M27.5274897,49.9992932 C27.2070898,49.9992932 26.8866898,49.9191932 26.5982047,49.7589932 L0.934291311,34.9404941 C0.0531913631,34.4279792 -0.267208618,33.3065793 0.245306235,32.4092091 C0.757821089,31.5124645 1.87922102,31.2077092 2.7765912,31.7208496 C2.7765912,31.7208496 2.79223585,31.7364943 2.79223585,31.7364943 L28.4561491,46.5549934 C29.337249,47.0675082 29.6420045,48.2051784 29.1294896,49.0862783 C28.7928194,49.6469783 28.1839344,49.9992932 27.5274897,49.9992932 Z" fill="#FF5023"></path>
                                <path d="M85.2633161,49.9992932 C84.2382864,49.9992932 83.4047458,49.1663783 83.4047458,48.1413486 C83.4047458,47.4842784 83.7576864,46.8753934 84.334031,46.5393487 L109.997944,31.7208496 C110.879044,31.2077092 112.016715,31.4961943 112.529229,32.3772942 C113.041744,33.2583942 112.753885,34.3960643 111.872785,34.9085792 C111.872785,34.9085792 111.856515,34.9248494 111.856515,34.9248494 L86.1926012,49.7589932 C85.9041161,49.9191932 85.5837161,49.9992932 85.2633161,49.9992932 Z" fill="#FF5023"></path>
                                <path d="M73.0562019,37.792179 C72.0305465,37.792179 71.1976318,36.9592642 71.213902,35.9336089 C71.213902,35.6132089 71.294002,35.2928089 71.454202,35.0049494 L86.2727011,9.34041047 C86.785216,8.45931052 87.9228862,8.15518077 88.8039861,8.68396585 C89.6850861,9.19648071 89.9729454,10.3178806 89.476701,11.1989806 L74.6582018,36.862894 C74.3378019,37.4398642 73.7289168,37.8084492 73.0562019,37.792179 Z" fill="#FF5023"></path>
                                <path d="M78.6150165,74.0774769 C77.5899868,74.0774769 76.7564462,73.244562 76.7564462,72.2189067 C76.7408017,60.9729925 67.6250467,51.8578633 56.3791327,51.8415931 C55.354103,51.8415931 54.5211881,51.0086782 54.5211881,49.9836485 C54.5211881,48.9579932 55.354103,48.1250784 56.3791327,48.1250784 C69.6757319,48.1413486 80.441046,58.9066629 80.4575506,72.2032621 C80.4735866,73.244562 79.640046,74.0774769 78.6150165,74.0774769 Z" fill="#FFFFFF"></path>
                            </g>
                        </g>
                    </g>
                    <g id="clouds"></g>
                </g>
            </g>
        </g>
    </g>
</svg>