<?xml version="1.0" encoding="UTF-8"?>
<svg width="229px" height="229px" viewBox="0 0 229 229" version="1.1" xmlns="http://www.w3.org/2000/svg" xmlns:xlink="http://www.w3.org/1999/xlink">
    <!-- Generator: Sketch 58 (84663) - https://sketch.com -->
    <title>Group 3</title>
    <desc>Created with Sketch.</desc>
    <defs>
        <rect id="path-1" x="28.7999994" y="28.7999994" width="154.799997" height="154.799997" rx="11.5199998"></rect>
        <filter x="-12.3%" y="-12.3%" width="124.7%" height="124.7%" filterUnits="objectBoundingBox" id="filter-3">
            <feMorphology radius="1.07999998" operator="dilate" in="SourceAlpha" result="shadowSpreadOuter1"></feMorphology>
            <feOffset dx="0" dy="0" in="shadowSpreadOuter1" result="shadowOffsetOuter1"></feOffset>
            <feGaussianBlur stdDeviation="6" in="shadowOffsetOuter1" result="shadowBlurOuter1"></feGaussianBlur>
            <feComposite in="shadowBlurOuter1" in2="SourceAlpha" operator="out" result="shadowBlurOuter1"></feComposite>
            <feColorMatrix values="0 0 0 0 0   0 0 0 0 0   0 0 0 0 0  0 0 0 0.147235577 0" type="matrix" in="shadowBlurOuter1"></feColorMatrix>
        </filter>
    </defs>
    <g id="desktop" stroke="none" stroke-width="1" fill="none" fill-rule="evenodd">
        <g id="cloud_monitoring" transform="translate(-231.000000, -1421.000000)">
            <g id="Group-22" transform="translate(240.000000, 1297.000000)">
                <g id="Group-3" transform="translate(0.000000, 132.000000)">
                    <g id="Group-16">
                        <circle id="Oval" fill="#F1F1F1" cx="107.999998" cy="100.799998" r="92.1599982"></circle>
                        <mask id="mask-2" fill="white">
                            <use xlink:href="#path-1"></use>
                        </mask>
                        <g id="Rectangle" fill-rule="nonzero" transform="translate(106.199998, 106.199998) rotate(-30.000000) translate(-106.199998, -106.199998) ">
                            <use fill="black" fill-opacity="1" filter="url(#filter-3)" xlink:href="#path-1"></use>
                            <use stroke="#F1F1F1" stroke-width="2.15999996" fill="#FFFFFF" xlink:href="#path-1"></use>
                        </g>
                        <g id="stadistics" mask="url(#mask-2)">
                            <g transform="translate(52.000000, 56.000000)">
                                <path d="M110.694402,5.9767477 L110.694402,80.6341561 C110.694402,83.9354287 108.018927,86.6109037 104.717654,86.6109037 L21.015316,86.6109037 C17.7140433,86.6109037 15.0385683,83.9354287 15.0385683,80.6341561 L15.0385683,5.9767477 C15.0385683,2.67547504 17.7140433,2.84217094e-14 21.015316,2.84217094e-14 L104.717654,2.84217094e-14 C108.018927,2.84217094e-14 110.694402,2.67547504 110.694402,5.9767477 Z" id="Path" fill="#E9EEF8" fill-rule="nonzero"></path>
                                <polygon id="Path" fill="#83B2C6" fill-rule="nonzero" points="27.2479567 74.2815918 35.0674717 74.2815918 35.0674717 86.6109037 27.2479567 86.6109037"></polygon>
                                <polygon id="Path" fill="#83B2C6" fill-rule="nonzero" points="42.7383492 60.7133524 50.5553306 60.7133524 50.5553306 86.6109037 42.7383492 86.6109037"></polygon>
                                <path d="M110.693557,5.9767477 L110.693557,13.1155704 L15.0377238,13.1155704 L15.0377238,5.9767477 C15.0377238,2.67547504 17.7123541,0 21.0144715,0 L104.716809,0 C108.018082,0 110.693557,2.67547504 110.693557,5.9767477 Z" id="Path" fill="#464655" fill-rule="nonzero"></path>
                                <path d="M22.9509816,8.70627274 C21.3767753,8.70627274 20.6682135,6.65744 21.9020739,5.67862821 C23.1114427,4.72008518 24.921273,5.83402197 24.6155528,7.34066574 C24.4559364,8.12439075 23.7524417,8.70627274 22.9509816,8.70627274 Z" id="Path" fill="#E5E5E5" fill-rule="nonzero"></path>
                                <path d="M34.4839005,8.70627274 C32.9282741,8.70627274 32.2070443,6.69037656 33.4096568,5.69974144 C33.9594467,5.24707268 34.7625957,5.19217821 35.3706583,5.56377196 C35.9846325,5.93958832 36.3013318,6.69291021 36.1374929,7.39302657 C35.9592967,8.15226023 35.2659366,8.70627274 34.4839005,8.70627274 Z" id="Path" fill="#E5E5E5" fill-rule="nonzero"></path>
                                <path d="M28.7199747,8.70627274 C28.0274591,8.70627274 27.3898379,8.26965013 27.1381677,7.62611741 C26.8653841,6.92853448 27.0984747,6.1118727 27.6955581,5.65835946 C28.9387082,4.7150181 30.753606,5.90580707 30.362588,7.42680782 C30.171724,8.1674619 29.4876536,8.70627274 28.7199747,8.70627274 Z" id="Path" fill="#E5E5E5" fill-rule="nonzero"></path>
                                <path d="M90.0008521,49.5216243 C90.0008521,64.5078315 77.85227,76.6564137 62.8643736,76.6564137 C58.4322735,76.6564137 54.2509994,75.5931488 50.5553306,73.7098442 C47.5952483,72.2015112 44.947643,70.1636573 42.7383492,67.7212729 C38.3822568,62.9066003 35.7304287,56.525322 35.7304287,49.5216243 C35.7304287,34.5354169 47.8781664,22.3876792 62.8643736,22.3876792 L62.8643736,49.5216243 L84.285909,32.8649342 C87.8684107,37.4642513 90.0008521,43.2442233 90.0008521,49.5216243 L90.0008521,49.5216243 Z" id="Path" fill="#FFC400" fill-rule="nonzero"></path>
                                <path d="M50.5553306,60.7133524 L50.5553306,73.7098442 C47.5952483,72.2015112 44.947643,70.1636573 42.7383492,67.7212729 L42.7383492,60.7133524 L50.5553306,60.7133524 Z" id="Path" fill="#D5A60D" fill-rule="nonzero"></path>
                                <path d="M86.9031115,20.2771955 L65.4807315,36.877302 L65.4807315,9.83710015 C74.1870043,9.83710015 81.9389568,13.9246315 86.9031115,20.2771955 Z" id="Path" fill="#D5A60D" fill-rule="nonzero"></path>
                                <path d="M89.9991632,49.5207796 C89.9991632,58.5682432 85.5695965,66.5828448 78.7601411,71.5123737 L62.8652183,49.5207796 L84.2850645,32.863245 C87.8667216,37.4634068 89.9991632,43.2433788 89.9991632,49.5207796 Z" id="Path" fill="#0EAFD0" fill-rule="nonzero"></path>
                                <path d="M90.294749,20.2771955 L68.8732136,36.877302 L68.8732136,9.83710015 C77.5794863,9.83710015 85.3314388,13.9246315 90.294749,20.2771955 L90.294749,20.2771955 Z" id="Path" fill="#FFD800" fill-rule="nonzero"></path>
                                <g id="Group" stroke-width="1" fill="none" fill-rule="evenodd" transform="translate(0.000000, 41.294201)">
                                    <polygon id="Path" fill="#0EAFD0" fill-rule="nonzero" points="0 11.6182165 7.81951502 11.6182165 7.81951502 62.2960041 0 62.2960041"></polygon>
                                    <polygon id="Path" fill="#0EAFD0" fill-rule="nonzero" points="15.0377238 0.0861422969 22.8563941 0.0861422969 22.8563941 62.2960041 15.0377238 62.2960041"></polygon>
                                    <polygon id="Path" fill="#0EAFD0" fill-rule="nonzero" points="30.6404387 32.9873911 38.4599537 32.9873911 38.4599537 62.2960041 30.6404387 62.2960041"></polygon>
                                    <polygon id="Path" fill="#0EAFD0" fill-rule="nonzero" points="46.1291421 19.4199965 53.9486571 19.4199965 53.9486571 62.2960041 46.1291421 62.2960041"></polygon>
                                </g>
                                <path d="M104.827443,80.1029457 L86.8499062,80.1029457 C85.9133208,80.1029457 85.1540874,79.3437123 85.1540874,78.407127 C85.1540874,77.4705418 85.9133208,76.7113082 86.8499062,76.7113082 L104.826599,76.7113082 C105.764028,76.7113082 106.523262,77.4705418 106.523262,78.407127 C106.523262,79.3437123 105.764028,80.1029457 104.827443,80.1029457 L104.827443,80.1029457 Z" id="Path" fill="#FFC400" fill-rule="nonzero"></path>
                                <path d="M104.827443,72.9252747 L92.2768639,72.9252747 C91.3402788,72.9252747 90.5810452,72.166041 90.5810452,71.2286112 C90.5810452,70.2920261 91.3402788,69.5327924 92.2768639,69.5327924 L104.827443,69.5327924 C105.764028,69.5327924 106.523262,70.2920261 106.523262,71.2286112 C106.523262,72.166041 105.764028,72.9252747 104.827443,72.9252747 L104.827443,72.9252747 Z" id="Path" fill="#0EAFD0" fill-rule="nonzero"></path>
                            </g>
                        </g>
                    </g>
                    <g id="clouds"></g>
                </g>
            </g>
        </g>
    </g>
</svg>