<?xml version="1.0" encoding="UTF-8"?>
<svg width="229px" height="229px" viewBox="0 0 229 229" version="1.1" xmlns="http://www.w3.org/2000/svg" xmlns:xlink="http://www.w3.org/1999/xlink">
    <!-- Generator: Sketch 58 (84663) - https://sketch.com -->
    <title>Group 3</title>
    <desc>Created with Sketch.</desc>
    <defs>
        <rect id="path-1" x="28.7999994" y="28.7999994" width="154.799997" height="154.799997" rx="11.5199998"></rect>
        <filter x="-12.3%" y="-12.3%" width="124.7%" height="124.7%" filterUnits="objectBoundingBox" id="filter-3">
            <feMorphology radius="1.07999998" operator="dilate" in="SourceAlpha" result="shadowSpreadOuter1"></feMorphology>
            <feOffset dx="0" dy="0" in="shadowSpreadOuter1" result="shadowOffsetOuter1"></feOffset>
            <feGaussianBlur stdDeviation="6" in="shadowOffsetOuter1" result="shadowBlurOuter1"></feGaussianBlur>
            <feComposite in="shadowBlurOuter1" in2="SourceAlpha" operator="out" result="shadowBlurOuter1"></feComposite>
            <feColorMatrix values="0 0 0 0 0   0 0 0 0 0   0 0 0 0 0  0 0 0 0.147235577 0" type="matrix" in="shadowBlurOuter1"></feColorMatrix>
        </filter>
    </defs>
    <g id="desktop" stroke="none" stroke-width="1" fill="none" fill-rule="evenodd">
        <g id="cloud_monitoring" transform="translate(-231.000000, -610.000000)">
            <g id="Group-21" transform="translate(240.000000, 586.000000)">
                <g id="Group-3" transform="translate(0.000000, 32.000000)">
                    <g id="Group-16">
                        <circle id="Oval" fill="#F1F1F1" cx="107.999998" cy="100.799998" r="92.1599982"></circle>
                        <mask id="mask-2" fill="white">
                            <use xlink:href="#path-1"></use>
                        </mask>
                        <g id="Rectangle" fill-rule="nonzero" transform="translate(106.199998, 106.199998) rotate(-30.000000) translate(-106.199998, -106.199998) ">
                            <use fill="black" fill-opacity="1" filter="url(#filter-3)" xlink:href="#path-1"></use>
                            <use stroke="#F1F1F1" stroke-width="2.15999996" fill="#FFFFFF" xlink:href="#path-1"></use>
                        </g>
                        <g id="editor" mask="url(#mask-2)">
                            <g transform="translate(45.000000, 60.000000)">
                                <path d="M112.853026,0.165280504 L4.03042445,0.165280504 C1.80438827,0.165280504 0,1.96966877 0,4.19570495 L0,68.683181 L116.88345,68.683181 L116.88345,4.19570495 C116.88345,1.96966877 115.079062,0.165280504 112.853026,0.165280504 Z M110.8377,62.6374301 L6.04575081,62.6374301 L6.04575081,6.21103132 L110.8377,6.21103132 L110.8377,62.6374301 Z" id="Shape" fill="#464655" fill-rule="nonzero"></path>
                                <g id="Group" stroke-width="1" fill="none" fill-rule="evenodd" transform="translate(5.935488, 6.163776)">
                                    <path d="M40.4145076,25.2376938 C40.9715303,25.2376938 41.4221708,25.6883343 41.4221708,26.2453569 L44.444932,26.2453569 L44.444932,23.2225957 L40.4145076,23.2225957 C39.8574849,23.2225957 39.4068444,22.7719552 39.4068444,22.2149325 C39.4068444,21.6579098 39.8574849,21.2072693 40.4145076,21.2072693 L44.444932,21.2072693 L44.444932,8.1083328 L26.3079079,8.1083328 L26.3079079,26.2453569 L39.4068444,26.2453569 C39.4070727,25.6883343 39.8577132,25.2376938 40.4145076,25.2376938 Z" id="Path" fill="#FFFFFF" fill-rule="nonzero"></path>
                                    <polygon id="Shape" fill="#FFFFFF" fill-rule="nonzero" points="0.110263099 56.4736544 104.902212 56.4736544 104.902212 0.0472556137 0.110263099 0.0472556137"></polygon>
                                </g>
                                <path d="M0,76.7440299 C0,78.970066 1.80438827,80.7744543 4.03042445,80.7744543 L42.3197991,80.7744543 L74.563423,80.7744543 L112.852798,80.7744543 C115.078834,80.7744543 116.883222,78.970066 116.883222,76.7440299 L116.883222,68.683181 L0,68.683181 L0,76.7440299 Z M58.4417252,71.7059422 C60.1111953,71.7059422 61.4644865,73.0594617 61.4644865,74.7287035 C61.4644865,76.3979453 60.110967,77.7514648 58.4417252,77.7514648 C56.7722551,77.7514648 55.4189639,76.3979453 55.4189639,74.7287035 C55.4189639,73.0594617 56.7722551,71.7059422 58.4417252,71.7059422 Z" id="Shape" fill="#BEC8DC" fill-rule="nonzero"></path>
                                <polygon id="Path" fill="#AFBBD0" fill-rule="nonzero" points="40.5565027 94.8812823 76.3269477 94.8812823 75.0674829 84.805107 41.8159675 84.805107"></polygon>
                                <path d="M40.304701,94.8812823 C39.1917971,94.8812823 38.2893747,95.7837047 38.2893747,96.8966087 C38.2893747,98.0095126 39.1917971,98.911935 40.304701,98.911935 L76.5789776,98.911935 C77.6918816,98.911935 78.594304,98.0095126 78.594304,96.8966087 C78.594304,95.7837047 77.6918816,94.8812823 76.5789776,94.8812823 L76.327176,94.8812823 L40.556731,94.8812823 L40.304701,94.8812823 Z" id="Path" fill="#BEC8DC" fill-rule="nonzero"></path>
                                <g id="Group" stroke-width="1" fill="none" fill-rule="evenodd" transform="translate(41.776702, 71.682429)">
                                    <polygon id="Path" fill="#96A5B9" fill-rule="nonzero" points="0.0392655341 13.1226785 33.2907809 13.1226785 32.7869493 9.09225403 0.543097126 9.09225403"></polygon>
                                    <circle id="Oval" fill="#96A5B9" fill-rule="nonzero" cx="16.6650232" cy="3.04650321" r="3.02276126"></circle>
                                </g>
                            </g>
                        </g>
                        <g id="growth" mask="url(#mask-2)">
                            <g transform="translate(67.000000, 66.000000)">
                                <g id="Group" stroke-width="1" fill="none" fill-rule="evenodd" transform="translate(14.080326, 8.315244)">
                                    <path d="M4.63230516,36.7559797 C4.71860036,37.1669787 5.00474663,37.5075766 5.39470518,37.6634591 C5.78466373,37.8193417 6.22674616,37.7698468 6.57257711,37.5315865 L10.0402171,35.1407598 L7.53016281,35.1407598 L7.53016281,21.3354613 L0,21.3354613 L0,32.6307055 L3.76508141,32.6307055 L4.63230516,36.7559797 Z" id="Path" fill="#10BDE0" fill-rule="nonzero"></path>
                                    <polygon id="Path" fill="#10BDE0" fill-rule="nonzero" points="12.5502714 16.3153528 20.0804342 16.3153528 20.0804342 35.1407598 12.5502714 35.1407598"></polygon>
                                    <polygon id="Path" fill="#10BDE0" fill-rule="nonzero" points="25.1005427 6.27513568 32.6307055 6.27513568 32.6307055 35.1407598 25.1005427 35.1407598"></polygon>
                                    <polygon id="Path" fill="#10BDE0" fill-rule="nonzero" points="37.6508141 0 45.1809769 0 45.1809769 35.1407598 37.6508141 35.1407598"></polygon>
                                </g>
                                <path d="M5.17590813,61.3238254 L2.78508144,64.7914654 L6.55016285,68.5565468 L10.0178028,66.1719952 C10.3636338,65.9337349 10.8057162,65.88424 11.1956748,66.0401226 C11.5856333,66.1960051 11.8717796,66.536603 11.9580748,66.947602 L12.8252985,71.066601 L17.8454071,71.066601 L18.7126308,66.9413268 C18.798926,66.5303278 19.0850723,66.1897299 19.4750308,66.0338474 C19.8649894,65.8779649 20.3070718,65.9274597 20.6529028,66.1657201 L24.1205427,68.5565468 L27.8856242,64.7914654 L25.5010726,61.3238254 C25.2628123,60.9779944 25.2133174,60.535912 25.3692,60.1459534 C25.5250825,59.7559949 25.8656804,59.4698486 26.2766794,59.3835534 L30.3956784,58.5163297 L30.3956784,53.4962211 L26.2704042,52.6289974 C25.8594052,52.5427022 25.5188073,52.2565559 25.3629248,51.8665974 C25.2070423,51.4766388 25.2565371,51.0345564 25.4947975,50.6887254 L27.8856242,47.2210855 L24.1205427,43.456004 L20.6529028,45.8468307 C20.3070718,46.0850911 19.8649894,46.1345859 19.4750308,45.9787034 C19.0850723,45.8228209 18.798926,45.482223 18.7126308,45.071224 L17.8454071,40.9459498 L12.8252985,40.9459498 L11.9580748,45.071224 C11.8717796,45.482223 11.5856333,45.8228209 11.1956748,45.9787034 C10.8057162,46.1345859 10.3636338,46.0850911 10.0178028,45.8468307 L6.55016285,43.456004 L2.78508144,47.2210855 L5.17590813,50.6887254 C5.41416846,51.0345564 5.4636633,51.4766388 5.30778077,51.8665974 C5.15189825,52.2565559 4.81130035,52.5427022 4.40030136,52.6289974 L0.275027169,53.4962211 L0.275027169,58.5163297 L4.40030136,59.3835534 C4.81130035,59.4698486 5.15189825,59.7559949 5.30778077,60.1459534 C5.4636633,60.535912 5.41416846,60.9779944 5.17590813,61.3238254 L5.17590813,61.3238254 Z M15.3353528,49.7311397 C18.8010145,49.7311397 21.6104885,52.5406137 21.6104885,56.0062754 C21.6104885,59.4719371 18.8010145,62.2814111 15.3353528,62.2814111 C11.8696911,62.2814111 9.06021712,59.4719371 9.06021712,56.0062754 C9.06021712,52.5406137 11.8696911,49.7311397 15.3353528,49.7311397 Z" id="Shape" fill="#FFC400" fill-rule="nonzero"></path>
                                <path d="M67.4516096,56.8559288 L72.3324102,57.5537239 L73.3966732,50.0988627 L68.5158726,49.4010676 C67.5108206,49.2574789 66.6912382,48.5225807 66.4393179,47.539075 C66.1873976,46.5555693 66.5527543,45.5171546 67.3650128,44.9080704 L71.309563,41.9499715 L66.7914654,35.9258412 L62.8469151,38.8839402 C62.0347102,39.4932036 60.9354502,39.5531554 60.0618034,39.0358356 C59.1881565,38.5185158 58.7122081,37.5258226 58.8559288,36.5207241 L59.5537239,31.6399236 L59.2613025,31.5985077 L52.0988627,30.5756606 L51.4010676,35.4564611 C51.2574789,36.4615132 50.5225807,37.2810955 49.539075,37.5330158 C48.5555693,37.7849361 47.5171546,37.4195795 46.9080704,36.607321 L43.9499715,32.6627707 L39.1808684,36.239598 L37.9258412,37.1808684 L40.8839402,41.1254187 C41.4932036,41.9376235 41.5531554,43.0368835 41.0358356,43.9105303 C40.5185158,44.7841772 39.5258226,45.2601257 38.5207241,45.1164049 L33.6399236,44.4186099 L32.5756606,51.873471 L37.4564611,52.5712661 C38.4615132,52.7148548 39.2810955,53.449753 39.5330158,54.4332587 C39.7849361,55.4167645 39.4195795,56.4551791 38.607321,57.0642633 L34.6627707,60.0223622 L39.1808684,66.0464925 L43.1254187,63.0883935 C43.9376235,62.4791302 45.0368835,62.4191783 45.9105303,62.9364982 C46.7841772,63.453818 47.2601257,64.4465112 47.1164049,65.4516096 L46.4186099,70.3324102 L53.873471,71.3966732 L54.5712661,66.5158726 C54.7148548,65.5108206 55.449753,64.6912382 56.4332587,64.4393179 C57.4167645,64.1873976 58.4551791,64.5527543 59.0642633,65.3650128 L62.0223622,69.309563 L68.0464925,64.7914654 L65.0883935,60.8469151 C64.4791302,60.0347102 64.4191783,58.9354502 64.9364982,58.0618034 C65.453818,57.1881565 66.4465112,56.7122081 67.4516096,56.8559288 L67.4516096,56.8559288 Z M52.9861669,59.7713568 C48.1342404,59.7713568 44.2009769,55.8380933 44.2009769,50.9861669 C44.2009769,46.1342404 48.1342404,42.2009769 52.9861669,42.2009769 C57.8380933,42.2009769 61.7713568,46.1342404 61.7713568,50.9861669 C61.7713568,55.8380933 57.8380933,59.7713568 52.9861669,59.7713568 L52.9861669,59.7713568 Z" id="Shape" fill="#FFD800" fill-rule="nonzero"></path>
                                <path d="M13.4603423,25.7136854 L47.441457,5.79389474 L46.7361317,9.31926596 L49.1959849,9.8112366 L50.451012,3.53610092 C50.5835709,2.86025676 50.1467135,2.20385058 49.4720909,2.06520912 L43.1969552,0.810181983 L42.6949443,3.27003517 L45.7371301,3.87997836 L12.1902548,23.5475086 L13.4603423,25.7136854 Z" id="Path" fill="#50CAE3" fill-rule="nonzero"></path>
                                <polygon id="Path" fill="#A1A1A1" fill-rule="nonzero" points="4.04010858 30.9057327 6.55016285 30.9057327 6.55016285 39.6909226 4.04010858 39.6909226"></polygon>
                                <polygon id="Path" fill="#A1A1A1" fill-rule="nonzero" points="4.04010858 25.8856242 6.55016285 25.8856242 6.55016285 28.3956784 4.04010858 28.3956784"></polygon>
                                <polygon id="Path" fill="#A1A1A1" fill-rule="nonzero" points="66.7914654 13.3353528 69.3015196 13.3353528 69.3015196 32.1607598 66.7914654 32.1607598"></polygon>
                                <polygon id="Path" fill="#A1A1A1" fill-rule="nonzero" points="66.7914654 8.31524425 69.3015196 8.31524425 69.3015196 10.8252985 66.7914654 10.8252985"></polygon>
                            </g>
                        </g>
                    </g>
                    <g id="clouds"></g>
                </g>
            </g>
        </g>
    </g>
</svg>