<?xml version="1.0" encoding="UTF-8"?>
<svg width="229px" height="229px" viewBox="0 0 229 229" version="1.1" xmlns="http://www.w3.org/2000/svg" xmlns:xlink="http://www.w3.org/1999/xlink">
    <!-- Generator: Sketch 58 (84663) - https://sketch.com -->
    <title>Group 3</title>
    <desc>Created with Sketch.</desc>
    <defs>
        <rect id="path-1" x="28.7999994" y="28.7999994" width="154.799997" height="154.799997" rx="11.5199998"></rect>
        <filter x="-12.3%" y="-12.3%" width="124.7%" height="124.7%" filterUnits="objectBoundingBox" id="filter-3">
            <feMorphology radius="1.07999998" operator="dilate" in="SourceAlpha" result="shadowSpreadOuter1"></feMorphology>
            <feOffset dx="0" dy="0" in="shadowSpreadOuter1" result="shadowOffsetOuter1"></feOffset>
            <feGaussianBlur stdDeviation="6" in="shadowOffsetOuter1" result="shadowBlurOuter1"></feGaussianBlur>
            <feComposite in="shadowBlurOuter1" in2="SourceAlpha" operator="out" result="shadowBlurOuter1"></feComposite>
            <feColorMatrix values="0 0 0 0 0   0 0 0 0 0   0 0 0 0 0  0 0 0 0.147235577 0" type="matrix" in="shadowBlurOuter1"></feColorMatrix>
        </filter>
    </defs>
    <g id="desktop" stroke="none" stroke-width="1" fill="none" fill-rule="evenodd">
        <g id="cloud_monitoring" transform="translate(-978.000000, -954.000000)">
            <g id="Group-21" transform="translate(240.000000, 586.000000)">
                <g id="Group-3" transform="translate(747.000000, 376.000000)">
                    <g id="Group-16">
                        <circle id="Oval" fill="#F1F1F1" cx="107.999998" cy="100.799998" r="92.1599982"></circle>
                        <mask id="mask-2" fill="white">
                            <use xlink:href="#path-1"></use>
                        </mask>
                        <g id="Rectangle" fill-rule="nonzero" transform="translate(106.199998, 106.199998) rotate(-30.000000) translate(-106.199998, -106.199998) ">
                            <use fill="black" fill-opacity="1" filter="url(#filter-3)" xlink:href="#path-1"></use>
                            <use stroke="#F1F1F1" stroke-width="2.15999996" fill="#FFFFFF" xlink:href="#path-1"></use>
                        </g>
                        <g id="editor" mask="url(#mask-2)">
                            <g transform="translate(45.000000, 60.000000)">
                                <path d="M112.853026,0.165280504 L4.03042445,0.165280504 C1.80438827,0.165280504 0,1.96966877 0,4.19570495 L0,68.683181 L116.88345,68.683181 L116.88345,4.19570495 C116.88345,1.96966877 115.079062,0.165280504 112.853026,0.165280504 Z M110.8377,62.6374301 L6.04575081,62.6374301 L6.04575081,6.21103132 L110.8377,6.21103132 L110.8377,62.6374301 Z" id="Shape" fill="#464655" fill-rule="nonzero"></path>
                                <g id="Group" stroke-width="1" fill="none" fill-rule="evenodd" transform="translate(5.935488, 6.163776)">
                                    <path d="M40.4145076,25.2376938 C40.9715303,25.2376938 41.4221708,25.6883343 41.4221708,26.2453569 L44.444932,26.2453569 L44.444932,23.2225957 L40.4145076,23.2225957 C39.8574849,23.2225957 39.4068444,22.7719552 39.4068444,22.2149325 C39.4068444,21.6579098 39.8574849,21.2072693 40.4145076,21.2072693 L44.444932,21.2072693 L44.444932,8.1083328 L26.3079079,8.1083328 L26.3079079,26.2453569 L39.4068444,26.2453569 C39.4070727,25.6883343 39.8577132,25.2376938 40.4145076,25.2376938 Z" id="Path" fill="#FFFFFF" fill-rule="nonzero"></path>
                                    <polygon id="Shape" fill="#FFFFFF" fill-rule="nonzero" points="0.110263099 56.4736544 104.902212 56.4736544 104.902212 0.0472556137 0.110263099 0.0472556137"></polygon>
                                    <g id="shield-(4)" transform="translate(32.000000, 1.000000)" fill-rule="nonzero">
                                        <path d="M43.2083,35.7296107 C41.7702004,39.627134 39.5952942,43.0160364 36.743179,45.8012062 C33.4967397,48.9713116 29.2457123,51.4903331 24.108068,53.2872432 C23.9394801,53.3460244 23.7635445,53.3941924 23.5867926,53.429706 C23.3533003,53.475833 23.1157261,53.5007334 22.880193,53.503999 L22.8340659,53.503999 C22.5830211,53.503999 22.3307515,53.4786904 22.080523,53.429706 C21.9037711,53.3941924 21.7302847,53.3460244 21.5625133,53.2884678 C16.4187459,51.4944151 12.1624119,48.9766182 8.91270682,45.8065129 C6.05936708,43.021343 3.88486904,39.6344817 2.44881053,35.7369584 C-0.162464893,28.6505522 -0.0138788538,20.8440758 0.105724634,14.5708103 L0.107765623,14.4744744 C0.131849633,13.9564646 0.147361299,13.4123298 0.155933643,12.8114548 C0.199611298,9.86137097 2.54514646,7.4207245 5.4956386,7.25621862 C11.6472595,6.91291982 16.4060915,4.90660147 20.4722028,0.943357431 L20.5077165,0.910701182 C21.1828844,0.291456974 22.0335797,-0.0122461458 22.880193,2.85646146e-05 C23.6965992,0.0110215103 24.5097398,0.314316348 25.1608238,0.910701182 L25.1955211,0.943357431 C29.2624487,4.90660147 34.0212806,6.91291982 40.1729017,7.25621862 C43.1233937,7.4207245 45.4689289,9.86137097 45.5126066,12.8114548 C45.5211789,13.4164119 45.5366905,13.9597303 45.5607745,14.4744744 L45.5619992,14.5152947 C45.6811945,20.8003981 45.8289641,28.6223863 43.2083,35.7296107 Z" id="Path" fill="#10BDE0"></path>
                                        <path d="M43.2083,35.7296107 C41.7702004,39.627134 39.5952942,43.0160364 36.743179,45.8012062 C33.4967397,48.9713116 29.2457123,51.4903331 24.108068,53.2872432 C23.9394801,53.3460244 23.7635445,53.3941924 23.5867926,53.429706 C23.3533003,53.475833 23.1157261,53.5007334 22.880193,53.503999 L22.880193,0.000408203118 C23.6965992,0.0110215103 24.5097398,0.314316348 25.1608238,0.910701182 L25.1955211,0.943357431 C29.2624487,4.90660147 34.0212806,6.91291982 40.1729017,7.25621862 C43.1233937,7.4207245 45.4689289,9.86137097 45.5126066,12.8114548 C45.5211789,13.4164119 45.5366905,13.9597303 45.5607745,14.4744744 L45.5619992,14.5152947 C45.6811945,20.8003981 45.8289641,28.6223863 43.2083,35.7296107 Z" id="Path" fill="#0EAFD0"></path>
                                        <path d="M36.1676126,26.7519995 C36.1676126,34.0886341 30.2107045,40.0606458 22.880193,40.0867708 L22.8332496,40.0867708 C15.4811032,40.0867708 9.49847832,34.1045541 9.49847832,26.7519995 C9.49847832,19.3998531 15.4811032,13.4176365 22.8332496,13.4176365 L22.880193,13.4176365 C30.2107045,13.4437615 36.1676126,19.4157731 36.1676126,26.7519995 Z" id="Path" fill="#FFFFFF"></path>
                                        <path d="M36.1676126,26.7519995 C36.1676126,34.0886341 30.2107045,40.0606458 22.880193,40.0867708 L22.880193,13.4176365 C30.2107045,13.4437615 36.1676126,19.4157731 36.1676126,26.7519995 Z" id="Path" fill="#E1EBF0"></path>
                                        <path d="M28.8856772,24.8318121 L22.880193,30.8381127 L21.5825152,32.1357904 C21.2759547,32.442351 20.8738746,32.5954272 20.4722028,32.5954272 C20.0701227,32.5954272 19.6684508,32.442351 19.3614821,32.1357904 L16.5714138,29.3444975 C15.9582927,28.7313764 15.9582927,27.7382183 16.5714138,27.1246889 C17.1837184,26.5115679 18.1781012,26.5115679 18.7912223,27.1246889 L20.4722028,28.8056694 L26.6658686,22.6120034 C27.2789898,21.9984742 28.2733726,21.9984742 28.8856772,22.6120034 C29.4987983,23.2251246 29.4987983,24.2195074 28.8856772,24.8318121 Z" id="Path" fill="#128DA6"></path>
                                        <path d="M28.8856772,24.8318121 L22.880193,30.8381127 L22.880193,26.397271 L26.6658686,22.6120034 C27.2789898,21.9984742 28.2733726,21.9984742 28.8856772,22.6120034 C29.4987983,23.2251246 29.4987983,24.2195074 28.8856772,24.8318121 Z" id="Path" fill="#0D7084"></path>
                                    </g>
                                </g>
                                <path d="M0,76.7440299 C0,78.970066 1.80438827,80.7744543 4.03042445,80.7744543 L42.3197991,80.7744543 L74.563423,80.7744543 L112.852798,80.7744543 C115.078834,80.7744543 116.883222,78.970066 116.883222,76.7440299 L116.883222,68.683181 L0,68.683181 L0,76.7440299 Z M58.4417252,71.7059422 C60.1111953,71.7059422 61.4644865,73.0594617 61.4644865,74.7287035 C61.4644865,76.3979453 60.110967,77.7514648 58.4417252,77.7514648 C56.7722551,77.7514648 55.4189639,76.3979453 55.4189639,74.7287035 C55.4189639,73.0594617 56.7722551,71.7059422 58.4417252,71.7059422 Z" id="Shape" fill="#BEC8DC" fill-rule="nonzero"></path>
                                <g id="locked-(2)" stroke-width="1" fill="none" fill-rule="evenodd" transform="translate(64.935488, 46.163776)">
                                    <path d="M4.56000025,12.4800007 L4.56000025,5.08848028 C4.56000025,2.28960013 7.04400038,0 10.0800006,0 L10.0800006,0 C13.1160007,0 15.6000009,2.28960013 15.6000009,5.08848028 L15.6000009,12.4800007 L4.56000025,12.4800007 Z" id="Path" stroke="#424A60" stroke-width="3" stroke-linecap="round"></path>
                                    <rect id="Rectangle" fill="#FFC400" fill-rule="nonzero" x="0.240000013" y="10.0400006" width="20.1600011" height="15.3600008"></rect>
                                    <path d="M10.3200006,19.6400011 L10.3200006,19.6400011 C9.52800052,19.6400011 8.88000049,18.9920011 8.88000049,18.200001 L8.88000049,15.3200009 C8.88000049,14.5280008 9.52800052,13.8800008 10.3200006,13.8800008 L10.3200006,13.8800008 C11.1120006,13.8800008 11.7600006,14.5280008 11.7600006,15.3200009 L11.7600006,18.200001 C11.7600006,18.9920011 11.1120006,19.6400011 10.3200006,19.6400011 Z" id="Path" fill="#424A60" fill-rule="nonzero"></path>
                                    <rect id="Rectangle" fill="#38454F" fill-rule="nonzero" x="0.240000013" y="22.5200013" width="20.1600011" height="2.88000016"></rect>
                                </g>
                                <polygon id="Path" fill="#AFBBD0" fill-rule="nonzero" points="40.5565027 94.8812823 76.3269477 94.8812823 75.0674829 84.805107 41.8159675 84.805107"></polygon>
                                <path d="M40.304701,94.8812823 C39.1917971,94.8812823 38.2893747,95.7837047 38.2893747,96.8966087 C38.2893747,98.0095126 39.1917971,98.911935 40.304701,98.911935 L76.5789776,98.911935 C77.6918816,98.911935 78.594304,98.0095126 78.594304,96.8966087 C78.594304,95.7837047 77.6918816,94.8812823 76.5789776,94.8812823 L76.327176,94.8812823 L40.556731,94.8812823 L40.304701,94.8812823 Z" id="Path" fill="#BEC8DC" fill-rule="nonzero"></path>
                                <g id="Group" stroke-width="1" fill="none" fill-rule="evenodd" transform="translate(41.776702, 71.682429)">
                                    <polygon id="Path" fill="#96A5B9" fill-rule="nonzero" points="0.0392655341 13.1226785 33.2907809 13.1226785 32.7869493 9.09225403 0.543097126 9.09225403"></polygon>
                                    <circle id="Oval" fill="#96A5B9" fill-rule="nonzero" cx="16.6650232" cy="3.04650321" r="3.02276126"></circle>
                                </g>
                            </g>
                        </g>
                    </g>
                    <g id="clouds"></g>
                </g>
            </g>
        </g>
    </g>
</svg>