<?xml version="1.0" encoding="UTF-8"?>
<svg width="59px" height="52px" viewBox="0 0 59 52" version="1.1" xmlns="http://www.w3.org/2000/svg" xmlns:xlink="http://www.w3.org/1999/xlink">
    <!-- Generator: Sketch 49.3 (51167) - http://www.bohemiancoding.com/sketch -->
    <title>chat (3)</title>
    <desc>Created with Sketch.</desc>
    <defs></defs>
    <g id="Page-1" stroke="none" stroke-width="1" fill="none" fill-rule="evenodd">
        <g id="Large-Device-Desktops" transform="translate(-245.000000, -600.000000)" fill-rule="nonzero">
            <g id="Group-7" transform="translate(244.000000, 600.000000)">
                <g id="chat-(3)" transform="translate(1.000000, 0.000000)">
                    <path d="M8.35365854,51.9156925 C8.48780488,51.9759122 8.64634146,52 8.79268293,52 C9.07317073,52 9.35365854,51.8916047 9.56097561,51.6989019 L17.2073171,44.4725469 L31.5853659,44.4725469 C34.5731707,44.4725469 37,42.0758059 37,39.1250443 L37,31.0676585 C37,30.4654623 36.5,29.9716614 35.8902439,29.9716614 C35.2804878,29.9716614 34.7804878,30.4654623 34.7804878,31.0676585 L34.7804878,39.1250443 C34.7804878,40.8714134 33.3414634,42.2805526 31.5853659,42.2805526 L16.7560976,42.2805526 C16.4756098,42.2805526 16.195122,42.3889479 15.9878049,42.5816507 L9.8902439,48.3386468 L9.8902439,43.3885937 C9.8902439,42.7863974 9.3902439,42.2925965 8.7804878,42.2925965 L5.41463415,42.2925965 C3.64634146,42.2925965 2.2195122,40.8714134 2.2195122,39.1370882 L2.2195122,23.3595466 C2.2195122,21.6131775 3.65853659,20.1919943 5.41463415,20.1919943 L18.5,20.1919943 C19.1097561,20.1919943 19.6097561,19.6981934 19.6097561,19.0959972 C19.6097561,18.4938009 19.1097561,18 18.5,18 L5.41463415,18 C2.42682927,18 0,20.3967411 0,23.3475027 L0,39.1250443 C0,42.0758059 2.42682927,44.4725469 5.41463415,44.4725469 L7.68292683,44.4725469 L7.68292683,50.9160468 C7.68292683,51.3496281 7.95121951,51.7470776 8.35365854,51.9156925 Z" id="Shape" fill="#42566C"></path>
                    <path d="M41.8011122,27.2468354 L49.4504416,34.6923347 C49.6561989,34.8892405 49.9345764,35 50.2129539,35 C50.3581943,35 50.5034347,34.9753868 50.6486752,34.9138537 C51.0480864,34.7415612 51.3143605,34.335443 51.3143605,33.8924051 L51.3143605,27.2468354 L53.5897939,27.2468354 C56.5672228,27.2468354 59,24.7855134 59,21.7457806 L59,5.50105485 C59,2.47362869 56.5793261,0 53.5897939,0 L27.4102061,0 C24.4327772,0 22,2.46132208 22,5.50105485 L22,21.7457806 C22,24.7732068 24.4206739,27.2468354 27.4102061,27.2468354 L41.8011122,27.2468354 Z M24.2028132,21.7457806 L24.2028132,5.50105485 C24.2028132,3.70428973 25.6431142,2.23980309 27.4102061,2.23980309 L53.5776905,2.23980309 C55.3447825,2.23980309 56.7850834,3.70428973 56.7850834,5.50105485 L56.7850834,21.7457806 C56.7850834,23.5425457 55.3447825,25.0070323 53.5776905,25.0070323 L50.2008505,25.0070323 C49.595682,25.0070323 49.0994439,25.5116034 49.0994439,26.1269339 L49.0994439,31.271097 L42.9872424,25.3270042 C42.7814851,25.1300985 42.515211,25.019339 42.2247301,25.019339 L27.4102061,25.019339 C25.6431142,25.019339 24.2028132,23.5548523 24.2028132,21.7457806 Z" id="Shape" fill="#42566C"></path>
                    <path d="M39.5,15 C39.8956044,15 40.2747253,14.8351648 40.5549451,14.5549451 C40.8351648,14.2747253 41,13.8956044 41,13.5 C41,13.1043956 40.8351648,12.7252747 40.5549451,12.4450549 C40.2747253,12.1648352 39.8956044,12 39.5,12 C39.1043956,12 38.7252747,12.1648352 38.4450549,12.4450549 C38.1648352,12.7252747 38,13.1043956 38,13.5 C38,13.8956044 38.1648352,14.2747253 38.4450549,14.5549451 C38.7252747,14.8516484 39.1043956,15 39.5,15 Z" id="Shape" fill="#E83F67"></path>
                    <path d="M45.5,15 C45.8956044,15 46.2747253,14.8351648 46.5549451,14.5549451 C46.8351648,14.2747253 47,13.8956044 47,13.5 C47,13.1043956 46.8351648,12.7252747 46.5549451,12.4450549 C46.2747253,12.1648352 45.8956044,12 45.5,12 C45.1043956,12 44.7252747,12.1648352 44.4450549,12.4450549 C44.1648352,12.7252747 44,13.1043956 44,13.5 C44,13.8956044 44.1648352,14.2747253 44.4450549,14.5549451 C44.7087912,14.8516484 45.1043956,15 45.5,15 Z" id="Shape" fill="#E83F67"></path>
                    <path d="M33.5,15 C33.8956044,15 34.2747253,14.8351648 34.5549451,14.5549451 C34.8351648,14.2747253 35,13.8956044 35,13.5 C35,13.1043956 34.8351648,12.7252747 34.5549451,12.4450549 C34.2747253,12.1648352 33.8956044,12 33.5,12 C33.1043956,12 32.7252747,12.1648352 32.4450549,12.4450549 C32.1648352,12.7252747 32,13.1043956 32,13.5 C32,13.8956044 32.1648352,14.2747253 32.4450549,14.5549451 C32.7252747,14.8516484 33.1043956,15 33.5,15 Z" id="Shape" fill="#E83F67"></path>
                </g>
            </g>
        </g>
    </g>
</svg>