<?xml version="1.0" encoding="UTF-8"?>
<svg width="54px" height="54px" viewBox="0 0 54 54" version="1.1" xmlns="http://www.w3.org/2000/svg" xmlns:xlink="http://www.w3.org/1999/xlink">
    <!-- Generator: Sketch 49.3 (51167) - http://www.bohemiancoding.com/sketch -->
    <title>settings (10)</title>
    <desc>Created with Sketch.</desc>
    <defs></defs>
    <g id="Page-1" stroke="none" stroke-width="1" fill="none" fill-rule="evenodd">
        <g id="Large-Device-Desktops" transform="translate(-909.000000, -915.000000)" fill-rule="nonzero">
            <g id="Group-7" transform="translate(909.000000, 915.000000)">
                <g id="settings-(10)">
                    <path d="M38.0831976,41.9734127 C37.9292261,42.3615031 37.4893075,42.5389158 37.1153768,42.3836797 L34.6298371,41.3413799 C34.1899185,41.1528789 33.6840122,41.308115 33.4200611,41.7072936 C32.2982688,43.4038029 30.8685336,44.8452813 29.1858452,45.9762875 C28.7899185,46.2424066 28.635947,46.7524682 28.8229124,47.196 L29.845723,49.7019548 C29.9996945,50.0789569 29.8237271,50.5224887 29.4387984,50.6777248 L26.7332994,51.8198193 C26.3593686,51.9750554 25.9194501,51.7976427 25.7654786,51.4095524 L24.7316701,48.9035975 C24.5447047,48.4600657 24.0827902,48.2050349 23.6208758,48.3048296 C21.6412424,48.7040082 19.6286151,48.7040082 17.6379837,48.3048296 C17.1760692,48.2161232 16.7031568,48.4600657 16.5271894,48.9035975 L15.4933809,51.4095524 C15.3394094,51.7865544 14.8994908,51.9750554 14.5255601,51.8198193 L11.8200611,50.6888131 C11.6330957,50.6111951 11.4901222,50.4670472 11.4131365,50.2785462 C11.3361507,50.0900452 11.3361507,49.8904559 11.4131365,49.7019548 L12.446945,47.196 C12.6339104,46.7524682 12.4799389,46.2424066 12.0840122,45.9762875 C10.4013238,44.8452813 8.97158859,43.4038029 7.84979633,41.7072936 C7.58584521,41.308115 7.0799389,41.1528789 6.64002037,41.3413799 L4.15448065,42.3836797 C3.76955193,42.5389158 3.34063136,42.3615031 3.18665988,41.9734127 L2.06486762,39.245692 C1.91089613,38.8686899 2.08686354,38.4251581 2.47179226,38.269922 L4.95733198,37.2276222 C5.39725051,37.0391211 5.65020367,36.5734127 5.551222,36.1077043 C5.15529532,34.1118111 5.15529532,32.082653 5.551222,30.0756715 C5.6392057,29.609963 5.39725051,29.1331663 4.95733198,28.9557536 L2.47179226,27.9134538 C2.28482688,27.8358357 2.14185336,27.6916879 2.06486762,27.5031869 C1.98788187,27.3146858 1.98788187,27.1150965 2.06486762,26.9265955 L3.18665988,24.1988747 C3.26364562,24.0103737 3.40661914,23.8662259 3.59358452,23.7886078 C3.7805499,23.7109897 3.97851324,23.7109897 4.16547862,23.7886078 L6.65101833,24.8309076 C7.09093686,25.0194086 7.59684318,24.8641725 7.8607943,24.4649938 C8.98258656,22.7684846 10.4123218,21.3270062 12.0950102,20.196 C12.4909369,19.9298809 12.6449084,19.4198193 12.457943,18.9762875 L11.4241344,16.4703326 C11.3471487,16.2818316 11.3471487,16.0822423 11.4241344,15.8937413 C11.5011202,15.7052402 11.6440937,15.5610924 11.8310591,15.4834743 L14.536558,14.3524682 C14.9104888,14.197232 15.3504073,14.3746448 15.5043788,14.7627351 L16.5381874,17.2686899 C16.7471487,17.7787515 17.3300407,18.022694 17.835947,17.8120164 C18.3418534,17.6013388 18.5838086,17.0136591 18.3748473,16.5035975 L17.3410387,13.9976427 C16.7581466,12.5894292 15.163442,11.9241314 13.7667006,12.5007228 L11.0612016,13.631729 C10.3903259,13.9089363 9.86242363,14.4411745 9.57647658,15.1286489 C9.30152749,15.8050349 9.30152749,16.559039 9.57647658,17.2465133 L10.3023422,19.0095524 C8.91659878,20.0407639 7.69582485,21.2715647 6.66201629,22.6797782 L4.91334012,21.9479507 C4.24246436,21.6707433 3.49460285,21.6707433 2.81272912,21.9479507 C2.14185336,22.2251581 1.61395112,22.7573963 1.32800407,23.4448706 L0.206211813,26.1725914 C-0.0687372709,26.8489774 -0.0687372709,27.6029815 0.206211813,28.2904559 C0.481160896,28.9668419 1.00906314,29.4990801 1.69093686,29.7873758 L3.43961303,30.5192033 C3.17566191,32.2489774 3.17566191,33.9787515 3.43961303,35.7085257 L1.69093686,36.4403532 C0.294195519,37.0280329 -0.365682281,38.6358357 0.206211813,40.0440493 L1.32800407,42.7385051 C1.89989817,44.1467187 3.50560081,44.8120164 4.90234216,44.2354251 L6.65101833,43.5035975 C7.67382892,44.9007228 8.89460285,46.1315236 10.2913442,47.1738234 L9.56547862,48.9368624 C9.29052953,49.6132485 9.29052953,50.3672526 9.56547862,51.0547269 C9.8404277,51.7311129 10.3683299,52.2633511 11.0502037,52.5516468 L13.7557026,53.682653 C15.152444,54.2592444 16.7581466,53.5939466 17.3300407,52.1857331 L18.0559063,50.422694 C19.7715886,50.6888131 21.4872709,50.6888131 23.2029532,50.422694 L23.9288187,52.1857331 C24.3687373,53.2502094 25.3915479,53.8933306 26.4583503,53.8933306 C26.8102851,53.8933306 27.16222,53.8268008 27.5031568,53.682653 L30.2086558,52.5516468 C31.6053971,51.9639671 32.2652749,50.3561643 31.6933809,48.9479507 L30.9675153,47.1849117 C32.3532587,46.1537002 33.5740326,44.9228994 34.6078411,43.5146858 L36.3565173,44.2465133 C37.7532587,44.834193 39.3589613,44.157807 39.9308554,42.7495934 L41.0526477,40.0218727 C41.3275967,39.3454867 41.3275967,38.5914825 41.0526477,37.9040082 C40.7776986,37.2276222 40.2497963,36.695384 39.5679226,36.4070883 L37.0823829,35.3647885 C36.5764766,35.1541109 35.9935845,35.3980534 35.7846232,35.908115 C35.5756619,36.4181766 35.8176171,37.0058563 36.3235234,37.2165339 L38.8090631,38.2588337 C38.9960285,38.3364517 39.139002,38.4805996 39.2159878,38.6691006 C39.2929735,38.8576016 39.2929735,39.057191 39.2159878,39.245692 L38.0831976,41.9734127 Z" id="Shape" fill="#42566C"></path>
                    <path d="M20.5744399,26.2280329 C21.1243381,26.2280329 21.5642566,25.7734127 21.5642566,25.2189979 C21.5642566,24.6645832 21.1133401,24.2210513 20.563442,24.2210513 C20.563442,24.2210513 20.563442,24.2210513 20.552444,24.2210513 C18.1988798,24.2432279 15.9992872,25.1746448 14.3495927,26.8600657 C12.6998982,28.5454867 11.7980652,30.7853224 11.8200611,33.1471294 C11.842057,35.5200246 12.7658859,37.7376838 14.4375764,39.4009281 C16.0982688,41.0530842 18.2868635,41.9512361 20.6074338,41.9512361 C20.6294297,41.9512361 20.6514257,41.9512361 20.6734216,41.9512361 C23.0269857,41.9290595 25.2265784,40.9976427 26.8762729,39.3122218 C28.5259674,37.6268008 29.4278004,35.3869651 29.4058045,33.0251581 C29.4058045,32.4707433 28.954888,32.0272115 28.4049898,32.0272115 C28.4049898,32.0272115 28.4049898,32.0272115 28.3939919,32.0272115 C27.8440937,32.0272115 27.4041752,32.4818316 27.4041752,33.0362464 C27.4151731,34.8658152 26.7223014,36.5955893 25.4465377,37.9040082 C24.1707739,39.2124271 22.4660896,39.9331663 20.6514257,39.9442546 C20.6294297,39.9442546 20.6184318,39.9442546 20.5964358,39.9442546 C18.8037678,39.9442546 17.0990835,39.245692 15.8233198,37.970538 C14.5255601,36.6842957 13.8106925,34.9656099 13.7996945,33.1360411 C13.7886965,31.3064723 14.4815682,29.5766982 15.757332,28.2682793 C17.0550916,26.9709487 18.759776,26.2391211 20.5744399,26.2280329 Z" id="Shape" fill="#42566C"></path>
                    <path d="M51.6436864,19.3976427 C52.8864562,19.3976427 53.9092668,18.3775195 53.9092668,17.1134538 L53.9092668,14.9734127 C53.9092668,13.7204353 52.8974542,12.6892238 51.6436864,12.6892238 L50.4889002,12.6892238 C50.1919552,11.5803943 49.7630346,10.5159179 49.1911405,9.52905955 L50.0159878,8.69743737 C50.8958248,7.81037372 50.8958248,6.35780698 50.0159878,5.47074333 L48.5092668,3.95164682 C48.0803462,3.51920329 47.5084521,3.28634908 46.9145621,3.28634908 C46.3096741,3.28634908 45.73778,3.51920329 45.3198574,3.95164682 L44.4950102,4.78326899 C43.5051935,4.20667762 42.460387,3.76314579 41.3605906,3.4748501 L41.3605906,2.29949076 C41.3605906,1.04651335 40.348778,0.015301848 39.0950102,0.015301848 L36.9614053,0.015301848 C35.7186354,0.015301848 34.6958248,1.03542505 34.6958248,2.29949076 L34.6958248,3.4748501 C33.5960285,3.77423409 32.540224,4.20667762 31.5614053,4.78326899 L30.736558,3.95164682 C30.3076375,3.51920329 29.7357434,3.28634908 29.1418534,3.28634908 C28.5369654,3.28634908 27.9650713,3.51920329 27.5471487,3.95164682 L26.0404277,5.47074333 C25.1605906,6.35780698 25.1605906,7.81037372 26.0404277,8.69743737 L26.8652749,9.52905955 C26.2933809,10.5270062 25.8534623,11.5803943 25.5675153,12.6892238 L24.4017312,12.6892238 C23.1589613,12.6892238 22.1361507,13.709347 22.1361507,14.9734127 L22.1361507,17.1245421 C22.1361507,18.3775195 23.1479633,19.408731 24.4017312,19.408731 L25.5675153,19.408731 C25.8644603,20.5175606 26.2933809,21.582037 26.8652749,22.5688953 L26.0404277,23.4005175 C25.1605906,24.2875811 25.1605906,25.7401478 26.0404277,26.6272115 L27.5471487,28.146308 C27.9760692,28.5787515 28.5479633,28.8116057 29.1418534,28.8116057 C29.7467413,28.8116057 30.3186354,28.5787515 30.736558,28.146308 L31.5614053,27.3146858 C32.551222,27.8912772 33.5960285,28.334809 34.6958248,28.6231047 L34.6958248,29.7984641 C34.6958248,31.0514415 35.7076375,32.082653 36.9614053,32.082653 L39.0950102,32.082653 C40.33778,32.082653 41.3605906,31.0625298 41.3605906,29.7984641 L41.3605906,28.6120164 C42.460387,28.3126324 43.5161914,27.8801889 44.4950102,27.3035975 L45.3198574,28.1352197 C45.748778,28.5676632 46.3206721,28.8005175 46.9145621,28.8005175 C47.5194501,28.8005175 48.0913442,28.5676632 48.5092668,28.1352197 L50.0159878,26.6161232 C50.8958248,25.7290595 50.8958248,24.2764928 50.0159878,23.3894292 L49.1911405,22.557807 C49.7630346,21.5598604 50.2029532,20.5064723 50.4889002,19.3976427 L51.6436864,19.3976427 Z M48.7182281,18.2001068 C48.443279,19.6194086 47.8933809,20.9500041 47.0905295,22.1586283 C46.8265784,22.557807 46.8815682,23.0900452 47.2115071,23.422694 L48.5972505,24.8198193 C48.7072301,24.9307023 48.7072301,25.0970267 48.5972505,25.2079097 L47.0905295,26.7270062 C47.0245418,26.7935359 46.947556,26.8046242 46.9035642,26.8046242 C46.8485743,26.8046242 46.7825866,26.7935359 46.7165988,26.7270062 L45.3308554,25.3298809 C44.9899185,24.9861437 44.4620163,24.9417906 44.0770876,25.2079097 C42.8783096,26.0173552 41.558554,26.5606817 40.1508147,26.8489774 C39.6889002,26.9376838 39.3479633,27.359039 39.3479633,27.8358357 L39.3479633,29.8095524 C39.3479633,29.9537002 39.2269857,30.0756715 39.0840122,30.0756715 L36.9504073,30.0756715 C36.8074338,30.0756715 36.6864562,29.9537002 36.6864562,29.8095524 L36.6864562,27.8358357 C36.6864562,27.359039 36.3455193,26.9487721 35.8836049,26.8489774 C34.4758656,26.57177 33.15611,26.0173552 31.957332,25.2079097 C31.7923625,25.0970267 31.5943992,25.0415852 31.4074338,25.0415852 C31.1544807,25.0415852 30.8905295,25.1413799 30.7035642,25.3409692 L29.3178208,26.7380945 C29.251833,26.8046242 29.1748473,26.8157125 29.1308554,26.8157125 C29.0758656,26.8157125 29.0098778,26.8046242 28.94389,26.7380945 L27.437169,25.2189979 C27.3271894,25.108115 27.3271894,24.9417906 27.437169,24.8309076 L28.8229124,23.4337823 C29.1638493,23.0900452 29.2078411,22.557807 28.94389,22.1697166 C28.1410387,20.9610924 27.6021385,19.6304969 27.3161914,18.2111951 C27.2282077,17.7454867 26.8102851,17.4017495 26.3373727,17.4017495 L24.3797352,17.4017495 C24.2367617,17.4017495 24.1157841,17.2797782 24.1157841,17.1356304 L24.1157841,14.9734127 C24.1157841,14.8292649 24.2367617,14.7072936 24.3797352,14.7072936 L26.3373727,14.7072936 C26.8102851,14.7072936 27.2172098,14.3635565 27.3161914,13.897848 C27.5911405,12.4785462 28.1410387,11.1479507 28.94389,9.93932649 C29.2078411,9.54014784 29.1528513,9.00790965 28.8229124,8.67526078 L27.437169,7.27813552 C27.3711813,7.21160575 27.3601833,7.13398768 27.3601833,7.0896345 C27.3601833,7.03419302 27.3711813,6.96766324 27.437169,6.90113347 L28.9328921,5.37094867 C28.9988798,5.30441889 29.0758656,5.2933306 29.1198574,5.2933306 C29.1748473,5.2933306 29.240835,5.30441889 29.3068228,5.37094867 L30.6925662,6.76807392 C31.0335031,7.11181109 31.5614053,7.15616427 31.946334,6.89004517 C33.145112,6.08059959 34.4648676,5.5372731 35.8726069,5.24897741 C36.3345214,5.16027105 36.6754582,4.73891581 36.6754582,4.2621191 L36.6754582,2.29949076 C36.6754582,2.15534292 36.7964358,2.03337166 36.9394094,2.03337166 L39.0730143,2.03337166 C39.2159878,2.03337166 39.3369654,2.15534292 39.3369654,2.29949076 L39.3369654,4.27320739 C39.3369654,4.75000411 39.6779022,5.16027105 40.1398167,5.26006571 C41.547556,5.5372731 42.8673116,6.09168789 44.0660896,6.90113347 C44.4620163,7.16725257 44.9899185,7.11181109 45.3198574,6.77916222 L46.7056008,5.38203696 C46.7715886,5.31550719 46.8485743,5.30441889 46.8925662,5.30441889 C46.947556,5.30441889 47.0135438,5.31550719 47.0795316,5.38203696 L48.5862525,6.90113347 C48.6962322,7.01201643 48.6962322,7.17834086 48.5862525,7.28922382 L47.2005092,8.68634908 C46.8595723,9.03008624 46.8155804,9.56232444 47.0795316,9.95041478 C47.8823829,11.159039 48.4212831,12.4896345 48.7072301,13.9089363 C48.7952138,14.3746448 49.2131365,14.7183819 49.6860489,14.7183819 L51.6436864,14.7183819 C51.7866599,14.7183819 51.9076375,14.8403532 51.9076375,14.984501 L51.9076375,17.1356304 C51.9076375,17.2797782 51.7866599,17.4017495 51.6436864,17.4017495 L49.6860489,17.4017495 C49.2131365,17.3906612 48.8062118,17.7233101 48.7182281,18.2001068 Z" id="Shape" fill="#E83F67"></path>
                    <path d="M38.0172098,9.59558932 C34.4868635,9.59558932 31.6273931,12.4896345 31.6273931,16.0378891 C31.6273931,19.597232 34.4978615,22.4801889 38.0172098,22.4801889 C41.547556,22.4801889 44.4070265,19.5861437 44.4070265,16.0378891 C44.4070265,12.4896345 41.536558,9.59558932 38.0172098,9.59558932 Z M38.0172098,20.4732074 C35.5866599,20.4732074 33.6180244,18.4884025 33.6180244,16.0378891 C33.6180244,13.5873758 35.5866599,11.6025708 38.0172098,11.6025708 C40.4477597,11.6025708 42.4163951,13.5873758 42.4163951,16.0378891 C42.4163951,18.4884025 40.4367617,20.4732074 38.0172098,20.4732074 Z" id="Shape" fill="#E83F67"></path>
                </g>
            </g>
        </g>
    </g>
</svg>