<?xml version="1.0" encoding="UTF-8"?>
<svg width="51px" height="60px" viewBox="0 0 51 60" version="1.1" xmlns="http://www.w3.org/2000/svg" xmlns:xlink="http://www.w3.org/1999/xlink">
    <!-- Generator: Sketch 49.3 (51167) - http://www.bohemiancoding.com/sketch -->
    <title>lightbulb (1)</title>
    <desc>Created with Sketch.</desc>
    <defs></defs>
    <g id="Page-1" stroke="none" stroke-width="1" fill="none" fill-rule="evenodd">
        <g id="Large-Device-Desktops" transform="translate(-571.000000, -909.000000)" fill-rule="nonzero">
            <g id="Group-7" transform="translate(571.000000, 909.000000)">
                <g id="lightbulb-(1)">
                    <path d="M25.1479113,12.9145497 C16.6696396,12.9145497 9.74294714,19.8429561 9.74294714,28.3233256 C9.74294714,32.7575058 11.682421,37.0254042 14.9518199,39.9076212 C17.3900157,42.3464203 17.1683615,47.556582 17.112948,47.6120092 C17.112948,47.8891455 17.1683615,48.1108545 17.3900157,48.3325635 C17.5562563,48.4988453 17.833324,48.6096998 18.0549781,48.6096998 L32.1854309,48.6096998 C32.4624986,48.6096998 32.6841527,48.4988453 32.8503933,48.3325635 C33.016634,48.1662818 33.127461,47.8891455 33.127461,47.6120092 C33.127461,47.556582 32.8503933,42.3464203 35.2885891,39.9076212 C35.3440026,39.852194 35.3994162,39.7967667 35.4548297,39.7413395 C38.668815,36.8036952 40.5528754,32.6466513 40.5528754,28.3233256 C40.5528754,19.8429561 33.6261829,12.9145497 25.1479113,12.9145497 Z M34.0140777,38.4665127 C33.9586641,38.52194 33.8478371,38.6327945 33.8478371,38.6882217 C31.686709,41.0161663 31.2988142,44.8406467 31.2434007,46.669746 L18.9970083,46.669746 C18.9415948,44.8406467 18.5537,40.8498845 16.2263313,38.4665127 C13.2894137,35.9168591 11.571594,32.2032333 11.571594,28.2678984 C11.571594,20.7852194 17.6116698,14.743649 25.0924977,14.743649 C32.5733256,14.743649 38.6134015,20.7852194 38.6134015,28.2678984 C38.6134015,32.2032333 36.9509953,35.9168591 34.0140777,38.4665127 Z" id="Shape" fill="#42566C"></path>
                    <path d="M25.0924977,16.8498845 C24.5937759,16.8498845 24.1504676,17.2933025 24.1504676,17.7921478 C24.1504676,18.2909931 24.5937759,18.7344111 25.0924977,18.7344111 C30.6892653,18.7344111 35.177762,23.2794457 35.177762,28.8221709 C35.177762,29.3210162 35.6210703,29.7644342 36.1197922,29.7644342 C36.6185141,29.7644342 37.0618224,29.3210162 37.0618224,28.8221709 C37.1172359,22.2263279 31.7421225,16.8498845 25.0924977,16.8498845 Z" id="Shape" fill="#E83F67"></path>
                    <path d="M31.2434007,49.6628176 L18.9415948,49.6628176 C17.6670834,49.6628176 16.6142261,50.7159353 16.6142261,51.9907621 C16.6142261,53.2655889 17.6670834,54.3187067 18.9415948,54.3187067 L31.1879871,54.3187067 C32.5179121,54.2632794 33.5707694,53.2655889 33.5707694,51.9907621 C33.5707694,50.7159353 32.5179121,49.6628176 31.2434007,49.6628176 Z M31.2434007,52.3787529 L18.9415948,52.3787529 C18.7199406,52.3787529 18.4982865,52.2124711 18.4982865,51.9353349 C18.4982865,51.6581986 18.6645271,51.4919169 18.9415948,51.4919169 L31.1879871,51.4919169 C31.4096413,51.4919169 31.6312955,51.6581986 31.6312955,51.9353349 C31.6312955,52.2124711 31.4650548,52.3787529 31.2434007,52.3787529 Z" id="Shape" fill="#42566C"></path>
                    <path d="M29.4147539,55.26097 L20.7702416,55.26097 C19.4957302,55.26097 18.4428729,56.3140878 18.4428729,57.5889145 C18.4428729,58.8637413 19.4957302,59.9168591 20.7702416,59.9168591 L29.4147539,59.9168591 C30.6892653,59.9168591 31.7421225,58.8637413 31.7421225,57.5889145 C31.7421225,56.2586605 30.6892653,55.26097 29.4147539,55.26097 Z M29.4147539,57.9769053 L20.7702416,57.9769053 C20.5485874,57.9769053 20.3269333,57.8106236 20.3269333,57.5334873 C20.3269333,57.256351 20.4931739,57.0900693 20.7702416,57.0900693 L29.4147539,57.0900693 C29.636408,57.0900693 29.8580622,57.256351 29.8580622,57.5334873 C29.8580622,57.8106236 29.636408,57.9769053 29.4147539,57.9769053 Z" id="Shape" fill="#42566C"></path>
                    <path d="M25.0924977,8.31408776 C25.6466331,8.31408776 26.0345279,7.87066975 26.0345279,7.37182448 L26.0345279,0.942263279 C26.0345279,0.443418014 25.5912196,0 25.0924977,0 C24.5937759,0 24.1504676,0.443418014 24.1504676,0.942263279 L24.1504676,7.37182448 C24.1504676,7.87066975 24.5937759,8.31408776 25.0924977,8.31408776 Z" id="Shape" fill="#E83F67"></path>
                    <path d="M40.7745296,4.76674365 C40.3312212,4.43418014 39.7770858,4.60046189 39.5000181,4.98845266 L35.9535516,10.3094688 C35.6210703,10.7528868 35.7318974,11.3625866 36.1752057,11.6397229 C36.3414464,11.7505774 36.507687,11.8060046 36.6739276,11.8060046 C37.0064088,11.8060046 37.2834765,11.6397229 37.4497172,11.3625866 L40.9961837,6.04157044 C41.328665,5.65357968 41.2178379,5.04387991 40.7745296,4.76674365 Z" id="Shape" fill="#E83F67"></path>
                    <path d="M13.8435491,11.5842956 C14.0097897,11.5842956 14.1760303,11.5288684 14.342271,11.4180139 C14.7855793,11.1408776 14.8964064,10.5311778 14.6193387,10.0877598 L11.1836992,4.7113164 C10.9066315,4.26789838 10.2970825,4.15704388 9.85377422,4.43418014 C9.4104659,4.7113164 9.29963882,5.32101617 9.57670652,5.76443418 L13.012346,11.1408776 C13.2340002,11.4734411 13.5110679,11.5842956 13.8435491,11.5842956 Z" id="Shape" fill="#E83F67"></path>
                    <path d="M7.13851076,17.4595843 L1.54174322,14.4110855 C1.0984349,14.1893764 0.488885957,14.3556582 0.267231797,14.7990762 C-0.00983590336,15.2424942 0.156404717,15.852194 0.655126577,16.073903 L6.25189412,19.1224018 C6.41813474,19.1778291 6.52896182,19.2332564 6.69520244,19.2332564 C7.02768368,19.2332564 7.36016492,19.0669746 7.52640554,18.7344111 C7.7480597,18.2909931 7.58181908,17.6812933 7.13851076,17.4595843 Z" id="Shape" fill="#E83F67"></path>
                    <path d="M49.9731772,14.7990762 C49.751523,14.3556582 49.1419741,14.1893764 48.6986658,14.4110855 L43.0464847,17.4595843 C42.6031764,17.6812933 42.4369358,18.2909931 42.6585899,18.7344111 C42.8248305,19.0669746 43.1573118,19.2332564 43.489793,19.2332564 C43.6560336,19.2332564 43.8222743,19.1778291 43.9331013,19.1224018 L49.5852824,16.073903 C50.0285907,15.852194 50.1948314,15.2424942 49.9731772,14.7990762 Z" id="Shape" fill="#E83F67"></path>
                </g>
            </g>
        </g>
    </g>
</svg>