<?xml version="1.0" encoding="UTF-8"?>
<svg width="55px" height="55px" viewBox="0 0 55 55" version="1.1" xmlns="http://www.w3.org/2000/svg" xmlns:xlink="http://www.w3.org/1999/xlink">
    <!-- Generator: Sketch 49.3 (51167) - http://www.bohemiancoding.com/sketch -->
    <title>line-graph</title>
    <desc>Created with Sketch.</desc>
    <defs></defs>
    <g id="Page-1" stroke="none" stroke-width="1" fill="none" fill-rule="evenodd">
        <g id="Large-Device-Desktops" transform="translate(-244.000000, -914.000000)" fill-rule="nonzero">
            <g id="Group-7" transform="translate(244.000000, 914.000000)">
                <g id="line-graph">
                    <path d="M2.75,55 C2.2,55 1.83336914,54.6333691 1.83336914,54.0833691 L1.83336914,53.1667383 L0.916630859,53.1667383 C0.366630859,53.1666309 0,52.8 0,52.25 C0,51.7 0.366630859,51.3333691 0.916630859,51.3333691 L1.83326172,51.3333691 L1.83326172,0.916630859 C1.83336914,0.366630859 2.2,0 2.75,0 C3.3,0 3.66663086,0.366630859 3.66663086,0.916630859 L3.66663086,51.3332617 L54.0832617,51.3332617 C54.6332617,51.3332617 54.9998926,51.6998926 54.9998926,52.2498926 C54.9998926,52.7998926 54.6332617,53.1665234 54.0832617,53.1665234 L3.66663086,53.1665234 L3.66663086,54.0831543 C3.66663086,54.6333691 3.3,55 2.75,55 Z M8.25,26.5833691 L6.41663086,26.5833691 C5.86663086,26.5833691 5.5,26.2167383 5.5,25.6667383 C5.5,25.1167383 5.86663086,24.7501074 6.41663086,24.7501074 L8.25,24.7501074 C8.8,24.7501074 9.16663086,25.1167383 9.16663086,25.6667383 C9.16663086,26.2166309 8.8,26.5833691 8.25,26.5833691 Z M8.25,22.9166309 L6.41663086,22.9166309 C5.86663086,22.9166309 5.5,22.55 5.5,22 C5.5,21.45 5.86663086,21.0833691 6.41663086,21.0833691 L8.25,21.0833691 C8.8,21.0833691 9.16663086,21.45 9.16663086,22 C9.16663086,22.55 8.8,22.9166309 8.25,22.9166309 Z M8.25,19.25 L6.41663086,19.25 C5.86663086,19.25 5.5,18.8833691 5.5,18.3333691 C5.5,17.7833691 5.86663086,17.4167383 6.41663086,17.4167383 L8.25,17.4167383 C8.8,17.4167383 9.16663086,17.7833691 9.16663086,18.3333691 C9.16663086,18.8833691 8.8,19.25 8.25,19.25 Z M8.25,15.5833691 L6.41663086,15.5833691 C5.86663086,15.5833691 5.5,15.2167383 5.5,14.6667383 C5.5,14.1167383 5.86663086,13.75 6.41663086,13.75 L8.25,13.75 C8.8,13.75 9.16663086,14.1166309 9.16663086,14.6666309 C9.16663086,15.2166309 8.8,15.5833691 8.25,15.5833691 Z M8.25,11.9166309 L6.41663086,11.9166309 C5.86663086,11.9166309 5.5,11.55 5.5,11 C5.5,10.45 5.86663086,10.0833691 6.41663086,10.0833691 L8.25,10.0833691 C8.8,10.0833691 9.16663086,10.45 9.16663086,11 C9.16663086,11.55 8.8,11.9166309 8.25,11.9166309 Z M8.25,8.25 L6.41663086,8.25 C5.86663086,8.25 5.5,7.88336914 5.5,7.33336914 C5.5,6.78336914 5.86663086,6.41673828 6.41663086,6.41673828 L8.25,6.41673828 C8.8,6.41673828 9.16663086,6.78336914 9.16663086,7.33336914 C9.16663086,7.88336914 8.8,8.25 8.25,8.25 Z M8.25,4.58336914 L6.41663086,4.58336914 C5.86663086,4.58336914 5.5,4.21673828 5.5,3.66673828 C5.5,3.11673828 5.86663086,2.75010742 6.41663086,2.75010742 L8.25,2.75010742 C8.8,2.75010742 9.16663086,3.11673828 9.16663086,3.66673828 C9.16663086,4.21673828 8.8,4.58336914 8.25,4.58336914 Z" id="Shape" fill="#42566C"></path>
                    <path d="M36.6666309,38.5 C36.3916309,38.5 36.2082617,38.4083691 36.025,38.225 C35.6583691,37.8583691 35.6583691,37.3083691 36.025,36.9416309 L45.1916309,27.775 C45.5582617,27.4083691 46.1082617,27.4083691 46.475,27.775 C46.8416309,28.1416309 46.8416309,28.6916309 46.475,29.0583691 L37.3083691,38.225 C37.125,38.4083691 36.9416309,38.5 36.6666309,38.5 Z M30.25,37.5833691 C29.975,37.5833691 29.7916309,37.4917383 29.6083691,37.3083691 L24.1083691,31.8083691 C23.7417383,31.4417383 23.7417383,30.8917383 24.1083691,30.525 C24.475,30.1583691 25.025,30.1583691 25.3917383,30.525 L30.8917383,36.025 C31.2583691,36.3916309 31.2583691,36.9416309 30.8917383,37.3083691 C30.7083691,37.4916309 30.525,37.5833691 30.25,37.5833691 Z M12.8333691,36.6666309 C12.5583691,36.6666309 12.375,36.575 12.1917383,36.3916309 C11.8251074,36.025 11.8251074,35.475 12.1917383,35.1082617 L16.7751074,30.5248926 C17.1417383,30.1582617 17.6917383,30.1582617 18.0584766,30.5248926 C18.4252148,30.8915234 18.4251074,31.4415234 18.0584766,31.8082617 L13.4751074,36.3916309 C13.2916309,36.575 13.1083691,36.6666309 12.8333691,36.6666309 Z" id="Shape" fill="#42566C"></path>
                    <path d="M10.0833691,44.9166309 C7.05836914,44.9166309 4.58336914,42.4416309 4.58336914,39.4166309 C4.58336914,36.3916309 7.05836914,33.9166309 10.0833691,33.9166309 C13.1083691,33.9166309 15.5833691,36.3916309 15.5833691,39.4166309 C15.5833691,42.4416309 13.1083691,44.9166309 10.0833691,44.9166309 Z M10.0833691,35.75 C8.06673828,35.75 6.41673828,37.4 6.41673828,39.4166309 C6.41673828,41.4332617 8.06673828,43.0832617 10.0833691,43.0832617 C12.1,43.0832617 13.75,41.4333691 13.75,39.4166309 C13.75,37.3998926 12.1,35.75 10.0833691,35.75 Z" id="Shape" fill="#E83F67"></path>
                    <path d="M21.0833691,33.9166309 C18.0583691,33.9166309 15.5833691,31.4416309 15.5833691,28.4166309 C15.5833691,25.3916309 18.0583691,22.9166309 21.0833691,22.9166309 C24.1083691,22.9166309 26.5833691,25.3916309 26.5833691,28.4166309 C26.5833691,31.4416309 24.1083691,33.9166309 21.0833691,33.9166309 Z M21.0833691,24.75 C19.0667383,24.75 17.4167383,26.4 17.4167383,28.4166309 C17.4167383,30.4332617 19.0667383,32.0832617 21.0833691,32.0832617 C23.1,32.0832617 24.75,30.4332617 24.75,28.4166309 C24.75,26.4 23.1,24.75 21.0833691,24.75 Z" id="Shape" fill="#E83F67"></path>
                    <path d="M49.5,31.1666309 C46.475,31.1666309 44,28.6916309 44,25.6666309 C44,22.6416309 46.475,20.1666309 49.5,20.1666309 C52.525,20.1666309 55,22.6416309 55,25.6666309 C55,28.6916309 52.525,31.1666309 49.5,31.1666309 Z M49.5,22 C47.4833691,22 45.8333691,23.65 45.8333691,25.6666309 C45.8333691,27.6832617 47.4833691,29.3332617 49.5,29.3332617 C51.5166309,29.3332617 53.1666309,27.6832617 53.1666309,25.6666309 C53.1666309,23.65 51.5166309,22 49.5,22 Z" id="Shape" fill="#E83F67"></path>
                    <g id="Group" transform="translate(27.413421, 34.067164)" fill="#E83F67">
                        <path d="M5.58657882,11.766205 C2.56157882,11.766205 0.0865788246,9.29120496 0.0865788246,6.26620496 C0.0865788246,3.24120496 2.56157882,0.766204962 5.58657882,0.766204962 C8.61157882,0.766204962 11.0865788,3.24120496 11.0865788,6.26620496 C11.0865788,9.29120496 8.61157882,11.766205 5.58657882,11.766205 Z M5.58657882,2.59946668 C3.56994797,2.59946668 1.91994797,4.24946668 1.91994797,6.26609754 C1.91994797,8.2827284 3.56994797,9.9327284 5.58657882,9.9327284 C7.60320968,9.9327284 9.25320968,8.2827284 9.25320968,6.26609754 C9.25320968,4.24946668 7.60320968,2.59946668 5.58657882,2.59946668 Z" id="Shape"></path>
                    </g>
                </g>
            </g>
        </g>
    </g>
</svg>