<?xml version="1.0" encoding="UTF-8"?>
<svg width="55px" height="55px" viewBox="0 0 55 55" version="1.1" xmlns="http://www.w3.org/2000/svg" xmlns:xlink="http://www.w3.org/1999/xlink">
    <!-- Generator: Sketch 49.3 (51167) - http://www.bohemiancoding.com/sketch -->
    <title>recommended</title>
    <desc>Created with Sketch.</desc>
    <defs></defs>
    <g id="Page-1" stroke="none" stroke-width="1" fill="none" fill-rule="evenodd">
        <g id="Large-Device-Desktops" transform="translate(-909.000000, -597.000000)" fill-rule="nonzero">
            <g id="Group-7" transform="translate(909.000000, 597.000000)">
                <g id="recommended">
                    <path d="M42.0623489,24.2849707 C42.0623489,22.5437695 40.6486452,21.1274121 38.9108382,21.1274121 L33.1190058,21.1274121 C34.5261696,19.5426172 35.4458382,17.7380371 35.6234893,16.119082 C35.7319883,15.1302637 35.427076,14.14875 34.7866959,13.426123 C34.201423,12.7655859 33.4010819,12.3974512 32.5330897,12.3893945 C32.5230117,12.3892871 32.5129337,12.3892871 32.502963,12.3892871 C31.6633821,12.3892871 30.8753704,12.7132715 30.2806628,13.3036621 C29.685848,13.8941602 29.3567057,14.6808105 29.352846,15.5203125 C29.3222904,15.7041113 28.9995809,16.337793 28.209961,17.0901758 C27.5634698,17.7063477 26.4467446,18.5533691 24.797924,19.0897266 C24.1514327,19.3000586 23.5605848,19.6873145 23.0418908,20.240752 C22.7696784,20.5310059 22.3620565,20.9319043 21.8574074,21.3343066 C21.6097466,21.2028223 21.3280994,21.127627 21.0288694,21.127627 L15.5281189,21.127627 C14.5486257,21.127627 13.7518226,21.9259863 13.7518226,22.9073926 L13.7518226,37.6046387 C13.7518226,38.5860449 14.5486257,39.3844043 15.5281189,39.3844043 L21.0288694,39.3844043 C21.6965887,39.3844043 22.2788596,39.0129395 22.582271,38.4658398 L36.6188499,38.4658398 C38.1038499,38.4658398 39.3119201,37.2554102 39.3119201,35.7675098 C39.3119201,35.2672461 39.1754386,34.798457 38.9376413,34.3962695 C39.7113938,33.9216797 40.228694,33.0668164 40.228694,32.0931445 C40.228694,31.5928809 40.0922125,31.1240918 39.8544152,30.7219043 C40.6281676,30.2473145 41.1454678,29.3924512 41.1454678,28.4187793 C41.1454678,27.8556738 40.9724269,27.3323145 40.6768421,26.8991895 C41.5123489,26.3306055 42.0623489,25.3708984 42.0623489,24.2849707 Z M38.9108382,25.7202344 L38.4523977,25.7202344 C37.977768,25.7202344 37.5928752,26.1057715 37.5928752,26.5814355 C37.5928752,27.0569922 37.9776608,27.4426367 38.4523977,27.4426367 C38.9895322,27.4426367 39.4265302,27.8804883 39.4265302,28.4186719 C39.4265302,28.9568555 38.9895322,29.394707 38.4523977,29.394707 L37.5356238,29.394707 C37.0609942,29.394707 36.6761014,29.7802441 36.6761014,30.2559082 C36.6761014,30.7314648 37.0608869,31.1171094 37.5356238,31.1171094 C38.0727583,31.1171094 38.5097563,31.5549609 38.5097563,32.0931445 C38.5097563,32.6313281 38.0727583,33.0691797 37.5356238,33.0691797 L36.6188499,33.0691797 C36.1442203,33.0691797 35.7593275,33.4547168 35.7593275,33.9303809 C35.7593275,34.4059375 36.1441131,34.791582 36.6188499,34.791582 C37.1559844,34.791582 37.5929825,35.2294336 37.5929825,35.7676172 C37.5929825,36.3058008 37.1559844,36.7436523 36.6188499,36.7436523 L22.8051657,36.7436523 L22.8051657,28.4189941 C22.8051657,27.9434375 22.4203801,27.557793 21.9456433,27.557793 C21.4709064,27.557793 21.0861209,27.9433301 21.0861209,28.4189941 L21.0861209,37.6047461 C21.0861209,37.6364355 21.0604971,37.6621094 21.0288694,37.6621094 L15.5281189,37.6621094 C15.4964912,37.6621094 15.4708674,37.6364355 15.4708674,37.6047461 L15.4708674,22.9070703 C15.4708674,22.8753809 15.4964912,22.849707 15.5281189,22.849707 L21.0288694,22.849707 C21.0604971,22.849707 21.0861209,22.8753809 21.0861209,22.9070703 L21.0861209,24.7443066 C21.0861209,25.2198633 21.4709064,25.6055078 21.9456433,25.6055078 C22.4203801,25.6055078 22.8051657,25.2199707 22.8051657,24.7443066 L22.8051657,22.9070703 C22.8051657,22.8652832 22.8017349,22.8243555 22.7988402,22.7833203 C23.4432943,22.2834863 23.9586647,21.7781738 24.294883,21.4195996 C24.6129825,21.0800391 24.9607797,20.8473633 25.3286257,20.7278027 C27.3517251,20.0697363 28.7132164,19.010127 29.4989766,18.2371191 C30.4838304,17.2682813 31.0716764,16.2583008 31.0716764,15.5352441 C31.0716764,15.153252 31.2203801,14.7952148 31.4904483,14.5270898 C31.7638402,14.2556348 32.1258967,14.1122266 32.517115,14.1116895 C32.9989279,14.1162012 33.3179922,14.3631641 33.5010039,14.5696289 C33.8147076,14.923584 33.9690936,15.4325488 33.9145224,15.9308789 C33.7267934,17.642002 32.3610136,19.7571387 30.4350487,21.3192676 C30.152115,21.5488281 30.044152,21.9321094 30.1656238,22.2759668 C30.2870955,22.6198242 30.6117349,22.849707 30.9758285,22.849707 L38.9106238,22.849707 C39.7005653,22.849707 40.3430897,23.4934863 40.3430897,24.2849707 C40.3430897,25.0764551 39.7006725,25.7202344 38.9108382,25.7202344 Z" id="Shape" fill="#42566C"></path>
                    <path d="M18.2785478,33.9781836 C17.8039181,33.9781836 17.4145224,34.3683398 17.4145224,34.8438965 C17.4145224,35.3194531 17.8039181,35.7096094 18.2785478,35.7096094 C18.7531774,35.7096094 19.1425731,35.3194531 19.1425731,34.8438965 C19.1426803,34.3684473 18.7532846,33.9781836 18.2785478,33.9781836 Z" id="Shape" fill="#E83F67"></path>
                    <path d="M53.3607212,27.5 L54.8372515,23.5852246 C54.9447856,23.3004492 54.8940741,22.9800098 54.7039864,22.7422852 L52.0923977,19.4762305 L52.2892398,15.2959082 C52.3036062,14.9919043 52.1565107,14.7026172 51.9026316,14.5355762 L48.4115789,12.2379297 L47.3096491,8.20123047 C47.2294542,7.90753906 47.0004483,7.67808594 46.7074366,7.5978418 L42.6786062,6.49375977 L40.3854386,2.99599609 C40.218616,2.74151367 39.93,2.59477539 39.6265887,2.60863281 L35.4544152,2.80585938 L32.1947271,0.189169922 C31.9575731,-0.00118164062 31.6377583,-0.0519921875 31.3534308,0.0556445313 L27.4462865,1.53505859 L23.5393567,0.0557519531 C23.254922,-0.0519921875 22.9352144,-0.00118164062 22.6980604,0.189277344 L19.4383723,2.8059668 L15.2661988,2.60874023 C14.9612865,2.5943457 14.6740643,2.74172852 14.5073489,2.99610352 L12.2142885,6.49397461 L8.18545809,7.59805664 C7.89233918,7.6784082 7.66333333,7.90786133 7.58324561,8.20144531 L6.48131579,12.2381445 L2.99026316,14.5356836 C2.7362768,14.702832 2.5892885,14.9920117 2.60365497,15.2960156 L2.80049708,19.4763379 L0.188908382,22.7423926 C-0.00107212476,22.9800098 -0.0517836257,23.3004492 0.0556432749,23.585332 L1.53206628,27.5 L0.0555360624,31.414668 C-0.0519980507,31.6994434 -0.00128654971,32.0198828 0.18880117,32.2576074 L2.80038986,35.5236621 L2.60354776,39.7039844 C2.58918129,40.0079883 2.7362768,40.2972754 2.99015595,40.4643164 L6.48120858,42.7619629 L7.5831384,46.7986621 C7.66333333,47.0923535 7.89233918,47.3218066 8.18535088,47.4020508 L12.2141813,48.5061328 L14.5072417,52.0040039 C14.6740643,52.2584863 14.9632164,52.4047949 15.2660916,52.3913672 L19.4382651,52.1941406 L22.6979532,54.8108301 C22.9351072,55.0012891 23.2550292,55.0520996 23.5392495,54.9443555 L27.4463938,53.4649414 L31.353538,54.9443555 C31.4521735,54.9816309 31.5549903,54.9998926 31.657271,54.9998926 C31.8498246,54.9998926 32.0399123,54.9351172 32.1947271,54.8108301 L35.4544152,52.1941406 L39.6265887,52.3913672 C39.9309649,52.4049023 40.218616,52.2583789 40.3854386,52.0040039 L42.6786062,48.5061328 L46.7074366,47.4020508 C47.0005556,47.3216992 47.2295614,47.0922461 47.3096491,46.7986621 L48.4115789,42.7619629 L51.9026316,40.4643164 C52.1566179,40.297168 52.3036062,40.0079883 52.2892398,39.7039844 L52.0923977,35.5236621 L54.7039864,32.2576074 C54.8939669,32.0199902 54.9446784,31.6995508 54.8372515,31.414668 L53.3607212,27.5 Z M51.637924,27.8044336 L53.0559162,31.5640918 L50.5477875,34.7007031 C50.4168811,34.8643066 50.3500877,35.0702344 50.3599513,35.279707 L50.5490741,39.2943848 L47.1964327,41.5009375 C47.0215692,41.6159863 46.8944152,41.7911914 46.8392008,41.9935742 L45.7809064,45.8703223 L41.9117154,46.9306836 C41.7098343,46.9860059 41.535078,47.1133008 41.420039,47.2886133 L39.2177875,50.6478027 L35.2109357,50.4583105 C35.0017641,50.4486426 34.796345,50.5153516 34.6330604,50.6465137 L31.5025634,53.159541 L27.7502339,51.7387793 C27.6523489,51.7017188 27.5493177,51.6832422 27.4463938,51.6832422 C27.3434698,51.6832422 27.2404386,51.7018262 27.1425536,51.7387793 L23.3902242,53.159541 L20.2597271,50.6465137 C20.0964425,50.5153516 19.8905945,50.4486426 19.6818519,50.4583105 L15.675,50.6478027 L13.4727485,47.2886133 C13.357924,47.1134082 13.1830604,46.9860059 12.9810721,46.9306836 L9.11188109,45.8703223 L8.05358674,41.9935742 C7.99837232,41.7912988 7.87132554,41.6162012 7.69635478,41.5009375 L4.34371345,39.2943848 L4.53283626,35.279707 C4.54269981,35.070127 4.47590643,34.8643066 4.345,34.7007031 L1.83687135,31.5640918 L3.25497076,27.8044336 C3.32894737,27.6082813 3.32894737,27.3917188 3.25497076,27.1955664 L1.83687135,23.4359082 L4.345,20.2992969 C4.47590643,20.1356934 4.54269981,19.9297656 4.53283626,19.720293 L4.34371345,15.7056152 L7.69635478,13.4990625 C7.87121832,13.3840137 7.99837232,13.2088086 8.05358674,13.0064258 L9.11188109,9.12967773 L12.9810721,8.06931641 C13.1829532,8.01399414 13.3577096,7.88669922 13.4727485,7.71138672 L15.675,4.35219727 L19.6818519,4.54168945 C19.8907018,4.55146484 20.0964425,4.48464844 20.2597271,4.35348633 L23.3902242,1.84045898 L27.1425536,3.26132813 C27.3384308,3.33544922 27.5544639,3.33544922 27.7502339,3.26132813 L31.5025634,1.84045898 L34.6330604,4.35348633 C34.796345,4.48475586 35.0019786,4.55157227 35.2109357,4.54168945 L39.2177875,4.35219727 L41.420039,7.71138672 C41.5348635,7.8865918 41.7097271,8.01399414 41.9117154,8.06931641 L45.7809064,9.12967773 L46.8392008,13.0064258 C46.8944152,13.2087012 47.021462,13.3837988 47.1964327,13.4990625 L50.5490741,15.7056152 L50.3599513,19.720293 C50.3500877,19.929873 50.4168811,20.1356934 50.5477875,20.2992969 L53.0559162,23.4359082 L51.6378168,27.1955664 C51.5639474,27.3918262 51.5639474,27.6082813 51.637924,27.8044336 Z" id="Shape" fill="#42566C"></path>
                    <path d="M43.5962378,12.6300195 C43.3823489,12.3966992 43.1605263,12.164668 42.9365595,11.9403711 C42.7125926,11.7160742 42.4811209,11.4937109 42.2482554,11.2794043 C41.8986355,10.9577832 41.354961,10.9809863 41.0338596,11.3313965 C40.7128655,11.6816992 40.7360234,12.226543 41.0857505,12.5481641 C41.3004971,12.7458203 41.5142788,12.9509961 41.7209844,13.1581055 C41.9275828,13.3651074 42.1324659,13.5794141 42.3298441,13.7946875 C42.499347,13.979668 42.7309259,14.0734473 42.9632554,14.0734473 C43.1709259,14.0734473 43.3792398,13.9984668 43.5442398,13.8466797 C43.8939669,13.525166 43.917232,12.9803223 43.5962378,12.6300195 Z" id="Shape" fill="#E83F67"></path>
                    <path d="M39.1960234,8.92944336 C35.0511891,6.28364258 30.0608772,5.10780273 25.1448635,5.61773438 C20.1568031,6.13550781 15.4533918,8.38083984 11.9007992,11.9402637 C7.99108187,15.8576172 5.71474659,21.0615625 5.49110136,26.5934668 C5.2688499,32.0928223 7.08674464,37.4321191 10.6100682,41.6275879 C10.78,41.8299707 11.0231579,41.9342773 11.2682456,41.9342773 C11.4635867,41.9342773 11.66,41.8678906 11.8211404,41.7321094 C12.184269,41.4258496 12.2310136,40.8826172 11.9254581,40.5187793 C8.67895712,36.6527734 7.0038694,31.732207 7.20864522,26.663291 C7.4147076,21.564834 9.51264133,16.7686621 13.1161598,13.1582129 C16.3904288,9.87744141 20.7252437,7.80795898 25.3218713,7.33089844 C29.8542788,6.86039062 34.4532651,7.94416992 38.2722807,10.382002 C38.6727193,10.6375586 39.2038499,10.5196094 39.4589084,10.1184961 C39.7140741,9.71727539 39.5962476,9.185 39.1960234,8.92944336 Z" id="Shape" fill="#E83F67"></path>
                    <path d="M45.9417251,15.6882129 C45.6866667,15.2869922 45.1551072,15.169043 44.7549903,15.4245996 C44.3545517,15.6801562 44.2369396,16.2125391 44.4919981,16.6135449 C46.925078,20.440127 48.0065302,25.0483105 47.537154,29.589248 C47.0610234,34.1948535 44.995575,38.5380273 41.721306,41.8189062 C38.1177875,45.4293555 33.3309649,47.5314941 28.2425536,47.737959 C23.1843762,47.9439941 18.2724366,46.2648828 14.4140741,43.0121484 C14.0509454,42.7058887 13.5087719,42.7527246 13.2031092,43.1166699 C12.8974464,43.4805078 12.944191,44.0237402 13.3074269,44.33 C17.2658187,47.6670605 22.243694,49.477334 27.4129435,49.4772266 C27.7119591,49.4772266 28.012154,49.4711035 28.3123489,49.4589648 C33.8334698,49.2349902 39.0271637,46.954209 42.9369883,43.0368555 C46.4895809,39.4773242 48.7306433,34.7646191 49.247193,29.7668164 C49.7562378,24.8408789 48.5823684,19.8410352 45.9417251,15.6882129 Z" id="Shape" fill="#E83F67"></path>
                </g>
            </g>
        </g>
    </g>
</svg>