<?xml version="1.0" encoding="UTF-8"?>
<svg width="44px" height="56px" viewBox="0 0 44 56" version="1.1" xmlns="http://www.w3.org/2000/svg" xmlns:xlink="http://www.w3.org/1999/xlink">
    <!-- Generator: Sketch 49.3 (51167) - http://www.bohemiancoding.com/sketch -->
    <title>txt</title>
    <desc>Created with Sketch.</desc>
    <defs></defs>
    <g id="Page-1" stroke="none" stroke-width="1" fill="none" fill-rule="evenodd">
        <g id="Large-Device-Desktops" transform="translate(-572.000000, -596.000000)" fill-rule="nonzero">
            <g id="Group-7" transform="translate(571.000000, 596.000000)">
                <g id="txt" transform="translate(1.000000, 0.000000)">
                    <path d="M43.3990345,11.7667586 L42.0849655,10.4526897 L32.9086897,1.27544828 C32.908046,1.2748046 32.6595862,1.02634483 32.1633103,0.530068966 C31.8205517,0.188275862 31.3657931,0 30.882069,0 L2.86082759,0 C1.71475862,0 0.482758621,0.884413793 0.482758621,2.82510345 L0.482758621,48.6551724 L0.482758621,53.621931 L0.482758621,54.0689655 C0.482758621,54.8771034 1.29475862,55.664 2.25544828,55.9121379 C2.30468966,55.9256552 2.352,55.944 2.4022069,55.9536552 C2.55282759,55.9835862 2.70634483,56 2.86082759,56 L41.5529655,56 C41.7074483,56 41.8609655,55.9835862 42.0115862,55.9536552 C42.0617931,55.944 42.1091034,55.9256552 42.1583448,55.9121379 C43.1190345,55.664 43.9310345,54.8771034 43.9310345,54.0689655 L43.9310345,53.621931 L43.9310345,48.6551724 L43.9310345,13.496 C43.9310345,12.7554483 43.8412414,12.208 43.3990345,11.7667586 Z M32.3448276,3.44206897 L40.4889655,11.5862069 L32.3448276,11.5862069 L32.3448276,3.44206897 Z M2.86082759,54.0689655 C2.79227586,54.0689655 2.73048276,54.0448276 2.66965517,54.0216552 C2.52,53.9502069 2.4137931,53.7995862 2.4137931,53.621931 L2.4137931,50.5862069 L42,50.5862069 L42,53.621931 C42,53.7995862 41.8937931,53.9502069 41.7441379,54.0216552 C41.6833103,54.0448276 41.6215172,54.0689655 41.5529655,54.0689655 L2.86082759,54.0689655 Z M2.4137931,48.6551724 L2.4137931,2.82510345 C2.4137931,2.61558621 2.44565517,1.93103448 2.86082759,1.93103448 L30.4697931,1.93103448 C30.437931,2.05268966 30.4137931,2.1782069 30.4137931,2.30855172 L30.4137931,13.5172414 L41.6215172,13.5172414 C41.7518621,13.5172414 41.8773793,13.4931034 41.9990345,13.4612414 C41.9990345,13.4708966 41.9993563,25.2022069 42,48.6551724 L2.4137931,48.6551724 Z" id="Shape" fill="#42566C"></path>
                    <path d="M7.24137931,13.5172414 L13.0344828,13.5172414 C13.5684138,13.5172414 14,13.0846897 14,12.5517241 C14,12.0187586 13.5684138,11.5862069 13.0344828,11.5862069 L7.24137931,11.5862069 C6.70744828,11.5862069 6.27586207,12.0187586 6.27586207,12.5517241 C6.27586207,13.0846897 6.70744828,13.5172414 7.24137931,13.5172414 Z" id="Shape" fill="#E83F67"></path>
                    <path d="M7.24137931,18.3448276 L15.9310345,18.3448276 C16.4649655,18.3448276 16.8965517,17.9122759 16.8965517,17.3793103 C16.8965517,16.8463448 16.4649655,16.4137931 15.9310345,16.4137931 L7.24137931,16.4137931 C6.70744828,16.4137931 6.27586207,16.8463448 6.27586207,17.3793103 C6.27586207,17.9122759 6.70744828,18.3448276 7.24137931,18.3448276 Z" id="Shape" fill="#42566C"></path>
                    <path d="M19.7931034,18.3448276 C20.0441379,18.3448276 20.2951724,18.2386207 20.4786207,18.0648276 C20.6524138,17.8813793 20.7586207,17.6303448 20.7586207,17.3793103 C20.7586207,17.1282759 20.6524138,16.8772414 20.4786207,16.6937931 C20.1213793,16.3365517 19.4648276,16.3365517 19.1172414,16.6937931 C18.9337931,16.8772414 18.8275862,17.1186207 18.8275862,17.3793103 C18.8275862,17.64 18.9328276,17.8813793 19.1075862,18.0648276 C19.290069,18.2386207 19.542069,18.3448276 19.7931034,18.3448276 Z" id="Shape" fill="#E83F67"></path>
                    <path d="M23.6551724,18.3448276 L31.3793103,18.3448276 C31.9132414,18.3448276 32.3448276,17.9122759 32.3448276,17.3793103 C32.3448276,16.8463448 31.9132414,16.4137931 31.3793103,16.4137931 L23.6551724,16.4137931 C23.1212414,16.4137931 22.6896552,16.8463448 22.6896552,17.3793103 C22.6896552,17.9122759 23.1212414,18.3448276 23.6551724,18.3448276 Z" id="Shape" fill="#42566C"></path>
                    <path d="M6.55586207,31.1765517 C6.38110345,31.36 6.27586207,31.6110345 6.27586207,31.862069 C6.27586207,32.1131034 6.38110345,32.3641379 6.55586207,32.5475862 C6.73834483,32.7213793 6.99034483,32.8275862 7.24137931,32.8275862 C7.49241379,32.8275862 7.74344828,32.7213793 7.92689655,32.5475862 C8.10068966,32.3641379 8.20689655,32.1131034 8.20689655,31.862069 C8.20689655,31.6110345 8.10068966,31.36 7.92689655,31.1862069 C7.56965517,30.8193103 6.91310345,30.8193103 6.55586207,31.1765517 Z" id="Shape" fill="#E83F67"></path>
                    <path d="M18.8275862,30.8965517 L11.1034483,30.8965517 C10.5695172,30.8965517 10.137931,31.3291034 10.137931,31.862069 C10.137931,32.3950345 10.5695172,32.8275862 11.1034483,32.8275862 L18.8275862,32.8275862 C19.3615172,32.8275862 19.7931034,32.3950345 19.7931034,31.862069 C19.7931034,31.3291034 19.3615172,30.8965517 18.8275862,30.8965517 Z" id="Shape" fill="#42566C"></path>
                    <path d="M37.1724138,16.4137931 L35.2413793,16.4137931 C34.7074483,16.4137931 34.2758621,16.8463448 34.2758621,17.3793103 C34.2758621,17.9122759 34.7074483,18.3448276 35.2413793,18.3448276 L37.1724138,18.3448276 C37.7063448,18.3448276 38.137931,17.9122759 38.137931,17.3793103 C38.137931,16.8463448 37.7063448,16.4137931 37.1724138,16.4137931 Z" id="Shape" fill="#E83F67"></path>
                    <path d="M7.24137931,43.3448276 L15.9310345,43.3448276 C16.4649655,43.3448276 16.8965517,42.9122759 16.8965517,42.3793103 C16.8965517,41.8463448 16.4649655,41.4137931 15.9310345,41.4137931 L7.24137931,41.4137931 C6.70744828,41.4137931 6.27586207,41.8463448 6.27586207,42.3793103 C6.27586207,42.9122759 6.70744828,43.3448276 7.24137931,43.3448276 Z" id="Shape" fill="#42566C"></path>
                    <path d="M19.7931034,43.3448276 C20.0441379,43.3448276 20.2951724,43.2386207 20.4786207,43.0648276 C20.6524138,42.8813793 20.7586207,42.6303448 20.7586207,42.3793103 C20.7586207,42.1282759 20.6524138,41.8772414 20.4786207,41.6937931 C20.1213793,41.3365517 19.4648276,41.3365517 19.1172414,41.6937931 C18.9337931,41.8772414 18.8275862,42.1186207 18.8275862,42.3793103 C18.8275862,42.64 18.9328276,42.8813793 19.1075862,43.0648276 C19.290069,43.2386207 19.542069,43.3448276 19.7931034,43.3448276 Z" id="Shape" fill="#42566C"></path>
                    <path d="M23.6551724,43.3448276 L31.3793103,43.3448276 C31.9132414,43.3448276 32.3448276,42.9122759 32.3448276,42.3793103 C32.3448276,41.8463448 31.9132414,41.4137931 31.3793103,41.4137931 L23.6551724,41.4137931 C23.1212414,41.4137931 22.6896552,41.8463448 22.6896552,42.3793103 C22.6896552,42.9122759 23.1212414,43.3448276 23.6551724,43.3448276 Z" id="Shape" fill="#42566C"></path>
                    <path d="M37.1724138,41.4137931 L35.2413793,41.4137931 C34.7074483,41.4137931 34.2758621,41.8463448 34.2758621,42.3793103 C34.2758621,42.9122759 34.7074483,43.3448276 35.2413793,43.3448276 L37.1724138,43.3448276 C37.7063448,43.3448276 38.137931,42.9122759 38.137931,42.3793103 C38.137931,41.8463448 37.7063448,41.4137931 37.1724138,41.4137931 Z" id="Shape" fill="#42566C"></path>
                    <path d="M7.24137931,23.1724138 L28.4827586,23.1724138 C29.0166897,23.1724138 29.4482759,22.7398621 29.4482759,22.2068966 C29.4482759,21.673931 29.0166897,21.2413793 28.4827586,21.2413793 L7.24137931,21.2413793 C6.70744828,21.2413793 6.27586207,21.673931 6.27586207,22.2068966 C6.27586207,22.7398621 6.70744828,23.1724138 7.24137931,23.1724138 Z" id="Shape" fill="#42566C"></path>
                    <path d="M37.1724138,21.2413793 L31.3793103,21.2413793 C30.8453793,21.2413793 30.4137931,21.673931 30.4137931,22.2068966 C30.4137931,22.7398621 30.8453793,23.1724138 31.3793103,23.1724138 L37.1724138,23.1724138 C37.7063448,23.1724138 38.137931,22.7398621 38.137931,22.2068966 C38.137931,21.673931 37.7063448,21.2413793 37.1724138,21.2413793 Z" id="Shape" fill="#42566C"></path>
                    <path d="M7.24137931,28 L11.1034483,28 C11.6373793,28 12.0689655,27.5674483 12.0689655,27.0344828 C12.0689655,26.5015172 11.6373793,26.0689655 11.1034483,26.0689655 L7.24137931,26.0689655 C6.70744828,26.0689655 6.27586207,26.5015172 6.27586207,27.0344828 C6.27586207,27.5674483 6.70744828,28 7.24137931,28 Z" id="Shape" fill="#E83F67"></path>
                    <path d="M24.6206897,26.0689655 L14.9655172,26.0689655 C14.4315862,26.0689655 14,26.5015172 14,27.0344828 C14,27.5674483 14.4315862,28 14.9655172,28 L24.6206897,28 C25.1546207,28 25.5862069,27.5674483 25.5862069,27.0344828 C25.5862069,26.5015172 25.1546207,26.0689655 24.6206897,26.0689655 Z" id="Shape" fill="#42566C"></path>
                    <path d="M37.1724138,26.0689655 L28.4827586,26.0689655 C27.9488276,26.0689655 27.5172414,26.5015172 27.5172414,27.0344828 C27.5172414,27.5674483 27.9488276,28 28.4827586,28 L37.1724138,28 C37.7063448,28 38.137931,27.5674483 38.137931,27.0344828 C38.137931,26.5015172 37.7063448,26.0689655 37.1724138,26.0689655 Z" id="Shape" fill="#E83F67"></path>
                    <path d="M7.24137931,38 L11.1034483,38 C11.6373793,38 12.0689655,37.5674483 12.0689655,37.0344828 C12.0689655,36.5015172 11.6373793,36.0689655 11.1034483,36.0689655 L7.24137931,36.0689655 C6.70744828,36.0689655 6.27586207,36.5015172 6.27586207,37.0344828 C6.27586207,37.5674483 6.70744828,38 7.24137931,38 Z" id="Shape" fill="#E83F67"></path>
                    <path d="M24.6206897,36.0689655 L14.9655172,36.0689655 C14.4315862,36.0689655 14,36.5015172 14,37.0344828 C14,37.5674483 14.4315862,38 14.9655172,38 L24.6206897,38 C25.1546207,38 25.5862069,37.5674483 25.5862069,37.0344828 C25.5862069,36.5015172 25.1546207,36.0689655 24.6206897,36.0689655 Z" id="Shape" fill="#42566C"></path>
                    <path d="M37.1724138,36.0689655 L28.4827586,36.0689655 C27.9488276,36.0689655 27.5172414,36.5015172 27.5172414,37.0344828 C27.5172414,37.5674483 27.9488276,38 28.4827586,38 L37.1724138,38 C37.7063448,38 38.137931,37.5674483 38.137931,37.0344828 C38.137931,36.5015172 37.7063448,36.0689655 37.1724138,36.0689655 Z" id="Shape" fill="#42566C"></path>
                </g>
            </g>
        </g>
    </g>
</svg>