<?xml version="1.0" encoding="UTF-8"?>
<svg width="291px" height="331px" viewBox="0 0 291 331" version="1.1" xmlns="http://www.w3.org/2000/svg" xmlns:xlink="http://www.w3.org/1999/xlink">
    <!-- Generator: Sketch 54.1 (76490) - https://sketchapp.com -->
    <title>support (1)</title>
    <desc>Created with Sketch.</desc>
    <g id="desktop" stroke="none" stroke-width="1" fill="none" fill-rule="evenodd">
        <g id="ms_azure" transform="translate(0.000000, -2454.000000)" fill-rule="nonzero">
            <g id="Group-9" transform="translate(0.000000, 2337.000000)">
                <g id="support-(1)" transform="translate(0.000000, 119.000000)">
                    <path d="M268.484418,145.127273 C265.682859,145.127273 263.411937,142.86319 263.411937,140.066971 L263.411937,127.938308 C263.411937,62.9751662 210.45895,10.1231154 145.371742,10.1231154 C80.2820193,10.1231154 27.3290326,62.9751662 27.3290326,127.938308 L27.3290326,140.066971 C27.3290326,142.86319 25.0606245,145.127273 22.2590658,145.127273 C19.4575064,145.127273 17.1865836,142.86319 17.1865836,140.066971 L17.1865836,127.938308 C17.1865836,57.3927687 74.6914754,0 145.371742,0 C216.052009,0 273.554385,57.3927687 273.554385,127.938308 L273.554385,140.066971 C273.554385,142.86319 271.285977,145.127273 268.484418,145.127273 Z" id="Path" stroke="#A4D9F5" stroke-width="4" fill="#A4D9F5"></path>
                    <path d="M263.054826,249.059265 L250.186264,249.059265 C247.384705,249.059265 245.113782,246.792671 245.113782,243.996452 C245.113782,241.202744 247.384705,238.93615 250.186264,238.93615 L263.054826,238.93615 C266.316605,238.93615 268.969787,236.288025 268.969787,233.032463 L268.969787,206.204827 C268.969787,203.408607 271.24071,201.142014 274.042269,201.142014 C276.843828,201.142014 279.112235,203.408607 279.112235,206.204827 L279.112235,233.032463 C279.112235,241.867912 271.909663,249.059265 263.054826,249.059265 Z" id="Path" stroke="#A4D9F5" stroke-width="4" fill="#A4D9F5"></path>
                    <polygon id="Path" fill="#CCCCCC" points="110.052985 252.176773 179.6418 252.176773 179.6418 311.770874 110.052985 311.770874"></polygon>
                    <path d="M249.368934,230.206123 C250.337156,226.318024 250.850189,222.249199 250.850189,218.064911 L250.850189,132.361053 C250.850189,104.597161 228.294368,82.0893555 200.474938,82.0893555 L90.2685464,82.0893555 C62.4516297,82.0893555 39.8932956,104.597161 39.8932956,132.361053 L39.8932956,218.064911 C39.8932956,245.836334 62.4516297,268.341629 90.2685464,268.341629 L200.474938,268.341629 C213.187578,268.341629 224.803737,263.637756 233.668634,255.884148" id="Path" fill="#E6E6E6"></path>
                    <path d="M79.1327258,237.495369 L79.1327258,267.106675 C56.6699568,262.046372 39.8932956,242.016006 39.8932956,218.064911 L39.8932956,188.451096 C62.3560652,193.506378 79.1327258,213.541763 79.1327258,237.495369 L79.1327258,237.495369 Z" id="Path" fill="#CCCCCC"></path>
                    <path d="M250.850189,188.451096 L250.850189,218.064911 C250.850189,222.249199 250.337156,226.318024 249.368934,230.206123 L233.668634,255.884148 C227.474523,261.303391 219.929929,265.236671 211.613272,267.106675 L211.613272,237.492859 C211.613272,213.541763 228.387419,193.511399 250.850189,188.451096 L250.850189,188.451096 Z" id="Path" fill="#CCCCCC"></path>
                    <path d="M130.921331,158.008957 C130.921331,175.898231 116.390443,190.401421 98.467004,190.401421 C80.5410499,190.401421 66.0126779,175.898231 66.0126779,158.008957 C66.0126779,140.117173 80.5410499,125.613983 98.467004,125.613983 C116.390443,125.613983 130.921331,140.117173 130.921331,158.008957 L130.921331,158.008957 Z" id="Path" fill="#FFFFFF"></path>
                    <path d="M224.730806,158.008957 C224.730806,175.898231 210.199919,190.401421 192.27648,190.401421 C174.35304,190.401421 159.822153,175.898231 159.822153,158.008957 C159.822153,140.117173 174.35304,125.613983 192.27648,125.613983 C210.199919,125.613983 224.730806,140.117173 224.730806,158.008957 L224.730806,158.008957 Z" id="Path" fill="#FFFFFF"></path>
                    <path d="M98.467004,170.152679 C91.7548308,170.152679 86.2975752,164.703316 86.2975752,158.006447 C86.2975752,151.309578 91.7548308,145.860215 98.467004,145.860215 C105.176663,145.860215 110.636433,151.309578 110.636433,158.006447 C110.636433,164.703316 105.176663,170.152679 98.467004,170.152679 Z" id="Path" fill="#57555C"></path>
                    <path d="M192.27648,170.152679 C185.566821,170.152679 180.10705,164.703316 180.10705,158.006447 C180.10705,151.309578 185.566821,145.860215 192.27648,145.860215 C198.986138,145.860215 204.445909,151.309578 204.445909,158.006447 C204.445909,164.703316 198.986138,170.152679 192.27648,170.152679 Z" id="Path" fill="#57555C"></path>
                    <g id="Group" transform="translate(101.721239, 215.263672)" fill="#FF8F8F">
                        <polygon id="Path" points="24.4620871 0.441772461 38.5780213 0.441772461 38.5780213 53.0804674 24.4620871 53.0804674"></polygon>
                        <polygon id="Path" points="48.7204696 0.441772461 62.8389192 0.441772461 62.8389192 53.0804674 48.7204696 53.0804674"></polygon>
                        <path d="M72.9813675,1.11698135 L72.9813675,53.0804674 L87.2607678,53.0804674 L87.2607678,19.7567674 C87.2607678,10.8435059 81.2074894,3.34341431 72.9813675,1.11698135 Z" id="Path"></path>
                        <path d="M14.3196387,1.11698135 C6.09351682,3.3409044 0.0402378319,10.8435059 0.0402378319,19.7567674 L0.0402378319,53.0804674 L14.3196387,53.0804674 L14.3196387,1.11698135 Z" id="Path"></path>
                    </g>
                    <path d="M39.8932956,149.98677 L39.8932956,199.658562 C39.8932956,207.296707 34.7478825,213.735039 27.7238662,215.700425 C26.282849,216.112075 24.7613561,216.327942 23.1920807,216.327942 L16.7012149,216.327942 C7.47920732,216.327942 0,208.862991 0,199.658562 L0,149.98677 C0,140.782341 7.47920732,133.31739 16.7012149,133.31739 L23.1920807,133.31739 C24.7613561,133.31739 26.282849,133.533257 27.7238662,133.944908 C34.7478825,135.907783 39.8932956,142.346115 39.8932956,149.98677 L39.8932956,149.98677 Z" id="Path" fill="#FCA6A6"></path>
                    <path d="M39.8932956,149.98677 L39.8932956,199.658562 C39.8932956,207.296707 34.7478825,213.735039 27.7238662,215.700425 C20.6973351,213.735039 15.551922,207.296707 15.551922,199.658562 L15.551922,149.98677 C15.551922,142.346115 20.6973351,135.907783 27.7238662,133.944908 C34.7478825,135.907783 39.8932956,142.346115 39.8932956,149.98677 L39.8932956,149.98677 Z" id="Path" fill="#FF8F8F"></path>
                    <path d="M290.740969,149.98677 L290.740969,199.658562 C290.740969,207.296707 285.595556,213.735039 278.569025,215.700425 C277.130522,216.112075 275.609029,216.327942 274.039754,216.327942 L267.548889,216.327942 C258.326881,216.327942 250.847673,208.862991 250.847673,199.658562 L250.847673,149.98677 C250.847673,140.782341 258.326881,133.31739 267.548889,133.31739 L274.039754,133.31739 C275.609029,133.31739 277.130522,133.533257 278.569025,133.944908 C285.595556,135.907783 290.740969,142.346115 290.740969,149.98677 L290.740969,149.98677 Z" id="Path" fill="#FCA6A6"></path>
                    <path d="M290.740969,149.98677 L290.740969,199.658562 C290.740969,207.296707 285.595556,213.735039 278.569025,215.700425 C271.545008,213.735039 266.399595,207.296707 266.399595,199.658562 L266.399595,149.98677 C266.399595,142.346115 271.545008,135.907783 278.569025,133.944908 C285.595556,135.907783 290.740969,142.346115 290.740969,149.98677 L290.740969,149.98677 Z" id="Path" fill="#FF8F8F"></path>
                    <path d="M241.396813,229.824592 L246.129788,229.824592 C253.971135,229.824592 260.328713,236.170051 260.328713,243.996452 C260.328713,251.825363 253.971135,258.170822 246.129788,258.170822 L241.396813,258.170822 C233.55295,258.170822 227.197888,251.825363 227.197888,243.996452 C227.197888,236.170051 233.55295,229.824592 241.396813,229.824592 Z" id="Path" fill="#57555C"></path>
                    <path d="M246.273135,327.968361 L246.273135,329 L43.4166206,329 L43.4166206,327.968361 C43.4166206,310.096657 57.9399632,295.600998 75.8457983,295.600998 L213.843957,295.600998 C231.754822,295.600998 246.273135,310.096657 246.273135,327.968361 L246.273135,327.968361 Z" id="Path" fill="#CCCCCC"></path>
                    <path d="M246.273135,327.968361 L246.273135,329 L80.9434282,329 L80.9434282,327.968361 C80.9434282,310.096657 95.4617414,295.600998 113.372606,295.600998 L213.843957,295.600998 C231.754822,295.600998 246.273135,310.096657 246.273135,327.968361 L246.273135,327.968361 Z" id="Path" fill="#E6E6E6"></path>
                </g>
            </g>
        </g>
    </g>
</svg>