<?xml version="1.0" encoding="UTF-8"?>
<svg width="316px" height="166px" viewBox="0 0 316 166" version="1.1" xmlns="http://www.w3.org/2000/svg" xmlns:xlink="http://www.w3.org/1999/xlink">
    <!-- Generator: Sketch 54.1 (76490) - https://sketchapp.com -->
    <title>sensor</title>
    <desc>Created with Sketch.</desc>
    <g id="desktop" stroke="none" stroke-width="1" fill="none" fill-rule="evenodd">
        <g id="ms_azure" transform="translate(-1124.000000, -1923.000000)" fill-rule="nonzero">
            <g id="Group-7" transform="translate(240.000000, 1758.000000)">
                <g id="sensor" transform="translate(884.000000, 164.000000)">
                    <path d="M231.153727,70.7550073 L96.7646295,70.7550073 C80.8286424,70.7550073 67.9669658,83.6127073 67.9669658,99.542335 L67.9669658,118.733887 C67.9669658,124.106882 72.1899832,128.329663 77.5661871,128.329663 L250.352169,128.329663 C255.728373,128.329663 259.95139,124.106882 259.95139,118.733887 L259.95139,99.542335 C259.95139,83.613347 247.089714,70.7550073 231.153727,70.7550073 Z" id="Path" fill="#E9E9E9"></path>
                    <g id="Group" transform="translate(241.900375, 1.312936)" fill="#A4D9F5">
                        <path d="M67.2963003,64.6537793 C62.9651316,54.402292 56.7409966,45.1621995 48.7730031,37.1970658 C40.823568,29.2600796 31.5615994,23.018987 21.2878729,18.6612253 C16.4133884,16.5904568 14.1262139,10.9583761 16.2073251,6.07604531 C18.2698778,1.18475847 23.9506969,-1.04593957 28.7874245,0.987725201 C41.3489654,6.31018224 52.6357297,13.9285886 62.3469418,23.6279989 C72.0773524,33.3549171 79.6895348,44.6376304 84.9953443,57.1754712 C87.057897,62.057802 84.7700826,67.6898828 79.8770396,69.7510554 C74.9897561,71.8179856 69.3614127,69.5162788 67.2963003,64.6537793 Z" id="Path"></path>
                        <path d="M31.9174105,79.5720122 C29.5176052,73.893232 26.0676451,68.7582125 21.6244856,64.3256037 C17.2184431,59.9121865 12.0815798,56.4449128 6.36300377,54.0267773 C1.48851924,51.9560088 -0.798655205,46.3239281 1.28245595,41.4511931 C3.34500862,36.5599062 9.02582774,34.3010606 13.8625553,36.3532772 C21.8683058,39.7457038 29.0485233,44.5902913 35.1984244,50.7654929 C41.4040009,56.9502904 46.2413684,64.1375265 49.6158147,72.112256 C51.6783673,76.9945868 49.390553,82.6266675 44.4975099,84.6878402 C39.5545509,86.7413363 33.9838029,84.4377103 31.9174105,79.5720122 Z" id="Path"></path>
                    </g>
                    <g id="Group" transform="translate(0.000000, 1.312936)" fill="#A4D9F5">
                        <path d="M5.87664323,69.7516951 C0.983600201,67.6898828 -1.30421419,62.0584417 0.758338476,57.1761109 C6.06414802,44.6376304 13.6763304,33.3555568 23.406741,23.6286386 C33.1185931,13.929868 44.4047175,6.31146168 56.9662583,0.988364919 C61.8221844,-1.04529986 67.5030035,1.18539818 69.5463577,6.07668503 C71.6274689,10.9590158 69.3402944,16.5910966 64.4658099,18.661865 C54.1914435,23.0196267 44.9301148,29.2600796 36.9806798,37.1977055 C29.0126862,45.1628392 22.7879112,54.4029317 18.4573826,64.654419 C16.3903503,69.506683 10.7760857,71.823743 5.87664323,69.7516951 Z" id="Path"></path>
                        <path d="M41.254893,84.6884799 C36.36185,82.6266675 34.0740356,76.9952265 36.1365882,72.1128957 C39.5110345,64.1381662 44.348402,56.9509301 50.5539786,50.7565369 C56.7032397,44.5902913 63.8840971,39.7457038 71.8898476,36.3532772 C76.7457736,34.3010606 82.4080342,36.5592665 84.469947,41.4511931 C86.5510581,46.3239281 84.2638837,51.9560088 79.3893991,54.0267773 C73.6708231,56.4442731 68.5339598,59.9115468 64.1279173,64.3160079 C59.6847578,68.7575728 56.2347977,73.893232 53.8349924,79.5720122 C51.7948379,84.3762974 46.2413684,86.7592484 41.254893,84.6884799 Z" id="Path"></path>
                    </g>
                    <path d="M247.02074,125.587299 L164.146683,125.587299 L164.146683,70.8100831 L228.868907,70.8100831 C246.560009,69.8426556 259.95139,82.0366422 259.95139,97.5700105 L259.95139,116.284161 C259.95139,121.524123 252.177962,125.587299 247.02074,125.587299 Z" id="Path" fill="#EFEFEF"></path>
                    <path d="M297.387073,148.758701 L283.37285,123.561434 C278.573239,114.700106 268.589409,109.138751 257.647577,109.138751 L70.2707789,109.138751 C59.3289467,109.138751 49.3451166,114.699527 44.545506,123.561434 L30.531283,148.758701 C27.4588923,154.49383 32.0665184,161.271026 39.1699421,161.271026 L288.749694,161.271026 C295.851838,161.270447 300.459464,154.493251 297.387073,148.758701 Z" id="Path" fill="#DFDFDF"></path>
                    <path d="M288.936559,165.670984 L164.146683,165.670984 L164.146683,109.138751 L256.791971,109.138751 C270.050646,109.138751 279.35608,115.383193 284.121569,125.079916 L299.202917,151.954746 C302.275308,158.131039 296.039342,165.670984 288.936559,165.670984 Z" id="Path" fill="#BABABA"></path>
                    <path d="M327.653418,157.116991 C327.653418,162.489985 323.4304,166.712766 318.054196,166.712766 L9.59922122,166.712766 C4.22301739,166.712766 0,162.489985 0,157.116991 C0,151.742716 4.22301739,147.521215 9.59922122,147.521215 L318.054196,147.521215 C323.4304,147.521215 327.653418,151.743356 327.653418,157.116991 Z" id="Path" fill="#787780"></path>
                    <path d="M327.653418,157.113619 C327.653418,162.378655 323.768082,166.712766 318.889454,166.712766 C315.637036,166.712766 262.721587,166.712766 160.143105,166.712766 L160.143105,147.521215 L318.054196,147.521215 C323.474567,147.282817 327.653418,151.848582 327.653418,157.113619 Z" id="Path" fill="#57555C"></path>
                </g>
            </g>
        </g>
    </g>
</svg>