<?xml version="1.0" encoding="UTF-8"?>
<svg width="291px" height="330px" viewBox="0 0 291 330" version="1.1" xmlns="http://www.w3.org/2000/svg" xmlns:xlink="http://www.w3.org/1999/xlink">
    <!-- Generator: Sketch 54.1 (76490) - https://sketchapp.com -->
    <title>facial-recognition</title>
    <desc>Created with Sketch.</desc>
    <g id="desktop" stroke="none" stroke-width="1" fill="none" fill-rule="evenodd">
        <g id="ms_azure" transform="translate(-1149.000000, -3038.000000)" fill-rule="nonzero">
            <g id="facial-recognition" transform="translate(1149.000000, 3038.000000)">
                <path d="M194.653026,62.846464 C192.525451,54.6228567 183.45182,42.968975 149.066078,42.968975 C95.9395653,42.968975 88.3773683,50.8354711 74.2387998,37.2501728 C62.3082826,25.7849055 55.3043852,80.956003 71.2083882,98.4770641 C64.4962151,123.291232 69.8654503,148.145637 69.8654503,148.145637 L219.333907,148.145637 C219.333907,148.145637 231.880566,90.0874761 194.653026,62.846464 Z" id="Path" fill="#57555C"></path>
                <path d="M84.9571526,150.753552 C84.9571526,150.753552 78.5140694,138.951293 65.6279038,138.951293 C52.7392234,138.951293 43.610265,195.61119 84.9571526,186.165359 L84.9571526,150.753552 Z" id="Path" fill="#FFE4D1"></path>
                <path d="M204.23969,150.753552 C204.23969,150.753552 210.682773,138.951293 223.571453,138.951293 C236.457619,138.951293 245.586577,195.61119 204.23969,186.165359 L204.23969,150.753552 Z" id="Path" fill="#FFE4D1"></path>
                <path d="M144.599678,74.8297931 C45.8635836,74.8297931 64.7426715,236.761917 144.599678,236.761917 C224.456686,236.761917 243.335773,74.8297931 144.599678,74.8297931 Z" id="Path" fill="#FFEFE4"></path>
                <path d="M144.599678,66.0151926 C144.599678,66.0151926 77.4402221,56.5416985 77.4402221,142.711015 C77.4402221,142.711015 85.8977116,107.095504 105.294861,97.3830979 C114.33077,92.8588565 117.640331,104.319094 144.599678,104.319094 C171.556511,104.319094 174.866073,92.8588565 183.901981,97.3830979 C203.301645,107.095504 211.75662,142.711015 211.75662,142.711015 C211.75662,56.5416985 144.599678,66.0151926 144.599678,66.0151926 Z" id="Path" fill="#4F4D53"></path>
                <path d="M182.976511,245.931114 L182.760232,221.431303 C172.615269,230.560262 159.993164,236.218707 145.230909,236.34948 C130.468655,236.480253 117.74847,231.043116 107.445071,222.095228 L107.653804,245.737469 C107.709131,251.856134 103.796002,257.305845 97.9816353,259.212113 L37.3306485,279.104691 C19.1657821,285.062405 6.88569865,302.017621 6.88569865,321.133107 L6.88569865,329.693705 L283.739586,329.693705 L283.739586,321.115502 C283.739586,302.007562 271.467047,285.05989 253.314756,279.094631 L192.641135,259.156785 C186.917303,257.278182 183.029323,251.956729 182.976511,245.931114 L182.976511,245.931114 Z" id="Path" fill="#FF8F8F"></path>
                <path d="M143.148602,312.24809 C174.25999,312.24809 200.79684,292.720167 211.205865,265.257847 L192.641135,259.156785 C186.914788,257.275667 183.029323,251.956729 182.976511,245.931114 L182.760232,221.428789 C172.615269,230.560262 159.993164,236.218707 145.230909,236.34948 C130.468655,236.477738 117.74847,231.043116 107.445071,222.092713 L107.653804,245.734954 C107.709131,251.856134 103.796002,257.303331 97.9816353,259.212113 L75.5993413,266.555517 C86.3453578,293.33128 112.530126,312.24809 143.148602,312.24809 L143.148602,312.24809 Z" id="Path" fill="#FFE4D1"></path>
                <g id="Group" fill="#A4D9F5">
                    <path d="M70.8110393,290.557384 L9.04596741,290.557384 C4.06653572,290.557384 0.0326932062,286.523541 0.0326932062,281.54411 L0.0326932062,217.568472 C0.0326932062,212.58904 4.06653572,208.555197 9.04596741,208.555197 C14.0228844,208.555197 18.0592417,212.58904 18.0592417,217.568472 L18.0592417,272.53335 L70.8110393,272.53335 C75.790471,272.53335 79.8243137,276.569708 79.8243137,281.546624 C79.8243137,286.523541 75.790471,290.557384 70.8110393,290.557384 Z" id="Path"></path>
                    <path d="M9.04596741,75.5565888 C4.06653572,75.5565888 0.0326932062,71.5227461 0.0326932062,66.5433144 L0.0326932062,9.01327434 C0.0326932062,4.03635735 4.06653572,0 9.04596741,0 L70.8110393,0 C75.790471,0 79.8243137,4.03635735 79.8243137,9.01327434 C79.8243137,13.9901913 75.790471,18.0265487 70.8110393,18.0265487 L18.0592417,18.0265487 L18.0592417,66.5433144 C18.0592417,71.5227461 14.0253991,75.5565888 9.04596741,75.5565888 Z" id="Path"></path>
                    <path d="M281.579318,290.557384 L219.811731,290.557384 C214.834814,290.557384 210.798456,286.523541 210.798456,281.54411 C210.798456,276.567193 214.834814,272.530835 219.811731,272.530835 L272.566044,272.530835 L272.566044,217.568472 C272.566044,212.58904 276.599886,208.555197 281.579318,208.555197 C286.556234,208.555197 290.592592,212.58904 290.592592,217.568472 L290.592592,281.546624 C290.592592,286.523541 286.556234,290.557384 281.579318,290.557384 L281.579318,290.557384 Z" id="Path"></path>
                    <path d="M281.579318,79.7916206 C276.599886,79.7916206 272.566044,75.7577779 272.566044,70.7783462 L272.566044,18.0265487 L219.811731,18.0265487 C214.834814,18.0265487 210.798456,13.9901913 210.798456,9.01327434 C210.798456,4.03635735 214.834814,0 219.811731,0 L281.579318,0 C286.556234,0 290.592592,4.03635735 290.592592,9.01327434 L290.592592,70.7783462 C290.592592,75.7577779 286.556234,79.7916206 281.579318,79.7916206 L281.579318,79.7916206 Z" id="Path"></path>
                </g>
                <path d="M216.477021,148.145637 C216.477021,144.20233 213.725759,140.910372 210.038968,140.067893 L203.890123,115.998124 C206.450256,114.587286 208.185513,111.863687 208.185513,108.732681 C208.185513,104.153113 204.473572,100.441173 199.894004,100.441173 C196.426006,100.441173 193.458466,102.568748 192.221152,105.591616 L151.492922,101.640763 C150.668047,97.931338 147.363514,95.1549276 143.405118,95.1549276 C139.444206,95.1549276 136.137159,97.936368 135.314799,101.648308 L95.2454627,105.536288 C93.9930605,102.5436 91.0406093,100.441173 87.5927305,100.441173 C83.0131618,100.441173 79.3012218,104.153113 79.3012218,108.732681 C79.3012218,111.649924 80.8101405,114.210056 83.0886081,115.688796 L76.9070708,139.879278 C72.5764745,140.155913 69.148714,143.744625 69.148714,148.143123 C69.148714,152.695027 72.8179015,156.386848 77.3597465,156.432116 L83.7751659,176.827667 C81.8387206,178.346645 80.5888325,180.700558 80.5888325,183.351226 C80.5888325,187.779902 84.0593455,191.383702 88.4276649,191.6201 L92.7808955,205.456884 C90.6809835,206.960773 89.3053531,209.417796 89.3053531,212.196721 C89.3053531,216.77629 93.0172931,220.488229 97.5993759,220.488229 C99.842635,220.488229 101.874646,219.595453 103.368475,218.146891 L135.241868,234.933611 C135.163907,235.393831 135.11361,235.864111 135.11361,236.346965 C135.11361,240.926533 138.825549,244.638473 143.405118,244.638473 C147.984686,244.638473 151.696626,240.926533 151.696626,236.346965 C151.696626,235.8792 151.648844,235.424009 151.575913,234.976364 L184.203765,217.78978 C185.720228,219.444561 187.893071,220.488229 190.314885,220.488229 C194.894453,220.488229 198.606393,216.77629 198.606393,212.196721 C198.606393,209.05817 196.861078,206.324512 194.288371,204.918703 L198.465561,191.635189 C198.513343,191.635189 198.558611,191.642734 198.603879,191.642734 C203.185961,191.642734 206.897902,187.930794 206.897902,183.351226 C206.897902,180.48428 205.44431,177.959356 203.233744,176.470556 L209.576233,156.308887 C213.491876,155.649993 216.477021,152.249896 216.477021,148.145637 L216.477021,148.145637 Z M192.696462,177.539374 L152.599463,161.889372 L201.08102,152.405818 C201.878232,153.733666 203.037585,154.820087 204.423275,155.526765 L198.274431,175.077321 C196.094044,175.162827 194.12742,176.083267 192.696462,177.539374 L192.696462,177.539374 Z M199.931727,147.381119 L150.640383,157.023109 C149.634437,155.222466 147.974627,153.836776 145.982854,153.185426 L146.013032,111.312932 C148.248747,110.571047 150.061965,108.906207 150.997493,106.768572 L191.851468,110.729484 C192.663768,114.001322 195.410001,116.503613 198.812613,116.946229 L204.848287,140.555776 C202.152353,141.742792 200.210877,144.320529 199.931727,147.381119 L199.931727,147.381119 Z M140.855045,209.624014 L105.475931,209.624014 C104.399569,206.334572 101.32892,203.952996 97.6873963,203.912758 L93.4070973,190.294766 C95.5723954,188.881412 97.0259868,186.482232 97.1517303,183.733485 L137.183343,166.539357 C138.154081,167.638352 139.403968,168.480831 140.829897,168.946082 L140.855045,209.624014 Z M85.666344,147.129632 C85.3595309,144.617282 83.9310878,142.457014 81.8940473,141.156829 L88.0680398,117.001556 C91.7648903,116.790307 94.8078766,114.164788 95.647841,110.671642 L135.810227,106.776116 C136.758331,108.936385 138.596697,110.611285 140.86259,111.340595 L140.834926,153.182911 C138.835609,153.831746 137.175798,155.219951 136.167338,157.020594 L85.666344,147.129632 Z M82.2687619,154.87793 C83.2545888,154.168738 84.0844944,153.250812 84.6805171,152.184509 L134.723806,161.987452 L95.7584951,178.723875 C94.2696953,176.515824 91.7447713,175.059717 88.8778258,175.059717 C88.7898054,175.059717 88.706815,175.072292 88.6187953,175.074806 L82.2687619,154.87793 Z M140.860075,214.774457 L140.86762,228.45532 C139.645395,228.847639 138.551429,229.514078 137.648593,230.386736 L108.010915,214.774457 L140.860075,214.774457 Z M149.189306,230.414399 C148.301559,229.549286 147.222682,228.885362 146.018062,228.485499 L146.010518,214.776972 L178.882311,214.776972 L149.189306,230.414399 Z M189.180681,203.993233 C186.004407,204.428305 183.404038,206.65396 182.4333,209.624014 L146.008002,209.624014 L145.982854,168.941052 C147.496802,168.445624 148.819621,167.532728 149.810477,166.328107 L190.407935,182.171754 C190.350093,182.559043 190.312371,182.951362 190.312371,183.35374 C190.312371,186.04716 191.605011,188.436281 193.596783,189.95023 L189.180681,203.993233 Z" id="Shape" fill="#A4D9F5"></path>
                <path d="M283.721982,320.68043 L6.90330287,320.68043 C6.90078816,320.831323 6.88569865,320.982214 6.88569865,321.133107 L6.88569865,329.693705 L283.739586,329.693705 L283.739586,321.115502 C283.739586,320.96964 283.724497,320.826293 283.721982,320.68043 L283.721982,320.68043 Z" id="Path" fill="#FCA6A6"></path>
            </g>
        </g>
    </g>
</svg>