<?xml version="1.0" encoding="UTF-8"?>
<svg width="53px" height="58px" viewBox="0 0 53 58" version="1.1" xmlns="http://www.w3.org/2000/svg" xmlns:xlink="http://www.w3.org/1999/xlink">
    <!-- Generator: Sketch 49.3 (51167) - http://www.bohemiancoding.com/sketch -->
    <title>user</title>
    <desc>Created with Sketch.</desc>
    <defs></defs>
    <g id="Page-1" stroke="none" stroke-width="1" fill="none" fill-rule="evenodd">
        <g id="Large-Device-Desktops" transform="translate(-930.000000, -667.000000)">
            <g id="Group-7" transform="translate(930.000000, 667.000000)">
                <g id="user">
                    <path d="M19.4419512,35.1346939 L19.4419512,25.0644898 C19.4419512,24.6334694 19.2221951,24.2285714 18.8731707,23.9934694 C17.9295122,23.3534694 17.3607317,22.2955102 17.3607317,21.1461224 L17.3607317,10.6971429 C17.3607317,6.21714286 20.9673171,2.58612245 25.3882927,2.58612245 L27.6117073,2.58612245 C32.0456098,2.58612245 35.6392683,6.23020408 35.6392683,10.6971429 L35.6392683,21.1461224 C35.6392683,22.2955102 35.0704878,23.3534694 34.1268293,23.9934694 C33.764878,24.2285714 33.5580488,24.6334694 33.5580488,25.0644898 L33.5580488,35.1346939 C33.5580488,35.8138776 33.9329268,36.4146939 34.527561,36.715102 C35.8331707,37.355102 42.6843902,40.8555102 48.9926829,46.0930612 C49.8587805,46.8114286 50.35,47.8693878 50.35,49.0057143 L50.35,57.2536316 L52.9095122,57.2536316 L52.9095122,49.0057143 C52.9095122,47.0987755 52.0692683,45.3093878 50.6214634,44.0946939 C44.6363415,39.1314286 38.1987805,35.6832653 36.117561,34.6253061 L36.117561,25.7044898 C37.4360976,24.5681633 38.1987805,22.9093878 38.1987805,21.1461224 L38.1987805,10.6971429 C38.1987805,4.79346939 33.4417073,-5.68434189e-14 27.6117073,-5.68434189e-14 L25.3882927,-5.68434189e-14 C19.5453659,-5.68434189e-14 14.8012195,4.80653061 14.8012195,10.6971429 L14.8012195,21.1461224 C14.8012195,22.9093878 15.5639024,24.5681633 16.882439,25.7044898 L16.882439,34.6253061 C14.8012195,35.6832653 8.36365854,39.1314286 2.37853659,44.0946939 C0.917804878,45.2963265 0.0904878049,47.0857143 0.0904878049,49.0057143 L0.0904878049,57.2536316 L2.65,57.2536316 L2.65,49.0057143 C2.65,47.8693878 3.14121951,46.8114286 4.00731707,46.0930612 C10.3156098,40.8555102 17.1668293,37.3681633 18.472439,36.715102 C19.0670732,36.4146939 19.4419512,35.8138776 19.4419512,35.1346939 Z" id="Shape" fill="#42566C" fill-rule="nonzero"></path>
                    <path d="M33.1054268,38.3722449 L22.2598171,49.3306122 L18.1878659,45.2163265 C17.6837195,44.7069388 16.8822561,44.7069388 16.3781098,45.2163265 C15.8739634,45.7257143 15.8739634,46.5355102 16.3781098,47.044898 L21.354939,52.0734694 C21.6005488,52.3216327 21.9366463,52.4522449 22.2598171,52.4522449 C22.5829878,52.4522449 22.9190854,52.3216327 23.1646951,52.0734694 L34.9151829,40.2008163 C35.4193293,39.6914286 35.4193293,38.8816327 34.9151829,38.3722449 C34.4110366,37.8759184 33.6095732,37.8759184 33.1054268,38.3722449 Z" id="Shape" fill="#E83F67" fill-rule="nonzero"></path>
                    <path d="M51.8666992,56 L2,56" id="Path-11" stroke="#42566C" stroke-width="2.5"></path>
                </g>
            </g>
        </g>
    </g>
</svg>