<?xml version="1.0" encoding="UTF-8"?>
<svg width="70px" height="60px" viewBox="0 0 70 60" version="1.1" xmlns="http://www.w3.org/2000/svg" xmlns:xlink="http://www.w3.org/1999/xlink">
    <!-- Generator: Sketch 49.3 (51167) - http://www.bohemiancoding.com/sketch -->
    <title>Group 15</title>
    <desc>Created with Sketch.</desc>
    <defs></defs>
    <g id="Page-1" stroke="none" stroke-width="1" fill="none" fill-rule="evenodd">
        <g id="Large-Device-Desktops" transform="translate(-517.000000, -4227.000000)" fill-rule="nonzero">
            <g id="Group-11" transform="translate(408.000000, 4200.000000)">
                <g id="Group-15" transform="translate(109.000000, 27.000000)">
                    <path d="M0,4.24909185 L0,43.681716 C0,46.0245632 1.87229374,47.9308078 4.17341411,47.9308078 L27.4917963,47.9308078 L27.4917963,57.9242346 L23.5664356,57.9242346 L23.5664356,60 L27.4917963,60 L41.7456943,60 L45.6703753,60 L45.6703753,57.9242346 L41.7456943,57.9242346 L41.7456943,47.9308078 L65.8265859,47.9308078 C68.1270267,47.9308078 70,46.0245632 70,43.681716 L70,4.24909185 C70,1.90624459 68.1270267,0 65.8265859,0 L4.17341411,0 C1.87229374,0.000691921813 0,1.90624459 0,4.24909185 Z M39.7062193,57.9242346 L29.529912,57.9242346 L29.529912,47.9308078 L39.7062193,47.9308078 L39.7062193,57.9242346 Z M65.8252267,45.8550424 L41.7450147,45.8550424 L27.4911167,45.8550424 L4.17341411,45.8550424 C2.99634959,45.8550424 2.03879536,44.8801245 2.03879536,43.681716 L2.03879536,39.274174 L67.9598454,39.274174 L67.9598454,43.681716 C67.9598454,44.8801245 67.0022912,45.8550424 65.8252267,45.8550424 Z M67.9598454,4.24909185 L67.9598454,37.1984086 L2.03879536,37.1984086 L2.03879536,4.24909185 C2.03879536,3.05137519 2.99566999,2.07576544 4.17341411,2.07576544 L65.8259063,2.07576544 C67.0022912,2.07645736 67.9598454,3.05137519 67.9598454,4.24909185 Z" id="Shape" fill="#42566C"></path>
                    <g id="user" transform="translate(8.000000, 5.000000)" fill="#E83F67">
                        <path d="M23.9043902,17.5673469 L23.9043902,12.5322449 C23.9043902,12.3167347 23.792439,12.1142857 23.6146341,11.9967347 C23.1339024,11.6767347 22.8441463,11.1477551 22.8441463,10.5730612 L22.8441463,5.34857143 C22.8441463,3.10857143 24.6814634,1.29306122 26.9336585,1.29306122 L28.0663415,1.29306122 C30.325122,1.29306122 32.1558537,3.11510204 32.1558537,5.34857143 L32.1558537,10.5730612 C32.1558537,11.1477551 31.8660976,11.6767347 31.3853659,11.9967347 C31.2009756,12.1142857 31.0956098,12.3167347 31.0956098,12.5322449 L31.0956098,17.5673469 C31.0956098,17.9069388 31.2865854,18.2073469 31.5895122,18.357551 C32.2546341,18.677551 35.744878,20.4277551 38.9585366,23.0465306 C39.3997561,23.4057143 39.65,23.9346939 39.65,24.5028571 L39.65,28.6268158 L40.9539024,28.6268158 L40.9539024,24.5028571 C40.9539024,23.5493878 40.5258537,22.6546939 39.7882927,22.0473469 C36.7392683,19.5657143 33.4597561,17.8416327 32.3995122,17.3126531 L32.3995122,12.8522449 C33.0712195,12.2840816 33.4597561,11.4546939 33.4597561,10.5730612 L33.4597561,5.34857143 C33.4597561,2.39673469 31.0363415,-5.68434189e-14 28.0663415,-5.68434189e-14 L26.9336585,-5.68434189e-14 C23.9570732,-5.68434189e-14 21.5402439,2.40326531 21.5402439,5.34857143 L21.5402439,10.5730612 C21.5402439,11.4546939 21.9287805,12.2840816 22.6004878,12.8522449 L22.6004878,17.3126531 C21.5402439,17.8416327 18.2607317,19.5657143 15.2117073,22.0473469 C14.467561,22.6481633 14.0460976,23.5428571 14.0460976,24.5028571 L14.0460976,28.6268158 L15.35,28.6268158 L15.35,24.5028571 C15.35,23.9346939 15.6002439,23.4057143 16.0414634,23.0465306 C19.255122,20.4277551 22.7453659,18.6840816 23.4104878,18.357551 C23.7134146,18.2073469 23.9043902,17.9069388 23.9043902,17.5673469 Z" id="Shape" stroke="#E83F67" stroke-width="0.3"></path>
                        <path d="M29.8650288,19.1861224 L24.3399068,24.6653061 L22.2655166,22.6081633 C22.0086873,22.3534694 21.6003946,22.3534694 21.3435653,22.6081633 C21.0867361,22.8628571 21.0867361,23.2677551 21.3435653,23.522449 L23.8789312,26.0367347 C24.0040532,26.1608163 24.1752727,26.2261224 24.3399068,26.2261224 C24.504541,26.2261224 24.6757605,26.1608163 24.8008824,26.0367347 L30.78698,20.1004082 C31.0438092,19.8457143 31.0438092,19.4408163 30.78698,19.1861224 C30.5301507,18.9379592 30.121858,18.9379592 29.8650288,19.1861224 Z" id="Shape"></path>
                        <polygon id="Path-11" points="40.4226581 27.375 40.4226581 28.7788696 15.0188679 28.7788696 15.0188679 27.375"></polygon>
                        <path d="M40.9610866,20.2961445 L40.9610866,16.7718592 C40.9610866,16.6210144 40.8820362,16.4793116 40.7564856,16.3970325 C40.4170338,16.1730507 40.2124327,15.8027951 40.2124327,15.400542 L40.2124327,11.7436961 C40.2124327,10.1758233 41.5097895,8.90506938 43.1000979,8.90506938 L43.8999021,8.90506938 C45.4948605,8.90506938 46.7875673,10.1803944 46.7875673,11.7436961 L46.7875673,15.400542 C46.7875673,15.8027951 46.5829662,16.1730507 46.2435144,16.3970325 C46.1133138,16.4793116 46.0389134,16.6210144 46.0389134,16.7718592 L46.0389134,20.2961445 C46.0389134,20.5338395 46.1737641,20.7441082 46.3876652,20.8492425 C46.8573177,21.0732243 49.3218306,22.2982677 51.5910426,24.1312617 C51.9025942,24.3826699 52.0792952,24.7529256 52.0792952,25.1506076 L52.0792952,28.0371443 L53,28.0371443 L53,25.1506076 C53,24.4832332 52.6977484,23.8569983 52.1769457,23.43189 C50.0239843,21.6948881 47.7082721,20.488129 46.9596182,20.1178733 L46.9596182,16.9958411 C47.4339207,16.5981591 47.7082721,16.0176348 47.7082721,15.400542 L47.7082721,11.7436961 C47.7082721,9.67757808 45.9970631,8 43.8999021,8 L43.1000979,8 C40.9982868,8 39.2917279,9.68214914 39.2917279,11.7436961 L39.2917279,15.400542 C39.2917279,16.0176348 39.5660793,16.5981591 40.0403818,16.9958411 L40.0403818,20.1178733 C39.7569001,20.2580725 38.9317908,20.7195253 37.565054,21.5022316 L38.2130737,22.2076416 C39.6260712,21.3928059 40.4258249,20.9400062 40.6123348,20.8492425 C40.8262359,20.7441082 40.9610866,20.5338395 40.9610866,20.2961445 Z" id="Shape" stroke="#E83F67" stroke-width="0.5"></path>
                        <polygon id="Path-11" points="53.1497345 27.3887634 53.1497345 28.6269989 35 28.6269989 35 27.3887634"></polygon>
                        <path d="M3.96108664,20.2961445 L3.96108664,16.7718592 C3.96108664,16.6210144 3.88203622,16.4793116 3.75648556,16.3970325 C3.41703377,16.1730507 3.2124327,15.8027951 3.2124327,15.400542 L3.2124327,11.7436961 C3.2124327,10.1758233 4.50978953,8.90506938 6.1000979,8.90506938 L6.8999021,8.90506938 C8.4948605,8.90506938 9.7875673,10.1803944 9.7875673,11.7436961 L9.7875673,15.400542 C9.7875673,15.8027951 9.58296623,16.1730507 9.24351444,16.3970325 C9.11331375,16.4793116 9.03891336,16.6210144 9.03891336,16.7718592 L9.03891336,20.2961445 C9.03891336,20.5338395 9.17376407,20.7441082 9.3876652,20.8492425 C9.85731767,21.0732243 12.3218306,22.2982677 14.5910426,24.1312617 C14.9025942,24.3826699 15.0792952,24.7529256 15.0792952,25.1506076 L15.0792952,28.0371443 L16,28.0371443 L16,25.1506076 C16,24.4832332 15.6977484,23.8569983 15.1769457,23.43189 C13.0239843,21.6948881 10.7082721,20.488129 9.95961821,20.1178733 L9.95961821,16.9958411 C10.4339207,16.5981591 10.7082721,16.0176348 10.7082721,15.400542 L10.7082721,11.7436961 C10.7082721,9.67757808 8.99706314,8 6.8999021,8 L6.1000979,8 C3.99828683,8 2.29172785,9.68214914 2.29172785,11.7436961 L2.29172785,15.400542 C2.29172785,16.0176348 2.5660793,16.5981591 3.04038179,16.9958411 L3.04038179,20.1178733 C2.75690011,20.2580725 1.93179084,20.7195253 0.565053983,21.5022316 L1.21307373,22.2076416 C2.62607119,21.3928059 3.42582488,20.9400062 3.6123348,20.8492425 C3.82623593,20.7441082 3.96108664,20.5338395 3.96108664,20.2961445 Z" id="Shape" stroke="#E83F67" stroke-width="0.5" transform="translate(8.282527, 18.018572) scale(-1, 1) translate(-8.282527, -18.018572) "></path>
                        <polygon id="Path-11" transform="translate(9.780739, 28.007881) scale(-1, 1) translate(-9.780739, -28.007881) " points="19.1497345 27.3887634 19.1497345 28.6269989 0.411743164 28.6269989 0.411743164 27.3887634"></polygon>
                    </g>
                </g>
            </g>
        </g>
    </g>
</svg>