<?xml version="1.0" encoding="UTF-8"?>
<svg width="198px" height="311px" viewBox="0 0 198 311" version="1.1" xmlns="http://www.w3.org/2000/svg" xmlns:xlink="http://www.w3.org/1999/xlink">
    <!-- Generator: Sketch 49.3 (51167) - http://www.bohemiancoding.com/sketch -->
    <title>Group 19</title>
    <desc>Created with Sketch.</desc>
    <defs></defs>
    <g id="Page-1" stroke="none" stroke-width="1" fill="none" fill-rule="evenodd">
        <g id="Large-Device-Desktops" transform="translate(0.000000, -2463.000000)">
            <g id="Group-19" transform="translate(-18.000000, 2456.000000)">
                <g id="Group-12" opacity="0.109999999" transform="translate(0.000000, 67.121107)">
                    <polygon id="Fill-14" fill="#F9F9F9" points="1.33005196 194.101038 139.655455 194.101038 139.655455 35.6512111 1.33005196 35.6512111"></polygon>
                    <rect id="Rectangle-5" fill="#D8D8D8" x="128" y="34" width="11" height="161"></rect>
                    <path d="M79.8031173,146.566673 C79.8031173,141.461589 75.6345081,137.323183 70.4933409,137.323183 C65.3509991,137.323183 61.1823899,141.461589 61.1823899,146.566673 C61.1823899,151.671757 65.3509991,155.808997 70.4933409,155.808997 C75.6345081,155.808997 79.8031173,151.671757 79.8031173,146.566673" id="Fill-15" fill="#E9456C"></path>
                    <path d="M48.9993226,126.917235 C50.438668,128.396605 52.7449323,128.455591 54.340394,127.1461 C58.7412192,123.530254 64.3614077,121.34777 70.4948878,121.34777 C76.6271852,121.34777 82.2450083,123.529074 86.6458335,127.141382 C88.2412952,128.450872 90.5475594,128.390707 91.9857221,126.910156 C93.5445202,125.309274 93.4771063,122.685574 91.7586438,121.255751 C85.9858871,116.457824 78.5798222,113.555709 70.4948878,113.555709 C62.407588,113.555709 54.9991577,116.460184 49.226401,121.26283 C47.5079385,122.692652 47.4417073,125.315173 48.9993226,126.916055 L48.9993226,126.917235" id="Fill-16" fill="#E9456C"></path>
                    <path d="M35.7061679,112.377279 C37.1656454,113.84422 39.5539909,113.963922 41.1241626,112.610816 C49.1374525,105.703286 59.6533916,101.501969 71.161968,101.501969 C82.6669347,101.501969 93.1792642,105.700939 101.191351,112.602601 C102.762726,113.955707 105.149868,113.834831 106.610549,112.367891 C108.195159,110.773033 108.090481,108.201779 106.380738,106.734839 C96.9753498,98.6596245 84.6485997,93.749481 71.161968,93.749481 C57.6717267,93.749481 45.3401638,98.6631451 35.933572,106.745401 C34.2250327,108.212341 34.1203546,110.783595 35.7061679,112.377279" id="Fill-17" fill="#E9456C"></path>
                    <path d="M21.0603748,97.8163718 C22.5264412,99.3402569 24.9371998,99.4535838 26.4953439,98.0249415 C38.3063867,87.1986057 53.9811007,80.5858605 71.1637346,80.5858605 C88.3403895,80.5858605 104.01032,87.1937833 115.820167,98.0116798 C117.378311,99.4403221 119.78907,99.3269952 121.256332,97.8031101 C122.828826,96.1671037 122.705657,93.5569682 121.030324,92.027055 C107.82855,79.9770298 90.3338094,72.6228374 71.1637346,72.6228374 C51.9876808,72.6228374 34.4881565,79.9818523 21.2839917,92.0415223 C19.6098538,93.5714354 19.4866851,96.181571 21.0603748,97.8163718" id="Fill-18" fill="#E9456C"></path>
                    <path d="M128.120117,194.696276 C128.407227,213.316393 128.022461,226.60513 126.96582,234.562486 C125.90918,242.519843 119.668945,247.245429 108.245117,248.739244 L128.120117,248.739244 C135.944336,240.750963 139.856445,236.395169 139.856445,235.671861 C139.856445,234.948554 139.856445,221.290026 139.856445,194.696276 L128.120117,194.696276 Z" id="Path-2" fill="#C3C3C3"></path>
                    <path d="M127.875,20.9982399 C126.054362,29.3087867 119.429362,34.1719007 108,35.5875818 L127.875,35.5875818 C135.699219,27.5993006 139.611328,23.2435063 139.611328,22.520199 C139.611328,21.7968917 139.611328,15.4716964 139.611328,3.54461306 C133.218643,1.48512898 129.306534,1.48512898 127.875,3.54461306 C127.777832,9.31611095 127.853591,15.1041863 127.875,20.9982399 Z" id="Path-2" fill="#C3C3C3" transform="translate(123.805664, 18.793791) scale(1, -1) translate(-123.805664, -18.793791) "></path>
                    <path d="M139.193956,231.495624 L137.402405,231.495624 C137.40121,235.862478 135.608465,239.80121 132.693015,242.670823 C129.775175,245.538058 125.756129,247.310012 121.296362,247.311201 L19.6879513,247.311201 C15.2281837,247.310012 11.2091377,245.538058 8.29129837,242.670823 C5.37704212,239.80121 3.58429679,235.862478 3.58310242,231.495624 L3.58310242,19.3820804 C3.58429679,15.0164149 5.37704212,11.0776833 8.29129837,8.2080699 C11.2091377,5.34083499 15.2281837,3.56888144 19.6879513,3.56769221 L121.296362,3.56769221 C125.756129,3.56888144 129.775175,5.34083499 132.693015,8.2080699 C135.608465,11.0776833 137.40121,15.0164149 137.402405,19.3820804 L137.402405,231.495624 L140.985507,231.495624 L140.985507,19.3820804 C140.986701,14.0293535 138.772344,9.1689682 135.210741,5.66906263 C131.651526,2.16677859 126.721178,-0.00118874156 121.296362,4.89010032e-07 L19.6879513,4.89010032e-07 C14.2631349,-0.00118874156 9.33398103,2.16677859 5.77357207,5.66906263 C2.21196875,9.1689682 -0.00119388414,14.0293535 4.83175284e-07,19.3820804 L4.83175284e-07,231.495624 C-0.00119388414,236.84954 2.21196875,241.709925 5.77357207,245.209831 C9.33398103,248.712115 14.2631349,250.878893 19.6879513,250.878893 L121.296362,250.878893 C126.721178,250.878893 131.651526,248.712115 135.210741,245.209831 C138.772344,241.709925 140.986701,236.84954 140.985507,231.495624 L139.193956,231.495624" id="Fill-19" fill="#42566C"></path>
                    <polygon id="Fill-20" stroke="#42566C" stroke-width="0.825000018" fill="#42566C" points="62.5124419 19.8062284 78.4730654 19.8062284 78.4730654 15.8449827 62.5124419 15.8449827"></polygon>
                    <polygon id="Fill-21" fill="#42566C" points="1.33005196 36.9716263 139.655455 36.9716263 139.655455 33.0103806 1.33005196 33.0103806"></polygon>
                    <polygon id="Fill-22" fill="#42566C" points="1.33005196 195.421453 139.655455 195.421453 139.655455 191.460208 1.33005196 191.460208"></polygon>
                    <path d="M81.1331693,226.451211 C81.1331693,231.920203 76.6669581,236.354325 71.1583877,236.354325 C65.6486011,236.354325 61.1823899,231.920203 61.1823899,226.451211 C61.1823899,220.981011 65.6486011,216.548097 71.1583877,216.548097 C76.6669581,216.548097 81.1331693,220.981011 81.1331693,226.451211" id="Fill-23" fill="#E83F67"></path>
                </g>
                <g id="Group-18" opacity="0.100000001" transform="translate(88.115942, 0.000000)" stroke-width="2.64000016">
                    <path d="M20.1238263,37.0639014 L20.0074053,36.7854171 C19.9321575,36.6111858 19.8668482,36.4598046 19.812897,36.3341296 C19.702155,36.0856358 19.6382654,35.9442515 19.6382654,35.9442515 C19.6382654,35.9442515 19.5928328,35.7957265 19.5104862,35.5343796 C19.4693129,35.4058484 19.4182012,35.2487546 19.3585709,35.0688109 L19.2620267,34.7817578 L19.1938778,34.453289 C19.1427661,34.2262172 19.0873951,33.9791515 19.0291846,33.7192328 C18.9695543,33.4578859 18.9624554,33.1736891 18.9184426,32.886636 C18.8999856,32.7423953 18.8801089,32.5952985 18.8602321,32.4467735 C18.8431949,32.2968204 18.8531332,32.1454391 18.8474542,31.9926297 C18.8474542,31.687011 18.8190588,31.3771079 18.8289972,31.0672048 C18.8573926,30.7573017 18.8801089,30.4488267 18.8985659,30.1432079 L18.9127635,29.9161361 L18.9539368,29.6933486 C18.9809124,29.5462517 19.0064683,29.400583 19.0320241,29.2577705 C19.0987533,28.6779517 19.2890023,28.1623986 19.401164,27.7111112 C19.4494361,27.481183 19.5388816,27.2841018 19.60987,27.1084424 C19.6794387,26.9299268 19.739069,26.7756893 19.7887609,26.6485862 C19.8853052,26.3915237 19.9406761,26.245855 19.9406761,26.245855 C19.9406761,26.245855 20.0130844,26.1073268 20.1408635,25.8645456 C20.2033334,25.743155 20.2785811,25.59463 20.365187,25.4261112 C20.4503731,25.2547362 20.536979,25.057655 20.6775361,24.8691425 C20.9401934,24.4849769 21.1985913,24.0008425 21.5876079,23.5652644 L21.8630431,23.2168019 L22.0007607,23.0382863 L22.1611945,22.8769082 C22.3769994,22.6598332 22.5928042,22.4370457 22.8057696,22.211402 C23.030093,21.9986114 23.2813921,21.8129551 23.5085551,21.6101614 L23.8578182,21.3188239 L24.2255384,21.068902 C24.4697386,20.9103802 24.6869632,20.7275802 24.9212251,20.5990489 C25.1540671,20.4690896 25.3755511,20.3462708 25.5799978,20.2334489 L25.8696306,20.0663583 L26.1479053,19.9478239 C26.3225369,19.8721333 26.4730323,19.8064396 26.597972,19.7507427 C26.8464315,19.639349 26.9884084,19.5750833 26.9884084,19.5750833 C26.9884084,19.5750833 27.1374841,19.5279552 27.3958821,19.445124 C27.5265008,19.4022802 27.6826754,19.3508677 27.862986,19.2908865 L28.1483595,19.1923459 L28.4749063,19.1237959 C28.7020693,19.0709552 28.9491091,19.0152584 29.2089268,18.9552771 C29.4687445,18.8938677 29.7512785,18.885299 30.0394915,18.8410271 C30.1828882,18.8210334 30.3291244,18.8010396 30.4767803,18.7810459 C30.6258561,18.7610521 30.7777713,18.7724771 30.9296866,18.7653365 C31.2349369,18.7639084 31.5444465,18.7353459 31.8525363,18.7424865 C32.1606261,18.7696209 32.4687159,18.7910427 32.7725465,18.8096084 L32.9997095,18.8210334 L33.2211934,18.862449 C33.3674296,18.8895834 33.512246,18.9138615 33.6556427,18.9395677 C34.2334886,19.0038334 34.7460251,19.1923459 35.1960918,19.3037396 C35.4246746,19.3508677 35.6206027,19.4394115 35.7952342,19.5108177 C35.9727053,19.5793677 36.1260404,19.639349 36.2523998,19.6893333 C36.5079582,19.7835896 36.6541943,19.8378583 36.6541943,19.8378583 C36.6541943,19.8378583 36.7919119,19.9106927 37.0318528,20.0377958 C37.153953,20.1006333 37.3001891,20.1748958 37.4691416,20.2620114 C37.6395139,20.3462708 37.835442,20.4333864 38.0228515,20.5719145 C38.4047693,20.8346895 38.8874906,21.091752 39.3191004,21.4816301 L39.6641042,21.754402 L39.842995,21.8929301 L40.0034289,22.0528801 C40.217814,22.268527 40.4392979,22.4841739 40.6636214,22.6969645 C40.875167,22.9226082 41.0597369,23.1725301 41.2599243,23.3996019 L41.5495571,23.7480644 L41.7965969,24.1165207 C41.9541912,24.36073 42.1345019,24.577805 42.2622811,24.8120175 C42.3900603,25.04623 42.5121604,25.2675894 42.6243221,25.4718112 L42.7890153,25.7631487 L42.9054363,26.0416331 C42.9806841,26.2158643 43.0459934,26.3672456 43.0999446,26.4914924 C43.2106866,26.7414143 43.2745762,26.8827987 43.2745762,26.8827987 C43.2745762,26.8827987 43.3214286,27.0313237 43.4023554,27.2912424 C43.4435287,27.4212018 43.4960601,27.5782955 43.5542707,27.7582393 L43.6508149,28.0452924 L43.7189638,28.372333 C43.7700755,28.600833 43.8254465,28.8464705 43.883657,29.1078173 C43.9432873,29.3691642 43.9503862,29.651933 43.994399,29.9404142 C44.012856,30.0846548 44.0327327,30.2317517 44.0526095,30.3802767 C44.0696467,30.5288017 44.0597084,30.681611 44.0668072,30.8344204 C44.0668072,31.1400391 44.0937828,31.4499423 44.0838444,31.7598454 C44.0568688,32.0683204 44.0327327,32.3782235 44.0142757,32.6824141 L44.0000781,32.9109141 L43.9589048,33.1322734 C43.9319292,33.2807984 43.9063733,33.4250391 43.8808175,33.5692797 C43.8155081,34.1490984 43.6238393,34.6632234 43.5116776,35.115939 C43.4634055,35.344439 43.37396,35.5415202 43.3029716,35.7186077 C43.2348227,35.8956952 43.1737726,36.0513608 43.1240807,36.178464 C43.0275364,36.4340983 42.9721655,36.5811952 42.9721655,36.5811952 C42.9721655,36.5811952 42.8997572,36.7197233 42.7719781,36.9610764 C42.7095082,37.0838952 42.6342605,37.230992 42.5476546,37.4009389 C42.4624685,37.5708858 42.3758626,37.7693951 42.2367252,37.9579076 C41.9726482,38.3420732 41.7142503,38.8262076 41.3252337,39.2603576 L41.0512183,39.6088201 L40.9135007,39.7887638 L40.7516471,39.9501419 C40.5358422,40.1657888 40.3200374,40.3885763 40.1084918,40.6156482 C39.8827486,40.8284388 39.6328693,41.014095 39.4042865,41.2168888 L39.0550234,41.5082262 L38.688723,41.75672 C38.4445228,41.91667 38.2272982,42.09947 37.9930363,42.2280012 C37.7587745,42.3579606 37.5372905,42.4793512 37.3328438,42.5936012 L37.043211,42.7606918 L36.7649363,42.8792262 C36.5903047,42.9549168 36.4398093,43.0206106 36.3148696,43.0748793 C36.0664101,43.1877012 35.9244332,43.2519668 35.9244332,43.2519668 C35.9244332,43.2519668 35.7767772,43.2990949 35.5169595,43.3804981 C35.3877606,43.4247699 35.2301662,43.4761824 35.0512754,43.5361637 L34.7644821,43.6332762 L34.4379353,43.7032543 C34.2107723,43.7560949 33.9651523,43.8117918 33.7039148,43.871773 C33.4440971,43.9331824 33.1615631,43.9417512 32.8747698,43.986023 C32.7299534,44.0060168 32.5837172,44.0260105 32.4360613,44.0460043 C32.2869855,44.0645699 32.1350703,44.054573 31.983155,44.0617137 C31.6779047,44.0631418 31.3683951,44.0917043 31.0603053,44.0831355 C30.7522155,44.0574293 30.4441257,44.0345793 30.1402951,44.0174418 L29.9131321,44.0045887 L29.6916482,43.963173 C29.545412,43.9374668 29.4005956,43.9117605 29.2571989,43.8874824 C28.679353,43.8232168 28.1682363,43.6332762 27.7167498,43.5233105 C27.4895868,43.4761824 27.2936587,43.3862106 27.1176074,43.3162324 C26.9401363,43.2476824 26.7868012,43.1877012 26.6604418,43.1377168 C26.4048834,43.0434606 26.2586473,42.9877637 26.2586473,42.9877637 C26.2586473,42.9877637 26.1223495,42.9149293 25.8809888,42.7878262 C25.7603084,42.7264168 25.6126525,42.6521543 25.4437,42.5650387 C25.2747475,42.4807793 25.0773996,42.3936637 24.8899901,42.2551356 C24.5080723,41.9923606 24.0267707,41.7352981 23.5937412,41.34542 L23.2487374,41.0726481 L23.0712663,40.93412 L22.9108325,40.7727419 C22.6950276,40.5585232 22.4749634,40.3428763 22.2492202,40.1300857 C22.0390944,39.9044419 21.8545245,39.6545201 21.6529173,39.4260201 L21.3632845,39.0775576 L21.1176645,38.7105295 C20.9600701,38.4663201 20.7783397,38.2492451 20.6505605,38.0150326 C20.5227813,37.7808201 20.4006812,37.5594608 20.2885195,37.3552389 L20.1238263,37.0639014 Z M14.2161684,45.4855542 C14.2161684,45.4855542 14.3467871,45.642648 14.5427152,45.8768605 C14.7443224,46.1082167 14.9942017,46.4309729 15.2781554,46.7237386 C15.8616804,47.2949885 16.4437856,47.8662385 16.4437856,47.8662385 C16.7575545,48.1875666 17.2189794,48.2775385 17.5583041,48.1661447 C17.5583041,48.1661447 18.4527585,47.8690948 19.2861627,47.517776 C20.1181472,47.1850229 20.9259957,46.7451604 20.9259957,46.7451604 C21.236925,46.5823542 21.6216824,46.5980636 21.9255129,46.7951448 C21.9255129,46.7951448 22.4210122,47.1378948 22.9676232,47.3906729 C23.5014563,47.6634448 24.0367091,47.9376448 24.0367091,47.9376448 C24.0367091,47.9376448 24.5975178,48.1547197 25.1569067,48.3732229 C25.7091967,48.6131479 26.2941415,48.7559603 26.2941415,48.7559603 C26.6434046,48.8516447 26.9103211,49.1272728 26.9955073,49.4685947 C26.9955073,49.4685947 27.2027935,50.364029 27.5080438,51.2066228 C27.7990964,52.0634977 28.1710758,52.9289414 28.1710758,52.9289414 C28.3144725,53.2574102 28.6878717,53.541607 29.1365186,53.5616008 C29.1365186,53.5616008 29.9514659,53.6172977 30.7649934,53.6729945 C31.172467,53.690132 31.5813605,53.6629977 31.8866107,53.6587133 C32.1932808,53.6501445 32.3963077,53.644432 32.3963077,53.644432 C32.6206312,53.6358633 32.830757,53.5801664 33.0068083,53.4859102 C33.1800201,53.3873695 33.3177377,53.2388446 33.3986645,53.0774664 C33.3986645,53.0774664 33.8231754,52.2277321 34.1667594,51.3837102 C34.341391,50.9624134 34.4989853,50.5425447 34.6111471,50.2283572 C34.721889,49.9084572 34.7871984,49.6870978 34.7871984,49.6870978 C34.893681,49.3500603 35.1776348,49.0858572 35.5297375,49.0073103 C35.5297375,49.0073103 35.6759736,48.9730353 35.8974576,48.923051 C36.1203613,48.8830635 36.4057348,48.7873791 36.6911083,48.6916947 C37.2632752,48.5031822 37.835442,48.3132416 37.835442,48.3132416 C37.835442,48.3132416 38.387732,48.0718885 38.9386023,47.8291073 C39.2154572,47.7105729 39.4923122,47.5906104 39.6854007,47.4706479 C39.8827486,47.3606823 40.0147871,47.2878479 40.0147871,47.2878479 C40.3313955,47.1107604 40.7161528,47.117901 41.0171438,47.2978448 C41.0171438,47.2978448 41.2130719,47.4206635 41.5069641,47.5848979 C41.7965969,47.7448479 42.1927124,47.951926 42.600186,48.1504354 C43.4137136,48.5503104 44.2911307,48.9016291 44.2911307,48.9016291 C44.4586634,48.9673228 44.6588508,48.9873166 44.8547789,48.9444728 C45.0464477,48.8973447 45.240956,48.797376 45.412748,48.6531354 C45.412748,48.6531354 45.5703423,48.5217479 45.8046042,48.3246666 C46.0360265,48.1218729 46.358314,47.8690948 46.6522062,47.5820416 C47.2229532,46.9950823 47.79512,46.4081229 47.79512,46.4081229 C48.1174076,46.0939354 48.2082728,45.6297948 48.0989506,45.2899011 C48.0989506,45.2899011 47.8064782,44.3930386 47.4600546,43.5575855 C47.1306682,42.7249887 46.696219,41.91667 46.696219,41.91667 C46.5343654,41.6039106 46.5528223,41.219745 46.7501702,40.9141263 C46.7501702,40.9141263 47.0937543,40.4157107 47.3478929,39.8658826 C47.6219082,39.3289076 47.8973434,38.7905045 47.8973434,38.7905045 C47.8973434,38.7905045 48.1159878,38.2278232 48.3360519,37.665142 C48.5774126,37.1096014 48.7222291,36.5226421 48.7222291,36.5226421 C48.8201931,36.1727515 49.0956282,35.9028358 49.434953,35.8171483 C49.434953,35.8171483 50.3294073,35.6029296 51.1699105,35.2958827 C52.0246113,34.9988327 52.8892505,34.6218078 52.8892505,34.6218078 C53.2157973,34.4775671 53.5025906,34.1019703 53.5238871,33.6521109 C53.5238871,33.6521109 53.5820976,32.8337953 53.6403081,32.0169079 C53.6587651,31.6084641 53.6346291,31.1985923 53.6317895,30.8915454 C53.6232709,30.5844985 53.6190116,30.3802767 53.6190116,30.3802767 C53.6119128,30.1560611 53.5565418,29.9446986 53.4642568,29.7690392 C53.3662928,29.594808 53.2186368,29.4591361 53.0582029,29.377733 C53.0582029,29.377733 52.2134405,28.955008 51.3729374,28.6136861 C50.9526858,28.440883 50.5352738,28.2823611 50.2229247,28.1723955 C49.9048965,28.0624299 49.6834125,27.9981643 49.6834125,27.9981643 C49.3483471,27.892483 49.0871096,27.6097143 49.0090224,27.2555393 C49.0090224,27.2555393 48.9763677,27.1084424 48.9266758,26.8870831 C48.888342,26.6642956 48.7946373,26.3786706 48.6995128,26.0916175 C48.513523,25.5189394 48.3275333,24.9462613 48.3275333,24.9462613 C48.3275333,24.9462613 48.0890122,24.3921488 47.850491,23.8394644 C47.7326502,23.5624082 47.6133896,23.2853519 47.4955488,23.0925551 C47.3862266,22.8954738 47.3138184,22.7640863 47.3138184,22.7640863 C47.1391869,22.4470426 47.1462857,22.0600207 47.3280161,21.7572583 C47.3280161,21.7572583 47.451536,21.560177 47.6162292,21.2659833 C47.776663,20.9732177 47.9853691,20.5761989 48.1841367,20.1648989 C48.587351,19.3465833 48.9394537,18.4654303 48.9394537,18.4654303 C49.0061828,18.2983396 49.0274793,18.096974 48.9848863,17.9013209 C48.9380339,17.708524 48.8400699,17.5128709 48.698093,17.3414959 C48.698093,17.3414959 48.5660545,17.1844022 48.3701264,16.9501897 C48.169939,16.7188334 47.9186399,16.3960772 47.6346862,16.1033116 C47.0511612,15.5320616 46.469056,14.9608116 46.469056,14.9608116 C46.1567069,14.6380554 45.695282,14.5480835 45.3559573,14.6594773 C45.3559573,14.6594773 44.4600831,14.9579554 43.6266789,15.3092741 C42.7946944,15.6420272 41.9868459,16.0818897 41.9868459,16.0818897 C41.6759166,16.244696 41.2911592,16.2275585 40.9887485,16.0319053 C40.9887485,16.0319053 40.4932491,15.6891554 39.9466382,15.4349491 C39.4113853,15.1621773 38.8761325,14.8894054 38.8761325,14.8894054 C38.8761325,14.8894054 38.3167436,14.6709023 37.7573547,14.4523992 C37.2036449,14.2124742 36.6187001,14.0710898 36.6187001,14.0710898 C36.2708568,13.9739773 36.0025205,13.6983492 35.9187541,13.3584554 C35.9187541,13.3584554 35.7100481,12.461593 35.4062176,11.6204274 C35.1137452,10.7635524 34.7417658,9.89668058 34.7417658,9.89668058 C34.5997889,9.56963997 34.2249699,9.28401498 33.776323,9.26544935 C33.776323,9.26544935 32.9627955,9.20975248 32.1478482,9.15405561 C31.7403746,9.13691811 31.3329009,9.16405248 31.0262309,9.16690873 C30.7209806,9.17690561 30.5165339,9.18261811 30.5165339,9.18261811 C30.2936302,9.18975873 30.0820846,9.24688373 29.9074531,9.34113998 C29.7328215,9.43825247 29.5951039,9.58820559 29.5141771,9.74958371 C29.5141771,9.74958371 29.091086,10.5993181 28.7460822,11.4419118 C28.5714506,11.8646368 28.4138563,12.2845055 28.3016945,12.598693 C28.1909526,12.9171648 28.1256432,13.1399523 28.1256432,13.1399523 C28.0205803,13.4769898 27.7366266,13.7397648 27.3831041,13.8197398 C27.3831041,13.8197398 27.236868,13.8540148 27.0168038,13.9039992 C26.7939001,13.9439867 26.5071068,14.0382429 26.2217333,14.1353554 C25.6495664,14.3238679 25.0773996,14.5123804 25.0773996,14.5123804 C25.0773996,14.5123804 24.5265293,14.7551616 23.9742393,14.9965148 C23.6973844,15.1164773 23.4205294,15.2364398 23.2274409,15.3564022 C23.030093,15.4663679 22.8980545,15.5392022 22.8980545,15.5392022 C22.5828659,15.7162897 22.1966888,15.7091491 21.8956978,15.5277772 C21.8956978,15.5277772 21.6997697,15.4063866 21.4072973,15.2421523 C21.1162447,15.0822023 20.721549,14.873696 20.3126556,14.6751866 C19.499128,14.2753117 18.6217109,13.9254211 18.6217109,13.9254211 C18.4541782,13.8582992 18.2539908,13.8397336 18.0594825,13.8825773 C17.8663939,13.9297054 17.6718856,14.028246 17.5000936,14.1724867 C17.5000936,14.1724867 17.343919,14.3053023 17.1082374,14.5023835 C16.8782349,14.7051773 16.5545276,14.9579554 16.2620552,15.2435804 C15.6898884,15.8305397 15.1177216,16.4189272 15.1177216,16.4189272 C14.795434,16.7331147 14.7045688,17.1972553 14.813891,17.5357209 C14.813891,17.5357209 15.1063634,18.4340115 15.452787,19.2694646 C15.7821734,20.1006333 16.2166226,20.9103802 16.2166226,20.9103802 C16.3784762,21.2217114 16.3600193,21.6073051 16.1640912,21.9129239 C16.1640912,21.9129239 15.8205071,22.4113395 15.5649487,22.9597395 C15.2909334,23.4981426 15.016918,24.0365457 15.016918,24.0365457 C15.016918,24.0365457 14.7968538,24.5977988 14.5767897,25.16048 C14.335429,25.7160206 14.1920323,26.3044081 14.1920323,26.3044081 C14.0940683,26.6542987 13.8186331,26.9227862 13.4778886,27.0099018 C13.4778886,27.0099018 12.5834343,27.2226924 11.7429311,27.5311674 C10.8882303,27.8282174 10.0235911,28.2052424 10.0235911,28.2052424 C9.69704432,28.3480549 9.41025103,28.7250799 9.39037426,29.1749392 C9.39037426,29.1749392 9.33074397,29.9918267 9.27253345,30.8101423 C9.25407646,31.218586 9.2796323,31.6284579 9.28105207,31.9340766 C9.28957068,32.2411235 9.29382999,32.4467735 9.29382999,32.4467735 C9.30092883,32.6709891 9.35629981,32.8823516 9.44858478,33.0565828 C9.54654883,33.2308141 9.69420478,33.3679141 9.85605843,33.4493172 C9.85605843,33.4493172 10.7008209,33.870614 11.5399042,34.213364 C11.9601558,34.3861671 12.3775678,34.5432609 12.6899169,34.6546546 C13.0079451,34.7646203 13.2294291,34.8288859 13.2294291,34.8288859 C13.5644945,34.933139 13.825732,35.2173359 13.9038192,35.5715109 C13.9038192,35.5715109 13.9364739,35.7186077 13.9861658,35.938539 C14.0244996,36.1627546 14.1182043,36.4483796 14.2133288,36.7354327 C14.3993186,37.3081108 14.5853083,37.8807889 14.5853083,37.8807889 C14.5853083,37.8807889 14.8238294,38.4334732 15.0637703,38.9861576 C15.1816112,39.2632138 15.299452,39.5402701 15.4187125,39.7330669 C15.526615,39.9315763 15.5990232,40.0629638 15.5990232,40.0629638 C15.7750745,40.3800075 15.7665559,40.7670294 15.5848255,41.0697919 C15.5848255,41.0697919 15.4613056,41.2668731 15.2966124,41.5610669 C15.1361786,41.8524044 14.9274725,42.2508512 14.7287049,42.6621512 C14.3269103,43.4790387 13.9733879,44.3601918 13.9733879,44.3601918 C13.9066588,44.5287105 13.886782,44.7300761 13.9279553,44.9257292 C13.9748077,45.1185261 14.0727717,45.3141792 14.2161684,45.4855542 Z" id="Fill-75" stroke="#42566C" transform="translate(31.456533, 31.413516) rotate(-315.000000) translate(-31.456533, -31.413516) "></path>
                    <path d="M75.8809159,74.5018904 C75.8255449,74.3547936 75.7715937,74.2162654 75.7219018,74.0863061 C75.6182587,73.8263873 75.5288132,73.6007436 75.4549853,73.4136592 C75.3016502,73.0437749 75.2150443,72.8309842 75.2150443,72.8309842 C75.2150443,72.8309842 75.1525745,72.611053 75.0460918,72.2240311 C74.9893011,72.0312343 74.9197324,71.7984499 74.8416451,71.5299624 C74.8004718,71.3957187 74.7578788,71.2543343 74.7110264,71.1029531 C74.6840508,70.9487156 74.6556554,70.7873374 74.6258403,70.6173906 C74.5605309,70.2803531 74.4895425,69.9147531 74.4142947,69.5277312 C74.3376272,69.1421375 74.339047,68.7236969 74.2879353,68.2981157 C74.265219,68.0838969 74.2439225,67.8668219 74.2212062,67.6468907 C74.2013294,67.4269594 74.2240457,67.2027438 74.2212062,66.9785282 C74.2325643,66.5286689 74.2070085,66.0702407 74.2339841,65.6146689 C74.2879353,65.1605252 74.3362074,64.7063814 74.375961,64.2579502 L74.4057761,63.923769 L74.4781843,63.5981565 C74.5221972,63.3825096 74.5676298,63.169719 74.6116426,62.9597846 C74.7337427,62.1086221 75.0361535,61.3588565 75.2207234,60.6976347 C75.3016502,60.3620253 75.4422073,60.0764003 75.5543691,59.8193379 C75.6636913,59.5608472 75.7602355,59.3366316 75.8383228,59.1509754 C75.9916579,58.7782348 76.0782638,58.564016 76.0782638,58.564016 C76.0782638,58.564016 76.1918453,58.3640785 76.3891931,58.0127598 C76.4871572,57.8371004 76.6035782,57.6214536 76.7384562,57.3758161 C76.8719145,57.1287505 77.0082123,56.8402692 77.2225974,56.5703536 C77.6272315,56.0162411 78.0276063,55.3136037 78.6196499,54.6909412 C78.7573675,54.5252787 78.8979246,54.3581881 79.0384817,54.1896693 L79.2500272,53.9326068 L79.4942275,53.7012506 C79.8207743,53.3913475 80.1473211,53.0728756 80.4710284,52.7501194 C80.8117729,52.4459288 81.1880116,52.1831538 81.5330154,51.8946725 C81.7119063,51.7575725 81.87376,51.6004788 82.0583299,51.4805163 C82.2457394,51.3619819 82.4288896,51.2448757 82.61062,51.1291976 C82.9769203,50.9064101 83.3048869,50.6464913 83.6555698,50.4679757 C84.0048329,50.2866038 84.335639,50.1152289 84.6423091,49.9581351 C84.7928046,49.876732 84.937621,49.7981851 85.0767583,49.7239226 C85.2229945,49.6682257 85.3607121,49.613957 85.4913308,49.5625445 C85.7497288,49.4582914 85.9768918,49.3683195 86.1628815,49.2926289 C86.5320214,49.1383914 86.7435669,49.0498476 86.7435669,49.0498476 C86.7435669,49.0498476 86.9650508,48.9870101 87.3512279,48.8770445 C87.5428967,48.8199195 87.7757388,48.7499414 88.0426553,48.6699664 C88.1761136,48.6285508 88.3180905,48.5842789 88.468586,48.5385789 C88.621921,48.5100164 88.7837747,48.4814539 88.9527271,48.4500352 C89.2906321,48.3829133 89.6540929,48.311507 90.04027,48.2343883 C90.4264471,48.1558414 90.8424394,48.1558414 91.2669503,48.1015727 C91.4799156,48.0787227 91.6971402,48.0558727 91.9157846,48.0330227 C92.1358488,48.0116008 92.3587525,48.0330227 92.5830759,48.0301664 C93.0317229,48.0415914 93.4888884,48.0116008 93.9432144,48.0373071 C94.3947009,48.0901477 94.8476072,48.1358477 95.2948343,48.1744071 L95.62848,48.2043977 L95.9521873,48.2743758 C96.1665724,48.3186477 96.3795377,48.3629195 96.5882437,48.4057633 C97.4358457,48.5257258 98.182644,48.8270602 98.8414168,49.008432 C99.1750624,49.088407 99.4590162,49.2283633 99.7159943,49.339757 C99.9729725,49.4482945 100.195876,49.5439789 100.380446,49.6225257 C100.752426,49.773907 100.963971,49.8610226 100.963971,49.8610226 C100.963971,49.8610226 101.164159,49.9738445 101.513422,50.1709257 C101.689473,50.2680382 101.902438,50.3837163 102.148058,50.5193882 C102.393678,50.6507757 102.679052,50.7878757 102.948808,51.0006663 C103.499678,51.4033976 104.198204,51.8032725 104.817224,52.3959444 C104.980497,52.5330444 105.14661,52.6730006 105.314143,52.8129569 L105.571121,53.0243194 L105.799704,53.2685287 C106.106374,53.5941412 106.422982,53.9211818 106.74527,54.2439381 C107.046261,54.5852599 107.307498,54.9608568 107.592872,55.306463 C107.729169,55.4849786 107.883924,55.6463568 108.004605,55.832013 C108.121026,56.0190974 108.237447,56.2033255 108.351028,56.3832692 C108.572512,56.7502973 108.83091,57.0787661 109.008381,57.4286567 C109.187272,57.7799754 109.356224,58.1113004 109.510979,58.4169192 C109.591906,58.5683004 109.668574,58.7139691 109.742402,58.8510691 C109.799192,58.998166 109.851724,59.1366941 109.902835,59.2666535 C110.005059,59.5265722 110.094504,59.7536441 110.169752,59.9393004 C110.321667,60.3106128 110.409693,60.5219753 110.409693,60.5219753 C110.409693,60.5219753 110.470743,60.7433347 110.578645,61.1303566 C110.635436,61.3217253 110.703585,61.5559378 110.781672,61.8229972 C110.822846,61.9572409 110.866858,62.1000534 110.912291,62.2500065 C110.939267,62.404244 110.969082,62.5656221 110.998897,62.735569 C111.064206,63.0726065 111.135195,63.4382065 111.209023,63.8252283 C111.28569,64.2122502 111.28427,64.6306908 111.336802,65.056272 C111.358098,65.2690626 111.380815,65.4861376 111.403531,65.7060689 C111.423408,65.9260001 111.400691,66.1502157 111.403531,66.3744314 C111.390753,66.8242907 111.417729,67.2827188 111.389333,67.7382907 C111.335382,68.1924344 111.28853,68.6465781 111.247356,69.0950094 L111.217541,69.4291906 L111.146553,69.7548031 C111.10112,69.97045 111.057107,70.1832406 111.013095,70.393175 C110.890994,71.2443374 110.587164,71.994103 110.402594,72.6553249 C110.323087,72.9909342 110.18111,73.2765592 110.070368,73.5336217 C109.959626,73.7921123 109.864502,74.0177561 109.786414,74.2034123 C109.633079,74.5747248 109.545054,74.7889435 109.545054,74.7889435 C109.545054,74.7889435 109.432892,74.988881 109.234124,75.3401998 C109.13758,75.5172873 109.019739,75.731506 108.884861,75.9771435 C108.751403,76.2242091 108.615105,76.5126903 108.40214,76.7840341 C107.997506,77.3381466 107.597131,78.040784 107.003668,78.6634465 C106.86595,78.8276809 106.726813,78.9947715 106.584836,79.1632902 L106.37471,79.4217809 L106.12909,79.651709 C105.802543,79.9616121 105.475996,80.280084 105.152289,80.6042683 C104.811545,80.9070308 104.435306,81.1698058 104.090302,81.4597152 C103.911411,81.5968152 103.749557,81.7524808 103.564988,81.8738714 C103.378998,81.9909776 103.194428,82.1080839 103.012697,82.223762 C102.646397,82.4465495 102.31985,82.7064682 101.969167,82.886412 C101.618485,83.0663557 101.287678,83.2377307 100.982428,83.3948245 C100.830513,83.4762276 100.685696,83.5547745 100.547979,83.6290369 C100.401743,83.6847338 100.262605,83.7390026 100.133406,83.7904151 C99.8735887,83.8946682 99.6478454,83.9860682 99.4618557,84.0603307 C99.0912961,84.2145682 98.8797505,84.3031119 98.8797505,84.3031119 C98.8797505,84.3031119 98.6596864,84.3659494 98.2735092,84.475915 C98.0818405,84.53304 97.8475786,84.6030182 97.5806621,84.6829932 C97.4472038,84.7244088 97.3052269,84.7686807 97.1561512,84.8143807 C97.0013964,84.8429432 96.8395428,84.8729338 96.6705903,84.9029244 C96.3341051,84.9700463 95.9692245,85.0428806 95.5844672,85.1185713 C95.19829,85.1971181 94.780878,85.1985463 94.3563672,85.2513869 C94.1434018,85.2742369 93.927597,85.2970869 93.7075328,85.321365 C93.4888884,85.3413588 93.264565,85.3199369 93.0402415,85.3242213 C92.5930143,85.3127963 92.1358488,85.3413588 91.6815228,85.3156525 C91.2286165,85.2628119 90.7757103,85.2171119 90.3299029,85.1785525 L89.9962572,85.1485619 L89.6725499,85.0785838 C89.4567451,85.0343119 89.2451995,84.99004 89.0364935,84.9471963 C88.1874718,84.8286619 87.4420931,84.5273275 86.7833204,84.3445275 C86.4496748,84.2645526 86.1643012,84.1245963 85.9087429,84.0132026 C85.6517647,83.9046651 85.4274412,83.8089807 85.2428713,83.7318619 C84.8708919,83.5790526 84.6593463,83.4933651 84.6593463,83.4933651 C84.6593463,83.4933651 84.4591589,83.3791151 84.1113156,83.1820338 C83.9352642,83.0863495 83.7222989,82.9692432 83.4766789,82.8349995 C83.2310589,82.7021839 82.9442656,82.566512 82.6759293,82.3537214 C82.1236393,81.949562 81.425113,81.549687 80.8060938,80.9584433 C80.6428204,80.8213433 80.4767075,80.6813871 80.3091747,80.5400027 L80.0536164,80.3300683 L79.8236138,80.085859 C79.5169438,79.7588183 79.2003353,79.4317777 78.8794676,79.1090215 C78.5770568,78.7691278 78.3172391,78.3921028 78.0304458,78.0464965 C77.894148,77.8679809 77.7393932,77.7066028 77.6201327,77.5223747 C77.5022918,77.3352903 77.3858708,77.1510622 77.2722893,76.9696903 C77.0522251,76.6026622 76.7938272,76.2756216 76.6163561,75.9243029 C76.4374653,75.5729841 76.2685128,75.2430873 76.1123382,74.9374685 C76.0314114,74.7846592 75.9547439,74.6404185 75.8809159,74.5018904 Z M66.8185317,86.6438087 C66.8185317,86.6438087 67.0045214,86.8794493 67.2827961,87.2336243 C67.5695894,87.5820868 67.9245316,88.0690774 68.3291657,88.5132243 C69.16257,89.3800961 69.997394,90.2469679 69.997394,90.2469679 C70.4432014,90.7339586 71.1190114,90.8867679 71.6230293,90.7368148 C71.6230293,90.7368148 72.9533526,90.3383679 74.1970701,89.858518 C75.4351085,89.4043742 76.6447515,88.7917086 76.6447515,88.7917086 C77.1104357,88.5660649 77.6740839,88.6060524 78.1127924,88.9088149 C78.1127924,88.9088149 78.8283559,89.4343649 79.6220067,89.8313836 C80.3972004,90.2569648 81.1738139,90.6825461 81.1738139,90.6825461 C81.1738139,90.6825461 81.9887612,91.0281523 82.8022887,91.3737585 C83.6058779,91.7522116 84.4619985,91.9864241 84.4619985,91.9864241 C84.9702757,92.1435179 85.3536133,92.5619585 85.4629355,93.0675147 C85.4629355,93.0675147 85.7312718,94.3956709 86.1415849,95.6481365 C86.5348609,96.9220239 87.0459777,98.214477 87.0459777,98.214477 C87.240486,98.7028957 87.7799981,99.1384739 88.4387708,99.1870301 C88.4387708,99.1870301 89.6356359,99.3041364 90.832501,99.4212426 C91.4316434,99.4640863 92.0336254,99.4426645 92.4851119,99.4512332 C92.9351786,99.4512332 93.2361696,99.4512332 93.2361696,99.4512332 C93.5655559,99.4498051 93.8793248,99.3755426 94.1405623,99.2455832 C94.4017998,99.1084832 94.609086,98.8942645 94.7354454,98.660052 C94.7354454,98.660052 95.3970577,97.4275802 95.9394094,96.2008208 C96.2148445,95.5867271 96.4661436,94.9754896 96.6436147,94.5184897 C96.8210858,94.0529209 96.9275684,93.7287366 96.9275684,93.7287366 C97.0979407,93.2374616 97.5267109,92.8618647 98.0491858,92.7590397 C98.0491858,92.7590397 98.2678302,92.716196 98.594377,92.6533585 C98.9237634,92.6033741 99.3482742,92.476271 99.7727851,92.3463116 C100.623227,92.0935335 101.473668,91.8407554 101.473668,91.8407554 C101.473668,91.8407554 102.297134,91.5080023 103.1206,91.1752492 C103.533753,91.0124429 103.945486,90.8467804 104.235118,90.6796898 C104.53043,90.5268804 104.727778,90.4240554 104.727778,90.4240554 C105.200561,90.1784179 105.768469,90.2041242 106.204338,90.4840367 C106.204338,90.4840367 106.486872,90.6725492 106.911383,90.9267554 C107.331634,91.1752492 107.905221,91.4980054 108.498684,91.8093366 C109.678512,92.4334272 110.954884,92.9875397 110.954884,92.9875397 C111.197665,93.093221 111.492976,93.1303522 111.782609,93.0760835 C112.067983,93.0146741 112.359035,92.876146 112.617433,92.6719241 C112.617433,92.6719241 112.854535,92.4848397 113.208057,92.2034991 C113.55732,91.9150179 114.042881,91.5565585 114.487269,91.1495429 C115.354748,90.3098054 116.222226,89.470068 116.222226,89.470068 C116.710627,89.0202086 116.865382,88.3418493 116.717726,87.836293 C116.717726,87.836293 116.32445,86.5038525 115.851667,85.2585275 C115.40302,84.0174869 114.798198,82.8078651 114.798198,82.8078651 C114.573875,82.3408682 114.616468,81.7753308 114.920298,81.3340402 C114.920298,81.3340402 115.447033,80.6156933 115.845988,79.8173715 C116.273338,79.0376152 116.700688,78.257859 116.700688,78.257859 C116.700688,78.257859 117.048532,77.4381153 117.396375,76.6197997 C117.775453,75.8129091 118.012555,74.9531779 118.012555,74.9531779 C118.171569,74.4433373 118.588981,74.0577436 119.094419,73.9463498 C119.094419,73.9463498 120.419063,73.6721498 121.669879,73.2551373 C122.941992,72.8552624 124.232562,72.3382811 124.232562,72.3382811 C124.719543,72.1411999 125.156831,71.5985124 125.207943,70.9372906 C125.207943,70.9372906 125.328623,69.7362375 125.450723,68.5351844 C125.496156,67.9339438 125.476279,67.3298469 125.486218,66.8785595 C125.487637,66.4258439 125.489057,66.1245095 125.489057,66.1245095 C125.489057,65.7946126 125.416649,65.4804251 125.28745,65.2176502 C125.152572,64.9563033 124.939607,64.7492252 124.706765,64.622122 C124.706765,64.622122 123.480084,63.9651846 122.259083,63.4253533 C121.648583,63.1511534 121.039502,62.9012315 120.583756,62.724144 C120.120911,62.5484846 119.798624,62.4442315 119.798624,62.4442315 C119.308804,62.2757128 118.936824,61.8458472 118.836021,61.3217253 C118.836021,61.3217253 118.794847,61.1032222 118.732378,60.7761816 C118.684105,60.4462847 118.559166,60.0207035 118.431387,59.5951222 C118.182927,58.7425316 117.933048,57.8899411 117.933048,57.8899411 C117.933048,57.8899411 117.605081,57.065913 117.277115,56.2418849 C117.115261,55.8291568 116.953407,55.4164287 116.787294,55.1265193 C116.635379,54.8308974 116.534575,54.6338162 116.534575,54.6338162 C116.290375,54.1596787 116.318771,53.5898568 116.599885,53.1514225 C116.599885,53.1514225 116.788714,52.8672256 117.042853,52.4402163 C117.292732,52.0174913 117.616439,51.4405288 117.928788,50.8450007 C118.556326,49.659657 119.114295,48.3757727 119.114295,48.3757727 C119.219358,48.1315633 119.257692,47.8359414 119.203741,47.5460321 C119.14411,47.2604071 119.009232,46.9690696 118.806205,46.7091509 C118.806205,46.7091509 118.618796,46.4735102 118.340521,46.1193353 C118.055148,45.7708728 117.698786,45.2853103 117.294152,44.8411634 C116.460747,43.9742916 115.627343,43.1074197 115.627343,43.1074197 C115.180116,42.619001 114.504306,42.4661916 114.000288,42.6161448 C114.000288,42.6161448 112.669965,43.0145916 111.426247,43.4958697 C110.188209,43.9485853 108.979986,44.5612509 108.979986,44.5612509 C108.514302,44.7883228 107.949234,44.7469072 107.510525,44.4455728 C107.510525,44.4455728 106.796381,43.9185947 106.002731,43.521576 C105.226117,43.0959947 104.450923,42.6704135 104.450923,42.6704135 C104.450923,42.6704135 103.635976,42.3248073 102.821029,41.979201 C102.01744,41.6021761 101.161319,41.3665354 101.161319,41.3665354 C100.653042,41.2094417 100.271124,40.7924292 100.161802,40.286873 C100.161802,40.286873 99.8920457,38.9572887 99.4817325,37.7048231 C99.0884565,36.4309356 98.5773398,35.1399107 98.5773398,35.1399107 C98.3828314,34.6514919 97.8447391,34.2144857 97.1845466,34.1659295 C97.1845466,34.1659295 95.9876815,34.0488232 94.7908164,33.931717 C94.191674,33.8888732 93.589692,33.9102951 93.1396253,33.9017263 C92.6881388,33.9031545 92.3871478,33.9031545 92.3871478,33.9031545 C92.0577615,33.9031545 91.7454124,33.977417 91.4841749,34.1073763 C91.2229374,34.2459045 91.0142314,34.4586951 90.887872,34.6929076 C90.887872,34.6929076 90.2276795,35.9253794 89.6839081,37.1535668 C89.4084729,37.7662324 89.1571738,38.3788981 88.9797027,38.835898 C88.8022317,39.3000386 88.695749,39.6256511 88.695749,39.6256511 C88.5267965,40.1169261 88.0966066,40.4910948 87.5741316,40.5939198 C87.5741316,40.5939198 87.356907,40.6367636 87.0303602,40.7010292 C86.6995541,40.7495855 86.2750432,40.8781167 85.8505323,41.006648 C85.0000908,41.2594261 84.1496493,41.5122042 84.1496493,41.5122042 C84.1496493,41.5122042 83.3261834,41.8449573 82.5027175,42.1777104 C82.0909846,42.3405166 81.6792516,42.5061791 81.3896188,42.6732698 C81.0943069,42.8275073 80.896959,42.9289041 80.896959,42.9289041 C80.4227563,43.1745416 79.8562685,43.1488354 79.4203995,42.8689229 C79.4203995,42.8689229 79.1378655,42.6804104 78.7133546,42.4262041 C78.2916833,42.1777104 77.7180967,41.8549542 77.1260531,41.5450511 C75.9448055,40.9209605 74.6698531,40.3654198 74.6698531,40.3654198 C74.4256529,40.2611667 74.1317607,40.2226074 73.8421279,40.2783042 C73.5567544,40.3382855 73.2657018,40.4768136 73.0058841,40.6810355 C73.0058841,40.6810355 72.7702025,40.869548 72.4152603,41.1494604 C72.0674169,41.4379417 71.5804362,41.796401 71.1374684,42.2048448 C70.2685699,43.0445822 69.4010911,43.8828916 69.4010911,43.8828916 C68.9141104,44.3327509 68.7593556,45.0125384 68.9055918,45.5166665 C68.9055918,45.5166665 69.2988678,46.8505352 69.7730706,48.0958602 C70.2202977,49.3354726 70.826539,50.5465226 70.826539,50.5465226 C71.0508625,51.0120913 71.0068496,51.5776288 70.7044389,52.0189194 C70.7044389,52.0189194 70.1762849,52.7386944 69.7773299,53.5355881 C69.3499795,54.3153443 68.9226291,55.0965287 68.9226291,55.0965287 C68.9226291,55.0965287 68.5747857,55.9148443 68.2283621,56.7331599 C67.8492838,57.5400504 67.6107627,58.3997817 67.6107627,58.3997817 C67.4517486,58.9096223 67.0343366,59.295216 66.5303186,59.4080379 C66.5303186,59.4080379 65.2042546,59.6822379 63.9534383,60.0992503 C62.6813254,60.4976972 61.3921754,61.0146784 61.3921754,61.0146784 C60.9051947,61.2131878 60.4664861,61.7544472 60.4167942,62.4170971 C60.4167942,62.4170971 60.2946941,63.6181502 60.172594,64.8177752 C60.1285812,65.4204439 60.1484579,66.0231126 60.1370998,66.4758282 C60.13568,66.9271157 60.13568,67.2298782 60.13568,67.2298782 C60.1342602,67.5597751 60.2080882,67.8739626 60.3358674,68.1353094 C60.4721652,68.3966563 60.6837108,68.6037344 60.9179726,68.7308375 C60.9179726,68.7308375 62.1432331,69.3892031 63.365654,69.9290343 C63.9761546,70.2018062 64.5852354,70.4517281 65.0395614,70.6288156 C65.502406,70.8044749 65.8261133,70.9101562 65.8261133,70.9101562 C66.3159336,71.0786749 66.6864932,71.5071124 66.7872968,72.0312343 C66.7872968,72.0312343 66.8298899,72.2497374 66.8923597,72.576778 C66.9392121,72.908103 67.0655715,73.3336842 67.1919309,73.7592655 C67.4418102,74.6104279 67.6902697,75.4630185 67.6902697,75.4630185 C67.6902697,75.4630185 68.0182363,76.2870466 68.3462029,77.1110747 C68.5080566,77.5252309 68.67133,77.937959 68.8374429,78.2264403 C68.9893582,78.5234903 69.0901618,78.7205715 69.0901618,78.7205715 C69.334362,79.194709 69.3045469,79.7631027 69.0248524,80.2015371 C69.0248524,80.2015371 68.8346034,80.4857339 68.5804648,80.9127433 C68.3320052,81.3354683 68.0068782,81.9124308 67.6959488,82.5079589 C67.068411,83.6947307 66.5104419,84.9771869 66.5104419,84.9771869 C66.4039592,85.2213963 66.3656255,85.5170181 66.4195767,85.8069275 C66.479207,86.0925525 66.6155048,86.3853181 66.8185317,86.6438087 Z" id="Fill-76" stroke="#42566C" transform="translate(92.812359, 66.676480) rotate(-315.000000) translate(-92.812359, -66.676480) "></path>
                    <path d="M81.5906453,71.8329465 L81.4826739,71.5524932 C81.4129708,71.3778973 81.3528348,71.2239229 81.3022659,71.0988187 C81.1997613,70.8486103 81.1409921,70.7042594 81.1409921,70.7042594 C81.1409921,70.7042594 81.0986235,70.5557841 81.026187,70.2945775 C80.9879186,70.1639743 80.9414499,70.0072504 80.8881475,69.8257806 L80.800677,69.5370786 L80.7432744,69.2085083 C80.6981724,68.981671 80.650337,68.7342122 80.5997681,68.4730057 C80.5478324,68.2117992 80.5491992,67.9299711 80.5136643,67.6412691 C80.499997,67.4969181 80.484963,67.3511924 80.469929,67.2027171 C80.4562617,67.0542418 80.4712957,66.9016422 80.4685623,66.7504174 C80.4781294,66.4465929 80.4589952,66.1372694 80.4781294,65.8293206 C80.515031,65.5213719 80.5464657,65.2147979 80.5738003,64.9123482 L80.5943012,64.6868858 L80.6421366,64.4669224 C80.6735714,64.3211966 80.7036394,64.1768456 80.7323406,64.0352442 C80.815711,63.4592151 81.0207201,62.9532993 81.1450923,62.5064986 C81.1997613,62.2796614 81.2940655,62.0871934 81.3706022,61.9125975 C81.4444055,61.7393763 81.5086417,61.5867767 81.5619441,61.4616725 C81.6658153,61.2087146 81.7245846,61.0657384 81.7245846,61.0657384 C81.7245846,61.0657384 81.8011213,60.929636 81.9350606,60.6931754 C82.0006635,60.5735703 82.0799337,60.4278446 82.1701377,60.2614972 C82.2603417,60.0951499 82.3532791,59.9013072 82.4967855,59.7184626 C82.7701309,59.3431501 83.0407429,58.868854 83.441194,58.448174 L83.7254733,58.1099803 L83.8676129,57.9353843 L84.0316202,57.7800352 C84.25303,57.5696952 84.4730731,57.3552309 84.6917494,57.1366423 C84.9227263,56.9304266 85.1769376,56.7530811 85.4092812,56.5578636 C85.53092,56.4657539 85.6402581,56.3598965 85.7646303,56.278785 C85.8903692,56.1990483 86.0147414,56.1193116 86.1377468,56.0423244 C86.3851245,55.8910996 86.6065343,55.7151288 86.8429781,55.594149 C87.0794219,55.4717943 87.3035652,55.3576883 87.509941,55.2504562 L87.8037874,55.0923575 L88.0839664,54.9837506 C88.2589075,54.9122624 88.411981,54.8517725 88.5377199,54.800906 C88.787831,54.6964234 88.9313373,54.6359334 88.9313373,54.6359334 C88.9313373,54.6359334 89.0803106,54.5946903 89.3399888,54.5204527 C89.4698279,54.4819591 89.6270015,54.4338421 89.8087762,54.380226 L90.0957889,54.2908659 L90.4238035,54.2317507 C90.6506802,54.1863832 90.8966911,54.1368915 91.157736,54.0860249 C91.4187809,54.0324089 91.7003267,54.0324089 91.9873394,53.9966648 C92.1308458,53.9815423 92.2770856,53.9650451 92.4246921,53.9499226 C92.5736654,53.9348001 92.7240054,53.9499226 92.8757121,53.9471731 C93.1791256,53.9554217 93.4880059,53.9361749 93.7941528,53.9526721 C94.1002997,53.9884162 94.4064466,54.0186612 94.7071266,54.0461566 L94.9326366,54.0654034 L95.151313,54.1121456 C95.2975528,54.1423906 95.4410592,54.1726355 95.5818321,54.2015057 C96.1544908,54.2826172 96.6588131,54.4860834 97.1043662,54.608438 C97.3298762,54.6634289 97.521218,54.7569133 97.6947924,54.8325257 C97.8683667,54.9067634 98.0200734,54.9700028 98.1444456,55.0236189 C98.3959234,55.125352 98.5394298,55.1844671 98.5394298,55.1844671 C98.5394298,55.1844671 98.6733691,55.2614543 98.9098129,55.3948071 C99.0287182,55.4594214 99.1722245,55.5377833 99.3375985,55.629893 C99.5043392,55.7178784 99.6970478,55.809988 99.8788225,55.954339 C100.251939,56.2279185 100.72346,56.4973737 101.141678,56.8974321 L101.477893,57.1792602 L101.651468,57.3222364 L101.805908,57.4872089 C102.01365,57.7071723 102.22686,57.9285105 102.44417,58.1457243 C102.647812,58.3766859 102.82412,58.6310186 103.018195,58.8633549 C103.109766,58.9843348 103.215004,59.0943165 103.295641,59.2194207 C103.374911,59.3458996 103.452814,59.469629 103.529351,59.5919837 C103.679691,59.8394425 103.853265,60.0607806 103.973537,60.2986161 C104.093809,60.5350767 104.208614,60.7591644 104.313852,60.9653801 L104.469659,61.2595811 L104.577631,61.5400345 C104.647334,61.7160052 104.70747,61.8686048 104.758039,61.9950837 C104.860543,62.2452921 104.919313,62.3882683 104.919313,62.3882683 C104.919313,62.3882683 104.961681,62.5367436 105.034118,62.7993249 C105.072386,62.9285534 105.118855,63.0866521 105.172157,63.2667471 L105.259628,63.5554491 L105.318397,63.8840194 C105.362132,64.1108566 105.409968,64.3583154 105.460537,64.619522 C105.512472,64.8807285 105.511105,65.1639314 105.54664,65.4512586 C105.561674,65.5956095 105.576708,65.7413353 105.591742,65.8911854 C105.60541,66.0396606 105.590376,66.1908855 105.591742,66.3421103 C105.583542,66.6459347 105.601309,66.956633 105.583542,67.2645818 C105.54664,67.5711558 105.513839,67.8777298 105.486504,68.1801794 L105.466003,68.4070167 L105.418168,68.6256053 C105.3881,68.7727058 105.358032,68.915682 105.327964,69.0572835 C105.24596,69.6333126 105.040951,70.1392284 104.916579,70.586029 C104.86191,70.8128663 104.766239,71.0053343 104.691069,71.1799302 C104.617266,71.3545261 104.55303,71.505751 104.498361,71.6308552 C104.395856,71.8838131 104.337087,72.0267893 104.337087,72.0267893 C104.337087,72.0267893 104.26055,72.1628916 104.126611,72.400727 C104.061008,72.5189574 103.981738,72.6646831 103.890167,72.8310304 C103.799963,72.9973777 103.708392,73.1925953 103.563519,73.3754398 C103.290174,73.7493776 103.019562,74.2250484 102.619111,74.6457284 L102.336198,74.9839222 L102.194058,75.1571433 L102.028684,75.3138672 C101.807275,75.5228325 101.587232,75.7372968 101.368555,75.9558854 C101.138945,76.1621011 100.884734,76.3394466 100.651023,76.5346641 C100.530751,76.6267737 100.421413,76.7326311 100.295674,76.8137426 C100.169935,76.8934794 100.045563,76.9732161 99.9225578,77.0515781 C99.6751801,77.2014281 99.4537703,77.3773988 99.2173265,77.4983787 C98.9808827,77.6207333 98.7567394,77.7362141 98.5503636,77.8420715 L98.2565173,78.0001702 L97.9763382,78.1101519 C97.8013971,78.1802652 97.6496904,78.2421299 97.5239515,78.2916217 C97.2738404,78.3961043 97.130334,78.4565942 97.130334,78.4565942 C97.130334,78.4565942 96.9813607,78.4978374 96.7203158,78.5734498 C96.5904768,78.6119434 96.4333031,78.6586856 96.2528951,78.7123017 L95.9658824,78.8016618 L95.6378679,78.860777 C95.4096244,78.9061444 95.1636135,78.9556362 94.9025686,79.0078775 C94.6428904,79.0601188 94.3613446,79.0601188 94.0743319,79.0972376 C93.9294588,79.1123601 93.783219,79.1274826 93.6356125,79.1439798 C93.4880059,79.1577276 93.3362992,79.1426051 93.1845925,79.1453546 C92.8825458,79.1384808 92.5736654,79.1577276 92.2661518,79.1398555 C91.9613716,79.1041115 91.6552247,79.0738665 91.353178,79.0477459 L91.127668,79.0271243 L90.9089916,78.9803821 C90.7641185,78.9501371 90.6206122,78.9198921 90.4784726,78.8910219 C89.9058138,78.8112852 89.4014915,78.6064443 88.9573051,78.4840897 C88.7317951,78.4304736 88.5390866,78.3356144 88.366879,78.260002 C88.1919379,78.1871391 88.0415979,78.1225248 87.915859,78.0689088 C87.6657479,77.9671757 87.5222415,77.9080605 87.5222415,77.9080605 C87.5222415,77.9080605 87.3869355,77.8324481 87.1518585,77.6990953 C87.0329532,77.6331063 86.8880801,77.5547443 86.7227061,77.4640094 C86.5573321,77.3746493 86.3632568,77.2825396 86.1814821,77.1381886 C85.8097323,76.8659839 85.3368447,76.595154 84.9186262,76.1950956 L84.5824113,75.9132675 L84.4102036,75.7716661 L84.2543967,75.6066935 C84.0480209,75.3853553 83.8334447,75.165392 83.6175018,74.9468033 C83.4124927,74.7158418 83.2361849,74.4615091 83.0434764,74.2291728 C82.9519057,74.1081929 82.8466677,73.999586 82.7660308,73.8744818 C82.6867606,73.7480028 82.6074904,73.6228987 82.5309537,73.500544 C82.3819804,73.2530852 82.2070393,73.031747 82.088134,72.7939116 C81.9664953,72.557451 81.853057,72.334738 81.7464522,72.1271476 L81.5906453,71.8329465" id="Fill-77" stroke="#E83F67" transform="translate(93.030813, 66.546468) rotate(-315.000000) translate(-93.030813, -66.546468) "></path>
                </g>
            </g>
        </g>
    </g>
</svg>