<?xml version="1.0" encoding="UTF-8"?>
<svg width="76px" height="63px" viewBox="0 0 76 63" version="1.1" xmlns="http://www.w3.org/2000/svg" xmlns:xlink="http://www.w3.org/1999/xlink">
    <!-- Generator: Sketch 49.3 (51167) - http://www.bohemiancoding.com/sketch -->
    <title>Group 22</title>
    <desc>Created with Sketch.</desc>
    <defs></defs>
    <g id="Page-1" stroke="none" stroke-width="1" fill="none" fill-rule="evenodd">
        <g id="Large-Device-Desktops" transform="translate(-248.000000, -668.000000)" fill-rule="nonzero">
            <g id="Group-7" transform="translate(247.000000, 668.000000)">
                <g id="Group-22" transform="translate(1.000000, 0.000000)">
                    <g id="casino-cctv" fill="#42566C">
                        <path d="M75.9977734,24.9040775 C75.9674922,24.2121127 75.5805156,22.929338 73.3294609,22.1131479 L13.31425,0.371788732 C10.2378828,-0.743429577 6.82382031,0.84221831 5.70400781,3.90733099 L4.07935937,8.35415493 C4.07935937,8.35415493 2.8609349,11.6894085 0.424085938,18.3599155 C-0.695578125,21.4251761 0.896265625,24.8262887 3.97322656,25.9420986 L21.4645078,32.2774437 C21.1321562,34.291669 21.6865703,36.2817887 22.8933672,37.8042887 L19.1672891,48.0030423 C18.9958437,48.4724366 18.5434062,48.7878803 18.0415391,48.7878803 L7.125,48.7878803 L7.125,45.2385845 C7.125,43.2815915 5.52692187,41.6892887 3.5625,41.6892887 L1.1875,41.6892887 C0.531703125,41.6892887 0,42.2190211 0,42.8723873 L0,61.8019648 C0,62.455331 0.531703125,62.9850634 1.1875,62.9850634 L3.5625,62.9850634 C5.52692187,62.9850634 7.125,61.3927606 7.125,59.4357676 L7.125,55.8864718 L18.0415391,55.8864718 C21.5280391,55.8864718 24.6710547,53.6935986 25.8625625,50.4300211 L29.5102656,40.4455563 C31.5977422,40.1536268 33.4947734,38.9393239 34.6208203,37.0428169 L55.0611094,44.4463521 C55.7292266,44.6885915 56.4129297,44.8035 57.0859453,44.8035 C59.1271094,44.8033521 61.0665937,43.7462535 62.1527109,41.9818099 L64.4983203,42.8323099 C64.7632812,42.9282887 65.0378906,42.9762042 65.3117578,42.9762042 C65.6536094,42.9762042 65.9942734,42.901669 66.3132656,42.7534859 C66.8878672,42.4865493 67.3236797,42.0125704 67.5403984,41.4192465 L70.7907344,32.5220493 C71.1860234,31.4399577 70.7349219,30.2540493 69.7770547,29.6843873 L73.5838828,27.9159507 C75.7549297,26.9073592 76.0280547,25.5960423 75.9977734,24.9040775 Z M4.75,59.4357676 C4.75,60.0880986 4.21725781,60.6188662 3.5625,60.6188662 L2.375,60.6188662 L2.375,44.0554859 L3.5625,44.0554859 C4.21725781,44.0554859 4.75,44.5862535 4.75,45.2385845 L4.75,59.4357676 Z M23.6308047,49.6209296 C22.7792187,51.9532606 20.5330625,53.5202746 18.0415391,53.5202746 L7.125,53.5202746 L7.125,51.1540775 L18.0415391,51.1540775 C19.5380859,51.1540775 20.8872344,50.2130704 21.3990469,48.8124296 L24.8079141,39.4816268 C25.1990469,39.7157324 25.6180859,39.9167113 26.0631016,40.0780563 C26.3789766,40.192669 26.6976719,40.2833239 27.0169609,40.3520915 L23.6308047,49.6209296 Z M28.663875,38.1426549 C28.6364141,38.142507 28.6091016,38.142507 28.5817891,38.1441338 C28.0162422,38.1516761 27.4392656,38.0590986 26.8753516,37.8545704 C26.21525,37.6151408 25.6396094,37.2467535 25.1680234,36.7878592 C25.1248281,36.735507 25.0768828,36.687 25.0244844,36.6424859 C24.1400937,35.703993 23.6665781,34.4299437 23.7562344,33.1075352 L32.3296875,36.2128732 C31.4622187,37.3998169 30.1043125,38.0984366 28.663875,38.1426549 Z M68.5592734,31.7128099 L65.3110156,40.6089718 L63.077625,39.7991408 L66.1585937,31.3655704 L66.7893047,31.0726056 L68.5592734,31.7128099 Z M72.5804453,25.7714366 L66.2322188,28.7206056 C66.231724,28.7208028 65.7243151,28.9565352 64.7099922,29.4278028 C64.7095964,29.428 64.1149063,29.7042535 62.9259219,30.2565634 C60.8341406,31.228331 57.2343828,31.3847958 55.0649688,30.5981831 L27.7151953,21.163669 C27.0990312,20.9408028 26.4175547,21.2575775 26.1935625,21.8716056 C25.9695703,22.4857817 26.2876719,23.1644366 26.9041328,23.3877465 L54.2533125,32.8219648 C55.4485313,33.2554225 56.9217734,33.4664577 58.4251484,33.4664577 C60.0687969,33.4664577 61.7470313,33.212831 63.1359609,32.7216972 L60.4400391,40.1014225 C59.7682109,41.9405493 57.7197734,42.8920563 55.8735078,42.2225704 L4.78503125,23.7184648 C2.9390625,23.0491268 1.98401562,21.0084296 2.65584375,19.1693028 L4.68765625,13.6075563 C5.36527344,14.6454296 6.37301563,15.4811408 7.62820313,15.936338 L8.74445312,16.3409577 C9.36017187,16.5645634 10.0420938,16.2477887 10.2663828,15.6337606 C10.4906719,15.0198803 10.1728672,14.3409296 9.55655469,14.1174718 L8.44045313,13.7128521 C6.59478125,13.0435141 5.63958594,11.0032606 6.31096875,9.16428169 L6.71739063,8.05172535 C6.71739063,8.05172535 7.12351563,6.94000704 7.93576563,4.71657042 C8.60774219,2.87744366 10.6560313,1.92549296 12.5022969,2.59527465 L72.5175078,24.3367817 C73.2798828,24.6131831 73.5619141,24.9012676 73.6192109,25.0074507 C73.5714141,25.1183662 73.3158047,25.429669 72.5804453,25.7714366 Z" id="Shape"></path>
                    </g>
                    <g id="thermometer-(1)" transform="translate(17.963975, 16.415250) rotate(-339.000000) translate(-17.963975, -16.415250) translate(13.463975, 5.915250)" fill="#E83F67" stroke="#E83F67" stroke-width="0.2">
                        <path d="M7.14315536,13.3326956 L7.14315536,2.77200722 C7.14315536,1.38579773 5.95743348,0.257988648 4.5,0.257988648 C3.04256652,0.257988648 1.85679241,1.38579773 1.85679241,2.77200722 L1.85679241,13.3327461 C0.798151339,14.108807 0.174342857,15.3047812 0.174342857,16.5842931 C0.174342857,18.8490134 2.1148192,20.6915449 4.49994777,20.6915449 C6.88507634,20.6915449 8.82555268,18.8490134 8.82555268,16.5842931 C8.82560491,15.3047812 8.20179643,14.1087564 7.14315536,13.3326956 Z M2.89864811,8.39482381 L3.69863561,8.39482381 C3.98711374,8.39482381 4.26888351,8.34082974 4.26888351,8.06159547 C4.26888351,7.78231064 3.98995313,7.67746852 3.701475,7.67746852 L2.9014875,7.67746852 L2.90820283,6.41642691 L3.70819033,6.41642691 C3.99666846,6.41642691 4.22892512,6.31786986 4.22892512,6.03858503 C4.22892512,5.75935077 3.98995313,5.65471414 3.701475,5.65471414 L2.9014875,5.65471414 L2.9084622,4.41476442 L3.7084497,4.41476442 C3.99692783,4.41476442 4.24725523,4.3168817 4.24725523,4.03764744 C4.24725523,3.75841318 3.98995313,3.63190918 3.701475,3.63190918 L2.9014875,3.63190918 L2.9014875,2.77200722 C2.9014875,1.9434066 3.61858259,1.26934056 4.50005223,1.26934056 C5.38146964,1.26934056 6.0985125,1.9434066 6.0985125,2.77200722 L6.0985125,10.1072921 L2.9014875,10.1072921 L2.89864811,8.39482381 Z M4.50005223,19.6801424 C2.6908875,19.6801424 1.21909018,18.291354 1.21909018,16.5842425 C1.21909018,15.5540795 1.76011071,14.5942054 2.66639063,14.0166223 C2.81316295,13.9230722 2.9014875,13.7643911 2.9014875,13.5942312 L2.9014875,11.1185934 L6.0985125,11.1185934 L6.0985125,13.5942312 C6.0985125,13.7643406 6.18683705,13.9230722 6.33366161,14.0166223 C7.23994152,14.5942054 7.78096205,15.5540795 7.78096205,16.5842425 C7.78096205,18.291354 6.30916473,19.6801424 4.50005223,19.6801424 Z" id="Shape"></path>
                    </g>
                </g>
            </g>
        </g>
    </g>
</svg>