<?xml version="1.0" encoding="UTF-8"?>
<svg width="54px" height="57px" viewBox="0 0 54 57" version="1.1" xmlns="http://www.w3.org/2000/svg" xmlns:xlink="http://www.w3.org/1999/xlink">
    <!-- Generator: Sketch 49.3 (51167) - http://www.bohemiancoding.com/sketch -->
    <title>line</title>
    <desc>Created with Sketch.</desc>
    <defs></defs>
    <g id="Page-1" stroke="none" stroke-width="1" fill="none" fill-rule="evenodd">
        <g id="Large-Device-Desktops" transform="translate(-585.000000, -1044.000000)" fill-rule="nonzero" stroke-width="1.5">
            <g id="Group-7" transform="translate(586.000000, 1045.000000)">
                <g id="line">
                    <path d="M51.2113025,14.9853 C51.1992456,12.5981167 49.254242,10.6560667 46.8757367,10.6560667 L41.9656394,10.6560667 L41.9499288,10.6560667 L38.735841,10.6560667 C39.8074472,11.9031 40.4614448,13.5210167 40.4703962,15.2887167 L40.5447473,30.1319333 C40.5555255,32.2763833 39.04786,34.0406 37.0769158,34.4606167 L37.0769158,45.9125333 C37.0769158,47.13115 38.0613832,48.11895 39.2754804,48.11895 C40.4895777,48.11895 41.4740451,47.13115 41.4740451,45.9125333 L41.4740451,28.2766 L42.4234377,28.2766 L42.4234377,45.9125333 C42.4234377,47.13115 43.4077224,48.11895 44.6220024,48.11895 C45.8362823,48.11895 46.820567,47.13115 46.820567,45.9125333 C46.820567,16.7080833 46.781656,33.4697 46.7807426,14.9578 C46.7807426,14.74495 46.9526453,14.5724333 47.1645552,14.5724333 C47.376465,14.5724333 47.5485504,14.74495 47.5487331,14.9576167 C47.5487331,14.9728333 47.5483677,14.98805 47.547637,15.004 L47.6152289,28.512 C47.6201613,29.5243667 48.4394852,30.3414833 49.447153,30.3414833 C49.4502586,30.3414833 49.4533642,30.3414833 49.4564698,30.3414833 C50.4683393,30.3365333 51.2845575,29.50915 51.2794425,28.4936667 L51.2113025,14.9853 Z" id="Shape" stroke="#42566C"></path>
                    <path d="M41.9731293,9.44148333 C44.0644603,9.44148333 45.7703345,7.73813333 45.7703345,5.63071667 C45.7703345,3.52605 44.070306,1.81995 41.9731293,1.81995 C39.8759526,1.81995 38.1759241,3.52605 38.1759241,5.63071667 C38.1761068,7.74161667 39.8845386,9.44148333 41.9731293,9.44148333 Z" id="Shape" stroke="#42566C"></path>
                    <path d="M38.1695302,30.14385 L38.0951791,15.3006333 C38.0820261,12.6775 35.9448422,10.5435 33.3310439,10.5435 C32.9377319,10.5435 22.6904294,10.5427667 22.4690202,10.5449667 C23.6792811,11.8765167 24.4226097,13.64275 24.4322918,15.57765 L24.512306,31.5731167 C24.5201613,33.12815 23.7470558,34.5071833 22.5636489,35.3367667 L22.5636489,49.2844 C22.5636489,50.6232833 23.6453025,51.7088 24.9794211,51.7088 C26.3135397,51.7088 27.3951934,50.6234667 27.3951934,49.2844 L27.3951934,29.9055167 L28.4383013,29.9055167 L28.4383013,49.2845833 C28.4383013,50.6234667 29.5197722,51.7089833 30.8540735,51.7089833 C32.1883749,51.7089833 33.2698458,50.62365 33.2698458,49.2845833 C33.2698458,17.2139 33.2269158,35.5883 33.2260024,15.3098 C33.2260024,15.0762333 33.4145291,14.8870333 33.6472645,14.88685 C33.88,14.88685 34.0687094,15.07605 34.0687094,15.3096167 C34.0687094,15.3134667 34.0687094,15.3173167 34.0687094,15.3209833 L34.1430605,30.1640167 C34.1487236,31.2764833 35.0487924,32.1742667 36.1560214,32.1742667 C36.1594923,32.17445 36.1629632,32.17445 36.1664342,32.17445 C37.2784128,32.1687667 38.1751934,31.2596167 38.1695302,30.14385 Z" id="Shape" stroke="#E83F67"></path>
                    <path d="M16.9235587,10.4632 C15.716038,10.4632 6.48663345,10.4632 5.27637248,10.4632 C2.45961566,10.4632 0.156557533,12.7629333 0.142308422,15.5899333 L0.0622941874,31.5854 C0.0564483986,32.7592833 0.984102017,33.7359 2.16915302,33.7703667 C2.18650771,33.7709167 2.20349703,33.7733 2.22085172,33.7734833 C2.22450534,33.7734833 2.22815896,33.7734833 2.23199526,33.7734833 C3.42508422,33.7734833 4.39530249,32.80585 4.40133096,31.6072167 L4.4813452,15.61175 L4.4813452,15.6115667 C4.48244128,15.3798333 4.67041993,15.1928333 4.90132859,15.1933833 C5.13223725,15.1939333 5.31911981,15.3822167 5.31911981,15.6137667 L5.3202159,52.21205 C5.3202159,53.6548833 6.48572005,54.8247333 7.92360142,54.8247333 C9.36769395,54.8247333 10.526987,53.6473667 10.526987,52.21205 L10.526987,31.32855 L11.6510225,31.32855 L11.6510225,52.2122333 C11.6510225,53.6488333 12.8099502,54.8249167 14.2544081,54.8249167 C15.6922894,54.8249167 16.8577936,53.65525 16.8577936,52.2122333 C16.8577936,42.86865 16.8130368,25.3958833 16.8106619,15.6143167 C16.8104792,15.36315 17.0130724,15.1592833 17.2633452,15.15855 C17.513618,15.1578167 17.7171246,15.3605833 17.7184033,15.6119333 L17.7986002,31.6074 C17.8046287,32.8060333 18.7744816,33.7736667 19.9679359,33.7736667 C19.9714069,33.7736667 19.9754259,33.7736667 19.9790795,33.7736667 C21.174726,33.7676167 22.1436655,32.79045 22.137637,31.5855833 L22.0576228,15.5901167 C22.0433737,12.7799833 19.7536512,10.4632 16.9235587,10.4632 Z" id="Shape" stroke="#42566C"></path>
                    <path d="M11.1181423,9.02476667 C13.6024199,9.02476667 15.6144674,6.99911667 15.6144674,4.51238333 C15.6146501,2.02803333 13.6066216,0 11.1181423,0 C8.65889205,0 6.62181732,1.99888333 6.62181732,4.51256667 C6.62181732,7.01121667 8.64537367,9.02476667 11.1181423,9.02476667 Z" id="Shape" stroke="#42566C"></path>
                    <path d="M27.9441495,9.20883333 C30.2428233,9.20883333 32.1165813,7.33608333 32.1165813,5.0215 C32.1167639,2.70875 30.248669,0.834166667 27.9441495,0.834166667 C25.6398126,0.834166667 23.7717177,2.70893333 23.7717177,5.0215 C23.7717177,7.33333333 25.6425528,9.20883333 27.9441495,9.20883333 Z" id="Shape" stroke="#E83F67"></path>
                </g>
            </g>
        </g>
    </g>
</svg>