<?xml version="1.0" encoding="UTF-8"?>
<svg width="67px" height="54px" viewBox="0 0 67 54" version="1.1" xmlns="http://www.w3.org/2000/svg" xmlns:xlink="http://www.w3.org/1999/xlink">
    <!-- Generator: Sketch 49.3 (51167) - http://www.bohemiancoding.com/sketch -->
    <title>shop</title>
    <desc>Created with Sketch.</desc>
    <defs></defs>
    <g id="Page-1" stroke="none" stroke-width="1" fill="none" fill-rule="evenodd">
        <g id="Large-Device-Desktops" transform="translate(-247.000000, -1046.000000)" fill-rule="nonzero">
            <g id="Group-7" transform="translate(247.000000, 1046.000000)">
                <g id="shop">
                    <path d="M63.9206172,52.0402933 L62.804125,52.0402933 L62.804125,23.1576923 C65.3252617,21.5484663 67,18.7424135 67,15.5538173 C67,15.3844183 66.955377,15.217875 66.8707109,15.0708029 L59.082877,1.55159135 C58.5358848,0.602307692 57.5113867,0.0124615385 56.4091582,0.0124615385 L10.5908418,0.0124615385 C9.48861328,0.0124615385 8.46411523,0.602177885 7.91712305,1.55159135 L0.129289062,15.0708029 C0.0446230469,15.217875 0,15.3845481 0,15.5538173 C0,18.7424135 1.67473828,21.5484663 4.195875,23.1576923 L4.195875,52.0402933 L3.07938281,52.0402933 C2.53736328,52.0402933 2.0979375,52.4761875 2.0979375,53.013851 C2.0979375,53.5515144 2.53736328,53.9874087 3.07938281,53.9874087 L63.9206172,53.9874087 C64.4627676,53.9874087 64.9020625,53.5515144 64.9020625,53.013851 C64.9020625,52.4761875 64.4626367,52.0402933 63.9206172,52.0402933 Z M2.03054492,16.527375 L5.17692773,16.527375 C5.71894727,16.527375 6.15837305,16.0914808 6.15837305,15.5538173 C6.15837305,15.0161538 5.71894727,14.5802596 5.17692773,14.5802596 L2.67267188,14.5802596 L9.62143555,2.51762019 C9.81981836,2.17337019 10.1911973,1.95957692 10.5908418,1.95957692 L56.4091582,1.95957692 C56.8088027,1.95957692 57.1803125,2.17337019 57.3785645,2.51762019 L64.3271973,14.5802596 L61.822418,14.5802596 C61.2802676,14.5802596 60.8409727,15.0161538 60.8409727,15.5538173 C60.8409727,16.0914808 61.2802676,16.527375 61.822418,16.527375 L64.9693242,16.527375 C64.4894629,19.9781827 61.4973633,22.6445625 57.8887852,22.6445625 C54.2803379,22.6445625 51.2896777,19.9779231 50.8096855,16.527375 L57.6269355,16.527375 C58.1690859,16.527375 58.6083809,16.0914808 58.6083809,15.5538173 C58.6083809,15.0161538 58.1690859,14.5802596 57.6269355,14.5802596 L9.37358789,14.5802596 C8.83156836,14.5802596 8.39214258,15.0161538 8.39214258,15.5538173 C8.39214258,16.0914808 8.83156836,16.527375 9.37358789,16.527375 L16.1901836,16.527375 C15.7101914,19.9779231 12.7194004,22.6445625 9.11108398,22.6445625 C5.50250586,22.6445625 2.51040625,19.9781827 2.03054492,16.527375 Z M48.7087383,16.527375 C48.2287461,19.9779231 45.2379551,22.6445625 41.6296387,22.6445625 C38.0211914,22.6445625 35.0305313,19.9779231 34.5505391,16.527375 L48.7087383,16.527375 Z M32.4494609,16.527375 C31.9694687,19.9779231 28.9786777,22.6445625 25.3703613,22.6445625 C21.7620449,22.6445625 18.7712539,19.9779231 18.2912617,16.527375 L32.4494609,16.527375 Z M55.5961289,52.0404231 L44.9712637,52.0404231 L44.9712637,48.7847163 L55.5961289,48.7847163 L55.5961289,52.0404231 Z M55.5961289,46.837601 L44.9712637,46.837601 L44.9712637,29.0140962 L55.5961289,29.0140962 L55.5961289,46.837601 Z M60.8412344,52.0404231 L57.5591504,52.0404231 L57.5591504,28.0405385 C57.5591504,27.502875 57.1198555,27.0669808 56.5777051,27.0669808 L43.9899492,27.0669808 C43.4477988,27.0669808 43.0085039,27.502875 43.0085039,28.0405385 L43.0085039,52.0402933 L6.15876562,52.0404231 L6.15876562,24.1019135 C7.08538086,24.4177356 8.07781836,24.5916779 9.11108398,24.5916779 C12.6567187,24.5916779 15.735709,22.5723894 17.2407227,19.6321154 C18.7457363,22.5722596 21.8247266,24.5916779 25.3703613,24.5916779 C28.9159961,24.5916779 31.9949863,22.5723894 33.5,19.6321154 C35.0050137,22.5722596 38.0840039,24.5916779 41.6296387,24.5916779 C45.1752734,24.5916779 48.2542637,22.5723894 49.7592773,19.6321154 C51.264291,22.5722596 54.3432812,24.5916779 57.888916,24.5916779 C58.9221816,24.5916779 59.9146191,24.4177356 60.8412344,24.1020433 L60.8412344,52.0404231 Z" id="Shape" fill="#42566C"></path>
                    <path d="M38.7449746,27.0669808 L10.4222949,27.0669808 C9.88027539,27.0669808 9.44084961,27.502875 9.44084961,28.0405385 L9.44084961,47.8111587 C9.44084961,48.3488221 9.88027539,48.7847163 10.4222949,48.7847163 L38.7449746,48.7847163 C39.287125,48.7847163 39.7264199,48.3488221 39.7264199,47.8111587 L39.7264199,28.0405385 C39.7264199,27.5027452 39.287125,27.0669808 38.7449746,27.0669808 Z M37.7635293,46.837601 L11.4037402,46.837601 L11.4037402,29.0140962 L37.7635293,29.0140962 L37.7635293,46.837601 Z" id="Shape" fill="#E83F67"></path>
                </g>
            </g>
        </g>
    </g>
</svg>