<?xml version="1.0" encoding="UTF-8"?>
<svg width="89px" height="62px" viewBox="0 0 89 62" version="1.1" xmlns="http://www.w3.org/2000/svg" xmlns:xlink="http://www.w3.org/1999/xlink">
    <!-- Generator: Sketch 49.3 (51167) - http://www.bohemiancoding.com/sketch -->
    <title>Group 24</title>
    <desc>Created with Sketch.</desc>
    <defs></defs>
    <g id="Page-1" stroke="none" stroke-width="1" fill="none" fill-rule="evenodd">
        <g id="Large-Device-Desktops" transform="translate(-836.000000, -4228.000000)">
            <g id="Group-11" transform="translate(740.000000, 4200.000000)">
                <g id="Group-24" transform="translate(97.000000, 28.000000)">
                    <g id="Group-15" transform="translate(12.000000, 0.000000)" fill="#42566C" fill-rule="nonzero">
                        <path d="M0,4.24909185 L0,43.681716 C0,46.0245632 1.87229374,47.9308078 4.17341411,47.9308078 L27.4917963,47.9308078 L27.4917963,57.9242346 L23.5664356,57.9242346 L23.5664356,60 L27.4917963,60 L41.7456943,60 L45.6703753,60 L45.6703753,57.9242346 L41.7456943,57.9242346 L41.7456943,47.9308078 L65.8265859,47.9308078 C68.1270267,47.9308078 70,46.0245632 70,43.681716 L70,4.24909185 C70,1.90624459 68.1270267,0 65.8265859,0 L4.17341411,0 C1.87229374,0.000691921813 0,1.90624459 0,4.24909185 Z M39.7062193,57.9242346 L29.529912,57.9242346 L29.529912,47.9308078 L39.7062193,47.9308078 L39.7062193,57.9242346 Z M65.8252267,45.8550424 L41.7450147,45.8550424 L27.4911167,45.8550424 L4.17341411,45.8550424 C2.99634959,45.8550424 2.03879536,44.8801245 2.03879536,43.681716 L2.03879536,39.274174 L67.9598454,39.274174 L67.9598454,43.681716 C67.9598454,44.8801245 67.0022912,45.8550424 65.8252267,45.8550424 Z M67.9598454,4.24909185 L67.9598454,37.1984086 L2.03879536,37.1984086 L2.03879536,4.24909185 C2.03879536,3.05137519 2.99566999,2.07576544 4.17341411,2.07576544 L65.8259063,2.07576544 C67.0022912,2.07645736 67.9598454,3.05137519 67.9598454,4.24909185 Z" id="Shape"></path>
                    </g>
                    <g id="smartphone-(8)" transform="translate(71.000000, 31.000000)">
                        <path d="M13.9270588,0 L2.07294118,0 C0.930352941,0 0,0.95555 0,2.12908333 L0,26.8704333 C0,28.04445 0.930352941,29 2.07294118,29 L13.9265882,29 C15.0696471,29 16,28.04445 16,26.8709167 L16,2.12908333 C16,0.95555 15.0696471,0 13.9270588,0 Z M0.941176471,3.86666667 L15.0588235,3.86666667 L15.0588235,22.2333333 L0.941176471,22.2333333 L0.941176471,3.86666667 Z M2.07294118,0.966666667 L13.9265882,0.966666667 C14.5510588,0.966666667 15.0588235,1.48818333 15.0588235,2.12908333 L15.0588235,2.9 L0.941176471,2.9 L0.941176471,2.12908333 C0.941176471,1.48818333 1.44894118,0.966666667 2.07294118,0.966666667 Z M13.9270588,28.0333333 L2.07294118,28.0333333 C1.44894118,28.0333333 0.941176471,27.5118167 0.941176471,26.8709167 L0.941176471,23.2 L15.0588235,23.2 L15.0588235,26.8709167 C15.0588235,27.5118167 14.5510588,28.0333333 13.9270588,28.0333333 Z" id="Shape" stroke="#E83F67" stroke-width="0.5" fill="#E83F67" fill-rule="nonzero"></path>
                        <path d="M2.07759684,1.15524292 L13.9279327,1.15524292 C14.3283081,1.18812561 14.8627319,1.49867249 14.8673876,2.11851103 L14.8627319,2.70085144 L1.13912964,2.70085144 L1.1437853,2.11851103 C1.13912964,1.72215271 1.44639587,1.18403625 2.07759684,1.15524292 Z" id="Path" fill="#FFFFFF"></path>
                        <polygon id="Path" fill="#FFFFFF" points="1.14016724 4.03927205 14.8581696 4.06877136 14.8581696 22.0592082 1.14016724 22.0297089"></polygon>
                        <path d="M8,23.6833333 C6.96188235,23.6833333 6.11764706,24.5504333 6.11764706,25.6166667 C6.11764706,26.6829 6.96188235,27.55 8,27.55 C9.03811765,27.55 9.88235294,26.6829 9.88235294,25.6166667 C9.88235294,24.5504333 9.03811765,23.6833333 8,23.6833333 Z M8,26.5833333 C7.48094118,26.5833333 7.05882353,26.1497833 7.05882353,25.6166667 C7.05882353,25.08355 7.48094118,24.65 8,24.65 C8.51905882,24.65 8.94117647,25.08355 8.94117647,25.6166667 C8.94117647,26.1497833 8.51905882,26.5833333 8,26.5833333 Z" id="Shape" fill="#E83F67" fill-rule="nonzero"></path>
                        <path d="M6.11764706,2.41666667 L8,2.41666667 C8.26023529,2.41666667 8.47058824,2.20061667 8.47058824,1.93333333 C8.47058824,1.66605 8.26023529,1.45 8,1.45 L6.11764706,1.45 C5.85741176,1.45 5.64705882,1.66605 5.64705882,1.93333333 C5.64705882,2.20061667 5.85741176,2.41666667 6.11764706,2.41666667 Z" id="Shape" fill="#E83F67" fill-rule="nonzero"></path>
                        <path d="M9.41176471,2.41666667 L9.88235294,2.41666667 C10.1425882,2.41666667 10.3529412,2.20061667 10.3529412,1.93333333 C10.3529412,1.66605 10.1425882,1.45 9.88235294,1.45 L9.41176471,1.45 C9.15152941,1.45 8.94117647,1.66605 8.94117647,1.93333333 C8.94117647,2.20061667 9.15152941,2.41666667 9.41176471,2.41666667 Z" id="Shape" fill="#E83F67" fill-rule="nonzero"></path>
                    </g>
                    <g id="smartphone-(8)" transform="translate(0.000000, 21.000000)">
                        <path d="M23.4088235,0 L2.59117647,0 C1.16294118,0 0,1.1862 0,2.643 L0,37.3564 C0,38.8138 1.16294118,40 2.59117647,40 L23.4082353,40 C24.8370588,40 26,38.8138 26,37.357 L26,2.643 C26,1.1862 24.8370588,0 23.4088235,0 Z M1.17647059,4.8 L24.8235294,4.8 L24.8235294,31.6 L1.17647059,31.6 L1.17647059,4.8 Z M2.59117647,1.2 L23.4082353,1.2 C24.1888235,1.2 24.8235294,1.8474 24.8235294,2.643 L24.8235294,3.6 L1.17647059,3.6 L1.17647059,2.643 C1.17647059,1.8474 1.81117647,1.2 2.59117647,1.2 Z M23.4088235,38.8 L2.59117647,38.8 C1.81117647,38.8 1.17647059,38.1526 1.17647059,37.357 L1.17647059,32.8 L24.8235294,32.8 L24.8235294,37.357 C24.8235294,38.1526 24.1888235,38.8 23.4088235,38.8 Z" id="Shape" stroke="#42566C" stroke-width="0.6" fill="#42566C" fill-rule="nonzero"></path>
                        <path d="M2.58049367,1.44590759 L23.3975525,1.44590759 C24.1781407,1.44590759 24.5770111,2.11827087 24.5663283,2.63984448 L24.5770111,3.35093689 L1.43232727,3.35093689 L1.42164447,2.63984448 C1.42164447,2.18247986 1.80049367,1.44590759 2.58049367,1.44590759 Z" id="Path" fill="#FFFFFF"></path>
                        <polygon id="Path" fill="#FFFFFF" points="1.42341614 5.04737854 24.5791473 5.04737854 24.5791473 31.3504791 1.42341614 31.3504791"></polygon>
                        <path d="M13,33.4 C11.7023529,33.4 10.6470588,34.4764 10.6470588,35.8 C10.6470588,37.1236 11.7023529,38.2 13,38.2 C14.2976471,38.2 15.3529412,37.1236 15.3529412,35.8 C15.3529412,34.4764 14.2976471,33.4 13,33.4 Z M13,37 C12.3511765,37 11.8235294,36.4618 11.8235294,35.8 C11.8235294,35.1382 12.3511765,34.6 13,34.6 C13.6488235,34.6 14.1764706,35.1382 14.1764706,35.8 C14.1764706,36.4618 13.6488235,37 13,37 Z" id="Shape" fill="#42566C" fill-rule="nonzero"></path>
                        <path d="M10.6470588,3 L13,3 C13.3252941,3 13.5882353,2.7318 13.5882353,2.4 C13.5882353,2.0682 13.3252941,1.8 13,1.8 L10.6470588,1.8 C10.3217647,1.8 10.0588235,2.0682 10.0588235,2.4 C10.0588235,2.7318 10.3217647,3 10.6470588,3 Z" id="Shape" fill="#42566C" fill-rule="nonzero"></path>
                        <path d="M14.7647059,3 L15.3529412,3 C15.6782353,3 15.9411765,2.7318 15.9411765,2.4 C15.9411765,2.0682 15.6782353,1.8 15.3529412,1.8 L14.7647059,1.8 C14.4394118,1.8 14.1764706,2.0682 14.1764706,2.4 C14.1764706,2.7318 14.4394118,3 14.7647059,3 Z" id="Shape" fill="#42566C" fill-rule="nonzero"></path>
                    </g>
                </g>
            </g>
        </g>
    </g>
</svg>