<?xml version="1.0" encoding="UTF-8"?>
<svg width="49px" height="69px" viewBox="0 0 49 69" version="1.1" xmlns="http://www.w3.org/2000/svg" xmlns:xlink="http://www.w3.org/1999/xlink">
    <!-- Generator: Sketch 49.3 (51167) - http://www.bohemiancoding.com/sketch -->
    <title>traffic-light</title>
    <desc>Created with Sketch.</desc>
    <defs></defs>
    <g id="Page-1" stroke="none" stroke-width="1" fill="none" fill-rule="evenodd">
        <g id="Large-Device-Desktops" transform="translate(-585.000000, -663.000000)" fill-rule="nonzero">
            <g id="Group-7" transform="translate(586.000000, 664.000000)">
                <g id="traffic-light">
                    <path d="M30.8921703,65.0371094 L9.03846154,65.0371094 C8.71811264,65.0371094 8.45741758,64.7729043 8.45741758,64.4482422 L8.45741758,59.2888496 L8.45741758,45.4177559 L8.45741758,39.3526855 L8.45741758,25.4815918 L8.45741758,19.4165215 L8.45741758,5.54542773 L8.45741758,2.55175781 C8.45741758,2.2270957 8.71811264,1.96289062 9.03846154,1.96289062 L11.2335165,1.96289062 C11.7684643,1.96289062 12.2019231,1.52346484 12.2019231,0.981445312 C12.2019231,0.439425781 11.7684643,0 11.2335165,0 L9.03846154,0 C7.65015385,0 6.5206044,1.14475781 6.5206044,2.55175781 L6.5206044,4.56385156 L1.03296703,4.56385156 C0.498019231,4.56385156 0.0645604396,5.00327734 0.0645604396,5.54529688 L0.0645604396,13.5640977 C0.0645604396,17.2347031 2.93530495,20.2374023 6.5206044,20.390377 L6.5206044,24.4998848 L1.03296703,24.4998848 C0.498019231,24.4998848 0.0645604396,24.9393105 0.0645604396,25.4813301 L0.0645604396,33.5001309 C0.0645604396,37.1707363 2.93530495,40.1734355 6.5206044,40.3264102 L6.5206044,44.435918 L1.03296703,44.435918 C0.498019231,44.435918 0.0645604396,44.8753437 0.0645604396,45.4173633 L0.0645604396,53.4361641 C0.0645604396,57.1067695 2.93530495,60.1094687 6.5206044,60.2624434 L6.5206044,64.4482422 C6.5206044,65.8552422 7.65015385,67 9.03846154,67 L30.8921703,67 C31.4271181,67 31.8605769,66.5605742 31.8605769,66.0185547 C31.8605769,65.4765352 31.4271181,65.0371094 30.8921703,65.0371094 Z M6.5206044,58.2988984 C4.00352198,58.1480176 2.00137363,56.0248242 2.00137363,53.4365566 L2.00137363,46.3992012 L6.5206044,46.3992012 L6.5206044,58.2988984 Z M6.5206044,38.3627344 C4.00352198,38.2118535 2.00137363,36.0886602 2.00137363,33.5003926 L2.00137363,26.4630371 L6.5206044,26.4630371 L6.5206044,38.3627344 Z M6.5206044,18.4264395 C4.00352198,18.2756895 2.00137363,16.1524961 2.00137363,13.5642285 L2.00137363,6.52674219 L6.5206044,6.52674219 L6.5206044,18.4264395 Z" id="Shape" stroke="#42566C" stroke-width="0.3" fill="#42566C"></path>
                    <path d="M46.9354396,13.5642285 L46.9354396,5.54529688 C46.9354396,5.00327734 46.5019808,4.56385156 45.967033,4.56385156 L40.4793956,4.56385156 L40.4793956,2.55175781 C40.4793956,1.14475781 39.3498462,0 37.9615385,0 L15.128706,0 C14.5937582,0 14.1602995,0.439425781 14.1602995,0.981445312 C14.1602995,1.52346484 14.5937582,1.96289062 15.128706,1.96289062 L37.9615385,1.96289062 C38.2818874,1.96289062 38.5425824,2.2270957 38.5425824,2.55175781 L38.5425824,5.54529688 L38.5425824,19.4163906 L38.5425824,25.4814609 L38.5425824,39.3525547 L38.5425824,45.417625 L38.5425824,59.2887188 L38.5425824,64.4482422 C38.5425824,64.7729043 38.2818874,65.0371094 37.9615385,65.0371094 L34.7980769,65.0371094 C34.2631291,65.0371094 33.8296703,65.4765352 33.8296703,66.0185547 C33.8296703,66.5605742 34.2631291,67 34.7980769,67 L37.9615385,67 C39.3498462,67 40.4793956,65.8552422 40.4793956,64.4482422 L40.4793956,60.2628359 C44.0646951,60.1098613 46.9354396,57.1071621 46.9354396,53.4365566 L46.9354396,45.4177559 C46.9354396,44.8757363 46.5019808,44.4363105 45.967033,44.4363105 L40.4793956,44.4363105 L40.4793956,40.3268027 C44.0646951,40.1738281 46.9354396,37.1711289 46.9354396,33.5005234 L46.9354396,25.4817227 C46.9354396,24.9397031 46.5019808,24.5002773 45.967033,24.5002773 L40.4793956,24.5002773 L40.4793956,20.3905078 C44.0646951,20.2375332 46.9354396,17.234834 46.9354396,13.5642285 Z M40.4793956,6.52674219 L44.9986264,6.52674219 L44.9986264,13.5640977 C44.9986264,16.1523652 42.996478,18.2755586 40.4793956,18.4263086 L40.4793956,6.52674219 Z M44.9986264,46.3990703 L44.9986264,53.4365566 C44.9986264,56.0248242 42.996478,58.1480176 40.4793956,58.2987676 L40.4793956,46.3990703 L44.9986264,46.3990703 Z M44.9986264,26.4629062 L44.9986264,33.5003926 C44.9986264,36.0886602 42.996478,38.2118535 40.4793956,38.3626035 L40.4793956,26.4629062 L44.9986264,26.4629062 Z" id="Shape" stroke="#42566C" stroke-width="0.3" fill="#42566C"></path>
                    <path d="M34.1212253,33.6829414 C33.7048104,28.0883105 29.0394148,23.7058301 23.5,23.7058301 C17.9605852,23.7058301 13.2951896,28.0883105 12.8787747,33.6829414 C12.8450742,34.1354531 13.0005357,34.5858711 13.305261,34.9187773 C13.6099863,35.2516836 14.0413791,35.4426074 14.4891703,35.4426074 L14.8393462,35.4426074 C15.3225165,39.8530918 19.0213132,43.2948242 23.5,43.2948242 C24.786044,43.2948242 26.0257335,43.0159629 27.1847225,42.4659609 C27.6690549,42.2361719 27.8778434,41.6518848 27.650978,41.1609004 C27.4241126,40.669916 26.8474588,40.4583164 26.3632555,40.6883672 C25.463283,41.1154922 24.4999121,41.3319336 23.4998709,41.3319336 C20.0906923,41.3319336 17.2624286,38.7677441 16.7912665,35.4426074 L17.0820467,35.4426074 C17.9090659,35.4426074 18.5985714,34.8140898 18.6858571,33.9802539 C18.9471978,31.4799238 21.0168764,29.594502 23.4998709,29.594502 C25.9828654,29.594502 28.052544,31.4799238 28.3138846,33.9805156 C28.4011703,34.8140898 29.0906758,35.4426074 29.9176951,35.4426074 L30.2095082,35.4426074 C30.0410055,36.6457285 29.5627418,37.7715117 28.7991209,38.7406563 C28.4653434,39.164248 28.5335192,39.7817734 28.9514835,40.1200449 C29.1300577,40.2645137 29.3433654,40.3346543 29.5552527,40.3346543 C29.8395769,40.3346543 30.1213187,40.2082441 30.3125467,39.9656309 C31.33725,38.6651504 31.9757527,37.0875098 32.1592335,35.4427383 L32.5108297,35.4427383 C32.9586209,35.4427383 33.3901429,35.2518145 33.694739,34.9189082 C33.9993352,34.586002 34.1547967,34.135584 34.1212253,33.6829414 Z M30.2031813,33.4797168 C29.7105852,30.1252676 26.8785769,27.6316113 23.5,27.6316113 C20.1214231,27.6316113 17.2894148,30.1253984 16.7968187,33.4797168 L14.8432198,33.4797168 C15.3473077,29.0719805 19.0843242,25.6687207 23.5,25.6687207 C27.9156758,25.6687207 31.6526923,29.0721113 32.1567802,33.4797168 L30.2031813,33.4797168 Z" id="Shape" fill="#E83F67"></path>
                    <path d="M34.1212253,12.8078613 C33.7048104,7.21323047 29.0392857,2.83088086 23.5,2.83088086 C17.9607143,2.83088086 13.2951896,7.21323047 12.8787747,12.8079922 C12.8450742,13.2605039 13.0005357,13.7109219 13.305261,14.0438281 C13.6099863,14.3767344 14.0413791,14.5676582 14.4891703,14.5676582 L14.8394753,14.5676582 C15.323033,18.9776191 19.0217005,22.4188281 23.5,22.4188281 C27.9782995,22.4188281 31.676967,18.9776191 32.1605247,14.5676582 L32.5108297,14.5676582 C32.9586209,14.5676582 33.3901429,14.3767344 33.694739,14.0438281 C33.9993352,13.7109219 34.1547967,13.2605039 34.1212253,12.8078613 Z M23.5,20.4559375 C20.0912088,20.4559375 17.2630742,17.8922715 16.7915247,14.5676582 L17.0821758,14.5676582 C17.9091951,14.5676582 18.5987005,13.9391406 18.6859863,13.1054355 C18.9473269,10.6051055 21.0170055,8.71955273 23.5,8.71955273 C25.9829945,8.71955273 28.0526731,10.6051055 28.3140137,13.1056973 C28.4012995,13.9391406 29.0908049,14.5676582 29.9178242,14.5676582 L30.2084753,14.5676582 C29.7369258,17.8922715 26.9087912,20.4559375 23.5,20.4559375 Z M31.2547418,12.6047676 C31.2521593,12.6047676 31.249706,12.604375 31.2472527,12.604375 C31.2447995,12.604375 31.2423462,12.6047676 31.2397637,12.6047676 L30.2030522,12.6047676 C29.7101978,9.25058008 26.8784478,6.75666211 23.5,6.75666211 C20.121294,6.75666211 17.2894148,9.25044922 16.7968187,12.6047676 L15.7602363,12.6047676 C15.7576538,12.6047676 15.7552005,12.604375 15.7527473,12.604375 C15.750294,12.604375 15.7478407,12.6047676 15.7452582,12.6047676 L14.8432198,12.6047676 C15.3473077,8.19703125 19.0843242,4.79377148 23.5,4.79377148 C27.9156758,4.79377148 31.6526923,8.19703125 32.1567802,12.6047676 L31.2547418,12.6047676 Z" id="Shape" fill="#E83F67"></path>
                    <path d="M34.1212253,54.5577598 C33.7048104,48.9631289 29.0394148,44.5807793 23.5,44.5807793 C17.9605852,44.5807793 13.2951896,48.9631289 12.8787747,54.5578906 C12.8450742,55.0104023 13.0005357,55.4608203 13.305261,55.7937266 C13.6099863,56.1266328 14.0413791,56.3175566 14.4891703,56.3175566 L14.8393462,56.3175566 C15.3226456,60.7279102 19.0214423,64.1695117 23.5,64.1695117 C27.9785577,64.1695117 31.6773544,60.7279102 32.1606538,56.3175566 L32.5108297,56.3175566 C32.9586209,56.3175566 33.3901429,56.1266328 33.694739,55.7937266 C33.9993352,55.4608203 34.1549258,55.0104023 34.1212253,54.5577598 Z M23.5,62.2066211 C20.0909505,62.2066211 17.2626868,59.6425625 16.7913956,56.3175566 L17.0821758,56.3175566 C17.9091951,56.3175566 18.5987005,55.6890391 18.6859863,54.855334 C18.9473269,52.3550039 21.0170055,50.4694512 23.5,50.4694512 C25.9829945,50.4694512 28.0526731,52.3550039 28.3140137,54.8554648 C28.4012995,55.6890391 29.0908049,56.3175566 29.9178242,56.3175566 L30.2086044,56.3175566 C29.7373132,59.6425625 26.9090495,62.2066211 23.5,62.2066211 Z M30.2030522,54.354666 C29.7101978,51.0004785 26.8784478,48.5065605 23.5,48.5065605 C20.1214231,48.5065605 17.2894148,51.0003477 16.7968187,54.354666 L14.8432198,54.354666 C15.3473077,49.9469297 19.0843242,46.5436699 23.5,46.5436699 C27.9156758,46.5436699 31.6526923,49.9469297 32.1567802,54.354666 L30.2030522,54.354666 Z" id="Shape" fill="#E83F67"></path>
                </g>
            </g>
        </g>
    </g>
</svg>