<?xml version="1.0" encoding="UTF-8"?>
<svg width="184px" height="240px" viewBox="0 0 184 240" version="1.1" xmlns="http://www.w3.org/2000/svg" xmlns:xlink="http://www.w3.org/1999/xlink">
    <!-- Generator: Sketch 49.3 (51167) - http://www.bohemiancoding.com/sketch -->
    <title>analytics (7)</title>
    <desc>Created with Sketch.</desc>
    <defs></defs>
    <g id="Page-1" stroke="none" stroke-width="1" fill="none" fill-rule="evenodd" opacity="0.109999999">
        <g id="Large-Device-Desktops" transform="translate(0.000000, -1617.000000)">
            <g id="analytics-(7)" transform="translate(-77.000000, 1617.000000)">
                <path d="M235.792412,4.10571961 C243.567234,6.88104453 247.454645,11.3729214 247.454645,17.5813503 C247.454645,82.0420878 247.454645,120.984336 247.454645,186.300172 C247.454645,193.313503 244.103528,197.474197 237.401293,198.782253 L255.457105,198.782253 L259.197538,192.142345 L257.906992,4.10571961 L235.792412,4.10571961 Z" id="Path" fill="#DCDCDC"></path>
                <path d="M250.639267,0.20128189 L9.88956356,0.20128189 C4.43619624,0.20128189 0,4.62671861 0,10.0668594 L0,192.108081 C0,197.547669 4.43619624,201.973658 9.88956356,201.973658 L101.791779,201.973658 L101.791779,236.348071 L61.4787066,236.348071 C59.182727,236.348071 56.813594,235.768469 56.813594,238.05888 C56.813594,240.349291 59.182727,239.799271 61.4787066,239.799271 L199.050124,239.799271 C201.346658,239.799271 203.181125,240.349291 203.181125,238.05888 C203.181125,235.768469 201.346658,236.348071 199.050124,236.348071 L157.636341,236.348071 L157.636341,201.973105 L250.639822,201.973105 C256.093189,201.973105 260.529385,197.547669 260.529385,192.107528 L260.529385,10.0668594 C260.528831,4.62671861 256.092635,0.20128189 250.639267,0.20128189 Z M154.172093,236.348071 L105.613953,236.348071 L105.613953,201.973105 L154.172093,201.973105 L154.172093,236.348071 Z M257.416556,192.220362 C257.416556,197.134059 251.271987,198.134059 250.396631,198.134059 L10.1321997,198.134059 C9.25684357,198.134059 3.11227488,197.134059 3.11227488,192.220362 L3.11227488,9.95402532 C3.11227488,9.08079228 4.11227488,4.04032818 10.1321997,4.04032818 L250.396631,4.04032818 C256.416556,4.04032818 257.416556,10.0668594 257.416556,9.95402532 L257.416556,192.220362 Z" id="Shape" fill="#42566C" fill-rule="nonzero"></path>
                <g id="pie-chart" transform="translate(151.744186, 53.284404)" fill="#E83F67" fill-rule="nonzero">
                    <path d="M69.1609917,41.9237667 L37.9860553,41.9237667 L37.9860553,10.8244418 C37.9860553,9.56773412 36.9782448,8.56236801 35.7184818,8.56236801 C16.0325845,8.56236801 0.00839842036,24.5476891 0.00839842036,44.1858404 C0.00839842036,63.8239917 16.0325845,79.8093128 35.7184818,79.8093128 C55.4043791,79.8093128 71.4285652,63.8239917 71.4285652,44.1858404 C71.4285652,42.9458889 70.4039579,41.9237667 69.1609917,41.9237667 Z M35.7184818,75.2851653 C18.5353137,75.2851653 4.54354541,61.3273325 4.54354541,44.1858404 C4.54354541,27.7983729 17.3091444,14.326467 33.4509083,13.170296 L33.4509083,44.1858404 C33.4509083,45.442548 34.4587187,46.4479141 35.7184818,46.4479141 L66.809434,46.4479141 C65.650452,62.550528 52.145792,75.2851653 35.7184818,75.2851653 Z" id="Shape"></path>
                    <path d="M79.9949539,35.5061797 C79.9613602,26.8600312 76.7867573,18.5322486 71.0590347,12.0476372 C64.273111,4.39009867 54.5309434,0 44.2848706,0 C43.0251075,0 42.0172971,1.00536611 42.0172971,2.26207374 L42.0172971,35.6234724 C42.0172971,36.88018 43.0251075,37.8855461 44.2848706,37.8855461 L77.7273804,37.8855461 C78.9871435,37.8855461 79.9949539,36.88018 79.9949539,35.6234724 C79.9949539,35.5899602 79.9949539,35.556448 79.9949539,35.5061797 Z M46.5524441,33.3781548 L46.5524441,4.62468409 C54.6485213,5.21114765 62.2406933,8.94775835 67.649276,15.0637355 C72.184423,20.1743465 74.8719175,26.6086896 75.3758227,33.3781548 L46.5524441,33.3781548 Z" id="Shape"></path>
                </g>
                <polygon id="Path" fill="#C3C3C3" points="154.172093 236.354506 105.425486 236.354506 105.425486 201.973105 154.172093 201.973105"></polygon>
                <path d="M239.175444,163.486239 L21.3539407,163.486239 C19.0579611,163.486239 18.0163574,164.048003 18.0163574,165.35766 C18.0163574,166.667317 19.0579611,167.229081 21.3539407,167.229081 L239.175444,167.229081 C241.471978,167.229081 242.12207,166.667317 242.12207,165.35766 C242.12207,164.048003 241.471424,163.486239 239.175444,163.486239 Z" id="Shape" fill="#42566C" fill-rule="nonzero"></path>
                <path d="M64.5723479,146.110192 L74.6054795,146.110192 C76.9014591,146.110192 78.7628544,144.253312 78.7628544,141.962901 L78.7628544,62.1739852 C78.7628544,59.8835742 76.9014591,58.0266935 74.6054795,58.0266935 L64.5723479,58.0266935 C62.2763683,58.0266935 60.4149729,59.8835742 60.4149729,62.1739852 L60.4149729,141.962901 C60.4149729,144.253312 62.2763683,146.110192 64.5723479,146.110192 Z" id="Shape" fill="#E83F67" fill-rule="nonzero"></path>
                <path d="M91.2349793,146.110192 L101.268111,146.110192 C103.564645,146.110192 105.425486,144.253312 105.425486,141.962901 L105.425486,43.621767 C105.425486,41.331356 103.564645,39.4744753 101.268111,39.4744753 L91.2349793,39.4744753 C88.9384454,39.4744753 87.0776043,41.331356 87.0776043,43.621767 L87.0776043,141.962901 C87.0776043,144.253312 88.9384454,146.110192 91.2349793,146.110192 Z" id="Shape" fill="#E83F67" fill-rule="nonzero"></path>
                <path d="M117.897611,146.110192 L127.930742,146.110192 C130.227276,146.110192 132.088117,144.253312 132.088117,141.962901 L132.088117,100.882041 C132.088117,98.59163 130.227276,96.7347493 127.930742,96.7347493 L117.897611,96.7347493 C115.601077,96.7347493 113.740236,98.59163 113.740236,100.882041 L113.740236,141.962901 C113.740236,144.253312 115.601077,146.110192 117.897611,146.110192 Z" id="Shape" fill="#E83F67" fill-rule="nonzero"></path>
            </g>
        </g>
    </g>
</svg>