<?xml version="1.0" encoding="UTF-8"?>
<svg width="114px" height="100px" viewBox="0 0 114 100" version="1.1" xmlns="http://www.w3.org/2000/svg" xmlns:xlink="http://www.w3.org/1999/xlink">
    <!-- Generator: Sketch 63.1 (92452) - https://sketch.com -->
    <title>architects</title>
    <desc>Created with Sketch.</desc>
    <defs>
        <linearGradient x1="12.0615151%" y1="41.5061284%" x2="84.7084625%" y2="73.7826928%" id="linearGradient-1">
            <stop stop-color="#F3D9DF" offset="0.07011211%"></stop>
            <stop stop-color="#F3DADF" offset="51.12%"></stop>
            <stop stop-color="#FBECEE" offset="100%"></stop>
        </linearGradient>
    </defs>
    <g id="Page-1" stroke="none" stroke-width="1" fill="none" fill-rule="evenodd">
        <g id="architects" fill-rule="nonzero">
            <g id="site-map">
                <path d="M112.361333,56.9815556 C109.733333,49.2904444 103.886222,43.6126667 96.8386667,40.9366667 C93.1875556,39.5502222 90.7617778,36.0797778 90.7082222,32.1746667 C90.7071111,32.0893333 90.7055556,32.0037778 90.7035556,31.9182222 C90.3686667,17.5666667 78.3728889,6.06711111 64.0197778,6.31355556 C55.5544444,6.45888889 48.0668889,10.6146667 43.3742222,16.9624444 C39.3331111,22.4288889 33.0431111,25.8435556 26.2453333,25.84 C26.0457778,25.84 25.846,25.842 25.6453333,25.8464444 C11.886,26.1475556 0.186,37.9526667 0.00244444444,51.714 C-0.192888889,66.3655556 11.6253333,78.3037778 26.2317778,78.3037778 C37.5533333,78.3037778 47.1982222,71.1311111 50.8731111,61.0822222 C51.8346667,58.4528889 54.6846667,57.0435556 57.3804444,57.7995556 C57.414,57.8088889 57.4477778,57.8184444 57.4815556,57.8275556 C59.948,58.5084444 61.5833333,60.8586667 61.3815556,63.4095556 C61.1111111,66.828 61.5106667,70.3551111 62.67,73.8086667 C67.2302222,87.3942222 82.0451111,94.8497778 95.6684444,90.4042222 C109.604222,85.8566667 117.086,70.808 112.361333,56.9815556 Z" id="Path" fill="url(#linearGradient-1)"></path>
                <g id="Group" transform="translate(6.888889, 0.000000)" opacity="0.1">
                    <path d="M64.9246667,28.8986667 L35.0753333,28.8986667 C33.8451111,28.8986667 32.8477778,27.9013333 32.8477778,26.6711111 L32.8477778,2.38733333 C32.8477778,1.15711111 33.8451111,0.159777778 35.0753333,0.159777778 L64.9246667,0.159777778 C66.1548889,0.159777778 67.1522222,1.15711111 67.1522222,2.38733333 L67.1522222,26.6711111 C67.1522222,27.9015556 66.1548889,28.8986667 64.9246667,28.8986667 Z" id="Path" fill="#923C57"></path>
                    <path d="M61.5842222,63.3617778 L38.4157778,63.3617778 C37.1855556,63.3617778 36.1882222,62.3644444 36.1882222,61.1342222 L36.1882222,46.8717778 C36.1882222,45.6415556 37.1855556,44.6442222 38.4157778,44.6442222 L61.5842222,44.6442222 C62.8144444,44.6442222 63.8117778,45.6415556 63.8117778,46.8717778 L63.8117778,61.1342222 C63.8117778,62.3644444 62.8144444,63.3617778 61.5842222,63.3617778 Z" id="Path" fill="#590BB2"></path>
                    <path d="M97.6613333,44.6442222 L87.1882222,44.6442222 L87.1882222,44.2353333 C87.1882222,41.1666667 84.6917778,38.6702222 81.6231111,38.6702222 L18.3768889,38.6702222 C15.3082222,38.6702222 12.8117778,41.1666667 12.8117778,44.2353333 L12.8117778,44.6442222 L2.33866667,44.6442222 C1.10844444,44.6442222 0.111111111,45.6415556 0.111111111,46.8717778 L0.111111111,61.1342222 C0.111111111,62.3644444 1.10844444,63.3617778 2.33866667,63.3617778 L25.5071111,63.3617778 C26.7373333,63.3617778 27.7346667,62.3644444 27.7346667,61.1342222 L27.7346667,46.8717778 C27.7346667,45.6415556 26.7373333,44.6442222 25.5071111,44.6442222 L15.034,44.6442222 L15.034,44.2353333 C15.034,42.392 16.5335556,40.8924444 18.3768889,40.8924444 L81.6231111,40.8924444 C83.4664444,40.8924444 84.966,42.392 84.966,44.2353333 L84.966,44.6442222 L74.4928889,44.6442222 C73.2626667,44.6442222 72.2653333,45.6415556 72.2653333,46.8717778 L72.2653333,61.1342222 C72.2653333,62.3644444 73.2626667,63.3617778 74.4928889,63.3617778 L97.6613333,63.3617778 C98.8915556,63.3617778 99.8888889,62.3644444 99.8888889,61.1342222 L99.8888889,46.8717778 C99.8888889,45.6415556 98.8915556,44.6442222 97.6613333,44.6442222 Z" id="Path" fill="#923C57"></path>
                </g>
                <path d="M71.8135556,32.8986667 L41.9642222,32.8986667 C40.734,32.8986667 39.7366667,31.9013333 39.7366667,30.6711111 L39.7366667,6.38733333 C39.7366667,5.15711111 40.734,4.15977778 41.9642222,4.15977778 L71.8135556,4.15977778 C73.0437778,4.15977778 74.0411111,5.15711111 74.0411111,6.38733333 L74.0411111,30.6711111 C74.0411111,31.9015556 73.0437778,32.8986667 71.8135556,32.8986667 Z" id="Path" fill="#F5F4F9"></path>
                <path d="M71.8135556,4.15977778 L64.2222222,4.15977778 L64.2222222,32.8988889 L71.8135556,32.8988889 C73.0437778,32.8988889 74.0411111,31.9015556 74.0411111,30.6713333 L74.0411111,6.38733333 C74.0411111,5.15711111 73.0437778,4.15977778 71.8135556,4.15977778 Z" id="Path" fill="#FFB7BA"></path>
                <path d="M74.0411111,11.4364444 L74.0411111,6.38733333 C74.0411111,5.15711111 73.0437778,4.15977778 71.8135556,4.15977778 L41.9642222,4.15977778 C40.734,4.15977778 39.7366667,5.15711111 39.7366667,6.38733333 L39.7366667,11.4364444 L74.0411111,11.4364444 Z" id="Path" fill="#F10000"></path>
                <path d="M59.7462222,25.6977778 L46.6982222,25.6977778 C46.0831111,25.6977778 45.5846667,25.1991111 45.5846667,24.5842222 C45.5846667,23.9693333 46.0831111,23.4706667 46.6982222,23.4706667 L59.7462222,23.4706667 C60.3613333,23.4706667 60.8597778,23.9693333 60.8597778,24.5842222 C60.8595556,25.1993333 60.3611111,25.6977778 59.7462222,25.6977778 Z" id="Path" fill="#DDD9E4"></path>
                <path d="M53.732,21.0746667 L46.6984444,21.0746667 C46.0833333,21.0746667 45.5848889,20.576 45.5848889,19.9611111 C45.5848889,19.3462222 46.0833333,18.8475556 46.6984444,18.8475556 L53.732,18.8475556 C54.3471111,18.8475556 54.8455556,19.3462222 54.8455556,19.9611111 C54.8455556,20.576 54.3468889,21.0746667 53.732,21.0746667 Z" id="Path" fill="#DDD9E4"></path>
                <path d="M32.396,67.3617778 L9.22755556,67.3617778 C7.99733333,67.3617778 7,66.3644444 7,65.1342222 L7,50.8717778 C7,49.6415556 7.99733333,48.6442222 9.22755556,48.6442222 L32.396,48.6442222 C33.6262222,48.6442222 34.6235556,49.6415556 34.6235556,50.8717778 L34.6235556,65.1342222 C34.6235556,66.3644444 33.6262222,67.3617778 32.396,67.3617778 Z" id="Path" fill="#F5F4F9"></path>
                <path d="M32.396,67.3617778 L9.22755556,67.3617778 C7.99733333,67.3617778 7,66.3644444 7,65.1342222 L7,50.8717778 C7,49.6415556 7.99733333,48.6442222 9.22755556,48.6442222 L32.396,48.6442222 C33.6262222,48.6442222 34.6235556,49.6415556 34.6235556,50.8717778 L34.6235556,65.1342222 C34.6235556,66.3644444 33.6262222,67.3617778 32.396,67.3617778 Z" id="Path" fill="#F5F4F9"></path>
                <path d="M34.6235556,55.9208889 L34.6235556,50.8717778 C34.6235556,49.6415556 33.6262222,48.6442222 32.396,48.6442222 L9.22755556,48.6442222 C7.99733333,48.6442222 7,49.6415556 7,50.8717778 L7,55.9208889 L34.6235556,55.9208889 Z" id="Path" fill="#F35E60"></path>
                <path d="M27.662,62.3426667 L13.9615556,62.3426667 C13.3464444,62.3426667 12.848,61.844 12.848,61.2291111 C12.848,60.6142222 13.3464444,60.1155556 13.9615556,60.1155556 L27.6617778,60.1155556 C28.2768889,60.1155556 28.7753333,60.6142222 28.7753333,61.2291111 C28.7753333,61.844 28.2768889,62.3426667 27.662,62.3426667 Z" id="Path" fill="#F6C9CA"></path>
                <path d="M68.4731111,67.3617778 L45.3046667,67.3617778 C44.0744444,67.3617778 43.0771111,66.3644444 43.0771111,65.1342222 L43.0771111,50.8717778 C43.0771111,49.6415556 44.0744444,48.6442222 45.3046667,48.6442222 L68.4731111,48.6442222 C69.7033333,48.6442222 70.7006667,49.6415556 70.7006667,50.8717778 L70.7006667,65.1342222 C70.7006667,66.3644444 69.7033333,67.3617778 68.4731111,67.3617778 Z" id="Path" fill="#F5F4F9"></path>
                <path d="M70.7006667,55.9208889 L70.7006667,50.8717778 C70.7006667,49.6415556 69.7033333,48.6442222 68.4731111,48.6442222 L45.3046667,48.6442222 C44.0744444,48.6442222 43.0771111,49.6415556 43.0771111,50.8717778 L43.0771111,55.9208889 L70.7006667,55.9208889 Z" id="Path" fill="#F35E60"></path>
                <path d="M63.7391111,62.3426667 L50.0388889,62.3426667 C49.4237778,62.3426667 48.9253333,61.844 48.9253333,61.2291111 C48.9253333,60.6142222 49.4237778,60.1155556 50.0388889,60.1155556 L63.7391111,60.1155556 C64.3542222,60.1155556 64.8526667,60.6142222 64.8526667,61.2291111 C64.8526667,61.844 64.354,62.3426667 63.7391111,62.3426667 Z" id="Path" fill="#F6C9CA"></path>
                <path d="M104.550222,67.3617778 L81.3817778,67.3617778 C80.1515556,67.3617778 79.1542222,66.3644444 79.1542222,65.1342222 L79.1542222,50.8717778 C79.1542222,49.6415556 80.1515556,48.6442222 81.3817778,48.6442222 L104.550222,48.6442222 C105.780444,48.6442222 106.777778,49.6415556 106.777778,50.8717778 L106.777778,65.1342222 C106.777778,66.3644444 105.780444,67.3617778 104.550222,67.3617778 Z" id="Path" fill="#F5F4F9"></path>
                <path d="M106.777778,55.9208889 L106.777778,50.8717778 C106.777778,49.6415556 105.780444,48.6442222 104.550222,48.6442222 L81.3817778,48.6442222 C80.1515556,48.6442222 79.1542222,49.6415556 79.1542222,50.8717778 L79.1542222,55.9208889 L106.777778,55.9208889 Z" id="Path" fill="#F35E60"></path>
                <path d="M99.8162222,62.3426667 L86.116,62.3426667 C85.5008889,62.3426667 85.0024444,61.844 85.0024444,61.2291111 C85.0024444,60.6142222 85.5008889,60.1155556 86.116,60.1155556 L99.8162222,60.1155556 C100.431333,60.1155556 100.929778,60.6142222 100.929778,61.2291111 C100.929778,61.844 100.431111,62.3426667 99.8162222,62.3426667 Z" id="Path" fill="#F6C9CA"></path>
                <path d="M87.8477778,75.1226667 L77.3746667,75.1226667 L77.3746667,74.7135556 C77.3746667,71.6448889 74.8782222,69.1484444 71.8095556,69.1484444 L41.968,69.1484444 C38.8993333,69.1484444 36.4028889,71.6448889 36.4028889,74.7135556 L36.4028889,75.1226667 L25.9297778,75.1226667 C24.6995556,75.1226667 23.7022222,76.12 23.7022222,77.3502222 L23.7022222,91.6126667 C23.7022222,92.8428889 24.6995556,93.8402222 25.9297778,93.8402222 L49.0982222,93.8402222 C50.3284444,93.8402222 51.3257778,92.8428889 51.3257778,91.6126667 L51.3257778,77.3502222 C51.3257778,76.12 50.3284444,75.1226667 49.0982222,75.1226667 L38.6251111,75.1226667 L38.6251111,74.7135556 C38.6251111,72.8702222 40.1246667,71.3706667 41.968,71.3706667 L71.8095556,71.3706667 C73.6528889,71.3706667 75.1524444,72.8702222 75.1524444,74.7135556 L75.1524444,75.1226667 L64.6793333,75.1226667 C63.4491111,75.1226667 62.4517778,76.12 62.4517778,77.3502222 L62.4517778,91.6126667 C62.4517778,92.8428889 63.4491111,93.8402222 64.6793333,93.8402222 L87.8477778,93.8402222 C89.078,93.8402222 90.0753333,92.8428889 90.0753333,91.6126667 L90.0753333,77.3502222 C90.0753333,76.12 89.078,75.1226667 87.8477778,75.1226667 L87.8477778,75.1226667 Z" id="Path" fill="#923C57" opacity="0.1"></path>
                <path d="M49.0982222,97.8402222 L25.93,97.8402222 C24.6997778,97.8402222 23.7024444,96.8428889 23.7024444,95.6126667 L23.7024444,81.3502222 C23.7024444,80.12 24.6997778,79.1226667 25.93,79.1226667 L49.0984444,79.1226667 C50.3286667,79.1226667 51.326,80.12 51.326,81.3502222 L51.326,95.6126667 C51.326,96.8428889 50.3286667,97.8402222 49.0982222,97.8402222 L49.0982222,97.8402222 Z" id="Path" fill="#F5F4F9"></path>
                <path d="M51.326,86.3993333 L51.326,81.3502222 C51.326,80.12 50.3286667,79.1226667 49.0984444,79.1226667 L25.93,79.1226667 C24.6997778,79.1226667 23.7024444,80.12 23.7024444,81.3502222 L23.7024444,86.3993333 L51.326,86.3993333 Z" id="Path" fill="#F3ABAE"></path>
                <path d="M44.3642222,92.8211111 L30.664,92.8211111 C30.0488889,92.8211111 29.5504444,92.3224444 29.5504444,91.7075556 C29.5504444,91.0926667 30.0488889,90.594 30.664,90.594 L44.3642222,90.594 C44.9793333,90.594 45.4777778,91.0926667 45.4777778,91.7075556 C45.4777778,92.3224444 44.9793333,92.8211111 44.3642222,92.8211111 Z" id="Path" fill="#E8AFB0"></path>
                <path d="M87.8477778,97.8402222 L64.6793333,97.8402222 C63.4491111,97.8402222 62.4517778,96.8428889 62.4517778,95.6126667 L62.4517778,81.3502222 C62.4517778,80.12 63.4491111,79.1226667 64.6793333,79.1226667 L87.8477778,79.1226667 C89.078,79.1226667 90.0753333,80.12 90.0753333,81.3502222 L90.0753333,95.6126667 C90.0753333,96.8428889 89.078,97.8402222 87.8477778,97.8402222 Z" id="Path" fill="#F5F4F9"></path>
                <path d="M90.0753333,86.3993333 L90.0753333,81.3502222 C90.0753333,80.12 89.078,79.1226667 87.8477778,79.1226667 L64.6795556,79.1226667 C63.4493333,79.1226667 62.452,80.12 62.452,81.3502222 L62.452,86.3993333 L90.0753333,86.3993333 Z" id="Path" fill="#F3ABAE"></path>
                <path d="M83.1137778,92.8211111 L69.4135556,92.8211111 C68.7984444,92.8211111 68.3,92.3224444 68.3,91.7075556 C68.3,91.0926667 68.7984444,90.594 69.4135556,90.594 L83.1137778,90.594 C83.7288889,90.594 84.2273333,91.0926667 84.2273333,91.7075556 C84.2273333,92.3224444 83.7288889,92.8211111 83.1137778,92.8211111 Z" id="Path" fill="#E8AFB0"></path>
                <path d="M104.550222,47.5331111 L94.0762222,47.5331111 C94.0568889,44.4808889 91.5686667,42.0035556 88.512,42.0035556 L58,42.0035556 L58,34.01 L71.8135556,34.01 C73.6544444,34.01 75.152,32.5122222 75.152,30.6713333 L75.152,17.5697778 C75.152,16.9562222 74.6546667,16.4586667 74.0408889,16.4586667 C73.4271111,16.4586667 72.9297778,16.9562222 72.9297778,17.5697778 L72.9297778,30.6713333 C72.9297778,31.2868889 72.4288889,31.7877778 71.8135556,31.7877778 L41.9642222,31.7877778 C41.3486667,31.7877778 40.8477778,31.2868889 40.8477778,30.6713333 L40.8477778,12.5475556 L74.0411111,12.5475556 C74.6548889,12.5475556 75.1522222,12.05 75.1522222,11.4364444 L75.1522222,6.38733333 C75.1522222,4.54644444 73.6546667,3.04866667 71.8137778,3.04866667 L41.9642222,3.04866667 C40.1233333,3.04866667 38.6255556,4.54644444 38.6255556,6.38733333 L38.6255556,30.6711111 C38.6255556,32.512 40.1233333,34.0097778 41.9642222,34.0097778 L55.7777778,34.0097778 L55.7777778,42.0033333 L25.2657778,42.0033333 C22.2091111,42.0033333 19.7208889,44.4806667 19.7015556,47.5328889 L9.22755556,47.5328889 C7.38666667,47.5328889 5.88888889,49.0306667 5.88888889,50.8715556 L5.88888889,65.134 C5.88888889,66.9748889 7.38666667,68.4726667 9.22755556,68.4726667 L32.396,68.4726667 C34.2368889,68.4726667 35.7346667,66.9748889 35.7346667,65.134 L35.7346667,50.8715556 C35.7346667,49.0306667 34.2368889,47.5328889 32.396,47.5328889 L21.9246667,47.5328889 C21.944,45.706 23.4344444,44.2255556 25.2657778,44.2255556 L55.7777778,44.2255556 L55.7777778,47.5328889 L45.3046667,47.5328889 C43.4637778,47.5328889 41.966,49.0306667 41.966,50.8715556 L41.966,65.134 C41.966,66.9748889 43.4637778,68.4726667 45.3046667,68.4726667 L55.7777778,68.4726667 L55.7777778,72.4817778 L41.968,72.4817778 C38.9113333,72.4817778 36.4231111,74.9591111 36.4037778,78.0113333 L25.9297778,78.0113333 C24.0888889,78.0113333 22.5911111,79.5091111 22.5911111,81.35 L22.5911111,95.6124444 C22.5911111,97.4533333 24.0888889,98.9511111 25.9297778,98.9511111 L49.0982222,98.9511111 C50.9391111,98.9511111 52.4368889,97.4533333 52.4368889,95.6124444 L52.4368889,81.35 C52.4368889,79.5088889 50.9391111,78.0113333 49.0982222,78.0113333 L38.6268889,78.0113333 C38.6462222,76.1844444 40.1366667,74.704 41.968,74.704 L71.8095556,74.704 C73.6408889,74.704 75.1313333,76.1844444 75.1506667,78.0113333 L64.6793333,78.0113333 C62.8384444,78.0113333 61.3406667,79.5091111 61.3406667,81.35 L61.3406667,95.6124444 C61.3406667,97.4533333 62.8384444,98.9511111 64.6793333,98.9511111 L87.8477778,98.9511111 C89.6886667,98.9511111 91.1862222,97.4533333 91.1862222,95.6124444 L91.1862222,81.35 C91.1862222,79.5088889 89.6886667,78.0113333 87.8477778,78.0113333 L77.3737778,78.0113333 C77.3544444,74.9591111 74.8662222,72.4817778 71.8095556,72.4817778 L58,72.4817778 L58,68.4726667 L68.4731111,68.4726667 C70.314,68.4726667 71.8117778,66.9748889 71.8117778,65.134 L71.8117778,50.8715556 C71.8117778,49.0306667 70.314,47.5328889 68.4731111,47.5328889 L58,47.5328889 L58,44.2255556 L88.512,44.2255556 C90.3433333,44.2255556 91.8337778,45.706 91.8531111,47.5328889 L81.3817778,47.5328889 C79.5408889,47.5328889 78.0433333,49.0306667 78.0433333,50.8715556 L78.0433333,65.134 C78.0433333,66.9748889 79.5408889,68.4726667 81.3817778,68.4726667 L104.550222,68.4726667 C106.391111,68.4726667 107.888889,66.9748889 107.888889,65.134 L107.888889,50.8715556 C107.888889,49.0308889 106.391111,47.5331111 104.550222,47.5331111 Z M40.8475556,6.38733333 C40.8475556,5.77177778 41.3486667,5.27088889 41.9642222,5.27088889 L71.8135556,5.27088889 C72.4291111,5.27088889 72.9297778,5.77177778 72.9297778,6.38733333 L72.9297778,10.3253333 L40.8475556,10.3253333 L40.8475556,6.38733333 L40.8475556,6.38733333 Z M32.396,66.2506667 L9.22755556,66.2506667 C8.612,66.2506667 8.11111111,65.7497778 8.11111111,65.1342222 L8.11111111,57.032 L33.5124444,57.032 L33.5124444,65.1342222 C33.5124444,65.7497778 33.0115556,66.2506667 32.396,66.2506667 Z M33.5124444,50.8717778 L33.5124444,54.8097778 L8.11111111,54.8097778 L8.11111111,50.8717778 C8.11111111,50.2562222 8.612,49.7553333 9.22755556,49.7553333 L32.396,49.7553333 C33.0115556,49.7553333 33.5124444,50.2562222 33.5124444,50.8717778 Z M50.2146667,81.3502222 L50.2146667,95.6126667 C50.2146667,96.2282222 49.7137778,96.7291111 49.0982222,96.7291111 L25.93,96.7291111 C25.3144444,96.7291111 24.8135556,96.2282222 24.8135556,95.6126667 L24.8135556,87.5104444 L45.1928889,87.5104444 C45.8064444,87.5104444 46.304,87.0128889 46.304,86.3993333 C46.304,85.7857778 45.8064444,85.2882222 45.1928889,85.2882222 L24.8135556,85.2882222 L24.8135556,81.3502222 C24.8135556,80.7344444 25.3144444,80.2337778 25.93,80.2337778 L49.0984444,80.2337778 C49.7137778,80.2337778 50.2146667,80.7346667 50.2146667,81.3502222 Z M87.8477778,96.7291111 L64.6795556,96.7291111 C64.0637778,96.7291111 63.5631111,96.2282222 63.5631111,95.6126667 L63.5631111,87.5104444 L88.9644444,87.5104444 L88.9644444,95.6126667 C88.9644444,96.2282222 88.4633333,96.7291111 87.8477778,96.7291111 Z M88.9642222,81.3502222 L88.9642222,85.2882222 L63.5628889,85.2882222 L63.5628889,81.3502222 C63.5628889,80.7344444 64.0637778,80.2337778 64.6793333,80.2337778 L87.8477778,80.2337778 C88.4633333,80.2337778 88.9642222,80.7346667 88.9642222,81.3502222 Z M68.4731111,66.2506667 L45.3046667,66.2506667 C44.6891111,66.2506667 44.1882222,65.7497778 44.1882222,65.1342222 L44.1882222,57.032 L69.5895556,57.032 L69.5895556,65.1342222 C69.5895556,65.7497778 69.0886667,66.2506667 68.4731111,66.2506667 Z M69.5895556,50.8717778 L69.5895556,54.8097778 L44.1882222,54.8097778 L44.1882222,50.8717778 C44.1882222,50.2562222 44.6891111,49.7553333 45.3046667,49.7553333 L68.4731111,49.7553333 C69.0886667,49.7553333 69.5895556,50.2562222 69.5895556,50.8717778 Z M81.3817778,49.7553333 L104.550222,49.7553333 C105.166,49.7553333 105.666667,50.2562222 105.666667,50.8717778 L105.666667,54.8097778 L80.2653333,54.8097778 L80.2653333,50.8717778 C80.2653333,50.2562222 80.7662222,49.7553333 81.3817778,49.7553333 Z M104.550222,66.2506667 L81.3817778,66.2506667 C80.7662222,66.2506667 80.2655556,65.7497778 80.2655556,65.1342222 L80.2655556,57.032 L105.666667,57.032 L105.666667,65.1342222 C105.666667,65.7497778 105.165778,66.2506667 104.550222,66.2506667 Z" id="Shape" stroke="#000000" stroke-width="0.3" fill="#000000"></path>
                <path d="M28.7753333,22.478 C28.1617778,22.478 27.6642222,21.9804444 27.6642222,21.3668889 C27.6642222,20.6288889 27.0637778,20.0284444 26.3257778,20.0284444 C25.7122222,20.0284444 25.2146667,19.5308889 25.2146667,18.9173333 C25.2146667,18.3037778 25.7122222,17.8062222 26.3257778,17.8062222 C27.0637778,17.8062222 27.6642222,17.2057778 27.6642222,16.4675556 C27.6642222,15.854 28.1617778,15.3564444 28.7753333,15.3564444 C29.3888889,15.3564444 29.8864444,15.854 29.8864444,16.4675556 C29.8864444,17.2057778 30.4868889,17.8062222 31.2248889,17.8062222 C31.8384444,17.8062222 32.336,18.3037778 32.336,18.9173333 C32.336,19.5308889 31.8384444,20.0284444 31.2248889,20.0284444 C30.4868889,20.0284444 29.8864444,20.6288889 29.8864444,21.3668889 C29.8864444,21.9804444 29.3888889,22.478 28.7753333,22.478 Z" id="Path" fill="#B90000"></path>
                <path d="M99.1108889,81.4448889 C98.4971111,81.4448889 97.9997778,80.9473333 97.9997778,80.3337778 C97.9997778,79.5957778 97.3993333,78.9953333 96.6611111,78.9953333 C96.0473333,78.9953333 95.55,78.4977778 95.55,77.8842222 C95.55,77.2706667 96.0473333,76.7731111 96.6611111,76.7731111 C97.3993333,76.7731111 97.9997778,76.1726667 97.9997778,75.4344444 C97.9997778,74.8208889 98.4971111,74.3233333 99.1108889,74.3233333 C99.7246667,74.3233333 100.222,74.8208889 100.222,75.4344444 C100.222,76.1726667 100.822444,76.7731111 101.560444,76.7731111 C102.174222,76.7731111 102.671556,77.2706667 102.671556,77.8842222 C102.671556,78.4977778 102.174222,78.9953333 101.560444,78.9953333 C100.822444,78.9953333 100.222,79.5957778 100.222,80.3337778 C100.222,80.9473333 99.7246667,81.4448889 99.1108889,81.4448889 Z" id="Path" fill="#B90000"></path>
                <path d="M82.5526667,37.7208889 C82.2684444,37.7208889 81.9837778,37.6124444 81.7671111,37.3955556 L79.3175556,34.946 C78.8835556,34.512 78.8835556,33.8084444 79.3175556,33.3746667 L81.7671111,30.9251111 C82.2006667,30.4913333 82.9046667,30.4913333 83.3382222,30.9251111 L85.7877778,33.3746667 C86.2217778,33.8086667 86.2217778,34.5122222 85.7877778,34.946 L83.3382222,37.3955556 C83.1215556,37.6122222 82.8371111,37.7208889 82.5526667,37.7208889 L82.5526667,37.7208889 Z M81.6744444,34.16 L82.5526667,35.0382222 L83.4308889,34.16 L82.5526667,33.2817778 L81.6744444,34.16 Z" id="Shape" fill="#FBCED7"></path>
                <path d="M15.2977778,89.9602222 C15.0133333,89.9602222 14.7291111,89.8517778 14.512,89.6348889 L12.0622222,87.1853333 C11.8537778,86.9768889 11.7368889,86.6944444 11.7368889,86.3995556 C11.7368889,86.1046667 11.854,85.8222222 12.0622222,85.6137778 L14.512,83.164 C14.7204444,82.9555556 15.0028889,82.8386667 15.2977778,82.8386667 C15.5924444,82.8386667 15.8751111,82.9557778 16.0835556,83.164 L18.5331111,85.6137778 C18.9671111,86.0477778 18.9671111,86.7513333 18.5331111,87.1851111 L16.0835556,89.6346667 C15.8664444,89.8515556 15.5822222,89.9602222 15.2977778,89.9602222 Z M14.4195556,86.3993333 L15.298,87.2777778 L16.1764444,86.3993333 L15.298,85.5208889 L14.4195556,86.3993333 Z" id="Shape" fill="#F6C9CA"></path>
                <circle id="Oval" fill="#B90000" cx="64.2222222" cy="18.8475556" r="3.13177778"></circle>
            </g>
        </g>
    </g>
</svg>