<?xml version="1.0" encoding="UTF-8"?>
<svg width="306px" height="307px" viewBox="0 0 306 307" version="1.1" xmlns="http://www.w3.org/2000/svg" xmlns:xlink="http://www.w3.org/1999/xlink">
    <!-- Generator: Sketch 63.1 (92452) - https://sketch.com -->
    <title>code</title>
    <desc>Created with Sketch.</desc>
    <defs>
        <circle id="path-1" cx="156.5" cy="157.5" r="112.5"></circle>
        <filter x="-17.1%" y="-16.2%" width="134.2%" height="134.2%" filterUnits="objectBoundingBox" id="filter-2">
            <feOffset dx="0" dy="2" in="SourceAlpha" result="shadowOffsetOuter1"></feOffset>
            <feGaussianBlur stdDeviation="12.5" in="shadowOffsetOuter1" result="shadowBlurOuter1"></feGaussianBlur>
            <feColorMatrix values="0 0 0 0 0   0 0 0 0 0   0 0 0 0 0  0 0 0 0.182419143 0" type="matrix" in="shadowBlurOuter1"></feColorMatrix>
        </filter>
    </defs>
    <g id="Page-1" stroke="none" stroke-width="1" fill="none" fill-rule="evenodd">
        <g id="code">
            <g id="Group-7">
                <g id="Group-15" transform="translate(153.000000, 153.500000) scale(1, -1) translate(-153.000000, -153.500000) ">
                    <path d="M297.447177,203.802524 C282.467036,248.777 246.488414,284.154692 201.141439,298.305473 L203.82196,306.897028 C251.894139,291.896 290.078445,254.4056 305.986042,206.646429 L297.447177,203.802524 Z M9.02514589,154.244031 L0.0266351883,154.080308 C0.00888465135,155.052504 0,156.025762 0,157 C0,207.017304 23.5597192,253.135822 62.793772,282.606164 L68.1988058,275.409942 C32.2518626,248.40858 9,205.419672 9,157 C9,156.079356 9.00840615,155.160676 9.02514589,154.244031 Z M158.530979,0.00736302147 L157,0 C124.598495,0 93.6477857,9.84645895 67.5876844,27.9317606 L72.7193493,35.3254076 C96.6366368,18.7273008 125.682352,9 157,9 C206.432326,9 250.204353,33.2346169 277.082995,70.4707623 L284.380756,65.2036303 C255.344468,24.9780958 209.011838,0.493041553 158.530979,0.00736302147 Z" id="Oval" fill="#B10000" fill-rule="nonzero"></path>
                    <path d="M52.9623014,90.5035618 L45.7940613,85.843215 C31.939435,107.154665 24.4500001,132.032796 24.4500001,158 C24.4500001,212.526701 57.6815245,260.877494 107.392232,280.952365 L110.594555,273.024715 C65.1011034,254.653261 33,210.075438 33,158 C33,133.106745 40.335293,109.92674 52.9623014,90.5035618 Z M157,34 C225.483309,34 281,89.516691 281,158 C281,166.081945 280.226811,173.983301 278.750367,181.634135 L287.145552,183.253818 C288.740543,174.988545 289.55,166.543778 289.55,158 C289.55,84.7946565 230.205344,25.4500001 157,25.4500001 L157,34 Z" id="Oval" fill="#B91919" fill-rule="nonzero"></path>
                    <g id="Oval">
                        <use fill="black" fill-opacity="1" filter="url(#filter-2)" xlink:href="#path-1"></use>
                        <use fill="#FFFFFF" fill-rule="evenodd" xlink:href="#path-1"></use>
                    </g>
                </g>
            </g>
            <g id="Group" transform="translate(65.000000, 89.000000)" fill="#262626" fill-rule="nonzero">
                <path d="M71.77,19.18 C72.65,19.18 73.4766667,19.05 74.25,18.79 C75.0233333,18.53 75.71,18.1533333 76.31,17.66 C76.4833333,17.5266667 76.6033333,17.3833333 76.67,17.23 C76.7366667,17.0766667 76.77,16.9 76.77,16.7 C76.77,16.4066667 76.69,16.16 76.53,15.96 C76.37,15.76 76.1766667,15.66 75.95,15.66 C75.8033333,15.66 75.6633333,15.6866667 75.53,15.74 C75.3966667,15.7933333 75.2633333,15.86 75.13,15.94 C74.5166667,16.3533333 73.9666667,16.6466667 73.48,16.82 C72.9933333,16.9933333 72.4633333,17.08 71.89,17.08 C70.5033333,17.08 69.4533333,16.6466667 68.74,15.78 C68.0266667,14.9133333 67.67,13.6333333 67.67,11.94 C67.67,10.26 68.0266667,8.98666667 68.74,8.12 C69.4533333,7.25333333 70.5033333,6.82 71.89,6.82 C72.49,6.82 73.0366667,6.90333333 73.53,7.07 C74.0233333,7.23666667 74.5566667,7.53333333 75.13,7.96 C75.41,8.14666667 75.6833333,8.24 75.95,8.24 C76.1766667,8.24 76.37,8.14 76.53,7.94 C76.69,7.74 76.77,7.49333333 76.77,7.2 C76.77,6.98666667 76.7366667,6.80666667 76.67,6.66 C76.6033333,6.51333333 76.4833333,6.37333333 76.31,6.24 C75.71,5.74666667 75.0233333,5.37 74.25,5.11 C73.4766667,4.85 72.65,4.72 71.77,4.72 C70.41,4.72 69.22,5.01333333 68.2,5.6 C67.18,6.18666667 66.3966667,7.02333333 65.85,8.11 C65.3033333,9.19666667 65.03,10.4733333 65.03,11.94 C65.03,13.4066667 65.3033333,14.6866667 65.85,15.78 C66.3966667,16.8733333 67.18,17.7133333 68.2,18.3 C69.22,18.8866667 70.41,19.18 71.77,19.18 Z M83.47,19.16 C84.47,19.16 85.3466667,18.9533333 86.1,18.54 C86.8533333,18.1266667 87.4333333,17.5333333 87.84,16.76 C88.2466667,15.9866667 88.45,15.0866667 88.45,14.06 C88.45,13.0333333 88.2466667,12.1366667 87.84,11.37 C87.4333333,10.6033333 86.8533333,10.0133333 86.1,9.6 C85.3466667,9.18666667 84.47,8.98 83.47,8.98 C82.47,8.98 81.5933333,9.18666667 80.84,9.6 C80.0866667,10.0133333 79.5033333,10.6033333 79.09,11.37 C78.6766667,12.1366667 78.47,13.0333333 78.47,14.06 C78.47,15.0866667 78.6766667,15.9866667 79.09,16.76 C79.5033333,17.5333333 80.0866667,18.1266667 80.84,18.54 C81.5933333,18.9533333 82.47,19.16 83.47,19.16 Z M83.45,17.22 C82.65,17.22 82.0366667,16.9533333 81.61,16.42 C81.1833333,15.8866667 80.97,15.1 80.97,14.06 C80.97,13.0333333 81.1866667,12.25 81.62,11.71 C82.0533333,11.17 82.67,10.9 83.47,10.9 C84.27,10.9 84.8833333,11.17 85.31,11.71 C85.7366667,12.25 85.95,13.0333333 85.95,14.06 C85.95,15.1 85.7366667,15.8866667 85.31,16.42 C84.8833333,16.9533333 84.2633333,17.22 83.45,17.22 Z M94.71,19.16 C95.4166667,19.16 96.0466667,19.0066667 96.6,18.7 C97.1533333,18.3933333 97.5766667,17.9666667 97.87,17.42 L97.87,17.42 L97.87,17.92 C97.87,18.28 97.9833333,18.5666667 98.21,18.78 C98.4366667,18.9933333 98.7366667,19.1 99.11,19.1 C99.4833333,19.1 99.7833333,18.9933333 100.01,18.78 C100.236667,18.5666667 100.35,18.28 100.35,17.92 L100.35,17.92 L100.35,5.96 C100.35,5.61333333 100.23,5.33333333 99.99,5.12 C99.75,4.90666667 99.4433333,4.8 99.07,4.8 C98.6966667,4.8 98.4,4.90333333 98.18,5.11 C97.96,5.31666667 97.85,5.58666667 97.85,5.92 L97.85,5.92 L97.85,10.66 C97.5566667,10.1266667 97.1366667,9.71333333 96.59,9.42 C96.0433333,9.12666667 95.4166667,8.98 94.71,8.98 C93.8566667,8.98 93.1033333,9.18666667 92.45,9.6 C91.7966667,10.0133333 91.2866667,10.6 90.92,11.36 C90.5533333,12.12 90.37,13.0066667 90.37,14.02 C90.37,15.0333333 90.5533333,15.93 90.92,16.71 C91.2866667,17.49 91.8,18.0933333 92.46,18.52 C93.12,18.9466667 93.87,19.16 94.71,19.16 Z M95.37,17.22 C94.5833333,17.22 93.97,16.94 93.53,16.38 C93.09,15.82 92.87,15.0333333 92.87,14.02 C92.87,13.02 93.09,12.2533333 93.53,11.72 C93.97,11.1866667 94.59,10.92 95.39,10.92 C96.1766667,10.92 96.7866667,11.19 97.22,11.73 C97.6533333,12.27 97.87,13.0466667 97.87,14.06 C97.87,15.0733333 97.6533333,15.8533333 97.22,16.4 C96.7866667,16.9466667 96.17,17.22 95.37,17.22 Z M107.91,19.16 C108.43,19.16 108.976667,19.0833333 109.55,18.93 C110.123333,18.7766667 110.636667,18.5733333 111.09,18.32 C111.583333,18.04 111.83,17.6933333 111.83,17.28 C111.83,16.9866667 111.76,16.7533333 111.62,16.58 C111.48,16.4066667 111.296667,16.32 111.07,16.32 C110.883333,16.32 110.59,16.4266667 110.19,16.64 C109.776667,16.8266667 109.406667,16.9733333 109.08,17.08 C108.753333,17.1866667 108.376667,17.24 107.95,17.24 C107.11,17.24 106.47,17.0233333 106.03,16.59 C105.59,16.1566667 105.33,15.48 105.25,14.56 L105.25,14.56 L111.15,14.56 C111.656667,14.56 111.91,14.2733333 111.91,13.7 C111.91,12.74 111.73,11.9066667 111.37,11.2 C111.01,10.4933333 110.503333,9.94666667 109.85,9.56 C109.196667,9.17333333 108.43,8.98 107.55,8.98 C106.63,8.98 105.806667,9.19333333 105.08,9.62 C104.353333,10.0466667 103.79,10.6466667 103.39,11.42 C102.99,12.1933333 102.79,13.08 102.79,14.08 C102.79,15.6533333 103.25,16.8933333 104.17,17.8 C105.09,18.7066667 106.336667,19.16 107.91,19.16 Z M109.77,13.22 L105.25,13.22 C105.33,12.42 105.573333,11.8066667 105.98,11.38 C106.386667,10.9533333 106.93,10.74 107.61,10.74 C108.276667,10.74 108.796667,10.95 109.17,11.37 C109.543333,11.79 109.743333,12.4066667 109.77,13.22 L109.77,13.22 Z" id="Code"></path>
                <path d="M10.064,51 C11.2586667,51 12.1813333,50.736 12.832,50.208 C13.4826667,49.68 13.808,48.92 13.808,47.928 C13.808,47.224 13.6293333,46.6373333 13.272,46.168 C12.9146667,45.6986667 12.4106667,45.3786667 11.76,45.208 C12.3253333,44.9946667 12.7653333,44.6693333 13.08,44.232 C13.3946667,43.7946667 13.552,43.272 13.552,42.664 C13.552,41.7253333 13.232,41 12.592,40.488 C11.952,39.976 11.0506667,39.72 9.888,39.72 L9.888,39.72 L6.032,39.72 C5.82933333,39.72 5.66666667,39.7786667 5.544,39.896 C5.42133333,40.0133333 5.36,40.168 5.36,40.36 L5.36,40.36 L5.36,50.36 C5.36,50.552 5.42133333,50.7066667 5.544,50.824 C5.66666667,50.9413333 5.82933333,51 6.032,51 L6.032,51 L10.064,51 Z M9.696,44.728 L6.656,44.728 L6.656,40.808 L9.696,40.808 C11.4026667,40.808 12.256,41.448 12.256,42.728 C12.256,43.3786667 12.04,43.8746667 11.608,44.216 C11.176,44.5573333 10.5386667,44.728 9.696,44.728 L9.696,44.728 Z M9.936,49.912 L6.656,49.912 L6.656,45.816 L9.936,45.816 C11.664,45.816 12.528,46.5093333 12.528,47.896 C12.528,48.5893333 12.3173333,49.0986667 11.896,49.424 C11.4746667,49.7493333 10.8213333,49.912 9.936,49.912 L9.936,49.912 Z M19.04,51.112 C19.5946667,51.112 20.0933333,50.9893333 20.536,50.744 C20.9786667,50.4986667 21.3226667,50.1413333 21.568,49.672 L21.568,49.672 L21.568,50.472 C21.568,50.6533333 21.624,50.8 21.736,50.912 C21.848,51.024 22,51.08 22.192,51.08 C22.3946667,51.08 22.552,51.0213333 22.664,50.904 C22.776,50.7866667 22.832,50.6373333 22.832,50.456 L22.832,50.456 L22.832,43.688 C22.832,43.496 22.776,43.3413333 22.664,43.224 C22.552,43.1066667 22.3946667,43.048 22.192,43.048 C21.9893333,43.048 21.8293333,43.1066667 21.712,43.224 C21.5946667,43.3413333 21.536,43.496 21.536,43.688 L21.536,43.688 L21.536,47.608 C21.536,48.3333333 21.328,48.9173333 20.912,49.36 C20.496,49.8026667 19.9466667,50.024 19.264,50.024 C18.6666667,50.024 18.2293333,49.8613333 17.952,49.536 C17.6746667,49.2106667 17.536,48.7013333 17.536,48.008 L17.536,48.008 L17.536,43.688 C17.536,43.496 17.48,43.3413333 17.368,43.224 C17.256,43.1066667 17.0986667,43.048 16.896,43.048 C16.6933333,43.048 16.5333333,43.1066667 16.416,43.224 C16.2986667,43.3413333 16.24,43.496 16.24,43.688 L16.24,43.688 L16.24,48.04 C16.24,49.0533333 16.4746667,49.8186667 16.944,50.336 C17.4133333,50.8533333 18.112,51.112 19.04,51.112 Z M26.224,41.368 C26.48,41.368 26.688,41.2933333 26.848,41.144 C27.008,40.9946667 27.088,40.7973333 27.088,40.552 C27.088,40.3173333 27.008,40.1253333 26.848,39.976 C26.688,39.8266667 26.48,39.752 26.224,39.752 C25.968,39.752 25.76,39.8266667 25.6,39.976 C25.44,40.1253333 25.36,40.3173333 25.36,40.552 C25.36,40.7973333 25.44,40.9946667 25.6,41.144 C25.76,41.2933333 25.968,41.368 26.224,41.368 Z M26.224,51.08 C26.416,51.08 26.5706667,51.0266667 26.688,50.92 C26.8053333,50.8133333 26.864,50.6533333 26.864,50.44 L26.864,50.44 L26.864,43.688 C26.864,43.4853333 26.8053333,43.328 26.688,43.216 C26.5706667,43.104 26.416,43.048 26.224,43.048 C26.032,43.048 25.8746667,43.104 25.752,43.216 C25.6293333,43.328 25.568,43.4853333 25.568,43.688 L25.568,43.688 L25.568,50.44 C25.568,50.6426667 25.6293333,50.8 25.752,50.912 C25.8746667,51.024 26.032,51.08 26.224,51.08 Z M30.256,51.08 C30.4373333,51.08 30.5893333,51.024 30.712,50.912 C30.8346667,50.8 30.896,50.6426667 30.896,50.44 L30.896,50.44 L30.896,40.28 C30.896,40.0773333 30.8346667,39.92 30.712,39.808 C30.5893333,39.696 30.4373333,39.64 30.256,39.64 C30.064,39.64 29.9066667,39.696 29.784,39.808 C29.6613333,39.92 29.6,40.0773333 29.6,40.28 L29.6,40.28 L29.6,50.44 C29.6,50.6426667 29.6613333,50.8 29.784,50.912 C29.9066667,51.024 30.064,51.08 30.256,51.08 Z M36.624,51.112 C37.232,51.112 37.7626667,50.9786667 38.216,50.712 C38.6693333,50.4453333 39.0133333,50.0666667 39.248,49.576 L39.248,49.576 L39.248,50.44 C39.248,50.632 39.304,50.7866667 39.416,50.904 C39.528,51.0213333 39.6853333,51.08 39.888,51.08 C40.0906667,51.08 40.2506667,51.0213333 40.368,50.904 C40.4853333,50.7866667 40.544,50.632 40.544,50.44 L40.544,50.44 L40.544,40.264 C40.544,40.0826667 40.4853333,39.9333333 40.368,39.816 C40.2506667,39.6986667 40.0906667,39.64 39.888,39.64 C39.6853333,39.64 39.528,39.696 39.416,39.808 C39.304,39.92 39.248,40.072 39.248,40.264 L39.248,40.264 L39.248,44.552 C39.0133333,44.0613333 38.6693333,43.6826667 38.216,43.416 C37.7626667,43.1493333 37.232,43.016 36.624,43.016 C35.9413333,43.016 35.3386667,43.1813333 34.816,43.512 C34.2933333,43.8426667 33.888,44.312 33.6,44.92 C33.312,45.528 33.168,46.232 33.168,47.032 C33.168,47.8426667 33.312,48.5546667 33.6,49.168 C33.888,49.7813333 34.2933333,50.2586667 34.816,50.6 C35.3386667,50.9413333 35.9413333,51.112 36.624,51.112 Z M36.88,50.04 C36.1226667,50.04 35.5333333,49.776 35.112,49.248 C34.6906667,48.72 34.48,47.9813333 34.48,47.032 C34.48,46.104 34.6906667,45.384 35.112,44.872 C35.5333333,44.36 36.1226667,44.104 36.88,44.104 C37.6373333,44.104 38.2213333,44.36 38.632,44.872 C39.0426667,45.384 39.248,46.1146667 39.248,47.064 C39.248,48.0133333 39.0426667,48.7466667 38.632,49.264 C38.2213333,49.7813333 37.6373333,50.04 36.88,50.04 Z M43.92,41.368 C44.176,41.368 44.384,41.2933333 44.544,41.144 C44.704,40.9946667 44.784,40.7973333 44.784,40.552 C44.784,40.3173333 44.704,40.1253333 44.544,39.976 C44.384,39.8266667 44.176,39.752 43.92,39.752 C43.664,39.752 43.456,39.8266667 43.296,39.976 C43.136,40.1253333 43.056,40.3173333 43.056,40.552 C43.056,40.7973333 43.136,40.9946667 43.296,41.144 C43.456,41.2933333 43.664,41.368 43.92,41.368 Z M43.92,51.08 C44.112,51.08 44.2666667,51.0266667 44.384,50.92 C44.5013333,50.8133333 44.56,50.6533333 44.56,50.44 L44.56,50.44 L44.56,43.688 C44.56,43.4853333 44.5013333,43.328 44.384,43.216 C44.2666667,43.104 44.112,43.048 43.92,43.048 C43.728,43.048 43.5706667,43.104 43.448,43.216 C43.3253333,43.328 43.264,43.4853333 43.264,43.688 L43.264,43.688 L43.264,50.44 C43.264,50.6426667 43.3253333,50.8 43.448,50.912 C43.5706667,51.024 43.728,51.08 43.92,51.08 Z M53.376,51.08 C53.5786667,51.08 53.736,51.024 53.848,50.912 C53.96,50.8 54.016,50.6426667 54.016,50.44 L54.016,50.44 L54.016,46.104 C54.016,44.0453333 53.0826667,43.016 51.216,43.016 C50.6293333,43.016 50.1066667,43.1413333 49.648,43.392 C49.1893333,43.6426667 48.832,44.008 48.576,44.488 L48.576,44.488 L48.576,43.672 C48.576,43.4906667 48.52,43.3413333 48.408,43.224 C48.296,43.1066667 48.144,43.048 47.952,43.048 C47.7493333,43.048 47.5893333,43.1066667 47.472,43.224 C47.3546667,43.3413333 47.296,43.496 47.296,43.688 L47.296,43.688 L47.296,50.44 C47.296,50.6426667 47.3546667,50.8 47.472,50.912 C47.5893333,51.024 47.7493333,51.08 47.952,51.08 C48.1546667,51.08 48.312,51.024 48.424,50.912 C48.536,50.8 48.592,50.6426667 48.592,50.44 L48.592,50.44 L48.592,46.536 C48.592,45.7893333 48.8053333,45.1973333 49.232,44.76 C49.6586667,44.3226667 50.2293333,44.104 50.944,44.104 C51.5626667,44.104 52.0133333,44.2693333 52.296,44.6 C52.5786667,44.9306667 52.72,45.4586667 52.72,46.184 L52.72,46.184 L52.72,50.44 C52.72,50.6426667 52.7786667,50.8 52.896,50.912 C53.0133333,51.024 53.1733333,51.08 53.376,51.08 Z M60.128,53.992 C61.3013333,53.992 62.1866667,53.696 62.784,53.104 C63.3813333,52.512 63.68,51.6346667 63.68,50.472 L63.68,50.472 L63.68,43.688 C63.68,43.496 63.6213333,43.3413333 63.504,43.224 C63.3866667,43.1066667 63.2266667,43.048 63.024,43.048 C62.8213333,43.048 62.664,43.1066667 62.552,43.224 C62.44,43.3413333 62.384,43.496 62.384,43.688 L62.384,43.688 L62.384,44.552 C62.1493333,44.0613333 61.8026667,43.6826667 61.344,43.416 C60.8853333,43.1493333 60.3466667,43.016 59.728,43.016 C59.0453333,43.016 58.44,43.176 57.912,43.496 C57.384,43.816 56.9733333,44.2693333 56.68,44.856 C56.3866667,45.4426667 56.24,46.12 56.24,46.888 C56.24,47.656 56.3866667,48.3333333 56.68,48.92 C56.9733333,49.5066667 57.384,49.96 57.912,50.28 C58.44,50.6 59.0453333,50.76 59.728,50.76 C60.3573333,50.76 60.904,50.6266667 61.368,50.36 C61.832,50.0933333 62.176,49.7093333 62.4,49.208 L62.4,49.208 L62.4,50.584 C62.4,51.352 62.208,51.936 61.824,52.336 C61.44,52.736 60.8693333,52.936 60.112,52.936 C59.6106667,52.936 59.1786667,52.8773333 58.816,52.76 C58.4533333,52.6426667 58.0853333,52.488 57.712,52.296 C57.4346667,52.1466667 57.2426667,52.072 57.136,52.072 C57.008,52.072 56.904,52.12 56.824,52.216 C56.744,52.312 56.704,52.4346667 56.704,52.584 C56.704,52.8613333 56.896,53.1066667 57.28,53.32 C58.0373333,53.768 58.9866667,53.992 60.128,53.992 Z M59.984,49.688 C59.2266667,49.688 58.632,49.44 58.2,48.944 C57.768,48.448 57.552,47.7626667 57.552,46.888 C57.552,46.024 57.768,45.344 58.2,44.848 C58.632,44.352 59.2266667,44.104 59.984,44.104 C60.7413333,44.104 61.3306667,44.352 61.752,44.848 C62.1733333,45.344 62.384,46.024 62.384,46.888 C62.384,47.7626667 62.1706667,48.448 61.744,48.944 C61.3173333,49.44 60.7306667,49.688 59.984,49.688 Z M73.328,51.112 C73.872,51.112 74.352,50.9866667 74.768,50.736 C75.184,50.4853333 75.4933333,50.1306667 75.696,49.672 L75.696,49.672 L75.696,50.44 C75.696,50.632 75.7546667,50.7866667 75.872,50.904 C75.9893333,51.0213333 76.144,51.08 76.336,51.08 C76.528,51.08 76.68,51.0213333 76.792,50.904 C76.904,50.7866667 76.96,50.632 76.96,50.44 L76.96,50.44 L76.96,46.088 C76.96,44.04 75.984,43.016 74.032,43.016 C73.5626667,43.016 73.0906667,43.0773333 72.616,43.2 C72.1413333,43.3226667 71.7173333,43.4906667 71.344,43.704 C71.1413333,43.8213333 70.9946667,43.936 70.904,44.048 C70.8133333,44.16 70.768,44.2906667 70.768,44.44 C70.768,44.5893333 70.8106667,44.712 70.896,44.808 C70.9813333,44.904 71.088,44.952 71.216,44.952 C71.3333333,44.952 71.536,44.8613333 71.824,44.68 C72.5706667,44.2853333 73.3066667,44.088 74.032,44.088 C74.6186667,44.088 75.0426667,44.2373333 75.304,44.536 C75.5653333,44.8346667 75.696,45.304 75.696,45.944 L75.696,45.944 L75.696,46.472 L75.344,46.472 C74.128,46.472 73.1786667,46.544 72.496,46.688 C71.8133333,46.832 71.3226667,47.0666667 71.024,47.392 C70.7253333,47.7173333 70.576,48.1733333 70.576,48.76 C70.576,49.1973333 70.6986667,49.5973333 70.944,49.96 C71.1893333,50.3226667 71.5226667,50.6053333 71.944,50.808 C72.3653333,51.0106667 72.8266667,51.112 73.328,51.112 Z M73.504,50.088 C73.0453333,50.088 72.664,49.952 72.36,49.68 C72.056,49.408 71.904,49.064 71.904,48.648 C71.904,48.2853333 72.008,48.0106667 72.216,47.824 C72.424,47.6373333 72.7733333,47.504 73.264,47.424 C73.7546667,47.344 74.4693333,47.304 75.408,47.304 L75.408,47.304 L75.696,47.304 L75.696,47.768 C75.696,48.4506667 75.4906667,49.008 75.08,49.44 C74.6693333,49.872 74.144,50.088 73.504,50.088 Z M80.304,51.08 C80.4853333,51.08 80.6373333,51.024 80.76,50.912 C80.8826667,50.8 80.944,50.6426667 80.944,50.44 L80.944,50.44 L80.944,40.28 C80.944,40.0773333 80.8826667,39.92 80.76,39.808 C80.6373333,39.696 80.4853333,39.64 80.304,39.64 C80.112,39.64 79.9546667,39.696 79.832,39.808 C79.7093333,39.92 79.648,40.0773333 79.648,40.28 L79.648,40.28 L79.648,50.44 C79.648,50.6426667 79.7093333,50.8 79.832,50.912 C79.9546667,51.024 80.112,51.08 80.304,51.08 Z M84.336,51.08 C84.5173333,51.08 84.6693333,51.024 84.792,50.912 C84.9146667,50.8 84.976,50.6426667 84.976,50.44 L84.976,50.44 L84.976,40.28 C84.976,40.0773333 84.9146667,39.92 84.792,39.808 C84.6693333,39.696 84.5173333,39.64 84.336,39.64 C84.144,39.64 83.9866667,39.696 83.864,39.808 C83.7413333,39.92 83.68,40.0773333 83.68,40.28 L83.68,40.28 L83.68,50.44 C83.68,50.6426667 83.7413333,50.8 83.864,50.912 C83.9866667,51.024 84.144,51.08 84.336,51.08 Z M95.52,51.08 C95.7866667,51.1013333 95.9866667,51.0666667 96.12,50.976 C96.2533333,50.8853333 96.32,50.7493333 96.32,50.568 C96.32,50.2586667 96.1333333,50.088 95.76,50.056 L95.76,50.056 L95.328,50.024 C94.848,49.992 94.488,49.8453333 94.248,49.584 C94.008,49.3226667 93.888,48.8986667 93.888,48.312 L93.888,48.312 L93.888,44.232 L95.664,44.232 C95.8346667,44.232 95.9706667,44.1866667 96.072,44.096 C96.1733333,44.0053333 96.224,43.8853333 96.224,43.736 C96.224,43.576 96.1733333,43.448 96.072,43.352 C95.9706667,43.256 95.8346667,43.208 95.664,43.208 L95.664,43.208 L93.888,43.208 L93.888,41.4 C93.888,41.1973333 93.8293333,41.04 93.712,40.928 C93.5946667,40.816 93.44,40.76 93.248,40.76 C93.0453333,40.76 92.8853333,40.816 92.768,40.928 C92.6506667,41.04 92.592,41.1973333 92.592,41.4 L92.592,41.4 L92.592,43.208 L91.52,43.208 C91.3386667,43.208 91.1973333,43.256 91.096,43.352 C90.9946667,43.448 90.944,43.576 90.944,43.736 C90.944,43.8853333 90.9946667,44.0053333 91.096,44.096 C91.1973333,44.1866667 91.3386667,44.232 91.52,44.232 L91.52,44.232 L92.592,44.232 L92.592,48.248 C92.592,49.1546667 92.7946667,49.832 93.2,50.28 C93.6053333,50.728 94.2346667,50.984 95.088,51.048 L95.088,51.048 L95.52,51.08 Z M104,51.08 C104.192,51.08 104.346667,51.024 104.464,50.912 C104.581333,50.8 104.64,50.6426667 104.64,50.44 L104.64,50.44 L104.64,46.104 C104.64,45.08 104.405333,44.3093333 103.936,43.792 C103.466667,43.2746667 102.773333,43.016 101.856,43.016 C101.269333,43.016 100.746667,43.1386667 100.288,43.384 C99.8293333,43.6293333 99.472,43.9866667 99.216,44.456 L99.216,44.456 L99.216,40.264 C99.216,40.072 99.16,39.92 99.048,39.808 C98.936,39.696 98.7786667,39.64 98.576,39.64 C98.384,39.64 98.2266667,39.6986667 98.104,39.816 C97.9813333,39.9333333 97.92,40.0826667 97.92,40.264 L97.92,40.264 L97.92,50.44 C97.92,50.6426667 97.9786667,50.8 98.096,50.912 C98.2133333,51.024 98.3733333,51.08 98.576,51.08 C98.7786667,51.08 98.936,51.024 99.048,50.912 C99.16,50.8 99.216,50.6426667 99.216,50.44 L99.216,50.44 L99.216,46.536 C99.216,45.7893333 99.4293333,45.1973333 99.856,44.76 C100.282667,44.3226667 100.853333,44.104 101.568,44.104 C102.186667,44.104 102.637333,44.2693333 102.92,44.6 C103.202667,44.9306667 103.344,45.4426667 103.344,46.136 L103.344,46.136 L103.344,50.44 C103.344,50.6426667 103.402667,50.8 103.52,50.912 C103.637333,51.024 103.797333,51.08 104,51.08 Z M110.768,51.112 C111.173333,51.112 111.589333,51.056 112.016,50.944 C112.442667,50.832 112.848,50.664 113.232,50.44 C113.605333,50.216 113.792,49.9706667 113.792,49.704 C113.792,49.5546667 113.749333,49.432 113.664,49.336 C113.578667,49.24 113.477333,49.192 113.36,49.192 C113.264,49.192 113.077333,49.272 112.8,49.432 C112.458667,49.624 112.138667,49.776 111.84,49.888 C111.541333,50 111.184,50.056 110.768,50.056 C109.125333,50.056 108.256,49.1386667 108.16,47.304 L108.16,47.304 L113.312,47.304 C113.504,47.304 113.642667,47.256 113.728,47.16 C113.813333,47.064 113.856,46.9093333 113.856,46.696 C113.856,45.5653333 113.557333,44.6693333 112.96,44.008 C112.362667,43.3466667 111.557333,43.016 110.544,43.016 C109.829333,43.016 109.192,43.1866667 108.632,43.528 C108.072,43.8693333 107.637333,44.3466667 107.328,44.96 C107.018667,45.5733333 106.864,46.28 106.864,47.08 C106.864,48.3386667 107.213333,49.3253333 107.912,50.04 C108.610667,50.7546667 109.562667,51.112 110.768,51.112 Z M112.72,46.472 L108.192,46.472 C108.266667,45.6933333 108.509333,45.0906667 108.92,44.664 C109.330667,44.2373333 109.877333,44.024 110.56,44.024 C111.232,44.024 111.754667,44.2346667 112.128,44.656 C112.501333,45.0773333 112.698667,45.6826667 112.72,46.472 L112.72,46.472 Z M123.744,51.112 C124.170667,51.112 124.594667,51.0506667 125.016,50.928 C125.437333,50.8053333 125.797333,50.6426667 126.096,50.44 C126.298667,50.3013333 126.437333,50.176 126.512,50.064 C126.586667,49.952 126.624,49.8266667 126.624,49.688 C126.624,49.5386667 126.584,49.416 126.504,49.32 C126.424,49.224 126.325333,49.176 126.208,49.176 C126.133333,49.176 126.042667,49.2026667 125.936,49.256 C125.829333,49.3093333 125.717333,49.3733333 125.6,49.448 C125.333333,49.6293333 125.069333,49.7733333 124.808,49.88 C124.546667,49.9866667 124.234667,50.04 123.872,50.04 C123.093333,50.04 122.488,49.784 122.056,49.272 C121.624,48.76 121.408,48.0346667 121.408,47.096 C121.408,46.1573333 121.624,45.424 122.056,44.896 C122.488,44.368 123.093333,44.104 123.872,44.104 C124.234667,44.104 124.541333,44.1573333 124.792,44.264 C125.042667,44.3706667 125.306667,44.5146667 125.584,44.696 C125.605333,44.7066667 125.645333,44.7333333 125.704,44.776 C125.762667,44.8186667 125.834667,44.8613333 125.92,44.904 C126.005333,44.9466667 126.085333,44.968 126.16,44.968 C126.288,44.968 126.392,44.92 126.472,44.824 C126.552,44.728 126.592,44.6053333 126.592,44.456 C126.592,44.3066667 126.552,44.1706667 126.472,44.048 C126.392,43.9253333 126.256,43.8 126.064,43.672 C125.765333,43.4586667 125.416,43.296 125.016,43.184 C124.616,43.072 124.213333,43.016 123.808,43.016 C123.072,43.016 122.421333,43.1866667 121.856,43.528 C121.290667,43.8693333 120.850667,44.3493333 120.536,44.968 C120.221333,45.5866667 120.064,46.296 120.064,47.096 C120.064,47.896 120.216,48.6 120.52,49.208 C120.824,49.816 121.256,50.2853333 121.816,50.616 C122.376,50.9466667 123.018667,51.112 123.744,51.112 Z M129.168,51.08 C129.36,51.08 129.514667,51.0266667 129.632,50.92 C129.749333,50.8133333 129.808,50.6533333 129.808,50.44 L129.808,50.44 L129.808,46.552 C129.808,45.9546667 129.981333,45.4346667 130.328,44.992 C130.674667,44.5493333 131.205333,44.296 131.92,44.232 L131.92,44.232 L132.4,44.184 C132.634667,44.1626667 132.8,44.1013333 132.896,44 C132.992,43.8986667 133.04,43.7626667 133.04,43.592 C133.04,43.1973333 132.816,43.016 132.368,43.048 L132.368,43.048 L132.144,43.064 C131.610667,43.1066667 131.138667,43.2506667 130.728,43.496 C130.317333,43.7413333 130,44.0986667 129.776,44.568 L129.776,44.568 L129.776,43.672 C129.776,43.48 129.717333,43.328 129.6,43.216 C129.482667,43.104 129.338667,43.048 129.168,43.048 C128.986667,43.048 128.832,43.104 128.704,43.216 C128.576,43.328 128.512,43.4853333 128.512,43.688 L128.512,43.688 L128.512,50.44 C128.512,50.6426667 128.573333,50.8 128.696,50.912 C128.818667,51.024 128.976,51.08 129.168,51.08 Z M135.136,41.368 C135.392,41.368 135.6,41.2933333 135.76,41.144 C135.92,40.9946667 136,40.7973333 136,40.552 C136,40.3173333 135.92,40.1253333 135.76,39.976 C135.6,39.8266667 135.392,39.752 135.136,39.752 C134.88,39.752 134.672,39.8266667 134.512,39.976 C134.352,40.1253333 134.272,40.3173333 134.272,40.552 C134.272,40.7973333 134.352,40.9946667 134.512,41.144 C134.672,41.2933333 134.88,41.368 135.136,41.368 Z M135.136,51.08 C135.328,51.08 135.482667,51.0266667 135.6,50.92 C135.717333,50.8133333 135.776,50.6533333 135.776,50.44 L135.776,50.44 L135.776,43.688 C135.776,43.4853333 135.717333,43.328 135.6,43.216 C135.482667,43.104 135.328,43.048 135.136,43.048 C134.944,43.048 134.786667,43.104 134.664,43.216 C134.541333,43.328 134.48,43.4853333 134.48,43.688 L134.48,43.688 L134.48,50.44 C134.48,50.6426667 134.541333,50.8 134.664,50.912 C134.786667,51.024 134.944,51.08 135.136,51.08 Z M142,51.08 C142.266667,51.1013333 142.466667,51.0666667 142.6,50.976 C142.733333,50.8853333 142.8,50.7493333 142.8,50.568 C142.8,50.2586667 142.613333,50.088 142.24,50.056 L142.24,50.056 L141.808,50.024 C141.328,49.992 140.968,49.8453333 140.728,49.584 C140.488,49.3226667 140.368,48.8986667 140.368,48.312 L140.368,48.312 L140.368,44.232 L142.144,44.232 C142.314667,44.232 142.450667,44.1866667 142.552,44.096 C142.653333,44.0053333 142.704,43.8853333 142.704,43.736 C142.704,43.576 142.653333,43.448 142.552,43.352 C142.450667,43.256 142.314667,43.208 142.144,43.208 L142.144,43.208 L140.368,43.208 L140.368,41.4 C140.368,41.1973333 140.309333,41.04 140.192,40.928 C140.074667,40.816 139.92,40.76 139.728,40.76 C139.525333,40.76 139.365333,40.816 139.248,40.928 C139.130667,41.04 139.072,41.1973333 139.072,41.4 L139.072,41.4 L139.072,43.208 L138,43.208 C137.818667,43.208 137.677333,43.256 137.576,43.352 C137.474667,43.448 137.424,43.576 137.424,43.736 C137.424,43.8853333 137.474667,44.0053333 137.576,44.096 C137.677333,44.1866667 137.818667,44.232 138,44.232 L138,44.232 L139.072,44.232 L139.072,48.248 C139.072,49.1546667 139.274667,49.832 139.68,50.28 C140.085333,50.728 140.714667,50.984 141.568,51.048 L141.568,51.048 L142,51.08 Z M145.056,41.368 C145.312,41.368 145.52,41.2933333 145.68,41.144 C145.84,40.9946667 145.92,40.7973333 145.92,40.552 C145.92,40.3173333 145.84,40.1253333 145.68,39.976 C145.52,39.8266667 145.312,39.752 145.056,39.752 C144.8,39.752 144.592,39.8266667 144.432,39.976 C144.272,40.1253333 144.192,40.3173333 144.192,40.552 C144.192,40.7973333 144.272,40.9946667 144.432,41.144 C144.592,41.2933333 144.8,41.368 145.056,41.368 Z M145.056,51.08 C145.248,51.08 145.402667,51.0266667 145.52,50.92 C145.637333,50.8133333 145.696,50.6533333 145.696,50.44 L145.696,50.44 L145.696,43.688 C145.696,43.4853333 145.637333,43.328 145.52,43.216 C145.402667,43.104 145.248,43.048 145.056,43.048 C144.864,43.048 144.706667,43.104 144.584,43.216 C144.461333,43.328 144.4,43.4853333 144.4,43.688 L144.4,43.688 L144.4,50.44 C144.4,50.6426667 144.461333,50.8 144.584,50.912 C144.706667,51.024 144.864,51.08 145.056,51.08 Z M151.648,51.112 C152.074667,51.112 152.498667,51.0506667 152.92,50.928 C153.341333,50.8053333 153.701333,50.6426667 154,50.44 C154.202667,50.3013333 154.341333,50.176 154.416,50.064 C154.490667,49.952 154.528,49.8266667 154.528,49.688 C154.528,49.5386667 154.488,49.416 154.408,49.32 C154.328,49.224 154.229333,49.176 154.112,49.176 C154.037333,49.176 153.946667,49.2026667 153.84,49.256 C153.733333,49.3093333 153.621333,49.3733333 153.504,49.448 C153.237333,49.6293333 152.973333,49.7733333 152.712,49.88 C152.450667,49.9866667 152.138667,50.04 151.776,50.04 C150.997333,50.04 150.392,49.784 149.96,49.272 C149.528,48.76 149.312,48.0346667 149.312,47.096 C149.312,46.1573333 149.528,45.424 149.96,44.896 C150.392,44.368 150.997333,44.104 151.776,44.104 C152.138667,44.104 152.445333,44.1573333 152.696,44.264 C152.946667,44.3706667 153.210667,44.5146667 153.488,44.696 C153.509333,44.7066667 153.549333,44.7333333 153.608,44.776 C153.666667,44.8186667 153.738667,44.8613333 153.824,44.904 C153.909333,44.9466667 153.989333,44.968 154.064,44.968 C154.192,44.968 154.296,44.92 154.376,44.824 C154.456,44.728 154.496,44.6053333 154.496,44.456 C154.496,44.3066667 154.456,44.1706667 154.376,44.048 C154.296,43.9253333 154.16,43.8 153.968,43.672 C153.669333,43.4586667 153.32,43.296 152.92,43.184 C152.52,43.072 152.117333,43.016 151.712,43.016 C150.976,43.016 150.325333,43.1866667 149.76,43.528 C149.194667,43.8693333 148.754667,44.3493333 148.44,44.968 C148.125333,45.5866667 147.968,46.296 147.968,47.096 C147.968,47.896 148.12,48.6 148.424,49.208 C148.728,49.816 149.16,50.2853333 149.72,50.616 C150.28,50.9466667 150.922667,51.112 151.648,51.112 Z M158.896,51.112 C159.44,51.112 159.92,50.9866667 160.336,50.736 C160.752,50.4853333 161.061333,50.1306667 161.264,49.672 L161.264,49.672 L161.264,50.44 C161.264,50.632 161.322667,50.7866667 161.44,50.904 C161.557333,51.0213333 161.712,51.08 161.904,51.08 C162.096,51.08 162.248,51.0213333 162.36,50.904 C162.472,50.7866667 162.528,50.632 162.528,50.44 L162.528,50.44 L162.528,46.088 C162.528,44.04 161.552,43.016 159.6,43.016 C159.130667,43.016 158.658667,43.0773333 158.184,43.2 C157.709333,43.3226667 157.285333,43.4906667 156.912,43.704 C156.709333,43.8213333 156.562667,43.936 156.472,44.048 C156.381333,44.16 156.336,44.2906667 156.336,44.44 C156.336,44.5893333 156.378667,44.712 156.464,44.808 C156.549333,44.904 156.656,44.952 156.784,44.952 C156.901333,44.952 157.104,44.8613333 157.392,44.68 C158.138667,44.2853333 158.874667,44.088 159.6,44.088 C160.186667,44.088 160.610667,44.2373333 160.872,44.536 C161.133333,44.8346667 161.264,45.304 161.264,45.944 L161.264,45.944 L161.264,46.472 L160.912,46.472 C159.696,46.472 158.746667,46.544 158.064,46.688 C157.381333,46.832 156.890667,47.0666667 156.592,47.392 C156.293333,47.7173333 156.144,48.1733333 156.144,48.76 C156.144,49.1973333 156.266667,49.5973333 156.512,49.96 C156.757333,50.3226667 157.090667,50.6053333 157.512,50.808 C157.933333,51.0106667 158.394667,51.112 158.896,51.112 Z M159.072,50.088 C158.613333,50.088 158.232,49.952 157.928,49.68 C157.624,49.408 157.472,49.064 157.472,48.648 C157.472,48.2853333 157.576,48.0106667 157.784,47.824 C157.992,47.6373333 158.341333,47.504 158.832,47.424 C159.322667,47.344 160.037333,47.304 160.976,47.304 L160.976,47.304 L161.264,47.304 L161.264,47.768 C161.264,48.4506667 161.058667,49.008 160.648,49.44 C160.237333,49.872 159.712,50.088 159.072,50.088 Z M165.872,51.08 C166.053333,51.08 166.205333,51.024 166.328,50.912 C166.450667,50.8 166.512,50.6426667 166.512,50.44 L166.512,50.44 L166.512,40.28 C166.512,40.0773333 166.450667,39.92 166.328,39.808 C166.205333,39.696 166.053333,39.64 165.872,39.64 C165.68,39.64 165.522667,39.696 165.4,39.808 C165.277333,39.92 165.216,40.0773333 165.216,40.28 L165.216,40.28 L165.216,50.44 C165.216,50.6426667 165.277333,50.8 165.4,50.912 C165.522667,51.024 165.68,51.08 165.872,51.08 Z M169.568,52.824 C169.706667,52.824 169.829333,52.7653333 169.936,52.648 C170.48,52.072 170.752,51.3626667 170.752,50.52 C170.752,50.104 170.669333,49.792 170.504,49.584 C170.338667,49.376 170.122667,49.272 169.856,49.272 C169.610667,49.272 169.405333,49.3573333 169.24,49.528 C169.074667,49.6986667 168.992,49.9173333 168.992,50.184 C168.992,50.4293333 169.069333,50.6293333 169.224,50.784 C169.378667,50.9386667 169.573333,51.0266667 169.808,51.048 C169.733333,51.4746667 169.557333,51.832 169.28,52.12 C169.194667,52.2053333 169.152,52.3066667 169.152,52.424 C169.152,52.5306667 169.194667,52.624 169.28,52.704 C169.365333,52.784 169.461333,52.824 169.568,52.824 Z M6.56,75.08 C6.82666667,75.1013333 7.02666667,75.0666667 7.16,74.976 C7.29333333,74.8853333 7.36,74.7493333 7.36,74.568 C7.36,74.2586667 7.17333333,74.088 6.8,74.056 L6.8,74.056 L6.368,74.024 C5.888,73.992 5.528,73.8453333 5.288,73.584 C5.048,73.3226667 4.928,72.8986667 4.928,72.312 L4.928,72.312 L4.928,68.232 L6.704,68.232 C6.87466667,68.232 7.01066667,68.1866667 7.112,68.096 C7.21333333,68.0053333 7.264,67.8853333 7.264,67.736 C7.264,67.576 7.21333333,67.448 7.112,67.352 C7.01066667,67.256 6.87466667,67.208 6.704,67.208 L6.704,67.208 L4.928,67.208 L4.928,65.4 C4.928,65.1973333 4.86933333,65.04 4.752,64.928 C4.63466667,64.816 4.48,64.76 4.288,64.76 C4.08533333,64.76 3.92533333,64.816 3.808,64.928 C3.69066667,65.04 3.632,65.1973333 3.632,65.4 L3.632,65.4 L3.632,67.208 L2.56,67.208 C2.37866667,67.208 2.23733333,67.256 2.136,67.352 C2.03466667,67.448 1.984,67.576 1.984,67.736 C1.984,67.8853333 2.03466667,68.0053333 2.136,68.096 C2.23733333,68.1866667 2.37866667,68.232 2.56,68.232 L2.56,68.232 L3.632,68.232 L3.632,72.248 C3.632,73.1546667 3.83466667,73.832 4.24,74.28 C4.64533333,74.728 5.27466667,74.984 6.128,75.048 L6.128,75.048 L6.56,75.08 Z M12.4,75.112 C12.8053333,75.112 13.2213333,75.056 13.648,74.944 C14.0746667,74.832 14.48,74.664 14.864,74.44 C15.2373333,74.216 15.424,73.9706667 15.424,73.704 C15.424,73.5546667 15.3813333,73.432 15.296,73.336 C15.2106667,73.24 15.1093333,73.192 14.992,73.192 C14.896,73.192 14.7093333,73.272 14.432,73.432 C14.0906667,73.624 13.7706667,73.776 13.472,73.888 C13.1733333,74 12.816,74.056 12.4,74.056 C10.7573333,74.056 9.888,73.1386667 9.792,71.304 L9.792,71.304 L14.944,71.304 C15.136,71.304 15.2746667,71.256 15.36,71.16 C15.4453333,71.064 15.488,70.9093333 15.488,70.696 C15.488,69.5653333 15.1893333,68.6693333 14.592,68.008 C13.9946667,67.3466667 13.1893333,67.016 12.176,67.016 C11.4613333,67.016 10.824,67.1866667 10.264,67.528 C9.704,67.8693333 9.26933333,68.3466667 8.96,68.96 C8.65066667,69.5733333 8.496,70.28 8.496,71.08 C8.496,72.3386667 8.84533333,73.3253333 9.544,74.04 C10.2426667,74.7546667 11.1946667,75.112 12.4,75.112 Z M14.352,70.472 L9.824,70.472 C9.89866667,69.6933333 10.1413333,69.0906667 10.552,68.664 C10.9626667,68.2373333 11.5093333,68.024 12.192,68.024 C12.864,68.024 13.3866667,68.2346667 13.76,68.656 C14.1333333,69.0773333 14.3306667,69.6826667 14.352,70.472 L14.352,70.472 Z M20.928,75.112 C21.3546667,75.112 21.7786667,75.0506667 22.2,74.928 C22.6213333,74.8053333 22.9813333,74.6426667 23.28,74.44 C23.4826667,74.3013333 23.6213333,74.176 23.696,74.064 C23.7706667,73.952 23.808,73.8266667 23.808,73.688 C23.808,73.5386667 23.768,73.416 23.688,73.32 C23.608,73.224 23.5093333,73.176 23.392,73.176 C23.3173333,73.176 23.2266667,73.2026667 23.12,73.256 C23.0133333,73.3093333 22.9013333,73.3733333 22.784,73.448 C22.5173333,73.6293333 22.2533333,73.7733333 21.992,73.88 C21.7306667,73.9866667 21.4186667,74.04 21.056,74.04 C20.2773333,74.04 19.672,73.784 19.24,73.272 C18.808,72.76 18.592,72.0346667 18.592,71.096 C18.592,70.1573333 18.808,69.424 19.24,68.896 C19.672,68.368 20.2773333,68.104 21.056,68.104 C21.4186667,68.104 21.7253333,68.1573333 21.976,68.264 C22.2266667,68.3706667 22.4906667,68.5146667 22.768,68.696 C22.7893333,68.7066667 22.8293333,68.7333333 22.888,68.776 C22.9466667,68.8186667 23.0186667,68.8613333 23.104,68.904 C23.1893333,68.9466667 23.2693333,68.968 23.344,68.968 C23.472,68.968 23.576,68.92 23.656,68.824 C23.736,68.728 23.776,68.6053333 23.776,68.456 C23.776,68.3066667 23.736,68.1706667 23.656,68.048 C23.576,67.9253333 23.44,67.8 23.248,67.672 C22.9493333,67.4586667 22.6,67.296 22.2,67.184 C21.8,67.072 21.3973333,67.016 20.992,67.016 C20.256,67.016 19.6053333,67.1866667 19.04,67.528 C18.4746667,67.8693333 18.0346667,68.3493333 17.72,68.968 C17.4053333,69.5866667 17.248,70.296 17.248,71.096 C17.248,71.896 17.4,72.6 17.704,73.208 C18.008,73.816 18.44,74.2853333 19,74.616 C19.56,74.9466667 20.2026667,75.112 20.928,75.112 Z M31.776,75.08 C31.968,75.08 32.1226667,75.024 32.24,74.912 C32.3573333,74.8 32.416,74.6426667 32.416,74.44 L32.416,74.44 L32.416,70.104 C32.416,69.08 32.1813333,68.3093333 31.712,67.792 C31.2426667,67.2746667 30.5493333,67.016 29.632,67.016 C29.0453333,67.016 28.5226667,67.1386667 28.064,67.384 C27.6053333,67.6293333 27.248,67.9866667 26.992,68.456 L26.992,68.456 L26.992,64.264 C26.992,64.072 26.936,63.92 26.824,63.808 C26.712,63.696 26.5546667,63.64 26.352,63.64 C26.16,63.64 26.0026667,63.6986667 25.88,63.816 C25.7573333,63.9333333 25.696,64.0826667 25.696,64.264 L25.696,64.264 L25.696,74.44 C25.696,74.6426667 25.7546667,74.8 25.872,74.912 C25.9893333,75.024 26.1493333,75.08 26.352,75.08 C26.5546667,75.08 26.712,75.024 26.824,74.912 C26.936,74.8 26.992,74.6426667 26.992,74.44 L26.992,74.44 L26.992,70.536 C26.992,69.7893333 27.2053333,69.1973333 27.632,68.76 C28.0586667,68.3226667 28.6293333,68.104 29.344,68.104 C29.9626667,68.104 30.4133333,68.2693333 30.696,68.6 C30.9786667,68.9306667 31.12,69.4426667 31.12,70.136 L31.12,70.136 L31.12,74.44 C31.12,74.6426667 31.1786667,74.8 31.296,74.912 C31.4133333,75.024 31.5733333,75.08 31.776,75.08 Z M41.184,75.08 C41.3866667,75.08 41.544,75.024 41.656,74.912 C41.768,74.8 41.824,74.6426667 41.824,74.44 L41.824,74.44 L41.824,70.104 C41.824,68.0453333 40.8906667,67.016 39.024,67.016 C38.4373333,67.016 37.9146667,67.1413333 37.456,67.392 C36.9973333,67.6426667 36.64,68.008 36.384,68.488 L36.384,68.488 L36.384,67.672 C36.384,67.4906667 36.328,67.3413333 36.216,67.224 C36.104,67.1066667 35.952,67.048 35.76,67.048 C35.5573333,67.048 35.3973333,67.1066667 35.28,67.224 C35.1626667,67.3413333 35.104,67.496 35.104,67.688 L35.104,67.688 L35.104,74.44 C35.104,74.6426667 35.1626667,74.8 35.28,74.912 C35.3973333,75.024 35.5573333,75.08 35.76,75.08 C35.9626667,75.08 36.12,75.024 36.232,74.912 C36.344,74.8 36.4,74.6426667 36.4,74.44 L36.4,74.44 L36.4,70.536 C36.4,69.7893333 36.6133333,69.1973333 37.04,68.76 C37.4666667,68.3226667 38.0373333,68.104 38.752,68.104 C39.3706667,68.104 39.8213333,68.2693333 40.104,68.6 C40.3866667,68.9306667 40.528,69.4586667 40.528,70.184 L40.528,70.184 L40.528,74.44 C40.528,74.6426667 40.5866667,74.8 40.704,74.912 C40.8213333,75.024 40.9813333,75.08 41.184,75.08 Z M45.168,65.368 C45.424,65.368 45.632,65.2933333 45.792,65.144 C45.952,64.9946667 46.032,64.7973333 46.032,64.552 C46.032,64.3173333 45.952,64.1253333 45.792,63.976 C45.632,63.8266667 45.424,63.752 45.168,63.752 C44.912,63.752 44.704,63.8266667 44.544,63.976 C44.384,64.1253333 44.304,64.3173333 44.304,64.552 C44.304,64.7973333 44.384,64.9946667 44.544,65.144 C44.704,65.2933333 44.912,65.368 45.168,65.368 Z M45.168,75.08 C45.36,75.08 45.5146667,75.0266667 45.632,74.92 C45.7493333,74.8133333 45.808,74.6533333 45.808,74.44 L45.808,74.44 L45.808,67.688 C45.808,67.4853333 45.7493333,67.328 45.632,67.216 C45.5146667,67.104 45.36,67.048 45.168,67.048 C44.976,67.048 44.8186667,67.104 44.696,67.216 C44.5733333,67.328 44.512,67.4853333 44.512,67.688 L44.512,67.688 L44.512,74.44 C44.512,74.6426667 44.5733333,74.8 44.696,74.912 C44.8186667,75.024 44.976,75.08 45.168,75.08 Z M51.76,75.112 C52.1866667,75.112 52.6106667,75.0506667 53.032,74.928 C53.4533333,74.8053333 53.8133333,74.6426667 54.112,74.44 C54.3146667,74.3013333 54.4533333,74.176 54.528,74.064 C54.6026667,73.952 54.64,73.8266667 54.64,73.688 C54.64,73.5386667 54.6,73.416 54.52,73.32 C54.44,73.224 54.3413333,73.176 54.224,73.176 C54.1493333,73.176 54.0586667,73.2026667 53.952,73.256 C53.8453333,73.3093333 53.7333333,73.3733333 53.616,73.448 C53.3493333,73.6293333 53.0853333,73.7733333 52.824,73.88 C52.5626667,73.9866667 52.2506667,74.04 51.888,74.04 C51.1093333,74.04 50.504,73.784 50.072,73.272 C49.64,72.76 49.424,72.0346667 49.424,71.096 C49.424,70.1573333 49.64,69.424 50.072,68.896 C50.504,68.368 51.1093333,68.104 51.888,68.104 C52.2506667,68.104 52.5573333,68.1573333 52.808,68.264 C53.0586667,68.3706667 53.3226667,68.5146667 53.6,68.696 C53.6213333,68.7066667 53.6613333,68.7333333 53.72,68.776 C53.7786667,68.8186667 53.8506667,68.8613333 53.936,68.904 C54.0213333,68.9466667 54.1013333,68.968 54.176,68.968 C54.304,68.968 54.408,68.92 54.488,68.824 C54.568,68.728 54.608,68.6053333 54.608,68.456 C54.608,68.3066667 54.568,68.1706667 54.488,68.048 C54.408,67.9253333 54.272,67.8 54.08,67.672 C53.7813333,67.4586667 53.432,67.296 53.032,67.184 C52.632,67.072 52.2293333,67.016 51.824,67.016 C51.088,67.016 50.4373333,67.1866667 49.872,67.528 C49.3066667,67.8693333 48.8666667,68.3493333 48.552,68.968 C48.2373333,69.5866667 48.08,70.296 48.08,71.096 C48.08,71.896 48.232,72.6 48.536,73.208 C48.84,73.816 49.272,74.2853333 49.832,74.616 C50.392,74.9466667 51.0346667,75.112 51.76,75.112 Z M59.008,75.112 C59.552,75.112 60.032,74.9866667 60.448,74.736 C60.864,74.4853333 61.1733333,74.1306667 61.376,73.672 L61.376,73.672 L61.376,74.44 C61.376,74.632 61.4346667,74.7866667 61.552,74.904 C61.6693333,75.0213333 61.824,75.08 62.016,75.08 C62.208,75.08 62.36,75.0213333 62.472,74.904 C62.584,74.7866667 62.64,74.632 62.64,74.44 L62.64,74.44 L62.64,70.088 C62.64,68.04 61.664,67.016 59.712,67.016 C59.2426667,67.016 58.7706667,67.0773333 58.296,67.2 C57.8213333,67.3226667 57.3973333,67.4906667 57.024,67.704 C56.8213333,67.8213333 56.6746667,67.936 56.584,68.048 C56.4933333,68.16 56.448,68.2906667 56.448,68.44 C56.448,68.5893333 56.4906667,68.712 56.576,68.808 C56.6613333,68.904 56.768,68.952 56.896,68.952 C57.0133333,68.952 57.216,68.8613333 57.504,68.68 C58.2506667,68.2853333 58.9866667,68.088 59.712,68.088 C60.2986667,68.088 60.7226667,68.2373333 60.984,68.536 C61.2453333,68.8346667 61.376,69.304 61.376,69.944 L61.376,69.944 L61.376,70.472 L61.024,70.472 C59.808,70.472 58.8586667,70.544 58.176,70.688 C57.4933333,70.832 57.0026667,71.0666667 56.704,71.392 C56.4053333,71.7173333 56.256,72.1733333 56.256,72.76 C56.256,73.1973333 56.3786667,73.5973333 56.624,73.96 C56.8693333,74.3226667 57.2026667,74.6053333 57.624,74.808 C58.0453333,75.0106667 58.5066667,75.112 59.008,75.112 Z M59.184,74.088 C58.7253333,74.088 58.344,73.952 58.04,73.68 C57.736,73.408 57.584,73.064 57.584,72.648 C57.584,72.2853333 57.688,72.0106667 57.896,71.824 C58.104,71.6373333 58.4533333,71.504 58.944,71.424 C59.4346667,71.344 60.1493333,71.304 61.088,71.304 L61.088,71.304 L61.376,71.304 L61.376,71.768 C61.376,72.4506667 61.1706667,73.008 60.76,73.44 C60.3493333,73.872 59.824,74.088 59.184,74.088 Z M65.984,75.08 C66.1653333,75.08 66.3173333,75.024 66.44,74.912 C66.5626667,74.8 66.624,74.6426667 66.624,74.44 L66.624,74.44 L66.624,64.28 C66.624,64.0773333 66.5626667,63.92 66.44,63.808 C66.3173333,63.696 66.1653333,63.64 65.984,63.64 C65.792,63.64 65.6346667,63.696 65.512,63.808 C65.3893333,63.92 65.328,64.0773333 65.328,64.28 L65.328,64.28 L65.328,74.44 C65.328,74.6426667 65.3893333,74.8 65.512,74.912 C65.6346667,75.024 65.792,75.08 65.984,75.08 Z M69.68,76.824 C69.8186667,76.824 69.9413333,76.7653333 70.048,76.648 C70.592,76.072 70.864,75.3626667 70.864,74.52 C70.864,74.104 70.7813333,73.792 70.616,73.584 C70.4506667,73.376 70.2346667,73.272 69.968,73.272 C69.7226667,73.272 69.5173333,73.3573333 69.352,73.528 C69.1866667,73.6986667 69.104,73.9173333 69.104,74.184 C69.104,74.4293333 69.1813333,74.6293333 69.336,74.784 C69.4906667,74.9386667 69.6853333,75.0266667 69.92,75.048 C69.8453333,75.4746667 69.6693333,75.832 69.392,76.12 C69.3066667,76.2053333 69.264,76.3066667 69.264,76.424 C69.264,76.5306667 69.3066667,76.624 69.392,76.704 C69.4773333,76.784 69.5733333,76.824 69.68,76.824 Z M80.272,75.112 C80.816,75.112 81.296,74.9866667 81.712,74.736 C82.128,74.4853333 82.4373333,74.1306667 82.64,73.672 L82.64,73.672 L82.64,74.44 C82.64,74.632 82.6986667,74.7866667 82.816,74.904 C82.9333333,75.0213333 83.088,75.08 83.28,75.08 C83.472,75.08 83.624,75.0213333 83.736,74.904 C83.848,74.7866667 83.904,74.632 83.904,74.44 L83.904,74.44 L83.904,70.088 C83.904,68.04 82.928,67.016 80.976,67.016 C80.5066667,67.016 80.0346667,67.0773333 79.56,67.2 C79.0853333,67.3226667 78.6613333,67.4906667 78.288,67.704 C78.0853333,67.8213333 77.9386667,67.936 77.848,68.048 C77.7573333,68.16 77.712,68.2906667 77.712,68.44 C77.712,68.5893333 77.7546667,68.712 77.84,68.808 C77.9253333,68.904 78.032,68.952 78.16,68.952 C78.2773333,68.952 78.48,68.8613333 78.768,68.68 C79.5146667,68.2853333 80.2506667,68.088 80.976,68.088 C81.5626667,68.088 81.9866667,68.2373333 82.248,68.536 C82.5093333,68.8346667 82.64,69.304 82.64,69.944 L82.64,69.944 L82.64,70.472 L82.288,70.472 C81.072,70.472 80.1226667,70.544 79.44,70.688 C78.7573333,70.832 78.2666667,71.0666667 77.968,71.392 C77.6693333,71.7173333 77.52,72.1733333 77.52,72.76 C77.52,73.1973333 77.6426667,73.5973333 77.888,73.96 C78.1333333,74.3226667 78.4666667,74.6053333 78.888,74.808 C79.3093333,75.0106667 79.7706667,75.112 80.272,75.112 Z M80.448,74.088 C79.9893333,74.088 79.608,73.952 79.304,73.68 C79,73.408 78.848,73.064 78.848,72.648 C78.848,72.2853333 78.952,72.0106667 79.16,71.824 C79.368,71.6373333 79.7173333,71.504 80.208,71.424 C80.6986667,71.344 81.4133333,71.304 82.352,71.304 L82.352,71.304 L82.64,71.304 L82.64,71.768 C82.64,72.4506667 82.4346667,73.008 82.024,73.44 C81.6133333,73.872 81.088,74.088 80.448,74.088 Z M92.672,75.08 C92.8746667,75.08 93.032,75.024 93.144,74.912 C93.256,74.8 93.312,74.6426667 93.312,74.44 L93.312,74.44 L93.312,70.104 C93.312,68.0453333 92.3786667,67.016 90.512,67.016 C89.9253333,67.016 89.4026667,67.1413333 88.944,67.392 C88.4853333,67.6426667 88.128,68.008 87.872,68.488 L87.872,68.488 L87.872,67.672 C87.872,67.4906667 87.816,67.3413333 87.704,67.224 C87.592,67.1066667 87.44,67.048 87.248,67.048 C87.0453333,67.048 86.8853333,67.1066667 86.768,67.224 C86.6506667,67.3413333 86.592,67.496 86.592,67.688 L86.592,67.688 L86.592,74.44 C86.592,74.6426667 86.6506667,74.8 86.768,74.912 C86.8853333,75.024 87.0453333,75.08 87.248,75.08 C87.4506667,75.08 87.608,75.024 87.72,74.912 C87.832,74.8 87.888,74.6426667 87.888,74.44 L87.888,74.44 L87.888,70.536 C87.888,69.7893333 88.1013333,69.1973333 88.528,68.76 C88.9546667,68.3226667 89.5253333,68.104 90.24,68.104 C90.8586667,68.104 91.3093333,68.2693333 91.592,68.6 C91.8746667,68.9306667 92.016,69.4586667 92.016,70.184 L92.016,70.184 L92.016,74.44 C92.016,74.6426667 92.0746667,74.8 92.192,74.912 C92.3093333,75.024 92.4693333,75.08 92.672,75.08 Z M98.992,75.112 C99.6,75.112 100.130667,74.9786667 100.584,74.712 C101.037333,74.4453333 101.381333,74.0666667 101.616,73.576 L101.616,73.576 L101.616,74.44 C101.616,74.632 101.672,74.7866667 101.784,74.904 C101.896,75.0213333 102.053333,75.08 102.256,75.08 C102.458667,75.08 102.618667,75.0213333 102.736,74.904 C102.853333,74.7866667 102.912,74.632 102.912,74.44 L102.912,74.44 L102.912,64.264 C102.912,64.0826667 102.853333,63.9333333 102.736,63.816 C102.618667,63.6986667 102.458667,63.64 102.256,63.64 C102.053333,63.64 101.896,63.696 101.784,63.808 C101.672,63.92 101.616,64.072 101.616,64.264 L101.616,64.264 L101.616,68.552 C101.381333,68.0613333 101.037333,67.6826667 100.584,67.416 C100.130667,67.1493333 99.6,67.016 98.992,67.016 C98.3093333,67.016 97.7066667,67.1813333 97.184,67.512 C96.6613333,67.8426667 96.256,68.312 95.968,68.92 C95.68,69.528 95.536,70.232 95.536,71.032 C95.536,71.8426667 95.68,72.5546667 95.968,73.168 C96.256,73.7813333 96.6613333,74.2586667 97.184,74.6 C97.7066667,74.9413333 98.3093333,75.112 98.992,75.112 Z M99.248,74.04 C98.4906667,74.04 97.9013333,73.776 97.48,73.248 C97.0586667,72.72 96.848,71.9813333 96.848,71.032 C96.848,70.104 97.0586667,69.384 97.48,68.872 C97.9013333,68.36 98.4906667,68.104 99.248,68.104 C100.005333,68.104 100.589333,68.36 101,68.872 C101.410667,69.384 101.616,70.1146667 101.616,71.064 C101.616,72.0133333 101.410667,72.7466667 101,73.264 C100.589333,73.7813333 100.005333,74.04 99.248,74.04 Z M114,75.112 C114.682667,75.112 115.285333,74.9413333 115.808,74.6 C116.330667,74.2586667 116.736,73.7813333 117.024,73.168 C117.312,72.5546667 117.456,71.8426667 117.456,71.032 C117.456,70.232 117.312,69.528 117.024,68.92 C116.736,68.312 116.330667,67.8426667 115.808,67.512 C115.285333,67.1813333 114.682667,67.016 114,67.016 C113.392,67.016 112.861333,67.1493333 112.408,67.416 C111.954667,67.6826667 111.610667,68.0613333 111.376,68.552 L111.376,68.552 L111.376,64.264 C111.376,64.072 111.32,63.92 111.208,63.808 C111.096,63.696 110.938667,63.64 110.736,63.64 C110.533333,63.64 110.373333,63.6986667 110.256,63.816 C110.138667,63.9333333 110.08,64.0826667 110.08,64.264 L110.08,64.264 L110.08,74.44 C110.08,74.632 110.138667,74.7866667 110.256,74.904 C110.373333,75.0213333 110.533333,75.08 110.736,75.08 C110.938667,75.08 111.096,75.0213333 111.208,74.904 C111.32,74.7866667 111.376,74.632 111.376,74.44 L111.376,74.44 L111.376,73.576 C111.610667,74.0666667 111.954667,74.4453333 112.408,74.712 C112.861333,74.9786667 113.392,75.112 114,75.112 Z M113.744,74.04 C112.986667,74.04 112.402667,73.7813333 111.992,73.264 C111.581333,72.7466667 111.376,72.0133333 111.376,71.064 C111.376,70.1146667 111.581333,69.384 111.992,68.872 C112.402667,68.36 112.986667,68.104 113.744,68.104 C114.501333,68.104 115.088,68.36 115.504,68.872 C115.92,69.384 116.128,70.104 116.128,71.032 C116.128,71.9813333 115.92,72.72 115.504,73.248 C115.088,73.776 114.501333,74.04 113.744,74.04 Z M122.48,75.112 C123.034667,75.112 123.533333,74.9893333 123.976,74.744 C124.418667,74.4986667 124.762667,74.1413333 125.008,73.672 L125.008,73.672 L125.008,74.472 C125.008,74.6533333 125.064,74.8 125.176,74.912 C125.288,75.024 125.44,75.08 125.632,75.08 C125.834667,75.08 125.992,75.0213333 126.104,74.904 C126.216,74.7866667 126.272,74.6373333 126.272,74.456 L126.272,74.456 L126.272,67.688 C126.272,67.496 126.216,67.3413333 126.104,67.224 C125.992,67.1066667 125.834667,67.048 125.632,67.048 C125.429333,67.048 125.269333,67.1066667 125.152,67.224 C125.034667,67.3413333 124.976,67.496 124.976,67.688 L124.976,67.688 L124.976,71.608 C124.976,72.3333333 124.768,72.9173333 124.352,73.36 C123.936,73.8026667 123.386667,74.024 122.704,74.024 C122.106667,74.024 121.669333,73.8613333 121.392,73.536 C121.114667,73.2106667 120.976,72.7013333 120.976,72.008 L120.976,72.008 L120.976,67.688 C120.976,67.496 120.92,67.3413333 120.808,67.224 C120.696,67.1066667 120.538667,67.048 120.336,67.048 C120.133333,67.048 119.973333,67.1066667 119.856,67.224 C119.738667,67.3413333 119.68,67.496 119.68,67.688 L119.68,67.688 L119.68,72.04 C119.68,73.0533333 119.914667,73.8186667 120.384,74.336 C120.853333,74.8533333 121.552,75.112 122.48,75.112 Z M131.632,75.112 C132.56,75.112 133.306667,74.9066667 133.872,74.496 C134.437333,74.0853333 134.72,73.544 134.72,72.872 C134.72,72.4453333 134.634667,72.0933333 134.464,71.816 C134.293333,71.5386667 134.008,71.304 133.608,71.112 C133.208,70.92 132.645333,70.744 131.92,70.584 C131.429333,70.4773333 131.053333,70.368 130.792,70.256 C130.530667,70.144 130.344,70.016 130.232,69.872 C130.12,69.728 130.064,69.5386667 130.064,69.304 C130.064,68.9306667 130.216,68.632 130.52,68.408 C130.824,68.184 131.226667,68.072 131.728,68.072 C132.122667,68.072 132.453333,68.1253333 132.72,68.232 C132.986667,68.3386667 133.269333,68.488 133.568,68.68 C133.824,68.8613333 134.016,68.952 134.144,68.952 C134.261333,68.952 134.362667,68.904 134.448,68.808 C134.533333,68.712 134.576,68.5946667 134.576,68.456 C134.576,68.1786667 134.394667,67.912 134.032,67.656 C133.733333,67.4533333 133.389333,67.296 133,67.184 C132.610667,67.072 132.208,67.016 131.792,67.016 C131.216,67.016 130.701333,67.1173333 130.248,67.32 C129.794667,67.5226667 129.44,67.8 129.184,68.152 C128.928,68.504 128.8,68.9093333 128.8,69.368 C128.8,69.9546667 129.002667,70.4186667 129.408,70.76 C129.813333,71.1013333 130.485333,71.3733333 131.424,71.576 C131.978667,71.6933333 132.4,71.808 132.688,71.92 C132.976,72.032 133.178667,72.16 133.296,72.304 C133.413333,72.448 133.472,72.6373333 133.472,72.872 C133.472,73.256 133.312,73.5493333 132.992,73.752 C132.672,73.9546667 132.224,74.056 131.648,74.056 C131.178667,74.056 130.786667,74 130.472,73.888 C130.157333,73.776 129.84,73.624 129.52,73.432 C129.274667,73.272 129.088,73.192 128.96,73.192 C128.832,73.192 128.728,73.2373333 128.648,73.328 C128.568,73.4186667 128.528,73.5333333 128.528,73.672 C128.528,73.832 128.568,73.968 128.648,74.08 C128.728,74.192 128.864,74.312 129.056,74.44 C129.397333,74.6533333 129.789333,74.8186667 130.232,74.936 C130.674667,75.0533333 131.141333,75.112 131.632,75.112 Z M137.664,65.368 C137.92,65.368 138.128,65.2933333 138.288,65.144 C138.448,64.9946667 138.528,64.7973333 138.528,64.552 C138.528,64.3173333 138.448,64.1253333 138.288,63.976 C138.128,63.8266667 137.92,63.752 137.664,63.752 C137.408,63.752 137.2,63.8266667 137.04,63.976 C136.88,64.1253333 136.8,64.3173333 136.8,64.552 C136.8,64.7973333 136.88,64.9946667 137.04,65.144 C137.2,65.2933333 137.408,65.368 137.664,65.368 Z M137.664,75.08 C137.856,75.08 138.010667,75.0266667 138.128,74.92 C138.245333,74.8133333 138.304,74.6533333 138.304,74.44 L138.304,74.44 L138.304,67.688 C138.304,67.4853333 138.245333,67.328 138.128,67.216 C138.010667,67.104 137.856,67.048 137.664,67.048 C137.472,67.048 137.314667,67.104 137.192,67.216 C137.069333,67.328 137.008,67.4853333 137.008,67.688 L137.008,67.688 L137.008,74.44 C137.008,74.6426667 137.069333,74.8 137.192,74.912 C137.314667,75.024 137.472,75.08 137.664,75.08 Z M147.12,75.08 C147.322667,75.08 147.48,75.024 147.592,74.912 C147.704,74.8 147.76,74.6426667 147.76,74.44 L147.76,74.44 L147.76,70.104 C147.76,68.0453333 146.826667,67.016 144.96,67.016 C144.373333,67.016 143.850667,67.1413333 143.392,67.392 C142.933333,67.6426667 142.576,68.008 142.32,68.488 L142.32,68.488 L142.32,67.672 C142.32,67.4906667 142.264,67.3413333 142.152,67.224 C142.04,67.1066667 141.888,67.048 141.696,67.048 C141.493333,67.048 141.333333,67.1066667 141.216,67.224 C141.098667,67.3413333 141.04,67.496 141.04,67.688 L141.04,67.688 L141.04,74.44 C141.04,74.6426667 141.098667,74.8 141.216,74.912 C141.333333,75.024 141.493333,75.08 141.696,75.08 C141.898667,75.08 142.056,75.024 142.168,74.912 C142.28,74.8 142.336,74.6426667 142.336,74.44 L142.336,74.44 L142.336,70.536 C142.336,69.7893333 142.549333,69.1973333 142.976,68.76 C143.402667,68.3226667 143.973333,68.104 144.688,68.104 C145.306667,68.104 145.757333,68.2693333 146.04,68.6 C146.322667,68.9306667 146.464,69.4586667 146.464,70.184 L146.464,70.184 L146.464,74.44 C146.464,74.6426667 146.522667,74.8 146.64,74.912 C146.757333,75.024 146.917333,75.08 147.12,75.08 Z M153.888,75.112 C154.293333,75.112 154.709333,75.056 155.136,74.944 C155.562667,74.832 155.968,74.664 156.352,74.44 C156.725333,74.216 156.912,73.9706667 156.912,73.704 C156.912,73.5546667 156.869333,73.432 156.784,73.336 C156.698667,73.24 156.597333,73.192 156.48,73.192 C156.384,73.192 156.197333,73.272 155.92,73.432 C155.578667,73.624 155.258667,73.776 154.96,73.888 C154.661333,74 154.304,74.056 153.888,74.056 C152.245333,74.056 151.376,73.1386667 151.28,71.304 L151.28,71.304 L156.432,71.304 C156.624,71.304 156.762667,71.256 156.848,71.16 C156.933333,71.064 156.976,70.9093333 156.976,70.696 C156.976,69.5653333 156.677333,68.6693333 156.08,68.008 C155.482667,67.3466667 154.677333,67.016 153.664,67.016 C152.949333,67.016 152.312,67.1866667 151.752,67.528 C151.192,67.8693333 150.757333,68.3466667 150.448,68.96 C150.138667,69.5733333 149.984,70.28 149.984,71.08 C149.984,72.3386667 150.333333,73.3253333 151.032,74.04 C151.730667,74.7546667 152.682667,75.112 153.888,75.112 Z M155.84,70.472 L151.312,70.472 C151.386667,69.6933333 151.629333,69.0906667 152.04,68.664 C152.450667,68.2373333 152.997333,68.024 153.68,68.024 C154.352,68.024 154.874667,68.2346667 155.248,68.656 C155.621333,69.0773333 155.818667,69.6826667 155.84,70.472 L155.84,70.472 Z M161.824,75.112 C162.752,75.112 163.498667,74.9066667 164.064,74.496 C164.629333,74.0853333 164.912,73.544 164.912,72.872 C164.912,72.4453333 164.826667,72.0933333 164.656,71.816 C164.485333,71.5386667 164.2,71.304 163.8,71.112 C163.4,70.92 162.837333,70.744 162.112,70.584 C161.621333,70.4773333 161.245333,70.368 160.984,70.256 C160.722667,70.144 160.536,70.016 160.424,69.872 C160.312,69.728 160.256,69.5386667 160.256,69.304 C160.256,68.9306667 160.408,68.632 160.712,68.408 C161.016,68.184 161.418667,68.072 161.92,68.072 C162.314667,68.072 162.645333,68.1253333 162.912,68.232 C163.178667,68.3386667 163.461333,68.488 163.76,68.68 C164.016,68.8613333 164.208,68.952 164.336,68.952 C164.453333,68.952 164.554667,68.904 164.64,68.808 C164.725333,68.712 164.768,68.5946667 164.768,68.456 C164.768,68.1786667 164.586667,67.912 164.224,67.656 C163.925333,67.4533333 163.581333,67.296 163.192,67.184 C162.802667,67.072 162.4,67.016 161.984,67.016 C161.408,67.016 160.893333,67.1173333 160.44,67.32 C159.986667,67.5226667 159.632,67.8 159.376,68.152 C159.12,68.504 158.992,68.9093333 158.992,69.368 C158.992,69.9546667 159.194667,70.4186667 159.6,70.76 C160.005333,71.1013333 160.677333,71.3733333 161.616,71.576 C162.170667,71.6933333 162.592,71.808 162.88,71.92 C163.168,72.032 163.370667,72.16 163.488,72.304 C163.605333,72.448 163.664,72.6373333 163.664,72.872 C163.664,73.256 163.504,73.5493333 163.184,73.752 C162.864,73.9546667 162.416,74.056 161.84,74.056 C161.370667,74.056 160.978667,74 160.664,73.888 C160.349333,73.776 160.032,73.624 159.712,73.432 C159.466667,73.272 159.28,73.192 159.152,73.192 C159.024,73.192 158.92,73.2373333 158.84,73.328 C158.76,73.4186667 158.72,73.5333333 158.72,73.672 C158.72,73.832 158.76,73.968 158.84,74.08 C158.92,74.192 159.056,74.312 159.248,74.44 C159.589333,74.6533333 159.981333,74.8186667 160.424,74.936 C160.866667,75.0533333 161.333333,75.112 161.824,75.112 Z M169.824,75.112 C170.752,75.112 171.498667,74.9066667 172.064,74.496 C172.629333,74.0853333 172.912,73.544 172.912,72.872 C172.912,72.4453333 172.826667,72.0933333 172.656,71.816 C172.485333,71.5386667 172.2,71.304 171.8,71.112 C171.4,70.92 170.837333,70.744 170.112,70.584 C169.621333,70.4773333 169.245333,70.368 168.984,70.256 C168.722667,70.144 168.536,70.016 168.424,69.872 C168.312,69.728 168.256,69.5386667 168.256,69.304 C168.256,68.9306667 168.408,68.632 168.712,68.408 C169.016,68.184 169.418667,68.072 169.92,68.072 C170.314667,68.072 170.645333,68.1253333 170.912,68.232 C171.178667,68.3386667 171.461333,68.488 171.76,68.68 C172.016,68.8613333 172.208,68.952 172.336,68.952 C172.453333,68.952 172.554667,68.904 172.64,68.808 C172.725333,68.712 172.768,68.5946667 172.768,68.456 C172.768,68.1786667 172.586667,67.912 172.224,67.656 C171.925333,67.4533333 171.581333,67.296 171.192,67.184 C170.802667,67.072 170.4,67.016 169.984,67.016 C169.408,67.016 168.893333,67.1173333 168.44,67.32 C167.986667,67.5226667 167.632,67.8 167.376,68.152 C167.12,68.504 166.992,68.9093333 166.992,69.368 C166.992,69.9546667 167.194667,70.4186667 167.6,70.76 C168.005333,71.1013333 168.677333,71.3733333 169.616,71.576 C170.170667,71.6933333 170.592,71.808 170.88,71.92 C171.168,72.032 171.370667,72.16 171.488,72.304 C171.605333,72.448 171.664,72.6373333 171.664,72.872 C171.664,73.256 171.504,73.5493333 171.184,73.752 C170.864,73.9546667 170.416,74.056 169.84,74.056 C169.370667,74.056 168.978667,74 168.664,73.888 C168.349333,73.776 168.032,73.624 167.712,73.432 C167.466667,73.272 167.28,73.192 167.152,73.192 C167.024,73.192 166.92,73.2373333 166.84,73.328 C166.76,73.4186667 166.72,73.5333333 166.72,73.672 C166.72,73.832 166.76,73.968 166.84,74.08 C166.92,74.192 167.056,74.312 167.248,74.44 C167.589333,74.6533333 167.981333,74.8186667 168.424,74.936 C168.866667,75.0533333 169.333333,75.112 169.824,75.112 Z M10.088,99.048 C10.2373333,99.048 10.3733333,99.008 10.496,98.928 C10.6186667,98.848 10.712,98.7386667 10.776,98.6 L10.776,98.6 L13.432,91.88 C13.464,91.7946667 13.48,91.7146667 13.48,91.64 C13.48,91.48 13.416,91.3466667 13.288,91.24 C13.16,91.1333333 13.016,91.08 12.856,91.08 C12.6106667,91.08 12.4346667,91.208 12.328,91.464 L12.328,91.464 L10.12,97.336 L7.864,91.496 C7.81066667,91.3573333 7.728,91.2506667 7.616,91.176 C7.504,91.1013333 7.37866667,91.064 7.24,91.064 C7.112,91.064 6.992,91.1013333 6.88,91.176 C6.768,91.2506667 6.68,91.3573333 6.616,91.496 L6.616,91.496 L4.36,97.352 L2.168,91.448 C2.06133333,91.192 1.88,91.064 1.624,91.064 C1.45333333,91.064 1.296,91.1226667 1.152,91.24 C1.008,91.3573333 0.936,91.5013333 0.936,91.672 C0.936,91.736 0.952,91.8106667 0.984,91.896 L0.984,91.896 L3.64,98.6 C3.704,98.7386667 3.8,98.848 3.928,98.928 C4.056,99.008 4.18933333,99.048 4.328,99.048 C4.47733333,99.048 4.616,99.008 4.744,98.928 C4.872,98.848 4.96266667,98.7386667 5.016,98.6 L5.016,98.6 L7.208,92.984 L9.416,98.6 C9.48,98.7386667 9.57333333,98.848 9.696,98.928 C9.81866667,99.008 9.94933333,99.048 10.088,99.048 Z M18.6,99.112 C19.336,99.112 19.9866667,98.9466667 20.552,98.616 C21.1173333,98.2853333 21.552,97.8133333 21.856,97.2 C22.16,96.5866667 22.312,95.8746667 22.312,95.064 C22.312,94.2533333 22.16,93.5413333 21.856,92.928 C21.552,92.3146667 21.1173333,91.8426667 20.552,91.512 C19.9866667,91.1813333 19.336,91.016 18.6,91.016 C17.864,91.016 17.216,91.1813333 16.656,91.512 C16.096,91.8426667 15.664,92.3146667 15.36,92.928 C15.056,93.5413333 14.904,94.2533333 14.904,95.064 C14.904,95.8746667 15.056,96.5866667 15.36,97.2 C15.664,97.8133333 16.096,98.2853333 16.656,98.616 C17.216,98.9466667 17.864,99.112 18.6,99.112 Z M18.6,98.04 C17.832,98.04 17.2426667,97.784 16.832,97.272 C16.4213333,96.76 16.216,96.024 16.216,95.064 C16.216,94.1146667 16.424,93.3813333 16.84,92.864 C17.256,92.3466667 17.8426667,92.088 18.6,92.088 C19.3573333,92.088 19.944,92.3466667 20.36,92.864 C20.776,93.3813333 20.984,94.1146667 20.984,95.064 C20.984,96.0346667 20.7786667,96.7733333 20.368,97.28 C19.9573333,97.7866667 19.368,98.04 18.6,98.04 Z M25.224,99.08 C25.416,99.08 25.5706667,99.0266667 25.688,98.92 C25.8053333,98.8133333 25.864,98.6533333 25.864,98.44 L25.864,98.44 L25.864,94.552 C25.864,93.9546667 26.0373333,93.4346667 26.384,92.992 C26.7306667,92.5493333 27.2613333,92.296 27.976,92.232 L27.976,92.232 L28.456,92.184 C28.6906667,92.1626667 28.856,92.1013333 28.952,92 C29.048,91.8986667 29.096,91.7626667 29.096,91.592 C29.096,91.1973333 28.872,91.016 28.424,91.048 L28.424,91.048 L28.2,91.064 C27.6666667,91.1066667 27.1946667,91.2506667 26.784,91.496 C26.3733333,91.7413333 26.056,92.0986667 25.832,92.568 L25.832,92.568 L25.832,91.672 C25.832,91.48 25.7733333,91.328 25.656,91.216 C25.5386667,91.104 25.3946667,91.048 25.224,91.048 C25.0426667,91.048 24.888,91.104 24.76,91.216 C24.632,91.328 24.568,91.4853333 24.568,91.688 L24.568,91.688 L24.568,98.44 C24.568,98.6426667 24.6293333,98.8 24.752,98.912 C24.8746667,99.024 25.032,99.08 25.224,99.08 Z M36.44,99.08 C36.6,99.08 36.736,99.0213333 36.848,98.904 C36.96,98.7866667 37.016,98.648 37.016,98.488 C37.016,98.3066667 36.9306667,98.136 36.76,97.976 L36.76,97.976 L33.304,94.968 L36.456,92.152 C36.6053333,92.0133333 36.68,91.8533333 36.68,91.672 C36.68,91.512 36.6213333,91.3733333 36.504,91.256 C36.3866667,91.1386667 36.248,91.08 36.088,91.08 C35.928,91.08 35.784,91.144 35.656,91.272 L35.656,91.272 L31.832,94.776 L31.832,88.28 C31.832,88.0773333 31.7706667,87.92 31.648,87.808 C31.5253333,87.696 31.3733333,87.64 31.192,87.64 C31,87.64 30.8426667,87.696 30.72,87.808 C30.5973333,87.92 30.536,88.0773333 30.536,88.28 L30.536,88.28 L30.536,98.44 C30.536,98.6426667 30.5973333,98.8 30.72,98.912 C30.8426667,99.024 31,99.08 31.192,99.08 C31.3733333,99.08 31.5253333,99.024 31.648,98.912 C31.7706667,98.8 31.832,98.6426667 31.832,98.44 L31.832,98.44 L31.832,95.288 L36.008,98.888 C36.1573333,99.016 36.3013333,99.08 36.44,99.08 Z M44.76,99.08 C44.9413333,99.08 45.0933333,99.024 45.216,98.912 C45.3386667,98.8 45.4,98.6426667 45.4,98.44 L45.4,98.44 L45.4,88.28 C45.4,88.0773333 45.3386667,87.92 45.216,87.808 C45.0933333,87.696 44.9413333,87.64 44.76,87.64 C44.568,87.64 44.4106667,87.696 44.288,87.808 C44.1653333,87.92 44.104,88.0773333 44.104,88.28 L44.104,88.28 L44.104,98.44 C44.104,98.6426667 44.1653333,98.8 44.288,98.912 C44.4106667,99.024 44.568,99.08 44.76,99.08 Z M39.944,99.08 C40.1253333,99.08 40.2773333,99.024 40.4,98.912 C40.5226667,98.8 40.584,98.6426667 40.584,98.44 L40.584,98.44 L40.584,92.232 L42.36,92.232 C42.5413333,92.232 42.68,92.1893333 42.776,92.104 C42.872,92.0186667 42.92,91.896 42.92,91.736 C42.92,91.576 42.872,91.448 42.776,91.352 C42.68,91.256 42.5413333,91.208 42.36,91.208 L42.36,91.208 L40.584,91.208 L40.584,90.696 C40.584,90.0666667 40.728,89.5946667 41.016,89.28 C41.304,88.9653333 41.7306667,88.7866667 42.296,88.744 L42.296,88.744 L42.712,88.712 C43.0853333,88.6693333 43.272,88.4933333 43.272,88.184 C43.272,87.992 43.2106667,87.8586667 43.088,87.784 C42.9653333,87.7093333 42.7653333,87.6826667 42.488,87.704 L42.488,87.704 L42.072,87.736 C41.176,87.8 40.488,88.1066667 40.008,88.656 C39.528,89.2053333 39.288,89.96 39.288,90.92 L39.288,90.92 L39.288,91.208 L38.216,91.208 C38.0346667,91.208 37.8933333,91.256 37.792,91.352 C37.6906667,91.448 37.64,91.576 37.64,91.736 C37.64,91.8853333 37.6906667,92.0053333 37.792,92.096 C37.8933333,92.1866667 38.0346667,92.232 38.216,92.232 L38.216,92.232 L39.288,92.232 L39.288,98.44 C39.288,98.6426667 39.3493333,98.8 39.472,98.912 C39.5946667,99.024 39.752,99.08 39.944,99.08 Z M51.368,99.112 C52.104,99.112 52.7546667,98.9466667 53.32,98.616 C53.8853333,98.2853333 54.32,97.8133333 54.624,97.2 C54.928,96.5866667 55.08,95.8746667 55.08,95.064 C55.08,94.2533333 54.928,93.5413333 54.624,92.928 C54.32,92.3146667 53.8853333,91.8426667 53.32,91.512 C52.7546667,91.1813333 52.104,91.016 51.368,91.016 C50.632,91.016 49.984,91.1813333 49.424,91.512 C48.864,91.8426667 48.432,92.3146667 48.128,92.928 C47.824,93.5413333 47.672,94.2533333 47.672,95.064 C47.672,95.8746667 47.824,96.5866667 48.128,97.2 C48.432,97.8133333 48.864,98.2853333 49.424,98.616 C49.984,98.9466667 50.632,99.112 51.368,99.112 Z M51.368,98.04 C50.6,98.04 50.0106667,97.784 49.6,97.272 C49.1893333,96.76 48.984,96.024 48.984,95.064 C48.984,94.1146667 49.192,93.3813333 49.608,92.864 C50.024,92.3466667 50.6106667,92.088 51.368,92.088 C52.1253333,92.088 52.712,92.3466667 53.128,92.864 C53.544,93.3813333 53.752,94.1146667 53.752,95.064 C53.752,96.0346667 53.5466667,96.7733333 53.136,97.28 C52.7253333,97.7866667 52.136,98.04 51.368,98.04 Z M65.656,99.048 C65.8053333,99.048 65.9413333,99.008 66.064,98.928 C66.1866667,98.848 66.28,98.7386667 66.344,98.6 L66.344,98.6 L69,91.88 C69.032,91.7946667 69.048,91.7146667 69.048,91.64 C69.048,91.48 68.984,91.3466667 68.856,91.24 C68.728,91.1333333 68.584,91.08 68.424,91.08 C68.1786667,91.08 68.0026667,91.208 67.896,91.464 L67.896,91.464 L65.688,97.336 L63.432,91.496 C63.3786667,91.3573333 63.296,91.2506667 63.184,91.176 C63.072,91.1013333 62.9466667,91.064 62.808,91.064 C62.68,91.064 62.56,91.1013333 62.448,91.176 C62.336,91.2506667 62.248,91.3573333 62.184,91.496 L62.184,91.496 L59.928,97.352 L57.736,91.448 C57.6293333,91.192 57.448,91.064 57.192,91.064 C57.0213333,91.064 56.864,91.1226667 56.72,91.24 C56.576,91.3573333 56.504,91.5013333 56.504,91.672 C56.504,91.736 56.52,91.8106667 56.552,91.896 L56.552,91.896 L59.208,98.6 C59.272,98.7386667 59.368,98.848 59.496,98.928 C59.624,99.008 59.7573333,99.048 59.896,99.048 C60.0453333,99.048 60.184,99.008 60.312,98.928 C60.44,98.848 60.5306667,98.7386667 60.584,98.6 L60.584,98.6 L62.776,92.984 L64.984,98.6 C65.048,98.7386667 65.1413333,98.848 65.264,98.928 C65.3866667,99.008 65.5173333,99.048 65.656,99.048 Z M73.512,99.112 C74.44,99.112 75.1866667,98.9066667 75.752,98.496 C76.3173333,98.0853333 76.6,97.544 76.6,96.872 C76.6,96.4453333 76.5146667,96.0933333 76.344,95.816 C76.1733333,95.5386667 75.888,95.304 75.488,95.112 C75.088,94.92 74.5253333,94.744 73.8,94.584 C73.3093333,94.4773333 72.9333333,94.368 72.672,94.256 C72.4106667,94.144 72.224,94.016 72.112,93.872 C72,93.728 71.944,93.5386667 71.944,93.304 C71.944,92.9306667 72.096,92.632 72.4,92.408 C72.704,92.184 73.1066667,92.072 73.608,92.072 C74.0026667,92.072 74.3333333,92.1253333 74.6,92.232 C74.8666667,92.3386667 75.1493333,92.488 75.448,92.68 C75.704,92.8613333 75.896,92.952 76.024,92.952 C76.1413333,92.952 76.2426667,92.904 76.328,92.808 C76.4133333,92.712 76.456,92.5946667 76.456,92.456 C76.456,92.1786667 76.2746667,91.912 75.912,91.656 C75.6133333,91.4533333 75.2693333,91.296 74.88,91.184 C74.4906667,91.072 74.088,91.016 73.672,91.016 C73.096,91.016 72.5813333,91.1173333 72.128,91.32 C71.6746667,91.5226667 71.32,91.8 71.064,92.152 C70.808,92.504 70.68,92.9093333 70.68,93.368 C70.68,93.9546667 70.8826667,94.4186667 71.288,94.76 C71.6933333,95.1013333 72.3653333,95.3733333 73.304,95.576 C73.8586667,95.6933333 74.28,95.808 74.568,95.92 C74.856,96.032 75.0586667,96.16 75.176,96.304 C75.2933333,96.448 75.352,96.6373333 75.352,96.872 C75.352,97.256 75.192,97.5493333 74.872,97.752 C74.552,97.9546667 74.104,98.056 73.528,98.056 C73.0586667,98.056 72.6666667,98 72.352,97.888 C72.0373333,97.776 71.72,97.624 71.4,97.432 C71.1546667,97.272 70.968,97.192 70.84,97.192 C70.712,97.192 70.608,97.2373333 70.528,97.328 C70.448,97.4186667 70.408,97.5333333 70.408,97.672 C70.408,97.832 70.448,97.968 70.528,98.08 C70.608,98.192 70.744,98.312 70.936,98.44 C71.2773333,98.6533333 71.6693333,98.8186667 72.112,98.936 C72.5546667,99.0533333 73.0213333,99.112 73.512,99.112 Z M84.424,99.08 C84.6053333,99.08 84.7573333,99.024 84.88,98.912 C85.0026667,98.8 85.064,98.6426667 85.064,98.44 L85.064,98.44 L85.064,92.232 L86.84,92.232 C87.0213333,92.232 87.16,92.1893333 87.256,92.104 C87.352,92.0186667 87.4,91.896 87.4,91.736 C87.4,91.576 87.352,91.448 87.256,91.352 C87.16,91.256 87.0213333,91.208 86.84,91.208 L86.84,91.208 L85.064,91.208 L85.064,90.696 C85.064,90.0666667 85.208,89.5946667 85.496,89.28 C85.784,88.9653333 86.2106667,88.7866667 86.776,88.744 L86.776,88.744 L87.192,88.712 C87.5653333,88.6693333 87.752,88.4933333 87.752,88.184 C87.752,87.992 87.6906667,87.8586667 87.568,87.784 C87.4453333,87.7093333 87.2453333,87.6826667 86.968,87.704 L86.968,87.704 L86.552,87.736 C85.656,87.8 84.968,88.1066667 84.488,88.656 C84.008,89.2053333 83.768,89.96 83.768,90.92 L83.768,90.92 L83.768,91.208 L82.696,91.208 C82.5146667,91.208 82.3733333,91.256 82.272,91.352 C82.1706667,91.448 82.12,91.576 82.12,91.736 C82.12,91.8853333 82.1706667,92.0053333 82.272,92.096 C82.3733333,92.1866667 82.5146667,92.232 82.696,92.232 L82.696,92.232 L83.768,92.232 L83.768,98.44 C83.768,98.6426667 83.8293333,98.8 83.952,98.912 C84.0746667,99.024 84.232,99.08 84.424,99.08 Z M92.056,99.112 C92.792,99.112 93.4426667,98.9466667 94.008,98.616 C94.5733333,98.2853333 95.008,97.8133333 95.312,97.2 C95.616,96.5866667 95.768,95.8746667 95.768,95.064 C95.768,94.2533333 95.616,93.5413333 95.312,92.928 C95.008,92.3146667 94.5733333,91.8426667 94.008,91.512 C93.4426667,91.1813333 92.792,91.016 92.056,91.016 C91.32,91.016 90.672,91.1813333 90.112,91.512 C89.552,91.8426667 89.12,92.3146667 88.816,92.928 C88.512,93.5413333 88.36,94.2533333 88.36,95.064 C88.36,95.8746667 88.512,96.5866667 88.816,97.2 C89.12,97.8133333 89.552,98.2853333 90.112,98.616 C90.672,98.9466667 91.32,99.112 92.056,99.112 Z M92.056,98.04 C91.288,98.04 90.6986667,97.784 90.288,97.272 C89.8773333,96.76 89.672,96.024 89.672,95.064 C89.672,94.1146667 89.88,93.3813333 90.296,92.864 C90.712,92.3466667 91.2986667,92.088 92.056,92.088 C92.8133333,92.088 93.4,92.3466667 93.816,92.864 C94.232,93.3813333 94.44,94.1146667 94.44,95.064 C94.44,96.0346667 94.2346667,96.7733333 93.824,97.28 C93.4133333,97.7866667 92.824,98.04 92.056,98.04 Z M98.68,99.08 C98.872,99.08 99.0266667,99.0266667 99.144,98.92 C99.2613333,98.8133333 99.32,98.6533333 99.32,98.44 L99.32,98.44 L99.32,94.552 C99.32,93.9546667 99.4933333,93.4346667 99.84,92.992 C100.186667,92.5493333 100.717333,92.296 101.432,92.232 L101.432,92.232 L101.912,92.184 C102.146667,92.1626667 102.312,92.1013333 102.408,92 C102.504,91.8986667 102.552,91.7626667 102.552,91.592 C102.552,91.1973333 102.328,91.016 101.88,91.048 L101.88,91.048 L101.656,91.064 C101.122667,91.1066667 100.650667,91.2506667 100.24,91.496 C99.8293333,91.7413333 99.512,92.0986667 99.288,92.568 L99.288,92.568 L99.288,91.672 C99.288,91.48 99.2293333,91.328 99.112,91.216 C98.9946667,91.104 98.8506667,91.048 98.68,91.048 C98.4986667,91.048 98.344,91.104 98.216,91.216 C98.088,91.328 98.024,91.4853333 98.024,91.688 L98.024,91.688 L98.024,98.44 C98.024,98.6426667 98.0853333,98.8 98.208,98.912 C98.3306667,99.024 98.488,99.08 98.68,99.08 Z M111.064,99.112 C111.992,99.112 112.738667,98.9066667 113.304,98.496 C113.869333,98.0853333 114.152,97.544 114.152,96.872 C114.152,96.4453333 114.066667,96.0933333 113.896,95.816 C113.725333,95.5386667 113.44,95.304 113.04,95.112 C112.64,94.92 112.077333,94.744 111.352,94.584 C110.861333,94.4773333 110.485333,94.368 110.224,94.256 C109.962667,94.144 109.776,94.016 109.664,93.872 C109.552,93.728 109.496,93.5386667 109.496,93.304 C109.496,92.9306667 109.648,92.632 109.952,92.408 C110.256,92.184 110.658667,92.072 111.16,92.072 C111.554667,92.072 111.885333,92.1253333 112.152,92.232 C112.418667,92.3386667 112.701333,92.488 113,92.68 C113.256,92.8613333 113.448,92.952 113.576,92.952 C113.693333,92.952 113.794667,92.904 113.88,92.808 C113.965333,92.712 114.008,92.5946667 114.008,92.456 C114.008,92.1786667 113.826667,91.912 113.464,91.656 C113.165333,91.4533333 112.821333,91.296 112.432,91.184 C112.042667,91.072 111.64,91.016 111.224,91.016 C110.648,91.016 110.133333,91.1173333 109.68,91.32 C109.226667,91.5226667 108.872,91.8 108.616,92.152 C108.36,92.504 108.232,92.9093333 108.232,93.368 C108.232,93.9546667 108.434667,94.4186667 108.84,94.76 C109.245333,95.1013333 109.917333,95.3733333 110.856,95.576 C111.410667,95.6933333 111.832,95.808 112.12,95.92 C112.408,96.032 112.610667,96.16 112.728,96.304 C112.845333,96.448 112.904,96.6373333 112.904,96.872 C112.904,97.256 112.744,97.5493333 112.424,97.752 C112.104,97.9546667 111.656,98.056 111.08,98.056 C110.610667,98.056 110.218667,98 109.904,97.888 C109.589333,97.776 109.272,97.624 108.952,97.432 C108.706667,97.272 108.52,97.192 108.392,97.192 C108.264,97.192 108.16,97.2373333 108.08,97.328 C108,97.4186667 107.96,97.5333333 107.96,97.672 C107.96,97.832 108,97.968 108.08,98.08 C108.16,98.192 108.296,98.312 108.488,98.44 C108.829333,98.6533333 109.221333,98.8186667 109.664,98.936 C110.106667,99.0533333 110.573333,99.112 111.064,99.112 Z M119.88,99.112 C120.285333,99.112 120.701333,99.056 121.128,98.944 C121.554667,98.832 121.96,98.664 122.344,98.44 C122.717333,98.216 122.904,97.9706667 122.904,97.704 C122.904,97.5546667 122.861333,97.432 122.776,97.336 C122.690667,97.24 122.589333,97.192 122.472,97.192 C122.376,97.192 122.189333,97.272 121.912,97.432 C121.570667,97.624 121.250667,97.776 120.952,97.888 C120.653333,98 120.296,98.056 119.88,98.056 C118.237333,98.056 117.368,97.1386667 117.272,95.304 L117.272,95.304 L122.424,95.304 C122.616,95.304 122.754667,95.256 122.84,95.16 C122.925333,95.064 122.968,94.9093333 122.968,94.696 C122.968,93.5653333 122.669333,92.6693333 122.072,92.008 C121.474667,91.3466667 120.669333,91.016 119.656,91.016 C118.941333,91.016 118.304,91.1866667 117.744,91.528 C117.184,91.8693333 116.749333,92.3466667 116.44,92.96 C116.130667,93.5733333 115.976,94.28 115.976,95.08 C115.976,96.3386667 116.325333,97.3253333 117.024,98.04 C117.722667,98.7546667 118.674667,99.112 119.88,99.112 Z M121.832,94.472 L117.304,94.472 C117.378667,93.6933333 117.621333,93.0906667 118.032,92.664 C118.442667,92.2373333 118.989333,92.024 119.672,92.024 C120.344,92.024 120.866667,92.2346667 121.24,92.656 C121.613333,93.0773333 121.810667,93.6826667 121.832,94.472 L121.832,94.472 Z M127.672,99.112 C128.216,99.112 128.696,98.9866667 129.112,98.736 C129.528,98.4853333 129.837333,98.1306667 130.04,97.672 L130.04,97.672 L130.04,98.44 C130.04,98.632 130.098667,98.7866667 130.216,98.904 C130.333333,99.0213333 130.488,99.08 130.68,99.08 C130.872,99.08 131.024,99.0213333 131.136,98.904 C131.248,98.7866667 131.304,98.632 131.304,98.44 L131.304,98.44 L131.304,94.088 C131.304,92.04 130.328,91.016 128.376,91.016 C127.906667,91.016 127.434667,91.0773333 126.96,91.2 C126.485333,91.3226667 126.061333,91.4906667 125.688,91.704 C125.485333,91.8213333 125.338667,91.936 125.248,92.048 C125.157333,92.16 125.112,92.2906667 125.112,92.44 C125.112,92.5893333 125.154667,92.712 125.24,92.808 C125.325333,92.904 125.432,92.952 125.56,92.952 C125.677333,92.952 125.88,92.8613333 126.168,92.68 C126.914667,92.2853333 127.650667,92.088 128.376,92.088 C128.962667,92.088 129.386667,92.2373333 129.648,92.536 C129.909333,92.8346667 130.04,93.304 130.04,93.944 L130.04,93.944 L130.04,94.472 L129.688,94.472 C128.472,94.472 127.522667,94.544 126.84,94.688 C126.157333,94.832 125.666667,95.0666667 125.368,95.392 C125.069333,95.7173333 124.92,96.1733333 124.92,96.76 C124.92,97.1973333 125.042667,97.5973333 125.288,97.96 C125.533333,98.3226667 125.866667,98.6053333 126.288,98.808 C126.709333,99.0106667 127.170667,99.112 127.672,99.112 Z M127.848,98.088 C127.389333,98.088 127.008,97.952 126.704,97.68 C126.4,97.408 126.248,97.064 126.248,96.648 C126.248,96.2853333 126.352,96.0106667 126.56,95.824 C126.768,95.6373333 127.117333,95.504 127.608,95.424 C128.098667,95.344 128.813333,95.304 129.752,95.304 L129.752,95.304 L130.04,95.304 L130.04,95.768 C130.04,96.4506667 129.834667,97.008 129.424,97.44 C129.013333,97.872 128.488,98.088 127.848,98.088 Z M144.616,99.08 C144.808,99.08 144.962667,99.024 145.08,98.912 C145.197333,98.8 145.256,98.6426667 145.256,98.44 L145.256,98.44 L145.256,94.104 C145.256,92.0453333 144.392,91.016 142.664,91.016 C142.077333,91.016 141.554667,91.1546667 141.096,91.432 C140.637333,91.7093333 140.296,92.0826667 140.072,92.552 C139.698667,91.528 138.904,91.016 137.688,91.016 C137.144,91.016 136.664,91.1386667 136.248,91.384 C135.832,91.6293333 135.506667,91.9813333 135.272,92.44 L135.272,92.44 L135.272,91.672 C135.272,91.48 135.213333,91.328 135.096,91.216 C134.978667,91.104 134.829333,91.048 134.648,91.048 C134.456,91.048 134.298667,91.1066667 134.176,91.224 C134.053333,91.3413333 133.992,91.496 133.992,91.688 L133.992,91.688 L133.992,98.44 C133.992,98.6426667 134.053333,98.8 134.176,98.912 C134.298667,99.024 134.456,99.08 134.648,99.08 C134.84,99.08 134.994667,99.024 135.112,98.912 C135.229333,98.8 135.288,98.6426667 135.288,98.44 L135.288,98.44 L135.288,94.536 C135.288,93.7893333 135.477333,93.1973333 135.856,92.76 C136.234667,92.3226667 136.744,92.104 137.384,92.104 C137.938667,92.104 138.344,92.264 138.6,92.584 C138.856,92.904 138.984,93.4213333 138.984,94.136 L138.984,94.136 L138.984,98.44 C138.984,98.6426667 139.042667,98.8 139.16,98.912 C139.277333,99.024 139.432,99.08 139.624,99.08 C139.816,99.08 139.973333,99.024 140.096,98.912 C140.218667,98.8 140.28,98.6426667 140.28,98.44 L140.28,98.44 L140.28,94.536 C140.28,93.7893333 140.466667,93.1973333 140.84,92.76 C141.213333,92.3226667 141.725333,92.104 142.376,92.104 C142.92,92.104 143.32,92.264 143.576,92.584 C143.832,92.904 143.96,93.4213333 143.96,94.136 L143.96,94.136 L143.96,98.44 C143.96,98.6426667 144.021333,98.8 144.144,98.912 C144.266667,99.024 144.424,99.08 144.616,99.08 Z M148.6,99.08 C148.781333,99.08 148.933333,99.024 149.056,98.912 C149.178667,98.8 149.24,98.6426667 149.24,98.44 L149.24,98.44 L149.24,88.28 C149.24,88.0773333 149.178667,87.92 149.056,87.808 C148.933333,87.696 148.781333,87.64 148.6,87.64 C148.408,87.64 148.250667,87.696 148.128,87.808 C148.005333,87.92 147.944,88.0773333 147.944,88.28 L147.944,88.28 L147.944,98.44 C147.944,98.6426667 148.005333,98.8 148.128,98.912 C148.250667,99.024 148.408,99.08 148.6,99.08 Z M155.416,99.112 C155.821333,99.112 156.237333,99.056 156.664,98.944 C157.090667,98.832 157.496,98.664 157.88,98.44 C158.253333,98.216 158.44,97.9706667 158.44,97.704 C158.44,97.5546667 158.397333,97.432 158.312,97.336 C158.226667,97.24 158.125333,97.192 158.008,97.192 C157.912,97.192 157.725333,97.272 157.448,97.432 C157.106667,97.624 156.786667,97.776 156.488,97.888 C156.189333,98 155.832,98.056 155.416,98.056 C153.773333,98.056 152.904,97.1386667 152.808,95.304 L152.808,95.304 L157.96,95.304 C158.152,95.304 158.290667,95.256 158.376,95.16 C158.461333,95.064 158.504,94.9093333 158.504,94.696 C158.504,93.5653333 158.205333,92.6693333 157.608,92.008 C157.010667,91.3466667 156.205333,91.016 155.192,91.016 C154.477333,91.016 153.84,91.1866667 153.28,91.528 C152.72,91.8693333 152.285333,92.3466667 151.976,92.96 C151.666667,93.5733333 151.512,94.28 151.512,95.08 C151.512,96.3386667 151.861333,97.3253333 152.56,98.04 C153.258667,98.7546667 154.210667,99.112 155.416,99.112 Z M157.368,94.472 L152.84,94.472 C152.914667,93.6933333 153.157333,93.0906667 153.568,92.664 C153.978667,92.2373333 154.525333,92.024 155.208,92.024 C155.88,92.024 156.402667,92.2346667 156.776,92.656 C157.149333,93.0773333 157.346667,93.6826667 157.368,94.472 L157.368,94.472 Z M163.352,99.112 C164.28,99.112 165.026667,98.9066667 165.592,98.496 C166.157333,98.0853333 166.44,97.544 166.44,96.872 C166.44,96.4453333 166.354667,96.0933333 166.184,95.816 C166.013333,95.5386667 165.728,95.304 165.328,95.112 C164.928,94.92 164.365333,94.744 163.64,94.584 C163.149333,94.4773333 162.773333,94.368 162.512,94.256 C162.250667,94.144 162.064,94.016 161.952,93.872 C161.84,93.728 161.784,93.5386667 161.784,93.304 C161.784,92.9306667 161.936,92.632 162.24,92.408 C162.544,92.184 162.946667,92.072 163.448,92.072 C163.842667,92.072 164.173333,92.1253333 164.44,92.232 C164.706667,92.3386667 164.989333,92.488 165.288,92.68 C165.544,92.8613333 165.736,92.952 165.864,92.952 C165.981333,92.952 166.082667,92.904 166.168,92.808 C166.253333,92.712 166.296,92.5946667 166.296,92.456 C166.296,92.1786667 166.114667,91.912 165.752,91.656 C165.453333,91.4533333 165.109333,91.296 164.72,91.184 C164.330667,91.072 163.928,91.016 163.512,91.016 C162.936,91.016 162.421333,91.1173333 161.968,91.32 C161.514667,91.5226667 161.16,91.8 160.904,92.152 C160.648,92.504 160.52,92.9093333 160.52,93.368 C160.52,93.9546667 160.722667,94.4186667 161.128,94.76 C161.533333,95.1013333 162.205333,95.3733333 163.144,95.576 C163.698667,95.6933333 164.12,95.808 164.408,95.92 C164.696,96.032 164.898667,96.16 165.016,96.304 C165.133333,96.448 165.192,96.6373333 165.192,96.872 C165.192,97.256 165.032,97.5493333 164.712,97.752 C164.392,97.9546667 163.944,98.056 163.368,98.056 C162.898667,98.056 162.506667,98 162.192,97.888 C161.877333,97.776 161.56,97.624 161.24,97.432 C160.994667,97.272 160.808,97.192 160.68,97.192 C160.552,97.192 160.448,97.2373333 160.368,97.328 C160.288,97.4186667 160.248,97.5333333 160.248,97.672 C160.248,97.832 160.288,97.968 160.368,98.08 C160.448,98.192 160.584,98.312 160.776,98.44 C161.117333,98.6533333 161.509333,98.8186667 161.952,98.936 C162.394667,99.0533333 162.861333,99.112 163.352,99.112 Z M171.352,99.112 C172.28,99.112 173.026667,98.9066667 173.592,98.496 C174.157333,98.0853333 174.44,97.544 174.44,96.872 C174.44,96.4453333 174.354667,96.0933333 174.184,95.816 C174.013333,95.5386667 173.728,95.304 173.328,95.112 C172.928,94.92 172.365333,94.744 171.64,94.584 C171.149333,94.4773333 170.773333,94.368 170.512,94.256 C170.250667,94.144 170.064,94.016 169.952,93.872 C169.84,93.728 169.784,93.5386667 169.784,93.304 C169.784,92.9306667 169.936,92.632 170.24,92.408 C170.544,92.184 170.946667,92.072 171.448,92.072 C171.842667,92.072 172.173333,92.1253333 172.44,92.232 C172.706667,92.3386667 172.989333,92.488 173.288,92.68 C173.544,92.8613333 173.736,92.952 173.864,92.952 C173.981333,92.952 174.082667,92.904 174.168,92.808 C174.253333,92.712 174.296,92.5946667 174.296,92.456 C174.296,92.1786667 174.114667,91.912 173.752,91.656 C173.453333,91.4533333 173.109333,91.296 172.72,91.184 C172.330667,91.072 171.928,91.016 171.512,91.016 C170.936,91.016 170.421333,91.1173333 169.968,91.32 C169.514667,91.5226667 169.16,91.8 168.904,92.152 C168.648,92.504 168.52,92.9093333 168.52,93.368 C168.52,93.9546667 168.722667,94.4186667 169.128,94.76 C169.533333,95.1013333 170.205333,95.3733333 171.144,95.576 C171.698667,95.6933333 172.12,95.808 172.408,95.92 C172.696,96.032 172.898667,96.16 173.016,96.304 C173.133333,96.448 173.192,96.6373333 173.192,96.872 C173.192,97.256 173.032,97.5493333 172.712,97.752 C172.392,97.9546667 171.944,98.056 171.368,98.056 C170.898667,98.056 170.506667,98 170.192,97.888 C169.877333,97.776 169.56,97.624 169.24,97.432 C168.994667,97.272 168.808,97.192 168.68,97.192 C168.552,97.192 168.448,97.2373333 168.368,97.328 C168.288,97.4186667 168.248,97.5333333 168.248,97.672 C168.248,97.832 168.288,97.968 168.368,98.08 C168.448,98.192 168.584,98.312 168.776,98.44 C169.117333,98.6533333 169.509333,98.8186667 169.952,98.936 C170.394667,99.0533333 170.861333,99.112 171.352,99.112 Z M47.584,123.112 C48.128,123.112 48.608,122.986667 49.024,122.736 C49.44,122.485333 49.7493333,122.130667 49.952,121.672 L49.952,121.672 L49.952,122.44 C49.952,122.632 50.0106667,122.786667 50.128,122.904 C50.2453333,123.021333 50.4,123.08 50.592,123.08 C50.784,123.08 50.936,123.021333 51.048,122.904 C51.16,122.786667 51.216,122.632 51.216,122.44 L51.216,122.44 L51.216,118.088 C51.216,116.04 50.24,115.016 48.288,115.016 C47.8186667,115.016 47.3466667,115.077333 46.872,115.2 C46.3973333,115.322667 45.9733333,115.490667 45.6,115.704 C45.3973333,115.821333 45.2506667,115.936 45.16,116.048 C45.0693333,116.16 45.024,116.290667 45.024,116.44 C45.024,116.589333 45.0666667,116.712 45.152,116.808 C45.2373333,116.904 45.344,116.952 45.472,116.952 C45.5893333,116.952 45.792,116.861333 46.08,116.68 C46.8266667,116.285333 47.5626667,116.088 48.288,116.088 C48.8746667,116.088 49.2986667,116.237333 49.56,116.536 C49.8213333,116.834667 49.952,117.304 49.952,117.944 L49.952,117.944 L49.952,118.472 L49.6,118.472 C48.384,118.472 47.4346667,118.544 46.752,118.688 C46.0693333,118.832 45.5786667,119.066667 45.28,119.392 C44.9813333,119.717333 44.832,120.173333 44.832,120.76 C44.832,121.197333 44.9546667,121.597333 45.2,121.96 C45.4453333,122.322667 45.7786667,122.605333 46.2,122.808 C46.6213333,123.010667 47.0826667,123.112 47.584,123.112 Z M47.76,122.088 C47.3013333,122.088 46.92,121.952 46.616,121.68 C46.312,121.408 46.16,121.064 46.16,120.648 C46.16,120.285333 46.264,120.010667 46.472,119.824 C46.68,119.637333 47.0293333,119.504 47.52,119.424 C48.0106667,119.344 48.7253333,119.304 49.664,119.304 L49.664,119.304 L49.952,119.304 L49.952,119.768 C49.952,120.450667 49.7466667,121.008 49.336,121.44 C48.9253333,121.872 48.4,122.088 47.76,122.088 Z M56.672,123.112 C57.2266667,123.112 57.7253333,122.989333 58.168,122.744 C58.6106667,122.498667 58.9546667,122.141333 59.2,121.672 L59.2,121.672 L59.2,122.472 C59.2,122.653333 59.256,122.8 59.368,122.912 C59.48,123.024 59.632,123.08 59.824,123.08 C60.0266667,123.08 60.184,123.021333 60.296,122.904 C60.408,122.786667 60.464,122.637333 60.464,122.456 L60.464,122.456 L60.464,115.688 C60.464,115.496 60.408,115.341333 60.296,115.224 C60.184,115.106667 60.0266667,115.048 59.824,115.048 C59.6213333,115.048 59.4613333,115.106667 59.344,115.224 C59.2266667,115.341333 59.168,115.496 59.168,115.688 L59.168,115.688 L59.168,119.608 C59.168,120.333333 58.96,120.917333 58.544,121.36 C58.128,121.802667 57.5786667,122.024 56.896,122.024 C56.2986667,122.024 55.8613333,121.861333 55.584,121.536 C55.3066667,121.210667 55.168,120.701333 55.168,120.008 L55.168,120.008 L55.168,115.688 C55.168,115.496 55.112,115.341333 55,115.224 C54.888,115.106667 54.7306667,115.048 54.528,115.048 C54.3253333,115.048 54.1653333,115.106667 54.048,115.224 C53.9306667,115.341333 53.872,115.496 53.872,115.688 L53.872,115.688 L53.872,120.04 C53.872,121.053333 54.1066667,121.818667 54.576,122.336 C55.0453333,122.853333 55.744,123.112 56.672,123.112 Z M66.56,123.08 C66.8266667,123.101333 67.0266667,123.066667 67.16,122.976 C67.2933333,122.885333 67.36,122.749333 67.36,122.568 C67.36,122.258667 67.1733333,122.088 66.8,122.056 L66.8,122.056 L66.368,122.024 C65.888,121.992 65.528,121.845333 65.288,121.584 C65.048,121.322667 64.928,120.898667 64.928,120.312 L64.928,120.312 L64.928,116.232 L66.704,116.232 C66.8746667,116.232 67.0106667,116.186667 67.112,116.096 C67.2133333,116.005333 67.264,115.885333 67.264,115.736 C67.264,115.576 67.2133333,115.448 67.112,115.352 C67.0106667,115.256 66.8746667,115.208 66.704,115.208 L66.704,115.208 L64.928,115.208 L64.928,113.4 C64.928,113.197333 64.8693333,113.04 64.752,112.928 C64.6346667,112.816 64.48,112.76 64.288,112.76 C64.0853333,112.76 63.9253333,112.816 63.808,112.928 C63.6906667,113.04 63.632,113.197333 63.632,113.4 L63.632,113.4 L63.632,115.208 L62.56,115.208 C62.3786667,115.208 62.2373333,115.256 62.136,115.352 C62.0346667,115.448 61.984,115.576 61.984,115.736 C61.984,115.885333 62.0346667,116.005333 62.136,116.096 C62.2373333,116.186667 62.3786667,116.232 62.56,116.232 L62.56,116.232 L63.632,116.232 L63.632,120.248 C63.632,121.154667 63.8346667,121.832 64.24,122.28 C64.6453333,122.728 65.2746667,122.984 66.128,123.048 L66.128,123.048 L66.56,123.08 Z M72.192,123.112 C72.928,123.112 73.5786667,122.946667 74.144,122.616 C74.7093333,122.285333 75.144,121.813333 75.448,121.2 C75.752,120.586667 75.904,119.874667 75.904,119.064 C75.904,118.253333 75.752,117.541333 75.448,116.928 C75.144,116.314667 74.7093333,115.842667 74.144,115.512 C73.5786667,115.181333 72.928,115.016 72.192,115.016 C71.456,115.016 70.808,115.181333 70.248,115.512 C69.688,115.842667 69.256,116.314667 68.952,116.928 C68.648,117.541333 68.496,118.253333 68.496,119.064 C68.496,119.874667 68.648,120.586667 68.952,121.2 C69.256,121.813333 69.688,122.285333 70.248,122.616 C70.808,122.946667 71.456,123.112 72.192,123.112 Z M72.192,122.04 C71.424,122.04 70.8346667,121.784 70.424,121.272 C70.0133333,120.76 69.808,120.024 69.808,119.064 C69.808,118.114667 70.016,117.381333 70.432,116.864 C70.848,116.346667 71.4346667,116.088 72.192,116.088 C72.9493333,116.088 73.536,116.346667 73.952,116.864 C74.368,117.381333 74.576,118.114667 74.576,119.064 C74.576,120.034667 74.3706667,120.773333 73.96,121.28 C73.5493333,121.786667 72.96,122.04 72.192,122.04 Z M88.784,123.08 C88.976,123.08 89.1306667,123.024 89.248,122.912 C89.3653333,122.8 89.424,122.642667 89.424,122.44 L89.424,122.44 L89.424,118.104 C89.424,116.045333 88.56,115.016 86.832,115.016 C86.2453333,115.016 85.7226667,115.154667 85.264,115.432 C84.8053333,115.709333 84.464,116.082667 84.24,116.552 C83.8666667,115.528 83.072,115.016 81.856,115.016 C81.312,115.016 80.832,115.138667 80.416,115.384 C80,115.629333 79.6746667,115.981333 79.44,116.44 L79.44,116.44 L79.44,115.672 C79.44,115.48 79.3813333,115.328 79.264,115.216 C79.1466667,115.104 78.9973333,115.048 78.816,115.048 C78.624,115.048 78.4666667,115.106667 78.344,115.224 C78.2213333,115.341333 78.16,115.496 78.16,115.688 L78.16,115.688 L78.16,122.44 C78.16,122.642667 78.2213333,122.8 78.344,122.912 C78.4666667,123.024 78.624,123.08 78.816,123.08 C79.008,123.08 79.1626667,123.024 79.28,122.912 C79.3973333,122.8 79.456,122.642667 79.456,122.44 L79.456,122.44 L79.456,118.536 C79.456,117.789333 79.6453333,117.197333 80.024,116.76 C80.4026667,116.322667 80.912,116.104 81.552,116.104 C82.1066667,116.104 82.512,116.264 82.768,116.584 C83.024,116.904 83.152,117.421333 83.152,118.136 L83.152,118.136 L83.152,122.44 C83.152,122.642667 83.2106667,122.8 83.328,122.912 C83.4453333,123.024 83.6,123.08 83.792,123.08 C83.984,123.08 84.1413333,123.024 84.264,122.912 C84.3866667,122.8 84.448,122.642667 84.448,122.44 L84.448,122.44 L84.448,118.536 C84.448,117.789333 84.6346667,117.197333 85.008,116.76 C85.3813333,116.322667 85.8933333,116.104 86.544,116.104 C87.088,116.104 87.488,116.264 87.744,116.584 C88,116.904 88.128,117.421333 88.128,118.136 L88.128,118.136 L88.128,122.44 C88.128,122.642667 88.1893333,122.8 88.312,122.912 C88.4346667,123.024 88.592,123.08 88.784,123.08 Z M94.592,123.112 C95.136,123.112 95.616,122.986667 96.032,122.736 C96.448,122.485333 96.7573333,122.130667 96.96,121.672 L96.96,121.672 L96.96,122.44 C96.96,122.632 97.0186667,122.786667 97.136,122.904 C97.2533333,123.021333 97.408,123.08 97.6,123.08 C97.792,123.08 97.944,123.021333 98.056,122.904 C98.168,122.786667 98.224,122.632 98.224,122.44 L98.224,122.44 L98.224,118.088 C98.224,116.04 97.248,115.016 95.296,115.016 C94.8266667,115.016 94.3546667,115.077333 93.88,115.2 C93.4053333,115.322667 92.9813333,115.490667 92.608,115.704 C92.4053333,115.821333 92.2586667,115.936 92.168,116.048 C92.0773333,116.16 92.032,116.290667 92.032,116.44 C92.032,116.589333 92.0746667,116.712 92.16,116.808 C92.2453333,116.904 92.352,116.952 92.48,116.952 C92.5973333,116.952 92.8,116.861333 93.088,116.68 C93.8346667,116.285333 94.5706667,116.088 95.296,116.088 C95.8826667,116.088 96.3066667,116.237333 96.568,116.536 C96.8293333,116.834667 96.96,117.304 96.96,117.944 L96.96,117.944 L96.96,118.472 L96.608,118.472 C95.392,118.472 94.4426667,118.544 93.76,118.688 C93.0773333,118.832 92.5866667,119.066667 92.288,119.392 C91.9893333,119.717333 91.84,120.173333 91.84,120.76 C91.84,121.197333 91.9626667,121.597333 92.208,121.96 C92.4533333,122.322667 92.7866667,122.605333 93.208,122.808 C93.6293333,123.010667 94.0906667,123.112 94.592,123.112 Z M94.768,122.088 C94.3093333,122.088 93.928,121.952 93.624,121.68 C93.32,121.408 93.168,121.064 93.168,120.648 C93.168,120.285333 93.272,120.010667 93.48,119.824 C93.688,119.637333 94.0373333,119.504 94.528,119.424 C95.0186667,119.344 95.7333333,119.304 96.672,119.304 L96.672,119.304 L96.96,119.304 L96.96,119.768 C96.96,120.450667 96.7546667,121.008 96.344,121.44 C95.9333333,121.872 95.408,122.088 94.768,122.088 Z M104.272,123.08 C104.538667,123.101333 104.738667,123.066667 104.872,122.976 C105.005333,122.885333 105.072,122.749333 105.072,122.568 C105.072,122.258667 104.885333,122.088 104.512,122.056 L104.512,122.056 L104.08,122.024 C103.6,121.992 103.24,121.845333 103,121.584 C102.76,121.322667 102.64,120.898667 102.64,120.312 L102.64,120.312 L102.64,116.232 L104.416,116.232 C104.586667,116.232 104.722667,116.186667 104.824,116.096 C104.925333,116.005333 104.976,115.885333 104.976,115.736 C104.976,115.576 104.925333,115.448 104.824,115.352 C104.722667,115.256 104.586667,115.208 104.416,115.208 L104.416,115.208 L102.64,115.208 L102.64,113.4 C102.64,113.197333 102.581333,113.04 102.464,112.928 C102.346667,112.816 102.192,112.76 102,112.76 C101.797333,112.76 101.637333,112.816 101.52,112.928 C101.402667,113.04 101.344,113.197333 101.344,113.4 L101.344,113.4 L101.344,115.208 L100.272,115.208 C100.090667,115.208 99.9493333,115.256 99.848,115.352 C99.7466667,115.448 99.696,115.576 99.696,115.736 C99.696,115.885333 99.7466667,116.005333 99.848,116.096 C99.9493333,116.186667 100.090667,116.232 100.272,116.232 L100.272,116.232 L101.344,116.232 L101.344,120.248 C101.344,121.154667 101.546667,121.832 101.952,122.28 C102.357333,122.728 102.986667,122.984 103.84,123.048 L103.84,123.048 L104.272,123.08 Z M107.328,113.368 C107.584,113.368 107.792,113.293333 107.952,113.144 C108.112,112.994667 108.192,112.797333 108.192,112.552 C108.192,112.317333 108.112,112.125333 107.952,111.976 C107.792,111.826667 107.584,111.752 107.328,111.752 C107.072,111.752 106.864,111.826667 106.704,111.976 C106.544,112.125333 106.464,112.317333 106.464,112.552 C106.464,112.797333 106.544,112.994667 106.704,113.144 C106.864,113.293333 107.072,113.368 107.328,113.368 Z M107.328,123.08 C107.52,123.08 107.674667,123.026667 107.792,122.92 C107.909333,122.813333 107.968,122.653333 107.968,122.44 L107.968,122.44 L107.968,115.688 C107.968,115.485333 107.909333,115.328 107.792,115.216 C107.674667,115.104 107.52,115.048 107.328,115.048 C107.136,115.048 106.978667,115.104 106.856,115.216 C106.733333,115.328 106.672,115.485333 106.672,115.688 L106.672,115.688 L106.672,122.44 C106.672,122.642667 106.733333,122.8 106.856,122.912 C106.978667,123.024 107.136,123.08 107.328,123.08 Z M113.936,123.112 C114.672,123.112 115.322667,122.946667 115.888,122.616 C116.453333,122.285333 116.888,121.813333 117.192,121.2 C117.496,120.586667 117.648,119.874667 117.648,119.064 C117.648,118.253333 117.496,117.541333 117.192,116.928 C116.888,116.314667 116.453333,115.842667 115.888,115.512 C115.322667,115.181333 114.672,115.016 113.936,115.016 C113.2,115.016 112.552,115.181333 111.992,115.512 C111.432,115.842667 111,116.314667 110.696,116.928 C110.392,117.541333 110.24,118.253333 110.24,119.064 C110.24,119.874667 110.392,120.586667 110.696,121.2 C111,121.813333 111.432,122.285333 111.992,122.616 C112.552,122.946667 113.2,123.112 113.936,123.112 Z M113.936,122.04 C113.168,122.04 112.578667,121.784 112.168,121.272 C111.757333,120.76 111.552,120.024 111.552,119.064 C111.552,118.114667 111.76,117.381333 112.176,116.864 C112.592,116.346667 113.178667,116.088 113.936,116.088 C114.693333,116.088 115.28,116.346667 115.696,116.864 C116.112,117.381333 116.32,118.114667 116.32,119.064 C116.32,120.034667 116.114667,120.773333 115.704,121.28 C115.293333,121.786667 114.704,122.04 113.936,122.04 Z M125.984,123.08 C126.186667,123.08 126.344,123.024 126.456,122.912 C126.568,122.8 126.624,122.642667 126.624,122.44 L126.624,122.44 L126.624,118.104 C126.624,116.045333 125.690667,115.016 123.824,115.016 C123.237333,115.016 122.714667,115.141333 122.256,115.392 C121.797333,115.642667 121.44,116.008 121.184,116.488 L121.184,116.488 L121.184,115.672 C121.184,115.490667 121.128,115.341333 121.016,115.224 C120.904,115.106667 120.752,115.048 120.56,115.048 C120.357333,115.048 120.197333,115.106667 120.08,115.224 C119.962667,115.341333 119.904,115.496 119.904,115.688 L119.904,115.688 L119.904,122.44 C119.904,122.642667 119.962667,122.8 120.08,122.912 C120.197333,123.024 120.357333,123.08 120.56,123.08 C120.762667,123.08 120.92,123.024 121.032,122.912 C121.144,122.8 121.2,122.642667 121.2,122.44 L121.2,122.44 L121.2,118.536 C121.2,117.789333 121.413333,117.197333 121.84,116.76 C122.266667,116.322667 122.837333,116.104 123.552,116.104 C124.170667,116.104 124.621333,116.269333 124.904,116.6 C125.186667,116.930667 125.328,117.458667 125.328,118.184 L125.328,118.184 L125.328,122.44 C125.328,122.642667 125.386667,122.8 125.504,122.912 C125.621333,123.024 125.781333,123.08 125.984,123.08 Z M129.952,123.08 C130.197333,123.08 130.402667,122.997333 130.568,122.832 C130.733333,122.666667 130.816,122.450667 130.816,122.184 C130.816,121.917333 130.733333,121.698667 130.568,121.528 C130.402667,121.357333 130.197333,121.272 129.952,121.272 C129.696,121.272 129.482667,121.357333 129.312,121.528 C129.141333,121.698667 129.056,121.917333 129.056,122.184 C129.056,122.450667 129.141333,122.666667 129.312,122.832 C129.482667,122.997333 129.696,123.08 129.952,123.08 Z" id="Buildingallthecritical,technical,andbusinessworkfowsforseamlessautomation."></path>
            </g>
        </g>
    </g>
</svg>