<?xml version="1.0" encoding="UTF-8"?>
<svg width="306px" height="307px" viewBox="0 0 306 307" version="1.1" xmlns="http://www.w3.org/2000/svg" xmlns:xlink="http://www.w3.org/1999/xlink">
    <!-- Generator: Sketch 63.1 (92452) - https://sketch.com -->
    <title>consult</title>
    <desc>Created with Sketch.</desc>
    <defs>
        <circle id="path-1" cx="156.5" cy="157.5" r="112.5"></circle>
        <filter x="-17.1%" y="-16.2%" width="134.2%" height="134.2%" filterUnits="objectBoundingBox" id="filter-2">
            <feOffset dx="0" dy="2" in="SourceAlpha" result="shadowOffsetOuter1"></feOffset>
            <feGaussianBlur stdDeviation="12.5" in="shadowOffsetOuter1" result="shadowBlurOuter1"></feGaussianBlur>
            <feColorMatrix values="0 0 0 0 0   0 0 0 0 0   0 0 0 0 0  0 0 0 0.182419143 0" type="matrix" in="shadowBlurOuter1"></feColorMatrix>
        </filter>
    </defs>
    <g id="Page-1" stroke="none" stroke-width="1" fill="none" fill-rule="evenodd">
        <g id="consult">
            <g id="Group-7">
                <g id="Group-15" transform="translate(153.000000, 153.500000) scale(1, -1) translate(-153.000000, -153.500000) ">
                    <path d="M297.447177,203.802524 C282.467036,248.777 246.488414,284.154692 201.141439,298.305473 L203.82196,306.897028 C251.894139,291.896 290.078445,254.4056 305.986042,206.646429 L297.447177,203.802524 Z M9.02514589,154.244031 L0.0266351883,154.080308 C0.00888465135,155.052504 -2.84217094e-14,156.025762 -2.84217094e-14,157 C-2.84217094e-14,207.017304 23.5597192,253.135822 62.793772,282.606164 L68.1988058,275.409942 C32.2518626,248.40858 9,205.419672 9,157 C9,156.079356 9.00840615,155.160676 9.02514589,154.244031 Z M158.530979,0.00736302147 L157,-5.68434189e-14 C124.598495,-5.68434189e-14 93.6477857,9.84645895 67.5876844,27.9317606 L72.7193493,35.3254076 C96.6366368,18.7273008 125.682352,9 157,9 C206.432326,9 250.204353,33.2346169 277.082995,70.4707623 L284.380756,65.2036303 C255.344468,24.9780958 209.011838,0.493041553 158.530979,0.00736302147 Z" id="Oval" fill="#DD3021" fill-rule="nonzero"></path>
                    <path d="M52.9623014,90.5035618 L45.7940613,85.843215 C31.939435,107.154665 24.4500001,132.032796 24.4500001,158 C24.4500001,212.526701 57.6815245,260.877494 107.392232,280.952365 L110.594555,273.024715 C65.1011034,254.653261 33,210.075438 33,158 C33,133.106745 40.335293,109.92674 52.9623014,90.5035618 Z M157,34 C225.483309,34 281,89.516691 281,158 C281,166.081945 280.226811,173.983301 278.750367,181.634135 L287.145552,183.253818 C288.740543,174.988545 289.55,166.543778 289.55,158 C289.55,84.7946565 230.205344,25.4500001 157,25.4500001 L157,34 Z" id="Oval" fill="#D02C1E" fill-rule="nonzero"></path>
                    <g id="Oval">
                        <use fill="black" fill-opacity="1" filter="url(#filter-2)" xlink:href="#path-1"></use>
                        <use fill="#FFFFFF" fill-rule="evenodd" xlink:href="#path-1"></use>
                    </g>
                </g>
            </g>
            <g id="Group-4" transform="translate(65.000000, 97.000000)" fill="#262626" fill-rule="nonzero">
                <path d="M59.06,19.18 C59.94,19.18 60.7666667,19.05 61.54,18.79 C62.3133333,18.53 63,18.1533333 63.6,17.66 C63.7733333,17.5266667 63.8933333,17.3833333 63.96,17.23 C64.0266667,17.0766667 64.06,16.9 64.06,16.7 C64.06,16.4066667 63.98,16.16 63.82,15.96 C63.66,15.76 63.4666667,15.66 63.24,15.66 C63.0933333,15.66 62.9533333,15.6866667 62.82,15.74 C62.6866667,15.7933333 62.5533333,15.86 62.42,15.94 C61.8066667,16.3533333 61.2566667,16.6466667 60.77,16.82 C60.2833333,16.9933333 59.7533333,17.08 59.18,17.08 C57.7933333,17.08 56.7433333,16.6466667 56.03,15.78 C55.3166667,14.9133333 54.96,13.6333333 54.96,11.94 C54.96,10.26 55.3166667,8.98666667 56.03,8.12 C56.7433333,7.25333333 57.7933333,6.82 59.18,6.82 C59.78,6.82 60.3266667,6.90333333 60.82,7.07 C61.3133333,7.23666667 61.8466667,7.53333333 62.42,7.96 C62.7,8.14666667 62.9733333,8.24 63.24,8.24 C63.4666667,8.24 63.66,8.14 63.82,7.94 C63.98,7.74 64.06,7.49333333 64.06,7.2 C64.06,6.98666667 64.0266667,6.80666667 63.96,6.66 C63.8933333,6.51333333 63.7733333,6.37333333 63.6,6.24 C63,5.74666667 62.3133333,5.37 61.54,5.11 C60.7666667,4.85 59.94,4.72 59.06,4.72 C57.7,4.72 56.51,5.01333333 55.49,5.6 C54.47,6.18666667 53.6866667,7.02333333 53.14,8.11 C52.5933333,9.19666667 52.32,10.4733333 52.32,11.94 C52.32,13.4066667 52.5933333,14.6866667 53.14,15.78 C53.6866667,16.8733333 54.47,17.7133333 55.49,18.3 C56.51,18.8866667 57.7,19.18 59.06,19.18 Z M70.76,19.16 C71.76,19.16 72.6366667,18.9533333 73.39,18.54 C74.1433333,18.1266667 74.7233333,17.5333333 75.13,16.76 C75.5366667,15.9866667 75.74,15.0866667 75.74,14.06 C75.74,13.0333333 75.5366667,12.1366667 75.13,11.37 C74.7233333,10.6033333 74.1433333,10.0133333 73.39,9.6 C72.6366667,9.18666667 71.76,8.98 70.76,8.98 C69.76,8.98 68.8833333,9.18666667 68.13,9.6 C67.3766667,10.0133333 66.7933333,10.6033333 66.38,11.37 C65.9666667,12.1366667 65.76,13.0333333 65.76,14.06 C65.76,15.0866667 65.9666667,15.9866667 66.38,16.76 C66.7933333,17.5333333 67.3766667,18.1266667 68.13,18.54 C68.8833333,18.9533333 69.76,19.16 70.76,19.16 Z M70.74,17.22 C69.94,17.22 69.3266667,16.9533333 68.9,16.42 C68.4733333,15.8866667 68.26,15.1 68.26,14.06 C68.26,13.0333333 68.4766667,12.25 68.91,11.71 C69.3433333,11.17 69.96,10.9 70.76,10.9 C71.56,10.9 72.1733333,11.17 72.6,11.71 C73.0266667,12.25 73.24,13.0333333 73.24,14.06 C73.24,15.1 73.0266667,15.8866667 72.6,16.42 C72.1733333,16.9533333 71.5533333,17.22 70.74,17.22 Z M86.12,19.12 C86.5066667,19.12 86.81,19.0133333 87.03,18.8 C87.25,18.5866667 87.36,18.2933333 87.36,17.92 L87.36,17.92 L87.36,13 C87.36,11.6533333 87.0733333,10.6466667 86.5,9.98 C85.9266667,9.31333333 85.0533333,8.98 83.88,8.98 C83.1733333,8.98 82.54,9.12666667 81.98,9.42 C81.42,9.71333333 80.9733333,10.1333333 80.64,10.68 L80.64,10.68 L80.64,10.14 C80.64,9.80666667 80.53,9.53666667 80.31,9.33 C80.09,9.12333333 79.8066667,9.02 79.46,9.02 C79.0733333,9.02 78.7666667,9.12666667 78.54,9.34 C78.3133333,9.55333333 78.2,9.83333333 78.2,10.18 L78.2,10.18 L78.2,17.92 C78.2,18.2933333 78.31,18.5866667 78.53,18.8 C78.75,19.0133333 79.0533333,19.12 79.44,19.12 C79.8266667,19.12 80.1333333,19.0133333 80.36,18.8 C80.5866667,18.5866667 80.7,18.2933333 80.7,17.92 L80.7,17.92 L80.7,13.46 C80.7,12.7 80.9166667,12.0933333 81.35,11.64 C81.7833333,11.1866667 82.36,10.96 83.08,10.96 C83.6933333,10.96 84.1433333,11.1333333 84.43,11.48 C84.7166667,11.8266667 84.86,12.38 84.86,13.14 L84.86,13.14 L84.86,17.92 C84.86,18.2933333 84.9733333,18.5866667 85.2,18.8 C85.4266667,19.0133333 85.7333333,19.12 86.12,19.12 Z M93.84,19.16 C95.0933333,19.16 96.0966667,18.8866667 96.85,18.34 C97.6033333,17.7933333 97.98,17.0666667 97.98,16.16 C97.98,15.6 97.87,15.14 97.65,14.78 C97.43,14.42 97.0666667,14.12 96.56,13.88 C96.0533333,13.64 95.3533333,13.4266667 94.46,13.24 C93.62,13.0666667 93.0533333,12.8933333 92.76,12.72 C92.4666667,12.5466667 92.32,12.2933333 92.32,11.96 C92.32,11.6133333 92.4633333,11.34 92.75,11.14 C93.0366667,10.94 93.4266667,10.84 93.92,10.84 C94.3333333,10.84 94.68,10.89 94.96,10.99 C95.24,11.09 95.5733333,11.24 95.96,11.44 C96.1733333,11.56 96.35,11.65 96.49,11.71 C96.63,11.77 96.7733333,11.8 96.92,11.8 C97.1333333,11.8 97.3133333,11.71 97.46,11.53 C97.6066667,11.35 97.68,11.1266667 97.68,10.86 C97.68,10.42 97.4666667,10.0666667 97.04,9.8 C96.6266667,9.53333333 96.16,9.33 95.64,9.19 C95.12,9.05 94.58,8.98 94.02,8.98 C93.2466667,8.98 92.5566667,9.11 91.95,9.37 C91.3433333,9.63 90.8666667,9.99666667 90.52,10.47 C90.1733333,10.9433333 90,11.4733333 90,12.06 C90,12.8333333 90.2566667,13.44 90.77,13.88 C91.2833333,14.32 92.1333333,14.66 93.32,14.9 C93.9866667,15.0466667 94.4833333,15.1766667 94.81,15.29 C95.1366667,15.4033333 95.3633333,15.5266667 95.49,15.66 C95.6166667,15.7933333 95.68,15.9733333 95.68,16.2 C95.68,16.5333333 95.5233333,16.7933333 95.21,16.98 C94.8966667,17.1666667 94.46,17.26 93.9,17.26 C93.3533333,17.26 92.9033333,17.2066667 92.55,17.1 C92.1966667,16.9933333 91.8066667,16.84 91.38,16.64 C90.98,16.4266667 90.6666667,16.32 90.44,16.32 C90.2266667,16.32 90.0466667,16.4033333 89.9,16.57 C89.7533333,16.7366667 89.68,16.9533333 89.68,17.22 C89.68,17.6866667 89.8933333,18.0466667 90.32,18.3 C91.2133333,18.8733333 92.3866667,19.16 93.84,19.16 Z M103.94,19.16 C104.593333,19.16 105.18,19.0166667 105.7,18.73 C106.22,18.4433333 106.633333,18.0333333 106.94,17.5 L106.94,17.5 L106.94,18 C106.94,18.3466667 107.046667,18.62 107.26,18.82 C107.473333,19.02 107.76,19.12 108.12,19.12 C108.493333,19.12 108.796667,19.0133333 109.03,18.8 C109.263333,18.5866667 109.38,18.3066667 109.38,17.96 L109.38,17.96 L109.38,10.2 C109.38,9.84 109.266667,9.55333333 109.04,9.34 C108.813333,9.12666667 108.506667,9.02 108.12,9.02 C107.746667,9.02 107.446667,9.12666667 107.22,9.34 C106.993333,9.55333333 106.88,9.84 106.88,10.2 L106.88,10.2 L106.88,14.66 C106.88,15.42 106.67,16.03 106.25,16.49 C105.83,16.95 105.273333,17.18 104.58,17.18 C103.98,17.18 103.54,17.0133333 103.26,16.68 C102.98,16.3466667 102.84,15.8333333 102.84,15.14 L102.84,15.14 L102.84,10.2 C102.84,9.84 102.726667,9.55333333 102.5,9.34 C102.273333,9.12666667 101.966667,9.02 101.58,9.02 C101.206667,9.02 100.906667,9.12666667 100.68,9.34 C100.453333,9.55333333 100.34,9.84 100.34,10.2 L100.34,10.2 L100.34,15.12 C100.34,17.8133333 101.54,19.16 103.94,19.16 Z M113.62,19.12 C113.98,19.12 114.28,19.0166667 114.52,18.81 C114.76,18.6033333 114.88,18.3066667 114.88,17.92 L114.88,17.92 L114.88,5.98 C114.88,5.59333333 114.76,5.3 114.52,5.1 C114.28,4.9 113.98,4.8 113.62,4.8 C113.26,4.8 112.963333,4.9 112.73,5.1 C112.496667,5.3 112.38,5.59333333 112.38,5.98 L112.38,5.98 L112.38,17.92 C112.38,18.3066667 112.496667,18.6033333 112.73,18.81 C112.963333,19.0166667 113.26,19.12 113.62,19.12 Z M122.86,19.1 C123.34,19.1266667 123.71,19.0566667 123.97,18.89 C124.23,18.7233333 124.36,18.48 124.36,18.16 C124.36,17.6 124.026667,17.3 123.36,17.26 L123.36,17.26 L122.82,17.22 C121.913333,17.1533333 121.46,16.6266667 121.46,15.64 L121.46,15.64 L121.46,11.1 L123.16,11.1 C123.52,11.1 123.796667,11.02 123.99,10.86 C124.183333,10.7 124.28,10.4666667 124.28,10.16 C124.28,9.85333333 124.183333,9.62 123.99,9.46 C123.796667,9.3 123.52,9.22 123.16,9.22 L123.16,9.22 L121.46,9.22 L121.46,7.38 C121.46,7.02 121.346667,6.73333333 121.12,6.52 C120.893333,6.30666667 120.593333,6.2 120.22,6.2 C119.833333,6.2 119.526667,6.30666667 119.3,6.52 C119.073333,6.73333333 118.96,7.02 118.96,7.38 L118.96,7.38 L118.96,9.22 L117.96,9.22 C117.6,9.22 117.323333,9.3 117.13,9.46 C116.936667,9.62 116.84,9.85333333 116.84,10.16 C116.84,10.4666667 116.936667,10.7 117.13,10.86 C117.323333,11.02 117.6,11.1 117.96,11.1 L117.96,11.1 L118.96,11.1 L118.96,15.46 C118.96,17.7 120.08,18.9 122.32,19.06 L122.32,19.06 L122.86,19.1 Z" id="Consult"></path>
                <path d="M17.324,51.096 C17.484,51.096 17.6253333,51.0453333 17.748,50.944 C17.8706667,50.8426667 17.932,50.712 17.932,50.552 C17.932,50.424 17.8946667,50.3013333 17.82,50.184 L17.82,50.184 L15.996,47.304 C15.7826667,46.9626667 15.5693333,46.696 15.356,46.504 C15.1426667,46.312 14.9026667,46.1733333 14.636,46.088 C15.596,45.9706667 16.3346667,45.64 16.852,45.096 C17.3693333,44.552 17.628,43.832 17.628,42.936 C17.628,41.88 17.3053333,41.08 16.66,40.536 C16.0146667,39.992 15.0786667,39.72 13.852,39.72 L13.852,39.72 L9.884,39.72 C9.68133333,39.72 9.51866667,39.7786667 9.396,39.896 C9.27333333,40.0133333 9.212,40.168 9.212,40.36 L9.212,40.36 L9.212,50.408 C9.212,50.6106667 9.27066667,50.7733333 9.388,50.896 C9.50533333,51.0186667 9.66533333,51.08 9.868,51.08 C10.06,51.08 10.2146667,51.0186667 10.332,50.896 C10.4493333,50.7733333 10.508,50.6106667 10.508,50.408 L10.508,50.408 L10.508,46.232 L12.524,46.232 C13.036,46.232 13.4413333,46.3146667 13.74,46.48 C14.0386667,46.6453333 14.3266667,46.9466667 14.604,47.384 L14.604,47.384 L16.748,50.776 C16.8866667,50.9893333 17.0786667,51.096 17.324,51.096 Z M13.74,45.144 L10.508,45.144 L10.508,40.808 L13.74,40.808 C14.6253333,40.808 15.2813333,40.984 15.708,41.336 C16.1346667,41.688 16.348,42.2266667 16.348,42.952 C16.348,43.688 16.132,44.2373333 15.7,44.6 C15.268,44.9626667 14.6146667,45.144 13.74,45.144 L13.74,45.144 Z M23.756,51.112 C24.1613333,51.112 24.5773333,51.056 25.004,50.944 C25.4306667,50.832 25.836,50.664 26.22,50.44 C26.5933333,50.216 26.78,49.9706667 26.78,49.704 C26.78,49.5546667 26.7373333,49.432 26.652,49.336 C26.5666667,49.24 26.4653333,49.192 26.348,49.192 C26.252,49.192 26.0653333,49.272 25.788,49.432 C25.4466667,49.624 25.1266667,49.776 24.828,49.888 C24.5293333,50 24.172,50.056 23.756,50.056 C22.1133333,50.056 21.244,49.1386667 21.148,47.304 L21.148,47.304 L26.3,47.304 C26.492,47.304 26.6306667,47.256 26.716,47.16 C26.8013333,47.064 26.844,46.9093333 26.844,46.696 C26.844,45.5653333 26.5453333,44.6693333 25.948,44.008 C25.3506667,43.3466667 24.5453333,43.016 23.532,43.016 C22.8173333,43.016 22.18,43.1866667 21.62,43.528 C21.06,43.8693333 20.6253333,44.3466667 20.316,44.96 C20.0066667,45.5733333 19.852,46.28 19.852,47.08 C19.852,48.3386667 20.2013333,49.3253333 20.9,50.04 C21.5986667,50.7546667 22.5506667,51.112 23.756,51.112 Z M25.708,46.472 L21.18,46.472 C21.2546667,45.6933333 21.4973333,45.0906667 21.908,44.664 C22.3186667,44.2373333 22.8653333,44.024 23.548,44.024 C24.22,44.024 24.7426667,44.2346667 25.116,44.656 C25.4893333,45.0773333 25.6866667,45.6826667 25.708,46.472 L25.708,46.472 Z M35.324,53.96 C35.5266667,53.96 35.6866667,53.9013333 35.804,53.784 C35.9213333,53.6666667 35.98,53.5173333 35.98,53.336 L35.98,53.336 L35.98,43.688 C35.98,43.496 35.9213333,43.3413333 35.804,43.224 C35.6866667,43.1066667 35.5266667,43.048 35.324,43.048 C35.1213333,43.048 34.964,43.1066667 34.852,43.224 C34.74,43.3413333 34.684,43.496 34.684,43.688 L34.684,43.688 L34.684,44.552 C34.4493333,44.0613333 34.1053333,43.6826667 33.652,43.416 C33.1986667,43.1493333 32.668,43.016 32.06,43.016 C31.3773333,43.016 30.7746667,43.1866667 30.252,43.528 C29.7293333,43.8693333 29.324,44.3466667 29.036,44.96 C28.748,45.5733333 28.604,46.2853333 28.604,47.096 C28.604,47.9066667 28.748,48.6133333 29.036,49.216 C29.324,49.8186667 29.7266667,50.2853333 30.244,50.616 C30.7613333,50.9466667 31.3666667,51.112 32.06,51.112 C32.668,51.112 33.1986667,50.9786667 33.652,50.712 C34.1053333,50.4453333 34.4493333,50.0666667 34.684,49.576 L34.684,49.576 L34.684,53.336 C34.684,53.528 34.74,53.68 34.852,53.792 C34.964,53.904 35.1213333,53.96 35.324,53.96 Z M32.316,50.04 C31.5586667,50.04 30.9693333,49.784 30.548,49.272 C30.1266667,48.76 29.916,48.0346667 29.916,47.096 C29.916,46.1573333 30.1266667,45.424 30.548,44.896 C30.9693333,44.368 31.5586667,44.104 32.316,44.104 C33.0733333,44.104 33.6573333,44.36 34.068,44.872 C34.4786667,45.384 34.684,46.1146667 34.684,47.064 C34.684,48.0133333 34.4786667,48.7466667 34.068,49.264 C33.6573333,49.7813333 33.0733333,50.04 32.316,50.04 Z M41.468,51.112 C42.0226667,51.112 42.5213333,50.9893333 42.964,50.744 C43.4066667,50.4986667 43.7506667,50.1413333 43.996,49.672 L43.996,49.672 L43.996,50.472 C43.996,50.6533333 44.052,50.8 44.164,50.912 C44.276,51.024 44.428,51.08 44.62,51.08 C44.8226667,51.08 44.98,51.0213333 45.092,50.904 C45.204,50.7866667 45.26,50.6373333 45.26,50.456 L45.26,50.456 L45.26,43.688 C45.26,43.496 45.204,43.3413333 45.092,43.224 C44.98,43.1066667 44.8226667,43.048 44.62,43.048 C44.4173333,43.048 44.2573333,43.1066667 44.14,43.224 C44.0226667,43.3413333 43.964,43.496 43.964,43.688 L43.964,43.688 L43.964,47.608 C43.964,48.3333333 43.756,48.9173333 43.34,49.36 C42.924,49.8026667 42.3746667,50.024 41.692,50.024 C41.0946667,50.024 40.6573333,49.8613333 40.38,49.536 C40.1026667,49.2106667 39.964,48.7013333 39.964,48.008 L39.964,48.008 L39.964,43.688 C39.964,43.496 39.908,43.3413333 39.796,43.224 C39.684,43.1066667 39.5266667,43.048 39.324,43.048 C39.1213333,43.048 38.9613333,43.1066667 38.844,43.224 C38.7266667,43.3413333 38.668,43.496 38.668,43.688 L38.668,43.688 L38.668,48.04 C38.668,49.0533333 38.9026667,49.8186667 39.372,50.336 C39.8413333,50.8533333 40.54,51.112 41.468,51.112 Z M48.652,41.368 C48.908,41.368 49.116,41.2933333 49.276,41.144 C49.436,40.9946667 49.516,40.7973333 49.516,40.552 C49.516,40.3173333 49.436,40.1253333 49.276,39.976 C49.116,39.8266667 48.908,39.752 48.652,39.752 C48.396,39.752 48.188,39.8266667 48.028,39.976 C47.868,40.1253333 47.788,40.3173333 47.788,40.552 C47.788,40.7973333 47.868,40.9946667 48.028,41.144 C48.188,41.2933333 48.396,41.368 48.652,41.368 Z M48.652,51.08 C48.844,51.08 48.9986667,51.0266667 49.116,50.92 C49.2333333,50.8133333 49.292,50.6533333 49.292,50.44 L49.292,50.44 L49.292,43.688 C49.292,43.4853333 49.2333333,43.328 49.116,43.216 C48.9986667,43.104 48.844,43.048 48.652,43.048 C48.46,43.048 48.3026667,43.104 48.18,43.216 C48.0573333,43.328 47.996,43.4853333 47.996,43.688 L47.996,43.688 L47.996,50.44 C47.996,50.6426667 48.0573333,50.8 48.18,50.912 C48.3026667,51.024 48.46,51.08 48.652,51.08 Z M52.684,51.08 C52.876,51.08 53.0306667,51.0266667 53.148,50.92 C53.2653333,50.8133333 53.324,50.6533333 53.324,50.44 L53.324,50.44 L53.324,46.552 C53.324,45.9546667 53.4973333,45.4346667 53.844,44.992 C54.1906667,44.5493333 54.7213333,44.296 55.436,44.232 L55.436,44.232 L55.916,44.184 C56.1506667,44.1626667 56.316,44.1013333 56.412,44 C56.508,43.8986667 56.556,43.7626667 56.556,43.592 C56.556,43.1973333 56.332,43.016 55.884,43.048 L55.884,43.048 L55.66,43.064 C55.1266667,43.1066667 54.6546667,43.2506667 54.244,43.496 C53.8333333,43.7413333 53.516,44.0986667 53.292,44.568 L53.292,44.568 L53.292,43.672 C53.292,43.48 53.2333333,43.328 53.116,43.216 C52.9986667,43.104 52.8546667,43.048 52.684,43.048 C52.5026667,43.048 52.348,43.104 52.22,43.216 C52.092,43.328 52.028,43.4853333 52.028,43.688 L52.028,43.688 L52.028,50.44 C52.028,50.6426667 52.0893333,50.8 52.212,50.912 C52.3346667,51.024 52.492,51.08 52.684,51.08 Z M61.276,51.112 C61.6813333,51.112 62.0973333,51.056 62.524,50.944 C62.9506667,50.832 63.356,50.664 63.74,50.44 C64.1133333,50.216 64.3,49.9706667 64.3,49.704 C64.3,49.5546667 64.2573333,49.432 64.172,49.336 C64.0866667,49.24 63.9853333,49.192 63.868,49.192 C63.772,49.192 63.5853333,49.272 63.308,49.432 C62.9666667,49.624 62.6466667,49.776 62.348,49.888 C62.0493333,50 61.692,50.056 61.276,50.056 C59.6333333,50.056 58.764,49.1386667 58.668,47.304 L58.668,47.304 L63.82,47.304 C64.012,47.304 64.1506667,47.256 64.236,47.16 C64.3213333,47.064 64.364,46.9093333 64.364,46.696 C64.364,45.5653333 64.0653333,44.6693333 63.468,44.008 C62.8706667,43.3466667 62.0653333,43.016 61.052,43.016 C60.3373333,43.016 59.7,43.1866667 59.14,43.528 C58.58,43.8693333 58.1453333,44.3466667 57.836,44.96 C57.5266667,45.5733333 57.372,46.28 57.372,47.08 C57.372,48.3386667 57.7213333,49.3253333 58.42,50.04 C59.1186667,50.7546667 60.0706667,51.112 61.276,51.112 Z M63.228,46.472 L58.7,46.472 C58.7746667,45.6933333 59.0173333,45.0906667 59.428,44.664 C59.8386667,44.2373333 60.3853333,44.024 61.068,44.024 C61.74,44.024 62.2626667,44.2346667 62.636,44.656 C63.0093333,45.0773333 63.2066667,45.6826667 63.228,46.472 L63.228,46.472 Z M77.212,51.08 C77.404,51.08 77.5586667,51.024 77.676,50.912 C77.7933333,50.8 77.852,50.6426667 77.852,50.44 L77.852,50.44 L77.852,46.104 C77.852,44.0453333 76.988,43.016 75.26,43.016 C74.6733333,43.016 74.1506667,43.1546667 73.692,43.432 C73.2333333,43.7093333 72.892,44.0826667 72.668,44.552 C72.2946667,43.528 71.5,43.016 70.284,43.016 C69.74,43.016 69.26,43.1386667 68.844,43.384 C68.428,43.6293333 68.1026667,43.9813333 67.868,44.44 L67.868,44.44 L67.868,43.672 C67.868,43.48 67.8093333,43.328 67.692,43.216 C67.5746667,43.104 67.4253333,43.048 67.244,43.048 C67.052,43.048 66.8946667,43.1066667 66.772,43.224 C66.6493333,43.3413333 66.588,43.496 66.588,43.688 L66.588,43.688 L66.588,50.44 C66.588,50.6426667 66.6493333,50.8 66.772,50.912 C66.8946667,51.024 67.052,51.08 67.244,51.08 C67.436,51.08 67.5906667,51.024 67.708,50.912 C67.8253333,50.8 67.884,50.6426667 67.884,50.44 L67.884,50.44 L67.884,46.536 C67.884,45.7893333 68.0733333,45.1973333 68.452,44.76 C68.8306667,44.3226667 69.34,44.104 69.98,44.104 C70.5346667,44.104 70.94,44.264 71.196,44.584 C71.452,44.904 71.58,45.4213333 71.58,46.136 L71.58,46.136 L71.58,50.44 C71.58,50.6426667 71.6386667,50.8 71.756,50.912 C71.8733333,51.024 72.028,51.08 72.22,51.08 C72.412,51.08 72.5693333,51.024 72.692,50.912 C72.8146667,50.8 72.876,50.6426667 72.876,50.44 L72.876,50.44 L72.876,46.536 C72.876,45.7893333 73.0626667,45.1973333 73.436,44.76 C73.8093333,44.3226667 74.3213333,44.104 74.972,44.104 C75.516,44.104 75.916,44.264 76.172,44.584 C76.428,44.904 76.556,45.4213333 76.556,46.136 L76.556,46.136 L76.556,50.44 C76.556,50.6426667 76.6173333,50.8 76.74,50.912 C76.8626667,51.024 77.02,51.08 77.212,51.08 Z M83.98,51.112 C84.3853333,51.112 84.8013333,51.056 85.228,50.944 C85.6546667,50.832 86.06,50.664 86.444,50.44 C86.8173333,50.216 87.004,49.9706667 87.004,49.704 C87.004,49.5546667 86.9613333,49.432 86.876,49.336 C86.7906667,49.24 86.6893333,49.192 86.572,49.192 C86.476,49.192 86.2893333,49.272 86.012,49.432 C85.6706667,49.624 85.3506667,49.776 85.052,49.888 C84.7533333,50 84.396,50.056 83.98,50.056 C82.3373333,50.056 81.468,49.1386667 81.372,47.304 L81.372,47.304 L86.524,47.304 C86.716,47.304 86.8546667,47.256 86.94,47.16 C87.0253333,47.064 87.068,46.9093333 87.068,46.696 C87.068,45.5653333 86.7693333,44.6693333 86.172,44.008 C85.5746667,43.3466667 84.7693333,43.016 83.756,43.016 C83.0413333,43.016 82.404,43.1866667 81.844,43.528 C81.284,43.8693333 80.8493333,44.3466667 80.54,44.96 C80.2306667,45.5733333 80.076,46.28 80.076,47.08 C80.076,48.3386667 80.4253333,49.3253333 81.124,50.04 C81.8226667,50.7546667 82.7746667,51.112 83.98,51.112 Z M85.932,46.472 L81.404,46.472 C81.4786667,45.6933333 81.7213333,45.0906667 82.132,44.664 C82.5426667,44.2373333 83.0893333,44.024 83.772,44.024 C84.444,44.024 84.9666667,44.2346667 85.34,44.656 C85.7133333,45.0773333 85.9106667,45.6826667 85.932,46.472 L85.932,46.472 Z M95.372,51.08 C95.5746667,51.08 95.732,51.024 95.844,50.912 C95.956,50.8 96.012,50.6426667 96.012,50.44 L96.012,50.44 L96.012,46.104 C96.012,44.0453333 95.0786667,43.016 93.212,43.016 C92.6253333,43.016 92.1026667,43.1413333 91.644,43.392 C91.1853333,43.6426667 90.828,44.008 90.572,44.488 L90.572,44.488 L90.572,43.672 C90.572,43.4906667 90.516,43.3413333 90.404,43.224 C90.292,43.1066667 90.14,43.048 89.948,43.048 C89.7453333,43.048 89.5853333,43.1066667 89.468,43.224 C89.3506667,43.3413333 89.292,43.496 89.292,43.688 L89.292,43.688 L89.292,50.44 C89.292,50.6426667 89.3506667,50.8 89.468,50.912 C89.5853333,51.024 89.7453333,51.08 89.948,51.08 C90.1506667,51.08 90.308,51.024 90.42,50.912 C90.532,50.8 90.588,50.6426667 90.588,50.44 L90.588,50.44 L90.588,46.536 C90.588,45.7893333 90.8013333,45.1973333 91.228,44.76 C91.6546667,44.3226667 92.2253333,44.104 92.94,44.104 C93.5586667,44.104 94.0093333,44.2693333 94.292,44.6 C94.5746667,44.9306667 94.716,45.4586667 94.716,46.184 L94.716,46.184 L94.716,50.44 C94.716,50.6426667 94.7746667,50.8 94.892,50.912 C95.0093333,51.024 95.1693333,51.08 95.372,51.08 Z M102.06,51.08 C102.326667,51.1013333 102.526667,51.0666667 102.66,50.976 C102.793333,50.8853333 102.86,50.7493333 102.86,50.568 C102.86,50.2586667 102.673333,50.088 102.3,50.056 L102.3,50.056 L101.868,50.024 C101.388,49.992 101.028,49.8453333 100.788,49.584 C100.548,49.3226667 100.428,48.8986667 100.428,48.312 L100.428,48.312 L100.428,44.232 L102.204,44.232 C102.374667,44.232 102.510667,44.1866667 102.612,44.096 C102.713333,44.0053333 102.764,43.8853333 102.764,43.736 C102.764,43.576 102.713333,43.448 102.612,43.352 C102.510667,43.256 102.374667,43.208 102.204,43.208 L102.204,43.208 L100.428,43.208 L100.428,41.4 C100.428,41.1973333 100.369333,41.04 100.252,40.928 C100.134667,40.816 99.98,40.76 99.788,40.76 C99.5853333,40.76 99.4253333,40.816 99.308,40.928 C99.1906667,41.04 99.132,41.1973333 99.132,41.4 L99.132,41.4 L99.132,43.208 L98.06,43.208 C97.8786667,43.208 97.7373333,43.256 97.636,43.352 C97.5346667,43.448 97.484,43.576 97.484,43.736 C97.484,43.8853333 97.5346667,44.0053333 97.636,44.096 C97.7373333,44.1866667 97.8786667,44.232 98.06,44.232 L98.06,44.232 L99.132,44.232 L99.132,48.248 C99.132,49.1546667 99.3346667,49.832 99.74,50.28 C100.145333,50.728 100.774667,50.984 101.628,51.048 L101.628,51.048 L102.06,51.08 Z M111.388,51.112 C111.932,51.112 112.412,50.9866667 112.828,50.736 C113.244,50.4853333 113.553333,50.1306667 113.756,49.672 L113.756,49.672 L113.756,50.44 C113.756,50.632 113.814667,50.7866667 113.932,50.904 C114.049333,51.0213333 114.204,51.08 114.396,51.08 C114.588,51.08 114.74,51.0213333 114.852,50.904 C114.964,50.7866667 115.02,50.632 115.02,50.44 L115.02,50.44 L115.02,46.088 C115.02,44.04 114.044,43.016 112.092,43.016 C111.622667,43.016 111.150667,43.0773333 110.676,43.2 C110.201333,43.3226667 109.777333,43.4906667 109.404,43.704 C109.201333,43.8213333 109.054667,43.936 108.964,44.048 C108.873333,44.16 108.828,44.2906667 108.828,44.44 C108.828,44.5893333 108.870667,44.712 108.956,44.808 C109.041333,44.904 109.148,44.952 109.276,44.952 C109.393333,44.952 109.596,44.8613333 109.884,44.68 C110.630667,44.2853333 111.366667,44.088 112.092,44.088 C112.678667,44.088 113.102667,44.2373333 113.364,44.536 C113.625333,44.8346667 113.756,45.304 113.756,45.944 L113.756,45.944 L113.756,46.472 L113.404,46.472 C112.188,46.472 111.238667,46.544 110.556,46.688 C109.873333,46.832 109.382667,47.0666667 109.084,47.392 C108.785333,47.7173333 108.636,48.1733333 108.636,48.76 C108.636,49.1973333 108.758667,49.5973333 109.004,49.96 C109.249333,50.3226667 109.582667,50.6053333 110.004,50.808 C110.425333,51.0106667 110.886667,51.112 111.388,51.112 Z M111.564,50.088 C111.105333,50.088 110.724,49.952 110.42,49.68 C110.116,49.408 109.964,49.064 109.964,48.648 C109.964,48.2853333 110.068,48.0106667 110.276,47.824 C110.484,47.6373333 110.833333,47.504 111.324,47.424 C111.814667,47.344 112.529333,47.304 113.468,47.304 L113.468,47.304 L113.756,47.304 L113.756,47.768 C113.756,48.4506667 113.550667,49.008 113.14,49.44 C112.729333,49.872 112.204,50.088 111.564,50.088 Z M123.788,51.08 C123.990667,51.08 124.148,51.024 124.26,50.912 C124.372,50.8 124.428,50.6426667 124.428,50.44 L124.428,50.44 L124.428,46.104 C124.428,44.0453333 123.494667,43.016 121.628,43.016 C121.041333,43.016 120.518667,43.1413333 120.06,43.392 C119.601333,43.6426667 119.244,44.008 118.988,44.488 L118.988,44.488 L118.988,43.672 C118.988,43.4906667 118.932,43.3413333 118.82,43.224 C118.708,43.1066667 118.556,43.048 118.364,43.048 C118.161333,43.048 118.001333,43.1066667 117.884,43.224 C117.766667,43.3413333 117.708,43.496 117.708,43.688 L117.708,43.688 L117.708,50.44 C117.708,50.6426667 117.766667,50.8 117.884,50.912 C118.001333,51.024 118.161333,51.08 118.364,51.08 C118.566667,51.08 118.724,51.024 118.836,50.912 C118.948,50.8 119.004,50.6426667 119.004,50.44 L119.004,50.44 L119.004,46.536 C119.004,45.7893333 119.217333,45.1973333 119.644,44.76 C120.070667,44.3226667 120.641333,44.104 121.356,44.104 C121.974667,44.104 122.425333,44.2693333 122.708,44.6 C122.990667,44.9306667 123.132,45.4586667 123.132,46.184 L123.132,46.184 L123.132,50.44 C123.132,50.6426667 123.190667,50.8 123.308,50.912 C123.425333,51.024 123.585333,51.08 123.788,51.08 Z M129.596,51.112 C130.14,51.112 130.62,50.9866667 131.036,50.736 C131.452,50.4853333 131.761333,50.1306667 131.964,49.672 L131.964,49.672 L131.964,50.44 C131.964,50.632 132.022667,50.7866667 132.14,50.904 C132.257333,51.0213333 132.412,51.08 132.604,51.08 C132.796,51.08 132.948,51.0213333 133.06,50.904 C133.172,50.7866667 133.228,50.632 133.228,50.44 L133.228,50.44 L133.228,46.088 C133.228,44.04 132.252,43.016 130.3,43.016 C129.830667,43.016 129.358667,43.0773333 128.884,43.2 C128.409333,43.3226667 127.985333,43.4906667 127.612,43.704 C127.409333,43.8213333 127.262667,43.936 127.172,44.048 C127.081333,44.16 127.036,44.2906667 127.036,44.44 C127.036,44.5893333 127.078667,44.712 127.164,44.808 C127.249333,44.904 127.356,44.952 127.484,44.952 C127.601333,44.952 127.804,44.8613333 128.092,44.68 C128.838667,44.2853333 129.574667,44.088 130.3,44.088 C130.886667,44.088 131.310667,44.2373333 131.572,44.536 C131.833333,44.8346667 131.964,45.304 131.964,45.944 L131.964,45.944 L131.964,46.472 L131.612,46.472 C130.396,46.472 129.446667,46.544 128.764,46.688 C128.081333,46.832 127.590667,47.0666667 127.292,47.392 C126.993333,47.7173333 126.844,48.1733333 126.844,48.76 C126.844,49.1973333 126.966667,49.5973333 127.212,49.96 C127.457333,50.3226667 127.790667,50.6053333 128.212,50.808 C128.633333,51.0106667 129.094667,51.112 129.596,51.112 Z M129.772,50.088 C129.313333,50.088 128.932,49.952 128.628,49.68 C128.324,49.408 128.172,49.064 128.172,48.648 C128.172,48.2853333 128.276,48.0106667 128.484,47.824 C128.692,47.6373333 129.041333,47.504 129.532,47.424 C130.022667,47.344 130.737333,47.304 131.676,47.304 L131.676,47.304 L131.964,47.304 L131.964,47.768 C131.964,48.4506667 131.758667,49.008 131.348,49.44 C130.937333,49.872 130.412,50.088 129.772,50.088 Z M136.572,51.08 C136.753333,51.08 136.905333,51.024 137.028,50.912 C137.150667,50.8 137.212,50.6426667 137.212,50.44 L137.212,50.44 L137.212,40.28 C137.212,40.0773333 137.150667,39.92 137.028,39.808 C136.905333,39.696 136.753333,39.64 136.572,39.64 C136.38,39.64 136.222667,39.696 136.1,39.808 C135.977333,39.92 135.916,40.0773333 135.916,40.28 L135.916,40.28 L135.916,50.44 C135.916,50.6426667 135.977333,50.8 136.1,50.912 C136.222667,51.024 136.38,51.08 136.572,51.08 Z M141.644,53.944 C141.750667,53.944 141.854667,53.912 141.956,53.848 C142.057333,53.784 142.134667,53.6933333 142.188,53.576 L142.188,53.576 L146.684,43.88 C146.726667,43.8053333 146.748,43.72 146.748,43.624 C146.748,43.464 146.684,43.3306667 146.556,43.224 C146.428,43.1173333 146.284,43.064 146.124,43.064 C145.868,43.064 145.681333,43.192 145.564,43.448 L145.564,43.448 L142.892,49.416 L140.22,43.416 C140.166667,43.2986667 140.089333,43.208 139.988,43.144 C139.886667,43.08 139.782667,43.048 139.676,43.048 C139.505333,43.048 139.348,43.1066667 139.204,43.224 C139.06,43.3413333 138.988,43.48 138.988,43.64 C138.988,43.7253333 139.009333,43.8053333 139.052,43.88 L139.052,43.88 L142.22,50.728 L141.1,53.144 C141.057333,53.2293333 141.036,53.3146667 141.036,53.4 C141.036,53.56 141.097333,53.6906667 141.22,53.792 C141.342667,53.8933333 141.484,53.944 141.644,53.944 Z M150.972,51.112 C151.9,51.112 152.646667,50.9066667 153.212,50.496 C153.777333,50.0853333 154.06,49.544 154.06,48.872 C154.06,48.4453333 153.974667,48.0933333 153.804,47.816 C153.633333,47.5386667 153.348,47.304 152.948,47.112 C152.548,46.92 151.985333,46.744 151.26,46.584 C150.769333,46.4773333 150.393333,46.368 150.132,46.256 C149.870667,46.144 149.684,46.016 149.572,45.872 C149.46,45.728 149.404,45.5386667 149.404,45.304 C149.404,44.9306667 149.556,44.632 149.86,44.408 C150.164,44.184 150.566667,44.072 151.068,44.072 C151.462667,44.072 151.793333,44.1253333 152.06,44.232 C152.326667,44.3386667 152.609333,44.488 152.908,44.68 C153.164,44.8613333 153.356,44.952 153.484,44.952 C153.601333,44.952 153.702667,44.904 153.788,44.808 C153.873333,44.712 153.916,44.5946667 153.916,44.456 C153.916,44.1786667 153.734667,43.912 153.372,43.656 C153.073333,43.4533333 152.729333,43.296 152.34,43.184 C151.950667,43.072 151.548,43.016 151.132,43.016 C150.556,43.016 150.041333,43.1173333 149.588,43.32 C149.134667,43.5226667 148.78,43.8 148.524,44.152 C148.268,44.504 148.14,44.9093333 148.14,45.368 C148.14,45.9546667 148.342667,46.4186667 148.748,46.76 C149.153333,47.1013333 149.825333,47.3733333 150.764,47.576 C151.318667,47.6933333 151.74,47.808 152.028,47.92 C152.316,48.032 152.518667,48.16 152.636,48.304 C152.753333,48.448 152.812,48.6373333 152.812,48.872 C152.812,49.256 152.652,49.5493333 152.332,49.752 C152.012,49.9546667 151.564,50.056 150.988,50.056 C150.518667,50.056 150.126667,50 149.812,49.888 C149.497333,49.776 149.18,49.624 148.86,49.432 C148.614667,49.272 148.428,49.192 148.3,49.192 C148.172,49.192 148.068,49.2373333 147.988,49.328 C147.908,49.4186667 147.868,49.5333333 147.868,49.672 C147.868,49.832 147.908,49.968 147.988,50.08 C148.068,50.192 148.204,50.312 148.396,50.44 C148.737333,50.6533333 149.129333,50.8186667 149.572,50.936 C150.014667,51.0533333 150.481333,51.112 150.972,51.112 Z M157.004,41.368 C157.26,41.368 157.468,41.2933333 157.628,41.144 C157.788,40.9946667 157.868,40.7973333 157.868,40.552 C157.868,40.3173333 157.788,40.1253333 157.628,39.976 C157.468,39.8266667 157.26,39.752 157.004,39.752 C156.748,39.752 156.54,39.8266667 156.38,39.976 C156.22,40.1253333 156.14,40.3173333 156.14,40.552 C156.14,40.7973333 156.22,40.9946667 156.38,41.144 C156.54,41.2933333 156.748,41.368 157.004,41.368 Z M157.004,51.08 C157.196,51.08 157.350667,51.0266667 157.468,50.92 C157.585333,50.8133333 157.644,50.6533333 157.644,50.44 L157.644,50.44 L157.644,43.688 C157.644,43.4853333 157.585333,43.328 157.468,43.216 C157.350667,43.104 157.196,43.048 157.004,43.048 C156.812,43.048 156.654667,43.104 156.532,43.216 C156.409333,43.328 156.348,43.4853333 156.348,43.688 L156.348,43.688 L156.348,50.44 C156.348,50.6426667 156.409333,50.8 156.532,50.912 C156.654667,51.024 156.812,51.08 157.004,51.08 Z M163.004,51.112 C163.932,51.112 164.678667,50.9066667 165.244,50.496 C165.809333,50.0853333 166.092,49.544 166.092,48.872 C166.092,48.4453333 166.006667,48.0933333 165.836,47.816 C165.665333,47.5386667 165.38,47.304 164.98,47.112 C164.58,46.92 164.017333,46.744 163.292,46.584 C162.801333,46.4773333 162.425333,46.368 162.164,46.256 C161.902667,46.144 161.716,46.016 161.604,45.872 C161.492,45.728 161.436,45.5386667 161.436,45.304 C161.436,44.9306667 161.588,44.632 161.892,44.408 C162.196,44.184 162.598667,44.072 163.1,44.072 C163.494667,44.072 163.825333,44.1253333 164.092,44.232 C164.358667,44.3386667 164.641333,44.488 164.94,44.68 C165.196,44.8613333 165.388,44.952 165.516,44.952 C165.633333,44.952 165.734667,44.904 165.82,44.808 C165.905333,44.712 165.948,44.5946667 165.948,44.456 C165.948,44.1786667 165.766667,43.912 165.404,43.656 C165.105333,43.4533333 164.761333,43.296 164.372,43.184 C163.982667,43.072 163.58,43.016 163.164,43.016 C162.588,43.016 162.073333,43.1173333 161.62,43.32 C161.166667,43.5226667 160.812,43.8 160.556,44.152 C160.3,44.504 160.172,44.9093333 160.172,45.368 C160.172,45.9546667 160.374667,46.4186667 160.78,46.76 C161.185333,47.1013333 161.857333,47.3733333 162.796,47.576 C163.350667,47.6933333 163.772,47.808 164.06,47.92 C164.348,48.032 164.550667,48.16 164.668,48.304 C164.785333,48.448 164.844,48.6373333 164.844,48.872 C164.844,49.256 164.684,49.5493333 164.364,49.752 C164.044,49.9546667 163.596,50.056 163.02,50.056 C162.550667,50.056 162.158667,50 161.844,49.888 C161.529333,49.776 161.212,49.624 160.892,49.432 C160.646667,49.272 160.46,49.192 160.332,49.192 C160.204,49.192 160.1,49.2373333 160.02,49.328 C159.94,49.4186667 159.9,49.5333333 159.9,49.672 C159.9,49.832 159.94,49.968 160.02,50.08 C160.1,50.192 160.236,50.312 160.428,50.44 C160.769333,50.6533333 161.161333,50.8186667 161.604,50.936 C162.046667,51.0533333 162.513333,51.112 163.004,51.112 Z M13.46,75.08 C13.6413333,75.08 13.7933333,75.024 13.916,74.912 C14.0386667,74.8 14.1,74.6426667 14.1,74.44 L14.1,74.44 L14.1,64.28 C14.1,64.0773333 14.0386667,63.92 13.916,63.808 C13.7933333,63.696 13.6413333,63.64 13.46,63.64 C13.268,63.64 13.1106667,63.696 12.988,63.808 C12.8653333,63.92 12.804,64.0773333 12.804,64.28 L12.804,64.28 L12.804,74.44 C12.804,74.6426667 12.8653333,74.8 12.988,74.912 C13.1106667,75.024 13.268,75.08 13.46,75.08 Z M20.276,75.112 C20.6813333,75.112 21.0973333,75.056 21.524,74.944 C21.9506667,74.832 22.356,74.664 22.74,74.44 C23.1133333,74.216 23.3,73.9706667 23.3,73.704 C23.3,73.5546667 23.2573333,73.432 23.172,73.336 C23.0866667,73.24 22.9853333,73.192 22.868,73.192 C22.772,73.192 22.5853333,73.272 22.308,73.432 C21.9666667,73.624 21.6466667,73.776 21.348,73.888 C21.0493333,74 20.692,74.056 20.276,74.056 C18.6333333,74.056 17.764,73.1386667 17.668,71.304 L17.668,71.304 L22.82,71.304 C23.012,71.304 23.1506667,71.256 23.236,71.16 C23.3213333,71.064 23.364,70.9093333 23.364,70.696 C23.364,69.5653333 23.0653333,68.6693333 22.468,68.008 C21.8706667,67.3466667 21.0653333,67.016 20.052,67.016 C19.3373333,67.016 18.7,67.1866667 18.14,67.528 C17.58,67.8693333 17.1453333,68.3466667 16.836,68.96 C16.5266667,69.5733333 16.372,70.28 16.372,71.08 C16.372,72.3386667 16.7213333,73.3253333 17.42,74.04 C18.1186667,74.7546667 19.0706667,75.112 20.276,75.112 Z M22.228,70.472 L17.7,70.472 C17.7746667,69.6933333 18.0173333,69.0906667 18.428,68.664 C18.8386667,68.2373333 19.3853333,68.024 20.068,68.024 C20.74,68.024 21.2626667,68.2346667 21.636,68.656 C22.0093333,69.0773333 22.2066667,69.6826667 22.228,70.472 L22.228,70.472 Z M28.068,75.112 C28.612,75.112 29.092,74.9866667 29.508,74.736 C29.924,74.4853333 30.2333333,74.1306667 30.436,73.672 L30.436,73.672 L30.436,74.44 C30.436,74.632 30.4946667,74.7866667 30.612,74.904 C30.7293333,75.0213333 30.884,75.08 31.076,75.08 C31.268,75.08 31.42,75.0213333 31.532,74.904 C31.644,74.7866667 31.7,74.632 31.7,74.44 L31.7,74.44 L31.7,70.088 C31.7,68.04 30.724,67.016 28.772,67.016 C28.3026667,67.016 27.8306667,67.0773333 27.356,67.2 C26.8813333,67.3226667 26.4573333,67.4906667 26.084,67.704 C25.8813333,67.8213333 25.7346667,67.936 25.644,68.048 C25.5533333,68.16 25.508,68.2906667 25.508,68.44 C25.508,68.5893333 25.5506667,68.712 25.636,68.808 C25.7213333,68.904 25.828,68.952 25.956,68.952 C26.0733333,68.952 26.276,68.8613333 26.564,68.68 C27.3106667,68.2853333 28.0466667,68.088 28.772,68.088 C29.3586667,68.088 29.7826667,68.2373333 30.044,68.536 C30.3053333,68.8346667 30.436,69.304 30.436,69.944 L30.436,69.944 L30.436,70.472 L30.084,70.472 C28.868,70.472 27.9186667,70.544 27.236,70.688 C26.5533333,70.832 26.0626667,71.0666667 25.764,71.392 C25.4653333,71.7173333 25.316,72.1733333 25.316,72.76 C25.316,73.1973333 25.4386667,73.5973333 25.684,73.96 C25.9293333,74.3226667 26.2626667,74.6053333 26.684,74.808 C27.1053333,75.0106667 27.5666667,75.112 28.068,75.112 Z M28.244,74.088 C27.7853333,74.088 27.404,73.952 27.1,73.68 C26.796,73.408 26.644,73.064 26.644,72.648 C26.644,72.2853333 26.748,72.0106667 26.956,71.824 C27.164,71.6373333 27.5133333,71.504 28.004,71.424 C28.4946667,71.344 29.2093333,71.304 30.148,71.304 L30.148,71.304 L30.436,71.304 L30.436,71.768 C30.436,72.4506667 30.2306667,73.008 29.82,73.44 C29.4093333,73.872 28.884,74.088 28.244,74.088 Z M37.38,75.112 C37.988,75.112 38.5186667,74.9786667 38.972,74.712 C39.4253333,74.4453333 39.7693333,74.0666667 40.004,73.576 L40.004,73.576 L40.004,74.44 C40.004,74.632 40.06,74.7866667 40.172,74.904 C40.284,75.0213333 40.4413333,75.08 40.644,75.08 C40.8466667,75.08 41.0066667,75.0213333 41.124,74.904 C41.2413333,74.7866667 41.3,74.632 41.3,74.44 L41.3,74.44 L41.3,64.264 C41.3,64.0826667 41.2413333,63.9333333 41.124,63.816 C41.0066667,63.6986667 40.8466667,63.64 40.644,63.64 C40.4413333,63.64 40.284,63.696 40.172,63.808 C40.06,63.92 40.004,64.072 40.004,64.264 L40.004,64.264 L40.004,68.552 C39.7693333,68.0613333 39.4253333,67.6826667 38.972,67.416 C38.5186667,67.1493333 37.988,67.016 37.38,67.016 C36.6973333,67.016 36.0946667,67.1813333 35.572,67.512 C35.0493333,67.8426667 34.644,68.312 34.356,68.92 C34.068,69.528 33.924,70.232 33.924,71.032 C33.924,71.8426667 34.068,72.5546667 34.356,73.168 C34.644,73.7813333 35.0493333,74.2586667 35.572,74.6 C36.0946667,74.9413333 36.6973333,75.112 37.38,75.112 Z M37.636,74.04 C36.8786667,74.04 36.2893333,73.776 35.868,73.248 C35.4466667,72.72 35.236,71.9813333 35.236,71.032 C35.236,70.104 35.4466667,69.384 35.868,68.872 C36.2893333,68.36 36.8786667,68.104 37.636,68.104 C38.3933333,68.104 38.9773333,68.36 39.388,68.872 C39.7986667,69.384 40.004,70.1146667 40.004,71.064 C40.004,72.0133333 39.7986667,72.7466667 39.388,73.264 C38.9773333,73.7813333 38.3933333,74.04 37.636,74.04 Z M44.676,65.368 C44.932,65.368 45.14,65.2933333 45.3,65.144 C45.46,64.9946667 45.54,64.7973333 45.54,64.552 C45.54,64.3173333 45.46,64.1253333 45.3,63.976 C45.14,63.8266667 44.932,63.752 44.676,63.752 C44.42,63.752 44.212,63.8266667 44.052,63.976 C43.892,64.1253333 43.812,64.3173333 43.812,64.552 C43.812,64.7973333 43.892,64.9946667 44.052,65.144 C44.212,65.2933333 44.42,65.368 44.676,65.368 Z M44.676,75.08 C44.868,75.08 45.0226667,75.0266667 45.14,74.92 C45.2573333,74.8133333 45.316,74.6533333 45.316,74.44 L45.316,74.44 L45.316,67.688 C45.316,67.4853333 45.2573333,67.328 45.14,67.216 C45.0226667,67.104 44.868,67.048 44.676,67.048 C44.484,67.048 44.3266667,67.104 44.204,67.216 C44.0813333,67.328 44.02,67.4853333 44.02,67.688 L44.02,67.688 L44.02,74.44 C44.02,74.6426667 44.0813333,74.8 44.204,74.912 C44.3266667,75.024 44.484,75.08 44.676,75.08 Z M54.132,75.08 C54.3346667,75.08 54.492,75.024 54.604,74.912 C54.716,74.8 54.772,74.6426667 54.772,74.44 L54.772,74.44 L54.772,70.104 C54.772,68.0453333 53.8386667,67.016 51.972,67.016 C51.3853333,67.016 50.8626667,67.1413333 50.404,67.392 C49.9453333,67.6426667 49.588,68.008 49.332,68.488 L49.332,68.488 L49.332,67.672 C49.332,67.4906667 49.276,67.3413333 49.164,67.224 C49.052,67.1066667 48.9,67.048 48.708,67.048 C48.5053333,67.048 48.3453333,67.1066667 48.228,67.224 C48.1106667,67.3413333 48.052,67.496 48.052,67.688 L48.052,67.688 L48.052,74.44 C48.052,74.6426667 48.1106667,74.8 48.228,74.912 C48.3453333,75.024 48.5053333,75.08 48.708,75.08 C48.9106667,75.08 49.068,75.024 49.18,74.912 C49.292,74.8 49.348,74.6426667 49.348,74.44 L49.348,74.44 L49.348,70.536 C49.348,69.7893333 49.5613333,69.1973333 49.988,68.76 C50.4146667,68.3226667 50.9853333,68.104 51.7,68.104 C52.3186667,68.104 52.7693333,68.2693333 53.052,68.6 C53.3346667,68.9306667 53.476,69.4586667 53.476,70.184 L53.476,70.184 L53.476,74.44 C53.476,74.6426667 53.5346667,74.8 53.652,74.912 C53.7693333,75.024 53.9293333,75.08 54.132,75.08 Z M60.884,77.992 C62.0573333,77.992 62.9426667,77.696 63.54,77.104 C64.1373333,76.512 64.436,75.6346667 64.436,74.472 L64.436,74.472 L64.436,67.688 C64.436,67.496 64.3773333,67.3413333 64.26,67.224 C64.1426667,67.1066667 63.9826667,67.048 63.78,67.048 C63.5773333,67.048 63.42,67.1066667 63.308,67.224 C63.196,67.3413333 63.14,67.496 63.14,67.688 L63.14,67.688 L63.14,68.552 C62.9053333,68.0613333 62.5586667,67.6826667 62.1,67.416 C61.6413333,67.1493333 61.1026667,67.016 60.484,67.016 C59.8013333,67.016 59.196,67.176 58.668,67.496 C58.14,67.816 57.7293333,68.2693333 57.436,68.856 C57.1426667,69.4426667 56.996,70.12 56.996,70.888 C56.996,71.656 57.1426667,72.3333333 57.436,72.92 C57.7293333,73.5066667 58.14,73.96 58.668,74.28 C59.196,74.6 59.8013333,74.76 60.484,74.76 C61.1133333,74.76 61.66,74.6266667 62.124,74.36 C62.588,74.0933333 62.932,73.7093333 63.156,73.208 L63.156,73.208 L63.156,74.584 C63.156,75.352 62.964,75.936 62.58,76.336 C62.196,76.736 61.6253333,76.936 60.868,76.936 C60.3666667,76.936 59.9346667,76.8773333 59.572,76.76 C59.2093333,76.6426667 58.8413333,76.488 58.468,76.296 C58.1906667,76.1466667 57.9986667,76.072 57.892,76.072 C57.764,76.072 57.66,76.12 57.58,76.216 C57.5,76.312 57.46,76.4346667 57.46,76.584 C57.46,76.8613333 57.652,77.1066667 58.036,77.32 C58.7933333,77.768 59.7426667,77.992 60.884,77.992 Z M60.74,73.688 C59.9826667,73.688 59.388,73.44 58.956,72.944 C58.524,72.448 58.308,71.7626667 58.308,70.888 C58.308,70.024 58.524,69.344 58.956,68.848 C59.388,68.352 59.9826667,68.104 60.74,68.104 C61.4973333,68.104 62.0866667,68.352 62.508,68.848 C62.9293333,69.344 63.14,70.024 63.14,70.888 C63.14,71.7626667 62.9266667,72.448 62.5,72.944 C62.0733333,73.44 61.4866667,73.688 60.74,73.688 Z M74.964,75.08 C75.2306667,75.1013333 75.4306667,75.0666667 75.564,74.976 C75.6973333,74.8853333 75.764,74.7493333 75.764,74.568 C75.764,74.2586667 75.5773333,74.088 75.204,74.056 L75.204,74.056 L74.772,74.024 C74.292,73.992 73.932,73.8453333 73.692,73.584 C73.452,73.3226667 73.332,72.8986667 73.332,72.312 L73.332,72.312 L73.332,68.232 L75.108,68.232 C75.2786667,68.232 75.4146667,68.1866667 75.516,68.096 C75.6173333,68.0053333 75.668,67.8853333 75.668,67.736 C75.668,67.576 75.6173333,67.448 75.516,67.352 C75.4146667,67.256 75.2786667,67.208 75.108,67.208 L75.108,67.208 L73.332,67.208 L73.332,65.4 C73.332,65.1973333 73.2733333,65.04 73.156,64.928 C73.0386667,64.816 72.884,64.76 72.692,64.76 C72.4893333,64.76 72.3293333,64.816 72.212,64.928 C72.0946667,65.04 72.036,65.1973333 72.036,65.4 L72.036,65.4 L72.036,67.208 L70.964,67.208 C70.7826667,67.208 70.6413333,67.256 70.54,67.352 C70.4386667,67.448 70.388,67.576 70.388,67.736 C70.388,67.8853333 70.4386667,68.0053333 70.54,68.096 C70.6413333,68.1866667 70.7826667,68.232 70.964,68.232 L70.964,68.232 L72.036,68.232 L72.036,72.248 C72.036,73.1546667 72.2386667,73.832 72.644,74.28 C73.0493333,74.728 73.6786667,74.984 74.532,75.048 L74.532,75.048 L74.964,75.08 Z M80.596,75.112 C81.332,75.112 81.9826667,74.9466667 82.548,74.616 C83.1133333,74.2853333 83.548,73.8133333 83.852,73.2 C84.156,72.5866667 84.308,71.8746667 84.308,71.064 C84.308,70.2533333 84.156,69.5413333 83.852,68.928 C83.548,68.3146667 83.1133333,67.8426667 82.548,67.512 C81.9826667,67.1813333 81.332,67.016 80.596,67.016 C79.86,67.016 79.212,67.1813333 78.652,67.512 C78.092,67.8426667 77.66,68.3146667 77.356,68.928 C77.052,69.5413333 76.9,70.2533333 76.9,71.064 C76.9,71.8746667 77.052,72.5866667 77.356,73.2 C77.66,73.8133333 78.092,74.2853333 78.652,74.616 C79.212,74.9466667 79.86,75.112 80.596,75.112 Z M80.596,74.04 C79.828,74.04 79.2386667,73.784 78.828,73.272 C78.4173333,72.76 78.212,72.024 78.212,71.064 C78.212,70.1146667 78.42,69.3813333 78.836,68.864 C79.252,68.3466667 79.8386667,68.088 80.596,68.088 C81.3533333,68.088 81.94,68.3466667 82.356,68.864 C82.772,69.3813333 82.98,70.1146667 82.98,71.064 C82.98,72.0346667 82.7746667,72.7733333 82.364,73.28 C81.9533333,73.7866667 81.364,74.04 80.596,74.04 Z M97.092,75.08 C97.284,75.08 97.4386667,75.024 97.556,74.912 C97.6733333,74.8 97.732,74.6426667 97.732,74.44 L97.732,74.44 L97.732,70.104 C97.732,69.08 97.4973333,68.3093333 97.028,67.792 C96.5586667,67.2746667 95.8653333,67.016 94.948,67.016 C94.3613333,67.016 93.8386667,67.1386667 93.38,67.384 C92.9213333,67.6293333 92.564,67.9866667 92.308,68.456 L92.308,68.456 L92.308,64.264 C92.308,64.072 92.252,63.92 92.14,63.808 C92.028,63.696 91.8706667,63.64 91.668,63.64 C91.476,63.64 91.3186667,63.6986667 91.196,63.816 C91.0733333,63.9333333 91.012,64.0826667 91.012,64.264 L91.012,64.264 L91.012,74.44 C91.012,74.6426667 91.0706667,74.8 91.188,74.912 C91.3053333,75.024 91.4653333,75.08 91.668,75.08 C91.8706667,75.08 92.028,75.024 92.14,74.912 C92.252,74.8 92.308,74.6426667 92.308,74.44 L92.308,74.44 L92.308,70.536 C92.308,69.7893333 92.5213333,69.1973333 92.948,68.76 C93.3746667,68.3226667 93.9453333,68.104 94.66,68.104 C95.2786667,68.104 95.7293333,68.2693333 96.012,68.6 C96.2946667,68.9306667 96.436,69.4426667 96.436,70.136 L96.436,70.136 L96.436,74.44 C96.436,74.6426667 96.4946667,74.8 96.612,74.912 C96.7293333,75.024 96.8893333,75.08 97.092,75.08 Z M101.076,65.368 C101.332,65.368 101.54,65.2933333 101.7,65.144 C101.86,64.9946667 101.94,64.7973333 101.94,64.552 C101.94,64.3173333 101.86,64.1253333 101.7,63.976 C101.54,63.8266667 101.332,63.752 101.076,63.752 C100.82,63.752 100.612,63.8266667 100.452,63.976 C100.292,64.1253333 100.212,64.3173333 100.212,64.552 C100.212,64.7973333 100.292,64.9946667 100.452,65.144 C100.612,65.2933333 100.82,65.368 101.076,65.368 Z M101.076,75.08 C101.268,75.08 101.422667,75.0266667 101.54,74.92 C101.657333,74.8133333 101.716,74.6533333 101.716,74.44 L101.716,74.44 L101.716,67.688 C101.716,67.4853333 101.657333,67.328 101.54,67.216 C101.422667,67.104 101.268,67.048 101.076,67.048 C100.884,67.048 100.726667,67.104 100.604,67.216 C100.481333,67.328 100.42,67.4853333 100.42,67.688 L100.42,67.688 L100.42,74.44 C100.42,74.6426667 100.481333,74.8 100.604,74.912 C100.726667,75.024 100.884,75.08 101.076,75.08 Z M107.876,77.992 C109.049333,77.992 109.934667,77.696 110.532,77.104 C111.129333,76.512 111.428,75.6346667 111.428,74.472 L111.428,74.472 L111.428,67.688 C111.428,67.496 111.369333,67.3413333 111.252,67.224 C111.134667,67.1066667 110.974667,67.048 110.772,67.048 C110.569333,67.048 110.412,67.1066667 110.3,67.224 C110.188,67.3413333 110.132,67.496 110.132,67.688 L110.132,67.688 L110.132,68.552 C109.897333,68.0613333 109.550667,67.6826667 109.092,67.416 C108.633333,67.1493333 108.094667,67.016 107.476,67.016 C106.793333,67.016 106.188,67.176 105.66,67.496 C105.132,67.816 104.721333,68.2693333 104.428,68.856 C104.134667,69.4426667 103.988,70.12 103.988,70.888 C103.988,71.656 104.134667,72.3333333 104.428,72.92 C104.721333,73.5066667 105.132,73.96 105.66,74.28 C106.188,74.6 106.793333,74.76 107.476,74.76 C108.105333,74.76 108.652,74.6266667 109.116,74.36 C109.58,74.0933333 109.924,73.7093333 110.148,73.208 L110.148,73.208 L110.148,74.584 C110.148,75.352 109.956,75.936 109.572,76.336 C109.188,76.736 108.617333,76.936 107.86,76.936 C107.358667,76.936 106.926667,76.8773333 106.564,76.76 C106.201333,76.6426667 105.833333,76.488 105.46,76.296 C105.182667,76.1466667 104.990667,76.072 104.884,76.072 C104.756,76.072 104.652,76.12 104.572,76.216 C104.492,76.312 104.452,76.4346667 104.452,76.584 C104.452,76.8613333 104.644,77.1066667 105.028,77.32 C105.785333,77.768 106.734667,77.992 107.876,77.992 Z M107.732,73.688 C106.974667,73.688 106.38,73.44 105.948,72.944 C105.516,72.448 105.3,71.7626667 105.3,70.888 C105.3,70.024 105.516,69.344 105.948,68.848 C106.38,68.352 106.974667,68.104 107.732,68.104 C108.489333,68.104 109.078667,68.352 109.5,68.848 C109.921333,69.344 110.132,70.024 110.132,70.888 C110.132,71.7626667 109.918667,72.448 109.492,72.944 C109.065333,73.44 108.478667,73.688 107.732,73.688 Z M120.228,75.08 C120.42,75.08 120.574667,75.024 120.692,74.912 C120.809333,74.8 120.868,74.6426667 120.868,74.44 L120.868,74.44 L120.868,70.104 C120.868,69.08 120.633333,68.3093333 120.164,67.792 C119.694667,67.2746667 119.001333,67.016 118.084,67.016 C117.497333,67.016 116.974667,67.1386667 116.516,67.384 C116.057333,67.6293333 115.7,67.9866667 115.444,68.456 L115.444,68.456 L115.444,64.264 C115.444,64.072 115.388,63.92 115.276,63.808 C115.164,63.696 115.006667,63.64 114.804,63.64 C114.612,63.64 114.454667,63.6986667 114.332,63.816 C114.209333,63.9333333 114.148,64.0826667 114.148,64.264 L114.148,64.264 L114.148,74.44 C114.148,74.6426667 114.206667,74.8 114.324,74.912 C114.441333,75.024 114.601333,75.08 114.804,75.08 C115.006667,75.08 115.164,75.024 115.276,74.912 C115.388,74.8 115.444,74.6426667 115.444,74.44 L115.444,74.44 L115.444,70.536 C115.444,69.7893333 115.657333,69.1973333 116.084,68.76 C116.510667,68.3226667 117.081333,68.104 117.796,68.104 C118.414667,68.104 118.865333,68.2693333 119.148,68.6 C119.430667,68.9306667 119.572,69.4426667 119.572,70.136 L119.572,70.136 L119.572,74.44 C119.572,74.6426667 119.630667,74.8 119.748,74.912 C119.865333,75.024 120.025333,75.08 120.228,75.08 Z M127.508,71.272 C127.710667,71.272 127.862667,71.224 127.964,71.128 C128.065333,71.032 128.116,70.904 128.116,70.744 C128.116,70.584 128.065333,70.4533333 127.964,70.352 C127.862667,70.2506667 127.710667,70.2 127.508,70.2 L127.508,70.2 L123.988,70.2 C123.796,70.2 123.649333,70.2506667 123.548,70.352 C123.446667,70.4533333 123.396,70.584 123.396,70.744 C123.396,70.904 123.446667,71.032 123.548,71.128 C123.649333,71.224 123.796,71.272 123.988,71.272 L123.988,71.272 L127.508,71.272 Z M131.332,75.08 C131.513333,75.08 131.665333,75.024 131.788,74.912 C131.910667,74.8 131.972,74.6426667 131.972,74.44 L131.972,74.44 L131.972,64.28 C131.972,64.0773333 131.910667,63.92 131.788,63.808 C131.665333,63.696 131.513333,63.64 131.332,63.64 C131.14,63.64 130.982667,63.696 130.86,63.808 C130.737333,63.92 130.676,64.0773333 130.676,64.28 L130.676,64.28 L130.676,74.44 C130.676,74.6426667 130.737333,74.8 130.86,74.912 C130.982667,75.024 131.14,75.08 131.332,75.08 Z M138.148,75.112 C138.553333,75.112 138.969333,75.056 139.396,74.944 C139.822667,74.832 140.228,74.664 140.612,74.44 C140.985333,74.216 141.172,73.9706667 141.172,73.704 C141.172,73.5546667 141.129333,73.432 141.044,73.336 C140.958667,73.24 140.857333,73.192 140.74,73.192 C140.644,73.192 140.457333,73.272 140.18,73.432 C139.838667,73.624 139.518667,73.776 139.22,73.888 C138.921333,74 138.564,74.056 138.148,74.056 C136.505333,74.056 135.636,73.1386667 135.54,71.304 L135.54,71.304 L140.692,71.304 C140.884,71.304 141.022667,71.256 141.108,71.16 C141.193333,71.064 141.236,70.9093333 141.236,70.696 C141.236,69.5653333 140.937333,68.6693333 140.34,68.008 C139.742667,67.3466667 138.937333,67.016 137.924,67.016 C137.209333,67.016 136.572,67.1866667 136.012,67.528 C135.452,67.8693333 135.017333,68.3466667 134.708,68.96 C134.398667,69.5733333 134.244,70.28 134.244,71.08 C134.244,72.3386667 134.593333,73.3253333 135.292,74.04 C135.990667,74.7546667 136.942667,75.112 138.148,75.112 Z M140.1,70.472 L135.572,70.472 C135.646667,69.6933333 135.889333,69.0906667 136.3,68.664 C136.710667,68.2373333 137.257333,68.024 137.94,68.024 C138.612,68.024 139.134667,68.2346667 139.508,68.656 C139.881333,69.0773333 140.078667,69.6826667 140.1,70.472 L140.1,70.472 Z M146.276,75.048 C146.425333,75.048 146.564,75.008 146.692,74.928 C146.82,74.848 146.916,74.7386667 146.98,74.6 L146.98,74.6 L150.1,67.88 C150.142667,67.8053333 150.164,67.72 150.164,67.624 C150.164,67.464 150.1,67.3306667 149.972,67.224 C149.844,67.1173333 149.7,67.064 149.54,67.064 C149.284,67.064 149.097333,67.192 148.98,67.448 L148.98,67.448 L146.308,73.416 L143.636,67.416 C143.582667,67.2986667 143.505333,67.208 143.404,67.144 C143.302667,67.08 143.198667,67.048 143.092,67.048 C142.921333,67.048 142.764,67.1066667 142.62,67.224 C142.476,67.3413333 142.404,67.48 142.404,67.64 C142.404,67.7253333 142.425333,67.8053333 142.468,67.88 L142.468,67.88 L145.572,74.6 C145.646667,74.7386667 145.748,74.848 145.876,74.928 C146.004,75.008 146.137333,75.048 146.276,75.048 Z M155.252,75.112 C155.657333,75.112 156.073333,75.056 156.5,74.944 C156.926667,74.832 157.332,74.664 157.716,74.44 C158.089333,74.216 158.276,73.9706667 158.276,73.704 C158.276,73.5546667 158.233333,73.432 158.148,73.336 C158.062667,73.24 157.961333,73.192 157.844,73.192 C157.748,73.192 157.561333,73.272 157.284,73.432 C156.942667,73.624 156.622667,73.776 156.324,73.888 C156.025333,74 155.668,74.056 155.252,74.056 C153.609333,74.056 152.74,73.1386667 152.644,71.304 L152.644,71.304 L157.796,71.304 C157.988,71.304 158.126667,71.256 158.212,71.16 C158.297333,71.064 158.34,70.9093333 158.34,70.696 C158.34,69.5653333 158.041333,68.6693333 157.444,68.008 C156.846667,67.3466667 156.041333,67.016 155.028,67.016 C154.313333,67.016 153.676,67.1866667 153.116,67.528 C152.556,67.8693333 152.121333,68.3466667 151.812,68.96 C151.502667,69.5733333 151.348,70.28 151.348,71.08 C151.348,72.3386667 151.697333,73.3253333 152.396,74.04 C153.094667,74.7546667 154.046667,75.112 155.252,75.112 Z M157.204,70.472 L152.676,70.472 C152.750667,69.6933333 152.993333,69.0906667 153.404,68.664 C153.814667,68.2373333 154.361333,68.024 155.044,68.024 C155.716,68.024 156.238667,68.2346667 156.612,68.656 C156.985333,69.0773333 157.182667,69.6826667 157.204,70.472 L157.204,70.472 Z M161.22,75.08 C161.401333,75.08 161.553333,75.024 161.676,74.912 C161.798667,74.8 161.86,74.6426667 161.86,74.44 L161.86,74.44 L161.86,64.28 C161.86,64.0773333 161.798667,63.92 161.676,63.808 C161.553333,63.696 161.401333,63.64 161.22,63.64 C161.028,63.64 160.870667,63.696 160.748,63.808 C160.625333,63.92 160.564,64.0773333 160.564,64.28 L160.564,64.28 L160.564,74.44 C160.564,74.6426667 160.625333,74.8 160.748,74.912 C160.870667,75.024 161.028,75.08 161.22,75.08 Z M3.756,99.112 C4.3,99.112 4.78,98.9866667 5.196,98.736 C5.612,98.4853333 5.92133333,98.1306667 6.124,97.672 L6.124,97.672 L6.124,98.44 C6.124,98.632 6.18266667,98.7866667 6.3,98.904 C6.41733333,99.0213333 6.572,99.08 6.764,99.08 C6.956,99.08 7.108,99.0213333 7.22,98.904 C7.332,98.7866667 7.388,98.632 7.388,98.44 L7.388,98.44 L7.388,94.088 C7.388,92.04 6.412,91.016 4.46,91.016 C3.99066667,91.016 3.51866667,91.0773333 3.044,91.2 C2.56933333,91.3226667 2.14533333,91.4906667 1.772,91.704 C1.56933333,91.8213333 1.42266667,91.936 1.332,92.048 C1.24133333,92.16 1.196,92.2906667 1.196,92.44 C1.196,92.5893333 1.23866667,92.712 1.324,92.808 C1.40933333,92.904 1.516,92.952 1.644,92.952 C1.76133333,92.952 1.964,92.8613333 2.252,92.68 C2.99866667,92.2853333 3.73466667,92.088 4.46,92.088 C5.04666667,92.088 5.47066667,92.2373333 5.732,92.536 C5.99333333,92.8346667 6.124,93.304 6.124,93.944 L6.124,93.944 L6.124,94.472 L5.772,94.472 C4.556,94.472 3.60666667,94.544 2.924,94.688 C2.24133333,94.832 1.75066667,95.0666667 1.452,95.392 C1.15333333,95.7173333 1.004,96.1733333 1.004,96.76 C1.004,97.1973333 1.12666667,97.5973333 1.372,97.96 C1.61733333,98.3226667 1.95066667,98.6053333 2.372,98.808 C2.79333333,99.0106667 3.25466667,99.112 3.756,99.112 Z M3.932,98.088 C3.47333333,98.088 3.092,97.952 2.788,97.68 C2.484,97.408 2.332,97.064 2.332,96.648 C2.332,96.2853333 2.436,96.0106667 2.644,95.824 C2.852,95.6373333 3.20133333,95.504 3.692,95.424 C4.18266667,95.344 4.89733333,95.304 5.836,95.304 L5.836,95.304 L6.124,95.304 L6.124,95.768 C6.124,96.4506667 5.91866667,97.008 5.508,97.44 C5.09733333,97.872 4.572,98.088 3.932,98.088 Z M10.732,99.08 C10.924,99.08 11.0786667,99.0266667 11.196,98.92 C11.3133333,98.8133333 11.372,98.6533333 11.372,98.44 L11.372,98.44 L11.372,94.552 C11.372,93.9546667 11.5453333,93.4346667 11.892,92.992 C12.2386667,92.5493333 12.7693333,92.296 13.484,92.232 L13.484,92.232 L13.964,92.184 C14.1986667,92.1626667 14.364,92.1013333 14.46,92 C14.556,91.8986667 14.604,91.7626667 14.604,91.592 C14.604,91.1973333 14.38,91.016 13.932,91.048 L13.932,91.048 L13.708,91.064 C13.1746667,91.1066667 12.7026667,91.2506667 12.292,91.496 C11.8813333,91.7413333 11.564,92.0986667 11.34,92.568 L11.34,92.568 L11.34,91.672 C11.34,91.48 11.2813333,91.328 11.164,91.216 C11.0466667,91.104 10.9026667,91.048 10.732,91.048 C10.5506667,91.048 10.396,91.104 10.268,91.216 C10.14,91.328 10.076,91.4853333 10.076,91.688 L10.076,91.688 L10.076,98.44 C10.076,98.6426667 10.1373333,98.8 10.26,98.912 C10.3826667,99.024 10.54,99.08 10.732,99.08 Z M19.1,99.112 C19.5266667,99.112 19.9506667,99.0506667 20.372,98.928 C20.7933333,98.8053333 21.1533333,98.6426667 21.452,98.44 C21.6546667,98.3013333 21.7933333,98.176 21.868,98.064 C21.9426667,97.952 21.98,97.8266667 21.98,97.688 C21.98,97.5386667 21.94,97.416 21.86,97.32 C21.78,97.224 21.6813333,97.176 21.564,97.176 C21.4893333,97.176 21.3986667,97.2026667 21.292,97.256 C21.1853333,97.3093333 21.0733333,97.3733333 20.956,97.448 C20.6893333,97.6293333 20.4253333,97.7733333 20.164,97.88 C19.9026667,97.9866667 19.5906667,98.04 19.228,98.04 C18.4493333,98.04 17.844,97.784 17.412,97.272 C16.98,96.76 16.764,96.0346667 16.764,95.096 C16.764,94.1573333 16.98,93.424 17.412,92.896 C17.844,92.368 18.4493333,92.104 19.228,92.104 C19.5906667,92.104 19.8973333,92.1573333 20.148,92.264 C20.3986667,92.3706667 20.6626667,92.5146667 20.94,92.696 C20.9613333,92.7066667 21.0013333,92.7333333 21.06,92.776 C21.1186667,92.8186667 21.1906667,92.8613333 21.276,92.904 C21.3613333,92.9466667 21.4413333,92.968 21.516,92.968 C21.644,92.968 21.748,92.92 21.828,92.824 C21.908,92.728 21.948,92.6053333 21.948,92.456 C21.948,92.3066667 21.908,92.1706667 21.828,92.048 C21.748,91.9253333 21.612,91.8 21.42,91.672 C21.1213333,91.4586667 20.772,91.296 20.372,91.184 C19.972,91.072 19.5693333,91.016 19.164,91.016 C18.428,91.016 17.7773333,91.1866667 17.212,91.528 C16.6466667,91.8693333 16.2066667,92.3493333 15.892,92.968 C15.5773333,93.5866667 15.42,94.296 15.42,95.096 C15.42,95.896 15.572,96.6 15.876,97.208 C16.18,97.816 16.612,98.2853333 17.172,98.616 C17.732,98.9466667 18.3746667,99.112 19.1,99.112 Z M29.948,99.08 C30.14,99.08 30.2946667,99.024 30.412,98.912 C30.5293333,98.8 30.588,98.6426667 30.588,98.44 L30.588,98.44 L30.588,94.104 C30.588,93.08 30.3533333,92.3093333 29.884,91.792 C29.4146667,91.2746667 28.7213333,91.016 27.804,91.016 C27.2173333,91.016 26.6946667,91.1386667 26.236,91.384 C25.7773333,91.6293333 25.42,91.9866667 25.164,92.456 L25.164,92.456 L25.164,88.264 C25.164,88.072 25.108,87.92 24.996,87.808 C24.884,87.696 24.7266667,87.64 24.524,87.64 C24.332,87.64 24.1746667,87.6986667 24.052,87.816 C23.9293333,87.9333333 23.868,88.0826667 23.868,88.264 L23.868,88.264 L23.868,98.44 C23.868,98.6426667 23.9266667,98.8 24.044,98.912 C24.1613333,99.024 24.3213333,99.08 24.524,99.08 C24.7266667,99.08 24.884,99.024 24.996,98.912 C25.108,98.8 25.164,98.6426667 25.164,98.44 L25.164,98.44 L25.164,94.536 C25.164,93.7893333 25.3773333,93.1973333 25.804,92.76 C26.2306667,92.3226667 26.8013333,92.104 27.516,92.104 C28.1346667,92.104 28.5853333,92.2693333 28.868,92.6 C29.1506667,92.9306667 29.292,93.4426667 29.292,94.136 L29.292,94.136 L29.292,98.44 C29.292,98.6426667 29.3506667,98.8 29.468,98.912 C29.5853333,99.024 29.7453333,99.08 29.948,99.08 Z M33.932,89.368 C34.188,89.368 34.396,89.2933333 34.556,89.144 C34.716,88.9946667 34.796,88.7973333 34.796,88.552 C34.796,88.3173333 34.716,88.1253333 34.556,87.976 C34.396,87.8266667 34.188,87.752 33.932,87.752 C33.676,87.752 33.468,87.8266667 33.308,87.976 C33.148,88.1253333 33.068,88.3173333 33.068,88.552 C33.068,88.7973333 33.148,88.9946667 33.308,89.144 C33.468,89.2933333 33.676,89.368 33.932,89.368 Z M33.932,99.08 C34.124,99.08 34.2786667,99.0266667 34.396,98.92 C34.5133333,98.8133333 34.572,98.6533333 34.572,98.44 L34.572,98.44 L34.572,91.688 C34.572,91.4853333 34.5133333,91.328 34.396,91.216 C34.2786667,91.104 34.124,91.048 33.932,91.048 C33.74,91.048 33.5826667,91.104 33.46,91.216 C33.3373333,91.328 33.276,91.4853333 33.276,91.688 L33.276,91.688 L33.276,98.44 C33.276,98.6426667 33.3373333,98.8 33.46,98.912 C33.5826667,99.024 33.74,99.08 33.932,99.08 Z M40.796,99.08 C41.0626667,99.1013333 41.2626667,99.0666667 41.396,98.976 C41.5293333,98.8853333 41.596,98.7493333 41.596,98.568 C41.596,98.2586667 41.4093333,98.088 41.036,98.056 L41.036,98.056 L40.604,98.024 C40.124,97.992 39.764,97.8453333 39.524,97.584 C39.284,97.3226667 39.164,96.8986667 39.164,96.312 L39.164,96.312 L39.164,92.232 L40.94,92.232 C41.1106667,92.232 41.2466667,92.1866667 41.348,92.096 C41.4493333,92.0053333 41.5,91.8853333 41.5,91.736 C41.5,91.576 41.4493333,91.448 41.348,91.352 C41.2466667,91.256 41.1106667,91.208 40.94,91.208 L40.94,91.208 L39.164,91.208 L39.164,89.4 C39.164,89.1973333 39.1053333,89.04 38.988,88.928 C38.8706667,88.816 38.716,88.76 38.524,88.76 C38.3213333,88.76 38.1613333,88.816 38.044,88.928 C37.9266667,89.04 37.868,89.1973333 37.868,89.4 L37.868,89.4 L37.868,91.208 L36.796,91.208 C36.6146667,91.208 36.4733333,91.256 36.372,91.352 C36.2706667,91.448 36.22,91.576 36.22,91.736 C36.22,91.8853333 36.2706667,92.0053333 36.372,92.096 C36.4733333,92.1866667 36.6146667,92.232 36.796,92.232 L36.796,92.232 L37.868,92.232 L37.868,96.248 C37.868,97.1546667 38.0706667,97.832 38.476,98.28 C38.8813333,98.728 39.5106667,98.984 40.364,99.048 L40.364,99.048 L40.796,99.08 Z M46.636,99.112 C47.0413333,99.112 47.4573333,99.056 47.884,98.944 C48.3106667,98.832 48.716,98.664 49.1,98.44 C49.4733333,98.216 49.66,97.9706667 49.66,97.704 C49.66,97.5546667 49.6173333,97.432 49.532,97.336 C49.4466667,97.24 49.3453333,97.192 49.228,97.192 C49.132,97.192 48.9453333,97.272 48.668,97.432 C48.3266667,97.624 48.0066667,97.776 47.708,97.888 C47.4093333,98 47.052,98.056 46.636,98.056 C44.9933333,98.056 44.124,97.1386667 44.028,95.304 L44.028,95.304 L49.18,95.304 C49.372,95.304 49.5106667,95.256 49.596,95.16 C49.6813333,95.064 49.724,94.9093333 49.724,94.696 C49.724,93.5653333 49.4253333,92.6693333 48.828,92.008 C48.2306667,91.3466667 47.4253333,91.016 46.412,91.016 C45.6973333,91.016 45.06,91.1866667 44.5,91.528 C43.94,91.8693333 43.5053333,92.3466667 43.196,92.96 C42.8866667,93.5733333 42.732,94.28 42.732,95.08 C42.732,96.3386667 43.0813333,97.3253333 43.78,98.04 C44.4786667,98.7546667 45.4306667,99.112 46.636,99.112 Z M48.588,94.472 L44.06,94.472 C44.1346667,93.6933333 44.3773333,93.0906667 44.788,92.664 C45.1986667,92.2373333 45.7453333,92.024 46.428,92.024 C47.1,92.024 47.6226667,92.2346667 47.996,92.656 C48.3693333,93.0773333 48.5666667,93.6826667 48.588,94.472 L48.588,94.472 Z M55.164,99.112 C55.5906667,99.112 56.0146667,99.0506667 56.436,98.928 C56.8573333,98.8053333 57.2173333,98.6426667 57.516,98.44 C57.7186667,98.3013333 57.8573333,98.176 57.932,98.064 C58.0066667,97.952 58.044,97.8266667 58.044,97.688 C58.044,97.5386667 58.004,97.416 57.924,97.32 C57.844,97.224 57.7453333,97.176 57.628,97.176 C57.5533333,97.176 57.4626667,97.2026667 57.356,97.256 C57.2493333,97.3093333 57.1373333,97.3733333 57.02,97.448 C56.7533333,97.6293333 56.4893333,97.7733333 56.228,97.88 C55.9666667,97.9866667 55.6546667,98.04 55.292,98.04 C54.5133333,98.04 53.908,97.784 53.476,97.272 C53.044,96.76 52.828,96.0346667 52.828,95.096 C52.828,94.1573333 53.044,93.424 53.476,92.896 C53.908,92.368 54.5133333,92.104 55.292,92.104 C55.6546667,92.104 55.9613333,92.1573333 56.212,92.264 C56.4626667,92.3706667 56.7266667,92.5146667 57.004,92.696 C57.0253333,92.7066667 57.0653333,92.7333333 57.124,92.776 C57.1826667,92.8186667 57.2546667,92.8613333 57.34,92.904 C57.4253333,92.9466667 57.5053333,92.968 57.58,92.968 C57.708,92.968 57.812,92.92 57.892,92.824 C57.972,92.728 58.012,92.6053333 58.012,92.456 C58.012,92.3066667 57.972,92.1706667 57.892,92.048 C57.812,91.9253333 57.676,91.8 57.484,91.672 C57.1853333,91.4586667 56.836,91.296 56.436,91.184 C56.036,91.072 55.6333333,91.016 55.228,91.016 C54.492,91.016 53.8413333,91.1866667 53.276,91.528 C52.7106667,91.8693333 52.2706667,92.3493333 51.956,92.968 C51.6413333,93.5866667 51.484,94.296 51.484,95.096 C51.484,95.896 51.636,96.6 51.94,97.208 C52.244,97.816 52.676,98.2853333 53.236,98.616 C53.796,98.9466667 54.4386667,99.112 55.164,99.112 Z M63.308,99.08 C63.5746667,99.1013333 63.7746667,99.0666667 63.908,98.976 C64.0413333,98.8853333 64.108,98.7493333 64.108,98.568 C64.108,98.2586667 63.9213333,98.088 63.548,98.056 L63.548,98.056 L63.116,98.024 C62.636,97.992 62.276,97.8453333 62.036,97.584 C61.796,97.3226667 61.676,96.8986667 61.676,96.312 L61.676,96.312 L61.676,92.232 L63.452,92.232 C63.6226667,92.232 63.7586667,92.1866667 63.86,92.096 C63.9613333,92.0053333 64.012,91.8853333 64.012,91.736 C64.012,91.576 63.9613333,91.448 63.86,91.352 C63.7586667,91.256 63.6226667,91.208 63.452,91.208 L63.452,91.208 L61.676,91.208 L61.676,89.4 C61.676,89.1973333 61.6173333,89.04 61.5,88.928 C61.3826667,88.816 61.228,88.76 61.036,88.76 C60.8333333,88.76 60.6733333,88.816 60.556,88.928 C60.4386667,89.04 60.38,89.1973333 60.38,89.4 L60.38,89.4 L60.38,91.208 L59.308,91.208 C59.1266667,91.208 58.9853333,91.256 58.884,91.352 C58.7826667,91.448 58.732,91.576 58.732,91.736 C58.732,91.8853333 58.7826667,92.0053333 58.884,92.096 C58.9853333,92.1866667 59.1266667,92.232 59.308,92.232 L59.308,92.232 L60.38,92.232 L60.38,96.248 C60.38,97.1546667 60.5826667,97.832 60.988,98.28 C61.3933333,98.728 62.0226667,98.984 62.876,99.048 L62.876,99.048 L63.308,99.08 Z M68.476,99.112 C69.0306667,99.112 69.5293333,98.9893333 69.972,98.744 C70.4146667,98.4986667 70.7586667,98.1413333 71.004,97.672 L71.004,97.672 L71.004,98.472 C71.004,98.6533333 71.06,98.8 71.172,98.912 C71.284,99.024 71.436,99.08 71.628,99.08 C71.8306667,99.08 71.988,99.0213333 72.1,98.904 C72.212,98.7866667 72.268,98.6373333 72.268,98.456 L72.268,98.456 L72.268,91.688 C72.268,91.496 72.212,91.3413333 72.1,91.224 C71.988,91.1066667 71.8306667,91.048 71.628,91.048 C71.4253333,91.048 71.2653333,91.1066667 71.148,91.224 C71.0306667,91.3413333 70.972,91.496 70.972,91.688 L70.972,91.688 L70.972,95.608 C70.972,96.3333333 70.764,96.9173333 70.348,97.36 C69.932,97.8026667 69.3826667,98.024 68.7,98.024 C68.1026667,98.024 67.6653333,97.8613333 67.388,97.536 C67.1106667,97.2106667 66.972,96.7013333 66.972,96.008 L66.972,96.008 L66.972,91.688 C66.972,91.496 66.916,91.3413333 66.804,91.224 C66.692,91.1066667 66.5346667,91.048 66.332,91.048 C66.1293333,91.048 65.9693333,91.1066667 65.852,91.224 C65.7346667,91.3413333 65.676,91.496 65.676,91.688 L65.676,91.688 L65.676,96.04 C65.676,97.0533333 65.9106667,97.8186667 66.38,98.336 C66.8493333,98.8533333 67.548,99.112 68.476,99.112 Z M75.66,99.08 C75.852,99.08 76.0066667,99.0266667 76.124,98.92 C76.2413333,98.8133333 76.3,98.6533333 76.3,98.44 L76.3,98.44 L76.3,94.552 C76.3,93.9546667 76.4733333,93.4346667 76.82,92.992 C77.1666667,92.5493333 77.6973333,92.296 78.412,92.232 L78.412,92.232 L78.892,92.184 C79.1266667,92.1626667 79.292,92.1013333 79.388,92 C79.484,91.8986667 79.532,91.7626667 79.532,91.592 C79.532,91.1973333 79.308,91.016 78.86,91.048 L78.86,91.048 L78.636,91.064 C78.1026667,91.1066667 77.6306667,91.2506667 77.22,91.496 C76.8093333,91.7413333 76.492,92.0986667 76.268,92.568 L76.268,92.568 L76.268,91.672 C76.268,91.48 76.2093333,91.328 76.092,91.216 C75.9746667,91.104 75.8306667,91.048 75.66,91.048 C75.4786667,91.048 75.324,91.104 75.196,91.216 C75.068,91.328 75.004,91.4853333 75.004,91.688 L75.004,91.688 L75.004,98.44 C75.004,98.6426667 75.0653333,98.8 75.188,98.912 C75.3106667,99.024 75.468,99.08 75.66,99.08 Z M84.252,99.112 C84.6573333,99.112 85.0733333,99.056 85.5,98.944 C85.9266667,98.832 86.332,98.664 86.716,98.44 C87.0893333,98.216 87.276,97.9706667 87.276,97.704 C87.276,97.5546667 87.2333333,97.432 87.148,97.336 C87.0626667,97.24 86.9613333,97.192 86.844,97.192 C86.748,97.192 86.5613333,97.272 86.284,97.432 C85.9426667,97.624 85.6226667,97.776 85.324,97.888 C85.0253333,98 84.668,98.056 84.252,98.056 C82.6093333,98.056 81.74,97.1386667 81.644,95.304 L81.644,95.304 L86.796,95.304 C86.988,95.304 87.1266667,95.256 87.212,95.16 C87.2973333,95.064 87.34,94.9093333 87.34,94.696 C87.34,93.5653333 87.0413333,92.6693333 86.444,92.008 C85.8466667,91.3466667 85.0413333,91.016 84.028,91.016 C83.3133333,91.016 82.676,91.1866667 82.116,91.528 C81.556,91.8693333 81.1213333,92.3466667 80.812,92.96 C80.5026667,93.5733333 80.348,94.28 80.348,95.08 C80.348,96.3386667 80.6973333,97.3253333 81.396,98.04 C82.0946667,98.7546667 83.0466667,99.112 84.252,99.112 Z M86.204,94.472 L81.676,94.472 C81.7506667,93.6933333 81.9933333,93.0906667 82.404,92.664 C82.8146667,92.2373333 83.3613333,92.024 84.044,92.024 C84.716,92.024 85.2386667,92.2346667 85.612,92.656 C85.9853333,93.0773333 86.1826667,93.6826667 86.204,94.472 L86.204,94.472 Z M97.244,99.112 C97.98,99.112 98.6306667,98.9466667 99.196,98.616 C99.7613333,98.2853333 100.196,97.8133333 100.5,97.2 C100.804,96.5866667 100.956,95.8746667 100.956,95.064 C100.956,94.2533333 100.804,93.5413333 100.5,92.928 C100.196,92.3146667 99.7613333,91.8426667 99.196,91.512 C98.6306667,91.1813333 97.98,91.016 97.244,91.016 C96.508,91.016 95.86,91.1813333 95.3,91.512 C94.74,91.8426667 94.308,92.3146667 94.004,92.928 C93.7,93.5413333 93.548,94.2533333 93.548,95.064 C93.548,95.8746667 93.7,96.5866667 94.004,97.2 C94.308,97.8133333 94.74,98.2853333 95.3,98.616 C95.86,98.9466667 96.508,99.112 97.244,99.112 Z M97.244,98.04 C96.476,98.04 95.8866667,97.784 95.476,97.272 C95.0653333,96.76 94.86,96.024 94.86,95.064 C94.86,94.1146667 95.068,93.3813333 95.484,92.864 C95.9,92.3466667 96.4866667,92.088 97.244,92.088 C98.0013333,92.088 98.588,92.3466667 99.004,92.864 C99.42,93.3813333 99.628,94.1146667 99.628,95.064 C99.628,96.0346667 99.4226667,96.7733333 99.012,97.28 C98.6013333,97.7866667 98.012,98.04 97.244,98.04 Z M104.284,99.08 C104.465333,99.08 104.617333,99.024 104.74,98.912 C104.862667,98.8 104.924,98.6426667 104.924,98.44 L104.924,98.44 L104.924,92.232 L106.7,92.232 C106.881333,92.232 107.02,92.1893333 107.116,92.104 C107.212,92.0186667 107.26,91.896 107.26,91.736 C107.26,91.576 107.212,91.448 107.116,91.352 C107.02,91.256 106.881333,91.208 106.7,91.208 L106.7,91.208 L104.924,91.208 L104.924,90.696 C104.924,90.0666667 105.068,89.5946667 105.356,89.28 C105.644,88.9653333 106.070667,88.7866667 106.636,88.744 L106.636,88.744 L107.052,88.712 C107.425333,88.6693333 107.612,88.4933333 107.612,88.184 C107.612,87.992 107.550667,87.8586667 107.428,87.784 C107.305333,87.7093333 107.105333,87.6826667 106.828,87.704 L106.828,87.704 L106.412,87.736 C105.516,87.8 104.828,88.1066667 104.348,88.656 C103.868,89.2053333 103.628,89.96 103.628,90.92 L103.628,90.92 L103.628,91.208 L102.556,91.208 C102.374667,91.208 102.233333,91.256 102.132,91.352 C102.030667,91.448 101.98,91.576 101.98,91.736 C101.98,91.8853333 102.030667,92.0053333 102.132,92.096 C102.233333,92.1866667 102.374667,92.232 102.556,92.232 L102.556,92.232 L103.628,92.232 L103.628,98.44 C103.628,98.6426667 103.689333,98.8 103.812,98.912 C103.934667,99.024 104.092,99.08 104.284,99.08 Z M115.836,99.112 C116.764,99.112 117.510667,98.9066667 118.076,98.496 C118.641333,98.0853333 118.924,97.544 118.924,96.872 C118.924,96.4453333 118.838667,96.0933333 118.668,95.816 C118.497333,95.5386667 118.212,95.304 117.812,95.112 C117.412,94.92 116.849333,94.744 116.124,94.584 C115.633333,94.4773333 115.257333,94.368 114.996,94.256 C114.734667,94.144 114.548,94.016 114.436,93.872 C114.324,93.728 114.268,93.5386667 114.268,93.304 C114.268,92.9306667 114.42,92.632 114.724,92.408 C115.028,92.184 115.430667,92.072 115.932,92.072 C116.326667,92.072 116.657333,92.1253333 116.924,92.232 C117.190667,92.3386667 117.473333,92.488 117.772,92.68 C118.028,92.8613333 118.22,92.952 118.348,92.952 C118.465333,92.952 118.566667,92.904 118.652,92.808 C118.737333,92.712 118.78,92.5946667 118.78,92.456 C118.78,92.1786667 118.598667,91.912 118.236,91.656 C117.937333,91.4533333 117.593333,91.296 117.204,91.184 C116.814667,91.072 116.412,91.016 115.996,91.016 C115.42,91.016 114.905333,91.1173333 114.452,91.32 C113.998667,91.5226667 113.644,91.8 113.388,92.152 C113.132,92.504 113.004,92.9093333 113.004,93.368 C113.004,93.9546667 113.206667,94.4186667 113.612,94.76 C114.017333,95.1013333 114.689333,95.3733333 115.628,95.576 C116.182667,95.6933333 116.604,95.808 116.892,95.92 C117.18,96.032 117.382667,96.16 117.5,96.304 C117.617333,96.448 117.676,96.6373333 117.676,96.872 C117.676,97.256 117.516,97.5493333 117.196,97.752 C116.876,97.9546667 116.428,98.056 115.852,98.056 C115.382667,98.056 114.990667,98 114.676,97.888 C114.361333,97.776 114.044,97.624 113.724,97.432 C113.478667,97.272 113.292,97.192 113.164,97.192 C113.036,97.192 112.932,97.2373333 112.852,97.328 C112.772,97.4186667 112.732,97.5333333 112.732,97.672 C112.732,97.832 112.772,97.968 112.852,98.08 C112.932,98.192 113.068,98.312 113.26,98.44 C113.601333,98.6533333 113.993333,98.8186667 114.436,98.936 C114.878667,99.0533333 115.345333,99.112 115.836,99.112 Z M124.444,99.112 C125.18,99.112 125.830667,98.9466667 126.396,98.616 C126.961333,98.2853333 127.396,97.8133333 127.7,97.2 C128.004,96.5866667 128.156,95.8746667 128.156,95.064 C128.156,94.2533333 128.004,93.5413333 127.7,92.928 C127.396,92.3146667 126.961333,91.8426667 126.396,91.512 C125.830667,91.1813333 125.18,91.016 124.444,91.016 C123.708,91.016 123.06,91.1813333 122.5,91.512 C121.94,91.8426667 121.508,92.3146667 121.204,92.928 C120.9,93.5413333 120.748,94.2533333 120.748,95.064 C120.748,95.8746667 120.9,96.5866667 121.204,97.2 C121.508,97.8133333 121.94,98.2853333 122.5,98.616 C123.06,98.9466667 123.708,99.112 124.444,99.112 Z M124.444,98.04 C123.676,98.04 123.086667,97.784 122.676,97.272 C122.265333,96.76 122.06,96.024 122.06,95.064 C122.06,94.1146667 122.268,93.3813333 122.684,92.864 C123.1,92.3466667 123.686667,92.088 124.444,92.088 C125.201333,92.088 125.788,92.3466667 126.204,92.864 C126.62,93.3813333 126.828,94.1146667 126.828,95.064 C126.828,96.0346667 126.622667,96.7733333 126.212,97.28 C125.801333,97.7866667 125.212,98.04 124.444,98.04 Z M131.068,99.08 C131.249333,99.08 131.401333,99.024 131.524,98.912 C131.646667,98.8 131.708,98.6426667 131.708,98.44 L131.708,98.44 L131.708,88.28 C131.708,88.0773333 131.646667,87.92 131.524,87.808 C131.401333,87.696 131.249333,87.64 131.068,87.64 C130.876,87.64 130.718667,87.696 130.596,87.808 C130.473333,87.92 130.412,88.0773333 130.412,88.28 L130.412,88.28 L130.412,98.44 C130.412,98.6426667 130.473333,98.8 130.596,98.912 C130.718667,99.024 130.876,99.08 131.068,99.08 Z M137.212,99.112 C137.766667,99.112 138.265333,98.9893333 138.708,98.744 C139.150667,98.4986667 139.494667,98.1413333 139.74,97.672 L139.74,97.672 L139.74,98.472 C139.74,98.6533333 139.796,98.8 139.908,98.912 C140.02,99.024 140.172,99.08 140.364,99.08 C140.566667,99.08 140.724,99.0213333 140.836,98.904 C140.948,98.7866667 141.004,98.6373333 141.004,98.456 L141.004,98.456 L141.004,91.688 C141.004,91.496 140.948,91.3413333 140.836,91.224 C140.724,91.1066667 140.566667,91.048 140.364,91.048 C140.161333,91.048 140.001333,91.1066667 139.884,91.224 C139.766667,91.3413333 139.708,91.496 139.708,91.688 L139.708,91.688 L139.708,95.608 C139.708,96.3333333 139.5,96.9173333 139.084,97.36 C138.668,97.8026667 138.118667,98.024 137.436,98.024 C136.838667,98.024 136.401333,97.8613333 136.124,97.536 C135.846667,97.2106667 135.708,96.7013333 135.708,96.008 L135.708,96.008 L135.708,91.688 C135.708,91.496 135.652,91.3413333 135.54,91.224 C135.428,91.1066667 135.270667,91.048 135.068,91.048 C134.865333,91.048 134.705333,91.1066667 134.588,91.224 C134.470667,91.3413333 134.412,91.496 134.412,91.688 L134.412,91.688 L134.412,96.04 C134.412,97.0533333 134.646667,97.8186667 135.116,98.336 C135.585333,98.8533333 136.284,99.112 137.212,99.112 Z M147.1,99.08 C147.366667,99.1013333 147.566667,99.0666667 147.7,98.976 C147.833333,98.8853333 147.9,98.7493333 147.9,98.568 C147.9,98.2586667 147.713333,98.088 147.34,98.056 L147.34,98.056 L146.908,98.024 C146.428,97.992 146.068,97.8453333 145.828,97.584 C145.588,97.3226667 145.468,96.8986667 145.468,96.312 L145.468,96.312 L145.468,92.232 L147.244,92.232 C147.414667,92.232 147.550667,92.1866667 147.652,92.096 C147.753333,92.0053333 147.804,91.8853333 147.804,91.736 C147.804,91.576 147.753333,91.448 147.652,91.352 C147.550667,91.256 147.414667,91.208 147.244,91.208 L147.244,91.208 L145.468,91.208 L145.468,89.4 C145.468,89.1973333 145.409333,89.04 145.292,88.928 C145.174667,88.816 145.02,88.76 144.828,88.76 C144.625333,88.76 144.465333,88.816 144.348,88.928 C144.230667,89.04 144.172,89.1973333 144.172,89.4 L144.172,89.4 L144.172,91.208 L143.1,91.208 C142.918667,91.208 142.777333,91.256 142.676,91.352 C142.574667,91.448 142.524,91.576 142.524,91.736 C142.524,91.8853333 142.574667,92.0053333 142.676,92.096 C142.777333,92.1866667 142.918667,92.232 143.1,92.232 L143.1,92.232 L144.172,92.232 L144.172,96.248 C144.172,97.1546667 144.374667,97.832 144.78,98.28 C145.185333,98.728 145.814667,98.984 146.668,99.048 L146.668,99.048 L147.1,99.08 Z M150.156,89.368 C150.412,89.368 150.62,89.2933333 150.78,89.144 C150.94,88.9946667 151.02,88.7973333 151.02,88.552 C151.02,88.3173333 150.94,88.1253333 150.78,87.976 C150.62,87.8266667 150.412,87.752 150.156,87.752 C149.9,87.752 149.692,87.8266667 149.532,87.976 C149.372,88.1253333 149.292,88.3173333 149.292,88.552 C149.292,88.7973333 149.372,88.9946667 149.532,89.144 C149.692,89.2933333 149.9,89.368 150.156,89.368 Z M150.156,99.08 C150.348,99.08 150.502667,99.0266667 150.62,98.92 C150.737333,98.8133333 150.796,98.6533333 150.796,98.44 L150.796,98.44 L150.796,91.688 C150.796,91.4853333 150.737333,91.328 150.62,91.216 C150.502667,91.104 150.348,91.048 150.156,91.048 C149.964,91.048 149.806667,91.104 149.684,91.216 C149.561333,91.328 149.5,91.4853333 149.5,91.688 L149.5,91.688 L149.5,98.44 C149.5,98.6426667 149.561333,98.8 149.684,98.912 C149.806667,99.024 149.964,99.08 150.156,99.08 Z M156.764,99.112 C157.5,99.112 158.150667,98.9466667 158.716,98.616 C159.281333,98.2853333 159.716,97.8133333 160.02,97.2 C160.324,96.5866667 160.476,95.8746667 160.476,95.064 C160.476,94.2533333 160.324,93.5413333 160.02,92.928 C159.716,92.3146667 159.281333,91.8426667 158.716,91.512 C158.150667,91.1813333 157.5,91.016 156.764,91.016 C156.028,91.016 155.38,91.1813333 154.82,91.512 C154.26,91.8426667 153.828,92.3146667 153.524,92.928 C153.22,93.5413333 153.068,94.2533333 153.068,95.064 C153.068,95.8746667 153.22,96.5866667 153.524,97.2 C153.828,97.8133333 154.26,98.2853333 154.82,98.616 C155.38,98.9466667 156.028,99.112 156.764,99.112 Z M156.764,98.04 C155.996,98.04 155.406667,97.784 154.996,97.272 C154.585333,96.76 154.38,96.024 154.38,95.064 C154.38,94.1146667 154.588,93.3813333 155.004,92.864 C155.42,92.3466667 156.006667,92.088 156.764,92.088 C157.521333,92.088 158.108,92.3466667 158.524,92.864 C158.94,93.3813333 159.148,94.1146667 159.148,95.064 C159.148,96.0346667 158.942667,96.7733333 158.532,97.28 C158.121333,97.7866667 157.532,98.04 156.764,98.04 Z M168.812,99.08 C169.014667,99.08 169.172,99.024 169.284,98.912 C169.396,98.8 169.452,98.6426667 169.452,98.44 L169.452,98.44 L169.452,94.104 C169.452,92.0453333 168.518667,91.016 166.652,91.016 C166.065333,91.016 165.542667,91.1413333 165.084,91.392 C164.625333,91.6426667 164.268,92.008 164.012,92.488 L164.012,92.488 L164.012,91.672 C164.012,91.4906667 163.956,91.3413333 163.844,91.224 C163.732,91.1066667 163.58,91.048 163.388,91.048 C163.185333,91.048 163.025333,91.1066667 162.908,91.224 C162.790667,91.3413333 162.732,91.496 162.732,91.688 L162.732,91.688 L162.732,98.44 C162.732,98.6426667 162.790667,98.8 162.908,98.912 C163.025333,99.024 163.185333,99.08 163.388,99.08 C163.590667,99.08 163.748,99.024 163.86,98.912 C163.972,98.8 164.028,98.6426667 164.028,98.44 L164.028,98.44 L164.028,94.536 C164.028,93.7893333 164.241333,93.1973333 164.668,92.76 C165.094667,92.3226667 165.665333,92.104 166.38,92.104 C166.998667,92.104 167.449333,92.2693333 167.732,92.6 C168.014667,92.9306667 168.156,93.4586667 168.156,94.184 L168.156,94.184 L168.156,98.44 C168.156,98.6426667 168.214667,98.8 168.332,98.912 C168.449333,99.024 168.609333,99.08 168.812,99.08 Z M172.78,99.08 C173.025333,99.08 173.230667,98.9973333 173.396,98.832 C173.561333,98.6666667 173.644,98.4506667 173.644,98.184 C173.644,97.9173333 173.561333,97.6986667 173.396,97.528 C173.230667,97.3573333 173.025333,97.272 172.78,97.272 C172.524,97.272 172.310667,97.3573333 172.14,97.528 C171.969333,97.6986667 171.884,97.9173333 171.884,98.184 C171.884,98.4506667 171.969333,98.6666667 172.14,98.832 C172.310667,98.9973333 172.524,99.08 172.78,99.08 Z" id="Requirementanalysisleadingtohigh-levelarchitectureofsolution."></path>
            </g>
        </g>
    </g>
</svg>