<?xml version="1.0" encoding="UTF-8"?>
<svg width="126px" height="118px" viewBox="0 0 126 118" version="1.1" xmlns="http://www.w3.org/2000/svg" xmlns:xlink="http://www.w3.org/1999/xlink">
    <!-- Generator: Sketch 63.1 (92452) - https://sketch.com -->
    <title>cc_orchestration</title>
    <desc>Created with Sketch.</desc>
    <g id="Page-1" stroke="none" stroke-width="1" fill="none" fill-rule="evenodd">
        <g id="cc_orchestration" transform="translate(-4.000000, -6.000000)" fill-rule="nonzero">
            <g id="Group-18">
                <path d="M112.643425,14.3982323 C122.764992,23.5001537 127.664128,38.2377854 125.624894,50.6812342 C123.585659,63.1246829 114.632922,73.2240752 107.943239,84.4954957 C101.253555,95.7669162 96.8766613,108.235302 87.0783883,116.489373 C77.2552467,124.743444 61.9858568,128.808138 49.6509752,124.46914 C37.2912248,120.130141 27.8659825,107.412388 20.2561563,93.7969113 C12.6214614,80.1814343 6.85192,65.7181071 8.1948305,51.5540211 C9.56260972,37.3899352 18.0925783,23.5250905 29.8803483,14.7224103 C41.6681183,5.91973015 56.7634271,2.17921449 71.9582108,2.0046571 C87.1778632,1.85503647 102.521859,5.29631087 112.643425,14.3982323 Z" id="Path" fill="#FFCCCD" opacity="0.300000012" transform="translate(67.040001, 64.115001) rotate(-94.000000) translate(-67.040001, -64.115001) "></path>
                <g id="analysis" transform="translate(10.000000, 14.000000)">
                    <g id="Group" transform="translate(0.400000, 11.600000)">
                        <g>
                            <path d="M0.100000009,3.46620085 L0.100000009,65.3500064 C0.100000009,66.8650065 1.32820012,68.0930066 2.84320025,68.0930066 L83.7046075,68.0930066 C85.2196076,68.0930066 86.4478077,66.8648065 86.4478077,65.3500064 L86.4478077,3.46620085 C86.4478077,1.95120071 85.2196076,0.723000601 83.7046075,0.723000601 L2.84320025,0.723000601 C1.32820012,0.723000601 0.100000009,1.95120071 0.100000009,3.46620085 Z" id="Path" fill="#D03D39"></path>
                            <g transform="translate(26.000002, 5.200001)" fill="#FFFFFF" id="Oval">
                                <circle cx="3.62300032" cy="22.846002" r="3.50020031"></circle>
                                <circle cx="17.3902016" cy="15.0292013" r="3.50020031"></circle>
                                <circle cx="31.1574028" cy="22.846002" r="3.50020031"></circle>
                                <circle cx="44.924604" cy="3.61220032" r="3.50020031"></circle>
                            </g>
                            <rect id="Rectangle" fill="#FFFFFF" x="26.5804018" y="42.2152047" width="6.08540054" height="13.2546012"></rect>
                            <rect id="Rectangle" fill="#FFFFFF" x="40.347603" y="34.549604" width="6.08540054" height="20.9200019"></rect>
                            <rect id="Rectangle" fill="#FFFFFF" x="54.1146042" y="42.2152047" width="6.08540054" height="13.2546012"></rect>
                            <rect id="Rectangle" fill="#FFFFFF" x="67.8818054" y="28.5722034" width="6.08540054" height="26.8976024"></rect>
                        </g>
                        <g transform="translate(66.200005, 17.400002)" fill="#FFFFFF" id="Oval">
                            <circle cx="18.1080016" cy="18.2964016" r="18.1054016"></circle>
                            <circle cx="18.1080016" cy="18.2964016" r="12.7418011"></circle>
                        </g>
                    </g>
                    <g id="Group" transform="translate(6.000000, 0.000000)" fill="#000000">
                        <path d="M65.3246058,25.4124023 C68.0816061,25.4124023 70.3246063,23.1694021 70.3246063,20.4124018 C70.3246063,17.6554016 68.0816061,15.4122014 65.3246058,15.4122014 C62.5676056,15.4122014 60.3246054,17.6554016 60.3246054,20.4124018 C60.3246054,21.5384019 60.6990054,22.578402 61.3296055,23.4152021 L53.1144047,34.8954031 C52.6242047,34.7344031 52.1012047,34.6460031 51.5576046,34.6460031 C50.2438045,34.6460031 49.0474044,35.1562031 48.1542043,35.9878032 L42.6784038,32.8806029 C42.7514038,32.5414029 42.7906038,32.1898029 42.7906038,31.8292028 C42.7906038,29.0722026 40.5476036,26.8292024 37.7906034,26.8292024 C35.0336031,26.8292024 32.7906029,29.0722026 32.7906029,31.8292028 C32.7906029,32.1898029 32.8298029,32.5414029 32.9028029,32.8806029 L27.4270025,35.9878032 C26.5338024,35.1562031 25.3374023,34.6462031 24.0236017,34.6462031 C21.2666019,34.6462031 19.0236017,36.8894033 19.0236017,39.6464035 C19.0236017,42.4034038 21.2666019,44.646804 24.0236017,44.646804 C26.7806024,44.646804 29.0236017,42.4034038 29.0236017,39.6464035 C29.0236017,39.2858035 28.9844026,38.9342035 28.9114026,38.5950035 L34.3872031,35.4878032 C35.2804032,36.3194032 36.4768033,36.8296033 37.7906034,36.8296033 C39.1044035,36.8296033 40.3006036,36.3194032 41.1940037,35.4880032 L46.6698042,38.5952035 C46.5968042,38.9344035 46.5576042,39.2860035 46.5576042,39.6466035 C46.5576042,42.4036038 48.8006044,44.646804 51.5576046,44.646804 C54.3148049,44.646804 56.5578051,42.4036038 56.5578051,39.6466035 C56.5578051,38.5204034 56.183205,37.4802034 55.552605,36.6434033 L63.7678057,25.1632022 C64.2578057,25.3240023 64.7810058,25.4124023 65.3246058,25.4124023 Z M65.3246056,18.4122016 C66.4274059,18.4122016 67.3246056,19.3094017 67.3246056,20.4124018 C67.3246056,21.5152019 66.4274059,22.412402 65.3246056,22.412402 C64.2218057,22.412402 63.3246056,21.5152019 63.3246056,20.4124018 C63.3244057,19.3094017 64.2216057,18.4122016 65.3246056,18.4122016 Z M24.023002,41.6462037 C22.920202,41.6462037 22.023002,40.7490036 22.023002,39.6460035 C22.023002,38.5430034 22.920202,37.6458034 24.023002,37.6458034 C25.1258022,37.6458034 26.023002,38.5430034 26.023002,39.6460035 C26.023002,40.7490036 25.1258022,41.6462037 24.023002,41.6462037 Z M37.7902032,33.829203 C36.6874033,33.829203 35.7902032,32.9320029 35.7902032,31.8290027 C35.7902032,30.7262027 36.6874033,29.8290027 37.7902032,29.8290027 C38.8930035,29.8290027 39.7902032,30.7262027 39.7902032,31.8290027 C39.7904036,32.9320029 38.8930035,33.829203 37.7902032,33.829203 Z M51.5574044,41.6462037 C50.4546045,41.6462037 49.5574044,40.7490036 49.5574044,39.6460035 C49.5574044,38.5430034 50.4546045,37.6458034 51.5574044,37.6458034 C52.6604047,37.6458034 53.5576048,38.5430034 53.5576048,39.6460035 C53.5576048,40.7490036 52.6602047,41.6462037 51.5574044,41.6462037 Z" id="Shape"></path>
                        <path d="M83.7592075,74.1930066 L73.2620066,74.1930066 L16.0856014,74.1930066 L4.24300038,74.1930066 C3.55760032,74.1930066 3,73.6354066 3,72.9500065 L3,11.066201 C3,10.3808009 3.55760032,9.82320061 4.24300038,9.82320061 L11.314201,9.82320061 C12.1426011,9.82320061 12.8142011,9.15180082 12.8142011,8.32320061 C12.8142011,7.49460067 12.1426011,6.82320061 11.314201,6.82320061 L4.24300038,6.82320061 C1.90340017,6.82320061 0,8.72660078 0,11.066201 L0,72.9500065 C0,75.2896067 1.90340017,77.1930069 4.24300038,77.1930069 L14.5856013,77.1930069 L14.5856013,80.4942072 C14.5856013,82.3748074 16.1156014,83.9048075 17.9962016,83.9048075 L33.011003,83.9048075 L25.9430023,97.7044087 C25.5654023,98.4418088 25.8568023,99.3456089 26.5942024,99.7234089 C26.8130024,99.8356089 27.0466024,99.8886089 27.2768024,99.8886089 C27.8218025,99.8886089 28.3476025,99.5906089 28.6130026,99.0720089 L36.3816033,83.9048075 L52.9660047,83.9048075 L60.7346054,99.0720089 C61.0002055,99.5906089 61.5258055,99.8886089 62.0708055,99.8886089 C62.3010056,99.8886089 62.5346056,99.8352089 62.7534056,99.7234089 C63.4908057,99.3456089 63.7824057,98.4418088 63.4046057,97.7044087 L56.336605,83.9048075 L71.3514064,83.9048075 C73.2320065,83.9048075 74.7620067,82.3750074 74.7620067,80.4942072 L74.7620067,77.1930069 L83.7592075,77.1930069 C84.5876076,77.1930069 85.2592076,76.5216068 85.2592076,75.6930068 C85.2592076,74.8644067 84.5876076,74.1930066 83.7592075,74.1930066 Z M71.7620064,80.4942072 C71.7620064,80.7206072 71.5778064,80.9048072 71.3514064,80.9048072 L17.9962016,80.9048072 C17.7698016,80.9048072 17.5856016,80.7206072 17.5856016,80.4942072 L17.5856016,77.1930069 L71.7620064,77.1930069 L71.7620064,80.4942072 Z" id="Shape"></path>
                        <path d="M17.3142014,9.82320088 L37.8486034,9.82320088 L51.4988046,9.82320088 L85.1044076,9.82320088 C85.7898077,9.82320088 86.3474077,10.3808009 86.3474077,11.066201 L86.3474077,25.3284023 C86.3474077,26.1570023 87.0190078,26.8284024 87.8474079,26.8284024 C88.6758079,26.8284024 89.347408,26.1570023 89.347408,25.3284023 L89.347408,11.066201 C89.347408,8.72660078 87.4440078,6.82320061 85.1044076,6.82320061 L52.9990047,6.82320061 L52.9990047,3.87480035 C52.9990047,1.79980016 51.3108046,0.11160001 49.2356044,0.11160001 L40.1120036,0.11160001 C38.0370034,0.11160001 36.3486032,1.79980016 36.3486032,3.87480035 L36.3486032,6.82320061 L17.3142014,6.82320061 C16.4858015,6.82320061 15.8142014,7.49460067 15.8142014,8.32320074 C15.8142014,9.15180082 16.4858015,9.82320088 17.3142014,9.82320088 Z M39.3486035,3.87480035 C39.3486035,3.45400031 39.6910035,3.11160028 40.1120036,3.11160028 L49.2356044,3.11160028 C49.6564044,3.11160028 49.9990045,3.45400031 49.9990045,3.87480035 L49.9990045,6.82320061 L39.3488035,6.82320061 L39.3488035,3.87480035 L39.3486035,3.87480035 Z" id="Shape"></path>
                        <path d="M20.9804017,52.3152047 C20.1520018,52.3152047 19.4804017,52.9866047 19.4804017,53.8152047 L19.4804017,67.069606 C19.4804017,67.8982061 20.1520018,68.5696061 20.9804017,68.5696061 L27.0658024,68.5696061 C27.8942025,68.5696061 28.5658026,67.8982061 28.5658026,67.069606 L28.5658026,53.8152047 C28.5658026,52.9866047 27.8942025,52.3152047 27.0658024,52.3152047 L20.9804017,52.3152047 Z M25.5658023,65.5698059 L22.480402,65.5698059 L22.480402,55.3154049 L25.5658023,55.3154049 L25.5658023,65.5698059 L25.5658023,65.5698059 Z" id="Shape"></path>
                        <path d="M34.747403,44.649604 C33.919003,44.649604 33.247403,45.3210041 33.247403,46.149604 L33.247403,67.069806 C33.247403,67.8984061 33.919003,68.5698061 34.747403,68.5698061 L40.8328037,68.5698061 C41.6612037,68.5698061 42.3328038,67.8984061 42.3328038,67.069806 L42.3328038,46.149604 C42.3328038,45.3210041 41.6612037,44.649604 40.8328037,44.649604 L34.747403,44.649604 Z M39.3330035,65.5698059 L36.2476032,65.5698059 L36.2476032,47.6496043 L39.3330035,47.6496043 L39.3330035,65.5698059 Z" id="Shape"></path>
                        <path d="M48.5146042,52.3152047 C47.6862043,52.3152047 47.0146042,52.9866047 47.0146042,53.8152047 L47.0146042,67.069606 C47.0146042,67.8982061 47.6862043,68.5696061 48.5146042,68.5696061 L54.6000049,68.5696061 C55.428405,68.5696061 56.100005,67.8982061 56.100005,67.069606 L56.100005,53.8152047 C56.100005,52.9866047 55.428405,52.3152047 54.6000049,52.3152047 L48.5146042,52.3152047 Z M53.1000047,65.5698059 L50.0146045,65.5698059 L50.0146045,55.3154049 L53.1000047,55.3154049 L53.1000047,65.5698059 Z" id="Shape"></path>
                        <path d="M62.2818054,61.1664055 C61.4534055,61.1664055 60.7818054,61.8378055 60.7818054,62.6664055 L60.7818054,67.069806 C60.7818054,67.8984061 61.4534055,68.5698061 62.2818054,68.5698061 L68.3672061,68.5698061 C69.1956062,68.5698061 69.8672062,67.8984061 69.8672062,67.069806 C69.8672062,66.2412059 69.1956062,65.5698059 68.3672061,65.5698059 L63.7818054,65.5698059 L63.7818054,62.6664055 C63.7818054,61.8378055 63.1102056,61.1664055 62.2818054,61.1664055 Z" id="Path"></path>
                        <path d="M101.635009,75.6038068 L93.0296083,60.6986054 C95.2098085,58.3748052 96.7974087,55.535405 97.6454087,52.3706047 C99.0008089,47.3124042 98.3052088,42.0290038 95.6868086,37.4938034 C90.2816081,28.1312025 78.267407,24.9126022 68.9054062,30.3176027 C59.5432053,35.7226032 56.324205,47.7368043 61.7294055,57.0990051 C64.3478058,61.6342055 68.5756061,64.8782058 73.6338066,66.2338059 C75.3230067,66.686406 77.0368069,66.910206 78.739807,66.910206 C80.2282072,66.910206 81.7080073,66.739006 83.1552074,66.4002059 L91.7588082,81.3058073 C92.8134083,83.1332074 94.7338085,84.1556075 96.7062086,84.1556075 C97.6728087,84.1556075 98.6520088,83.9098075 99.5478089,83.3930075 C101.307009,82.3776074 102.400009,80.4842072 102.400009,78.451807 C102.400009,77.4560069 102.135609,76.4714068 101.635009,75.6038068 Z M74.4102067,63.3360057 C70.1260063,62.1880056 66.5450059,59.4402053 64.3272058,55.599005 C59.7492053,47.6694043 62.4758056,37.4938034 70.4052063,32.9156029 C73.0138065,31.4096028 75.8644068,30.6944027 78.680007,30.6944027 C84.4230075,30.6944027 90.016608,33.673003 93.0886083,38.9938035 C95.3062085,42.8350038 95.8954086,47.3098042 94.7474085,51.5942046 C93.5994084,55.878605 90.8516081,59.4592053 87.0104078,61.6770055 C83.1694074,63.8948057 78.694607,64.4836058 74.4102067,63.3360057 Z M98.0484088,80.7946072 C96.7578087,81.5398073 95.1018085,81.0962073 94.3572084,79.8062071 L86.0796077,65.4654059 C86.9092078,65.1268058 87.7216078,64.7308058 88.5108079,64.2752057 C89.300608,63.8192057 90.0486081,63.3116057 90.7568081,62.7620056 L99.0368089,77.1034069 C99.2744089,77.5156069 99.4000089,77.982007 99.4000089,78.452007 C99.4000089,79.4156071 98.8820088,80.3134072 98.0484088,80.7946072 Z" id="Shape"></path>
                        <path d="M92.3084083,51.5222046 C93.3674083,48.1110043 93.1152083,44.459004 91.5982082,41.2390037 C91.2450082,40.4894036 90.3514081,40.1682036 89.602008,40.5212036 C88.8524079,40.8744037 88.5312079,41.7680037 88.8844079,42.5174038 C90.0810081,45.057404 90.2796081,47.9392043 89.443408,50.6324045 C88.6026079,53.3404048 86.7862078,55.613005 84.3288075,57.0318051 C81.7284073,58.5334052 78.698607,58.9318053 75.7984068,58.1548052 C72.8980065,57.3776051 70.4736063,55.517405 68.9724062,52.9170047 C65.8730059,47.5488043 67.7190061,40.6600036 73.0872065,37.5606034 C77.0122069,35.2948032 81.8832073,35.5976032 85.4974076,38.3320034 C86.1582077,38.8320035 87.0988078,38.7018035 87.5986078,38.0410034 C88.0984079,37.3804033 87.9682079,36.4396033 87.3074078,35.9398032 C82.7292074,32.4756029 76.5584068,32.0922029 71.5870064,34.9624031 C68.2926061,36.8644033 65.9360059,39.9356036 64.9514058,43.6100039 C63.9668057,47.2844042 64.4722058,51.1224046 66.3742059,54.4168049 C68.2762061,57.7114052 71.3474064,60.0678054 75.0218067,61.0526055 C76.2488068,61.3814055 77.4940069,61.5440055 78.731007,61.5440055 C81.1986073,61.5440055 83.6344075,60.8968054 85.8286077,59.6298053 C88.942008,57.8326052 91.2432082,54.9534049 92.3084083,51.5222046 Z" id="Path"></path>
                    </g>
                </g>
            </g>
        </g>
    </g>
</svg>