<?xml version="1.0" encoding="UTF-8"?>
<svg width="87px" height="100px" viewBox="0 0 87 100" version="1.1" xmlns="http://www.w3.org/2000/svg" xmlns:xlink="http://www.w3.org/1999/xlink">
    <!-- Generator: Sketch 63.1 (92452) - https://sketch.com -->
    <title>developers</title>
    <desc>Created with Sketch.</desc>
    <defs>
        <linearGradient x1="42.8953282%" y1="0.541490667%" x2="76.1251774%" y2="92.2336488%" id="linearGradient-1">
            <stop stop-color="#FCEEF1" offset="0.07011211%"></stop>
            <stop stop-color="#F3DADF" offset="51.12%"></stop>
            <stop stop-color="#FBCFD7" offset="100%"></stop>
        </linearGradient>
    </defs>
    <g id="Page-1" stroke="none" stroke-width="1" fill="none" fill-rule="evenodd">
        <g id="developers" fill-rule="nonzero">
            <g id="web-development">
                <path d="M54.1162109,17.4517578 C49.9306641,7.16484375 39.8054687,-0.072265625 27.9978516,4.08765517e-05 C12.9345703,0.093359375 0.549414062,12.2435547 0.183984375,27.3025391 C0.0037109375,34.7322266 2.71875,41.5253906 7.28046875,46.6351562 C10.9169922,50.7085937 12.7419922,56.0736328 12.5580078,61.53125 C12.5335937,62.2566406 12.5298828,62.9873047 12.5478516,63.7226562 C13.0291016,83.5273438 29.9476562,100.011914 49.7582031,100.000006 C70.2919922,99.9876953 86.9339844,83.3378906 86.9339844,62.8013672 C86.9339844,47.7478516 77.9917969,34.7841797 65.1298828,28.9296875 C60.1167969,26.6478516 56.1919922,22.5533203 54.1162109,17.4517578 Z" id="Path" fill="url(#linearGradient-1)"></path>
                <path d="M82.6171875,17.2494141 L82.6171875,66.9076172 C82.6171875,68.5248047 81.3046875,69.8373047 79.6875,69.8373047 L7.421875,69.8373047 C5.8046875,69.8373047 4.4921875,68.5248047 4.4921875,66.9076172 L4.4921875,17.2494141 C4.4921875,15.6322266 5.8046875,14.3197266 7.421875,14.3197266 L79.6875,14.3197266 C81.3046875,14.3197266 82.6171875,15.6322266 82.6171875,17.2494141 Z" id="Path" fill="#EB1E53" opacity="0.1"></path>
                <path d="M55.9251953,13.0460938 C55.6662109,13.0460938 55.4177734,12.9431641 55.2347656,12.7601563 L53.0828125,10.6082031 C52.7013672,10.2267578 52.7013672,9.60839844 53.0828125,9.22714844 L55.2347656,7.07519531 C55.4179688,6.89199219 55.6662109,6.78925781 55.9251953,6.78925781 C56.1841797,6.78925781 56.4326172,6.8921875 56.615625,7.07519531 L58.7677734,9.22714844 C58.9509766,9.41035156 59.0539063,9.65859375 59.0539063,9.91777344 C59.0539063,10.1769531 58.9511719,10.4251953 58.7677734,10.6083984 L56.615625,12.7603516 C56.4326172,12.9431641 56.1841797,13.0460938 55.9251953,13.0460938 L55.9251953,13.0460938 Z M55.1544922,9.91757813 L55.9251953,10.6884766 L56.6960938,9.91757813 L55.9251953,9.14667969 L55.1544922,9.91757813 Z" id="Shape" fill="#F6C9CA"></path>
                <path d="M68.1738281,85.25 C67.9148438,85.25 67.6664062,85.1470703 67.4833984,84.9640625 L65.3314453,82.8121094 C64.95,82.4306641 64.95,81.8123047 65.3314453,81.4310547 L67.4833984,79.2791016 C67.8644531,78.8978516 68.4828125,78.8978516 68.8642578,79.2791016 L71.0164063,81.4310547 C71.1996094,81.6142578 71.3025391,81.8625 71.3025391,82.1216797 C71.3025391,82.3808594 71.1998047,82.6291016 71.0164063,82.8123047 L68.8642578,84.9642578 C68.6810547,85.1470703 68.4328125,85.25 68.1738281,85.25 L68.1738281,85.25 Z M67.403125,82.1214844 L68.1738281,82.8923828 L68.9447266,82.1214844 L68.1738281,81.3505859 L67.403125,82.1214844 Z" id="Shape" fill="#CA0404"></path>
                <path d="M14.3914063,93.2109375 C13.8519531,93.2109375 13.4148438,92.7736328 13.4148438,92.234375 C13.4148438,91.5863281 12.8875,91.0589844 12.2392578,91.0589844 C11.6998047,91.0589844 11.2626953,90.6216797 11.2626953,90.0824219 C11.2626953,89.5431641 11.6998047,89.1058594 12.2392578,89.1058594 C12.8873047,89.1058594 13.4148438,88.5785156 13.4148438,87.9304688 C13.4148438,87.3912109 13.8519531,86.9539063 14.3914063,86.9539063 C14.9308594,86.9539063 15.3679688,87.3912109 15.3679688,87.9304688 C15.3679688,88.5785156 15.8951172,89.1058594 16.5433594,89.1058594 C17.0828125,89.1058594 17.5199219,89.5431641 17.5199219,90.0824219 C17.5199219,90.6216797 17.0828125,91.0589844 16.5433594,91.0589844 C15.8953125,91.0589844 15.3679688,91.5863281 15.3679688,92.234375 C15.3679688,92.7736328 14.9306641,93.2109375 14.3914063,93.2109375 Z" id="Path" fill="#F6C9CA"></path>
                <path d="M22.8546875,84.1488281 C22.3152344,84.1488281 21.878125,83.7115234 21.878125,83.1722656 C21.878125,82.5242188 21.3509766,81.996875 20.7027344,81.996875 C20.1632812,81.996875 19.7261719,81.5595703 19.7261719,81.0203125 C19.7261719,80.4810547 20.1632812,80.04375 20.7027344,80.04375 C21.3507813,80.04375 21.878125,79.5164063 21.878125,78.8683594 C21.878125,78.3291016 22.3152344,77.8917969 22.8546875,77.8917969 C23.3941406,77.8917969 23.83125,78.3291016 23.83125,78.8683594 C23.83125,79.5164063 24.3585937,80.04375 25.0068359,80.04375 C25.5462891,80.04375 25.9833984,80.4810547 25.9833984,81.0203125 C25.9833984,81.5595703 25.5462891,81.996875 25.0068359,81.996875 C24.3587891,81.996875 23.83125,82.5242188 23.83125,83.1722656 C23.83125,83.7117188 23.3939453,84.1488281 22.8546875,84.1488281 Z" id="Path" fill="#CA0404"></path>
                <polygon id="Path" fill="#E8AFB0" points="54.6308594 88.1394531 32.4783203 88.1394531 35.3654297 76.6935547 36.9083984 70.5800781 50.2007813 70.5800781 51.74375 76.6935547"></polygon>
                <polygon id="Path" fill="#997273" points="51.74375 76.6935547 35.3654297 76.6935547 36.9083984 70.5800781 50.2007813 70.5800781"></polygon>
                <path d="M54.6316406,89.1148438 L32.4777344,89.1148438 C32.1765625,89.1148438 31.8923828,88.9759766 31.7074219,88.7384766 C31.5224609,88.5009766 31.4572266,88.1914062 31.5310547,87.8994141 L35.0177734,74.0822266 C35.1498047,73.5591797 35.6806641,73.2427734 36.2035156,73.3742187 C36.7263672,73.50625 37.0433594,74.0371094 36.9113281,74.5599609 L33.7314453,87.1617188 L53.3783203,87.1617188 L50.1701172,74.4474609 C50.0380859,73.9246094 50.3550781,73.3935547 50.8779297,73.2617188 C51.4015625,73.1300781 51.9318359,73.4466797 52.0636719,73.9697266 L55.5785156,87.8994141 C55.6523438,88.1914062 55.5871094,88.5009766 55.4021484,88.7384766 C55.2171875,88.9759766 54.9328125,89.1148438 54.6316406,89.1148438 L54.6316406,89.1148438 Z" id="Path" fill="#000000"></path>
                <path d="M82.6171875,21.3509766 L82.6171875,71.0091797 C82.6171875,72.6263672 81.3046875,73.9388672 79.6875,73.9388672 L7.421875,73.9388672 C5.8046875,73.9388672 4.4921875,72.6263672 4.4921875,71.0091797 L4.4921875,21.3509766 C4.4921875,19.7337891 5.8046875,18.4212891 7.421875,18.4212891 L79.6875,18.4212891 C81.3046875,18.4212891 82.6171875,19.7337891 82.6171875,21.3509766 Z" id="Path" fill="#F5F4F9"></path>
                <path d="M79.6875,18.4212891 L62.890625,18.4212891 L62.890625,73.9388672 L79.6875,73.9388672 C81.3046875,73.9388672 82.6171875,72.6263672 82.6171875,71.0091797 L82.6171875,21.3509766 C82.6171875,19.7337891 81.3046875,18.4212891 79.6875,18.4212891 Z" id="Path" fill="#FFD9DA"></path>
                <path d="M79.0039062,37.0052734 L77.5996094,32.0736328 C77.4804688,31.6537109 77.0957031,31.3626953 76.6601562,31.3626953 L71.8945312,31.3626953 C71.4589844,31.3626953 71.0742188,31.6537109 70.9550781,32.0736328 L69.5507812,37.0052734 C67.5820313,37.4876953 65.7285156,38.2630859 64.0410156,39.2865234 L59.5605469,36.7923828 C59.1796875,36.5794922 58.703125,36.6458984 58.3945313,36.9544922 L55.0253906,40.3255859 C54.7167969,40.6341797 54.6503906,41.1087891 54.8613281,41.4916016 L57.3574219,45.9720703 C56.3339844,47.6595703 55.5566406,49.5130859 55.0742188,51.4798828 L50.1425781,52.8861328 C49.7226563,53.0052734 49.4335938,53.3880859 49.4335938,53.8255859 L49.4335938,58.5912109 C49.4335938,59.0267578 49.7226563,59.4095703 50.1425781,59.5306641 L55.0742188,60.9349609 C55.4048828,62.2845703 55.8759766,63.5792969 56.4689453,64.8041016 L70.6990234,64.8041016 C67.3333984,63.4015625 64.9667969,60.0826172 64.9667969,56.2083984 C64.9667969,51.0658203 69.1347656,46.8978516 74.2773438,46.8978516 C77.9316406,46.8978516 81.0917969,49.0013672 82.6171875,52.0638672 L82.6171875,38.2748047 C81.46875,37.7396484 80.2597656,37.3138672 79.0039063,37.0052734 L79.0039062,37.0052734 Z" id="Path" fill="#FFA052"></path>
                <path d="M79.0039062,37.0052734 L77.5996094,32.0736328 C77.4804688,31.6537109 77.0957031,31.3626953 76.6601562,31.3626953 L71.8945312,31.3626953 C71.4589844,31.3626953 71.0742188,31.6537109 70.9550781,32.0736328 L69.5507812,37.0052734 C67.5820313,37.4876953 65.7285156,38.2630859 64.0410156,39.2865234 L59.5605469,36.7923828 C59.1796875,36.5794922 58.703125,36.6458984 58.3945313,36.9544922 L55.0253906,40.3255859 C54.7167969,40.6341797 54.6503906,41.1087891 54.8613281,41.4916016 L57.3574219,45.9720703 C56.3339844,47.6595703 55.5566406,49.5130859 55.0742188,51.4798828 L50.1425781,52.8861328 C49.7226563,53.0052734 49.4335938,53.3880859 49.4335938,53.8255859 L49.4335938,58.5912109 C49.4335938,59.0267578 49.7226563,59.4095703 50.1425781,59.5306641 L55.0742188,60.9349609 C55.4048828,62.2845703 55.8759766,63.5792969 56.4689453,64.8041016 L70.6990234,64.8041016 C67.3333984,63.4015625 64.9667969,60.0826172 64.9667969,56.2083984 C64.9667969,51.0658203 69.1347656,46.8978516 74.2773438,46.8978516 C77.9316406,46.8978516 81.0917969,49.0013672 82.6171875,52.0638672 L82.6171875,38.2748047 C81.46875,37.7396484 80.2597656,37.3138672 79.0039063,37.0052734 L79.0039062,37.0052734 Z" id="Path" fill="#FFB7BA"></path>
                <path d="M82.6171875,27.8302734 L82.6171875,21.3515625 C82.6171875,19.7335937 81.3054688,18.421875 79.6875,18.421875 L7.421875,18.421875 C5.80390625,18.421875 4.4921875,19.7335937 4.4921875,21.3515625 L4.4921875,27.8302734 L82.6171875,27.8302734 Z" id="Path" fill="#CA0404"></path>
                <path d="M82.6171875,28.8068359 L4.4921875,28.8068359 C3.95273437,28.8068359 3.515625,28.3695313 3.515625,27.8302734 C3.515625,27.2910156 3.95273437,26.8537109 4.4921875,26.8537109 L82.6171875,26.8537109 C83.1566406,26.8537109 83.59375,27.2910156 83.59375,27.8302734 C83.59375,28.3695313 83.1566406,28.8068359 82.6171875,28.8068359 Z" id="Path" stroke="#000000" stroke-width="0.3" fill="#000000"></path>
                <path d="M4.4921875,64.0972656 L4.4921875,71.009375 C4.4921875,72.6273437 5.80390625,73.9390625 7.421875,73.9390625 L79.6875,73.9390625 C81.3054688,73.9390625 82.6171875,72.6273437 82.6171875,71.009375 L82.6171875,64.0972656 L4.4921875,64.0972656 Z" id="Path" fill="#FFB7BA"></path>
                <g id="Group" transform="translate(3.515625, 17.382812)" fill="#000000">
                    <path d="M78.9935547,47.6910156 L7.21855469,47.6910156 C6.67910156,47.6910156 6.24199219,47.2537109 6.24199219,46.7144531 C6.24199219,46.1751953 6.67910156,45.7378906 7.21855469,45.7378906 L78.9935547,45.7378906 C79.5330078,45.7378906 79.9701172,46.1751953 79.9701172,46.7144531 C79.9701172,47.2537109 79.5330078,47.6910156 78.9935547,47.6910156 Z" id="Path" stroke="#000000" stroke-width="0.3"></path>
                    <path d="M54.8699219,71.7320312 L25.2082031,71.7320312 C24.66875,71.7320312 24.2316406,71.2947266 24.2316406,70.7554687 C24.2316406,70.2162109 24.66875,69.7789062 25.2082031,69.7789062 L54.8697266,69.7789062 C55.4091797,69.7789062 55.8462891,70.2162109 55.8462891,70.7554687 C55.8462891,71.2947266 55.4091797,71.7320312 54.8699219,71.7320312 L54.8699219,71.7320312 Z" id="Path" stroke="#000000" stroke-width="0.3"></path>
                    <path d="M8.41445312,6.73417969 C7.875,6.73417969 7.43789062,6.296875 7.43789062,5.75761719 L7.43789062,5.72910156 C7.43789062,5.18984375 7.875,4.75253906 8.41445312,4.75253906 C8.95390625,4.75253906 9.39101562,5.18984375 9.39101562,5.72910156 L9.39101562,5.75761719 C9.39101562,6.296875 8.95390625,6.73417969 8.41445312,6.73417969 Z" id="Path"></path>
                    <path d="M12.1888672,6.73417969 C11.6494141,6.73417969 11.2123047,6.296875 11.2123047,5.75761719 L11.2123047,5.72910156 C11.2123047,5.18984375 11.6494141,4.75253906 12.1888672,4.75253906 C12.7283203,4.75253906 13.1654297,5.18984375 13.1654297,5.72910156 L13.1654297,5.75761719 C13.1654297,6.296875 12.7283203,6.73417969 12.1888672,6.73417969 Z" id="Path"></path>
                    <path d="M15.9630859,6.73417969 C15.4236328,6.73417969 14.9865234,6.296875 14.9865234,5.75761719 L14.9865234,5.72910156 C14.9865234,5.18984375 15.4236328,4.75253906 15.9630859,4.75253906 C16.5025391,4.75253906 16.9396484,5.18984375 16.9396484,5.72910156 L16.9396484,5.75761719 C16.9396484,6.296875 16.5025391,6.73417969 15.9630859,6.73417969 Z" id="Path"></path>
                    <path d="M76.171875,57.5326172 L3.90625,57.5326172 C1.75234375,57.5326172 0,55.7802734 0,53.6263672 L0,3.96875 C0,1.81484375 1.75234375,0.0625 3.90625,0.0625 L76.171875,0.0625 C78.3257813,0.0625 80.078125,1.81484375 80.078125,3.96875 L80.078125,10.4474609 C80.078125,10.9867187 79.6410156,11.4240234 79.1015625,11.4240234 C78.5621094,11.4240234 78.125,10.9867187 78.125,10.4474609 L78.125,3.96875 C78.125,2.89179687 77.2488281,2.015625 76.171875,2.015625 L3.90625,2.015625 C2.82929688,2.015625 1.953125,2.89179687 1.953125,3.96875 L1.953125,53.6265625 C1.953125,54.7035156 2.82929688,55.5796875 3.90625,55.5796875 L76.171875,55.5796875 C77.2488281,55.5796875 78.125,54.7035156 78.125,53.6265625 L78.125,15.8265625 C78.125,15.2873047 78.5621094,14.85 79.1015625,14.85 C79.6410156,14.85 80.078125,15.2873047 80.078125,15.8265625 L80.078125,53.6265625 C80.078125,55.7802734 78.3257813,57.5326172 76.171875,57.5326172 Z" id="Path" stroke="#000000" stroke-width="0.3"></path>
                </g>
                <path d="M44.2791016,53.5685547 L11.7123047,53.5685547 C11.1720703,53.5685547 10.7341797,53.1306641 10.7341797,52.5904297 C10.7341797,52.0501953 11.1720703,51.6123047 11.7123047,51.6123047 L44.2791016,51.6123047 C44.8193359,51.6123047 45.2572266,52.0501953 45.2572266,52.5904297 C45.2572266,53.1306641 44.8193359,53.5685547 44.2791016,53.5685547 Z" id="Path" fill="#DDD9E4"></path>
                <path d="M32.5603516,45.3669922 L11.7123047,45.3669922 C11.1720703,45.3669922 10.7341797,44.9291016 10.7341797,44.3888672 C10.7341797,43.8486328 11.1720703,43.4107422 11.7123047,43.4107422 L32.5603516,43.4107422 C33.1005859,43.4107422 33.5384766,43.8486328 33.5384766,44.3888672 C33.5384766,44.9291016 33.1005859,45.3669922 32.5603516,45.3669922 Z" id="Path" fill="#F6C9CA"></path>
                <path d="M44.2791016,57.4486328 L11.7123047,57.4486328 C11.1720703,57.4486328 10.7341797,57.0107422 10.7341797,56.4705078 C10.7341797,55.9302734 11.1720703,55.4923828 11.7123047,55.4923828 L44.2791016,55.4923828 C44.8193359,55.4923828 45.2572266,55.9302734 45.2572266,56.4705078 C45.2572266,57.0105469 44.8193359,57.4486328 44.2791016,57.4486328 Z" id="Path" fill="#DDD9E4"></path>
                <path d="M14.2806641,39.5433594 C14.0308594,39.5433594 13.7806641,39.4480469 13.5902344,39.2574219 L11.2396484,36.9068359 C10.8582031,36.5253906 10.8582031,35.9070313 11.2396484,35.5257813 L13.5902344,33.1751953 C13.9712891,32.7939453 14.5900391,32.7939453 14.9710938,33.1751953 C15.3525391,33.5566406 15.3525391,34.175 14.9710938,34.55625 L13.3111328,36.2164063 L14.9710938,37.8765625 C15.3525391,38.2580078 15.3525391,38.8763672 14.9710938,39.2576172 C14.7806641,39.4480469 14.5304688,39.5433594 14.2806641,39.5433594 L14.2806641,39.5433594 Z" id="Path" fill="#CA0404"></path>
                <path d="M23.4138672,39.5433594 C23.1640625,39.5433594 22.9138672,39.4480469 22.7234375,39.2574219 C22.3419922,38.8759766 22.3419922,38.2576172 22.7234375,37.8763672 L24.3833984,36.2162109 L22.7234375,34.5560547 C22.3419922,34.1746094 22.3419922,33.55625 22.7234375,33.175 C23.1044922,32.79375 23.7232422,32.79375 24.1042969,33.175 L26.4548828,35.5255859 C26.8363281,35.9070313 26.8363281,36.5253906 26.4548828,36.9066406 L24.1042969,39.2572266 C23.9136719,39.4480469 23.6636719,39.5433594 23.4138672,39.5433594 Z" id="Path" fill="#CA0404"></path>
                <path d="M17.5189453,39.5435547 C17.35625,39.5435547 17.1914062,39.5029297 17.0398437,39.4171875 C16.5701172,39.1519531 16.4042969,38.55625 16.6695312,38.0865234 L19.3242187,33.3853516 C19.5892578,32.9158203 20.1851562,32.75 20.6546875,33.0150391 C21.1244141,33.2802734 21.2902344,33.8759766 21.025,34.3457031 L18.3703125,39.046875 C18.1908203,39.3648437 17.8597656,39.5435547 17.5189453,39.5435547 L17.5189453,39.5435547 Z" id="Path" fill="#CA0404"></path>
                <path d="M67.5878906,57.4486328 L64.4628906,57.4486328 C64.1392578,57.4486328 63.8769531,57.1863281 63.8769531,56.8626953 L63.8769531,44.9748047 C63.8769531,44.6511719 64.1392578,44.3888672 64.4628906,44.3888672 L67.5878906,44.3888672 C67.9115234,44.3888672 68.1738281,44.6511719 68.1738281,44.9748047 L68.1738281,56.8626953 C68.1738281,57.1863281 67.9115234,57.4486328 67.5878906,57.4486328 Z" id="Path" fill="#CA0404"></path>
                <path d="M61.1986328,57.4486328 L58.0736328,57.4486328 C57.75,57.4486328 57.4876953,57.1863281 57.4876953,56.8626953 L57.4876953,49.5078125 C57.4876953,49.1841797 57.75,48.921875 58.0736328,48.921875 L61.1986328,48.921875 C61.5222656,48.921875 61.7845703,49.1841797 61.7845703,49.5078125 L61.7845703,56.8626953 C61.7845703,57.1863281 61.5222656,57.4486328 61.1986328,57.4486328 Z" id="Path" fill="#CA0404"></path>
                <path d="M73.9771484,57.4486328 L70.8521484,57.4486328 C70.5285156,57.4486328 70.2662109,57.1863281 70.2662109,56.8626953 L70.2662109,41.5619141 C70.2662109,41.2382812 70.5285156,40.9759766 70.8521484,40.9759766 L73.9771484,40.9759766 C74.3007812,40.9759766 74.5630859,41.2382812 74.5630859,41.5619141 L74.5630859,56.8626953 C74.5630859,57.1863281 74.3007812,57.4486328 73.9771484,57.4486328 Z" id="Path" fill="#CA0404"></path>
                <circle id="Oval" fill="#F6CDCE" cx="53.8556641" cy="33.9806641" r="1.09179688"></circle>
                <circle id="Oval" fill="#F6CDCE" cx="50.5527344" cy="33.9806641" r="1.09179688"></circle>
                <circle id="Oval" fill="#F6CDCE" cx="47.25" cy="33.9806641" r="1.09179688"></circle>
            </g>
        </g>
    </g>
</svg>