<?xml version="1.0" encoding="UTF-8"?>
<svg width="126px" height="122px" viewBox="0 0 126 122" version="1.1" xmlns="http://www.w3.org/2000/svg" xmlns:xlink="http://www.w3.org/1999/xlink">
    <!-- Generator: Sketch 63.1 (92452) - https://sketch.com -->
    <title>email_and_mobile_integration</title>
    <desc>Created with Sketch.</desc>
    <g id="Page-1" stroke="none" stroke-width="1" fill="none" fill-rule="evenodd">
        <g id="email_and_mobile_integration" transform="translate(-4.000000, -2.000000)" fill-rule="nonzero">
            <g id="Group-18">
                <path d="M112.643425,14.3982323 C122.764992,23.5001537 127.664128,38.2377854 125.624894,50.6812342 C123.585659,63.1246829 114.632922,73.2240752 107.943239,84.4954957 C101.253555,95.7669162 96.8766613,108.235302 87.0783883,116.489373 C77.2552467,124.743444 61.9858568,128.808138 49.6509752,124.46914 C37.2912248,120.130141 27.8659825,107.412388 20.2561563,93.7969113 C12.6214614,80.1814343 6.85192,65.7181071 8.1948305,51.5540211 C9.56260972,37.3899352 18.0925783,23.5250905 29.8803483,14.7224103 C41.6681183,5.91973015 56.7634271,2.17921449 71.9582108,2.0046571 C87.1778632,1.85503647 102.521859,5.29631087 112.643425,14.3982323 Z" id="Path" fill="#FFCCCD" opacity="0.300000012" transform="translate(67.040001, 64.115001) rotate(-94.000000) translate(-67.040001, -64.115001) "></path>
                <g id="mail" transform="translate(28.000000, 2.000000)">
                    <path d="M60.8234047,100.897009 L15.9358007,100.897009 C12.3942004,100.897009 9.52320014,98.0260088 9.52320014,94.4844084 L9.52320014,7.91540071 C9.52320014,4.37380039 12.3942004,1.50280013 15.9358007,1.50280013 L60.8234047,1.50280013 C64.365005,1.50280013 67.2360053,4.37380039 67.2360053,7.91540071 L67.2360053,94.4844084 C67.2360053,98.0260088 64.365005,100.897009 60.8234047,100.897009 Z" id="SVGCleanerId_0" fill="#F3F1F1"></path>
                    <path d="M51.8234047,104.897009 L6.93580071,104.897009 C3.39420039,104.897009 0.523200136,102.026009 0.523200136,98.4844084 L0.523200136,11.9154007 C0.523200136,8.37380039 3.39420039,5.50280013 6.93580071,5.50280013 L51.8234047,5.50280013 C55.365005,5.50280013 58.2360053,8.37380039 58.2360053,11.9154007 L58.2360053,98.4844084 C58.2360053,102.026009 55.365005,104.897009 51.8234047,104.897009 Z" id="SVGCleanerId_0_1_" fill="#D03D39"></path>
                    <rect id="Rectangle" fill="#FFFFFF" x="33.5702023" y="31.9624029" width="54.5064049" height="38.4752034"></rect>
                    <path d="M88.0770072,31.9624029 L33.5702023,31.9624029 L33.5702023,36.6322033 L56.1614043,60.5524054 C57.3676044,61.8294055 59.0668046,62.5620056 60.8236047,62.5620056 C62.5802049,62.5620056 64.279605,61.8296055 65.4858051,60.5524054 L88.0770072,36.6322033 L88.0770072,31.9624029 L88.0770072,31.9624029 Z" id="Path" fill="#FFFFFF"></path>
                    <path d="M58.4926045,58.3508052 L33.5702023,31.9624029 L88.0766072,31.9624029 L63.1544049,58.3508052 C61.8892048,59.6904053 59.7578046,59.6904053 58.4926045,58.3508052 Z" id="Path" fill="#FFFFFF"></path>
                    <path d="M41.586003,92.9816083 L35.1734024,92.9816083 C34.3434024,92.9816083 33.6704023,93.6546084 33.6704023,94.4846084 C33.6704023,95.3146085 34.3434024,95.9876086 35.1734024,95.9876086 L41.586003,95.9876086 C42.4160031,95.9876086 43.0890031,95.3146085 43.0890031,94.4846084 C43.0890031,93.6546084 42.4160031,92.9816083 41.586003,92.9816083 Z" id="Path" fill="#000000"></path>
                    <path d="M38.5800027,4.80940043 L38.3796027,4.80940043 C37.5496026,4.80940043 36.8766026,5.48240049 36.8766026,6.31240056 C36.8766026,7.14240064 37.5496026,7.8154007 38.3796027,7.8154007 L38.5800027,7.8154007 C39.4100028,7.8154007 40.0830029,7.14240064 40.0830029,6.31240056 C40.0830029,5.48240049 39.4100028,4.80940043 38.5800027,4.80940043 Z" id="Path" fill="#000000"></path>
                    <path d="M44.9926033,4.80940043 L44.7922033,4.80940043 C43.9622032,4.80940043 43.2892032,5.48240049 43.2892032,6.31240056 C43.2892032,7.14240064 43.9622032,7.8154007 44.7922033,7.8154007 L44.9926033,7.8154007 C45.8226034,7.8154007 46.4956034,7.14240064 46.4956034,6.31240056 C46.4956034,5.48240049 45.8226034,4.80940043 44.9926033,4.80940043 Z" id="Path" fill="#000000"></path>
                    <path d="M32.1676022,4.80940043 L31.9672021,4.80940043 C31.1372021,4.80940043 30.464202,5.48240049 30.464202,6.31240056 C30.464202,7.14240064 31.1372021,7.8154007 31.9672021,7.8154007 L32.1676022,7.8154007 C32.9976022,7.8154007 33.6706023,7.14240064 33.6706023,6.31240056 C33.6706023,5.48240049 32.9976022,4.80940043 32.1676022,4.80940043 Z" id="Path" fill="#000000"></path>
                    <path d="M89.5702073,31.7986028 C89.4882073,31.0486028 88.8318072,30.4596027 88.0766072,30.4596027 L68.7388054,30.4596027 L68.7388054,7.91540071 C68.7390054,3.55100032 65.1880051,0 60.8234047,0 L15.9358007,0 C11.5712003,0 8.0204,3.55100032 8.0204,7.91540071 L8.0204,94.4844084 C8.0204,98.8490088 11.5714003,102.399809 15.9358007,102.399809 L60.8234047,102.399809 C65.1880051,102.399809 68.7388054,98.8488088 68.7388054,94.4844084 L68.7388054,71.9404064 L88.0766072,71.9404064 C88.9066072,71.9404064 89.5796073,71.2674064 89.5796073,70.4374063 L89.5796073,31.9624029 C89.5796073,31.9070029 89.5762073,31.8524028 89.5702073,31.7986028 Z M84.5902068,33.465403 L62.0620048,57.3188051 C61.3984048,58.0212052 60.2486047,58.0212052 59.5854046,57.3188051 L37.0568026,33.465403 L84.5902068,33.465403 Z M60.8234047,99.3942089 L15.9358007,99.3942089 C13.2288005,99.3942089 11.0262003,97.1916087 11.0262003,94.4846084 L11.0262003,89.575008 L65.7330052,89.575008 L65.7330052,94.4846084 C65.7330052,97.1916087 63.530605,99.3942089 60.8234047,99.3942089 Z M65.7330052,86.5690077 L11.0262003,86.5690077 L11.0262003,12.6246011 L50.4032038,12.6246011 C51.2332039,12.6246011 51.9062039,11.9516011 51.9062039,11.121601 C51.9062039,10.2916009 51.2332039,9.61860086 50.4032038,9.61860086 L11.0262003,9.61860086 L11.0262003,7.91520071 C11.0262003,5.20820047 13.2288005,3.00560027 15.9358007,3.00560027 L60.8234047,3.00560027 C63.530405,3.00560027 65.7330052,5.20820047 65.7330052,7.91520071 L65.7330052,9.61860086 L57.6172044,9.61860086 C56.7872044,9.61860086 56.1142043,10.2916009 56.1142043,11.121601 C56.1142043,11.9516011 56.7872044,12.6246011 57.6172044,12.6246011 L65.7330052,12.6246011 L65.7330052,30.4594027 L33.5702023,30.4594027 C32.7530022,30.4594027 32.0672022,31.1460028 32.0672022,31.9624029 L32.0672022,70.4376063 C32.0672022,71.2676064 32.7402022,71.9406064 33.5702023,71.9406064 L65.7330052,71.9406064 L65.7330052,86.5690077 L65.7330052,86.5690077 Z M35.0732024,68.9346062 L35.0732024,35.7428032 L57.3998044,59.3828053 C58.2792045,60.3140054 59.5428046,60.8586054 60.8234047,60.8586054 C62.1042048,60.8586054 63.367805,60.3140054 64.247005,59.3830053 L86.573607,35.7428032 L86.573607,68.9346062 L35.0732024,68.9346062 Z" id="Shape" fill="#000000"></path>
                </g>
            </g>
        </g>
    </g>
</svg>