<?xml version="1.0" encoding="UTF-8"?>
<svg width="126px" height="118px" viewBox="0 0 126 118" version="1.1" xmlns="http://www.w3.org/2000/svg" xmlns:xlink="http://www.w3.org/1999/xlink">
    <!-- Generator: Sketch 63.1 (92452) - https://sketch.com -->
    <title>personalized_ac</title>
    <desc>Created with Sketch.</desc>
    <g id="Page-1" stroke="none" stroke-width="1" fill="none" fill-rule="evenodd">
        <g id="personalized_ac" transform="translate(-4.000000, -6.000000)" fill-rule="nonzero">
            <g id="Group-18">
                <path d="M112.643425,14.3982323 C122.764992,23.5001537 127.664128,38.2377854 125.624894,50.6812342 C123.585659,63.1246829 114.632922,73.2240752 107.943239,84.4954957 C101.253555,95.7669162 96.8766613,108.235302 87.0783883,116.489373 C77.2552467,124.743444 61.9858568,128.808138 49.6509752,124.46914 C37.2912248,120.130141 27.8659825,107.412388 20.2561563,93.7969113 C12.6214614,80.1814343 6.85192,65.7181071 8.1948305,51.5540211 C9.56260972,37.3899352 18.0925783,23.5250905 29.8803483,14.7224103 C41.6681183,5.91973015 56.7634271,2.17921449 71.9582108,2.0046571 C87.1778632,1.85503647 102.521859,5.29631087 112.643425,14.3982323 Z" id="Path" fill="#FFCCCD" opacity="0.300000012" transform="translate(67.040001, 64.115001) rotate(-94.000000) translate(-67.040001, -64.115001) "></path>
                <g id="Group-17" transform="translate(10.000000, 18.000000)">
                    <g id="businessman" transform="translate(5.000000, 5.000000)">
                        <path d="M79.3200024,47.4000014 L79.3200024,36.5200011 C79.3200024,35.636321 78.6036824,34.920001 77.7200023,34.920001 L71.7331222,34.920001 C70.9032021,31.1492809 69.4206421,27.6236808 67.407042,24.4689607 L71.6384022,20.2376006 C72.2632022,19.6128006 72.2632022,18.5996805 71.6384022,17.9748805 L63.9451219,10.2816003 C63.3203219,9.65680026 62.3072019,9.65680026 61.6824019,10.2816003 L57.4510417,14.5129604 C54.2963216,12.4993603 50.7707215,11.0166403 47.0000014,10.1868803 L47.0000014,4.2000001 C47.0000014,3.31632007 46.2836814,2.60000005 45.4000014,2.60000005 L34.5200011,2.60000005 C33.636321,2.60000005 32.920001,3.31632007 32.920001,4.2000001 L32.920001,10.1956803 C29.1547209,11.0294403 25.6342408,12.5140803 22.4846407,14.5286404 L18.2376006,10.2816003 C17.6128006,9.65680026 16.5996805,9.65680026 15.9748805,10.2816003 L8.28160028,17.9748805 C7.65680026,18.5996805 7.65680026,19.6128006 8.28160028,20.2376006 L12.5379204,24.4939207 C10.5323203,27.6422408 9.0552003,31.1592009 8.22752028,34.920001 L2.2000001,34.920001 C1.31632007,34.920001 0.600000048,35.636321 0.600000048,36.5200011 L0.600000048,47.4000014 C0.600000048,48.2836814 1.31632007,49.0000014 2.2000001,49.0000014 L8.23632028,49.0000014 C9.0678403,52.7553615 10.5472003,56.2670416 12.5536004,59.4104017 L8.28160028,63.6824019 C7.65680026,64.3072019 7.65680026,65.3203219 8.28160028,65.9451219 L15.9748805,73.6384022 C16.5996805,74.2632022 17.6128006,74.2632022 18.2376006,73.6384022 L22.5096007,69.366402 C25.6529608,71.3728021 29.1644809,72.8521621 32.920001,73.6836822 L32.920001,79.7200023 C32.920001,80.6036824 33.636321,81.3200024 34.5200011,81.3200024 L45.4000014,81.3200024 C46.2836814,81.3200024 47.0000014,80.6036824 47.0000014,79.7200023 L47.0000014,73.6924822 C50.7608015,72.8648021 54.2777616,71.3875221 57.4259217,69.381922 L61.6822419,73.6382422 C62.3070419,74.2630422 63.3201619,74.2630422 63.9449619,73.6382422 L71.6382422,65.9449619 C72.2630422,65.3201619 72.2630422,64.3070419 71.6382422,63.6822419 L67.391202,59.4352017 C69.4057621,56.2856016 70.8904021,52.7651215 71.7241622,48.9998414 L77.7200023,48.9998414 C78.6036824,49.0000014 79.3200024,48.2836814 79.3200024,47.4000014 Z" id="XMLID_1136_" fill="#D03D39"></path>
                        <circle id="XMLID_1164_" fill="#FFFFFF" cx="45.9600012" cy="40.9600012" r="21.7600006"></circle>
                        <g id="XMLID_58_" transform="translate(5.000000, 0.000000)" fill="#000000">
                            <path d="M78.7200023,32.320001 L73.9944022,32.320001 C73.2076822,29.2947209 72.0124821,26.4075208 70.4297621,23.7091207 L73.7697622,20.3691206 C75.0174422,19.1214406 75.0174422,17.0913605 73.7697622,15.8435205 L66.076482,8.15024024 C64.8288019,6.90272021 62.7988819,6.90256021 61.5510418,8.15024024 L58.2108817,11.4902403 C55.5124817,9.9075203 52.6252816,8.71232026 49.6000015,7.92560024 L49.6000015,3.2000001 C49.6000015,1.43552004 48.1644814,0 46.4000014,0 L35.5200011,0 C33.755521,0 32.320001,1.43552004 32.320001,3.2000001 L32.320001,7.93616024 C29.2992009,8.72576026 26.4176008,9.9220803 23.7240007,11.5052803 L20.3691206,8.15040024 C19.1212806,6.90272021 17.0913605,6.90288021 15.8435205,8.15040024 L8.15024024,15.8435205 C6.90256021,17.0912005 6.90256021,19.1212806 8.15024024,20.3689606 L11.5161603,23.7350407 C9.9404803,26.4265608 8.75040026,29.3044809 7.96624024,32.320001 L3.2000001,32.320001 C1.43552004,32.320001 0,33.755521 0,35.5200011 L0,46.4000014 C0,48.1644814 1.43552004,49.6000015 3.2000001,49.6000015 L7.97664024,49.6000015 C8.76352026,52.6105616 9.9550403,55.4836817 11.5308803,58.1702417 L8.15024024,61.5508818 C6.90256021,62.7985619 6.90256021,64.8286419 8.15024024,66.076482 L15.8435205,73.7697622 C17.0913605,75.0174422 19.1212806,75.0176022 20.3689606,73.7697622 L23.7497607,70.3891221 C26.4363208,71.9649621 29.3094409,73.1563222 32.320001,73.9432022 L32.320001,78.7200023 C32.320001,80.4844824 33.755521,81.9200024 35.5200011,81.9200024 L46.4000014,81.9200024 C48.1644814,81.9200024 49.6000015,80.4844824 49.6000015,78.7200023 L49.6000015,73.9537622 C52.6155216,73.1696022 55.4934417,71.9795221 58.1849617,70.4038421 L61.5508818,73.7697622 C62.7987219,75.0174422 64.8286419,75.0172822 66.076482,73.7697622 L73.7697622,66.076482 C75.0174422,64.8288019 75.0174422,62.7987219 73.7697622,61.5510418 L70.4148821,58.1960017 C71.9980821,55.5024017 73.1944022,52.6208016 73.9840022,49.6000015 L78.7200023,49.6000015 C80.4844824,49.6000015 81.9200024,48.1644814 81.9200024,46.4000014 L81.9200024,35.5200011 C81.9200024,33.755521 80.4844824,32.320001 78.7200023,32.320001 Z M78.7200023,46.4000014 L72.7243222,46.4000014 C71.9739221,46.4000014 71.3243221,46.9214414 71.1620821,47.6540814 C70.3800021,51.1859215 68.9944021,54.5232016 67.043522,57.5732817 C66.638722,58.2062417 66.728802,59.0355218 67.260002,59.5667218 L71.5068821,63.8137619 L63.8136019,71.5070421 L59.5571218,67.250722 C59.0265618,66.720162 58.1988817,66.629442 57.5660817,67.032642 C54.5166416,68.9753621 51.1824015,70.3539221 47.6560014,71.1300821 C46.9224014,71.2915221 46.3998414,71.9414421 46.3998414,72.6926422 L46.3998414,78.7200023 L35.5198411,78.7200023 L35.5198411,72.6836822 C35.5198411,71.9332821 34.998401,71.2836821 34.265761,71.1214421 C30.7440009,70.3416021 27.4147208,68.9609621 24.3704007,67.017762 C24.1057607,66.848802 23.8070407,66.766402 23.5100807,66.766402 C23.0968007,66.766402 22.6870407,66.926242 22.3782407,67.235042 L18.1062405,71.5070421 L10.4129603,63.8137619 L14.6849604,59.5417618 C15.2158405,59.0108818 15.3060805,58.1824017 14.9022404,57.5496017 C12.9590404,54.5052816 11.5784003,51.1760015 10.7984003,47.6542414 C10.6361603,46.9216014 9.9865603,46.4001614 9.23616028,46.4001614 L3.2000001,46.4001614 L3.2000001,35.5201611 L9.22736027,35.5201611 C9.9785603,35.5201611 10.6284803,34.997601 10.7899203,34.264001 C11.5660803,30.7374409 12.9446404,27.4033608 14.8873604,24.3539207 C15.2904005,23.7211207 15.1998405,22.8934407 14.6692804,22.3628807 L10.4129603,18.1064005 L18.1062405,10.4131203 L22.3532807,14.6600004 C22.8844807,15.1912005 23.7139207,15.2812805 24.3467207,14.8764804 C27.3968008,12.9256004 30.7340809,11.5398403 34.265921,10.7579203 C34.998561,10.5956803 35.5200011,9.9460803 35.5200011,9.19568027 L35.5200011,3.2000001 L46.4000014,3.2000001 L46.4000014,9.18672027 C46.4000014,9.9379203 46.9225614,10.5878403 47.6561614,10.7492803 C51.1924815,11.5276803 54.5347216,12.9112004 57.5900817,14.8616004 C58.2230417,15.2656005 59.0515218,15.1750405 59.5822418,14.6443204 L63.8136019,10.4129603 L71.5068821,18.1062405 L67.275522,22.3376007 C66.744642,22.8684807 66.654402,23.6969607 67.058242,24.3297607 C69.0086421,27.3852808 70.3921621,30.7275209 71.1705621,34.263681 C71.3320021,34.997281 71.9819221,35.5198411 72.7331222,35.5198411 L78.7200023,35.5198411 L78.7200023,46.4000014 Z" id="XMLID_82_"></path>
                            <path d="M48.3598414,18.7968006 C47.5220814,18.5172806 46.6153614,18.9699206 46.3356814,19.8080006 C46.0560014,20.6462406 46.5088014,21.5524806 47.3468814,21.8321607 C55.5849617,24.5816007 61.1200018,32.268481 61.1200018,40.9600012 C61.1200018,45.5470414 59.5790418,49.7803215 56.9889617,53.1716816 C56.5220817,50.6390415 54.5598416,48.5433614 51.9817615,47.9795214 L46.5571214,46.7934414 C48.0419214,45.3393614 48.9656015,43.3144013 48.9656015,41.0769612 L48.9656015,35.8592011 C49.5867215,34.959361 49.9516815,33.869601 49.9516815,32.695841 L49.9516815,28.4552008 C49.9516815,27.5715208 49.2353615,26.8552008 48.3516814,26.8552008 L39.8064012,26.8552008 C36.0281611,26.8552008 32.954401,29.9289609 32.954401,33.707201 L32.954401,36.6787211 C32.954401,36.7499211 32.960641,36.8193611 32.969601,36.8881611 C32.960641,36.9568011 32.954401,37.0264011 32.954401,37.0976011 L32.954401,41.0771212 C32.954401,43.3116813 33.875681,45.3344014 35.3571211,46.7881614 L29.9337609,47.9779214 C27.3574408,48.5430414 25.3964808,50.6393615 24.9305607,53.1713616 C22.3408007,49.7798415 20.8000006,45.5467214 20.8000006,40.9600012 C20.8000006,31.966081 26.8392008,23.9849607 35.4864011,21.5515206 C36.3369611,21.3121606 36.8324811,20.4284806 36.5931211,19.5779206 C36.3537611,18.7273606 35.4700811,18.2320005 34.619521,18.4712006 C29.8148809,19.8233606 25.4851208,22.7588807 22.4276807,26.7372808 C19.2694406,30.8465609 17.6000005,35.7648011 17.6000005,40.9600012 C17.6000005,53.8315216 28.0643208,64.3046419 40.9324812,64.3200019 C40.9355212,64.3200019 40.9385612,64.3200019 40.9416012,64.3200019 C40.9432012,64.3200019 40.9446412,64.3200019 40.9462412,64.3200019 C40.9508812,64.3200019 40.9555212,64.3200019 40.9601612,64.3200019 C53.8409616,64.3200019 64.3201619,53.8408016 64.3201619,40.9600012 C64.3201619,30.8894409 57.9060817,21.9827207 48.3598414,18.7968006 Z M53.8960016,54.3328016 L53.8960016,56.4094417 C50.9635215,58.8688018 47.3238414,60.5100818 43.3302413,60.9800018 L47.4734414,50.2694415 L51.2982415,51.1057615 C52.8033616,51.4348815 53.8960016,52.7920016 53.8960016,54.3328016 Z M45.7656014,41.0771212 C45.7656014,43.7270413 43.6097613,45.8828814 40.9600012,45.8828814 C38.3102411,45.8828814 36.1544011,43.7270413 36.1544011,41.0771212 L36.1544011,38.2788811 L44.3691213,38.2788811 C44.8512013,38.2788811 45.3192014,38.2174411 45.7657614,38.1019211 L45.7657614,41.0771212 L45.7656014,41.0771212 Z M38.4433611,48.6753615 C39.2353612,48.9384015 40.0808012,49.0828815 40.9600012,49.0828815 C41.8286412,49.0828815 42.6646413,48.9419215 43.4484813,48.6848015 C43.7027213,48.9891215 44.0118413,49.2468815 44.3619213,49.4432015 L40.9416012,58.2852817 L37.5214411,49.4440015 C37.8753611,49.2454415 38.1875211,48.9841615 38.4433611,48.6753615 Z M36.1544011,33.707361 C36.1544011,31.6937609 37.7926411,30.0553609 39.8064012,30.0553609 L46.7518414,30.0553609 L46.7518414,32.696001 C46.7518414,34.009761 45.6830414,35.078721 44.3691213,35.078721 L36.1544011,35.078721 L36.1544011,33.707361 L36.1544011,33.707361 Z M30.6195209,51.1033615 L34.410561,50.2716815 L38.5512011,60.9753618 C34.572801,60.4995218 30.9470409,58.8608018 28.0241608,56.4092817 L28.0241608,54.3297616 C28.0240008,52.7902416 29.1156809,51.4332815 30.6195209,51.1033615 Z" id="XMLID_88_"></path>
                            <path d="M41.4528012,20.8000006 C41.8736012,20.8000006 42.2864013,20.6288006 42.5840013,20.3312006 C42.8816013,20.0336006 43.0528013,19.6208006 43.0528013,19.2000006 C43.0528013,18.7792006 42.8816013,18.3664005 42.5840013,18.0688005 C42.2864013,17.7712005 41.8736012,17.6000005 41.4528012,17.6000005 C41.0320012,17.6000005 40.6192012,17.7712005 40.3216012,18.0688005 C40.0240012,18.3664005 39.8528012,18.7792006 39.8528012,19.2000006 C39.8528012,19.6208006 40.0240012,20.0336006 40.3216012,20.3312006 C40.6192012,20.6288006 41.0320012,20.8000006 41.4528012,20.8000006 Z" id="XMLID_1046_"></path>
                        </g>
                    </g>
                    <g id="settings" fill="#000000">
                        <path d="M0.291406226,40.7851598 L3.80156274,41.1593787 C5.6289067,24.6945334 15.8265638,10.3382821 30.7710966,3.19062529 L29.2562526,0 C13.2046888,7.67890689 2.2531252,23.1000021 0.291406226,40.7851598 Z" id="Path"></path>
                        <path d="M-3.552714e-16,46.2687541 C-3.552714e-16,46.8812542 0.010937501,47.4890666 0.033593803,48.0960981 L3.56484412,47.9726605 C3.54218792,47.4078166 3.53125032,46.839848 3.53125032,46.2687541 C3.53125032,45.6976603 3.54140652,45.1304728 3.56093792,44.5648478 L0.0296876027,44.4414102 C0.010937501,45.0492228 -3.552714e-16,45.6562541 -3.552714e-16,46.2687541 Z" id="Path"></path>
                        <path d="M71.6289126,89.3476642 L73.1437565,92.5382895 C89.1953204,84.8593826 100.146103,69.43985 102.108603,51.7546922 L98.5992276,51.3804734 C96.7703211,67.8445373 86.5734453,82.2000073 71.6289126,89.3476642 L71.6289126,89.3476642 Z" id="Path"></path>
                        <path d="M102.366415,48.0960981 C102.389072,47.4890666 102.400009,46.8812542 102.400009,46.2687541 C102.400009,45.6562541 102.389072,45.0492228 102.366415,44.4414102 L98.835165,44.565629 C98.8578212,45.1304728 98.8687588,45.6984417 98.8687588,46.2687541 C98.8687588,46.839848 98.8586026,47.4078166 98.8390712,47.9726605 L102.366415,48.0960981 Z" id="Path"></path>
                    </g>
                </g>
            </g>
        </g>
    </g>
</svg>