<?xml version="1.0" encoding="UTF-8"?>
<svg width="107px" height="100px" viewBox="0 0 107 100" version="1.1" xmlns="http://www.w3.org/2000/svg" xmlns:xlink="http://www.w3.org/1999/xlink">
    <!-- Generator: Sketch 63.1 (92452) - https://sketch.com -->
    <title>practitioners</title>
    <desc>Created with Sketch.</desc>
    <defs>
        <linearGradient x1="60.3669486%" y1="25.5285454%" x2="8.13832658%" y2="80.3150435%" id="linearGradient-1">
            <stop stop-color="#FFD7D7" offset="0.07011211%"></stop>
            <stop stop-color="#FFE4E3" offset="51.12%"></stop>
            <stop stop-color="#FFF2F1" offset="100%"></stop>
        </linearGradient>
    </defs>
    <g id="Page-1" stroke="none" stroke-width="1" fill="none" fill-rule="evenodd">
        <g id="practitioners" fill-rule="nonzero">
            <g id="marketing">
                <path d="M106.666667,36.6947917 C106.666667,20.6095833 82.7885417,7.57 53.3333333,7.57 C23.878125,7.57 0,20.6095833 0,36.6947917 C0,39.2947917 0.624791667,41.815 1.79583333,44.2133333 C3.880625,48.4822917 4.40041667,53.3441667 3.36604167,57.98125 C2.941875,59.8827083 2.70375,61.8541667 2.67166667,63.8758333 C2.414375,80.0866667 15.5802083,93.4716667 31.7929167,93.4716667 C43.9685417,93.4716667 54.3977083,85.9997917 58.748125,75.3914583 C61.1372917,69.565625 66.1575,65.2 72.3220833,63.9170833 C92.40125,59.7385417 106.666667,49.1270833 106.666667,36.6947917 Z" id="Path" fill="url(#linearGradient-1)"></path>
                <path d="M87.1389583,66.8433333 L19.5277083,66.8433333 C17.6591667,66.8433333 16.1427083,68.3597917 16.1427083,70.2283333 L16.1427083,96.45 C16.1427083,98.3202083 17.6591667,99.835 19.5277083,99.835 L87.1389583,99.835 C89.0075,99.835 90.5239583,98.3202083 90.5239583,96.45 L90.5239583,70.228125 C90.5239583,68.3597917 89.0075,66.8433333 87.1389583,66.8433333 Z" id="Path" fill="#0000CC" opacity="0.1"></path>
                <path d="M87.9375,6.624375 L82.3979167,6.624375 C81.8208333,6.624375 81.35625,7.08895833 81.35625,7.66604167 L81.35625,9.33625 L60.456875,16.0985417 L60.456875,15.5160417 C60.456875,14.3654167 59.5241667,13.4327083 58.3735417,13.4327083 L48.293125,13.4327083 C47.1425,13.4327083 46.2097917,14.3654167 46.2097917,15.5160417 L46.2097917,16.0985417 L25.3104167,9.33625 L25.3104167,7.66604167 C25.3104167,7.08895833 24.8458333,6.624375 24.26875,6.624375 L18.7291667,6.624375 C18.1541667,6.624375 17.6875,7.08895833 17.6875,7.66604167 L17.6875,41.3347917 C17.6875,41.9097917 18.1541667,42.3764583 18.7291667,42.3764583 L24.26875,42.3764583 C24.8458333,42.3764583 25.3104167,41.9097917 25.3104167,41.3347917 L25.3104167,39.663125 L46.2097917,32.9008333 L46.2097917,33.4833333 C46.2097917,34.6339583 47.1425,35.5666667 48.293125,35.5666667 L49.5820833,35.5666667 L49.5820833,39.7652083 C49.5820833,40.3404167 50.0485417,40.806875 50.62375,40.806875 L51.4583333,40.806875 L51.4583333,44.6014583 C51.4583333,45.106875 51.8164583,45.5260417 52.2916667,45.6220833 L52.2916667,47.29125 C52.2916667,49.6452083 54.2064583,51.56 56.5604167,51.56 L69.3770833,51.56 C70.5820833,51.56 71.5625,52.5404167 71.5625,53.7454167 C71.5625,54.9504167 70.5820833,55.9308333 69.3770833,55.9308333 L37.2897917,55.9308333 C34.9358333,55.9308333 33.0208333,57.8458333 33.0208333,60.1997917 L33.0208333,61.3310417 C33.0208333,61.9064583 33.4872917,62.3727083 34.0625,62.3727083 C34.6377083,62.3727083 35.1041667,61.9064583 35.1041667,61.3310417 L35.1041667,60.1997917 C35.1041667,58.9945833 36.0845833,58.0141667 37.2897917,58.0141667 L69.3770833,58.0141667 C71.7310417,58.0141667 73.6458333,56.0991667 73.6458333,53.7452083 C73.6458333,51.3914583 71.7310417,49.4766667 69.3770833,49.4766667 L56.5604167,49.4766667 C55.3554167,49.4766667 54.375,48.49625 54.375,47.29125 L54.375,45.6220833 C54.8502083,45.5258333 55.2083333,45.106875 55.2083333,44.6014583 L55.2083333,40.806875 L56.0429167,40.806875 C56.618125,40.806875 57.0845833,40.3404167 57.0845833,39.7652083 L57.0845833,35.5666667 L58.3735417,35.5666667 C59.5241667,35.5666667 60.456875,34.6339583 60.456875,33.4833333 L60.456875,32.9008333 L81.35625,39.663125 L81.35625,41.3347917 C81.35625,41.9097917 81.8208333,42.3764583 82.3979167,42.3764583 L87.9375,42.3764583 C88.5125,42.3764583 88.9791667,41.9097917 88.9791667,41.3347917 L88.9791667,7.66604167 C88.9791667,7.08895833 88.5125,6.624375 87.9375,6.624375 L87.9375,6.624375 Z" id="Path" fill="#FF0000" opacity="0.1"></path>
                <polygon id="Path" fill="#A50606" points="48.818125 27.681875 21.775625 36.431875 21.775625 3.8175 48.818125 12.5675"></polygon>
                <polygon id="Path" fill="#A50606" points="57.8485417 27.681875 84.8910417 36.431875 84.8910417 3.8175 57.8485417 12.5675"></polygon>
                <path d="M25.3104167,3.29104167 L25.3104167,36.9597917 C25.3104167,37.5347917 24.8458333,38.0014583 24.26875,38.0014583 L18.7291667,38.0014583 C18.1541667,38.0014583 17.6875,37.5347917 17.6875,36.9597917 L17.6875,3.29104167 C17.6875,2.71395833 18.1541667,2.249375 18.7291667,2.249375 L24.26875,2.249375 C24.8458333,2.249375 25.3104167,2.71395833 25.3104167,3.29104167 Z" id="Path" fill="#DD7D7D"></path>
                <polygon id="Path" fill="#AA4747" points="17.6875 25.3785417 25.3104167 25.3785417 25.3104167 30.2514583 17.6875 30.2514583"></polygon>
                <path d="M88.9791667,3.29104167 L88.9791667,36.9597917 C88.9791667,37.5347917 88.5125,38.0014583 87.9375,38.0014583 L82.3979167,38.0014583 C81.8208333,38.0014583 81.35625,37.5347917 81.35625,36.9597917 L81.35625,3.29104167 C81.35625,2.71395833 81.8208333,2.249375 82.3979167,2.249375 L87.9375,2.249375 C88.5125,2.249375 88.9791667,2.71395833 88.9791667,3.29104167 Z" id="Path" fill="#DD7D7D"></path>
                <polygon id="Path" fill="#AA4747" points="81.35625 25.3785417 88.9791667 25.3785417 88.9791667 30.2514583 81.35625 30.2514583"></polygon>
                <path d="M67.5,24.105 L39.1666667,24.105 C38.0160417,24.105 37.0833333,23.1722917 37.0833333,22.0216667 L37.0833333,17.75625 C37.0833333,16.605625 38.0160417,15.6729167 39.1666667,15.6729167 L67.5,15.6729167 C68.650625,15.6729167 69.5833333,16.605625 69.5833333,17.75625 L69.5833333,22.021875 C69.5833333,23.1722917 68.650625,24.105 67.5,24.105 Z" id="Path" fill="#DD7D7D"></path>
                <path d="M58.3735417,31.1916667 L48.293125,31.1916667 C47.1425,31.1916667 46.2097917,30.2589583 46.2097917,29.1083333 L46.2097917,11.1410417 C46.2097917,9.99041667 47.1425,9.05770833 48.293125,9.05770833 L58.3735417,9.05770833 C59.5241667,9.05770833 60.456875,9.99041667 60.456875,11.1410417 L60.456875,29.108125 C60.456875,30.2589583 59.5241667,31.1916667 58.3735417,31.1916667 Z" id="Path" fill="#DD7D7D"></path>
                <path d="M33.2291667,57.5814583 L34.8958333,57.5814583 C35.4710417,57.5814583 35.9375,58.0479167 35.9375,58.623125 L35.9375,63.7783333 L32.1875,63.7783333 L32.1875,58.623125 C32.1875,58.0477083 32.6539583,57.5814583 33.2291667,57.5814583 Z" id="Path" fill="#FFAB66"></path>
                <path d="M90.5239583,65.853125 L90.5239583,92.0747917 C90.5239583,93.945 89.0075,95.4597917 87.1389583,95.4597917 L19.5277083,95.4597917 C17.6591667,95.4597917 16.1427083,93.945 16.1427083,92.0747917 L16.1427083,65.853125 C16.1427083,63.9845833 17.6591667,62.468125 19.5277083,62.468125 L87.1389583,62.468125 C89.0075,62.468125 90.5239583,63.9847917 90.5239583,65.853125 Z" id="Path" fill="#DD969B"></path>
                <path d="M82.5954167,91.3589583 L24.07125,91.3589583 C23.6039583,91.3589583 23.225,90.98 23.225,90.5127083 L23.225,67.415 C23.225,66.9477083 23.6039583,66.56875 24.07125,66.56875 L82.5954167,66.56875 C83.0627083,66.56875 83.4416667,66.9477083 83.4416667,67.415 L83.4416667,90.5127083 C83.4416667,90.98 83.0627083,91.3589583 82.5954167,91.3589583 Z" id="Path" fill="#C26F6F"></path>
                <g id="Group" transform="translate(20.625000, 68.958333)" fill="#FFFFFF">
                    <path d="M4.25770833,4.95604167 L0.942291667,4.95604167 C0.523958333,4.95604167 0.184791667,4.616875 0.184791667,4.19833333 L0.184791667,0.882916667 C0.184791667,0.464583333 0.523958333,0.125416667 0.942291667,0.125416667 L4.25770833,0.125416667 C4.67604167,0.125416667 5.01520833,0.464583333 5.01520833,0.882916667 L5.01520833,4.19833333 C5.01520833,4.616875 4.67604167,4.95604167 4.25770833,4.95604167 Z" id="Path"></path>
                    <path d="M11.7847917,4.95604167 L8.469375,4.95604167 C8.05104167,4.95604167 7.711875,4.616875 7.711875,4.19833333 L7.711875,0.882916667 C7.711875,0.464583333 8.05104167,0.125416667 8.469375,0.125416667 L11.7847917,0.125416667 C12.203125,0.125416667 12.5425,0.464583333 12.5425,0.882916667 L12.5425,4.19833333 C12.5422917,4.616875 12.203125,4.95604167 11.7847917,4.95604167 Z" id="Path"></path>
                    <path d="M19.311875,4.95604167 L15.9964583,4.95604167 C15.578125,4.95604167 15.2389583,4.616875 15.2389583,4.19833333 L15.2389583,0.882916667 C15.2389583,0.464583333 15.578125,0.125416667 15.9964583,0.125416667 L19.311875,0.125416667 C19.7302083,0.125416667 20.069375,0.464583333 20.069375,0.882916667 L20.069375,4.19833333 C20.069375,4.616875 19.7302083,4.95604167 19.311875,4.95604167 Z" id="Path"></path>
                    <path d="M26.8389583,4.95604167 L23.5235417,4.95604167 C23.1052083,4.95604167 22.7660417,4.616875 22.7660417,4.19833333 L22.7660417,0.882916667 C22.7660417,0.464583333 23.1052083,0.125416667 23.5235417,0.125416667 L26.8389583,0.125416667 C27.2572917,0.125416667 27.5964583,0.464583333 27.5964583,0.882916667 L27.5964583,4.19833333 C27.5964583,4.616875 27.2572917,4.95604167 26.8389583,4.95604167 Z" id="Path"></path>
                    <path d="M34.3660417,4.95604167 L31.050625,4.95604167 C30.6322917,4.95604167 30.293125,4.616875 30.293125,4.19833333 L30.293125,0.882916667 C30.293125,0.464583333 30.6322917,0.125416667 31.050625,0.125416667 L34.3660417,0.125416667 C34.784375,0.125416667 35.12375,0.464583333 35.12375,0.882916667 L35.12375,4.19833333 C35.1235417,4.616875 34.784375,4.95604167 34.3660417,4.95604167 Z" id="Path"></path>
                    <path d="M41.893125,4.95604167 L38.5777083,4.95604167 C38.159375,4.95604167 37.82,4.616875 37.82,4.19833333 L37.82,0.882916667 C37.82,0.464583333 38.1591667,0.125416667 38.5777083,0.125416667 L41.893125,0.125416667 C42.3114583,0.125416667 42.6508333,0.464583333 42.6508333,0.882916667 L42.6508333,4.19833333 C42.650625,4.616875 42.3114583,4.95604167 41.893125,4.95604167 Z" id="Path"></path>
                    <path d="M49.4202083,4.95604167 L46.1047917,4.95604167 C45.6864583,4.95604167 45.3470833,4.616875 45.3470833,4.19833333 L45.3470833,0.882916667 C45.3470833,0.464583333 45.68625,0.125416667 46.1047917,0.125416667 L49.4202083,0.125416667 C49.8385417,0.125416667 50.1779167,0.464583333 50.1779167,0.882916667 L50.1779167,4.19833333 C50.1777083,4.616875 49.8385417,4.95604167 49.4202083,4.95604167 Z" id="Path"></path>
                    <path d="M56.9472917,4.95604167 L53.631875,4.95604167 C53.2135417,4.95604167 52.8741667,4.616875 52.8741667,4.19833333 L52.8741667,0.882916667 C52.8741667,0.464583333 53.2133333,0.125416667 53.631875,0.125416667 L56.9472917,0.125416667 C57.365625,0.125416667 57.7047917,0.464583333 57.7047917,0.882916667 L57.7047917,4.19833333 C57.7047917,4.616875 57.365625,4.95604167 56.9472917,4.95604167 Z" id="Path"></path>
                    <path d="M64.474375,4.95604167 L61.1589583,4.95604167 C60.740625,4.95604167 60.40125,4.616875 60.40125,4.19833333 L60.40125,0.882916667 C60.40125,0.464583333 60.7404167,0.125416667 61.1589583,0.125416667 L64.474375,0.125416667 C64.8927083,0.125416667 65.231875,0.464583333 65.231875,0.882916667 L65.231875,4.19833333 C65.231875,4.616875 64.8927083,4.95604167 64.474375,4.95604167 Z" id="Path"></path>
                    <path d="M4.25770833,12.4208333 L0.942291667,12.4208333 C0.523958333,12.4208333 0.184791667,12.0816667 0.184791667,11.6633333 L0.184791667,8.34791667 C0.184791667,7.92958333 0.523958333,7.59020833 0.942291667,7.59020833 L4.25770833,7.59020833 C4.67604167,7.59020833 5.01520833,7.929375 5.01520833,8.34791667 L5.01520833,11.6633333 C5.01520833,12.0816667 4.67604167,12.4208333 4.25770833,12.4208333 Z" id="Path"></path>
                    <path d="M11.7847917,12.4208333 L8.469375,12.4208333 C8.05104167,12.4208333 7.711875,12.0816667 7.711875,11.6633333 L7.711875,8.34791667 C7.711875,7.92958333 8.05104167,7.59020833 8.469375,7.59020833 L11.7847917,7.59020833 C12.203125,7.59020833 12.5425,7.929375 12.5425,8.34791667 L12.5425,11.6633333 C12.5422917,12.0816667 12.203125,12.4208333 11.7847917,12.4208333 Z" id="Path"></path>
                    <path d="M19.311875,12.4208333 L15.9964583,12.4208333 C15.578125,12.4208333 15.2389583,12.0816667 15.2389583,11.6633333 L15.2389583,8.34791667 C15.2389583,7.92958333 15.578125,7.59020833 15.9964583,7.59020833 L19.311875,7.59020833 C19.7302083,7.59020833 20.069375,7.929375 20.069375,8.34791667 L20.069375,11.6633333 C20.069375,12.0816667 19.7302083,12.4208333 19.311875,12.4208333 Z" id="Path"></path>
                    <path d="M26.8389583,12.4208333 L23.5235417,12.4208333 C23.1052083,12.4208333 22.7660417,12.0816667 22.7660417,11.6633333 L22.7660417,8.34791667 C22.7660417,7.92958333 23.1052083,7.59020833 23.5235417,7.59020833 L26.8389583,7.59020833 C27.2572917,7.59020833 27.5964583,7.929375 27.5964583,8.34791667 L27.5964583,11.6633333 C27.5964583,12.0816667 27.2572917,12.4208333 26.8389583,12.4208333 Z" id="Path"></path>
                    <path d="M34.3660417,12.4208333 L31.050625,12.4208333 C30.6322917,12.4208333 30.293125,12.0816667 30.293125,11.6633333 L30.293125,8.34791667 C30.293125,7.92958333 30.6322917,7.59020833 31.050625,7.59020833 L34.3660417,7.59020833 C34.784375,7.59020833 35.12375,7.929375 35.12375,8.34791667 L35.12375,11.6633333 C35.1235417,12.0816667 34.784375,12.4208333 34.3660417,12.4208333 Z" id="Path"></path>
                    <path d="M41.893125,12.4208333 L38.5777083,12.4208333 C38.159375,12.4208333 37.82,12.0816667 37.82,11.6633333 L37.82,8.34791667 C37.82,7.92958333 38.1591667,7.59020833 38.5777083,7.59020833 L41.893125,7.59020833 C42.3114583,7.59020833 42.6508333,7.929375 42.6508333,8.34791667 L42.6508333,11.6633333 C42.650625,12.0816667 42.3114583,12.4208333 41.893125,12.4208333 Z" id="Path"></path>
                    <path d="M49.4202083,12.4208333 L46.1047917,12.4208333 C45.6864583,12.4208333 45.3470833,12.0816667 45.3470833,11.6633333 L45.3470833,8.34791667 C45.3470833,7.92958333 45.68625,7.59020833 46.1047917,7.59020833 L49.4202083,7.59020833 C49.8385417,7.59020833 50.1779167,7.929375 50.1779167,8.34791667 L50.1779167,11.6633333 C50.1777083,12.0816667 49.8385417,12.4208333 49.4202083,12.4208333 Z" id="Path"></path>
                    <path d="M56.9472917,12.4208333 L53.631875,12.4208333 C53.2135417,12.4208333 52.8741667,12.0816667 52.8741667,11.6633333 L52.8741667,8.34791667 C52.8741667,7.92958333 53.2133333,7.59020833 53.631875,7.59020833 L56.9472917,7.59020833 C57.365625,7.59020833 57.7047917,7.929375 57.7047917,8.34791667 L57.7047917,11.6633333 C57.7047917,12.0816667 57.365625,12.4208333 56.9472917,12.4208333 Z" id="Path"></path>
                    <path d="M4.25770833,19.885625 L0.942291667,19.885625 C0.523958333,19.885625 0.184791667,19.5464583 0.184791667,19.1279167 L0.184791667,15.8125 C0.184791667,15.3941667 0.523958333,15.0547917 0.942291667,15.0547917 L4.25770833,15.0547917 C4.67604167,15.0547917 5.01520833,15.3939583 5.01520833,15.8125 L5.01520833,19.1279167 C5.01520833,19.5464583 4.67604167,19.885625 4.25770833,19.885625 Z" id="Path"></path>
                    <path d="M11.7847917,19.885625 L8.469375,19.885625 C8.05104167,19.885625 7.711875,19.5464583 7.711875,19.1279167 L7.711875,15.8125 C7.711875,15.3941667 8.05104167,15.0547917 8.469375,15.0547917 L11.7847917,15.0547917 C12.203125,15.0547917 12.5425,15.3939583 12.5425,15.8125 L12.5425,19.1279167 C12.5422917,19.5464583 12.203125,19.885625 11.7847917,19.885625 Z" id="Path"></path>
                    <path d="M19.311875,19.885625 L15.9964583,19.885625 C15.578125,19.885625 15.2389583,19.5464583 15.2389583,19.1279167 L15.2389583,15.8125 C15.2389583,15.3941667 15.578125,15.0547917 15.9964583,15.0547917 L19.311875,15.0547917 C19.7302083,15.0547917 20.069375,15.3939583 20.069375,15.8125 L20.069375,19.1279167 C20.069375,19.5464583 19.7302083,19.885625 19.311875,19.885625 Z" id="Path"></path>
                    <path d="M41.893125,15.055 L23.5235417,15.055 C23.1052083,15.055 22.7660417,15.3941667 22.7660417,15.8125 L22.7660417,19.1279167 C22.7660417,19.54625 23.1052083,19.885625 23.5235417,19.885625 L41.893125,19.885625 C42.3114583,19.885625 42.6508333,19.5464583 42.6508333,19.1279167 L42.6508333,15.8125 C42.650625,15.3941667 42.3114583,15.055 41.893125,15.055 Z" id="Path"></path>
                    <path d="M49.4202083,19.885625 L46.1047917,19.885625 C45.6864583,19.885625 45.3470833,19.5464583 45.3470833,19.1279167 L45.3470833,15.8125 C45.3470833,15.3941667 45.68625,15.0547917 46.1047917,15.0547917 L49.4202083,15.0547917 C49.8385417,15.0547917 50.1779167,15.3939583 50.1779167,15.8125 L50.1779167,19.1279167 C50.1777083,19.5464583 49.8385417,19.885625 49.4202083,19.885625 Z" id="Path"></path>
                    <path d="M56.9472917,19.885625 L53.631875,19.885625 C53.2135417,19.885625 52.8741667,19.5464583 52.8741667,19.1279167 L52.8741667,15.8125 C52.8741667,15.3941667 53.2133333,15.0547917 53.631875,15.0547917 L56.9472917,15.0547917 C57.365625,15.0547917 57.7047917,15.3939583 57.7047917,15.8125 L57.7047917,19.1279167 C57.7047917,19.5464583 57.365625,19.885625 56.9472917,19.885625 Z" id="Path"></path>
                    <path d="M64.474375,7.59020833 L61.1589583,7.59020833 C60.740625,7.59020833 60.4014583,7.929375 60.4014583,8.34791667 L60.4014583,19.128125 C60.4014583,19.5464583 60.740625,19.8858333 61.1589583,19.8858333 L64.474375,19.8858333 C64.8927083,19.8858333 65.231875,19.5466667 65.231875,19.128125 L65.231875,8.34791667 C65.231875,7.929375 64.8927083,7.59020833 64.474375,7.59020833 Z" id="Path"></path>
                </g>
                <polygon id="Path" fill="#FFC599" points="32.6341667 62.4683333 74.0322917 62.4683333 74.0322917 66.5691667 32.6341667 66.5691667"></polygon>
                <path d="M55.2083333,35.0722917 L55.2083333,40.2264583 C55.2083333,40.8035417 54.7416667,41.268125 54.1666667,41.268125 L52.5,41.268125 C51.925,41.268125 51.4583333,40.8035417 51.4583333,40.2264583 L51.4583333,35.0722917 L55.2083333,35.0722917 Z" id="Path" fill="#A50606"></path>
                <polygon id="Path" fill="#DD7D7D" points="51.4583333 35.0722917 55.2083333 35.0722917 55.2083333 38.411875 51.4583333 38.411875"></polygon>
                <path d="M56.0429167,36.431875 L50.62375,36.431875 C50.0485417,36.431875 49.5820833,35.9654167 49.5820833,35.3902083 L49.5820833,26.3970833 C49.5820833,25.821875 50.0485417,25.3554167 50.62375,25.3554167 L56.0429167,25.3554167 C56.618125,25.3554167 57.0845833,25.821875 57.0845833,26.3970833 L57.0845833,35.3902083 C57.0845833,35.9654167 56.618125,36.431875 56.0429167,36.431875 Z" id="Path" fill="#CECAE0"></path>
                <path d="M97.1564583,19.3377083 L95.3552083,19.3377083 C94.7797917,19.3377083 94.3135417,19.8039583 94.3135417,20.379375 C94.3135417,20.9547917 94.7797917,21.4210417 95.3552083,21.4210417 L97.1564583,21.4210417 C97.731875,21.4210417 98.198125,20.9547917 98.198125,20.379375 C98.198125,19.8039583 97.7316667,19.3377083 97.1564583,19.3377083 Z" id="Path" fill="#AF0000"></path>
                <path d="M94.3489583,17.4125 C94.560625,17.4125 94.7739583,17.3483333 94.9585417,17.215 L96.7597917,15.9125 C97.2258333,15.5754167 97.330625,14.9241667 96.9935417,14.458125 C96.6564583,13.9916667 96.0054167,13.8872917 95.5391667,14.224375 L93.7379167,15.526875 C93.271875,15.8639583 93.1670833,16.5152083 93.5041667,16.98125 C93.7077083,17.2629167 94.0260417,17.4125 94.3489583,17.4125 Z" id="Path" fill="#AF0000"></path>
                <path d="M96.7597917,24.846466 L94.9585417,23.5439583 C94.4927083,23.2070833 93.84125,23.3116667 93.5041667,23.7777083 C93.1670833,24.24375 93.271875,24.895 93.7379167,25.2320833 L95.5391667,26.5345833 C95.72375,26.668125 95.9370833,26.7320833 96.14875,26.7320833 C96.4716667,26.7320833 96.79,26.5822917 96.99375,26.3008333 C97.3308333,25.8347917 97.2260417,25.1835417 96.7597917,24.846466 L96.7597917,24.846466 Z" id="Path" fill="#AF0000"></path>
                <path d="M11.3114583,21.4210417 C11.8866667,21.4210417 12.353125,20.9547917 12.353125,20.379375 C12.353125,19.8039583 11.8866667,19.3377083 11.3114583,19.3377083 L9.51020833,19.3377083 C8.935,19.3377083 8.46854167,19.8039583 8.46854167,20.379375 C8.46854167,20.9547917 8.935,21.4210417 9.51020833,21.4210417 L11.3114583,21.4210417 Z" id="Path" fill="#AF0000"></path>
                <path d="M12.9289583,15.5266667 L11.1277083,14.2241667 C10.66125,13.886875 10.0102083,13.9920833 9.67333333,14.4579167 C9.33625,14.9239583 9.44083333,15.5752083 9.90708333,15.9122917 L11.7083333,17.2147917 C11.8929167,17.3483333 12.10625,17.4122917 12.3177083,17.4122917 C12.640625,17.4122917 12.9591667,17.2625 13.1627083,16.9810417 C13.4997917,16.515 13.395,15.86375 12.9289583,15.5266667 L12.9289583,15.5266667 Z" id="Path" fill="#AF0000"></path>
                <path d="M11.708125,23.5439583 L9.906875,24.8464583 C9.440625,25.1835417 9.33604167,25.8347917 9.673125,26.3008333 C9.876875,26.5827083 10.1952083,26.7320833 10.518125,26.7320833 C10.7295833,26.7320833 10.943125,26.6679167 11.1275,26.5345833 L12.92875,25.2320833 C13.395,24.895 13.4995833,24.24375 13.1625,23.7777083 C12.825625,23.3114583 12.1745833,23.2066667 11.708125,23.5439583 L11.708125,23.5439583 Z" id="Path" fill="#AF0000"></path>
                <path d="M87.1395833,61.426875 L43.05625,61.426875 C42.4810417,61.426875 42.0145833,61.893125 42.0145833,62.4685417 C42.0145833,63.0439583 42.4810417,63.5102083 43.05625,63.5102083 L87.1395833,63.5102083 C88.431875,63.5102083 89.4833333,64.5616667 89.4833333,65.8539583 L89.4833333,92.0747917 C89.4833333,93.3670833 88.431875,94.4185417 87.1395833,94.4185417 L19.5270833,94.4185417 C18.2347917,94.4185417 17.1833333,93.3670833 17.1833333,92.0747917 L17.1833333,65.8539583 C17.1833333,64.5616667 18.2347917,63.5102083 19.5270833,63.5102083 L35.9375,63.5102083 C36.5127083,63.5102083 36.9791667,63.0439583 36.9791667,62.4685417 L36.9791667,58.6229167 C36.9791667,57.5445833 36.1554167,56.655 35.1041667,56.5502083 L35.1041667,56.4502083 C35.1041667,55.245 36.0845833,54.2645833 37.2897917,54.2645833 L69.3770833,54.2645833 C71.7310417,54.2645833 73.6458333,52.3495833 73.6458333,49.995625 C73.6458333,47.641875 71.7310417,45.7270833 69.3770833,45.7270833 L56.5604167,45.7270833 C55.3554167,45.7270833 54.375,44.7466667 54.375,43.5416667 L54.375,42.3002083 C55.42625,42.1954167 56.25,41.3058333 56.25,40.2275 L56.25,37.4633333 C57.301875,37.3589583 58.12625,36.469375 58.12625,35.3904167 L58.12625,32.2333333 L58.37375,32.2333333 C59.8152083,32.2333333 61.0283333,31.2510417 61.3877083,29.921875 L80.3139583,36.0458333 L80.3139583,36.959375 C80.3139583,38.108125 81.2485417,39.0427083 82.3972917,39.0427083 L87.9370833,39.0427083 C89.0858333,39.0427083 90.0204167,38.108125 90.0204167,36.959375 L90.0204167,10.3745833 C90.0204167,9.79916667 89.5541667,9.33291667 88.97875,9.33291667 C88.4033333,9.33291667 87.9370833,9.79916667 87.9370833,10.3745833 L87.9370833,36.9591667 L82.3972917,36.9591667 L82.3972917,3.29020833 L87.9370833,3.29020833 L87.9370833,3.29104167 C87.9370833,3.86645833 88.4033333,4.33229167 88.97875,4.33229167 C89.5541667,4.33229167 90.0204167,3.865625 90.0204167,3.29020833 C90.0204167,2.14145833 89.0858333,1.206875 87.9370833,1.206875 L82.3972917,1.206875 C81.2485417,1.206875 80.3139583,2.14145833 80.3139583,3.29020833 L80.3139583,4.20375 L61.3875,10.3277083 C61.028125,8.99833333 59.815,8.01625 58.3735417,8.01625 L56.3225,8.01625 L56.3225,1.88916667 C56.3225,1.31375 55.85625,0.8475 55.2808333,0.8475 C54.7054167,0.8475 54.2391667,1.31375 54.2391667,1.88916667 L54.2391667,8.01625 L52.4272917,8.01625 L52.4272917,4.70395833 C52.4272917,4.12854167 51.9608333,3.66229167 51.385625,3.66229167 C50.8104167,3.66229167 50.3439583,4.12854167 50.3439583,4.70395833 L50.3439583,8.01604167 L48.293125,8.01604167 C46.8516667,8.01604167 45.6385417,8.99833333 45.2791667,10.3275 L26.3527083,4.20354167 L26.3527083,3.29 C26.3527083,2.14125 25.418125,1.20666667 24.269375,1.20666667 L18.7297917,1.20666667 C17.5810417,1.20666667 16.6464583,2.14125 16.6464583,3.29 L16.6464583,36.9589583 C16.6464583,38.1077083 17.5810417,39.0422917 18.7297917,39.0422917 L24.2695833,39.0422917 C25.4183333,39.0422917 26.3529167,38.1077083 26.3529167,36.9589583 L26.3529167,36.0454167 L45.279375,29.9214583 C45.63875,31.2508333 46.851875,32.2329167 48.2933333,32.2329167 L48.540625,32.2329167 L48.540625,35.3897917 C48.540625,36.4685417 49.365,37.3583333 50.416875,37.4627083 L50.416875,40.226875 C50.416875,41.3052083 51.240625,42.1947917 52.291875,42.2995833 L52.291875,43.5410417 C52.291875,45.895 54.2066667,47.8097917 56.560625,47.8097917 L69.3772917,47.8097917 C70.5822917,47.8097917 71.5627083,48.7902083 71.5627083,49.9952083 C71.5627083,51.2002083 70.5822917,52.180625 69.3772917,52.180625 L37.2897917,52.180625 C34.9358333,52.180625 33.0208333,54.095625 33.0208333,56.4495833 L33.0208333,56.5495833 C31.9695833,56.654375 31.1458333,57.5439583 31.1458333,58.6222917 L31.1458333,61.42625 L19.5270833,61.42625 C17.0860417,61.42625 15.1,63.4120833 15.1,65.8533333 L15.1,92.0741667 C15.1,94.5152083 17.0860417,96.50125 19.5270833,96.50125 L87.1395833,96.50125 C89.5808333,96.50125 91.5666667,94.5152083 91.5666667,92.0741667 L91.5666667,65.8533333 C91.5666667,63.4129167 89.580625,61.426875 87.1395833,61.426875 Z M18.7297917,36.9591667 L18.7297917,3.29020833 L24.2695833,3.29020833 L24.2708333,36.9591667 L18.7297917,36.9591667 Z M26.3529167,6.39333333 L45.168125,12.48125 L45.168125,27.7679167 L26.3529167,33.8558333 L26.3529167,6.39333333 Z M52.5,37.4735417 L54.1672917,37.4735417 L54.168125,40.2272917 L52.5,40.2272917 L52.5,37.4735417 Z M50.62375,35.3902083 L50.62375,26.3970833 L56.0429167,26.3970833 L56.044375,35.3902083 L50.62375,35.3902083 Z M80.31375,33.8560417 L61.4985417,27.768125 L61.4985417,12.4814583 L80.31375,6.39354167 L80.31375,33.8560417 Z M48.5404167,26.3970833 L48.5404167,30.15 L48.293125,30.15 C47.71875,30.15 47.2514583,29.6827083 47.2514583,29.1083333 L47.2514583,11.1410417 C47.2514583,10.5666667 47.71875,10.099375 48.293125,10.099375 L58.3735417,10.099375 C58.9479167,10.099375 59.4152083,10.5666667 59.4152083,11.1410417 L59.4152083,29.108125 C59.4152083,29.6825 58.9479167,30.1497917 58.3735417,30.1497917 L58.1260417,30.1497917 L58.1260417,26.396875 C58.1260417,25.248125 57.1914583,24.3135417 56.0427083,24.3135417 L50.6235417,24.3135417 C49.475,24.31375 48.5404167,25.2483333 48.5404167,26.3970833 L48.5404167,26.3970833 Z M33.2279167,58.623125 L34.8958333,58.623125 L34.8958333,61.4270833 L33.2285417,61.4270833 L33.2279167,58.623125 Z" id="Shape" stroke="#000000" stroke-width="0.3" fill="#000000"></path>
                <circle id="Oval" fill="#FFFFFF" cx="56.4595833" cy="13.6608333" r="1.16458333"></circle>
                <circle id="Oval" fill="#FFFFFF" cx="56.4595833" cy="17.1839583" r="1.16458333"></circle>
                <path d="M57.6241667,20.706875 C57.6241667,21.35 57.1027083,21.8714583 56.4595833,21.8714583 C55.8164583,21.8714583 55.295,21.35 55.295,20.706875 C55.295,20.06375 55.8164583,19.5422917 56.4595833,19.5422917 C57.1027083,19.5422917 57.6241667,20.06375 57.6241667,20.706875" id="Path" fill="#FFFFFF"></path>
                <path d="M82.6404167,52.0775 C82.3739583,52.0775 82.1070833,51.9758333 81.9039583,51.7722917 C81.4970833,51.365625 81.4970833,50.7060417 81.9039583,50.299375 L83.9872917,48.2160417 C84.39375,47.8091667 85.05375,47.8091667 85.4602083,48.2160417 C85.8670833,48.6227083 85.8670833,49.2822917 85.4602083,49.6889583 L83.376875,51.7722917 C83.1735417,51.975625 82.906875,52.0775 82.6404167,52.0775 L82.6404167,52.0775 Z" id="Path" fill="#FF7C82"></path>
                <path d="M41.0229167,4.331875 C40.75625,4.331875 40.4897917,4.23020833 40.28625,4.02666667 C39.879375,3.62 39.879375,2.96041667 40.28625,2.55375 L42.3695833,0.470416667 C42.7764583,0.0635416667 43.4358333,0.0635416667 43.8427083,0.470416667 C44.2495833,0.877083333 44.2495833,1.53666667 43.8427083,1.94333333 L41.759375,4.02666667 C41.5560417,4.23020833 41.2895833,4.331875 41.0229167,4.331875 Z" id="Path" fill="#DC9191"></path>
                <path d="M16.1983333,55.2670833 C15.9316667,55.2670833 15.6652083,55.1654167 15.4616667,54.961875 L14.115,53.6152083 L12.7683333,54.961875 C12.3614583,55.36875 11.7020833,55.36875 11.2952083,54.961875 C10.8883333,54.5552083 10.8883333,53.895625 11.2952083,53.4889583 L13.3785417,51.405625 C13.7854167,50.99875 14.4447917,50.99875 14.8516667,51.405625 L16.935,53.4889583 C17.341875,53.895625 17.341875,54.5552083 16.935,54.961875 C16.7314583,55.1654167 16.465,55.2670833 16.1983333,55.2670833 Z" id="Path" fill="#DC8282"></path>
                <path d="M38.5722917,43.466875 C38.305625,43.466875 38.0391667,43.3652083 37.835625,43.1616667 L36.4889583,41.815 L35.1422917,43.1616667 C34.7354167,43.5685417 34.0760417,43.5685417 33.6691667,43.1616667 C33.2622917,42.755 33.2622917,42.0954167 33.6691667,41.68875 L35.7525,39.6054167 C36.159375,39.1985417 36.81875,39.1985417 37.225625,39.6054167 L39.3089583,41.68875 C39.7158333,42.0954167 39.7158333,42.755 39.3089583,43.1616667 C39.1054167,43.3652083 38.8389583,43.466875 38.5722917,43.466875 Z" id="Path" fill="#FFB7BA"></path>
                <path d="M96.1947917,58.7789583 C95.9283333,58.7789583 95.6614583,58.6772917 95.4583333,58.47375 L94.1114583,57.1270833 L92.7645833,58.47375 C92.358125,58.880625 91.698125,58.880625 91.2916667,58.47375 C90.8847917,58.0670833 90.8847917,57.4075 91.2916667,57.0008333 L93.375,54.9175 C93.7814583,54.510625 94.4414583,54.510625 94.8479167,54.9175 L96.93125,57.0008333 C97.338125,57.4075 97.338125,58.0670833 96.93125,58.47375 C96.728125,58.6770833 96.4614583,58.7789583 96.1947917,58.7789583 Z" id="Path" fill="#AF0000"></path>
            </g>
        </g>
    </g>
</svg>