<?xml version="1.0" encoding="UTF-8"?>
<svg width="126px" height="118px" viewBox="0 0 126 118" version="1.1" xmlns="http://www.w3.org/2000/svg" xmlns:xlink="http://www.w3.org/1999/xlink">
    <!-- Generator: Sketch 63.1 (92452) - https://sketch.com -->
    <title>targeted_segmentation</title>
    <desc>Created with Sketch.</desc>
    <g id="Page-1" stroke="none" stroke-width="1" fill="none" fill-rule="evenodd">
        <g id="targeted_segmentation" transform="translate(-4.000000, -6.000000)" fill-rule="nonzero">
            <g id="Group-18">
                <path d="M112.643425,14.3982323 C122.764992,23.5001537 127.664128,38.2377854 125.624894,50.6812342 C123.585659,63.1246829 114.632922,73.2240752 107.943239,84.4954957 C101.253555,95.7669162 96.8766613,108.235302 87.0783883,116.489373 C77.2552467,124.743444 61.9858568,128.808138 49.6509752,124.46914 C37.2912248,120.130141 27.8659825,107.412388 20.2561563,93.7969113 C12.6214614,80.1814343 6.85192,65.7181071 8.1948305,51.5540211 C9.56260972,37.3899352 18.0925783,23.5250905 29.8803483,14.7224103 C41.6681183,5.91973015 56.7634271,2.17921449 71.9582108,2.0046571 C87.1778632,1.85503647 102.521859,5.29631087 112.643425,14.3982323 Z" id="Path" fill="#FFCCCD" opacity="0.300000012" transform="translate(67.040001, 64.115001) rotate(-94.000000) translate(-67.040001, -64.115001) "></path>
                <g id="positive-comment" transform="translate(9.000000, 15.000000)">
                    <path d="M60.6987795,31.981901 L3.73778796,31.981901 C1.98515798,31.981901 0.550999988,33.418127 0.550999988,35.1736522 L0.550999988,80.8115166 C0.550999988,82.5664214 1.98515798,84.0028542 3.73778796,84.0028542 L14.2002135,84.0028542 L14.2002135,96.5965605 C14.2002135,98.3514652 15.2145675,98.7716828 16.4535063,97.5312965 L29.9643706,84.0028542 L73.8553954,84.0028542 C75.6078186,84.0028542 77.0423902,82.5666282 77.0423902,80.8115166 L77.0423902,48.3428828 C68.9068782,46.5284197 62.5047639,40.1205149 60.6987795,31.981901 Z" id="Path" fill="#D03D39"></path>
                    <path d="M87.0423902,56.9754675 C86.1856178,56.9754675 85.4913902,57.6696951 85.4913902,58.5264675 L85.4913902,76.8113098 C85.4913902,77.7156462 84.757457,78.4516474 83.8553954,78.4516474 L52.6347997,78.4516474 C51.7782341,78.4516474 51.0837997,79.145875 51.0837997,80.0026474 C51.0837997,80.8594198 51.7782341,81.5536474 52.6347997,81.5536474 L83.8553954,81.5536474 C86.4678998,81.5536474 88.5933902,79.4262958 88.5933902,76.8113098 L88.5933902,58.5264675 C88.5933902,57.6696951 87.8989558,56.9754675 87.0423902,56.9754675 Z" id="Path" fill="#000000"></path>
                    <path d="M26.6334223,46.3163752 L70.9605883,46.3163752 C71.8173607,46.3163752 72.5115883,45.6221476 72.5115883,44.7653752 C72.5115883,43.9086029 71.8173607,43.2143753 70.9605883,43.2143753 L26.6334223,43.2143753 C25.7768567,43.2143753 25.0824223,43.9086029 25.0824223,44.7653752 C25.0824223,45.6219408 25.7766499,46.3163752 26.6334223,46.3163752 Z" id="Path" fill="#000000"></path>
                    <path d="M26.6334223,55.6602196 L70.9605883,55.6602196 C71.8173607,55.6602196 72.5115883,54.965992 72.5115883,54.1092196 C72.5115883,53.2524472 71.8173607,52.5582196 70.9605883,52.5582196 L26.6334223,52.5582196 C25.7768567,52.5582196 25.0824223,53.2524472 25.0824223,54.1092196 C25.0824223,54.965992 25.7766499,55.6602196 26.6334223,55.6602196 Z" id="Path" fill="#000000"></path>
                    <path d="M26.6334223,65.0050979 L50.0307741,65.0050979 C50.8873397,65.0050979 51.5817741,64.3108703 51.5817741,63.4540979 C51.5817741,62.5973255 50.8873397,61.9030979 50.0307741,61.9030979 L26.6334223,61.9030979 C25.7768567,61.9030979 25.0824223,62.5973255 25.0824223,63.4540979 C25.0824223,64.3106635 25.7766499,65.0050979 26.6334223,65.0050979 Z" id="Path" fill="#000000"></path>
                    <path d="M91.7578437,0.164405999 C79.007383,0.164405999 68.6340883,10.5374939 68.6340883,23.2877478 C68.6340883,24.3540086 68.7081227,25.403105 68.8485399,26.430901 L13.737788,26.430901 C11.1252836,26.430901 9,28.5586662 9,31.1734454 L9,76.8113098 C9,79.4262958 11.1252836,81.5536474 13.737788,81.5536474 L22.6492135,81.5536474 L22.6492135,92.5963537 C22.6492135,94.6440872 23.6643947,95.3699552 24.2694915,95.62039 C24.4564387,95.6975264 24.7629163,95.7907932 25.1541819,95.7907932 C25.7814063,95.7907932 26.6274251,95.5517324 27.5509939,94.6271296 L40.6075185,81.5534406 L45.1899997,81.5534406 C46.0465653,81.5534406 46.7409997,80.859213 46.7409997,80.0024406 C46.7409997,79.1456682 46.0465653,78.4514406 45.1899997,78.4514406 L39.9645774,78.4514406 C39.5528386,78.4514406 39.1580574,78.6150194 38.8670898,78.9066074 L25.7512135,92.0392345 L25.7512135,80.0024406 C25.7512135,79.1456682 25.0567791,78.4514406 24.2002135,78.4514406 L13.737788,78.4514406 C12.8357264,78.4514406 12.102,77.7154394 12.102,76.811103 L12.102,31.1734454 C12.102,30.2686954 12.8357264,29.5326942 13.737788,29.5326942 L69.4914811,29.5326942 C71.6628811,37.2651529 77.7624471,43.3700957 85.4913902,45.5487336 L85.4913902,51.2882608 C85.4913902,52.1450332 86.1856178,52.8392608 87.0423902,52.8392608 C87.8991626,52.8392608 88.5933902,52.1450332 88.5933902,51.2882608 L88.5933902,46.19457 C89.6284242,46.3368484 90.684345,46.4119168 91.7578437,46.4119168 C104.508304,46.4119168 114.881599,36.0384153 114.881599,23.287541 C114.881599,10.5374939 104.508304,0.164405999 91.7578437,0.164405999 Z M91.7578437,43.3101237 C80.717619,43.3101237 71.7360883,34.3279725 71.7360883,23.2877478 C71.7360883,12.2481435 80.7178258,3.26640597 91.7578437,3.26640597 C102.798068,3.26640597 111.779599,12.2481435 111.779599,23.2877478 C111.779599,34.3279725 102.797862,43.3101237 91.7578437,43.3101237 Z" id="Shape" fill="#000000"></path>
                    <path d="M97.9804557,28.9596514 C94.5492301,32.3604773 88.9660438,32.3604773 85.5348182,28.9596514 C84.9266194,28.3566226 83.944733,28.3609654 83.3414974,28.969371 C82.7384686,29.5775698 82.7428114,30.5598698 83.3514238,31.1628986 C85.6690314,33.4598261 88.7133342,34.6086001 91.7576369,34.6086001 C94.8021465,34.6086001 97.8462425,33.4598261 100.16385,31.1628986 C100.772256,30.5598698 100.776805,29.5775698 100.173776,28.969371 C99.5709545,28.3611722 98.5888613,28.3566226 97.9804557,28.9596514 Z" id="Path" fill="#000000"></path>
                    <path d="M100.640317,16.2786755 C97.7442901,16.2786755 95.3884245,18.6119999 95.3884245,21.480109 C95.3884245,22.3368814 96.0826521,23.031109 96.9394245,23.031109 C97.7961969,23.031109 98.4904245,22.3368814 98.4904245,21.480109 C98.4904245,20.3224426 99.4549397,19.3806754 100.640317,19.3806754 C101.825695,19.3806754 102.79021,20.3226494 102.79021,21.480109 C102.79021,22.3368814 103.484438,23.031109 104.34121,23.031109 C105.197982,23.031109 105.89221,22.3368814 105.89221,21.480109 C105.892003,18.6119999 103.536138,16.2786755 100.640317,16.2786755 Z" id="Path" fill="#000000"></path>
                    <path d="M85.0254698,21.480109 C85.0254698,22.3368814 85.7199042,23.031109 86.5764698,23.031109 C87.4332422,23.031109 88.1274698,22.3368814 88.1274698,21.480109 C88.1274698,18.6119999 85.7713974,16.2786755 82.8753702,16.2786755 C79.9795498,16.2786755 77.6234775,18.6119999 77.6234775,21.480109 C77.6234775,22.3368814 78.317705,23.031109 79.1744774,23.031109 C80.0312498,23.031109 80.7254774,22.3368814 80.7254774,21.480109 C80.7254774,20.3224426 81.6897858,19.3806754 82.8753702,19.3806754 C84.0609546,19.3806754 85.0254698,20.3224426 85.0254698,21.480109 Z" id="Path" fill="#000000"></path>
                    <path d="M11.585,20.5002906 L39.3995998,20.5002906 C40.2561654,20.5002906 40.9505997,19.806063 40.9505997,18.9492906 C40.9505997,18.0925183 40.2561654,17.3982907 39.3995998,17.3982907 L12.102,17.3982907 L12.102,6.13823755 L52.0452129,6.13823755 L52.0452129,17.3982907 L46.8443997,17.3982907 C45.9878341,17.3982907 45.2933997,18.0925183 45.2933997,18.9492906 C45.2933997,19.806063 45.9878341,20.5002906 46.8443997,20.5002906 L52.5622129,20.5002906 C53.9876852,20.5002906 55.1472128,19.340763 55.1472128,17.9152907 L55.1472128,5.62123756 C55.1472128,4.19597197 53.9876852,3.03623758 52.5622129,3.03623758 L11.585,3.03623758 C10.1595276,3.03623758 9,4.19597197 9,5.62123756 L9,17.9152907 C9,19.3405562 10.1595276,20.5002906 11.585,20.5002906 Z" id="Path" fill="#000000"></path>
                    <path d="M46.5877609,11.7677471 C46.5877609,10.9109747 45.8933265,10.2167471 45.0367609,10.2167471 L17.7885863,10.2167471 C16.9320207,10.2167471 16.2375863,10.9109747 16.2375863,11.7677471 C16.2375863,12.6245195 16.9320207,13.3187471 17.7885863,13.3187471 L45.0367609,13.3187471 C45.8933265,13.3187471 46.5877609,12.6245195 46.5877609,11.7677471 Z" id="Path" fill="#000000"></path>
                </g>
            </g>
        </g>
    </g>
</svg>