<?xml version="1.0" encoding="UTF-8"?>
<svg width="126px" height="118px" viewBox="0 0 126 118" version="1.1" xmlns="http://www.w3.org/2000/svg" xmlns:xlink="http://www.w3.org/1999/xlink">
    <!-- Generator: Sketch 63.1 (92452) - https://sketch.com -->
    <title>unified_customer_view</title>
    <desc>Created with Sketch.</desc>
    <g id="Page-1" stroke="none" stroke-width="1" fill="none" fill-rule="evenodd">
        <g id="unified_customer_view" transform="translate(-4.000000, -6.000000)" fill-rule="nonzero">
            <path d="M112.643425,14.3982323 C122.764992,23.5001537 127.664128,38.2377854 125.624894,50.6812342 C123.585659,63.1246829 114.632922,73.2240752 107.943239,84.4954957 C101.253555,95.7669162 96.8766613,108.235302 87.0783883,116.489373 C77.2552467,124.743444 61.9858568,128.808138 49.6509752,124.46914 C37.2912248,120.130141 27.8659825,107.412388 20.2561563,93.7969113 C12.6214614,80.1814343 6.85192,65.7181071 8.1948305,51.5540211 C9.56260972,37.3899352 18.0925783,23.5250905 29.8803483,14.7224103 C41.6681183,5.91973015 56.7634271,2.17921449 71.9582108,2.0046571 C87.1778632,1.85503647 102.521859,5.29631087 112.643425,14.3982323 Z" id="Path" fill="#FFCCCD" opacity="0.300000012" transform="translate(67.040001, 64.115001) rotate(-94.000000) translate(-67.040001, -64.115001) "></path>
            <g id="multiple-devices" transform="translate(11.611027, 17.533490)">
                <path d="M76.5390065,32.5226029 L76.5390065,51.8538046 C76.5390065,59.0734053 71.447006,65.1132058 64.6208054,66.666006 L64.6208054,71.3238064 L78.9948067,71.3238064 C83.2430071,71.3238064 86.6998074,74.7366067 86.6998074,78.9312071 L86.6998074,83.8796075 L97.7844084,83.8796075 L97.7844084,32.9262028 C97.7844084,31.8262028 96.8844083,30.9262028 95.7844082,30.9262028 L76.4594065,30.9262028 C76.5116065,31.4386028 76.5390065,31.9702029 76.5390065,32.5226029 Z" id="Path" fill="#FFFFFF"></path>
                <polygon id="Path" fill="#FFFFFF" points="12.6154008 65.9238059 18.4428013 65.9238059 18.4428013 83.8796075 12.6154008 83.8796075"></polygon>
                <path d="M76.5390065,51.8540046 C76.5390065,59.0736053 71.447006,65.1134058 64.6208054,66.666206 L64.6208054,71.3240064 L78.9948067,71.3240064 C83.2430071,71.3240064 86.6998074,74.7368067 86.6998074,78.9314071 L86.6998074,83.8798075 L91.9570079,83.8798075 L91.9570079,37.7890033 C91.9570079,37.2390033 91.5070078,36.7890033 90.9570078,36.7890033 L76.5388065,36.7890033 L76.5388065,51.8540046 L76.5390065,51.8540046 Z" id="Path" fill="#FFFFFF"></path>
                <path d="M31.5634025,78.9312071 C31.5634025,74.7366067 35.0204028,71.3238064 39.2690032,71.3238064 L53.6426044,71.3238064 L53.6426044,66.669006 C48.631404,65.5288059 44.5568036,61.9680055 42.7440035,57.2984051 L42.7440035,63.2474057 C42.7440035,64.7196058 41.5430034,65.9240059 40.0752032,65.9240059 L18.4428013,65.9240059 L18.4428013,83.8798075 L31.5636025,83.8798075 L31.5636025,78.9312071 L31.5634025,78.9312071 Z" id="Path" fill="#FFFFFF"></path>
                <polygon id="Path" fill="#FFFFFF" points="18.4428013 65.9238059 24.6856018 65.9238059 24.6856018 83.8796075 18.4428013 83.8796075"></polygon>
                <path d="M84.7000074,84.8796075 L84.7000074,79.9312071 C84.7000074,75.7366067 81.2432071,72.3238064 76.9950067,72.3238064 L62.6210054,72.3238064 L62.6210054,73.2684065 C62.6210054,76.3138067 60.1632052,78.782007 57.1320049,78.782007 C54.1004047,78.782007 51.6430044,76.3136067 51.6430044,73.2684065 L51.6430044,72.3238064 L37.2694032,72.3238064 C33.0208028,72.3238064 29.5638025,75.7366067 29.5638025,79.9312071 L29.5638025,84.8796075 L84.7000074,84.8796075 Z" id="Path" fill="#D03D39"></path>
                <path d="M104.900009,89.527808 C104.900009,90.6278081 104,91.5278082 102.900009,91.5278082 L7.50000013,91.5278082 C6.40000021,91.5278082 5.50000013,90.6278081 5.50000013,89.527808 L5.50000013,85.8798075 C5.50000013,84.7798076 6.40000021,83.8798075 7.50000013,83.8798075 L102.900009,83.8798075 C104,83.8798075 104.900009,84.7798076 104.900009,85.8798075 L104.900009,89.527808 Z" id="Path" fill="#FFFFFF"></path>
                <path d="M13.6000009,89.527808 L13.6000009,85.8798075 C13.6000009,84.7798076 14.5000001,83.8798075 15.600001,83.8798075 L7.50000013,83.8798075 C6.40000021,83.8798075 5.50000013,84.7798076 5.50000013,85.8798075 L5.50000013,89.527808 C5.50000013,90.6278081 6.40000021,91.5278082 7.50000013,91.5278082 L15.600001,91.5278082 C14.5000001,91.5278082 13.6000009,90.6278081 13.6000009,89.527808 Z" id="Path" fill="#FFFFFF"></path>
                <path d="M35.7442035,11.3118007 L35.7442035,62.6618052 L0.700000331,62.6618052 L0.700000331,11.3118007 L35.7442035,11.3118007 Z M18.2220019,18.8722013 C14.3256015,18.8722013 11.1656013,21.9844016 11.1656013,25.823002 C11.1656013,28.1419147 12.3190562,30.1958247 14.0914864,31.4585003 L14.2030015,31.5348025 L14.2030015,31.5348025 C10.0274012,33.1270026 7.0530009,37.120803 7.04579923,41.7868034 C7.0454009,41.9646034 7.1168009,42.1344034 7.24400092,42.2598034 C7.37100093,42.3852034 7.54380094,42.4558034 7.72360096,42.4558034 L28.7200028,42.4558034 C28.9000029,42.4558034 29.0724029,42.3850034 29.1996029,42.2598034 C29.3268029,42.1344034 29.3978033,41.9644034 29.3978033,41.7868034 C29.3908029,37.120803 26.4164026,33.1270026 22.2406023,31.5348025 L22.3526908,31.4585003 C24.1250936,30.1958247 25.2784025,28.1419147 25.2784025,25.823002 C25.2784025,21.9844016 22.1188022,18.8722013 18.2220019,18.8722013 Z" id="Combined-Shape" fill="#D03D39"></path>
                <path d="M58.6284049,50.3652045 L60.7314051,50.3652045 C61.5598051,50.3652045 62.2314052,49.6938044 62.2314052,48.8652044 C62.2314052,48.0366043 61.5598051,47.3652042 60.7314051,47.3652042 L59.1476047,47.3652042 L59.1476047,43.9020038 C59.1476047,43.0734039 58.4762049,42.4020038 57.6476047,42.4020038 C56.8190047,42.4020038 56.1476047,43.0734039 56.1476047,43.9020038 L56.1476047,47.8974043 C56.1474047,49.2582044 57.2604048,50.3652045 58.6284049,50.3652045 Z" id="Path" fill="#000000"></path>
                <path d="M49.806804,47.5746043 C50.6354042,47.5746043 51.306804,46.9032042 51.306804,46.0746041 L51.306804,42.5754037 C51.306804,41.7468037 50.6354042,41.0754037 49.806804,41.0754037 C48.978204,41.0754037 48.306804,41.7468037 48.306804,42.5754037 L48.306804,46.0746041 C48.306804,46.9032042 48.978404,47.5746043 49.806804,47.5746043 Z" id="Path" fill="#000000"></path>
                <path d="M68.4566056,47.5746043 C69.2852058,47.5746043 69.9566056,46.9032042 69.9566056,46.0746041 L69.9566056,42.5754037 C69.9566056,41.7468037 69.2852058,41.0754037 68.4566056,41.0754037 C67.6280057,41.0754037 66.9566056,41.7468037 66.9566056,42.5754037 L66.9566056,46.0746041 C66.9566056,46.9032042 67.6282057,47.5746043 68.4566056,47.5746043 Z" id="Path" fill="#000000"></path>
                <path d="M59.1318049,62.8332056 C63.1940053,62.8332056 66.4990056,59.5164053 66.4990056,55.439405 C66.4990056,54.2372048 65.5224055,53.2594048 64.3220054,53.2594048 L53.9416045,53.2594048 C52.7412044,53.2594048 51.7646043,54.2374048 51.7646043,55.439405 C51.7646043,59.5164053 55.0696046,62.8332056 59.1318049,62.8332056 L59.1318049,62.8332056 Z M63.4228053,56.259405 C63.0400053,58.2918052 61.2614051,59.8332053 59.1318049,59.8332053 C57.0022047,59.8332053 55.2236046,58.2918052 54.8408045,56.259405 L63.4228053,56.259405 Z" id="Shape" fill="#000000"></path>
                <path d="M102.900009,82.3796074 L99.2846085,82.3796074 L99.2846085,32.9262029 C99.2846085,30.9962028 97.7144084,29.4262026 95.7846082,29.4262026 L77.7502066,29.4262026 C76.3362065,22.135802 69.7284059,18.0238016 59.1320049,18.0238016 C52.5156043,18.0238016 47.4572039,19.6292018 44.2442036,22.608402 L44.2442036,4.34840039 C44.2442036,2.04560018 42.3740034,0.172200015 40.0754032,0.172200015 L10.3688006,0.172200015 C8.07020036,0.172200015 6.2000002,2.04580018 6.2000002,4.34840039 L6.2000002,63.2472057 C6.2000002,65.5502059 8.07020036,67.423806 10.3688006,67.423806 L11.1154006,67.423806 L11.1154006,82.3796074 L7.5,82.3796074 C5.57020014,82.3796074 4,83.9498075 4,85.8796077 L4,89.527608 C4,91.4574082 5.57020014,93.0276083 7.5,93.0276083 L102.900009,93.0276083 C104.829809,93.0276083 106.400009,91.4574082 106.400009,89.527608 L106.400009,85.8796077 C106.400009,83.9498075 104.829809,82.3796074 102.900009,82.3796074 Z M78.9120067,55.584005 C81.5030069,55.584005 83.6110071,53.5070048 83.6110071,50.9540046 L83.6110071,47.1654042 C83.6110071,44.612604 81.5030069,42.5358038 78.9120067,42.5358038 L78.0392066,42.5358038 L78.0392066,38.2894034 L90.4574077,38.2894034 L90.4574077,46.0000041 C90.4574077,46.8286042 91.1288078,47.5000042 91.9574079,47.5000042 C92.7860079,47.5000042 93.457408,46.8286042 93.457408,46.0000041 L93.457408,37.7894034 C93.457408,36.4108033 92.3360079,35.2894032 90.9574078,35.2894032 L78.0392066,35.2894032 L78.0392066,32.5230029 C78.0392066,32.4904029 78.0370066,32.4590029 78.0368066,32.4266029 L95.7846082,32.4266029 C96.0556082,32.4266029 96.2846083,32.6556029 96.2846083,32.9266029 L96.2846083,82.3802074 L93.457208,82.3802074 L93.457208,53.0000047 C93.457208,52.1714047 92.7858079,51.5000046 91.9572079,51.5000046 C91.1286078,51.5000046 90.4572077,52.1714047 90.4572077,53.0000047 L90.4572077,82.3796074 L88.2000075,82.3796074 L88.2000075,78.9312071 C88.2000075,73.9094066 84.0706072,69.8238062 78.9950067,69.8238062 L76.8000065,69.8238062 C75.9714064,69.8238062 75.3000064,70.4952063 75.3000064,71.3238064 C75.3000064,72.1524065 75.9714064,72.8238065 76.8000065,72.8238065 L78.9950067,72.8238065 C82.416407,72.8238065 85.2000073,75.5636068 85.2000073,78.9312071 L85.2000073,82.3796074 L33.0634026,82.3796074 L33.0634026,78.9312071 C33.0634026,75.5636068 35.8472028,72.8238065 39.2690032,72.8238065 L52.1666043,72.8238065 C52.4498043,76.4322068 55.4644046,79.2820071 59.1316049,79.2820071 C62.7988053,79.2820071 65.8134055,76.4322068 66.0966056,72.8238065 L69.8000059,72.8238065 C70.628606,72.8238065 71.300006,72.1524065 71.300006,71.3238064 C71.300006,70.4952063 70.628606,69.8238062 69.8000059,69.8238062 L66.1208056,69.8238062 L66.1208056,67.8200061 C71.8360061,66.0774059 76.2618065,61.4054055 77.6092066,55.583805 L78.9120067,55.583805 L78.9120067,55.584005 Z M78.0204066,52.5840047 C78.0310066,52.3418047 78.0392066,52.0988047 78.0392066,51.8540046 L78.0392066,45.5356041 L78.9120067,45.5356041 C79.8490068,45.5356041 80.6110068,46.2666041 80.6110068,47.1652042 L80.6110068,50.9538046 C80.6110068,51.8526046 79.8488068,52.5838047 78.9120067,52.5838047 L78.0204066,52.5838047 L78.0204066,52.5840047 Z M55.1428046,72.2684065 L55.1428046,68.4430061 C55.7864046,68.5172061 56.4402047,68.5574061 57.1038047,68.5574061 L61.1600051,68.5574061 C61.8234052,68.5574061 62.4770052,68.5152061 63.1210053,68.4410061 L63.1210053,72.2684065 C63.1210053,74.4814067 61.3316051,76.2820068 59.1320049,76.2820068 C56.9322047,76.2820068 55.1428046,74.4814067 55.1428046,72.2684065 Z M44.2442036,27.5762025 C44.9818037,26.0204023 46.1150038,24.7316022 47.6458039,23.7274021 C50.3422041,21.958802 54.3140045,21.0238019 59.1322049,21.0238019 C63.9500054,21.0238019 67.9218057,21.958802 70.618206,23.7274021 C73.5518062,25.6518023 75.0392064,28.6110026 75.0392064,32.5228029 L75.0392064,32.9184029 C71.9314061,29.2602026 66.4964056,27.2722024 59.1322049,27.2722024 C52.5158043,27.2722024 47.4574039,28.8776026 44.2442036,31.8568028 L44.2442036,27.5762025 L44.2442036,27.5762025 Z M44.2442036,36.8242033 C44.9818037,35.2684032 46.1150038,33.979603 47.6458039,32.9754029 C50.3422041,31.2068028 54.3140045,30.2718027 59.1322049,30.2718027 C63.9500054,30.2718027 67.9218057,31.2068028 70.618206,32.9754029 C73.5518062,34.8998031 75.0392064,37.8590034 75.0392064,41.7708037 L75.0392064,51.8540046 C75.0392064,59.4100053 68.8130058,65.5576059 61.1600051,65.5576059 L57.1038047,65.5576059 C51.2940042,65.5576059 46.3098038,62.0134055 44.2442036,57.0014051 L44.2442036,36.8242033 Z M44.2442036,63.2472057 L44.2442036,62.6566056 C46.3034038,65.0538058 49.032204,66.871006 52.1428043,67.8198061 L52.1428043,69.8238062 L39.2692032,69.8238062 C34.1932027,69.8238062 30.0636023,73.9094066 30.0636023,78.9312071 L30.0636023,82.3796074 L19.9428014,82.3796074 L19.9428014,67.423806 L40.0754032,67.423806 C42.3740034,67.423806 44.2442036,65.5502059 44.2442036,63.2472057 Z M9.20000046,8.81180079 L31.0000024,8.81180079 C31.8286025,8.81180079 32.5000025,8.14040073 32.5000025,7.31180065 C32.5000025,6.48320058 31.8286025,5.81180052 31.0000024,5.81180052 L9.20000046,5.81180052 L9.20000046,4.34860039 C9.20000046,3.70000033 9.72420051,3.17240028 10.3688006,3.17240028 L40.0754032,3.17240028 C40.7200033,3.17240028 41.2442033,3.70000033 41.2442033,4.34860039 L41.2442033,5.81180052 L38.2000005,5.81180052 C37.371403,5.81180052 36.7000005,6.48320058 36.7000005,7.31180065 C36.7000005,8.14040073 37.371403,8.81180079 38.2000005,8.81180079 L41.2442033,8.81180079 L41.2442033,57.1618051 L9.20000046,57.1618051 L9.20000046,8.81180079 Z M10.3688006,64.4238058 C9.72420051,64.4238058 9.20000046,63.8960057 9.20000046,63.2472057 L9.20000046,60.1616054 L41.2442033,60.1616054 L41.2442033,63.2472057 C41.2442033,63.8960057 40.7200033,64.4238058 40.0754032,64.4238058 L10.3688006,64.4238058 Z M16.9428012,67.423806 L16.9428012,82.3796074 L14.1154009,82.3796074 L14.1154009,67.423806 L16.9428012,67.423806 Z M103.400009,89.527808 C103.400009,89.798808 103.171009,90.027808 102.900009,90.027808 L7.50000027,90.027808 C7.22900029,90.027808 7.00000027,89.798808 7.00000027,89.527808 L7.00000027,85.8798076 C7.00000027,85.6088077 7.22900029,85.3798076 7.50000027,85.3798076 L102.900009,85.3798076 C103.171009,85.3798076 103.400009,85.6088077 103.400009,85.8798076 L103.400009,89.527808 Z" id="Shape" fill="#000000"></path>
                <path d="M31.8540025,27.1546024 C33.0560026,25.6994023 33.7782027,23.8430021 33.7782027,21.823002 C33.7782027,17.1632015 29.9398023,13.3722012 25.2218019,13.3722012 C20.5038015,13.3722012 16.6654011,17.1632015 16.6654011,21.823002 C16.6654011,23.8434021 17.3878012,25.6994023 18.5896013,27.1548024 C14.973601,29.3562026 12.5528008,33.295203 12.5457945,37.7834034 C12.5444008,38.3594034 12.7796008,38.9222035 13.1900008,39.3270035 C13.6006009,39.7324036 14.1452009,39.9560036 14.723801,39.9560036 L35.7202028,39.9560036 C36.2974029,39.9560036 36.8414029,39.7332036 37.253003,39.3278035 C37.663603,38.9232035 37.898803,38.3608034 37.8982042,37.7844034 C37.891003,33.295403 35.4704028,29.3562026 31.8540025,27.1546024 L31.8540025,27.1546024 Z M25.2218019,16.3722015 C28.2856022,16.3722015 30.7782024,18.8174017 30.7782024,21.823002 C30.7782024,24.8282022 28.2856022,27.2734024 25.2218019,27.2734024 C22.1580016,27.2734024 19.6654014,24.8282022 19.6654014,21.823002 C19.6654014,18.8174017 22.1580016,16.3722015 25.2218019,16.3722015 L25.2218019,16.3722015 Z M15.584001,36.9558033 C15.8938011,33.533403 18.0594013,30.6270027 21.0806015,29.2144026 C22.3086016,29.8882027 23.7202018,30.2734027 25.2218019,30.2734027 C26.723402,30.2734027 28.1350022,29.8882027 29.3632023,29.2144026 C32.3846025,30.6270027 34.5506027,33.533203 34.8598028,36.9558033 L15.584001,36.9558033 Z" id="Shape" fill="#000000"></path>
                <path d="M32.7220011,43.3722039 L17.7220011,43.3722039 C16.8934012,43.3722039 16.2220011,44.0436039 16.2220011,44.8722039 C16.2220011,45.7008041 16.8934012,46.3722039 17.7220011,46.3722039 L32.7220011,46.3722039 C33.5506026,46.3722039 34.2220011,45.7008041 34.2220011,44.8722039 C34.2220011,44.0438039 33.5506026,43.3722039 32.7220011,43.3722039 Z" id="Path" fill="#000000"></path>
                <path d="M29.7220014,48.7722044 L20.7220014,48.7722044 C19.8934014,48.7722044 19.2220014,49.4438044 19.2220014,50.2722044 C19.2220014,51.1008046 19.8934014,51.7722044 20.7220014,51.7722044 L29.7220014,51.7722044 C30.5506024,51.7722044 31.2220014,51.1008046 31.2220014,50.2722044 C31.2220014,49.4438044 30.5506024,48.7722044 29.7220014,48.7722044 Z" id="Path" fill="#000000"></path>
            </g>
        </g>
    </g>
</svg>