<?xml version="1.0" encoding="UTF-8"?>
<svg width="85px" height="66px" viewBox="0 0 85 66" version="1.1" xmlns="http://www.w3.org/2000/svg" xmlns:xlink="http://www.w3.org/1999/xlink">
    <!-- Generator: Sketch 52.5 (67469) - http://www.bohemiancoding.com/sketch -->
    <title>10</title>
    <desc>Created with Sketch.</desc>
    <g id="desktop" stroke="none" stroke-width="1" fill="none" fill-rule="evenodd" opacity="0.118977865">
        <g id="aws" transform="translate(-241.000000, -4316.000000)" fill="#000000">
            <g id="Group-13" transform="translate(-91.000000, 958.000000)">
                <g id="Group-22" transform="translate(332.000000, 3358.000000)">
                    <g id="Group-12">
                        <path d="M10.065,66 L10.065,13.71 L0.525,13.71 L0.525,2.1 L23.025,2.1 L23.025,66 L10.065,66 Z M36.435,33.24 C36.435,11.4598911 44.5199192,0.57 60.69,0.57 C76.8600809,0.57 84.945,11.4448913 84.945,33.195 C84.945,54.9451088 76.8600809,65.82 60.69,65.82 C44.5199192,65.82 36.435,54.9601086 36.435,33.24 Z M66.045,13.44 C64.5449925,12.6599961 62.7750102,12.27 60.735,12.27 C58.6949898,12.27 56.9250075,12.6599961 55.425,13.44 C53.9249925,14.2200039 52.7700041,15.209994 51.96,16.41 C51.149996,17.610006 50.5050024,19.1849903 50.025,21.135 C49.5449976,23.0850098 49.2300008,24.959991 49.08,26.76 C48.9299993,28.560009 48.855,30.6899877 48.855,33.15 C48.855,35.6100123 48.9299993,37.739991 49.08,39.54 C49.2300008,41.340009 49.5449976,43.2149903 50.025,45.165 C50.5050024,47.1150098 51.149996,48.7049939 51.96,49.935 C52.7700041,51.1650062 53.9249925,52.1699961 55.425,52.95 C56.9250075,53.7300039 58.6949898,54.12 60.735,54.12 C62.7750102,54.12 64.5449925,53.7300039 66.045,52.95 C67.5450075,52.1699961 68.699996,51.1650062 69.51,49.935 C70.3200041,48.7049939 70.9649976,47.1150098 71.445,45.165 C71.9250024,43.2149903 72.2399993,41.340009 72.39,39.54 C72.5400008,37.739991 72.615,35.6100123 72.615,33.15 C72.615,30.6899877 72.5400008,28.560009 72.39,26.76 C72.2399993,24.959991 71.9250024,23.0850098 71.445,21.135 C70.9649976,19.1849903 70.3200041,17.610006 69.51,16.41 C68.699996,15.209994 67.5450075,14.2200039 66.045,13.44 Z" id="10"></path>
                    </g>
                </g>
            </g>
        </g>
    </g>
</svg>