<?xml version="1.0" encoding="UTF-8"?>
<svg width="81px" height="66px" viewBox="0 0 81 66" version="1.1" xmlns="http://www.w3.org/2000/svg" xmlns:xlink="http://www.w3.org/1999/xlink">
    <!-- Generator: Sketch 52.5 (67469) - http://www.bohemiancoding.com/sketch -->
    <title>12</title>
    <desc>Created with Sketch.</desc>
    <g id="desktop" stroke="none" stroke-width="1" fill="none" fill-rule="evenodd" opacity="0.118977865">
        <g id="aws" transform="translate(-235.000000, -5315.000000)" fill="#000000">
            <g id="Group-13" transform="translate(-91.000000, 958.000000)">
                <g id="Group-22" transform="translate(326.000000, 4357.000000)">
                    <g id="Group-12">
                        <path d="M10.305,66 L10.305,13.71 L0.765,13.71 L0.765,2.1 L23.265,2.1 L23.265,66 L10.305,66 Z M36.045,65.1 L36.045,55.83 C37.6050078,54.4499931 40.0049838,52.3650139 43.245,49.575 C46.4850162,46.784986 48.9149919,44.6700072 50.535,43.23 C52.1550081,41.7899928 54.1499881,39.8850118 56.52,37.515 C58.8900118,35.1449881 60.6449943,33.1500081 61.785,31.53 C64.7250147,27.329979 66.195,23.6100162 66.195,20.37 C66.195,14.0099682 63.2550294,10.83 57.375,10.83 C54.4949856,10.83 52.2450081,11.7899904 50.625,13.71 C49.0049919,15.6300096 48.1650003,18.2699832 48.105,21.63 L35.865,21.63 C35.9250003,14.6099649 37.9799797,9.2700183 42.03,5.61 C46.0800202,1.9499817 51.3749673,0.12 57.915,0.12 C64.4550327,0.12 69.5849814,1.9799814 73.305,5.7 C77.0250186,9.4200186 78.885,14.0999718 78.885,19.74 C78.885,23.940021 77.8050108,27.839982 75.645,31.44 C74.5649946,33.3600096 73.5150051,35.0549926 72.495,36.525 C71.4749949,37.9950073 70.0200094,39.6899904 68.13,41.61 C66.2399905,43.5300096 64.7550054,45.0299946 63.675,46.11 C62.5949946,47.1900054 60.9600109,48.7049902 58.77,50.655 C56.579989,52.6050097 55.0650042,53.9699961 54.225,54.75 L80.415,54.75 L80.415,65.1 L36.045,65.1 Z" id="12"></path>
                    </g>
                </g>
            </g>
        </g>
    </g>
</svg>