<?xml version="1.0" encoding="UTF-8"?>
<svg width="45px" height="66px" viewBox="0 0 45 66" version="1.1" xmlns="http://www.w3.org/2000/svg" xmlns:xlink="http://www.w3.org/1999/xlink">
    <!-- Generator: Sketch 52.5 (67469) - http://www.bohemiancoding.com/sketch -->
    <title>2</title>
    <desc>Created with Sketch.</desc>
    <g id="desktop" stroke="none" stroke-width="1" fill="none" fill-rule="evenodd" opacity="0.118977865">
        <g id="aws" transform="translate(-243.000000, -1530.000000)" fill="#000000">
            <g id="Group-13" transform="translate(-91.000000, 958.000000)">
                <g id="Group-22" transform="translate(331.000000, 572.000000)">
                    <g id="Group-12">
                        <path d="M3.31,65.1 L3.31,55.83 C4.8700078,54.4499931 7.2699838,52.3650139 10.51,49.575 C13.7500162,46.7849861 16.1799919,44.6700072 17.8,43.23 C19.4200081,41.7899928 21.4149882,39.8850118 23.785,37.515 C26.1550119,35.1449882 27.9099943,33.1500081 29.05,31.53 C31.9900147,27.329979 33.46,23.6100162 33.46,20.37 C33.46,14.0099682 30.5200294,10.83 24.64,10.83 C21.7599856,10.83 19.5100081,11.7899904 17.89,13.71 C16.2699919,15.6300096 15.4300003,18.2699832 15.37,21.63 L3.13,21.63 C3.1900003,14.6099649 5.24497975,9.2700183 9.295,5.61 C13.3450203,1.9499817 18.6399673,0.12 25.18,0.12 C31.7200327,0.12 36.8499814,1.9799814 40.57,5.7 C44.2900186,9.4200186 46.15,14.0999718 46.15,19.74 C46.15,23.940021 45.0700108,27.839982 42.91,31.44 C41.8299946,33.3600096 40.7800051,35.0549927 39.76,36.525 C38.7399949,37.9950074 37.2850095,39.6899904 35.395,41.61 C33.5049906,43.5300096 32.0200054,45.0299946 30.94,46.11 C29.8599946,47.1900054 28.225011,48.7049903 26.035,50.655 C23.8449891,52.6050097 22.3300042,53.9699961 21.49,54.75 L47.68,54.75 L47.68,65.1 L3.31,65.1 Z" id="2"></path>
                    </g>
                </g>
            </g>
        </g>
    </g>
</svg>