<?xml version="1.0" encoding="UTF-8"?>
<svg width="45px" height="69px" viewBox="0 0 45 69" version="1.1" xmlns="http://www.w3.org/2000/svg" xmlns:xlink="http://www.w3.org/1999/xlink">
    <!-- Generator: Sketch 52.5 (67469) - http://www.bohemiancoding.com/sketch -->
    <title>3</title>
    <desc>Created with Sketch.</desc>
    <g id="desktop" stroke="none" stroke-width="1" fill="none" fill-rule="evenodd" opacity="0.118977865">
        <g id="aws" transform="translate(-244.000000, -2041.000000)" fill="#000000">
            <g id="Group-13" transform="translate(-91.000000, 958.000000)">
                <g id="Group-11" transform="translate(332.000000, 1083.000000)">
                    <g id="Group-12">
                        <path d="M4.085,19.58 C4.2650009,13.6999706 6.34998005,9.12501635 10.34,5.855 C14.3300199,2.58498365 19.5499677,0.95 26,0.95 C32.4500322,0.95 37.5049817,2.58498365 41.165,5.855 C44.8250183,9.12501635 46.655,13.2499751 46.655,18.23 C46.655,22.0700192 45.6650099,25.2949869 43.685,27.905 C41.7049901,30.515013 39.4850123,32.2399958 37.025,33.08 L37.025,33.44 C44.225036,35.9000123 47.825,41.329958 47.825,49.73 C47.825,55.3100279 45.9050192,59.8099829 42.065,63.23 C38.2249808,66.6500171 32.9450336,68.36 26.225,68.36 C19.5049664,68.36 14.0150213,66.6500171 9.755,63.23 C5.4949787,59.8099829 3.2750009,54.800033 3.095,48.2 L15.335,48.2 C15.4550006,51.1400147 16.4599905,53.4949911 18.35,55.265 C20.2400094,57.0350088 22.7749841,57.92 25.955,57.92 C29.1350159,57.92 31.5499917,57.0650085 33.2,55.355 C34.8500082,53.6449914 35.675,51.2000159 35.675,48.02 C35.675,44.8399841 34.5500112,42.4850076 32.3,40.955 C30.0499887,39.4249923 26.4950243,38.66 21.635,38.66 L19.025,38.66 L19.025,28.31 L21.635,28.31 C30.1550426,28.31 34.415,25.4600285 34.415,19.76 C34.415,17.2999877 33.6350078,15.3500072 32.075,13.91 C30.5149922,12.4699928 28.2950144,11.75 25.415,11.75 C22.5349856,11.75 20.3750072,12.5599919 18.935,14.18 C17.4949928,15.8000081 16.6550012,17.5999901 16.415,19.58 L4.085,19.58 Z" id="3"></path>
                    </g>
                </g>
            </g>
        </g>
    </g>
</svg>