<?xml version="1.0" encoding="UTF-8"?>
<svg width="48px" height="66px" viewBox="0 0 48 66" version="1.1" xmlns="http://www.w3.org/2000/svg" xmlns:xlink="http://www.w3.org/1999/xlink">
    <!-- Generator: Sketch 52.5 (67469) - http://www.bohemiancoding.com/sketch -->
    <title>5</title>
    <desc>Created with Sketch.</desc>
    <g id="desktop" stroke="none" stroke-width="1" fill="none" fill-rule="evenodd" opacity="0.118977865">
        <g id="aws" transform="translate(-244.000000, -2347.000000)" fill="#000000">
            <g id="Group-13" transform="translate(-91.000000, 958.000000)">
                <g id="Group-11" transform="translate(332.000000, 1083.000000)">
                    <g id="Group-22" transform="translate(0.000000, 306.000000)">
                        <g id="Group-12">
                            <path d="M5.21,0.21 L45.44,0.21 L45.44,11.28 L16.73,11.28 L16.73,26.22 C17.9900063,24.8399931 19.7299889,23.6850047 21.95,22.755 C24.1700111,21.8249954 26.8699841,21.36 30.05,21.36 C33.2300159,21.36 36.2449857,22.0199934 39.095,23.34 C41.9450142,24.6600066 44.1199925,26.4299889 45.62,28.65 C48.620015,32.9700216 50.12,37.7699736 50.12,43.05 C50.12,50.0100348 48.1250199,55.5749792 44.135,59.745 C40.14498,63.9150209 34.6100354,66 27.53,66 C20.4499646,66 14.8850202,64.3350167 10.835,61.005 C6.78497975,57.6749834 4.4000036,53.310027 3.68,47.91 L16.1,47.91 C16.6400027,50.2500117 17.8849902,52.1099931 19.835,53.49 C21.7850097,54.8700069 24.3949836,55.56 27.665,55.56 C30.9350163,55.56 33.469991,54.4500111 35.27,52.23 C37.070009,50.0099889 37.97,47.0700183 37.97,43.41 C37.97,39.7499817 37.0550091,36.9300099 35.225,34.95 C33.3949908,32.9699901 30.9500153,31.98 27.89,31.98 C22.1299712,31.98 18.5900066,34.2899769 17.27,38.91 L5.21,38.91 L5.21,0.21 Z" id="5"></path>
                        </g>
                    </g>
                </g>
            </g>
        </g>
    </g>
</svg>