<?xml version="1.0" encoding="UTF-8"?>
<svg width="47px" height="68px" viewBox="0 0 47 68" version="1.1" xmlns="http://www.w3.org/2000/svg" xmlns:xlink="http://www.w3.org/1999/xlink">
    <!-- Generator: Sketch 52.5 (67469) - http://www.bohemiancoding.com/sketch -->
    <title>6</title>
    <desc>Created with Sketch.</desc>
    <g id="desktop" stroke="none" stroke-width="1" fill="none" fill-rule="evenodd" opacity="0.118977865">
        <g id="aws" transform="translate(-741.000000, -2345.000000)" fill="#000000">
            <g id="Group-13" transform="translate(-91.000000, 958.000000)">
                <g id="Group-11" transform="translate(332.000000, 1083.000000)">
                    <g id="Group-22" transform="translate(499.000000, 304.000000)">
                        <g id="Group-12">
                            <path d="M35.34,46.58 C35.34,43.2199832 34.440009,40.4750106 32.64,38.345 C30.839991,36.2149893 28.245017,35.15 24.855,35.15 C21.4649831,35.15 18.7200105,36.1099904 16.62,38.03 C14.5199895,39.9500096 13.47,42.6499826 13.47,46.13 C13.47,49.6100174 14.5199895,52.3999895 16.62,54.5 C18.7200105,56.6000105 21.4349834,57.65 24.765,57.65 C28.0950167,57.65 30.6899907,56.6300102 32.55,54.59 C34.4100093,52.5499898 35.34,49.8800165 35.34,46.58 Z M24.63,11.21 C20.5499796,11.21 17.4900102,12.8299838 15.45,16.07 C13.4099898,19.3100162 12.3600003,24.4999643 12.3,31.64 C13.8600078,29.3599886 16.0199862,27.620006 18.78,26.42 C21.5400138,25.219994 24.419985,24.62 27.42,24.62 C33.42003,24.62 38.2799814,26.5099811 42,30.29 C45.7200186,34.0700189 47.58,39.2899667 47.58,45.95 C47.58,52.6100333 45.6600192,57.9499799 41.82,61.97 C37.9799808,65.9900201 32.6400342,68 25.8,68 C16.9199556,68 10.6050188,65.2100279 6.855,59.63 C3.10498125,54.0499721 1.23,45.560057 1.23,34.16 C1.23,11.8998887 9.0899214,0.77 24.81,0.77 C31.1100315,0.77 35.9999826,2.46498305 39.48,5.855 C42.9600174,9.24501695 45.0299967,13.4599748 45.69,18.5 L33.99,18.5 C32.8499943,13.6399757 29.7300255,11.21 24.63,11.21 Z" id="6"></path>
                        </g>
                    </g>
                </g>
            </g>
        </g>
    </g>
</svg>