<?xml version="1.0" encoding="UTF-8"?>
<svg width="49px" height="70px" viewBox="0 0 49 70" version="1.1" xmlns="http://www.w3.org/2000/svg" xmlns:xlink="http://www.w3.org/1999/xlink">
    <!-- Generator: Sketch 52.5 (67469) - http://www.bohemiancoding.com/sketch -->
    <title>8</title>
    <desc>Created with Sketch.</desc>
    <g id="desktop" stroke="none" stroke-width="1" fill="none" fill-rule="evenodd" opacity="0.118977865">
        <g id="aws" transform="translate(-242.000000, -3332.000000)" fill="#000000">
            <g id="Group-13" transform="translate(-91.000000, 958.000000)">
                <g id="Group-22" transform="translate(332.000000, 2374.000000)">
                    <g id="Group-12">
                        <path d="M33.645,40.82 C31.6649901,38.9599907 28.9350174,38.03 25.455,38.03 C21.9749826,38.03 19.1850105,38.929991 17.085,40.73 C14.9849895,42.530009 13.935,45.0499838 13.935,48.29 C13.935,51.5300162 14.9549898,54.1249903 16.995,56.075 C19.0350102,58.0250098 21.8399821,59 25.41,59 C28.9800178,59 31.7399902,58.0100099 33.69,56.03 C35.6400097,54.0499901 36.615,51.4850158 36.615,48.335 C36.615,45.1849843 35.6250099,42.6800093 33.645,40.82 Z M35.355,19.76 C35.355,16.9399859 34.4700088,14.7200081 32.7,13.1 C30.9299911,11.4799919 28.545015,10.67 25.545,10.67 C22.544985,10.67 20.145009,11.4799919 18.345,13.1 C16.544991,14.7200081 15.645,16.9249861 15.645,19.715 C15.645,22.505014 16.5749907,24.7399916 18.435,26.42 C20.2950093,28.1000084 22.6499857,28.94 25.5,28.94 C28.3500142,28.94 30.7049907,28.1000084 32.565,26.42 C34.4250093,24.7399916 35.355,22.5200138 35.355,19.76 Z M3.315,18.05 C3.315,13.0699751 5.2349808,8.85501725 9.075,5.405 C12.9150192,1.95498275 18.3899644,0.23 25.5,0.23 C32.6100355,0.23 38.0699809,1.9699826 41.88,5.45 C45.690019,8.9300174 47.595,13.1599751 47.595,18.14 C47.595,24.6200324 44.6250297,29.4199844 38.685,32.54 C45.7050351,35.540015 49.215,41.0299601 49.215,49.01 C49.215,55.2500312 46.9950222,60.2149816 42.555,63.905 C38.1149778,67.5950185 32.4450345,69.44 25.545,69.44 C18.6449655,69.44 12.9600223,67.5950185 8.49,63.905 C4.01997765,60.2149816 1.785,55.2500312 1.785,49.01 C1.785,45.1099805 2.7149907,41.7500141 4.575,38.93 C6.4350093,36.1099859 9.0149835,33.9800072 12.315,32.54 C6.31497,29.3599841 3.315,24.5300324 3.315,18.05 Z" id="8"></path>
                    </g>
                </g>
            </g>
        </g>
    </g>
</svg>