<?xml version="1.0" encoding="UTF-8"?>
<svg width="46px" height="68px" viewBox="0 0 46 68" version="1.1" xmlns="http://www.w3.org/2000/svg" xmlns:xlink="http://www.w3.org/1999/xlink">
    <!-- Generator: Sketch 52.5 (67469) - http://www.bohemiancoding.com/sketch -->
    <title>9</title>
    <desc>Created with Sketch.</desc>
    <g id="desktop" stroke="none" stroke-width="1" fill="none" fill-rule="evenodd" opacity="0.118977865">
        <g id="aws" transform="translate(-244.000000, -3847.000000)" fill="#000000">
            <g id="Group-13" transform="translate(-91.000000, 958.000000)">
                <g id="Group-22" transform="translate(332.000000, 2889.000000)">
                    <g id="Group-12">
                        <path d="M15.42,22.19 C15.42,25.3100156 16.319991,27.9049896 18.12,29.975 C19.920009,32.0450103 22.4999832,33.08 25.86,33.08 C29.2200168,33.08 31.799991,32.1350094 33.6,30.245 C35.400009,28.3549905 36.3,25.7000171 36.3,22.28 C36.3,18.8599829 35.3700093,16.1750097 33.51,14.225 C31.6499907,12.2749902 29.1000162,11.3 25.86,11.3 C22.6199838,11.3 20.0700093,12.3349896 18.21,14.405 C16.3499907,16.4750103 15.42,19.0699844 15.42,22.19 Z M26.85,57.56 C30.5700186,57.56 33.2849914,56.0900147 34.995,53.15 C36.7050085,50.2099853 37.56,45.2600348 37.56,38.3 C36.2399934,39.9200081 34.3650121,41.2099952 31.935,42.17 C29.5049878,43.1300048 26.9100138,43.61 24.15,43.61 C17.9699691,43.61 12.9450193,41.8400177 9.075,38.3 C5.20498065,34.7599823 3.27,29.6150337 3.27,22.865 C3.27,16.1149662 5.2499802,10.7600198 9.21,6.8 C13.1700198,2.8399802 18.5699658,0.86 25.41,0.86 C33.9900429,0.86 40.0049827,3.63497225 43.455,9.185 C46.9050172,14.7350277 48.63,23.209943 48.63,34.61 C48.63,46.010057 47.025016,54.4249728 43.815,59.855 C40.6049839,65.2850271 34.6800432,68 26.04,68 C19.2599661,68 14.1300174,66.200018 10.65,62.6 C7.1699826,58.999982 5.2800015,54.500027 4.98,49.1 L16.68,49.1 C17.6400048,54.7400282 21.0299709,57.56 26.85,57.56 Z" id="9"></path>
                    </g>
                </g>
            </g>
        </g>
    </g>
</svg>