<?xml version="1.0" encoding="UTF-8"?>
<svg width="195px" height="184px" viewBox="0 0 195 184" version="1.1" xmlns="http://www.w3.org/2000/svg" xmlns:xlink="http://www.w3.org/1999/xlink">
    <!-- Generator: Sketch 52.5 (67469) - http://www.bohemiancoding.com/sketch -->
    <title>cloud-computing (2)</title>
    <desc>Created with Sketch.</desc>
    <g id="desktop" stroke="none" stroke-width="1" fill="none" fill-rule="evenodd">
        <g id="aws" transform="translate(0.000000, -4468.000000)" fill-rule="nonzero">
            <g id="Group-13" transform="translate(-91.000000, 958.000000)">
                <g id="cloud-computing-(2)" transform="translate(159.146307, 3594.588985) rotate(-17.000000) translate(-159.146307, -3594.588985) translate(39.146307, 3514.588985)">
                    <g id="cloud" fill="#D8DBDF">
                        <path d="M203.904,64.776 C201.788,28.776 172.112,0 136.34,0 C114.62,0 93.588,10.652 80.556,28.032 C80.256,27.876 79.94,27.768 79.636,27.624 C78.844,27.24 78.04,26.876 77.22,26.548 C76.764,26.368 76.308,26.204 75.848,26.044 C75.036,25.76 74.212,25.508 73.372,25.28 C72.912,25.156 72.456,25.028 71.992,24.924 C71.092,24.72 70.172,24.564 69.244,24.424 C68.84,24.364 68.444,24.284 68.036,24.24 C66.708,24.092 65.364,24 64,24 C44.148,24 28,40.148 28,60 C28,60.508 28.032,61.008 28.064,61.508 L28.064,61.524 C11.428,70.596 0,89.596 0,108.616 C0,136.948 23.048,160 51.38,160 L149.412,160 C149.828,160 150.24,159.976 150.656,159.944 L150.904,159.912 L151.44,159.944 C151.848,159.976 152.256,160 152.676,160 L191.888,160 C218.416,160 240,138.416 240,111.888 C240,89.932 224.692,70.24 203.904,64.776 Z M191.888,152 L152.676,152 C152.44,152 152.212,151.98 151.98,151.964 L150.896,151.92 L150.104,151.964 C149.876,151.98 149.644,152 149.412,152 L51.38,152 C27.46,152 8,132.54 8,108.616 C8,92 18.82,74.752 33.732,67.604 L36,66.52 L36,64 C36,63.492 36.032,62.976 36.06,62.456 L36.096,61.816 L36.048,60.976 C36.024,60.652 36,60.328 36,60 C36,44.564 48.564,32 64,32 C65.236,32 66.456,32.108 67.668,32.268 C67.98,32.308 68.292,32.36 68.6,32.412 C69.668,32.588 70.72,32.82 71.756,33.12 C71.896,33.16 72.04,33.188 72.18,33.228 C73.32,33.576 74.432,34.016 75.52,34.512 C75.804,34.64 76.08,34.78 76.36,34.916 C77.32,35.392 78.26,35.912 79.168,36.5 C86.876,41.492 92,50.152 92,60 C92,62.212 93.788,64 96,64 C98.212,64 100,62.212 100,60 C100,48.984 95.016,39.124 87.2,32.516 C98.668,17.516 117.552,8 136.34,8 C167.32,8 193.048,32.54 195.732,63.552 C191.644,63.264 185.524,63.116 179.4,64.048 C177.216,64.38 175.716,66.42 176.048,68.604 C176.348,70.584 178.052,72.004 179.996,72.004 C180.196,72.004 180.4,71.988 180.6,71.956 C189.508,70.608 198.792,71.872 199.336,71.948 C217.96,75.488 232,92.644 232,111.888 C232,134.004 214.004,152 191.888,152 Z" id="Shape"></path>
                    </g>
                    <path d="M143.425194,87.0984442 L143.425194,79.5266226 C143.425194,66.2851395 132.979681,55.5123725 119.862963,55.5123725 C106.744199,55.5123725 96.3007308,66.2851395 96.3007308,79.5266226 L96.3007308,87.0984442 C89.9090665,88.5935825 85.3663829,94.2652897 85.3050227,100.828762 L85.3050227,131.069005 C85.3152492,134.797646 86.8144784,138.366751 89.4672747,140.986823 C92.120071,143.606894 95.7096298,145.05908 99.4382713,145.022264 L140.285609,145.022264 C144.01425,145.05908 147.603809,143.604849 150.25865,140.984777 C152.911447,138.366751 154.408631,134.795601 154.420902,131.066959 L154.420902,100.828762 C154.357498,94.2652897 149.816859,88.5935825 143.425194,87.0984442 Z M119.862963,62.8428446 C128.938103,62.8428446 136.094722,70.3267167 136.094722,79.5266226 L136.094722,86.9020923 L103.631203,86.9020923 L103.631203,79.5266226 C103.631203,70.3267167 110.785777,62.8428446 119.862963,62.8428446 Z M147.09043,131.40853 C147.09043,135.167852 144.042885,138.215397 140.283563,138.215397 L99.4423617,138.215397 C95.6830406,138.215397 92.6354948,135.167852 92.6354948,131.40853 L92.6354948,101.039431 C92.6354948,97.2801097 95.6830406,94.2325644 99.4423617,94.2325644 L140.283563,94.2325644 C144.042885,94.2325644 147.09043,97.2801097 147.09043,101.039431 L147.09043,131.40853 Z" id="Shape" fill="#F1D8DE"></path>
                    <path d="M119.75047,107.715397 C115.839794,107.715397 112.428178,110.368193 111.466872,114.158195 C110.503521,117.948196 112.235917,121.90796 115.674121,123.775349 L115.674121,128.790504 C115.674121,130.813338 117.314478,132.45574 119.339357,132.45574 C121.362191,132.45574 123.004593,130.813338 123.004593,128.790504 L123.004593,124.166007 C126.780278,122.6136 128.929922,118.608839 128.138379,114.604077 C127.346835,110.599316 123.832953,107.713352 119.75047,107.715397 Z M119.75047,115.045869 C120.329298,115.045869 120.82836,115.45289 120.944944,116.019447 C121.059483,116.586004 120.760864,117.156652 120.227032,117.383684 C119.936595,117.310052 119.637976,117.271191 119.339357,117.271191 C119.253454,117.271191 119.17164,117.277327 119.089827,117.283463 C118.635763,116.990981 118.43123,116.43465 118.582585,115.917181 C118.735985,115.399712 119.212547,115.043824 119.75047,115.045869 Z" id="Shape" fill="#F1D8DE"></path>
                </g>
            </g>
        </g>
    </g>
</svg>