<?xml version="1.0" encoding="UTF-8"?>
<svg width="232px" height="301px" viewBox="0 0 232 301" version="1.1" xmlns="http://www.w3.org/2000/svg" xmlns:xlink="http://www.w3.org/1999/xlink">
    <!-- Generator: Sketch 52.5 (67469) - http://www.bohemiancoding.com/sketch -->
    <title>container</title>
    <desc>Created with Sketch.</desc>
    <g id="desktop" stroke="none" stroke-width="1" fill="none" fill-rule="evenodd">
        <g id="aws" transform="translate(-1208.000000, -4857.000000)">
            <g id="Group-13" transform="translate(-91.000000, 958.000000)">
                <g id="container" transform="translate(1462.440903, 4039.443900) rotate(-345.000000) translate(-1462.440903, -4039.443900) translate(1329.940903, 3902.443900)">
                    <path d="M260.850133,150.428571 L142.484174,57.6018587 C148.921553,53.6183562 152.357439,46.1758596 151.211373,38.6940832 C150.067618,31.2099958 145.390101,23.8659222 135.512279,23.2653065 L135.512279,8.47273915 L165.625,8.46428571 C168.238308,8.46428571 170.082473,7.25358847 170.082473,4.64028091 C170.082473,2.02697336 168.516421,0.78192223 165.903114,0.78192223 L99.6531137,0.78192223 C97.0398061,0.78192223 94.3681869,2.02697336 94.3681869,4.64028091 C94.3681869,7.25358847 96.7616924,8.46428571 99.375,8.46428571 L127.767857,8.46428571 L127.767857,27.3928571 C127.767857,30.0061647 129.886692,32.125 132.5,32.125 C137.726615,32.125 141.964286,36.3626706 141.964286,41.5892857 C141.964286,46.8159008 137.726615,51.0535714 132.5,51.0535714 C127.273385,51.0535714 123.035714,46.8159008 123.035714,41.5892857 C123.035714,38.9759782 120.916879,36.8571429 118.303571,36.8571429 C115.690264,36.8571429 113.571429,38.9759782 113.571429,41.5892857 C113.585293,48.1052246 116.956482,54.1521082 122.490409,57.5879953 L3.53524315,150.428571 L0,150.428571 L265,150.428571 L260.850133,150.428571 Z M132.296104,60 L251,153 L13,153 L132.296104,60 Z" id="Shape" fill="#D8DBDF" fill-rule="nonzero"></path>
                    <rect id="Rectangle" stroke="#D8DBDF" stroke-width="8" x="4" y="154.428571" width="257" height="115.035714"></rect>
                    <path d="M40.2232143,167.28683 C40.2232143,165.490056 41.6797879,164.033482 43.4765625,164.033482 C45.2733371,164.033482 46.7299107,165.490056 46.7299107,167.28683 L46.7299107,254.161394 C46.7299107,255.958169 45.2733371,257.414743 43.4765625,257.414743 C41.6797879,257.414743 40.2232143,255.958169 40.2232143,254.161394 L40.2232143,167.28683 Z" id="Line-4" stroke="#F1D8DE" stroke-width="1.3" fill="#F1D8DE" fill-rule="nonzero"></path>
                    <path d="M75.7142857,167.28683 C75.7142857,165.490056 77.1708593,164.033482 78.9676339,164.033482 C80.7644085,164.033482 82.2209821,165.490056 82.2209821,167.28683 L82.2209821,254.161394 C82.2209821,255.958169 80.7644085,257.414743 78.9676339,257.414743 C77.1708593,257.414743 75.7142857,255.958169 75.7142857,254.161394 L75.7142857,167.28683 Z" id="Line-4" stroke="#F1D8DE" stroke-width="1.3" fill="#F1D8DE" fill-rule="nonzero"></path>
                    <path d="M111.205357,167.28683 C111.205357,165.490056 112.661931,164.033482 114.458705,164.033482 C116.25548,164.033482 117.712054,165.490056 117.712054,167.28683 L117.712054,254.161394 C117.712054,255.958169 116.25548,257.414743 114.458705,257.414743 C112.661931,257.414743 111.205357,255.958169 111.205357,254.161394 L111.205357,167.28683 Z" id="Line-4" stroke="#F1D8DE" stroke-width="1.3" fill="#F1D8DE" fill-rule="nonzero"></path>
                    <path d="M146.696429,167.28683 C146.696429,165.490056 148.153002,164.033482 149.949777,164.033482 C151.746551,164.033482 153.203125,165.490056 153.203125,167.28683 L153.203125,254.161394 C153.203125,255.958169 151.746551,257.414743 149.949777,257.414743 C148.153002,257.414743 146.696429,255.958169 146.696429,254.161394 L146.696429,167.28683 Z" id="Line-4" stroke="#F1D8DE" stroke-width="1.3" fill="#F1D8DE" fill-rule="nonzero"></path>
                    <path d="M182.1875,167.28683 C182.1875,165.490056 183.644074,164.033482 185.440848,164.033482 C187.237623,164.033482 188.694196,165.490056 188.694196,167.28683 L188.694196,254.161394 C188.694196,255.958169 187.237623,257.414743 185.440848,257.414743 C183.644074,257.414743 182.1875,255.958169 182.1875,254.161394 L182.1875,167.28683 Z" id="Line-4" stroke="#F1D8DE" stroke-width="1.3" fill="#F1D8DE" fill-rule="nonzero"></path>
                    <path d="M217.678571,167.28683 C217.678571,165.490056 219.135145,164.033482 220.93192,164.033482 C222.728694,164.033482 224.185268,165.490056 224.185268,167.28683 L224.185268,254.161394 C224.185268,255.958169 222.728694,257.414743 220.93192,257.414743 C219.135145,257.414743 217.678571,255.958169 217.678571,254.161394 L217.678571,167.28683 Z" id="Line-4" stroke="#F1D8DE" stroke-width="1.3" fill="#F1D8DE" fill-rule="nonzero"></path>
                </g>
            </g>
        </g>
    </g>
</svg>