<?xml version="1.0" encoding="UTF-8"?>
<svg width="186px" height="262px" viewBox="0 0 186 262" version="1.1" xmlns="http://www.w3.org/2000/svg" xmlns:xlink="http://www.w3.org/1999/xlink">
    <!-- Generator: Sketch 52.5 (67469) - http://www.bohemiancoding.com/sketch -->
    <title>data</title>
    <desc>Created with Sketch.</desc>
    <g id="desktop" stroke="none" stroke-width="1" fill="none" fill-rule="evenodd">
        <g id="aws" transform="translate(0.000000, -1628.000000)">
            <g id="Group-13" transform="translate(-91.000000, 958.000000)">
                <g id="data" transform="translate(158.969385, 788.969385) rotate(-345.000000) translate(-158.969385, -788.969385) translate(38.969385, 668.969385)">
                    <path d="M56,76 C58.209,76 60,74.209 60,72 L60,63.388 L73.9,61.052 C75.4985,60.785 76.778,59.58 77.14,58 C78.213,53.2985 80.0685,48.811 82.628,44.724 C83.4905,43.3505 83.4385,41.592 82.496,40.272 L74.308,28.832 L80.832,22.308 L92.272,30.496 C93.592,31.4385 95.3505,31.4905 96.724,30.628 C100.8145,28.067 105.3065,26.212 110.012,25.14 C111.5935,24.7795 112.8005,23.4995 113.068,21.9 L115.388,8 L124.612,8 L126.944,21.9 C127.2115,23.4995 128.4185,24.7795 130,25.14 C134.7015,26.213 139.189,28.0685 143.276,30.628 C144.6495,31.4905 146.408,31.4385 147.728,30.496 L159.168,22.308 L165.692,28.832 L157.504,40.272 C156.5615,41.592 156.5095,43.3505 157.372,44.724 C159.933,48.8145 161.788,53.3065 162.86,58.012 C163.222,59.592 164.5015,60.797 166.1,61.064 L180,63.388 L180,72 C180,74.209 181.791,76 184,76 C186.209,76 188,74.209 188,72 L188,60 C188.0025,58.0485 186.596,56.38 184.672,56.052 L170,53.6 C168.9295,49.84 167.429,46.216 165.528,42.8 L174.184,30.716 C175.3225,29.125 175.1435,26.9435 173.76,25.56 L162.44,14.24 C161.0565,12.8565 158.875,12.6775 157.284,13.816 L145.2,22.46 C141.7835,20.5635 138.1595,19.0665 134.4,18 L131.944,3.34 C131.6215,1.413 129.954,0.0005 128,-3.21539636e-15 L112,-3.21539636e-15 C110.0485,-0.0025 108.38,1.404 108.052,3.328 L105.6,18 C101.84,19.0705 98.216,20.571 94.8,22.472 L82.728,13.828 C81.137,12.6895 78.9555,12.8685 77.572,14.252 L66.252,25.572 C64.8685,26.9555 64.6895,29.137 65.828,30.728 L74.46,42.8 C72.5635,46.2165 71.0665,49.8405 70,53.6 L55.34,56.056 C53.413,56.3785 52.0005,58.046 52,60 L52,72 C52,74.209 53.791,76 56,76 Z" id="Path" fill="#F1D8DE"></path>
                    <path d="M144,68 C144,70.209 145.791,72 148,72 C150.209,72 152,70.209 152,68 C152,50.327 137.673,36 120,36 C102.327,36 88,50.327 88,68 C88,70.209 89.791,72 92,72 C94.209,72 96,70.209 96,68 C96,54.745 106.745,44 120,44 C133.255,44 144,54.745 144,68 Z" id="Path" fill="#F1D8DE"></path>
                    <path d="M104,68 C104,70.209 105.791,72 108,72 C110.209,72 112,70.209 112,68 C112,63.5815 115.5815,60 120,60 C124.4185,60 128,63.5815 128,68 C128,70.209 129.791,72 132,72 C134.209,72 136,70.209 136,68 C136,59.1635 128.8365,52 120,52 C111.1635,52 104,59.1635 104,68 Z" id="Path" fill="#F1D8DE"></path>
                    <path d="M236,208 L232,208 L232,84 C232,81.791 230.209,80 228,80 L12,80 C9.791,80 8,81.791 8,84 L8,208 L4,208 C1.791,208 0,209.791 0,212 L0,220 C0.013,231.04 8.96,239.987 20,240 L220,240 C231.04,239.987 239.987,231.04 240,220 L240,212 C240,209.791 238.209,208 236,208 Z M16,88 L224,88 L224,208 L152,208 C151.4755,208.0025 150.9565,208.107 150.472,208.308 C149.986,208.508 149.5445,208.8015 149.172,209.172 L142.344,216 L97.656,216 L90.828,209.172 C90.4555,208.8015 90.014,208.508 89.528,208.308 C89.0435,208.107 88.5245,208.0025 88,208 L16,208 L16,88 Z M232,220 C232,226.6275 226.6275,232 220,232 L20,232 C13.3725,232 8,226.6275 8,220 L8,216 L86.344,216 L93.172,222.828 C93.922,223.578 94.939,224 96,224 L144,224 C145.061,224 146.078,223.578 146.828,222.828 L153.656,216 L232,216 L232,220 Z" id="Shape" fill="#D8DBDF" fill-rule="nonzero"></path>
                    <path d="M36,188 L204,188 L204,164 L36,164 L36,188 Z M44,172 L196,172 L196,180 L44,180 L44,172 Z" id="Shape" fill="#F1D8DE" fill-rule="nonzero"></path>
                    <rect id="Rectangle" fill="#F1D8DE" x="52" y="136" width="8" height="24"></rect>
                    <rect id="Rectangle" fill="#F1D8DE" x="68" y="128" width="8" height="32"></rect>
                    <rect id="Rectangle" fill="#F1D8DE" x="84" y="144" width="8" height="16"></rect>
                    <rect id="Rectangle" fill="#F1D8DE" x="100" y="128" width="8" height="32"></rect>
                    <rect id="Rectangle" fill="#F1D8DE" x="196" y="112" width="8" height="48"></rect>
                    <rect id="Rectangle" fill="#F1D8DE" x="180" y="120" width="8" height="40"></rect>
                    <rect id="Rectangle" fill="#F1D8DE" x="164" y="136" width="8" height="24"></rect>
                    <rect id="Rectangle" fill="#F1D8DE" x="148" y="128" width="8" height="32"></rect>
                    <rect id="Rectangle" fill="#F1D8DE" x="132" y="120" width="8" height="40"></rect>
                    <rect id="Rectangle" fill="#F1D8DE" x="116" y="136" width="8" height="24"></rect>
                </g>
            </g>
        </g>
    </g>
</svg>