<?xml version="1.0" encoding="UTF-8"?>
<svg width="182px" height="260px" viewBox="0 0 182 260" version="1.1" xmlns="http://www.w3.org/2000/svg" xmlns:xlink="http://www.w3.org/1999/xlink">
    <!-- Generator: Sketch 52.5 (67469) - http://www.bohemiancoding.com/sketch -->
    <title>tools-and-utensils</title>
    <desc>Created with Sketch.</desc>
    <g id="desktop" stroke="none" stroke-width="1" fill="none" fill-rule="evenodd">
        <g id="aws" transform="translate(-1258.000000, -2859.000000)">
            <g id="Group-13" transform="translate(-91.000000, 958.000000)">
                <g id="tools-and-utensils" transform="translate(1349.000000, 1901.000000)">
                    <path d="M138.526266,70.7215837 C129.628125,54.789526 112.788844,44.89183 94.5795469,44.89183 C89.1165,44.89183 83.7431719,45.7640625 78.6070312,47.4842558 C76.5532969,48.1721266 75.4452187,50.3968618 76.1320312,52.4532442 C76.8188437,54.5096266 79.0401562,55.6199285 81.093375,54.9320577 C85.4261719,53.480919 89.9631562,52.7450212 94.5790312,52.7450212 C109.951875,52.7455376 124.168687,61.1027542 131.681859,74.5559984 C132.400125,75.8423994 133.733531,76.5664195 135.107672,76.5664195 C135.755297,76.5664195 136.412719,76.4052966 137.018062,76.066009 C138.908344,75.007349 139.582781,72.6142611 138.526266,70.7215837 Z" id="Path" fill="#F1D8DE"></path>
                    <path d="M75.1018125,133.143273 C60.9051094,125.793075 52.0858594,111.295114 52.0858594,95.30625 C52.0853437,80.4746822 59.6077969,66.9455244 72.208125,59.1145392 C74.0483906,57.9711864 74.6140313,55.5502119 73.4724375,53.7076271 C72.3308437,51.8650424 69.9135938,51.2980138 68.0738438,52.4418829 C53.1526875,61.7152278 44.2442344,77.7397246 44.2442344,95.3067664 C44.2442344,114.244386 54.6887344,131.415334 71.5006875,140.120101 C72.0766406,140.418075 72.6917813,140.559574 73.2981562,140.559574 C74.7176719,140.559574 76.0876875,139.784944 76.7842969,138.43554 C77.7784219,136.507746 77.0250938,134.13893 75.1018125,133.143273 Z" id="Path" fill="#F1D8DE"></path>
                    <path d="M94.578,79.3013771 C85.7664844,79.3013771 78.59775,86.4811573 78.59775,95.30625 C78.59775,104.131859 85.7664844,111.311123 94.578,111.311123 C103.389516,111.311123 110.55825,104.131343 110.55825,95.30625 C110.55825,86.4811573 103.389516,79.3013771 94.578,79.3013771 Z M94.578,103.457932 C90.09,103.457932 86.4388594,99.8011653 86.4388594,95.30625 C86.4388594,90.8113347 90.09,87.1545683 94.578,87.1545683 C99.066,87.1545683 102.717141,90.8113347 102.717141,95.30625 C102.717141,99.8016817 99.066,103.457932 94.578,103.457932 Z" id="Shape" fill="#F1D8DE" fill-rule="nonzero"></path>
                    <path d="M177.598266,79.1975768 L165.866766,77.506303 C164.100234,70.3730005 161.290594,63.5986096 157.487344,57.3008739 L169.564828,41.1333289 C170.732719,39.5701271 170.577,37.3851563 169.198219,36.0042505 L153.715031,20.497206 C152.33625,19.1163003 150.154641,18.9603416 148.593328,20.1295154 L132.428484,32.242651 C126.1425,28.4490334 119.389875,25.647974 112.287141,23.8895657 L109.408406,3.87262977 C109.130484,1.94018803 107.477391,0.505574682 105.527812,0.505574682 L83.6312812,0.505574682 C81.6817031,0.505574682 80.0286094,1.94018803 79.7506875,3.87262977 L76.8719531,23.8885328 C69.77025,25.6536547 62.9820469,28.4872484 56.7414375,32.2498808 L40.5647344,20.1300318 C39.0039375,18.9603416 36.8223281,19.1168167 35.4435469,20.4977225 L19.9598438,36.0047669 C18.5810625,37.3856727 18.4248281,39.5701271 19.5927188,41.1338453 L31.6753594,57.3081038 C27.8984063,63.5872484 25.0805156,70.4014036 23.310375,77.5011388 L3.361875,80.379661 C1.43240625,80.6580111 0,82.313652 0,84.2662341 L0,106.196504 C0,108.149086 1.43240625,109.804727 3.361875,110.083077 L23.236125,112.950238 C25.0103906,120.199735 27.856125,127.027834 31.5980156,133.257918 L19.59375,149.328893 C18.4258594,150.892095 18.5820937,153.077066 19.960875,154.457971 L35.4440625,169.965016 C36.2040938,170.726218 37.2080156,171.115082 38.2170938,171.115082 C39.039,171.115082 39.8645156,170.857389 40.5647344,170.33219 L56.5815938,158.329568 C62.799,162.089102 69.6248438,164.956263 76.8930938,166.74514 L79.1881406,182.695273 C79.4696719,184.651986 81.1464844,186.062328 83.0640938,186.062328 C83.2502344,186.063361 83.4384375,186.049934 83.6281875,186.022564 C85.7716406,185.713228 87.2581875,183.722431 86.9498438,181.575675 L85.0342969,168.263414 C87.0179063,168.520074 89.02575,168.70237 91.0583438,168.798424 C91.1217656,168.801523 91.1836406,168.803072 91.2465469,168.803072 C93.3265781,168.803072 95.060625,167.164989 95.1601406,165.061613 C95.2622344,162.895233 93.5916094,161.056263 91.4285625,160.953496 C56.3985469,159.295789 28.9580156,130.459441 28.9580156,95.3047007 C28.9580156,80.1064751 34.2586406,65.2862685 43.8832969,53.5738745 C53.3805938,42.0164063 66.6202969,33.9855667 81.1614375,30.9598649 C89.9430469,29.1394862 99.2052188,29.1384534 107.990953,30.9593485 C116.020781,32.6284163 123.586547,35.7656647 130.478391,40.2838189 C138.084891,45.2750132 144.470906,51.6600238 149.459063,59.2617188 C153.985219,66.1595339 157.131563,73.7467691 158.810953,81.8096266 C159.185297,83.6072828 159.487453,85.4421213 159.709688,87.2635328 C159.971625,89.4164857 161.935641,90.9471531 164.076516,90.6858448 C166.226156,90.4229873 167.7555,88.4647246 167.493563,86.3117717 C167.467266,86.0948755 167.435297,85.8784958 167.407453,85.6615996 L176.481938,86.9702066 C176.671172,86.9975768 176.859375,87.0104873 177.045516,87.0104873 C178.963125,87.0104873 180.639938,85.5996292 180.921469,83.6429158 C181.228781,81.4966764 179.740688,79.5063957 177.598266,79.1975768 Z M21.7237969,104.797524 L7.841625,102.794849 L7.841625,87.6678893 L21.75525,85.6600503 C21.3329531,88.8458422 21.1169062,92.0682998 21.1169062,95.3052172 C21.1163906,98.5209613 21.3257344,101.688678 21.7237969,104.797524 Z M49.7428594,153.646676 L38.5862812,162.006475 L27.9061406,151.309878 L36.2639062,140.120617 C40.1491406,145.192889 44.6809687,149.742029 49.7428594,153.646676 Z M37.8283125,48.5837129 C37.323,49.1982521 36.832125,49.8236361 36.3484687,50.4531515 L27.9061406,39.1523438 L38.5862812,28.4557468 L49.8898125,36.9250265 C45.4642031,40.3225503 41.4072656,44.2282309 37.8283125,48.5837129 Z M85.0141875,22.357349 L87.0271875,8.36031515 C87.0271875,8.36031515 102.130875,8.36031515 102.130875,8.36031515 L104.143875,22.3578655 C97.8109687,21.5377913 91.3460625,21.5377913 85.0141875,22.357349 Z M139.280625,36.9167638 L150.571266,28.4557468 L161.251406,39.1523438 L152.812688,50.4485037 C148.903734,45.3550583 144.376031,40.8270922 139.280625,36.9167638 Z" id="Shape" fill="#D8DBDF" fill-rule="nonzero"></path>
                    <path d="M213.746156,140.002873 C212.592187,138.167002 210.172359,137.615983 208.339312,138.770697 C206.506266,139.925927 205.956094,142.350516 207.109031,144.185355 C214.183406,155.4433 215.624062,169.053535 211.060266,181.526615 C202.997437,203.560686 178.539797,214.916234 156.540656,206.842532 C134.540484,198.767797 123.201891,174.272987 131.263687,152.238917 C139.325484,130.205363 163.782094,118.847749 185.783297,126.923001 C191.171578,128.900371 196.010203,131.874431 200.164078,135.76152 C201.7455,137.242611 204.227719,137.157918 205.7055,135.573543 C207.183797,133.988652 207.099234,131.503641 205.517297,130.023067 C200.592047,125.414539 194.860359,121.891009 188.482078,119.549563 C162.421359,109.985474 133.452,123.437169 123.901594,149.536494 C114.351703,175.635818 127.783219,204.651364 153.842391,214.215969 C159.5385,216.306435 165.370219,217.296928 171.111187,217.296928 C191.635641,217.295895 210.960234,204.623994 218.423391,184.228522 C223.829203,169.454793 222.124031,153.334759 213.746156,140.002873 Z" id="Path" fill="#F1D8DE"></path>
                    <path d="M176.661375,151.855734 C172.651875,150.384454 168.312375,150.564685 164.440547,152.362858 C160.567687,154.161547 157.626047,157.361798 156.157547,161.375927 C154.688531,165.390056 154.868484,169.736758 156.663891,173.615585 C158.459812,177.494412 161.655656,180.440585 165.663094,181.910832 C167.471391,182.574947 169.323,182.88893 171.145219,182.88893 C177.661687,182.88893 183.796594,178.865506 186.166406,172.390122 C189.198797,164.104688 184.934578,154.89228 176.661375,151.855734 Z M178.804828,169.688731 C177.260531,173.909944 172.577109,176.083554 168.361359,174.53791 C166.320516,173.788586 164.692172,172.287871 163.777969,170.312566 C162.863766,168.337262 162.771469,166.123371 163.520156,164.078867 C164.268328,162.034362 165.766734,160.404025 167.738484,159.488414 C168.828516,158.982839 169.99125,158.728244 171.157594,158.728244 C172.102734,158.728244 173.049422,158.895048 173.962594,159.230204 C178.176281,160.776364 180.349125,165.468035 178.804828,169.688731 Z" id="Shape" fill="#F1D8DE" fill-rule="nonzero"></path>
                    <path d="M261.938531,184.303403 L244.206703,174.732084 C244.996641,167.351933 244.649109,159.99657 243.263109,152.893737 L260.181797,141.859918 C261.815297,140.794544 262.419094,138.689102 261.599766,136.917783 L252.389672,117.02169 C251.569828,115.250371 249.574359,114.350768 247.707281,114.9116 L228.340406,120.722352 C223.824047,115.09183 218.449687,110.090824 212.324062,105.939844 L216.500109,86.1439354 C216.903328,84.2336997 215.843719,82.3172669 214.01325,81.6454052 L193.453219,74.0994836 C191.619656,73.4271054 189.57675,74.2048332 188.652234,75.9234772 L179.079656,93.712063 C171.801609,92.9090307 164.466844,93.2101033 157.279031,94.6085673 L146.274047,77.6834349 C145.210312,76.0474179 143.106047,75.4426907 141.339516,76.2637977 L121.474031,85.4880826 C119.705437,86.3091896 118.807734,88.3072166 119.367187,90.177688 L125.146312,109.50004 C119.417203,114.091009 114.429562,119.507217 110.325187,125.597352 L90.64275,121.433461 C88.7354531,121.029621 86.8219687,122.090863 86.1511406,123.924669 L78.6163125,144.515863 C77.9454844,146.348636 78.7215,148.397789 80.4375,149.323729 L98.1157031,158.866128 C97.2974062,166.231819 97.6083281,173.624881 98.9902031,180.811891 L82.1937187,191.766698 C80.5602187,192.832071 79.9564219,194.937513 80.7762656,196.708832 L89.9863594,216.604926 C90.6422344,218.022497 92.0504062,218.880787 93.5431406,218.880787 C93.9164531,218.880787 94.2949219,218.827079 94.66875,218.715016 L113.872687,212.953324 C114.879187,214.207707 115.926422,215.438334 117.023156,216.636427 C118.4865,218.235262 120.966141,218.344227 122.563031,216.879145 C124.159406,215.414063 124.268203,212.930601 122.805375,211.33125 C106.153781,193.127463 101.073844,167.431978 109.549172,144.270564 C115.580437,127.788003 127.658953,114.644611 143.560312,107.260845 C159.461672,99.8775953 177.281672,99.1370498 193.739391,105.177609 C227.711859,117.646557 245.222484,155.472736 232.772719,189.498067 C220.322953,223.522881 182.556516,241.061004 148.581469,228.591022 C141.927844,226.148874 135.769734,222.691446 130.278844,218.314791 C128.583984,216.963837 126.118266,217.245286 124.769391,218.94224 C123.421031,220.639195 123.702047,223.109229 125.395875,224.460183 C126.892734,225.653628 128.435484,226.782521 130.016906,227.852026 L125.876438,247.483197 C125.473219,249.393432 126.532828,251.309865 128.363297,251.981727 L148.922812,259.528165 C149.36625,259.690837 149.822063,259.7683 150.271172,259.7683 C151.677797,259.7683 153.023062,259.006581 153.723281,257.703655 L163.230891,240.036427 C165.855937,240.322007 168.477375,240.461957 171.085922,240.461957 C175.836891,240.461957 180.543516,239.993565 185.143922,239.09138 L196.100437,255.944213 C196.845,257.088599 198.096937,257.728443 199.388062,257.728443 C199.942875,257.728443 200.504391,257.610183 201.034969,257.363334 L220.900453,248.139049 C222.669562,247.317942 223.567266,245.319915 223.007297,243.449444 L217.237453,224.160659 C222.887672,219.617201 227.901094,214.202542 232.058578,208.031329 L251.730187,212.193671 C252.002437,212.25151 252.274172,212.27888 252.543328,212.27888 C254.158781,212.27888 255.647391,211.274444 256.222312,209.702979 L263.757141,189.111785 C264.430547,187.278496 263.654531,185.22986 261.938531,184.303403 Z M109.052625,206.200622 L95.6737031,210.214751 L89.3212031,196.490903 L101.020219,188.860805 C102.914625,194.915824 105.601547,200.7462 109.052625,206.200622 Z M102.188109,141.568141 C101.08725,144.577317 100.199344,147.624709 99.5037656,150.69224 L87.1499063,144.023716 L92.3468906,129.820114 L106.089844,132.727556 C104.612062,135.564764 103.304953,138.51352 102.188109,141.568141 Z M140.262891,100.135289 C137.354766,101.485726 134.563687,103.011229 131.894813,104.693724 L127.853859,91.1826404 L141.556594,84.8198358 L149.249719,96.6520392 C146.207016,97.6105138 143.205047,98.7688427 140.262891,100.135289 Z M205.206375,101.684031 C202.406531,100.219981 199.482422,98.9191208 196.439203,97.8021054 C193.411453,96.6912871 190.341422,95.7891022 187.247156,95.0867717 L193.942547,82.6436441 L208.124812,87.8486361 L205.206375,101.684031 Z M148.434,250.981939 L134.25225,245.77643 L137.13975,232.086666 C139.958156,233.557428 142.874016,234.858289 145.885266,235.963943 C148.921781,237.078893 151.985625,237.97643 155.059266,238.670498 L148.434,250.981939 Z M200.820984,248.807296 L193.172203,237.042744 C199.267406,235.117015 205.096031,232.407879 210.497203,228.984534 L214.523719,242.445008 L200.820984,248.807296 Z M233.155828,127.476602 L246.703875,123.411348 L253.056375,137.135196 L241.216594,144.856184 C239.291766,138.740744 236.580609,132.894359 233.155828,127.476602 Z M250.031203,203.806502 L236.293922,200.899576 C237.739219,198.118141 239.031891,195.220511 240.137391,192.199457 C241.260422,189.130376 242.162766,186.032892 242.857828,182.925596 L255.229219,189.603416 L250.031203,203.806502 Z" id="Shape" fill="#D8DBDF" fill-rule="nonzero"></path>
                </g>
            </g>
        </g>
    </g>
</svg>