<?xml version="1.0" encoding="UTF-8"?>
<svg width="153px" height="298px" viewBox="0 0 153 298" version="1.1" xmlns="http://www.w3.org/2000/svg" xmlns:xlink="http://www.w3.org/1999/xlink">
    <!-- Generator: Sketch 52.5 (67469) - http://www.bohemiancoding.com/sketch -->
    <title>diagram</title>
    <desc>Created with Sketch.</desc>
    <g id="desktop" stroke="none" stroke-width="1" fill="none" fill-rule="evenodd">
        <g id="aws" transform="translate(-1287.000000, -1061.000000)" fill-rule="nonzero">
            <g id="Group-13" transform="translate(-91.000000, 958.000000)">
                <g id="Group-22" transform="translate(331.000000, 85.000000)">
                    <g id="Group-12">
                        <g id="diagram" transform="translate(1108.726896, 160.726896) rotate(-30.000000) translate(-1108.726896, -160.726896) translate(994.726896, 46.726896)">
                            <rect id="Rectangle-path" fill="#D8DBDF" x="0.00142203742" y="219.961344" width="227.525988" height="7.56846473"></rect>
                            <path d="M219.54504,32.8424066 L204.37664,2.56854772 C203.441414,0.698190871 201.164732,-0.0614937759 199.290486,0.871792531 C199.289538,0.87226556 199.28859,0.872738589 199.287642,0.873211618 L168.950844,16.0101411 C167.076599,16.9443734 166.315809,19.2182241 167.251983,21.0885809 C168.188158,22.9589378 170.466736,23.7181494 172.340981,22.783917 L194.312407,11.8285643 L188.317098,28.9105892 C161.965322,103.804332 94.0919501,156.346506 14.8474927,163.197859 L15.4921497,170.766324 C97.7224116,163.657643 168.149763,109.128274 195.480374,31.4081826 L201.600823,13.9553029 L212.757181,36.2255104 C213.693356,38.0958672 215.971933,38.8550788 217.846179,37.9208465 C219.720898,36.9866141 220.481214,34.7132365 219.54504,32.8424066 Z" id="Shape" fill="#F1D8DE"></path>
                            <path d="M45.5066195,182.119021 L18.961921,182.119021 C16.8677339,182.119021 15.1698212,183.813411 15.1698212,185.903253 L15.1698212,208.608647 C15.1698212,210.69849 16.8677339,212.39288 18.961921,212.39288 L45.5066195,212.39288 C47.6008067,212.39288 49.2987193,210.69849 49.2987193,208.608647 L49.2987193,185.903253 C49.2987193,183.813411 47.6008067,182.119021 45.5066195,182.119021 Z M41.7145198,204.824415 L22.7540208,204.824415 L22.7540208,189.687485 L41.7145198,189.687485 L41.7145198,204.824415 Z" id="Shape" fill="#D8DBDF"></path>
                            <path d="M87.2197173,170.766324 L60.6750187,170.766324 C58.5808316,170.766324 56.8829189,172.460714 56.8829189,174.550556 L56.8829189,208.608647 C56.8829189,210.69849 58.5808316,212.39288 60.6750187,212.39288 L87.2197173,212.39288 C89.3139044,212.39288 91.011817,210.69849 91.011817,208.608647 L91.011817,174.550556 C91.011817,172.460714 89.3139044,170.766324 87.2197173,170.766324 Z M83.4276175,204.824415 L64.4671185,204.824415 L64.4671185,178.334788 L83.4276175,178.334788 L83.4276175,204.824415 Z" id="Shape" fill="#D8DBDF"></path>
                            <path d="M128.932815,151.845162 L102.388116,151.845162 C100.293929,151.845162 98.5960166,153.539552 98.5960166,155.629394 L98.5960166,208.608647 C98.5960166,210.69849 100.293929,212.39288 102.388116,212.39288 L128.932815,212.39288 C131.027002,212.39288 132.724915,210.69849 132.724915,208.608647 L132.724915,155.629394 C132.724915,153.539552 131.027002,151.845162 128.932815,151.845162 Z M125.140715,204.824415 L106.180216,204.824415 L106.180216,159.413627 L125.140715,159.413627 L125.140715,204.824415 Z" id="Shape" fill="#D8DBDF"></path>
                            <path d="M170.645913,125.355535 L144.101214,125.355535 C142.007027,125.355535 140.309114,127.049925 140.309114,129.139768 L140.309114,208.608647 C140.309114,210.69849 142.007027,212.39288 144.101214,212.39288 L170.645913,212.39288 C172.7401,212.39288 174.438012,210.69849 174.438012,208.608647 L174.438012,129.139768 C174.438012,127.049925 172.7401,125.355535 170.645913,125.355535 Z M166.853813,204.824415 L147.893314,204.824415 L147.893314,132.924 L166.853813,132.924 L166.853813,204.824415 Z" id="Shape" fill="#D8DBDF"></path>
                            <path d="M212.35901,72.3762822 L185.814312,72.3762822 C183.720125,72.3762822 182.022212,74.0706722 182.022212,76.1605145 L182.022212,208.608647 C182.022212,210.69849 183.720125,212.39288 185.814312,212.39288 L212.35901,212.39288 C214.453198,212.39288 216.15111,210.69849 216.15111,208.608647 L216.15111,76.1605145 C216.15111,74.0706722 214.453198,72.3762822 212.35901,72.3762822 Z M208.566911,204.824415 L189.606412,204.824415 L189.606412,79.9447469 L208.566911,79.9447469 L208.566911,204.824415 Z" id="Shape" fill="#D8DBDF"></path>
                        </g>
                    </g>
                </g>
            </g>
        </g>
    </g>
</svg>