<?xml version="1.0" encoding="UTF-8"?>
<svg width="162px" height="275px" viewBox="0 0 162 275" version="1.1" xmlns="http://www.w3.org/2000/svg" xmlns:xlink="http://www.w3.org/1999/xlink">
    <!-- Generator: Sketch 52.5 (67469) - http://www.bohemiancoding.com/sketch -->
    <title>scale</title>
    <desc>Created with Sketch.</desc>
    <g id="desktop" stroke="none" stroke-width="1" fill="none" fill-rule="evenodd">
        <g id="aws" transform="translate(0.000000, -3430.000000)">
            <g id="Group-13" transform="translate(-91.000000, 958.000000)">
                <g id="scale" transform="translate(139.530425, 2611.530425) rotate(-21.000000) translate(-139.530425, -2611.530425) translate(31.530425, 2503.530425)">
                    <path d="M204.433875,12.7747969 C203.698969,11.9770312 202.608,11.6104219 201.539391,11.8044844 L173.687203,16.8686719 C171.967641,17.1812812 170.826891,18.829125 171.1395,20.5486875 C171.452109,22.2686719 173.097422,23.4098438 174.819516,23.0963906 L193.008234,19.7893125 L148.665797,54.6298594 C147.291328,55.7098594 147.052969,57.6998437 148.132547,59.0738906 C148.756922,59.8682812 149.685469,60.2834062 150.623297,60.2834062 C151.308,60.2834062 151.996922,60.0623437 152.576578,59.6071406 L195.984984,25.5006562 L191.452781,42.3710156 C190.999266,44.0593594 191.999953,45.795375 193.687875,46.2488906 C193.963359,46.3227187 194.239266,46.3581562 194.511375,46.3581562 C195.908203,46.3581562 197.186484,45.4262344 197.56575,44.0137969 L205.161609,15.7397344 C205.443844,14.6917969 205.168359,13.5729844 204.433875,12.7747969 Z" id="Path" fill="#F1D8DE"></path>
                    <path d="M212.717812,0 L96.6055781,0 C94.85775,0 93.4406719,1.41665625 93.4406719,3.16490625 C93.4406719,4.91315625 94.85775,6.3298125 96.6055781,6.3298125 L209.552484,6.3298125 L209.552484,136.726734 L117.853312,136.726734 L117.853312,101.428453 C117.853312,99.6802031 116.436656,98.2635469 114.688406,98.2635469 L50.9004844,98.2635469 L50.9004844,6.3298125 L74.239875,6.3298125 C75.9877031,6.3298125 77.4047812,4.91315625 77.4047812,3.16490625 C77.4047812,1.41665625 75.9877031,0 74.2394531,0 L47.7351562,0 C45.9873281,0 44.57025,1.41665625 44.57025,3.16490625 L44.57025,98.2635469 L3.2821875,98.2635469 C1.53435937,98.2635469 0.11728125,99.6802031 0.11728125,101.428453 L0.11728125,212.834672 C0.11728125,214.582922 1.53435937,215.999578 3.2821875,215.999578 L114.688828,215.999578 C116.437078,215.999578 117.853734,214.582922 117.853734,212.834672 L117.853734,195.328547 C117.853734,193.580297 116.437078,192.163641 114.688828,192.163641 C112.940578,192.163641 111.523922,193.580297 111.523922,195.328547 L111.523922,209.669766 L6.44667187,209.669766 L6.44667187,104.593359 L111.523078,104.593359 L111.523078,172.638844 C111.523078,174.387094 112.939734,175.80375 114.687984,175.80375 C116.436234,175.80375 117.852891,174.387094 117.852891,172.638844 L117.852891,143.056125 L212.717812,143.056125 C214.466062,143.056125 215.882719,141.639469 215.882719,139.891219 L215.882719,3.16490625 C215.882297,1.41665625 214.465641,0 212.717812,0 Z" id="Path" stroke="#D8DBDF" stroke-width="1.3" fill="#D8DBDF"></path>
                </g>
            </g>
        </g>
    </g>
</svg>