<?xml version="1.0" encoding="UTF-8"?>
<svg width="179px" height="223px" viewBox="0 0 179 223" version="1.1" xmlns="http://www.w3.org/2000/svg" xmlns:xlink="http://www.w3.org/1999/xlink">
    <!-- Generator: Sketch 52.5 (67469) - http://www.bohemiancoding.com/sketch -->
    <title>server (1)</title>
    <desc>Created with Sketch.</desc>
    <g id="desktop" stroke="none" stroke-width="1" fill="none" fill-rule="evenodd">
        <g id="aws" transform="translate(0.000000, -5503.000000)">
            <g id="Group-13" transform="translate(-91.000000, 958.000000)">
                <g id="server-(1)" transform="translate(157.093750, 4656.429688) rotate(-16.000000) translate(-157.093750, -4656.429688) translate(63.593750, 4563.929688)">
                    <path d="M32.725,19.2583333 C24.99255,19.2583333 18.7,25.5508833 18.7,33.2833333 C18.7,41.0157833 24.99255,47.3083333 32.725,47.3083333 C40.45745,47.3083333 46.75,41.0157833 46.75,33.2833333 C46.75,25.5508833 40.45745,19.2583333 32.725,19.2583333 Z M32.725,41.075 C28.4302333,41.075 24.9333333,37.5812167 24.9333333,33.2833333 C24.9333333,28.98545 28.4302333,25.4916667 32.725,25.4916667 C37.0197667,25.4916667 40.5166667,28.98545 40.5166667,33.2833333 C40.5166667,37.5812167 37.0197667,41.075 32.725,41.075 Z" id="Shape" fill="#F1D8DE" fill-rule="nonzero"></path>
                    <circle id="Oval" fill="#F1D8DE" cx="155.833333" cy="28.6083333" r="3.11666667"></circle>
                    <circle id="Oval" fill="#F1D8DE" cx="143.366667" cy="28.6083333" r="3.11666667"></circle>
                    <circle id="Oval" fill="#F1D8DE" cx="162.066667" cy="37.9583333" r="3.11666667"></circle>
                    <circle id="Oval" fill="#F1D8DE" cx="149.6" cy="37.9583333" r="3.11666667"></circle>
                    <circle id="Oval" fill="#F1D8DE" cx="130.9" cy="28.6083333" r="3.11666667"></circle>
                    <circle id="Oval" fill="#F1D8DE" cx="137.133333" cy="37.9583333" r="3.11666667"></circle>
                    <circle id="Oval" fill="#F1D8DE" cx="118.433333" cy="28.6083333" r="3.11666667"></circle>
                    <circle id="Oval" fill="#F1D8DE" cx="124.666667" cy="37.9583333" r="3.11666667"></circle>
                    <circle id="Oval" fill="#F1D8DE" cx="105.966667" cy="28.6083333" r="3.11666667"></circle>
                    <circle id="Oval" fill="#F1D8DE" cx="112.2" cy="37.9583333" r="3.11666667"></circle>
                    <path d="M187,51.6467333 L187,14.9199333 C187,7.00048333 180.55785,0.558333333 172.6384,0.558333333 L14.3616,0.558333333 C6.44215,0.558333333 4.54747351e-13,7.00048333 4.54747351e-13,14.9199333 L4.54747351e-13,51.6436167 C4.54747351e-13,56.222 2.19101667,60.2580833 5.53831667,62.88855 C2.19101667,65.5221333 4.54747351e-13,69.5613333 4.54747351e-13,74.1366 L4.54747351e-13,110.860283 C4.54747351e-13,115.438667 2.19101667,119.47475 5.53831667,122.105217 C2.19101667,124.7388 4.54747351e-13,128.778 4.54747351e-13,133.353267 L4.54747351e-13,170.07695 C4.54747351e-13,177.999517 6.44215,184.441667 14.3616,184.441667 L172.635283,184.441667 C180.554733,184.441667 186.996883,177.999517 186.996883,170.080067 L186.996883,133.353267 C186.996883,128.774883 184.805867,124.7388 181.458567,122.108333 C184.808983,119.477867 187,115.438667 187,110.8634 L187,74.1366 C187,69.5582167 184.808983,65.5221333 181.461683,62.8916667 C184.808983,60.2612 187,56.222 187,51.6467333 Z M180.766667,133.353267 L180.766667,170.07695 C180.766667,174.558717 177.120167,178.205217 172.6384,178.205217 L14.3616,178.205217 C9.87983333,178.208333 6.23333333,174.561833 6.23333333,170.080067 L6.23333333,133.353267 C6.23333333,128.8715 9.87983333,125.225 14.3616,125.225 L172.635283,125.225 C177.120167,125.225 180.766667,128.8715 180.766667,133.353267 Z M180.766667,74.1366 L180.766667,110.860283 C180.766667,115.34205 177.120167,118.98855 172.6384,118.98855 L14.3616,118.98855 C9.87983333,118.991667 6.23333333,115.345167 6.23333333,110.8634 L6.23333333,74.1366 C6.23333333,69.6548333 9.87983333,66.0083333 14.3616,66.0083333 L172.635283,66.0083333 C177.120167,66.0083333 180.766667,69.6548333 180.766667,74.1366 Z M14.3616,59.775 C9.87983333,59.775 6.23333333,56.1285 6.23333333,51.6467333 L6.23333333,14.9199333 C6.23333333,10.4381667 9.87983333,6.79166667 14.3616,6.79166667 L172.635283,6.79166667 C177.120167,6.79166667 180.766667,10.4381667 180.766667,14.9199333 L180.766667,51.6436167 C180.766667,56.1253833 177.120167,59.7718833 172.6384,59.7718833 L14.3616,59.7718833 L14.3616,59.775 Z" id="Shape" stroke="#D8DBDF" fill="#D8DBDF" fill-rule="nonzero"></path>
                    <path d="M32.725,106.525 C40.45745,106.525 46.75,100.23245 46.75,92.5 C46.75,84.76755 40.45745,78.475 32.725,78.475 C24.99255,78.475 18.7,84.76755 18.7,92.5 C18.7,100.23245 24.99255,106.525 32.725,106.525 Z M32.725,84.7083333 C37.0197667,84.7083333 40.5166667,88.2021167 40.5166667,92.5 C40.5166667,96.7978833 37.0197667,100.291667 32.725,100.291667 C28.4302333,100.291667 24.9333333,96.7978833 24.9333333,92.5 C24.9333333,88.2021167 28.4302333,84.7083333 32.725,84.7083333 Z" id="Shape" fill="#F1D8DE" fill-rule="nonzero"></path>
                    <circle id="Oval" fill="#F1D8DE" cx="155.833333" cy="87.825" r="3.11666667"></circle>
                    <circle id="Oval" fill="#F1D8DE" cx="143.366667" cy="87.825" r="3.11666667"></circle>
                    <circle id="Oval" fill="#F1D8DE" cx="162.066667" cy="97.175" r="3.11666667"></circle>
                    <circle id="Oval" fill="#F1D8DE" cx="149.6" cy="97.175" r="3.11666667"></circle>
                    <circle id="Oval" fill="#F1D8DE" cx="130.9" cy="87.825" r="3.11666667"></circle>
                    <circle id="Oval" fill="#F1D8DE" cx="137.133333" cy="97.175" r="3.11666667"></circle>
                    <circle id="Oval" fill="#F1D8DE" cx="118.433333" cy="87.825" r="3.11666667"></circle>
                    <circle id="Oval" fill="#F1D8DE" cx="124.666667" cy="97.175" r="3.11666667"></circle>
                    <circle id="Oval" fill="#F1D8DE" cx="105.966667" cy="87.825" r="3.11666667"></circle>
                    <circle id="Oval" fill="#F1D8DE" cx="112.2" cy="97.175" r="3.11666667"></circle>
                    <path d="M32.725,165.741667 C40.45745,165.741667 46.75,159.449117 46.75,151.716667 C46.75,143.984217 40.45745,137.691667 32.725,137.691667 C24.99255,137.691667 18.7,143.984217 18.7,151.716667 C18.7,159.449117 24.99255,165.741667 32.725,165.741667 Z M32.725,143.925 C37.0197667,143.925 40.5166667,147.418783 40.5166667,151.716667 C40.5166667,156.01455 37.0197667,159.508333 32.725,159.508333 C28.4302333,159.508333 24.9333333,156.01455 24.9333333,151.716667 C24.9333333,147.418783 28.4302333,143.925 32.725,143.925 Z" id="Shape" fill="#F1D8DE" fill-rule="nonzero"></path>
                    <circle id="Oval" fill="#F1D8DE" cx="155.833333" cy="147.041667" r="3.11666667"></circle>
                    <circle id="Oval" fill="#F1D8DE" cx="143.366667" cy="147.041667" r="3.11666667"></circle>
                    <circle id="Oval" fill="#F1D8DE" cx="162.066667" cy="156.391667" r="3.11666667"></circle>
                    <circle id="Oval" fill="#F1D8DE" cx="149.6" cy="156.391667" r="3.11666667"></circle>
                    <circle id="Oval" fill="#F1D8DE" cx="130.9" cy="147.041667" r="3.11666667"></circle>
                    <circle id="Oval" fill="#F1D8DE" cx="137.133333" cy="156.391667" r="3.11666667"></circle>
                    <circle id="Oval" fill="#F1D8DE" cx="118.433333" cy="147.041667" r="3.11666667"></circle>
                    <circle id="Oval" fill="#F1D8DE" cx="124.666667" cy="156.391667" r="3.11666667"></circle>
                    <circle id="Oval" fill="#F1D8DE" cx="105.966667" cy="147.041667" r="3.11666667"></circle>
                    <circle id="Oval" fill="#F1D8DE" cx="112.2" cy="156.391667" r="3.11666667"></circle>
                </g>
            </g>
        </g>
    </g>
</svg>