<?xml version="1.0" encoding="UTF-8"?>
<svg width="209px" height="248px" viewBox="0 0 209 248" version="1.1" xmlns="http://www.w3.org/2000/svg" xmlns:xlink="http://www.w3.org/1999/xlink">
    <!-- Generator: Sketch 52.5 (67469) - http://www.bohemiancoding.com/sketch -->
    <title>Group 15</title>
    <desc>Created with Sketch.</desc>
    <g id="desktop" stroke="none" stroke-width="1" fill="none" fill-rule="evenodd">
        <g id="aws" transform="translate(-1231.000000, -3988.000000)">
            <g id="Group-13" transform="translate(-91.000000, 958.000000)">
                <g id="Group-15" transform="translate(1469.017472, 3153.067725) rotate(-345.000000) translate(-1469.017472, -3153.067725) translate(1338.517472, 3029.567725)">
                    <g id="database" transform="translate(45.000000, 0.000000)" fill="#D8DBDF" fill-rule="nonzero">
                        <path d="M215.213333,36.7098039 C210.218039,18.2039216 173.038039,0 108,0 C42.9619608,0 5.77764706,18.2039216 0.786666667,36.7098039 C0.424313725,37.3439216 0.156862745,38.0384314 0.156862745,38.8235294 L0.156862745,40.9803922 L0.156862745,90.5882353 L0.156862745,92.745098 L0.156862745,94.9019608 L0.156862745,142.352941 L0.156862745,144.509804 L0.156862745,146.666667 L0.156862745,198.431373 C0.156862745,199.130196 0.342352941,199.790196 0.661568627,200.376863 C5.75607843,221.492549 51.334902,237.254902 108,237.254902 C164.535686,237.254902 210.041176,221.557255 215.303922,200.519216 C215.64902,199.902353 215.843137,199.190588 215.843137,198.431373 L215.843137,146.666667 L215.843137,144.509804 L215.843137,142.352941 L215.843137,94.9019608 L215.843137,92.745098 L215.843137,90.5882353 L215.843137,40.9803922 L215.843137,38.8235294 C215.843137,38.0384314 215.575686,37.3439216 215.213333,36.7098039 Z M206.874902,146.601961 C206.754118,147.123922 206.585882,147.641569 206.37451,148.167843 C206.201961,148.594902 205.990588,149.021961 205.757647,149.44902 C205.468627,149.979608 205.145098,150.510196 204.761176,151.040784 C204.476471,151.441961 204.152941,151.838824 203.816471,152.235686 C203.337647,152.800784 202.828627,153.365882 202.250588,153.926667 C201.901176,154.267451 201.517255,154.603922 201.12902,154.944706 C200.421569,155.561569 199.683922,156.174118 198.86,156.782353 C198.506275,157.04549 198.126667,157.3 197.751373,157.558824 C196.776471,158.231765 195.758431,158.900392 194.641176,159.556078 C194.347843,159.732941 194.032941,159.901176 193.726667,160.073725 C192.441176,160.798431 191.099608,161.518824 189.650196,162.217647 C189.464706,162.308235 189.270588,162.39451 189.080784,162.480784 C187.463137,163.244314 185.772157,163.994902 183.964706,164.719608 C183.912941,164.741176 183.861176,164.758431 183.809412,164.78 C174.012941,168.692549 161.481569,171.983922 146.879608,174.140784 C146.806275,174.149412 146.732941,174.158039 146.659608,174.17098 C143.821176,174.589412 140.909412,174.960392 137.92,175.288235 C137.432549,175.34 136.919216,175.37451 136.427451,175.426275 C133.817647,175.698039 131.177647,175.948235 128.46,176.146667 C127.217647,176.237255 125.914902,176.280392 124.65098,176.358039 C122.606275,176.478824 120.583137,176.612549 118.486667,176.685882 C115.061569,176.793725 111.567451,176.862745 108,176.862745 C104.432549,176.862745 100.938431,176.793725 97.5090196,176.672941 C95.412549,176.599608 93.3894118,176.461569 91.3447059,176.345098 C90.0807843,176.271765 88.7780392,176.224314 87.5356863,176.133725 C84.8180392,175.935294 82.1780392,175.685098 79.5682353,175.413333 C79.0764706,175.361569 78.5631373,175.327059 78.0756863,175.275294 C75.0862745,174.947451 72.1745098,174.572157 69.3360784,174.158039 C69.2627451,174.149412 69.1894118,174.140784 69.1160784,174.127843 C54.5141176,171.97098 41.9827451,168.679608 32.1862745,164.767059 C32.1345098,164.749804 32.0827451,164.728235 32.0309804,164.706667 C30.2235294,163.981961 28.5282353,163.231373 26.914902,162.467843 C26.7294118,162.377255 26.5309804,162.29098 26.3454902,162.204706 C24.8960784,161.505882 23.5545098,160.789804 22.2690196,160.060784 C21.9670588,159.888235 21.6478431,159.72 21.3545098,159.543137 C20.2372549,158.887451 19.2192157,158.218824 18.2443137,157.545882 C17.8733333,157.287059 17.4894118,157.032549 17.1356863,156.769412 C16.3117647,156.161176 15.5741176,155.548627 14.8666667,154.931765 C14.4827451,154.595294 14.0945098,154.258824 13.745098,153.913725 C13.1670588,153.352941 12.6580392,152.792157 12.1792157,152.222745 C11.8427451,151.825882 11.5192157,151.42902 11.2345098,151.027843 C10.854902,150.497255 10.5313725,149.966667 10.2380392,149.436078 C10.005098,149.00902 9.79803922,148.581961 9.62117647,148.154902 C9.40980392,147.632941 9.24156863,147.11098 9.12078431,146.58902 C8.96117647,145.903137 8.78431373,145.204314 8.78431373,144.509804 C8.78431373,144.022353 8.84039216,143.534902 8.91803922,143.051765 C9.02588235,142.400392 8.9654902,141.74902 8.78431373,141.132157 L8.78431373,109.107059 C8.90509804,109.219216 9.05607843,109.327059 9.18117647,109.439216 C10.1215686,110.267451 11.0792157,111.091373 12.1576471,111.885098 C28.407451,124.174902 60.9027451,133.72549 108,133.72549 C154.898824,133.72549 187.312157,124.252549 203.63098,112.036078 C204.933725,111.087059 206.107059,110.107843 207.211373,109.111373 L207.215686,109.107059 L207.215686,141.132157 C207.03451,141.74902 206.974118,142.400392 207.081961,143.051765 C207.163922,143.534902 207.215686,144.022353 207.215686,144.509804 C207.215686,145.204314 207.038824,145.903137 206.874902,146.601961 Z M207.215686,57.3423529 L207.215686,89.367451 C207.03451,89.9843137 206.974118,90.6356863 207.081961,91.2870588 C207.163922,91.7701961 207.215686,92.2576471 207.215686,92.745098 C207.215686,93.4396078 207.038824,94.1384314 206.874902,94.8372549 C206.754118,95.3592157 206.585882,95.8768627 206.37451,96.4031373 C206.201961,96.8301961 205.990588,97.2572549 205.757647,97.6843137 C205.468627,98.214902 205.145098,98.7454902 204.761176,99.2760784 C204.476471,99.6772549 204.152941,100.074118 203.816471,100.47098 C203.337647,101.036078 202.828627,101.601176 202.250588,102.161961 C201.901176,102.502745 201.517255,102.839216 201.12902,103.18 C200.421569,103.796863 199.683922,104.409412 198.86,105.017647 C198.506275,105.280784 198.126667,105.535294 197.751373,105.794118 C196.776471,106.467059 195.758431,107.135686 194.641176,107.791373 C194.347843,107.968235 194.032941,108.136471 193.726667,108.30902 C192.441176,109.033725 191.099608,109.754118 189.650196,110.452941 C189.464706,110.543529 189.270588,110.629804 189.080784,110.716078 C187.463137,111.479608 185.772157,112.230196 183.964706,112.954902 C183.912941,112.976471 183.861176,112.993725 183.809412,113.015294 C174.012941,116.927843 161.481569,120.219216 146.879608,122.376078 C146.806275,122.384706 146.732941,122.393333 146.659608,122.406275 C143.821176,122.824706 140.909412,123.195686 137.92,123.523529 C137.432549,123.575294 136.919216,123.609804 136.427451,123.661569 C133.817647,123.933333 131.177647,124.183529 128.46,124.381961 C127.217647,124.472549 125.914902,124.515686 124.65098,124.593333 C122.606275,124.714118 120.583137,124.847843 118.486667,124.921176 C115.061569,125.02902 111.567451,125.098039 108,125.098039 C104.432549,125.098039 100.938431,125.02902 97.5090196,124.908235 C95.412549,124.834902 93.3894118,124.696863 91.3447059,124.580392 C90.0807843,124.507059 88.7780392,124.459608 87.5356863,124.36902 C84.8180392,124.170588 82.1780392,123.920392 79.5682353,123.648627 C79.0764706,123.596863 78.5631373,123.562353 78.0756863,123.510588 C75.0862745,123.182745 72.1745098,122.807451 69.3360784,122.393333 C69.2627451,122.384706 69.1894118,122.376078 69.1160784,122.363137 C54.5141176,120.206275 41.9827451,116.914902 32.1862745,113.002353 C32.1345098,112.985098 32.0827451,112.963529 32.0309804,112.941961 C30.2235294,112.217255 28.5282353,111.466667 26.914902,110.703137 C26.7294118,110.612549 26.5309804,110.526275 26.3454902,110.44 C24.8960784,109.741176 23.5545098,109.025098 22.2690196,108.296078 C21.9670588,108.123529 21.6478431,107.955294 21.3545098,107.778431 C20.2372549,107.122745 19.2192157,106.454118 18.2443137,105.781176 C17.8733333,105.522353 17.4894118,105.267843 17.1356863,105.004706 C16.3117647,104.396471 15.5741176,103.783922 14.8666667,103.167059 C14.4827451,102.830588 14.0945098,102.494118 13.745098,102.14902 C13.1670588,101.588235 12.6580392,101.027451 12.1792157,100.458039 C11.8427451,100.061176 11.5192157,99.6643137 11.2345098,99.2631373 C10.854902,98.732549 10.5313725,98.2019608 10.2380392,97.6713725 C10.005098,97.2443137 9.79803922,96.8172549 9.62117647,96.3901961 C9.40980392,95.8682353 9.24156863,95.3462745 9.12078431,94.8243137 C8.96117647,94.1384314 8.78431373,93.4396078 8.78431373,92.745098 C8.78431373,92.2576471 8.84039216,91.7701961 8.91803922,91.2870588 C9.02588235,90.6356863 8.9654902,89.9843137 8.78431373,89.367451 L8.78431373,57.3423529 C9.30196078,57.812549 9.89294118,58.2741176 10.4537255,58.74 C10.7643137,58.9988235 11.0533333,59.2576471 11.3811765,59.5164706 C12.6752941,60.5345098 14.0729412,61.5396078 15.5870588,62.5188235 C15.9019608,62.7215686 16.2556863,62.92 16.5835294,63.1227451 C17.8517647,63.9121569 19.1933333,64.6843137 20.6039216,65.4435294 C21.1258824,65.7239216 21.6478431,66 22.1870588,66.2760784 C23.7615686,67.0784314 25.4137255,67.8592157 27.1521569,68.6141176 C27.4368627,68.7392157 27.6956863,68.8686275 27.9847059,68.9894118 C30.0078431,69.8478431 32.1560784,70.667451 34.3905882,71.4611765 C35.007451,71.6811765 35.6545098,71.8882353 36.2886275,72.1039216 C38.0658824,72.7035294 39.9035294,73.2772549 41.8058824,73.8337255 C42.4917647,74.0321569 43.1647059,74.2392157 43.8678431,74.4290196 C46.3913725,75.1278431 48.9968627,75.7921569 51.7317647,76.4047059 C52.1070588,76.4909804 52.512549,76.56 52.8921569,76.6419608 C55.3035294,77.1682353 57.8054902,77.6556863 60.3764706,78.1129412 C61.2478431,78.2682353 62.1321569,78.414902 63.0207843,78.5615686 C65.4666667,78.9627451 67.9858824,79.3294118 70.5698039,79.6658824 C71.2341176,79.7521569 71.8682353,79.8513725 72.5411765,79.9333333 C75.7505882,80.3215686 79.0721569,80.6537255 82.4843137,80.9384314 C83.3254902,81.007451 84.2011765,81.0592157 85.0552941,81.1196078 C87.7858824,81.3180392 90.5768627,81.4819608 93.432549,81.6113725 C94.4721569,81.6588235 95.507451,81.7062745 96.5686275,81.745098 C100.287059,81.8701961 104.07451,81.9607843 108,81.9607843 C111.92549,81.9607843 115.712941,81.8701961 119.431373,81.745098 C120.488235,81.7062745 121.523529,81.6588235 122.567451,81.6113725 C125.423137,81.4819608 128.214118,81.3180392 130.944706,81.1196078 C131.798824,81.054902 132.670196,81.007451 133.515686,80.9384314 C136.927843,80.6580392 140.249412,80.3215686 143.458824,79.9333333 C144.131765,79.8513725 144.765882,79.7521569 145.430196,79.6658824 C148.014118,79.3294118 150.52902,78.9627451 152.979216,78.5615686 C153.867843,78.414902 154.752157,78.2682353 155.623529,78.1129412 C158.19451,77.6556863 160.696471,77.1682353 163.107843,76.6419608 C163.487451,76.56 163.892941,76.4866667 164.268235,76.4047059 C167.003137,75.7921569 169.608627,75.1235294 172.132157,74.4290196 C172.835294,74.234902 173.508235,74.0321569 174.194118,73.8337255 C176.096471,73.2772549 177.934118,72.7035294 179.711373,72.1039216 C180.34549,71.8882353 180.992549,71.6811765 181.609412,71.4611765 C183.843922,70.667451 185.996471,69.8478431 188.015294,68.9894118 C188.304314,68.8686275 188.563137,68.7392157 188.847843,68.6141176 C190.586275,67.854902 192.238431,67.0784314 193.812941,66.2760784 C194.352157,66 194.878431,65.7239216 195.396078,65.4435294 C196.806667,64.6886275 198.148235,63.9164706 199.416471,63.1227451 C199.744314,62.92 200.098039,62.7215686 200.412941,62.5188235 C201.927059,61.5396078 203.324706,60.5388235 204.618824,59.5164706 C204.942353,59.2576471 205.231373,58.9988235 205.546275,58.74 C206.107059,58.2741176 206.698039,57.812549 207.215686,57.3423529 Z M108,8.62745098 C166.472549,8.62745098 207.215686,25.6752941 207.215686,40.9803922 C207.215686,56.2854902 166.472549,73.3333333 108,73.3333333 C49.527451,73.3333333 8.78431373,56.2854902 8.78431373,40.9803922 C8.78431373,25.6752941 49.527451,8.62745098 108,8.62745098 Z M207.215686,197.150196 C207.155294,197.34 207.112157,197.534118 207.077647,197.732549 C204.631765,212.653725 164.233725,228.627451 108,228.627451 C51.7662745,228.627451 11.3682353,212.653725 8.92235294,197.732549 C8.88784314,197.538431 8.84039216,197.348627 8.78431373,197.167451 L8.78431373,160.871765 C8.90509804,160.983922 9.05607843,161.091765 9.18117647,161.203922 C10.1215686,162.032157 11.0792157,162.856078 12.1576471,163.649804 C28.407451,175.939608 60.9027451,185.490196 108,185.490196 C154.898824,185.490196 187.312157,176.017255 203.63098,163.800784 C204.933725,162.851765 206.107059,161.872549 207.211373,160.876078 L207.215686,160.871765 L207.215686,197.150196 Z" id="Shape"></path>
                    </g>
                    <g id="remove" transform="translate(0.000000, 145.000000)">
                        <path d="M51,0 C22.8331146,0 0,22.8331146 0,51 C0,79.1668854 22.8331146,102 51,102 C79.1668854,102 102,79.1668854 102,51 C101.966537,22.8471222 79.1528778,0.0334625742 51,0 Z" id="Shape" fill="#FFFFFF" fill-rule="nonzero"></path>
                        <path d="M51,0 C22.8331146,0 0,22.8331146 0,51 C0,79.1668854 22.8331146,102 51,102 C79.1668854,102 102,79.1668854 102,51 C101.966537,22.8471222 79.1528778,0.0334625742 51,0 Z M51,95.625 C26.3544616,95.625 6.375,75.6455384 6.375,51 C6.375,26.3544616 26.3544616,6.375 51,6.375 C75.6455384,6.375 95.625,26.3544616 95.625,51 C95.5985414,75.6346436 75.6346436,95.5985414 51,95.625 Z" id="Shape" stroke="#F1D8DE" fill="#F1D8DE" fill-rule="nonzero"></path>
                        <path d="M75.7926178,26.2073822 C74.5475007,24.9630433 72.5296325,24.9630433 71.2852936,26.2073822 L51,46.4926758 L30.7147064,26.2073822 C29.4913787,24.9412536 27.4735107,24.9062347 26.2073822,26.1295623 C24.9412536,27.3521118 24.9062347,29.3699798 26.1295623,30.6361084 C26.1552428,30.662567 26.1809235,30.6890259 26.2073822,30.7147064 L46.4926758,51 L26.2073822,71.2852936 C24.9412536,72.5078431 24.9062347,74.5257111 26.1295623,75.7926178 C27.3521118,77.0587464 29.3699798,77.0937653 30.6361084,75.8704377 C30.662567,75.8447572 30.6890259,75.8190765 30.7147064,75.7926178 L51,55.5073242 L71.2852936,75.7926178 C72.5514222,77.0151673 74.5692902,76.9801483 75.7918395,75.7140199 C76.9848176,74.4790192 76.9848176,72.5202943 75.7918395,71.2852936 L55.5073242,51 L75.7926178,30.7147064 C77.0369567,29.4703675 77.0369567,27.4524993 75.7926178,26.2073822 Z" id="Path" stroke="#F1D8DE" fill="#F1D8DE"></path>
                    </g>
                </g>
            </g>
        </g>
    </g>
</svg>