<?xml version="1.0" encoding="UTF-8"?>
<svg width="318px" height="319px" viewBox="0 0 318 319" version="1.1" xmlns="http://www.w3.org/2000/svg" xmlns:xlink="http://www.w3.org/1999/xlink">
    <!-- Generator: Sketch 58 (84663) - https://sketch.com -->
    <title>Group 3</title>
    <desc>Created with Sketch.</desc>
    <defs>
        <rect id="path-1" x="40" y="40" width="215" height="215" rx="16"></rect>
        <filter x="-12.6%" y="-12.6%" width="125.1%" height="125.1%" filterUnits="objectBoundingBox" id="filter-3">
            <feMorphology radius="1.5" operator="dilate" in="SourceAlpha" result="shadowSpreadOuter1"></feMorphology>
            <feOffset dx="0" dy="0" in="shadowSpreadOuter1" result="shadowOffsetOuter1"></feOffset>
            <feGaussianBlur stdDeviation="8.5" in="shadowOffsetOuter1" result="shadowBlurOuter1"></feGaussianBlur>
            <feComposite in="shadowBlurOuter1" in2="SourceAlpha" operator="out" result="shadowBlurOuter1"></feComposite>
            <feColorMatrix values="0 0 0 0 0   0 0 0 0 0   0 0 0 0 0  0 0 0 0.147235577 0" type="matrix" in="shadowBlurOuter1"></feColorMatrix>
        </filter>
    </defs>
    <g id="desktop" stroke="none" stroke-width="1" fill="none" fill-rule="evenodd">
        <g id="cloud_security" transform="translate(-208.000000, -6427.000000)">
            <g id="Group-3" transform="translate(220.000000, 6439.000000)">
                <g id="Group-18">
                    <circle id="Oval" fill="#F1F1F1" cx="148" cy="148" r="128"></circle>
                    <mask id="mask-2" fill="white">
                        <use xlink:href="#path-1"></use>
                    </mask>
                    <g id="Rectangle" fill-rule="nonzero" transform="translate(147.500000, 147.500000) rotate(-30.000000) translate(-147.500000, -147.500000) ">
                        <use fill="black" fill-opacity="1" filter="url(#filter-3)" xlink:href="#path-1"></use>
                        <use stroke="#F1F1F1" stroke-width="3" fill="#FFFFFF" xlink:href="#path-1"></use>
                    </g>
                    <g id="api-(2)" mask="url(#mask-2)">
                        <g transform="translate(78.000000, 74.000000)">
                            <path d="M138.272884,88.2300174 L133.249474,85.3295723 C134.093074,81.1335172 134.520004,76.9317621 134.520004,72.817502 C134.520004,68.6433919 134.099914,64.4376468 133.270564,60.2928916 L138.272884,57.4047016 C139.822144,56.5103715 140.930509,55.0659915 141.393349,53.3380365 C141.856189,51.6100814 141.618784,49.8051764 140.724169,48.2559163 L127.044168,24.5613007 C126.149553,23.0120406 124.705458,21.9036756 122.977503,21.4408356 C121.249263,20.9779956 119.444643,21.2154006 117.895098,22.1100156 L112.888788,25.0004857 C106.564923,19.4370005 99.1224327,15.1312204 91.2000025,12.4522203 L91.2000025,6.69750018 C91.2000025,3.00447008 88.1955324,0 84.5025023,0 L57.1425016,0 C53.4494715,0 50.4450014,3.00447008 50.4450014,6.69750018 L50.4450014,12.4525053 C42.5647512,15.1206754 35.132521,19.4321555 28.7852858,25.0175857 L23.7496206,22.1100156 C22.2000756,21.2154006 20.3951706,20.9777106 18.6672155,21.4408356 C16.9392605,21.9039606 15.4951654,23.0120406 14.6005504,24.5613007 L0.920550025,48.2559163 C0.0259350007,49.8051764 -0.211470006,51.6100814 0.251370007,53.3380365 C0.714210019,55.0659915 1.82257505,56.5103715 3.37183509,57.4047016 L8.39524523,60.3051466 C7.55221521,64.5012018 7.12500019,68.7029569 7.12500019,72.817502 C7.12500019,76.9910421 7.54509021,81.1967872 8.37444023,85.3418273 L3.37212009,88.2300174 C0.173850005,90.0765324 -0.925680025,94.1805326 0.920550025,97.3790876 L14.6005504,121.073703 C16.4470654,124.271688 20.5510656,125.371503 23.7496206,123.524988 L28.7556458,120.634518 C35.079796,126.198003 42.5220012,130.503784 50.4450014,133.183069 L50.4450014,138.937504 C50.4450014,142.630534 53.4494715,145.635004 57.1425016,145.635004 L84.5025023,145.635004 C88.1955324,145.635004 91.2000025,142.630534 91.2000025,138.937504 L91.2000025,133.182499 C99.0805377,130.514329 106.512768,126.202848 112.860003,120.617703 L117.895383,123.524988 C121.093368,125.371503 125.197938,124.271688 127.044453,121.073703 L140.724454,97.3790876 C142.570684,94.1805326 141.471154,90.0765324 138.272884,88.2300174 Z" id="Shape" stroke="#121212" stroke-width="4" fill="#E6E9ED" fill-rule="nonzero"></path>
                            <circle id="Oval" stroke="none" fill="#1BB4C2" fill-rule="evenodd" cx="70.5" cy="71.5" r="40.5"></circle>
                            <path d="M70.8225019,29.6400008 C47.0141713,29.6400008 27.6450008,49.0094563 27.6450008,72.817502 C27.6450008,96.6255476 47.0141713,115.995003 70.8225019,115.995003 C94.6308326,115.995003 114.000003,96.6255476 114.000003,72.817502 C114.000003,49.0094563 94.6308326,29.6400008 70.8225019,29.6400008 Z M70.8225019,111.720003 C49.3716913,111.720003 31.9200009,94.2683126 31.9200009,72.817502 C31.9200009,51.3666914 49.3716913,33.9150009 70.8225019,33.9150009 C92.2733125,33.9150009 109.725003,51.3666914 109.725003,72.817502 C109.725003,94.2683126 92.2733125,111.720003 70.8225019,111.720003 Z" id="Shape" stroke="none" fill="#000000" fill-rule="nonzero"></path>
                            <path d="M78.8025021,61.5600017 L70.8225019,61.5600017 C69.6420319,61.5600017 68.6850019,62.5170317 68.6850019,63.6975017 L68.6850019,81.9375022 C68.6850019,83.1179723 69.6420319,84.0750023 70.8225019,84.0750023 C72.002972,84.0750023 72.960002,83.1179723 72.960002,81.9375022 L72.960002,77.2350021 L78.8025021,77.2350021 C83.1242423,77.2350021 86.6400024,73.719242 86.6400024,69.3975019 C86.6400024,65.0757618 83.1242423,61.5600017 78.8025021,61.5600017 Z M78.8025021,72.960002 L72.960002,72.960002 L72.960002,65.8350018 L78.8025021,65.8350018 C80.7670072,65.8350018 82.3650022,67.4329968 82.3650022,69.3975019 C82.3650022,71.3620069 80.7670072,72.960002 78.8025021,72.960002 Z" id="Shape" stroke="none" fill="#FFFFFF" fill-rule="nonzero"></path>
                            <path d="M59.1437716,62.9470967 C58.8308416,62.1129017 58.0334116,61.5600017 57.1425016,61.5600017 L54.8625015,61.5600017 C53.9715915,61.5600017 53.1738764,62.1126167 52.8612314,62.9470967 L46.0212313,81.1870972 C45.6065562,82.2923272 46.1668663,83.5243823 47.2720963,83.9390573 C48.3773263,84.3537323 49.6093813,83.7934223 50.0240564,82.6881922 L51.2136464,79.5150022 L60.7910717,79.5150022 L61.9809467,82.6879072 C62.3027117,83.5460423 63.1172417,84.0757903 63.9825017,84.0757903 C64.2318767,84.0757903 64.4855268,84.0316823 64.7326218,83.9390573 C65.8378518,83.5246673 66.3981618,82.2923272 65.9834868,81.1870972 L59.1437716,62.9470967 Z M52.8167714,75.240002 L56.0025015,66.7450068 L59.1882316,75.240002 L52.8167714,75.240002 Z" id="Shape" stroke="none" fill="#FFFFFF" fill-rule="nonzero"></path>
                            <path d="M91.3425025,61.5600017 C90.1620325,61.5600017 89.2050024,62.5170317 89.2050024,63.6975017 L89.2050024,81.9375022 C89.2050024,83.1179723 90.1620325,84.0750023 91.3425025,84.0750023 C92.5229725,84.0750023 93.4800025,83.1179723 93.4800025,81.9375022 L93.4800025,63.6975017 C93.4800025,62.5170317 92.5229725,61.5600017 91.3425025,61.5600017 Z" id="Path" stroke="none" fill="#FFFFFF" fill-rule="nonzero"></path>
                            <path d="M86.1133223,24.8805007 C87.5967474,25.3533157 89.0756124,25.9025107 90.5083075,26.5124107 C90.7813375,26.6286907 91.0651975,26.6836957 91.3444975,26.6836957 C92.1755575,26.6836957 92.9661475,26.1957757 93.3121375,25.3829557 C93.7744075,24.2968207 93.2688175,23.0413956 92.1826825,22.5791256 C90.6271525,21.9170706 89.0220324,21.3208506 87.4112124,20.8075656 C86.2868873,20.4490356 85.0841873,21.0703356 84.7256573,22.1949456 C84.3674123,23.3195556 84.9887123,24.5219707 86.1133223,24.8805007 Z" id="Path" stroke="none" fill="#000000" fill-rule="nonzero"></path>
                            <path d="M26.6332507,96.8726426 C26.0678107,95.8363826 24.7690657,95.4544826 23.7330906,96.0199226 C22.6968306,96.5853626 22.3149306,97.8838227 22.8803706,98.9200827 C23.7672906,100.545723 24.7491157,102.144858 25.7984857,103.673028 C26.2128757,104.276373 26.8817707,104.600703 27.5623507,104.600703 C27.9793058,104.600703 28.4005358,104.479008 28.7704658,104.225073 C29.7437408,103.556748 29.9908358,102.226083 29.3225108,101.253093 C28.3555058,99.8446227 27.4506307,98.3708877 26.6332507,96.8726426 Z" id="Path" stroke="none" fill="#000000" fill-rule="nonzero"></path>
                            <path d="M66.4449018,122.932188 C54.9910365,121.945233 44.1188562,116.981673 35.831341,108.955503 C34.983181,108.134133 33.6300009,108.156078 32.8089159,109.003953 C31.9878309,109.852113 32.0092059,111.205293 32.8573659,112.026378 C41.8491161,120.734553 53.6472615,126.120198 66.0778218,127.191228 C66.1402368,127.196643 66.2020818,127.199208 66.2636418,127.199208 C67.3611768,127.199208 68.2948369,126.358743 68.3908819,125.245248 C68.4920569,124.069338 67.6208118,123.033648 66.4449018,122.932188 Z" id="Path" stroke="none" fill="#000000" fill-rule="nonzero"></path>
                            <path d="M101.581128,27.7267958 C100.606428,27.0607507 99.2763327,27.3109807 98.6102877,28.2853958 C97.9442427,29.2600958 98.1944727,30.5901908 99.1688877,31.2562358 C109.099428,38.042941 116.282853,48.1419163 119.395908,59.6923966 C119.652978,60.6460066 120.515958,61.2741467 121.458453,61.2741467 C121.642563,61.2741467 121.829808,61.2502067 122.015913,61.2000467 C123.155913,60.8928167 123.830793,59.7197566 123.523563,58.5800416 C120.145743,46.0457413 112.352988,35.088631 101.581128,27.7267958 Z" id="Path" stroke="none" fill="#000000" fill-rule="nonzero"></path>
                        </g>
                    </g>
                </g>
                <g id="clouds"></g>
            </g>
        </g>
    </g>
</svg>