<?xml version="1.0" encoding="UTF-8"?>
<svg width="318px" height="319px" viewBox="0 0 318 319" version="1.1" xmlns="http://www.w3.org/2000/svg" xmlns:xlink="http://www.w3.org/1999/xlink">
    <!-- Generator: Sketch 58 (84663) - https://sketch.com -->
    <title>Group 3</title>
    <desc>Created with Sketch.</desc>
    <defs>
        <rect id="path-1" x="40" y="40" width="215" height="215" rx="16"></rect>
        <filter x="-12.6%" y="-12.6%" width="125.1%" height="125.1%" filterUnits="objectBoundingBox" id="filter-3">
            <feMorphology radius="1.5" operator="dilate" in="SourceAlpha" result="shadowSpreadOuter1"></feMorphology>
            <feOffset dx="0" dy="0" in="shadowSpreadOuter1" result="shadowOffsetOuter1"></feOffset>
            <feGaussianBlur stdDeviation="8.5" in="shadowOffsetOuter1" result="shadowBlurOuter1"></feGaussianBlur>
            <feComposite in="shadowBlurOuter1" in2="SourceAlpha" operator="out" result="shadowBlurOuter1"></feComposite>
            <feColorMatrix values="0 0 0 0 0   0 0 0 0 0   0 0 0 0 0  0 0 0 0.147235577 0" type="matrix" in="shadowBlurOuter1"></feColorMatrix>
        </filter>
    </defs>
    <g id="desktop" stroke="none" stroke-width="1" fill="none" fill-rule="evenodd">
        <g id="cloud_security" transform="translate(-912.000000, -5242.000000)">
            <g id="Group-3" transform="translate(924.000000, 5254.000000)">
                <g id="Group-16">
                    <circle id="Oval" fill="#F1F1F1" cx="150" cy="140" r="128"></circle>
                    <mask id="mask-2" fill="white">
                        <use xlink:href="#path-1"></use>
                    </mask>
                    <g id="Rectangle" fill-rule="nonzero" transform="translate(147.500000, 147.500000) rotate(-30.000000) translate(-147.500000, -147.500000) ">
                        <use fill="black" fill-opacity="1" filter="url(#filter-3)" xlink:href="#path-1"></use>
                        <use stroke="#F1F1F1" stroke-width="3" fill="#FFFFFF" xlink:href="#path-1"></use>
                    </g>
                    <g id="gear" mask="url(#mask-2)">
                        <g transform="translate(84.000000, 87.000000)">
                            <polygon id="Path" fill="#E6E9ED" fill-rule="nonzero" points="1.93999994 1.93999994 118.339996 1.93999994 118.339996 118.339996 1.93999994 118.339996"></polygon>
                            <circle id="Oval" fill="#F9D18B" fill-rule="nonzero" cx="102.819997" cy="106.699997" r="3.87999988"></circle>
                            <circle id="Oval" fill="#F9D18B" fill-rule="nonzero" cx="102.819997" cy="91.1799973" r="3.87999988"></circle>
                            <polygon id="Path" fill="#14649A" fill-rule="nonzero" points="1.93999994 1.93999994 118.339996 1.93999994 118.339996 25.2199992 1.93999994 25.2199992"></polygon>
                            <g id="Group" stroke-width="1" fill="none" fill-rule="evenodd" transform="translate(9.700000, 9.700000)">
                                <circle id="Oval" fill="#FFFFFF" fill-rule="nonzero" cx="3.87999988" cy="3.87999988" r="3.87999988"></circle>
                                <circle id="Oval" fill="#FFFFFF" fill-rule="nonzero" cx="19.3999994" cy="3.87999988" r="3.87999988"></circle>
                                <circle id="Oval" fill="#FFFFFF" fill-rule="nonzero" cx="34.9199989" cy="3.87999988" r="3.87999988"></circle>
                            </g>
                            <path d="M118.339996,120.279996 L1.93999994,120.279996 C0.869119974,120.279996 0,119.410876 0,118.339996 L0,1.93999994 C0,0.869119974 0.869119974,0 1.93999994,0 L118.339996,0 C119.410876,0 120.279996,0.869119974 120.279996,1.93999994 L120.279996,118.339996 C120.279996,119.410876 119.410876,120.279996 118.339996,120.279996 Z M3.87999988,116.399996 L116.399996,116.399996 L116.399996,3.87999988 L3.87999988,3.87999988 L3.87999988,116.399996 Z" id="Shape" fill="#000000" fill-rule="nonzero"></path>
                            <path d="M13.5799996,19.3999994 C10.3712397,19.3999994 7.75999977,16.7887595 7.75999977,13.5799996 C7.75999977,10.3712397 10.3712397,7.75999977 13.5799996,7.75999977 C16.7887595,7.75999977 19.3999994,10.3712397 19.3999994,13.5799996 C19.3999994,16.7887595 16.7887595,19.3999994 13.5799996,19.3999994 Z M13.5799996,11.6399996 C12.5110596,11.6399996 11.6399996,12.5110596 11.6399996,13.5799996 C11.6399996,14.6489396 12.5110596,15.5199995 13.5799996,15.5199995 C14.6489396,15.5199995 15.5199995,14.6489396 15.5199995,13.5799996 C15.5199995,12.5110596 14.6489396,11.6399996 13.5799996,11.6399996 Z" id="Shape" fill="#000000" fill-rule="nonzero"></path>
                            <path d="M29.0999991,19.3999994 C25.8912392,19.3999994 23.2799993,16.7887595 23.2799993,13.5799996 C23.2799993,10.3712397 25.8912392,7.75999977 29.0999991,7.75999977 C32.308759,7.75999977 34.9199989,10.3712397 34.9199989,13.5799996 C34.9199989,16.7887595 32.308759,19.3999994 29.0999991,19.3999994 Z M29.0999991,11.6399996 C28.0310592,11.6399996 27.1599992,12.5110596 27.1599992,13.5799996 C27.1599992,14.6489396 28.0310592,15.5199995 29.0999991,15.5199995 C30.1689391,15.5199995 31.0399991,14.6489396 31.0399991,13.5799996 C31.0399991,12.5110596 30.1689391,11.6399996 29.0999991,11.6399996 Z" id="Shape" fill="#000000" fill-rule="nonzero"></path>
                            <path d="M44.6199987,19.3999994 C41.4112388,19.3999994 38.7999988,16.7887595 38.7999988,13.5799996 C38.7999988,10.3712397 41.4112388,7.75999977 44.6199987,7.75999977 C47.8287586,7.75999977 50.4399985,10.3712397 50.4399985,13.5799996 C50.4399985,16.7887595 47.8287586,19.3999994 44.6199987,19.3999994 Z M44.6199987,11.6399996 C43.5510587,11.6399996 42.6799987,12.5110596 42.6799987,13.5799996 C42.6799987,14.6489396 43.5510587,15.5199995 44.6199987,15.5199995 C45.6889386,15.5199995 46.5599986,14.6489396 46.5599986,13.5799996 C46.5599986,12.5110596 45.6889386,11.6399996 44.6199987,11.6399996 Z" id="Shape" fill="#000000" fill-rule="nonzero"></path>
                            <polygon id="Path" fill="#000000" fill-rule="nonzero" points="1.93999994 23.2799993 118.339996 23.2799993 118.339996 27.1599992 1.93999994 27.1599992"></polygon>
                            <path d="M102.819997,112.519997 C99.611237,112.519997 96.9999971,109.908757 96.9999971,106.699997 C96.9999971,103.491237 99.611237,100.879997 102.819997,100.879997 C106.028757,100.879997 108.639997,103.491237 108.639997,106.699997 C108.639997,109.908757 106.028757,112.519997 102.819997,112.519997 Z M102.819997,104.759997 C101.751057,104.759997 100.879997,105.631057 100.879997,106.699997 C100.879997,107.768937 101.751057,108.639997 102.819997,108.639997 C103.888937,108.639997 104.759997,107.768937 104.759997,106.699997 C104.759997,105.631057 103.888937,104.759997 102.819997,104.759997 Z" id="Shape" fill="#000000" fill-rule="nonzero"></path>
                            <polygon id="Path" fill="#000000" fill-rule="nonzero" points="106.699997 104.759997 112.519997 104.759997 112.519997 108.639997 106.699997 108.639997"></polygon>
                            <polygon id="Path" fill="#000000" fill-rule="nonzero" points="73.7199978 104.759997 98.939997 104.759997 98.939997 108.639997 73.7199978 108.639997"></polygon>
                            <path d="M102.819997,96.9999971 C99.611237,96.9999971 96.9999971,94.3887572 96.9999971,91.1799973 C96.9999971,87.9712374 99.611237,85.3599974 102.819997,85.3599974 C106.028757,85.3599974 108.639997,87.9712374 108.639997,91.1799973 C108.639997,94.3887572 106.028757,96.9999971 102.819997,96.9999971 Z M102.819997,89.2399973 C101.751057,89.2399973 100.879997,90.1110573 100.879997,91.1799973 C100.879997,92.2489372 101.751057,93.1199972 102.819997,93.1199972 C103.888937,93.1199972 104.759997,92.2489372 104.759997,91.1799973 C104.759997,90.1110573 103.888937,89.2399973 102.819997,89.2399973 Z" id="Shape" fill="#000000" fill-rule="nonzero"></path>
                            <polygon id="Path" fill="#000000" fill-rule="nonzero" points="106.699997 89.2399973 112.519997 89.2399973 112.519997 93.1199972 106.699997 93.1199972"></polygon>
                            <polygon id="Path" fill="#000000" fill-rule="nonzero" points="81.4799975 89.2399973 98.939997 89.2399973 98.939997 93.1199972 81.4799975 93.1199972"></polygon>
                        </g>
                    </g>
                    <g id="shield-(3)" mask="url(#mask-2)" fill-rule="nonzero">
                        <g transform="translate(96.000000, 123.000000)">
                            <path d="M59.9999042,13.05576 C55.2058562,13.05576 51.5675522,10.250064 47.7149762,7.28006402 C43.2891361,3.86769601 38.2728961,0 30.8160001,0 C23.3591041,0 18.3428641,3.86769601 13.916736,7.28006402 C10.064448,10.250064 6.42600002,13.05576 1.63195201,13.05576 C0.783936003,13.05576 0.0959040003,13.743504 0.0959040003,14.591808 C0.0959040003,32.5262881 2.32948801,44.4682081 7.33824002,53.3125442 C12.311712,62.0948162 19.7151841,67.5565922 30.0479041,73.5222242 C30.2855041,73.6594562 30.5506081,73.7280002 30.8158561,73.7280002 C31.0811041,73.7280002 31.3462081,73.6593122 31.5838081,73.5222242 C41.9166721,67.5565922 49.3200002,62.0949602 54.2937602,53.3125442 C59.3022242,44.4682081 61.5358082,32.5262881 61.5358082,14.591808 C61.5358082,13.743504 60.8479202,13.05576 59.9999042,13.05576 Z" id="Shape" stroke="#000000" stroke-width="3" fill="#1BB4C2"></path>
                            <path d="M12.66768,17.5423681 C12.272256,16.7916961 11.343456,16.5036961 10.592784,16.8989761 C10.401984,16.9994881 10.208448,17.0981281 10.014336,17.1938881 C9.25329603,17.5685761 8.94009603,18.4893121 9.31464003,19.2504961 C9.58190403,19.7935201 10.127088,20.1081601 10.693872,20.1081601 C10.921536,20.1081601 11.153088,20.0574721 11.371248,19.9500481 C11.59056,19.8420481 11.80872,19.7307361 12.024,19.6174081 C12.774816,19.2218401 13.062816,18.2930401 12.66768,17.5423681 Z" id="Path" stroke="none" fill="#000000"></path>
                            <path d="M53.2200962,29.5871041 C53.2671842,29.5912801 53.3142722,29.5934401 53.3607842,29.5934401 C54.1461602,29.5934401 54.8164802,28.9941121 54.8886242,28.1963521 C54.9066242,28.0002241 54.9236162,27.8032321 54.9401762,27.6071041 C55.0118882,26.7616801 54.3846242,26.0184961 53.5392002,25.9467841 C52.6950722,25.8740641 51.9505922,26.5023361 51.8791682,27.3477601 C51.8630402,27.5375521 51.8464802,27.7280641 51.8290562,27.9181441 C51.7525922,28.7631361 52.3752482,29.5103521 53.2200962,29.5871041 Z" id="Path" stroke="none" fill="#000000"></path>
                            <path d="M15.7036321,17.0104321 C16.0149601,17.0104321 16.3294561,16.9159681 16.6013281,16.7194081 C17.4911041,16.0770241 18.3578401,15.4173601 19.1957761,14.779008 C23.1164641,11.793888 26.5023361,9.21571203 30.8160001,9.21571203 C31.6643041,9.21571203 32.3520481,8.52796803 32.3520481,7.67966403 C32.3520481,6.83164802 31.6643041,6.14361602 30.8160001,6.14361602 C25.4658241,6.14361602 21.5161921,9.15076803 17.3347201,12.334896 C16.5119041,12.961584 15.6611521,13.609296 14.803056,14.228784 C14.115024,14.725584 13.960368,15.6854881 14.45688,16.3732321 C14.75712,16.7893921 15.2269921,17.0104321 15.7036321,17.0104321 Z" id="Path" stroke="none" fill="#000000"></path>
                            <path d="M30.8160001,63.2576162 C26.8850881,60.8339522 22.1372641,57.5794082 18.5772961,53.3823842 C18.0286561,52.7352482 17.0592481,52.6559042 16.4124001,53.2042562 C15.7652641,53.7528962 15.6856321,54.7223042 16.2342721,55.3694402 C20.3241601,60.1918562 25.7497921,63.7823522 30.0193921,66.3717602 C30.0271681,66.3762242 30.0355201,66.3795362 30.0432961,66.3840002 C30.0801601,66.4053122 30.1178881,66.4238882 30.1563361,66.4421762 C30.1809601,66.4538402 30.2054401,66.4668002 30.2303521,66.4770242 C30.2649121,66.4911362 30.2999041,66.5022242 30.3354721,66.5138882 C30.3651361,66.5236802 30.3943681,66.5349122 30.4243201,66.5428322 C30.4564321,66.5513282 30.4891201,66.5563682 30.5215201,66.5627042 C30.5542081,66.5693282 30.5868961,66.5773922 30.6200161,66.5815682 C30.6665281,66.5876162 30.7131841,66.5890562 30.7604161,66.5909282 C30.7784161,66.5915042 30.7964161,66.5945282 30.8144161,66.5945282 C30.8149921,66.5945282 30.8155681,66.5945282 30.8160001,66.5945282 C30.8165761,66.5945282 30.8172961,66.5945282 30.8175841,66.5945282 C30.8355841,66.5945282 30.8535841,66.5915042 30.8715841,66.5909282 C30.9186721,66.5890562 30.9657601,66.5877602 31.0122721,66.5815682 C31.0449601,66.5773922 31.0770721,66.5693282 31.1094721,66.5629922 C31.1424481,66.5566562 31.1755681,66.5516162 31.2079681,66.5428322 C31.2376321,66.5350562 31.2668641,66.5239682 31.2960961,66.5143202 C31.3313761,66.5026562 31.3669441,66.4915682 31.4017921,66.4771682 C31.4267041,66.4670882 31.4508961,66.4541282 31.4755201,66.4423202 C31.5139681,66.4240322 31.5519841,66.4054562 31.5885601,66.3841442 C31.5967681,66.3796802 31.6046881,66.3763682 31.6124641,66.3719042 C35.8820641,63.7826402 41.3075521,60.1922882 45.3975842,55.3692962 C50.0614562,49.8683522 53.0012162,42.4242721 54.3844802,32.6113921 C54.5028482,31.7712961 53.9179202,30.9947041 53.0779682,30.8761921 C52.2370082,30.7579681 51.4609922,31.3427521 51.3424802,32.1827041 C50.0425922,41.4031681 47.3317922,48.3379202 43.0545601,53.3828162 C39.4950241,57.5794082 34.7476321,60.8339522 30.8160001,63.2576162 Z" id="Path" stroke="none" fill="#000000"></path>
                            <path d="M40.7292481,19.2160801 L24.7056481,35.2395361 L20.9034721,31.4369281 C19.9630081,30.4967521 18.7093441,29.9789281 17.3731681,29.9789281 C16.0367041,29.9789281 14.78304,30.4967521 13.842144,31.4372161 C11.896272,33.3842401 11.896272,36.5516641 13.84272,38.4981121 L21.1862881,45.8406722 L21.2499361,45.9033122 C21.2592961,45.9123842 21.2688001,45.9213122 21.2781601,45.9303842 L21.3426721,45.9904322 C21.3540481,46.0009442 21.3654241,46.0114562 21.3772321,46.0215362 L21.4433281,46.0794242 C21.4534081,46.0884962 21.4637761,46.0971362 21.4741441,46.1057762 L21.5411041,46.1612162 C21.5485921,46.1678402 21.5565121,46.1737442 21.5641441,46.1800802 L21.6322561,46.2346562 C21.6447841,46.2445922 21.6574561,46.2545282 21.6704161,46.2640322 L21.7402561,46.3165922 C21.7500481,46.3237922 21.7596961,46.3309922 21.7696321,46.3379042 L21.8397601,46.3880162 C21.8502721,46.3955042 21.8607841,46.4027042 21.8712961,46.4097602 L21.9427201,46.4581442 C21.9540961,46.4656322 21.9654721,46.4732642 21.9769921,46.4806082 L22.0492801,46.5268322 C22.0590721,46.5328802 22.0687201,46.5390722 22.0786561,46.5448322 L22.1519521,46.5891842 C22.1617441,46.5952322 22.1713921,46.6011362 22.1813281,46.6068962 L22.2550561,46.6490882 C22.2694561,46.6575842 22.2840001,46.6656482 22.2985441,46.6734242 L22.3735681,46.7133122 C22.3813441,46.7174882 22.3892641,46.7218082 22.3971841,46.7255522 L22.4727841,46.7642882 C22.4860321,46.7712002 22.4995681,46.7778242 22.5129601,46.7844482 L22.5894241,46.8207362 C22.6002241,46.8257762 22.6110241,46.8305282 22.6218241,46.8358562 L22.6608481,46.8532802 C22.6882081,46.8665282 22.7160001,46.8787682 22.7445121,46.8904322 L22.8225601,46.9222562 C22.8297601,46.9252802 22.8366721,46.9278722 22.8438721,46.9307522 L22.9222081,46.9612802 C22.9338721,46.9660322 22.9458241,46.9706402 22.9577761,46.9751042 L23.0374081,47.0040482 C23.0499361,47.0085122 23.0628961,47.0131202 23.0758561,47.0172962 L23.1143041,47.0302562 C23.1403681,47.0399042 23.1668641,47.0485442 23.1939361,47.0566082 L23.2738561,47.0809442 C23.2852321,47.0841122 23.2966081,47.0878562 23.3081281,47.0907362 L23.3887681,47.1133442 C23.3998561,47.1163682 23.4110881,47.1193922 23.4224641,47.1224162 L23.5036801,47.1431522 C23.5144801,47.1458882 23.5257121,47.1484802 23.5366561,47.1513602 L23.6178721,47.1699362 C23.6292481,47.1726722 23.6409121,47.1752642 23.6527201,47.1777122 L23.7339361,47.1944162 C23.7496321,47.1977282 23.7651841,47.2004642 23.7807361,47.2034882 L23.8209121,47.2104002 C23.8448161,47.2151522 23.8691521,47.2197602 23.8939201,47.2233602 L23.9758561,47.2358882 C23.9880961,47.2380482 24.0004801,47.2394882 24.0127201,47.2412162 L24.0952321,47.2517282 C24.1068961,47.2533122 24.1188481,47.2547522 24.1305121,47.2559042 L24.1695361,47.2600802 C24.1953121,47.2633922 24.2210881,47.2664162 24.2472961,47.2685762 L24.3303841,47.2754882 C24.3460801,47.2767842 24.3616321,47.2779362 24.3771841,47.2785122 L24.4162081,47.2806722 C24.4416961,47.2828322 24.4674721,47.2842722 24.4932481,47.2848482 L24.5763361,47.2875842 C24.5848321,47.2878722 24.5927521,47.2878722 24.6012481,47.2881602 L24.6837601,47.2893122 C24.6912481,47.2893122 24.6984481,47.2893122 24.7060801,47.2893122 C24.7135681,47.2893122 24.7207681,47.2893122 24.7284001,47.2893122 L24.8114881,47.2881602 C24.8199841,47.2878722 24.8279041,47.2878722 24.8364001,47.2875842 L24.9197761,47.2848482 C24.9455521,47.2842722 24.9713281,47.2826882 24.9968161,47.2806722 L25.0358401,47.2785122 C25.0518241,47.2776482 25.0676641,47.2766402 25.0836481,47.2753442 L25.1661601,47.2684322 C25.1919361,47.2662722 25.2174241,47.2636802 25.2429121,47.2602242 L25.2819361,47.2560482 C25.2933121,47.2548962 25.3046881,47.2536002 25.3159201,47.2521602 L25.3990081,47.2413602 C25.4119681,47.2397762 25.4247841,47.2380482 25.4374561,47.2360322 L25.5193921,47.2235042 C25.5445921,47.2196162 25.5697921,47.2150082 25.5944161,47.2099682 L25.6337281,47.2030562 C25.6491361,47.2006082 25.6642561,47.1977282 25.6793761,47.1942722 L25.7603041,47.1775682 C25.7708161,47.1754082 25.7813281,47.1733922 25.7918401,47.1709442 L25.8737761,47.1520802 C25.8867361,47.1490562 25.8995521,47.1460322 25.9125121,47.1427202 L25.9931521,47.1219842 C26.0039521,47.1192482 26.0144641,47.1163682 26.0249761,47.1132002 L26.1053281,47.0907362 C26.1164161,47.0877122 26.1277921,47.0844002 26.1385921,47.0810882 L26.2186561,47.0567522 C26.2438561,47.0489762 26.2690561,47.0407682 26.2936801,47.0318402 L26.3332801,47.0188802 C26.3473921,47.0141282 26.3615041,47.0092322 26.3754721,47.0041922 L26.4551041,46.9752482 C26.4670561,46.9707842 26.4790081,46.9661762 26.4906721,46.9614242 L26.5690081,46.9308962 C26.5777921,46.9275842 26.5864321,46.9239842 26.5950721,46.9203842 L26.6725441,46.8885602 C26.6974561,46.8784802 26.7219361,46.8672482 26.7461281,46.8558722 L26.7860161,46.8381602 C26.7989761,46.8325442 26.8117921,46.8264962 26.8247521,46.8204482 L26.9009281,46.7841602 C26.9110081,46.7794082 26.9213761,46.7742242 26.9314561,46.7690402 L27.0070561,46.7308802 C27.0313921,46.7186402 27.0555841,46.7056802 27.0790561,46.6921442 L27.1183681,46.6711202 C27.1294561,46.6650722 27.1406881,46.6588802 27.1513441,46.6525442 L27.2256481,46.6103522 C27.2376001,46.6034402 27.2492641,46.5965282 27.2609281,46.5893282 L27.3342241,46.5449762 C27.3456001,46.5380642 27.3569761,46.5308642 27.3684961,46.5236642 L27.4404961,46.4774402 C27.4487041,46.4724002 27.4566241,46.4669282 27.4644001,46.4614562 L27.5364001,46.4133602 C27.5486401,46.4048642 27.5610241,46.3966562 27.5729761,46.3878722 L27.6431041,46.3377602 C27.6550561,46.3292642 27.6670081,46.3207682 27.6786721,46.3116962 L27.7479361,46.2591362 C27.7564321,46.2525122 27.7646401,46.2461762 27.7731361,46.2396962 L27.8412481,46.1856962 C27.8592481,46.1715842 27.8768161,46.1567522 27.8943841,46.1419202 L27.9331201,46.1098082 C27.9466561,46.0987202 27.9601921,46.0873442 27.9730081,46.0758242 L28.0388161,46.0176482 C28.0476001,46.0101602 28.0558081,46.0025282 28.0643041,45.9948962 L28.1291041,45.9348482 C28.1387521,45.9260642 28.1479681,45.9171362 28.1573281,45.9080642 L28.2209761,45.8462882 C28.2350881,45.8327522 28.2486241,45.8189282 28.2618721,45.8051042 L47.7911522,26.2761121 C49.7373122,24.3290881 49.7367362,21.1616641 47.7900002,19.2157921 C46.8498242,18.2756161 45.5961602,17.7577921 44.2599841,17.7577921 C42.9235201,17.7577921 41.6697121,18.2757601 40.7292481,19.2160801 Z" id="Shape" stroke="#000000" stroke-width="3.3" fill="#FFD800"></path>
                        </g>
                    </g>
                </g>
                <g id="clouds"></g>
            </g>
        </g>
    </g>
</svg>