<?xml version="1.0" encoding="UTF-8"?>
<svg width="236px" height="243px" viewBox="0 0 236 243" version="1.1" xmlns="http://www.w3.org/2000/svg" xmlns:xlink="http://www.w3.org/1999/xlink">
    <!-- Generator: Sketch 58 (84663) - https://sketch.com -->
    <title>Group 3</title>
    <desc>Created with Sketch.</desc>
    <defs>
        <circle id="path-1" cx="111.149997" cy="111.149997" r="111.149997"></circle>
    </defs>
    <g id="desktop" stroke="none" stroke-width="1" fill="none" fill-rule="evenodd">
        <g id="cloud_security" transform="translate(-251.000000, -1270.000000)">
            <g id="Group-21" transform="translate(253.000000, 441.000000)">
                <g id="Group-26" transform="translate(0.000000, 831.000000)">
                    <g id="Group-3">
                        <g id="Group-2" transform="translate(11.700000, 1.800000)">
                            <mask id="mask-2" fill="white">
                                <use xlink:href="#path-1"></use>
                            </mask>
                            <use id="Oval" fill="#FF5045" xlink:href="#path-1"></use>
                            <circle id="Oval" fill="#FF726C" mask="url(#mask-2)" cx="91.5958309" cy="85.4208311" r="111.149997"></circle>
                            <path d="M29.6999992,165.599996 C43.1009754,167.404009 56.7375717,172.238829 70.6097882,180.104453 C84.4820046,187.970078 96.4335912,199.136875 106.464548,213.604843" id="Path-3" stroke="#FFFFFF" stroke-width="3.5999999" stroke-linecap="round" mask="url(#mask-2)" transform="translate(68.082274, 189.602419) scale(-1, -1) translate(-68.082274, -189.602419) "></path>
                            <g id="protect" opacity="0.5" mask="url(#mask-2)" fill="#000000" fill-rule="nonzero">
                                <g transform="translate(96.299997, 108.899997)">
                                    <path d="M66.6071989,14.4143998 C66.6071989,13.6397248 66.0472302,12.9788998 65.2836926,12.8520561 L61.9003677,12.2877561 C51.9279741,10.6257935 42.3818993,6.54142489 34.2935994,0.475199992 C33.7305368,0.0525937095 32.955862,0.0525937095 32.3927994,0.475199992 C24.3044996,6.54142489 14.7584247,10.6257935 4.78603121,12.2877561 L1.40270627,12.8520561 C0.6391687,12.9788998 0.0791999987,13.6397248 0.0791999987,14.4143998 L0.0791999987,26.4527996 C0.0791999987,42.857718 4.78169992,58.449599 16.3783123,70.1414988 C24.4697059,78.29848 32.500462,81.0630549 32.8382994,81.176286 C33.0016494,81.2319736 33.1724244,81.2591986 33.3431994,81.2591986 C33.5133557,81.2591986 33.6841307,81.2313549 33.8480994,81.176286 C34.1859368,81.0630549 42.216693,78.29848 50.3074679,70.1414988 C61.9065552,58.4477427 66.6071989,42.8546243 66.6071989,26.4527996 L66.6071989,14.4143998 Z M63.4391989,26.4527996 C63.4391989,43.6064055 58.3017177,57.5171427 48.1696866,67.7982926 C41.7179806,74.3452862 35.178412,77.251555 33.3431994,77.9822987 C31.505512,77.2503174 24.9671809,74.34343 18.5167123,67.7982926 C8.38468115,57.5171427 3.24719994,43.6064055 3.24719994,26.4527996 L3.24719994,15.7558497 L5.30701862,15.4130623 C15.3895497,13.7325372 25.0575183,9.69333726 33.3431994,3.70878736 C41.6288806,9.69333726 51.2962304,13.7325372 61.3793802,15.4130623 L63.4391989,15.7558497 L63.4391989,26.4527996 Z" id="Shape"></path>
                                    <path d="M8.60124356,35.8379994 C9.17791855,35.6003994 9.58319984,35.0330057 9.58319984,34.3727994 C9.58319984,33.5900807 9.01456856,32.9391557 8.26835615,32.812312 C8.18111244,32.7968432 8.09077486,32.7887994 7.99919986,32.7887994 C7.12490617,32.7887994 6.41519989,33.4985057 6.41519989,34.3727994 C6.41519989,35.2470931 7.12490617,35.9567994 7.99919986,35.9567994 C8.21328728,35.9567994 8.41561857,35.9134868 8.60124356,35.8379994 Z" id="Path"></path>
                                    <path d="M58.9903864,18.1992934 C50.2561117,16.495256 41.6864243,13.0191185 34.208212,8.14522486 C33.6822744,7.80243729 33.0035057,7.80243729 32.4781869,8.14522486 C24.9213933,13.0729498 16.5831184,16.455656 7.69415616,18.1999123 C6.9510373,18.3453184 6.41519989,18.9968623 6.41519989,19.7542122 C6.41519989,19.7542122 6.42014989,27.5535558 6.43128731,28.0702121 C6.44923118,28.9333682 7.15460617,29.6207995 8.01466857,29.6207995 C8.02580615,29.6207995 8.03694357,29.6207995 8.04808115,29.6201808 C8.92299356,29.6022369 9.61723113,28.8776808 9.59866855,28.0033869 C9.58814984,27.5096245 9.58319984,21.0455434 9.58319984,21.0455434 C18.0588371,19.2288934 26.0413308,15.973031 33.3438181,11.3540624 C40.583193,15.9247684 48.7513118,19.2561184 57.103199,21.0467809 L57.103199,26.4527996 C57.103199,50.1942366 45.4168679,65.3703176 33.3357744,71.1389238 C23.4227809,66.3924926 14.2145435,55.2191054 10.9716748,40.2125619 C10.7866685,39.3574493 9.94454983,38.8148056 9.08819985,38.999193 C8.23370615,39.1835806 7.68982487,40.0269367 7.87483116,40.8820493 C11.4561561,57.4534116 21.9414933,69.5833862 32.6966057,74.3322924 C32.9007932,74.4220113 33.1185931,74.46718 33.3363931,74.46718 C33.5566681,74.46718 33.7769431,74.4213924 33.9823681,74.3298174 C47.6827305,68.2153301 60.271199,51.5363054 60.271199,26.4527996 L60.271199,19.7542122 C60.271199,18.9956247 59.734124,18.344081 58.9903864,18.1992934 Z" id="Path"></path>
                                    <path d="M33.3431994,39.1247993 C30.7227932,39.1247993 28.5911995,41.256393 28.5911995,43.8767993 C28.5911995,46.4972055 30.7227932,48.6287992 33.3431994,48.6287992 C35.9636057,48.6287992 38.0951994,46.4972055 38.0951994,43.8767993 C38.0951994,41.256393 35.9636057,39.1247993 33.3431994,39.1247993 Z M33.3431994,45.4607992 C32.4695244,45.4607992 31.7591995,44.7498555 31.7591995,43.8767993 C31.7591995,43.0031243 32.4695244,42.2927993 33.3431994,42.2927993 C34.2168744,42.2927993 34.9271994,43.0031243 34.9271994,43.8767993 C34.9271994,44.7498555 34.2162557,45.4607992 33.3431994,45.4607992 Z" id="Shape"></path>
                                    <path d="M33.3431994,23.2847996 C28.9760621,23.2847996 25.4231996,26.8376621 25.4231996,31.2047995 L25.4231996,32.7887994 L23.8391996,32.7887994 C22.964287,32.7887994 22.2551996,33.4978869 22.2551996,34.3727994 L22.2551996,53.3807991 C22.2551996,54.2557117 22.964287,54.9647991 23.8391996,54.9647991 L42.8471993,54.9647991 C43.7221118,54.9647991 44.4311992,54.2557117 44.4311992,53.3807991 L44.4311992,34.3727994 C44.4311992,33.4978869 43.7221118,32.7887994 42.8471993,32.7887994 L41.2631993,32.7887994 L41.2631993,31.2047995 C41.2631993,26.8376621 37.7103368,23.2847996 33.3431994,23.2847996 Z M28.5911995,31.2047995 C28.5911995,28.5843932 30.7227932,26.4527996 33.3431994,26.4527996 C35.9636057,26.4527996 38.0951994,28.5843932 38.0951994,31.2047995 L38.0951994,32.7887994 L28.5911995,32.7887994 L28.5911995,31.2047995 Z M41.2631993,51.7967991 L25.4231996,51.7967991 L25.4231996,35.9567994 L41.2631993,35.9567994 L41.2631993,51.7967991 Z" id="Shape"></path>
                                </g>
                            </g>
                        </g>
                        <g id="Group" stroke="#000000" stroke-width="3.5999999">
                            <path d="M0.0638720244,120.610164 C0.021402497,121.893748 0,123.182678 0,124.476618 C0,187.747827 51.1738517,239.039276 114.299997,239.039276 L114.299997,239.039276 C177.426142,239.039276 228.599994,187.747827 228.599994,124.476618 C228.599994,61.2054094 177.426142,9.91396039 114.299997,9.91396039 C113.204979,9.91396039 112.113558,9.92939404 111.025939,9.96005614" id="Path" stroke-linecap="round"></path>
                            <path d="M110.972888,0.47142796 L110.972888,21.0908464 C110.972888,21.2399633 110.852004,21.3608464 110.702888,21.3608464 C110.654856,21.3608464 110.607695,21.3480337 110.566266,21.3237297 L92.992422,11.0140205 C92.8638041,10.9385667 92.8207061,10.7731339 92.8961599,10.644516 C92.9194985,10.6047332 92.9526393,10.5715924 92.992422,10.5482538 L110.566266,0.238544625 C110.694884,0.163090828 110.860317,0.206188859 110.935771,0.334806774 C110.960075,0.376235113 110.972888,0.423396824 110.972888,0.47142796 Z" id="Path-2"></path>
                        </g>
                        <path d="M35.0999991,61.5599984 L40.8599989,61.5599984 C54.540067,61.5599984 61.3799984,56.7600465 61.3799984,47.1599988 C61.3799984,43.3199797 60.1500107,40.2600103 57.6899985,37.979999 C55.2299862,35.6999877 51.960019,34.5599991 47.8799987,34.5599991 L47.8799987,34.5599991 C39.5999576,34.5599991 35.0400033,38.9999546 34.1999991,47.8799987 L4.31999989,47.8799987 C4.31999989,35.2799361 8.36995928,25.5300338 16.4699996,18.6299995 C24.5700398,11.7299652 35.3399319,8.27999978 48.7799987,8.27999978 C62.2200656,8.27999978 72.6599609,11.5799667 80.0999979,18.1799995 C87.5400349,24.7800323 91.2599976,33.1799481 91.2599976,43.3799989 C91.2599976,51.4200388 89.3100171,57.9599733 85.4099977,62.9999983 C81.5099783,68.0400234 77.5200183,71.3999897 73.4399981,73.0799981 L73.4399981,73.799998 C86.8800649,78.9600237 93.5999975,89.3399196 93.5999975,104.939997 C93.5999975,116.700056 89.6700369,125.969963 81.8099978,132.749996 C73.9499587,139.53003 63.0900676,142.919996 49.2299987,142.919996 C35.3699298,142.919996 24.0600432,139.380032 15.2999996,132.299996 C6.53995603,125.219961 2.15999994,114.660067 2.15999994,100.619997 L32.0399992,100.619997 C32.1599999,105.900024 33.6599847,110.069982 36.539999,113.129997 C39.4200134,116.190012 43.4099734,117.719997 48.5099987,117.719997 C53.6100241,117.719997 57.4499856,116.340011 60.0299984,113.579997 C62.6100112,110.819983 63.8999983,106.890023 63.8999983,101.789997 C63.8999983,96.6899719 62.1000164,92.8800101 58.4999985,90.3599976 C54.8999805,87.8399851 49.0200395,86.5799977 40.8599989,86.5799977 L35.0999991,86.5799977" id="Path" stroke="#000000" stroke-width="3.5999999" fill-rule="nonzero"></path>
                    </g>
                </g>
            </g>
        </g>
    </g>
</svg>