<svg width="184" height="259" xmlns="http://www.w3.org/2000/svg"><g fill-rule="nonzero" fill="none" opacity=".11"><path d="M183.95 12.518c-64.57-30.11-141.323-2.174-171.432 62.396-30.11 64.57-2.174 141.322 62.396 171.431 64.573 30.02 141.26 2.108 171.431-62.396 30.11-64.57 2.174-141.322-62.396-171.431zM79.456 236.603c-59.19-27.6-84.797-97.957-57.197-157.146 27.6-59.19 97.957-84.797 157.146-57.197 59.13 27.655 84.717 97.954 57.197 157.146-27.6 59.19-97.957 84.797-157.146 57.197z" fill="#42566C"/><path d="M172.591 36.875C121.474 13.038 60.711 35.154 36.875 86.27c-23.837 51.118-1.721 111.88 49.396 135.717 51.121 23.77 111.835 1.671 135.717-49.397 23.837-51.117 1.721-111.88-49.397-135.716zm-81.776 175.37c-45.737-21.327-65.525-75.694-44.197-121.43 21.327-45.737 75.693-65.525 121.43-44.197 45.692 21.368 65.464 75.691 44.197 121.43-21.327 45.737-75.693 65.525-121.43 44.197z" fill="#42566C"/><path d="M158.66 143.06a26.875 26.875 0 0 0 18.829-14.942c6.273-13.452.453-29.442-13-35.714L125.52 74.23a5.375 5.375 0 0 0-7.143 2.6L82.03 154.774a5.375 5.375 0 0 0 2.6 7.143l38.971 18.172a26.877 26.877 0 0 0 24.03-.656c13.089-6.998 18.027-23.283 11.029-36.372zm-32.813-56.815l34.1 15.901c8.07 3.764 11.563 13.358 7.8 21.43-3.764 8.07-13.359 11.562-21.43 7.799l-34.1-15.901 13.63-29.229zm2.298 84.101l-34.1-15.9 13.629-29.23 34.1 15.902c8.071 3.763 11.563 13.358 7.8 21.429-3.764 8.07-13.358 11.563-21.43 7.8z" fill="#E83F67"/><path fill="#E83F67" d="M142.076 64.16l9.743 4.543-9.086 19.486-9.743-4.543zM161.562 73.246l9.743 4.543-9.087 19.486-9.743-4.543zM96.645 161.588l9.742 4.543-9.086 19.486-9.743-4.543zM116.13 170.674l9.743 4.543-9.086 19.486-9.743-4.543z"/><path fill="#42566C" d="M63.503 92.758l9.743 4.543-4.543 9.743-9.743-4.543z"/></g></svg>