<?xml version="1.0" encoding="UTF-8"?>
<svg width="69px" height="67px" viewBox="0 0 69 67" version="1.1" xmlns="http://www.w3.org/2000/svg" xmlns:xlink="http://www.w3.org/1999/xlink">
    <!-- Generator: Sketch 50.2 (55047) - http://www.bohemiancoding.com/sketch -->
    <title>piggy-bank</title>
    <desc>Created with Sketch.</desc>
    <defs></defs>
    <g id="Page-1" stroke="none" stroke-width="1" fill="none" fill-rule="evenodd">
        <g id="Large-Device-Desktops" transform="translate(-246.000000, -585.000000)" fill-rule="nonzero">
            <g id="Group-7" transform="translate(247.000000, 586.000000)">
                <g id="piggy-bank">
                    <path d="M55.2884785,34.3921215 C54.7499922,34.3921215 54.3134453,34.8240737 54.3134453,35.3568924 C54.3134453,36.0324004 53.7580781,36.5819223 53.0753848,36.5819223 C52.3928223,36.5819223 51.8373242,36.0324004 51.8373242,35.3568924 C51.8373242,34.8239442 51.4007773,34.3921215 50.862291,34.3921215 C50.3238047,34.3921215 49.8872578,34.8240737 49.8872578,35.3568924 C49.8872578,37.0963546 51.3175508,38.5114641 53.0753848,38.5114641 C54.8332187,38.5114641 56.2635117,37.0962251 56.2635117,35.3568924 C56.2635117,34.8238147 55.8269648,34.3921215 55.2884785,34.3921215 Z" id="Shape" stroke="#42566C" stroke-width="0.3" fill="#42566C"></path>
                    <path d="M64.4409141,34.5497012 L61.6965313,33.6798406 C61.345043,33.5683566 61.0680137,33.290747 60.9556055,32.9371315 C60.377207,31.1175199 59.504375,29.4092629 58.3613184,27.8596215 C57.8403672,27.1532968 57.2610527,26.4788247 56.6282168,25.8367231 C57.0330957,24.0792629 57.2532012,22.0902888 57.2246738,20.3719323 C57.1838457,17.9137151 56.6873652,16.4719323 55.7069668,15.9638446 C55.1789492,15.6898606 53.5719961,14.8575498 44.874166,18.7971713 C44.6681934,18.8903984 44.4758301,19.005249 44.2977305,19.1368028 C43.7113496,18.9809064 43.1120137,18.8366633 42.5090137,18.7071813 C42.4363867,18.6915139 42.3615352,18.6776594 42.2883848,18.6623805 C42.9931934,17.1388944 43.4047461,15.484243 43.482084,13.7761155 C43.5061621,13.2436853 43.0896367,12.7928287 42.551543,12.7691335 C42.0148887,12.7427191 41.5577969,13.1573207 41.5338496,13.689751 C41.4067852,16.4983466 40.2293125,19.1409462 38.2185273,21.1306972 C37.0171074,22.3194721 35.6103691,23.182988 34.1111133,23.7268127 C31.5110684,23.3658167 28.8627363,23.3658167 26.2626914,23.7268127 C24.7633047,23.182988 23.3566973,22.3194721 22.1552773,21.1306972 C20.0099688,19.0079681 18.8284395,16.1856474 18.8284395,13.1836056 C18.8284395,10.1814343 20.0099688,7.35924303 22.1552773,5.23651394 C24.3005859,3.11365538 27.1530586,1.94456175 30.1869023,1.94456175 C33.2207461,1.94456175 36.0732188,3.11365538 38.2185273,5.23651394 C39.0806289,6.08954183 39.7930273,7.06298805 40.3359629,8.12953187 C40.5781836,8.60550797 41.1645645,8.79714143 41.6454727,8.55734064 C42.1265117,8.3177988 42.3200527,7.73758964 42.077832,7.26174303 C41.4414629,6.0110757 40.6069727,4.87072709 39.5976543,3.87190239 C37.0839766,1.38468127 33.7418281,0.0148904382 30.1870332,0.0148904382 C26.6322383,0.0148904382 23.2900898,1.38468127 20.7764121,3.87190239 C18.2627344,6.35925299 16.878373,9.66609562 16.878373,13.1834761 C16.878373,16.7008566 18.2627344,20.0078287 20.7764121,22.4950498 C21.5015039,23.21251 22.2903242,23.829492 23.1246836,24.3463845 C23.1249453,24.3463845 23.125207,24.346255 23.1254688,24.346255 C22.5191973,24.5021514 21.9175059,24.6772112 21.3224883,24.8740239 C20.8117441,25.042998 20.5361543,25.5895418 20.7069258,26.0950398 C20.8775664,26.6004084 21.4301855,26.8730976 21.9407988,26.704253 C27.2584004,24.945239 33.115666,24.945239 38.4332676,26.704253 C38.5358613,26.7381773 38.6400254,26.7542331 38.7424883,26.7542331 C39.150377,26.7542331 39.5306543,26.4988944 39.6671406,26.0950398 C39.8379121,25.5896713 39.5623223,25.042998 39.0515781,24.8740239 C38.4565605,24.6772112 37.8548691,24.5020219 37.2485977,24.346255 C37.2488594,24.346255 37.2491211,24.3463845 37.2493828,24.3463845 C38.083873,23.829492 38.8725625,23.21251 39.5976543,22.4950498 C40.239127,21.8603287 40.8053555,21.1672112 41.2969941,20.4305876 C41.5657793,20.482251 41.8326016,20.5363745 42.095498,20.5928287 C42.4456777,20.6680578 42.7942871,20.7488546 43.1397559,20.8336653 C43.1288945,20.8756175 43.1177715,20.9174402 43.1087422,20.9600398 C42.6331992,23.1929582 42.664082,25.1678187 43.2004746,26.8294622 C43.6825605,28.3230378 44.5526445,29.5330478 45.7862559,30.4260857 C47.2402344,31.4785159 48.995582,31.9331275 50.5856543,31.9331275 C51.7823633,31.9331275 52.8856387,31.6754582 53.6959199,31.2213645 C54.612459,30.7077092 55.3803418,29.6253685 55.9881836,28.0003685 C56.2691387,28.3248506 56.5354375,28.6572311 56.7864258,28.99751 C57.8041191,30.377012 58.5810313,31.8973904 59.0955703,33.5161753 C59.3977246,34.4669622 60.1478105,35.2151096 61.1019063,35.5177092 L63.8462891,36.3875697 C64.5664082,36.6158466 65.0501953,37.2716733 65.0501953,38.0198207 L65.0501953,42.5225598 C65.0501953,43.2707072 64.5664082,43.9265339 63.8462891,44.1548108 L59.4246816,45.5561952 C58.7172559,45.7805876 58.1185742,46.2616135 57.7389512,46.9108367 C56.001793,49.8814143 53.270627,52.3396315 49.6208281,54.217251 C49.1991992,54.4343924 48.9071211,54.8227092 48.8191836,55.2828884 L47.4030234,62.7025996 C47.3638965,62.9070518 47.182918,63.0553088 46.972627,63.0553088 L42.3680781,63.0553088 C42.1577871,63.0553088 41.9768086,62.9069223 41.9376816,62.7025996 L41.1533105,58.6020319 C40.9988965,57.7952291 40.2341543,57.2593028 39.4110488,57.3826992 C37.4276133,57.6794721 35.3838516,57.8298008 33.3368184,57.8298008 C31.813877,57.8298008 30.3104336,57.7457669 28.8679707,57.5799004 C28.0703828,57.4891335 27.3273633,58.0271315 27.1783145,58.8063546 L26.4329395,62.7025996 C26.3938125,62.9070518 26.212834,63.0553088 26.002543,63.0553088 L21.3979941,63.0553088 C21.1877031,63.0553088 21.0067246,62.9069223 20.9670742,62.699492 L19.6035195,55.6916633 C19.5157129,55.2401594 19.2291309,54.856245 18.816793,54.6383267 C12.5952148,51.3519422 9.30671875,45.8613845 9.30671875,38.7605876 C9.30671875,35.1728984 10.0999883,32.0004582 11.6644121,29.3310558 C13.1242793,26.8399502 15.256502,24.7802789 18.0018008,23.2090139 C18.4679219,22.9421514 18.6271777,22.3519721 18.3576074,21.8906275 C18.0880371,21.4294124 17.4915801,21.2720916 17.0253281,21.5385657 C11.7020996,24.5855378 8.49146484,29.286255 7.60750977,35.2566733 L7.60750977,35.2565438 C7.51368359,35.2481275 7.41972656,35.2400996 7.32616211,35.2305179 C7.34317383,34.5863446 7.22540039,33.9363446 6.96891602,33.305508 C6.40321094,31.9140936 5.24117969,30.9098307 4.00835352,30.7470717 C3.03685352,30.6183665 2.11233203,31.026494 1.47072852,31.8652789 C0.540449219,33.0816335 0.692115234,34.0442032 0.983015625,34.63749 C1.47413086,35.6387749 2.73653125,36.3470418 4.83145898,36.7923307 C4.77388086,36.8776594 4.71054492,36.9633765 4.64118945,37.0494821 C3.40339063,38.5855279 1.94509375,38.9251594 0.998195313,38.9571414 C0.443875,38.9756574 0,39.4160259 0,39.9649004 L0,39.9695618 C0,40.5109263 0.431705078,40.9524602 0.978304687,40.9771912 C1.04831445,40.9804283 1.12146484,40.9821116 1.197625,40.9821116 C2.39577344,40.9821116 4.31875195,40.5448506 6.16622461,38.2526295 C6.45791016,37.8908566 6.69555078,37.5091434 6.87823047,37.114741 C7.06221875,37.1353287 7.23900977,37.1529382 7.4083418,37.1684761 C7.4083418,37.1680876 7.4083418,37.1678287 7.40847266,37.1674402 C7.37523438,37.6902888 7.3567832,38.2207769 7.3567832,38.7605876 C7.3567832,42.7781574 8.32475,46.3602789 10.2335957,49.4078984 C11.9936543,52.2176594 14.5136133,54.5182968 17.7259492,56.2484363 L19.0515547,63.0612649 C19.2647246,64.1758466 20.2515352,64.9848506 21.3979941,64.9848506 L26.002543,64.9848506 C27.149002,64.9848506 28.1358125,64.1758466 28.3489824,63.0612649 L29.0229082,59.5383167 C30.4225801,59.6850199 31.8717168,59.7593426 33.3366875,59.7593426 C35.3466875,59.7593426 37.354332,59.6207968 39.3109414,59.3473307 L40.021377,63.0615239 C40.2346777,64.1761056 41.2214883,64.9849801 42.3678164,64.9849801 L46.9723652,64.9849801 C48.1188242,64.9849801 49.1056348,64.1759761 49.3189355,63.061006 L50.6978008,55.8370717 C54.5932227,53.7988944 57.5294453,51.1214641 59.4266445,47.8771614 C59.5633926,47.6433167 59.7739453,47.471753 60.0194375,47.3939343 L64.4409141,45.9925498 C65.9715762,45.5071215 67,44.1127291 67,42.5223008 L67,38.0195618 C67,36.4292629 65.9715762,35.0348705 64.4409141,34.5497012 Z M55.1281758,23.0831574 C54.7528711,26.2588347 53.7461699,28.9753685 52.734627,29.542241 C51.5848965,30.1866733 48.9304141,30.3111056 46.9374258,28.8685458 C44.942082,27.4243028 44.2779707,24.8271514 45.0166719,21.3578088 C45.0166719,21.3576793 45.0166719,21.3576793 45.0166719,21.3576793 C45.0908691,21.009243 45.3410723,20.7078088 45.6858867,20.5516534 C50.5674648,18.3406175 53.3818574,17.6174602 54.4274238,17.6174602 C54.5852402,17.6174602 54.702752,17.6339044 54.7810059,17.6642032 C55.0950684,17.9954183 55.5070137,19.8782171 55.1281758,23.0831574 Z M2.73770898,33.7949502 C2.63681641,33.5890737 2.87498047,33.2271713 3.02599219,33.0295817 C3.26533398,32.716753 3.48583203,32.6527888 3.65241602,32.6527888 C3.68761719,32.6527888 3.72046289,32.6556375 3.75056055,32.6596514 C4.19888477,32.7188247 4.82700977,33.2069721 5.15978516,34.0254283 C5.23816992,34.2180976 5.33997852,34.5372709 5.36379492,34.9352988 C4.01398047,34.6585956 2.96527344,34.2596614 2.73770898,33.7949502 Z" id="Shape" stroke="#42566C" stroke-width="0.4" fill="#42566C"></path>
                    <path d="M31.1338008,12.0776992 L31.1338008,8.62518924 C32.3370527,8.71025896 32.7840684,9.25447211 33.1965371,9.25447211 C33.7122539,9.25447211 33.9529043,8.60822709 33.9529043,8.28503984 C33.9529043,7.45156375 32.3026367,7.09445219 31.1338008,7.06039841 L31.1338008,6.60099602 C31.1338008,6.39693227 30.875877,6.20983068 30.618084,6.20983068 C30.3257441,6.20983068 30.1195098,6.39693227 30.1195098,6.60099602 L30.1195098,7.09419323 C28.4865156,7.26433267 26.8535215,8.11477092 26.8535215,10.2578287 C26.8535215,12.4349402 28.5724902,13.047261 30.1195098,13.5914741 L30.1195098,17.5884562 C28.366125,17.4523705 27.9020977,16.2617829 27.3348223,16.2617829 C26.9050801,16.2617829 26.5441699,16.8230876 26.5441699,17.2313446 C26.5441699,18.0646912 27.9880723,19.2042629 30.1195098,19.2383167 L30.1195098,19.7655677 C30.1195098,19.9696315 30.325875,20.1567331 30.618084,20.1567331 C30.8760078,20.1567331 31.1338008,19.9696315 31.1338008,19.7655677 L31.1338008,19.1873008 C32.9903027,18.9320916 34.2622559,17.7755578 34.2622559,15.6835159 C34.2622559,13.3704482 32.6292617,12.6219124 31.1338008,12.0776992 Z M30.222627,11.7546414 C29.311584,11.414492 28.5724902,11.0573805 28.5724902,10.0879482 C28.5724902,9.20345618 29.2600254,8.77823705 30.222627,8.65924303 L30.222627,11.7546414 Z M31.0305527,17.5544024 L31.0305527,13.9656773 C31.8727637,14.3227888 32.5431562,14.7990239 32.5431562,15.870488 C32.5431562,16.8401793 31.9587383,17.3843924 31.0305527,17.5544024 Z" id="Shape" fill="#E83F67"></path>
                </g>
            </g>
        </g>
    </g>
</svg>