<?xml version="1.0" encoding="UTF-8"?>
<svg width="58px" height="68px" viewBox="0 0 58 68" version="1.1" xmlns="http://www.w3.org/2000/svg" xmlns:xlink="http://www.w3.org/1999/xlink">
    <!-- Generator: Sketch 50.2 (55047) - http://www.bohemiancoding.com/sketch -->
    <title>government-buildings</title>
    <desc>Created with Sketch.</desc>
    <defs></defs>
    <g id="Page-1" stroke="none" stroke-width="1" fill="none" fill-rule="evenodd">
        <g id="Large-Device-Desktops" transform="translate(-585.000000, -993.000000)" fill-rule="nonzero">
            <g id="Group-7" transform="translate(586.000000, 994.000000)">
                <g id="government-buildings">
                    <path d="M40.4251446,44.8231523 C39.8917267,44.8231523 39.4591456,45.2558906 39.4591456,45.7900781 L39.4591456,48.0669492 C39.4591456,48.6010078 39.8915979,49.033875 40.4251446,49.033875 C40.9586913,49.033875 41.3911436,48.6011367 41.3911436,48.0669492 L41.3911436,45.7900781 C41.3911436,45.2558906 40.9588201,44.8231523 40.4251446,44.8231523 Z" id="Shape" fill="#E83F67"></path>
                    <path d="M44.1241699,44.8231523 C43.590752,44.8231523 43.1581709,45.2558906 43.1581709,45.7900781 L43.1581709,48.0669492 C43.1581709,48.6010078 43.5906232,49.033875 44.1241699,49.033875 C44.6577166,49.033875 45.0901688,48.6011367 45.0901688,48.0669492 L45.0901688,45.7900781 C45.0901688,45.2558906 44.6578453,44.8231523 44.1241699,44.8231523 Z" id="Shape" fill="#E83F67"></path>
                    <path d="M12.0262429,44.8231523 C11.4926962,44.8231523 11.0602439,45.2558906 11.0602439,45.7900781 L11.0602439,48.0669492 C11.0602439,48.6010078 11.4925674,49.033875 12.0262429,49.033875 C12.5597896,49.033875 12.9922419,48.6011367 12.9922419,48.0669492 L12.9922419,45.7900781 C12.9922419,45.2558906 12.5599184,44.8231523 12.0262429,44.8231523 Z" id="Shape" fill="#E83F67"></path>
                    <path d="M15.725397,44.8231523 C15.1918503,44.8231523 14.759398,45.2558906 14.759398,45.7900781 L14.759398,48.0669492 C14.759398,48.6008789 15.1918503,49.033875 15.725397,49.033875 C16.2589437,49.033875 16.6913959,48.6011367 16.6913959,48.0669492 L16.6913959,45.7900781 C16.6912672,45.2558906 16.2589437,44.8231523 15.725397,44.8231523 Z" id="Shape" fill="#E83F67"></path>
                    <path d="M25.8017411,44.8231523 C25.2681944,44.8231523 24.8357422,45.2558906 24.8357422,45.7900781 L24.8357422,48.0669492 C24.8357422,48.6010078 25.2680657,49.033875 25.8017411,49.033875 C26.3352878,49.033875 26.7677401,48.6011367 26.7677401,48.0669492 L26.7677401,45.7900781 C26.7677401,45.2558906 26.3352878,44.8231523 25.8017411,44.8231523 Z" id="Shape" fill="#E83F67"></path>
                    <path d="M29.5007664,44.8231523 C28.9672197,44.8231523 28.5347674,45.2558906 28.5347674,45.7900781 L28.5347674,48.0669492 C28.5347674,48.6008789 28.9672197,49.033875 29.5007664,49.033875 C30.0343131,49.033875 30.4667654,48.6011367 30.4667654,48.0669492 L30.4667654,45.7900781 C30.4667654,45.2558906 30.0344419,44.8231523 29.5007664,44.8231523 Z" id="Shape" fill="#E83F67"></path>
                    <path d="M53.4386356,60.585293 L48.7464382,60.585293 L48.7464382,55.5553711 C48.7464382,55.0214414 48.3141147,54.5884453 47.7804393,54.5884453 C47.2468926,54.5884453 46.8144403,55.0213125 46.8144403,55.5553711 L46.8144403,60.5854219 L39.6560544,60.5854219 C39.7293317,60.3401133 39.770027,60.0807539 39.770027,59.8117266 C39.770027,58.5253711 38.8681619,57.4479727 37.6648164,57.1737891 L37.6648164,42.0920156 L46.8145691,42.0920156 L46.8145691,56.3658463 C46.8145691,56.8999049 47.2468926,57.3327721 47.7805681,57.3327721 C48.3141147,57.3327721 48.746567,56.9000338 48.746567,56.3658463 L48.746567,41.1252187 L48.746567,38.6110312 C50.2063188,38.6110312 51.2407014,37.5666328 51.2407014,36.2816953 C51.2407014,33.2941641 51.2443073,32.8197891 51.2306564,32.3416758 C51.2276944,31.8488672 50.9881586,31.3828711 50.5885459,31.0939922 L34.3061638,19.3306523 C32.8497603,18.2785195 31.4902014,18.6201211 30.7800937,18.5524453 L30.7800937,12.5390977 L39.7468462,12.5390977 C40.544011,12.5390977 41.1926894,11.8899258 41.1926894,11.0918672 L41.1926894,4.08001172 C41.1926894,3.34150781 40.5924333,2.74067578 39.8545085,2.74067578 L30.7800937,2.74067578 C30.7800937,1.07224219 29.2777148,-0.3485625 27.439857,0.0759257812 C26.1672264,0.399996094 25.3705767,1.50498047 25.3705767,2.70612891 L25.3705767,5.38389844 C25.3705767,5.91795703 25.8029002,6.35082422 26.3365757,6.35082422 C26.8701223,6.35082422 27.3025746,5.91808594 27.3025746,5.38389844 L27.3025746,2.70612891 C27.3025746,2.30574609 27.615259,1.95138281 28.0572412,1.93436719 C28.5102987,1.92521484 28.8483533,2.28860156 28.8483533,2.70612891 L28.8483533,3.70760156 C28.8483533,5.20059375 28.8483533,16.8579727 28.8483533,18.5523164 L27.3025746,18.5523164 L27.3025746,4.57329435 C27.3025746,4.03923576 26.8702511,3.60636857 26.3365757,3.60636857 C25.803029,3.60636857 25.3705767,4.03910685 25.3705767,4.57329435 L25.3705767,18.5521875 C24.3926009,18.6324961 23.1060618,18.2638242 21.7190722,19.2661992 L5.7560712,30.7989258 C5.23102417,31.1779102 4.91743831,31.791375 4.91743831,32.4395156 C4.91331727,36.4906523 4.86425106,36.499418 5.01222237,36.973793 C5.56598795,38.7566953 7.38967965,38.6065195 7.40384575,38.6110312 C7.40384575,42.950918 7.40384575,55.3892109 7.40384575,60.585293 L2.71190593,60.585293 C1.18647494,60.585293 0.000772696152,61.8641719 0.00901478844,63.2267109 C-0.064391346,64.6475156 1.13483308,66 2.71190593,66 L53.4387644,66 C54.9301968,66 56.1435873,64.7854453 56.1435873,63.292582 C56.1434585,61.8194414 54.9462946,60.585293 53.4386356,60.585293 Z M39.2606915,4.67439844 L39.2606915,10.605375 L30.7800937,10.605375 L30.7800937,4.67439844 L39.2606915,4.67439844 Z M37.8382867,59.8115977 C37.8382867,60.2381484 37.4916037,60.5851641 37.0654617,60.5851641 L32.8155041,60.5851641 C32.389491,60.5851641 32.0426792,60.2381484 32.0426792,59.8117266 C32.0426792,59.3853047 32.389491,59.0381602 32.8155041,59.0381602 C33.6273502,59.0381602 36.2500097,59.0381602 37.0654617,59.0381602 C37.4914749,59.0381602 37.8382867,59.3851758 37.8382867,59.8115977 Z M30.2231085,60.585293 L28.6842841,60.585293 L28.6842841,52.9986445 L32.2160207,52.9986445 L32.2160207,57.1713398 C30.6958698,57.5170664 29.7770053,59.0908828 30.2231085,60.585293 Z M23.2205496,57.1714687 L23.2205496,52.9987734 L26.7522862,52.9987734 L26.7522862,60.5854219 L25.213333,60.5854219 C25.6645876,59.0738672 24.7198377,57.5122969 23.2205496,57.1714687 Z M15.7803872,60.585293 L9.33597248,60.585293 L9.33597248,42.0920156 L17.7717539,42.0920156 L17.7717539,57.1737891 C16.270019,57.5156484 15.3264282,59.0652305 15.7803872,60.585293 Z M9.33597248,40.158293 L9.33597248,38.6110312 L17.7717539,38.6110312 L17.7717539,40.158293 L9.33597248,40.158293 Z M18.3711086,59.0381602 C18.3843732,59.0381602 22.6331718,59.0353242 22.70001,59.0421562 C23.0627908,59.0791523 23.3529382,59.3691914 23.3898989,59.732707 C23.436647,60.1883906 23.0777296,60.585293 22.6209374,60.585293 L18.3709798,60.585293 C17.9448379,60.585293 17.5980261,60.2382773 17.5980261,59.8117266 C17.5982837,59.3851758 17.9449667,59.0381602 18.3711086,59.0381602 Z M19.7036231,38.6111602 L21.2888093,38.6111602 C21.2888093,41.514 21.2888093,49.0227891 21.2888093,52.0318477 L21.2888093,57.1044375 L19.7036231,57.1044375 C19.7036231,54.3444258 19.7036231,40.8823594 19.7036231,38.6111602 Z M23.2205496,51.0650508 L23.2205496,42.0920156 L32.2160207,42.0920156 L32.2160207,51.0650508 C29.7929743,51.0650508 24.6321367,51.0650508 23.2205496,51.0650508 Z M23.2205496,40.158293 L23.2205496,38.6110312 L32.2160207,38.6110312 L32.2160207,40.158293 L23.2205496,40.158293 Z M34.1478898,52.0317187 C34.1478898,49.0114453 34.1478898,41.5025273 34.1478898,38.6110312 L35.733076,38.6110312 C35.733076,40.8791367 35.733076,54.3504844 35.733076,57.1044375 L34.1478898,57.1044375 L34.1478898,52.0317187 Z M46.8146979,40.158293 L37.6649452,40.158293 L37.6649452,38.6110312 L46.8146979,38.6110312 L46.8146979,40.158293 Z M7.23475407,36.6773086 C7.03346673,36.6773086 6.89991907,36.537832 6.85664809,36.3986133 C6.82715685,36.3048984 6.84892113,36.2939414 6.84698939,35.1300469 L6.84930748,33.1961953 C6.86128427,32.4924961 6.81749815,32.416957 6.88639689,32.3668125 C23.6275029,20.421457 22.8177174,20.4859102 23.92615,20.4859102 C26.8729556,20.4859102 29.0650946,20.4859102 31.9005031,20.4859102 C33.1875573,20.4859102 32.3637344,20.4878437 49.3014916,32.5486992 C49.3016204,32.5617187 49.3093474,33.2391211 49.308961,33.1959375 L49.308961,35.1297891 C49.3032946,36.3211406 49.3222257,36.3002578 49.2913178,36.3992578 C49.2430243,36.5544609 49.0987877,36.6770508 48.9133406,36.6770508 C39.5487784,36.6770508 30.2667658,36.6770508 18.7376241,36.6770508 C16.6899793,36.6773086 8.60783514,36.6773086 7.23475407,36.6773086 Z M53.4386356,64.0662773 L2.71190593,64.0662773 C2.21802431,64.0662773 1.84571354,63.6040195 1.95994379,63.1198477 C1.96857223,63.106957 2.09658223,62.5190156 2.71190593,62.5190156 C16.2651252,62.5190156 45.0702075,62.5190156 53.4387644,62.5190156 C53.8249837,62.5190156 54.1826132,62.7971953 54.2114606,63.3128203 C54.2006428,63.7302187 53.8582096,64.0662773 53.4386356,64.0662773 Z" id="Shape" stroke="#42566C" stroke-width="0.2" fill="#42566C"></path>
                </g>
            </g>
        </g>
    </g>
</svg>