<?xml version="1.0" encoding="UTF-8"?>
<svg width="66px" height="60px" viewBox="0 0 66 60" version="1.1" xmlns="http://www.w3.org/2000/svg" xmlns:xlink="http://www.w3.org/1999/xlink">
    <!-- Generator: Sketch 50.2 (55047) - http://www.bohemiancoding.com/sketch -->
    <title>cardiogram (1)</title>
    <desc>Created with Sketch.</desc>
    <defs></defs>
    <g id="Page-1" stroke="none" stroke-width="1" fill="none" fill-rule="evenodd">
        <g id="Large-Device-Desktops" transform="translate(-930.000000, -591.000000)" fill-rule="nonzero">
            <g id="Group-7" transform="translate(929.000000, 591.000000)">
                <g id="cardiogram-(1)">
                    <path d="M51.9416775,28.2478027 L39.3696289,28.2478027 L36.7561035,21.2590332 C36.5288357,20.5849826 35.8689269,20.0535902 35.165357,20.151818 C34.4453982,20.1680205 33.8214681,20.6421978 33.6259538,21.3259952 L28.8129688,37.4748535 L23.7883301,14.2495117 C23.6309711,13.556094 23.0366178,13.0440687 22.3188357,12.9868535 C21.6054069,12.9393851 20.9323101,13.3378661 20.6668869,13.9990054 L15.2463379,28.2478027 L2.5937424,28.2478027 C1.68800022,28.2478027 0.988037109,28.7806329 0.988037109,29.6760759 C0.988037109,30.571519 1.7331467,30.7831646 2.63888889,30.7831646 L15.75,30.7831646 C16.4186155,30.7841772 17.02398,30.3813924 17.2708377,29.764557 L21.8575499,18.4325316 L27.2603776,42.4770886 C27.4231141,43.2018987 28.0634332,43.7235443 28.8129688,43.7463291 C29.5908008,43.7463291 30.2343207,43.2688608 30.4354687,42.5721519 L35.5379188,24.9232911 L37.1385243,29.6760759 C37.3624631,30.3370886 37.9895942,30.7832911 38.6943164,30.7832911 L51.8054275,30.7832911 C52.7111697,30.7832911 53.5229492,30.571519 53.5229492,29.6760759 C53.5230773,28.7802532 52.8474197,28.2478027 51.9416775,28.2478027 Z" id="Shape" fill="#E83F67"></path>
                    <path d="M60.7953733,5.7435443 C56.9549957,1.94683544 51.9214301,0.0489873418 46.8888889,0.0489873418 C42.1797721,0.0489873418 37.5089388,1.77835443 33.7777778,5.10202532 C30.0454644,1.77835443 25.3757834,0.0489873418 20.6666667,0.0489873418 C15.6331011,0.0489873418 10.6005599,1.94683544 6.76018229,5.74367089 C1.66759115,10.7793671 0.0275499132,17.8717722 1.68948568,24.3051899 L4.45483398,24.3051899 C2.70672852,18.7391139 4.09262912,12.4341772 8.54272461,8.03468354 C11.638048,4.97455696 16.2886567,2.79345703 20.6666667,2.79345703 C24.6622266,2.79345703 28.5367535,4.75316456 31.5195312,7.32607595 L33.8098871,9.03149414 L35.9250488,7.32607595 C38.9078266,4.75417722 42.8944813,2.79345703 46.8888889,2.79345703 C51.2668989,2.79345703 55.8662988,4.97455696 58.9626465,8.03468354 C65.3531608,14.351519 65.3521365,24.8562603 58.9626465,31.1730957 L33.8098871,56.2124023 L11.4719238,34.0267089 L7.55555556,34.0267089 L33.7777778,59.9507595 L60.7953733,33.2403797 C68.4752322,25.6468354 68.4752322,13.3372152 60.7953733,5.7435443 Z" id="Shape" fill="#42566C"></path>
                </g>
            </g>
        </g>
    </g>
</svg>