<?xml version="1.0" encoding="UTF-8"?>
<svg width="69px" height="70px" viewBox="0 0 69 70" version="1.1" xmlns="http://www.w3.org/2000/svg" xmlns:xlink="http://www.w3.org/1999/xlink">
    <!-- Generator: Sketch 50.2 (55047) - http://www.bohemiancoding.com/sketch -->
    <title>network (2)</title>
    <desc>Created with Sketch.</desc>
    <defs></defs>
    <g id="Page-1" stroke="none" stroke-width="1" fill="none" fill-rule="evenodd">
        <g id="Large-Device-Desktops" transform="translate(-585.000000, -583.000000)">
            <g id="Group-7" transform="translate(586.000000, 584.000000)">
                <g id="network-(2)">
                    <g id="Group-11">
                        <path d="M62.9438505,2.58190984 C60.9499224,0.951581967 58.4540263,0.0597786885 55.8744688,0.0597786885 C49.7253617,0.0597786885 44.7196259,5.03436885 44.7196259,11.1933852 C44.7196259,13.7712541 45.6120133,16.2655164 47.2434091,18.2581393 L31.2370906,30.2967145 L16.0656231,14.4401066 C19.1053178,10.5384672 18.3941966,4.92289344 14.4900015,1.88518852 C10.5858065,-1.15251639 4.96655438,-0.441860656 1.92685968,3.45977869 C-1.11283502,7.36141803 -0.401713781,12.9769918 3.50248125,16.0146967 C6.7373857,18.5228934 11.2550971,18.5228934 14.4900015,16.0146967 L29.1998743,31.6205185 L14.8525339,37.7663361 C13.569727,35.2442049 10.9343954,33.5024016 7.90864421,33.5024016 C3.60008612,33.5024016 0.100254151,36.9999426 0.100254151,41.3056803 C0.100254151,45.611418 3.60008612,49.108959 7.90864421,49.108959 C12.2172023,49.108959 15.7170343,45.611418 15.7170343,41.3056803 C15.7170343,40.8179754 15.6752036,40.3442049 15.5915423,39.8843689 L30.4179286,33.5024016 L36.7160261,49.8056803 C33.2859119,51.2130574 30.8736771,54.5712541 30.8736771,58.4868279 C30.8736771,63.6565 35.0846303,67.8646967 40.2576887,67.8646967 C45.4307471,67.8646967 49.6417003,63.6565 49.6417003,58.4868279 C49.6417003,53.3171557 45.4307471,49.108959 40.2576887,49.108959 C39.7836079,49.108959 39.3234706,49.1507623 38.8633334,49.2065 L32.3446195,32.1019638 L48.8050871,19.8187951 C53.5737825,23.7204344 60.6013335,23.0097787 64.5055286,18.2442049 C68.4097236,13.4786311 67.7125459,6.48354918 62.9438505,2.58190984 Z M9.0241285,15.6663361 C5.32908678,15.6663361 2.33122274,12.6704344 2.33122274,8.97781148 C2.33122274,5.28518852 5.32908678,2.28928689 9.0241285,2.28928689 C12.7191702,2.28928689 15.7170343,5.28518852 15.7170343,8.97781148 C15.7170343,12.6704344 12.7191702,15.6663361 9.0241285,15.6663361 Z M7.90864421,46.8794508 C4.82711884,46.8794508 2.33122274,44.3851885 2.33122274,41.3056803 C2.33122274,38.2261721 4.82711884,35.7319098 7.90864421,35.7319098 C10.9901696,35.7319098 13.4860657,38.2261721 13.4860657,41.3056803 C13.4860657,44.3851885 10.9901696,46.8794508 7.90864421,46.8794508 Z M40.2956298,51.499984 C44.2930795,51.499984 47.5241009,54.6288821 47.5241009,58.499984 C47.5241009,62.3710858 44.2930795,65.499984 40.2956298,65.499984 C36.2981801,65.499984 33.0671588,62.3710858 33.0671588,58.499984 C33.0671588,54.6434351 36.2981801,51.499984 40.2956298,51.499984 Z M55.8744688,20.1253525 C50.9523944,20.1253525 46.9505945,16.1261721 46.9505945,11.2073197 C46.9505945,6.28846721 50.9523944,2.28928689 55.8744688,2.28928689 C60.7965433,2.28928689 64.7983432,6.28846721 64.7983432,11.2073197 C64.7983432,16.1261721 60.7965433,20.1253525 55.8744688,20.1253525 Z" id="Shape" stroke="#42566C" stroke-width="0.3" fill="#42566C" fill-rule="nonzero"></path>
                        <circle id="Oval-4" fill="#FFFFFF" cx="30.739726" cy="31.6712329" r="13.0410959"></circle>
                        <path d="M39.7664533,20.2681479 C34.3563545,15.6001151 26.3388111,15.6001151 20.9147687,20.2681479 L19.3391472,21.842738 C16.4946622,25.1173282 15.2955166,29.492738 16.0624121,33.7566725 L16.6340978,35.9443774 C18.8929535,42.7165085 25.781069,46.7992954 32.80862,45.5312626 L34.9698708,44.9738856 C42.5412205,42.43782 46.6266817,34.2443774 44.0750114,26.6640495 C43.4754386,24.8943774 42.5412205,23.2501151 41.3281313,21.8288036 L39.7664533,20.2681479 Z M42.6109382,31.2624102 C42.5969947,38.0345413 37.1171781,43.5107708 30.340611,43.5247053 C23.5640439,43.5247053 18.0702838,38.0345413 18.0702838,31.2624102 C18.0702838,24.490279 23.5640439,19.0001151 30.340611,19.0001151 C37.1171781,19.0001151 42.6109382,24.490279 42.6109382,31.2624102 Z" id="Shape" stroke="#E83F67" stroke-width="0.2" fill="#E83F67" fill-rule="nonzero"></path>
                    </g>
                </g>
            </g>
        </g>
    </g>
</svg>