<?xml version="1.0" encoding="UTF-8"?>
<svg width="61px" height="57px" viewBox="0 0 61 57" version="1.1" xmlns="http://www.w3.org/2000/svg" xmlns:xlink="http://www.w3.org/1999/xlink">
    <!-- Generator: Sketch 50.2 (55047) - http://www.bohemiancoding.com/sketch -->
    <title>shopping-cart (3)</title>
    <desc>Created with Sketch.</desc>
    <defs></defs>
    <g id="Page-1" stroke="none" stroke-width="1" fill="none" fill-rule="evenodd">
        <g id="Large-Device-Desktops" transform="translate(-247.000000, -1003.000000)" fill-rule="nonzero">
            <g id="Group-7" transform="translate(247.000000, 1003.000000)">
                <g id="shopping-cart-(3)">
                    <ellipse id="Oval" fill="#42566C" cx="22.1818398" cy="54.1706297" rx="2.77275977" ry="2.77523222"></ellipse>
                    <ellipse id="Oval" fill="#42566C" cx="47.1363203" cy="54.1706297" rx="2.77275977" ry="2.77523222"></ellipse>
                    <path d="M60.0746738,12.4541073 C59.7138313,11.9163628 59.0044209,11.7009277 58.588501,11.7009277 L18.0227598,11.7009277 C17.1909199,11.7009277 16.5910645,11.9492759 16.5910645,12.7817383 C16.5910645,13.6142006 17.1910391,13.9300607 18.0227598,13.9300607 L57.95,13.9300607 L54.6227598,36.5479707 C54.4840801,37.9355272 53.2364395,38.9069121 51.85,38.9069121 L17.0991211,38.9069121 L10.8658447,3.66467285 C10.4499248,1.58321888 9.42712109,0.643676758 7.34764063,0.643676758 L4.15896094,0.643676758 C1.80212109,0.643796005 0.411010742,1.8581046 0.411010742,4.21704603 C0.411010742,5.04950837 0.659246094,5.4152832 1.4909668,5.4152832 C2.3226875,5.4152832 2.77264063,5.04950837 2.77264063,4.21704603 C2.77264063,3.38458368 3.32724023,2.82948954 4.15896094,2.82948954 L7.34764063,2.82948954 C8.04080078,2.82948954 8.59540039,3.24578033 8.73396094,3.93955858 L15.1112012,39.739613 C13.5862012,40.7109979 12.4771211,42.5148452 12.4771211,44.4574958 C12.4771211,47.5102155 14.9725215,50.007841 18.0225215,50.007841 L54.0679219,50.007841 C54.8997617,50.007841 55.4991455,49.7385903 55.4991455,48.9061279 C55.4991455,48.0736656 54.8996426,47.6706543 54.0679219,47.6706543 L17.4301758,47.6706543 C15.9051758,47.6706543 14.657416,45.9838556 14.657416,44.4574958 C14.657416,42.931136 15.9051758,41.0714111 17.4301758,41.0714111 L51.85,41.0714111 C54.6227598,41.0714111 56.3315137,40.0765017 56.7473145,37.3012695 L60.3519141,13.5641763 C60.3519141,13.2866889 60.4355164,12.9918518 60.0746738,12.4541073 Z" id="Shape" stroke="#42566C" stroke-width="0.3" fill="#42566C"></path>
                    <path d="M48.9971924,29.6966524 L43.0617676,29.6966524 L43.0617676,23.6434331 L48.9971924,23.6434331 C49.8290322,23.6434331 50.3835127,23.4373207 50.3835127,22.6048584 C50.3835127,21.7723961 49.8290322,21.3981934 48.9971924,21.3981934 L43.0617676,21.3981934 L43.0617676,18.0929686 C43.0617676,17.260387 42.7522529,16.7054121 41.9205322,16.7054121 C41.0888115,16.7054121 40.789127,17.2605063 40.789127,18.0929686 L40.789127,21.3981934 L36.1784346,21.3981934 L36.1784346,18.0929686 C36.1784346,17.260387 35.8765205,16.7054121 35.0447998,16.7054121 C34.2130791,16.7054121 33.9413008,17.2605063 33.9413008,18.0929686 L33.9413008,21.3981934 L29.6498701,21.3981934 L29.6498701,18.0929686 C29.6498701,17.260387 29.3345283,16.7054121 28.5028076,16.7054121 C27.6710869,16.7054121 27.3412773,17.2605063 27.3412773,18.0929686 L27.3412773,21.3981934 L21.795877,21.3981934 C20.9640371,21.3981934 20.4095566,21.7722768 20.4095566,22.6047392 C20.4095566,23.4372015 20.9641562,23.6433138 21.795877,23.6433138 L27.3412773,23.6433138 L27.3412773,29.6965332 L21.795877,29.6965332 C20.9640371,29.6965332 20.4095566,30.0486468 20.4095566,30.8811092 C20.4095566,31.7136908 20.9641562,31.968772 21.795877,31.968772 L27.3412773,31.968772 L27.3412773,34.7440042 C27.3412773,35.5765858 27.6710869,36.1315607 28.5028076,36.1315607 C29.3345283,36.1315607 29.6498701,35.5764665 29.6498701,34.7440042 L29.6498701,31.968772 L33.9413008,31.968772 L33.9413008,34.7440042 C33.9413008,35.5765858 34.2130791,36.1315607 35.0447998,36.1315607 C35.8765205,36.1315607 36.1784346,35.5764665 36.1784346,34.7440042 L36.1784346,31.968772 L40.789127,31.968772 L40.789127,34.7440042 C40.789127,35.5765858 41.0888115,36.1315607 41.9205322,36.1315607 C42.7522529,36.1315607 43.0617676,35.576705 43.0617676,34.7442427 L43.0617676,31.9690105 L48.9971924,31.9690105 C49.8290322,31.9690105 50.3835127,31.71381 50.3835127,30.8813477 C50.3836318,30.0487661 49.8290322,29.6966524 48.9971924,29.6966524 Z M33.9413008,29.7586315 L29.4095566,29.7586315 L29.4095566,23.7054121 L33.9413008,23.7054121 L33.9413008,29.7586315 Z M40.789127,29.7586315 L36.1784346,29.7586315 L36.1784346,23.7054121 L40.789127,23.7054121 L40.789127,29.7586315 Z" id="Shape" fill="#E83F67"></path>
                </g>
            </g>
        </g>
    </g>
</svg>