<?xml version="1.0" encoding="UTF-8"?>
<svg width="180px" height="218px" viewBox="0 0 180 218" version="1.1" xmlns="http://www.w3.org/2000/svg" xmlns:xlink="http://www.w3.org/1999/xlink">
    <!-- Generator: Sketch 50.2 (55047) - http://www.bohemiancoding.com/sketch -->
    <title>policy</title>
    <desc>Created with Sketch.</desc>
    <defs></defs>
    <g id="Page-1" stroke="none" stroke-width="1" fill="none" fill-rule="evenodd" opacity="0.109999999">
        <g id="Large-Device-Desktops" transform="translate(0.000000, -1717.000000)" fill-rule="nonzero">
            <g id="policy" transform="translate(86.500000, 1818.500000) rotate(-18.000000) translate(-86.500000, -1818.500000) translate(-10.000000, 1722.000000)">
                <path d="M144.750377,108.5625 L144.750377,20.104041 C144.737184,9.00654102 135.743836,0.0131933594 124.646336,0 L36.187877,0 C35.1214766,0.000376953125 34.0991797,0.424072266 33.3452734,1.17797852 L1.17835547,33.3448965 C0.424449219,34.0988027 0.000376953125,35.1214766 0.000376953125,36.1875 L0.000376953125,172.895959 C0.0135703125,183.993459 9.00691797,192.986807 20.104418,193 L124.645959,193 C135.743836,192.986807 144.736807,183.993459 144.75,172.895959 L144.75,164.854418 L136.708459,164.854418 L136.708459,172.895959 C136.708459,179.557852 131.307852,184.958459 124.645959,184.958459 L20.104418,184.958459 C13.4425254,184.958459 8.04191797,179.557852 8.04191797,172.895959 L8.04191797,37.852125 L37.852502,8.04154102 L124.646336,8.04154102 C131.308229,8.04154102 136.708836,13.4421484 136.708836,20.104041 L136.708836,108.5625 L144.750377,108.5625 Z" id="Shape" fill="#42566C"></path>
                <path d="M32.166918,4.02095898 L32.166918,28.145959 C32.166918,30.3665898 30.3665898,32.166918 28.145959,32.166918 L20.104418,32.166918 L20.104418,40.208459 L28.145959,40.208459 C34.8078516,40.208459 40.208459,34.8078516 40.208459,28.145959 L40.208459,4.02095898 L32.166918,4.02095898 Z" id="Shape" fill="#42566C"></path>
                <path d="M191.822398,96.749166 L180.688711,85.6154785 C179.118701,84.0458457 176.573514,84.0458457 175.003127,85.6154785 L113.761814,146.856791 C112.192182,148.426801 112.192182,150.971988 113.761814,152.542375 L124.895502,163.676062 C125.649408,164.430346 126.672082,164.854041 127.738105,164.854041 C128.804506,164.853664 129.826803,164.429969 130.580709,163.676062 L191.822021,102.43475 C193.392031,100.86474 193.392031,98.3195527 191.822398,96.749166 Z M127.738105,155.147875 L122.290002,149.699771 L177.84573,94.144043 L183.293834,99.5921465 L127.738105,155.147875 Z" id="Shape" fill="#42566C"></path>
                <path d="M120.625377,156.8125 L120.625377,148.770959 L112.583836,148.770959 L112.583836,160.833459 C112.583836,163.05409 114.384164,164.854418 116.604795,164.854418 L128.667295,164.854418 L128.667295,156.8125 L120.625377,156.8125 Z" id="Shape" fill="#42566C"></path>
                <path d="M116.604418,16.083459 L108.562877,16.083459 L108.562877,24.125 L116.604418,24.125 C118.825049,24.125 120.625377,25.9253281 120.625377,28.145959 L120.625377,36.1875 L128.666918,36.1875 L128.666918,28.145959 C128.667295,21.4840664 123.266688,16.083459 116.604418,16.083459 Z" id="Shape" fill="#42566C"></path>
                <path d="M104.541918,56.291541 L40.2088359,56.291541 C37.9882051,56.291541 36.187877,58.0918691 36.187877,60.3125 L36.187877,116.604041 C36.1848613,118.141633 37.0586387,119.54616 38.439418,120.222791 L66.4044395,133.89375 C68.241709,134.943188 70.3198516,135.497686 72.4356895,135.502209 C74.4309023,135.515025 76.3952051,135.006516 78.1333359,134.026437 L106.311336,120.222791 C107.692115,119.54616 108.56627,118.141633 108.562877,116.604041 L108.562877,60.3125 C108.562877,58.0918691 106.762549,56.291541 104.541918,56.291541 Z M100.521336,114.095041 L74.3698359,126.917479 C73.0463535,127.640098 71.4360098,127.593732 70.155877,126.796854 L44.229418,114.095041 L44.229418,64.333459 L100.521336,64.333459 L100.520959,114.095041 L100.521336,114.095041 Z" id="Shape" fill="#E83F67"></path>
                <path d="M89.6368145,78.1849785 L68.354418,99.467375 L59.1345215,90.2474785 L53.4489375,95.9330625 L65.5114375,107.995562 C66.2653437,108.749469 67.2880176,109.173541 68.354041,109.173541 C69.4204414,109.173164 70.4427383,108.749469 71.1966445,107.995562 L95.3216445,83.8705625 L89.6368145,78.1849785 Z" id="Shape" fill="#E83F67"></path>
                <path d="M80.416918,156.8125 C78.1962871,156.8125 76.395959,155.012172 76.395959,152.791541 L76.395959,144.75 L68.354418,144.75 L68.354418,152.791541 C68.354418,159.453434 73.7550254,164.854041 80.416918,164.854041 L104.541918,164.854041 L104.541918,156.8125 L80.416918,156.8125 Z" id="Shape" fill="#42566C"></path>
                <rect id="Rectangle-path" fill="#42566C" x="92.479418" y="16.083459" width="8.04154102" height="8.04154102"></rect>
            </g>
        </g>
    </g>
</svg>