<?xml version="1.0" encoding="UTF-8"?>
<svg width="58px" height="58px" viewBox="0 0 58 58" version="1.1" xmlns="http://www.w3.org/2000/svg" xmlns:xlink="http://www.w3.org/1999/xlink">
    <!-- Generator: Sketch 50.2 (55047) - http://www.bohemiancoding.com/sketch -->
    <title>guarantee</title>
    <desc>Created with Sketch.</desc>
    <defs></defs>
    <g id="Page-1" stroke="none" stroke-width="1" fill="none" fill-rule="evenodd">
        <g id="Large-Device-Desktops" transform="translate(-927.000000, -1003.000000)" fill-rule="nonzero">
            <g id="Group-7" transform="translate(928.000000, 1004.000000)">
                <g id="guarantee">
                    <path d="M43.4588519,23.9099259 C43.2991481,23.744 43.0886296,23.6360185 42.8607407,23.602963 L42.8607407,23.6340741 L33.2162963,22.2340741 L28.9022222,13.4503704 C28.6467222,12.9378148 28.0241111,12.7293704 27.5114259,12.9848704 C27.3098519,13.0853333 27.1463889,13.2487963 27.0459259,13.4503704 L22.7318519,22.1925926 L13.0874074,23.5925926 C12.5206667,23.6747778 12.1277593,24.2009444 12.2100741,24.7678148 C12.2431296,24.9957037 12.3511111,25.2062222 12.517037,25.3659259 L19.4962963,32.1688889 L17.8474074,41.7718519 C17.7535556,42.3369074 18.1354444,42.8709815 18.7003704,42.9648333 C18.9228148,43.0017778 19.1512222,42.9652222 19.3511111,42.8607407 L27.9688889,38.3392593 L36.597037,42.8711111 C37.104537,43.1365926 37.7311667,42.9403333 37.9966481,42.432963 C38.1011296,42.2332037 38.1376852,42.0046667 38.1007407,41.7822222 L36.4518519,32.1792593 L43.4311111,25.3762963 C43.8437222,24.9791111 43.8561667,24.322537 43.4588519,23.9099259 Z M34.6162963,31.08 C34.3727222,31.3165741 34.2603333,31.6575 34.3155556,31.9925926 L35.6948148,40.0711111 L28.4355556,36.2548148 C28.1336481,36.0962778 27.7730185,36.0962778 27.4711111,36.2548148 L20.2118519,40.0711111 L21.5911111,31.9925926 C21.6463333,31.6575 21.5339444,31.3165741 21.2903704,31.08 L15.4207407,25.3659259 L23.5303704,24.1837037 C23.8676667,24.1330185 24.1584259,23.9197778 24.3081481,23.6133333 L27.9688889,16.2918519 L31.5985185,23.6340741 C31.7482407,23.9405185 32.039,24.1537593 32.3762963,24.2044444 L40.4859259,25.3866667 L34.6162963,31.08 Z" id="Shape" fill="#E83F67"></path>
                    <path d="M55.7303704,26.6518519 L51.24,21.1037037 L51.9140741,14.0622222 C51.9472593,13.6137037 51.6876111,13.1948704 51.2711111,13.0251852 L44.6962963,10.3392593 L41.7511111,3.90962963 C41.5587407,3.49364815 41.1159259,3.25318519 40.6622222,3.31851852 L33.6622222,4.35555556 L27.8962963,0.207407407 C27.5276296,-0.0690925926 27.0205185,-0.0690925926 26.6518519,0.207407407 L21.1037037,4.69777778 L14.0622222,4.0237037 C13.6111111,3.99207407 13.1913704,4.25638889 13.0251852,4.67703704 L10.3392593,11.2414815 L3.90962963,14.1866667 C3.49364815,14.379037 3.25318519,14.8218519 3.31851852,15.2755556 L4.35555556,22.2755556 L0.207407407,28.0414815 C-0.0690925926,28.4101481 -0.0690925926,28.9172593 0.207407407,29.2859259 L4.59407407,34.8340741 L3.92,41.8755556 C3.88837037,42.3266667 4.15268519,42.7464074 4.57333333,42.9125926 L11.2414815,45.5985185 L14.1866667,52.0281481 C14.379037,52.4441296 14.8218519,52.6845926 15.2755556,52.6192593 L22.2755556,51.5822222 L28.0414815,55.7303704 C28.4101481,56.0068704 28.9172593,56.0068704 29.2859259,55.7303704 L34.8340741,51.3437037 L41.8755556,52.0177778 C42.3240741,52.050963 42.7429074,51.7913148 42.9125926,51.3748148 L45.5985185,44.6962963 L52.0281481,41.7511111 C52.4441296,41.5587407 52.684463,41.1159259 52.6192593,40.6622222 L51.5822222,33.6622222 L55.7303704,27.8962963 C56.0068704,27.5276296 56.0068704,27.0206481 55.7303704,26.6518519 Z M49.6222222,32.8014815 C49.4701667,33.0187407 49.407037,33.2859074 49.4459259,33.5481481 L50.4103704,40.1851852 L44.3022222,42.9748148 C44.0605926,43.0866852 43.8712037,43.2872222 43.7733333,43.5348148 L41.2948148,49.757037 L34.6162963,49.1244444 C34.3519815,49.1002037 34.0885741,49.1781111 33.88,49.3422222 L28.6118519,53.4903704 L23.1466667,49.6014815 C22.971537,49.4747037 22.7612778,49.4058704 22.5451852,49.4044444 L22.4,49.4044444 L15.762963,50.3688889 L12.9733333,44.2711111 C12.861463,44.0294815 12.6609259,43.8400926 12.4133333,43.7422222 L6.19111111,41.2637037 L6.8237037,34.5851852 C6.84794444,34.3208704 6.77003704,34.057463 6.60592593,33.8488889 L2.45777778,28.5807407 L6.34666667,23.1155556 C6.49872222,22.8982963 6.56185185,22.6311296 6.52296296,22.3688889 L5.55851852,15.7318519 L11.6666667,12.9422222 C11.9082963,12.8303519 12.0976852,12.6298148 12.1955556,12.3822222 L14.6740741,6.16 L21.3525926,6.79259259 C21.6169074,6.81683333 21.8803148,6.73892593 22.0888889,6.57481481 L27.357037,2.42666667 L32.8222222,6.31555556 C33.0394815,6.46761111 33.3066481,6.53074074 33.5688889,6.49185185 L40.2059259,5.52740741 L42.9955556,11.6355556 C43.1074259,11.8771852 43.307963,12.0665741 43.5555556,12.1644444 L49.7777778,14.642963 L49.1451852,21.3214815 C49.1209444,21.5857963 49.1988519,21.8492037 49.362963,22.0577778 L53.5111111,27.3259259 L49.6222222,32.8014815 Z" id="Shape" stroke="#42566C" stroke-width="0.3" fill="#42566C"></path>
                </g>
            </g>
        </g>
    </g>
</svg>