<?xml version="1.0" encoding="UTF-8"?>
<svg width="180px" height="284px" viewBox="0 0 180 284" version="1.1" xmlns="http://www.w3.org/2000/svg" xmlns:xlink="http://www.w3.org/1999/xlink">
    <!-- Generator: Sketch 49.3 (51167) - http://www.bohemiancoding.com/sketch -->
    <title>brain (2)</title>
    <desc>Created with Sketch.</desc>
    <defs></defs>
    <g id="Page-1" stroke="none" stroke-width="1" fill="none" fill-rule="evenodd" opacity="0.149999991">
        <g id="Large-Device-Desktops" transform="translate(-1260.000000, -1685.000000)" fill-rule="nonzero">
            <g id="Group-14" transform="translate(247.000000, 1524.000000)">
                <g id="brain-(2)" transform="translate(1013.000000, 161.000000)">
                    <path d="M16.966535,138.623115 C14.9559469,125.956169 21.8611531,115.487081 22.3186263,103.831726 C22.9217806,88.4647561 24.172691,74.6575307 30.3396386,64.0794422 C36.4860569,53.5365677 47.1320073,48.6944925 55.523169,42.456895 C60.7223884,38.5920382 61.6569273,32.9492408 65.5000957,29.7653146 C70.6040993,25.536832 77.9499816,24.1892759 79.061275,22.9038616 C70.6065864,21.5786007 63.3885951,19.4520627 55.523169,36.0450522 C50.3638773,36.7877421 40.2043084,39.4239305 31.507671,48.7428857 C20.3492031,60.6965872 15.4616813,79.2248966 16.966535,103.831726 C14.8863386,107.360584 9.93521117,116.78193 8.45204131,128.608725 C6.77660869,142.010311 9.33529354,160.909245 30.3396386,176.243267 C27.9052741,190.577902 30.209536,215.253953 53.1581925,227.387919 C52.2055522,232.602611 51.5738317,241.647564 56.240179,249.37875 C59.9090728,255.460154 65.9704093,259.460584 74.2767388,261.289188 C78.4703799,267.745542 86.9408033,281.797494 104.980921,281.797494 C105.0139,281.797494 101.326636,275.331753 89.7833612,263.285099 C86.1984105,259.543816 81.1242681,248.868481 76.3162955,245.438851 C71.948246,242.323028 66.0678032,241.309382 62.7090397,236.432398 C59.0507419,231.120484 62.4102949,222.140821 58.6474503,216.470559 C54.5243403,210.257411 46.1229812,207.243235 42.4461889,200.615397 C37.2227331,191.199522 41.8727796,178.694825 37.3415073,169.269762 C30.4091622,154.85046 19.3263906,153.490489 16.966535,138.623115 Z" id="Shape" fill="#DCDCDC"></path>
                    <path d="M258.460798,124.832466 C256.980523,113.005671 252.026515,103.587209 249.946324,100.055467 C251.451174,75.4486374 246.560772,56.920328 235.40522,44.9666265 C226.708603,35.6491134 216.549057,33.012925 211.389777,32.268793 C203.521477,15.6758035 190.145513,12.4656528 182.015563,13.2458377 C166.793591,-0.896996301 152.713628,-1.23300938 143.434441,1.07581871 C137.315295,2.6015777 132.524638,5.4612942 129.552523,7.61725798 C126.581853,5.45840997 121.788305,2.6015777 115.670605,1.07581871 C106.391418,-1.23733573 92.3114549,-0.899880534 77.0894828,13.2458377 C68.9508595,12.4627685 55.5806772,15.6758035 47.7152688,32.268793 C42.5559888,33.0114828 32.3964428,35.6476713 23.6998251,44.9666265 C12.5413823,56.920328 7.65387163,75.4486374 9.15872186,100.055467 C7.07853023,103.584325 2.12741395,113.005671 0.644247442,124.832466 C-1.0311814,138.234052 1.52749767,157.132985 22.5317953,172.467007 C20.0974363,186.801643 22.401693,211.477694 45.3502977,223.61166 C44.3976595,228.826352 43.7659405,237.871305 48.4322772,245.60249 C52.1011628,251.683895 58.1624856,255.684325 66.4687963,257.512928 C70.6624279,263.969283 85.1182419,283.965667 103.157652,283.965667 C103.271853,283.965667 103.388945,283.965667 103.503146,283.962782 C113.174086,283.824339 121.912625,278.122212 129.551077,266.987632 C137.19242,278.119327 145.93096,283.824339 155.599008,283.962782 C173.771412,284.228132 188.413706,264.009662 192.634804,257.512928 C200.941114,255.684325 207.003883,251.685337 210.671323,245.60249 C215.339105,237.871305 214.704495,228.82491 213.753302,223.61166 C236.704798,211.477694 239.009055,186.801643 236.574696,172.467007 C257.580439,157.132985 260.140564,138.235494 258.460798,124.832466 Z M228.345001,166.198128 C226.610303,167.351821 225.789213,169.468848 226.295167,171.487811 C226.630541,172.826094 234.175031,204.359408 206.084493,216.36791 C203.723859,217.377391 202.534145,220.02079 203.346562,222.449314 C203.381256,222.554589 206.707539,233.092132 202.216117,240.529126 C199.781758,244.565609 195.255643,247.159976 188.77221,248.237237 C187.326629,248.476628 186.063191,249.347666 185.323053,250.608076 C181.464796,257.176915 168.70754,274.121781 155.941611,274.121781 C155.870778,274.121781 155.795607,274.121781 155.721883,274.121781 C148.0444,274.003528 140.726867,267.682732 133.974556,255.335333 C133.108653,253.754774 131.2612,252.77125 129.454223,252.77125 C127.647247,252.77125 125.987719,253.753331 125.121816,255.335333 C118.372396,267.682732 111.054863,274.003528 103.374489,274.121781 C90.5941042,274.326562 77.6547051,257.215853 73.7733191,250.608076 C73.0331814,249.347666 71.7668521,248.476628 70.3241619,248.237237 C63.8609674,247.161418 59.3449712,244.58003 56.9048298,240.568063 C52.3584763,233.09069 55.7223442,222.540168 55.7527014,222.447872 C56.562227,220.019348 55.3754047,217.375949 53.0147702,216.366468 C25.0716819,204.419977 32.4802865,172.816 32.8069879,171.486368 C33.3129414,169.468848 32.4918512,167.351821 30.7571535,166.196686 C-6.05313116,141.715321 17.287226,105.545603 18.2933507,104.027055 C18.9004949,103.118522 19.18672,102.03405 19.1101042,100.945253 C17.5011721,78.5015975 21.4273712,61.9792718 30.7773916,51.8310998 C39.7674623,42.0751834 50.6483535,41.8242552 51.0748,41.8184867 C53.0928316,41.8184867 54.9055907,40.5926879 55.6558474,38.7251474 C61.1779684,24.9572636 70.050947,22.9902171 74.6652428,22.9902171 C76.1498549,22.9902171 77.1964558,23.1949976 77.5419498,23.2757561 C79.2246065,23.6939698 81.001226,23.2050924 82.2270791,21.9807357 C92.2680874,11.9681227 102.588093,8.12199866 112.902316,10.5389855 C120.795191,12.3892206 125.934233,17.3486584 125.968927,17.3832692 C126.894099,18.3062235 128.150309,18.8253854 129.457114,18.8253854 L129.64504,18.8253854 C130.953291,18.8253854 132.208056,18.3062235 133.133228,17.3832692 C133.182378,17.3342372 138.146504,12.5420849 145.826878,10.6269546 C156.26253,8.02537687 166.711193,11.8397743 176.875075,21.9807357 C178.073462,23.1791343 179.850082,23.6622433 181.513946,23.287293 C182.986993,22.9498378 196.146121,20.5213141 203.446307,38.7265895 C204.186445,40.5724983 206.002095,41.7954129 207.995552,41.8199288 C208.453801,41.8271394 219.334692,42.0751834 228.324763,51.8325419 C237.673338,61.9807139 241.598091,78.5044817 239.99205,100.946695 C239.915434,102.03405 240.20166,103.119964 240.808804,104.028497 C240.872409,104.122235 247.097083,113.556559 248.664093,126.056823 C250.7067,142.365715 243.870545,155.872576 228.345001,166.198128 Z" id="Shape" fill="#42566C"></path>
                    <path d="M212.526004,35.3419427 C211.662992,32.7619967 208.8629,31.3717967 206.283983,32.2284137 C175.598627,42.4328282 175.24446,68.0145282 175.24446,69.0975575 C175.24446,71.8029676 177.43307,73.9848894 180.143535,74.0021948 C180.156545,74.0021948 180.16811,74.0021948 180.178229,74.0021948 C182.874238,74.0021948 185.075859,71.8217151 185.111998,69.1307262 C185.125008,68.3303517 185.656982,49.4631449 209.403548,41.5675585 C211.989693,40.7080572 213.386125,37.9218886 212.526004,35.3419427 Z" id="Shape" fill="#42566C"></path>
                    <path d="M234.818314,167.305673 C233.166015,165.145383 230.073916,164.725727 227.902653,166.375508 C219.862329,172.487197 212.591055,174.664793 206.305667,172.857821 C195.106748,169.64046 189.464644,154.925106 189.411157,154.775125 C188.464301,152.22979 185.623734,150.927559 183.078065,151.873588 C180.522277,152.813847 179.214026,155.646164 180.159436,158.195825 C180.452889,158.988989 187.531901,177.664394 203.515695,182.300798 C205.899459,182.993014 208.329481,183.33768 210.801425,183.33768 C218.157989,183.33768 225.89474,180.283277 233.885914,174.204758 C236.052841,172.557861 236.469168,169.465964 234.818314,167.305673 Z" id="Shape" fill="#42566C"></path>
                    <path d="M151.392367,171.411378 C149.468298,169.489037 146.34006,169.489037 144.415991,171.411378 C142.489031,173.333719 142.489031,176.450133 144.415991,178.371031 C160.437369,194.354006 157.113978,209.796186 156.943399,210.527339 C156.301561,213.156317 157.907602,215.808369 160.540006,216.465974 C160.938986,216.564038 161.342303,216.61307 161.738393,216.61307 C163.948687,216.61307 165.962381,215.119037 166.521821,212.882315 C166.740104,212.021372 171.578465,191.54909 151.392367,171.411378 Z" id="Shape" fill="#42566C"></path>
                    <path d="M227.947466,125.280964 C227.019403,122.731303 224.1904,121.411766 221.631721,122.330394 C220.632824,122.686597 197.105987,130.89368 184.610381,114.302133 C178.119721,105.685489 175.331194,98.3061798 173.089098,92.37764 C170.338156,85.1050478 167.743338,78.2333639 159.117553,77.5238427 C156.425881,77.2974304 154.017542,79.3149511 153.796368,82.0246875 C153.572303,84.7315397 155.59178,87.1095893 158.308028,87.3331174 C160.373764,87.5004028 161.150041,88.6959172 163.854724,95.8488138 C166.189338,102.019629 169.384073,110.47043 176.720398,120.211926 C185.318716,131.627718 197.314151,134.494645 207.204819,134.494645 C216.78035,134.494645 224.381217,131.805098 225.007153,131.580128 C227.562941,130.649963 228.875529,127.832068 227.947466,125.280964 Z" id="Shape" fill="#42566C"></path>
                    <path d="M129.460006,8.97861571 C126.73653,8.97861571 124.526236,11.1836114 124.526236,13.9005584 L124.526236,257.685982 C124.526236,260.402929 126.73653,262.607925 129.460006,262.607925 C132.183481,262.607925 134.393775,260.405814 134.393775,257.687425 L134.393775,13.9005584 C134.393775,11.1836114 132.183481,8.97861571 129.460006,8.97861571 Z" id="Shape" fill="#42566C"></path>
                    <path d="M165.53738,51.3854859 C165.49835,48.6685389 163.338651,46.4635431 160.531332,46.5342068 C157.804966,46.573144 155.629366,48.8113084 155.668396,51.5282554 C155.672733,51.8354261 155.941611,82.5265439 140.557734,101.990787 C138.87074,104.126561 139.235027,107.221342 141.377379,108.904292 C142.282313,109.61814 143.357825,109.962805 144.429001,109.962805 C145.887593,109.962805 147.333174,109.321064 148.304605,108.088054 C165.83517,85.9111907 165.556173,52.7857807 165.53738,51.3854859 Z" id="Shape" fill="#42566C"></path>
                    <path d="M175.56827,202.165949 C153.818052,202.165949 143.64405,231.864891 143.22194,233.131069 C142.360374,235.708131 143.75536,238.488531 146.338614,239.352359 C146.856132,239.526855 147.385215,239.607613 147.902733,239.607613 C149.965578,239.607613 151.889647,238.308266 152.583526,236.247482 C154.85598,229.505589 163.416713,212.009835 175.569715,212.009835 C178.293191,212.009835 180.503485,209.804839 180.503485,207.087892 C180.503485,204.370945 178.291745,202.165949 175.56827,202.165949 Z" id="Shape" fill="#42566C"></path>
                    <path d="M181.12653,12.4800739 C178.945148,10.8576932 175.851604,11.3090756 174.223879,13.4909974 L162.386013,29.3586024 C160.759734,31.5361979 161.213647,34.6208846 163.399366,36.2447075 C164.282616,36.9037546 165.313315,37.219578 166.339678,37.219578 C167.84742,37.219578 169.334923,36.5360149 170.302017,35.233784 L182.139883,19.366179 C183.766162,17.1885835 183.312249,14.1053389 181.12653,12.4800739 Z" id="Shape" fill="#42566C"></path>
                    <path d="M80.1107479,44.2946003 C69.2284112,44.2946003 60.3742251,53.1275623 60.3742251,63.9838133 C60.3742251,74.8400644 69.2284112,83.6730263 80.1107479,83.6730263 C90.9930847,83.6730263 99.8472707,74.8400644 99.8472707,63.9838133 C99.8472707,53.1275623 90.9930847,44.2946003 80.1107479,44.2946003 Z M80.1107479,73.8291409 C74.668134,73.8291409 70.2417637,69.413381 70.2417637,63.9838133 C70.2417637,58.5542457 74.668134,54.1384858 80.1107479,54.1384858 C85.5533619,54.1384858 89.9797321,58.5542457 89.9797321,63.9838133 C89.9782865,69.413381 85.5519163,73.8291409 80.1107479,73.8291409 Z" id="Shape" fill="#E83F67"></path>
                    <path d="M45.570026,108.285624 C34.6876893,108.285624 25.8335033,117.118586 25.8335033,127.974837 C25.8335033,138.831088 34.6876893,147.66405 45.570026,147.66405 C56.4523628,147.66405 65.3065488,138.831088 65.3065488,127.974837 C65.3079944,117.118586 56.4523628,108.285624 45.570026,108.285624 Z M45.570026,137.820165 C40.1274121,137.820165 35.7010419,133.404405 35.7010419,127.974837 C35.7010419,122.54527 40.1274121,118.12951 45.570026,118.12951 C51.01264,118.12951 55.4390102,122.54527 55.4390102,127.974837 C55.4390102,133.404405 51.01264,137.820165 45.570026,137.820165 Z" id="Shape" fill="#E83F67"></path>
                    <path d="M94.9135014,152.587435 C84.0311647,152.587435 75.1769786,161.420397 75.1769786,172.276648 C75.1769786,183.132899 84.0311647,191.965861 94.9135014,191.965861 C105.795838,191.965861 114.650024,183.132899 114.650024,172.276648 C114.650024,161.420397 105.795838,152.587435 94.9135014,152.587435 Z M94.9135014,182.121976 C89.4708874,182.121976 85.0445172,177.706216 85.0445172,172.276648 C85.0445172,166.84708 89.4708874,162.431321 94.9135014,162.431321 C100.356115,162.431321 104.782486,166.84708 104.782486,172.276648 C104.782486,177.706216 100.35467,182.121976 94.9135014,182.121976 Z" id="Shape" fill="#E83F67"></path>
                    <path d="M94.9135014,206.734574 C84.0311647,206.734574 75.1769786,215.567536 75.1769786,226.423787 C75.1769786,237.280038 84.0311647,246.113 94.9135014,246.113 C105.795838,246.113 114.650024,237.280038 114.650024,226.423787 C114.650024,215.567536 105.795838,206.734574 94.9135014,206.734574 Z M94.9135014,236.269114 C89.4708874,236.269114 85.0445172,231.853354 85.0445172,226.423787 C85.0445172,220.994219 89.4708874,216.578459 94.9135014,216.578459 C100.356115,216.578459 104.782486,220.994219 104.782486,226.423787 C104.78104,231.853354 100.35467,236.269114 94.9135014,236.269114 Z" id="Shape" fill="#E83F67"></path>
                    <path d="M80.1107479,73.8291409 C77.3872726,73.8291409 75.1769786,76.0341366 75.1769786,78.7510836 L75.1769786,127.974837 C75.1769786,130.691784 77.3872726,132.89678 80.1107479,132.89678 C82.8371144,132.89678 85.0445172,130.694668 85.0445172,127.974837 L85.0445172,78.7510836 C85.0445172,76.0341366 82.8342233,73.8291409 80.1107479,73.8291409 Z" id="Shape" fill="#E83F67"></path>
                    <path d="M94.9135014,123.052895 L60.3727795,123.052895 C57.6493042,123.052895 55.4390102,125.25789 55.4390102,127.974837 C55.4390102,130.691784 57.6493042,132.89678 60.3727795,132.89678 L94.9120558,132.89678 C97.6384223,132.89678 99.8458251,130.691784 99.8458251,127.974837 C99.8472707,125.25789 97.6369767,123.052895 94.9135014,123.052895 Z" id="Shape" fill="#E83F67"></path>
                    <path d="M94.9135014,123.052895 C92.190026,123.052895 89.9797321,125.25789 89.9797321,127.974837 L89.9797321,157.509378 C89.9797321,160.226325 92.190026,162.431321 94.9135014,162.431321 C97.6398679,162.431321 99.8472707,160.229209 99.8472707,157.509378 L99.8472707,127.974837 C99.8472707,125.25789 97.6369767,123.052895 94.9135014,123.052895 Z" id="Shape" fill="#E83F67"></path>
                    <path d="M94.9135014,182.121976 C92.190026,182.121976 89.9797321,184.326971 89.9797321,187.043918 L89.9797321,211.656516 C89.9797321,214.373463 92.190026,216.578459 94.9135014,216.578459 C97.6398679,216.578459 99.8472707,214.376347 99.8472707,211.656516 L99.8472707,187.043918 C99.8472707,184.326971 97.6369767,182.121976 94.9135014,182.121976 Z" id="Shape" fill="#E83F67"></path>
                </g>
            </g>
        </g>
    </g>
</svg>