<?xml version="1.0" encoding="UTF-8"?>
<svg width="201px" height="259px" viewBox="0 0 201 259" version="1.1" xmlns="http://www.w3.org/2000/svg" xmlns:xlink="http://www.w3.org/1999/xlink">
    <!-- Generator: Sketch 49.3 (51167) - http://www.bohemiancoding.com/sketch -->
    <title>care (1)</title>
    <desc>Created with Sketch.</desc>
    <defs></defs>
    <g id="Page-1" stroke="none" stroke-width="1" fill="none" fill-rule="evenodd" opacity="0.149999991">
        <g id="Large-Device-Desktops" transform="translate(0.000000, -2488.000000)">
            <g id="Group-14" transform="translate(-105.000000, 2358.000000)">
                <g id="care-(1)" transform="translate(0.000000, 130.000000)">
                    <path d="M297.768158,56.8493065 L297.768158,102.757312 L287.099871,102.757312 L287.099871,67.5175928 C287.099871,61.6256609 291.876226,56.8493065 297.768158,56.8493065 Z M116.045374,20.0513608 L116.045374,5.75363631 L207.680978,11.8044136 L244.929501,48.1769365 L259.186613,48.1769365 L258.622662,61.3513858 L248.337697,60.3209567 C237.232644,59.2083646 227.027066,53.7215692 219.974131,45.0719347 L204.759445,26.4128263 C199.631855,20.1244125 191.948083,16.4753874 183.834125,16.4753874 L129.286702,16.4753874 C124.523615,16.4753874 120.2152,19.3034854 118.320713,23.6736018 L116.045374,20.0513608 Z" id="Path-2" fill="#DCDCDC"></path>
                    <path d="M182.484858,221.832306 L159.313002,221.832306 C156.015108,221.832306 153.341318,224.503468 153.341318,227.799452 C153.341318,231.095435 156.015108,233.766597 159.313002,233.766597 L182.484858,233.766597 C186.06106,233.766597 188.970755,236.673484 188.970755,240.246968 C188.970755,243.820452 186.061657,246.727339 182.484858,246.727339 L120.107959,246.727339 C110.731477,246.727339 101.914,242.596468 95.9178295,235.393403 L81.0008616,217.477048 C72.9968097,207.863016 61.3478744,202.232452 48.8837226,201.876177 L48.8837226,166.626516 L70.8712747,166.626516 C81.7145493,166.626516 91.9814986,170.770516 99.7818957,178.294645 L131.977272,209.34779 C134.253308,211.543323 134.359615,215.219452 132.213774,217.542097 C130.026724,219.908903 126.314354,220.063468 123.937983,217.887032 L98.6614957,194.734581 C96.2313743,192.508016 92.4533089,192.671532 90.2250506,195.101 C87.9961951,197.530468 88.1604328,201.305065 90.5917487,203.531629 L115.868236,226.684081 C119.277215,229.806403 123.590994,231.348468 127.894023,231.348468 C132.698126,231.348468 137.488493,229.426258 140.990042,225.636145 C147.503412,218.585258 147.181506,207.426774 140.272174,200.762 L108.076798,169.708855 C98.0379895,160.025597 84.8249135,154.692823 70.8712747,154.692823 L47.7239055,154.692823 C45.4771331,149.379145 40.207789,145.640355 34.0814225,145.640355 L5.97168442,145.640355 C2.6737905,145.640355 0,148.311516 0,151.6075 L0,195.241839 C0,198.537226 2.6737905,201.208984 5.97168442,201.208984 C9.26957835,201.208984 11.9433688,198.537823 11.9433688,195.241839 L11.9433688,157.574048 L34.0820197,157.574048 C35.6587021,157.574048 36.9409509,158.855919 36.9409509,160.430806 L36.9409509,208.258081 C36.9409509,209.832968 35.6587021,211.114839 34.0820197,211.114839 L27.8798052,211.114839 C24.5819113,211.114839 21.9081208,213.786 21.9081208,217.081984 C21.9081208,220.377371 24.5819113,223.049129 27.8798052,223.049129 L34.0814225,223.049129 C40.2902065,223.049129 45.6144956,219.20829 47.8093091,213.780629 C57.1189017,213.833742 65.8617248,217.953274 71.819673,225.10979 L86.7366409,243.026145 C95.0094454,252.963032 107.172594,258.661629 120.107959,258.661629 L182.484858,258.661629 C192.646098,258.661629 200.913527,250.401081 200.913527,240.246968 C200.913527,230.092855 192.646098,221.832306 182.484858,221.832306 Z" id="Shape" fill="#42566C" fill-rule="nonzero"></path>
                    <path d="M299.809136,55.4606129 C296.511242,55.4606129 293.837452,58.1317742 293.837452,61.4277581 L293.837452,101.426548 L271.698801,101.426548 C270.122119,101.426548 268.83987,100.144677 268.83987,98.5697903 L268.83987,50.7425161 C268.83987,49.167629 270.122119,47.8857581 271.698801,47.8857581 L277.46265,47.8857581 C280.760544,47.8857581 283.434334,45.2145968 283.434334,41.9186129 C283.434334,38.6232258 280.760544,35.9514677 277.46265,35.9514677 L271.698801,35.9514677 C265.490017,35.9514677 260.165728,39.7923065 257.970914,45.2199677 C248.661322,45.1668548 239.918499,41.0473226 233.96055,33.8908065 L219.043582,15.9750484 C210.771375,6.03816129 198.607629,0.338967742 185.671667,0.338967742 L123.295963,0.338967742 C113.134723,0.338967742 104.867294,8.59951613 104.867294,18.7530323 C104.867294,28.9065484 113.134723,37.1670968 123.295963,37.1670968 L148.802384,37.1670968 C152.100277,37.1670968 154.774068,34.4959355 154.774068,31.1999516 C154.774068,27.9039677 152.100277,25.2328065 148.802384,25.2328065 L123.295963,25.2328065 C119.719761,25.2328065 116.810065,22.3259194 116.810065,18.7524355 C116.810065,15.1795484 119.719164,12.2720645 123.295963,12.2720645 L185.672264,12.2720645 C195.049344,12.2720645 203.86682,16.4029355 209.862991,23.606 L224.779959,41.5217581 C232.783414,51.1357903 244.432946,56.7663548 256.897098,57.1232258 L256.897098,92.3728871 L234.909546,92.3728871 C224.066271,92.3728871 213.799322,88.2288871 205.998925,80.7047581 L173.803549,49.6516129 C171.527512,47.4560806 171.421206,43.7805484 173.567047,41.4573065 C175.754096,39.0899032 179.466466,38.9359355 181.842837,41.112371 L207.119922,64.2648226 C209.551238,66.4913871 213.327512,66.327871 215.556964,63.8984032 C217.785223,61.4689355 217.620985,57.6943387 215.189669,55.4677742 L189.912584,32.3159194 C182.698068,25.7078387 171.429567,26.1786935 164.790779,33.3638548 C158.277408,40.4153387 158.599314,51.5738226 165.508647,58.238 L197.704023,89.2911452 C207.742831,98.9744032 220.955907,104.307177 234.909546,104.307177 L258.056915,104.307177 C260.303688,109.620855 265.573032,113.359645 271.699398,113.359645 L299.809733,113.359645 C303.107627,113.359645 305.781418,110.688484 305.781418,107.3925 L305.781418,61.4265645 C305.780821,58.1317742 303.10703,55.4606129 299.809136,55.4606129 Z" id="Shape" fill="#42566C" fill-rule="nonzero"></path>
                    <path d="M192.807946,203.286952 C191.44985,200.283984 187.920231,198.944226 184.917368,200.300694 C181.893004,201.616581 180.509824,205.132774 181.826712,208.153645 C182.804972,210.399306 185.000383,211.739661 187.304489,211.739661 C188.100594,211.739661 188.909241,211.579726 189.685638,211.241952 C189.710721,211.23121 189.789555,211.196 189.814042,211.185258 C192.819891,209.82879 194.165446,206.290516 192.807946,203.286952 Z" id="Shape" fill="#42566C" fill-rule="nonzero"></path>
                    <path d="M207.652052,193.240855 C205.699714,190.591177 201.947329,190.039758 199.29265,191.981661 C196.631998,193.928339 196.053881,197.662355 198.00204,200.320984 C199.17201,201.917355 200.985194,202.763581 202.824657,202.763581 C204.048975,202.763581 205.28464,202.388806 206.347706,201.61121 C206.357262,201.604645 206.413401,201.562871 206.42236,201.556306 C209.067483,199.598887 209.603794,195.889339 207.652052,193.240855 Z" id="Shape" fill="#42566C" fill-rule="nonzero"></path>
                    <path d="M176.11303,209.985742 C175.432787,206.772113 172.275242,204.714435 169.056182,205.379242 C165.840706,206.017194 163.738463,209.129371 164.354802,212.351952 C164.901863,215.2105 167.404846,217.199548 170.21361,217.199548 C170.585086,217.199548 170.963132,217.164339 171.341177,217.092129 C171.379997,217.084371 171.477942,217.064677 171.51736,217.056323 C174.742392,216.373016 176.795662,213.208919 176.11303,209.985742 Z" id="Shape" fill="#42566C" fill-rule="nonzero"></path>
                    <path d="M220.126954,180.26221 C217.678319,178.055339 213.90324,178.24929 211.693495,180.696661 C211.664231,180.729484 211.59555,180.807065 211.566883,180.839887 C209.412084,183.335 209.690392,187.103032 212.187403,189.255597 C213.315567,190.228339 214.703525,190.704565 216.084914,190.704565 C217.743417,190.704565 219.392364,190.018274 220.571292,188.679113 C222.770286,186.231742 222.572604,182.466097 220.126954,180.26221 Z M216.792032,185.293613 L216.127915,184.693258 L216.846977,185.341355 L216.792032,185.293613 Z" id="Shape" fill="#42566C" fill-rule="nonzero"></path>
                    <path d="M235.326411,147.92421 C232.170658,146.967581 228.832152,148.766855 227.874795,151.920806 C226.904897,155.070581 228.673887,158.409532 231.826057,159.378694 C232.410743,159.558919 233.001999,159.644258 233.583699,159.644258 C236.136253,159.644258 238.499484,157.995968 239.28902,155.430435 L239.314104,155.348677 C240.270863,152.194726 238.482165,148.880242 235.326411,147.92421 Z" id="Shape" fill="#42566C" fill-rule="nonzero"></path>
                    <path d="M242.975112,117.127081 C242.961973,117.05129 242.94764,116.9755 242.931515,116.89971 C242.257244,113.674742 239.094324,111.611694 235.868097,112.284258 C232.653218,112.953839 230.586211,116.095258 231.233607,119.307097 C231.781265,122.154306 234.278276,124.146935 237.090026,124.146935 C237.439404,124.146935 237.794158,124.1165 238.149509,124.052645 C241.396041,123.471984 243.556215,120.371145 242.975112,117.127081 Z" id="Shape" fill="#42566C" fill-rule="nonzero"></path>
                    <path d="M237.49853,130.074097 C234.223928,129.785258 231.315427,132.211145 231.025771,135.493403 C231.020396,135.55129 231.012035,135.668855 231.008452,135.726742 C230.81495,139.016758 233.326294,141.840694 236.618813,142.034048 C236.738259,142.04121 236.85651,142.04479 236.974761,142.04479 C240.083931,142.04479 242.696804,139.642177 242.925542,136.51329 C243.197878,133.242968 240.774327,130.362935 237.49853,130.074097 Z" id="Shape" fill="#42566C" fill-rule="nonzero"></path>
                    <path d="M229.480742,164.903629 C226.614047,163.279806 222.967372,164.285968 221.341716,167.153468 L221.258702,167.302661 C219.6862,170.199403 220.747474,173.847484 223.645823,175.41879 C224.55779,175.912919 225.539036,176.147452 226.505948,176.147452 C228.613567,176.147452 230.649517,175.03029 231.727514,173.044226 L226.536407,170.094968 L231.731695,173.037065 C233.357947,170.169565 232.350423,166.528645 229.480742,164.903629 Z" id="Shape" fill="#42566C" fill-rule="nonzero"></path>
                    <path d="M121.174609,51.2629032 C119.700052,48.3148387 116.111308,47.1195 113.16339,48.594129 L113.110237,48.6203871 C110.15993,50.0944194 108.991154,53.6649194 110.466308,56.6123871 C111.51086,58.7005 113.627436,59.9024032 115.821653,59.9024032 C116.725856,59.9024032 117.643198,59.6983065 118.503804,59.268629 C121.454111,57.7951935 122.649165,54.2109677 121.174609,51.2629032 Z" id="Shape" fill="#42566C" fill-rule="nonzero"></path>
                    <path d="M138.450628,46.2875968 C137.673634,43.0859032 134.449796,41.1177419 131.239695,41.8947419 C131.212222,41.9013065 131.127416,41.9227903 131.099943,41.9299516 C127.905967,42.7523065 125.971545,46.0089032 126.793928,49.1998548 C127.488505,51.8925 129.905487,53.6822258 132.562555,53.6822258 C133.054671,53.6822258 133.555148,53.6207581 134.054431,53.4924516 C137.259158,52.7160484 139.227622,49.4904839 138.450628,46.2875968 Z" id="Shape" fill="#42566C" fill-rule="nonzero"></path>
                    <path d="M105.384493,59.8677903 C103.319278,57.3034516 99.5591296,56.900629 96.989854,58.9595 L100.692071,63.6411935 L96.9719372,58.9732258 C94.3919115,61.026129 93.9660878,64.7798387 96.0199555,67.3579032 C97.2000784,68.8379032 98.939804,69.6083387 100.696252,69.6083387 C101.999404,69.6083387 103.312709,69.1834355 104.412206,68.3091613 L104.49104,68.2459032 C107.053149,66.1780806 107.449708,62.432129 105.384493,59.8677903 Z" id="Shape" fill="#42566C" fill-rule="nonzero"></path>
                    <path d="M173.394448,97.3487903 C165.621523,97.3487903 158.419549,100.551677 153.287567,105.956661 C148.154988,100.551677 140.953611,97.3487903 133.180686,97.3487903 C117.889854,97.3487903 105.450188,109.779 105.450188,125.05821 C105.450188,133.302645 109.089099,141.061903 115.432857,146.346935 C115.47108,146.379161 115.510497,146.41079 115.549914,146.442419 L149.580572,173.364097 C150.666333,174.223452 151.976651,174.652532 153.28697,174.652532 C154.603261,174.652532 155.919552,174.219274 157.007701,173.352758 L192.480068,145.119371 C192.653862,144.981516 192.819294,144.833516 192.976365,144.677161 C198.231375,139.440468 201.124946,132.473129 201.124946,125.05821 C201.124946,109.779 188.68528,97.3487903 173.394448,97.3487903 Z M184.758505,136.009613 L153.276817,161.066968 L123.02721,137.136919 C119.44623,134.12679 117.393557,129.729161 117.393557,125.059403 C117.39296,116.360226 124.475489,109.283081 133.180686,109.283081 C139.589542,109.283081 145.316363,113.107806 147.77097,119.026613 C148.696077,121.255565 150.872974,122.709306 153.287567,122.709306 C155.702161,122.709306 157.879057,121.256161 158.804164,119.026613 C161.258771,113.107806 166.985592,109.283081 173.394448,109.283081 C182.099645,109.283081 189.182174,116.360226 189.182174,125.058806 C189.182174,129.177742 187.613256,133.054387 184.758505,136.009613 Z" id="Shape" fill="#E83F67" fill-rule="nonzero"></path>
                    <ellipse id="Oval" fill="#42566C" fill-rule="nonzero" cx="299.808539" cy="41.9174194" rx="5.95078144" ry="5.94625806"></ellipse>
                </g>
            </g>
        </g>
    </g>
</svg>