<?xml version="1.0" encoding="UTF-8"?>
<svg width="189px" height="280px" viewBox="0 0 189 280" version="1.1" xmlns="http://www.w3.org/2000/svg" xmlns:xlink="http://www.w3.org/1999/xlink">
    <!-- Generator: Sketch 49.3 (51167) - http://www.bohemiancoding.com/sketch -->
    <title>patient (1)</title>
    <desc>Created with Sketch.</desc>
    <defs></defs>
    <g id="Page-1" stroke="none" stroke-width="1" fill="none" fill-rule="evenodd" opacity="0.149999991">
        <g id="Large-Device-Desktops" transform="translate(-1251.000000, -3221.000000)">
            <g id="Group-14" transform="translate(246.000000, 3109.000000)">
                <g id="patient-(1)" transform="translate(1005.000000, 112.000000)">
                    <rect id="Rectangle-5" fill="#D8D8D8" x="5" y="41" width="12" height="76"></rect>
                    <path d="M120.18457,28.15625 C105.118981,45.428345 97.0525752,65.7896731 95.9853516,89.2402344 C94.9181279,112.690796 101.705237,138.869507 116.34668,167.776367 C108.271468,163.263827 101.484358,156.787916 95.9853516,148.348633 C90.4863449,139.90935 86.6448735,126.685717 84.4609375,108.677734 C79.5821086,104.095308 77.4414836,97.6161412 78.0390625,89.2402344 C78.6366414,80.8643276 81.9680216,70.6533901 88.0332031,58.6074219 C97.0375255,44.7262915 103.866627,35.9352759 108.520508,32.234375 C113.174389,28.5334741 117.062409,27.1740991 120.18457,28.15625 Z" id="Path-3" fill="#D8D8D8"></path>
                    <path d="M206.710824,175.7525 L162.935294,175.7525 L162.935294,172.587734 C170.233961,169.377031 176.969882,164.550859 182.768078,158.268906 C187.116314,153.558672 190.720078,148.201484 193.483294,142.460391 L198.464549,142.460391 C208.954667,142.460391 217.489176,133.959219 217.489176,123.510078 C217.489176,114.445625 211.065647,106.851172 202.515765,104.996172 C206.95349,103.128594 210.076314,98.7486719 210.076314,93.655625 L210.076314,86.415 C210.076314,80.9905469 206.53349,76.37875 201.632941,74.7457813 C197.778824,50.3447656 182.512784,30.3247656 162.281961,21.9367969 C164.884314,17.5721875 166.404,12.3642969 166.404,6.77085938 C166.404,3.03734375 163.354745,5.68434189e-14 159.607137,5.68434189e-14 L122.504392,5.68434189e-14 C118.756784,5.68434189e-14 115.707529,3.03734375 115.707529,6.77085938 C115.707529,12.3642969 117.227216,17.5721875 119.829569,21.9367969 C99.5987451,30.3247656 84.3327059,50.3453125 80.4785882,74.7457813 C75.5780392,76.37875 72.0352157,80.9910938 72.0352157,86.415 L72.0352157,93.655625 C72.0352157,98.7486719 75.1580392,103.128594 79.5957647,104.996172 C71.0458824,106.851172 64.6223529,114.445625 64.6223529,123.510078 C64.6223529,133.959219 73.1568627,142.460391 83.6469804,142.460391 L88.6282353,142.460391 C91.390902,148.202031 94.9952157,153.558672 99.343451,158.268906 C105.142196,164.550859 111.878118,169.376484 119.176235,172.587734 L119.176235,175.7525 L75.4007059,175.7525 C66.134902,175.7525 58.5963137,183.261641 58.5963137,192.49125 L58.5963137,245.889766 L48.5272941,245.889766 C41.7156078,245.889766 36.1743529,240.370156 36.1743529,233.585078 L36.1743529,135.841016 L38.4390588,135.841016 C42.223451,135.841016 45.3018039,132.774687 45.3018039,129.005078 L45.3018039,120.926641 L56.7658824,120.926641 C60.5502745,120.926641 63.6286275,117.860313 63.6286275,114.090703 L63.6286275,43.4847656 C63.6286275,39.7151563 60.5502745,36.6488281 56.7658824,36.6488281 L55.7095686,36.6488281 L55.7095686,30.078125 C55.7095686,26.3085156 52.6312157,23.2421875 48.8468235,23.2421875 L15.2665882,23.2421875 C11.4821961,23.2421875 8.40384314,26.3085156 8.40384314,30.078125 L8.40384314,36.6488281 L7.34752941,36.6488281 C3.56313725,36.6488281 0.484784314,39.7151563 0.484784314,43.4847656 L0.484784314,114.090703 C0.484784314,117.860313 3.56313725,120.926641 7.34752941,120.926641 L18.8116078,120.926641 L18.8116078,129.005078 C18.8116078,132.774687 21.8899608,135.841016 25.6743529,135.841016 L27.9390588,135.841016 L27.9390588,233.585625 C27.9390588,244.893906 37.1746667,254.093437 48.5272941,254.093437 L58.5963137,254.093437 L58.5963137,272.739141 C58.5963137,276.742812 61.8662745,280 65.8856471,280 L216.225882,280 C220.245255,280 223.515216,276.742812 223.515216,272.739141 L223.515216,192.491797 C223.515216,183.261641 215.976627,175.7525 206.710824,175.7525 Z M16.6391373,31.4453125 L47.4742745,31.4453125 L47.4742745,36.6488281 L16.6391373,36.6488281 L16.6391373,31.4453125 Z M8.72007843,57.421875 L29.9215686,57.421875 C32.1956078,57.421875 34.0392157,55.5854688 34.0392157,53.3203125 C34.0392157,51.0551563 32.1956078,49.21875 29.9215686,49.21875 L8.72007843,49.21875 L8.72007843,44.8519531 L55.3933333,44.8519531 L55.3933333,49.21875 L50.2352941,49.21875 C47.9612549,49.21875 46.1176471,51.0551563 46.1176471,53.3203125 C46.1176471,55.5854688 47.9612549,57.421875 50.2352941,57.421875 L55.3933333,57.421875 L55.3933333,98.984375 L8.72007843,98.984375 L8.72007843,57.421875 Z M8.72007843,112.723516 L8.72007843,107.1875 L55.3933333,107.1875 L55.3933333,112.723516 L8.72007843,112.723516 Z M27.046902,127.637891 L27.046902,120.926641 L37.0665098,120.926641 L37.0665098,127.637891 L27.046902,127.637891 Z M209.253882,123.510625 C209.253882,129.436563 204.413725,134.257813 198.464549,134.257813 L196.768627,134.257813 C198.800549,127.989531 199.876627,121.436875 199.876627,114.886406 L199.876627,112.86625 C205.159294,113.558594 209.253882,118.062656 209.253882,123.510625 Z M158.123137,8.203125 C157.857412,12.4009375 156.428314,16.2328906 154.209176,19.2860938 C149.969647,18.24375 145.568706,17.6930469 141.055765,17.6930469 C136.542275,17.6930469 132.141333,18.24375 127.901804,19.2860938 C125.682667,16.2328906 124.254118,12.4009375 123.987843,8.203125 L158.123137,8.203125 Z M83.6469804,134.257813 C77.6978039,134.257813 72.8576471,129.436563 72.8576471,123.510625 C72.8576471,118.062656 76.9522353,113.559141 82.2343529,112.86625 L82.2343529,114.886406 C82.2343529,121.436875 83.3104314,127.989531 85.3423529,134.257813 L83.6469804,134.257813 Z M84.3881569,97.7577344 C82.1174118,97.7577344 80.2705098,95.9180469 80.2705098,93.6561719 L80.2705098,86.4155469 C80.2705098,84.1536719 82.1174118,82.3139844 84.3881569,82.3139844 L156.745098,82.3139844 C159.019137,82.3139844 160.862745,80.4775781 160.862745,78.2124219 C160.862745,75.9472656 159.019137,74.1108594 156.745098,74.1108594 L88.9411765,74.1108594 C94.0843922,46.5942969 115.497255,25.895625 141.055765,25.895625 C166.614275,25.895625 188.027137,46.5942969 193.170353,74.1108594 L179.254902,74.1108594 C176.980863,74.1108594 175.137255,75.9472656 175.137255,78.2124219 C175.137255,80.4775781 176.980863,82.3139844 179.254902,82.3139844 L197.723373,82.3139844 C199.994118,82.3139844 201.84102,84.1536719 201.84102,86.4155469 L201.84102,93.6561719 C201.84102,95.9180469 199.994118,97.7577344 197.723373,97.7577344 L84.3881569,97.7577344 Z M105.405725,152.717031 C95.9137255,142.434141 90.4696471,128.645234 90.4696471,114.885859 L90.4696471,105.960312 L191.641333,105.960312 L191.641333,114.885859 C191.641333,128.645234 186.197804,142.434141 176.705255,152.717031 C167.007373,163.223047 154.34698,169.009531 141.055216,169.009531 C127.764,169.009531 115.103059,163.223594 105.405725,152.717031 Z M123.29498,183.956172 C125.56902,183.956172 127.412627,182.119766 127.412627,179.854609 L127.412627,175.457188 C131.84102,176.613281 136.411608,177.212656 141.055765,177.212656 C145.699373,177.212656 150.27051,176.613281 154.7,175.457188 L154.7,179.854609 C154.7,182.119766 156.543608,183.956172 158.817647,183.956172 L173.041647,183.956172 C163.97349,192.095313 152.696078,196.631094 141.056314,196.631094 C129.416,196.631094 118.139137,192.095313 109.07098,183.956172 L123.29498,183.956172 Z M97.6343529,183.955625 C108.935922,197.248516 124.652157,204.833672 141.055765,204.833672 C157.458824,204.833672 173.175059,197.248516 184.477176,183.955625 L190.208392,183.955625 L189.241569,185.166406 C177.014353,200.483281 159.451216,209.267734 141.055216,209.267734 C122.659765,209.267734 105.096627,200.482734 92.8694118,185.166406 L91.9025882,183.955625 L97.6343529,183.955625 Z M169.546039,270.098828 C169.546039,271.019219 168.765333,271.796875 167.841882,271.796875 L146.581098,271.796875 L146.581098,254.414453 C146.581098,254.119688 146.558039,253.830391 146.524,253.544375 L153.237412,246.857734 C153.675529,246.421328 154.19051,246.35625 154.45898,246.35625 C154.714824,246.35625 155.205098,246.416406 155.610824,246.82 C156.243294,247.45 156.225176,248.532266 155.572392,249.183047 L152.18549,252.556719 C151.007294,253.729219 150.654824,255.493984 151.292235,257.026328 C151.929647,258.558672 153.431216,259.558359 155.096392,259.558359 L167.841882,259.558359 C168.765882,259.558359 169.546039,260.336016 169.546039,261.256406 L169.546039,270.098828 Z M215.279922,271.796875 L177.629804,271.796875 C177.72698,271.245078 177.781333,270.678516 177.781333,270.098828 L177.781333,261.256406 C177.781333,255.796953 173.322196,251.355234 167.841882,251.355234 L163.715451,251.355234 C164.98698,247.861797 164.227686,243.802344 161.432627,241.019297 C159.576941,239.171406 157.100314,238.153125 154.458431,238.153125 C151.795137,238.153125 149.293255,239.184531 147.413412,241.057578 L141.066196,247.380547 C140.496863,247.237813 139.904471,247.153594 139.291765,247.153594 L128.196078,247.153594 C125.922039,247.153594 124.078431,248.99 124.078431,251.255156 C124.078431,253.520313 125.922039,255.356719 128.196078,255.356719 L138.345804,255.356719 L138.345804,271.796875 L66.8310588,271.796875 L66.8316078,220.511484 L83.8298039,220.511484 C85.0574118,220.511484 86.0560784,221.505703 86.0560784,222.728516 L86.0560784,251.255156 C86.0560784,253.520313 87.8996863,255.356719 90.1737255,255.356719 L108.980392,255.356719 C111.254431,255.356719 113.098039,253.520313 113.098039,251.255156 C113.098039,248.99 111.254431,247.153594 108.980392,247.153594 L94.2908235,247.153594 L94.2908235,222.728516 C94.2908235,216.983047 89.5978039,212.308359 83.8292549,212.308359 L66.8310588,212.308359 L66.8310588,192.491797 C66.8310588,187.784844 70.6752941,183.956172 75.4001569,183.956172 L81.3811765,183.956172 L86.4233725,190.272578 C100.221882,207.557656 120.134275,217.471406 141.054667,217.471406 C161.975608,217.471406 181.888,207.557656 195.68651,190.272578 L200.729255,183.956172 L206.710824,183.956172 C211.435686,183.956172 215.279922,187.785391 215.279922,192.491797 L215.279922,271.796875 Z" id="Shape" fill="#42566C" fill-rule="nonzero"></path>
                    <path d="M205.190588,218.196562 C202.493804,215.510312 198.908157,214.031016 195.094667,214.031016 C191.280078,214.031016 187.69498,215.510859 185.000941,218.195469 L184.879608,218.316328 L184.758824,218.196016 C182.062039,215.509766 178.47749,214.030469 174.664,214.030469 C170.85051,214.030469 167.264863,215.509766 164.568627,218.196016 C161.874588,220.879531 160.391137,224.450078 160.391137,228.251406 C160.391137,232.052734 161.874588,235.623828 164.568627,238.307344 L180.466039,254.142656 C181.63051,255.299844 183.177098,255.936953 184.821412,255.936953 C186.460784,255.936953 188.00298,255.303125 189.16251,254.155234 L205.18949,238.307891 C207.886824,235.621641 209.371922,232.050547 209.371922,228.251406 C209.371922,224.452266 207.886824,220.881172 205.190588,218.196562 Z M199.376471,232.496797 L184.825804,246.885078 L170.392078,232.507734 C169.253412,231.373516 168.626431,229.861953 168.626431,228.251953 C168.626431,226.641953 169.253412,225.130937 170.391529,223.997266 C171.532941,222.860312 173.049882,222.234687 174.664,222.234687 C176.277569,222.234687 177.79451,222.860859 178.935922,223.997812 L181.967608,227.017109 C183.575686,228.618359 186.181882,228.618359 187.789961,227.017109 L190.823843,223.996172 C191.964157,222.859766 193.480549,222.234141 195.094118,222.234141 C196.707686,222.234141 198.225176,222.860312 199.366039,223.997266 C200.506902,225.133125 201.135529,226.644141 201.135529,228.251406 C201.135529,229.859219 200.507451,231.370234 199.376471,232.496797 Z" id="Shape" fill="#E83F67" fill-rule="nonzero"></path>
                    <path d="M127.964392,113.766953 C126.356314,112.165156 123.74902,112.165156 122.14149,113.766953 C118.539922,117.354453 112.680235,117.354453 109.078667,113.766953 C107.470588,112.165156 104.863294,112.165156 103.255765,113.766953 C101.647686,115.36875 101.647686,117.965859 103.255765,119.567109 C106.661882,122.959922 111.136392,124.656328 115.610353,124.656328 C120.084314,124.656328 124.558824,122.959922 127.964941,119.567109 C129.572471,117.965859 129.572471,115.36875 127.964392,113.766953 Z" id="Shape" fill="#42566C" fill-rule="nonzero"></path>
                    <path d="M178.856314,113.7675 C177.248235,112.165703 174.640941,112.165703 173.033412,113.7675 C169.431843,117.355 163.572157,117.355 159.970588,113.7675 C158.36251,112.165703 155.755216,112.165703 154.147686,113.7675 C152.539608,115.369297 152.539608,117.966406 154.147686,119.567656 C157.553255,122.960469 162.027765,124.656875 166.501725,124.656875 C170.975686,124.656875 175.450196,122.960469 178.856314,119.567656 C180.464392,117.965859 180.464392,115.36875 178.856314,113.7675 Z" id="Shape" fill="#42566C" fill-rule="nonzero"></path>
                    <path d="M147.399137,129.679922 L145.173412,129.679922 L145.173412,120.512109 C145.173412,118.246953 143.329804,116.410547 141.055765,116.410547 C138.781725,116.410547 136.938118,118.246953 136.938118,120.512109 L136.938118,131.047109 C136.938118,134.816719 140.016471,137.883047 143.800863,137.883047 L147.399137,137.883047 C149.673176,137.883047 151.516784,136.046641 151.516784,133.781484 C151.516784,131.516328 149.673176,129.679922 147.399137,129.679922 Z" id="Shape" fill="#42566C" fill-rule="nonzero"></path>
                    <path d="M159.340314,144.836562 C157.732235,143.234766 155.124941,143.234766 153.516863,144.836562 C146.645333,151.68125 135.465098,151.68125 128.593569,144.836562 C126.98549,143.234766 124.378196,143.234766 122.770667,144.836562 C121.162588,146.438359 121.162588,149.035469 122.770667,150.637266 C127.811765,155.658672 134.43349,158.169375 141.055216,158.169375 C147.67749,158.169375 154.299216,155.658672 159.340314,150.637266 C160.948392,149.035469 160.948392,146.438359 159.340314,144.836562 Z" id="Shape" fill="#42566C" fill-rule="nonzero"></path>
                    <path d="M40.9618039,74.6189063 L35.9909804,74.6189063 L35.9909804,69.6675 C35.9909804,67.4023438 34.1473725,65.5659375 31.8733333,65.5659375 C29.5992941,65.5659375 27.7556863,67.4023438 27.7556863,69.6675 L27.7556863,74.6189063 L22.7848627,74.6189063 C20.5108235,74.6189063 18.6672157,76.4553125 18.6672157,78.7204688 C18.6672157,80.985625 20.5108235,82.8220313 22.7848627,82.8220313 L27.7556863,82.8220313 L27.7556863,87.7734375 C27.7556863,90.0385938 29.5992941,91.875 31.8733333,91.875 C34.1473725,91.875 35.9909804,90.0385938 35.9909804,87.7734375 L35.9909804,82.8220313 L40.9618039,82.8220313 C43.2358431,82.8220313 45.079451,80.985625 45.079451,78.7204688 C45.079451,76.4553125 43.2358431,74.6189063 40.9618039,74.6189063 Z" id="Shape" fill="#E83F67" fill-rule="nonzero"></path>
                </g>
            </g>
        </g>
    </g>
</svg>