<?xml version="1.0" encoding="UTF-8"?>
<svg width="126px" height="118px" viewBox="0 0 126 118" version="1.1" xmlns="http://www.w3.org/2000/svg" xmlns:xlink="http://www.w3.org/1999/xlink">
    <!-- Generator: Sketch 63.1 (92452) - https://sketch.com -->
    <title>across_the_board</title>
    <desc>Created with Sketch.</desc>
    <g id="Page-1" stroke="none" stroke-width="1" fill="none" fill-rule="evenodd" opacity="0.870000005">
        <g id="across_the_board" transform="translate(-4.000000, -6.000000)">
            <g id="comprehensive_coverage">
                <g id="Group-18">
                    <path d="M112.643425,14.3982323 C122.764992,23.5001537 127.664128,38.2377854 125.624894,50.6812342 C123.585659,63.1246829 114.632922,73.2240752 107.943239,84.4954957 C101.253555,95.7669162 96.8766613,108.235302 87.0783883,116.489373 C77.2552467,124.743444 61.9858568,128.808138 49.6509752,124.46914 C37.2912248,120.130141 27.8659825,107.412388 20.2561563,93.7969113 C12.6214614,80.1814343 6.85192,65.7181071 8.1948305,51.5540211 C9.56260972,37.3899352 18.0925783,23.5250905 29.8803483,14.7224103 C41.6681183,5.91973015 56.7634271,2.17921449 71.9582108,2.0046571 C87.1778632,1.85503647 102.521859,5.29631087 112.643425,14.3982323 Z" id="Path" fill="#FFCCCD" fill-rule="nonzero" opacity="0.300000012" transform="translate(67.040001, 64.115001) rotate(-94.000000) translate(-67.040001, -64.115001) "></path>
                    <rect id="Rectangle" fill="#D03D39" x="48" y="37" width="49" height="73"></rect>
                    <circle id="Oval" fill="#FFFFFF" cx="42.5" cy="45.5" r="19.5"></circle>
                    <g id="noun_features-list_325879" transform="translate(21.000000, 24.000000)" fill="#000000" fill-rule="nonzero">
                        <g id="Group">
                            <path d="M27.3000015,66.3000036 L27.3000015,40.5444022 C35.592702,37.8079021 41.6000023,29.9975017 41.6000023,20.8000011 C41.6000023,9.33140051 32.2686018,0 20.8000011,0 C9.33140051,0 0,9.33140051 0,20.8000011 C0,29.9975017 6.00730033,37.8079021 14.3000008,40.5444022 L14.3000008,66.3000036 C14.3000008,69.8841038 17.2159009,72.800004 20.8000011,72.800004 C24.3841013,72.800004 27.3000015,69.8841038 27.3000015,66.3000036 Z M2.60000014,20.8000011 C2.60000014,10.7640006 10.7640006,2.60000014 20.8000011,2.60000014 C30.8360017,2.60000014 39.0000021,10.7640006 39.0000021,20.8000011 C39.0000021,30.8360017 30.8360017,39.0000021 20.8000011,39.0000021 C10.7640006,39.0000021 2.60000014,30.8360017 2.60000014,20.8000011 Z M16.9000009,66.3000036 L16.9000009,41.2204023 C18.164901,41.4622023 19.4662011,41.6000023 20.8000011,41.6000023 C22.1338012,41.6000023 23.4351013,41.4622023 24.7000014,41.2204023 L24.7000014,66.3000036 C24.7000014,68.4502038 22.9502013,70.2000039 20.8000011,70.2000039 C18.649801,70.2000039 16.9000009,68.4502038 16.9000009,66.3000036 Z" id="Shape"></path>
                            <rect id="Rectangle" x="19.5000011" y="52.0000029" width="2.60000014" height="2.60000014"></rect>
                            <rect id="Rectangle" x="19.5000011" y="57.2000031" width="2.60000014" height="2.60000014"></rect>
                            <rect id="Rectangle" x="19.5000011" y="62.4000034" width="2.60000014" height="2.60000014"></rect>
                            <path d="M41.6000023,7.80000043 L41.6000023,10.4000006 L70.2000039,10.4000006 L70.2000039,68.9000038 L58.5000011,68.9000038 L58.5000011,80.6000044 L22.1000012,80.6000044 L22.1000012,75.4000041 L19.5000011,75.4000041 L19.5000011,83.2000046 L60.3382033,83.2000046 L72.800004,70.7382039 L72.800004,7.80000043 L41.6000023,7.80000043 Z M68.3618038,71.5000039 L61.1000034,78.7618043 L61.1000034,71.5000039 L68.3618038,71.5000039 Z" id="Shape"></path>
                            <polygon id="Path" points="31.2000017 20.8000011 28.6000016 20.8000011 28.6000016 28.6000016 13.0000007 28.6000016 13.0000007 13.0000007 26.0000014 13.0000007 26.0000014 10.4000006 10.4000006 10.4000006 10.4000006 31.2000017 31.2000017 31.2000017"></polygon>
                            <polygon id="Path" points="17.819101 18.580901 15.9809009 20.4191011 20.8000011 25.2382014 30.8191017 15.2191008 28.9809016 13.3809007 20.8000011 21.5618012"></polygon>
                            <path d="M37.7000021,42.9000024 L29.9000016,42.9000024 L29.9000016,50.7000028 L37.7000021,50.7000028 L37.7000021,42.9000024 Z M35.1000019,48.1000026 L32.5000018,48.1000026 L32.5000018,45.5000025 L35.1000019,45.5000025 L35.1000019,48.1000026 Z" id="Shape"></path>
                            <path d="M37.7000021,53.3000029 L29.9000016,53.3000029 L29.9000016,61.1000034 L37.7000021,61.1000034 L37.7000021,53.3000029 Z M35.1000019,58.5000032 L32.5000018,58.5000032 L32.5000018,55.9000031 L35.1000019,55.9000031 L35.1000019,58.5000032 Z" id="Shape"></path>
                            <path d="M29.9000016,71.5000039 L37.7000021,71.5000039 L37.7000021,63.7000035 L29.9000016,63.7000035 L29.9000016,71.5000039 Z M32.5000018,66.3000036 L35.1000019,66.3000036 L35.1000019,68.9000038 L32.5000018,68.9000038 L32.5000018,66.3000036 Z" id="Shape"></path>
                            <rect id="Rectangle" x="40.3000022" y="42.9000024" width="24.7000014" height="2.60000014"></rect>
                            <rect id="Rectangle" x="40.3000022" y="48.1000026" width="24.7000014" height="2.60000014"></rect>
                            <rect id="Rectangle" x="40.3000022" y="53.3000029" width="24.7000014" height="2.60000014"></rect>
                            <rect id="Rectangle" x="40.3000022" y="58.5000032" width="24.7000014" height="2.60000014"></rect>
                            <rect id="Rectangle" x="40.3000022" y="68.9000038" width="13.0000007" height="2.60000014"></rect>
                            <rect id="Rectangle" x="40.3000022" y="63.7000035" width="24.7000014" height="2.60000014"></rect>
                            <polygon id="Path" points="40.3000022 35.1000019 40.3000022 37.7000021 65.0000036 37.7000021 65.0000036 22.1000012 44.2000024 22.1000012 44.2000024 24.7000014 62.4000034 24.7000014 62.4000034 35.1000019"></polygon>
                            <rect id="Rectangle" x="62.4000034" y="16.9000009" width="2.60000014" height="2.60000014"></rect>
                            <rect id="Rectangle" x="57.2000031" y="16.9000009" width="2.60000014" height="2.60000014"></rect>
                            <rect id="Rectangle" x="52.0000029" y="16.9000009" width="2.60000014" height="2.60000014"></rect>
                        </g>
                    </g>
                </g>
            </g>
        </g>
    </g>
</svg>