<?xml version="1.0" encoding="UTF-8"?>
<svg width="126px" height="118px" viewBox="0 0 126 118" version="1.1" xmlns="http://www.w3.org/2000/svg" xmlns:xlink="http://www.w3.org/1999/xlink">
    <!-- Generator: Sketch 63.1 (92452) - https://sketch.com -->
    <title>automated_anomaly</title>
    <desc>Created with Sketch.</desc>
    <g id="Page-1" stroke="none" stroke-width="1" fill="none" fill-rule="evenodd" opacity="0.870000005">
        <g id="automated_anomaly" transform="translate(-4.000000, -6.000000)">
            <g id="comprehensive_coverage">
                <g id="Group-18">
                    <path d="M112.643425,14.3982323 C122.764992,23.5001537 127.664128,38.2377854 125.624894,50.6812342 C123.585659,63.1246829 114.632922,73.2240752 107.943239,84.4954957 C101.253555,95.7669162 96.8766613,108.235302 87.0783883,116.489373 C77.2552467,124.743444 61.9858568,128.808138 49.6509752,124.46914 C37.2912248,120.130141 27.8659825,107.412388 20.2561563,93.7969113 C12.6214614,80.1814343 6.85192,65.7181071 8.1948305,51.5540211 C9.56260972,37.3899352 18.0925783,23.5250905 29.8803483,14.7224103 C41.6681183,5.91973015 56.7634271,2.17921449 71.9582108,2.0046571 C87.1778632,1.85503647 102.521859,5.29631087 112.643425,14.3982323 Z" id="Path" fill="#FFCCCD" fill-rule="nonzero" opacity="0.300000012" transform="translate(67.040001, 64.115001) rotate(-94.000000) translate(-67.040001, -64.115001) "></path>
                    <path d="M101,38 C103.761424,38 106,40.2385763 106,43 L106,96 C106,98.7614237 103.761424,101 101,101 L43,101 C40.2385763,101 38,98.7614237 38,96 L38,43 C38,40.2385763 40.2385763,38 43,38 L101,38 Z M49,69 C47.3431458,69 46,70.3431458 46,72 C46,73.6568542 47.3431458,75 49,75 C50.6568542,75 52,73.6568542 52,72 C52,70.3431458 50.6568542,69 49,69 Z M79,59 C77.3431458,59 76,60.3431458 76,62 C76,63.6568542 77.3431458,65 79,65 C80.6568542,65 82,63.6568542 82,62 C82,60.3431458 80.6568542,59 79,59 Z M64,56 C62.3431458,56 61,57.3431458 61,59 C61,60.6568542 62.3431458,62 64,62 C65.6568542,62 67,60.6568542 67,59 C67,57.3431458 65.6568542,56 64,56 Z M94,46 C92.3431458,46 91,47.3431458 91,49 C91,50.6568542 92.3431458,52 94,52 C95.6568542,52 97,50.6568542 97,49 C97,47.3431458 95.6568542,46 94,46 Z" id="Combined-Shape" fill="#D03D39"></path>
                    <path d="M96,31.75 L38,31.75 C34.5482203,31.75 31.75,34.5482203 31.75,38 L31.75,91 C31.75,94.4517797 34.5482203,97.25 38,97.25 L96,97.25 C99.4517797,97.25 102.25,94.4517797 102.25,91 L102.25,38 C102.25,34.5482203 99.4517797,31.75 96,31.75 Z M38,34.25 L96,34.25 C98.0710678,34.25 99.75,35.9289322 99.75,38 L99.75,91 C99.75,93.0710678 98.0710678,94.75 96,94.75 L38,94.75 C35.9289322,94.75 34.25,93.0710678 34.25,91 L34.25,38 C34.25,35.9289322 35.9289322,34.25 38,34.25 Z" id="Rectangle" stroke="#000000" stroke-width="0.1" fill="#000000" fill-rule="nonzero"></path>
                    <g id="analytics-(1)" transform="translate(39.000000, 39.000000)" fill="#000000" fill-rule="nonzero">
                        <path d="M10.1519995,36.3238576 L1.07999995,36.3238576 C0.483468672,36.3238576 0,36.8073264 0,37.4038575 L0,49.8959976 C0,50.4925288 0.483468672,50.9759975 1.07999995,50.9759975 L10.1519995,50.9759975 C10.7485308,50.9759975 11.2319995,50.4925288 11.2319995,49.8959976 L11.2319995,37.4038575 C11.2319995,36.8077482 10.7485308,36.3238576 10.1519995,36.3238576 L10.1519995,36.3238576 Z M9.07199956,48.8159976 L2.15999989,48.8159976 L2.15999989,38.4838575 L9.07199956,38.4838575 L9.07199956,48.8159976 Z" id="Shape" stroke="#000000" stroke-width="0.2"></path>
                        <path d="M24.8041394,22.8959989 L15.7321399,22.8959989 C15.1356086,22.8959989 14.6521399,23.3794676 14.6521399,23.9759988 L14.6521399,49.8959989 C14.6521399,50.4925288 15.1356086,50.9759975 15.7321399,50.9759975 L24.8041394,50.9759975 C25.4006706,50.9759975 25.8841394,50.4925288 25.8841394,49.8959989 L25.8841394,23.9759988 C25.8841394,23.3794676 25.4002488,22.8959989 24.8041394,22.8959989 Z M23.7241395,48.8159976 L16.8121398,48.8159976 L16.8121398,25.0559988 L23.7241395,25.0559988 L23.7241395,48.8159976 Z" id="Shape" stroke="#000000" stroke-width="0.2"></path>
                        <path d="M39.5216699,26.3519987 L30.4496704,26.3519987 C29.853561,26.3519987 29.3696704,26.8354674 29.3696704,27.4319987 L29.3696704,49.8959976 C29.3696704,50.4925288 29.853561,50.9759975 30.4496704,50.9759975 L39.5216699,50.9759975 C40.1182012,50.9759975 40.6016699,50.4925288 40.6016699,49.8959976 L40.6016699,27.4319987 C40.6016699,26.8354674 40.1182012,26.3519987 39.5216699,26.3519987 Z M38.44167,48.8159976 L31.5296703,48.8159976 L31.5296703,28.5119986 L38.44167,28.5119986 L38.44167,48.8159976 Z" id="Shape" stroke="#000000" stroke-width="0.2"></path>
                        <path d="M5.61599973,32.1839984 C8.11729645,32.1839984 10.1519995,30.1492954 10.1519995,27.6479986 C10.1519995,26.8586705 9.94865582,26.1157487 9.59259323,25.4685925 L17.7512335,17.9917023 C18.4717959,18.4739054 19.3374834,18.7561397 20.2681397,18.7561397 C22.0286239,18.7561397 23.5566552,17.7474366 24.3080145,16.2780461 L30.450936,17.7204366 C30.4749829,20.2014834 32.4995609,22.2121396 34.986092,22.2121396 C37.4869669,22.2121396 39.5220918,20.1774365 39.5220918,17.6761398 C39.5220918,16.9062179 39.3284512,16.1810149 38.9888418,15.5452492 L47.117529,8.27634329 C47.8469508,8.77753088 48.7295133,9.07199956 49.6799976,9.07199956 C52.1812943,9.07199956 54.2159974,7.0372965 54.2159974,4.53599978 C54.2159974,2.03470305 52.1812943,0 49.6799976,0 C47.1787008,0 45.1439978,2.03470305 45.1439978,4.53599978 C45.1439978,5.30592159 45.3372165,6.03112471 45.6772478,6.66689033 L37.5481388,13.9357962 C36.8187169,13.4341868 35.9361545,13.14014 34.9856701,13.14014 C33.2256077,13.14014 31.6971548,14.148843 30.9457953,15.6178117 L24.8028738,14.1754212 C24.7788269,11.6947963 22.7542489,9.68414018 20.2677177,9.68414018 C17.7668428,9.68414018 15.7317179,11.7188431 15.7317179,14.22014 C15.7317179,15.009468 15.9350617,15.7523899 16.2911242,16.399546 L8.13290591,23.8764363 C7.41234333,23.3938114 6.54665598,23.1119989 5.61599973,23.1119989 C3.114703,23.1119989 1.07999995,25.1467019 1.07999995,27.6479986 C1.07999995,30.1492954 3.114703,32.1839984 5.61599973,32.1839984 Z M49.6799976,2.15999989 C50.9903412,2.15999989 52.0559975,3.22565615 52.0559975,4.53599978 C52.0559975,5.84634341 50.9903412,6.91199966 49.6799976,6.91199966 C48.3696539,6.91199966 47.3039977,5.84634341 47.3039977,4.53599978 C47.3039977,3.22565615 48.3696539,2.15999989 49.6799976,2.15999989 Z M34.9856701,15.3001399 C36.2960139,15.3001399 37.36167,16.365796 37.36167,17.6761398 C37.36167,18.9860616 36.2960139,20.0521397 34.9856701,20.0521397 C33.6757484,20.0521397 32.6096703,18.9860616 32.6096703,17.6761398 C32.6096703,16.365796 33.6757484,15.3001399 34.9856701,15.3001399 Z M20.2681397,11.8441401 C21.5780614,11.8441401 22.6441395,12.9097962 22.6441395,14.22014 C22.6441395,15.5300617 21.5780614,16.5961398 20.2681397,16.5961398 C18.9577959,16.5961398 17.8921398,15.5300617 17.8921398,14.22014 C17.8921398,12.9097962 18.9577959,11.8441401 20.2681397,11.8441401 Z M5.61599973,25.2719988 C6.92634336,25.2719988 7.99199961,26.337655 7.99199961,27.6479986 C7.99199961,28.9583423 6.92634336,30.0239985 5.61599973,30.0239985 C4.30565609,30.0239985 3.23999984,28.9583423 3.23999984,27.6479986 C3.23999984,26.337655 4.30565609,25.2719988 5.61599973,25.2719988 Z" id="Shape" stroke="#000000" stroke-width="0.2"></path>
                        <path d="M54.2159974,13.2118587 L45.1439978,13.2118587 C44.5474665,13.2118587 44.0639978,13.6953275 44.0639978,14.2918586 L44.0639978,27.2337174 C44.0639978,27.8302486 44.5474665,28.3137173 45.1439978,28.3137173 C45.7405291,28.3137173 46.2239977,27.8302486 46.2239977,27.2337174 L46.2239977,15.3718586 L53.1359974,15.3718586 L53.1359974,48.8159976 L46.2239977,48.8159976 L46.2239977,36.9541388 C46.2239977,36.3576076 45.7405291,35.8741389 45.1439978,35.8741389 C44.5474665,35.8741389 44.0639978,36.3576076 44.0639978,36.9541388 L44.0639978,49.8959976 C44.0639978,50.4925288 44.5474665,50.9759975 45.1439978,50.9759975 L54.2159974,50.9759975 C54.8125286,50.9759975 55.2959973,50.4925288 55.2959973,49.8959976 L55.2959973,14.2918586 C55.2959973,13.6957493 54.8125286,13.2118587 54.2159974,13.2118587 Z" id="Path" stroke="#000000" stroke-width="0.2"></path>
                        <path d="M45.1439978,33.1745609 C45.4279196,33.1745609 45.7067791,33.0589671 45.9075915,32.8577327 C46.1084041,32.6569203 46.2239977,32.3784828 46.2239977,32.0945609 C46.2239977,31.8093734 46.1084041,31.5317798 45.9075915,31.3309672 C45.7067791,31.1288891 45.4279196,31.014561 45.1439978,31.014561 C44.860076,31.014561 44.5812165,31.1288891 44.3804041,31.3309672 C44.1795915,31.5317798 44.0639978,31.8093734 44.0639978,32.0945609 C44.0639978,32.3784828 44.1795915,32.6569203 44.3804041,32.8577327 C44.5812165,33.0589671 44.860076,33.1745609 45.1439978,33.1745609 Z" id="Path"></path>
                    </g>
                </g>
            </g>
        </g>
    </g>
</svg>