<?xml version="1.0" encoding="UTF-8"?>
<svg width="126px" height="118px" viewBox="0 0 126 118" version="1.1" xmlns="http://www.w3.org/2000/svg" xmlns:xlink="http://www.w3.org/1999/xlink">
    <!-- Generator: Sketch 63.1 (92452) - https://sketch.com -->
    <title>code_level_visibility</title>
    <desc>Created with Sketch.</desc>
    <g id="Page-1" stroke="none" stroke-width="1" fill="none" fill-rule="evenodd" opacity="0.870000005">
        <g id="code_level_visibility" transform="translate(-4.000000, -6.000000)">
            <g id="comprehensive_coverage">
                <g id="Group-18">
                    <path d="M112.643425,14.3982323 C122.764992,23.5001537 127.664128,38.2377854 125.624894,50.6812342 C123.585659,63.1246829 114.632922,73.2240752 107.943239,84.4954957 C101.253555,95.7669162 96.8766613,108.235302 87.0783883,116.489373 C77.2552467,124.743444 61.9858568,128.808138 49.6509752,124.46914 C37.2912248,120.130141 27.8659825,107.412388 20.2561563,93.7969113 C12.6214614,80.1814343 6.85192,65.7181071 8.1948305,51.5540211 C9.56260972,37.3899352 18.0925783,23.5250905 29.8803483,14.7224103 C41.6681183,5.91973015 56.7634271,2.17921449 71.9582108,2.0046571 C87.1778632,1.85503647 102.521859,5.29631087 112.643425,14.3982323 Z" id="Path" fill="#FFCCCD" fill-rule="nonzero" opacity="0.300000012" transform="translate(67.040001, 64.115001) rotate(-94.000000) translate(-67.040001, -64.115001) "></path>
                    <g id="noun_document-review_1959708" transform="translate(19.000000, 11.000000)">
                        <path d="M35.0370083,4.98000002 L86.9074518,4.98000002 L99.364739,17.3438899 L99.364739,98.7027784 L35.0370083,98.7027784 L35.0370083,61.3299672 C46.9579784,59.9918276 56.5667051,54.6036984 63.8631882,45.1655798 C56.5667051,35.2933304 46.9579784,29.7849568 35.0370083,28.6404587 L35.0370083,4.98000002 Z" id="Path-2" fill="#D03D39"></path>
                        <path d="M38.7975668,45.1656253 C38.7975668,41.2157248 35.5738413,38.0030032 31.6115726,38.0030032 C27.6495767,38.0030032 24.4257601,41.2157248 24.4257601,45.1656253 C24.4257601,49.1154349 27.6495767,52.3281565 31.6115726,52.3281565 C35.5738411,52.3281565 38.7975668,49.1154349 38.7975668,45.1656253 Z M27.40576,45.1656253 C27.40576,42.8594174 29.2922688,40.9830032 31.6115724,40.9830032 C33.931058,40.9830032 35.8175667,42.8594174 35.8175667,45.1656253 C35.8175667,47.4720151 33.9310578,49.3481565 31.6115724,49.3481565 C29.2922688,49.3481565 27.40576,47.4720151 27.40576,45.1656253 Z" id="Shape" fill="#000000" fill-rule="nonzero"></path>
                        <path d="M95.3414483,16.7399464 C95.3330817,16.6084438 95.3076177,16.4819429 95.2650568,16.357079 C95.2487781,16.3090614 95.2364099,16.2625899 95.2152203,16.2166639 C95.1426482,16.0584241 95.0511603,15.9080964 94.9234771,15.7802315 L79.5804058,0.436523515 C79.4520861,0.30829471 79.3014856,0.216442914 79.1424273,0.143870974 C79.0980474,0.123499843 79.0533948,0.11140447 79.007196,0.0956715596 C78.8796038,0.0516554693 78.7501927,0.0257369192 78.61578,0.0175520511 C78.5852233,0.0157330591 78.5576677,0 78.5269292,0 L28.0736409,0 C27.2507942,0 26.5836409,0.667244205 26.5836409,1.49000001 L26.5836409,29.6620406 C16.674195,30.9411453 7.50429267,35.9788987 0.366043087,44.1879038 C-0.122135599,44.7487455 -0.122135599,45.5825052 0.366043087,46.1435288 C7.50456549,54.3528979 16.6734675,59.3901965 26.5836409,60.6692101 L26.5836409,93.8700006 C26.5836409,94.6927564 27.2507942,95.3600006 28.0736409,95.3600006 L93.8700915,95.3600006 C94.6928473,95.3600006 95.3600915,94.6927564 95.3600915,93.8700006 L95.3600915,16.8338899 C95.3600915,16.8013325 95.34354,16.77214 95.3414483,16.7399464 Z M80.0169292,5.08695316 L85.1450792,10.215376 L90.2730475,15.3438899 L80.0169292,15.3438899 L80.0169292,5.08695316 Z M3.48936829,45.1656253 C9.03066954,39.1513326 15.7765027,35.1154006 23.0758113,33.3408419 C19.3871883,35.9916304 16.9728498,40.2982071 16.9728498,45.1656253 C16.9728498,50.0329526 19.3871882,54.3395291 23.0758113,56.9904087 C15.7765027,55.2157591 9.03066969,51.1798271 3.48936829,45.1656253 Z M19.9528498,45.1656253 C19.9528498,38.7669192 25.1831282,33.5605586 31.6115724,33.5605586 C38.0401986,33.5605586 43.2705679,38.7669192 43.2705679,45.1656253 C43.2705679,51.5642405 38.0401986,56.7706009 31.6115724,56.7706009 C25.1831282,56.7706009 19.9528498,51.5642405 19.9528498,45.1656253 Z M40.1467879,33.3402053 C47.446915,35.1147641 54.1922934,39.150878 59.7340494,45.1656253 C54.1922934,51.1802817 47.446915,55.2163956 40.1467879,56.9909543 C43.8356838,54.3401658 46.2505679,50.0333163 46.2505679,45.1656253 C46.2505679,40.2979343 43.8356839,35.9910848 40.1467879,33.3402053 Z M92.3800916,92.3800006 L29.5636409,92.3800006 L29.5636409,60.946948 C30.2439809,60.9822336 30.9266853,61.0041508 31.6123909,61.0041508 C43.3552352,61.0041508 54.3843637,55.7873319 62.6991348,46.316592 L85.4174517,46.316592 C86.2403892,46.316592 86.9074517,45.6494387 86.9074517,44.826592 C86.9074517,44.0037453 86.2403892,43.336592 85.4174517,43.336592 L62.080363,43.336592 C53.8401646,34.3006477 43.0682211,29.3270088 31.6123911,29.3270088 C31.6115726,29.3270088 31.6123911,29.3270088 31.6115726,29.3270088 C30.9263217,29.3270088 30.243981,29.3489259 29.5636409,29.3843024 L29.5636409,2.98000002 L77.0371113,2.98000002 L77.0371113,16.8338899 C77.0371113,17.6566457 77.7041737,18.3238899 78.5269293,18.3238899 L92.3800916,18.3238899 L92.3800916,92.3800006 L92.3800916,92.3800006 Z" id="Shape" fill="#000000" fill-rule="nonzero"></path>
                        <path d="M36.5270083,14.2932325 L65.8919401,14.2932325 C66.7146959,14.2932325 67.3819401,13.6259883 67.3819401,12.8032324 C67.3819401,11.9802949 66.7146959,11.3132324 65.8919401,11.3132324 L36.5270083,11.3132324 C35.7040707,11.3132324 35.0370083,11.9802949 35.0370083,12.8032324 C35.0370083,13.6259883 35.7040707,14.2932325 36.5270083,14.2932325 Z" id="Path" fill="#000000" fill-rule="nonzero"></path>
                        <path d="M67.3819401,23.8748311 C67.3819401,23.0520753 66.7146959,22.3848311 65.8919401,22.3848311 L36.5270083,22.3848311 C35.7040707,22.3848311 35.0370083,23.0520753 35.0370083,23.8748311 C35.0370083,24.6977687 35.7040707,25.3648311 36.5270083,25.3648311 L65.8919401,25.3648311 C66.7146959,25.3648311 67.3819401,24.6977687 67.3819401,23.8748311 Z" id="Path" fill="#000000" fill-rule="nonzero"></path>
                        <path d="M85.4174517,64.9663285 L36.5270083,64.9663285 C35.7040707,64.9663285 35.0370083,65.633391 35.0370083,66.4563286 C35.0370083,67.2791752 35.7040707,67.9463286 36.5270083,67.9463286 L85.4174517,67.9463286 C86.2403892,67.9463286 86.9074517,67.2791752 86.9074517,66.4563286 C86.9074517,65.633391 86.2403894,64.9663285 85.4174517,64.9663285 Z" id="Path" fill="#000000" fill-rule="nonzero"></path>
                        <path d="M85.4174517,73.9965435 L36.5270083,73.9965435 C35.7040707,73.9965435 35.0370083,74.6636968 35.0370083,75.4865435 C35.0370083,76.3093902 35.7040707,76.9765435 36.5270083,76.9765435 L85.4174517,76.9765435 C86.2403892,76.9765435 86.9074517,76.3093902 86.9074517,75.4865435 C86.9074517,74.6636968 86.2403894,73.9965435 85.4174517,73.9965435 Z" id="Path" fill="#000000" fill-rule="nonzero"></path>
                        <path d="M64.6288413,83.0260309 L36.5270083,83.0260309 C35.7040707,83.0260309 35.0370083,83.6930933 35.0370083,84.5160309 C35.0370083,85.3388776 35.7040707,86.0060309 36.5270083,86.0060309 L64.6288413,86.0060309 C65.4517789,86.0060309 66.1188413,85.3388776 66.1188413,84.5160309 C66.1188413,83.6930931 65.451779,83.0260309 64.6288413,83.0260309 Z" id="Path" fill="#000000" fill-rule="nonzero"></path>
                        <path d="M52.9184635,33.2433516 C52.9184635,34.0662892 53.5855259,34.7333516 54.4084635,34.7333516 L85.4174518,34.7333516 C86.2403894,34.7333516 86.9074518,34.0662892 86.9074518,33.2433516 C86.9074518,32.4205958 86.2403894,31.7533516 85.4174518,31.7533516 L54.4084635,31.7533516 C53.5855258,31.7533516 52.9184635,32.420596 52.9184635,33.2433516 Z" id="Path" fill="#000000" fill-rule="nonzero"></path>
                        <path d="M85.4174517,54.9197415 L54.4084635,54.9197415 C53.5855259,54.9197415 52.9184635,55.586804 52.9184635,56.4097415 C52.9184635,57.2324973 53.5855259,57.8997416 54.4084635,57.8997416 L85.4174518,57.8997416 C86.2403894,57.8997416 86.9074518,57.2324973 86.9074518,56.4097415 C86.9074518,55.586804 86.2403894,54.9197415 85.4174517,54.9197415 Z" id="Path" fill="#000000" fill-rule="nonzero"></path>
                    </g>
                </g>
            </g>
        </g>
    </g>
</svg>