<?xml version="1.0" encoding="UTF-8"?>
<svg width="126px" height="118px" viewBox="0 0 126 118" version="1.1" xmlns="http://www.w3.org/2000/svg" xmlns:xlink="http://www.w3.org/1999/xlink">
    <!-- Generator: Sketch 63.1 (92452) - https://sketch.com -->
    <title>comprehensive_coverage</title>
    <desc>Created with Sketch.</desc>
    <g id="Page-1" stroke="none" stroke-width="1" fill="none" fill-rule="evenodd" opacity="0.870000005">
        <g id="comprehensive_coverage" transform="translate(-4.000000, -6.000000)" fill-rule="nonzero">
            <g id="Group-18">
                <path d="M112.643425,14.3982323 C122.764992,23.5001537 127.664128,38.2377854 125.624894,50.6812342 C123.585659,63.1246829 114.632922,73.2240752 107.943239,84.4954957 C101.253555,95.7669162 96.8766613,108.235302 87.0783883,116.489373 C77.2552467,124.743444 61.9858568,128.808138 49.6509752,124.46914 C37.2912248,120.130141 27.8659825,107.412388 20.2561563,93.7969113 C12.6214614,80.1814343 6.85192,65.7181071 8.1948305,51.5540211 C9.56260972,37.3899352 18.0925783,23.5250905 29.8803483,14.7224103 C41.6681183,5.91973015 56.7634271,2.17921449 71.9582108,2.0046571 C87.1778632,1.85503647 102.521859,5.29631087 112.643425,14.3982323 Z" id="Path" fill="#FFCCCD" opacity="0.300000012" transform="translate(67.040001, 64.115001) rotate(-94.000000) translate(-67.040001, -64.115001) "></path>
                <g id="technical-support" transform="translate(21.000000, 21.000000)">
                    <path d="M15.3734699,67.5964533 C14.1497542,67.5964533 12.9733868,67.901882 11.9297273,68.4753945 C6.43200958,61.4278592 3.41440013,52.6731239 3.41440013,43.7043217 C3.41440013,21.4880472 21.4880472,3.41440013 43.7043217,3.41440013 C46.4051655,3.41440013 49.1046756,3.68315081 51.728162,4.2133165 C52.6511171,4.40004151 53.5527321,3.80252148 53.7394571,2.87823261 C53.9261821,1.95394374 53.3286621,1.05366254 52.4043734,0.866270701 C49.5588176,0.291424344 46.6319032,0 43.7043217,0 C32.0306744,0 21.0552452,4.54608701 12.8006662,12.8006662 C4.54608701,21.0552452 0,32.0306744 0,43.7043217 C0,53.5240564 3.33437513,63.1070506 9.40493853,70.7894509 C8.623361,71.9571491 8.20322965,73.3295779 8.20322965,74.7666936 C8.20322965,76.6819587 8.94946285,78.4825212 10.3038861,79.8362774 C11.6576423,81.1907007 13.4582049,81.9369339 15.3734699,81.9369339 C17.288735,81.9369339 19.0892976,81.1907007 20.4437208,79.8362774 C21.798144,78.4825212 22.5437102,76.6812917 22.5437102,74.7660266 C22.5437102,72.8514285 21.798144,71.0501991 20.4437208,69.6964427 C19.0892976,68.3420195 17.288735,67.5964533 15.3734699,67.5964533 Z M18.0289664,77.4221899 C17.3200782,78.1317449 16.37645,78.5225337 15.3734699,78.5225337 C14.3704899,78.5225337 13.4275287,78.1317449 12.7179737,77.4221899 C12.0084186,76.7126348 11.6176298,75.7696736 11.6176298,74.7666936 C11.6176298,73.7630465 12.0084186,72.8200853 12.7179737,72.1105303 C13.4268619,71.4009753 14.3704899,71.0108534 15.3734699,71.0108534 C16.37645,71.0108534 17.3194113,71.4016421 18.0289664,72.1105303 C18.7385214,72.8200853 19.1293101,73.7630465 19.1293101,74.7666936 C19.1293101,75.7696736 18.7385214,76.7126348 18.0289664,77.4221899 L18.0289664,77.4221899 Z" id="Shape" fill="#000000"></path>
                    <path d="M78.0023712,16.617192 C79.8582844,13.8329887 79.5601913,10.0264661 77.1054243,7.57169896 C75.7510011,6.21794274 73.9504386,5.47170955 72.0351735,5.47170955 C70.1199084,5.47170955 68.3193458,6.21794274 66.9649226,7.57169896 C65.6104994,8.92612218 64.8649332,10.7266848 64.8649332,12.6419498 C64.8649332,14.5572149 65.6104994,16.3577775 66.9649226,17.7122007 C68.3193458,19.0666239 70.1199084,19.8121901 72.0351735,19.8121901 C73.2588892,19.8121901 74.4352566,19.5067614 75.4789161,18.9332489 C80.9766338,25.981451 83.9942433,34.7355195 83.9942433,43.7043217 C83.9942433,65.9205962 65.9205962,83.9942433 43.7043217,83.9942433 C41.0301529,83.9942433 38.355984,83.7308276 35.7571721,83.2106651 C34.8328832,83.0259407 33.9332688,83.6254614 33.7478777,84.5497501 C33.5631531,85.4747058 34.1626738,86.3736534 35.0869627,86.5590447 C37.9058433,87.1225541 40.8054159,87.4086434 43.7043217,87.4086434 C55.377969,87.4086434 66.3533983,82.8625564 74.6079772,74.6079772 C82.8625564,66.3533983 87.4086434,55.377969 87.4086434,43.7043217 C87.4086434,33.88392 84.0736014,24.3002591 78.0023712,16.617192 Z M69.379677,15.2981131 C68.670122,14.5885581 68.2793333,13.6455969 68.2793333,12.6419498 C68.2793333,11.6389698 68.670122,10.6960086 69.379677,9.98645356 C70.0885652,9.27689853 71.0321934,8.88610968 72.0351735,8.88610968 C73.0381535,8.88610968 73.9817815,9.27689853 74.6913366,9.98645356 C76.1551273,11.4509111 76.1551273,13.8336555 74.6913366,15.2981131 C73.9817815,16.0070013 73.0381535,16.39779 72.0351735,16.39779 C71.0315264,16.39779 70.0885652,16.0070013 69.379677,15.2981131 Z" id="Shape" fill="#000000"></path>
                    <path d="M45.0413226,17.6332805 C45.9842838,17.6332805 46.7485226,18.3975192 46.7485226,19.3404806 L46.7485226,19.3404806 L46.7485226,22.619505 C48.9932239,23.2236939 51.1392278,24.1133051 53.1558579,25.2750015 L53.1558579,25.2750015 L55.4739155,22.956277 C56.1407905,22.289402 57.2217949,22.289402 57.8880031,22.95561 L57.8880031,22.95561 L65.439029,30.5006342 C65.7591291,30.8207342 65.9391852,31.2555367 65.9398521,31.7083447 C65.9398521,32.1611529 65.7597959,32.5959554 65.4396959,32.9160554 L65.4396959,32.9160554 L63.118304,35.2374475 C64.2800002,37.2540776 65.1689445,39.4000813 65.7731334,41.6441158 L65.7731334,41.6441158 L69.0708303,41.6441158 C70.0137915,41.6441158 70.7780304,42.4083546 70.7780304,43.3513158 L70.7780304,43.3513158 L70.7780304,54.0259844 C70.7780304,54.9689456 70.0137915,55.7331845 69.0708303,55.7331845 L69.0708303,55.7331845 L65.7738002,55.7331845 C65.1696114,57.9778857 64.2800002,60.1238896 63.118304,62.1405197 L63.118304,62.1405197 L65.4523664,64.4745823 C66.1185746,65.1407905 66.1185746,66.2217949 65.4523664,66.8886699 L65.4523664,66.8886699 L57.9073424,74.439029 C57.5872424,74.7597959 57.1524399,74.9398521 56.7002987,74.9398521 C56.2468237,74.9398521 55.812688,74.7597959 55.492588,74.4396959 L55.492588,74.4396959 L53.1558579,72.1029658 C51.1392278,73.264662 48.9932239,74.1542734 46.7485226,74.7584621 L46.7485226,74.7584621 L46.7485226,78.0681628 C46.7485226,79.0111242 45.9842838,79.7753629 45.0413226,79.7753629 L45.0413226,79.7753629 L34.366654,79.7753629 C33.4243596,79.7753629 32.6594539,79.0111242 32.6594539,78.0681628 L32.6594539,78.0681628 L32.6594539,74.7584621 C30.4154195,74.1542734 28.2694156,73.264662 26.2521187,72.1029658 L26.2521187,72.1029658 L23.9160554,74.4396959 C23.5959554,74.7597959 23.1618197,74.9398521 22.7090117,74.9398521 L22.7090117,74.9398521 C22.2555367,74.9398521 21.821401,74.7591291 21.501301,74.439029 L21.501301,74.439029 L13.956277,66.8886699 C13.289402,66.2217949 13.2900688,65.1407905 13.956277,64.4745823 L13.956277,64.4745823 L16.2903395,62.1405197 C15.1286432,60.1238896 14.239032,57.9778857 13.6348432,55.7331845 L13.6348432,55.7331845 L10.3378131,55.7331845 C9.88433804,55.7331845 9.45020236,55.5531283 9.13010234,55.2330283 C8.81000233,54.9129283 8.62994616,54.4781256 8.63061115,54.0253176 L8.63061115,54.0253176 L8.63661482,43.350649 C8.63661482,42.4083546 9.40085369,41.6441158 10.3438149,41.6441158 L10.3438149,41.6441158 L13.6348432,41.6441158 C14.239032,39.3994145 15.1286432,37.2540776 16.2903395,35.2374475 L16.2903395,35.2374475 L13.9689475,32.9160554 C13.6488475,32.5959554 13.4687913,32.1611529 13.4687913,31.7083447 C13.4687913,31.2555367 13.6488475,30.821401 13.9696144,30.501301 L13.9696144,30.501301 L21.5199735,22.95561 C22.1868485,22.289402 23.2678529,22.2900688 23.9340611,22.956277 L23.9340611,22.956277 L26.2527855,25.2750015 C28.2694156,24.1133051 30.4154195,23.2236939 32.6594539,22.620172 L32.6594539,22.620172 L32.6594539,19.3404806 C32.6594539,18.3975192 33.4243596,17.6332805 34.366654,17.6332805 L34.366654,17.6332805 Z M39,35 C31.8202983,35 26,40.8202983 26,48 C26,55.1797017 31.8202983,61 39,61 C46.1797017,61 52,55.1797017 52,48 C52,40.8202983 46.1797017,35 39,35 Z" id="Combined-Shape" fill="#D03D39"></path>
                    <path d="M36.6594539,73.0681628 C36.6594539,74.0111242 37.4243596,74.7753629 38.366654,74.7753629 L49.0413226,74.7753629 C49.9842838,74.7753629 50.7485226,74.0111242 50.7485226,73.0681628 L50.7485226,69.7584621 C52.9932239,69.1542734 55.1392278,68.264662 57.1558579,67.1029658 L59.492588,69.4396959 C59.812688,69.7597959 60.2468237,69.9398521 60.7002987,69.9398521 C61.1524399,69.9398521 61.5872424,69.7597959 61.9073424,69.439029 L69.4523664,61.8886699 C70.1185746,61.2217949 70.1185746,60.1407905 69.4523664,59.4745823 L67.118304,57.1405197 C68.2800002,55.1238896 69.1696114,52.9778857 69.7738002,50.7331845 L73.0708303,50.7331845 C74.0137915,50.7331845 74.7780304,49.9689456 74.7780304,49.0259844 L74.7780304,38.3513158 C74.7780304,37.4083546 74.0137915,36.6441158 73.0708303,36.6441158 L69.7731334,36.6441158 C69.1689445,34.4000813 68.2800002,32.2540776 67.118304,30.2374475 L69.4396959,27.9160554 C69.7597959,27.5959554 69.9398521,27.1611529 69.9398521,26.7083447 C69.9391852,26.2555367 69.7591291,25.8207342 69.439029,25.5006342 L61.8880031,17.95561 C61.2217949,17.289402 60.1407905,17.289402 59.4739155,17.956277 L57.1558579,20.2750015 C55.1392278,19.1133051 52.9932239,18.2236939 50.7485226,17.619505 L50.7485226,14.3404806 C50.7485226,13.3975192 49.9842838,12.6332805 49.0413226,12.6332805 L38.366654,12.6332805 C37.4243596,12.6332805 36.6594539,13.3975192 36.6594539,14.3404806 L36.6594539,17.620172 C34.4154195,18.2236939 32.2694156,19.1133051 30.2527855,20.2750015 L27.9340611,17.956277 C27.2678529,17.2900688 26.1868485,17.289402 25.5199735,17.95561 L17.9696144,25.501301 C17.6488475,25.821401 17.4687913,26.2555367 17.4687913,26.7083447 C17.4687913,27.1611529 17.6488475,27.5959554 17.9689475,27.9160554 L20.2903395,30.2374475 C19.1286432,32.2540776 18.239032,34.3994145 17.6348432,36.6441158 L14.3438149,36.6441158 C13.4008537,36.6441158 12.6366148,37.4083546 12.6366148,38.350649 L12.6306111,49.0253176 C12.6299462,49.4781256 12.8100023,49.9129283 13.1301023,50.2330283 C13.4502024,50.5531283 13.884338,50.7331845 14.3378131,50.7331845 L17.6348432,50.7331845 C18.239032,52.9778857 19.1286432,55.1238896 20.2903395,57.1405197 L17.956277,59.4745823 C17.2900688,60.1407905 17.289402,61.2217949 17.956277,61.8886699 L25.501301,69.439029 C25.821401,69.7591291 26.2555367,69.9398521 26.7083447,69.9398521 L26.7090117,69.9398521 C27.1618197,69.9398521 27.5959554,69.7597959 27.9160554,69.4396959 L30.2521187,67.1029658 C32.2694156,68.264662 34.4154195,69.1542734 36.6594539,69.7584621 L36.6594539,73.0681628 Z M30.9216612,63.5125106 C30.2461168,63.0757075 29.3571725,63.1704038 28.7876611,63.7392482 L26.7090117,65.8178976 L21.5774083,60.682293 L23.6540573,58.6049773 C24.2229016,58.0361329 24.3175978,57.1471886 23.8807946,56.471644 C22.3329777,54.0762289 21.2446377,51.450742 20.6471176,48.6672056 C20.4777315,47.88096 19.7828476,47.3187843 18.9779294,47.3187843 L16.04568,47.3187843 L16.0496813,40.0585159 L18.9779294,40.0585159 C19.7828476,40.0585159 20.4777315,39.4970072 20.6471176,38.7100947 C21.2446377,35.9272251 22.3329777,33.3017381 23.8807946,30.906323 C24.3175978,30.2307787 24.2229016,29.3418343 23.6540573,28.7729898 L21.5907458,26.7090117 L26.7263504,21.5774083 L28.7876611,23.6393859 C29.3571725,24.2082303 30.2454498,24.3022596 30.9216612,23.8661234 C33.3164095,22.3183065 35.9418964,21.2299665 38.7254328,20.6324465 C39.5116784,20.4630601 40.0738541,19.7675094 40.0738541,18.9632582 L40.0738541,16.0476806 L47.3341225,16.0476806 L47.3341225,18.9625914 C47.3341225,19.7675094 47.8956312,20.4630601 48.6825437,20.6317795 C51.4654133,21.2299665 54.0915671,22.3176395 56.4863154,23.8654566 C57.1618597,24.3022596 58.0508041,24.2082303 58.6196486,23.6387191 L60.681626,21.5774083 L65.8172307,26.7090117 L63.7539193,28.772323 C63.1844081,29.3418343 63.0903788,30.2307787 63.5271818,30.906323 C65.0749989,33.3017381 66.1626719,35.9272251 66.7608589,38.7100947 C66.9295783,39.4970072 67.625129,40.0585159 68.430047,40.0585159 L71.3636303,40.0585159 L71.3636303,47.3187843 L68.430047,47.3187843 C67.625129,47.3187843 66.9302451,47.88096 66.7608589,48.6672056 C66.1633389,51.4500752 65.0749989,54.0762289 63.5271818,56.4709772 C63.0903788,57.1471886 63.185075,58.0361329 63.7539193,58.6049773 L65.8305682,60.681626 L60.6989649,65.8172307 L58.6203155,63.7392482 C58.0508041,63.1697368 57.1618597,63.0757075 56.4863154,63.5125106 C54.0909003,65.0603275 51.4654133,66.1480007 48.6825437,66.7461876 C47.8956312,66.9155739 47.3341225,67.6104576 47.3341225,68.4153758 L47.3341225,71.3609628 L40.0738541,71.3609628 L40.0738541,68.4153758 C40.0738541,67.6111245 39.5116784,66.9155739 38.7254328,66.7461876 C35.9425632,66.1486676 33.3170763,65.0603275 30.9216612,63.5125106 L30.9216612,63.5125106 Z" id="Shape" fill="#000000"></path>
                    <path d="M57.8107291,43.7043217 C57.8107291,35.9258914 51.482752,29.5979143 43.7043217,29.5979143 C35.9258914,29.5979143 29.5979143,35.9258914 29.5979143,43.7043217 C29.5979143,51.482752 35.9258914,57.8107291 43.7043217,57.8107291 C51.482752,57.8107291 57.8107291,51.482752 57.8107291,43.7043217 Z M33.0123145,43.7043217 C33.0123145,37.8084796 37.8084796,33.0123145 43.7043217,33.0123145 C49.6001638,33.0123145 54.396329,37.8091465 54.396329,43.7043217 C54.396329,49.5994969 49.6001638,54.396329 43.7043217,54.396329 C37.8084796,54.396329 33.0123145,49.6001638 33.0123145,43.7043217 Z" id="Shape" fill="#000000"></path>
                    <path d="M59.4238998,6.45668392 C59.8733737,6.45668392 60.313511,6.27396024 60.6309437,5.95652773 C60.948376,5.63709455 61.1310999,5.19695703 61.1310999,4.74748335 C61.1310999,4.300677 60.949043,3.85987265 60.6309437,3.54043947 C60.313511,3.22300696 59.8733737,3.04028329 59.4238998,3.04028329 C58.9730923,3.04028329 58.5349554,3.22300696 58.2175229,3.54043947 C57.8994236,3.85987265 57.7166997,4.2986765 57.7166997,4.74748335 C57.7166997,5.19829087 57.8994236,5.63709455 58.2175229,5.95652773 C58.5349554,6.27396024 58.9730923,6.45668392 59.4238998,6.45668392 Z" id="Path" fill="#000000"></path>
                    <path d="M28.0594336,80.9826357 C27.6106267,80.9826357 27.1698224,81.1653595 26.8523897,81.4827918 C26.5349574,81.8002245 26.3522335,82.2410289 26.3522335,82.6898357 C26.3522335,83.1406432 26.5349574,83.5794469 26.8523897,83.8968796 C27.1698224,84.2143119 27.6106267,84.3970358 28.0594336,84.3970358 C28.5082404,84.3970358 28.9490448,84.2143119 29.2664775,83.8968796 C29.5839098,83.5794469 29.7666337,83.1386426 29.7666337,82.6898357 C29.7666337,82.2410289 29.5839098,81.8002245 29.2664775,81.4827918 C28.9490448,81.1653595 28.5082404,80.9826357 28.0594336,80.9826357 Z" id="Path" fill="#000000"></path>
                </g>
            </g>
        </g>
    </g>
</svg>