<?xml version="1.0" encoding="UTF-8"?>
<svg width="126px" height="119px" viewBox="0 0 126 119" version="1.1" xmlns="http://www.w3.org/2000/svg" xmlns:xlink="http://www.w3.org/1999/xlink">
    <!-- Generator: Sketch 63.1 (92452) - https://sketch.com -->
    <title>monitoring_tools</title>
    <desc>Created with Sketch.</desc>
    <g id="Page-1" stroke="none" stroke-width="1" fill="none" fill-rule="evenodd" opacity="0.870000005">
        <g id="monitoring_tools" transform="translate(-4.000000, -5.000000)" fill-rule="nonzero">
            <g id="comprehensive_coverage">
                <g id="Group-18">
                    <path d="M112.643425,14.3982323 C122.764992,23.5001537 127.664128,38.2377854 125.624894,50.6812342 C123.585659,63.1246829 114.632922,73.2240752 107.943239,84.4954957 C101.253555,95.7669162 96.8766613,108.235302 87.0783883,116.489373 C77.2552467,124.743444 61.9858568,128.808138 49.6509752,124.46914 C37.2912248,120.130141 27.8659825,107.412388 20.2561563,93.7969113 C12.6214614,80.1814343 6.85192,65.7181071 8.1948305,51.5540211 C9.56260972,37.3899352 18.0925783,23.5250905 29.8803483,14.7224103 C41.6681183,5.91973015 56.7634271,2.17921449 71.9582108,2.0046571 C87.1778632,1.85503647 102.521859,5.29631087 112.643425,14.3982323 Z" id="Path" fill="#FFCCCD" opacity="0.300000012" transform="translate(67.040001, 64.115001) rotate(-94.000000) translate(-67.040001, -64.115001) "></path>
                    <g id="search-engine-optimization" transform="translate(25.000000, 5.000000)">
                        <path d="M76.0350065,34.025603 C76.0350065,45.010004 67.8406058,54.4114049 56.9742048,55.893805 L55.5774047,56.084605 L55.5774047,68.5896061 L52.1310044,68.5896061 L52.1310044,56.059805 L50.7550043,55.854005 C39.9990033,54.2438048 31.8880026,44.859604 31.8880026,34.025603 C31.8880026,21.854202 41.7902035,11.9520011 53.9616046,11.9520011 L53.9616046,8.72180078 C40.0090033,8.72180078 28.6578023,20.0730018 28.6578023,34.025603 C28.6578023,40.1192036 30.8752025,46.0112041 34.9016029,50.6166045 C38.5690032,54.8114049 43.4984036,57.6844052 48.9010041,58.8034053 L48.9010041,68.5896061 L45.9332038,68.5896061 L45.9332038,99.8156089 L61.6068052,99.8156089 L61.6068052,68.5896061 L58.808005,68.5896061 L58.808005,58.8636053 C64.2716055,57.8014052 69.2572059,54.9476049 72.9672063,50.7306045 C77.0288066,46.1138041 79.2656068,40.1812036 79.2656068,34.025603 L76.0350065,34.025603 Z M58.376005,96.5854086 L49.1630041,96.5854086 L49.1630041,71.8200064 L58.376005,71.8200064 L58.376005,96.5854086 Z" id="Shape" fill="#000000"></path>
                        <path d="M52.5854044,22.093802 C48.147204,22.541602 44.3128037,25.5450023 42.8174036,29.7458027 L45.8606038,30.8292028 C46.9400039,27.7982025 49.7066042,25.6308023 52.9098045,25.3078023 L52.5854044,22.093802 Z" id="Path" fill="#000000"></path>
                        <path d="M62.1992053,37.2726033 C60.9876052,40.6758036 57.7444049,42.9072038 54.1410046,42.8340038 L54.0726046,46.0634041 C54.1560046,46.0654041 54.2386046,46.0662041 54.3218046,46.0662041 C59.223205,46.0662041 63.5916054,42.9938038 65.2426056,38.3560034 L62.1992053,37.2726033 Z" id="Path" fill="#000000"></path>
                        <path d="M70.005006,34.2410031 C70.005006,43.1468039 62.7594053,50.3924045 53.8536045,50.3924045 C44.9478038,50.3924045 37.7022031,43.1468039 37.7022031,34.2410031 C37.7022031,25.3352023 44.9478038,18.0896016 53.8536045,18.0896016 L53.8536045,14.8594013 C43.1666036,14.8594013 34.4718028,23.5540021 34.4718028,34.2412031 C34.4718028,44.928404 43.1664036,53.6230048 53.8536045,53.6230048 C64.5408055,53.6230048 73.2354063,44.928404 73.2354063,34.2412031 L70.005006,34.2412031 L70.005006,34.2410031 Z" id="Path" fill="#000000"></path>
                        <path d="M24.3654022,65.6368057 L24.3654022,71.3106062 C24.8478022,71.4816062 25.3216023,71.6784062 25.7852023,71.9008062 L25.7852023,71.9008062 L29.7988027,67.8870059 L36.6514033,74.7396065 L32.6376029,78.7532069 C32.8600029,79.2166069 33.056803,79.6906069 33.227803,80.173007 L33.227803,80.173007 L38.9016035,80.173007 L38.9016035,89.8636079 L33.227603,89.8636079 C33.056603,90.3460079 32.8598029,90.8198079 32.6374029,91.283408 L32.6374029,91.283408 L36.6512033,95.2970083 L29.7986027,102.149609 L25.7850023,98.1358086 C25.3216023,98.3582086 24.8476022,98.5550086 24.3652022,98.7260086 L24.3652022,98.7260086 L24.3652022,104.400009 L14.6744013,104.400009 L14.6744013,98.7262086 C14.1920013,98.5552086 13.7182012,98.3584086 13.2546012,98.1360086 L13.2546012,98.1360086 L9.24140083,102.149809 L2.38880021,95.2972083 L6.40260057,91.283608 C6.18020055,90.8202079 5.98340053,90.3462079 5.81240052,89.8638079 L5.81240052,89.8638079 L0.138200012,89.8638079 L0.138200012,80.173007 L5.81200052,80.173007 C5.98300053,79.6906069 6.17980055,79.2168069 6.40220057,78.7532069 L6.40220057,78.7532069 L2.38840021,74.7398065 L9.24100083,67.8872059 L13.2546012,71.9010062 C13.7180012,71.6786062 14.1920013,71.4818062 14.6744013,71.3108062 L14.6744013,71.3108062 L14.6744013,65.6368057 L24.3654022,65.6368057 Z M20,77 C15.581722,77 12,80.581722 12,85 C12,89.418278 15.581722,93 20,93 C24.418278,93 28,89.418278 28,85 C28,80.581722 24.418278,77 20,77 Z" id="Combined-Shape" fill="#D03D39"></path>
                        <path d="M41.9016035,87.8638079 L41.9016035,78.173007 L36.227803,78.173007 C36.056803,77.6906069 35.8600029,77.2166069 35.6376029,76.7532069 L39.6514033,72.7396065 L32.7988027,65.8870059 L28.7852023,69.9008062 C28.3216023,69.6784062 27.8478022,69.4816062 27.3654022,69.3106062 L27.3654022,63.6368057 L17.6744013,63.6368057 L17.6744013,69.3108062 C17.1920013,69.4818062 16.7180012,69.6786062 16.2546012,69.9010062 L12.2410008,65.8872059 L5.38840021,72.7398065 L9.40220057,76.7532069 C9.17980055,77.2168069 8.98300053,77.6906069 8.81200052,78.173007 L3.13820001,78.173007 L3.13820001,87.8638079 L8.81240052,87.8638079 C8.98340053,88.3462079 9.18020055,88.8202079 9.40260057,89.283608 L5.38880021,93.2972083 L12.2414008,100.149809 L16.2546012,96.1360086 C16.7182012,96.3584086 17.1920013,96.5552086 17.6744013,96.7262086 L17.6744013,102.400009 L27.3652022,102.400009 L27.3652022,102.400009 L27.3652022,96.7260086 C27.8476022,96.5550086 28.3216023,96.3582086 28.7850023,96.1358086 L32.7986027,100.149609 L39.6512033,93.2970083 L35.6374029,89.283408 C35.8598029,88.8198079 36.056603,88.3460079 36.227603,87.8636079 L41.9016035,87.8636079 L41.9016035,87.8638079 Z M35.0826029,93.2970083 L32.7984027,95.5812085 L29.3382024,92.1204082 L28.2600023,92.7576083 C27.3430022,93.2994083 26.3634021,93.7066084 25.347802,93.9678084 L24.1352019,94.2798084 L24.1352019,99.1694089 L20.9048016,99.1694089 L20.9046016,99.1694089 L20.9046016,94.2800084 L19.6920015,93.9680084 C18.6766014,93.7068084 17.6970013,93.2998083 16.7798012,92.7578083 L15.7016011,92.1206082 L12.2414008,95.5814085 L9.95720062,93.2972083 L13.4180009,89.837008 L12.7808009,88.7588079 C12.2390008,87.8418079 11.8318008,86.8622078 11.5706008,85.8466077 L11.2586007,84.6340076 L6.3684003,84.6340076 L6.3684003,81.4038073 L11.2580007,81.4038073 L11.5704008,80.1910072 C11.8316008,79.1756071 12.2386008,78.196007 12.7806009,77.2788069 L13.4178009,76.2006068 L9.95700062,72.7404065 L12.2412008,70.4562063 L15.7014011,73.9170066 L16.7796012,73.2798066 C17.6966013,72.7380065 18.6762014,72.3308065 19.6918015,72.0696064 L20.9044016,71.7576064 L20.9044016,66.868006 L24.1346019,66.868006 L24.1346019,71.7580064 L25.347202,72.0700064 C26.3626021,72.3312065 27.3422022,72.7382065 28.2594023,73.2802066 L29.3376024,73.9174066 L32.7978027,70.4566063 L35.0820029,72.7408065 L31.6212026,76.2010068 L32.2584026,77.2792069 C32.8002027,78.196207 33.2074027,79.1758071 33.4686027,80.1914072 L33.7806028,81.4040073 L38.6702032,81.4040073 L38.6702032,84.6342076 L33.7804028,84.6342076 L33.4684027,85.8468077 C33.2072027,86.8622078 32.8002027,87.8418079 32.2582026,88.7590079 L31.6210026,89.837208 L35.0826029,93.2970083 Z" id="Shape" fill="#000000"></path>
                        <path d="M22.5198017,74.9426067 C18.0668013,74.9426067 14.444001,78.565207 14.444001,83.0184074 C14.444001,87.4714078 18.0666013,91.0942081 22.5198017,91.0942081 C26.9730021,91.0942081 30.5956025,87.4716078 30.5956025,83.0184074 C30.5956025,78.565207 26.9730021,74.9426067 22.5198017,74.9426067 Z M22.5198017,87.8638079 C19.8482015,87.8638079 17.6744013,85.6900077 17.6744013,83.0184074 C17.6744013,80.3468072 19.8482015,78.173007 22.5198017,78.173007 C25.191402,78.173007 27.3652022,80.3468072 27.3652022,83.0184074 C27.3652022,85.6900077 25.191602,87.8638079 22.5198017,87.8638079 Z" id="Shape" fill="#000000"></path>
                        <path d="M73.9648066,2 L73.9648066,6.57340041 C74.2022066,6.66320042 74.4366067,6.76060043 74.6684067,6.86580044 L74.6684067,6.86580044 L77.903207,3.63100015 L83.7864075,9.51420067 L80.5516072,12.749001 C80.6568072,12.980601 80.7542072,13.215201 80.8440072,13.452601 L80.8440072,13.452601 L85.4176076,13.452601 L85.4176076,21.7732018 L80.8442072,21.7732018 C80.7544072,22.0106018 80.6572072,22.2450018 80.5518072,22.4768018 L80.5518072,22.4768018 L83.7866075,25.7116021 L77.903407,31.5948026 L74.6686067,28.3600024 C74.4370067,28.4652024 74.2024066,28.5626024 73.9650066,28.6524024 L73.9650066,28.6524024 L73.9650066,33.2260028 L65.6442059,33.2260028 L65.6442059,28.6526024 C65.4068058,28.5628024 65.1724058,28.4656024 64.9406058,28.3602024 L64.9406058,28.3602024 L61.7058055,31.5950026 L55.822605,25.7118021 L59.0574053,22.4770018 C58.9522053,22.2454018 58.8548053,22.0108018 58.7650053,21.7734018 L58.7650053,21.7734018 L54.1916048,21.7734018 L54.1916048,13.452801 L58.7650053,13.452801 C58.8548053,13.215401 58.9520053,12.981001 59.0574053,12.749201 L59.0574053,12.749201 L55.822605,9.51440067 L61.7058055,3.63120015 L64.9406058,6.86600044 C65.1722058,6.76080043 65.4068058,6.66340042 65.6442059,6.57360041 L65.6442059,6.57360041 L65.6442059,2 L73.9648066,2 Z M69.5,13 C67.0147186,13 65,15.0147186 65,17.5 C65,19.9852814 67.0147186,22 69.5,22 C71.9852814,22 74,19.9852814 74,17.5 C74,15.0147186 71.9852814,13 69.5,13 Z" id="Combined-Shape" fill="#D03D39"></path>
                        <path d="M88.4176076,19.7732018 L88.4176076,11.452601 L83.8440072,11.452601 C83.7542072,11.215201 83.6568072,10.980601 83.5516072,10.749001 L86.7864075,7.51420067 L80.903207,1.63100015 L77.6684067,4.86580044 C77.4366067,4.76060043 77.2022066,4.66320042 76.9648066,4.57340041 L76.9648066,0 L68.6442059,0 L68.6442059,4.57360041 C68.4068058,4.66340042 68.1722058,4.76080043 67.9406058,4.86600044 L64.7058055,1.63120015 L58.822605,7.51440067 L62.0574053,10.749201 C61.9520053,10.981001 61.8548053,11.215401 61.7650053,11.452801 L57.1916048,11.452801 L57.1916048,19.7734018 L61.7650053,19.7734018 C61.8548053,20.0108018 61.9522053,20.2454018 62.0574053,20.4770018 L58.822605,23.7118021 L64.7058055,29.5950026 L67.9406058,26.3602024 C68.1724058,26.4656024 68.4068058,26.5628024 68.6442059,26.6526024 L68.6442059,31.2260028 L76.9648066,31.2260028 L76.9650066,31.2260028 L76.9650066,26.6524024 C77.2024066,26.5626024 77.4370067,26.4652024 77.6686067,26.3600024 L80.903407,29.5948026 L86.7866075,23.7116021 L83.5518072,20.4768018 C83.6572072,20.2450018 83.7544072,20.0106018 83.8442072,19.7732018 L88.4176076,19.7732018 Z M82.2182071,23.7116021 L80.903207,25.0266022 L78.2314067,22.354802 L77.1532066,22.9918021 C76.4586066,23.4022021 75.7164065,23.7106021 74.9476064,23.9086021 L73.7350063,24.2206022 L73.7350063,27.9960025 L71.8750062,27.9960025 L71.8748062,27.9960025 L71.8748062,24.2204022 L70.662206,23.9084021 C69.893406,23.7104021 69.1512059,23.4022021 68.4566059,22.9916021 L67.3784058,22.354602 L64.7066055,25.0264022 L63.3916054,23.7114021 L66.0634056,21.0396019 L65.4264056,19.9614018 C65.0160055,19.2668017 64.7076055,18.5246017 64.5096055,17.7558016 L64.1976055,16.5432015 L60.4222051,16.5432015 L60.4222051,14.6832013 L64.1978055,14.6832013 L64.5098055,13.4706012 C64.7078055,12.7018011 65.0160055,11.9596011 65.4266056,11.265001 L66.0636056,10.1868009 L63.3918054,7.51500067 L64.7068055,6.20000055 L67.3786058,8.87180079 L68.4568059,8.23480074 C69.1514059,7.8244007 69.893606,7.51600067 70.662406,7.31800065 L71.8750062,7.00600063 L71.8750062,3.23020029 L73.7350063,3.23020029 L73.7350063,7.00580063 L74.9476064,7.31780065 C75.7164065,7.51580067 76.4586066,7.8240007 77.1532066,8.23460074 L78.2314067,8.87160079 L80.903207,6.19980055 L82.2182071,7.51480067 L79.5464068,10.1866009 L80.1834069,11.264801 C80.5938069,11.9594011 80.902207,12.7016011 81.100207,13.4704012 L81.412207,14.6830013 L85.1876073,14.6830013 L85.1876073,16.5430015 L81.412007,16.5430015 L81.100007,17.7556016 C80.902007,18.5244017 80.5938069,19.2666017 80.1832069,19.9612018 L79.5462068,21.0394019 L82.2182071,23.7116021 Z" id="Shape" fill="#000000"></path>
                        <path d="M72.8046062,10.2292009 C69.836006,10.2292009 67.4208058,12.6444011 67.4208058,15.6130014 C67.4208058,18.5816017 69.836006,20.9968019 72.8046062,20.9968019 C75.7732065,20.9968019 78.1884067,18.5816017 78.1884067,15.6130014 C78.1884067,12.6444011 75.7732065,10.2292009 72.8046062,10.2292009 Z M72.8046062,17.7666016 C71.6172061,17.7666016 70.651006,16.8006015 70.651006,15.6130014 C70.651006,14.4254013 71.6170061,13.4594012 72.8046062,13.4594012 C73.9922063,13.4594012 74.9582064,14.4254013 74.9582064,15.6130014 C74.9582064,16.8006015 73.9920063,17.7666016 72.8046062,17.7666016 Z" id="Shape" fill="#000000"></path>
                        <g id="Group" transform="translate(85.400007, 33.800003)" fill="#000000">
                            <rect id="Rectangle" x="6.57100059" y="0.118000011" width="3.23020029" height="3.23020029"></rect>
                            <rect id="Rectangle" x="0.11040001" y="0.118000011" width="3.23020029" height="3.23020029"></rect>
                            <rect id="Rectangle" x="13.0316012" y="0.118000011" width="3.23020029" height="3.23020029"></rect>
                        </g>
                        <g id="Group" transform="translate(6.600000, 33.800003)" fill="#000000">
                            <rect id="Rectangle" x="6.55200059" y="0.118000011" width="3.23020029" height="3.23020029"></rect>
                            <rect id="Rectangle" x="0.0914000082" y="0.118000011" width="3.23020029" height="3.23020029"></rect>
                            <rect id="Rectangle" x="13.0126012" y="0.118000011" width="3.23020029" height="3.23020029"></rect>
                        </g>
                    </g>
                </g>
            </g>
        </g>
    </g>
</svg>