<?xml version="1.0" encoding="UTF-8"?>
<svg width="142px" height="118px" viewBox="0 0 142 118" version="1.1" xmlns="http://www.w3.org/2000/svg" xmlns:xlink="http://www.w3.org/1999/xlink">
    <!-- Generator: Sketch 63.1 (92452) - https://sketch.com -->
    <title>powerful_analytics</title>
    <desc>Created with Sketch.</desc>
    <g id="Page-1" stroke="none" stroke-width="1" fill="none" fill-rule="evenodd" opacity="0.870000005">
        <g id="powerful_analytics" transform="translate(1.000000, -6.000000)">
            <g id="comprehensive_coverage">
                <g id="Group-18">
                    <path d="M120.643425,14.3982323 C130.764992,23.5001537 135.664128,38.2377854 133.624894,50.6812342 C131.585659,63.1246829 122.632922,73.2240752 115.943239,84.4954957 C109.253555,95.7669162 104.876661,108.235302 95.0783883,116.489373 C85.2552467,124.743444 69.9858568,128.808138 57.6509752,124.46914 C45.2912248,120.130141 35.8659825,107.412388 28.2561563,93.7969113 C20.6214614,80.1814343 14.85192,65.7181071 16.1948305,51.5540211 C17.5626097,37.3899352 26.0925783,23.5250905 37.8803483,14.7224103 C49.6681183,5.91973015 64.7634271,2.17921449 79.9582108,2.0046571 C95.1778632,1.85503647 110.521859,5.29631087 120.643425,14.3982323 Z" id="Path" fill="#FFCCCD" fill-rule="nonzero" opacity="0.300000012" transform="translate(75.040001, 64.115001) rotate(-94.000000) translate(-75.040001, -64.115001) "></path>
                    <g id="Group-3" transform="translate(0.000000, 20.000000)">
                        <g id="Group-2" transform="translate(21.000000, 0.000000)">
                            <rect id="Rectangle" fill="#D03D39" x="9" y="0" width="67" height="53" rx="5"></rect>
                            <path d="M64.25,5 L6.25,5 C2.79822031,5 0,7.79822031 0,11.25 L0,54.25 C0,57.7017797 2.79822031,60.5 6.25,60.5 L64.25,60.5 C67.7017797,60.5 70.5,57.7017797 70.5,54.25 L70.5,11.25 C70.5,7.79822031 67.7017797,5 64.25,5 Z M6.25,7.5 L64.25,7.5 C66.3210678,7.5 68,9.17893219 68,11.25 L68,54.25 C68,56.3210678 66.3210678,58 64.25,58 L6.25,58 C4.17893219,58 2.5,56.3210678 2.5,54.25 L2.5,11.25 C2.5,9.17893219 4.17893219,7.5 6.25,7.5 Z" id="Rectangle" fill="#000000" fill-rule="nonzero"></path>
                            <path d="M33.7450782,14.2500176 C32.785058,14.2500176 31.8668165,14.635198 31.2068026,15.3149731 C30.5467886,15.9947481 30.2027814,16.9089134 30.2552269,17.8438749 L30.9223522,29.7336562 C31.0019093,31.1464965 32.2014902,32.2521599 33.6530764,32.2499968 L33.8468581,32.2499968 C35.2988888,32.2521599 36.4984696,31.1464965 36.5775823,29.7336562 L37.2447076,17.8438749 C37.2975976,16.9071804 36.9522569,15.9912821 36.2900208,15.3110737 C35.6277846,14.6308655 34.7068763,14.2470027 33.7450782,14.2500176 L33.7450782,14.2500176 Z M34.7517662,29.6348742 C34.7250989,30.105821 34.3250905,30.4740867 33.8415248,30.4736538 L33.6477428,30.4736538 C33.1637326,30.4740867 32.7641688,30.105821 32.7375014,29.6348742 L32.0703763,17.7459595 C32.0379312,17.1428704 32.3494933,16.5718421 32.8806156,16.2607658 C33.4117379,15.9496897 34.0757519,15.9496897 34.6064298,16.2607658 C35.137552,16.5718421 35.4495586,17.1428704 35.4171135,17.7459595 L34.7517662,29.6348742 Z" id="Shape" stroke="#000000" stroke-width="0.5" fill="#000000" fill-rule="nonzero"></path>
                            <path d="M33.75,34.25 C32.3689779,34.25 31.25,35.3693848 31.25,36.75 C31.25,38.1306153 32.3689779,39.25 33.75,39.25 C35.1306153,39.25 36.25,38.1306153 36.25,36.75 C36.25,35.3693848 35.1306153,34.25 33.75,34.25 Z M33.75,37.5833333 C33.289388,37.5833333 32.9166667,37.2102051 32.9166667,36.75 C32.9166667,36.289795 33.289388,35.9166667 33.75,35.9166667 C34.2102051,35.9166667 34.5833333,36.289795 34.5833333,36.75 C34.5833333,37.2102051 34.2102051,37.5833333 33.75,37.5833333 Z" id="Shape" stroke="#000000" stroke-width="0.5" fill="#000000" fill-rule="nonzero"></path>
                            <path d="M58.984286,41.4779199 C59.6746419,41.4779199 60.234286,42.0375639 60.234286,42.7279199 C60.234286,43.3751286 59.7424113,43.9074538 59.1120912,43.9714663 L58.984286,43.9779199 L11.630481,43.9779199 C10.9401251,43.9779199 10.380481,43.4182758 10.380481,42.7279199 C10.380481,42.0807112 10.8723557,41.548386 11.5026758,41.4843735 L11.630481,41.4779199 L58.984286,41.4779199 Z" id="Path-3" fill="#000000" fill-rule="nonzero"></path>
                            <path d="M53.984286,48.4779199 C54.6746419,48.4779199 55.234286,49.0375639 55.234286,49.7279199 C55.234286,50.3751286 54.7424113,50.9074538 54.1120912,50.9714663 L53.984286,50.9779199 L17.630481,50.9779199 C16.9401251,50.9779199 16.380481,50.4182758 16.380481,49.7279199 C16.380481,49.0807112 16.8723557,48.548386 17.5026758,48.4843735 L17.630481,48.4779199 L53.984286,48.4779199 Z" id="Path-3" fill="#000000" fill-rule="nonzero"></path>
                        </g>
                        <g id="Group-2" transform="translate(98.000000, 44.000000)" fill="#000000" fill-rule="nonzero" stroke="#000000">
                            <path d="M38.5500015,0 L3.75000015,0 C1.67893225,0 0,1.67893225 0,3.75000015 L0,29.5500012 C0,31.6210691 1.67893225,33.3000013 3.75000015,33.3000013 L38.5500015,33.3000013 C40.6210694,33.3000013 42.3000017,31.6210691 42.3000017,29.5500012 L42.3000017,3.75000015 C42.3000017,1.67893225 40.6210694,0 38.5500015,0 Z M3.75000015,1.50000006 L38.5500015,1.50000006 C39.7926423,1.50000006 40.8000016,2.50735941 40.8000016,3.75000015 L40.8000016,29.5500012 C40.8000016,30.7926419 39.7926423,31.8000013 38.5500015,31.8000013 L3.75000015,31.8000013 C2.50735941,31.8000013 1.50000006,30.7926419 1.50000006,29.5500012 L1.50000006,3.75000015 C1.50000006,2.50735941 2.50735941,1.50000006 3.75000015,1.50000006 Z" id="Rectangle" stroke-width="0.7"></path>
                            <path d="M20.2470477,5.5500108 C19.6710356,5.5500108 19.1200906,5.78111901 18.7240823,6.18898411 C18.3280739,6.59684914 18.1216696,7.14534831 18.1531369,7.70632526 L18.553412,14.8401943 C18.6011463,15.6878985 19.3208949,16.3512966 20.1918466,16.3499987 L20.3081157,16.3499987 C21.1793341,16.3512966 21.8990826,15.6878985 21.9465503,14.8401943 L22.3468254,7.70632526 C22.3785595,7.1443085 22.171355,6.59476952 21.7740133,6.18664449 C21.3766716,5.77851952 20.8241266,5.54820182 20.2470477,5.5500108 L20.2470477,5.5500108 Z M20.8510605,14.7809251 C20.8350601,15.0634932 20.5950551,15.2844526 20.3049157,15.2841929 L20.1886465,15.2841929 C19.8982404,15.2844526 19.658502,15.0634932 19.6425016,14.7809251 L19.2422265,7.64757602 C19.2227595,7.28572252 19.4096967,6.94310551 19.7283701,6.75645978 C20.0470436,6.56981411 20.4454519,6.56981411 20.7638587,6.75645978 C21.082532,6.94310551 21.269736,7.28572252 21.250269,7.64757602 L20.8510605,14.7809251 Z" id="Shape" stroke-width="0.4"></path>
                            <path d="M20.2500007,17.5500007 C19.4213875,17.5500007 18.7500007,18.2216316 18.7500007,19.0500007 C18.7500007,19.87837 19.4213875,20.5500007 20.2500007,20.5500007 C21.07837,20.5500007 21.7500007,19.87837 21.7500007,19.0500007 C21.7500007,18.2216316 21.07837,17.5500007 20.2500007,17.5500007 Z M20.2500008,19.5500007 C19.9736336,19.5500007 19.7500008,19.3261238 19.7500008,19.0500007 C19.7500008,18.7738777 19.9736336,18.5500007 20.2500008,18.5500007 C20.5261239,18.5500007 20.7500008,18.7738777 20.7500008,19.0500007 C20.7500008,19.3261238 20.5261239,19.5500007 20.2500008,19.5500007 Z" id="Shape" stroke-width="0.4"></path>
                            <path d="M35.390573,21.8867528 C35.8047866,21.8867528 36.140573,22.2225392 36.140573,22.6367528 C36.140573,23.0250781 35.8454482,23.3444732 35.4672561,23.3828807 L35.390573,23.3867528 L6.97828889,23.3867528 C6.56407531,23.3867528 6.22828886,23.0509664 6.22828886,22.6367528 C6.22828886,22.2484276 6.52341367,21.9290325 6.90160574,21.890625 L6.97828889,21.8867528 L35.390573,21.8867528 Z" id="Path-3" stroke-width="0.4"></path>
                            <path d="M32.3905729,26.086753 C32.8047865,26.086753 33.1405729,26.4225394 33.1405729,26.836753 C33.1405729,27.2250782 32.8454481,27.5444734 32.467256,27.5828809 L32.3905729,27.586753 L10.578289,27.586753 C10.1640755,27.586753 9.828289,27.2509666 9.828289,26.836753 C9.828289,26.4484278 10.1234138,26.1290326 10.5016059,26.0906251 L10.578289,26.086753 L32.3905729,26.086753 Z" id="Path-3" stroke-width="0.4"></path>
                        </g>
                        <g id="Group-2" transform="translate(0.000000, 64.000000)" fill="#000000" fill-rule="nonzero" stroke="#000000">
                            <path d="M38.5500015,0 L3.75000015,0 C1.67893225,0 0,1.67893225 0,3.75000015 L0,29.5500012 C0,31.6210691 1.67893225,33.3000013 3.75000015,33.3000013 L38.5500015,33.3000013 C40.6210694,33.3000013 42.3000017,31.6210691 42.3000017,29.5500012 L42.3000017,3.75000015 C42.3000017,1.67893225 40.6210694,0 38.5500015,0 Z M3.75000015,1.50000006 L38.5500015,1.50000006 C39.7926423,1.50000006 40.8000016,2.50735941 40.8000016,3.75000015 L40.8000016,29.5500012 C40.8000016,30.7926419 39.7926423,31.8000013 38.5500015,31.8000013 L3.75000015,31.8000013 C2.50735941,31.8000013 1.50000006,30.7926419 1.50000006,29.5500012 L1.50000006,3.75000015 C1.50000006,2.50735941 2.50735941,1.50000006 3.75000015,1.50000006 Z" id="Rectangle" stroke-width="0.7"></path>
                            <path d="M20.2470477,5.5500108 C19.6710356,5.5500108 19.1200906,5.78111901 18.7240823,6.18898411 C18.3280739,6.59684914 18.1216696,7.14534831 18.1531369,7.70632526 L18.553412,14.8401943 C18.6011463,15.6878985 19.3208949,16.3512966 20.1918466,16.3499987 L20.3081157,16.3499987 C21.1793341,16.3512966 21.8990826,15.6878985 21.9465503,14.8401943 L22.3468254,7.70632526 C22.3785595,7.1443085 22.171355,6.59476952 21.7740133,6.18664449 C21.3766716,5.77851952 20.8241266,5.54820182 20.2470477,5.5500108 L20.2470477,5.5500108 Z M20.8510605,14.7809251 C20.8350601,15.0634932 20.5950551,15.2844526 20.3049157,15.2841929 L20.1886465,15.2841929 C19.8982404,15.2844526 19.658502,15.0634932 19.6425016,14.7809251 L19.2422265,7.64757602 C19.2227595,7.28572252 19.4096967,6.94310551 19.7283701,6.75645978 C20.0470436,6.56981411 20.4454519,6.56981411 20.7638587,6.75645978 C21.082532,6.94310551 21.269736,7.28572252 21.250269,7.64757602 L20.8510605,14.7809251 Z" id="Shape" stroke-width="0.4"></path>
                            <path d="M20.2500007,17.5500007 C19.4213875,17.5500007 18.7500007,18.2216316 18.7500007,19.0500007 C18.7500007,19.87837 19.4213875,20.5500007 20.2500007,20.5500007 C21.07837,20.5500007 21.7500007,19.87837 21.7500007,19.0500007 C21.7500007,18.2216316 21.07837,17.5500007 20.2500007,17.5500007 Z M20.2500008,19.5500007 C19.9736336,19.5500007 19.7500008,19.3261238 19.7500008,19.0500007 C19.7500008,18.7738777 19.9736336,18.5500007 20.2500008,18.5500007 C20.5261239,18.5500007 20.7500008,18.7738777 20.7500008,19.0500007 C20.7500008,19.3261238 20.5261239,19.5500007 20.2500008,19.5500007 Z" id="Shape" stroke-width="0.4"></path>
                            <path d="M35.390573,21.8867528 C35.8047866,21.8867528 36.140573,22.2225392 36.140573,22.6367528 C36.140573,23.0250781 35.8454482,23.3444732 35.4672561,23.3828807 L35.390573,23.3867528 L6.97828889,23.3867528 C6.56407531,23.3867528 6.22828886,23.0509664 6.22828886,22.6367528 C6.22828886,22.2484276 6.52341367,21.9290325 6.90160574,21.890625 L6.97828889,21.8867528 L35.390573,21.8867528 Z" id="Path-3" stroke-width="0.4"></path>
                            <path d="M32.3905729,26.086753 C32.8047865,26.086753 33.1405729,26.4225394 33.1405729,26.836753 C33.1405729,27.2250782 32.8454481,27.5444734 32.467256,27.5828809 L32.3905729,27.586753 L10.578289,27.586753 C10.1640755,27.586753 9.828289,27.2509666 9.828289,26.836753 C9.828289,26.4484278 10.1234138,26.1290326 10.5016059,26.0906251 L10.578289,26.086753 L32.3905729,26.086753 Z" id="Path-3" stroke-width="0.4"></path>
                        </g>
                    </g>
                </g>
            </g>
        </g>
    </g>
</svg>