<?xml version="1.0" encoding="UTF-8"?>
<svg width="126px" height="118px" viewBox="0 0 126 118" version="1.1" xmlns="http://www.w3.org/2000/svg" xmlns:xlink="http://www.w3.org/1999/xlink">
    <!-- Generator: Sketch 63.1 (92452) - https://sketch.com -->
    <title>selective_alerting</title>
    <desc>Created with Sketch.</desc>
    <g id="Page-1" stroke="none" stroke-width="1" fill="none" fill-rule="evenodd">
        <g id="selective_alerting" transform="translate(-4.000000, -6.000000)" fill-rule="nonzero">
            <g id="comprehensive_coverage" fill="#FFCCCD" opacity="0.870000005">
                <g id="Group-18">
                    <path d="M112.643425,14.3982323 C122.764992,23.5001537 127.664128,38.2377854 125.624894,50.6812342 C123.585659,63.1246829 114.632922,73.2240752 107.943239,84.4954957 C101.253555,95.7669162 96.8766613,108.235302 87.0783883,116.489373 C77.2552467,124.743444 61.9858568,128.808138 49.6509752,124.46914 C37.2912248,120.130141 27.8659825,107.412388 20.2561563,93.7969113 C12.6214614,80.1814343 6.85192,65.7181071 8.1948305,51.5540211 C9.56260972,37.3899352 18.0925783,23.5250905 29.8803483,14.7224103 C41.6681183,5.91973015 56.7634271,2.17921449 71.9582108,2.0046571 C87.1778632,1.85503647 102.521859,5.29631087 112.643425,14.3982323 Z" id="Path" opacity="0.300000012" transform="translate(67.040001, 64.115001) rotate(-94.000000) translate(-67.040001, -64.115001) "></path>
                </g>
            </g>
            <g id="problem" transform="translate(36.000000, 24.000000)" fill="#D03D39">
                <path d="M35.4567341,1.16823864 C37.0549268,-0.356980122 39.5695654,-0.356980122 41.167758,1.16823864 L41.167758,1.16823864 L75.4417902,35.4422709 C77.0189453,37.0194261 77.0189453,39.5761397 75.4417902,41.1532949 L75.4417902,41.1532949 L41.167758,75.427327 C39.5906029,77.0044821 37.0338893,77.0044821 35.4567341,75.427327 L35.4567341,75.427327 L1.182702,41.1605264 C-0.394453127,39.5827139 -0.394453127,37.0260002 1.182702,35.4488451 L1.182702,35.4488451 Z M38.3125748,48.4874932 C36.081285,48.4874932 34.2733748,50.2960608 34.2733748,52.5266932 C34.2733748,54.7573257 36.081285,56.5658932 38.3125748,56.5658932 C40.5432073,56.5658932 42.3517748,54.7573257 42.3517748,52.5266932 C42.3517748,50.2960608 40.5432073,48.4874932 38.3125748,48.4874932 Z M38.0969404,18.4840465 C36.6769092,18.4840465 35.3186756,19.0685216 34.3424042,20.1000166 C33.3661326,21.1315115 32.8572881,22.5186716 32.9348638,23.9373881 L33.9216542,41.9790167 C34.0393326,44.1228694 35.8137143,45.8006101 37.9608542,45.7973278 L38.24749,45.7973278 C40.3952873,45.8006101 42.169669,44.1228694 42.28669,41.9790167 L43.2734804,23.9373881 C43.3517136,22.5160419 42.8408967,21.1262521 41.8613382,20.0940997 C40.8817795,19.0619474 39.5196014,18.4794715 38.0969404,18.4840465 Z" id="Combined-Shape"></path>
            </g>
            <g id="problem" transform="translate(26.000000, 15.000000)" fill="#000000">
                <path d="M45.7419546,9.76709802 C43.98956,8.01470338 41.1487669,8.01470338 39.3963723,9.76709802 L9.77659406,39.3876067 C8.02492985,41.1400013 8.02492985,43.9807943 9.77659406,45.7339194 L39.3978333,75.3544283 C41.150228,77.1060923 43.991021,77.1060923 45.7434156,75.3544283 L75.3646547,45.7339194 C77.1163189,43.9807943 77.1163189,41.1400013 75.3646547,39.3876067 L45.7419546,9.76709802 Z M73.2462953,43.6104468 L43.625056,73.2316859 C43.0414116,73.8153305 42.0939934,73.8153305 41.510349,73.2316859 L11.8891098,43.6104468 C11.3054652,43.0268022 11.3054652,42.0793843 11.8891098,41.4957397 L41.510349,11.8745004 C42.0939934,11.2908558 43.0414116,11.2908558 43.625056,11.8745004 L73.2462953,41.4957397 C73.8299399,42.0793843 73.8299399,43.0268022 73.2462953,43.6104468 Z" id="Shape"></path>
                <path d="M45.7419546,1.29804296 C43.966185,-0.396644591 41.172142,-0.396644591 39.3963723,1.29804296 L1.31411337,39.3876067 C-0.438281264,41.1400013 -0.438281264,43.9807943 1.31411337,45.7339194 L39.3963723,83.8081433 C41.1487669,85.560538 43.98956,85.560538 45.7419546,83.8081433 L83.8242135,45.7258844 C85.5766082,43.9734897 85.5766082,41.1326967 83.8242135,39.3803021 L45.7419546,1.29804296 Z M81.708776,43.6104468 L43.6272475,81.6927058 C43.0428724,82.2770808 42.0954545,82.2770808 41.5118099,81.6927058 L3.42955094,43.6104468 C2.84517592,43.0268022 2.84517592,42.0793843 3.42955094,41.4957397 L41.5118099,3.41348053 C42.0954545,2.82910551 43.0428724,2.82910551 43.6272475,3.41348053 L81.708776,41.4957397 C82.293151,42.0793843 82.293151,43.0268022 81.708776,43.6104468 Z" id="Shape"></path>
                <path d="M42.3299349,20.53783 C40.7521224,20.53783 39.242974,21.1872467 38.1582279,22.3333524 C37.0734816,23.4794578 36.5080989,25.0207469 36.5942941,26.5970986 L37.6907279,46.6433532 C37.8214816,49.0254118 39.7930169,50.8895681 42.178728,50.8859212 L42.4972122,50.8859212 C44.8836537,50.8895681 46.855189,49.0254118 46.9852124,46.6433532 L48.0816461,26.5970986 C48.168572,25.017825 47.6009976,23.4736141 46.5125992,22.326778 C45.4242006,21.1799421 43.9106693,20.5327467 42.3299349,20.53783 L42.3299349,20.53783 Z M43.9844468,46.4768061 C43.9406185,47.2708257 43.2831968,47.8917242 42.4884468,47.8909943 L42.1699622,47.8909943 C41.3744818,47.8917242 40.7177905,47.2708257 40.6739622,46.4768061 L39.5775286,26.4320125 C39.5242044,25.4152 40.036263,24.4524422 40.9091732,23.9279656 C41.7820834,23.4034891 42.8734037,23.4034891 43.7455835,23.9279656 C44.6184935,24.4524422 45.1312827,25.4152 45.0779585,26.4320125 L43.9844468,46.4768061 Z" id="Shape"></path>
                <path d="M42.5695287,53.8749938 C40.0903177,53.8749938 38.0815285,55.8845135 38.0815285,58.362994 C38.0815285,60.8414747 40.0903177,62.8509941 42.5695287,62.8509941 C45.0480094,62.8509941 47.0575288,60.8414747 47.0575288,58.362994 C47.0575288,55.8845135 45.0480094,53.8749938 42.5695287,53.8749938 Z M42.5695287,59.858994 C41.742638,59.858994 41.0735286,59.1891542 41.0735286,58.362994 C41.0735286,57.5368339 41.742638,56.8669939 42.5695287,56.8669939 C43.3956889,56.8669939 44.0655287,57.5368339 44.0655287,58.362994 C44.0655287,59.1891542 43.3956889,59.858994 42.5695287,59.858994 Z" id="Shape"></path>
            </g>
        </g>
    </g>
</svg>