<?xml version="1.0" encoding="UTF-8"?>
<svg width="147px" height="406px" viewBox="0 0 147 406" version="1.1" xmlns="http://www.w3.org/2000/svg" xmlns:xlink="http://www.w3.org/1999/xlink">
    <!-- Generator: Sketch 55.2 (78181) - https://sketchapp.com -->
    <title>Group 44</title>
    <desc>Created with Sketch.</desc>
    <g id="desktop" stroke="none" stroke-width="1" fill="none" fill-rule="evenodd">
        <g id="tts" transform="translate(-1293.000000, -1769.000000)" fill-rule="nonzero">
            <g id="Group-44" transform="translate(1293.000000, 1769.000000)">
                <rect id="Rectangle" fill="#DEDEDF" x="91.7229822" y="324.604875" width="62.6328256" height="70.90825"></rect>
                <path d="M122.891445,0.620375 L122.891445,0.620375 C78.3654448,0.620375 42.1509181,36.8165 42.1509181,81.319875 L42.1509181,209.192375 C42.1509181,253.69575 78.3654448,289.891875 122.891445,289.891875 L122.891445,289.891875 C167.417445,289.891875 203.631972,253.69575 203.631972,209.192375 L203.631972,81.319875 C203.631972,36.8165 167.417445,0.620375 122.891445,0.620375 Z" id="Path" fill="#646B79" opacity="0.310360863"></path>
                <path d="M122.891445,334.989375 C55.2116797,334.989375 0,279.804875 0,212.160375 L0,129.3845 C0,123.74775 4.74928826,119 10.3897794,119 C16.029395,119 20.7795587,123.746875 20.7795587,129.3845 L20.7795587,212.160375 C20.7795587,268.531375 66.4926619,314.22125 122.89232,314.22125 C179.291979,314.22125 225.005082,268.531375 225.005082,212.160375 L225.005082,129.3845 C225.005082,123.74775 229.75437,119 235.394861,119 C241.035352,119 245.784641,123.746875 245.784641,129.3845 L245.784641,212.160375 C245.784641,279.804875 190.570335,334.989375 122.891445,334.989375 Z" id="Path" fill="#F1F3F7"></path>
                <rect id="Rectangle" fill="#F1F3F7" x="41.5573665" y="384.832875" width="162.668157" height="20.768125"></rect>
                <path d="M87.8640214,90.220375 L42.1509181,90.220375 L42.1509181,115.735375 L87.8640214,115.735375 C94.9883915,115.735375 100.628007,110.098625 100.628007,102.977875 C100.628007,95.858 94.9883915,90.220375 87.8640214,90.220375 Z" id="Path" fill="#414753" opacity="0.16234189"></path>
                <path d="M87.8640214,132.647375 L42.1509181,132.647375 L42.1509181,158.162375 L87.8640214,158.162375 C94.9883915,158.162375 100.628007,152.525625 100.628007,145.404875 C100.628007,138.284125 94.9883915,132.647375 87.8640214,132.647375 Z" id="Path" fill="#414753" opacity="0.16234189"></path>
                <path d="M87.8640214,175.0735 L42.1509181,175.0735 L42.1509181,200.5885 L87.8640214,200.5885 C94.9883915,200.5885 100.628007,194.95175 100.628007,187.831 C100.628007,180.711125 94.9883915,175.0735 87.8640214,175.0735 Z" id="Path" fill="#414753" opacity="0.16234189"></path>
                <path d="M157.917993,200.589375 L203.631096,200.589375 L203.631096,175.074375 L157.917993,175.074375 C150.793623,175.074375 145.154007,180.711125 145.154007,187.831875 C145.154007,194.655125 150.794498,200.589375 157.917993,200.589375 Z" id="Path" fill="#414753" opacity="0.16234189"></path>
                <path d="M157.917993,158.162375 L203.631096,158.162375 L203.631096,132.647375 L157.917993,132.647375 C150.793623,132.647375 145.154007,138.284125 145.154007,145.404875 C145.154007,152.525625 150.794498,158.162375 157.917993,158.162375 Z" id="Path" fill="#414753" opacity="0.16234189"></path>
                <path d="M157.917993,115.73625 L203.631096,115.73625 L203.631096,90.22125 L157.917993,90.22125 C150.793623,90.22125 145.154007,95.858 145.154007,102.97875 C145.154007,110.0995 150.794498,115.73625 157.917993,115.73625 Z" id="Path" fill="#414753" opacity="0.16234189"></path>
            </g>
        </g>
    </g>
</svg>