<?xml version="1.0" encoding="UTF-8"?>
<svg width="230px" height="264px" viewBox="0 0 230 264" version="1.1" xmlns="http://www.w3.org/2000/svg" xmlns:xlink="http://www.w3.org/1999/xlink">
    <!-- Generator: Sketch 55.2 (78181) - https://sketchapp.com -->
    <title>Group 20</title>
    <desc>Created with Sketch.</desc>
    <defs>
        <ellipse id="path-1" cx="70.3714462" cy="70.5517241" rx="70.3714462" ry="70.5517241"></ellipse>
        <filter x="-12.4%" y="-11.0%" width="124.9%" height="124.8%" filterUnits="objectBoundingBox" id="filter-2">
            <feOffset dx="0" dy="2" in="SourceAlpha" result="shadowOffsetOuter1"></feOffset>
            <feGaussianBlur stdDeviation="5.5" in="shadowOffsetOuter1" result="shadowBlurOuter1"></feGaussianBlur>
            <feColorMatrix values="0 0 0 0 0   0 0 0 0 0   0 0 0 0 0  0 0 0 0.5 0" type="matrix" in="shadowBlurOuter1"></feColorMatrix>
        </filter>
    </defs>
    <g id="desktop" stroke="none" stroke-width="1" fill="none" fill-rule="evenodd" opacity="0.103376116">
        <g id="tts" transform="translate(0.000000, -1266.000000)" fill-rule="nonzero">
            <g id="Group-20" transform="translate(112.787606, 1393.354026) rotate(-21.000000) translate(-112.787606, -1393.354026) translate(-24.212394, 1274.854026)">
                <g id="conversation-(2)-2" transform="translate(0.000000, 73.000000)">
                    <g id="conversation-(2)">
                        <polygon id="Path" fill="#FFFFFF" points="0.499797203 0.618830979 169.848583 0.618830979 169.848583 128.238281 0.499797203 128.238281"></polygon>
                        <polygon id="Path" fill="#FFFFFF" points="82.6689562 120.261126 64.4838351 163.561746 144.044053 117.983728"></polygon>
                        <g id="Group" transform="translate(50.539493, 54.517241)" fill="#000000">
                            <path d="M19.1022491,9.90880943 C19.1022491,15.1099948 14.8989543,19.3265622 9.71105997,19.3265622 C4.52566383,19.3265622 0.31987021,15.1099948 0.31987021,9.90880943 C0.31987021,4.71012931 4.52566383,0.493561262 9.71105997,0.493561262 C14.8989543,0.493561262 19.1022491,4.71012931 19.1022491,9.90880943 Z" id="Path"></path>
                            <path d="M44.0271353,9.90880943 C44.0271353,15.1099948 39.8238411,19.3265622 34.6359462,19.3265622 C29.4480512,19.3265622 25.244757,15.1099948 25.244757,9.90880943 C25.244757,4.71012931 29.4480512,0.493561262 34.6359462,0.493561262 C39.8238411,0.493561262 44.0271353,4.71012931 44.0271353,9.90880943 Z" id="Path"></path>
                            <path d="M68.9520221,9.90880943 C68.9520221,15.1099948 64.7462285,19.3265622 59.5608324,19.3265622 C54.372938,19.3265622 50.1671444,15.1099948 50.1671444,9.90880943 C50.1671444,4.71012931 54.372938,0.493561262 59.5608324,0.493561262 C64.7462285,0.493561262 68.9520221,4.71012931 68.9520221,9.90880943 Z" id="Path"></path>
                        </g>
                    </g>
                </g>
                <g id="speaker-(1)" transform="translate(186.773716, 87.316981) rotate(-15.000000) translate(-186.773716, -87.316981) translate(116.273716, 16.316981)">
                    <g id="Oval">
                        <use fill="black" fill-opacity="1" filter="url(#filter-2)" xlink:href="#path-1"></use>
                        <use fill="#FFFFFF" xlink:href="#path-1"></use>
                    </g>
                    <path d="M39.8617844,48.6563615 L19.6651793,48.6563615 C16.8454683,48.6563615 14.5596096,50.9480761 14.5596096,53.7750107 L14.5596096,84.8980523 C14.5596096,87.7225541 16.8454683,90.0142687 19.6651793,90.0142687 L39.8617844,90.0142687 C40.77176,90.0142687 41.6647493,90.2575505 42.4509683,90.719786 L74.8121271,120.925655 C78.2142225,122.93273 82.5044541,120.473151 82.5044541,116.514956 L82.5044541,22.1556742 C82.5044541,18.1974792 78.2142225,15.7379001 74.8121271,17.744975 L42.4509683,47.9508442 C41.6647493,48.4130797 40.77176,48.6563615 39.8617844,48.6563615 Z" id="Path" fill="#000000"></path>
                    <path d="M100.803457,102.280537 C100.182247,102.280537 99.5610367,102.042121 99.0878494,101.567722 C98.1390482,100.61649 98.1390482,99.0789489 99.0878494,98.127717 C114.22499,82.9517979 114.22499,58.2538288 99.0878494,43.0779096 C98.1390482,42.1266778 98.1390482,40.5891367 99.0878494,39.6379049 C100.036651,38.686673 101.570263,38.686673 102.519064,39.6379049 C119.548954,56.7138549 119.548954,84.4942045 102.519064,101.567722 C102.04345,102.042121 101.42224,102.280537 100.803457,102.280537 Z" id="Path" fill="#000000"></path>
                    <path d="M92.2108605,92.4470868 C91.5896505,92.4470868 90.9684405,92.2086706 90.4952532,91.7342711 C89.546452,90.7830392 89.546452,89.2454982 90.4952532,88.2942663 C100.92236,77.8404471 100.92236,60.8301831 90.4952532,50.3763639 C89.546452,49.425132 89.546452,47.887591 90.4952532,46.9363591 C91.4440544,45.9851272 92.9776666,45.9851272 93.9264678,46.9363591 C106.246324,59.2877765 106.246324,79.3828537 93.9264678,91.7342711 C93.4532805,92.2086706 92.8320705,92.4470868 92.2108605,92.4470868 Z" id="Path" fill="#000000"></path>
                    <path d="M107.925532,114.342449 C107.304322,114.342449 106.683112,114.104033 106.209925,113.629634 C105.261124,112.678402 105.261124,111.140861 106.209925,110.189629 C116.780202,99.5947063 122.601619,85.5159881 122.601619,70.5517241 C122.601619,55.5874602 116.780202,41.508742 106.209925,30.9138193 C105.261124,29.9625874 105.261124,28.4250464 106.209925,27.4738145 C107.158726,26.5225826 108.692339,26.5225826 109.64114,27.4738145 C121.128672,38.9883424 127.454822,54.2859025 127.454822,70.5517241 C127.454822,86.8175458 121.128672,102.115106 109.64114,113.629634 C109.167952,114.104033 108.546742,114.342449 107.925532,114.342449 Z" id="Path" fill="#000000"></path>
                </g>
            </g>
        </g>
    </g>
</svg>