<?xml version="1.0" encoding="UTF-8"?>
<svg width="229px" height="229px" viewBox="0 0 229 229" version="1.1" xmlns="http://www.w3.org/2000/svg" xmlns:xlink="http://www.w3.org/1999/xlink">
    <!-- Generator: Sketch 59.1 (86144) - https://sketch.com -->
    <title>Group 3</title>
    <desc>Created with Sketch.</desc>
    <defs>
        <rect id="path-1" x="28.7999994" y="28.7999994" width="154.799997" height="154.799997" rx="11.5199998"></rect>
        <filter x="-12.3%" y="-12.3%" width="124.7%" height="124.7%" filterUnits="objectBoundingBox" id="filter-3">
            <feMorphology radius="1.07999998" operator="dilate" in="SourceAlpha" result="shadowSpreadOuter1"></feMorphology>
            <feOffset dx="0" dy="0" in="shadowSpreadOuter1" result="shadowOffsetOuter1"></feOffset>
            <feGaussianBlur stdDeviation="6" in="shadowOffsetOuter1" result="shadowBlurOuter1"></feGaussianBlur>
            <feComposite in="shadowBlurOuter1" in2="SourceAlpha" operator="out" result="shadowBlurOuter1"></feComposite>
            <feColorMatrix values="0 0 0 0 0   0 0 0 0 0   0 0 0 0 0  0 0 0 0.147235577 0" type="matrix" in="shadowBlurOuter1"></feColorMatrix>
        </filter>
    </defs>
    <g id="Page-1" stroke="none" stroke-width="1" fill="none" fill-rule="evenodd">
        <g id="docker_containerization" transform="translate(-978.000000, -1290.000000)">
            <g id="Group-15" transform="translate(240.000000, 1298.000000)">
                <g id="Group-3" transform="translate(747.000000, 0.000000)">
                    <g id="Group-16">
                        <circle id="Oval" fill="#F1F1F1" cx="107.999998" cy="100.799998" r="92.1599982"></circle>
                        <mask id="mask-2" fill="white">
                            <use xlink:href="#path-1"></use>
                        </mask>
                        <g id="Rectangle" fill-rule="nonzero" transform="translate(106.199998, 106.199998) rotate(-30.000000) translate(-106.199998, -106.199998) ">
                            <use fill="black" fill-opacity="1" filter="url(#filter-3)" xlink:href="#path-1"></use>
                            <use stroke="#F1F1F1" stroke-width="2.15999996" fill="#FFFFFF" xlink:href="#path-1"></use>
                        </g>
                        <g id="stats-(2)" mask="url(#mask-2)" fill-rule="nonzero">
                            <g transform="translate(44.000000, 51.000000)">
                                <path d="M124.362394,24.3841733 L124.362394,92.9358289 C124.362394,95.9676911 122.30187,98.5205517 119.501616,99.2635484 C118.96274,99.4080654 118.396647,99.483998 117.814225,99.483998 L7.34993214,99.483998 C3.73292602,99.483998 0.801490881,96.552835 0.801490881,92.9358289 L0.801490881,24.3841733 C0.801490881,20.7671672 3.73292602,17.8360042 7.34993214,17.8360042 L117.814225,17.8360042 C118.396647,17.8360042 118.96274,17.912209 119.501616,18.0564538 C122.30187,18.7994506 124.362394,21.3523112 124.362394,24.3841733" id="Path" fill="#F1F1F1"></path>
                                <path d="M124.361849,24.3830847 L124.361849,30.8985946 L0.801218721,30.8985946 L0.801218721,24.3830847 C0.801218721,20.7660786 3.73265386,17.8349156 7.34938782,17.8349156 L117.81368,17.8349156 C121.430414,17.8351878 124.361849,20.7663507 124.361849,24.3830847" id="Path" fill="#B2BBCD"></path>
                                <rect id="Rectangle" fill="#999999" x="8.30766311" y="34.8370217" width="32.3600937" height="4.49934878"></rect>
                                <circle id="Oval" fill="#E26693" cx="9.78222588" cy="24.3670273" r="4.08239969"></circle>
                                <circle id="Oval" fill="#FFAF10" cx="20.668625" cy="24.3670273" r="4.08239969"></circle>
                                <path d="M123.049494,20.4498287 C123.873322,21.5450004 124.362122,22.9071611 124.362122,24.3833569 L124.362122,30.8988668 L118.014806,30.8988668 C118.025693,40.6691379 112.72946,50.1090067 103.469488,54.9433844 C102.897408,55.1940438 102.320157,55.427557 101.73719,55.6439242 L102.492162,57.0899102 L117.24922,57.0899102 L117.24922,92.9418164 L78.1069,92.9418164 L80.100744,99.483998 L117.813952,99.483998 C118.396375,99.483998 118.962467,99.4077932 119.501344,99.2635484 C122.30187,98.5205517 124.362122,95.9676911 124.362122,92.9358289 L124.362122,24.3841733 C124.362122,22.9077055 123.873866,21.5452726 123.049494,20.4498287" id="Shape" fill="#EEEEEE"></path>
                                <path d="M117.814225,17.8360042 L114.619339,17.8360042 C114.727114,18.0308708 114.832712,18.2270981 114.936405,18.4257749 C117.01979,22.4161845 118.009908,26.6885519 118.014534,30.8988668 L124.361577,30.8988668 L124.361577,24.3833569 C124.361577,22.9071611 123.87305,21.5450004 123.049222,20.4498287 L123.049222,20.4498287 C123.04895,20.4495565 123.048677,20.4492844 123.048405,20.4490122 L123.048405,20.4490122 C123.045139,20.4446576 123.042146,20.4405752 123.038607,20.4362207 L123.038607,20.4362207 C123.037247,20.4345877 123.036158,20.4329548 123.034797,20.4313218 L123.034797,20.4313218 C123.03262,20.4286002 123.030715,20.4258786 123.028538,20.423157 L123.028538,20.423157 C123.026632,20.4204354 123.024727,20.417986 123.02255,20.4152644 L123.02255,20.4152644 C123.021734,20.4141757 123.020917,20.4130871 123.020101,20.4119984 L123.020101,20.4119984 C122.152727,19.2768192 120.922291,18.4336676 119.501072,18.056726 C118.96274,17.912209 118.396647,17.8360042 117.814225,17.8360042" id="Path" fill="#BEC8DC"></path>
                                <path d="M63.8734774,30.8985946 L59.1983133,30.8985946 L67.1804933,57.089638 L84.3015333,57.089638 C83.9028189,57.0128889 83.5051932,56.9287915 83.108384,56.8368014 L82.8359518,56.7736603 C76.2273632,54.6984405 70.4115766,50.1030192 66.9521511,43.4772845 C64.8510761,39.4528549 63.8615024,35.1434738 63.8734774,30.8985946" id="Path" fill="#EEEEEE"></path>
                                <path d="M67.2659516,17.8360042 L55.2174293,17.8360042 L59.1985855,30.8985946 L63.8737496,30.8985946 C63.8813701,28.155222 64.3075726,25.4385211 65.1221474,22.8442922 C65.6661952,21.1111774 66.3838811,19.4322225 67.2659516,17.8360042" id="Path" fill="#BEC8DC"></path>
                                <path d="M101.736918,55.6439242 C100.050615,56.2698922 98.3210382,56.7524318 96.5675114,57.0899102 L102.491618,57.0899102 L101.736918,55.6439242" id="Path" fill="#CECECE"></path>
                                <path d="M102.49189,57.089638 L96.5677836,57.089638 C94.5461792,57.4782825 92.4927322,57.6739655 90.4343863,57.6739655 C88.5295386,57.6739655 86.6200642,57.506315 84.7301853,57.1691088 L83.8151834,60.0833978 L103.517116,60.0833978 C103.658912,60.0123641 103.800707,59.9399695 103.941958,59.8662142 L102.49189,57.089638" id="Path" fill="#DBDBDB"></path>
                                <path d="M90.9193754,3.88127346 C86.6989906,3.88127346 82.4170976,4.87111931 78.4174346,6.95913067 C73.5308021,9.51035831 69.7477784,13.3456367 67.2662237,17.8349156 L114.618522,17.8349156 C111.127254,11.5262473 105.462788,7.14229433 99.0512434,5.12994345 C96.4327922,4.30802031 93.6891475,3.88127346 90.9193754,3.88127346" id="Path" fill="#DBDBDB"></path>
                                <polyline id="Path" fill="#9F9F9F" points="114.618794 17.8351878 67.2664959 17.8351878 67.2659516 17.8360042 114.619339 17.8360042 114.618794 17.8351878"></polyline>
                                <path d="M118.014552,30.8985946 L63.8733701,30.8985946 C63.8615024,35.1434738 64.8510761,39.4525827 66.9521511,43.4772845 C70.4115766,50.1030192 76.2273632,54.6984405 82.8359518,56.7736603 L83.108384,56.8368014 C83.5051932,56.9287915 83.9028189,57.0128889 84.3015333,57.089638 L96.5675114,57.089638 C98.3210382,56.7524318 100.050343,56.2698922 101.736918,55.6436521 C102.319885,55.4272849 102.897136,55.1937716 103.469216,54.9431123 C112.729187,50.1087346 118.025693,40.6691379 118.014552,30.8985946" id="Path" fill="#CECECE"></path>
                                <path d="M114.619339,17.8360042 L67.2659516,17.8360042 C66.3838811,19.4322225 65.6661952,21.1109053 65.1218753,22.8442922 C64.3073004,25.4385211 63.8810979,28.1554942 63.8734774,30.8985946 L118.014534,30.8985946 C118.009908,26.6885519 117.019517,22.4159124 114.936405,18.4255028 C114.832712,18.2270981 114.727114,18.0308708 114.619339,17.8360042" id="Path" fill="#B2B2B2"></path>
                                <path d="M96.5675114,57.089638 L84.3015333,57.089638 C84.4441451,57.1171262 84.5870291,57.1435257 84.7299131,57.1691088 C86.6200642,57.506315 88.5292664,57.6739655 90.4341141,57.6739655 C92.49246,57.6739655 94.5459071,57.4782825 96.5675114,57.089638" id="Path" fill="#DBDBDB"></path>
                                <path d="M90.9438698,27.2772339 L89.5177515,31.819584 L82.836224,53.0970511 C76.2281797,51.0231921 70.4121209,46.4264101 66.9529676,39.8020362 C63.4938143,33.1749407 63.0474719,25.7776324 65.1213309,19.1695881 L87.8358028,26.3001796 L90.9438698,27.2772339 Z" id="Path" fill="#FFD86E"></path>
                                <path d="M103.94223,56.1915101 C101.906474,57.252934 99.7972339,58.0313116 97.660778,58.5402507 C92.8435464,59.6860442 87.8875132,59.4601515 83.3070607,58.0204252 L90.5111354,35.0800605 L91.4147065,32.1978863 L103.94223,56.1915101 Z" id="Path" fill="#FF4560"></path>
                                <path d="M103.468672,51.2681361 L90.9438698,27.2772339 L87.8358028,26.3001796 L65.1213309,19.1695881 C67.1979116,12.5588222 71.791972,6.74276349 78.4163459,3.28361015 C79.1103539,2.92163738 79.809805,2.5923238 80.5201426,2.29839102 C86.5811453,-0.240861582 93.1347576,-0.404157569 99.0515155,1.45469509 C105.662281,3.52855413 111.47834,8.12261458 114.937494,14.7497101 C121.853079,28.0011795 116.720141,44.3498294 103.468672,51.2681361 Z" id="Path" fill="#10BDE0"></path>
                                <polyline id="Path" fill="#E7E7E7" points="58.4623927 42.3929992 7.91384762 42.3929992 7.91384762 92.9415443 58.4623927 92.9415443 58.4623927 42.3929992"></polyline>
                                <polyline id="Path" fill="#10BDE0" points="22.3241742 65.5908272 12.5269593 65.5908272 12.5269593 90.0838645 22.3241742 90.0838645 22.3241742 65.5908272"></polyline>
                                <polyline id="Path" fill="#FFD86E" points="38.0868637 57.4262999 28.2893766 57.4262999 28.2893766 90.0838645 38.0868637 90.0838645 38.0868637 57.4262999"></polyline>
                                <polyline id="Path" fill="#FF4560" points="53.8490089 48.4455649 44.0520661 48.4455649 44.0520661 90.0838645 53.8490089 90.0838645 53.8490089 48.4455649"></polyline>
                            </g>
                        </g>
                    </g>
                </g>
            </g>
        </g>
    </g>
</svg>