<?xml version="1.0" encoding="UTF-8"?>
<svg width="229px" height="229px" viewBox="0 0 229 229" version="1.1" xmlns="http://www.w3.org/2000/svg" xmlns:xlink="http://www.w3.org/1999/xlink">
    <!-- Generator: Sketch 59.1 (86144) - https://sketch.com -->
    <title>Group 3</title>
    <desc>Created with Sketch.</desc>
    <defs>
        <rect id="path-1" x="28.7999994" y="28.7999994" width="154.799997" height="154.799997" rx="11.5199998"></rect>
        <filter x="-12.3%" y="-12.3%" width="124.7%" height="124.7%" filterUnits="objectBoundingBox" id="filter-3">
            <feMorphology radius="1.07999998" operator="dilate" in="SourceAlpha" result="shadowSpreadOuter1"></feMorphology>
            <feOffset dx="0" dy="0" in="shadowSpreadOuter1" result="shadowOffsetOuter1"></feOffset>
            <feGaussianBlur stdDeviation="6" in="shadowOffsetOuter1" result="shadowBlurOuter1"></feGaussianBlur>
            <feComposite in="shadowBlurOuter1" in2="SourceAlpha" operator="out" result="shadowBlurOuter1"></feComposite>
            <feColorMatrix values="0 0 0 0 0   0 0 0 0 0   0 0 0 0 0  0 0 0 0.147235577 0" type="matrix" in="shadowBlurOuter1"></feColorMatrix>
        </filter>
    </defs>
    <g id="Page-1" stroke="none" stroke-width="1" fill="none" fill-rule="evenodd">
        <g id="docker_containerization" transform="translate(-978.000000, -760.000000)">
            <g id="Group-15" transform="translate(240.000000, 768.000000)">
                <g id="Group-3" transform="translate(747.000000, 0.000000)">
                    <g id="Group-16">
                        <circle id="Oval" fill="#F1F1F1" cx="107.999998" cy="100.799998" r="92.1599982"></circle>
                        <mask id="mask-2" fill="white">
                            <use xlink:href="#path-1"></use>
                        </mask>
                        <g id="Rectangle" fill-rule="nonzero" transform="translate(106.199998, 106.199998) rotate(-30.000000) translate(-106.199998, -106.199998) ">
                            <use fill="black" fill-opacity="1" filter="url(#filter-3)" xlink:href="#path-1"></use>
                            <use stroke="#F1F1F1" stroke-width="2.15999996" fill="#FFFFFF" xlink:href="#path-1"></use>
                        </g>
                        <g id="seo" mask="url(#mask-2)">
                            <g transform="translate(54.000000, 55.000000)">
                                <path d="M57.9981588,57.9974388 C62.5413588,53.4547189 68.5811986,50.952959 75.0052785,50.952959 C79.3819184,50.952959 83.5792783,52.115039 87.2474383,54.2915989 L87.2474383,12.9031197 L0,12.9031197 L0,88.9615182 C0,90.2815182 1.07999998,91.3615182 2.39999995,91.3615182 L57.3755989,91.3615182 C48.627359,81.9422384 48.833999,67.1620787 57.9981588,57.9974388 Z" id="Path" fill="#F1F1F1" fill-rule="nonzero"></path>
                                <g id="docker" stroke-width="1" fill="none" fill-rule="evenodd" transform="translate(13.000000, 21.000000)">
                                    <path d="M61.4400034,30.7200017 C61.4400034,47.6862026 47.6862026,61.4400034 30.7200017,61.4400034 C13.7538008,61.4400034 0,47.6862026 0,30.7200017 C0,13.7538008 13.7538008,0 30.7200017,0 C46.3796425,0 59.3020832,11.7175206 61.1992833,26.8630815 C61.3371634,27.9577215 61.4174434,29.0698816 61.4349634,30.1971616 C61.4388034,30.3714017 61.4400034,30.5457617 61.4400034,30.7200017 Z" id="Path" fill="#E7E7E7" fill-rule="nonzero"></path>
                                    <g id="Group" transform="translate(6.480000, 12.120001)" fill="#0EAFD0" fill-rule="nonzero">
                                        <path d="M54.954963,18.077161 C52.3318829,21.2720412 47.1921626,21.0225611 47.1921626,21.0225611 C44.0223624,34.6785619 24.8793614,41.6288423 11.5882806,38.2144821 C-1.70148009,34.8013219 0.126720007,18.949801 0.126720007,18.949801 L39.0232821,18.949801 C42.2331623,18.949801 42.4777223,17.974321 42.4777223,17.974321 C39.6326422,11.2272006 44.0224824,7.60980042 44.0224824,7.60980042 C47.4368426,8.22048045 48.2894426,14.0722808 48.2894426,14.0722808 C51.0918028,13.5694807 53.3425229,14.1675608 54.719283,14.7430808 C54.857163,15.8377209 54.937443,16.9498809 54.954963,18.077161 Z" id="Path"></path>
                                        <rect id="Rectangle" x="4.27200023" y="12.7719607" width="5.4468003" height="4.95840027"></rect>
                                        <rect id="Rectangle" x="11.1169206" y="12.7719607" width="5.4468003" height="4.95840027"></rect>
                                        <rect id="Rectangle" x="31.6491617" y="12.7719607" width="5.4468003" height="4.95840027"></rect>
                                        <rect id="Rectangle" x="24.8054414" y="12.7719607" width="5.4468003" height="4.95840027"></rect>
                                        <rect id="Rectangle" x="24.8054414" y="0.091560005" width="5.4468003" height="4.95840027"></rect>
                                        <rect id="Rectangle" x="17.960521" y="12.7719607" width="5.4468003" height="4.95840027"></rect>
                                        <rect id="Rectangle" x="11.1169206" y="6.43116035" width="5.4468003" height="4.95840027"></rect>
                                        <rect id="Rectangle" x="24.8054414" y="6.43116035" width="5.4468003" height="4.95840027"></rect>
                                        <rect id="Rectangle" x="17.960521" y="6.43116035" width="5.4468003" height="4.95840027"></rect>
                                    </g>
                                </g>
                                <path d="M5.44319989,88.9615182 L5.44319989,12.9031197 L0,12.9031197 L0,88.9615182 C0,90.2815182 1.07999998,91.3615182 2.39999995,91.3615182 L7.84319984,91.3615182 C6.52319987,91.3615182 5.44319989,90.2815182 5.44319989,88.9615182 Z" id="Path" fill="#E5E5E5" fill-rule="nonzero"></path>
                                <path d="M85.8755983,0 L1.37183997,0 C0.617279988,0 0,0.617279988 0,1.37183997 L0,13.5835197 L87.2474383,13.5835197 L87.2474383,1.37183997 C87.2474383,0.617279988 86.6301583,0 85.8755983,0 Z" id="Path" fill="#B2BBCD" fill-rule="nonzero"></path>
                                <path d="M6.81503986,0 L1.37183997,0 C0.617279988,0 0,0.617279988 0,1.37183997 L0,13.5835197 L5.44319989,13.5835197 L5.44319989,1.37183997 C5.44319989,0.617279988 6.06047988,0 6.81503986,0 Z" id="Path" fill="#96A5B9" fill-rule="nonzero"></path>
                                <path d="M8.37479983,8.30639983 C7.89983984,8.30639983 7.43639985,8.11439984 7.10039986,7.78055985 C6.76655987,7.44455985 6.57479987,6.98135986 6.57479987,6.50639987 C6.57479987,6.03335988 6.76679987,5.57039989 7.10039986,5.2343999 C7.43615985,4.8983999 7.89959984,4.70639991 8.37479983,4.70639991 C8.84783982,4.70639991 9.31319981,4.8981599 9.64679981,5.2343999 C9.9827998,5.57039989 10.1747998,6.03359988 10.1747998,6.50639987 C10.1747998,6.98135986 9.9827998,7.44479985 9.64679981,7.78055985 C9.31319981,8.11439984 8.84759982,8.30639983 8.37479983,8.30639983 Z" id="Path" fill="#E26693" fill-rule="nonzero"></path>
                                <path d="M14.2775997,8.30639983 C13.8045597,8.30639983 13.3391997,8.11439984 13.0053597,7.77815985 C12.6695997,7.44455985 12.4775998,6.98135986 12.4775998,6.50639987 C12.4775998,6.03335988 12.6695997,5.57039989 13.0053597,5.2343999 C13.3413597,4.8983999 13.8045597,4.70639991 14.2775997,4.70639991 C14.7525597,4.70639991 15.2157597,4.8981599 15.5519997,5.2343999 C15.8855997,5.57039989 16.0775997,6.03359988 16.0775997,6.50639987 C16.0775997,6.97919986 15.8853597,7.44479985 15.5519997,7.77815985 C15.2157597,8.11439984 14.7527997,8.30639983 14.2775997,8.30639983 Z" id="Path" fill="#FFAF10" fill-rule="nonzero"></path>
                                <path d="M20.1827996,8.30639983 C19.7075996,8.30639983 19.2443996,8.11439984 18.9107996,7.78055985 C18.5747996,7.44455985 18.3827996,6.98135986 18.3827996,6.50639987 C18.3827996,6.03335988 18.5747996,5.57039989 18.9107996,5.2343999 C19.2443996,4.8983999 19.7075996,4.70639991 20.1827996,4.70639991 C20.6555996,4.70639991 21.1211996,4.8981599 21.4547996,5.2343999 C21.7907996,5.57039989 21.9827996,6.03359988 21.9827996,6.50639987 C21.9827996,6.98135986 21.7907996,7.44479985 21.4547996,7.78055985 C21.1187996,8.11439984 20.6553596,8.30639983 20.1827996,8.30639983 Z" id="Path" fill="#37C47A" fill-rule="nonzero"></path>
                                <path d="M98.344318,93.4096781 L93.4111181,98.343118 L103.115998,108.047998 C104.855998,106.502158 106.503358,104.854558 108.049438,103.114558 L98.344318,93.4096781 Z" id="Path" fill="#28283B" fill-rule="nonzero"></path>
                                <path d="M100.302718,90.4346382 L96.2143181,86.3464783 C95.1268781,88.3831182 93.7267181,90.2956782 92.0114382,92.0107182 C90.3155982,93.7065581 88.4109582,95.1175181 86.3555983,96.2205581 L90.4363182,100.301038 C90.9028782,100.767838 91.6665582,100.767838 92.1333582,100.301038 L100.302718,92.1316782 C100.769278,91.6651182 100.769278,90.9014382 100.302718,90.4346382 Z" id="Path" fill="#333340" fill-rule="nonzero"></path>
                                <path d="M93.2361581,97.5009581 L89.7465582,94.0113581 C88.6735182,94.8467981 87.5395183,95.5847981 86.3553583,96.2203181 L90.4360782,100.300798 C90.9026382,100.767598 91.6663182,100.767598 92.1331182,100.300798 L94.9331981,97.5007181 C94.4663981,97.9677581 93.7029581,97.9677581 93.2361581,97.5009581 Z" id="Path" fill="#26262E" fill-rule="nonzero"></path>
                                <path d="M92.3510382,57.6578389 C101.930878,67.2376787 101.930878,82.7699984 92.3507982,92.3500782 C82.7714384,101.929198 67.2393587,101.929438 57.6587989,92.3498382 C48.078959,82.7699984 48.079439,67.2376787 57.6587989,57.6580789 C67.2393587,48.077999 82.7714384,48.077759 92.3510382,57.6578389 Z" id="Path" fill="#464655" fill-rule="nonzero"></path>
                                <path d="M87.1672783,87.1658383 C80.4506384,93.8827181 69.5601586,93.8827181 62.8427988,87.1653583 C56.1261589,80.4491984 56.1259189,69.5584786 62.8427988,62.8415988 C69.5594386,56.1249589 80.4503984,56.1251989 87.1670383,62.8415988 C93.8841581,69.5587186 93.8841581,80.4489584 87.1672783,87.1658383 Z" id="Path" fill="#EBEBEB" fill-rule="nonzero"></path>
                                <path d="M87.1672783,87.1658383 C87.7790383,86.5540783 88.3334382,85.9070383 88.8335982,85.2323983 C82.1003984,90.2255982 72.5483986,89.6709582 66.4427987,83.5653583 C60.3376788,77.4607185 59.7832788,67.9084787 64.7762387,61.1752788 C64.1013587,61.6756788 63.4545587,62.2300788 62.8427988,62.8415988 C56.1259189,69.5584786 56.1261589,80.4489584 62.8427988,87.1653583 C69.5601586,93.8827181 80.4506384,93.8827181 87.1672783,87.1658383 Z" id="Path" fill="#C5D4E4" fill-rule="nonzero"></path>
                                <path d="M85.8755983,0 L27.8188794,0 L27.8188794,13.5835197 L87.2474383,13.5835197 L87.2474383,1.37183997 C87.2474383,0.617279988 86.6301583,0 85.8755983,0 Z" id="Path" fill="#BEC8DC" fill-rule="nonzero"></path>
                                <g id="Group" stroke-width="1" fill="none" fill-rule="evenodd" transform="translate(74.879999, 60.479999)">
                                    <circle id="Oval" fill="#C5D4E4" fill-rule="nonzero" cx="3.07919994" cy="3.00719994" r="2.87999994"></circle>
                                    <circle id="Oval" fill="#C5D4E4" fill-rule="nonzero" cx="9.12959982" cy="5.99999988" r="2.03999996"></circle>
                                </g>
                            </g>
                        </g>
                    </g>
                </g>
            </g>
        </g>
    </g>
</svg>