<?xml version="1.0" encoding="UTF-8"?>
<svg width="102px" height="105px" viewBox="0 0 102 105" version="1.1" xmlns="http://www.w3.org/2000/svg" xmlns:xlink="http://www.w3.org/1999/xlink">
    <!-- Generator: Sketch 63.1 (92452) - https://sketch.com -->
    <title>Group 23</title>
    <desc>Created with Sketch.</desc>
    <g id="Page-1" stroke="none" stroke-width="1" fill="none" fill-rule="evenodd">
        <g id="Machine_learning" transform="translate(-584.000000, -7359.000000)" fill-rule="nonzero">
            <g id="1" transform="translate(238.000000, 5869.000000)">
                <g id="Group-6" transform="translate(343.000000, 1490.000000)">
                    <g id="Group-23">
                        <path d="M91.2409106,15.761837 C99.4909007,23.1632467 103.485554,35.1458732 101.82535,45.2623379 C100.165146,55.3788026 92.8703434,63.5885608 87.4200153,72.7515088 C81.9696873,81.9144567 78.4043711,92.0508752 70.4202319,98.760239 C62.4158255,105.469599 49.9723322,108.772176 39.9192153,105.242804 C29.8458313,101.713428 22.162827,91.3723787 15.959204,80.3017125 C9.73531389,69.231043 5.0313463,57.4713117 6.1238339,45.9558431 C7.23658869,34.4403779 14.186333,23.1691823 23.7917717,16.0140623 C33.3972104,8.85894227 45.6988778,5.81990467 58.0821023,5.68006786 C70.4855975,5.56050849 82.9909205,8.36042736 91.2409106,15.761837 Z" id="Path" fill="#FFCCCD" opacity="0.300000012" transform="translate(54.080545, 56.176151) rotate(-94.000000) translate(-54.080545, -56.176151) "></path>
                        <g id="patient" transform="translate(3.000000, 0.000000)">
                            <polygon id="Path" fill="#E2292F" points="2.88394621 2.88394621 33.1608847 2.88394621 33.1608847 0 0 0 0 77.3763966 2.88394621 77.3763966"></polygon>
                            <polygon id="Path" fill="#E2292F" points="36.0448309 0 36.0448309 2.88394621 69.2057154 2.88394621 69.2057154 25.4983415 72.0896616 25.4983415 72.0896616 0"></polygon>
                            <path d="M69.2057154,79.9710489 L53.8266675,79.9710489 L53.8266675,95.3500968 L22.395551,95.3500968 L22.395551,98.234043 L55.8659652,98.234043 L72.0896616,82.0103466 L72.0896616,28.3815381 L69.2057154,28.3815381 L69.2057154,79.9710489 Z M56.7106138,93.3115485 L56.7106138,82.8549951 L67.1671672,82.8549951 L56.7106138,93.3115485 Z" id="Shape" fill="#E2292F"></path>
                            <polygon id="Path" fill="#E2292F" points="2.88394621 80.2595934 0 80.2595934 0 98.234043 19.5123544 98.234043 19.5123544 95.3500968 2.88394621 95.3500968"></polygon>
                            <path d="M7.68952393,45.1763279 L41.3315659,45.1763279 L41.3315659,7.68952393 L7.68952393,7.68952393 L7.68952393,45.1763279 Z M32.6804767,42.2923817 L16.3406131,42.2923817 L16.3406131,35.6603546 C16.3406131,32.6085279 18.0059271,29.8692288 20.6507935,28.4572342 C21.7142862,29.2951376 23.0543319,29.7972801 24.5105449,29.7972801 C25.9660085,29.7972801 27.306054,29.2951376 28.3695467,28.4572342 C31.0151627,29.8692288 32.6804767,32.6085279 32.6804767,35.6603546 L32.6804767,42.2923817 Z M21.1461909,23.5489796 L21.1461909,21.6265987 C21.1461909,19.7716696 22.6556158,18.2629941 24.5105449,18.2629941 C26.365474,18.2629941 27.8748989,19.7716696 27.8748989,21.6265987 L27.8748989,23.5489796 C27.8748989,25.4039087 26.365474,26.9133339 24.5105449,26.9133339 C22.6556158,26.9133339 21.1461909,25.4039087 21.1461909,23.5489796 Z M10.5734701,10.5734701 L38.4476197,10.5734701 L38.4476197,42.2923817 L35.5644229,42.2923817 L35.5644229,35.6603546 C35.5644229,31.7069199 33.4981444,28.1409595 30.1810068,26.1683643 C30.5504936,25.3709322 30.7580957,24.4843135 30.7580957,23.5489796 L30.7580957,21.6265987 C30.7580957,18.1820517 27.9550919,15.3790479 24.5105449,15.3790479 C21.0652485,15.3790479 18.2629941,18.1820517 18.2629941,21.6265987 L18.2629941,23.5489796 C18.2629941,24.4843135 18.4705962,25.3709322 18.840083,26.1683643 C15.5229454,28.1409595 13.4566669,31.7069199 13.4566669,35.6603546 L13.4566669,42.2923817 L10.5734701,42.2923817 L10.5734701,10.5734701 Z" id="Shape" fill="#262626"></path>
                            <path d="M50.9434708,9.61190487 L50.9434708,14.4182322 L46.1371436,14.4182322 L46.1371436,23.0685718 L50.9434708,23.0685718 L50.9434708,27.8748989 L59.5938105,27.8748989 L59.5938105,23.0685718 L64.4001377,23.0685718 L64.4001377,14.4182322 L59.5938105,14.4182322 L59.5938105,9.61190487 L50.9434708,9.61190487 Z M61.5161915,17.3014288 L61.5161915,20.185375 L56.7106138,20.185375 L56.7106138,24.9909527 L53.8266675,24.9909527 L53.8266675,20.185375 L49.0210898,20.185375 L49.0210898,17.3014288 L53.8266675,17.3014288 L53.8266675,12.4958511 L56.7106138,12.4958511 L56.7106138,17.3014288 L61.5161915,17.3014288 Z" id="Shape" fill="#262626"></path>
                            <polygon id="Path" fill="#262626" points="37.0056466 64.7201598 42.7727896 64.7201598 42.7727896 67.604106 37.0056466 67.604106"></polygon>
                            <polygon id="Path" fill="#262626" points="45.6567358 64.7201598 59.1134025 64.7201598 59.1134025 67.604106 45.6567358 67.604106"></polygon>
                            <polygon id="Path" fill="#262626" points="22.588164 64.7201598 34.1224498 64.7201598 34.1224498 67.604106 22.588164 67.604106"></polygon>
                            <polygon id="Path" fill="#262626" points="12.9762589 64.7201598 19.7042178 64.7201598 19.7042178 67.604106 12.9762589 67.604106"></polygon>
                            <polygon id="Path" fill="#262626" points="44.6951705 58.3122231 59.1134025 58.3122231 59.1134025 61.1961693 44.6951705 61.1961693"></polygon>
                            <polygon id="Path" fill="#262626" points="12.9762589 58.3122231 30.2776879 58.3122231 30.2776879 61.1961693 12.9762589 61.1961693"></polygon>
                            <polygon id="Path" fill="#262626" points="33.1608847 58.3122231 36.0448309 58.3122231 36.0448309 61.1961693 33.1608847 61.1961693"></polygon>
                            <polygon id="Path" fill="#262626" points="38.9280275 58.3122231 41.8119737 58.3122231 41.8119737 61.1961693 38.9280275 61.1961693"></polygon>
                            <polygon id="Path" fill="#262626" points="12.9762589 51.9042866 22.588164 51.9042866 22.588164 54.7882328 12.9762589 54.7882328"></polygon>
                            <polygon id="Path" fill="#262626" points="25.4713606 51.9042866 48.5399326 51.9042866 48.5399326 54.7882328 25.4713606 54.7882328"></polygon>
                            <polygon id="Path" fill="#262626" points="51.4238788 51.9042866 59.1134025 51.9042866 59.1134025 54.7882328 51.4238788 54.7882328"></polygon>
                            <polygon id="Path" fill="#262626" points="33.1608847 71.1280963 36.0448309 71.1280963 36.0448309 74.0120426 33.1608847 74.0120426"></polygon>
                            <polygon id="Path" fill="#262626" points="12.9762589 71.1280963 30.2776879 71.1280963 30.2776879 74.0120426 12.9762589 74.0120426"></polygon>
                            <polygon id="Path" fill="#262626" points="38.9280275 71.1280963 41.8119737 71.1280963 41.8119737 74.0120426 38.9280275 74.0120426"></polygon>
                        </g>
                    </g>
                </g>
            </g>
        </g>
    </g>
</svg>