<?xml version="1.0" encoding="UTF-8"?>
<svg width="102px" height="96px" viewBox="0 0 102 96" version="1.1" xmlns="http://www.w3.org/2000/svg" xmlns:xlink="http://www.w3.org/1999/xlink">
    <!-- Generator: Sketch 63.1 (92452) - https://sketch.com -->
    <title>Group 23</title>
    <desc>Created with Sketch.</desc>
    <g id="Page-1" stroke="none" stroke-width="1" fill="none" fill-rule="evenodd">
        <g id="Machine_learning" transform="translate(-927.000000, -6364.000000)" fill-rule="nonzero">
            <g id="1" transform="translate(238.000000, 5869.000000)">
                <g id="Group-6" transform="translate(686.000000, 490.000000)">
                    <g id="Group-23">
                        <path d="M91.1564197,11.6136109 C99.3853352,19.0135469 103.368373,30.9953611 101.710459,41.111986 C100.052545,51.2286108 92.7738969,59.4394987 87.3351297,68.6032551 C81.8963625,77.7670114 78.3379125,87.9039101 70.3718371,94.614537 C62.3855432,101.325164 49.9714053,104.629793 39.9430464,101.102152 C29.894469,97.5745114 22.2316705,87.2348748 16.04482,76.1653815 C9.83775111,65.0958881 5.1470671,53.3370857 6.23886424,41.8215689 C7.35087985,30.306052 14.2858135,19.0338207 23.8693662,11.8771703 C33.4529189,4.72051986 45.7255275,1.67945027 58.07901,1.53753369 C70.4527109,1.4158909 82.9275042,4.21367493 91.1564197,11.6136109 Z" id="Path" fill="#FFCCCD" opacity="0.300000012" transform="translate(54.080465, 52.033747) rotate(-94.000000) translate(-54.080465, -52.033747) "></path>
                        <g id="process" transform="translate(4.000000, 7.000000)">
                            <polygon id="Path" fill="#262626" points="40.3 77.5 43.4 77.5 43.4 80.6 40.3 80.6"></polygon>
                            <path d="M40.3,25.0852 L40.3,21.7 L58.3513,21.7 C61.1660339,21.7000531 63.7595152,20.1739872 65.12635,17.7134 L68.2,12.18145 L68.2,21.7 L71.3,21.7 L71.3,4.65 C71.3,2.08187591 69.2181241,0 66.65,0 L10.85,0 C8.28187591,0 6.2,2.08187591 6.2,4.65 L6.2,51.15 L9.3,51.15 L9.3,12.1799 L12.37365,17.7134 C13.7404848,20.1739872 16.3339661,21.7000531 19.1487,21.7 L37.2,21.7 L37.2,25.0852 C35.0648026,25.8401063 33.7839983,28.0234827 34.1669667,30.2555862 C34.5499351,32.4876898 36.4852812,34.119262 38.75,34.119262 C41.0147188,34.119262 42.9500649,32.4876898 43.3330333,30.2555862 C43.7160017,28.0234827 42.4351974,25.8401063 40.3,25.0852 L40.3,25.0852 Z M19.1487,18.6 C17.459703,18.6003196 15.9033395,17.6847768 15.08305,16.20835 L9.3,5.79855 L9.3,4.65 C9.3,3.79395864 9.99395864,3.1 10.85,3.1 L66.65,3.1 C67.5060414,3.1 68.2,3.79395864 68.2,4.65 L68.2,5.79855 L62.41695,16.20835 C61.5966605,17.6847768 60.040297,18.6003196 58.3513,18.6 L40.3,18.6 L40.3,15.2148 C42.4351974,14.4598937 43.7160017,12.2765173 43.3330333,10.0444138 C42.9500649,7.81231017 41.0147188,6.18073796 38.75,6.18073796 C36.4852812,6.18073796 34.5499351,7.81231017 34.1669667,10.0444138 C33.7839983,12.2765173 35.0648026,14.4598937 37.2,15.2148 L37.2,18.6 L19.1487,18.6 Z M37.2,10.85 C37.2,9.99395864 37.8939586,9.3 38.75,9.3 C39.6060414,9.3 40.3,9.99395864 40.3,10.85 C40.3,11.7060414 39.6060414,12.4 38.75,12.4 C37.8939586,12.4 37.2,11.7060414 37.2,10.85 Z M38.75,31 C37.8939586,31 37.2,30.3060414 37.2,29.45 C37.2,28.5939586 37.8939586,27.9 38.75,27.9 C39.6060414,27.9 40.3,28.5939586 40.3,29.45 C40.3,30.3060414 39.6060414,31 38.75,31 Z" id="Shape" fill="#E2292F"></path>
                            <polygon id="Path" fill="#E2292F" points="62 34.1 68.2 34.1 68.2 37.2 62 37.2"></polygon>
                            <polygon id="Path" fill="#E2292F" points="55.8 34.1 58.9 34.1 58.9 37.2 55.8 37.2"></polygon>
                            <path d="M92.54585,37.65415 L80.14585,25.25415 C79.8552363,24.9634485 79.461052,24.8 79.05,24.8 L51.15,24.8 C48.5818759,24.8 46.5,26.8818759 46.5,29.45 L46.5,82.15 C46.5,84.7181241 48.5818759,86.8 51.15,86.8 L88.35,86.8 C90.9181241,86.8 93,84.7181241 93,82.15 L93,38.75 C93,38.338948 92.8365515,37.9447637 92.54585,37.65415 L92.54585,37.65415 Z M80.6,30.0917 L87.7083,37.2 L82.15,37.2 C81.2939586,37.2 80.6,36.5060414 80.6,35.65 L80.6,30.0917 Z M88.35,83.7 L51.15,83.7 C50.2939586,83.7 49.6,83.0060414 49.6,82.15 L49.6,29.45 C49.6,28.5939586 50.2939586,27.9 51.15,27.9 L77.5,27.9 L77.5,35.65 C77.5,38.2181241 79.5818759,40.3 82.15,40.3 L89.9,40.3 L89.9,82.15 C89.9,83.0060414 89.2060414,83.7 88.35,83.7 Z" id="Shape" fill="#262626"></path>
                            <polygon id="Path" fill="#E2292F" points="55.8 40.3 68.2 40.3 68.2 43.4 55.8 43.4"></polygon>
                            <polygon id="Path" fill="#E2292F" points="68.2 49.6 68.2 58.9 65.1 58.9 65.1 52.7 62 52.7 62 58.9 58.9 58.9 58.9 62 80.6 62 80.6 58.9 77.5 58.9 77.5 46.5 74.4 46.5 74.4 58.9 71.3 58.9 71.3 49.6"></polygon>
                            <polygon id="Path" fill="#E2292F" points="55.8 68.2 58.9 68.2 58.9 71.3 55.8 71.3"></polygon>
                            <polygon id="Path" fill="#E2292F" points="62 68.2 83.7 68.2 83.7 71.3 62 71.3"></polygon>
                            <polygon id="Path" fill="#E2292F" points="55.8 74.4 83.7 74.4 83.7 77.5 55.8 77.5"></polygon>
                            <path d="M42.0701,66.6655 L37.913,66.07185 C37.6320538,65.1977479 37.280063,64.348097 36.86055,63.5314 L39.3793,60.1741 C39.8419745,59.5570046 39.7805398,58.6936163 39.23515,58.14825 L34.85175,53.76485 C34.3066031,53.2203396 33.4442538,53.1589319 32.82745,53.6207 L29.4686,56.1379 C28.651738,55.7191683 27.8021091,55.367705 26.92815,55.087 L26.3345,50.9299 C26.2250049,50.1666212 25.5710925,49.6 24.8,49.6 L18.6,49.6 C17.8289075,49.6 17.1749951,50.1666212 17.0655,50.9299 L16.47185,55.087 C15.5977839,55.3674131 14.7481316,55.7188861 13.9314,56.1379 L10.57255,53.6207 C9.95574623,53.1589319 9.09339689,53.2203396 8.54825,53.76485 L4.16485,58.14825 C3.61946021,58.6936163 3.55802553,59.5570046 4.0207,60.1741 L6.53945,63.5314 C6.11993703,64.348097 5.7679462,65.1977479 5.487,66.07185 L1.3299,66.6655 C0.566621239,66.7749951 -2.7533531e-15,67.4289075 -2.7533531e-15,68.2 L-2.7533531e-15,74.4 C-2.7533531e-15,75.1710925 0.566621239,75.8250049 1.3299,75.9345 L5.487,76.52815 C5.7679462,77.4022521 6.11993703,78.251903 6.53945,79.0686 L4.0207,82.4259 C3.55802553,83.0429954 3.61946021,83.9063837 4.16485,84.45175 L8.54825,88.83515 C9.09339689,89.3796604 9.95574623,89.4410681 10.57255,88.9793 L13.9314,86.4621 C14.7481316,86.8811139 15.5977839,87.2325869 16.47185,87.513 L17.0655,91.6701 C17.1749951,92.4333788 17.8289075,93 18.6,93 L24.8,93 C25.5710925,93 26.2250049,92.4333788 26.3345,91.6701 L26.92815,87.513 C27.8021091,87.232295 28.651738,86.8808317 29.4686,86.4621 L32.82745,88.9793 C33.4442538,89.4410681 34.3066031,89.3796604 34.85175,88.83515 L39.23515,84.45175 C39.7805398,83.9063837 39.8419745,83.0429954 39.3793,82.4259 L36.86055,79.0686 C37.280063,78.251903 37.6320538,77.4022521 37.913,76.52815 L42.0701,75.9345 C42.8333788,75.8250049 43.4,75.1710925 43.4,74.4 L43.4,68.2 C43.4,67.4289075 42.8333788,66.7749951 42.0701,66.6655 L42.0701,66.6655 Z M40.3,73.05615 L36.48235,73.60175 C35.8618094,73.6906321 35.3559003,74.1445433 35.2005,74.75185 C34.8733299,76.0358879 34.3633341,77.2662464 33.68615,78.4052 C33.3659267,78.9453733 33.4032629,79.6253821 33.7807,80.12725 L36.0933,83.21175 L33.6133,85.69175 L30.52725,83.37915 C30.0253951,83.0028861 29.3462394,82.966175 28.80675,83.28615 C27.6687251,83.9633564 26.4387216,84.4723774 25.15495,84.7974 C24.5459665,84.9519396 24.0905126,85.4588156 24.00175,86.0808 L23.45615,89.9 L19.94385,89.9 L19.3998,86.08235 C19.3110374,85.4603656 18.8555835,84.9534896 18.2466,84.79895 C16.9628284,84.4739274 15.7328249,83.9649064 14.5948,83.2877 C14.0553106,82.967725 13.3761549,83.0044361 12.8743,83.3807 L9.78825,85.6933 L7.30825,83.2133 L9.6193,80.135 C9.99673707,79.6331321 10.0340733,78.9531233 9.71385,78.41295 C9.03666591,77.2739964 8.52667008,76.0436379 8.1995,74.7596 C8.04409971,74.1522933 7.53819056,73.6983821 6.91765,73.6095 L3.1,73.05615 L3.1,69.54385 L6.91765,68.99825 C7.53819056,68.9093679 8.04409971,68.4554567 8.1995,67.84815 C8.52667008,66.5641121 9.03666591,65.3337536 9.71385,64.1948 C10.0340733,63.6546267 9.99673707,62.9746179 9.6193,62.47275 L7.3067,59.38825 L9.7867,56.90825 L12.87275,59.22085 C13.3746049,59.5971139 14.0537606,59.633825 14.59325,59.31385 C15.7312749,58.6366436 16.9612784,58.1276226 18.24505,57.8026 C18.8540335,57.6480604 19.3094874,57.1411844 19.39825,56.5192 L19.94385,52.7 L23.45615,52.7 L24.0002,56.51765 C24.0889626,57.1396344 24.5444165,57.6465104 25.1534,57.80105 C26.4371716,58.1260726 27.6671751,58.6350936 28.8052,59.3123 C29.3446894,59.632275 30.0238451,59.5955639 30.5257,59.2193 L33.61175,56.9067 L36.09175,59.3867 L33.77915,62.4712 C33.4017129,62.9730679 33.3643767,63.6530767 33.6846,64.19325 C34.3617841,65.3322036 34.8717799,66.5625621 35.19895,67.8466 C35.3543503,68.4539067 35.8602594,68.9078179 36.4808,68.9967 L40.3,69.54385 L40.3,73.05615 Z" id="Shape" fill="#262626"></path>
                            <path d="M21.7,62 C16.5637518,62 12.4,66.1637518 12.4,71.3 C12.4,76.4362482 16.5637518,80.6 21.7,80.6 C26.8362482,80.6 31,76.4362482 31,71.3 C30.9948736,66.1658768 26.8341232,62.0051264 21.7,62 Z M21.7,77.5 C18.2758346,77.5 15.5,74.7241654 15.5,71.3 C15.5,67.8758346 18.2758346,65.1 21.7,65.1 C25.1241654,65.1 27.9,67.8758346 27.9,71.3 C27.9,74.7241654 25.1241654,77.5 21.7,77.5 Z" id="Shape" fill="#262626"></path>
                            <polygon id="Path" fill="#262626" points="20.15 55.8 23.25 55.8 23.25 58.9 20.15 58.9"></polygon>
                            <polygon id="Path" fill="#262626" transform="translate(11.833171, 61.420300) rotate(-45.000000) translate(-11.833171, -61.420300) " points="10.2834053 59.8705341 13.3829371 59.8705341 13.3829371 62.9700659 10.2834053 62.9700659"></polygon>
                            <polygon id="Path" fill="#262626" points="6.2 69.75 9.3 69.75 9.3 72.85 6.2 72.85"></polygon>
                            <polygon id="Path" fill="#262626" transform="translate(11.824950, 81.155979) rotate(-45.000000) translate(-11.824950, -81.155979) " points="10.2751841 79.6062129 13.3747159 79.6062129 13.3747159 82.7057447 10.2751841 82.7057447"></polygon>
                            <polygon id="Path" fill="#262626" points="20.15 83.7 23.25 83.7 23.25 86.8 20.15 86.8"></polygon>
                            <polygon id="Path" fill="#262626" transform="translate(31.557529, 81.144050) rotate(-45.000000) translate(-31.557529, -81.144050) " points="30.0077629 79.5942841 33.1072947 79.5942841 33.1072947 82.6938159 30.0077629 82.6938159"></polygon>
                            <polygon id="Path" fill="#262626" points="34.1 69.75 37.2 69.75 37.2 72.85 34.1 72.85"></polygon>
                            <polygon id="Path" fill="#262626" transform="translate(31.550250, 61.445571) rotate(-45.000000) translate(-31.550250, -61.445571) " points="30.0004841 59.8958053 33.1000159 59.8958053 33.1000159 62.9953371 30.0004841 62.9953371"></polygon>
                        </g>
                    </g>
                </g>
            </g>
        </g>
    </g>
</svg>