<?xml version="1.0" encoding="UTF-8"?>
<svg width="102px" height="97px" viewBox="0 0 102 97" version="1.1" xmlns="http://www.w3.org/2000/svg" xmlns:xlink="http://www.w3.org/1999/xlink">
    <!-- Generator: Sketch 63.1 (92452) - https://sketch.com -->
    <title>Group 23</title>
    <desc>Created with Sketch.</desc>
    <g id="Page-1" stroke="none" stroke-width="1" fill="none" fill-rule="evenodd">
        <g id="Machine_learning" transform="translate(-239.000000, -1337.000000)" fill-rule="nonzero">
            <g id="1" transform="translate(236.000000, 1333.000000)">
                <g id="Group-23">
                    <path d="M91.1564197,11.6136109 C99.3853352,19.0135469 103.368373,30.9953611 101.710459,41.111986 C100.052545,51.2286108 92.7738969,59.4394987 87.3351297,68.6032551 C81.8963625,77.7670114 78.3379125,87.9039101 70.3718371,94.614537 C62.3855432,101.325164 49.9714053,104.629793 39.9430464,101.102152 C29.894469,97.5745114 22.2316705,87.2348748 16.04482,76.1653815 C9.83775111,65.0958881 5.1470671,53.3370857 6.23886424,41.8215689 C7.35087985,30.306052 14.2858135,19.0338207 23.8693662,11.8771703 C33.4529189,4.72051986 45.7255275,1.67945027 58.07901,1.53753369 C70.4527109,1.4158909 82.9275042,4.21367493 91.1564197,11.6136109 Z" id="Path" fill="#FFCCCD" opacity="0.300000012" transform="translate(54.080465, 52.033747) rotate(-94.000000) translate(-54.080465, -52.033747) "></path>
                    <g id="vision" transform="translate(7.000000, 5.000000)">
                        <path d="M93.7585375,38.3314375 C83.9674583,22.7111833 66.9959542,13.0417167 48.5664708,12.5832708 L48.5664708,-0.000195833333 L45.4331375,-0.000195833333 L45.4331375,12.5832708 C27.0036542,13.0417167 10.03215,22.7111833 0.241070833,38.3314375 C-0.0802916667,38.8417792 -0.0802916667,39.4911625 0.241070833,40.0015042 C10.03215,55.6217583 27.0036542,65.291225 45.4331375,65.7496708 L45.4331375,78.3331375 L48.5664708,78.3331375 L48.5664708,65.7496708 C66.9959542,65.291225 83.9674583,55.6217583 93.7585375,40.0015042 C94.0800958,39.4911625 94.0800958,38.8417792 93.7585375,38.3314375 Z M3.4292375,39.1664708 C9.82535,29.3863583 19.3373667,22.0533792 30.4229042,18.3564375 C24.514025,23.0619208 20.8864083,30.0590458 20.4463708,37.5998042 L7.8331375,37.5998042 L7.8331375,40.7331375 L20.4463708,40.7331375 C20.8864083,48.2738958 24.514025,55.2710208 30.4229042,59.9765042 C19.3373667,56.2795625 9.82535,48.9465833 3.4292375,39.1664708 Z M45.4331375,53.2664708 L45.4331375,62.5865708 C33.709575,61.7903125 24.3759625,52.4567 23.5797042,40.7331375 L32.8998042,40.7331375 L32.8998042,37.5998042 L23.5797042,37.5998042 C24.3759625,25.8762417 33.709575,16.5426292 45.4331375,15.7463708 L45.4331375,25.0664708 L48.5664708,25.0664708 L48.5664708,15.7463708 C60.2900333,16.5426292 69.6236458,25.8760458 70.4199042,37.5998042 L61.0998042,37.5998042 L61.0998042,40.7331375 L70.4199042,40.7331375 C69.6236458,52.4567 60.2900333,61.7903125 48.5664708,62.5865708 L48.5664708,53.2664708 L45.4331375,53.2664708 Z M90.5703708,39.1664708 C84.1742583,48.9465833 74.6622417,56.2795625 63.5767042,59.9765042 C69.4855833,55.2710208 73.1132,48.2738958 73.5532375,40.7331375 L86.1664708,40.7331375 L86.1664708,37.5998042 L73.5532375,37.5998042 C73.1132,30.0590458 69.4855833,23.061725 63.5767042,18.3564375 C74.6624375,22.053575 84.1742583,29.3863583 90.5703708,39.1664708 L90.5703708,39.1664708 Z" id="Shape" fill="#E2292F"></path>
                        <path d="M46.9998042,27.9998042 C50.0833994,27.9998042 52.875066,29.2496733 54.8958339,31.2704411 C56.9166017,33.291209 58.1664708,36.0828756 58.1664708,39.1664708 C58.1664708,42.2500661 56.9166017,45.0417327 54.8958339,47.0625005 C52.875066,49.0832684 50.0833994,50.3331375 46.9995777,50.3331374 C43.9175406,50.3296479 41.1276749,49.0790572 39.1074464,47.0588286 C37.0872178,45.0386001 35.8366271,42.2487344 35.8331375,39.1664708 C35.8331375,36.0828756 37.0830066,33.291209 39.1037745,31.2704411 C41.1245423,29.2496733 43.9162089,27.9998042 46.9998042,27.9998042 Z M46.9998042,31.5331375 C44.8931746,31.5356183 42.9860237,32.3905794 41.6049682,33.7716349 C40.2239128,35.1526904 39.3689516,37.0598413 39.3664707,39.1667063 C39.3664708,41.2743204 40.2208803,43.1826532 41.602251,44.564024 C42.9836218,45.9453947 44.8919546,46.7998042 46.9998042,46.7998042 C49.1077252,46.7998042 51.0160392,45.9454154 52.3973826,44.5640721 C53.7787574,43.1826973 54.6331375,41.2743444 54.6331375,39.1664708 C54.6331375,37.0586213 53.778728,35.1502885 52.3973573,33.7689177 C51.0159865,32.387547 49.1076538,31.5331375 46.9998042,31.5331375 Z" id="Shape" stroke="#E2292F" stroke-width="0.4" fill="#E2292F"></path>
                        <path d="M9.39980417,-0.000195833333 C8.5346125,-0.000195833333 7.8331375,0.701279167 7.8331375,1.56647083 L7.8331375,14.0998042 L10.9664708,14.0998042 L10.9664708,3.1331375 L21.9331375,3.1331375 L21.9331375,-0.000195833333 L9.39980417,-0.000195833333 Z" id="Path" stroke="#262626" stroke-width="0.2" fill="#262626"></path>
                        <path d="M84.5998042,-0.000195833333 L72.0664708,-0.000195833333 L72.0664708,3.1331375 L83.0331375,3.1331375 L83.0331375,14.0998042 L86.1664708,14.0998042 L86.1664708,1.56647083 C86.1664708,0.701279167 85.4649958,-0.000195833333 84.5998042,-0.000195833333 Z" id="Path" stroke="#262626" stroke-width="0.2" fill="#262626"></path>
                        <path d="M83.0331375,64.2331375 L83.0331375,75.1998042 L72.0664708,75.1998042 L72.0664708,78.3331375 L84.5998042,78.3331375 C85.4649958,78.3331375 86.1664708,77.6316625 86.1664708,76.7664708 L86.1664708,64.2331375 L83.0331375,64.2331375 Z" id="Path" stroke="#262626" stroke-width="0.2" fill="#262626"></path>
                        <path d="M10.9664708,75.1998042 L10.9664708,64.2331375 L7.8331375,64.2331375 L7.8331375,76.7664708 C7.8331375,77.6316625 8.5346125,78.3331375 9.39980417,78.3331375 L21.9331375,78.3331375 L21.9331375,75.1998042 L10.9664708,75.1998042 Z" id="Path" stroke="#262626" stroke-width="0.2" fill="#262626"></path>
                    </g>
                </g>
            </g>
        </g>
    </g>
</svg>