<?xml version="1.0" encoding="UTF-8"?>
<svg width="102px" height="106px" viewBox="0 0 102 106" version="1.1" xmlns="http://www.w3.org/2000/svg" xmlns:xlink="http://www.w3.org/1999/xlink">
    <!-- Generator: Sketch 63.1 (92452) - https://sketch.com -->
    <title>Group 23</title>
    <desc>Created with Sketch.</desc>
    <g id="Page-1" stroke="none" stroke-width="1" fill="none" fill-rule="evenodd">
        <g id="Machine_learning" transform="translate(-927.000000, -6862.000000)" fill-rule="nonzero">
            <g id="1" transform="translate(238.000000, 5869.000000)">
                <g id="Group-6" transform="translate(686.000000, 992.000000)">
                    <g id="Group-23">
                        <path d="M91.2409106,11.761837 C99.4909007,19.1632467 103.485554,31.1458732 101.82535,41.2623379 C100.165146,51.3788026 92.8703434,59.5885608 87.4200153,68.7515088 C81.9696873,77.9144567 78.4043711,88.0508752 70.4202319,94.760239 C62.4158255,101.469599 49.9723322,104.772176 39.9192153,101.242804 C29.8458313,97.7134282 22.162827,87.3723787 15.959204,76.3017125 C9.73531389,65.231043 5.0313463,53.4713117 6.1238339,41.9558431 C7.23658869,30.4403779 14.186333,19.1691823 23.7917717,12.0140623 C33.3972104,4.85894227 45.6988778,1.81990467 58.0821023,1.68006786 C70.4855975,1.56050849 82.9909205,4.36042736 91.2409106,11.761837 Z" id="Path" fill="#FFCCCD" opacity="0.300000012" transform="translate(54.080545, 52.176151) rotate(-94.000000) translate(-54.080545, -52.176151) "></path>
                        <g id="contract" transform="translate(3.000000, 1.000000)">
                            <path d="M63.2756053,28.4069649 L12.7322588,28.4069649 C11.8747149,28.4069649 11.1796096,29.1020702 11.1796096,29.959614 C11.1796096,30.8171579 11.8747149,31.5122632 12.7322588,31.5122632 L63.2758114,31.5122632 C64.1333553,31.5122632 64.8284605,30.8171579 64.8284605,29.959614 C64.8284605,29.1020702 64.1331491,28.4069649 63.2756053,28.4069649 Z" id="Path" fill="#262626"></path>
                            <path d="M12.7322588,20.7420482 L38.0038289,20.7420482 C38.8613728,20.7420482 39.5564781,20.046943 39.5564781,19.1893991 C39.5564781,18.3318553 38.8613728,17.63675 38.0038289,17.63675 L12.7322588,17.63675 C11.8747149,17.63675 11.1796096,18.3318553 11.1796096,19.1893991 C11.1796096,20.0471491 11.8747149,20.7420482 12.7322588,20.7420482 Z" id="Path" fill="#262626"></path>
                            <path d="M63.2756053,37.949614 L12.7322588,37.949614 C11.8747149,37.949614 11.1796096,38.6447193 11.1796096,39.5022632 C11.1796096,40.359807 11.8747149,41.0549123 12.7322588,41.0549123 L63.2758114,41.0549123 C64.1333553,41.0549123 64.8284605,40.359807 64.8284605,39.5022632 C64.8284605,38.6447193 64.1331491,37.949614 63.2756053,37.949614 Z" id="Path" fill="#262626"></path>
                            <path d="M24.2458158,94.7561228 L8.07060088,94.7561228 C5.4157193,94.7561228 3.25557456,92.5961842 3.25557456,89.9413026 L3.25557456,7.92011842 C3.25557456,5.26523684 5.4157193,3.10509211 8.07060088,3.10509211 L54.669864,3.10509211 C54.8203465,3.10509211 54.9685614,3.11890351 55.1151272,3.13869298 L55.1151272,12.8219298 C55.1151272,17.1892193 58.6681623,20.7420482 63.0352456,20.7420482 L72.7182763,20.7420482 C72.7382719,20.8888202 72.7518772,21.0370351 72.7518772,21.1875175 L72.7518772,47.6272851 C72.7518772,48.4848289 73.4469825,49.1799342 74.3045263,49.1799342 C75.1620702,49.1799342 75.8571754,48.4848289 75.8571754,47.6272851 L75.8571754,21.1877237 C75.8571754,19.4845921 75.1938158,17.8832939 73.9895439,16.6788158 L59.1783596,1.86763158 C57.9740877,0.663359649 56.3729956,1.17177223e-14 54.669864,1.17177223e-14 L8.07060088,1.17177223e-14 C3.7033114,1.17177223e-14 0.150482456,3.55303509 0.150482456,7.92011842 L0.150482456,89.9413026 C0.150482456,94.308386 3.70351754,97.8612149 8.07060088,97.8612149 L24.2458158,97.8612149 C25.1033596,97.8612149 25.7984649,97.1661096 25.7984649,96.3085658 C25.7984649,95.4510219 25.1033596,94.7561228 24.2458158,94.7561228 Z M70.5562763,17.6369561 L63.0354518,17.6369561 C60.3805702,17.6369561 58.2204254,15.4768114 58.2204254,12.8219298 L58.2204254,5.30110526 L70.5562763,17.6369561 Z" id="Shape" fill="#E2292F"></path>
                            <path d="M93.3729211,76.0099254 L80.2174561,53.8044868 C79.2586974,52.1854605 77.1721447,51.6503202 75.5522939,52.6099035 L72.3523772,54.5057763 C69.8685921,55.9772061 68.8187193,58.9549035 69.6715219,61.5937061 C68.5934079,61.9843421 67.4113991,61.9781579 66.3229781,61.5574254 C63.7965219,60.7625482 61.8757061,59.1635175 58.7034123,59.9658158 C53.3169649,61.3372675 53.4806404,61.2686228 52.9933246,61.4355965 C49.8393772,59.6399079 47.9435044,59.1055921 44.5953728,60.4007719 L41.6108728,61.5545395 C40.229114,62.088443 38.7065614,61.9618728 37.4297281,61.2053377 L36.6152675,60.7252368 C37.0127061,58.3439035 35.9566491,55.8308465 33.7204386,54.5061886 C33.7204386,54.5061886 33.7204386,54.5061886 33.7202325,54.5059825 L30.5205219,52.6103158 C28.9052061,51.6536184 26.8124693,52.1891711 25.8555658,53.8044868 L12.6996886,76.0101316 C11.7409298,77.6287456 12.2744211,79.7159167 13.8938596,80.6750877 L17.0935702,82.5707544 C18.0618114,83.144443 19.1259079,83.4171667 20.1772237,83.4171667 C21.3495439,83.4171667 22.5053728,83.0774474 23.4936096,82.4375877 L24.1604737,82.8311096 L22.7525351,84.7921228 C21.0747588,87.1293421 21.6078377,90.3793509 23.9454693,92.0573333 C25.0264693,92.8332456 26.3845219,93.1876009 27.7889561,92.9670307 C28.0117939,94.2696316 28.7254518,95.4887456 29.8810746,96.3186667 C30.9664035,97.0978772 32.3182719,97.4526447 33.7251798,97.2310439 C33.948636,98.532614 34.6618816,99.7506974 35.816886,100.58 C37.3691228,101.694189 39.2990088,101.823026 40.9071096,101.136167 C41.2589912,102.050193 41.8706096,102.875579 42.7238246,103.488228 C44.9517895,105.087259 48.020807,104.670237 49.7519737,102.598526 L53.4934211,104.814947 C55.9677237,106.281224 59.1602193,105.466351 60.6273202,102.989162 C61.0024956,102.355899 61.2352281,101.665741 61.320364,100.956412 L61.3288158,100.961566 C63.7994079,102.42475 66.9991184,101.605548 68.4627149,99.1355746 C68.8865395,98.4200614 69.1188596,97.643943 69.1753421,96.8661754 C71.3530088,97.4136842 73.7263026,96.4990395 74.9281009,94.4706184 C75.3224474,93.8051974 75.551057,93.086386 75.6262982,92.3630395 C77.9602193,93.2789211 80.6880746,92.3937544 82.006136,90.1690877 C82.7150526,88.972443 82.9156272,87.5715132 82.5707544,86.2239737 C82.3734781,85.4530088 82.0106711,84.7531623 81.512636,84.1621579 L83.574864,82.9572675 C85.3194298,83.6733991 87.3103333,83.5587851 88.9788333,82.5705482 L92.1781316,80.6748816 C93.7975702,79.7163289 94.3325044,77.6295702 93.3729211,76.0099254 L93.3729211,76.0099254 Z M18.6763158,79.8993816 L15.4766053,78.0035088 C15.3343684,77.9191974 15.2871623,77.7349079 15.3712675,77.5926711 L28.5271447,55.386614 C28.6118684,55.2437588 28.7967763,55.1973772 28.9381886,55.2814825 L32.137693,57.176943 C33.559443,58.0194386 34.0042939,59.8429561 33.1772588,61.2387325 L22.7381053,78.8596096 C21.904886,80.2663114 20.0830175,80.7323947 18.6763158,79.8993816 L18.6763158,79.8993816 Z M25.7562061,89.5347939 C24.8133202,88.8578289 24.5976974,87.546364 25.2750746,86.6030658 L27.3445175,83.7203991 C28.0037544,82.8020439 29.3174868,82.5507588 30.2762456,83.2390614 C31.2172763,83.9145833 31.4331053,85.2295526 30.7577895,86.1705833 L28.6881404,89.05325 C28.0126184,89.994693 26.6968246,90.2099035 25.7562061,89.5347939 L25.7562061,89.5347939 Z M31.6920175,93.7963333 C30.7509868,93.1206053 30.5351579,91.8052237 31.2106798,90.8643991 L33.2801228,87.9819386 C33.2801228,87.9819386 33.2801228,87.9819386 33.2801228,87.9817325 C33.2801228,87.9817325 33.2801228,87.9815263 33.2803289,87.9815263 L35.5641579,84.8003684 C35.8915088,84.3445921 36.376557,84.0432149 36.93025,83.9525132 C37.0452763,83.9335482 37.1605088,83.9242719 37.2749167,83.9242719 C37.7106974,83.9242719 38.1347281,84.0599123 38.495886,84.3190307 C38.9514561,84.6463816 39.2528333,85.1312237 39.3435351,85.6849167 C39.434443,86.2388158 39.3043684,86.7947763 38.9770175,87.2505526 L34.6235395,93.3147895 C33.9469868,94.2578816 32.6353158,94.4737105 31.6920175,93.7963333 L31.6920175,93.7963333 Z M37.6278289,98.0574605 C36.6872105,97.3821447 36.4711754,96.0677939 37.1454605,95.1269693 C37.1456667,95.126557 37.1460789,95.1261447 37.1462851,95.1257325 L41.4997632,89.0617018 C42.1748728,88.1208772 43.4908728,87.9048421 44.4314912,88.5801579 C45.3725219,89.2556798 45.5883509,90.5708553 44.9128289,91.511886 L42.978614,94.2063465 C42.978614,94.2063465 42.978614,94.2063465 42.9784079,94.2065526 L40.5593509,97.5761228 C39.8838289,98.5171535 38.5690658,98.7333947 37.6278289,98.0574605 L37.6278289,98.0574605 Z M44.5347675,100.965689 C43.5943553,100.290373 43.378114,98.9766404 44.0519868,98.0356096 L45.5009474,96.0174956 C46.1762632,95.0762588 47.492057,94.8610482 48.4326754,95.5361579 C49.3735,96.2114737 49.5895351,97.5268553 48.9140132,98.467886 L47.4662895,100.484145 C46.7909737,101.425382 45.475386,101.641417 44.5347675,100.965689 L44.5347675,100.965689 Z M79.3351754,88.5865482 C78.7443772,89.5836491 77.453114,89.9142982 76.455807,89.3237061 C74.7671053,88.323307 63.8738246,81.8696711 62.7124298,81.1815746 C61.9744474,80.744557 61.0222851,80.9880088 60.5852675,81.7257851 C60.14825,82.4635614 60.3917018,83.4159298 61.1294781,83.8529474 L71.5195702,90.0085044 L71.5197763,90.0087105 C72.5172895,90.5995088 72.85,91.8868553 72.2569342,92.8882851 C71.6659298,93.8857982 70.3740482,94.2158289 69.3771535,93.6256491 C65.5342851,91.3490351 62.4139386,89.5003684 58.9814956,87.4667939 C58.243307,87.0297763 57.2913509,87.2732281 56.8543333,88.0110044 C56.4173158,88.7487807 56.6607675,89.7011491 57.3985439,90.1381667 L65.0541842,94.6736667 L65.0558333,94.6746974 C66.0539649,95.2673509 66.3833772,96.5540789 65.7915482,97.5534474 C65.2005439,98.5509605 63.9090746,98.8814035 62.9115614,98.2906053 L58.8029781,95.8567061 C58.8025658,95.8565 58.8019474,95.8562939 58.8015351,95.8558816 C58.8011228,95.8556754 58.8007105,95.8554693 58.8002982,95.8552632 L55.8019868,94.0787456 C55.0640044,93.6415219 54.1118421,93.8849737 53.6748246,94.6229561 C53.237807,95.3607325 53.4812588,96.3131009 54.2190351,96.7501184 L57.2179649,98.5268421 C57.2183772,98.5270482 57.2187895,98.5274605 57.2192018,98.5276667 C58.2167149,99.1184649 58.5494254,100.405605 57.9563596,101.407035 C57.3653553,102.404548 56.073886,102.734991 55.0763728,102.144193 L51.5779649,100.071864 C53.077636,97.7577325 52.5072456,94.6392412 50.2436184,93.014443 C49.5788158,92.5374342 48.8385658,92.240386 48.0814123,92.1127851 C48.8845351,89.9654211 48.1921096,87.4583421 46.2422281,86.0586491 C45.0878421,85.2295526 43.7056711,84.9432237 42.4012149,85.1477149 C42.1691009,83.7902807 41.4267895,82.6012632 40.3068289,81.7975219 C38.2004868,80.2858947 35.3380219,80.5763465 33.5699561,82.3650263 C33.2106535,81.7340307 32.7146798,81.1679693 32.0871886,80.7175526 C30.3368509,79.4613333 28.0643596,79.4495833 26.3315439,80.5077018 L25.6201535,80.0877939 L35.3850219,63.6050175 L35.8498684,63.8791842 C37.9030263,65.0954123 40.4084561,65.3489649 42.7304211,64.4510175 L45.7149211,63.29725 C47.4227939,62.6371886 48.3646491,62.5941053 50.0539693,63.39125 C48.9486447,64.6330395 48.2925,66.2634035 48.2925,68.0205439 L48.2925,74.9046009 C48.2925,76.7330658 49.7789781,78.2216053 51.606,78.2228421 L51.6105351,78.2228421 C53.4431228,78.2228421 55.1664561,77.5093904 56.4628728,76.2137982 C57.2185833,75.4585 57.7763991,74.5580789 58.1107588,73.5752018 C60.1154737,74.762364 76.6782325,84.5703158 78.5984298,85.7080044 C79.0814167,85.9941272 79.4240219,86.4511404 79.5631667,86.9949386 C79.7023114,87.5381184 79.6212982,88.1035614 79.3351754,88.5865482 L79.3351754,88.5865482 Z M90.5962105,78.0035088 L87.3962939,79.8993816 C85.9895921,80.7321886 84.1677237,80.265693 83.3349167,78.8598158 L78.4419693,70.6008026 C78.0047456,69.8630263 77.0519649,69.6195746 76.314807,70.0561798 C75.5770307,70.4931974 75.3333728,71.4455658 75.7701842,72.1833421 L80.6631316,80.4425614 C80.7552763,80.5979912 80.8552544,80.7457939 80.9587368,80.889886 L79.5984167,81.684557 C79.3234254,81.8474079 79.0589474,82.02675 78.8060132,82.2215526 L57.713114,69.7304781 C56.6797325,69.1188596 55.3695044,69.8644693 55.3695044,71.0662675 C55.3532193,71.1590307 55.5298816,72.7549693 54.2676842,74.0167544 C53.5577368,74.7260833 52.6140263,75.1169254 51.6103289,75.1169254 C51.6095044,75.1169254 51.6086798,75.1169254 51.6078553,75.1169254 C51.4917982,75.1169254 51.397386,75.0212763 51.397386,74.9037763 L51.397386,68.0197193 C51.397386,66.2213509 52.6346404,64.7041579 54.3078816,64.2805395 L59.4646886,62.9754649 C61.3358246,62.5025789 62.3935307,63.5017412 65.1951842,64.4499868 C67.1401184,65.2023991 69.2549123,65.1560175 71.1320263,64.3543377 L72.0691404,65.9362588 C72.506364,66.6744474 73.4587325,66.917693 74.1963026,66.4808816 C74.9340789,66.043864 75.1777368,65.0914956 74.7409254,64.3537193 L72.8951447,61.2383202 C72.0600702,59.8287325 72.5253289,58.0122237 73.9347105,57.1767368 L77.1344211,55.2812763 C77.2741842,55.1982018 77.4590921,55.2406667 77.5456711,55.386614 L90.701136,77.5922588 C90.7860658,77.7355263 90.7392719,77.9187851 90.5962105,78.0035088 L90.5962105,78.0035088 Z" id="Shape" fill="#262626"></path>
                        </g>
                    </g>
                </g>
            </g>
        </g>
    </g>
</svg>