<?xml version="1.0" encoding="UTF-8"?>
<svg width="104px" height="97px" viewBox="0 0 104 97" version="1.1" xmlns="http://www.w3.org/2000/svg" xmlns:xlink="http://www.w3.org/1999/xlink">
    <!-- Generator: Sketch 63.1 (92452) - https://sketch.com -->
    <title>Group 23</title>
    <desc>Created with Sketch.</desc>
    <g id="Page-1" stroke="none" stroke-width="1" fill="none" fill-rule="evenodd">
        <g id="Machine_learning" transform="translate(-239.000000, -523.000000)" fill-rule="nonzero">
            <g id="1" transform="translate(236.000000, 519.000000)">
                <g id="Group-23">
                    <path d="M91.1564197,11.6136109 C99.3853352,19.0135469 103.368373,30.9953611 101.710459,41.111986 C100.052545,51.2286108 92.7738969,59.4394987 87.3351297,68.6032551 C81.8963625,77.7670114 78.3379125,87.9039101 70.3718371,94.614537 C62.3855432,101.325164 49.9714053,104.629793 39.9430464,101.102152 C29.894469,97.5745114 22.2316705,87.2348748 16.04482,76.1653815 C9.83775111,65.0958881 5.1470671,53.3370857 6.23886424,41.8215689 C7.35087985,30.306052 14.2858135,19.0338207 23.8693662,11.8771703 C33.4529189,4.72051986 45.7255275,1.67945027 58.07901,1.53753369 C70.4527109,1.4158909 82.9275042,4.21367493 91.1564197,11.6136109 Z" id="Path" fill="#FFCCCD" opacity="0.300000012" transform="translate(54.080465, 52.033747) rotate(-94.000000) translate(-54.080465, -52.033747) "></path>
                    <g id="brain-(1)" transform="translate(13.000000, 4.000000)">
                        <path d="M86.4319613,43.9097362 L77.2898235,23.6512812 C74.041919,16.4540743 66.8411269,11.8035627 58.9449752,11.8035627 L54.7465888,11.8035627 C52.1013921,11.8035627 49.7607573,13.1265384 48.3468281,15.1441189 C46.9330877,13.1265384 44.5922641,11.8035627 41.9470675,11.8035627 L37.7488698,11.8035627 C29.8527181,11.8035627 22.6519259,16.4540743 19.4040215,23.6512812 L10.262261,43.9097362 C7.52063868,49.9845555 7.48931448,56.966833 10.1765912,63.0661833 C10.4913428,63.7870173 11.3412477,64.1008254 12.0375507,63.7889043 C12.7510254,63.4745301 13.0744572,62.6414196 12.7602717,61.9279448 C12.1126533,60.4581605 11.6458095,58.9296905 11.3569098,57.3755572 L13.7358507,57.6327553 C14.7272805,57.741824 15.7228618,57.3936724 16.4306755,56.6752915 L19.096063,53.9829199 L20.1065516,56.942302 C20.5926428,58.3811396 22.0150634,59.2940702 23.5069257,59.1599045 L28.5401209,58.7258945 C29.3168101,58.6587173 29.8923451,57.9748685 29.8253566,57.1979905 C29.7583681,56.4211126 29.0737645,55.8476533 28.2976414,55.9127548 L23.2646348,56.3467648 C23.0495168,56.3660122 22.8489287,56.2350544 22.7787323,56.0299375 L19.5208268,46.4888879 C19.4711987,46.3435889 19.4091164,46.2041396 19.3402409,46.0682756 L21.2985695,39.284133 C21.5148197,38.534994 21.0828854,37.7526438 20.3337464,37.5362049 C19.58423,37.3203321 18.8020684,37.7520777 18.5860069,38.501028 L16.9856422,44.0454115 L14.0989095,42.272575 L18.520528,32.4743273 L23.5418352,32.738696 C23.7661995,32.7505841 23.9518803,32.9206028 23.9832045,33.1434575 L24.714417,38.351955 C24.9053814,39.7138029 25.937193,40.8241138 27.2818692,41.1141457 L32.001445,42.1321822 C32.1667463,42.1678465 32.3326136,42.1859617 32.4981035,42.1957741 L34.7632583,46.9147838 C35.1017861,47.6250506 35.9594276,47.9109311 36.6468618,47.5767434 C37.3497693,47.2393478 37.6460283,46.3958588 37.3086327,45.69314 L35.1225431,41.1386767 C35.205005,41.0488555 35.2833155,40.9543168 35.3563424,40.8544945 L37.257495,38.2510005 C37.3539207,38.1190992 37.5158253,38.0460723 37.6773525,38.05947 L39.9396768,38.2521327 C40.7165548,38.3191212 41.3998375,37.7420766 41.4660712,36.9653874 C41.5321162,36.1883207 40.9560151,35.5052267 40.1791371,35.438993 L37.9166241,35.2463303 C36.778197,35.1474515 35.6514692,35.6627912 34.9772441,36.5859117 L33.0760916,39.1894056 C32.9664569,39.3396108 32.7781343,39.4109394 32.5967936,39.3720672 L27.8774065,38.3540307 C27.6853098,38.3125167 27.5377464,38.1540087 27.5105736,37.9592703 L26.7793611,32.7505841 C26.5606578,31.1926768 25.261647,30.0017911 23.6905308,29.9191405 L19.7670803,29.7127027 L21.9782669,24.8129184 C22.7483516,23.1065042 23.7778989,21.5678444 25.0061472,20.2324145 L31.5383752,24.8829261 L30.5567578,30.6807337 C30.4265548,31.4494975 30.9443476,32.1780683 31.7131114,32.3082713 C32.4641375,32.4411161 33.2140313,31.9250215 33.340649,31.1521063 L34.344533,25.2235296 L37.5560184,23.7741249 C38.7338838,23.2425569 39.4949109,22.0639367 39.4949109,20.7717191 L39.4949109,18.105388 C39.4949109,17.3256796 38.8629546,16.6937233 38.0832462,16.6937233 C37.3035378,16.6937233 36.6715815,17.3256796 36.6715815,18.105388 L36.6715815,20.7717191 C36.6715815,20.9564564 36.5628903,21.1247768 36.3945699,21.2008229 L33.2364866,22.626074 L27.1307205,18.2791807 C30.1123693,15.9619447 33.8307029,14.6272695 37.750002,14.6272695 L41.9481997,14.6272695 C44.6986909,14.6272695 46.9362956,16.8648742 46.9362956,19.6153655 L46.9362956,22.748729 C46.9362956,23.5284375 47.5682519,24.1603938 48.3479603,24.1603938 C49.1276687,24.1603938 49.7596251,23.5284375 49.7596251,22.748729 L49.7596251,19.6153655 C49.7596251,16.8648742 51.9972297,14.6272695 54.747721,14.6272695 L58.9461074,14.6272695 C65.73459,14.6272695 71.9252711,18.6254452 74.717465,24.8131071 L83.8596029,45.0715622 C84.3955109,46.2590513 84.8129153,47.4859787 85.1133257,48.7347953 L82.5032272,51.8794809 C82.4224636,51.9766614 82.3041487,52.0381776 82.1779084,52.0478013 L76.0893141,52.5238914 C75.3118701,52.5846528 74.7310514,53.2641615 74.7920016,54.0414169 C74.8497438,54.7813096 75.4681137,55.3430695 76.1978166,55.3430695 C76.2348018,55.3430695 76.2719757,55.3417486 76.3093383,55.3389181 L82.3975552,54.862828 C83.2801051,54.7941412 84.1105739,54.3637165 84.6759191,53.6825095 L85.6594235,52.4976621 C85.8273665,55.7008447 85.2535298,58.9355402 83.9350829,61.9285109 L78.5226006,74.2143908 L75.3326271,68.9700403 L74.4206399,62.5863192 C74.3102504,61.8145361 73.5939452,61.2797603 72.8234831,61.3884515 C72.0517001,61.4986523 71.5154147,62.2138254 71.6256155,62.9856084 L72.3804155,68.2690198 L66.7458334,69.117415 C65.9749938,69.2334655 65.443992,69.9524125 65.5600425,70.7234408 C65.676093,71.494469 66.3946627,72.026603 67.166257,71.9092316 L73.2578705,70.9921496 L77.1186726,77.3396403 C75.7815444,80.0254075 73.8611444,82.4139721 71.5188113,84.2875745 C70.9098764,84.7744205 70.8111863,85.6628201 71.298221,86.271755 C71.5771196,86.6204726 71.9873534,86.8016246 72.4015499,86.8016246 C72.7108292,86.8016246 73.0221842,86.7004814 73.2824015,86.4923453 C76.2287634,84.1358597 78.5905326,81.0638236 80.1125869,77.6089152 L86.518952,63.0671268 C89.2047192,56.9670217 89.1735837,49.9849329 86.4319613,43.9097362 Z M16.6493788,47.1521684 C16.7425966,47.2093445 16.8133591,47.2978448 16.848646,47.4012524 L18.077083,50.9990067 L14.4242283,54.6890353 C14.3230851,54.7914994 14.1826923,54.842071 14.0392803,54.8256541 L11.0274396,54.5001466 C10.8857259,51.2911143 11.4884337,48.0566075 12.8357517,45.0711848 L12.928026,44.866634 L16.6493788,47.1521684 Z" id="Shape" fill="#E2292F"></path>
                        <path d="M66.6448789,87.1901579 C64.083465,88.2731073 61.3726007,88.822413 58.5877661,88.822413 C53.7194947,88.822413 49.7588703,84.8617886 49.7588703,79.9933285 L49.7588703,34.1145077 L56.2729831,31.5978157 C56.8170052,31.3876039 57.1759126,30.8643388 57.1759126,30.2808784 L57.1759126,24.0411354 C57.1759126,23.9054601 57.2344096,23.7763893 57.336685,23.6871342 L61.7760413,19.8027446 C62.3627097,19.2892919 62.4221502,18.3974956 61.9088861,17.8108273 C61.3954334,17.2239703 60.5036372,17.1647185 59.9167802,17.6779825 L55.4776126,21.5621834 C54.7626283,22.1877239 54.3525832,23.0912195 54.3525832,24.0413241 L54.3525832,29.3132248 L49.759059,31.0879483 L49.759059,29.3643625 C49.759059,28.5846541 49.1269139,27.9526978 48.3473942,27.9526978 C47.5676858,27.9526978 46.9357295,28.5846541 46.9357295,29.3643625 L46.9357295,51.8034348 L38.0996631,53.7417613 C37.9911606,53.7659149 37.8773745,53.7504415 37.7794392,53.698549 L31.4710093,50.3730888 C30.7813108,50.0098413 29.9274433,50.2740213 29.5638184,50.9637198 C29.2001935,51.6534183 29.4645622,52.5072858 30.1542607,52.870722 L36.463068,56.1963709 C37.1506908,56.5588636 37.9487031,56.6656678 38.7046353,56.4996118 L46.9357295,54.6939415 L46.9357295,79.9935172 C46.9357295,84.8617886 42.9751051,88.8226017 38.1068337,88.8226017 C29.9070637,88.8226017 22.4728496,83.9739551 19.1668255,76.4701107 L16.9962094,71.5433423 L19.9082279,71.0655539 C20.1059855,71.0330975 20.3026109,71.1295232 20.3980931,71.3053916 L22.9362968,75.9870387 C23.3097341,76.6791903 24.1779429,76.9231794 24.8500923,76.5554031 C25.5354507,76.1836641 25.7898183,75.3267774 25.418268,74.6416076 L22.8800642,69.9597718 C22.2118775,68.7277495 20.8339901,68.0520148 19.4510078,68.2793983 L15.8206084,68.8751242 L15.259792,67.602154 C14.9456064,66.8886793 14.1119298,66.5646814 13.3988325,66.879433 C12.6851691,67.1938072 12.3617373,68.0269177 12.6761115,68.7403924 L16.5827677,77.6083491 C20.3395961,86.1360797 28.7882614,91.6461198 38.1064563,91.6461198 C42.5212816,91.6461198 46.370573,89.1779238 48.3470168,85.549034 C50.3234607,89.1779238 54.1727521,91.6461198 58.5877661,91.6461198 C61.7524538,91.6461198 64.8331701,91.0219002 67.7444338,89.7910101 C68.4624373,89.4873918 68.798512,88.6589988 68.4948937,87.9409953 C68.1912754,87.222803 67.3628824,86.8867283 66.6448789,87.1901579 L66.6448789,87.1901579 Z" id="Path" fill="#E2292F"></path>
                        <path d="M69.9786418,47.985845 C69.9786418,47.2061366 69.3466855,46.5741803 68.5669771,46.5741803 L61.1072885,46.5741803 C61.0850219,46.5741803 61.0642649,46.5641792 61.0503011,46.5466301 L55.3970377,39.39924 C54.9132109,38.7874746 54.0255661,38.6842557 53.4139894,39.1677051 C52.8026013,39.6515319 52.6988163,40.5393654 53.1826431,41.1507535 L55.6334788,44.2493962 L52.7039112,46.876289 C52.12347,47.3969123 52.0749741,48.2894633 52.5954087,48.8699045 C52.8743073,49.1806935 53.2596327,49.3390128 53.6468452,49.3390128 C53.9825425,49.3390128 54.319372,49.2201318 54.5888356,48.978407 L57.3882001,46.4679422 L58.8355292,48.2977661 C59.3880428,48.9967109 60.2160584,49.3975098 61.1070998,49.3975098 L68.5667884,49.3975098 C69.3466855,49.3975098 69.9786418,48.7655534 69.9786418,47.985845 L69.9786418,47.985845 Z" id="Path" fill="#262626"></path>
                        <path d="M65.4432372,62.3428962 C66.5478871,61.7764187 67.2340003,60.6532763 67.2340003,59.411819 L67.2340003,54.9503848 C67.2340003,54.1706764 66.602044,53.5387201 65.8223355,53.5387201 C65.0426271,53.5387201 64.4106708,54.1706764 64.4106708,54.9503848 L64.4106708,59.411819 C64.4106708,59.589197 64.3125468,59.749592 64.1547936,59.8305443 L58.1199788,62.9252244 L53.8302616,57.2378062 C53.3607759,56.6156623 52.4755842,56.4911203 51.8530629,56.9609833 C51.2305416,57.4304689 51.1065657,58.315472 51.5760513,58.938182 L56.1607066,65.0167752 C56.1580648,65.0586666 56.1520264,65.0998032 56.1520264,65.1422607 L56.1520264,72.2792723 L52.3757619,72.2792723 C51.5960535,72.2792723 50.9640972,72.9112286 50.9640972,73.690937 C50.9640972,74.4706454 51.5960535,75.1026018 52.3757619,75.1026018 L56.8236097,75.1026018 L60.2671961,80.0837158 C60.5411885,80.4801745 60.981803,80.6928394 61.4297768,80.6928394 C61.7065997,80.6928394 61.9862532,80.6115097 62.2313745,80.4420571 C62.8727658,79.9986121 63.0331608,79.1194588 62.5899045,78.4782561 L58.9757333,73.2505112 L58.9757333,65.6596761 L65.4432372,62.3428962 Z" id="Path" fill="#262626"></path>
                        <path d="M71.7160028,40.2256369 C71.8814927,40.2256369 72.0500018,40.1961201 72.2141708,40.1342265 C72.943685,39.8591019 73.3118387,39.044484 73.0365254,38.3149698 L68.5490506,26.424039 C68.5441444,26.4112074 68.5390495,26.3983758 68.5337659,26.3855442 C68.2727938,25.7509461 67.6614058,25.3414671 66.9754813,25.3414671 C66.9749152,25.3414671 66.9743491,25.3414671 66.973783,25.3414671 C66.2872924,25.3422219 65.6757156,25.7532105 65.415687,26.3887521 C65.4113469,26.3993193 65.4071955,26.4098865 65.4030441,26.4206424 L60.8746214,38.3111958 C60.5972324,39.0395778 60.9627443,39.8553279 61.691315,40.1327169 C62.4196971,40.4104833 63.2354472,40.0444053 63.5130249,39.3158346 L64.2946203,37.2639108 L69.6219988,37.2639108 L70.394914,39.3120606 C70.6083338,39.8772171 71.1455627,40.2256369 71.7160028,40.2256369 L71.7160028,40.2256369 Z M65.3700216,34.4405813 L66.9705751,30.2380435 L68.5565986,34.4405813 L65.3700216,34.4405813 Z" id="Shape" fill="#262626"></path>
                        <path d="M93.2440315,91.2313572 L90.6005331,89.7051516 L93.2440315,88.178946 C93.9192001,87.7890918 94.1505463,86.9257892 93.7606921,86.2506206 C93.3706492,85.5752633 92.5073467,85.3444832 91.8323667,85.73396 L89.1890571,87.2601656 L89.1890571,84.2079431 C89.1890571,83.4282347 88.5571008,82.7962783 87.7773924,82.7962783 C86.9976839,82.7962783 86.3657276,83.4282347 86.3657276,84.2079431 L86.3657276,87.2601656 L83.7222293,85.73396 C83.0470606,85.3442945 82.1835694,85.5750746 81.7939039,86.2506206 C81.4040497,86.9257892 81.6353959,87.7890918 82.3105645,88.178946 L84.9540629,89.7051516 L82.3105645,91.2313572 C81.6353959,91.6212114 81.4040497,92.4847027 81.7939039,93.1596826 C82.0554421,93.6125626 82.5298339,93.865798 83.0178121,93.865798 C83.2572724,93.865798 83.5001294,93.8048479 83.722418,93.6765319 L86.3659163,92.1503263 L86.3659163,95.2027375 C86.3659163,95.9824459 86.9978726,96.6144023 87.7775811,96.6144023 C88.5572895,96.6144023 89.1892458,95.9824459 89.1892458,95.2027375 L89.1892458,92.1503263 L91.8325554,93.6765319 C92.0548441,93.8048479 92.297701,93.865798 92.5371613,93.865798 C93.0249508,93.865798 93.4995313,93.6127513 93.7610695,93.1596826 C94.1505463,92.4847027 93.9192001,91.6212114 93.2440315,91.2313572 L93.2440315,91.2313572 Z" id="Path" fill="#E2292F"></path>
                        <path d="M10.1111123,24.9533112 L11.5759905,26.6587818 C12.0841596,27.2507337 12.9755784,27.3180996 13.5667755,26.8099305 C14.1581613,26.3019501 14.2259046,25.4105313 13.7179242,24.8191455 L11.9016867,22.7047619 C12.863868,21.3946178 13.5169587,20.352239 13.5569631,20.288081 C13.96965,19.6268762 13.7683071,18.756403 13.1071023,18.3435274 C12.4458975,17.9306518 11.575047,18.131806 11.1619827,18.7930108 C11.154246,18.805465 10.7024982,19.525733 10.0092143,20.501312 L7.45176317,17.524192 C7.75707978,17.314735 8.03371399,17.1073537 8.28959119,16.8916696 C9.88429493,15.5477482 10.3294382,13.6698057 9.42348952,12.1073697 C8.4460235,10.4213351 6.23653515,9.68842433 4.2844336,10.4026538 C3.96911589,10.5181382 3.69889749,10.6521152 3.45811628,10.812699 C2.59594596,11.3874792 2.01399515,12.3306018 1.86152554,13.4001534 C1.71207514,14.4481932 1.99871045,15.4922704 2.65765086,16.2759415 L3.12996697,16.826002 C1.44129063,17.7900703 0.296070307,19.4679908 0.0658563015,21.3147977 C-0.151714804,23.0602727 0.454578311,24.720078 1.77321394,25.9885194 C2.70539196,26.8852218 3.85966989,27.35433 5.12528082,27.35433 C5.21132802,27.35433 5.29794132,27.3520656 5.38493203,27.3479142 C7.34043017,27.2497902 9.07043181,26.0832468 10.1111123,24.9533112 Z M4.65655001,13.7988765 C4.71844361,13.1914512 5.29303512,12.9495378 5.82724484,12.9514139 C6.34654725,12.9514139 6.79414366,13.2012636 6.98095666,13.5235632 C7.23173897,13.9558749 6.84169606,14.4196995 6.47014575,14.7325641 C6.22974195,14.9352279 5.93895524,15.1437415 5.59797433,15.3662188 L4.80901961,14.4474384 C4.67579741,14.2893078 4.62031961,14.0528667 4.65655001,13.7988765 Z M8.14561309,22.9151624 C7.36552727,23.8318671 6.19954995,24.4800516 5.24397312,24.5277927 C4.65730481,24.5574186 4.1627221,24.369096 3.73059909,23.9535786 C2.88314737,23.1383945 2.79351487,22.2584864 2.86767397,21.6638927 C2.98844197,20.6941634 3.61077458,19.8016124 4.53238541,19.2762716 C4.69466741,19.1838085 4.85166581,19.0943647 5.00394672,19.007374 L8.25222859,22.7889221 C8.21675299,22.8311909 8.18127739,22.873271 8.14561309,22.9151624 L8.14561309,22.9151624 Z" id="Shape" fill="#E2292F"></path>
                        <path d="M28.9535626,76.9299726 C29.2003822,77.3854944 29.676661,77.6691105 30.1946425,77.6691105 L38.2402446,77.6691105 C39.019953,77.6691105 39.6519093,77.0371542 39.6519093,76.2574458 C39.6519093,75.4777374 39.019953,74.8457811 38.2402446,74.8457811 L32.7994574,74.8457811 L39.2356371,64.9679019 C39.5184984,64.5338919 39.5409537,63.9798687 39.2939454,63.5245356 C39.0471258,63.0690138 38.570847,62.7853977 38.0528655,62.7853977 L30.4420282,62.7853977 C29.6623198,62.7853977 29.0303635,63.417354 29.0303635,64.1970624 C29.0303635,64.9767708 29.6623198,65.6087271 30.4420282,65.6087271 L35.4480506,65.6087271 L29.0118709,75.4866063 C28.7291983,75.9206163 28.706743,76.4746395 28.9535626,76.9299726 Z" id="Path" fill="#262626"></path>
                        <path d="M83.9554625,19.2664592 C83.1553744,19.2664592 82.5068125,19.9150211 82.5068125,20.7149204 C82.5068125,21.5150084 83.1553744,22.1635703 83.9554625,22.1635703 C84.7555505,22.1635703 85.4041124,21.5150084 85.4041124,20.7149204 C85.4039237,19.9150211 84.7553618,19.2664592 83.9554625,19.2664592 L83.9554625,19.2664592 Z" id="Path" fill="#262626"></path>
                        <path d="M79.2002224,7.57856958 C79.9799308,7.57856958 80.6118871,6.94661326 80.6118871,6.16690484 C80.6118871,6.00990644 80.622643,5.85253064 80.6443435,5.69855143 C80.8745575,4.04818119 82.2920719,2.82351817 83.9565947,2.82351817 C83.9794274,2.82351817 84.0022601,2.82370687 84.0250928,2.82408427 C85.767926,2.85918247 87.203933,4.2483919 87.2941316,5.98707374 C87.3422501,6.91510036 87.0174974,7.79614068 86.3798801,8.4679127 C85.7416967,9.14006211 84.8806586,9.51029152 83.9554625,9.51029152 C83.175754,9.51029152 82.5437977,10.1422478 82.5437977,10.9219563 L82.5437977,15.8942014 C82.5437977,16.6739098 83.175754,17.3058661 83.9554625,17.3058661 C84.7351709,17.3058661 85.3671272,16.6739098 85.3671272,15.8942014 L85.3671272,12.1679424 C86.5261226,11.8933839 87.5973726,11.2859586 88.4274639,10.4115227 C89.6034423,9.17270721 90.2023761,7.54950978 90.1136871,5.84045384 C89.947065,2.63085546 87.2977169,0.0658563015 84.0818915,0.00113220003 C84.0398114,0.000377400009 83.99792,1.34079417e-15 83.9558399,1.34079417e-15 C80.8872004,1.34079417e-15 78.2731392,2.26156955 77.8481868,5.30794242 C77.8087485,5.59061503 77.7885576,5.87951474 77.7885576,6.16690484 C77.7885576,6.94661326 78.4207026,7.57856958 79.2002224,7.57856958 Z" id="Path" fill="#262626"></path>
                        <path d="M19.0079401,2.82332947 L29.346436,2.82332947 C30.1261444,2.82332947 30.7581007,2.19137315 30.7581007,1.41166473 C30.7581007,0.631956315 30.1259557,0 29.346436,0 L19.0079401,0 C18.2282317,0 17.5962754,0.631956315 17.5962754,1.41166473 C17.5962754,2.19137315 18.2282317,2.82332947 19.0079401,2.82332947 Z" id="Path" fill="#E2292F"></path>
                        <path d="M19.0079401,8.6615189 L29.346436,8.6615189 C30.1261444,8.6615189 30.7581007,8.02956259 30.7581007,7.24985417 C30.7581007,6.47014575 30.1261444,5.83818944 29.346436,5.83818944 L19.0079401,5.83818944 C18.2282317,5.83818944 17.5962754,6.47014575 17.5962754,7.24985417 C17.5962754,8.02956259 18.2282317,8.6615189 19.0079401,8.6615189 Z" id="Path" fill="#E2292F"></path>
                        <path d="M17.9585794,88.3725522 L14.2625124,88.3725522 L14.2625124,84.6764852 C14.2625124,83.8967768 13.6305561,83.2648204 12.8508477,83.2648204 C12.0711393,83.2648204 11.439183,83.8967768 11.439183,84.6764852 L11.439183,88.3725522 L7.62027228,88.3725522 C6.84056386,88.3725522 6.20860755,89.0045085 6.20860755,89.7842169 C6.20860755,90.5639253 6.84056386,91.1958816 7.62027228,91.1958816 L11.439183,91.1958816 L11.439183,95.0147923 C11.439183,95.7945007 12.0711393,96.4264571 12.8508477,96.4264571 C13.6305561,96.4264571 14.2625124,95.7945007 14.2625124,95.0147923 L14.2625124,91.1958816 L17.9585794,91.1958816 C18.7382878,91.1958816 19.3702442,90.5639253 19.3702442,89.7842169 C19.3704329,89.0045085 18.7382878,88.3725522 17.9585794,88.3725522 Z" id="Path" fill="#262626"></path>
                    </g>
                </g>
            </g>
        </g>
    </g>
</svg>