<?xml version="1.0" encoding="UTF-8"?>
<svg width="105px" height="96px" viewBox="0 0 105 96" version="1.1" xmlns="http://www.w3.org/2000/svg" xmlns:xlink="http://www.w3.org/1999/xlink">
    <!-- Generator: Sketch 63.1 (92452) - https://sketch.com -->
    <title>Group 23</title>
    <desc>Created with Sketch.</desc>
    <g id="Page-1" stroke="none" stroke-width="1" fill="none" fill-rule="evenodd">
        <g id="Machine_learning" transform="translate(-238.000000, -6364.000000)" fill-rule="nonzero">
            <g id="1" transform="translate(238.000000, 5869.000000)">
                <g id="Group-6" transform="translate(0.000000, 490.000000)">
                    <g id="Group-23">
                        <path d="M91.1564197,11.6136109 C99.3853352,19.0135469 103.368373,30.9953611 101.710459,41.111986 C100.052545,51.2286108 92.7738969,59.4394987 87.3351297,68.6032551 C81.8963625,77.7670114 78.3379125,87.9039101 70.3718371,94.614537 C62.3855432,101.325164 49.9714053,104.629793 39.9430464,101.102152 C29.894469,97.5745114 22.2316705,87.2348748 16.04482,76.1653815 C9.83775111,65.0958881 5.1470671,53.3370857 6.23886424,41.8215689 C7.35087985,30.306052 14.2858135,19.0338207 23.8693662,11.8771703 C33.4529189,4.72051986 45.7255275,1.67945027 58.07901,1.53753369 C70.4527109,1.4158909 82.9275042,4.21367493 91.1564197,11.6136109 Z" id="Path" fill="#FFCCCD" opacity="0.300000012" transform="translate(54.080465, 52.033747) rotate(-94.000000) translate(-54.080465, -52.033747) "></path>
                        <g id="plug" transform="translate(0.000000, 8.000000)">
                            <path d="M20.1271563,71.9457969 C18.6891172,70.5077578 16.7772422,69.715875 14.7438984,69.715875 C13.5426875,69.715875 12.3847813,69.9943906 11.3409766,70.5169219 C1.083875,55.984875 1.04829688,36.0710078 11.4277656,21.5037422 C12.0034844,20.6955078 11.8151719,19.5735391 11.0069375,18.9976406 C10.1987031,18.4217422 9.07673437,18.6100547 8.50083594,19.4182891 C2.77545313,27.4537344 -0.16171875,36.9426719 0.006828125,46.8590859 C0.167289063,56.2960937 3.13033594,65.248125 8.58942188,72.8476484 C6.42023438,75.8232734 6.67700781,80.0283203 9.36064063,82.7123125 C10.8448594,84.1963516 12.7942891,84.9384609 14.7438984,84.9384609 C16.6935078,84.9384609 18.6429375,84.1963516 20.1271563,82.7123125 C23.0954141,79.743875 23.0954141,74.9142344 20.1271563,71.9457969 Z M17.5858359,80.1709922 C16.0184219,81.7380469 13.4688359,81.7380469 11.9017813,80.1709922 C10.3345469,78.6037578 10.3345469,76.0538125 11.9017813,74.4867578 C12.6609609,73.7275781 13.6702656,73.3094453 14.7437188,73.3094453 C15.8171719,73.3094453 16.8266563,73.7275781 17.5856563,74.4867578 C19.1530703,76.0539922 19.1530703,78.6039375 17.5858359,80.1709922 Z" id="Shape" fill="#E2292F"></path>
                            <path d="M73.3056719,80.8854297 C72.7251016,80.0811484 71.6020547,79.9000234 70.7972344,80.4813125 C65.6603281,84.1931172 59.8857109,86.6521406 53.6336641,87.7901016 C52.1850234,88.0538828 50.7076328,87.6655781 49.5804531,86.7250937 C48.4613594,85.7914375 47.8196953,84.4197031 47.8196953,82.9618984 L47.8196953,69.7911641 L47.9765625,69.7911641 C50.0571641,69.7911641 51.75,68.0985078 51.75,66.0177266 L51.75,62.9840625 C57.8365547,60.6607031 62.171875,54.7622813 62.171875,47.8694688 L62.171875,39.3621641 C65.0677188,38.5711797 67.203125,35.9188125 67.203125,32.7757188 C67.203125,29.3154766 64.6150859,26.45 61.2734375,26.0085078 L61.2734375,14.8069688 C61.2734375,11.8345781 58.8552031,9.41634375 55.8828125,9.41634375 C52.9104219,9.41634375 50.4921875,11.8345781 50.4921875,14.8069688 L50.4921875,25.9475938 L41.5078125,25.9475938 L41.5078125,14.8069688 C41.5078125,11.8345781 39.0895781,9.41634375 36.1171875,9.41634375 C33.1447969,9.41634375 30.7265625,11.8345781 30.7265625,14.8069688 L30.7265625,26.0085078 C27.3849141,26.45 24.796875,29.3152969 24.796875,32.7757188 C24.796875,35.9188125 26.9322813,38.5711797 29.828125,39.3621641 L29.828125,47.8694688 C29.828125,54.7622813 34.1634453,60.6607031 40.25,62.9840625 L40.25,66.0179063 C40.25,68.0986875 41.9428359,69.7913438 44.0234375,69.7913438 L44.2259453,69.7913438 L44.2259453,82.9620781 C44.2259453,85.4888438 45.3383906,87.8661094 47.2779375,89.4845547 C48.8259453,90.7761484 50.7550703,91.46525 52.7366641,91.46525 C53.2485938,91.46525 53.7639375,91.41925 54.277125,91.3258125 C61.0606875,90.091 67.3269297,87.4224609 72.9015547,83.3942266 C73.7060156,82.8129375 73.8867813,81.6897109 73.3056719,80.8854297 Z M54.0861172,14.8069688 C54.0861172,13.8161719 54.8921953,13.0100938 55.8829922,13.0100938 C56.8737891,13.0100938 57.6798672,13.8161719 57.6798672,14.8069688 L57.6798672,25.9475938 L54.0861172,25.9475938 L54.0861172,14.8069688 Z M34.3204922,14.8069688 C34.3204922,13.8161719 35.1265703,13.0100938 36.1173672,13.0100938 C37.1081641,13.0100938 37.9142422,13.8161719 37.9142422,14.8069688 L37.9142422,25.9475938 L34.3204922,25.9475938 L34.3204922,14.8069688 Z M28.3908047,32.7757188 C28.3908047,30.9923203 29.8417812,29.5413438 31.6251797,29.5413438 L60.3751797,29.5413438 C62.1585781,29.5413438 63.6095547,30.9923203 63.6095547,32.7757188 C63.6095547,34.5591172 62.1585781,36.0100938 60.3751797,36.0100938 L31.6251797,36.0100938 C29.8417812,36.0100938 28.3908047,34.5591172 28.3908047,32.7757188 Z M33.4220547,47.8694688 L33.4220547,39.6038438 L58.5783047,39.6038438 L58.5783047,47.8694688 C58.5783047,54.8050469 52.9357578,60.4475938 46.0001797,60.4475938 C39.0646016,60.4475938 33.4220547,54.8050469 33.4220547,47.8694688 Z M46.0682812,66.1975938 C46.0531875,66.1972344 46.0382734,66.1952578 46.0231797,66.1952578 C46.0080859,66.1952578 45.9931719,66.1972344 45.9780781,66.1975938 L44.0239766,66.1975938 C43.9244297,66.1975938 43.8439297,66.1169141 43.8439297,66.0179063 L43.8439297,63.8972344 C44.5495625,63.99175 45.2692109,64.0413438 46.0001797,64.0413438 C46.7311484,64.0413438 47.4507969,63.99175 48.1564297,63.8972344 L48.1564297,66.0179063 C48.1564297,66.1169141 48.0759297,66.1975938 47.9767422,66.1975938 L46.0682812,66.1975938 Z" id="Shape" fill="#E2292F"></path>
                            <path d="M78.4824688,76.0151797 C77.7703672,75.3503359 76.6607969,75.3760312 75.9797813,76.0644141 C75.9659453,76.0784297 75.9521094,76.0928047 75.9389922,76.1066406 C75.26175,76.8322188 75.3011016,77.9691016 76.0265,78.6463438 C76.3729375,78.9696016 76.8129922,79.1295234 77.2521484,79.1295234 C77.7162813,79.1295234 78.1793359,78.9507344 78.5291875,78.5971094 C78.5430234,78.5830938 78.5568594,78.5687188 78.5699766,78.5548828 C79.2472188,77.8293047 79.2078672,76.6924219 78.4824688,76.0151797 Z" id="Path" fill="#E2292F"></path>
                            <path d="M91.8779922,42.713875 C91.0774844,31.7137656 86.3360703,21.3551406 78.52775,13.5464609 C70.8529375,5.87110937 60.6006875,1.173 49.6596953,0.317867187 C38.8520312,-0.527203125 28.0957578,2.40565625 19.3686953,8.57540625 C18.5583047,9.14825 18.3658594,10.2696797 18.9387031,11.0798906 C19.5113672,11.8901016 20.6329766,12.0829062 21.4431875,11.5098828 C38.1313047,-0.287859375 61.5798047,1.67989844 75.9866094,16.0876016 C90.8749766,30.9766875 92.6752656,54.0979766 80.2669453,71.0647891 C79.6811641,71.8658359 79.8556406,72.9899609 80.6566875,73.5759219 C80.9765312,73.809875 81.3479453,73.9225391 81.716125,73.9225391 C82.2697422,73.9225391 82.8159922,73.6675625 83.168,73.1861797 C89.5770937,64.4221016 92.6705937,53.6002422 91.8779922,42.713875 Z" id="Path" fill="#E2292F"></path>
                            <path d="M15.7961484,13.7541797 C15.0912344,13.0557344 13.9534531,13.0604063 13.2548281,13.7655 L13.2255391,13.7953281 C12.5269141,14.5000625 12.532125,15.6378438 13.2368594,16.3364688 C13.58725,16.683625 14.0445547,16.8570234 14.5018594,16.8570234 C14.9641953,16.8570234 15.4267109,16.6794922 15.7781797,16.3251484 L15.8074688,16.2953203 C16.5060938,15.5905859 16.5008828,14.4528047 15.7961484,13.7541797 Z" id="Path" fill="#E2292F"></path>
                            <path d="M50.0515938,47.2040859 C49.7295938,46.6517266 49.1384219,46.3121172 48.4990938,46.3121172 L47.2150469,46.3121172 L49.5800938,43.3246328 C50.1960625,42.5465859 50.0645313,41.4163516 49.2864844,40.8005625 C48.5084375,40.1844141 47.3782031,40.316125 46.7622344,41.0939922 L42.0917969,46.9936719 C41.6641406,47.5339922 41.5831016,48.27125 41.8831797,48.8915312 C42.1832578,49.5118125 42.811625,49.9058672 43.5007266,49.9058672 L45.4161953,49.9058672 L43.2157422,53.7910703 C42.7266328,54.6546484 43.0303047,55.7511016 43.8935234,56.2400313 C44.1734766,56.3985156 44.4773281,56.4738047 44.7775859,56.4738047 C45.4041562,56.473625 46.0123984,56.1456953 46.3430234,55.5620703 L50.0627344,48.9944922 C50.3779063,48.4381797 50.3735937,47.7564453 50.0515938,47.2040859 Z" id="Path" fill="#262626"></path>
                        </g>
                    </g>
                </g>
            </g>
        </g>
    </g>
</svg>