<?xml version="1.0" encoding="UTF-8"?>
<svg width="102px" height="100px" viewBox="0 0 102 100" version="1.1" xmlns="http://www.w3.org/2000/svg" xmlns:xlink="http://www.w3.org/1999/xlink">
    <!-- Generator: Sketch 63.1 (92452) - https://sketch.com -->
    <title>Group 23</title>
    <desc>Created with Sketch.</desc>
    <g id="Page-1" stroke="none" stroke-width="1" fill="none" fill-rule="evenodd">
        <g id="Machine_learning" transform="translate(-241.000000, -6862.000000)" fill-rule="nonzero">
            <g id="1" transform="translate(238.000000, 5869.000000)">
                <g id="Group-6" transform="translate(0.000000, 992.000000)">
                    <g id="Group-23">
                        <path d="M91.2362704,11.7536965 C99.4851031,19.1550252 103.479119,31.1376071 101.81904,41.2540806 C100.158962,51.370554 92.8650466,59.5803743 87.4153534,68.7433667 C81.9656603,77.906359 78.4007212,88.0428039 70.4175741,94.752237 C62.4141624,101.461667 49.9722813,104.764356 39.9205241,101.235079 C29.8485025,97.7057989 22.1666079,87.364827 15.9639061,76.2942252 C9.74093975,65.2236203 5.03770169,53.46394 6.13015137,41.9484688 C7.24286556,30.4330007 14.1917965,19.1617482 23.7960332,12.0065442 C33.4002699,4.8513401 45.7003414,1.8121909 58.0819325,1.67223987 C70.4837914,1.55256609 82.9874377,4.35236771 91.2362704,11.7536965 Z" id="Path" fill="#FFCCCD" opacity="0.300000012" transform="translate(54.080541, 52.168330) rotate(-94.000000) translate(-54.080541, -52.168330) "></path>
                        <g id="fraud" transform="translate(3.000000, 1.000000)">
                            <path d="M71.9657948,39.2092713 C71.9657948,21.0944416 57.2805112,6.40989688 39.1656816,6.40989688 C21.0508519,6.40989688 6.36630717,21.0944416 6.36630717,39.2092713 C6.36630717,57.3241009 21.0508519,72.0093845 39.1656816,72.0093845 C57.2716455,71.9886979 71.9443694,57.315974 71.9657948,39.2092713 Z M9.48998675,39.2092713 C9.48998675,22.8202968 22.7767071,9.53357646 39.1656816,9.53357646 C55.5553949,9.53357646 68.8413764,22.8202968 68.8413764,39.2092713 C68.8413764,55.5989846 55.5553949,68.8857049 39.1656816,68.8857049 C22.7840952,68.8664958 9.50845709,55.5915964 9.48998675,39.2092713 Z" id="Shape" fill="#E2292F"></path>
                            <path d="M84.2743335,75.4839976 L84.2713783,75.4795649 L84.2669453,75.4758709 L80.9585639,72.1674893 C80.3749058,71.5793982 79.5799483,71.2491513 78.7517448,71.2513675 L78.7487896,71.2513675 C78.478386,71.2550617 78.2094599,71.2942185 77.9493996,71.3673605 L74.0241133,67.4420743 C74.314465,66.3693253 74.0108149,65.2226955 73.2269398,64.4343877 L70.8258142,62.0229189 C82.7472176,45.4898768 79.9707778,22.5727961 64.4462086,9.36512827 C48.9216392,-3.84253957 25.8560582,-2.91090292 11.4470889,11.5054546 C-2.96188061,25.9218122 -3.88169652,48.988132 9.33409825,64.506052 C22.5491543,80.023972 45.4677126,82.7885909 61.9948441,70.8590607 L64.390059,73.2705295 C65.170979,74.067703 66.3249968,74.3735696 67.3977458,74.0669643 L71.3230318,77.9929893 C71.0171655,79.0657381 71.3237708,80.2204948 72.1216833,80.9999371 L75.4330199,84.310535 L75.4359752,84.314968 L75.4404081,84.3179232 L83.1675993,92.0451143 C84.7375661,93.6638424 87.0574227,94.3102993 89.2383835,93.7377232 C91.4193442,93.1651472 93.1222963,91.462195 93.6948724,89.2812342 C94.2674483,87.1010124 93.6202529,84.7804168 92.0022636,83.211189 L84.2743335,75.4839976 Z M3.24261748,39.2092713 C3.23080667,23.3817907 13.580027,9.41093426 28.7248491,4.81037794 C43.8696712,0.210560189 60.2409141,6.06413481 69.0342052,19.2245189 C77.8282351,32.3849031 76.9726955,49.7498427 66.927864,61.9815456 C66.8901848,62.0280904 66.8517669,62.0731576 66.8140877,62.1189638 C65.3889272,63.8352145 63.8086174,65.4162633 62.0931055,66.8421623 C62.0369561,66.8887072 61.9808067,66.9359909 61.9246573,66.9825359 C51.1905181,75.7928194 36.3382639,77.6228464 23.7866574,71.6828313 C11.235051,65.7420775 3.23450066,53.0959036 3.24261748,39.2092713 Z M65.10227,68.3641065 C65.4000094,68.0988746 65.6910998,67.8277321 65.9807124,67.5536343 C66.5082212,67.0542002 67.0216927,66.5407287 67.5211268,66.0124812 C67.7922693,65.7258236 68.0611953,65.4376886 68.3234722,65.1429043 C68.512607,64.9308665 68.7172567,64.7336048 68.9019586,64.5171341 L71.0156878,66.6404678 L71.0186432,66.6449007 L66.601311,71.0622327 L66.601311,71.0629715 L64.4861041,68.9344661 C64.6988808,68.7527195 64.8931873,68.550286 65.10227,68.3641065 Z M72.122422,69.9577149 L75.4352364,73.2705295 L73.2269398,75.4788261 L69.9141254,72.1660117 L72.122422,69.9577149 Z M78.7487896,74.3743084 L80.9578251,76.5840827 L76.540493,81.0014148 L74.3314574,78.7916405 L78.7487896,74.3743084 Z M89.793228,89.8368177 C88.5572025,91.0166938 86.6119215,91.0166938 85.375896,89.8368177 L78.7495285,83.2097114 L83.1661217,78.793118 L89.793228,85.4194856 C90.3791028,86.0046214 90.7078722,86.7995788 90.7078722,87.6277824 C90.7078722,88.4559859 90.3791028,89.2509432 89.793228,89.8368177 L89.793228,89.8368177 Z" id="Shape" fill="#E2292F"></path>
                            <path d="M46.6638424,60.576333 C47.4543669,59.3728151 48.3911752,58.273469 49.4535808,57.3026754 C51.9241543,55.3307973 53.2052472,52.2255879 52.8447089,49.0849158 C54.620803,47.8185991 55.8302314,45.9080419 56.2151502,43.7618052 C56.8313161,38.4549483 55.378081,37.7745064 54.8306244,37.5181402 C54.501116,37.3637292 54.1420555,37.2809827 53.7778233,37.2758112 C53.7800396,37.0201836 53.7733903,36.7372201 53.7719128,36.4705106 C57.3307502,34.7993273 59.4703377,32.4809482 59.4703377,29.8382326 C59.4703377,26.6362393 56.3850761,23.8775309 51.0146817,22.1620189 C50.6120315,20.0682376 49.9833062,18.0239562 49.141065,16.0646378 C48.7627954,15.2246134 48.0335922,14.5936714 47.1477616,14.3402602 C46.2619309,14.0868493 45.3088689,14.2368273 44.5442027,14.7502986 C44.296702,14.9165305 44.0270372,15.1152698 43.7322528,15.3302629 C42.4637198,16.471721 40.8642009,17.1772824 39.1656816,17.3427753 C37.4679011,17.1772824 35.8669046,16.471721 34.5991103,15.329524 C34.3050647,15.1145308 34.0346611,14.9165305 33.7871605,14.7502986 C33.0224943,14.2368273 32.070171,14.0868493 31.1850791,14.3395215 C30.2992487,14.5929326 29.570784,15.2238746 29.1932532,16.0631603 C28.3495347,18.0224785 27.7208092,20.0674986 27.3174202,22.1620189 C21.9462871,23.8775309 18.8610255,26.6362393 18.8610255,29.8382326 C18.8610255,32.4809482 21.0013518,34.7993273 24.5601893,36.4697718 C24.5587116,36.7357426 24.5513236,37.0179671 24.5535399,37.2735947 C24.1893077,37.2795052 23.8309859,37.3629904 23.5014775,37.5181402 C22.9532822,37.7745064 21.5000471,38.4549483 22.1221234,43.8142606 C22.5188632,45.9405496 23.7245976,47.83042 25.487393,49.0841769 C25.126116,52.2248491 26.4072089,55.3300585 28.8777824,57.3026754 C29.9409269,58.273469 30.8777351,59.3728151 31.6675208,60.576333 C32.9198001,62.3568598 34.2149303,64.1994467 37.314229,64.1994467 L41.0171341,64.1994467 C44.1171717,64.1994467 45.411563,62.3568598 46.6638424,60.576333 L46.6638424,60.576333 Z M27.7481452,39.2846296 C27.7185929,38.7637701 27.6919956,38.2333062 27.6831301,37.6607301 C30.3480099,38.4401724 33.0926811,38.9181809 35.8646881,39.0851516 C36.0146662,39.0962337 36.1646442,39.1058382 36.3153608,39.1154427 C36.676638,39.136868 37.0371762,39.1582934 37.4051024,39.1715921 C37.472334,39.1738085 37.5373491,39.1811965 37.6045807,39.183413 L37.6045807,41.4899712 C36.126226,42.1216517 34.5237518,42.4097869 32.9183224,42.3329509 C30.7816901,42.2856672 28.8238494,41.1309105 27.7481452,39.2846296 Z M40.7275215,39.183413 C40.7954916,39.1811965 40.8597679,39.1738085 40.9269995,39.1715921 C41.2949259,39.1582934 41.6554641,39.136868 42.0167411,39.1154427 C42.1681967,39.1058382 42.317436,39.0962337 42.4674138,39.0851516 C45.2394209,38.9181809 47.9840921,38.4401724 50.648972,37.6607301 C50.6401063,38.2333062 50.614248,38.7637701 50.5839569,39.2846296 C49.5075137,41.1309105 47.549673,42.2849282 45.4137795,42.3329509 C43.8083501,42.4083092 42.2073534,42.1223907 40.7275215,41.4958816 L40.7275215,39.183413 Z M32.0487456,17.3464695 C32.2622611,17.4897981 32.4957243,17.6604628 32.7491355,17.8459036 C34.542222,19.4003553 36.7970637,20.3216485 39.1656816,20.4671938 C41.5342995,20.3216485 43.78988,19.4010941 45.5829665,17.8466424 C45.8356388,17.6604628 46.0691021,17.4897981 46.2966549,17.3538575 C47.188396,19.4690644 47.8171214,21.6862267 48.1687941,23.9551056 C48.2242046,24.2942185 48.2677943,24.6303759 48.3099063,24.9665335 C48.3401975,25.2036908 48.3749214,25.4371543 48.3993022,25.6794832 C48.4451081,26.1345889 48.4731828,26.583784 48.4953471,27.0300238 C48.5012575,27.152666 48.5152949,27.271614 48.5197277,27.394995 C46.1163858,28.6923415 43.4781029,29.498381 40.7592901,29.7658293 C40.2421246,29.8123742 39.7101829,29.8382326 39.1656816,29.8382326 C37.6562971,29.8323221 36.1528233,29.6424483 34.688506,29.2730446 C32.9907257,28.8504463 31.3527886,28.2187658 29.8116355,27.391301 C29.8153295,27.2693977 29.8293669,27.1519272 29.8352773,27.0307627 C29.8581804,26.5823063 29.886255,26.1323724 29.932061,25.6757891 C29.9564418,25.4349378 29.9911656,25.202952 30.0214569,24.9672723 C30.0635689,24.6311149 30.1078974,24.2942185 30.1618303,23.9551056 C30.5135028,21.6817939 31.1474001,19.4616764 32.0487456,17.3464695 L32.0487456,17.3464695 Z M21.985444,29.8382326 C21.985444,28.3813035 23.8110381,26.826113 26.7928665,25.6403263 C26.7832621,25.7437594 26.7869561,25.8427597 26.7788293,25.9454541 C26.7152918,26.714553 26.6709633,27.4903011 26.6709633,28.2763927 C26.6709633,28.7987299 26.9317624,29.2863431 27.3661814,29.5759557 C30.9213248,31.7495285 34.9988053,32.9198001 39.1656816,32.9619121 C43.3325578,32.9198001 47.4100384,31.7495285 50.9651818,29.5759557 C51.3996008,29.2863431 51.6611387,28.7987299 51.6611387,28.2763927 C51.6611387,27.4903011 51.6160714,26.714553 51.5532728,25.9447151 C51.5451459,25.8420208 51.5481011,25.7437594 51.5392354,25.6403263 C54.5210639,26.826113 56.3466581,28.3813035 56.3466581,29.8382326 C56.3466581,31.2951616 54.5454445,32.8392699 51.5407129,34.027273 C51.333108,34.1100194 51.1129433,34.1846392 50.8972114,34.2629527 C47.7794423,35.3172316 44.5249936,35.9134494 41.2358213,36.0316586 C41.1434701,36.0360915 41.0533357,36.0442185 40.9602458,36.0486512 C40.3721548,36.0730318 39.7737205,36.0848528 39.1656816,36.0856225 C38.5576427,36.0863305 37.9599472,36.0737708 37.3718561,36.0486512 C37.2780275,36.0442185 37.187893,36.0360915 37.0955419,36.0316586 C33.8063696,35.9134494 30.5519209,35.3172316 27.4341517,34.2629527 C27.2191586,34.1846392 26.9982552,34.1100194 26.791389,34.027273 C23.7859187,32.8392699 21.985444,31.2966392 21.985444,29.8382326 Z M34.2223182,58.7788136 C33.2928981,57.3721234 32.1898578,56.0880753 30.9397951,54.9562217 C28.4308035,52.7508803 28.5179829,50.9784802 28.6398861,48.5256382 L28.652446,48.272966 C28.6783042,47.71886 28.4086393,47.19209 27.944668,46.8891787 C27.8523171,46.8285966 27.7533167,46.7783576 27.6498836,46.7399396 C26.3968655,46.0284676 25.5110349,44.8116513 25.2184671,43.4012669 C25.1253773,42.59375 25.092131,41.7803226 25.118728,40.9683727 C26.7633142,43.7174767 29.7155904,45.4167347 32.9183224,45.4573692 C35.0719474,45.5556306 37.2167066,45.1263833 39.1656816,44.2058286 C41.1153955,45.1263833 43.2601546,45.5556306 45.4137795,45.4573692 C48.6165116,45.415996 51.5687877,43.7167379 53.2126351,40.967634 C53.2392322,41.758897 53.2089411,42.5501603 53.1217619,43.3369906 C52.8447089,44.7732331 51.9529678,46.0166467 50.6814795,46.7399396 C50.5780465,46.7783576 50.4797851,46.8285966 50.3874339,46.8891787 C49.9227238,47.19209 49.6537978,47.71886 49.6796561,48.272966 L49.6922158,48.5256382 C49.814119,50.9777414 49.9005597,52.7508803 47.3915681,54.9562217 C46.1415054,56.0880753 45.0384651,57.3721234 44.1090449,58.7788136 C42.8833627,60.5238776 42.4267793,61.0757671 41.0171341,61.0757671 L37.314229,61.0757671 C35.9045838,61.0757671 35.4487393,60.5238776 34.2223182,58.7788136 L34.2223182,58.7788136 Z" id="Shape" fill="#262626"></path>
                            <path d="M44.9571964,52.1686997 C44.3498962,51.559922 43.3650654,51.5547503 42.7518548,52.1576175 C42.2051372,52.7235444 41.4995756,53.1106798 40.7275215,53.2665681 C39.8653327,53.2665681 39.1656816,53.9654804 39.1656816,54.8284079 C39.1656816,55.6913355 39.8653327,56.3902478 40.7275215,56.3902478 C42.3307344,56.2343593 43.8268202,55.5191933 44.9557186,54.3710858 C45.5644963,53.7630469 45.5644963,52.7767386 44.9571964,52.1686997 L44.9571964,52.1686997 Z" id="Path" fill="#262626"></path>
                        </g>
                    </g>
                </g>
            </g>
        </g>
    </g>
</svg>