<?xml version="1.0" encoding="UTF-8"?>
<svg width="105px" height="96px" viewBox="0 0 105 96" version="1.1" xmlns="http://www.w3.org/2000/svg" xmlns:xlink="http://www.w3.org/1999/xlink">
    <!-- Generator: Sketch 63.1 (92452) - https://sketch.com -->
    <title>Group 23</title>
    <desc>Created with Sketch.</desc>
    <g id="Page-1" stroke="none" stroke-width="1" fill="none" fill-rule="evenodd">
        <g id="Machine_learning" transform="translate(-238.000000, -7368.000000)" fill-rule="nonzero">
            <g id="1" transform="translate(238.000000, 5869.000000)">
                <g id="Group-6" transform="translate(0.000000, 1494.000000)">
                    <g id="Group-23">
                        <path d="M91.2362704,11.7536965 C99.4851031,19.1550252 103.479119,31.1376071 101.81904,41.2540806 C100.158962,51.370554 92.8650466,59.5803743 87.4153534,68.7433667 C81.9656603,77.906359 78.4007212,88.0428039 70.4175741,94.752237 C62.4141624,101.461667 49.9722813,104.764356 39.9205241,101.235079 C29.8485025,97.7057989 22.1666079,87.364827 15.9639061,76.2942252 C9.74093975,65.2236203 5.03770169,53.46394 6.13015137,41.9484688 C7.24286556,30.4330007 14.1917965,19.1617482 23.7960332,12.0065442 C33.4002699,4.8513401 45.7003414,1.8121909 58.0819325,1.67223987 C70.4837914,1.55256609 82.9874377,4.35236771 91.2362704,11.7536965 Z" id="Path" fill="#FFCCCD" opacity="0.300000012" transform="translate(54.080541, 52.168330) rotate(-94.000000) translate(-54.080541, -52.168330) "></path>
                        <g id="heart-rate" transform="translate(0.000000, 5.000000)">
                            <path d="M86.1666667,0 L7.83333333,0 C3.50717917,0 0,3.50717917 0,7.83333333 L0,86.1666667 C0,90.4928208 3.50717917,94 7.83333333,94 L86.1666667,94 C90.4928208,94 94,90.4928208 94,86.1666667 L94,7.83333333 C94,3.50717917 90.4928208,0 86.1666667,0 Z M90.8666667,86.1666667 C90.8666667,88.7624375 88.7624375,90.8666667 86.1666667,90.8666667 L7.83333333,90.8666667 C5.2375625,90.8666667 3.13333333,88.7624375 3.13333333,86.1666667 L3.13333333,7.83333333 C3.13333333,5.2375625 5.2375625,3.13333333 7.83333333,3.13333333 L86.1666667,3.13333333 C88.7624375,3.13333333 90.8666667,5.2375625 90.8666667,7.83333333 L90.8666667,86.1666667 Z" id="Shape" fill="#E2292F"></path>
                            <path d="M78.3333333,75.2 C74.8723708,75.2 72.0666667,78.0057042 72.0666667,81.4666667 C72.0666667,84.9276292 74.8723708,87.7333333 78.3333333,87.7333333 C81.7942958,87.7333333 84.6,84.9276292 84.6,81.4666667 C84.6,78.0057042 81.7942958,75.2 78.3333333,75.2 Z M78.3333333,84.6 C76.6027542,84.6 75.2,83.1972458 75.2,81.4666667 C75.2,79.7360875 76.6027542,78.3333333 78.3333333,78.3333333 C80.0639125,78.3333333 81.4666667,79.7360875 81.4666667,81.4666667 C81.4666667,83.1972458 80.0639125,84.6 78.3333333,84.6 Z" id="Shape" fill="#262626"></path>
                            <path d="M68.0873333,33.746 C68.3830417,34.0391625 68.783325,34.2026833 69.1996667,34.2003583 C69.6160083,34.2026833 70.0162917,34.0391625 70.312,33.746 L78.1453333,25.9126667 C80.4837792,23.5652125 80.4837792,19.7687875 78.1453333,17.4213333 C75.7643917,15.1653333 72.0349417,15.1653333 69.654,17.4213333 L69.1996667,17.8756667 L68.7453333,17.4213333 C66.3643917,15.1653333 62.6349417,15.1653333 60.254,17.4213333 C57.9155542,19.7687875 57.9155542,23.5652125 60.254,25.9126667 L68.0873333,33.746 Z M62.4786667,19.646 C63.5772917,18.52975 65.3726917,18.5154542 66.4887458,19.6140792 C66.4995167,19.6246542 66.5100917,19.6352292 66.5206667,19.646 L68.0873333,21.2126667 C68.6965708,21.8269958 69.6886625,21.8311083 70.3029917,21.221675 C70.306125,21.2187375 70.3090625,21.2156042 70.312,21.2126667 L71.8786667,19.646 C73.0037292,18.5514875 74.7956042,18.5514875 75.9206667,19.646 C77.0369167,20.744625 77.0512125,22.540025 75.9525875,23.6560792 C75.9420125,23.66685 75.9314375,23.677425 75.9206667,23.688 L69.1996667,30.409 L62.4786667,23.688 C61.3661375,22.5695958 61.3651583,20.763425 62.4786667,19.646 L62.4786667,19.646 Z" id="Shape" fill="#262626"></path>
                            <path d="M84.6,7.83333333 L9.4,7.83333333 C8.53480833,7.83333333 7.83333333,8.53480833 7.83333333,9.4 L7.83333333,70.5 C7.83333333,71.3651917 8.53480833,72.0666667 9.4,72.0666667 L84.6,72.0666667 C85.4651917,72.0666667 86.1666667,71.3651917 86.1666667,70.5 L86.1666667,9.4 C86.1666667,8.53480833 85.4651917,7.83333333 84.6,7.83333333 Z M83.0333333,68.9333333 L10.9666667,68.9333333 L10.9666667,10.9666667 L83.0333333,10.9666667 L83.0333333,68.9333333 Z" id="Shape" fill="#E2292F"></path>
                            <path d="M32.7276667,39.8716667 L34.5606667,36.2213333 L39.3703333,44.65 C39.6842542,45.2059708 40.3038708,45.5157792 40.937,45.4333333 C41.5523083,45.3720375 42.0738125,44.9547167 42.2686667,44.368 L46.9686667,30.4246667 L53.2666667,53.6896667 C53.4617167,54.387225 54.1095333,54.8601625 54.8333333,54.8333333 C55.5353958,54.8699542 56.1759667,54.4344208 56.4,53.768 L60.6613333,40.7333333 L79.9,40.7333333 L79.9,37.6 L59.5333333,37.6 C58.8312708,37.5633792 58.1907,37.9989125 57.9666667,38.6653333 L54.8333333,47.9086667 L48.5666667,24.6436667 C48.3716167,23.9461083 47.7238,23.4731708 47,23.5 C46.2979375,23.4633792 45.6573667,23.8989125 45.4333333,24.5653333 L40.279,40.044 L35.8296667,32.1166667 C35.5486458,31.6300208 35.0285125,31.3311792 34.4666667,31.3333333 C33.8936583,31.3523292 33.37705,31.6828958 33.1193333,32.195 L30.362,37.6 L14.1,37.6 L14.1,40.7333333 L31.3333333,40.7333333 C31.9231833,40.7315708 32.4621167,40.3984583 32.7276667,39.8716667 Z" id="Path" fill="#262626"></path>
                            <path d="M20.3666667,76.7666667 L10.9666667,76.7666667 C10.101475,76.7666667 9.4,77.4681417 9.4,78.3333333 L9.4,84.6 C9.4,85.4651917 10.101475,86.1666667 10.9666667,86.1666667 L20.3666667,86.1666667 C21.2318583,86.1666667 21.9333333,85.4651917 21.9333333,84.6 L21.9333333,78.3333333 C21.9333333,77.4681417 21.2318583,76.7666667 20.3666667,76.7666667 Z M18.8,83.0333333 L12.5333333,83.0333333 L12.5333333,79.9 L18.8,79.9 L18.8,83.0333333 Z" id="Shape" fill="#262626"></path>
                            <rect id="Rectangle" fill="#262626" x="14.1" y="23.5" width="12.5333333" height="3.13333333"></rect>
                            <rect id="Rectangle" fill="#262626" x="14.1" y="29.7666667" width="9.4" height="3.13333333"></rect>
                            <rect id="Rectangle" fill="#262626" x="14.1" y="59.5333333" width="3.13333333" height="6.26666667"></rect>
                            <rect id="Rectangle" fill="#262626" x="45.4333333" y="59.5333333" width="3.13333333" height="6.26666667"></rect>
                            <rect id="Rectangle" fill="#262626" x="76.7666667" y="59.5333333" width="3.13333333" height="6.26666667"></rect>
                            <rect id="Rectangle" fill="#262626" x="21.9333333" y="62.6666667" width="3.13333333" height="3.13333333"></rect>
                            <rect id="Rectangle" fill="#262626" x="29.7666667" y="59.5333333" width="3.13333333" height="6.26666667"></rect>
                            <rect id="Rectangle" fill="#262626" x="61.1" y="59.5333333" width="3.13333333" height="6.26666667"></rect>
                            <rect id="Rectangle" fill="#262626" x="37.6" y="62.6666667" width="3.13333333" height="3.13333333"></rect>
                            <rect id="Rectangle" fill="#262626" x="53.2666667" y="62.6666667" width="3.13333333" height="3.13333333"></rect>
                            <rect id="Rectangle" fill="#262626" x="68.9333333" y="62.6666667" width="3.13333333" height="3.13333333"></rect>
                            <path d="M36.0333333,76.7666667 L26.6333333,76.7666667 C25.7681417,76.7666667 25.0666667,77.4681417 25.0666667,78.3333333 L25.0666667,84.6 C25.0666667,85.4651917 25.7681417,86.1666667 26.6333333,86.1666667 L36.0333333,86.1666667 C36.898525,86.1666667 37.6,85.4651917 37.6,84.6 L37.6,78.3333333 C37.6,77.4681417 36.898525,76.7666667 36.0333333,76.7666667 Z M34.4666667,83.0333333 L28.2,83.0333333 L28.2,79.9 L34.4666667,79.9 L34.4666667,83.0333333 Z" id="Shape" fill="#262626"></path>
                            <path d="M51.7,76.7666667 L42.3,76.7666667 C41.4348083,76.7666667 40.7333333,77.4681417 40.7333333,78.3333333 L40.7333333,84.6 C40.7333333,85.4651917 41.4348083,86.1666667 42.3,86.1666667 L51.7,86.1666667 C52.5651917,86.1666667 53.2666667,85.4651917 53.2666667,84.6 L53.2666667,78.3333333 C53.2666667,77.4681417 52.5651917,76.7666667 51.7,76.7666667 Z M50.1333333,83.0333333 L43.8666667,83.0333333 L43.8666667,79.9 L50.1333333,79.9 L50.1333333,83.0333333 Z" id="Shape" fill="#262626"></path>
                            <path d="M67.3666667,76.7666667 L57.9666667,76.7666667 C57.101475,76.7666667 56.4,77.4681417 56.4,78.3333333 L56.4,84.6 C56.4,85.4651917 57.101475,86.1666667 57.9666667,86.1666667 L67.3666667,86.1666667 C68.2318583,86.1666667 68.9333333,85.4651917 68.9333333,84.6 L68.9333333,78.3333333 C68.9333333,77.4681417 68.2318583,76.7666667 67.3666667,76.7666667 Z M65.8,83.0333333 L59.5333333,83.0333333 L59.5333333,79.9 L65.8,79.9 L65.8,83.0333333 Z" id="Shape" fill="#262626"></path>
                        </g>
                    </g>
                </g>
            </g>
        </g>
    </g>
</svg>