<?xml version="1.0" encoding="UTF-8"?>
<svg width="102px" height="96px" viewBox="0 0 102 96" version="1.1" xmlns="http://www.w3.org/2000/svg" xmlns:xlink="http://www.w3.org/1999/xlink">
    <!-- Generator: Sketch 63.1 (92452) - https://sketch.com -->
    <title>Group 23</title>
    <desc>Created with Sketch.</desc>
    <g id="Page-1" stroke="none" stroke-width="1" fill="none" fill-rule="evenodd">
        <g id="Machine_learning" transform="translate(-584.000000, -6866.000000)" fill-rule="nonzero">
            <g id="1" transform="translate(238.000000, 5869.000000)">
                <g id="Group-6" transform="translate(343.000000, 992.000000)">
                    <g id="Group-23">
                        <path d="M91.2409106,11.761837 C99.4909007,19.1632467 103.485554,31.1458732 101.82535,41.2623379 C100.165146,51.3788026 92.8703434,59.5885608 87.4200153,68.7515088 C81.9696873,77.9144567 78.4043711,88.0508752 70.4202319,94.760239 C62.4158255,101.469599 49.9723322,104.772176 39.9192153,101.242804 C29.8458313,97.7134282 22.162827,87.3723787 15.959204,76.3017125 C9.73531389,65.231043 5.0313463,53.4713117 6.1238339,41.9558431 C7.23658869,30.4403779 14.186333,19.1691823 23.7917717,12.0140623 C33.3972104,4.85894227 45.6988778,1.81990467 58.0821023,1.68006786 C70.4855975,1.56050849 82.9909205,4.36042736 91.2409106,11.761837 Z" id="Path" fill="#FFCCCD" opacity="0.300000012" transform="translate(54.080545, 52.176151) rotate(-94.000000) translate(-54.080545, -52.176151) "></path>
                        <g id="architecture-and-city" transform="translate(10.000000, 5.000000)">
                            <path d="M0.903663019,75.0831709 C1.46805154,75.3290208 2.1241362,75.2212683 2.58024386,74.8078165 L7.50966498,70.3020175 L7.50966498,92.7751714 C7.49775855,93.1825389 7.64857742,93.577876 7.92878673,93.8738031 C8.20899605,94.1697301 8.5955222,94.3418792 9.00293298,94.352201 L23.8699515,94.352201 C24.728879,94.3350195 25.4164518,93.6342703 25.4173276,92.7751714 L25.4173276,81.4509817 L36.3929918,81.4509817 L36.3929918,92.7751714 C36.3929918,93.6258816 37.0116727,94.352201 37.8623829,94.352201 L52.7294015,94.352201 C53.5933459,94.3377007 54.2893247,93.6391632 54.3006545,92.7751714 L54.3006545,70.6900169 L58.6909201,74.7995366 C58.9732379,75.0655209 59.3464984,75.2136128 59.7343785,75.213531 C59.9389466,75.2135092 60.1411722,75.1699923 60.327642,75.0858667 C60.8852226,74.8389137 61.2414341,74.2828449 61.2328176,73.6730869 L61.2328176,63.5282997 C61.238894,63.1033168 61.0674768,62.6950144 60.7597366,62.40185 L32.1567705,35.7024877 L32.1567705,26.4290143 C32.1722688,25.2286836 32.6661058,24.08416 33.5287286,23.2493451 C34.4663203,22.4025134 35.6880522,21.9391831 36.9514028,21.9513284 L36.9983863,21.9513284 C38.2745542,21.9424583 39.5088239,22.4063555 40.4632302,23.2535813 C41.3233059,24.0924237 41.8150587,25.2384848 41.8303744,26.4397974 C41.8326076,27.2905612 42.5240984,27.9784311 43.3748621,27.9761978 C44.2256259,27.9739645 44.9134958,27.2824738 44.9112626,26.4317101 C44.9267013,25.2309736 45.4205192,24.086009 46.2832206,23.250693 C47.2205109,22.4034624 48.4421109,21.9396489 49.7055097,21.9513284 L49.7526858,21.9513284 C51.0273855,21.9424529 52.2603305,22.4053303 53.2142563,23.2508855 C53.8200359,23.8886294 54.4092558,25.4152095 54.6414777,26.2466642 C54.8480968,26.9904612 55.5733524,27.466468 56.3379527,27.3601113 C57.102553,27.2537545 57.6703627,26.5978809 57.6661397,25.8259304 C57.6661397,18.9174237 54.8440461,12.4292658 49.7199514,7.55895919 C44.6172303,2.70887095 37.8327294,0.0373557694 30.6163264,0.0373557694 C23.3999235,0.0373557694 16.61523,2.70790817 11.5127015,7.55799641 C6.38860679,12.428303 3.56670575,18.9149205 3.56670575,25.8234272 C3.56659396,26.5942241 4.13621196,27.2464562 4.90000841,27.3501042 C5.66380485,27.4537522 6.38663982,26.9769075 6.59194541,26.2339555 C6.78565625,25.5334386 7.38700712,23.8899773 8.0220552,23.2256608 C8.95692964,22.3741175 10.1770938,21.9040255 11.4416485,21.908196 C11.4574381,21.908196 11.4732276,21.908196 11.4890172,21.908196 C12.7680611,21.9069962 14.0024411,22.3784608 14.9550164,23.2320151 C15.8149864,24.0751228 16.3064686,25.224222 16.3221606,26.4284366 C16.3221606,27.2792004 17.0118409,27.9688807 17.8626046,27.9688807 C18.7133684,27.9688807 19.4030487,27.2792004 19.4030487,26.4284366 C19.418547,25.2281059 19.912384,24.0835824 20.7750068,23.2487674 C21.7123423,22.4024618 22.9335236,21.9393642 24.1963331,21.9513284 L24.2435092,21.9513284 C25.5196705,21.9424948 26.7539276,22.4063873 27.7083531,23.2535813 C28.5662934,24.0862881 29.0581054,25.2258373 29.0754972,26.4213121 L29.0754972,36.1569188 L0.482544114,62.3929924 C0.168765703,62.6867494 -0.00646039434,63.0992929 -0.000172531831,63.5290699 L-0.000172531831,73.6738571 C-0.00660340934,74.2817524 0.348467423,74.8355055 0.903663019,75.0831709 Z M51.2197663,91.2713128 L39.47388,91.2713128 L39.47388,79.9736958 C39.4456724,79.0969535 38.7392532,78.3939951 37.8623829,78.3700935 L23.8699515,78.3700935 C23.0085915,78.4005396 22.328385,79.1118355 22.3364394,79.9736958 L22.3364394,91.2713128 L10.5905532,91.2713128 L10.5905532,67.4766505 L30.8961096,48.8484451 L51.2197663,67.8159333 L51.2197663,91.2713128 Z M24.2575658,18.8704402 L24.2521742,18.8704402 C22.1847737,18.8500607 20.1864374,19.6137824 18.6595919,21.0078064 C18.642647,21.0234034 18.6260873,21.0286024 18.6099126,21.044777 C18.3419811,21.313039 18.0921375,21.5987767 17.862027,21.9001086 C17.6320525,21.596123 17.3821432,21.3077463 17.1139488,21.0368823 C17.0946933,21.0176267 17.0754377,21.0191672 17.0561822,21.0010669 C15.5354071,19.6235455 13.5549695,18.8636876 11.5030737,18.8704402 L11.4976822,18.8704402 C10.100175,18.8557098 8.72189466,19.1967679 7.49252754,19.8615234 C10.2711036,10.2350957 19.5850137,3.12844941 30.6169041,3.12844941 C41.6530307,3.12844941 50.9709845,10.2464565 53.7451318,19.8792385 C52.5256451,19.21196 51.1568422,18.8648733 49.7667424,18.8704402 L49.7613508,18.8704402 C47.694039,18.8508749 45.6959304,19.6144833 44.168576,21.0078064 C44.1516311,21.0234034 44.1352639,21.0286024 44.1190892,21.044777 C43.8510961,21.3130371 43.6011883,21.5987746 43.371011,21.9001086 C43.1409981,21.5962103 42.8911589,21.3078402 42.6231254,21.0368823 C42.6038699,21.0176267 42.5846143,21.0191672 42.5653588,21.0010669 C41.0445346,19.6235007 39.0640199,18.8636396 37.0120578,18.8704402 L37.0068588,18.8704402 C34.9393258,18.8499631 32.9408345,19.6136914 31.4138914,21.0078064 C31.397139,21.0234034 31.3805793,21.0286024 31.3644046,21.044777 C31.1276768,21.2830653 30.9052099,21.5351088 30.6981625,21.7995947 C30.6708197,21.7980542 30.6440544,21.7926627 30.6163264,21.7926627 C30.5885985,21.7926627 30.5620258,21.7940105 30.5348755,21.795551 C30.3278912,21.5291829 30.1054268,21.2752134 29.8686334,21.0349567 C29.8493778,21.0157012 29.8301223,21.0182044 29.8108667,21.0001042 C28.2899277,19.6228392 26.3094097,18.8633202 24.2575658,18.8704402 Z M3.0808882,64.20571 L30.8572134,38.703658 L58.1517647,64.1980078 L58.1517647,70.1287176 L31.9002866,45.623718 C31.321903,45.0750679 30.4164604,45.0711877 29.8333957,45.6148604 L3.0808882,70.1705021 L3.0808882,64.20571 Z" id="Shape" fill="#E2292F"></path>
                            <g id="price-(1)" transform="translate(26.000000, 57.000000)" fill="#262626" stroke="#262626">
                                <path d="M5.60335122,8.05000108 L3.99665107,8.05000108 C3.08130099,8.05000108 2.33665092,7.30535101 2.33665092,6.39005093 C2.33665092,5.47470085 3.08135099,4.73005078 3.99665107,4.73005078 L7.21000136,4.73005078 C7.6242014,4.73005078 7.96000143,4.39425075 7.96000143,3.98005071 C7.96000143,3.56585068 7.6242014,3.23005065 7.21000136,3.23005065 L5.55000121,3.23005065 L5.55000121,1.5700505 C5.55000121,1.15585046 5.21420118,0.820050431 4.80000114,0.820050431 C4.38580111,0.820050431 4.05000108,1.15585046 4.05000108,1.5700505 L4.05000108,3.23005065 L3.99670107,3.23005065 C2.25425092,3.23005065 0.83670079,4.64765077 0.83670079,6.39005093 C0.83670079,8.13245108 2.25430092,9.55000121 3.99670107,9.55000121 L5.60340122,9.55000121 C6.5187013,9.55000121 7.26335136,10.2947013 7.26335136,11.2100014 C7.26335136,12.1253014 6.5187013,12.8700015 5.60340122,12.8700015 L2.39005093,12.8700015 C1.97585089,12.8700015 1.64005086,13.2058015 1.64005086,13.6200016 C1.64005086,14.0342016 1.97585089,14.3700016 2.39005093,14.3700016 L4.05000108,14.3700016 L4.05000108,16.0300518 C4.05000108,16.4442518 4.38580111,16.7800519 4.80000114,16.7800519 C5.21420118,16.7800519 5.55000121,16.4442518 5.55000121,16.0300518 L5.55000121,14.3700016 L5.60335122,14.3700016 C7.34575137,14.3700016 8.7633015,12.9524015 8.7633015,11.2100014 C8.7633015,9.4676012 7.34575137,8.05000108 5.60335122,8.05000108 Z" id="Path"></path>
                            </g>
                        </g>
                    </g>
                </g>
            </g>
        </g>
    </g>
</svg>