<?xml version="1.0" encoding="UTF-8"?>
<svg width="105px" height="96px" viewBox="0 0 105 96" version="1.1" xmlns="http://www.w3.org/2000/svg" xmlns:xlink="http://www.w3.org/1999/xlink">
    <!-- Generator: Sketch 63.1 (92452) - https://sketch.com -->
    <title>Group 23</title>
    <desc>Created with Sketch.</desc>
    <g id="Page-1" stroke="none" stroke-width="1" fill="none" fill-rule="evenodd">
        <g id="Machine_learning" transform="translate(-924.000000, -7368.000000)" fill-rule="nonzero">
            <g id="1" transform="translate(238.000000, 5869.000000)">
                <g id="Group-6" transform="translate(686.000000, 1494.000000)">
                    <g id="Group-23">
                        <path d="M91.2409106,11.761837 C99.4909007,19.1632467 103.485554,31.1458732 101.82535,41.2623379 C100.165146,51.3788026 92.8703434,59.5885608 87.4200153,68.7515088 C81.9696873,77.9144567 78.4043711,88.0508752 70.4202319,94.760239 C62.4158255,101.469599 49.9723322,104.772176 39.9192153,101.242804 C29.8458313,97.7134282 22.162827,87.3723787 15.959204,76.3017125 C9.73531389,65.231043 5.0313463,53.4713117 6.1238339,41.9558431 C7.23658869,30.4403779 14.186333,19.1691823 23.7917717,12.0140623 C33.3972104,4.85894227 45.6988778,1.81990467 58.0821023,1.68006786 C70.4855975,1.56050849 82.9909205,4.36042736 91.2409106,11.761837 Z" id="Path" fill="#FFCCCD" opacity="0.300000012" transform="translate(54.080545, 52.176151) rotate(-94.000000) translate(-54.080545, -52.176151) "></path>
                        <g id="ekg" transform="translate(0.000000, 17.000000)">
                            <path d="M92.5253165,0.160067368 L6.47468354,0.160067368 C2.90053223,0.164202059 0.00414341396,3.05449321 0,6.62112 L0,62.9915116 C0.00414341396,66.5581384 2.90053223,69.4484295 6.47468354,69.4525642 L92.5253165,69.4525642 C96.0994678,69.4484295 98.9958566,66.5581384 99,62.9915116 L99,6.62112 C98.9958566,3.05449321 96.0994678,0.164202059 92.5253165,0.160067368 L92.5253165,0.160067368 Z M96.0759494,62.9915116 C96.0736475,64.9473914 94.4853226,66.5323725 92.5253165,66.5346695 L6.47468354,66.5346695 C4.51467738,66.5323725 2.92635246,64.9473914 2.92405063,62.9915116 L2.92405063,6.62112 C2.92635246,4.66524016 4.51467738,3.08025909 6.47468354,3.07796211 L92.5253165,3.07796211 C94.4853226,3.08025909 96.0736475,4.66524016 96.0759494,6.62112 L96.0759494,62.9915116 Z" id="Shape" fill="#E2292F"></path>
                            <path d="M73.7278481,5.16217263 L6.47468354,5.16217263 C5.66742025,5.16217263 5.01265823,5.8155562 5.01265823,6.62112 L5.01265823,62.9915116 C5.01265823,63.7970754 5.66742025,64.4504589 6.47468354,64.4504589 L73.7278481,64.4504589 C74.5351114,64.4504589 75.1898734,63.7970754 75.1898734,62.9915116 L75.1898734,6.62112 C75.1898734,5.8155562 74.5351114,5.16217263 73.7278481,5.16217263 L73.7278481,5.16217263 Z M72.2658228,61.5325642 L7.93670886,61.5325642 L7.93670886,8.08006737 L72.2658228,8.08006737 L72.2658228,61.5325642 Z" id="Shape" fill="#E2292F"></path>
                            <path d="M14.9686329,35.7642189 L18.9094177,35.7642189 C19.3956703,35.7644555 19.8501453,35.5231626 20.1216456,35.1206147 L21.5552658,32.9988884 L25.7951392,42.9364042 C26.0125143,43.4451127 26.4992988,43.7875652 27.052481,43.8209432 L27.141038,43.8209432 C27.6631606,43.8206093 28.1455238,43.5426032 28.4067342,43.0914695 L34.7962025,32.0551579 L38.3568608,39.9926653 C38.5827221,40.4956397 39.0733504,40.828666 39.6251154,40.8535252 C40.1768804,40.8783843 40.6955862,40.5908324 40.9659494,40.1102147 L43.4079494,35.76672 L50.2151392,35.76672 L52.0957215,38.9197137 C52.3834609,39.4019286 52.9228802,39.676691 53.4830262,39.6263608 C54.0431722,39.5760307 54.5247297,39.2095318 54.721519,38.6837811 L57.6037975,30.98304 L59.488557,34.9330358 C59.7305877,35.4417332 60.244248,35.7661503 60.808557,35.76672 L65.2364051,35.76672 C66.0438593,35.76672 66.6984304,35.113527 66.6984304,34.3077726 C66.6984304,33.5020182 66.0438593,32.8488253 65.2364051,32.8488253 L61.7317215,32.8488253 L58.7600506,26.6228716 C58.507623,26.094256 57.9629348,25.7674637 57.3766888,25.7929069 C56.7904428,25.8183501 56.2762431,26.1910983 56.0707595,26.7395874 L53.0506329,34.8104842 L52.3037468,33.5599579 C52.0408512,33.1188303 51.5649059,32.8481126 51.0505823,32.8471579 L42.5532911,32.8471579 C42.0245359,32.8472654 41.5370419,33.1322602 41.2784051,33.5924716 L39.8397722,36.1510484 L36.3,28.2535579 C36.0757937,27.7531234 35.5894006,27.4203351 35.0408061,27.3920222 C34.4922116,27.3637094 33.9740102,27.6446509 33.6992658,28.1193347 L27.339038,39.1056253 L23.1910633,29.3873684 C22.9814389,28.8951273 22.5185753,28.5569171 21.9850243,28.5061269 C21.4514734,28.4553367 20.9328786,28.700119 20.6337722,29.1439326 L18.127443,32.8488253 L14.9686329,32.8488253 C14.1611786,32.8488253 13.5066076,33.5020182 13.5066076,34.3077726 C13.5066076,35.113527 14.1611786,35.76672 14.9686329,35.76672 L14.9686329,35.7642189 Z" id="Path" fill="#262626"></path>
                            <path d="M85.6329114,33.7083537 C87.824573,33.7083537 89.6012658,31.9354013 89.6012658,29.7483537 C89.6012658,27.5613061 87.824573,25.7883537 85.6329114,25.7883537 C83.4412498,25.7883537 81.664557,27.5613061 81.664557,29.7483537 C81.6673187,31.9342587 83.4423947,33.7055978 85.6329114,33.7083537 L85.6329114,33.7083537 Z M85.6329114,28.7062484 C86.2096645,28.7062484 86.6772152,29.1728148 86.6772152,29.7483537 C86.6772152,30.3238925 86.2096645,30.7904589 85.6329114,30.7904589 C85.0561583,30.7904589 84.5886076,30.3238925 84.5886076,29.7483537 C84.5895276,29.1731955 85.0565398,28.7071665 85.6329114,28.7062484 L85.6329114,28.7062484 Z" id="Shape" fill="#262626"></path>
                            <path d="M85.6329114,21.2030905 C87.824573,21.2030905 89.6012658,19.4301381 89.6012658,17.2430905 C89.6012658,15.0560429 87.824573,13.2830905 85.6329114,13.2830905 C83.4412498,13.2830905 81.664557,15.0560429 81.664557,17.2430905 C81.6673187,19.4289956 83.4423947,21.2003346 85.6329114,21.2030905 L85.6329114,21.2030905 Z M85.6329114,16.2009853 C86.2096645,16.2009853 86.6772152,16.6675517 86.6772152,17.2430905 C86.6772152,17.8186294 86.2096645,18.2851958 85.6329114,18.2851958 C85.0561583,18.2851958 84.5886076,17.8186294 84.5886076,17.2430905 C84.5895276,16.6679324 85.0565398,16.2019033 85.6329114,16.2009853 L85.6329114,16.2009853 Z" id="Shape" fill="#262626"></path>
                            <path d="M85.6329114,46.2136168 C87.824573,46.2136168 89.6012658,44.4406645 89.6012658,42.2536168 C89.6012658,40.0665692 87.824573,38.2936168 85.6329114,38.2936168 C83.4412498,38.2936168 81.664557,40.0665692 81.664557,42.2536168 C81.6673187,44.4395219 83.4423947,46.2108609 85.6329114,46.2136168 L85.6329114,46.2136168 Z M85.6329114,41.2115116 C86.2096645,41.2115116 86.6772152,41.678078 86.6772152,42.2536168 C86.6772152,42.8291557 86.2096645,43.2957221 85.6329114,43.2957221 C85.0561583,43.2957221 84.5886076,42.8291557 84.5886076,42.2536168 C84.5895276,41.6784587 85.0565398,41.2124296 85.6329114,41.2115116 L85.6329114,41.2115116 Z" id="Shape" fill="#262626"></path>
                            <path d="M90.6455696,54.93312 L80.6202532,54.93312 C79.8127989,54.93312 79.1582278,55.586313 79.1582278,56.3920674 C79.1582278,57.1978218 79.8127989,57.8510147 80.6202532,57.8510147 L90.6455696,57.8510147 C91.4530239,57.8510147 92.1075949,57.1978218 92.1075949,56.3920674 C92.1075949,55.586313 91.4530239,54.93312 90.6455696,54.93312 L90.6455696,54.93312 Z" id="Path" fill="#262626"></path>
                        </g>
                    </g>
                </g>
            </g>
        </g>
    </g>
</svg>