<?xml version="1.0" encoding="UTF-8"?>
<svg width="109px" height="101px" viewBox="0 0 109 101" version="1.1" xmlns="http://www.w3.org/2000/svg" xmlns:xlink="http://www.w3.org/1999/xlink">
    <!-- Generator: Sketch 63.1 (92452) - https://sketch.com -->
    <title>Group 23</title>
    <desc>Created with Sketch.</desc>
    <g id="Page-1" stroke="none" stroke-width="1" fill="none" fill-rule="evenodd">
        <g id="Machine_learning" transform="translate(-239.000000, -843.000000)" fill-rule="nonzero">
            <g id="1" transform="translate(236.000000, 843.000000)">
                <g id="Group-23">
                    <path d="M91.1564197,11.6136109 C99.3853352,19.0135469 103.368373,30.9953611 101.710459,41.111986 C100.052545,51.2286108 92.7738969,59.4394987 87.3351297,68.6032551 C81.8963625,77.7670114 78.3379125,87.9039101 70.3718371,94.614537 C62.3855432,101.325164 49.9714053,104.629793 39.9430464,101.102152 C29.894469,97.5745114 22.2316705,87.2348748 16.04482,76.1653815 C9.83775111,65.0958881 5.1470671,53.3370857 6.23886424,41.8215689 C7.35087985,30.306052 14.2858135,19.0338207 23.8693662,11.8771703 C33.4529189,4.72051986 45.7255275,1.67945027 58.07901,1.53753369 C70.4527109,1.4158909 82.9275042,4.21367493 91.1564197,11.6136109 Z" id="Path" fill="#FFCCCD" opacity="0.300000012" transform="translate(54.080465, 52.033747) rotate(-94.000000) translate(-54.080465, -52.033747) "></path>
                    <g id="speaking" transform="translate(5.000000, 0.000000)">
                        <g id="speak">
                            <path d="M74.0803574,48.6476605 L65.175669,29.4093776 C65.0709816,21.6531269 61.5483251,14.3000013 55.2319181,8.66875078 C48.9725426,3.12968788 40.9162918,0.0492188044 32.5584787,0 C18.8717587,0 5.9006637,8.36015695 1.67878833,19.891408 C-1.37746195,26.2851586 0.400663213,38.6695347 1.83035094,48.6296919 C2.19675717,51.1796922 2.542851,53.5890672 2.77331983,55.6609426 L2.92410104,82.4070386 C2.93113224,83.2742262 3.6373823,83.9726637 4.50378858,83.9703199 L44.5108236,84.4567277 L44.531136,84.4567277 C44.9616048,84.4664138 45.3795736,84.3117263 45.6983237,84.0226637 C46.0139485,83.7375075 46.2014485,83.3375075 46.2186361,82.9125074 L46.2186361,72.0617252 L55.9701994,72.3632877 C58.3123872,72.4320377 60.5834812,71.5539126 62.2709813,69.9289125 C63.9584815,68.3031311 64.919419,66.0664121 64.938169,63.7234433 L65.0592628,51.0984422 L72.6694197,50.920317 C73.2077009,50.9070358 73.7037948,50.6234421 73.9881698,50.1656295 C74.2733262,49.7078168 74.307701,49.1375044 74.0803574,48.6484419 L74.0803574,48.6476605 Z M63.4319188,47.9359419 C62.5694188,47.9562543 61.8787937,48.6570356 61.8701999,49.5195356 L61.7272313,63.6906307 C61.7123875,65.1781308 61.0998874,66.596881 60.0264497,67.6265684 C58.9537934,68.6562561 57.5116059,69.2109438 56.024887,69.1656312 L33.2248849,68.4640685 C32.3428537,68.4390685 31.6053536,69.1320374 31.5764472,70.0140687 C31.5701972,70.9062563 32.2787911,71.6390688 33.1701973,71.6625064 L43.0186358,71.9632876 L43.0186358,81.2914135 L6.15847633,80.8187572 L5.99441371,55.5585988 C5.99050751,55.50313 5.98425751,55.4476612 5.97410131,55.3921926 C5.73816369,53.2500048 5.37878866,50.7843795 5.00378862,48.1734419 C3.6287885,38.6085973 1.91706975,26.7023462 4.59441359,21.2164081 C4.61863239,21.1648457 4.64050739,21.1125019 4.65925739,21.0593769 C6.46082015,16.0867202 10.2623829,11.5476572 15.3662896,8.27968834 C20.5030088,4.99765665 26.4631655,3.23671909 32.5584787,3.20000029 C40.1319168,3.24531269 47.4311362,6.03671934 53.1022305,11.056251 C58.8264496,16.1593764 61.9780125,22.803127 61.9780125,29.7656277 C61.9780125,29.9976589 62.0287937,30.2273465 62.1264499,30.4382839 L70.1514506,47.7765667 L63.4319188,47.9359419 Z" id="Shape" fill="#E2292F"></path>
                            <path d="M76.96,58.942 L86.6129216,30.3891836 L94.296,68.572 L95.7032353,58.9423038 L105.016732,58.9423038 C105.845159,58.9423038 106.516732,59.6138766 106.516732,60.4423038 C106.516732,61.2219999 105.921844,61.8627524 105.161192,61.9354372 L105.016732,61.9423038 L98.296,61.942 L94.765117,86.1138619 L85.876,41.935 L79.1142648,61.9423038 L71.1515687,61.9423038 C70.3231415,61.9423038 69.6515687,61.2707309 69.6515687,60.4423038 C69.6515687,59.6626076 70.2464568,59.0218551 71.0071087,58.9491703 L71.1515687,58.9423038 L76.96,58.942 Z" id="Path-2" fill="#262626"></path>
                        </g>
                    </g>
                </g>
            </g>
        </g>
    </g>
</svg>