<?xml version="1.0" encoding="UTF-8"?>
<svg width="102px" height="96px" viewBox="0 0 102 96" version="1.1" xmlns="http://www.w3.org/2000/svg" xmlns:xlink="http://www.w3.org/1999/xlink">
    <!-- Generator: Sketch 63.1 (92452) - https://sketch.com -->
    <title>Group 23</title>
    <desc>Created with Sketch.</desc>
    <g id="Page-1" stroke="none" stroke-width="1" fill="none" fill-rule="evenodd">
        <g id="Machine_learning" transform="translate(-239.000000, -2271.000000)" fill-rule="nonzero">
            <g id="1" transform="translate(236.000000, 2266.000000)">
                <g id="Group-23">
                    <path d="M91.1564197,11.6136109 C99.3853352,19.0135469 103.368373,30.9953611 101.710459,41.111986 C100.052545,51.2286108 92.7738969,59.4394987 87.3351297,68.6032551 C81.8963625,77.7670114 78.3379125,87.9039101 70.3718371,94.614537 C62.3855432,101.325164 49.9714053,104.629793 39.9430464,101.102152 C29.894469,97.5745114 22.2316705,87.2348748 16.04482,76.1653815 C9.83775111,65.0958881 5.1470671,53.3370857 6.23886424,41.8215689 C7.35087985,30.306052 14.2858135,19.0338207 23.8693662,11.8771703 C33.4529189,4.72051986 45.7255275,1.67945027 58.07901,1.53753369 C70.4527109,1.4158909 82.9275042,4.21367493 91.1564197,11.6136109 Z" id="Path" fill="#FFCCCD" opacity="0.300000012" transform="translate(54.080465, 52.033747) rotate(-94.000000) translate(-54.080465, -52.033747) "></path>
                    <g id="data-analytics" transform="translate(7.000000, 6.000000)">
                        <path d="M89.3,18.8 L86.1666667,18.8 L86.1666667,1.56666667 C86.1666667,0.701481071 85.4651856,0 84.6,0 L9.4,0 C8.5348144,0 7.83333333,0.701481071 7.83333333,1.56666667 L7.83333333,18.8 L4.7,18.8 C2.10444341,18.8 0,20.9044434 0,23.5 L0,73.6333333 C0,76.2288899 2.10444341,78.3333333 4.7,78.3333333 L39.1666667,78.3333333 L39.1666667,84.6 L32.9,84.6 C32.0348144,84.6 31.3333333,85.3014811 31.3333333,86.1666667 L31.3333333,90.8666667 L28.2,90.8666667 L28.2,94 L65.8,94 L65.8,90.8666667 L62.6666667,90.8666667 L62.6666667,86.1666667 C62.6666667,85.3014811 61.9651856,84.6 61.1,84.6 L54.8333333,84.6 L54.8333333,78.3333333 L89.3,78.3333333 C91.8955566,78.3333333 94,76.2288899 94,73.6333333 L94,23.5 C94,20.9044434 91.8955566,18.8 89.3,18.8 Z M83.0333333,61.1 L10.9666667,61.1 L10.9666667,15.6666667 L83.0333333,15.6666667 L83.0333333,61.1 Z M83.0333333,3.13333333 L83.0333333,12.5333333 L10.9666667,12.5333333 L10.9666667,3.13333333 L83.0333333,3.13333333 Z M4.7,21.9333333 L7.83333333,21.9333333 L7.83333333,62.6666667 C7.83333333,63.5318523 8.5348144,64.2333333 9.4,64.2333333 L84.6,64.2333333 C85.4651856,64.2333333 86.1666667,63.5318523 86.1666667,62.6666667 L86.1666667,21.9333333 L89.3,21.9333333 C90.1651856,21.9333333 90.8666667,22.6348144 90.8666667,23.5 L90.8666667,67.3666667 L3.13333333,67.3666667 L3.13333333,23.5 C3.13333333,22.6348144 3.8348144,21.9333333 4.7,21.9333333 Z M59.5333333,90.8666667 L34.4666667,90.8666667 L34.4666667,87.7333333 L59.5333333,87.7333333 L59.5333333,90.8666667 Z M51.7,84.6 L42.3,84.6 L42.3,78.3333333 L51.7,78.3333333 L51.7,84.6 Z M89.3,75.2 L4.7,75.2 C3.8348144,75.2 3.13333333,74.4985189 3.13333333,73.6333333 L3.13333333,70.5 L90.8666667,70.5 L90.8666667,73.6333333 C90.8666667,74.4985189 90.1651856,75.2 89.3,75.2 Z" id="Shape" fill="#E2292F"></path>
                        <polygon id="Path" fill="#262626" points="14.1 6.26666667 17.2333333 6.26666667 17.2333333 9.4 14.1 9.4"></polygon>
                        <polygon id="Path" fill="#262626" points="20.3666667 6.26666667 23.5 6.26666667 23.5 9.4 20.3666667 9.4"></polygon>
                        <polygon id="Path" fill="#262626" points="26.6333333 6.26666667 29.7666667 6.26666667 29.7666667 9.4 26.6333333 9.4"></polygon>
                        <path d="M48.5666667,20.3666667 C48.5666667,19.5014811 47.8651856,18.8 47,18.8 L40.7333333,18.8 C39.8681477,18.8 39.1666667,19.5014811 39.1666667,20.3666667 L39.1666667,42.3 L36.0333333,42.3 L36.0333333,25.0666667 C36.0333333,24.2014811 35.3318523,23.5 34.4666667,23.5 L28.2,23.5 C27.3348144,23.5 26.6333333,24.2014811 26.6333333,25.0666667 L26.6333333,42.3 L23.5,42.3 L23.5,32.9 C23.5,32.0348144 22.7985189,31.3333333 21.9333333,31.3333333 L15.6666667,31.3333333 C14.8014811,31.3333333 14.1,32.0348144 14.1,32.9 L14.1,42.3 L12.5333333,42.3 L12.5333333,45.4333333 L50.1333333,45.4333333 L50.1333333,42.3 L48.5666667,42.3 L48.5666667,20.3666667 Z M17.2333333,42.3 L17.2333333,34.4666667 L20.3666667,34.4666667 L20.3666667,42.3 L17.2333333,42.3 Z M29.7666667,42.3 L29.7666667,26.6333333 L32.9,26.6333333 L32.9,42.3 L29.7666667,42.3 Z M42.3,42.3 L42.3,21.9333333 L45.4333333,21.9333333 L45.4333333,42.3 L42.3,42.3 Z" id="Shape" fill="#262626"></path>
                        <path d="M75.2,45.4333333 L65.8,45.4333333 L65.8,36.0333333 C65.8,35.1681477 65.0985189,34.4666667 64.2333333,34.4666667 C57.311084,34.4666667 51.7,40.0777507 51.7,47 C51.7,53.9222493 57.311084,59.5333333 64.2333333,59.5333333 C71.1555826,59.5333333 76.7666667,53.9222493 76.7666667,47 C76.7666667,46.1348144 76.0651856,45.4333333 75.2,45.4333333 Z M64.2333333,56.4000042 C59.3436198,56.4045899 55.2663087,52.6592774 54.8578125,47.7863932 C54.4485514,42.9127441 57.8442708,38.5409181 62.6666667,37.7300455 L62.6666667,47 C62.6666667,47.8651856 63.3681477,48.5666667 64.2333333,48.5666667 L73.5032879,48.5666667 C72.732959,53.0868977 68.8185871,56.3938802 64.2333333,56.4000042 Z" id="Shape" fill="#262626"></path>
                        <path d="M68.9333333,29.7666667 C68.0681477,29.7666667 67.3666667,30.4681477 67.3666667,31.3333333 L67.3666667,42.3 C67.3666667,43.1651856 68.0681477,43.8666667 68.9333333,43.8666667 L79.9,43.8666667 C80.7651856,43.8666667 81.4666667,43.1651856 81.4666667,42.3 C81.459017,35.3815755 75.8517578,29.7743163 68.9333333,29.7666667 Z M70.5,40.7333333 L70.5,33.0300455 C74.4419108,33.7039877 77.5293457,36.7914226 78.2032879,40.7333333 L70.5,40.7333333 Z" id="Shape" fill="#262626"></path>
                        <path d="M18.8,48.5666667 C16.2044434,48.5666667 14.1,50.6711101 14.1,53.2666667 C14.1,55.8622233 16.2044434,57.9666667 18.8,57.9666667 C21.3955566,57.9666667 23.5,55.8622233 23.5,53.2666667 C23.5,50.6711101 21.3955566,48.5666667 18.8,48.5666667 Z M18.8,54.8333333 C17.9348144,54.8333333 17.2333333,54.1318523 17.2333333,53.2666667 C17.2333333,52.4014811 17.9348144,51.7 18.8,51.7 C19.6651856,51.7 20.3666667,52.4014811 20.3666667,53.2666667 C20.3666667,54.1318523 19.6651856,54.8333333 18.8,54.8333333 Z" id="Shape" fill="#262626"></path>
                        <polygon id="Path" fill="#262626" points="54.8333333 18.8 57.9666667 18.8 57.9666667 21.9333333 54.8333333 21.9333333"></polygon>
                        <polygon id="Path" fill="#262626" points="61.1 18.8 79.9 18.8 79.9 21.9333333 61.1 21.9333333"></polygon>
                        <polygon id="Path" fill="#262626" points="54.8333333 25.0666667 61.1 25.0666667 61.1 28.2 54.8333333 28.2"></polygon>
                        <polygon id="Path" fill="#262626" points="26.6333333 51.7 50.1333333 51.7 50.1333333 54.8333333 26.6333333 54.8333333"></polygon>
                    </g>
                </g>
            </g>
        </g>
    </g>
</svg>