<?xml version="1.0" encoding="UTF-8"?>
<svg width="102px" height="98px" viewBox="0 0 102 98" version="1.1" xmlns="http://www.w3.org/2000/svg" xmlns:xlink="http://www.w3.org/1999/xlink">
    <!-- Generator: Sketch 63.1 (92452) - https://sketch.com -->
    <title>Group 23</title>
    <desc>Created with Sketch.</desc>
    <g id="Page-1" stroke="none" stroke-width="1" fill="none" fill-rule="evenodd">
        <g id="Machine_learning" transform="translate(-584.000000, -6364.000000)" fill-rule="nonzero">
            <g id="1" transform="translate(238.000000, 5869.000000)">
                <g id="Group-6" transform="translate(343.000000, 490.000000)">
                    <g id="Group-23">
                        <path d="M91.1564197,11.6136109 C99.3853352,19.0135469 103.368373,30.9953611 101.710459,41.111986 C100.052545,51.2286108 92.7738969,59.4394987 87.3351297,68.6032551 C81.8963625,77.7670114 78.3379125,87.9039101 70.3718371,94.614537 C62.3855432,101.325164 49.9714053,104.629793 39.9430464,101.102152 C29.894469,97.5745114 22.2316705,87.2348748 16.04482,76.1653815 C9.83775111,65.0958881 5.1470671,53.3370857 6.23886424,41.8215689 C7.35087985,30.306052 14.2858135,19.0338207 23.8693662,11.8771703 C33.4529189,4.72051986 45.7255275,1.67945027 58.07901,1.53753369 C70.4527109,1.4158909 82.9275042,4.21367493 91.1564197,11.6136109 Z" id="Path" fill="#FFCCCD" opacity="0.300000012" transform="translate(54.080465, 52.033747) rotate(-94.000000) translate(-54.080465, -52.033747) "></path>
                        <g id="repair" transform="translate(4.000000, 5.000000)">
                            <path d="M89.4179635,37.6023416 L80.9953076,36.7906228 C80.1015576,33.2046856 78.6585891,29.7781232 76.7187454,26.6320296 L82.0874951,20.15078 C82.6148389,19.5148426 82.5710889,18.5828113 81.9874951,17.9992177 L72.8773395,8.88828067 C72.2937457,8.30468711 71.3617145,8.26171831 70.725777,8.78828068 L64.23984,14.158593 C61.0882776,12.2328117 57.6656216,10.7906244 54.0859344,9.88046821 L53.2734344,1.44609371 C53.194528,0.625781163 52.5046845,0 51.6804657,0 L39.2296853,0 C38.4054665,0 37.716404,0.625781163 37.6374978,1.44609371 L36.8242166,9.88046821 C33.2445292,10.7898432 29.8218732,12.2328117 26.6703108,14.158593 L20.1843738,8.78671828 C19.5492176,8.26015571 18.6171865,8.30312451 18.0328113,8.88671827 L8.92265567,17.9984365 C8.3390619,18.5828113 8.29531191,19.5148426 8.82265567,20.15078 L14.189843,26.6312484 C12.2484369,29.777342 10.804687,33.2046856 9.91015561,36.791404 L1.49218751,37.603904 C0.67343756,37.6835916 0.050781197,38.3734353 0.0546613044,39.1960915 L0.0546613044,52.1117157 C0.049999997,52.9335906 0.67265616,53.6242156 1.49140611,53.703903 L9.91953061,54.516403 C10.8281244,58.0953089 12.2695305,61.5187463 14.1945304,64.6703085 L8.82187447,71.1554646 C8.27109331,71.8203081 8.3468745,72.8023395 8.99374946,73.3749956 L15.9039053,79.4867141 C16.2453114,79.7890576 16.699999,79.9312452 17.1539052,79.877339 C17.6070302,79.8226514 18.0156239,79.5773391 18.2765613,79.2031203 L28.2078107,64.9531211 C28.6507795,64.3171838 28.5742171,63.4546838 28.0257795,62.9062463 C18.4976551,53.3781218 18.4968739,37.9289039 28.0257795,28.3999983 C37.5546854,18.8710927 53.003903,18.8710927 62.5328087,28.3999983 C72.0617145,37.9289039 72.0617145,53.3781218 62.5328087,62.9062463 C61.9773401,63.461715 61.9070275,64.3374962 62.3664025,64.9742149 L72.6468707,79.2234329 C72.9109333,79.5898391 73.3179644,79.827339 73.7671832,79.877339 C74.2164018,79.927339 74.6656205,79.7851514 75.0039017,79.4859329 L81.9164013,73.376558 C82.5632763,72.8046833 82.6398389,71.8218707 82.0882763,71.1562458 L76.717183,64.6703085 C78.6429641,61.5187463 80.0851514,58.0960903 80.9945264,54.516403 L89.4179635,53.703903 C90.2367134,53.6242156 90.8593696,52.9335906 90.8547085,52.1117157 L90.8547085,39.1945289 C90.8585884,38.3726539 90.2367134,37.682029 89.4179635,37.6023416 L89.4179635,37.6023416 Z M87.6546824,50.6578094 L79.5398391,51.4406219 C78.8507765,51.5070281 78.2835891,52.0109345 78.1359329,52.6874969 C77.2539016,56.6882778 75.6499955,60.4945276 73.4039018,63.92109 C73.0195268,64.50859 73.0632768,65.2781211 73.5109332,65.8179649 L78.6359329,72.0046833 L74.2085894,75.9187455 L65.7382773,64.1781212 C75.5460893,53.3585906 75.2320267,36.5734354 64.7953085,26.1367172 C54.0343718,15.3757803 36.5242166,15.3757803 25.7632797,26.1367172 C15.3210929,36.578904 15.0124991,53.3765592 24.8351547,64.1945274 L16.678124,75.8992143 L12.2734369,72.0039019 L17.3976552,65.8171837 C17.8453113,65.2757773 17.8882801,64.5070274 17.5039052,63.9195274 C15.2570303,60.4937464 13.652343,56.6874966 12.767968,52.6874969 C12.6226554,52.0117157 12.0570305,51.5078093 11.3695305,51.4406219 L3.25468741,50.6578094 L3.25468741,40.6492164 L11.3695305,39.8656226 C12.0617181,39.7984352 12.630468,39.2914039 12.7749992,38.6109353 C13.6359368,34.6093729 15.2398429,30.805467 17.5023428,27.3945296 C17.8914051,26.8062484 17.8492177,26.0328108 17.3992178,25.4898423 L12.2156243,19.2312489 L19.2656239,12.1804681 L25.5242173,17.3632802 C26.0648422,17.8117177 26.8343734,17.8546865 27.4210922,17.4695302 C30.8468732,15.2226553 34.6531229,13.617968 38.6531227,12.7343742 C39.3304665,12.5843742 39.8335914,12.0156243 39.8999976,11.3257805 L40.68281,3.20078101 L50.2273408,3.20078101 L51.0109346,11.3257805 C51.0773408,12.0156243 51.5804657,12.5843742 52.2570281,12.7343742 C56.257809,13.617968 60.0640588,15.2234367 63.48984,17.4703114 C64.0765586,17.8554677 64.8460899,17.8124989 65.3867149,17.3640614 L71.6445269,12.1812493 L78.6945265,19.2312489 L73.5117144,25.4898423 C73.0624956,26.0328108 73.0210894,26.8062484 73.4101518,27.3937484 C75.6734331,30.8046858 77.2773392,34.6093729 78.1390577,38.6109353 C78.2812453,39.2906227 78.8484329,39.7984352 79.5390577,39.8656226 L87.6546824,40.6484352 L87.6546824,50.6578094 Z" id="Shape" fill="#E2292F"></path>
                            <path d="M51.034372,73.8101518 L51.034372,49.515622 C55.0671843,47.186716 57.7148404,42.7656225 57.7148404,38.2093727 C57.7148404,31.9835919 54.1546844,27.4492172 48.1914033,26.0812484 C47.6945284,25.9671861 47.174216,26.0960922 46.7882784,26.4281234 C46.4031222,26.760936 46.1984348,27.2570296 46.2374972,27.7648421 L46.7664034,34.5546855 C45.4304661,35.2554667 43.8367162,35.2562479 42.4999975,34.5562479 L43.0687474,27.7289045 C43.1124974,27.2039046 42.8953098,26.6914046 42.4874975,26.3578108 C42.0796851,26.0242172 41.5343725,25.9124985 41.0289038,26.0593734 C35.5749979,27.6390608 32.1773419,32.3296857 32.1773419,38.3023415 C32.1773419,43.7843724 35.0539041,48.2187471 39.8539038,50.140622 L39.8539038,74.3414018 C36.453904,76.348433 33.178123,80.421089 33.2296856,85.6031199 C33.2296856,91.7781195 36.7499978,96.3429631 42.6359351,97.8156192 C43.135935,97.9406192 43.6648412,97.817963 44.0585912,97.4859318 C44.4523412,97.1539004 44.6624973,96.6531192 44.6234349,96.1398381 L44.0968724,89.3507759 C45.4320285,88.6499947 47.0265596,88.6492135 48.3632783,89.3484323 L47.7945284,96.1765567 C47.7507784,96.7015566 47.9679659,97.2140566 48.3757783,97.5476504 C48.7835909,97.8812442 49.3289033,97.992963 49.834372,97.846088 C55.2617155,96.2734319 58.6664027,91.6062445 58.7210905,85.6484325 C58.7218715,80.1656202 55.8078091,75.7320267 51.034372,73.8101518 L51.034372,73.8101518 Z M51.2054657,93.7804632 L51.6312469,88.6640571 C51.6765593,88.1195259 51.4414031,87.5898386 51.0070282,87.2585886 L50.946872,87.2124948 C48.1296847,85.0742137 44.2265598,85.0999949 41.4382787,87.2749948 C41.0195288,87.6054636 40.7929664,88.1234323 40.8343726,88.6554635 L41.2429663,93.9187444 C38.1624977,92.3835883 36.4398416,89.4507759 36.4398416,85.5874949 C36.3984354,81.3781201 39.3624977,78.0601515 42.1429663,76.7570266 C42.7031225,76.4929642 43.0585912,75.9273393 43.054685,75.3078079 L43.054685,49.0070283 C43.0585912,48.3031221 42.5999975,47.680466 41.9265599,47.4749972 C37.8867165,46.255466 35.3828103,42.7406225 35.3828103,38.3007789 C35.3828103,34.7249979 36.9734354,31.7687481 39.6554664,30.1234358 L39.2312477,35.2398417 C39.1859353,35.7851541 39.4218727,36.3156228 39.85781,36.6460916 L39.9171852,36.691404 C42.7304663,38.8289039 46.6296848,38.8062477 49.4171847,36.6367166 C49.4312471,36.625779 49.4468721,36.613279 49.4601533,36.6023416 C49.8585908,36.2703102 50.0710908,35.7656229 50.031247,35.2484355 L49.6171846,29.9289044 C52.7593719,31.4015605 54.516403,34.3210918 54.516403,38.2101539 C54.516403,41.8351537 52.1453093,45.4929661 48.7499971,47.105466 C48.1921847,47.3703096 47.8367159,47.9328095 47.8367159,48.5507783 L47.8367159,74.9429643 C47.8367159,75.6484331 48.2992159,76.2703079 48.9742159,76.4742142 C53.0148406,77.6945266 55.5234343,81.2093702 55.5234343,85.6343699 C55.4890591,89.1945259 53.885153,92.1406195 51.2062469,93.7804632 L51.2054657,93.7804632 Z" id="Shape" fill="#262626"></path>
                        </g>
                    </g>
                </g>
            </g>
        </g>
    </g>
</svg>