<?xml version="1.0" encoding="UTF-8"?>
<svg width="105px" height="96px" viewBox="0 0 105 96" version="1.1" xmlns="http://www.w3.org/2000/svg" xmlns:xlink="http://www.w3.org/1999/xlink">
    <!-- Generator: Sketch 63.1 (92452) - https://sketch.com -->
    <title>Group 23</title>
    <desc>Created with Sketch.</desc>
    <g id="Page-1" stroke="none" stroke-width="1" fill="none" fill-rule="evenodd">
        <g id="Machine_learning" transform="translate(-238.000000, -5886.000000)" fill-rule="nonzero">
            <g id="1" transform="translate(238.000000, 5869.000000)">
                <g id="Group-6" transform="translate(0.000000, 12.000000)">
                    <g id="Group-23">
                        <path d="M91.1564197,11.6136109 C99.3853352,19.0135469 103.368373,30.9953611 101.710459,41.111986 C100.052545,51.2286108 92.7738969,59.4394987 87.3351297,68.6032551 C81.8963625,77.7670114 78.3379125,87.9039101 70.3718371,94.614537 C62.3855432,101.325164 49.9714053,104.629793 39.9430464,101.102152 C29.894469,97.5745114 22.2316705,87.2348748 16.04482,76.1653815 C9.83775111,65.0958881 5.1470671,53.3370857 6.23886424,41.8215689 C7.35087985,30.306052 14.2858135,19.0338207 23.8693662,11.8771703 C33.4529189,4.72051986 45.7255275,1.67945027 58.07901,1.53753369 C70.4527109,1.4158909 82.9275042,4.21367493 91.1564197,11.6136109 Z" id="Path" fill="#FFCCCD" opacity="0.300000012" transform="translate(54.080465, 52.033747) rotate(-94.000000) translate(-54.080465, -52.033747) "></path>
                        <g id="recommend" transform="translate(0.000000, 5.000000)">
                            <path d="M64.2333333,50.5234333 L59.5333333,50.5234333 C59.1946456,50.5250346 58.8571354,50.5634478 58.52675,50.6379958 C58.3486654,50.5659666 58.1587482,50.5276511 57.9666667,50.525 L51.7,50.525 L51.7,40.4671958 C51.6953597,36.5061842 48.4854825,33.2963069 44.5244708,33.2916667 L42.3,33.2916667 C41.4347539,33.2916667 40.7333333,33.9930872 40.7333333,34.8583333 L40.7333333,40.451725 C40.7334949,42.661191 40.1338781,44.8292603 38.9984458,46.7246583 L36.5278125,50.8330458 L29.4684125,53.6567667 L20.3666667,53.6567667 C19.5014206,53.6567667 18.8,54.3581872 18.8,55.2234333 L18.8,75.5901 C18.8,76.4553461 19.5014206,77.1567667 20.3666667,77.1567667 L29.7590292,77.1567667 C29.7617708,77.1567667 29.763925,77.1583333 29.7666667,77.1583333 L35.8406333,77.1583333 L41.920475,78.6776083 C42.0444629,78.7094296 42.1719942,78.7250058 42.3,78.7250058 L56.4,78.7250058 C56.5941338,78.7226824 56.7861087,78.6839553 56.9659583,78.6108292 C57.2945114,78.6842199 57.6300197,78.7219728 57.9666667,78.7234333 L62.6666667,78.7234333 C65.2612417,78.7206271 67.3638604,76.6180084 67.3666667,74.0234333 C67.3615858,73.2136801 67.1448056,72.4193368 66.7378458,71.7192583 C67.913242,70.9879105 68.702085,69.7712981 68.8901694,68.3997843 C69.0782539,67.0282705 68.6460579,65.6442092 67.7109417,64.6234333 C69.3408205,62.8524772 69.3408205,60.1277228 67.7109417,58.3567667 C68.9619548,56.984293 69.2831999,55.002008 68.5296722,53.3046825 C67.7761445,51.6073569 66.0903912,50.5160789 64.2333333,50.5234333 L64.2333333,50.5234333 Z M28.2,74.0234333 L21.9333333,74.0234333 L21.9333333,56.7901 L28.2,56.7901 L28.2,74.0234333 Z M56.055725,64.6234333 C54.6814692,66.1072748 54.4403956,68.3157511 55.4621542,70.0611375 C54.0986909,70.9174691 53.2698238,72.4133632 53.2666667,74.0234333 C53.2718825,74.5589505 53.369742,75.0895249 53.5559125,75.5916667 L42.4927,75.5916667 L36.4128583,74.0723917 C36.2888704,74.0405704 36.1613391,74.0246454 36.0333333,74.025 L31.3333333,74.025 L31.3333333,56.2852417 L38.1814292,53.5467083 C38.2019917,53.5384833 38.2147208,53.5206625 38.2348917,53.5116542 C38.404438,53.4396222 38.559757,53.3378889 38.6935333,53.2112458 C38.7054792,53.1994958 38.7131167,53.1850042 38.724475,53.1720792 C38.8074634,53.0892026 38.8808422,52.9972327 38.9432208,52.8979125 L41.6864542,48.3349958 C43.1120621,45.9524702 43.8654929,43.2281949 43.8666667,40.451725 L43.8666667,36.425 L44.5244708,36.425 C46.7559743,36.4272669 48.5643998,38.2356924 48.5666667,40.4671958 L48.5666667,53.0539917 C48.5807301,57.5128052 45.8637681,61.5256637 41.7185708,63.1683917 C40.9149735,63.4895061 40.5238439,64.4012652 40.8449584,65.2048625 C41.1660728,66.0084598 42.0778319,66.3995894 42.8814292,66.078475 C48.0061439,64.0395242 51.4460058,59.1698161 51.6547625,53.6583333 L55.1210125,53.6583333 C54.516474,55.2749205 54.878209,57.0943641 56.0551375,58.3567667 C54.4252587,60.1277228 54.4252587,62.8524772 56.0551375,64.6234333 L56.055725,64.6234333 Z M62.6666667,75.5901 L57.9666667,75.5901 C57.1014206,75.5901 56.4,74.8886794 56.4,74.0234333 C56.4,73.1581872 57.1014206,72.4567667 57.9666667,72.4567667 L62.6666667,72.4567667 C63.5319128,72.4567667 64.2333333,73.1581872 64.2333333,74.0234333 C64.2333333,74.8886794 63.5319128,75.5901 62.6666667,75.5901 L62.6666667,75.5901 Z M64.2333333,69.3234333 L59.5333333,69.3234333 C58.6680872,69.3234333 57.9666667,68.6220128 57.9666667,67.7567667 C57.9666667,66.8915206 58.6680872,66.1901 59.5333333,66.1901 L64.2333333,66.1901 C65.0985794,66.1901 65.8,66.8915206 65.8,67.7567667 C65.8,68.6220128 65.0985794,69.3234333 64.2333333,69.3234333 L64.2333333,69.3234333 Z M64.2333333,63.0567667 L59.5333333,63.0567667 C58.6680872,63.0567667 57.9666667,62.3553461 57.9666667,61.4901 C57.9666667,60.6248539 58.6680872,59.9234333 59.5333333,59.9234333 L64.2333333,59.9234333 C65.0985794,59.9234333 65.8,60.6248539 65.8,61.4901 C65.8,62.3553461 65.0985794,63.0567667 64.2333333,63.0567667 L64.2333333,63.0567667 Z M64.2333333,56.7901 L59.5333333,56.7901 C58.6680872,56.7901 57.9666667,56.0886794 57.9666667,55.2234333 C57.9666667,54.3581872 58.6680872,53.6567667 59.5333333,53.6567667 L64.2333333,53.6567667 C65.0985794,53.6567667 65.8,54.3581872 65.8,55.2234333 C65.8,56.0886794 65.0985794,56.7901 64.2333333,56.7901 L64.2333333,56.7901 Z" id="Shape" fill="#E2292F"></path>
                            <path d="M37.3275958,19.1855958 L40.3203208,21.357975 L39.1774375,24.8739667 C38.7573836,26.1652383 39.2168584,27.5801187 40.3154268,28.3782258 C41.4139952,29.176333 42.901612,29.1760097 43.9998333,28.377425 L46.9907958,26.203675 L49.983325,28.377425 C51.0759664,29.1907385 52.5726378,29.1913752 53.6659708,28.3789917 C54.7768803,27.5901787 55.2394601,26.1664707 54.80435,24.8753375 L53.6614667,21.357975 L56.6545833,19.1855958 C57.7527568,18.3873471 58.2122071,16.9728662 57.7927298,15.6816556 C57.3732525,14.3904449 56.1702148,13.5160587 54.812575,13.5156333 L51.1146542,13.5170042 L49.9717708,9.99964167 L49.9717708,9.99827083 C49.5523976,8.70671911 48.3488173,7.83229965 46.9908851,7.83261186 C45.632953,7.83292423 44.429775,8.70789719 44.0109958,9.99964167 L42.8679167,13.5156333 L39.1698,13.5156333 C37.8123982,13.5164951 36.6097552,14.3908613 36.190311,15.6818326 C35.7708669,16.9728039 36.2299213,18.3870654 37.3275958,19.1855958 L37.3275958,19.1855958 Z M42.8679167,16.6489667 C44.2261742,16.6513296 45.4305765,15.7764582 45.8483042,14.4840292 L46.9841375,10.9482583 C46.9870967,10.9546172 46.9896478,10.9611583 46.991775,10.9678417 L48.1346583,14.4836375 C48.5524916,15.7759899 49.7568285,16.6508138 51.1150458,16.648575 L54.8129667,16.648575 L51.8175,18.8244792 C50.7194557,19.6212645 50.2606323,21.0353108 50.6816667,22.325 L51.8261167,25.8439292 L48.8320208,23.6682208 C47.7341855,22.8706824 46.2475104,22.8713151 45.1503542,23.6697875 L42.1591958,25.8423625 L43.3005125,22.325 C43.722313,21.0338677 43.2623898,19.6180923 42.1623292,18.8213458 L39.1698,16.6489667 L42.8679167,16.6489667 Z" id="Shape" fill="#E2292F"></path>
                            <path d="M23.5092042,37.1701458 L26.5001667,39.3456583 C27.5984173,40.1443196 29.0861212,40.1446477 30.184724,39.3464709 C31.2833268,38.5482941 31.7427488,37.133305 31.3225625,35.8420042 L30.1796792,32.3246417 L33.1724042,30.1508917 C34.2707964,29.352993 34.7303976,27.9385071 34.3107839,26.647371 C33.8911703,25.356235 32.6878111,24.4822041 31.3302,24.4824958 L27.632475,24.4838667 L26.4895917,20.9665042 L26.4895917,20.9651333 C26.0702184,19.6735816 24.8666381,18.7991621 23.508706,18.7994744 C22.1507738,18.7997867 20.9475958,19.6747597 20.5288167,20.9665042 L19.3859333,24.4824958 L15.6880125,24.4824958 C14.3303754,24.4827835 13.1272509,25.3570441 12.7076403,26.6482085 C12.2880297,27.9393729 12.7473303,29.3538986 13.8454167,30.1522625 L16.8379458,32.3246417 L15.6950625,35.8406333 C15.2595518,37.1322896 15.7221338,38.5567209 16.8334417,39.34605 C17.9267747,40.1584335 19.4234461,40.1577968 20.5160875,39.3444833 L23.5092042,37.1701458 Z M18.6807375,29.7872292 L15.6880125,27.6156333 L19.3859333,27.6156333 C20.7441507,27.6178721 21.9484876,26.7430483 22.3663208,25.4506958 L23.5021542,21.914925 C23.5021542,21.914925 23.5050917,21.9211917 23.5097917,21.9345083 L24.652675,25.4503042 C25.0701544,26.742544 26.2740814,27.6175157 27.6320833,27.6156333 L31.3298083,27.6156333 L28.3372792,29.7893833 C27.2371673,30.5854676 26.7772921,32.0010284 27.1994875,33.2916667 L28.3423708,36.8105958 L25.3496458,34.6348875 C24.2518305,33.8372874 22.7651153,33.83792 21.6679792,34.6364542 L18.6768208,36.8090292 L19.8183333,33.2916667 C20.2389559,32.0006609 19.7795288,30.5856822 18.6807375,29.7880125 L18.6807375,29.7872292 Z" id="Shape" fill="#E2292F"></path>
                            <path d="M73.4895917,20.9663083 L73.4895917,20.9649375 C73.0702184,19.6733858 71.8666381,18.7989663 70.508706,18.7992785 C69.1507738,18.7995909 67.9475958,19.6745639 67.5288167,20.9663083 L66.3859333,24.4823 L62.6880125,24.4823 C61.3303727,24.4827254 60.127335,25.3571116 59.7078577,26.6483222 C59.2883804,27.9395329 59.7478307,29.3540137 60.8460042,30.1522625 L63.8385333,32.3246417 L62.69565,35.8406333 C62.2601393,37.1322896 62.7227213,38.5567209 63.8340292,39.34605 C64.9273622,40.1584335 66.4240336,40.1577968 67.516675,39.3444833 L70.5092042,37.1707333 L73.5001667,39.3462458 C74.5984173,40.1449071 76.0861212,40.1452352 77.184724,39.3470584 C78.2833268,38.5488816 78.7427488,37.1338925 78.3225625,35.8425917 L77.1796792,32.3252292 L80.1724042,30.1514792 C81.2707964,29.3535805 81.7303976,27.9390946 81.3107839,26.6479585 C80.8911703,25.3568225 79.6878111,24.4827916 78.3302,24.4830833 L74.632475,24.4844542 L73.4895917,20.9663083 Z M75.3376708,29.7895792 C74.2374998,30.5855308 73.7774698,32.0010016 74.1994875,33.2916667 L75.3423708,36.8105958 L72.3496458,34.6348875 C71.2518305,33.8372874 69.7651153,33.83792 68.6679792,34.6364542 L65.6768208,36.8090292 L66.8183333,33.2916667 C67.238832,32.0005336 66.7791578,30.5855247 65.68015,29.7880125 L62.687425,27.6156333 L66.3853458,27.6156333 C67.7435632,27.6178721 68.9479001,26.7430483 69.3657333,25.4506958 L70.5015667,21.914925 C70.5015667,21.914925 70.5045042,21.9211917 70.5092042,21.9345083 L71.6520875,25.4503042 C72.0696332,26.7427504 73.2738649,27.6177711 74.6320833,27.6156333 L78.3298083,27.6156333 L75.3376708,29.7895792 Z" id="Shape" fill="#E2292F"></path>
                            <path d="M47,0 C21.0842,0 0,21.0842 0,47 C0,72.9158 21.0842,94 47,94 C72.9158,94 94,72.9158 94,47 C94,21.0842 72.9158,0 47,0 Z M47,90.8666667 C22.81145,90.8666667 3.13333333,71.18855 3.13333333,47 C3.13333333,22.81145 22.81145,3.13333333 47,3.13333333 C71.18855,3.13333333 90.8666667,22.81145 90.8666667,47 C90.8666667,71.18855 71.18855,90.8666667 47,90.8666667 Z" id="Shape" fill="#262626"></path>
                            <path d="M81.4666667,47 C81.4720843,53.3454696 79.7220791,59.5687647 76.41025,64.9814167 C76.1073615,65.4589267 76.0853001,66.0626034 76.3525259,66.5609483 C76.6197517,67.0592932 77.1347907,67.3749623 77.7001355,67.3869025 C78.2654802,67.3988428 78.7933881,67.1052011 79.0814167,66.6185833 C82.6957072,60.7134361 84.6056941,53.923426 84.6000127,47 C84.5997918,45.3608775 84.4934932,43.7234869 84.2817708,42.0980958 C84.2255142,41.5297077 83.8643905,41.0369751 83.3393224,40.8121789 C82.8142543,40.5873826 82.208456,40.666149 81.7583304,41.0177407 C81.3082047,41.3693325 81.0850888,41.9380284 81.17605,42.5019042 C81.3693134,43.9934828 81.4663862,45.4959529 81.4666667,47 L81.4666667,47 Z" id="Path" fill="#262626"></path>
                            <path d="M12.5333333,47 C12.5336138,45.4959529 12.6306866,43.9934828 12.82395,42.5019042 C12.9149112,41.9380284 12.6917953,41.3693325 12.2416696,41.0177407 C11.791544,40.666149 11.1857457,40.5873826 10.6606776,40.8121789 C10.1356095,41.0369751 9.77448585,41.5297077 9.71822917,42.0980958 C9.50650681,43.7234869 9.40020823,45.3608775 9.4,47 C9.39064407,52.0561263 10.4071539,57.0615946 12.388025,61.7135458 C12.7370259,62.4928743 13.6458412,62.8491836 14.4315164,62.5147152 C15.2171915,62.1802468 15.5903164,61.278205 15.2704958,60.4864542 C13.4556309,56.2222782 12.5244738,51.6343126 12.5333333,47 L12.5333333,47 Z" id="Path" fill="#262626"></path>
                        </g>
                    </g>
                </g>
            </g>
        </g>
    </g>
</svg>