<?xml version="1.0" encoding="UTF-8"?>
<svg width="102px" height="96px" viewBox="0 0 102 96" version="1.1" xmlns="http://www.w3.org/2000/svg" xmlns:xlink="http://www.w3.org/1999/xlink">
    <!-- Generator: Sketch 63.1 (92452) - https://sketch.com -->
    <title>Group 23</title>
    <desc>Created with Sketch.</desc>
    <g id="Page-1" stroke="none" stroke-width="1" fill="none" fill-rule="evenodd">
        <g id="Machine_learning" transform="translate(-584.000000, -5886.000000)" fill-rule="nonzero">
            <g id="1" transform="translate(238.000000, 5869.000000)">
                <g id="Group-6" transform="translate(343.000000, 12.000000)">
                    <g id="Group-23">
                        <g id="Group-20" transform="translate(0.080465, 0.533747)">
                            <path d="M91.0759542,11.0798635 C99.3048697,18.4797995 103.287907,30.4616137 101.629993,40.5782385 C99.9720791,50.6948634 92.6934315,58.9057513 87.2546642,68.0695076 C81.815897,77.233264 78.2574471,87.3701626 70.2913716,94.0807895 C62.3050777,100.791416 49.8909398,104.096045 39.8625809,100.568405 C29.8140035,97.0407639 22.1512051,86.7011273 15.9643546,75.631634 C9.75728565,64.5621407 5.06660164,52.8033383 6.15839878,41.2878214 C7.27041439,29.7723046 14.2053481,18.5000733 23.7889008,11.3434229 C33.3724535,4.18677243 45.6450621,1.14570284 57.9985445,1.00378626 C70.3722455,0.882143473 82.8470387,3.6799275 91.0759542,11.0798635 Z" id="Path" fill="#FFCCCD" opacity="0.300000012" transform="translate(54.000000, 51.500000) rotate(-94.000000) translate(-54.000000, -51.500000) "></path>
                            <g id="emotion" transform="translate(3.919535, 15.466253)">
                                <path d="M37.9182673,57.6961107 C38.6705706,57.6961107 39.2802364,57.0862629 39.2802364,56.3341416 L39.2802364,53.6807944 C39.2802364,52.9286731 38.6705706,52.3188253 37.9182673,52.3188253 C37.1659641,52.3188253 36.5562982,52.9286731 36.5562982,53.6807944 L36.5562982,56.3341416 C36.5562982,57.0862629 37.1659641,57.6961107 37.9182673,57.6961107 Z" id="Path" fill="#E2292F"></path>
                                <path d="M56.5337248,56.3341416 L56.5337248,53.6807944 C56.5337248,52.9286731 55.924059,52.3188253 55.1717557,52.3188253 C54.4194525,52.3188253 53.8097867,52.9286731 53.8097867,53.6807944 L53.8097867,56.3341416 C53.8097867,57.0862629 54.4194525,57.6961107 55.1717557,57.6961107 C55.924059,57.6961107 56.5337248,57.0862629 56.5337248,56.3341416 Z" id="Path" fill="#E2292F"></path>
                                <path d="M37.9182673,64.554169 L55.1717557,64.554169 C55.924059,64.554169 56.5337248,63.9443213 56.5337248,63.1921999 C56.5337248,62.4400786 55.924059,61.8302308 55.1717557,61.8302308 L37.9182673,61.8302308 C37.1659641,61.8302308 36.5562982,62.4400786 36.5562982,63.1921999 C36.5562982,63.9443213 37.1659641,64.554169 37.9182673,64.554169 L37.9182673,64.554169 Z" id="Path" fill="#E2292F"></path>
                                <path d="M41.1927423,20.7495608 C41.1927423,9.39260166 31.9531484,0.153007748 20.5961892,0.153007748 C9.23923004,0.153007748 -2.58545883e-15,9.39260166 -2.58545883e-15,20.7495608 C-2.58545883e-15,32.10652 9.23941198,41.3461139 20.5963711,41.3461139 C31.9533303,41.3461139 41.1927423,32.10652 41.1927423,20.7495608 Z M20.5963711,38.6221757 C10.7414714,38.6221757 2.72393817,30.6046425 2.72393817,20.7495608 C2.72393817,10.8946611 10.7414714,2.87694592 20.5963711,2.87694592 C30.4512709,2.87694592 38.468986,10.8944791 38.468986,20.7495608 C38.468986,30.6046425 30.4512709,38.6221757 20.5963711,38.6221757 Z" id="Shape" fill="#E2292F"></path>
                                <path d="M13.331505,19.6010021 L13.331505,16.9476549 C13.331505,16.1955335 12.7218392,15.5856858 11.969536,15.5856858 C11.2172327,15.5856858 10.6075669,16.1955335 10.6075669,16.9476549 L10.6075669,19.6010021 C10.6075669,20.3531234 11.2172327,20.9629712 11.969536,20.9629712 C12.7218392,20.9629712 13.331505,20.3533053 13.331505,19.6010021 Z" id="Path" fill="#E2292F"></path>
                                <path d="M29.2232063,15.5856858 C28.4709031,15.5856858 27.8612372,16.1955335 27.8612372,16.9476549 L27.8612372,19.6010021 C27.8612372,20.3531234 28.4709031,20.9629712 29.2232063,20.9629712 C29.9755096,20.9629712 30.5851754,20.3531234 30.5851754,19.6010021 L30.5851754,16.9476549 C30.5851754,16.1955335 29.9755096,15.5856858 29.2232063,15.5856858 L29.2232063,15.5856858 Z" id="Path" fill="#E2292F"></path>
                                <path d="M28.4083173,25.2379094 C27.7835508,24.8200036 26.9375507,24.9875662 26.5190991,25.6130604 C25.2060707,27.5763263 23.0146577,28.7710966 20.6567737,28.8091211 C18.2675969,28.8467818 16.0288806,27.7033172 14.6558135,25.7486023 C14.2237167,25.1332965 13.3742599,24.9846552 12.7585902,25.4169339 C12.1431024,25.8492126 11.9944611,26.6986694 12.4267398,27.3143391 C14.2886677,29.9647754 17.3120717,31.533969 20.5401531,31.533969 C20.5934602,31.533969 20.6471311,31.5336051 20.7008021,31.5326954 C23.9519893,31.480298 26.973574,29.833418 28.7832863,27.1273095 C29.201556,26.5019972 29.0336295,25.6561791 28.4083173,25.2379094 L28.4083173,25.2379094 Z" id="Path" fill="#E2292F"></path>
                                <path d="M72.5546003,0.153189684 C67.3121291,0.153189684 62.3172722,2.12409686 58.4900772,5.70276797 C57.94045,6.21637186 57.9115223,7.07820028 58.4253081,7.6278274 C58.939094,8.17709065 59.8011043,8.20638226 60.3503676,7.6924145 C63.671418,4.58732147 68.0054853,2.87712786 72.5546003,2.87712786 C82.4095,2.87712786 90.4270333,10.8946611 90.4270333,20.7497428 C90.4270333,30.6046425 82.4095,38.6223577 72.5546003,38.6223577 C62.6997006,38.6223577 54.6819854,30.6048244 54.6819854,20.7497428 C54.6819854,17.7996588 55.4153674,14.8768651 56.8028074,12.2973837 C57.1590371,11.6349566 56.9108771,10.8091514 56.24845,10.4527398 C55.5862048,10.096692 54.7602177,10.3446701 54.403806,11.0070972 C52.8038653,13.9819244 51.9582292,17.3508239 51.9582292,20.7497428 C51.9582292,32.1067019 61.1978231,41.3462958 72.5547822,41.3462958 C83.9117414,41.3462958 93.1509714,32.10652 93.1509714,20.7495608 C93.1509714,9.39260166 83.9115595,0.153189684 72.5546003,0.153189684 Z" id="Path" fill="#262626"></path>
                                <path d="M63.9277651,15.5856858 C63.1754619,15.5856858 62.565796,16.1955335 62.565796,16.9476549 L62.565796,19.6010021 C62.565796,20.3531234 63.1754619,20.9629712 63.9277651,20.9629712 C64.6800684,20.9629712 65.2897342,20.3531234 65.2897342,19.6010021 L65.2897342,16.9476549 C65.2897342,16.1955335 64.6800684,15.5856858 63.9277651,15.5856858 L63.9277651,15.5856858 Z" id="Path" fill="#262626"></path>
                                <path d="M82.5434046,19.6010021 L82.5434046,16.9476549 C82.5434046,16.1955335 81.9337387,15.5856858 81.1814355,15.5856858 C80.4291322,15.5856858 79.8194664,16.1955335 79.8194664,16.9476549 L79.8194664,19.6010021 C79.8194664,20.3531234 80.4291322,20.9629712 81.1814355,20.9629712 C81.9337387,20.9629712 82.5434046,20.3533053 82.5434046,19.6010021 Z" id="Path" fill="#262626"></path>
                                <path d="M72.5094803,24.0183958 C69.2581111,24.0707932 66.2367084,25.7176733 64.4269961,28.4237818 C64.0089083,29.0490941 64.1768348,29.8949122 64.8021471,30.3129999 C65.0346606,30.4685548 65.2975574,30.5429664 65.5579071,30.5429664 C65.9972813,30.5429664 66.4286504,30.3306477 66.6911833,29.9380309 C68.0042117,27.974765 70.1958067,26.7799946 72.5535087,26.7419701 C74.9317694,26.7012165 77.1814018,27.8475921 78.5544689,29.8024889 C78.9867477,30.4179767 79.8362045,30.5669819 80.4518742,30.1341573 C81.0673619,29.7018786 81.2160032,28.8524218 80.7837245,28.2367521 C78.8908677,25.5424694 75.7939617,23.9634513 72.5094803,24.0183958 L72.5094803,24.0183958 Z" id="Path" fill="#262626"></path>
                                <path d="M46.5754857,36.8861473 C35.2187085,36.8861473 25.9789326,46.1257412 25.9789326,57.4827003 C25.9789326,68.8396595 35.2187085,78.0790715 46.5754857,78.0790715 C47.4944419,78.0790715 48.4188561,78.0179412 49.3230755,77.897136 C50.0686472,77.7976173 50.5924394,77.1126302 50.4929207,76.3670585 C50.3930381,75.6213049 49.7071413,75.0973307 48.9626613,75.1972133 C48.1774277,75.3020082 47.3741825,75.3551333 46.5753038,75.3551333 C36.720404,75.3551333 28.7026889,67.3376001 28.7026889,57.4825184 C28.7026889,47.6276187 36.7202221,39.6099035 46.5753038,39.6099035 C56.4303855,39.6099035 64.4479187,47.6274367 64.4479187,57.4825184 C64.4479187,64.2870877 60.6672992,70.4117641 54.5811931,73.466461 C53.9089415,73.8039513 53.6374937,74.6224791 53.9748021,75.2945488 C54.3121105,75.9668004 55.1308203,76.2382482 55.80289,75.9009398 C62.8154115,72.3812158 67.1716749,65.3235742 67.1716749,57.4825184 C67.1716749,46.1257412 57.9322629,36.8861473 46.5754857,36.8861473 L46.5754857,36.8861473 Z" id="Path" fill="#262626"></path>
                            </g>
                        </g>
                    </g>
                </g>
            </g>
        </g>
    </g>
</svg>