<?xml version="1.0" encoding="UTF-8"?>
<svg width="105px" height="96px" viewBox="0 0 105 96" version="1.1" xmlns="http://www.w3.org/2000/svg" xmlns:xlink="http://www.w3.org/1999/xlink">
    <!-- Generator: Sketch 63.1 (92452) - https://sketch.com -->
    <title>Group 23</title>
    <desc>Created with Sketch.</desc>
    <g id="Page-1" stroke="none" stroke-width="1" fill="none" fill-rule="evenodd">
        <g id="Machine_learning" transform="translate(-924.000000, -5886.000000)" fill-rule="nonzero">
            <g id="1" transform="translate(238.000000, 5869.000000)">
                <g id="Group-6" transform="translate(686.000000, 12.000000)">
                    <g id="Group-23">
                        <path d="M91.1564197,11.6136109 C99.3853352,19.0135469 103.368373,30.9953611 101.710459,41.111986 C100.052545,51.2286108 92.7738969,59.4394987 87.3351297,68.6032551 C81.8963625,77.7670114 78.3379125,87.9039101 70.3718371,94.614537 C62.3855432,101.325164 49.9714053,104.629793 39.9430464,101.102152 C29.894469,97.5745114 22.2316705,87.2348748 16.04482,76.1653815 C9.83775111,65.0958881 5.1470671,53.3370857 6.23886424,41.8215689 C7.35087985,30.306052 14.2858135,19.0338207 23.8693662,11.8771703 C33.4529189,4.72051986 45.7255275,1.67945027 58.07901,1.53753369 C70.4527109,1.4158909 82.9275042,4.21367493 91.1564197,11.6136109 Z" id="Path" fill="#FFCCCD" opacity="0.300000012" transform="translate(54.080465, 52.033747) rotate(-94.000000) translate(-54.080465, -52.033747) "></path>
                        <g id="report" transform="translate(0.000000, 9.000000)">
                            <path d="M71.4285714,54.2857142 L62.8571429,54.2857142 C62.4782317,54.2857142 62.1148111,54.4360926 61.8468804,54.7040233 C61.5789497,54.971954 61.4284719,55.3353745 61.4285714,55.7142857 L61.4285714,61.4285714 L54.2857143,61.4285714 C53.9068031,61.4284719 53.5433825,61.5789497 53.2754519,61.8468804 C53.0075212,62.1148111 52.8570434,62.4782317 52.8571429,62.8571429 L52.8571429,68.5714286 L45.7142857,68.5714286 L45.7142857,64.2857142 C45.7143852,63.9068031 45.5639074,63.5433825 45.2959767,63.2754519 C45.028046,63.0075212 44.6646255,62.8570434 44.2857143,62.8571429 L35.7142857,62.8571429 C35.3353745,62.8570434 34.971954,63.0075212 34.7040233,63.2754519 C34.4360926,63.5433825 34.2856148,63.9068031 34.2857143,64.2857142 L34.2857143,67.1428571 L27.1428571,67.1428571 C26.7639459,67.1427576 26.4005254,67.2932355 26.1325947,67.5611661 C25.864664,67.8290968 25.7142857,68.1925174 25.7142857,68.5714286 L25.7142857,78.5714286 C25.7142857,78.9503398 25.864664,79.3137603 26.1325947,79.581691 C26.4005254,79.8496217 26.7639459,80 27.1428571,80 L71.4285714,80 C71.8074826,80 72.1709032,79.8496217 72.4388339,79.581691 C72.7067645,79.3137603 72.8571429,78.9503398 72.8571429,78.5714286 L72.8571429,55.7142857 C72.8571429,55.3353745 72.7067645,54.971954 72.4388339,54.7040233 C72.1709032,54.4360926 71.8074826,54.2857142 71.4285714,54.2857142 Z M34.2857143,77.1428571 L28.5714286,77.1428571 L28.5714286,70 L34.2857143,70 L34.2857143,77.1428571 Z M42.8571429,77.1428571 L37.1428571,77.1428571 L37.1428571,65.7142857 L42.8571429,65.7142857 L42.8571429,77.1428571 Z M52.8571429,77.1428571 L45.7142857,77.1428571 L45.7142857,71.4285714 L52.8571429,71.4285714 L52.8571429,77.1428571 Z M55.7142857,64.2857143 L61.4285714,64.2857143 L61.4285714,77.1428571 L55.7142857,77.1428571 L55.7142857,64.2857143 Z M70,77.1428571 L64.2857143,77.1428571 L64.2857143,57.1428571 L70,57.1428571 L70,77.1428571 Z" id="Shape" fill="#262626"></path>
                            <path d="M68.5714286,40 L68.5714286,45.7142857 L65.7142857,45.7142857 L65.7142857,43.4500125 L49.5821714,59.5821268 C49.0235177,60.1392913 48.1193395,60.1392913 47.5606857,59.5821268 L40,52.0196536 L31.0106982,61.0106982 L28.9893018,58.9892571 L38.9893018,48.9892571 C39.5479565,48.432137 40.4520882,48.432137 41.0107429,48.9892571 L48.5714286,56.551775 L63.6928893,41.4285714 L61.4285714,41.4285714 L61.4285714,38.5714285 L67.1428571,38.5714285 C67.5217683,38.5714285 67.8851889,38.7218069 68.1531196,38.9897376 C68.4210503,39.2576683 68.5714286,39.6210888 68.5714286,40 Z" id="Path" fill="#E2292F"></path>
                            <path d="M79.5821714,17.5606857 L62.4393143,0.417828571 C62.1710751,0.150124275 61.8075408,-1.21796663e-07 61.4285714,-1.21796663e-07 L18.5714286,-1.21796663e-07 C18.1925174,-1.21796663e-07 17.8290968,0.150378315 17.5611661,0.418309 C17.2932355,0.686239685 17.1428571,1.04966023 17.1428571,1.42857143 L17.1428571,12.8571429 L20,12.8571429 L20,2.85714286 L60,2.85714286 L60,18.5714286 C59.9999005,18.9503398 60.1503783,19.3137603 60.418309,19.581691 C60.6862397,19.8496217 61.0496602,20.0000995 61.4285714,19.9999999 L77.1428571,19.9999999 L77.1428571,82.8571429 L20,82.8571429 L20,55.7142857 L17.1428571,55.7142857 L17.1428571,84.2857143 C17.1428571,84.6646255 17.2932355,85.028046 17.5611661,85.2959767 C17.8290968,85.5639074 18.1925174,85.7142858 18.5714286,85.7142858 L78.5714286,85.7142858 C78.9503398,85.7142858 79.3137603,85.5639074 79.581691,85.2959767 C79.8496217,85.028046 80.0000001,84.6646255 80.0000001,84.2857143 L80.0000001,18.5714286 C80.0000001,18.1924592 79.8498757,17.8289249 79.5821714,17.5606857 Z M62.8571429,17.1428571 L62.8571429,4.87679643 L75.1232036,17.1428571 L62.8571429,17.1428571 Z" id="Shape" fill="#E2292F"></path>
                            <path d="M44.2857143,18.7142946 L44.2857143,8.57142857 C44.2860938,6.21883756 42.3897136,4.30587157 40.0372085,4.28560546 C37.6847034,4.26565888 35.7559032,6.14593189 35.7160714,8.49818571 C35.7142857,8.52142321 35.7142857,8.5464 35.7142857,8.57142857 C35.709274,13.3032204 31.874649,17.1378455 27.1428571,17.1428571 L25.7142857,17.1428571 C25.7143852,16.7639459 25.5639074,16.4005254 25.2959767,16.1325947 C25.028046,15.864664 24.6646255,15.7141862 24.2857143,15.7142857 L10,15.7142857 C9.6210888,15.7141862 9.25766826,15.864664 8.98973757,16.1325947 C8.72180689,16.4005254 8.57132907,16.7639459 8.57142857,17.1428571 L4.28571429,17.1428571 C1.92008029,17.1459942 0.00313708771,19.0629374 0,21.4285714 L0,30 C0.00313708771,32.365634 1.92008029,34.2825772 4.28571429,34.2857143 L8.57142857,34.2857143 C8.57132907,34.6646255 8.72180689,35.028046 8.98973757,35.2959767 C9.25766826,35.5639074 9.6210888,35.7143852 10,35.7142857 L11.4678571,35.7142857 C11.8013136,41.9964455 14.4563419,47.9308029 18.9178571,52.3660714 L18.9893125,52.4392696 C19.2575273,52.7069819 19.6210422,52.8571429 20,52.8571429 L28.5714286,52.8571429 C29.1492104,52.8571429 29.6699769,52.508684 29.8911407,51.9749065 C30.1123045,51.4411289 29.9903657,50.8266964 29.5821268,50.4178286 L27.0714464,47.9071429 C23.7962969,44.6515291 21.8102631,40.3204542 21.4803571,35.7142857 L24.2857143,35.7142857 C24.6646255,35.7143852 25.028046,35.5639074 25.2959767,35.2959767 C25.5639074,35.028046 25.7143852,34.6646255 25.7142857,34.2857143 L27.1428571,34.2857143 C31.874649,34.290726 35.709274,38.125351 35.7142857,42.8571429 C35.7142857,42.8821679 35.7142857,42.9071429 35.7160714,42.9303411 C35.7559033,45.282586 37.6846898,47.1628554 40.0371862,47.1427613 C42.3896825,47.1226673 44.2860691,45.209725 44.2857143,42.8571429 L44.2857143,32.7142857 C47.6115199,32.0347053 50,29.1088215 50,25.7142946 C50,22.3197678 47.6115199,19.393884 44.2857143,18.7143036 L44.2857143,18.7142946 Z M8.57142857,31.4285714 L4.28571429,31.4285714 C3.4971741,31.4275149 2.85819935,30.7885402 2.85714286,30 L5.71428571,30 L5.71428571,27.1428571 L2.85714286,27.1428571 L2.85714286,24.2857143 L5.71428571,24.2857143 L5.71428571,21.4285714 L2.85714286,21.4285714 C2.85818365,20.6400247 3.49716758,20.0010408 4.28571429,20 L8.57142857,20 L8.57142857,31.4285714 Z M25.05,49.9285893 L25.1231982,50 L20.5982321,50 C16.8743262,46.1364902 14.6516942,41.0706768 14.3303571,35.7142857 L18.6160714,35.7142857 C18.9493286,41.0799998 21.2384455,46.1372835 25.05,49.9285893 L25.05,49.9285893 Z M22.8571429,32.8571429 L11.4285714,32.8571429 L11.4285714,18.5714286 L22.8571429,18.5714286 L22.8571429,32.8571429 Z M35.7142857,35.3053571 C33.5475776,32.840621 30.4245561,31.4281044 27.1428571,31.4285714 L25.7142857,31.4285714 L25.7142857,20 L27.1428571,20 C30.4245515,20.0004456 33.5475646,18.5879328 35.7142857,16.1232143 L35.7142857,35.3053571 Z M41.4285714,42.8571429 C41.4285714,43.6461211 40.7889782,44.2857143 40,44.2857143 C39.2110218,44.2857143 38.5714286,43.6461211 38.5714286,42.8571429 L38.5714286,8.57142857 C38.5714286,7.78245036 39.2110218,7.14285714 40,7.14285714 C40.7889782,7.14285714 41.4285714,7.78245036 41.4285714,8.57142857 L41.4285714,42.8571429 Z M44.2857143,29.7553357 L44.2857143,21.6732357 C45.998091,22.2788492 47.1428584,23.8979703 47.1428584,25.7142857 C47.1428584,27.5306011 45.998091,29.1497222 44.2857143,29.7553357 L44.2857143,29.7553357 Z" id="Shape" fill="#262626"></path>
                        </g>
                    </g>
                </g>
            </g>
        </g>
    </g>
</svg>