<?xml version="1.0" encoding="UTF-8"?>
<svg width="112px" height="99px" viewBox="0 0 112 99" version="1.1" xmlns="http://www.w3.org/2000/svg" xmlns:xlink="http://www.w3.org/1999/xlink">
    <!-- Generator: Sketch 63.1 (92452) - https://sketch.com -->
    <title>Group 23</title>
    <desc>Created with Sketch.</desc>
    <g id="Page-1" stroke="none" stroke-width="1" fill="none" fill-rule="evenodd">
        <g id="Machine_learning" transform="translate(-239.000000, -1789.000000)" fill-rule="nonzero">
            <g id="1" transform="translate(236.000000, 1787.000000)">
                <g id="Group-23">
                    <path d="M91.1564197,11.6136109 C99.3853352,19.0135469 103.368373,30.9953611 101.710459,41.111986 C100.052545,51.2286108 92.7738969,59.4394987 87.3351297,68.6032551 C81.8963625,77.7670114 78.3379125,87.9039101 70.3718371,94.614537 C62.3855432,101.325164 49.9714053,104.629793 39.9430464,101.102152 C29.894469,97.5745114 22.2316705,87.2348748 16.04482,76.1653815 C9.83775111,65.0958881 5.1470671,53.3370857 6.23886424,41.8215689 C7.35087985,30.306052 14.2858135,19.0338207 23.8693662,11.8771703 C33.4529189,4.72051986 45.7255275,1.67945027 58.07901,1.53753369 C70.4527109,1.4158909 82.9275042,4.21367493 91.1564197,11.6136109 Z" id="Path" fill="#FFCCCD" opacity="0.300000012" transform="translate(54.080465, 52.033747) rotate(-94.000000) translate(-54.080465, -52.033747) "></path>
                    <g id="cctv" transform="translate(21.000000, 2.000000)">
                        <path d="M92.8748927,25.831531 L23.685059,0.197937271 C22.8000787,-0.129089524 21.8168467,0.323441021 21.4905372,1.20913864 C21.4898199,1.20985576 21.4898199,1.21057287 21.4891028,1.21128999 L13.829791,22.0599654 C13.5041987,22.945663 13.9581635,23.9281776 14.8438609,24.2537702 L22.8653406,27.1984456 L21.0982485,32.0127678 C20.7733732,32.8984652 21.227338,33.8795456 22.1130354,34.2051382 L38.1559948,40.0952063 L54.1960852,45.9910117 L68.6340316,51.2887024 C68.8226456,51.3582672 69.0212999,51.3934084 69.2221059,51.3934084 C69.9385528,51.3934084 70.5796975,50.9466152 70.8271191,50.2739152 L71.4675465,48.5290552 C77.0284364,49.5753976 82.3842174,45.9157095 83.4298424,40.3555369 C83.8163939,38.300862 83.5653864,36.1773392 82.7105268,34.2696829 L93.0699613,28.9504773 C93.9097602,28.5201789 94.2418072,27.4903314 93.8115088,26.6505323 C93.6164402,26.269001 93.2851105,25.9749638 92.8834987,25.8265108 L92.8748927,25.831531 Z M50.9882106,44.8141456 L41.3588494,41.2799612 L50.0207564,44.4598664 L50.9882106,44.8141456 Z M68.2087532,47.4970561 L24.8949147,31.5917925 L26.0746497,28.3824834 L51.7405156,37.8074531 C52.3479536,38.0283395 53.0292595,37.8899269 53.5018705,37.4481538 L58.2975463,32.9336062 L71.7429375,37.8719978 L68.2087532,47.4970561 Z M79.7629828,40.8181076 C78.6800652,43.7376824 75.767662,45.5621477 72.6687963,45.2616559 L75.3093941,38.0685007 L79.6224186,35.8474437 C80.2972699,37.426639 80.3474715,39.2037713 79.7629828,40.8181076 Z M73.9948325,34.9093932 C73.9044699,34.917282 73.8148245,34.9330597 73.7266132,34.9567261 L58.4904636,29.3621296 C57.8830256,29.1390915 57.2017197,29.2775041 56.7298259,29.7207114 L51.9284127,34.2359761 L17.6271746,21.6397074 L24.1060343,3.9989066 L88.0455101,27.6875515 L73.9948325,34.9093932 Z" id="Shape" fill="#E2292F"></path>
                        <path d="M38.1559948,40.0952063 L36.9769771,43.3045153 C35.905534,46.1789087 36.9052607,49.4147528 39.4124661,51.1825621 L39.4124661,59.9032766 L16.4187533,59.9032766 C15.3057147,57.3587787 13.0280018,55.5113641 10.3077985,54.9476731 L10.3077985,51.3589845 C10.3077985,50.4151965 9.54330172,49.6499826 8.59879674,49.6499826 L1.70900192,49.6499826 C0.76521406,49.6499826 0,50.4151965 0,51.3589845 L0,78.7008629 C0,79.6453679 0.76521406,80.4098647 1.70900192,80.4098647 L8.59879674,80.4098647 C9.54330172,80.4098647 10.3077985,79.6453679 10.3077985,78.7008629 L10.3077985,75.1128913 C13.0280018,74.5484831 15.3057147,72.7017859 16.4187533,70.1565706 L39.4124661,70.1565706 L39.4124661,71.8655726 C39.4124661,74.6969361 41.707391,76.9925781 44.5387546,76.9925781 C47.3701181,76.9925781 49.6657601,74.6969361 49.6657601,71.8655726 L49.6657601,52.9345939 C51.2191375,52.1643596 52.4189529,50.828283 53.0170678,49.2003207 L54.1960852,45.9910117 L38.1559948,40.0952063 Z M42.8297527,52.7395252 L44.2447174,53.2522976 C44.8887306,53.4832243 45.5642992,53.6158996 46.2477565,53.6453033 L46.2477565,59.9032766 L42.8297527,59.9032766 L42.8297527,52.7395252 Z M6.89051195,76.9925781 L3.41800383,76.9925781 L3.41800383,53.0679863 L6.89051195,53.0679863 L6.89051195,76.9925781 Z M13.7258023,66.7392841 C13.7229337,68.9108568 12.3545847,70.8464825 10.3077985,71.5736868 L10.3077985,58.4868776 C12.3545847,59.2133649 13.7229337,61.1489905 13.7258023,63.3212805 L13.7258023,66.7392841 Z M17.1968762,63.3212805 L46.2477565,63.3212805 L46.2477565,66.7392841 L17.1968762,66.7392841 L17.1968762,63.3212805 Z M44.5387546,73.5745745 C43.5949667,73.5745745 42.8297527,72.8093604 42.8297527,71.8655726 L42.8297527,70.1565706 L46.2477565,70.1565706 L46.2477565,71.8655726 C46.2477565,72.8093604 45.4825424,73.5745745 44.5387546,73.5745745 Z M50.9882106,44.8141456 L49.8091929,48.0234546 C49.158008,49.7934154 47.1951301,50.701345 45.4237349,50.0515945 L42.2094058,48.8740111 C40.4380106,48.2235432 39.5286468,46.2599482 40.1791144,44.4878359 L41.3588494,41.2799612 L50.0207564,44.4598664 L50.9882106,44.8141456 Z" id="Shape" fill="#262626"></path>
                        <polygon id="Path" fill="#262626" points="31.6384081 23.1428832 32.8159915 19.9342912 36.0245833 21.1125918 34.8462827 24.3211835"></polygon>
                        <polygon id="Path" fill="#262626" points="38.0548747 25.4987669 39.2324579 22.290175 42.4410498 23.4684755 41.2627493 26.6763502"></polygon>
                        <polygon id="Path" fill="#262626" points="44.4713411 27.8560849 45.6496416 24.6474932 48.8575164 25.8257937 47.6792159 29.0343855"></polygon>
                    </g>
                </g>
            </g>
        </g>
    </g>
</svg>