<?xml version="1.0" encoding="UTF-8"?>
<svg width="228px" height="229px" viewBox="0 0 228 229" version="1.1" xmlns="http://www.w3.org/2000/svg" xmlns:xlink="http://www.w3.org/1999/xlink">
    <!-- Generator: Sketch 59.1 (86144) - https://sketch.com -->
    <title>Group 3</title>
    <desc>Created with Sketch.</desc>
    <defs>
        <rect id="path-1" x="29" y="29" width="154.799997" height="154.799997" rx="11.5199998"></rect>
        <filter x="-12.3%" y="-12.3%" width="124.7%" height="124.7%" filterUnits="objectBoundingBox" id="filter-3">
            <feMorphology radius="1.07999998" operator="dilate" in="SourceAlpha" result="shadowSpreadOuter1"></feMorphology>
            <feOffset dx="0" dy="0" in="shadowSpreadOuter1" result="shadowOffsetOuter1"></feOffset>
            <feGaussianBlur stdDeviation="6" in="shadowOffsetOuter1" result="shadowBlurOuter1"></feGaussianBlur>
            <feComposite in="shadowBlurOuter1" in2="SourceAlpha" operator="out" result="shadowBlurOuter1"></feComposite>
            <feColorMatrix values="0 0 0 0 0   0 0 0 0 0   0 0 0 0 0  0 0 0 0.147235577 0" type="matrix" in="shadowBlurOuter1"></feColorMatrix>
        </filter>
    </defs>
    <g id="Page-1" stroke="none" stroke-width="1" fill="none" fill-rule="evenodd">
        <g id="network_security" transform="translate(-979.000000, -1190.000000)">
            <g id="Group-21" transform="translate(240.000000, 909.000000)">
                <g id="Group-15" transform="translate(0.000000, 289.000000)">
                    <g id="Group-12">
                        <g id="Group-3" transform="translate(747.000000, 0.000000)">
                            <g id="Group-16">
                                <circle id="Oval" fill="#F1F1F1" cx="107.999998" cy="100.799998" r="92.1599982"></circle>
                                <mask id="mask-2" fill="white">
                                    <use xlink:href="#path-1"></use>
                                </mask>
                                <g id="Rectangle" fill-rule="nonzero" transform="translate(106.399998, 106.399998) rotate(-30.000000) translate(-106.399998, -106.399998) ">
                                    <use fill="black" fill-opacity="1" filter="url(#filter-3)" xlink:href="#path-1"></use>
                                    <use stroke="#F1F1F1" stroke-width="2.15999996" fill="#FFFFFF" xlink:href="#path-1"></use>
                                </g>
                                <g id="Group-9" mask="url(#mask-2)">
                                    <g transform="translate(55.000000, 54.000000)">
                                        <g id="team-(1)" transform="translate(8.000000, 7.000000)">
                                            <path d="M13.5758002,18.3990003 C13.3561002,15.3077002 11.0635002,12.7877002 7.96450012,12.7877002 C4.86550007,12.7877002 2.57290004,15.3077002 2.35320004,18.3990003 C2.22230003,20.2420003 2.35320004,23.2087003 1.55160002,24.8119004 C1.55160002,24.8119004 2.35320004,26.4151004 5.30950008,27.2189004 L10.6357002,27.2167004 C13.5758002,26.4151004 14.3774002,24.8119004 14.3774002,24.8119004 C13.5758002,23.2087003 13.7067002,20.2420003 13.5758002,18.3990003 Z" id="Path" fill="#694B4B" fill-rule="nonzero"></path>
                                            <path d="M7.16290011,18.3990003 C4.07370006,16.8544003 4.70950007,13.8281002 6.9104001,12.8915002 C4.35720006,13.3897002 2.54710004,15.6703002 2.35320004,18.3990003 C2.22230003,20.2420003 2.35320004,23.2087003 1.55160002,24.8119004 C1.55160002,24.8119004 2.35320004,26.4151004 5.30950008,27.2189004 L7.84130012,27.2179004 L7.16290011,18.3990003 Z" id="Path" fill="#5A4146" fill-rule="nonzero"></path>
                                            <path d="M13.8496002,29.1463004 L11.2555002,27.8493004 C10.7123002,27.5777004 10.3692002,27.0225004 10.3692002,26.4152004 L10.3693002,24.0102004 L5.55970008,24.0102004 L5.55970008,26.4152004 C5.55970008,27.0224004 5.21660008,27.5775004 4.67350007,27.8491004 L2.07930003,29.1462004 C1.26460002,29.5536004 0.750000011,30.3862005 0.750000011,31.2971005 L0.750000011,36.8360005 L15.1790002,36.8360005 L15.1790002,31.2972005 C15.1790002,30.3864005 14.6644002,29.5537004 13.8496002,29.1463004 Z" id="Path" fill="#E6AF78" fill-rule="nonzero"></path>
                                            <path d="M13.8496002,29.1463004 L11.2555002,27.8493004 C11.1062002,27.7747004 10.9762002,27.6752004 10.8602002,27.5625004 L9.94020015,28.5866004 C8.85360013,29.7960004 7.07550011,29.7959004 5.98890009,28.5866004 L5.06880008,27.5625004 C4.95270007,27.6751004 4.82270007,27.7746004 4.67360007,27.8492004 L2.07930003,29.1463004 C1.26470002,29.5536004 0.750100011,30.3863005 0.750100011,31.2971005 L0.750100011,43.8361005 L15.1791002,43.8361005 L15.1791002,31.2973005 C15.1791002,30.3864005 14.6643002,29.5537004 13.8496002,29.1463004 Z" id="Path" fill="#D5DCED" fill-rule="nonzero"></path>
                                            <path d="M7.96450012,25.6135004 L7.96450012,25.6135004 C6.12740009,25.6135004 4.53080007,24.5835004 3.72080006,23.0695003 C3.17020005,22.0403003 3.52920005,20.7492003 4.48350007,20.0771003 C4.66660007,19.9481003 4.85580007,19.8010003 5.04190008,19.6349003 C5.61510008,19.1234003 5.95080009,18.5840003 6.14000009,18.1887003 C6.30210009,17.8501003 6.6756001,17.6589003 7.0394001,17.7516003 C9.86970015,18.4728003 11.7945002,19.9469003 12.4881002,20.5440003 C12.6724002,20.7027003 12.7785002,20.9363003 12.7598002,21.1788003 C12.5685002,23.6599004 10.4947002,25.6135004 7.96450012,25.6135004 Z" id="Path" fill="#F0C087" fill-rule="nonzero"></path>
                                            <path d="M12.4872002,20.5432003 C11.7931002,19.9457003 9.86980015,18.4735003 7.0425001,17.7523003 C6.6769001,17.6590003 6.30180009,17.8514003 6.13870009,18.1916003 C5.99520009,18.4907003 5.75810009,18.8719003 5.40620008,19.2609003 C5.40610008,19.2618003 5.40590008,19.2627003 5.40580008,19.2636003 C5.29660008,19.3874003 5.18030008,19.5114003 5.04200008,19.6349003 C4.86350007,19.7941003 4.68390007,19.9382003 4.50630007,20.0610003 C3.37500005,20.8436003 3.20510005,22.2791003 3.89840006,23.3695003 C4.62780007,24.5166004 5.83260009,25.3315004 7.23530011,25.5460004 C6.27560009,24.8931004 5.55970008,24.0079004 5.55970008,22.4072003 L5.55970008,21.7878003 C5.74180009,21.6534003 5.92510009,21.5193003 6.10940009,21.3549003 C6.5549001,20.9573003 6.9439001,20.4975003 7.25580011,20.0024003 C9.41500014,20.6762003 10.8788002,21.7984003 11.4337002,22.2756003 C11.5856002,22.4088003 11.7986002,22.5970003 12.2397002,23.0108003 C12.5226002,22.5644003 12.7201002,21.6953003 12.7598002,21.1778003 C12.7785002,20.9355003 12.6712002,20.7016003 12.4872002,20.5432003 Z" id="Path" fill="#E6AF78" fill-rule="nonzero"></path>
                                            <g id="Group" transform="translate(0.700000, 29.800000)" fill="#C7CFE2" fill-rule="nonzero">
                                                <path d="M0.538700008,0.0522000008 C0.229900003,0.461900007 0.0500000007,0.964800014 0.0500000007,1.49720002 L0.0500000007,12.0360001 L3.25650005,12.0360001 L3.25650005,2.99690004 C3.25650005,2.50990004 3.03510005,2.04920003 2.65480004,1.74500003 L0.538700008,0.0522000008 Z" id="Path"></path>
                                                <path d="M13.9904002,0.0522000008 C14.2992002,0.461900007 14.4791002,0.964800014 14.4791002,1.49720002 L14.4791002,7.0360001 L11.2726002,7.0360001 L11.2726002,2.99690004 C11.2726002,2.50990004 11.4940002,2.04920003 11.8743002,1.74500003 L13.9904002,0.0522000008 Z" id="Path"></path>
                                            </g>
                                            <path d="M36.8226005,15.9942002 L36.8226005,16.5568002 C36.8226005,17.2461003 36.9337006,17.9308003 37.1517006,18.5847003 L38.4258006,22.4071003 L40.8306006,22.4071003 L40.8306006,13.5894002 L39.2274006,13.5894002 C37.8993006,13.5893002 36.8226005,14.6660002 36.8226005,15.9942002 Z" id="Path" fill="#5A4146" fill-rule="nonzero"></path>
                                            <path d="M47.8601007,17.4435003 L46.4419007,22.4071003 L40.0290006,16.7958003 C39.1436006,16.7958003 38.4258006,16.0780002 38.4258006,15.1926002 L38.4258006,15.1926002 C38.4258006,13.8644002 39.5025006,12.7878002 40.8306006,12.7878002 L48.0451008,12.7878002 L48.0451008,16.1222002 C48.0452007,16.5690002 47.9829007,17.0138003 47.8601007,17.4435003 Z" id="Path" fill="#694B4B" fill-rule="nonzero"></path>
                                            <rect id="Rectangle" fill="#E6AF78" fill-rule="nonzero" x="40.0290006" y="24.8118004" width="4.81000007" height="4.81000007"></rect>
                                            <path d="M48.7058007,27.8614004 L44.8385007,26.7565004 L42.4339006,29.6215004 L40.0291006,26.7565004 L36.1620005,27.8614004 C35.1296005,28.1564004 34.4178005,29.1000004 34.4178005,30.1737004 L34.4178005,36.8360005 L50.4500008,36.8360005 L50.4500008,30.1738004 C50.4500008,29.1000004 49.7382007,28.1564004 48.7058007,27.8614004 Z" id="Path" fill="#10BDE0" fill-rule="nonzero"></path>
                                            <path d="M42.4339006,25.6135004 L42.4339006,25.6135004 C39.7776006,25.6135004 37.6242006,23.4601003 37.6242006,20.8038003 L37.6242006,20.8038003 C37.6242006,19.7773003 38.0320006,18.7928003 38.7578006,18.0669003 L39.5473006,17.2774003 C39.8551006,16.9696003 40.2760006,16.7926003 40.7110006,16.8063003 C43.2735006,16.8871003 45.5417007,17.4361003 46.7816007,18.6470003 C47.0851007,18.9434003 47.2435007,19.3581003 47.2435007,19.7823003 L47.2435007,20.8037003 C47.2436007,23.4601003 45.0902007,25.6135004 42.4339006,25.6135004 Z" id="Path" fill="#F0C087" fill-rule="nonzero"></path>
                                            <path d="M40.0290006,20.8038003 C40.0290006,19.8791003 40.8056006,19.1441003 41.7284006,19.2029003 C43.3467006,19.3061003 45.7480007,19.5766003 47.2212007,20.2853003 C47.1731007,19.9471003 47.0278007,18.8876003 46.7815007,18.6470003 C45.5417007,17.4361003 43.2735006,16.8871003 40.7110006,16.8063003 L40.7109006,16.8063003 L40.7109006,16.8063003 C40.2759006,16.7926003 39.8550006,16.9697003 39.5472006,17.2774003 L38.7577006,18.0669003 C38.0318006,18.7928003 37.6241006,19.7772003 37.6241006,20.8038003 L37.6241006,20.8038003 C37.6241006,22.9972003 39.0938006,24.8440004 41.1011006,25.4223004 C40.4330006,24.5979004 40.0289006,23.5516004 40.0289006,22.4070003 L40.0289006,20.8038003 L40.0290006,20.8038003 Z" id="Path" fill="#E6AF78" fill-rule="nonzero"></path>
                                            <path d="M47.2435007,32.5623005 C47.2435007,31.9245005 47.4969007,31.3128005 47.9479007,30.8618005 L50.0114007,28.7983004 C50.2872007,29.1925004 50.4500008,29.6671004 50.4500008,30.1737004 L50.4500008,36.8360005 L47.2435007,36.8360005 L47.2435007,32.5623005 Z" id="Path" fill="#0A869F" fill-rule="nonzero"></path>
                                            <path d="M37.1167006,28.0524004 L30.4097005,25.6135004 L25.6000004,27.2167004 L20.7903003,25.6135004 L14.0833002,28.0524004 C12.8161002,28.5132004 11.9726002,29.7175004 11.9726002,31.0658005 L11.9726002,36.8360005 L39.2274006,36.8360005 L39.2274006,31.0658005 C39.2274006,29.7175004 38.3839006,28.5132004 37.1167006,28.0524004 Z" id="Path" fill="#F75E45" fill-rule="nonzero"></path>
                                            <path d="M38.3646006,28.8812004 C38.9059006,29.4622004 39.2274006,30.2359005 39.2274006,31.0659005 L39.2274006,36.8362005 L34.4177005,36.8362005 L34.4177005,34.1563005 C34.4177005,33.3059005 34.7555005,32.4903005 35.3568005,31.8890005 L38.3646006,28.8812004 Z" id="Path" fill="#D23C69" fill-rule="nonzero"></path>
                                            <path d="M34.4177005,9.08200014 L34.4177005,2.36670004 C34.4177005,1.48130002 33.6999005,0.763500011 32.8145005,0.763500011 L23.1951003,0.763500011 C19.6534003,0.763500011 16.7822003,3.63470005 16.7822003,7.17640011 L16.7822003,9.08200014 C16.7822003,9.94360015 16.9211003,10.7995002 17.1936003,11.6169002 L17.4604003,12.4174002 C17.5421003,12.6626002 17.5838003,12.9194002 17.5838003,13.1779002 L17.5838003,13.5893002 L33.6161005,13.5893002 L33.6161005,13.1779002 C33.6161005,12.9194002 33.6578005,12.6626002 33.7395005,12.4174002 L34.0063005,11.6169002 C34.2788005,10.7996002 34.4177005,9.94360015 34.4177005,9.08200014 Z" id="Path" fill="#5A4146" fill-rule="nonzero"></path>
                                            <path d="M20.7903003,4.02010006 C20.7903003,5.81860009 22.2483003,7.27670011 24.0469004,7.27670011 L24.4978004,7.27670011 L24.7155004,13.5894002 L33.6162005,13.5894002 L33.6162005,13.1780002 C33.6162005,12.9195002 33.6579005,12.6628002 33.7396005,12.4175002 L34.0064005,11.6170002 C34.2789005,10.7996002 34.4178005,9.94370015 34.4178005,9.08210014 L34.4178005,2.36670004 C34.4178005,1.48120002 33.7000005,0.763500011 32.8146005,0.763500011 L24.0470004,0.763500011 C22.2483003,0.763500011 20.7903003,2.22150003 20.7903003,4.02010006 Z" id="Path" fill="#694B4B" fill-rule="nonzero"></path>
                                            <rect id="Rectangle" fill="#E6AF78" fill-rule="nonzero" x="20.7900003" y="20.0018003" width="9.61900014" height="7.21400011"></rect>
                                            <path d="M20.7903003,23.6301004 C22.2301003,24.3812004 23.8637004,24.8119004 25.6000004,24.8119004 C27.3363004,24.8119004 28.9699004,24.3812004 30.4097005,23.6301004 L30.4097005,20.0022003 L20.7903003,20.0022003 L20.7903003,23.6301004 L20.7903003,23.6301004 Z" id="Path" fill="#D29B6E" fill-rule="nonzero"></path>
                                            <g id="Group" transform="translate(19.100000, 24.200000)" fill="#D23C69" fill-rule="nonzero">
                                                <path d="M6.5000001,3.01670004 L3.94340006,5.57330008 C3.59980005,5.91690009 3.03180005,5.87820009 2.73800004,5.49110008 L0.0871000013,1.99820003 L0.780500012,0.537000008 C0.985100015,0.105800002 1.51880002,-0.0522000008 1.92520003,0.198200003 L6.5000001,3.01670004 Z" id="Path"></path>
                                                <path d="M6.5000001,3.01670004 L9.05660013,5.57330008 C9.40020014,5.91690009 9.96820015,5.87820009 10.2620002,5.49110008 L12.9129002,1.99820003 L12.2195002,0.537000008 C12.0149002,0.105800002 11.4812002,-0.0522000008 11.0748002,0.198200003 L6.5000001,3.01670004 Z" id="Path"></path>
                                            </g>
                                            <path d="M25.6000004,22.4071003 L25.6000004,22.4071003 C21.1728003,22.4071003 17.5839003,18.8182003 17.5839003,14.3910002 L17.5839003,13.5894002 L18.9179003,12.7001002 C19.5869003,12.2541002 19.9888003,11.5032002 19.9888003,10.6991002 L19.9888003,7.97810012 C19.9888003,7.97810012 26.4018004,5.57320008 31.2114005,9.58140014 C31.2114005,9.58140014 31.2114005,10.1272002 31.2114005,10.6987002 C31.2114005,11.5028002 31.6132005,12.2540002 32.2823005,12.7001002 L33.6162005,13.5894002 L33.6162005,14.3910002 C33.6162005,18.8181003 30.0272004,22.4071003 25.6000004,22.4071003 Z" id="Path" fill="#F0C087" fill-rule="nonzero"></path>
                                            <path d="M12.8354002,28.8812004 C12.2941002,29.4622004 11.9726002,30.2359005 11.9726002,31.0659005 L11.9726002,36.8362005 L16.7823003,36.8362005 L16.7823003,34.1563005 C16.7823003,33.3059005 16.4445002,32.4903005 15.8432002,31.8890005 L12.8354002,28.8812004 Z" id="Path" fill="#D23C69" fill-rule="nonzero"></path>
                                            <path d="M23.8036004,9.90480015 C25.5467004,9.68620014 28.5979004,9.56070014 31.2113005,10.6986002 C31.2113005,10.3772002 31.2113005,9.58130014 31.2113005,9.58130014 C26.4016004,5.57310008 19.9887003,7.97800012 19.9887003,7.97800012 L19.9887003,10.6990002 C19.9887003,11.5031002 19.5869003,12.2539002 18.9178003,12.7000002 L17.5839003,13.5893002 L17.5839003,14.3909002 C17.5839003,18.4895003 20.6618003,21.8637003 24.6313004,22.3429003 L24.6315004,22.3429003 C23.2482003,20.9025003 22.3936003,18.9505003 22.3936003,16.7958003 L22.3936003,11.4972002 C22.3935003,10.6848002 22.9976003,10.0059001 23.8036004,9.90480015 Z" id="Path" fill="#E6AF78" fill-rule="nonzero"></path>
                                            <path d="M44.5012007,18.2677003 C44.6089007,18.3216003 44.7233007,18.3470003 44.8360007,18.3470003 C45.1111007,18.3470003 45.3760007,18.1950003 45.5074007,17.9323003 C45.6927007,17.5618003 45.5425007,17.1113003 45.1720007,16.9260003 C43.4298006,16.0550002 40.1633006,16.0449002 40.0251006,16.0449002 C39.6109006,16.0449002 39.2751006,16.3807002 39.2751006,16.7949003 C39.2751006,17.2091003 39.6109006,17.5449002 40.0251006,17.5449002 C40.8680006,17.5450003 43.3153006,17.6748003 44.5012007,18.2677003 Z" id="Path" stroke="#000000" stroke-width="0.1" fill="#000000" fill-rule="nonzero"></path>
                                            <path d="M48.9112007,27.6041004 L45.8137007,26.7191004 C45.6800007,26.6809004 45.5866007,26.5571004 45.5866007,26.4180004 L45.5866007,25.3841004 C45.8386007,25.2095004 46.0790007,25.0141004 46.3037007,24.7960004 C47.3927007,23.7392004 47.9924007,22.3217003 47.9924007,20.8045003 L47.9924007,19.3778003 L48.2919007,18.7789003 C48.6206007,18.1214003 48.7943007,17.3853003 48.7943007,16.6503002 L48.7943007,12.7853002 C48.7943007,12.3711002 48.4585007,12.0353002 48.0443007,12.0353002 L40.8270006,12.0353002 C38.2026006,12.0353002 36.0674005,14.1705002 36.0674005,16.7949003 L36.0674005,16.8396003 C36.0674005,17.4508003 36.2119005,18.0629003 36.4852005,18.6095003 L36.8693005,19.3777003 L36.8693005,20.6027003 C36.8693005,22.5441003 37.8260006,24.2860004 39.2751006,25.3342004 L39.2753006,26.4178004 C39.2753006,26.5849004 39.2753006,26.6541004 38.6560006,26.8311004 L37.1446006,27.2629004 L32.7725005,25.6731004 C32.7882005,25.4668004 32.7186005,25.2570004 32.5681005,25.0989004 L31.1710005,23.6311004 L31.1710005,21.1671003 C31.3187005,21.0454003 31.4643005,20.9204003 31.6054005,20.7882003 C33.3679005,19.1362003 34.3787005,16.8038003 34.3787005,14.3891002 L34.3787005,12.4213002 C34.9109005,11.2632002 35.1806005,10.0377001 35.1806005,8.77560013 L35.1806005,0.756600011 C35.1806005,0.342400005 34.8448005,0.0066000001 34.4306005,0.0066000001 L23.2037003,0.0066000001 C19.2527003,0.0066000001 16.0384002,3.22100005 16.0384002,7.17190011 L16.0384002,8.77580013 C16.0384002,10.0379001 16.3081002,11.2634002 16.8403003,12.4215002 L16.8403003,14.1146002 C16.8403003,16.9182003 18.0869003,19.4440003 20.0480003,21.1092003 L20.0480003,23.6312004 L18.6509003,25.0990004 C18.5004003,25.2571004 18.4308003,25.4669004 18.4465003,25.6732004 L13.8320002,27.3511004 C13.4976002,27.4727004 13.1869002,27.6374004 12.9048002,27.8369004 L12.1802002,27.4746004 C14.3372002,26.5357004 15.0205002,25.2152004 15.0533002,25.1496004 C15.1589002,24.9385004 15.1589002,24.6899004 15.0533002,24.4788004 C14.5126002,23.3974003 14.4471002,21.4153003 14.3945002,19.8227003 C14.3770002,19.2925003 14.3604002,18.7916003 14.3287002,18.3456003 C14.0730002,14.7482002 11.3382002,12.0353002 7.96720012,12.0353002 C4.59620007,12.0353002 1.86130003,14.7481002 1.60570002,18.3456003 C1.57400002,18.7917003 1.55740002,19.2926003 1.53990002,19.8229003 C1.48730002,21.4154003 1.42170002,23.3973003 0.881100013,24.4787004 C0.775500012,24.6898004 0.775500012,24.9384004 0.881100013,25.1495004 C0.913900014,25.2151004 1.59580002,26.5329004 3.75710006,27.4729004 L1.74440003,28.4792004 C0.66840001,29.0175004 0,30.0990004 0,31.3020005 L0,43.8429005 C0,44.2571006 0.335800005,44.5929006 0.750000011,44.5929006 C1.16420002,44.5929006 1.5,44.2571006 1.5,43.8429005 L1.5,31.3020005 C1.5,30.6708005 1.85070003,30.1033004 2.41520004,29.8210004 L4.92150007,28.5679004 L5.79330009,29.3964004 C6.4029001,29.9757004 7.18490011,30.2652005 7.96720012,30.2652005 C8.74930013,30.2652005 9.53170014,29.9755004 10.1411002,29.3964004 L11.0128002,28.5680004 L11.8300002,28.9766004 C11.4452002,29.5923004 11.2268002,30.3143005 11.2268002,31.0706005 L11.2268002,36.8431005 C11.2268002,37.2573006 11.5626002,37.5931006 11.9768002,37.5931006 C12.3910002,37.5931006 12.7268002,37.2573006 12.7268002,36.8431005 L12.7268002,31.0706005 C12.7268002,30.0410004 13.3769002,29.1128004 14.3446002,28.7609004 L19.2098003,26.9918004 L21.2351003,30.0299004 C21.4940003,30.4183005 21.9089003,30.6674005 22.3734003,30.7134005 C22.4252003,30.7185005 22.4767003,30.7210005 22.5281003,30.7210005 C22.9379003,30.7210005 23.3304003,30.5597005 23.6238004,30.2664005 L24.8594004,29.0308004 L24.8594004,36.8432005 C24.8594004,37.2574006 25.1952004,37.5932006 25.6094004,37.5932006 C26.0236004,37.5932006 26.3594004,37.2574006 26.3594004,36.8432005 L26.3594004,29.0308004 L27.5950004,30.2664005 C27.8883004,30.5598005 28.2808004,30.7211005 28.6907004,30.7211005 C28.7420004,30.7211005 28.7936004,30.7186005 28.8453004,30.7135005 C29.3099004,30.6675005 29.7248004,30.4184005 29.9837004,30.0300004 L32.0091005,26.9920004 L36.8742005,28.7611004 C37.8418006,29.1130004 38.4920006,30.0412004 38.4920006,31.0708005 L38.4920006,36.8433005 C38.4920006,37.2575006 38.8278006,37.5933006 39.2420006,37.5933006 C39.6562006,37.5933006 39.9920006,37.2575006 39.9920006,36.8433005 L39.9920006,31.0708005 C39.9920006,30.0280004 39.5777006,29.0500004 38.8827006,28.3267004 L39.0680006,28.2738004 C39.2549006,28.2204004 39.5099006,28.1473004 39.7659006,28.0218004 L41.6808006,29.9367004 L41.6808006,36.8433005 C41.6808006,37.2575006 42.0166006,37.5933006 42.4308006,37.5933006 C42.8450006,37.5933006 43.1808006,37.2575006 43.1808006,36.8433005 L43.1808006,29.9367004 L45.0824007,28.0351004 C45.1835007,28.0865004 45.2897007,28.1299004 45.4015007,28.1618004 L48.4991007,29.0468004 C49.2061007,29.2488004 49.7000007,29.9035004 49.7000007,30.6389005 L49.7000007,36.8433005 C49.7000007,37.2575006 50.0358007,37.5933006 50.4500008,37.5933006 C50.8642008,37.5933006 51.2000008,37.2575006 51.2000008,36.8433005 L51.2000008,30.6389005 C51.2000008,29.2370004 50.2588007,27.9892004 48.9112007,27.6041004 Z M11.1229002,26.2819004 L11.1230002,25.3874004 C11.9955002,24.7867004 12.6892002,23.9417004 13.1031002,22.9425003 C13.1930002,23.5883004 13.3257002,24.2001004 13.5301002,24.7343004 C13.2314002,25.0982004 12.5244002,25.7773004 11.1229002,26.2819004 Z M3.10200005,18.4520003 C3.19780005,17.1044003 3.73630006,15.8626002 4.61830007,14.9552002 C5.50820008,14.0396002 6.6976001,13.5354002 7.96740012,13.5354002 C9.23720014,13.5354002 10.4265002,14.0396002 11.3165002,14.9552002 C12.1985002,15.8626002 12.7370002,17.1044003 12.8328002,18.4520003 C12.8624002,18.8697003 12.8786002,19.3567003 12.8956002,19.8723003 C12.8971002,19.9166003 12.8986002,19.9615003 12.9001002,20.0061003 C12.0841002,18.7489003 10.8239002,17.8224003 9.19560014,17.2992003 C7.69130011,16.8159003 6.3975001,16.8458003 6.34290009,16.8472003 C6.14650009,16.8527003 5.96010009,16.9349003 5.82380009,17.0763003 L4.47060007,18.4797003 C4.18310006,18.7779003 4.19170006,19.2527003 4.48990007,19.5402003 C4.78810007,19.8277003 5.26290008,19.8190003 5.55040008,19.5209003 L6.6764001,18.3532003 C7.64610011,18.4006003 10.7658002,18.7634003 11.9791002,21.4351003 C11.6738002,23.4040003 9.98160015,24.8661004 7.96760012,24.8661004 C5.72800009,24.8661004 3.90610006,23.0441003 3.90610006,20.8046003 C3.90610006,20.3904003 3.57030005,20.0546003 3.15610005,20.0546003 C3.11410005,20.0546003 3.07310005,20.0589003 3.03300005,20.0656003 C3.03520005,20.0011003 3.03730005,19.9365003 3.03950005,19.8726003 C3.05620005,19.3569003 3.07230005,18.8698003 3.10200005,18.4520003 Z M2.40450004,24.7341004 C2.60930004,24.1987004 2.74210004,23.5855004 2.83200004,22.9382003 C3.24560005,23.9299004 3.93830006,24.7765004 4.81150007,25.3805004 L4.81150007,26.2794004 C3.40860005,25.7746004 2.70490004,25.1016004 2.40450004,24.7341004 Z M6.8267001,28.3091004 L6.12920009,27.6463004 C6.24690009,27.4258004 6.31160009,27.1758004 6.31160009,26.9139004 L6.31160009,26.1145004 C6.8348001,26.2780004 7.39100011,26.3662004 7.96740012,26.3662004 C8.54310013,26.3662004 9.09900014,26.2776004 9.62310014,26.1150004 L9.62300014,26.9138004 C9.62300014,27.1758004 9.68760014,27.4259004 9.80540015,27.6465004 L9.10800014,28.3092004 C8.46830013,28.9170004 7.46620011,28.9169004 6.8267001,28.3091004 Z M18.3403003,14.1145002 L18.3403003,12.2537002 C18.3403003,12.1408002 18.3148003,12.0293002 18.2657003,11.9276002 C17.7831003,10.9282002 17.5384003,9.86780015 17.5384003,8.77580013 L17.5384003,7.17190011 C17.5384003,4.04800006 20.0799003,1.50660002 23.2037003,1.50660002 L33.6806005,1.50660002 L33.6806005,8.77580013 C33.6806005,9.86780015 33.4359005,10.9282002 32.9533005,11.9276002 C32.9042005,12.0293002 32.8787005,12.1408002 32.8787005,12.2537002 L32.8787005,14.3892002 C32.8787005,16.4203002 32.0622005,18.3042003 30.5796005,19.6939003 C30.3945005,19.8673003 30.2024005,20.0299003 30.0038004,20.1814003 C29.9994004,20.1844003 29.9952004,20.1877003 29.9909004,20.1908003 C28.6020004,21.2453003 26.9008004,21.7578003 25.1242004,21.6427003 C21.3201003,21.3964003 18.3403003,18.0896003 18.3403003,14.1145002 Z M25.0271004,23.1395003 C25.2248004,23.1523003 25.4213004,23.1586003 25.6172004,23.1586003 C27.0513004,23.1586003 28.4315004,22.8158003 29.6710004,22.1651003 L29.6710004,23.5351004 L25.6095004,26.3113004 L21.5480003,23.5351004 L21.5480003,22.1351003 C22.5989003,22.7032003 23.7756004,23.0585003 25.0271004,23.1395003 Z M22.5632003,29.2056004 C22.5580003,29.2108004 22.5459003,29.2231004 22.5214003,29.2205004 C22.4970003,29.2181004 22.4874003,29.2038004 22.4833003,29.1976004 L20.1508003,25.6988004 L20.9014003,24.9101004 L24.4399004,27.3288004 L22.5632003,29.2056004 Z M28.7357004,29.1977004 C28.7316004,29.2039004 28.7220004,29.2182004 28.6976004,29.2206004 C28.6731004,29.2237004 28.6611004,29.2108004 28.6558004,29.2057004 L26.7791004,27.3290004 L30.3176005,24.9102004 L31.0683005,25.6989004 L28.7357004,29.1977004 Z M38.3693006,20.6029003 L38.3693006,19.2008003 C38.3693006,19.0843003 38.3422006,18.9695003 38.2901006,18.8654003 L37.8268006,17.9388003 C37.6571006,17.5993003 37.5674006,17.2193003 37.5674006,16.8397003 L37.5674006,16.7950003 C37.5674006,14.9976002 39.0297006,13.5354002 40.8270006,13.5354002 L47.2943007,13.5354002 L47.2943007,16.6504002 C47.2943007,17.1538003 47.1753007,17.6579003 46.9502007,18.1082003 L46.5716007,18.8654003 C46.5195007,18.9696003 46.4924007,19.0843003 46.4924007,19.2008003 L46.4924007,20.8046003 C46.4924007,21.9126003 46.0544007,22.9478003 45.2591007,23.7196004 C44.4642007,24.4910004 43.4141006,24.8984004 42.3054006,24.8642004 C40.1350006,24.7991004 38.3693006,22.8874003 38.3693006,20.6029003 Z M42.2603006,26.3635004 C42.3181006,26.3653004 42.3754006,26.3661004 42.4330006,26.3661004 C43.0022006,26.3661004 43.5578006,26.2801004 44.0866007,26.1160004 L44.0866007,26.4180004 C44.0866007,26.5676004 44.1054007,26.7142004 44.1408007,26.8551004 L42.4308006,28.5650004 L40.7288006,26.8631004 C40.7585006,26.7282004 40.7753006,26.5805004 40.7752006,26.4176004 L40.7751006,26.1011004 C41.2474006,26.2561004 41.7452006,26.3481004 42.2603006,26.3635004 Z" id="Shape" stroke="#000000" stroke-width="0.2" fill="#000000" fill-rule="nonzero"></path>
                                            <path d="M47.2423007,31.2814005 C46.8281007,31.2814005 46.4923007,31.6172005 46.4923007,32.0314005 L46.4923007,36.8429005 C46.4923007,37.2571006 46.8281007,37.5929006 47.2423007,37.5929006 C47.6565007,37.5929006 47.9923007,37.2571006 47.9923007,36.8429005 L47.9923007,32.0314005 C47.9923007,31.6172005 47.6565007,31.2814005 47.2423007,31.2814005 Z" id="Path" stroke="#000000" stroke-width="0.1" fill="#000000" fill-rule="nonzero"></path>
                                            <path d="M3.95770006,32.2728005 C3.54350005,32.2728005 3.20770005,32.6086005 3.20770005,33.0228005 L3.20770005,36.8429005 C3.20770005,37.2571006 3.54350005,37.5929006 3.95770006,37.5929006 C4.37190007,37.5929006 4.70770005,37.2571006 4.70770005,36.8429005 L4.70770005,33.0228005 C4.70770005,32.6086005 4.37190007,32.2728005 3.95770006,32.2728005 Z" id="Path" stroke="#000000" stroke-width="0.1" fill="#000000" fill-rule="nonzero"></path>
                                            <path d="M20.7460003,8.65180013 C20.7460003,8.62630013 20.7628003,8.60450013 20.7852003,8.60110013 C21.7519003,8.45540013 23.6702004,8.23060012 25.6577004,8.36310012 C27.9965004,8.51880013 29.6905004,9.10590014 30.6926005,10.1081002 C30.9855005,10.4010002 31.4604005,10.4010002 31.7532005,10.1081002 C32.0461005,9.81520015 32.0461005,9.34030014 31.7532005,9.04750013 C28.9166004,6.21090009 22.9817003,6.7532001 20.5615003,7.11800011 C19.7992003,7.23290011 19.2460003,7.87800012 19.2460003,8.65190013 L19.2460003,10.3797002 C19.2460003,10.7939002 19.5818003,11.1297002 19.9960003,11.1297002 C20.4102003,11.1297002 20.7460003,10.7939002 20.7460003,10.3797002 L20.7460003,8.65180013 L20.7460003,8.65180013 Z" id="Path" stroke="#000000" stroke-width="0.1" fill="#000000" fill-rule="nonzero"></path>
                                            <path d="M16.7884003,32.8853005 C16.3742002,32.8853005 16.0384002,33.2211005 16.0384002,33.6353005 L16.0384002,36.8430005 C16.0384002,37.2572006 16.3742002,37.5930006 16.7884003,37.5930006 C17.2026003,37.5930006 17.5384002,37.2572006 17.5384002,36.8430005 L17.5384002,33.6353005 C17.5384002,33.2211005 17.2026003,32.8853005 16.7884003,32.8853005 Z" id="Path" stroke="#000000" stroke-width="0.1" fill="#000000" fill-rule="nonzero"></path>
                                            <path d="M34.4306005,32.8853005 C34.0164005,32.8853005 33.6806005,33.2211005 33.6806005,33.6353005 L33.6806005,36.8430005 C33.6806005,37.2572006 34.0164005,37.5930006 34.4306005,37.5930006 C34.8448005,37.5930006 35.1806005,37.2572006 35.1806005,36.8430005 L35.1806005,33.6353005 C35.1806005,33.2211005 34.8448005,32.8853005 34.4306005,32.8853005 Z" id="Path" stroke="#000000" stroke-width="0.1" fill="#000000" fill-rule="nonzero"></path>
                                        </g>
                                        <g id="key">
                                            <path d="M60,62.279541 L103.146101,18.8633603 L102.814541,0.832760024 L84.9586312,0.832760024 L85.4648812,11.1832102 L72.775421,13.0159702 L70.942661,24.8676203 L59.5972608,26.7003804 L60.4350708,35.0436505 L55.0766508,40.4020705 L46.5589606,39.0580105 L41.6162005,43.8360005 C42.2795905,44.0104206 41.364496,43.5046405 42.045166,43.8362005 C42.219586,43.8362005 43.7312506,45.2366906 43.9059406,45.2366906 C47.0827607,46.7378906 49.9102007,48.7450707 52.5807707,51.2409507 C55.0766508,53.7368307 57.4710974,56.5377514 58.7976074,59.6970215 C58.9720274,59.8714415 59.2000008,60.2149584 59.2000008,60.3896484 C59.3568708,61.0533084 59.82531,61.598871 60,62.279541 Z" id="Path" stroke="#000000" stroke-width="3" fill="#DAE1EF" fill-rule="nonzero"></path>
                                            <path d="M30.8772004,42 C13.8415502,42 0,55.8588302 0,72.8772004 C0,89.8955706 13.8588302,103.754401 30.8772004,103.754401 C47.8955706,103.754401 61.7544008,89.8955706 61.7544008,72.8772004 C61.7544008,55.8588302 47.8953006,42 30.8772004,42 Z" id="Shape" stroke="#000000" stroke-width="3" fill="#FFD800" fill-rule="nonzero"></path>
                                            <g id="settings-(2)" transform="translate(10.000000, 53.000000)" fill-rule="nonzero">
                                                <path d="M3.03450013,23.2173201 L5.52650014,23.2173201 C5.91850014,25.2053201 6.70250015,27.0393201 7.78050015,28.6633201 L6.01650014,30.4273201 C5.38650014,31.0573201 5.38650014,32.0793201 6.01650014,32.7093201 L7.93450015,34.6273201 C8.56450016,35.2573202 9.58650016,35.2573202 10.2165002,34.6273201 L11.9805002,32.8633201 C13.6045002,33.9553201 15.4525002,34.7253201 17.4265002,35.1173201 L17.4265002,37.6093202 C17.4265002,38.5053202 18.1545002,39.2193202 19.0365002,39.2193202 L21.7525002,39.2193202 C22.6485002,39.2193202 23.3625002,38.4913202 23.3625002,37.6093202 L23.3625002,35.1173201 C25.3505002,34.7253201 27.1845002,33.9413201 28.8085002,32.8633201 L30.5725002,34.6273201 C31.2025003,35.2573202 32.2245003,35.2573202 32.8545003,34.6273201 L34.7725003,32.7093201 C35.4025003,32.0793201 35.4025003,31.0573201 34.7725003,30.4273201 L33.0085003,28.6633201 C34.1005003,27.0393201 34.8705003,25.1913201 35.2625003,23.2173201 L37.7545003,23.2173201 C38.6505003,23.2173201 39.3645003,22.4893201 39.3645003,21.6073201 L39.3645003,18.9053201 C39.3645003,18.0093201 38.6365003,17.2953201 37.7545003,17.2953201 L35.2625003,17.2953201 C34.8705003,15.3073201 34.0865003,13.4733201 33.0085003,11.8493201 L34.7725003,10.08532 C35.4025003,9.45532004 35.4025003,8.43332004 34.7725003,7.80332003 L32.8405003,5.88532003 C32.2105003,5.25532002 31.1885003,5.25532002 30.5585002,5.88532003 L28.7945002,7.64932003 C27.1705002,6.55732003 25.3225002,5.78732002 23.3485002,5.39532002 L23.3485002,2.90332001 C23.3485002,2.00732001 22.6205002,1.29332001 21.7385002,1.29332001 L19.0225002,1.29332001 C18.1265002,1.29332001 17.4125002,2.02132001 17.4125002,2.90332001 L17.4125002,5.39532002 C15.4245001,5.78732002 13.5905002,6.57132003 11.9665002,7.64932003 L10.2165002,5.88532003 C9.58650016,5.25532002 8.56450016,5.25532002 7.93450015,5.88532003 L6.01650014,7.80332003 C5.38650014,8.43332004 5.38650014,9.45532004 6.01650014,10.08532 L7.78050015,11.8493201 C6.68850015,13.4733201 5.91850014,15.3213201 5.52650014,17.2953201 L3.03450013,17.2953201 C2.13850013,17.2953201 1.42450013,18.0233201 1.42450013,18.9053201 L1.42450013,21.6213201 C1.42450013,22.5033201 2.13850013,23.2173201 3.03450013,23.2173201 Z M20.3805002,13.3893201 C24.1745002,13.3893201 27.2545002,16.4693201 27.2545002,20.2633201 C27.2545002,24.0573201 24.1745002,27.1373201 20.3805002,27.1373201 C16.5865002,27.1373201 13.5065002,24.0573201 13.5065002,20.2633201 C13.5065002,16.4693201 16.5865002,13.3893201 20.3805002,13.3893201 Z" id="XMLID_698_" fill="#10BDE0"></path>
                                                <path d="M37.7405003,24.4913201 C39.3225003,24.4913201 40.6245003,23.2033201 40.6245003,21.6073201 L40.6245003,18.9053201 C40.6245003,17.3233201 39.3365003,16.0213201 37.7405003,16.0213201 L36.2705003,16.0213201 C35.8925003,14.6213201 35.3465003,13.2773201 34.6185003,12.0313201 L35.6685003,10.98132 C36.7885003,9.86132004 36.7885003,8.02732003 35.6685003,6.90732003 L33.7505003,4.98932002 C33.2045003,4.44332002 32.4765003,4.14932002 31.7205003,4.14932002 C30.9505003,4.14932002 30.2225002,4.44332002 29.6905002,4.98932002 L28.6405002,6.03932003 C27.3805002,5.31132002 26.0505002,4.75132002 24.6505002,4.38732002 L24.6505002,2.90332001 C24.6505002,1.32132001 23.3625002,0.0193200001 21.7665002,0.0193200001 L19.0505002,0.0193200001 C17.4685002,0.0193200001 16.1665002,1.30732001 16.1665002,2.90332001 L16.1665002,4.38732002 C14.7665002,4.76532002 13.4225002,5.31132002 12.1765002,6.03932003 L11.1265002,4.98932002 C10.5805002,4.44332002 9.85250016,4.14932002 9.09650016,4.14932002 C8.32650015,4.14932002 7.59850015,4.44332002 7.06650015,4.98932002 L5.14850014,6.90732003 C4.02850014,8.02732003 4.02850014,9.86132004 5.14850014,10.98132 L6.19850015,12.0313201 C5.47050014,13.2913201 4.91050014,14.6213201 4.54650014,16.0213201 L3.06250013,16.0213201 C1.48050013,16.0213201 0.17850012,17.3093201 0.17850012,18.9053201 L0.17850012,21.6213201 C0.17850012,23.2033201 1.46650013,24.5053201 3.06250013,24.5053201 L4.54650014,24.5053201 C4.92450014,25.9053201 5.47050014,27.2493201 6.19850015,28.4953201 L5.14850014,29.5453201 C4.02850014,30.6653201 4.02850014,32.4993201 5.14850014,33.6193201 L7.06650015,35.5373202 C7.61250015,36.0833202 8.34050015,36.3773202 9.09650016,36.3773202 C9.86650016,36.3773202 10.5945002,36.0833202 11.1265002,35.5373202 L12.1765002,34.4873201 C13.4365002,35.2153201 14.7665002,35.7753202 16.1665002,36.1393202 L16.1665002,37.6233202 C16.1665002,39.2053202 17.4545002,40.5073202 19.0505002,40.5073202 L21.7665002,40.5073202 C23.3485002,40.5073202 24.6505002,39.2193202 24.6505002,37.6233202 L24.6505002,36.1253202 C26.0505002,35.7473202 27.3945002,35.2013201 28.6405002,34.4733201 L29.6905002,35.5233202 C30.2365002,36.0693202 30.9645003,36.3633202 31.7205003,36.3633202 C32.4905003,36.3633202 33.2185003,36.0693202 33.7505003,35.5233202 L35.6685003,33.6053201 C36.7885003,32.4853201 36.7885003,30.6513201 35.6685003,29.5313201 L34.6185003,28.4813201 C35.3465003,27.2213201 35.9065003,25.8913201 36.2705003,24.4913201 L37.7405003,24.4913201 L37.7405003,24.4913201 Z M34.0165003,22.9793201 C33.6665003,24.7713201 32.9665003,26.4513201 31.9445003,27.9773201 C31.6085003,28.4813201 31.6785003,29.1533201 32.0985003,29.5733201 L33.8625003,31.3373201 C34.0025003,31.4773201 34.0025003,31.6873201 33.8625003,31.8273201 L31.9445003,33.7453201 C31.8605003,33.8293201 31.7625003,33.8433201 31.7065003,33.8433201 C31.6365003,33.8433201 31.5525003,33.8293201 31.4685003,33.7453201 L29.7045002,31.9813201 C29.2705002,31.5473201 28.5985002,31.4913201 28.1085002,31.8273201 C26.5825002,32.8493201 24.9025002,33.5353201 23.1105002,33.8993201 C22.5225002,34.0113201 22.0885002,34.5433201 22.0885002,35.1453201 L22.0885002,37.6373202 C22.0885002,37.8193202 21.9345002,37.9733202 21.7525002,37.9733202 L19.0365002,37.9733202 C18.8545002,37.9733202 18.7005002,37.8193202 18.7005002,37.6373202 L18.7005002,35.1453201 C18.7005002,34.5433201 18.2665002,34.0253201 17.6785002,33.8993201 C15.8865002,33.5493201 14.2065002,32.8493201 12.6805002,31.8273201 C12.4705002,31.6873201 12.2185002,31.6173201 11.9805002,31.6173201 C11.6585002,31.6173201 11.3225002,31.7433201 11.0845002,31.9953201 L9.32050016,33.7593201 C9.23650016,33.8433201 9.13850016,33.8573201 9.08250016,33.8573201 C9.01250016,33.8573201 8.92850016,33.8433201 8.84450016,33.7593201 L6.92650015,31.8413201 C6.78650015,31.7013201 6.78650015,31.4913201 6.92650015,31.3513201 L8.69050016,29.5873201 C9.12450016,29.1533201 9.18050016,28.4813201 8.84450016,27.9913201 C7.82250015,26.4653201 7.13650015,24.7853201 6.77250015,22.9933201 C6.66050015,22.4053201 6.12850015,21.9713201 5.52650014,21.9713201 L3.03450013,21.9713201 C2.85250013,21.9713201 2.69850013,21.8173201 2.69850013,21.6353201 L2.69850013,18.9053201 C2.69850013,18.7233201 2.85250013,18.5693201 3.03450013,18.5693201 L5.52650014,18.5693201 C6.12850015,18.5693201 6.64650015,18.1353201 6.77250015,17.5473201 C7.12250015,15.7553201 7.82250015,14.0753201 8.84450016,12.5493201 C9.18050016,12.0453201 9.11050016,11.37332 8.69050016,10.95332 L6.92650015,9.18932004 C6.84250015,9.10532004 6.82850015,9.00732004 6.82850015,8.95132004 C6.82850015,8.88132004 6.84250015,8.79732004 6.92650015,8.71332004 L8.83050016,6.78132003 C8.91450016,6.69732003 9.01250016,6.68332003 9.06850016,6.68332003 C9.13850016,6.68332003 9.22250016,6.69732003 9.30650016,6.78132003 L11.0705002,8.54532004 C11.5045002,8.97932004 12.1765002,9.03532004 12.6665002,8.69932004 C14.1925002,7.67732003 15.8725002,6.99132003 17.6645002,6.62732003 C18.2525002,6.51532003 18.6865002,5.98332003 18.6865002,5.38132002 L18.6865002,2.90332001 C18.6865002,2.72132001 18.8405002,2.56732001 19.0225002,2.56732001 L21.7385002,2.56732001 C21.9205002,2.56732001 22.0745002,2.72132001 22.0745002,2.90332001 L22.0745002,5.39532002 C22.0745002,5.99732003 22.5085002,6.51532003 23.0965002,6.64132003 C24.8885002,6.99132003 26.5685002,7.69132003 28.0945002,8.71332004 C28.5985002,9.04932004 29.2705002,8.97932004 29.6905002,8.55932004 L31.4545003,6.79532003 C31.5385003,6.71132003 31.6365003,6.69732003 31.6925003,6.69732003 C31.7625003,6.69732003 31.8465003,6.71132003 31.9305003,6.79532003 L33.8485003,8.71332004 C33.9885003,8.85332004 33.9885003,9.06332004 33.8485003,9.20332004 L32.0845003,10.96732 C31.6505003,11.40132 31.5945003,12.0733201 31.9305003,12.5633201 C32.9525003,14.0893201 33.6385003,15.7693201 34.0025003,17.5613201 C34.1145003,18.1493201 34.6465003,18.5833201 35.2485003,18.5833201 L37.7405003,18.5833201 C37.9225003,18.5833201 38.0765003,18.7373201 38.0765003,18.9193201 L38.0765003,21.6353201 C38.0765003,21.8173201 37.9225003,21.9713201 37.7405003,21.9713201 L35.2485003,21.9713201 C34.6465003,21.9573201 34.1285003,22.3773201 34.0165003,22.9793201 Z" id="Shape" fill="#000000"></path>
                                                <path d="M20.3945002,12.1153201 C15.9005002,12.1153201 12.2605002,15.7693201 12.2605002,20.2493201 C12.2605002,24.7433201 15.9145002,28.3833201 20.3945002,28.3833201 C24.8885002,28.3833201 28.5285002,24.7293201 28.5285002,20.2493201 C28.5285002,15.7693201 24.8745002,12.1153201 20.3945002,12.1153201 Z M20.3945002,25.8493201 C17.3005002,25.8493201 14.7945002,23.3433201 14.7945002,20.2493201 C14.7945002,17.1553201 17.3005002,14.6493201 20.3945002,14.6493201 C23.4885002,14.6493201 25.9945002,17.1553201 25.9945002,20.2493201 C25.9945002,23.3433201 23.4745002,25.8493201 20.3945002,25.8493201 Z" id="Shape" fill="#000000"></path>
                                            </g>
                                            <g id="Group" transform="translate(5.000000, 4.000000)"></g>
                                            <line x1="103.146101" y1="12.0947266" x2="57.3645003" y2="57.1196289" id="Path-2" stroke="#090909" stroke-width="3"></line>
                                        </g>
                                    </g>
                                </g>
                            </g>
                            <g id="clouds"></g>
                        </g>
                    </g>
                </g>
            </g>
        </g>
    </g>
</svg>