<?xml version="1.0" encoding="UTF-8"?>
<svg width="228px" height="229px" viewBox="0 0 228 229" version="1.1" xmlns="http://www.w3.org/2000/svg" xmlns:xlink="http://www.w3.org/1999/xlink">
    <!-- Generator: Sketch 59.1 (86144) - https://sketch.com -->
    <title>Group 3</title>
    <desc>Created with Sketch.</desc>
    <defs>
        <rect id="path-1" x="29" y="29" width="154.799997" height="154.799997" rx="11.5199998"></rect>
        <filter x="-12.3%" y="-12.3%" width="124.7%" height="124.7%" filterUnits="objectBoundingBox" id="filter-3">
            <feMorphology radius="1.07999998" operator="dilate" in="SourceAlpha" result="shadowSpreadOuter1"></feMorphology>
            <feOffset dx="0" dy="0" in="shadowSpreadOuter1" result="shadowOffsetOuter1"></feOffset>
            <feGaussianBlur stdDeviation="6" in="shadowOffsetOuter1" result="shadowBlurOuter1"></feGaussianBlur>
            <feComposite in="shadowBlurOuter1" in2="SourceAlpha" operator="out" result="shadowBlurOuter1"></feComposite>
            <feColorMatrix values="0 0 0 0 0   0 0 0 0 0   0 0 0 0 0  0 0 0 0.147235577 0" type="matrix" in="shadowBlurOuter1"></feColorMatrix>
        </filter>
    </defs>
    <g id="Page-1" stroke="none" stroke-width="1" fill="none" fill-rule="evenodd">
        <g id="network_security" transform="translate(-232.000000, -1676.000000)">
            <g id="Group-21" transform="translate(240.000000, 909.000000)">
                <g transform="translate(0.000000, 775.000000)" id="Group-3">
                    <g>
                        <g id="Group-16">
                            <circle id="Oval" fill="#F1F1F1" cx="107.999998" cy="100.799998" r="92.1599982"></circle>
                            <mask id="mask-2" fill="white">
                                <use xlink:href="#path-1"></use>
                            </mask>
                            <g id="Rectangle" fill-rule="nonzero" transform="translate(106.399998, 106.399998) rotate(-30.000000) translate(-106.399998, -106.399998) ">
                                <use fill="black" fill-opacity="1" filter="url(#filter-3)" xlink:href="#path-1"></use>
                                <use stroke="#F1F1F1" stroke-width="2.15999996" fill="#FFFFFF" xlink:href="#path-1"></use>
                            </g>
                            <g id="shield-(5)" mask="url(#mask-2)" fill-rule="nonzero">
                                <g transform="translate(68.000000, 60.000000)">
                                    <path d="M73.8,12.5999997 L73.8,41.9741992 C73.8,64.2833987 59.1677988,83.9501983 37.8,90.3599982 C16.4325597,83.9527183 1.79999996,64.2844787 1.79999996,41.9741992 L1.79999996,12.5999997 C7.76519985,12.5999997 12.5999997,7.76519985 12.5999997,1.79999996 L62.9999987,1.79999996 C62.9999987,7.76519985 67.8347987,12.5999997 73.8,12.5999997 Z" id="Path" fill="#DAE1EF"></path>
                                    <path d="M57.3029989,8.99999982 L18.2969996,8.99999982 C16.4807997,13.1471997 13.1471997,16.4807997 8.99999982,18.2969996 L8.99999982,41.9741992 C8.99999982,60.5213988 20.4857996,76.6601985 37.7999992,82.7873984 C55.1141989,76.6601985 66.5999987,60.5213988 66.5999987,41.9741992 L66.5999987,18.2969996 C62.4527988,16.4807997 59.1191988,13.1471997 57.3029989,8.99999982 Z" id="Path" fill="#FFD800"></path>
                                    <path d="M37.7999992,28.0799994 C45.7397991,28.0799994 52.199999,34.5401993 52.199999,42.4799992 C52.199999,50.419799 45.7397991,56.8799989 37.7999992,56.8799989 C29.8601994,56.8799989 23.3999995,50.419799 23.3999995,42.4799992 C23.3999995,34.5401993 29.8601994,28.0799994 37.7999992,28.0799994 Z" id="Path" fill="#10BDE0"></path>
                                    <path d="M37.6199993,10.7888398 C38.6864992,10.8946798 39.5981992,10.0639798 39.5981992,8.99999982 C39.5981992,8.00315984 38.7953992,7.20179986 37.7999992,7.20179986 C36.8031593,7.20179986 36.0017993,8.00459984 36.0017993,8.99999982 C36.0017993,9.9264598 36.6987593,10.6973998 37.6199993,10.7888398 Z" id="Path" fill="#000000"></path>
                                    <path d="M73.7999985,10.7999998 C68.8373986,10.7999998 64.7999987,6.76259987 64.7999987,1.79999996 C64.7999987,0.806039984 63.9939587,0 63,0 L12.5999997,0 C11.6060398,0 10.7999998,0.806039984 10.7999998,1.79999996 C10.7999998,6.76259987 6.76259987,10.7999998 1.79999996,10.7999998 C0.806039984,10.7999998 0,11.6060398 0,12.5999997 L0,41.9741992 C0,64.8660587 14.9210997,85.3784983 37.2830393,92.0842182 C37.4516993,92.1346182 37.6257593,92.1599982 37.7999992,92.1599982 C37.9742392,92.1599982 38.1486592,92.1346182 38.3171392,92.0840382 C60.1946988,85.5214183 75.5999985,65.3668187 75.5999985,41.9741992 L75.5999985,12.5999997 C75.5999985,11.6060398 74.7939585,10.7999998 73.7999985,10.7999998 Z M71.9999986,41.9741992 C71.9999986,63.4748387 58.2802188,82.0947584 37.7999992,88.4777382 C17.4830397,82.1456984 3.59999993,63.3571187 3.59999993,41.9741992 L3.59999993,14.2718397 C9.10997982,13.4801997 13.4801997,9.10997982 14.2718397,3.59999993 L61.3281588,3.59999993 C62.1197988,9.10997982 66.4900187,13.4801997 71.9999986,14.2718397 L71.9999986,41.9741992 Z" id="Shape" fill="#000000"></path>
                                    <path d="M58.9517988,8.27783984 C58.6648788,7.62299985 58.0179588,7.19999986 57.3029989,7.19999986 L44.9963991,7.19999986 C44.0024391,7.19999986 43.1963991,8.00603984 43.1963991,8.99999982 C43.1963991,9.9939598 44.0024391,10.7999998 44.9963991,10.7999998 L56.1648589,10.7999998 C58.0665588,14.5225797 61.0774188,17.5332597 64.7999987,19.4351396 L64.7999987,41.9741992 C64.7999987,59.5895388 54.2251789,74.7887385 37.7999992,80.8729184 C21.3748196,74.7885585 10.7999998,59.5895388 10.7999998,41.9741992 L10.7999998,19.4351396 C14.5225797,17.5332597 17.5332597,14.5225797 19.4351396,10.7999998 L30.6035994,10.7999998 C31.5975594,10.7999998 32.4035994,9.9939598 32.4035994,8.99999982 C32.4035994,8.00603984 31.5975594,7.19999986 30.6035994,7.19999986 L18.2969996,7.19999986 C17.5820397,7.19999986 16.9351197,7.62317985 16.6481997,8.27783984 C15.0042597,12.0315598 12.0315598,15.0042597 8.27783984,16.6481997 C7.62317985,16.9351197 7.19999986,17.5822197 7.19999986,18.2969996 L7.19999986,41.9741992 C7.19999986,61.2725388 19.1359796,78.0917384 37.1995193,84.4840783 C37.3937393,84.5528383 37.5967793,84.5872183 37.7999992,84.5872183 C38.0032192,84.5872183 38.2062592,84.5528383 38.4004792,84.4840783 C56.4488989,78.0971384 68.3999986,61.2881988 68.3999986,41.9741992 L68.3999986,18.2969996 C68.3999986,17.5820397 67.9768186,16.9351197 67.3221587,16.6481997 C63.5684387,15.0042597 60.5957388,12.0315598 58.9517988,8.27783984 Z" id="Path" fill="#000000"></path>
                                    <path d="M21.5999996,42.4799992 C21.5999996,51.412679 28.8673194,58.6799988 37.7999992,58.6799988 C46.7326791,58.6799988 53.9999989,51.412679 53.9999989,42.4799992 C53.9999989,33.5473193 46.7326791,26.2799995 37.7999992,26.2799995 C28.8673194,26.2799995 21.5999996,33.5473193 21.5999996,42.4799992 Z M50.399999,42.4799992 C50.399999,49.427639 44.7476391,55.0799989 37.7999992,55.0799989 C30.8523594,55.0799989 25.1999995,49.427639 25.1999995,42.4799992 C25.1999995,35.5323593 30.8523594,29.8799994 37.7999992,29.8799994 C44.7476391,29.8799994 50.399999,35.5323593 50.399999,42.4799992 Z" id="Shape" fill="#000000"></path>
                                    <path d="M33.6727793,43.0072191 C32.9696993,42.3044992 31.8302994,42.3044992 31.1270394,43.0072191 C30.4241394,43.7101191 30.4241394,44.8498791 31.1270394,45.5529591 L34.7270393,49.152959 C35.0787593,49.504139 35.5391993,49.679999 35.9999993,49.679999 C36.4607993,49.679999 36.9212393,49.504139 37.2727793,49.152779 L46.2727791,40.1527792 C46.9756791,39.4498792 46.9756791,38.3101192 46.2727791,37.6070393 C45.5696991,36.9043193 44.4302991,36.9043193 43.7270391,37.6070393 L35.9999993,45.3342591 L33.6727793,43.0072191 Z" id="Path" fill="#000000"></path>
                                </g>
                            </g>
                        </g>
                        <g id="clouds"></g>
                    </g>
                </g>
            </g>
        </g>
    </g>
</svg>