<?xml version="1.0" encoding="UTF-8"?>
<svg width="229px" height="229px" viewBox="0 0 229 229" version="1.1" xmlns="http://www.w3.org/2000/svg" xmlns:xlink="http://www.w3.org/1999/xlink">
    <!-- Generator: Sketch 59.1 (86144) - https://sketch.com -->
    <title>Group 3</title>
    <desc>Created with Sketch.</desc>
    <defs>
        <rect id="path-1" x="28.7999994" y="28.7999994" width="154.799997" height="154.799997" rx="11.5199998"></rect>
        <filter x="-12.3%" y="-12.3%" width="124.7%" height="124.7%" filterUnits="objectBoundingBox" id="filter-3">
            <feMorphology radius="1.07999998" operator="dilate" in="SourceAlpha" result="shadowSpreadOuter1"></feMorphology>
            <feOffset dx="0" dy="0" in="shadowSpreadOuter1" result="shadowOffsetOuter1"></feOffset>
            <feGaussianBlur stdDeviation="6" in="shadowOffsetOuter1" result="shadowBlurOuter1"></feGaussianBlur>
            <feComposite in="shadowBlurOuter1" in2="SourceAlpha" operator="out" result="shadowBlurOuter1"></feComposite>
            <feColorMatrix values="0 0 0 0 0   0 0 0 0 0   0 0 0 0 0  0 0 0 0.147235577 0" type="matrix" in="shadowBlurOuter1"></feColorMatrix>
        </filter>
    </defs>
    <g id="Page-1" stroke="none" stroke-width="1" fill="none" fill-rule="evenodd">
        <g id="network_security" transform="translate(-231.000000, -901.000000)">
            <g id="Group-21" transform="translate(240.000000, 909.000000)">
                <g id="Group-7">
                    <g id="Group-3">
                        <g id="Group-16">
                            <circle id="Oval" fill="#F1F1F1" cx="107.999998" cy="100.799998" r="92.1599982"></circle>
                            <mask id="mask-2" fill="white">
                                <use xlink:href="#path-1"></use>
                            </mask>
                            <g id="Rectangle" fill-rule="nonzero" transform="translate(106.199998, 106.199998) rotate(-30.000000) translate(-106.199998, -106.199998) ">
                                <use fill="black" fill-opacity="1" filter="url(#filter-3)" xlink:href="#path-1"></use>
                                <use stroke="#F1F1F1" stroke-width="2.15999996" fill="#FFFFFF" xlink:href="#path-1"></use>
                            </g>
                            <g id="network-(2)" mask="url(#mask-2)">
                                <g transform="translate(58.000000, 56.000000)">
                                    <path d="M72.0000064,24.0000021 L72.0000064,50.7040045 C69.4080062,47.4880042 66.1440059,44.848004 62.4000056,43.0080038 L62.4000056,24.0000021 C62.4000056,16.9280015 56.6720051,11.200001 49.6000044,11.200001 C46.0640041,11.200001 42.8640038,12.6400011 40.5440036,14.9440013 C38.2400034,17.2640015 36.8000033,20.4640018 36.8000033,24.0000021 L36.8000033,43.0080038 C33.056003,44.848004 29.7920027,47.4880042 27.2000024,50.7040045 L27.2000024,24.0000021 C27.2000024,22.352002 27.3760024,20.7520019 27.7120025,19.2000017 C28.6560026,14.9440013 30.7840028,11.136001 33.760003,8.16000073 C37.8240034,4.11200037 43.4240039,1.60000014 49.6000044,1.60000014 C60.3200054,1.60000014 69.2800062,9.13600082 71.4880064,19.2000017 C71.8240064,20.7520019 72.0000064,22.352002 72.0000064,24.0000021 Z" id="Path" fill="#BEC8DC" fill-rule="nonzero"></path>
                                    <path d="M62.4000056,43.0080038 C66.1440059,44.848004 69.4080062,47.4880042 72.0000064,50.7040045 C72.0000064,50.7040045 72.0160064,50.7040045 72.0000064,50.7200045 C74.0480066,53.2320048 75.6640068,56.096005 76.7520069,59.2000053 C77.824007,62.2080056 78.400007,65.4400059 78.400007,68.8000062 C78.400007,72.1600065 77.824007,75.3920067 76.7520069,78.400007 C72.8000019,89.584008 62.1440056,97.6000087 49.6000044,97.6000087 C37.0560033,97.6000087 26.4000024,89.584008 22.448002,78.400007 C21.3760019,75.3920067 20.8000019,72.1600065 20.8000019,68.8000062 C20.8000019,65.4400059 21.3760019,62.2080056 22.448002,59.2000053 C23.5360021,56.096005 25.1520022,53.2320048 27.2000024,50.7200045 C27.1840024,50.7040045 27.2000024,50.7040045 27.2000024,50.7040045 C29.7920027,47.4880042 33.056003,44.848004 36.8000019,43.0080038 C40.6560036,41.0880037 44.992004,40.0000036 49.6000044,40.0000036 C54.2080048,40.0000036 58.5440052,41.0880037 62.4000056,43.0080038 Z" id="Path" fill="#FFD800" fill-rule="nonzero"></path>
                                    <circle id="Oval" fill="#10BDE0" fill-rule="nonzero" cx="49.6000044" cy="68.8000062" r="22.400002"></circle>
                                    <g id="Group" stroke-width="1" fill="none" fill-rule="evenodd" transform="translate(1.600000, 1.600000)">
                                        <path d="M91.2000082,0 C93.8560084,0 96.0000086,2.14400019 96.0000086,4.80000043 C96.0000086,7.45600067 93.8560084,9.60000086 91.2000082,9.60000086 C89.872008,9.60000086 88.6720079,9.05600081 87.8080079,8.19200073 C86.9440078,7.32800066 86.4000077,6.12800055 86.4000077,4.80000043 C86.4000077,2.14400019 88.5440079,0 91.2000082,0 Z" id="Path" fill="#F75E45" fill-rule="nonzero"></path>
                                        <path d="M4.80000043,0 C7.45600067,0 9.60000086,2.14400019 9.60000086,4.80000043 C9.60000086,6.12800055 9.05600081,7.32800066 8.19200073,8.19200073 C7.32800066,9.05600081 6.12800055,9.60000086 4.80000043,9.60000086 C2.14400019,9.60000086 0,7.45600067 0,4.80000043 C0,2.14400019 2.14400019,0 4.80000043,0 Z" id="Path" fill="#F75E45" fill-rule="nonzero"></path>
                                        <circle id="Oval" fill="#F75E45" fill-rule="nonzero" cx="3.20000029" cy="67.200006" r="3.20000029"></circle>
                                        <circle id="Oval" fill="#F75E45" fill-rule="nonzero" cx="3.20000029" cy="51.2000046" r="3.20000029"></circle>
                                        <circle id="Oval" fill="#F75E45" fill-rule="nonzero" cx="3.20000029" cy="83.2000074" r="3.20000029"></circle>
                                        <circle id="Oval" fill="#F75E45" fill-rule="nonzero" cx="92.8000083" cy="67.200006" r="3.20000029"></circle>
                                        <circle id="Oval" fill="#F75E45" fill-rule="nonzero" cx="92.8000083" cy="51.2000046" r="3.20000029"></circle>
                                        <circle id="Oval" fill="#F75E45" fill-rule="nonzero" cx="92.8000083" cy="83.2000074" r="3.20000029"></circle>
                                    </g>
                                    <path d="M49.6000023,44.800004 C36.3664033,44.800004 25.6000023,55.566405 25.6000023,68.800004 C25.6000023,82.0336073 36.3664033,92.800004 49.6000023,92.800004 C62.8336056,92.800004 73.6000023,82.0336073 73.6000023,68.800004 C73.6000023,55.566405 62.8336056,44.800004 49.6000023,44.800004 Z M49.6000044,88.971208 C48.5696043,87.8912079 46.9232042,85.9456077 45.3808041,83.2000074 L53.8208048,83.2000074 C52.2768047,85.9472077 50.6304045,87.8928079 49.6000044,88.971208 Z M43.8288039,80.0000072 C42.7104038,77.3008069 41.8640037,74.0848066 41.6640037,70.4000063 L57.5328051,70.4000063 C57.3344051,74.0848066 56.4864051,77.3008069 55.368005,80.0000072 L43.8288039,80.0000072 Z M28.8816026,70.4000063 L38.4656034,70.4000063 C38.6384035,74.0288066 39.3664035,77.2352069 40.3760036,80.0000072 L32.1024029,80.0000072 C30.2944027,77.1872069 29.1504026,73.9168066 28.8816026,70.4000063 Z M49.6000044,48.6288043 C50.6304045,49.7088044 52.2784047,51.6544046 53.8192048,54.4000049 L45.3792041,54.4000049 C46.9216042,51.6544046 48.5696043,49.7088044 49.6000044,48.6288043 Z M55.371205,57.6000051 C56.4896051,60.2992054 57.3360051,63.5152057 57.5360051,67.200006 L41.6672037,67.200006 C41.8656037,63.5152057 42.7136038,60.2992054 43.8320039,57.6000051 L55.371205,57.6000051 Z M38.4640034,67.200006 L28.8800026,67.200006 C29.1504026,63.6832057 30.2928027,60.4128054 32.1008029,57.6000051 L40.3744036,57.6000051 C39.3648035,60.3648054 38.6368035,63.5712057 38.4640034,67.200006 L38.4640034,67.200006 Z M60.7360054,70.4000063 L70.3200063,70.4000063 C70.0496063,73.9168066 68.9072062,77.1872069 67.099206,80.0000072 L58.8256053,80.0000072 C59.8352053,77.2352069 60.5632054,74.0288066 60.7360054,70.4000063 L60.7360054,70.4000063 Z M60.7360054,67.200006 C60.5632054,63.5712057 59.8352053,60.3648054 58.8256053,57.6000051 L67.099206,57.6000051 C68.9056062,60.4128054 70.0496063,63.6832057 70.3200063,67.200006 L60.7360054,67.200006 Z M64.5744058,54.4000049 L57.4688051,54.4000049 C56.241605,51.9040046 54.8688049,49.9024045 53.6672048,48.4048043 C57.9104052,49.2496044 61.6832055,51.3952046 64.5744058,54.4000049 Z M45.5328041,48.4048043 C44.331204,49.9024045 42.9600038,51.9040046 41.7312037,54.4000049 L34.6256031,54.4000049 C37.5168034,51.3952046 41.2896037,49.2496044 45.5328041,48.4048043 Z M34.6256031,83.2000074 L41.7312037,83.2000074 C42.9584038,85.6960077 44.331204,87.6976078 45.5328041,89.195208 C41.2896037,88.3504079 37.5168034,86.2048077 34.6256031,83.2000074 Z M53.6672048,89.195208 C54.8688049,87.6976078 56.241605,85.6960077 57.4688051,83.2000074 L64.5744058,83.2000074 C61.6832055,86.2048077 57.9104052,88.3504079 53.6672048,89.195208 Z" id="Shape" fill="#000000" fill-rule="nonzero"></path>
                                    <polygon id="Path" fill="#000000" fill-rule="nonzero" points="44.800004 60.8000054 48.0000043 60.8000054 48.0000043 64.0000057 44.800004 64.0000057"></polygon>
                                    <polygon id="Path" fill="#000000" fill-rule="nonzero" points="51.2000046 60.8000054 54.4000049 60.8000054 54.4000049 64.0000057 51.2000046 64.0000057"></polygon>
                                    <polygon id="Path" fill="#000000" fill-rule="nonzero" points="44.800004 73.6000066 48.0000043 73.6000066 48.0000043 76.8000069 44.800004 76.8000069"></polygon>
                                    <polygon id="Path" fill="#000000" fill-rule="nonzero" points="51.2000046 73.6000066 54.4000049 73.6000066 54.4000049 76.8000069 51.2000046 76.8000069"></polygon>
                                    <path d="M80.7008072,60.8000054 C82.9072074,60.8000054 84.8224076,59.3040053 85.3584076,57.1648051 L85.7440077,55.612805 C85.9248077,54.8992049 86.5632077,54.4000049 87.2992078,54.4000049 L89.896008,54.4000049 C90.5584081,56.257605 92.3184083,57.6000051 94.4016084,57.6000051 C97.0480087,57.6000051 99.2016089,55.446405 99.2016089,52.8000047 C99.2016089,50.1536045 97.0480087,48 94.4016084,48 C92.3184083,48 90.5584081,49.3424044 89.896008,51.2000046 L87.2992078,51.2000046 C85.0928076,51.2000046 83.1776074,52.6960047 82.6416074,54.8352049 L82.2560074,56.387205 C82.0752073,57.1008051 81.4368073,57.6000051 80.7008072,57.6000051 L77.833607,57.6000051 C76.7696069,54.9280049 75.3360067,52.4480047 73.5984066,50.2096045 L73.5984066,24 C73.5984066,22.912002 73.5008066,21.849602 73.3600066,20.8000019 L80.6608072,20.8000019 L89.568008,11.8928011 C90.5216081,12.4560011 91.6160082,12.8000011 92.8000083,12.8000011 C96.3296086,12.8000011 99.2000089,9.92960089 99.2000089,6.40000057 C99.2000089,2.87040026 96.3296086,0 92.8000083,0 C89.270408,0 86.4000077,2.87040026 86.4000077,6.40000057 C86.4000077,7.58400068 86.7440078,8.67840078 87.3072078,9.63040086 L79.3376071,17.6000016 L72.7072065,17.6000016 C69.8960062,7.46720067 60.6160054,0 49.6000044,0 C38.5840034,0 29.3040026,7.46720067 26.4928024,17.6000016 L19.8624018,17.6000016 L11.8928011,9.63040086 C12.4560011,8.67840078 12.8000011,7.58400068 12.8000011,6.40000057 C12.8000011,2.87040026 9.92960089,0 6.40000057,0 C2.87040026,0 0,2.87040026 0,6.40000057 C0,9.92960089 2.87040026,12.8000011 6.40000057,12.8000011 C7.58400068,12.8000011 8.67840078,12.4560011 9.63040086,11.8928011 L18.5376017,20.8000019 L25.8384023,20.8000019 C25.6976023,21.849602 25.6000023,22.912002 25.6000023,24 L25.6000023,50.2096045 C23.8624021,52.4480047 22.428802,54.9280049 21.3648019,57.6000051 L18.4976017,57.6000051 C17.7616016,57.6000051 17.1248015,57.1008051 16.9456015,56.388805 L16.5568015,54.8336049 C16.0240014,52.6960047 14.1072013,51.2000046 11.9008011,51.2000046 L9.30560083,51.2000046 C8.64320077,49.3424044 6.88320062,48 4.80000043,48 C2.15360019,48 0,50.1536045 0,52.8000047 C0,55.446405 2.15360019,57.6000051 4.80000043,57.6000051 C6.88320062,57.6000051 8.64320077,56.257605 9.30560083,54.4000049 L11.9024011,54.4000049 C12.6384011,54.4000049 13.2752012,54.8992049 13.4544012,55.611205 L13.8432012,57.1664051 C14.3760013,59.3040053 16.2928015,60.8000054 18.4992017,60.8000054 L20.3040018,60.8000054 C19.7408018,62.8560056 19.3968017,64.9952058 19.2816017,67.200006 L9.30560083,67.200006 C8.64320077,65.3424058 6.88320062,64 4.80000043,64 C2.15360019,64 0,66.1536059 0,68.8000062 C0,71.4464064 2.15360019,73.6000066 4.80000043,73.6000066 C6.88320062,73.6000066 8.64320077,72.2576065 9.30560083,70.4000063 L19.2816017,70.4000063 C19.3968017,72.6048065 19.7424018,74.7440067 20.3040018,76.8000069 L18.4992017,76.8000069 C16.2928015,76.8000069 14.3776013,78.296007 13.8416012,80.4352072 L13.4560012,81.9872073 C13.2752012,82.7008074 12.6368011,83.2000074 11.9008011,83.2000074 L9.30560083,83.2000074 C8.64320077,81.3424073 6.88320062,80 4.80000043,80 C2.15360019,80 0,82.1536073 0,84.8000076 C0,87.4464078 2.15360019,89.600008 4.80000043,89.600008 C6.88320062,89.600008 8.64320077,88.2576079 9.30560083,86.4000077 L11.9024011,86.4000077 C14.1088013,86.4000077 16.0240014,84.9040076 16.5600015,82.7648074 L16.9456015,81.2128073 C17.1248015,80.4992072 17.7632016,80 18.4992017,80 L21.3664019,80 C25.8368023,91.2304082 36.7952033,99.2000089 49.6000044,99.2000089 C62.4048056,99.2000089 73.3632066,91.2304082 77.835207,80 L80.7024072,80 C81.4384073,80 82.0752073,80.4992072 82.2544074,81.2112073 L82.6432074,82.7664074 C83.1760074,84.9040076 85.0928076,86.4000077 87.2992078,86.4000077 L89.896008,86.4000077 C90.5584081,88.2576079 92.3184083,89.600008 94.4016084,89.600008 C97.0480087,89.600008 99.2016089,87.4464078 99.2016089,84.8000076 C99.2016089,82.1536073 97.0480087,80 94.4016084,80 C92.3184083,80 90.5584081,81.3424073 89.896008,83.2000074 L87.2992078,83.2000074 C86.5632077,83.2000074 85.9264077,82.7008074 85.7472077,81.9888073 L85.3584076,80.4336072 C84.8240076,78.296007 82.9072074,76.8000069 80.7008072,76.8000069 L78.8960071,76.8000069 C79.4592071,74.7440067 79.8032071,72.6048065 79.9184071,70.4000063 L89.894408,70.4000063 C90.5568081,72.2576065 92.3168083,73.6000066 94.4000084,73.6000066 C97.0464087,73.6000066 99.2000089,71.4464064 99.2000089,68.8000062 C99.2000089,66.1536059 97.0464087,64 94.4000084,64 C92.3168083,64 90.5568081,65.3424058 89.894408,67.200006 L79.9184071,67.200006 C79.8032071,64.9952058 79.4576071,62.8560056 78.8960071,60.8000054 L80.7008072,60.8000054 Z M94.4000084,51.2000046 C95.2832085,51.2000046 96.0000086,51.9168046 96.0000086,52.8000047 C96.0000086,53.6832048 95.2832085,54.4000049 94.4000084,54.4000049 C93.5168084,54.4000049 92.8000083,53.6832048 92.8000083,52.8000047 C92.8000083,51.9168046 93.5168084,51.2000046 94.4000084,51.2000046 Z M92.8000083,3.20000029 C94.5648085,3.20000029 96.0000086,4.63520041 96.0000086,6.40000057 C96.0000086,8.16480073 94.5648085,9.60000086 92.8000083,9.60000086 C91.0352081,9.60000086 89.600008,8.16480073 89.600008,6.40000057 C89.600008,4.63520041 91.0352081,3.20000029 92.8000083,3.20000029 Z M6.40000057,9.60000086 C4.63520041,9.60000086 3.20000029,8.16480073 3.20000029,6.40000057 C3.20000029,4.63520041 4.63520041,3.20000029 6.40000057,3.20000029 C8.16480073,3.20000029 9.60000086,4.63520041 9.60000086,6.40000057 C9.60000086,8.16480073 8.16480073,9.60000086 6.40000057,9.60000086 Z M4.80000043,54.4000049 C3.91680035,54.4000049 3.20000029,53.6832048 3.20000029,52.8000047 C3.20000029,51.9168046 3.91680035,51.2000046 4.80000043,51.2000046 C5.68320051,51.2000046 6.40000057,51.9168046 6.40000057,52.8000047 C6.40000057,53.6832048 5.68320051,54.4000049 4.80000043,54.4000049 Z M4.80000043,86.4000077 C3.91680035,86.4000077 3.20000029,85.6832077 3.20000029,84.8000076 C3.20000029,83.9168075 3.91680035,83.2000074 4.80000043,83.2000074 C5.68320051,83.2000074 6.40000057,83.9168075 6.40000057,84.8000076 C6.40000057,85.6832077 5.68320051,86.4000077 4.80000043,86.4000077 Z M94.4000084,83.2000074 C95.2832085,83.2000074 96.0000086,83.9168075 96.0000086,84.8000076 C96.0000086,85.6832077 95.2832085,86.4000077 94.4000084,86.4000077 C93.5168084,86.4000077 92.8000083,85.6832077 92.8000083,84.8000076 C92.8000083,83.9168075 93.5168084,83.2000074 94.4000084,83.2000074 Z M49.6000044,3.20000029 C61.0688055,3.20000029 70.4000063,12.5312011 70.4000063,24.0000021 L70.4000063,46.6912042 C68.4784061,44.881604 66.3408059,43.3008039 64.0000057,42.0368038 L64.0000057,24.0000021 C64.0000057,16.0592014 57.5408051,9.60000086 49.6000044,9.60000086 C41.6592037,9.60000086 35.2000031,16.0592014 35.2000031,24.0000021 L35.2000031,42.0368038 C32.8592029,43.3008039 30.7216027,44.881604 28.8000026,46.6912042 L28.8000026,24.0000021 C28.8000026,12.5312011 38.1312034,3.20000029 49.6000044,3.20000029 Z M60.8000054,40.5648036 C57.3296051,39.1824035 53.5568048,38.4000034 49.6000044,38.4000034 C45.6432041,38.4000034 41.8704037,39.1824035 38.4000034,40.5648036 L38.4000034,24.0000021 C38.4000034,17.8256016 43.4256039,12.8000011 49.6000044,12.8000011 C55.774405,12.8000011 60.8000054,17.8256016 60.8000054,24.0000021 L60.8000054,40.5648036 Z M4.80000043,70.4000063 C3.91680035,70.4000063 3.20000029,69.6832062 3.20000029,68.8000062 C3.20000029,67.9168061 3.91680035,67.200006 4.80000043,67.200006 C5.68320051,67.200006 6.40000057,67.9168061 6.40000057,68.8000062 C6.40000057,69.6832062 5.68320051,70.4000063 4.80000043,70.4000063 Z M49.6000044,96.0000086 C34.6016031,96.0000086 22.400002,83.7984075 22.400002,68.8000062 C22.400002,53.8016048 34.6016031,41.6000037 49.6000044,41.6000037 C64.5984058,41.6000037 76.8000069,53.8016048 76.8000069,68.8000062 C76.8000069,83.7984075 64.5984058,96.0000086 49.6000044,96.0000086 Z M94.4000084,67.200006 C95.2832085,67.200006 96.0000086,67.9168061 96.0000086,68.8000062 C96.0000086,69.6832062 95.2832085,70.4000063 94.4000084,70.4000063 C93.5168084,70.4000063 92.8000083,69.6832062 92.8000083,68.8000062 C92.8000083,67.9168061 93.5168084,67.200006 94.4000084,67.200006 Z" id="Shape" fill="#000000" fill-rule="nonzero"></path>
                                </g>
                            </g>
                        </g>
                    </g>
                </g>
            </g>
        </g>
    </g>
</svg>