<?xml version="1.0" encoding="UTF-8"?>
<svg width="295px" height="261px" viewBox="0 0 295 261" version="1.1" xmlns="http://www.w3.org/2000/svg" xmlns:xlink="http://www.w3.org/1999/xlink">
    <!-- Generator: Sketch 63.1 (92452) - https://sketch.com -->
    <title>application_design_and_support</title>
    <desc>Created with Sketch.</desc>
    <defs>
        <filter x="-14.4%" y="-15.9%" width="128.8%" height="131.7%" filterUnits="objectBoundingBox" id="filter-1">
            <feOffset dx="0" dy="2" in="SourceAlpha" result="shadowOffsetOuter1"></feOffset>
            <feGaussianBlur stdDeviation="6.5" in="shadowOffsetOuter1" result="shadowBlurOuter1"></feGaussianBlur>
            <feColorMatrix values="0 0 0 0 0   0 0 0 0 0   0 0 0 0 0  0 0 0 0.227026879 0" type="matrix" in="shadowBlurOuter1" result="shadowMatrixOuter1"></feColorMatrix>
            <feMerge>
                <feMergeNode in="shadowMatrixOuter1"></feMergeNode>
                <feMergeNode in="SourceGraphic"></feMergeNode>
            </feMerge>
        </filter>
        <path d="M96.3985888,45.7649194 C95.8650688,45.5437594 95.2509888,45.6659294 94.8424888,46.0742394 L46.2302294,94.6864988 C45.8219194,95.0949988 45.6997494,95.7090788 45.9207194,96.2425988 C46.1416894,96.7761188 46.6624794,97.1240088 47.2398894,97.1240088 L95.8523388,97.1240088 C96.6408388,97.1240088 97.2801888,96.4848488 97.2801888,95.6961588 L97.2801888,47.0840894 C97.2801888,46.5066794 96.9319188,45.9856994 96.3985888,45.7649194 Z M69.9260791,85.5742889 L85.5300189,69.9703491 L85.5300189,85.5742889 L69.9260791,85.5742889 L69.9260791,85.5742889 Z" id="path-2"></path>
        <filter x="-11.7%" y="-11.7%" width="123.3%" height="123.3%" filterUnits="objectBoundingBox" id="filter-3">
            <feOffset dx="0" dy="0" in="SourceAlpha" result="shadowOffsetOuter1"></feOffset>
            <feGaussianBlur stdDeviation="2" in="shadowOffsetOuter1" result="shadowBlurOuter1"></feGaussianBlur>
            <feColorMatrix values="0 0 0 0 0   0 0 0 0 0   0 0 0 0 0  0 0 0 0.129589161 0" type="matrix" in="shadowBlurOuter1"></feColorMatrix>
        </filter>
    </defs>
    <g id="Page-1" stroke="none" stroke-width="1" fill="none" fill-rule="evenodd">
        <g id="application_design_and_support" transform="translate(-504.000000, -233.000000)" fill-rule="nonzero">
            <g transform="translate(505.000000, 233.000000)">
                <path d="M256.09529,54.3006255 C285.169679,87.7780015 300.810142,134.983044 291.140312,176.036538 C281.470482,217.090032 246.490358,252.056731 210.666558,259.438589 C174.777859,266.820448 137.980586,246.617466 100.274738,228.421833 C62.6337882,210.226199 24.0193657,194.102666 8.31400392,162.179365 C-7.45625603,130.320818 -0.31745523,82.662503 25.7067186,49.8326585 C51.7957906,17.0028139 96.7702357,-0.933807317 140.576513,0.03748986 C184.382791,0.944033892 226.956003,20.8232494 256.09529,54.3006255 Z" id="Path" fill="#EFEFFF" transform="translate(147.000000, 130.500000) rotate(-180.000000) translate(-147.000000, -130.500000) "></path>
                <g id="settings-(1)" transform="translate(192.000000, 105.000000)" fill="#8686A9">
                    <path d="M59.9943737,23.7243745 L55.2721862,22.6978121 C54.8615613,21.4406245 54.3529675,20.2143745 53.7524988,19.0331246 L56.3667175,14.9667184 C56.8335924,14.240156 56.7309362,13.2862497 56.1206237,12.6759372 L48.7640615,5.31937488 C48.1537489,4.70906245 47.1998427,4.60640618 46.4732802,5.07328117 L42.4068741,7.68749983 C41.2256241,7.08703112 39.9993741,6.57843729 38.7421866,6.16781242 L37.7156242,1.44562497 C37.5323429,0.601874987 36.7851555,0 35.9217179,0 L25.5182807,0 C24.6548432,0 23.9076557,0.601874987 23.7243745,1.44562497 L22.6978121,6.16781242 C21.4406245,6.57843729 20.2143745,7.08703112 19.0331246,7.68749983 L14.9667184,5.07328117 C14.240156,4.60640618 13.2862497,4.70906245 12.6759372,5.31937488 L5.31937488,12.6759372 C4.70906245,13.2862497 4.60640618,14.240156 5.07328117,14.9667184 L7.68749983,19.0331246 C7.08703112,20.2143745 6.57843729,21.4406245 6.16781242,22.6978121 L1.44562497,23.7243745 C0.601874987,23.9081245 1.70530253e-14,24.6548432 1.70530253e-14,25.5182807 L1.70530253e-14,35.9217179 C1.70530253e-14,36.7851555 0.601874987,37.5318742 1.44562497,37.7156242 L6.16781242,38.7421866 C6.57843729,39.9993741 7.08703112,41.2256241 7.68749983,42.4068741 L5.07328117,46.4732802 C4.60640618,47.1998427 4.70906245,48.1537489 5.31937488,48.7640615 L12.6759372,56.1206237 C13.2862497,56.7309362 14.240156,56.8335924 14.9667184,56.3667175 L19.0331246,53.7524988 C20.2143745,54.3529675 21.4406245,54.8615613 22.6978121,55.2721862 L23.7243745,59.9943737 C23.9076557,60.8381236 24.6548432,61.4399986 25.5182807,61.4399986 L35.9217179,61.4399986 C36.7851555,61.4399986 37.5323429,60.8381236 37.7156242,59.9943737 L38.7421866,55.2721862 C39.9993741,54.8615613 41.2256241,54.3529675 42.4068741,53.7524988 L46.4732802,56.3667175 C47.1998427,56.8335924 48.1537489,56.731405 48.7640615,56.1206237 L56.1206237,48.7640615 C56.7309362,48.1537489 56.8335924,47.1998427 56.3667175,46.4732802 L53.7524988,42.4068741 C54.3529675,41.2256241 54.8615613,39.9993741 55.2721862,38.7421866 L59.9943737,37.7156242 C60.8381236,37.5318742 61.4399986,36.7851555 61.4399986,35.9217179 L61.4399986,25.5182807 C61.4399986,24.6548432 60.8381236,23.9081245 59.9943737,23.7243745 Z M41.7351553,30.7199993 C41.7351553,36.7935929 36.7935929,41.7351553 30.7199993,41.7351553 C24.6464057,41.7351553 19.7048433,36.7935929 19.7048433,30.7199993 C19.7048433,24.6464057 24.6464057,19.7048433 30.7199993,19.7048433 C36.7935929,19.7048433 41.7351553,24.6464057 41.7351553,30.7199993 Z" id="Shape"></path>
                </g>
                <g id="imac" filter="url(#filter-1)" transform="translate(12.000000, 39.000000)">
                    <path d="M78.2840012,163.966402 C77.9372012,166.823602 76.3712011,169.803203 73.9892011,171.418803 L70.072401,174.075603 C75.6868011,174.075603 126.388802,174.075603 134.727202,174.075603 L130.810402,171.418803 C128.428402,169.803203 126.862002,166.823602 126.515602,163.966002 L124.612802,147.868402 L80.1868012,147.868402 L78.2840012,163.966402 Z" id="Path" fill="#FF3A41"></path>
                    <path d="M193.152003,148.280402 L11.6480002,148.280402 C5.24160008,148.280402 0,143.038802 0,136.632402 L0,11.8636002 C0,5.45720008 5.24160008,0.215600003 11.6480002,0.215600003 L193.152003,0.215600003 C199.558403,0.215600003 204.800003,5.45720008 204.800003,11.8636002 L204.800003,136.632402 C204.800003,143.038802 199.558403,148.280402 193.152003,148.280402 Z" id="Path" fill="#FF4D53"></path>
                    <path d="M193.152003,0.215600003 L11.6480002,0.215600003 C5.24160008,0.215600003 0,5.45720008 0,11.8636002 L0,124.756002 L204.800003,124.756002 L204.800003,11.8636002 C204.800003,5.45720008 199.558403,0.215600003 193.152003,0.215600003 Z" id="Path" fill="#FF4D53"></path>
                    <path d="M191.038003,113.000002 L13.7620002,113.000002 C12.6644002,113.000002 11.7744002,112.110002 11.7744002,111.012402 L11.7744002,13.8948002 C11.7744002,12.7968002 12.6644002,11.9072002 13.7620002,11.9072002 L191.038003,11.9072002 C192.135603,11.9072002 193.025603,12.7972002 193.025603,13.8948002 L193.025603,111.012002 C193.025603,112.110002 192.136003,113.000002 191.038003,113.000002 Z" id="Path" fill="#FAFAFF"></path>
                    <g id="sketch-(1)" transform="translate(56.000000, 18.000000)">
                        <path d="M89.1383089,19.8468298 L0.00662369655,19.8468298 C0.00662369655,19.8468298 0.083219999,72.9364391 0.00662369655,75.874029 C0.00662369655,75.899299 0.00662369655,75.924569 0.00662369655,75.949649 C0.0837899989,78.776279 1.24183998,81.421269 3.26780996,83.397649 C5.29852993,85.3782089 7.9790499,86.4691889 10.8163199,86.4691889 L57.8948993,86.4691889 C58.2735693,86.4691889 58.6368493,86.3187089 58.9045593,86.0511889 L90.1481589,54.8075893 C90.4158689,54.5396893 90.5661589,54.1767893 90.5661589,53.7979293 L90.5661589,21.2744897 C90.5661589,20.4857997 89.9268089,19.8468298 89.1383089,19.8468298 Z" id="Path" fill="#EEEEFF"></path>
                        <g id="Group" transform="translate(25.650000, 19.760000)">
                            <polygon id="Path" fill="#C6C5CA" points="0.182399998 37.4208795 6.01691992 37.4208795 10.6952899 22.7397697 33.3484196 0.0868299989 28.0179696 0.0868299989 5.36483993 22.7397697"></polygon>
                            <path d="M63.4883092,0.0868299989 L58.7289993,0.0868299989 L58.7289993,40.8165595 L64.4979692,35.0475896 C64.7656792,34.7796896 64.9159692,34.4167896 64.9159692,34.0379296 L64.9159692,1.51448998 C64.9161592,0.725799991 64.2768092,0.0868299989 63.4883092,0.0868299989 Z" id="Path" fill="#E3E3FE"></path>
                        </g>
                        <path d="M65.0571392,58.3505193 L25.5154797,58.3505193 C24.7269797,58.3505193 24.0876297,57.7113593 24.0876297,56.9226693 C24.0876297,56.1339793 24.7269797,55.4948193 25.5154797,55.4948193 L65.0571392,55.4948193 C65.8458292,55.4948193 66.4849892,56.1339793 66.4849892,56.9226693 C66.4849892,57.7113593 65.8456392,58.3505193 65.0571392,58.3505193 Z" id="Path" fill="#8686A9"></path>
                        <path d="M10.8505199,64.5559192 C11.4663099,64.5559192 12.0695598,64.6093092 12.6577998,64.7069692 L12.6577998,5.72127993 C12.6577998,4.93258994 12.0184498,4.29342995 11.2299499,4.29342995 C5.03784994,4.29342995 0,9.33108988 0,15.5233798 L0,74.0040491 C0.735489991,68.6671391 5.31163993,64.5559192 10.8505199,64.5559192 Z" id="Path" fill="#CDCDE9"></path>
                        <path d="M77.510879,18.4843398 L68.9359891,9.90925988 C68.6680891,9.64154988 68.3049991,9.49125988 67.9263291,9.49125988 C67.5476592,9.49125988 67.1845692,9.64173988 66.9166692,9.90925988 L35.3356296,41.4901095 C35.3166296,41.5091095 35.2997196,41.5294395 35.2818596,41.5495795 L46.0301594,51.9838093 L77.510689,20.5036597 C78.068529,19.9458197 78.068529,19.0419898 77.510879,18.4843398 Z" id="Path" fill="#8686A9"></path>
                        <path d="M42.1076095,48.1760194 L46.0301594,51.9839993 L77.510689,20.5038497 C78.068339,19.9460097 78.068339,19.0421798 77.510689,18.4845298 L74.6532791,15.6271198 L42.1076095,48.1760194 Z" id="Path" fill="#757593"></path>
                        <path d="M35.2856596,41.5531895 C35.1593096,41.6920795 35.0586096,41.8554795 34.9940096,42.0382595 L30.3203896,55.2780293 C30.1374196,55.7965393 30.2683296,56.3739493 30.6570696,56.7628793 C30.9295296,57.0353393 31.2945196,57.1808793 31.6667296,57.1808793 C31.8261396,57.1808793 31.9864996,57.1542793 32.1419196,57.0993693 L45.3814994,52.4257493 C45.6362894,52.3358793 45.8536494,52.1755193 46.0176194,51.9714593 L35.2856596,41.5531895 Z" id="Path" fill="#FFC89F"></path>
                        <path d="M31.6669196,57.1808793 C31.8263296,57.1808793 31.9866896,57.1542793 32.1421096,57.0993693 L45.3816894,52.4257493 C45.6364794,52.3358793 45.8538394,52.1755193 46.0178094,51.9714593 L42.1032395,48.1712694 L31.4881296,51.9703193 L30.3205796,55.2776493 C30.1376096,55.7961593 30.2685196,56.3735693 30.6572596,56.7624993 C30.9297196,57.0351493 31.2945196,57.1808793 31.6669196,57.1808793 Z" id="Path" fill="#F7B081"></path>
                        <path d="M31.6669196,57.1808793 C31.8263296,57.1808793 31.9866896,57.1542793 32.1421096,57.0993693 L40.4914695,54.1520893 L33.2543696,46.9668594 L30.3207696,55.2776493 C30.1377996,55.7961593 30.2687096,56.3735693 30.6574496,56.7624993 C30.9297196,57.0351493 31.2945196,57.1808793 31.6669196,57.1808793 Z" id="Path" fill="#3C5156"></path>
                        <path d="M36.4906395,50.1801394 L31.4881296,51.9705093 L30.3205796,55.2778393 C30.1376096,55.7963493 30.2685196,56.3737593 30.6572596,56.7626893 C30.9297196,57.0351493 31.2947096,57.1806893 31.6669196,57.1806893 C31.8263296,57.1806893 31.9866896,57.1540893 32.1421096,57.0991793 L40.4914695,54.1518993 L36.4906395,50.1801394 Z" id="Path" fill="#304144"></path>
                        <path d="M82.150109,13.8449198 L73.5750291,5.27002993 C73.0171891,4.71256994 72.1133591,4.71256994 71.5557091,5.27002993 L65.9108092,10.9149299 L76.500839,21.5136997 L82.150109,15.8644298 C82.417819,15.5965298 82.568109,15.2336298 82.568109,14.8547698 C82.568109,14.4760998 82.417629,14.1130098 82.150109,13.8449198 Z" id="Path" fill="#FF4D53"></path>
                        <path d="M72.6350991,17.6449198 L73.9766891,18.9874598 L76.501789,21.5125597 L82.150109,15.8642398 C82.417819,15.5963398 82.568109,15.2334398 82.568109,14.8545798 C82.568109,14.4759098 82.417629,14.1128198 82.150109,13.8449198 L79.292699,10.9875099 L72.6350991,17.6449198 Z" id="Path" fill="#E04F32"></path>
                        <path d="M85.9890589,5.86814993 L81.551609,1.43088998 C80.729479,0.608759992 79.635839,0.155989998 78.473039,0.155989998 C77.310239,0.155989998 76.216789,0.608759992 75.3944691,1.43088998 L72.5672691,4.25808995 L71.5553291,5.27002993 L70.5264791,6.29887992 L81.140449,16.8737098 L82.656269,15.3576998 L85.9888689,12.0250998 C86.8109989,11.2029699 87.2637689,10.1093299 87.2637689,8.94652989 C87.2637689,7.7837299 86.8111889,6.69046992 85.9890589,5.86814993 Z" id="Path" fill="#FFBFC0"></path>
                        <g id="Group" transform="translate(70.489999, 2.280000)">
                            <polygon id="Path" fill="#475D63" points="0.0541499993 4.00158995 0.0366699995 4.01906995 3.20339996 7.17382991"></polygon>
                            <path d="M15.4990598,3.58814995 L11.9973598,0.0864499989 C12.5700198,0.847589989 12.8842798,1.76965998 12.8842798,2.74245997 C12.8842798,3.91817995 12.4315098,5.02359994 11.6093799,5.85522993 L8.2767799,9.22487988 L6.78071991,10.7380399 L10.6510199,14.5940898 L12.1668398,13.0780798 L15.4994398,9.74547988 C16.3215698,8.92334989 16.7743398,7.8297099 16.7743398,6.66690992 C16.7743398,5.50410993 16.3211898,4.41046994 15.4990598,3.58814995 Z" id="Path" fill="#F2A1A3"></path>
                        </g>
                        <g id="Shape">
                            <use fill="black" fill-opacity="1" filter="url(#filter-3)" xlink:href="#path-2"></use>
                            <use fill="#8686A9" xlink:href="#path-2"></use>
                        </g>
                        <path d="M96.3985888,45.7649194 C95.8650688,45.5437594 95.2509888,45.6659294 94.8424888,46.0742394 L91.0926489,49.8240794 L91.0926489,97.1241988 L95.8519588,97.1241988 C96.6404588,97.1241988 97.2798089,96.4850388 97.2798089,95.6963488 L97.2798089,47.0840894 C97.2799988,46.5066794 96.9319188,45.9856994 96.3985888,45.7649194 Z" id="Path" fill="#757593"></path>
                        <g id="Group" transform="translate(90.249999, 63.079999)" fill="#FF4D53">
                            <path d="M7.02999991,0.0480699994 L1.54013998,0.0480699994 C0.751449991,0.0480699994 0.112289999,0.687229991 0.112289999,1.47591998 C0.112289999,2.26460997 0.751449991,2.90376996 1.54013998,2.90376996 L7.02999991,2.90376996 L7.02999991,0.0480699994 Z" id="Path"></path>
                            <path d="M7.02999991,7.20650991 L1.54013998,7.20650991 C0.751449991,7.20650991 0.112289999,7.8456699 0.112289999,8.63435989 C0.112289999,9.42304988 0.751449991,10.0622099 1.54013998,10.0622099 L7.02999991,10.0622099 L7.02999991,7.20650991 Z" id="Path"></path>
                            <path d="M7.02999991,14.3643798 L1.54013998,14.3643798 C0.751449991,14.3643798 0.112289999,15.0035398 0.112289999,15.7922298 C0.112289999,16.5809198 0.751449991,17.2200798 1.54013998,17.2200798 L7.02999991,17.2200798 L7.02999991,14.3643798 Z" id="Path"></path>
                            <path d="M7.02999991,21.5228197 L1.54013998,21.5228197 C0.751449991,21.5228197 0.112289999,22.1621697 0.112289999,22.9506697 C0.112289999,23.7393597 0.751449991,24.3785197 1.54013998,24.3785197 L7.02999991,24.3785197 L7.02999991,21.5228197 Z" id="Path"></path>
                        </g>
                    </g>
                    <path d="M140.510802,173.663203 C118.836002,173.663203 86.0824013,173.663203 64.289201,173.663203 C61.0560009,173.663203 58.4112009,176.308403 58.4112009,179.541203 L58.4112009,179.541203 C58.4112009,182.774003 61.0564009,185.419203 64.289201,185.419203 C86.3956013,185.419203 118.932002,185.419203 140.510802,185.419203 C143.743602,185.419203 146.388802,182.774003 146.388802,179.541203 L146.388802,179.541203 C146.388802,176.308403 143.743602,173.663203 140.510802,173.663203 Z" id="Path" fill="#FF545A"></path>
                    <circle id="Oval" fill="#FF7463" cx="102.400002" cy="136.504002" r="3.11280005"></circle>
                </g>
            </g>
        </g>
    </g>
</svg>