<?xml version="1.0" encoding="UTF-8"?>
<svg width="336px" height="275px" viewBox="0 0 336 275" version="1.1" xmlns="http://www.w3.org/2000/svg" xmlns:xlink="http://www.w3.org/1999/xlink">
    <!-- Generator: Sketch 63.1 (92452) - https://sketch.com -->
    <title>cloud_enablement</title>
    <desc>Created with Sketch.</desc>
    <defs>
        <filter x="-21.7%" y="-23.9%" width="143.4%" height="147.8%" filterUnits="objectBoundingBox" id="filter-1">
            <feOffset dx="0" dy="2" in="SourceAlpha" result="shadowOffsetOuter1"></feOffset>
            <feGaussianBlur stdDeviation="10.5" in="shadowOffsetOuter1" result="shadowBlurOuter1"></feGaussianBlur>
            <feColorMatrix values="0 0 0 0 0   0 0 0 0 0   0 0 0 0 0  0 0 0 0.175480769 0" type="matrix" in="shadowBlurOuter1" result="shadowMatrixOuter1"></feColorMatrix>
            <feMerge>
                <feMergeNode in="shadowMatrixOuter1"></feMergeNode>
                <feMergeNode in="SourceGraphic"></feMergeNode>
            </feMerge>
        </filter>
        <filter x="-17.0%" y="-27.4%" width="134.1%" height="154.8%" filterUnits="objectBoundingBox" id="filter-2">
            <feOffset dx="0" dy="2" in="SourceAlpha" result="shadowOffsetOuter1"></feOffset>
            <feGaussianBlur stdDeviation="5" in="shadowOffsetOuter1" result="shadowBlurOuter1"></feGaussianBlur>
            <feColorMatrix values="0 0 0 0 0   0 0 0 0 0   0 0 0 0 0  0 0 0 0.161740603 0" type="matrix" in="shadowBlurOuter1" result="shadowMatrixOuter1"></feColorMatrix>
            <feMerge>
                <feMergeNode in="shadowMatrixOuter1"></feMergeNode>
                <feMergeNode in="SourceGraphic"></feMergeNode>
            </feMerge>
        </filter>
    </defs>
    <g id="Page-1" stroke="none" stroke-width="1" fill="none" fill-rule="evenodd">
        <g id="cloud_enablement" transform="translate(-492.000000, -238.000000)">
            <g transform="translate(502.000000, 238.000000)">
                <path d="M288.09529,54.3006255 C317.169679,87.7780015 332.810142,134.983044 323.140312,176.036538 C313.470482,217.090032 278.490358,252.056731 242.666558,259.438589 C206.777859,266.820448 169.980586,246.617466 132.274738,228.421833 C94.6337882,210.226199 56.0193657,194.102666 40.3140039,162.179365 C24.543744,130.320818 31.6825448,82.662503 57.7067186,49.8326585 C83.7957906,17.0028139 128.770236,-0.933807317 172.576513,0.03748986 C216.382791,0.944033892 258.956003,20.8232494 288.09529,54.3006255 Z" id="Path" fill="#EFEFFF" fill-rule="nonzero" transform="translate(179.000000, 130.500000) rotate(-180.000000) translate(-179.000000, -130.500000) "></path>
                <g id="settings-(1)" transform="translate(224.000000, 132.000000)" fill="#8686A9" fill-rule="nonzero">
                    <path d="M59.9943737,23.7243745 L55.2721862,22.6978121 C54.8615613,21.4406245 54.3529675,20.2143745 53.7524988,19.0331246 L56.3667175,14.9667184 C56.8335924,14.240156 56.7309362,13.2862497 56.1206237,12.6759372 L48.7640615,5.31937488 C48.1537489,4.70906245 47.1998427,4.60640618 46.4732802,5.07328117 L42.4068741,7.68749983 C41.2256241,7.08703112 39.9993741,6.57843729 38.7421866,6.16781242 L37.7156242,1.44562497 C37.5323429,0.601874987 36.7851555,0 35.9217179,0 L25.5182807,0 C24.6548432,0 23.9076557,0.601874987 23.7243745,1.44562497 L22.6978121,6.16781242 C21.4406245,6.57843729 20.2143745,7.08703112 19.0331246,7.68749983 L14.9667184,5.07328117 C14.240156,4.60640618 13.2862497,4.70906245 12.6759372,5.31937488 L5.31937488,12.6759372 C4.70906245,13.2862497 4.60640618,14.240156 5.07328117,14.9667184 L7.68749983,19.0331246 C7.08703112,20.2143745 6.57843729,21.4406245 6.16781242,22.6978121 L1.44562497,23.7243745 C0.601874987,23.9081245 1.70530253e-14,24.6548432 1.70530253e-14,25.5182807 L1.70530253e-14,35.9217179 C1.70530253e-14,36.7851555 0.601874987,37.5318742 1.44562497,37.7156242 L6.16781242,38.7421866 C6.57843729,39.9993741 7.08703112,41.2256241 7.68749983,42.4068741 L5.07328117,46.4732802 C4.60640618,47.1998427 4.70906245,48.1537489 5.31937488,48.7640615 L12.6759372,56.1206237 C13.2862497,56.7309362 14.240156,56.8335924 14.9667184,56.3667175 L19.0331246,53.7524988 C20.2143745,54.3529675 21.4406245,54.8615613 22.6978121,55.2721862 L23.7243745,59.9943737 C23.9076557,60.8381236 24.6548432,61.4399986 25.5182807,61.4399986 L35.9217179,61.4399986 C36.7851555,61.4399986 37.5323429,60.8381236 37.7156242,59.9943737 L38.7421866,55.2721862 C39.9993741,54.8615613 41.2256241,54.3529675 42.4068741,53.7524988 L46.4732802,56.3667175 C47.1998427,56.8335924 48.1537489,56.731405 48.7640615,56.1206237 L56.1206237,48.7640615 C56.7309362,48.1537489 56.8335924,47.1998427 56.3667175,46.4732802 L53.7524988,42.4068741 C54.3529675,41.2256241 54.8615613,39.9993741 55.2721862,38.7421866 L59.9943737,37.7156242 C60.8381236,37.5318742 61.4399986,36.7851555 61.4399986,35.9217179 L61.4399986,25.5182807 C61.4399986,24.6548432 60.8381236,23.9081245 59.9943737,23.7243745 Z M41.7351553,30.7199993 C41.7351553,36.7935929 36.7935929,41.7351553 30.7199993,41.7351553 C24.6464057,41.7351553 19.7048433,36.7935929 19.7048433,30.7199993 C19.7048433,24.6464057 24.6464057,19.7048433 30.7199993,19.7048433 C36.7935929,19.7048433 41.7351553,24.6464057 41.7351553,30.7199993 Z" id="Shape"></path>
                </g>
                <g id="imac" filter="url(#filter-1)" transform="translate(44.000000, 66.000000)">
                    <path d="M78.2840012,163.966402 C77.9372012,166.823602 76.3712011,169.803203 73.9892011,171.418803 L70.072401,174.075603 C75.6868011,174.075603 126.388802,174.075603 134.727202,174.075603 L130.810402,171.418803 C128.428402,169.803203 126.862002,166.823602 126.515602,163.966002 L124.612802,147.868402 L80.1868012,147.868402 L78.2840012,163.966402 Z" id="Path" fill="#FF3A41" fill-rule="nonzero"></path>
                    <path d="M193.152003,148.280402 L11.6480002,148.280402 C5.24160008,148.280402 0,143.038802 0,136.632402 L0,11.8636002 C0,5.45720008 5.24160008,0.215600003 11.6480002,0.215600003 L193.152003,0.215600003 C199.558403,0.215600003 204.800003,5.45720008 204.800003,11.8636002 L204.800003,136.632402 C204.800003,143.038802 199.558403,148.280402 193.152003,148.280402 Z" id="Path" fill="#FF4D53" fill-rule="nonzero"></path>
                    <path d="M193.152003,0.215600003 L11.6480002,0.215600003 C5.24160008,0.215600003 0,5.45720008 0,11.8636002 L0,124.756002 L204.800003,124.756002 L204.800003,11.8636002 C204.800003,5.45720008 199.558403,0.215600003 193.152003,0.215600003 Z" id="Path" fill="#FF4D53" fill-rule="nonzero"></path>
                    <path d="M191.038003,113.000002 L13.7620002,113.000002 C12.6644002,113.000002 11.7744002,112.110002 11.7744002,111.012402 L11.7744002,13.8948002 C11.7744002,12.7968002 12.6644002,11.9072002 13.7620002,11.9072002 L191.038003,11.9072002 C192.135603,11.9072002 193.025603,12.7972002 193.025603,13.8948002 L193.025603,111.012002 C193.025603,112.110002 192.136003,113.000002 191.038003,113.000002 Z" id="Path" fill="#FAFAFF" fill-rule="nonzero"></path>
                    <polygon id="Rectangle" fill="#EEEEFF" points="59.5 18 89 18 89 73 59.5 73"></polygon>
                    <rect id="Rectangle" fill="#EEEEFF" x="125" y="18" width="30" height="55"></rect>
                    <polygon id="Rectangle" fill="#EEEEFF" transform="translate(91.250000, 91.500000) rotate(-90.000000) translate(-91.250000, -91.500000) " points="76 60 106.5 60 106.5 123 76 123"></polygon>
                    <rect id="Rectangle" fill="#EEEEFF" x="22" y="76" width="35" height="4"></rect>
                    <rect id="Rectangle" fill="#EEEEFF" x="22" y="84.6666667" width="35" height="4"></rect>
                    <rect id="Rectangle" fill="#EEEEFF" x="22" y="93.3333333" width="35" height="4"></rect>
                    <rect id="Rectangle" fill="#EEEEFF" x="22" y="102" width="35" height="4"></rect>
                    <rect id="Rectangle" fill="#EEEEFF" x="92" y="18" width="30" height="28"></rect>
                    <rect id="Rectangle" fill="#EEEEFF" x="125" y="76" width="30" height="30.5"></rect>
                    <rect id="Rectangle" fill="#EEEEFF" x="158" y="18" width="30" height="30.5"></rect>
                    <rect id="Rectangle" fill="#EEEEFF" x="158" y="51" width="30" height="23"></rect>
                    <rect id="Rectangle" fill="#EEEEFF" x="158" y="76" width="30" height="30.5"></rect>
                    <path d="M140.510802,173.663203 C118.836002,173.663203 86.0824013,173.663203 64.289201,173.663203 C61.0560009,173.663203 58.4112009,176.308403 58.4112009,179.541203 L58.4112009,179.541203 C58.4112009,182.774003 61.0564009,185.419203 64.289201,185.419203 C86.3956013,185.419203 118.932002,185.419203 140.510802,185.419203 C143.743602,185.419203 146.388802,182.774003 146.388802,179.541203 L146.388802,179.541203 C146.388802,176.308403 143.743602,173.663203 140.510802,173.663203 Z" id="Path" fill="#FF545A" fill-rule="nonzero"></path>
                    <circle id="Oval" fill="#FF7463" fill-rule="nonzero" cx="102.400002" cy="136.504002" r="3.11280005"></circle>
                </g>
                <g id="cloud-(2)" filter="url(#filter-2)" transform="translate(0.000000, 48.000000)" fill="#DCDCFF" fill-rule="nonzero">
                    <path d="M108.796397,32.6986239 C107.102496,32.6986239 105.411987,32.8671093 103.752009,33.2029497 C102.500241,26.9554173 98.4531968,21.626074 92.7710516,18.7414669 C87.0900375,15.8568595 80.3992412,15.7358665 74.6164574,18.4124112 C69.3832302,3.9972901 53.4551318,-3.44547184 39.0400107,1.78775538 C24.6248896,7.0209826 17.1821279,22.9502117 22.4153551,37.3642021 C9.78798938,37.7633657 -0.186577821,48.2151201 0.00226155023,60.8470087 C0.192231624,73.4800285 10.4766313,83.6264735 23.1107819,83.6468273 L108.796397,83.6468273 C122.86437,83.6468273 134.270499,72.2418297 134.270499,58.1727256 C134.270499,44.1036218 122.86437,32.6986239 108.796397,32.6986239 Z" id="Path"></path>
                </g>
            </g>
        </g>
    </g>
</svg>