<?xml version="1.0" encoding="UTF-8"?>
<svg width="325px" height="266px" viewBox="0 0 325 266" version="1.1" xmlns="http://www.w3.org/2000/svg" xmlns:xlink="http://www.w3.org/1999/xlink">
    <!-- Generator: Sketch 63.1 (92452) - https://sketch.com -->
    <title>devops_solutions</title>
    <desc>Created with Sketch.</desc>
    <defs>
        <filter x="-16.2%" y="-16.2%" width="132.4%" height="132.4%" filterUnits="objectBoundingBox" id="filter-1">
            <feOffset dx="0" dy="2" in="SourceAlpha" result="shadowOffsetOuter1"></feOffset>
            <feGaussianBlur stdDeviation="8" in="shadowOffsetOuter1" result="shadowBlurOuter1"></feGaussianBlur>
            <feColorMatrix values="0 0 0 0 0   0 0 0 0 0   0 0 0 0 0  0 0 0 0.111942745 0" type="matrix" in="shadowBlurOuter1" result="shadowMatrixOuter1"></feColorMatrix>
            <feMerge>
                <feMergeNode in="shadowMatrixOuter1"></feMergeNode>
                <feMergeNode in="SourceGraphic"></feMergeNode>
            </feMerge>
        </filter>
    </defs>
    <g id="Page-1" stroke="none" stroke-width="1" fill="none" fill-rule="evenodd">
        <g id="devops_solution" transform="translate(-488.000000, -235.000000)" fill-rule="nonzero">
            <g id="devops_solutions" transform="translate(493.000000, 235.000000)">
                <path d="M282.09529,54.3006255 C311.169679,87.7780015 326.810142,134.983044 317.140312,176.036538 C307.470482,217.090032 272.490358,252.056731 236.666558,259.438589 C200.777859,266.820448 163.980586,246.617466 126.274738,228.421833 C88.6337882,210.226199 50.0193657,194.102666 34.3140039,162.179365 C18.543744,130.320818 25.6825448,82.662503 51.7067186,49.8326585 C77.7957906,17.0028139 122.770236,-0.933807317 166.576513,0.03748986 C210.382791,0.944033892 252.956003,20.8232494 282.09529,54.3006255 Z" id="Path" fill="#EFEFFF" transform="translate(173.000000, 130.500000) rotate(-180.000000) translate(-173.000000, -130.500000) "></path>
                <g id="spanner" filter="url(#filter-1)" transform="translate(136.405671, 167.915486) rotate(-288.000000) translate(-136.405671, -167.915486) translate(28.405671, 59.915486)">
                    <polygon id="Path" fill="#FF4D53" points="40.1209187 148.527115 148.527115 40.1209187 174.984175 66.4708779 66.4704579 174.984175"></polygon>
                    <g id="Group" fill="#FF6466">
                        <path d="M157.689415,9.83555969 C151.274335,16.2518995 147.725755,24.9895792 147.851335,34.0619989 C147.976495,43.1344187 151.764895,51.7708784 158.354695,58.0074582 C171.646015,70.3252178 192.266334,70.0408778 205.213254,57.3610782 C212.457833,50.1236384 215.999273,39.9734988 214.829993,29.8002591 C214.636373,28.3936791 213.661133,27.2193592 212.314193,26.7707992 C210.967253,26.3222392 209.482553,26.6775592 208.484633,27.6868191 L189.372534,46.7989185 C186.451014,49.7032184 181.732734,49.7032184 178.811634,46.7989185 L168.250735,36.2380189 C165.346435,33.316499 165.346435,28.5982191 168.250735,25.6771192 L187.351074,6.57677979 C188.363694,5.56961983 188.714394,4.07399987 188.255334,2.72159992 C187.796274,1.36919996 186.607674,0.396059988 185.191014,0.213359993 C175.036255,-0.936179971 164.912155,2.60651992 157.689415,9.83555969 Z" id="Path"></path>
                        <path d="M9.83555969,157.689415 C16.2518995,151.274335 24.9895792,147.725755 34.0619989,147.851335 C43.1344187,147.976915 51.7708784,151.764895 58.0074582,158.354695 C70.3252178,171.646015 70.0408778,192.266334 57.3610782,205.212834 C50.1236384,212.457413 39.9734988,215.998853 29.8002591,214.829573 C28.3936791,214.635953 27.2193592,213.660713 26.7707992,212.313773 C26.3222392,210.966833 26.6775592,209.482133 27.6868191,208.484213 L46.7989185,189.372114 C49.7032184,186.450594 49.7032184,181.732314 46.7989185,178.811214 L36.2380189,168.250315 C33.316499,165.346015 28.5982191,165.346015 25.6771192,168.250315 L6.57719979,187.350654 C5.57003983,188.363274 4.07441987,188.713974 2.72201992,188.254914 C1.36961996,187.795854 0.396479988,186.607254 0.213779993,185.190594 C-0.936179971,175.036675 2.60609992,164.912155 9.83555969,157.689415 Z" id="Path"></path>
                    </g>
                    <path d="M78.4811975,145.556458 C77.4971376,145.557715 76.5529776,145.166695 75.8578776,144.470335 C71.4953378,140.104856 71.4961778,133.030376 75.8595576,128.666156 L128.665316,75.8624976 C133.088336,71.6406578 140.048576,71.6406578 144.471595,75.8624976 C145.905475,77.3135976 145.897915,79.6500575 144.454795,81.0919175 C143.011676,82.5337774 140.675216,82.5396574 139.225376,81.1049375 C137.737736,79.6857575 135.397496,79.6857575 133.910276,81.1049375 L81.1028375,133.908596 C80.3976575,134.614196 80.0020175,135.570956 80.0020175,136.568456 C80.0024375,137.565956 80.3989175,138.522296 81.1045175,139.227476 C82.1637574,140.288396 82.4804374,141.882716 81.9062974,143.267876 C81.3321575,144.653035 79.9805975,145.556458 78.4811975,145.556458 L78.4811975,145.556458 Z" id="Path" fill="#D40000"></path>
                </g>
                <g id="settings-(1)" transform="translate(182.000000, 84.000000)" fill="#FFBFC0">
                    <path d="M59.9943737,23.7243745 L55.2721862,22.6978121 C54.8615613,21.4406245 54.3529675,20.2143745 53.7524988,19.0331246 L56.3667175,14.9667184 C56.8335924,14.240156 56.7309362,13.2862497 56.1206237,12.6759372 L48.7640615,5.31937488 C48.1537489,4.70906245 47.1998427,4.60640618 46.4732802,5.07328117 L42.4068741,7.68749983 C41.2256241,7.08703112 39.9993741,6.57843729 38.7421866,6.16781242 L37.7156242,1.44562497 C37.5323429,0.601874987 36.7851555,0 35.9217179,0 L25.5182807,0 C24.6548432,0 23.9076557,0.601874987 23.7243745,1.44562497 L22.6978121,6.16781242 C21.4406245,6.57843729 20.2143745,7.08703112 19.0331246,7.68749983 L14.9667184,5.07328117 C14.240156,4.60640618 13.2862497,4.70906245 12.6759372,5.31937488 L5.31937488,12.6759372 C4.70906245,13.2862497 4.60640618,14.240156 5.07328117,14.9667184 L7.68749983,19.0331246 C7.08703112,20.2143745 6.57843729,21.4406245 6.16781242,22.6978121 L1.44562497,23.7243745 C0.601874987,23.9081245 1.70530253e-14,24.6548432 1.70530253e-14,25.5182807 L1.70530253e-14,35.9217179 C1.70530253e-14,36.7851555 0.601874987,37.5318742 1.44562497,37.7156242 L6.16781242,38.7421866 C6.57843729,39.9993741 7.08703112,41.2256241 7.68749983,42.4068741 L5.07328117,46.4732802 C4.60640618,47.1998427 4.70906245,48.1537489 5.31937488,48.7640615 L12.6759372,56.1206237 C13.2862497,56.7309362 14.240156,56.8335924 14.9667184,56.3667175 L19.0331246,53.7524988 C20.2143745,54.3529675 21.4406245,54.8615613 22.6978121,55.2721862 L23.7243745,59.9943737 C23.9076557,60.8381236 24.6548432,61.4399986 25.5182807,61.4399986 L35.9217179,61.4399986 C36.7851555,61.4399986 37.5323429,60.8381236 37.7156242,59.9943737 L38.7421866,55.2721862 C39.9993741,54.8615613 41.2256241,54.3529675 42.4068741,53.7524988 L46.4732802,56.3667175 C47.1998427,56.8335924 48.1537489,56.731405 48.7640615,56.1206237 L56.1206237,48.7640615 C56.7309362,48.1537489 56.8335924,47.1998427 56.3667175,46.4732802 L53.7524988,42.4068741 C54.3529675,41.2256241 54.8615613,39.9993741 55.2721862,38.7421866 L59.9943737,37.7156242 C60.8381236,37.5318742 61.4399986,36.7851555 61.4399986,35.9217179 L61.4399986,25.5182807 C61.4399986,24.6548432 60.8381236,23.9081245 59.9943737,23.7243745 Z M41.7351553,30.7199993 C41.7351553,36.7935929 36.7935929,41.7351553 30.7199993,41.7351553 C24.6464057,41.7351553 19.7048433,36.7935929 19.7048433,30.7199993 C19.7048433,24.6464057 24.6464057,19.7048433 30.7199993,19.7048433 C36.7935929,19.7048433 41.7351553,24.6464057 41.7351553,30.7199993 Z" id="Shape"></path>
                </g>
                <g id="settings-(1)" transform="translate(97.000000, 16.000000)" fill="#8686A9">
                    <path d="M89.9915605,35.5865617 L82.9082793,34.0467181 C82.292342,32.1609368 81.5294513,30.3215618 80.6287482,28.5496869 L84.5500762,22.4500776 C85.2503887,21.3602339 85.0964043,19.9293746 84.1809356,19.0139057 L73.1460922,7.97906232 C72.2306234,7.06359368 70.799764,6.90960927 69.7099204,7.60992175 L63.6103111,11.5312497 C61.8384361,10.6305467 59.9990612,9.86765594 58.1132799,9.25171863 L56.5734362,2.16843745 C56.2985143,0.90281248 55.1777332,0 53.8825769,0 L38.2774211,0 C36.9822648,0 35.8614836,0.90281248 35.5865617,2.16843745 L34.0467181,9.25171863 C32.1609368,9.86765594 30.3215618,10.6305467 28.5496869,11.5312497 L22.4500776,7.60992175 C21.3602339,6.90960927 19.9293746,7.06359368 19.0139057,7.97906232 L7.97906232,19.0139057 C7.06359368,19.9293746 6.90960927,21.3602339 7.60992175,22.4500776 L11.5312497,28.5496869 C10.6305467,30.3215618 9.86765594,32.1609368 9.25171863,34.0467181 L2.16843745,35.5865617 C0.90281248,35.8621867 2.55795379e-14,36.9822648 2.55795379e-14,38.2774211 L2.55795379e-14,53.8825769 C2.55795379e-14,55.1777332 0.90281248,56.2978112 2.16843745,56.5734362 L9.25171863,58.1132799 C9.86765594,59.9990612 10.6305467,61.8384361 11.5312497,63.6103111 L7.60992175,69.7099204 C6.90960927,70.799764 7.06359368,72.2306234 7.97906232,73.1460922 L19.0139057,84.1809356 C19.9293746,85.0964043 21.3602339,85.2503887 22.4500776,84.5500762 L28.5496869,80.6287482 C30.3215618,81.5294513 32.1609368,82.292342 34.0467181,82.9082793 L35.5865617,89.9915605 C35.8614836,91.2571855 36.9822648,92.1599979 38.2774211,92.1599979 L53.8825769,92.1599979 C55.1777332,92.1599979 56.2985143,91.2571855 56.5734362,89.9915605 L58.1132799,82.9082793 C59.9990612,82.292342 61.8384361,81.5294513 63.6103111,80.6287482 L69.7099204,84.5500762 C70.799764,85.2503887 72.2306234,85.0971075 73.1460922,84.1809356 L84.1809356,73.1460922 C85.0964043,72.2306234 85.2503887,70.799764 84.5500762,69.7099204 L80.6287482,63.6103111 C81.5294513,61.8384361 82.292342,59.9990612 82.9082793,58.1132799 L89.9915605,56.5734362 C91.2571855,56.2978112 92.1599979,55.1777332 92.1599979,53.8825769 L92.1599979,38.2774211 C92.1599979,36.9822648 91.2571855,35.8621867 89.9915605,35.5865617 Z M62.602733,46.079999 C62.602733,55.1903893 55.1903893,62.602733 46.079999,62.602733 C36.9696086,62.602733 29.5572649,55.1903893 29.5572649,46.079999 C29.5572649,36.9696086 36.9696086,29.5572649 46.079999,29.5572649 C55.1903893,29.5572649 62.602733,36.9696086 62.602733,46.079999 Z" id="Shape"></path>
                </g>
            </g>
        </g>
    </g>
</svg>