<?xml version="1.0" encoding="UTF-8"?>
<svg width="296px" height="265px" viewBox="0 0 296 265" version="1.1" xmlns="http://www.w3.org/2000/svg" xmlns:xlink="http://www.w3.org/1999/xlink">
    <!-- Generator: Sketch 63.1 (92452) - https://sketch.com -->
    <title>digital_marketing</title>
    <desc>Created with Sketch.</desc>
    <defs>
        <filter x="-17.2%" y="-17.2%" width="134.4%" height="134.4%" filterUnits="objectBoundingBox" id="filter-1">
            <feOffset dx="0" dy="2" in="SourceAlpha" result="shadowOffsetOuter1"></feOffset>
            <feGaussianBlur stdDeviation="8.5" in="shadowOffsetOuter1" result="shadowBlurOuter1"></feGaussianBlur>
            <feColorMatrix values="0 0 0 0 0   0 0 0 0 0   0 0 0 0 0  0 0 0 0.178840691 0" type="matrix" in="shadowBlurOuter1" result="shadowMatrixOuter1"></feColorMatrix>
            <feMerge>
                <feMergeNode in="shadowMatrixOuter1"></feMergeNode>
                <feMergeNode in="SourceGraphic"></feMergeNode>
            </feMerge>
        </filter>
    </defs>
    <g id="Page-1" stroke="none" stroke-width="1" fill="none" fill-rule="evenodd">
        <g id="digital_marketing" transform="translate(-510.000000, -235.000000)" fill-rule="nonzero">
            <g transform="translate(512.000000, 235.000000)">
                <path d="M256.09529,54.3006255 C285.169679,87.7780015 300.810142,134.983044 291.140312,176.036538 C281.470482,217.090032 246.490358,252.056731 210.666558,259.438589 C174.777859,266.820448 137.980586,246.617466 100.274738,228.421833 C62.6337882,210.226199 24.0193657,194.102666 8.31400392,162.179365 C-7.45625603,130.320818 -0.31745523,82.662503 25.7067186,49.8326585 C51.7957906,17.0028139 96.7702357,-0.933807317 140.576513,0.03748986 C184.382791,0.944033892 226.956003,20.8232494 256.09529,54.3006255 Z" id="Path" fill="#EFEFFF" transform="translate(147.000000, 130.500000) rotate(-180.000000) translate(-147.000000, -130.500000) "></path>
                <g id="digital-campaign" filter="url(#filter-1)" transform="translate(15.000000, 35.000000)">
                    <polygon id="Path" fill="#FFFFFF" points="49.2800018 112.640004 211.200008 112.640004 211.200008 211.200008 49.2800018 211.200008"></polygon>
                    <polygon id="Path" fill="#FF4D53" transform="translate(130.240005, 190.080007) rotate(-180.000000) translate(-130.240005, -190.080007) " points="63.3600023 183.040007 197.120007 183.040007 197.120007 197.120007 63.3600023 197.120007"></polygon>
                    <polygon id="Path" fill="#8686A9" transform="translate(168.960006, 147.840005) rotate(-180.000000) translate(-168.960006, -147.840005) " points="140.800005 126.720005 197.120007 126.720005 197.120007 168.960006 140.800005 168.960006"></polygon>
                    <polygon id="Path" fill="#FF4D53" points="49.2800018 84.4800031 211.200008 84.4800031 211.200008 112.640004 49.2800018 112.640004"></polygon>
                    <path d="M204.160007,0 C208.049608,0 211.200008,3.15040012 211.200008,7.04000026 L211.200008,56.3200021 C211.200008,60.2096022 208.049608,63.3600023 204.160007,63.3600023 L183.040007,63.3600023 L176.000006,70.4000026 L168.960006,63.3600023 L147.840005,63.3600023 C143.950405,63.3600023 140.800005,60.2096022 140.800005,56.3200021 L140.800005,7.04000026 C140.800005,3.15040012 143.950405,0 147.840005,0 L204.160007,0 Z M161.920006,14.0800005 L161.920006,49.2800018 L190.080007,31.6800012 L161.920006,14.0800005 Z" id="Combined-Shape" fill="#FF4D53"></path>
                    <path d="M0,91.5200033 L0,21.1200008 C0,17.2304006 3.15040012,14.0800005 7.04000026,14.0800005 L98.5600036,14.0800005 C102.449604,14.0800005 105.600004,17.2304006 105.600004,21.1200008 L105.600004,52.8000019 L123.200005,70.4000026 L105.600004,70.4000026 L105.600004,91.5200033 C105.600004,95.4096035 102.449604,98.5600036 98.5600036,98.5600036 L7.04000026,98.5600036 C3.15040012,98.5600036 0,95.4096035 0,91.5200033 Z" id="Path" fill="#8686A9"></path>
                    <polygon id="Path" fill="#FFFFFF" transform="translate(52.800002, 56.320002) rotate(-180.000000) translate(-52.800002, -56.320002) " points="21.1200008 35.2000013 84.4800031 35.2000013 84.4800031 77.4400028 21.1200008 77.4400028"></polygon>
                    <polygon id="Path" fill="#E4E4E4" points="59.8400022 123.200005 130.240005 123.200005 130.240005 130.240005 59.8400022 130.240005"></polygon>
                    <polygon id="Path" fill="#E4E4E4" points="59.8400022 137.280005 130.240005 137.280005 130.240005 144.320005 59.8400022 144.320005"></polygon>
                    <polygon id="Path" fill="#E4E4E4" points="59.8400022 151.360006 130.240005 151.360006 130.240005 158.400006 59.8400022 158.400006"></polygon>
                    <polygon id="Path" fill="#E4E4E4" points="59.8400022 165.440006 130.240005 165.440006 130.240005 172.480006 59.8400022 172.480006"></polygon>
                    <polygon id="Path" fill="#FFFFFF" points="193.600007 95.0400035 200.640007 95.0400035 200.640007 102.080004 193.600007 102.080004"></polygon>
                    <polygon id="Path" fill="#FFFFFF" points="179.520007 95.0400035 186.560007 95.0400035 186.560007 102.080004 179.520007 102.080004"></polygon>
                    <polygon id="Path" fill="#FFFFFF" points="165.440006 95.0400035 172.480006 95.0400035 172.480006 102.080004 165.440006 102.080004"></polygon>
                    <path d="M50.4592018,65.9929624 C51.1280019,66.5843224 51.9657619,66.8800024 52.8000019,66.8800024 C53.634242,66.8800024 54.472002,66.5843224 55.140802,65.9929624 L84.4800031,39.9097615 L84.4800031,35.2000013 L79.1824029,35.2000013 L52.8000019,58.6502421 L26.417601,35.2000013 L21.1200008,35.2000013 L21.1200008,39.9097615 L50.4592018,65.9929624 Z" id="Path" fill="#E4E4E4"></path>
                </g>
            </g>
        </g>
    </g>
</svg>