<?xml version="1.0" encoding="UTF-8"?>
<svg width="294px" height="261px" viewBox="0 0 294 261" version="1.1" xmlns="http://www.w3.org/2000/svg" xmlns:xlink="http://www.w3.org/1999/xlink">
    <!-- Generator: Sketch 63.1 (92452) - https://sketch.com -->
    <title>mobility_services</title>
    <desc>Created with Sketch.</desc>
    <defs>
        <filter x="-12.6%" y="-7.5%" width="125.2%" height="114.9%" filterUnits="objectBoundingBox" id="filter-1">
            <feOffset dx="0" dy="2" in="SourceAlpha" result="shadowOffsetOuter1"></feOffset>
            <feGaussianBlur stdDeviation="2.5" in="shadowOffsetOuter1" result="shadowBlurOuter1"></feGaussianBlur>
            <feColorMatrix values="0 0 0 0 0   0 0 0 0 0   0 0 0 0 0  0 0 0 0.107107736 0" type="matrix" in="shadowBlurOuter1" result="shadowMatrixOuter1"></feColorMatrix>
            <feMerge>
                <feMergeNode in="shadowMatrixOuter1"></feMergeNode>
                <feMergeNode in="SourceGraphic"></feMergeNode>
            </feMerge>
        </filter>
        <polygon id="path-2" points="0 0 0 137.280005 53.0400021 137.280005 106.080004 137.280005 106.080004 0"></polygon>
    </defs>
    <g id="Page-1" stroke="none" stroke-width="1" fill="none" fill-rule="evenodd">
        <g id="mobility" transform="translate(-510.000000, -242.000000)">
            <g id="mobility_services" transform="translate(510.000000, 242.000000)">
                <path d="M256.09529,54.3006255 C285.169679,87.7780015 300.810142,134.983044 291.140312,176.036538 C281.470482,217.090032 246.490358,252.056731 210.666558,259.438589 C174.777859,266.820448 137.980586,246.617466 100.274738,228.421833 C62.6337882,210.226199 24.0193657,194.102666 8.31400392,162.179365 C-7.45625603,130.320818 -0.31745523,82.662503 25.7067186,49.8326585 C51.7957906,17.0028139 96.7702357,-0.933807317 140.576513,0.03748986 C184.382791,0.944033892 226.956003,20.8232494 256.09529,54.3006255 Z" id="Path" fill="#EFEFFF" fill-rule="nonzero" transform="translate(147.000000, 130.500000) rotate(-180.000000) translate(-147.000000, -130.500000) "></path>
                <g id="museum" filter="url(#filter-1)" transform="translate(94.000000, 48.000000)">
                    <path d="M53.0400021,156.000006 L0,156.000006 L0,162.240006 C0,172.536007 8.42400033,180.960007 18.7200007,180.960007 L53.0400021,180.960007 L87.3600035,180.960007 C97.6560039,180.960007 106.080004,172.536007 106.080004,162.240006 L106.080004,156.000006 L53.0400021,156.000006 Z" id="Path" fill="#FF4D53" fill-rule="nonzero"></path>
                    <g id="Group-3" transform="translate(0.000000, 18.720001)">
                        <mask id="mask-3" fill="white">
                            <use xlink:href="#path-2"></use>
                        </mask>
                        <use id="Path" fill="#FFFFFF" fill-rule="nonzero" xlink:href="#path-2"></use>
                        <path d="M86,34.2799993 L86,99.2799993 L20,99.2799993 L20,34.2799993 L86,34.2799993 Z M42.9872607,55.7811414 L42.9872607,78.4520261 L64.3359918,67.1165838 L42.9872607,55.7811414 Z" id="Combined-Shape" fill="#7878A1" mask="url(#mask-3)"></path>
                        <polygon id="Path-5" fill="#FDADAE" mask="url(#mask-3)" points="106.080004 38.6655753 94.4293996 48.7795044 94.4293996 90.1298795 106.080004 94.7805479"></polygon>
                        <polygon id="Path-5" fill="#FDADAE" mask="url(#mask-3)" transform="translate(5.254702, 66.723062) scale(-1, 1) translate(-5.254702, -66.723062) " points="11.0800042 38.6655753 -0.570600358 48.7795044 -0.570600358 90.1298795 11.0800042 94.7805479"></polygon>
                    </g>
                    <path d="M53.0400021,162.240006 C56.4720022,162.240006 59.2800024,165.048007 59.2800024,168.480007 C59.2800024,171.943207 56.4720022,174.720007 53.0400021,174.720007 C49.608002,174.720007 46.8000019,171.943207 46.8000019,168.480007 C46.8000019,165.048007 49.608002,162.240006 53.0400021,162.240006 Z" id="Path" fill="#D5262C" fill-rule="nonzero"></path>
                    <path d="M15.6000006,0 L90.4800036,0 C99.0912039,0 106.080004,6.98880028 106.080004,15.6000006 L106.080004,18.7200007 L0,18.7200007 L0,15.6000006 C0,6.98880028 6.98880028,0 15.6000006,0 Z" id="Path" fill="#FF4D53" fill-rule="nonzero"></path>
                    <path d="M43.7736017,12.4800005 C42.0482417,12.4800005 40.6380016,11.0853604 40.6380016,9.36000037 C40.6380016,7.6346403 42.0170417,6.24000025 43.7392817,6.24000025 L43.7736017,6.24000025 C45.4958418,6.24000025 46.8936019,7.6346403 46.8936019,9.36000037 C46.8936019,11.0853604 45.4958418,12.4800005 43.7736017,12.4800005 Z" id="Path" fill="#D5262C" fill-rule="nonzero"></path>
                    <path d="M62.4000025,12.4800005 L53.0400021,12.4800005 C51.314642,12.4800005 49.920002,11.0853604 49.920002,9.36000037 C49.920002,7.6346403 51.314642,6.24000025 53.0400021,6.24000025 L62.4000025,6.24000025 C64.1253625,6.24000025 65.5200026,7.6346403 65.5200026,9.36000037 C65.5200026,11.0853604 64.1253625,12.4800005 62.4000025,12.4800005 Z" id="Path" fill="#D5262C" fill-rule="nonzero"></path>
                </g>
                <g id="Group-2" transform="translate(215.499451, 102.499471)" fill="#7878A1" fill-rule="nonzero">
                    <path d="M14.3617194,0.274980192 C15.5908561,-0.353977802 17.0971395,0.132563201 17.7260975,1.36169994 C23.1869348,12.0335027 25.9195425,23.5156413 25.9195425,35.7753327 C25.9195425,48.0186056 23.1946234,59.8217672 17.7544728,71.1585463 C17.1571301,72.4033543 15.6637719,72.9282286 14.4189639,72.3308859 C13.1741559,71.7335431 12.6492816,70.2401849 13.2466244,68.9953769 C18.3651324,58.3288715 20.9195425,47.2642805 20.9195425,35.7753327 C20.9195425,24.3028036 18.372821,13.6017397 13.2749997,3.63935832 C12.6460417,2.41022158 13.1325827,0.903938187 14.3617194,0.274980192 Z" id="Path-2"></path>
                    <path d="M1.32548202,13.2938985 C2.54417044,12.6449272 4.05820783,13.1067741 4.70717918,14.3254625 C8.2339002,20.9482111 10.0005486,28.0814081 10.0005486,35.6890312 C10.0005486,43.2798008 8.2421343,50.5988479 4.73716946,57.6174567 C4.12030741,58.8527083 2.61887265,59.354012 1.38362106,58.73715 C0.148369467,58.1202879 -0.352934306,56.6188532 0.263927742,55.3836016 C3.42562956,49.0523688 5.0005486,42.497084 5.0005486,35.6890312 C5.0005486,28.897832 3.43386367,22.5720276 0.293918017,16.6755957 C-0.355053335,15.4569073 0.1067936,13.9428699 1.32548202,13.2938985 Z" id="Path-2"></path>
                </g>
                <g id="Group" transform="translate(65.499451, 138.999471) scale(-1, 1) translate(-65.499451, -138.999471) translate(52.499451, 102.499471)" fill="#7878A1" fill-rule="nonzero">
                    <path d="M14.3617194,0.274980192 C15.5908561,-0.353977802 17.0971395,0.132563201 17.7260975,1.36169994 C23.1869348,12.0335027 25.9195425,23.5156413 25.9195425,35.7753327 C25.9195425,48.0186056 23.1946234,59.8217672 17.7544728,71.1585463 C17.1571301,72.4033543 15.6637719,72.9282286 14.4189639,72.3308859 C13.1741559,71.7335431 12.6492816,70.2401849 13.2466244,68.9953769 C18.3651324,58.3288715 20.9195425,47.2642805 20.9195425,35.7753327 C20.9195425,24.3028036 18.372821,13.6017397 13.2749997,3.63935832 C12.6460417,2.41022158 13.1325827,0.903938187 14.3617194,0.274980192 Z" id="Path-2"></path>
                    <path d="M1.32548202,13.2938985 C2.54417044,12.6449272 4.05820783,13.1067741 4.70717918,14.3254625 C8.2339002,20.9482111 10.0005486,28.0814081 10.0005486,35.6890312 C10.0005486,43.2798008 8.2421343,50.5988479 4.73716946,57.6174567 C4.12030741,58.8527083 2.61887265,59.354012 1.38362106,58.73715 C0.148369467,58.1202879 -0.352934306,56.6188532 0.263927742,55.3836016 C3.42562956,49.0523688 5.0005486,42.497084 5.0005486,35.6890312 C5.0005486,28.897832 3.43386367,22.5720276 0.293918017,16.6755957 C-0.355053335,15.4569073 0.1067936,13.9428699 1.32548202,13.2938985 Z" id="Path-2"></path>
                </g>
            </g>
        </g>
    </g>
</svg>