<?xml version="1.0" encoding="UTF-8"?>
<svg width="294px" height="261px" viewBox="0 0 294 261" version="1.1" xmlns="http://www.w3.org/2000/svg" xmlns:xlink="http://www.w3.org/1999/xlink">
    <!-- Generator: Sketch 63.1 (92452) - https://sketch.com -->
    <title>qa</title>
    <desc>Created with Sketch.</desc>
    <defs>
        <filter x="-14.5%" y="-16.4%" width="129.1%" height="132.8%" filterUnits="objectBoundingBox" id="filter-1">
            <feOffset dx="0" dy="2" in="SourceAlpha" result="shadowOffsetOuter1"></feOffset>
            <feGaussianBlur stdDeviation="4.5" in="shadowOffsetOuter1" result="shadowBlurOuter1"></feGaussianBlur>
            <feColorMatrix values="0 0 0 0 0   0 0 0 0 0   0 0 0 0 0  0 0 0 0.275786713 0" type="matrix" in="shadowBlurOuter1" result="shadowMatrixOuter1"></feColorMatrix>
            <feMerge>
                <feMergeNode in="shadowMatrixOuter1"></feMergeNode>
                <feMergeNode in="SourceGraphic"></feMergeNode>
            </feMerge>
        </filter>
        <filter x="-34.7%" y="-29.9%" width="169.4%" height="159.7%" filterUnits="objectBoundingBox" id="filter-2">
            <feOffset dx="0" dy="2" in="SourceAlpha" result="shadowOffsetOuter1"></feOffset>
            <feGaussianBlur stdDeviation="4.5" in="shadowOffsetOuter1" result="shadowBlurOuter1"></feGaussianBlur>
            <feColorMatrix values="0 0 0 0 0   0 0 0 0 0   0 0 0 0 0  0 0 0 0.275786713 0" type="matrix" in="shadowBlurOuter1" result="shadowMatrixOuter1"></feColorMatrix>
            <feMerge>
                <feMergeNode in="shadowMatrixOuter1"></feMergeNode>
                <feMergeNode in="SourceGraphic"></feMergeNode>
            </feMerge>
        </filter>
        <filter x="-22.4%" y="-19.0%" width="144.8%" height="138.1%" filterUnits="objectBoundingBox" id="filter-3">
            <feOffset dx="0" dy="2" in="SourceAlpha" result="shadowOffsetOuter1"></feOffset>
            <feGaussianBlur stdDeviation="4.5" in="shadowOffsetOuter1" result="shadowBlurOuter1"></feGaussianBlur>
            <feColorMatrix values="0 0 0 0 0   0 0 0 0 0   0 0 0 0 0  0 0 0 0.275786713 0" type="matrix" in="shadowBlurOuter1" result="shadowMatrixOuter1"></feColorMatrix>
            <feMerge>
                <feMergeNode in="shadowMatrixOuter1"></feMergeNode>
                <feMergeNode in="SourceGraphic"></feMergeNode>
            </feMerge>
        </filter>
    </defs>
    <g id="Page-1" stroke="none" stroke-width="1" fill="none" fill-rule="evenodd">
        <g id="qa" transform="translate(-525.000000, -237.000000)" fill-rule="nonzero">
            <g transform="translate(525.000000, 237.000000)">
                <path d="M256.09529,54.3006255 C285.169679,87.7780015 300.810142,134.983044 291.140312,176.036538 C281.470482,217.090032 246.490358,252.056731 210.666558,259.438589 C174.777859,266.820448 137.980586,246.617466 100.274738,228.421833 C62.6337882,210.226199 24.0193657,194.102666 8.31400392,162.179365 C-7.45625603,130.320818 -0.31745523,82.662503 25.7067186,49.8326585 C51.7957906,17.0028139 96.7702357,-0.933807317 140.576513,0.03748986 C184.382791,0.944033892 226.956003,20.8232494 256.09529,54.3006255 Z" id="Path" fill="#EFEFFF" transform="translate(147.000000, 130.500000) rotate(-180.000000) translate(-147.000000, -130.500000) "></path>
                <g id="web-programming" filter="url(#filter-1)" transform="translate(45.000000, 49.000000)">
                    <path d="M147.599998,14.3999998 L147.599998,35.3123434 L0,35.3123434 L0,14.3999998 C0,6.44765609 6.44765609,0 14.3999998,0 L133.199998,0 C141.152342,0 147.599998,6.44765609 147.599998,14.3999998 Z" id="Path" fill="#FF4D53"></path>
                    <g id="Group" transform="translate(0.000000, 12.240000)">
                        <path d="M65.0559369,0.179978116 C68.0681242,0.189843838 70.5009369,2.63953113 70.4911228,5.65171877 C70.4812492,8.66390606 68.0315615,11.0981249 65.0193742,11.0883108 C62.007187,11.0784376 59.5743743,8.6287499 59.5841884,5.61656225 C59.5954681,2.60437497 62.0437493,0.171562318 65.0559369,0.179978116 Z" id="Path" fill="#CE1E24"></path>
                        <path d="M147.599998,23.0723436 L147.599998,102.988124 C147.599998,110.941874 141.152342,117.388124 133.199998,117.388124 L14.3999998,117.388124 C6.44765609,117.388124 0,110.941874 0,102.988124 L0,23.0723436 L147.599998,23.0723436 Z" id="Path" fill="#FFFFFF"></path>
                        <path d="M40.5534372,0.10402105 C43.5656245,0.113906159 45.9998433,2.56359381 45.9900292,5.5757811 C45.9801556,8.58796874 43.5304683,11.0221876 40.5182807,11.0123735 C37.5060934,11.0024999 35.0718746,8.55281222 35.0816887,5.54062494 C35.0859373,4.09359379 35.6653119,2.70703113 36.6904684,1.68749998 C37.7170307,0.667968832 39.1078119,0.0984376789 40.5534372,0.10402105 Z" id="Path" fill="#CE1E24"></path>
                        <path d="M16.0523437,0.0252711515 C19.0659375,0.0337499996 21.5015621,2.48343765 21.4917483,5.4970311 C21.4832809,8.5106249 19.0335936,10.9462499 16.0199998,10.9364358 C13.006406,10.9279687 10.570781,8.47828106 10.5805951,5.46468762 C10.5834376,4.01765611 11.1628122,2.63109381 12.1893749,1.61015614 C13.2159375,0.590624993 14.6053122,0.0196876798 16.0523437,0.0252711515 Z" id="Path" fill="#CE1E24"></path>
                    </g>
                    <path d="M57.7026555,95.4464119 C57.1049993,95.4478112 56.5256243,95.2340612 56.0699994,94.8459366 L39.7659372,80.9606241 C39.2034372,80.4810929 38.8799995,79.7793741 38.8799995,79.0410929 C38.8799995,78.3028114 39.2034372,77.6010929 39.7659372,77.1229679 L56.0699994,63.2376554 C57.1303117,62.3348431 58.7207805,62.4628116 59.622187,63.5217181 C60.5249993,64.5820304 60.398437,66.1724992 59.3381243,67.0753115 L45.2882806,79.0410929 L59.3395305,91.0082801 C60.1439055,91.6931239 60.4349993,92.8068739 60.0707805,93.7982801 C59.7051555,94.7896866 58.7615616,95.4478112 57.7040617,95.4464119 L57.7026555,95.4464119 Z" id="Path" fill="#FF4D53"></path>
                    <path d="M89.8973428,95.4464073 C88.8398428,95.4478112 87.896249,94.7896866 87.530624,93.7982801 C87.1664051,92.8068739 87.457499,91.6931239 88.261874,91.0082801 L102.311718,79.0410929 L88.2604678,67.0753115 C87.2001551,66.1724992 87.0735928,64.5820304 87.9764051,63.5217181 C88.8778113,62.4628116 90.4682801,62.3348431 91.5285928,63.2376554 L107.832655,77.1229679 C108.395155,77.6010929 108.718593,78.3028114 108.718593,79.0410929 C108.718593,79.7793741 108.395155,80.4810929 107.832655,80.9606241 L91.5285928,94.8459366 C91.0729678,95.2340612 90.494999,95.4464073 89.8973428,95.4464073 L89.8973428,95.4464073 Z" id="Path" fill="#FF4D53"></path>
                    <path d="M68.0287492,105.862499 C67.2679681,105.862499 66.5493742,105.519374 66.0698431,104.930155 C65.5917181,104.33953 65.4032804,103.566093 65.5593742,102.822186 L75.722343,54.5681244 C76.009218,53.2054682 77.3451553,52.3349994 78.7078114,52.6218744 C80.0690614,52.9087494 80.9409367,54.2446871 80.6540614,55.6073432 L70.491093,103.861405 C70.2464053,105.02578 69.2184369,105.861093 68.0287492,105.862499 L68.0287492,105.862499 Z" id="Path" fill="#FF4D53"></path>
                </g>
                <g id="shield-(1)" filter="url(#filter-2)" transform="translate(26.000000, 143.000000)">
                    <path d="M57.8867189,47.867422 C55.9600784,53.0889846 53.0463284,57.6291409 49.2253127,61.3604689 C44.8760159,65.6075003 39.1808595,68.982266 32.2978908,71.3896096 C32.0720315,71.4683596 31.8363283,71.532891 31.5995315,71.580469 C31.2867188,71.642266 30.9684376,71.6756253 30.6528908,71.6800003 L30.5910938,71.6800003 C30.2547658,71.6800003 29.916797,71.646094 29.5815626,71.580469 C29.3447658,71.532891 29.1123438,71.4683596 28.8875783,71.3912503 C21.9964064,68.9877346 16.2941407,65.6146096 11.9404687,61.3675784 C8.11781253,57.6362502 5.20460936,53.0988284 3.28070317,47.8772659 C-0.217656321,38.3835158 -0.0185936801,27.9250783 0.141640661,19.5207032 L0.144375001,19.3916407 C0.176640661,18.6976564 0.197421841,17.9686719 0.208906321,17.1636719 C0.267421841,13.2114064 3.40976567,9.9416407 7.36257819,9.72125004 C15.6039844,9.2613282 21.9794533,6.57343753 27.4268751,1.26382817 L27.4744533,1.22007817 C28.3789845,0.390468682 29.518672,-0.0164063201 30.6528908,3.8268384e-05 C31.7466408,0.0147656601 32.8360158,0.421093682 33.7082815,1.22007817 L33.7547658,1.26382817 C39.2032815,6.57343753 45.5787502,9.2613282 53.8201565,9.72125004 C57.7729689,9.9416407 60.9153128,13.2114064 60.9738284,17.1636719 C60.9853128,17.9741407 61.0060939,18.7020314 61.0383596,19.3916407 L61.0400003,19.4463282 C61.1996878,27.8665626 61.3976566,38.3457815 57.8867189,47.867422 Z" id="Path" fill="#FF4D53"></path>
                    <path d="M48.4542189,35.8400002 C48.4542189,45.6689845 40.473672,53.6697659 30.6528908,53.7047659 L30.5900001,53.7047659 C20.7402344,53.7047659 12.7252344,45.6903127 12.7252344,35.8400002 C12.7252344,25.9902345 20.7402344,17.9757814 30.5900001,17.9757814 L30.6528908,17.9757814 C40.473672,18.0107814 48.4542189,26.0115626 48.4542189,35.8400002 Z" id="Path" fill="#FFFFFF"></path>
                    <path d="M38.6985158,33.2675001 L30.6528908,41.3142189 L28.9143751,43.0527345 C28.503672,43.4634377 27.9650001,43.6685158 27.4268751,43.6685158 C26.8882033,43.6685158 26.3500783,43.4634377 25.9388283,43.0527345 L22.2009376,39.3132033 C21.3795314,38.491797 21.3795314,37.1612502 22.2009376,36.339297 C23.0212501,35.5178908 24.3534376,35.5178908 25.1748438,36.339297 L27.4268751,38.5913283 L35.7246095,30.2935938 C36.5460158,29.4716408 37.8782033,29.4716408 38.6985158,30.2935938 C39.519922,31.1150001 39.519922,32.4471876 38.6985158,33.2675001 Z" id="Path" fill="#FF4D53"></path>
                </g>
                <g id="checklist" filter="url(#filter-3)" transform="translate(157.000000, 123.000000)">
                    <path d="M72.3447653,7.77390632 L84.4619527,7.77390632 C90.5927338,7.77390632 95.5624995,12.7419531 95.5624995,18.8727342 L95.5624995,101.541171 C95.5624995,107.670234 90.5927338,112.639999 84.4619527,112.639999 L11.0988281,112.639999 C4.96804679,112.639999 -6.25277604e-15,107.670234 -6.25277604e-15,101.541171 L-6.25277604e-15,18.8727342 C-6.25277604e-15,12.7419531 4.96804679,7.77390632 11.0988281,7.77390632 L23.2151562,7.77390632" id="Path" fill="#FF4D53"></path>
                    <path d="M78.9842964,101.895234 L16.5773436,101.895234 C13.5050781,101.895234 11.0154686,99.4056245 11.0154686,96.3342181 L11.0154686,27.6091405 C11.0154686,24.5377342 13.5059374,22.0472656 16.5773436,22.0472656 L78.9842964,22.0472656 C82.0565621,22.0472656 84.5461714,24.5377342 84.5461714,27.6091405 L84.5461714,96.3342181 C84.5461714,99.4056245 82.0557027,101.895234 78.9842964,101.895234 Z" id="Path" fill="#FFFFFF"></path>
                    <path d="M60.8205465,28.7005467 L34.7410935,28.7005467 C30.1606248,28.7005467 26.4352342,24.9742967 26.4352342,20.3946874 L26.4352342,7.95351564 C26.4352342,7.00132814 27.206953,6.22960929 28.1591405,6.22960929 C29.111328,6.22960929 29.8830467,7.00132814 29.8830467,7.95351564 L29.8830467,20.3946874 C29.8830467,23.0733592 32.0624216,25.2518749 34.7410935,25.2518749 L60.8205465,25.2518749 C63.4992183,25.2518749 65.6785933,23.0733592 65.6785933,20.3946874 L65.6785933,7.95351564 C65.6785933,7.00132814 66.4503121,6.22960929 67.4024996,6.22960929 C68.3546871,6.22960929 69.126406,7.00132814 69.126406,7.95351564 L69.126406,20.3946874 C69.126406,24.9742967 65.400156,28.7005467 60.8205465,28.7005467 L60.8205465,28.7005467 Z" id="Path" fill="#CBCBCB"></path>
                    <path d="M29.668203,48.9422654 L23.1549999,48.9422654 C20.7341406,48.9422654 18.7721874,46.9803122 18.7721874,44.5603123 L18.7721874,38.0462498 C18.7721874,35.6262498 20.7341406,33.6642966 23.1549999,33.6642966 L29.668203,33.6642966 C32.088203,33.6642966 34.0501562,35.6262498 34.0501562,38.0462498 L34.0501562,44.5603123 C34.0501562,46.9803122 32.088203,48.9422654 29.668203,48.9422654 Z" id="Path" fill="#FFFFFF"></path>
                    <path d="M29.668203,70.8949996 L23.1549999,70.8949996 C20.7341406,70.8949996 18.7721874,68.9321871 18.7721874,66.5121871 L18.7721874,59.998984 C18.7721874,57.5781247 20.7341406,55.6161715 23.1549999,55.6161715 L29.668203,55.6161715 C32.088203,55.6161715 34.0501562,57.5781247 34.0501562,59.998984 L34.0501562,66.5121871 C34.0501562,68.9321871 32.088203,70.8949996 29.668203,70.8949996 Z" id="Path" fill="#FFFFFF"></path>
                    <path d="M29.668203,92.8468745 L23.1549999,92.8468745 C20.7341406,92.8468745 18.7721874,90.8849213 18.7721874,88.464062 L18.7721874,81.9508589 C18.7721874,79.5308589 20.7341406,77.5689059 23.1549999,77.5689059 L29.668203,77.5689059 C32.088203,77.5689059 34.0501562,79.5308589 34.0501562,81.9508589 L34.0501562,88.464062 C34.0501562,90.8849213 32.088203,92.8468745 29.668203,92.8468745 Z" id="Path" fill="#FFFFFF"></path>
                    <path d="M29.668203,50.6661715 L23.1549999,50.6661715 C19.7879685,50.6661715 17.0482813,47.9273434 17.0482813,44.5603123 L17.0482813,38.0462498 C17.0482813,34.6792185 19.7879685,31.9403905 23.1549999,31.9403905 L29.668203,31.9403905 C33.0352341,31.9403905 35.7749216,34.680078 35.7749216,38.0462498 L35.7749216,44.5603123 C35.7749216,47.9273434 33.0352341,50.6661715 29.668203,50.6661715 Z M23.1549999,35.388203 C21.6889062,35.388203 20.4969531,36.5810155 20.4969531,38.0462498 L20.4969531,44.5603123 C20.4969531,46.0255466 21.6889062,47.2183591 23.1549999,47.2183591 L29.668203,47.2183591 C31.1342967,47.2183591 32.3262498,46.0255466 32.3262498,44.5603123 L32.3262498,38.0462498 C32.3262498,36.5810155 31.1334373,35.388203 29.668203,35.388203 L23.1549999,35.388203 Z" id="Shape" fill="#EAEAEA"></path>
                    <path d="M29.668203,72.618906 L23.1549999,72.618906 C19.7879685,72.618906 17.0482813,69.8792183 17.0482813,66.5121871 L17.0482813,59.998984 C17.0482813,56.6319529 19.7879685,53.8922654 23.1549999,53.8922654 L29.668203,53.8922654 C33.0352341,53.8922654 35.7749216,56.6319529 35.7749216,59.998984 L35.7749216,66.5121871 C35.7749216,69.8792183 33.0352341,72.618906 29.668203,72.618906 Z M23.1549999,57.3409372 C21.6889062,57.3409372 20.4969531,58.5328904 20.4969531,59.998984 L20.4969531,66.5121871 C20.4969531,67.9774215 21.6889062,69.1702339 23.1549999,69.1702339 L29.668203,69.1702339 C31.1342967,69.1702339 32.3262498,67.9774215 32.3262498,66.5121871 L32.3262498,59.998984 C32.3262498,58.5328904 31.1334373,57.3409372 29.668203,57.3409372 L23.1549999,57.3409372 Z" id="Shape" fill="#EAEAEA"></path>
                    <path d="M29.668203,94.5707808 L23.1549999,94.5707808 C19.7879685,94.5707808 17.0482813,91.8310931 17.0482813,88.464062 L17.0482813,81.9508589 C17.0482813,78.5846871 19.7879685,75.8449996 23.1549999,75.8449996 L29.668203,75.8449996 C33.0352341,75.8449996 35.7749216,78.5846871 35.7749216,81.9508589 L35.7749216,88.464062 C35.7749216,91.8310931 33.0352341,94.5707808 29.668203,94.5707808 Z M23.1549999,79.2928121 C21.6889062,79.2928121 20.4969531,80.4856246 20.4969531,81.9508589 L20.4969531,88.464062 C20.4969531,89.9301559 21.6889062,91.1221088 23.1549999,91.1221088 L29.668203,91.1221088 C31.1342967,91.1221088 32.3262498,89.9301559 32.3262498,88.464062 L32.3262498,81.9508589 C32.3262498,80.4856246 31.1334373,79.2928121 29.668203,79.2928121 L23.1549999,79.2928121 Z" id="Shape" fill="#EAEAEA"></path>
                    <g id="Group" transform="translate(39.600000, 36.080000)" fill="#8686A9">
                        <path d="M26.6440624,3.50281248 L1.77976567,3.50281248 C0.826718636,3.50281248 0.0549999997,2.73023431 0.0549999997,1.77804681 C0.0549999997,0.825859316 0.826718636,0.0541406797 1.77976567,0.0541406797 L26.6440624,0.0541406797 C27.5962499,0.0541406797 28.3679685,0.825859316 28.3679685,1.77804681 C28.3679685,2.73023431 27.5962499,3.50281248 26.6440624,3.50281248 Z" id="Path"></path>
                        <path d="M37.1284373,10.3924218 L1.77976567,10.3924218 C0.826718636,10.3924218 0.0549999997,9.62070313 0.0549999997,8.66851563 C0.0549999997,7.71632814 0.826718636,6.94460928 1.77976567,6.94460928 L37.1284373,6.94460928 C38.0806248,6.94460928 38.8523434,7.71632814 38.8523434,8.66851563 C38.8523434,9.62070313 38.0806248,10.3924218 37.1284373,10.3924218 Z" id="Path"></path>
                        <path d="M26.6440624,25.4546874 L1.77976567,25.4546874 C0.826718636,25.4546874 0.0549999997,24.6829685 0.0549999997,23.7307812 C0.0549999997,22.7785935 0.826718636,22.0068749 1.77976567,22.0068749 L26.6440624,22.0068749 C27.5962499,22.0068749 28.3679685,22.7785935 28.3679685,23.7307812 C28.3679685,24.6829685 27.5962499,25.4546874 26.6440624,25.4546874 Z" id="Path"></path>
                        <path d="M37.1284373,32.3451562 L1.77976567,32.3451562 C0.826718636,32.3451562 0.0549999997,31.572578 0.0549999997,30.6203905 C0.0549999997,29.668203 0.826718636,28.8964842 1.77976567,28.8964842 L37.1284373,28.8964842 C38.0806248,28.8964842 38.8523434,29.668203 38.8523434,30.6203905 C38.8523434,31.572578 38.0806248,32.3451562 37.1284373,32.3451562 Z" id="Path"></path>
                        <path d="M26.6440624,47.4065622 L1.77976567,47.4065622 C0.826718636,47.4065622 0.0549999997,46.6348434 0.0549999997,45.6826561 C0.0549999997,44.7304684 0.826718636,43.9587498 1.77976567,43.9587498 L26.6440624,43.9587498 C27.5962499,43.9587498 28.3679685,44.7304684 28.3679685,45.6826561 C28.3679685,46.6348434 27.5962499,47.4065622 26.6440624,47.4065622 Z" id="Path"></path>
                        <path d="M37.1284373,54.2970311 L1.77976567,54.2970311 C0.826718636,54.2970311 0.0549999997,53.5253122 0.0549999997,52.5731247 C0.0549999997,51.6209372 0.826718636,50.8492184 1.77976567,50.8492184 L37.1284373,50.8492184 C38.0806248,50.8492184 38.8523434,51.6209372 38.8523434,52.5731247 C38.8523434,53.5253122 38.0806248,54.2970311 37.1284373,54.2970311 Z" id="Path"></path>
                    </g>
                    <path d="M26.8760935,45.8992184 C26.4214842,45.8992184 25.9823435,45.7196091 25.6574999,45.3947654 L22.7854685,42.5227341 C22.1117185,41.8489841 22.1117185,40.757578 22.7854685,40.0846873 C23.4592185,39.4109373 24.5506249,39.4109373 25.2235155,40.0846873 L26.6457812,41.5060934 L33.9779685,31.077578 C34.5253905,30.2989842 35.601328,30.1107812 36.3799216,30.658203 C37.1585155,31.2064842 37.3458591,32.2815623 36.7984373,33.0610155 L28.2871873,45.1670311 C27.9941405,45.5838279 27.5326562,45.8493748 27.0247655,45.8932029 C26.9757812,45.8974998 26.9259374,45.8992184 26.8760935,45.8992184 Z" id="Path" fill="#F64F44"></path>
                    <path d="M26.8760935,67.6147653 C26.4214842,67.6147653 25.9823435,67.4342965 25.6574999,67.1103121 L22.7854685,64.2374215 C22.1117185,63.564531 22.1117185,62.4731247 22.7854685,61.7993747 C23.4592185,61.126484 24.5506249,61.126484 25.2235155,61.7993747 L26.6457812,63.2216403 L33.9779685,52.7931247 C34.5253905,52.0136715 35.601328,51.8263279 36.3799216,52.3737497 C37.1585155,52.9211715 37.3458591,53.997109 36.7984373,54.7757029 L28.2871873,66.8825778 C27.9941405,67.2993746 27.5326562,67.5649215 27.0247655,67.6087496 C26.9757812,67.6130465 26.9259374,67.6147653 26.8760935,67.6147653 Z" id="Path" fill="#F64F44"></path>
                    <path d="M67.1824996,15.1138281 L28.3791405,15.1138281 C25.5277342,15.1138281 23.2160156,12.8021093 23.2160156,9.95070313 L23.2160156,5.16312497 C23.2160156,2.31171863 25.5277342,0 28.3791405,0 L67.1824996,0 C70.033906,0 72.3456246,2.31171863 72.3456246,5.16312497 L72.3456246,9.95070313 C72.3456246,12.8021093 70.033906,15.1138281 67.1824996,15.1138281 Z" id="Path" fill="#8686A9"></path>
                </g>
            </g>
        </g>
    </g>
</svg>