<?xml version="1.0" encoding="UTF-8"?>
<svg width="462px" height="512px" viewBox="0 0 462 512" version="1.1" xmlns="http://www.w3.org/2000/svg" xmlns:xlink="http://www.w3.org/1999/xlink">
    <!-- Generator: Sketch 63.1 (92452) - https://sketch.com -->
    <title>Group 18</title>
    <desc>Created with Sketch.</desc>
    <defs>
        <rect id="path-1" x="0" y="0" width="462" height="512"></rect>
        <linearGradient x1="50%" y1="15.5011572%" x2="50%" y2="119.552299%" id="linearGradient-3">
            <stop stop-color="#D3DAE0" offset="0%"></stop>
            <stop stop-color="#FFFFFF" offset="100%"></stop>
        </linearGradient>
        <path d="M41.2266907,14.2680454 C38.7343174,7.06147453 32.5629118,1.74918477 25.0657172,0.35682653 C17.5685225,-1.03553171 9.90125747,1.70667842 4.9875574,7.53781386 C0.0738573286,13.3689493 -1.32881383,21.3901202 1.31440206,28.542742 C1.47235168,28.9928984 1.64609626,29.4335779 1.8356358,29.8647803 C6.39844351,40.3419998 18.4457894,45.3156864 29.0708903,41.108719 C39.6959911,36.9017517 45.0730341,25.0289462 41.2266907,14.2680454 L41.2266907,14.2680454 Z M26.6155614,36.3683558 C18.7454552,39.1912939 10.034854,35.4256117 6.69969425,27.7585222 C6.55990884,27.436305 6.4296004,27.1046108 6.30876894,26.7681781 C4.13911554,20.716865 5.82919251,13.9544303 10.5906301,9.63534502 C15.3520677,5.31625973 22.246755,4.29148141 28.0585291,7.03903813 C33.8703032,9.78659484 37.4541131,15.7651557 37.1382199,22.1859031 C36.8223267,28.6066506 32.6689686,34.204552 26.6155614,36.3683558 Z" id="path-4"></path>
        <filter x="-21.3%" y="-20.5%" width="142.7%" height="141.0%" filterUnits="objectBoundingBox" id="filter-6">
            <feGaussianBlur stdDeviation="35" in="SourceGraphic"></feGaussianBlur>
        </filter>
    </defs>
    <g id="Page-1" stroke="none" stroke-width="1" fill="none" fill-rule="evenodd">
        <g id="Group-18">
            <mask id="mask-2" fill="white">
                <use xlink:href="#path-1"></use>
            </mask>
            <use id="Rectangle" fill="#F6F6F6" xlink:href="#path-1"></use>
            <g id="footer_image" mask="url(#mask-2)">
                <g transform="translate(8.000000, -21.000000)">
                    <g id="blob-shape-(1)">
                        <path d="M521.66398,110.879996 C580.799978,179.123993 612.611977,275.35199 592.943978,359.039986 C573.275978,442.727983 502.127981,514.007981 429.263984,529.05598 C356.267986,544.103979 281.423989,502.919981 204.731992,465.827982 C128.171995,428.735984 49.6319981,395.867985 17.6879993,330.791987 C-14.3879995,265.84799 0.131999995,168.695994 53.063998,101.771996 C106.127996,34.8479987 197.603993,-1.71599993 286.703989,0.26399999 C375.803986,2.11199992 462.395982,42.6359984 521.66398,110.879996 Z" id="Path" fill="#EFEFEF" fill-rule="nonzero"></path>
                    </g>
                    <g id="Group-6" transform="translate(129.000000, 90.000000)">
                        <g id="Asset-7">
                            <path d="M287.441451,58.0204225 L283.290535,51.22543 C283.043194,50.8641902 283.015255,50.3959838 283.217882,50.0078934 C283.420508,49.6198029 283.820661,49.3751084 284.258451,49.3715446 C284.69624,49.3680579 285.100281,49.6062766 285.309131,49.9910537 L288.244625,54.7982503 L296.048916,50.178224 C296.413651,49.9298802 296.886189,49.9048389 297.275129,50.1132431 C297.664069,50.3216472 297.904944,50.7289531 297.900257,51.1701833 C297.895432,51.6114135 297.645834,52.0134327 297.252492,52.2134048 L287.441451,58.0204225 Z" id="Path" fill="#FF686B" fill-rule="nonzero" opacity="0.699999988"></path>
                            <path d="M290.232421,68.4995898 C281.988887,68.4995898 275.306182,61.8168851 275.306182,53.573351 C275.306182,45.329817 281.988887,38.6471122 290.232421,38.6471122 C298.475955,38.6471122 305.15866,45.329817 305.15866,53.573351 C305.146915,61.8120155 298.471085,68.4878455 290.232421,68.4995898 Z M290.232421,40.7794321 C283.166535,40.7794321 277.438502,46.5074647 277.438502,53.573351 C277.438502,60.6392374 283.166535,66.36727 290.232421,66.36727 C297.298307,66.36727 303.02634,60.6392374 303.02634,53.573351 C303.021119,46.5084772 297.297291,40.7814687 290.232421,40.7723243 L290.232421,40.7794321 Z" id="Shape" fill="#FF686B" fill-rule="nonzero" opacity="0.699999988"></path>
                            <path d="M210.666091,32.9324951 L204.297563,22.5078204 C203.774164,21.6527173 204.043063,20.5352206 204.898166,20.0118217 C205.753269,19.4884227 206.870766,19.757322 207.394165,20.612425 L211.895729,27.9855131 L223.869889,20.9014728 C224.729488,20.421676 225.814867,20.7146765 226.316242,21.5618709 C226.817616,22.4090654 226.552149,23.5015048 225.7179,24.0241367 L210.666091,32.9324951 Z" id="Path" fill="#FF686B" fill-rule="nonzero" opacity="0.699999988"></path>
                            <path d="M214.942577,49.0054481 C205.678767,49.0054481 197.327176,43.4249369 193.78229,34.8662006 C190.237405,26.3074642 192.197364,16.4560815 198.748206,9.90591727 C205.299048,3.35575308 215.150633,1.39681304 223.709003,4.94258374 C232.267372,8.48835445 237.84702,16.840523 237.846061,26.1043332 C237.830394,38.7466992 227.584945,48.9910885 214.942577,49.0054481 L214.942577,49.0054481 Z M214.942577,6.4727753 C204.100367,6.4727753 195.311019,15.2621231 195.311019,26.1043332 C195.311019,36.9465432 204.100367,45.7358911 214.942577,45.7358911 C225.784787,45.7358911 234.574135,36.9465432 234.574135,26.1043332 C234.555875,15.2696957 225.777215,6.49103523 214.942577,6.4727753 Z" id="Shape" fill="#FF686B" fill-rule="nonzero" opacity="0.699999988"></path>
                            <path d="M143.306108,57.9256527 L139.09833,51.0358904 C138.753541,50.4706195 138.932277,49.7328702 139.497548,49.3880812 C140.062819,49.0432921 140.800568,49.2220279 141.145357,49.7872987 L144.121128,54.6584649 L152.032034,49.9768383 C152.600745,49.6530997 153.323994,49.8452344 153.657059,50.4085337 C153.990123,50.971833 153.809931,51.6981501 153.252195,52.04045 L143.306108,57.9256527 Z" id="Path" fill="#FF686B" fill-rule="nonzero" opacity="0.699999988"></path>
                            <path d="M146.132616,68.5469749 C140.010757,68.547933 134.491208,64.8608251 132.148031,59.2051483 C129.804854,53.5494714 131.099567,47.0391788 135.428375,42.7103708 C139.757183,38.3815628 146.267476,37.0868499 151.923153,39.4300266 C157.57883,41.7732032 161.265938,47.2927528 161.264979,53.4146117 C161.254536,61.7676556 154.48566,68.5365318 146.132616,68.5469749 Z M146.132616,40.4406299 C140.884915,40.4396718 136.153404,43.6000733 134.144531,48.448042 C132.135659,53.2960107 133.245073,58.87674 136.955419,62.587764 C140.665765,66.298788 146.246292,67.4092211 151.094627,65.4012342 C155.942963,63.3932472 159.104229,58.662313 159.104229,53.4146117 C159.096397,46.2534509 153.293775,40.44977 146.132616,40.4406299 L146.132616,40.4406299 Z" id="Shape" fill="#FF686B" fill-rule="nonzero" opacity="0.699999988"></path>
                            <path d="M84.186356,24.8296798 L78.9195261,16.2056307 C78.4877219,15.4983878 78.7110091,14.5750077 79.418252,14.1432036 C80.1254948,13.7113994 81.0488749,13.9346866 81.4806791,14.6419295 L85.2051311,20.7403642 L95.108572,14.8788539 C95.8217031,14.4568635 96.741901,14.6928796 97.1638914,15.4060108 C97.5858819,16.1191419 97.3498657,17.0393397 96.6367346,17.4613301 L84.186356,24.8296798 Z" id="Path" fill="#FF686B" fill-rule="nonzero" opacity="0.699999988"></path>
                            <path d="M87.7236377,38.1258785 C77.2556579,38.1258785 68.7696837,29.6399042 68.7696837,19.1719245 C68.7696837,8.70394474 77.2556579,0.217970471 87.7236377,0.217970471 C98.1916174,0.217970471 106.677592,8.70394474 106.677592,19.1719245 C106.671057,29.6371963 98.1889095,38.1193438 87.7236377,38.1258785 L87.7236377,38.1258785 Z M87.7236377,2.94260136 C78.75643,2.94260136 71.4865841,10.2110368 71.4848403,19.1782443 C71.4830973,28.1454518 78.7501164,35.416712 87.7173234,35.4202016 C96.6845304,35.4236887 103.957205,28.1580846 103.962438,19.1908784 C103.957216,10.2230659 96.6914457,2.95305489 87.7236377,2.94260136 Z" id="Shape" fill="#FF686B" fill-rule="nonzero" opacity="0.699999988"></path>
                            <path d="M17.0822511,67.7082622 L11.242064,58.1459924 C10.7631539,57.360894 11.0113687,56.3362126 11.7964671,55.8573025 C12.5815656,55.3783924 13.606247,55.6266072 14.0851571,56.4117057 L18.2171191,63.1735287 L29.1961969,56.6746918 C29.7078756,56.3720861 30.3421244,56.3654442 30.860028,56.6572681 C31.3779316,56.949092 31.700808,57.4950467 31.7071245,58.0894763 C31.7132577,58.6839059 31.4018853,59.2365024 30.8902066,59.5391081 L17.0822511,67.7082622 Z" id="Path" fill="#FF686B" fill-rule="nonzero" opacity="0.699999988"></path>
                            <path d="M21.0033503,82.4497 C9.40352023,82.4497 0,73.0461798 0,61.4463497 C0,49.8465196 9.40352023,40.4429994 21.0033503,40.4429994 C32.6031804,40.4429994 42.0067006,49.8465196 42.0067006,61.4463497 C41.9936438,73.0407671 32.5977678,82.4366432 21.0033503,82.4497 L21.0033503,82.4497 Z M21.0033503,43.4448319 C11.0587695,43.4448319 2.99709398,51.5065074 2.99709398,61.4510882 C2.99709398,71.3956689 11.0587695,79.4573445 21.0033503,79.4573445 C30.9479311,79.4573445 39.0096066,71.3956689 39.0096066,61.4510882 C39.0004654,51.5099127 30.9445245,43.4529118 21.0033503,43.4424626 L21.0033503,43.4448319 Z" id="Shape" fill="#FF686B" fill-rule="nonzero" opacity="0.699999988"></path>
                            <rect id="Rectangle" fill="#9D9D9D" fill-rule="nonzero" transform="translate(186.839786, 309.737224) rotate(180.000000) translate(-186.839786, -309.737224) " x="170.369985" y="259.711816" width="32.9396028" height="100.050816"></rect>
                            <rect id="Rectangle" fill="#FFFFFF" fill-rule="nonzero" transform="translate(186.840971, 181.180846) rotate(180.000000) translate(-186.840971, -181.180846) " x="55.7625327" y="85.8969504" width="262.156877" height="190.567792"></rect>
                            <rect id="Rectangle" fill="#FF686B" fill-rule="nonzero" transform="translate(186.840971, 97.405554) rotate(180.000000) translate(-186.840971, -97.405554) " x="55.7625327" y="85.8969504" width="262.156877" height="23.0172079"></rect>
                            <ellipse id="Oval" fill="#CCCCCC" fill-rule="nonzero" cx="296.804704" cy="290.853163" rx="10.7895383" ry="9.17608299"></ellipse>
                            <rect id="Rectangle" fill="#D1D1D1" fill-rule="nonzero" x="112.745226" y="355.988426" width="148.19149" height="7.55315068"></rect>
                            <rect id="Rectangle" fill="#F5F7FF" fill-rule="nonzero" x="66.7131797" y="93.0568065" width="37.3914128" height="8.69749565" rx="3.61072824"></rect>
                            <rect id="Rectangle" fill="#E6E6E6" fill-rule="nonzero" x="74.9699959" y="189.113076" width="137.255058" height="4.71716531"></rect>
                            <rect id="Rectangle" fill="#E6E6E6" fill-rule="nonzero" x="74.9699959" y="197.609186" width="101.801687" height="4.71716531"></rect>
                            <rect id="Rectangle" fill="#E6E6E6" fill-rule="nonzero" x="74.9699959" y="216.072707" width="64.5500597" height="4.71716531"></rect>
                            <rect id="Rectangle" fill="#E6E6E6" fill-rule="nonzero" x="74.9699959" y="224.571186" width="115.969768" height="4.71716531"></rect>
                            <rect id="Rectangle" fill="#E6E6E6" fill-rule="nonzero" x="74.9699959" y="244.87324" width="82.5184081" height="4.71716531"></rect>
                            <rect id="Rectangle" fill="#E6E6E6" fill-rule="nonzero" x="74.9699959" y="253.371719" width="100.763958" height="4.71716531"></rect>
                            <rect id="Rectangle" fill="#A9A9C0" fill-rule="nonzero" x="68.2721424" y="189.113076" width="3.44961963" height="13.2156444"></rect>
                            <rect id="Rectangle" fill="#A9A9C0" fill-rule="nonzero" x="68.2721424" y="216.072707" width="3.44961963" height="13.2156444"></rect>
                            <rect id="Rectangle" fill="#A9A9C0" fill-rule="nonzero" x="68.2721424" y="244.87324" width="3.44961963" height="13.2156444"></rect>
                            <rect id="Rectangle" fill="#A9A9C0" fill-rule="nonzero" x="242.859382" y="245.136226" width="18.9041999" height="18.9041999" rx="4.5681183"></rect>
                            <path d="M251.713248,258.752273 L246.934482,254.584772 C246.606146,254.229648 246.597902,253.684258 246.915353,253.319372 C247.232804,252.954485 247.774088,252.887186 248.171228,253.163225 L251.552139,256.110565 L256.371182,250.73475 C256.731332,250.416204 257.272952,250.417834 257.631178,250.738543 C257.989403,251.059252 258.0507,251.597395 257.773775,251.990449 L251.713248,258.752273 Z" id="Path" fill="#F3F3F3" fill-rule="nonzero"></path>
                            <path d="M257.465773,235.24937 L247.15956,235.24937 C244.77902,235.24937 242.848844,233.320254 242.847536,230.939714 L242.847536,220.633502 C242.848843,218.255195 244.776515,216.327523 247.154822,216.326216 L257.461034,216.326216 C259.839725,216.327521 261.768076,218.254812 261.77069,220.633502 L261.77069,230.939714 C261.768085,233.316942 259.842997,235.244149 257.465773,235.24937 Z M247.15956,217.525053 C245.443894,217.527663 244.053721,218.917835 244.051112,220.633502 L244.051112,230.939714 C244.052419,232.655921 245.443353,234.046856 247.15956,234.048163 L257.465773,234.048163 C259.18198,234.046856 260.572915,232.655921 260.574221,230.939714 L260.574221,220.633502 C260.571612,218.917835 259.18144,217.527663 257.465773,217.525053 L247.15956,217.525053 Z" id="Shape" fill="#A9A9C0" fill-rule="nonzero"></path>
                            <path d="M285.929873,206.448836 L275.623661,206.448836 C273.244587,206.446225 271.316617,204.518255 271.314006,202.139181 L271.314006,191.832969 C271.316619,189.454279 273.24497,187.526988 275.623661,187.525683 L285.929873,187.525683 C288.305789,187.530903 290.229816,189.457049 290.232421,191.832969 L290.232421,202.139181 C290.22982,204.515487 288.306171,206.442313 285.929873,206.448836 L285.929873,206.448836 Z M275.623661,188.72452 C273.907994,188.72713 272.517822,190.117302 272.515212,191.832969 L272.515212,202.139181 C272.516519,203.855388 273.907454,205.246323 275.623661,205.247638 L285.929873,205.247638 C286.755734,205.249517 287.54845,204.922929 288.133312,204.339846 C288.718173,203.756762 289.047172,202.965044 289.047799,202.139181 L289.047799,191.832969 C289.045189,190.117302 287.655017,188.72713 285.93935,188.72452 L275.623661,188.72452 Z" id="Shape" fill="#A9A9C0" fill-rule="nonzero"></path>
                            <path d="M285.929873,264.049903 L275.623661,264.049903 C273.244587,264.047291 271.316617,262.119322 271.314006,259.740247 L271.314006,249.434035 C271.316619,247.055345 273.24497,245.128054 275.623661,245.126749 L285.929873,245.126749 C288.305789,245.131969 290.229816,247.058115 290.232421,249.434035 L290.232421,259.740247 C290.22982,262.116553 288.306171,264.043379 285.929873,264.049903 L285.929873,264.049903 Z M275.623661,246.325586 C273.907994,246.328196 272.517822,247.718368 272.515212,249.434035 L272.515212,259.740247 C272.516519,261.456455 273.907454,262.847389 275.623661,262.848704 L285.929873,262.848704 C286.755734,262.850583 287.54845,262.523996 288.133312,261.940912 C288.718173,261.357828 289.047172,260.56611 289.047799,259.740247 L289.047799,249.434035 C289.045189,247.718368 287.655017,246.328196 285.93935,246.325586 L275.623661,246.325586 Z" id="Shape" fill="#A9A9C0" fill-rule="nonzero"></path>
                            <rect id="Rectangle" fill="#A9A9C0" fill-rule="nonzero" x="271.323483" y="216.335693" width="18.9041999" height="18.9041999" rx="4.5681183"></rect>
                            <path d="M280.177348,229.951739 L275.398583,225.788977 C275.100339,225.581677 274.946811,225.222156 275.003313,224.863367 C275.059816,224.504578 275.316409,224.209643 275.663929,224.104039 C276.011449,223.998435 276.388755,224.10074 276.635328,224.367431 L280.01624,227.314771 L284.835283,221.938955 C285.044447,221.637673 285.408676,221.48413 285.770402,221.54475 C286.132128,221.605371 286.4264,221.869269 286.525913,222.222282 C286.625427,222.575294 286.512313,222.954034 286.235506,223.194655 L280.177348,229.951739 Z" id="Path" fill="#F3F3F3" fill-rule="nonzero"></path>
                            <rect id="Rectangle" fill="#A9A9C0" fill-rule="nonzero" x="242.859382" y="187.53516" width="18.9041999" height="18.9041999" rx="4.5681183"></rect>
                            <path d="M251.713248,201.148837 L246.934482,196.981336 C246.606146,196.626212 246.597902,196.080823 246.915353,195.715936 C247.232804,195.35105 247.774088,195.28375 248.171228,195.55979 L251.552139,198.50713 L256.371182,193.131314 C256.731332,192.812768 257.272952,192.814399 257.631178,193.135108 C257.989403,193.455816 258.0507,193.993959 257.773775,194.387014 L251.713248,201.148837 Z" id="Path" fill="#F3F3F3" fill-rule="nonzero"></path>
                            <rect id="Rectangle" fill="#D6D6D6" fill-rule="nonzero" x="81.6654801" y="172.540213" width="20.1978073" height="2.48770647"></rect>
                            <rect id="Rectangle" fill="#D6D6D6" fill-rule="nonzero" x="76.765883" y="168.107357" width="29.9970015" height="2.48770647"></rect>
                            <path d="M97.0252906,133.952332 C97.0252906,136.831026 94.6916477,139.164669 91.8129533,139.164669 C88.9342588,139.164669 86.6006159,136.831026 86.6006159,133.952332 C86.6006159,131.073637 88.9342588,128.739994 91.8129533,128.739994 C94.6916477,128.739994 97.0252906,131.073637 97.0252906,133.952332 Z" id="Path" fill="#FF686B" fill-rule="nonzero"></path>
                            <path d="M101.218853,150.954028 L101.218853,160.871685 C95.2094356,163.588379 88.3217012,163.588379 82.3122838,160.871685 L82.3122838,150.954028 C82.3122838,145.733123 86.5446635,141.500744 91.7655684,141.500744 C96.9864733,141.500744 101.218853,145.733123 101.218853,150.954028 L101.218853,150.954028 Z" id="Path" fill="#FF686B" fill-rule="nonzero"></path>
                            <path d="M91.7655684,163.530051 C88.4146725,163.538421 85.1013731,162.824041 82.051667,161.435565 C71.9812895,156.862521 66.4642695,145.884843 68.8037261,135.075025 C71.1431827,124.265206 80.7054946,116.550992 91.7655684,116.550992 C102.825642,116.550992 112.387954,124.265206 114.727411,135.075025 C117.066867,145.884843 111.549847,156.862521 101.47947,161.435565 C98.4297637,162.824041 95.1164643,163.538421 91.7655684,163.530051 Z M91.7655684,117.78224 C81.2874318,117.783158 72.2289739,125.092469 70.0138634,135.333789 C67.7987528,145.575109 73.0269677,155.974505 82.5681622,160.305435 C88.413926,162.949366 95.1148415,162.949366 100.960605,160.305435 C110.501396,155.974689 115.729627,145.57595 113.515155,135.334946 C111.300684,125.093942 102.243261,117.784273 91.7655684,117.78224 L91.7655684,117.78224 Z" id="Shape" fill="url(#linearGradient-3)" fill-rule="nonzero"></path>
                            <rect id="Rectangle" fill="#E7E7E7" fill-rule="nonzero" x="127.851528" y="124.608032" width="1.63714778" height="37.6804606"></rect>
                            <rect id="Rectangle" fill="#E7E7E7" fill-rule="nonzero" x="135.373878" y="124.608032" width="1.63714778" height="37.6804606"></rect>
                            <rect id="Rectangle" fill="#E7E7E7" fill-rule="nonzero" x="142.896229" y="124.608032" width="1.63714778" height="37.6804606"></rect>
                            <rect id="Rectangle" fill="#E7E7E7" fill-rule="nonzero" x="150.41621" y="124.608032" width="1.63714778" height="37.6804606"></rect>
                            <rect id="Rectangle" fill="#E7E7E7" fill-rule="nonzero" x="157.93856" y="124.608032" width="1.63714778" height="37.6804606"></rect>
                            <rect id="Rectangle" fill="#E7E7E7" fill-rule="nonzero" x="165.458542" y="124.608032" width="1.63714778" height="37.6804606"></rect>
                            <rect id="Rectangle" fill="#E7E7E7" fill-rule="nonzero" x="172.980892" y="124.608032" width="1.63714778" height="37.6804606"></rect>
                            <rect id="Rectangle" fill="#E7E7E7" fill-rule="nonzero" x="180.503243" y="124.608032" width="1.63714778" height="37.6804606"></rect>
                            <rect id="Rectangle" fill="#E7E7E7" fill-rule="nonzero" x="188.023224" y="124.608032" width="1.63714778" height="37.6804606"></rect>
                            <rect id="Rectangle" fill="#E7E7E7" fill-rule="nonzero" x="195.545574" y="124.608032" width="1.63714778" height="37.6804606"></rect>
                            <rect id="Rectangle" fill="#E7E7E7" fill-rule="nonzero" x="203.065556" y="124.608032" width="1.63714778" height="37.6804606"></rect>
                            <rect id="Rectangle" fill="#E7E7E7" fill-rule="nonzero" x="210.587906" y="124.608032" width="1.63714778" height="37.6804606"></rect>
                            <rect id="Rectangle" fill="#FF686B" fill-rule="nonzero" x="127.851528" y="135.873789" width="1.63714778" height="26.4170734"></rect>
                            <rect id="Rectangle" fill="#FF686B" fill-rule="nonzero" x="135.373878" y="145.002487" width="1.63714778" height="17.2860061"></rect>
                            <rect id="Rectangle" fill="#FF686B" fill-rule="nonzero" x="142.896229" y="130.045448" width="1.63714778" height="32.243045"></rect>
                            <rect id="Rectangle" fill="#FF686B" fill-rule="nonzero" x="150.41621" y="152.901547" width="1.63714778" height="9.38694573"></rect>
                            <rect id="Rectangle" fill="#FF686B" fill-rule="nonzero" x="157.93856" y="143.448263" width="1.63714778" height="18.8402303"></rect>
                            <rect id="Rectangle" fill="#FF686B" fill-rule="nonzero" x="165.458542" y="136.390284" width="1.63714778" height="25.8982089"></rect>
                            <rect id="Rectangle" fill="#FF686B" fill-rule="nonzero" x="172.980892" y="145.585321" width="1.63714778" height="16.703172"></rect>
                            <rect id="Rectangle" fill="#FF686B" fill-rule="nonzero" x="180.503243" y="133.994978" width="1.63714778" height="28.2935149"></rect>
                            <rect id="Rectangle" fill="#FF686B" fill-rule="nonzero" x="188.023224" y="146.750989" width="1.63714778" height="15.5398731"></rect>
                            <rect id="Rectangle" fill="#FF686B" fill-rule="nonzero" x="195.545574" y="137.425644" width="1.63714778" height="24.8628492"></rect>
                            <rect id="Rectangle" fill="#FF686B" fill-rule="nonzero" x="203.065556" y="149.857068" width="1.63714778" height="12.4314246"></rect>
                            <rect id="Rectangle" fill="#FF686B" fill-rule="nonzero" x="210.587906" y="137.425644" width="1.63714778" height="24.8628492"></rect>
                            <g id="Group-15" transform="translate(238.976719, 121.503866)">
                                <mask id="mask-5" fill="white">
                                    <use xlink:href="#path-4"></use>
                                </mask>
                                <use id="Shape" fill="#FF686B" fill-rule="nonzero" xlink:href="#path-4"></use>
                                <path d="M6.29796269,17.3251854 L0.911782832,15.5711684 C3.46117178,5.79072462 12.1278177,-0.600146602 21.7147081,-0.910815071 L21.9396285,5.53006309 C14.7539459,5.76662766 8.67856341,10.1531975 6.52931677,17.3171064 L6.29796269,17.3251854 Z" id="Path" fill="#A9A9C0" fill-rule="nonzero" mask="url(#mask-5)" transform="translate(11.425706, 8.207185) rotate(2.000000) translate(-11.425706, -8.207185) "></path>
                                <path d="M8.30208522,29.4512953 L1.18774423,32.5903384 C0.957011294,32.0848062 0.741921265,31.5681634 0.542474147,31.04041 C-1.3851955,25.9584347 -1.51569992,20.1728243 0.189312973,15.0199729 L6.47015981,17.1216079 C5.18882462,20.9836427 8.12903552,29.0596467 8.30208522,29.4512953 Z" id="Path" fill="#E7E7E7" fill-rule="nonzero" mask="url(#mask-5)"></path>
                            </g>
                            <path d="M298.581638,148.719831 C295.750264,147.379901 292.419123,147.652275 289.843024,149.434352 C287.266924,151.216428 285.837236,154.237468 286.09251,157.359474 C286.347784,160.48148 288.249237,163.230146 291.08061,164.570075 C291.260673,164.652999 291.440736,164.731184 291.620798,164.806999 C292.421833,165.125053 293.265935,165.321504 294.125089,165.389834 C298.348799,165.736295 302.215576,163.011655 303.310385,158.917616 C304.405194,154.823577 302.414512,150.532563 298.581638,148.724569 L298.581638,148.719831 Z M300.773189,159.454877 C299.299006,162.587919 295.64628,164.039059 292.423972,162.771819 C292.288925,162.717326 292.153878,162.658095 292.018831,162.596495 C288.743045,161.039158 287.348171,157.122478 288.902134,153.84509 C290.456097,150.567702 294.371339,149.168797 297.650325,150.719385 C300.929311,152.269973 302.332247,156.183773 300.785035,159.464354 L300.773189,159.454877 Z" id="Shape" fill="#FF686B" fill-rule="nonzero"></path>
                            <path d="M289.009891,159.687063 L287.064741,160.705838 C285.327707,157.393655 285.883366,153.344198 288.44838,150.622334 L290.045251,152.126804 C288.124048,154.168641 287.708379,157.203883 289.009891,159.687063 L289.009891,159.687063 Z" id="Path" fill="#A9A9C0" fill-rule="nonzero"></path>
                            <path d="M292.423972,162.76708 L291.620798,164.806999 C291.440736,164.735922 291.260673,164.657737 291.08061,164.570075 C289.357449,163.757457 287.947194,162.403779 287.064741,160.715315 L289.009891,159.69654 C289.67019,160.962855 290.727029,161.978086 292.018831,162.587018 C292.153878,162.648618 292.288925,162.707849 292.423972,162.76708 Z" id="Path" fill="#E7E7E7" fill-rule="nonzero"></path>
                            <path d="M302.756246,133.696453 C304.826943,129.319529 302.957377,124.092699 298.580453,122.022002 C294.203529,119.951305 288.976699,121.820871 286.906002,126.197795 C286.823078,126.375488 286.744893,126.555551 286.669078,126.735614 C286.351024,127.536648 286.154573,128.38075 286.086243,129.239905 C285.739782,133.463615 288.464422,137.330391 292.558461,138.4252 C296.6525,139.52001 300.943514,137.529327 302.751508,133.696453 L302.756246,133.696453 Z M292.0212,135.888004 C288.888158,134.413822 287.437018,130.761095 288.704258,127.538787 C288.758751,127.40374 288.817982,127.268694 288.879582,127.136016 C290.431563,123.854961 294.349423,122.45315 297.630585,124.004905 C300.911746,125.556661 302.313826,129.474425 300.762296,132.755693 C299.210765,136.036961 295.293098,137.439309 292.011723,135.888004 L292.0212,135.888004 Z" id="Shape" fill="#FF686B" fill-rule="nonzero"></path>
                            <path d="M291.779537,124.124706 L290.760762,122.179557 C294.072945,120.442523 298.122402,120.998181 300.844266,123.563196 L299.339796,125.160066 C297.297959,123.238864 294.262717,122.823194 291.779537,124.124706 L291.779537,124.124706 Z" id="Path" fill="#A9A9C0" fill-rule="nonzero"></path>
                            <path d="M288.713735,127.538787 L286.673816,126.735614 C286.744893,126.555551 286.823078,126.375488 286.91074,126.197795 C287.720806,124.469926 289.074826,123.055154 290.765501,122.17008 L291.784276,124.115229 C290.518322,124.777125 289.503323,125.834555 288.893798,127.126539 C288.827459,127.268694 288.768228,127.40374 288.713735,127.538787 Z" id="Path" fill="#E7E7E7" fill-rule="nonzero"></path>
                            <polygon id="Path" fill="#444444" fill-rule="nonzero" points="292.137293 171.163682 275.765816 171.163682 275.765816 170.839095 291.812707 170.839095 291.812707 164.652999 292.137293 164.652999"></polygon>
                            <polygon id="Path" fill="#444444" fill-rule="nonzero" points="261.308687 171.163682 240.01392 171.163682 240.01392 170.839095 260.981731 170.839095 260.981731 160.715315 261.308687 160.715315"></polygon>
                            <rect id="Rectangle" fill="#FF686B" fill-rule="nonzero" x="240.01392" y="167.451076" width="14.6514065" height="1.95225726"></rect>
                            <rect id="Rectangle" fill="#FF686B" fill-rule="nonzero" x="275.765816" y="167.451076" width="8.61694135" height="1.95225726"></rect>
                        </g>
                        <g id="Asset-4" transform="translate(255.304007, 168.683005)" fill-rule="nonzero">
                            <path d="M47.3333619,129.703916 C47.3333619,129.703916 48.1189688,132.789447 48.2261965,133.253371 C48.3334242,133.717295 53.1761764,132.439316 53.1761764,132.439316 L53.1761764,128.673217 C53.1761764,128.673217 47.9023251,129.196225 47.3333619,129.703916 Z" id="Path" fill="#EEA886"></path>
                            <path d="M48.1430403,132.861661 C48.1430403,132.861661 46.7884703,134.916494 45.3704389,135.901238 C43.9524075,136.885982 38.4816075,138.161772 37.6806823,139.109315 C37.1051542,139.794259 36.3020407,142.391795 45.0815806,141.201349 C51.320481,140.361034 54.3972589,140.573301 54.9596572,139.487894 C55.5220554,138.402488 53.1761764,132.102314 53.1761764,132.102314 C53.1761764,132.102314 51.8347362,132.831025 48.1430403,132.861661 Z" id="Path" fill="#112230"></path>
                            <rect id="Rectangle" fill="#F0C141" transform="translate(38.663609, 128.101922) rotate(-5.610000) translate(-38.663609, -128.101922) " x="37.5541307" y="38.3961197" width="2.2189565" height="179.411605"></rect>
                            <rect id="Rectangle" fill="#F0C141" transform="translate(74.389815, 124.630409) rotate(-5.610000) translate(-74.389815, -124.630409) " x="73.2803369" y="34.9246068" width="2.2189565" height="179.411605"></rect>
                            <rect id="Rectangle" fill="#F0C141" transform="translate(48.157196, 41.204717) rotate(-5.550000) translate(-48.157196, -41.204717) " x="30.2096898" y="40.095239" width="35.8950132" height="2.2189565"></rect>
                            <rect id="Rectangle" fill="#F0C141" transform="translate(49.765823, 57.821892) rotate(-5.540000) translate(-49.765823, -57.821892) " x="31.8194103" y="56.7124141" width="35.8928249" height="2.2189565"></rect>
                            <rect id="Rectangle" fill="#F0C141" transform="translate(51.380574, 74.434182) rotate(-5.540000) translate(-51.380574, -74.434182) " x="33.433067" y="73.3247042" width="35.8950132" height="2.2189565"></rect>
                            <rect id="Rectangle" fill="#F0C141" transform="translate(52.998834, 91.042403) rotate(-5.540000) translate(-52.998834, -91.042403) " x="35.0513269" y="89.9329243" width="35.8950132" height="2.2189565"></rect>
                            <rect id="Rectangle" fill="#F0C141" transform="translate(54.610307, 107.654798) rotate(-5.540000) translate(-54.610307, -107.654798) " x="36.6628005" y="106.54532" width="35.8950132" height="2.2189565"></rect>
                            <rect id="Rectangle" fill="#F0C141" transform="translate(56.213239, 124.273749) rotate(-5.540000) translate(-56.213239, -124.273749) " x="38.2657319" y="123.164271" width="35.8950132" height="2.2189565"></rect>
                            <rect id="Rectangle" fill="#F0C141" transform="translate(57.824712, 140.883956) rotate(-5.540000) translate(-57.824712, -140.883956) " x="39.8772054" y="139.774478" width="35.8950132" height="2.2189565"></rect>
                            <rect id="Rectangle" fill="#F0C141" transform="translate(59.435318, 157.498847) rotate(-5.540000) translate(-59.435318, -157.498847) " x="41.4889055" y="156.389369" width="35.8928249" height="2.2189565"></rect>
                            <rect id="Rectangle" fill="#F0C141" transform="translate(61.044603, 174.111243) rotate(-5.540000) translate(-61.044603, -174.111243) " x="43.0981907" y="173.001764" width="35.8928249" height="2.2189565"></rect>
                            <rect id="Rectangle" fill="#F0C141" transform="translate(62.658476, 190.723628) rotate(-5.540000) translate(-62.658476, -190.723628) " x="44.7120638" y="189.61415" width="35.8928249" height="2.2189565"></rect>
                            <rect id="Rectangle" fill="#F0C141" transform="translate(64.290734, 207.327165) rotate(-5.540000) translate(-64.290734, -207.327165) " x="46.3432271" y="206.217687" width="35.8950132" height="2.2189565"></rect>
                            <path d="M41.3592483,64.7742725 C41.3592483,64.7742725 37.8579363,77.831978 36.9213353,82.4996646 C36.1138452,86.5699398 34.4879234,97.4086889 34.2559615,99.9865298 C34.0239996,102.564371 44.6417283,127.513407 45.7490182,132.021347 L55.423581,130.467639 C55.423581,130.467639 45.2172565,104.503222 47.8782536,98.7369991 C51.8391128,90.1565963 52.3555564,90.421383 55.4761007,83.3465444 C58.5966451,76.2717058 65.7371333,76.1119585 67.6541016,62.9951683 C67.6541016,62.9907916 43.9655374,60.6164644 41.3592483,64.7742725 Z" id="Path" fill="#152B3D"></path>
                            <path d="M58.5725735,1.27141393 C58.5725735,1.27141393 52.147666,-1.13573809 49.186869,3.76391043 C46.226072,8.66355894 46.5105536,18.4431611 49.7470789,19.6489254 C52.9836042,20.8546897 57.843863,20.2222653 59.5091745,17.1629939 C61.174486,14.1037225 62.6625436,9.67893943 62.5859524,6.72251909 C62.5093612,3.76609875 60.2597683,2.12485874 58.5725735,1.27141393 Z" id="Path" fill="#EEA886"></path>
                            <path d="M50.8259207,19.3469373 C50.8259207,19.3469373 51.0863308,21.0319437 50.65742,21.861317 C50.2285093,22.6906902 58.7366975,22.7125734 58.7366975,22.7125734 C58.7366975,22.7125734 59.4282067,18.2002576 60.7390104,14.3969574 C62.049814,10.5936572 50.8259207,19.3469373 50.8259207,19.3469373 Z" id="Path" fill="#EEA886"></path>
                            <path d="M60.7390104,14.3882041 C60.7390104,14.3882041 60.1503523,15.3554415 57.7541418,14.9812388 C55.3579314,14.6070361 52.4321476,11.4142772 51.4255204,11.064146 C50.4188932,10.7140148 50.4145165,10.127545 50.4145165,10.127545 L49.788657,11.0422628 L48.7251335,11.1101007 C48.7251335,11.1101007 49.6945592,8.2652847 48.2327615,7.09234517 C46.7709637,5.91940564 49.7514556,-2.1423653 57.4390238,0.544891684 C57.4390238,0.544891684 63.3474878,2.17300178 63.1286558,5.52988468 C62.9098238,8.88676758 62.0585673,12.7141393 60.7390104,14.3882041 Z" id="Path" fill="#3A3F47"></path>
                            <path d="M50.5786405,8.90427414 C50.712128,8.3418759 52.1454776,6.73127237 52.694746,8.46661014 C53.2440143,10.2019479 51.8631844,12.4974956 51.0972724,12.2983585 C50.3313604,12.0992214 50.2372626,10.3332471 50.5786405,8.90427414 Z" id="Path" fill="#EEA886"></path>
                            <path d="M75.0812597,43.9108294 C75.0112335,44.7533326 74.0483727,45.6614854 73.3918767,46.1144677 C72.9601069,46.4119363 72.4519409,46.5790462 71.9278906,46.5958981 L71.5580645,46.6112163 L71.5580645,46.6112163 L64.8815001,46.8300483 C64.8815001,46.8300483 59.9183903,30.7896626 69.2275037,24.6733082 C69.5054203,24.7083213 75.7268141,36.1794948 75.0812597,43.9108294 Z" id="Path" fill="#1D3B54"></path>
                            <path d="M54.9487156,139.487894 C54.3863173,140.582054 51.3095394,140.363222 45.070639,141.201349 C43.7127233,141.400878 42.3422207,141.502532 40.9697273,141.505525 L40.6064662,137.752557 C42.4315251,137.117944 44.5454422,136.463636 45.3594973,135.901238 C46.7775287,134.916494 48.1299104,132.861661 48.1299104,132.861661 C51.8347362,132.828837 53.1630465,132.102314 53.1630465,132.102314 C53.1630465,132.102314 55.5089255,138.400299 54.9487156,139.487894 Z" id="Path" fill="#112230"></path>
                            <path d="M50.821544,21.3711333 C50.821544,21.3711333 56.0603822,20.152239 59.0124259,21.1523013 L59.4500899,21.5637054 C59.4500899,21.5637054 60.3473011,23.2859133 56.968535,23.4325307 C53.5897689,23.5791482 48.2896578,23.82424 50.821544,21.3711333 Z" id="Path" fill="#1D3B54"></path>
                            <path d="M67.6541016,62.9907916 C67.6541016,62.9907916 69.4178875,70.2647674 69.940896,77.5474964 C70.4223264,84.2765804 71.3020311,91.6577838 72.0001052,98.695421 C72.7769588,106.542737 74.9981036,119.226239 75.1140845,123.423437 C75.2300655,127.620635 78.762014,145.963133 78.762014,145.963133 L69.7264407,147.002585 C69.7264407,147.002585 63.8529897,114.587001 62.4677832,111.273884 C61.0825766,107.960768 54.2046868,84.3378534 53.9727249,81.6856095 C53.7407629,79.0333657 67.6541016,62.9907916 67.6541016,62.9907916 Z" id="Path" fill="#152B3D"></path>
                            <path d="M72.0898263,147.284879 C72.0898263,147.284879 70.7352562,149.341899 69.3172248,150.326643 C67.8991934,151.311387 62.4283934,152.587178 61.6296566,153.534721 C61.0541284,154.219665 60.251015,156.817201 69.0305549,155.626755 C75.2694553,154.78644 78.3462332,154.998707 78.9064431,153.911112 C79.466653,152.823517 77.1273389,146.525532 77.1273389,146.525532 C77.1273389,146.525532 75.7946521,147.252054 72.0898263,147.284879 Z" id="Path" fill="#112230"></path>
                            <path d="M39.5407544,81.0860099 C38.7704657,80.9765939 41.4511577,58.0342468 41.2454557,56.5943322 C41.1097798,55.6336598 41.131663,48.1780535 41.186371,43.5300617 L40.3482444,38.827362 C39.7550129,38.4070828 39.1399651,38.0184778 38.505679,37.6631758 C37.3414927,36.9891732 35.879695,36.2210729 34.2559615,35.4092062 C34.444157,34.2997279 34.5754562,33.4243999 34.6257876,32.912333 C35.0328151,28.7807848 37.8076049,26.5902765 39.381007,25.6689938 C39.7272222,25.460468 40.0894307,25.2797297 40.4642254,25.1284787 C41.0616368,24.8746336 41.6502949,24.6295418 42.2148814,24.3953915 C46.0050517,22.8351194 50.8171674,21.3711333 50.8171674,21.3711333 L58.5506903,21.3711333 C58.5506903,21.3711333 64.4372712,22.5484494 67.9451482,23.9839874 C68.3921116,24.1679976 68.8170978,24.4014097 69.2121855,24.6798731 L68.1617918,46.725009 C68.1617918,46.725009 68.1617918,46.725009 68.1617918,46.7381389 C68.1617918,46.7512688 68.1617918,46.7556455 68.1617918,46.7665871 C67.6891147,49.8696248 67.1901778,53.5284959 67.0238654,56.093207 C66.9560275,57.1414122 68.1530386,62.7653947 68.7745214,67.9276416 L70.9628415,80.2807081 C70.9628415,80.2807081 69.7001808,85.3991886 39.5407544,81.0860099 Z" id="Path" fill="#1D3B54"></path>
                            <path d="M0.0612729604,9.58921831 C0.0612729604,9.58921831 0.518631844,10.1538049 0.838126566,10.3026106 C0.838126566,10.3026106 1.44210289,10.5323842 1.86226033,10.7183914 C1.9706868,10.766189 2.0765943,10.8195079 2.17956674,10.8781388 C2.69696894,11.269857 3.27403944,11.575756 3.88864467,11.7841033 C4.71364131,12.0204418 8.44910358,12.8782633 8.44910358,12.8782633 L9.32443159,10.6614951 L9.94810279,8.87144934 C9.94810279,8.87144934 6.48399221,4.37664003 5.7399634,4.07465187 C5.66857233,4.04488394 5.59550397,4.01931002 5.5211314,3.99806067 C4.86463539,3.79673523 4.29348387,3.92146947 3.93678771,3.85363155 C3.80548851,3.82956003 2.48811986,3.68294259 2.20363826,3.95648259 C1.86166934,4.24593487 1.69089688,4.68977825 1.75065601,5.13379876 C1.75065601,5.13379876 1.01538049,5.90846404 0.962860807,6.63717461 C0.962860807,6.63717461 0.253845122,7.33743701 0.442040643,8.25653142 C0.437664003,8.25653142 -0.196948801,9.04432662 0.0612729604,9.58921831 Z" id="Path" fill="#EEA886"></path>
                            <path d="M40.098776,38.6501081 C39.2365779,38.0942748 38.129288,37.3371161 34.2559615,35.4092062 C27.0629536,31.8094197 18.1805627,25.2860378 16.4911796,24.3428719 C13.8936438,22.894204 5.68963204,12.8716983 5.68963204,12.8716983 C6.1119778,11.3617575 10.0006225,8.33312262 10.0006225,8.33312262 C10.0006225,8.33312262 22.4390334,20.1128493 25.1656802,21.5615171 C27.502806,22.8088595 39.0483824,24.0671435 42.2345763,24.4063331 L43.046443,24.487301 C46.3529946,29.0061818 41.9544713,39.8449308 40.098776,38.6501081 Z" id="Path" fill="#1D3B54"></path>
                        </g>
                        <g id="Asset-3" transform="translate(126.439402, 202.419605)" fill-rule="nonzero">
                            <path d="M17.1170391,0.0415780802 C17.1170391,0.0415780802 11.4011473,-0.150994081 9.57608836,4.53201074 C7.75102948,9.21501556 9.13842436,12.8104253 9.65049124,14.5151266 C11.009438,18.9727345 11.118854,20.589903 10.462358,23.2793483 C9.88026485,25.6624288 9.34412644,26.8944529 8.67012388,29.1221627 C7.99612132,31.3498725 9.11872948,31.0916507 9.21720388,31.2667163 C9.31567828,31.4417819 31.5993409,33.4812962 31.5993409,33.4812962 C31.5993409,33.4812962 31.0019296,28.6538622 29.4329041,27.5334424 C27.8638787,26.4130225 26.3145481,26.1854372 27.5071825,21.4061463 C28.6998169,16.6268554 29.459164,14.4035223 28.7895381,10.948165 C28.0148728,6.93478611 27.5268774,4.42697138 23.756402,1.79442241 C21.8145488,0.455632746 19.4666768,-0.164224052 17.1170391,0.0415780802 Z" id="Path" fill="#3B3B40"></path>
                            <path d="M10.5214426,157.602807 C10.5214426,157.602807 13.6660585,162.270494 14.9330957,163.39529 C14.9330957,163.39529 17.7472753,164.428177 18.0295686,166.397665 C18.3118618,168.367153 18.2637188,169.680145 14.9330957,169.776431 C11.6024727,169.872717 9.41852932,169.273118 8.80579972,167.255487 C8.40784091,165.99918 7.74437043,164.843145 6.86038323,163.865779 L6.86038323,168.087048 L6.11197779,168.087048 C6.11197779,168.087048 5.92378227,164.005831 5.87782755,163.255238 C5.83187283,162.504644 5.33950082,159.61825 6.92165619,158.340271 C8.50381156,157.062292 10.5214426,157.602807 10.5214426,157.602807 Z" id="Path" fill="#CCCCCC"></path>
                            <path d="M26.2598401,153.871722 C26.6826553,154.803615 27.2097592,155.684569 27.8310539,156.497706 C28.583836,157.480261 30.9275267,161.517712 31.9604137,161.797817 C32.9933008,162.077922 36.181683,162.642508 36.4639763,164.423801 C36.7462696,166.205093 36.8863221,167.47213 33.7417062,167.614371 C30.5970904,167.756612 28.5356929,167.942619 27.0345054,165.736793 C25.5333179,163.530966 23.1371075,161.935681 23.1371075,161.935681 L23.1371075,167.688774 L21.9182132,167.688774 C21.9182132,167.688774 21.355815,161.716849 21.0253787,161.279185 C20.6949423,160.841521 19.8546275,156.259179 22.7629047,153.865157 C25.671182,151.471134 26.2598401,153.871722 26.2598401,153.871722 Z" id="Path" fill="#CCCCCC"></path>
                            <path d="M8.41190212,67.5031074 C8.41190212,67.5031074 4.8777653,72.7550754 3.80330018,78.8823714 C2.72883505,85.0096674 4.00024898,105.461706 3.95429426,108.488153 C3.90833954,111.514599 1.09416001,119.044609 1.65655825,124.734241 C2.21895649,130.423873 6.92165619,158.340271 6.92165619,158.340271 L10.5214426,157.602807 C10.5214426,157.602807 10.1713114,128.679782 10.5214426,126.285759 C10.8715738,123.891737 11.5805895,115.17347 11.720642,114.186538 C11.8606945,113.199606 20.6555526,87.3336633 20.6555526,82.9198218 C20.6555526,78.5059804 17.9814255,60.3013462 8.41190212,67.5031074 Z" id="Path" fill="#EEA886"></path>
                            <path d="M28.3496857,69.5207384 C28.3496857,69.5207384 34.8708794,94.4085019 35.6455446,97.8572942 C36.4202099,101.306087 37.5406298,104.148714 37.5406298,105.6127 C37.5406298,109.008973 36.2779691,114.464455 36.2779691,114.464455 L26.2598401,153.871722 L22.1020321,154.528218 C22.1020321,154.528218 24.5091841,130.31008 24.6229768,125.664277 C24.7367694,121.018473 28.3256142,114.396617 27.6231635,112.424941 C26.9207128,110.453264 16.2920425,87.7231842 16.2920425,87.7231842 C16.2920425,87.7231842 8.24777812,62.2949057 28.3496857,69.5207384 Z" id="Path" fill="#EEA886"></path>
                            <path d="M14.9330957,163.39529 C14.9330957,163.39529 11.714077,165.196278 9.64173796,162.885412 C7.89108196,160.93343 6.92165619,158.340271 6.92165619,158.340271 L10.5214426,157.602807 L14.9330957,163.39529 Z" id="Path" fill="#EEA886"></path>
                            <path d="M31.9494721,161.800005 C31.9494721,161.800005 29.1331043,162.504644 28.0542625,161.800005 C26.9754208,161.095366 23.3165497,154.895855 22.1020321,154.526029 C22.1020321,154.526029 23.2793483,152.136384 26.2598401,153.869533 C26.2598401,153.871722 31.1594886,160.769306 31.9494721,161.800005 Z" id="Path" fill="#EEA886"></path>
                            <path d="M37.5406298,105.6127 C37.5406298,105.6127 22.4565399,112.087939 0,112.087939 C0,112.087939 2.36557393,78.0595631 5.63054739,70.728691 C8.89552084,63.397819 28.8705059,71.4683432 28.8705059,71.4683432 C28.8705059,71.4683432 37.5406298,99.4744627 37.5406298,105.6127 Z" id="Path" fill="#EB4747"></path>
                            <path d="M54.5066748,56.3164155 C54.5066748,56.3164155 40.7487069,57.5002966 37.3458693,55.9837908 C35.641168,55.2266321 33.3324904,52.0820162 31.2010667,48.6332239 C30.8378056,48.0467541 30.4811094,47.4515311 30.1331665,46.8584964 C27.5268774,42.4162068 25.4195252,38.0505083 25.4195252,38.0505083 C25.4195252,38.0505083 19.1259169,30.1353549 25.8221761,27.3058571 C27.5484535,27.8790307 29.033035,29.0138457 30.0390688,30.5292525 C31.6562373,33.0305022 32.9188979,36.783471 33.2383926,38.0198719 C33.5578874,39.2562727 38.9520962,50.1344114 39.2847208,50.4407762 C39.6173455,50.747141 43.0048648,50.5436273 45.6155306,50.7887191 C49.871813,51.19137 54.3688107,51.4255202 54.3688107,51.4255202 L54.5066748,56.3164155 Z" id="Path" fill="#EB4747"></path>
                            <path d="M30.6868115,45.2675877 C28.9952401,49.1846805 30.5905254,50.4932959 29.8114835,54.4103887 C29.0324416,58.3274815 28.7610899,69.4879136 28.905519,71.665292 C29.0499481,73.8426704 9.62860804,76.0769452 5.12066882,72.1117093 C5.12066882,72.1117093 6.61966803,63.6450992 9.3725746,58.3821895 C9.89777141,57.3821273 9.6461146,53.4431513 9.11435284,52.0885812 C8.95022884,51.6749887 8.3002978,50.0731385 7.47311283,48.0489425 L7.47311283,48.0489425 C6.61310307,45.9437786 5.56489779,43.3834442 4.6808165,41.2257607 C3.63479954,38.6698029 2.81636785,36.6784317 2.81636785,36.6784317 C2.81636785,36.6784317 2.14674193,30.3760701 4.76397266,28.3431208 C7.03763715,26.5771465 13.2327711,25.9490987 14.3444377,25.561766 C15.4561042,25.1744334 18.6926295,25.0059328 20.966294,25.342934 C20.966294,25.342934 24.4500995,26.9863624 25.6580521,27.2292659 C26.8660048,27.4721694 31.5665161,33.5753939 32.3827595,35.7899738 C33.1990029,38.0045536 32.3871361,41.3592482 30.6868115,45.2675877 Z" id="Path" fill="#EB4747"></path>
                            <path d="M22.6272289,21.3208019 C22.6272289,21.3208019 21.9313431,27.7106963 22.0779606,29.7896003 C22.0779606,29.7896003 19.167495,33.3281138 15.051265,25.4676683 C15.051265,25.4676683 16.0753988,22.3186758 14.7711601,17.9048343 C13.4669213,13.4909929 22.6272289,21.3208019 22.6272289,21.3208019 Z" id="Path" fill="#EEA886"></path>
                            <path d="M11.5630829,26.115411 C11.5630829,26.115411 14.0512028,33.4681662 20.8853262,32.9276512 C27.7194496,32.3871361 24.1262281,26.7193873 24.1262281,26.7193873 C24.1262281,26.7193873 22.4237151,25.7412083 21.9379081,25.6492988 C21.4521011,25.5573894 15.1541161,25.2904144 15.1541161,25.2904144 L11.5630829,26.115411 Z" id="Path" fill="#EEA886"></path>
                            <rect id="Rectangle" fill="#434343" x="38.000177" y="32.1179728" width="18.880825" height="26.9710441" rx="1.29548545"></rect>
                            <rect id="Rectangle" fill="#FFFFFF" x="39.2847208" y="33.951785" width="16.3139257" height="23.3034198"></rect>
                            <path d="M33.288724,53.5788271 C33.650544,53.5818344 34.0054914,53.4799865 34.3106694,53.2855922 C35.0109318,52.7582071 35.264777,51.4561567 36.4989894,51.5524428 C37.7332019,51.6487289 38.3065418,55.5220553 37.9979887,56.2573308 C37.6894355,56.9926063 35.9716043,57.3514908 33.4353414,56.8525539 C30.8990785,56.3536169 33.288724,53.5788271 33.288724,53.5788271 Z" id="Path" fill="#EEA886"></path>
                            <path d="M36.0766437,51.5787026 C37.3336667,51.1634649 38.6111303,50.8128746 39.9040154,50.528309 C41.7028144,50.1409764 43.853933,50.0140538 44.0618234,50.3247953 C44.2959736,50.6727382 42.3111674,50.9812913 40.5473815,51.4736633 C38.923648,51.9332105 39.3109807,52.1038994 39.3109807,52.1038994 C39.3109807,52.1038994 39.203753,52.0491914 41.0616367,51.8850674 C43.0530079,51.6990602 45.105652,51.7012486 45.3091658,52.1038994 C45.4076402,52.2986599 45.337614,52.4299591 44.619845,52.6115897 C45.057509,52.5918948 45.112217,52.7034991 45.1297236,52.8763764 C45.215068,53.7735876 42.3089791,54.4891683 41.1535461,54.7714615 C42.042004,54.5526295 42.71163,54.4957332 42.3921352,55.0975212 C42.0266858,55.7846537 37.8798194,56.6162153 36.4158333,57.051691 C34.8161714,57.5134265 36.0766437,51.5787026 36.0766437,51.5787026 Z" id="Path" fill="#EEA886"></path>
                            <path d="M54.7276951,37.2955379 C54.7276951,37.2955379 57.4105755,36.6718667 58.2749619,37.9651639 C58.9767902,39.0695931 59.2208969,40.4039387 58.9555294,41.6853079 C58.7366974,42.4534082 58.0429999,44.4338378 57.1348471,44.0268103 C54.2221932,42.7269482 54.7276951,37.2955379 54.7276951,37.2955379 Z" id="Path" fill="#EEA886"></path>
                            <path d="M57.3843156,37.3239861 C57.3843156,37.3239861 57.0079246,35.5098688 56.2901556,35.8206102 C55.5723867,36.1313517 56.2201294,37.3261744 56.2201294,37.3261744 L57.3843156,37.3239861 Z" id="Path" fill="#EEA886"></path>
                            <path d="M54.7276951,37.2955379 C54.7276951,37.2955379 54.7714615,36.2604626 56.6490401,37.3261744 C58.5266187,38.3918863 54.7276951,37.2955379 54.7276951,37.2955379 Z" id="Path" fill="#EEA886"></path>
                            <path d="M30.1331665,46.8563081 C30.1331665,46.8563081 32.1792457,41.993861 32.2667785,40.8975127 C32.249272,41.5540087 32.1026545,45.4929847 31.2010667,48.6332239 C30.8378056,48.0467541 30.4811094,47.4515311 30.1331665,46.8584964 L30.1331665,46.8563081 Z" id="Path" fill="#A33131"></path>
                            <path d="M32.2667785,40.8975127 C32.2667785,40.8362397 32.2667785,40.8056032 32.2667785,40.8056032 C32.2688698,40.836204 32.2688698,40.8669119 32.2667785,40.8975127 Z" id="Path" fill="#D1C0BA"></path>
                            <path d="M21.7759724,53.5832038 L13.2546543,38.5800818 C13.2546543,38.5800818 16.2307695,53.5460023 18.4847391,54.0493159 C20.7387087,54.5526295 21.7759724,53.5832038 21.7759724,53.5832038 Z" id="Path" fill="#A33131"></path>
                            <path d="M5.12066882,28.0652041 C5.12066882,28.0652041 1.03288704,30.1003417 2.44216513,35.367628 C3.85144322,40.6349143 5.25415634,42.15142 6.59997315,44.120908 C7.87138708,45.9809801 10.4667346,50.9900446 10.784041,51.5611961 C11.1013474,52.1323476 14.2240801,60.2838396 17.0929676,61.2116873 C19.9618551,62.139535 34.1618637,57.6250308 34.4879234,58.1195911 C34.813983,58.6141515 34.4704168,53.1389748 34.4704168,53.1389748 C34.4704168,53.1389748 27.8748203,53.6247818 26.4195875,53.5263074 C24.0562019,53.3665601 20.2638433,54.3316092 19.3513138,52.28553 C18.2812254,49.878378 14.4385354,41.9763544 14.0336962,40.674304 C13.628857,39.3722536 8.9130274,26.7281406 5.12066882,28.0652041 Z" id="Path" fill="#EB4747"></path>
                            <path d="M21.5724587,3.03957649 C21.5724587,3.03957649 27.8770086,7.15361811 25.8221761,17.1039092 C23.7673436,27.0542003 16.3358089,21.5834003 15.5370721,21.0188137 C14.7383353,20.4542271 12.2195789,14.2240801 12.1211045,11.5105633 C12.0357601,8.95460548 10.6943199,-1.29986209 21.5724587,3.03957649 Z" id="Path" fill="#EEA987"></path>
                            <path d="M21.1391713,5.03313602 C20.4826753,4.83837554 18.2615305,9.12748276 17.0688961,10.1866296 C15.8762617,11.2457765 13.6770001,13.9067737 13.4625447,16.8128626 C13.2480893,19.7189516 10.790606,10.4536047 11.6396741,7.01356563 C12.4887423,3.57352658 13.6244804,-1.47273937 21.3076719,2.52969793 C28.9908635,6.53213523 26.997304,13.69013 26.997304,13.69013 C26.997304,13.69013 24.4610411,6.01569171 21.1391713,5.03313602 Z" id="Path" fill="#3B3B40"></path>
                            <path d="M15.8149887,11.9022725 C15.611475,10.7249564 13.0139391,9.72927076 13.0511405,11.4996217 C13.088342,13.2699725 14.5238799,15.3182401 15.3357466,15.1803759 C16.1476134,15.0425117 16.0031842,12.9898676 15.8149887,11.9022725 Z" id="Path" fill="#EEA987"></path>
                            <path d="M16.1322951,21.4302179 C16.1782498,21.5177507 17.6794374,24.4019564 22.2595911,25.1284787 C22.3624422,24.0036822 22.504683,22.6250406 22.504683,22.6250406 C20.3099608,23.2308978 17.9584615,22.7899917 16.1322951,21.4302179 L16.1322951,21.4302179 Z" id="Path" fill="#A87860"></path>
                            <rect id="Rectangle" fill="#E6E6E6" x="41.1382279" y="36.7156331" width="5.72683347" height="1.20576433"></rect>
                            <path d="M50.2832172,39.9849832 L49.4713505,38.656673 C49.4283508,38.5863099 49.4261558,38.4983518 49.4655921,38.4259315 C49.5050285,38.3535112 49.5801049,38.3076312 49.6625409,38.3055739 C49.7449769,38.3035167 49.8222484,38.3455947 49.8652481,38.4159578 L50.4385879,39.3547471 L51.9704119,38.4531592 C52.0789047,38.4020162 52.2084947,38.4420186 52.2692834,38.5454161 C52.330072,38.6488136 52.302009,38.781502 52.2045622,38.8514335 L50.2832172,39.9849832 Z" id="Path" fill="#78C2FF"></path>
                            <path d="M50.8281089,42.0310633 C49.6480814,42.0319477 48.5837548,41.3217975 48.1315643,40.2318483 C47.6793738,39.141899 47.9284021,37.8868734 48.7624946,37.0521547 C49.5965871,36.217436 50.8514255,35.9674659 51.9417138,36.4188383 C53.0320021,36.8702107 53.7429511,37.9340041 53.7429511,39.1140319 C53.7405444,40.7232116 52.4372863,42.0274481 50.8281089,42.0310633 Z M50.8281089,36.6149694 C49.81605,36.6140854 48.9031939,37.2231707 48.5154868,38.158022 C48.1277797,39.0928734 48.3416369,40.169236 49.0572708,40.8848699 C49.7729048,41.6005038 50.8492673,41.814361 51.7841187,41.4266539 C52.7189701,41.0389468 53.3280554,40.1260907 53.3271713,39.1140319 C53.3247612,37.7348374 52.2073033,36.6173795 50.8281089,36.6149694 Z" id="Shape" fill="#78C2FF"></path>
                            <path d="M50.2832172,47.3508684 L49.4713505,46.0225581 C49.4055512,45.9136815 49.4397204,45.7721234 49.5479417,45.7052517 C49.5992067,45.669808 49.6631526,45.657905 49.7237372,45.6725289 C49.7843219,45.6871528 49.8357967,45.7269159 49.8652481,45.7818429 L50.4385879,46.7206322 L51.9704119,45.8190444 C52.0411659,45.7772175 52.1288596,45.7763146 52.2004597,45.8166758 C52.2720599,45.8570371 52.3166886,45.9325306 52.3175471,46.0147188 C52.318381,46.0969069 52.2753161,46.1733034 52.2045622,46.2151303 L50.2832172,47.3508684 Z" id="Path" fill="#78C2FF"></path>
                            <path d="M50.8281089,49.3969484 C49.6480814,49.3978328 48.5837548,48.6876827 48.1315643,47.5977334 C47.6793738,46.5077842 47.9284021,45.2527586 48.7624946,44.4180399 C49.5965871,43.5833212 50.8514255,43.3333511 51.9417138,43.7847234 C53.0320021,44.2360958 53.7429511,45.2998892 53.7429511,46.479917 C53.7405444,48.0890967 52.4372863,49.3933332 50.8281089,49.3969484 L50.8281089,49.3969484 Z M50.8281089,43.9808556 C49.8173329,43.9808556 48.9060844,44.5897323 48.5192771,45.5235676 C48.1324699,46.4574029 48.346279,47.5322937 49.0610056,48.2470203 C49.7757321,48.9617469 50.850623,49.175556 51.7844583,48.7887487 C52.7182936,48.4019415 53.3271703,47.490693 53.3271703,46.479917 C53.322356,45.1024321 52.2056001,43.987632 50.8281089,43.9852322 L50.8281089,43.9808556 Z" id="Shape" fill="#78C2FF"></path>
                            <rect id="Rectangle" fill="#E6E6E6" x="41.1382279" y="39.1140319" width="5.72683347" height="1.20576433"></rect>
                            <rect id="Rectangle" fill="#E6E6E6" x="41.1382279" y="44.5848319" width="5.72683347" height="1.20576433"></rect>
                            <rect id="Rectangle" fill="#E6E6E6" x="41.1382279" y="46.9832306" width="5.72683347" height="1.20576433"></rect>
                        </g>
                        <g id="Asset-1" transform="translate(50.760000, 205.155006)" fill-rule="nonzero">
                            <path d="M38.7998321,158.783503 C38.7998321,158.783503 40.5995544,161.475451 43.1235286,162.055725 C45.6475029,162.635999 48.1409363,163.563129 48.1409363,165.15561 C48.1409363,166.748092 40.8438803,167.697036 37.9555987,166.091466 C33.644991,163.691836 33.2065132,164.41827 32.7200428,163.220636 C32.2335724,162.023003 33.2937725,158.818406 33.2632317,158.438828 C33.2435984,157.96981 38.7998321,158.783503 38.7998321,158.783503 Z" id="Path" fill="#353A3D"></path>
                            <path d="M38.5206024,157.457162 C38.5206024,157.457162 38.8478247,158.766051 38.7998321,158.783503 C38.7518395,158.800954 33.1127095,159.483758 33.282865,158.44101 C33.4202984,157.594595 33.6188132,156.67401 33.6188132,156.67401 L38.5206024,157.457162 Z" id="Path" fill="#81807E"></path>
                            <path d="M19.8231235,158.606803 C19.8231235,158.606803 21.1058347,161.180951 23.3004052,162.057906 C25.6433164,162.995944 27.5237536,164.073595 27.4801239,165.624629 C27.4364943,167.175662 21.7515532,168.750692 17.6132826,165.770788 C14.9955046,163.890351 14.1709046,163.879444 13.7498786,162.694899 C13.3288527,161.510355 14.4784935,158.430103 14.4632231,158.059251 C14.4435898,157.598958 19.8231235,158.606803 19.8231235,158.606803 Z" id="Path" fill="#353A3D"></path>
                            <path d="M19.8863864,157.269554 C19.8863864,157.269554 19.8711161,158.578443 19.8231235,158.606803 C19.7751309,158.635162 14.3257898,159.080184 14.4632231,158.059251 C14.5731178,157.444478 14.7509062,156.843802 14.9933232,156.268254 L19.8863864,157.269554 Z" id="Path" fill="#81807E"></path>
                            <path d="M39.8687581,78.6075086 C39.8687581,78.6075086 44.9385213,100.939336 46.0881621,107.743377 C47.0741918,113.533029 47.8573437,119.562645 47.3861437,123.742363 C46.8015066,128.925564 39.4848173,155.735973 39.7836803,157.254284 C40.0825433,158.772595 32.1179539,157.502973 32.1179539,157.502973 C32.1179539,157.502973 37.6894579,127.586134 36.5769023,122.018993 C35.7523022,117.895993 28.5294166,90.5009464 27.4146795,91.9145465 C26.2999424,93.3281466 24.9343349,117.769467 24.1162793,121.827022 C23.2982237,125.884578 20.7873383,157.939269 20.7873383,157.939269 C20.7873383,157.939269 15.1612972,158.768232 13.6582564,157.502973 C13.6582564,157.502973 12.9754527,130.121016 13.4968268,122.512008 C13.6953416,119.612819 10.0980784,87.7435536 14.711912,74.9142602 C17.148627,68.1254895 39.8687581,78.6075086 39.8687581,78.6075086 Z" id="Path" fill="#2D3133"></path>
                            <path d="M61.9082668,58.3044592 C58.3000962,57.7983555 46.9454844,62.8266706 45.9136436,62.4492743 C45.2046621,62.189678 43.5401916,56.7643332 42.3512841,52.6587848 C41.6466656,50.2286143 41.1100211,48.2609178 41.0423952,48.0994882 L41.0423952,48.0994882 C41.1632705,49.5657647 41.1501271,51.0400113 41.0031285,52.5038996 C40.9878581,52.6631477 40.9180507,52.7045959 40.8984174,52.8660255 C40.8901552,52.9400388 40.8748147,53.0130892 40.8526063,53.0841737 C40.588647,53.6862626 40.4904803,54.8184516 40.2461544,55.7608516 C39.8339304,57.481594 39.6940713,59.2563322 39.8316729,61.0204038 L39.8316729,61.0204038 C39.8305881,61.0356549 39.8305881,61.0509638 39.8316729,61.0662149 C39.8316729,61.1098446 39.8316729,61.1534742 39.8316729,61.1992853 C39.8316729,61.2450964 39.8316729,61.2363705 39.8316729,61.2538224 C39.7313247,64.7703707 39.9734692,68.5617858 40.0759988,70.5774748 C40.2330655,73.7035379 39.2034062,75.1105936 39.1750469,75.1585862 L39.1750469,75.1585862 L38.0843061,75.0058825 L37.2989727,74.8946269 L37.2989727,74.8946269 L36.2474986,74.7462862 L32.1310428,74.1681935 L30.6410908,73.9500454 L30.2876908,73.8976898 L27.6699128,73.5312009 L20.2986865,72.4906342 L19.4915383,72.3771971 L19.1577716,72.331386 L16.3851084,71.9409008 L15.1307565,71.7707452 L15.1307565,71.7707452 C15.1307565,71.7707452 14.0661935,64.2184559 13.9854787,60.1369038 C13.9113083,56.3891183 11.9043452,48.777929 11.5858489,47.5584808 L11.5858489,47.5344845 L11.5858489,47.4995808 C11.5858489,47.4799474 11.5858489,47.4624956 11.5705785,47.4472252 L11.5705785,47.4210474 L11.5705785,47.4210474 C11.5705785,47.4210474 11.5705785,47.4210474 11.5705785,47.4210474 C11.5701097,47.416697 11.5701097,47.4123089 11.5705785,47.4079585 C11.5705785,47.4079585 5.52569294,53.6928071 4.36296324,56.4436554 C4.00738173,57.2791628 2.92318537,59.5500852 1.54012602,62.3140224 C0.593363,60.5099371 0.0130888897,59.2599482 0.0130888897,58.9414518 C0.0130888897,58.9043667 0.0130888897,58.8629185 0.0130888897,58.8192889 C0.100348154,56.0989813 2.95372611,45.0759547 5.20283366,37.8596135 C6.94801895,34.3474281 8.45760423,31.507139 8.93971167,31.1602834 C9.67268949,30.6345464 12.7529415,29.31475 15.4427084,28.2480055 L15.7044862,28.1432944 L16.4440084,27.8531573 L16.7995899,27.7179054 L16.9893788,27.6459165 L17.144264,27.5870165 L17.144264,27.5870165 C18.4880567,27.0743684 19.5111716,26.7144239 19.7205938,26.7144239 C19.776542,26.7113154 19.8326197,26.7113154 19.8885679,26.7144239 C19.9780087,26.7144239 20.0914457,26.7144239 20.228879,26.7296943 C21.891168,26.8256795 26.8518572,27.2925165 28.4487018,27.4430388 L28.9460796,27.4910314 L28.9460796,27.4910314 L30.850513,28.363624 L30.850513,28.363624 L30.9574056,28.4116166 C31.6489353,28.7301129 32.4495391,29.1533203 33.2959539,29.6157944 C34.9560614,30.5254723 36.7863245,31.5791279 38.3133617,32.3121057 C39.8403988,33.0450836 41.8451804,34.0092984 42.0218804,34.1467318 L49.5741698,55.9288257 L62.6783298,53.5291959 L61.9082668,58.3044592 Z" id="Path" fill="#DECBC4"></path>
                            <path d="M39.1554136,75.1411343 C39.1554136,75.1411343 39.7095099,75.7955788 39.8687581,78.6075086 C39.8687581,78.6075086 17.1159048,75.9526455 14.711912,74.8989899 C14.711912,74.8989899 14.6181083,71.8078304 15.1263935,71.7554749 C15.6870343,71.7053008 39.1554136,75.1411343 39.1554136,75.1411343 Z" id="Path" fill="#495055"></path>
                            <path d="M19.7533161,25.9334535 C19.8231235,29.5045389 26.7340572,31.4591464 26.7340572,31.4591464 C26.7340572,31.4591464 29.6245204,27.833524 28.9351722,27.4844869 C28.662487,27.349235 28.5534129,26.8082276 28.5185092,26.2017757 C28.4976718,25.661206 28.5107865,25.1198614 28.5577759,24.5809349 C28.5795907,24.327883 28.599224,24.1664534 28.599224,24.1664534 C28.599224,24.1664534 27.6110128,23.1237052 26.3544794,21.8824421 C24.1577274,19.7009605 21.1385569,16.9282974 21.1341939,18.03649 C21.1336937,18.1100186 21.1424893,18.1833155 21.1603717,18.2546382 C21.6948347,20.7349828 19.7533161,25.9334535 19.7533161,25.9334535 Z" id="Path" fill="#EEA886"></path>
                            <path d="M20.3270457,72.3117527 C20.3270457,72.3117527 19.8296679,75.4443603 19.7860383,76.2602344 L18.7345641,76.0420862 C18.7345641,76.0420862 19.0247012,72.7284157 19.1948568,72.1743193 L20.3270457,72.3117527 Z" id="Path" fill="#353A3D"></path>
                            <path d="M37.2575246,74.7768269 C37.2575246,74.7768269 37.6567357,77.6236604 37.6654616,78.7034938 L36.552906,78.5573345 C36.552906,78.5573345 36.3238504,75.003701 36.1973245,74.6306676 L37.2575246,74.7768269 Z" id="Path" fill="#353A3D"></path>
                            <path d="M22.4147236,20.7022606 L22.4147236,20.7022606 C22.4278125,20.7240754 22.7201311,21.1625532 23.2218718,21.7930014 C24.2820719,23.1280681 26.2759461,25.3226386 28.5206907,26.2039572 C28.4998533,25.6633875 28.512968,25.1220429 28.5599573,24.5831164 C28.7911937,24.5783197 29.0213807,24.5505511 29.2471241,24.5002201 C28.792227,23.7360645 28.2902444,23.0009405 27.7440832,22.2991051 L26.3566609,21.8846236 L22.4147236,20.7022606 Z" id="Path" fill="#A77860"></path>
                            <path d="M21.0883828,18.0844826 C21.6861088,19.3933716 22.253294,20.3292272 22.4147236,20.7022606 L22.4147236,20.7022606 C22.6279717,21.1039961 22.9000217,21.4716313 23.2218718,21.7930014 C24.3606052,23.0211755 26.4788239,24.6289275 28.5599573,24.5831164 C28.7911937,24.5783197 29.0213807,24.5505511 29.2471241,24.5002201 C30.0869945,24.3169756 31.0795686,23.9264904 31.6271205,22.8575644 C35.9399097,14.4108676 32.8182095,7.50647825 32.8182095,7.50647825 C32.8182095,7.50647825 21.0229384,4.17099285 19.1774049,7.72462641 C17.8881493,10.209334 19.6835086,15.0260454 21.0883828,18.0844826 Z" id="Path" fill="#EEA886"></path>
                            <path d="M32.8203909,7.50429677 C32.8203909,7.50429677 33.9111318,7.44321528 34.1859984,5.36644478 C34.4608651,3.28967428 33.9111318,2.74866684 33.9111318,2.74866684 C33.9111318,2.74866684 29.0442463,0.708981526 27.294698,0.436296324 C25.5451497,0.163611121 21.247631,-0.0763518566 20.2397865,1.07547044 C20.2397865,1.07547044 17.7899826,0.506103735 17.1224492,4.56584103 C16.0644306,11.0208451 20.7240754,17.2816974 20.7240754,17.2816974 C20.7240754,17.2816974 20.6848087,13.0692564 21.6141199,12.5107971 C22.543431,11.9523378 23.3418533,13.2808601 23.3418533,13.2808601 L25.2419238,13.6211712 C25.2419238,13.6211712 22.3558236,7.38867824 25.8178349,7.15744119 C29.2798463,6.92620414 30.8374242,7.86642271 32.8203909,7.50429677 Z" id="Path" fill="#D6D6D6"></path>
                            <path d="M23.2982237,11.6011192 C23.1171607,9.74467839 19.7598605,9.03569686 19.9845531,10.9815785 C20.2092457,12.9274601 21.8628088,14.7969898 22.6263273,14.7315454 C23.3898459,14.6661009 23.435657,13.0169008 23.2982237,11.6011192 Z" id="Path" fill="#EEA886"></path>
                            <path d="M1.53794454,62.3140224 C2.99953722,65.1041374 5.30754478,69.2075043 7.58501159,73.1887083 C7.28396712,73.7471676 6.99164859,74.3034454 6.71241894,74.8509973 C6.05703406,76.0959107 5.48141747,77.3812115 4.98904846,78.6991309 C4.46985584,80.1519976 3.74778542,83.8779682 5.12866328,84.5694979 L12.4082674,88.587787 C12.4082674,88.587787 12.4584415,88.4438092 12.5544267,88.1820314 C12.7965712,87.527587 13.3179453,86.1292572 14.0421972,84.3186275 C14.0661935,84.2597275 14.1381824,84.0873904 14.2472564,83.8321571 C14.3912342,83.491846 14.6006565,83.0031941 14.838438,82.4469163 L15.1743861,81.6637644 C15.3074565,81.3561755 15.4427084,81.0376791 15.5801417,80.7213643 C15.7764751,80.2588902 15.9749899,79.8007791 16.1582343,79.3753902 C16.6534307,78.2192049 17.030827,77.3204345 17.030827,77.3204345 C17.0548233,77.2658974 17.0788196,77.2135419 17.1049974,77.1611863 C17.3405974,76.6485381 17.5849233,76.1337085 17.8314307,75.6210603 C18.21319,74.8291825 18.6080382,74.0373046 19.0094308,73.2650601 L19.1315938,73.0294601 L19.349742,72.6237045 L19.4849938,72.3771971 L19.5133531,72.3226601 C19.5329864,72.2899379 19.5504383,72.2572156 19.5678901,72.2244934 C21.6730199,68.3872672 24.0421089,65.1761263 24.803446,60.4706705 C24.8754349,60.0169223 24.9452423,59.5631741 25.0215942,59.1159704 C25.1306682,58.3677222 25.2397423,57.6303814 25.3248201,56.908311 C25.3597238,56.6356258 25.392446,56.365122 25.4251683,56.0967998 C25.8047461,52.9554663 26.0316201,50.1588068 26.2126831,48.2085623 C26.7820498,42.1374989 23.0626237,35.5559689 20.2092457,31.502776 C19.2643528,30.1469743 18.2447521,28.8447985 17.1551714,27.6022869 L17.1420826,27.5870165 L16.9871974,27.6459165 L16.7974085,27.7179054 L16.441827,27.8531573 L15.6935788,28.1411129 L15.431801,28.245824 C12.6678638,29.3365648 6.15177816,31.2562686 5.41880034,31.7820057 C4.99559291,32.0852316 4.74472252,34.5284911 3.65180023,38.029769 C1.40269268,45.2395658 0.0676259302,56.1055257 0,58.8192889 C0,58.8629185 0,58.9043667 0,58.9414518 C0,59.2555852 0.591181518,60.5099371 1.53794454,62.3140224 Z M12.5980563,60.9593223 C12.5980563,62.3140224 12.16176,63.8628744 11.4811378,65.5164374 C11.4615044,65.5578856 11.446234,65.5993337 11.4287822,65.6407819 C10.9619451,64.6460263 10.5212858,63.6927188 10.1198932,62.8048558 C10.1198932,62.8048558 10.1198932,62.8048558 10.1198932,62.8048558 C9.02915242,60.3812297 8.29399311,58.4898851 8.25254496,57.7416369 C7.98422272,52.9423774 11.5247674,47.3992326 11.5247674,47.3992326 C11.5247674,47.3992326 11.5247674,47.3992326 11.5247674,47.3992326 L11.5247674,47.3992326 L11.5247674,47.4254104 C11.5247674,47.4428622 11.5356748,47.4603141 11.5400378,47.4777659 L11.5400378,47.5126696 L11.5400378,47.5366659 C12.2991934,50.4096772 12.5980563,60.9593223 12.5980563,60.9593223 Z" id="Shape" fill="#3C4145"></path>
                            <path d="M66.7533375,50.9245069 L50.2722439,54.5130442 L42.4189101,33.9678503 C42.246573,33.8304169 39.9931025,32.6175132 38.5031506,31.9085316 C36.9499356,31.1690094 34.9844207,30.25715 33.2435984,29.4521833 L30.9639501,28.4028907 L30.909413,28.4465203 C30.909413,28.4465203 31.8823538,31.6860205 33.1410687,39.7705914 L33.1410687,39.7705914 C33.1846984,40.0432766 33.2261465,40.3203247 33.2697762,40.6017359 C33.2697762,40.6344581 33.2697762,40.6671803 33.2850465,40.6999025 C33.3126786,40.88751 33.3410379,41.0772989 33.3701243,41.2692693 C33.3701243,41.2910841 33.3701243,41.3150804 33.3810317,41.3368952 C33.3984836,41.4656026 33.4181169,41.59431 33.4377502,41.7273804 C33.4835614,42.0458767 33.531554,42.3818249 33.5795465,42.7025027 C34.1401873,46.6291696 34.9277022,53.3372256 35.6846763,60.0976371 L35.6846763,60.0976371 C36.2845838,65.4269967 37.6480098,70.8959711 38.0843061,74.9775232 L38.0843061,74.9775232 C38.2178153,76.0094073 38.4071547,77.0332967 38.6514913,78.0446864 C38.6820321,78.1821197 38.7147543,78.3195531 38.7474765,78.4591679 C39.9669247,83.609646 42.3338323,90.8936131 42.3338323,90.8936131 L43.0231805,90.2566205 L45.0650473,88.3718203 C45.5349648,87.9387987 45.7133235,87.2737755 45.5231584,86.6637202 C44.3909694,83.0097385 40.5428359,70.0844599 39.8382173,60.9898631 C39.6200691,58.1343036 40.4533951,55.4423553 40.9289581,52.8922033 C40.9289581,52.9140181 40.9442285,52.9358329 40.9529544,52.9598292 C41.35871,54.0854738 41.8080952,55.3114664 42.2618434,56.5047369 L42.2618434,56.5047369 C43.4769286,59.7093334 44.7203732,62.6761484 45.2373843,62.8659373 C46.3892066,63.2891447 68.0905857,57.3576962 68.241108,56.5047369 L66.7533375,50.9245069 Z" id="Path" fill="#3C4145"></path>
                            <path d="M19.0530605,36.4481949 L22.4147236,38.3460839 L20.9793087,39.8120395 L24.8056275,60.4706705 C25.5844164,55.6277813 25.9399979,51.029218 26.2039572,48.2085623 C27.0765498,38.8281913 17.7158122,28.2349166 17.1333566,27.5870165 C16.6817899,27.7571721 16.197501,27.9447795 15.6935788,28.1432944 L19.0530605,36.4481949 Z" id="Path" fill="#51565C"></path>
                            <path d="M30.8439686,28.359261 C30.8439686,28.359261 32.100502,32.4648094 33.5664577,42.7090471 C34.1270984,46.635714 34.9146133,53.34377 35.6715874,60.1041815 L36.4547393,40.7544396 L34.8535318,39.0092543 L36.2780393,37.2291653 L33.223965,29.4456389 L30.9443168,28.3963462 L30.8439686,28.359261 Z" id="Path" fill="#51565C"></path>
                            <path d="M16.9632011,27.6284647 L19.7533161,25.9334535 C19.7533161,25.9334535 19.8318494,27.4604906 26.7340572,31.4591464 L24.7707238,36.9826579 L16.9632011,27.6284647 Z" id="Path" fill="#F5E2D9"></path>
                            <path d="M28.5774092,26.7035165 C28.5774092,26.7035165 28.4683351,28.3548981 26.7406017,31.4591464 L30.5669204,36.4481949 L30.8461501,28.3548981 L28.5774092,26.7035165 Z" id="Path" fill="#F5E2D9"></path>
                            <path d="M26.7275128,31.4591464 C26.7275128,31.4591464 25.985809,34.4259614 26.2519498,35.2571059 C26.2519498,35.2571059 27.883698,35.8504689 29.0551537,35.1087652 C28.4884788,33.7708022 27.7017151,32.537198 26.7275128,31.4591464 Z" id="Path" fill="#323657"></path>
                            <path d="M30.5625575,74.2554528 C30.977039,72.1612304 30.5821908,65.8872893 30.5625575,65.6211486 L30.206976,65.6451449 C30.206976,65.7084078 30.6170945,72.1372341 30.206976,74.1856454 L30.5625575,74.2554528 Z" id="Path" fill="#AD9F99"></path>
                            <path d="M27.656824,73.2977824 C27.656824,73.2977824 31.0053982,73.6969935 32.1114094,73.9740417 L31.9674316,77.7261901 L27.5826536,77.259353 L27.656824,73.2977824 Z" id="Path" fill="#69737A"></path>
                            <path d="M28.3898018,34.8404429 C28.3898018,34.8404429 32.1244983,44.270988 31.5158649,54.824996 C30.8832353,65.7694893 29.8470315,69.7354229 29.8470315,69.7354229 L27.5455684,72.6237045 L26.528998,69.074434 C26.528998,69.074434 29.6201574,55.123859 27.6197388,41.5484989 C27.2597943,39.0877876 26.7231498,34.4259614 26.7231498,34.4259614 L28.3898018,34.8404429 Z" id="Path" fill="#323657"></path>
                            <path d="M17.1704418,79.3732087 C17.1704418,79.3732087 17.9710456,80.9744162 18.7716493,81.2427384 C19.5722531,81.5110607 20.7349828,82.8112237 20.7349828,82.8112237 L15.1002158,85.7824017 C15.1002158,85.7824017 13.5971749,82.8439459 13.5317305,80.9831421 C13.466286,79.1223383 17.1704418,79.3732087 17.1704418,79.3732087 Z" id="Path" fill="#EEA886"></path>
                            <path d="M17.7049048,79.5237309 L18.0801197,80.2785235 C18.0801197,80.2785235 14.4959454,82.8963015 13.525186,83.0620941 L13.1936008,82.060794 L17.7049048,79.5237309 Z" id="Path" fill="#DECBC4"></path>
                            <path d="M18.0801197,79.5564531 C18.0801197,79.5564531 15.3947158,81.7772014 13.1325193,82.8003163 L5.52132998,69.1115191 L9.46544874,61.4894224 C9.46544874,61.4894224 17.9012382,78.2213864 18.0801197,79.5564531 Z" id="Path" fill="#3C4145"></path>
                            <path d="M40.942047,52.9750996 C41.3478026,54.1007441 41.7971878,55.3267368 42.250936,56.5200072 C42.3502436,55.2347591 42.3844639,53.9453096 42.3534656,52.6566033 C42.1724026,45.5558806 39.9385655,41.8320915 39.9385655,41.8320915 C40.4512136,43.0689916 40.6955396,45.7238547 40.8111581,48.125666 C40.9355026,50.6561847 40.9180507,52.9052922 40.9180507,52.9052922 L40.9180507,52.9052922 L40.942047,52.9750996 Z" id="Path" fill="#2D3133"></path>
                            <path d="M6.71023746,74.8509973 L12.8031156,82.2091348 L7.58501159,73.1887083 C7.28396712,73.7471676 6.99164859,74.3034454 6.71023746,74.8509973 Z" id="Path" fill="#2D3133"></path>
                            <path d="M50.9550476,65.6255115 L65.0212411,65.6255115 C65.9855631,65.6255115 66.8247091,64.9657713 67.0522005,64.028667 L73.160349,38.8020135 C73.3116032,38.1796418 73.1688011,37.5222812 72.7729625,37.0187574 C72.3771238,36.5152336 71.7720588,36.2213208 71.1315711,36.2213208 L57.0653776,36.2213208 C56.1010557,36.2213208 55.2619097,36.881061 55.0344183,37.8181653 L48.9262697,63.0448188 C48.7750156,63.6671905 48.9178177,64.3245511 49.3136563,64.8280749 C49.7094949,65.3315987 50.31456,65.6255115 50.9550476,65.6255115 L50.9550476,65.6255115 Z" id="Path" fill="#D9C9C2"></path>
                            <path d="M68.1603932,58.6120481 C67.471045,57.9750555 66.1447041,57.6063851 65.0081522,56.845048 C63.8716003,56.0837109 64.8205448,55.3027405 64.8205448,55.3027405 C63.6512707,54.9013479 63.7777966,54.3690664 63.9261373,54.0047589 C64.1290151,53.5139256 65.4051819,53.6535404 65.4051819,53.6535404 C64.8574622,53.5361132 64.3181703,53.3823421 63.7908855,53.1932478 C63.3196854,52.9750996 63.4789336,52.1635885 64.2031855,51.9039921 C64.9274374,51.6443958 67.8768005,52.3730107 67.8768005,52.3730107 C67.8768005,52.3730107 67.3968746,52.1374107 65.9418264,51.4066143 C64.4867781,50.675818 64.1661003,50.0126476 65.0256041,49.6941513 C65.6211486,49.4760031 66.7926042,49.9362957 69.0417117,51.4393366 C70.7367229,52.57807 70.5971081,52.7264107 70.5971081,52.7264107 C70.5971081,52.7264107 68.9828117,59.3733852 68.1603932,58.6120481 Z" id="Path" fill="#EEA886"></path>
                        </g>
                        <g id="Asset-2" transform="translate(166.765404, 205.155006)" fill-rule="nonzero">
                            <path d="M12.1649545,66.1417751 C12.1649545,66.1417751 10.351302,66.831137 8.95735564,66.9681396 C7.5634093,67.1051421 5.5431657,68.5621531 5.02777525,69.1949743 C4.51238479,69.8277955 0.295751485,74.3575774 0.217464327,74.9360325 C0.139177169,75.5144876 1.30478596,75.3209444 1.68099925,74.8620946 C2.05721254,74.4032449 5.74758217,70.7585428 5.74758217,70.7585428 C5.74758217,70.7585428 1.62445852,75.353564 1.65055424,75.8950502 C1.67664996,76.4365364 2.30294723,76.8932115 3.06189773,76.4169646 C3.06189773,76.4169646 3.6686232,77.6652098 4.74289698,76.5844121 L6.89144453,74.4380392 C6.89144453,74.4380392 5.98244364,75.7428252 7.1763228,75.3709612 C7.81131863,75.170894 9.93811975,72.4656378 10.5317974,72.0655034 C11.125475,71.665369 13.4045011,68.196813 13.4045011,68.196813 L12.1649545,66.1417751 Z" id="Path" fill="#EEA886"></path>
                            <path d="M26.835098,155.167321 C26.835098,155.167321 25.2650055,158.307506 24.3125118,158.925105 C23.360018,159.542704 18.032142,164.731403 16.9382964,165.205475 C15.8444509,165.679547 12.3237034,166.347162 12.3715456,168.012939 C12.4193877,169.678716 21.4593798,169.154627 23.2186662,168.537028 C24.9779526,167.91943 27.9289435,163.922435 29.1184734,163.970277 C30.3080033,164.01812 29.8795986,168.869749 29.8795986,168.869749 L31.1648127,168.869749 C31.1648127,168.869749 32.7805727,163.731067 32.7349052,161.923938 C32.6892377,160.116809 31.6867271,155.167321 31.6867271,155.167321 L26.835098,155.167321 Z" id="Path" fill="#162D40"></path>
                            <path d="M48.8685836,153.216666 C48.8685836,153.216666 48.1792217,156.326406 47.0440579,157.411553 C45.9088941,158.4967 41.6531172,163.085198 40.5723195,163.578842 C39.4915218,164.072486 37.4212614,164.418254 36.7797417,165.207649 C36.1382219,165.997045 36.5209591,168.317389 40.5723195,168.06948 C44.6236799,167.821571 45.9458631,167.852016 46.9070554,167.045223 C47.8682477,166.23843 50.9779876,163.417918 51.9087349,163.348329 L51.9087349,167.828095 L53.017803,167.828095 C53.017803,167.828095 54.9749819,161.94351 54.2769214,159.464417 C53.5788609,156.985323 53.6114806,153.616801 53.6114806,153.616801 L48.8685836,153.216666 Z" id="Path" fill="#162D40"></path>
                            <path d="M47.2593476,20.0697828 C47.2593476,20.0697828 49.1077944,24.8279022 47.6703552,28.505224 C47.6703552,28.505224 54.4465436,28.0702954 54.7031515,27.3069956 C54.9597594,26.5436958 54.4313211,19.4065166 55.3555445,17.3036365 C56.2797679,15.2007565 47.2593476,20.0697828 47.2593476,20.0697828 Z" id="Path" fill="#EEA886"></path>
                            <path d="M59.5308596,83.8781657 C59.5308596,83.8781657 59.1372491,84.9176451 59.1959645,85.6831196 C59.2438067,86.289845 58.906737,87.283657 58.778433,87.8207939 C58.6501291,88.3579308 58.3435044,90.7239427 58.4217915,91.3002231 C58.4522365,91.5394339 59.2242349,92.9159831 59.2329334,93.4096271 C59.241632,93.9032711 59.1350745,94.903607 59.5656539,94.8753367 C59.9962332,94.8470663 60.3376522,93.9706851 60.3376522,93.9706851 C60.3548042,94.2184093 60.5196534,94.4313395 60.7551837,94.5099966 C61.5010864,94.6861427 61.8164097,94.3208026 61.8164097,94.3208026 C61.8164097,94.3208026 62.1534794,94.7557313 62.4840251,94.7448581 C63.2125306,94.7448581 63.5082821,94.3729941 63.5082821,94.3729941 C63.7688288,94.5007316 64.066128,94.53231 64.3476944,94.4621545 C64.7225786,94.3635479 65.0206295,94.0794553 65.1370899,93.7097279 C65.1370899,93.7097279 65.9525812,93.7097279 66.1156794,93.2747992 C66.2787777,92.8398706 66.1722201,92.4571334 66.2091891,92.0983172 C66.246158,91.7395011 65.6481311,88.6819526 64.2520101,86.692154 C62.8558891,84.7023555 63.5561243,82.199341 63.5561243,82.199341 L59.5308596,83.8781657 Z" id="Path" fill="#EEA886"></path>
                            <path d="M57.4105824,100.58595 L56.5624715,94.7927002 C56.4291183,93.8593542 57.0757443,92.9939451 58.0086093,92.8572677 L67.1964771,91.5242114 C68.1306053,91.3895479 68.9974362,92.0365092 69.1340843,92.9703492 L69.9734966,98.7635989 C70.106908,99.6974082 69.4605369,100.563448 68.5273588,100.701206 L59.3416656,102.032088 C58.409565,102.164075 57.5462067,101.517528 57.4105824,100.58595 Z M58.1825807,93.9924315 C57.8753444,94.0372483 57.6623233,94.3222491 57.7063339,94.629602 L58.5457462,100.420677 C58.5667242,100.568496 58.6457533,100.701857 58.76534,100.791241 C58.8849266,100.880625 59.0352073,100.918659 59.1829167,100.896924 L68.3686098,99.5660422 C68.6758461,99.5212254 68.8888673,99.2362246 68.8448567,98.9288717 L68.0054444,93.1356221 C67.9595242,92.829044 67.6753079,92.6166093 67.3682739,92.6593752 L58.1825807,93.9924315 Z" id="Shape" fill="#0E1E2B"></path>
                            <rect id="Rectangle" fill="#EDDAD3" transform="translate(65.943415, 110.484002) rotate(171.950938) translate(-65.943415, -110.484002) " x="48.8130581" y="98.0110321" width="34.2607138" height="24.9459395"></rect>
                            <path d="M60.1767286,93.7140772 C60.1767286,93.7140772 59.6352425,90.9740266 60.2463172,90.2346479 C60.857392,89.4952692 61.1161745,90.4716841 61.1161745,90.4716841 C61.1161745,90.4716841 60.850868,89.5083171 61.6032946,89.2082163 C62.3557212,88.9081155 62.5905827,90.0780736 62.5905827,90.0780736 C62.5910173,89.8585191 62.6806729,89.6485712 62.8389669,89.4964286 C62.9972608,89.344286 63.2105956,89.2630177 63.429995,89.271281 C64.2715819,89.2517092 64.2433115,90.2607437 64.2433115,90.2607437 C64.2433115,90.2607437 64.8587356,89.1451517 65.5198271,89.9454204 C66.6267206,91.2915246 66.1091555,93.2921964 66.1091555,93.2921964 C66.1091555,93.2921964 65.9395333,93.7597447 65.130566,93.727125 C65.130566,93.727125 64.7934963,94.9079563 63.5017582,94.3903912 C63.5017582,94.3903912 62.4274844,95.3146146 61.8098857,94.3381998 C61.8164097,94.3273266 60.6160066,95.2493753 60.1767286,93.7140772 Z" id="Path" fill="#DB9C7C"></path>
                            <path d="M46.60478,26.895988 C46.60478,26.895988 42.6012617,28.2812358 40.7919585,28.6661476 C38.9826553,29.0510595 35.1966014,30.797298 35.5054007,37.3647207 C35.8142001,43.9321434 36.9428399,49.6318834 37.3538475,52.4545704 C37.7648551,55.2772573 37.5082472,62.4579294 36.8406317,65.9547558 C36.8406317,65.9547558 46.4395071,68.3164184 57.7302549,65.9547558 C57.7302549,65.9547558 55.7295831,60.0005825 55.773076,58.4609351 C55.8165689,56.9212877 62.4470562,44.2431174 62.7558555,42.2402709 C63.0646549,40.2374245 64.3977112,31.4105474 61.3684331,29.4598924 C58.3391551,27.5092374 55.8774589,27.7658453 54.5944193,26.8938133 C53.3113798,26.0217814 48.4793225,26.2696907 46.60478,26.895988 Z" id="Path" fill="#EB4747"></path>
                            <path d="M41.4639233,28.5050837 C41.4639233,28.5050837 37.0450481,28.383444 33.9135618,35.3140321 C30.7820755,42.2446202 30.0144264,46.2981553 29.2946195,47.2745701 C28.5748126,48.2509849 26.060925,52.0587853 23.5970541,53.8941842 C21.1331833,55.7295831 10.8732164,66.1526483 10.8732164,66.1526483 L13.7002526,69.7560322 C13.7002526,69.7560322 28.4878269,59.2851249 30.023125,57.4888695 C31.5584232,55.6926142 40.9137385,42.0902205 41.4726218,40.0351826 C42.0315052,37.9801447 46.3459974,30.6276758 41.4639233,28.5050837 Z" id="Path" fill="#EB4747"></path>
                            <path d="M67.9706501,62.929827 C67.9989205,65.7003225 65.1218674,84.6153697 65.1218674,84.6153697 L59.6852592,84.8458819 C59.6852592,84.8458819 61.4249739,66.0852344 62.0447472,61.7750914 C62.2274172,60.5029251 62.0730176,58.5239997 61.7663929,56.3711029 L61.7663929,56.3711029 C61.5728496,55.0032523 61.3140671,53.5636384 61.0422367,52.1849146 C60.2919847,48.3858128 59.4264767,45.0694818 59.4264767,45.0694818 C59.4264767,45.0694818 54.5248308,28.9205809 62.0577951,30.1035868 C63.8271129,32.4403866 65.0098843,35.1676219 65.5067793,38.0562573 C66.3548902,42.9057118 67.2008264,50.1429246 67.0464267,52.9917073 C66.8920271,55.8404899 67.9510783,60.8900116 67.9706501,62.929827 Z" id="Path" fill="#EB4747"></path>
                            <path d="M36.8406317,65.9569304 C36.8406317,65.9569304 35.1009171,70.0887527 34.9399935,71.1260575 C34.7790699,72.1633623 29.316366,85.7896771 28.9358034,89.7736236 C28.5508915,93.8032375 27.3961559,104.561198 26.9786244,106.096496 C26.5610929,107.631794 27.9028478,114.51454 28.1072643,116.054188 C28.3116808,117.593835 28.2094725,142.745759 26.3675497,155.167321 C26.3675497,155.167321 30.6776926,157.015768 33.9635786,155.167321 C33.9635786,155.167321 39.4001868,135.765154 39.0957367,124.57444 C38.7912867,113.383726 37.36907,108.662575 39.0957367,104.145841 C40.8224035,99.6291069 50.9953847,86.0789046 52.0218164,84.6414654 C53.048248,83.2040262 59.4808428,75.262229 53.389667,66.6571656 C47.2984912,58.0521022 36.8406317,65.9569304 36.8406317,65.9569304 Z" id="Path" fill="#1D3B54"></path>
                            <path d="M57.8563843,102.708402 C57.3170727,106.303087 57.8846546,111.024238 59.0132945,124.165607 C60.1419343,137.306976 57.0387184,153.216666 57.0387184,153.216666 C53.1374084,154.551897 48.64677,153.216666 48.64677,153.216666 C48.7489782,152.292443 48.64677,121.186346 48.64677,118.422374 C48.64677,115.658402 47.8508506,112.50517 47.6442595,109.323667 C47.5050823,107.149023 46.4960478,103.156378 45.360884,99.0767475 C45.0216397,97.854598 44.6693475,96.6259245 44.3279285,95.43422 L44.3279285,95.43422 L43.7646959,93.4770411 C42.166333,87.9251768 40.0134362,66.5201631 40.0134362,66.5201631 C40.0134362,66.5201631 51.9283067,56.9234623 57.7280803,65.9569304 C63.5278539,74.9903986 60.5551166,81.5621706 60.3376522,82.6908104 C60.1201879,83.8194503 58.3978704,99.1158911 57.8563843,102.708402 Z" id="Path" fill="#1D3B54"></path>
                            <path d="M35.9098844,49.146938 C35.9098844,49.146938 36.7123277,65.3110614 32.8653838,74.6272332 C32.8653838,74.6272332 45.5674751,78.8634383 61.9686347,74.6272332 C61.9686347,74.6272332 58.4522365,63.0407338 58.7349401,61.2683996 C59.0176438,59.4960653 65.1523124,39.069641 63.2647221,34.2636794 C61.3771317,29.4577178 37.801824,33.9874997 35.9098844,49.146938 Z" id="Path" fill="#EB4747"></path>
                            <path d="M51.0584494,1.33305633 C48.1987935,1.01120912 40.7919585,1.58966423 41.3573658,12.7281871 C41.922773,23.8667099 45.9763081,23.2012691 50.0320178,22.0204378 C54.0877275,20.8396065 58.9110862,12.2149713 58.9110862,9.9055001 C58.9110862,7.59602895 59.2198856,2.25727972 51.0584494,1.33305633 Z" id="Path" fill="#EEA886"></path>
                            <path d="M41.7683733,7.6286486 C41.7683733,7.6286486 44.98902,11.7430737 48.2292385,12.7216631 C48.2292385,12.7216631 50.7235543,17.1796819 55.0750155,18.3170203 C55.0750155,18.3170203 64.3520437,9.44447573 56.5515983,2.77049553 C48.7511529,-3.90348467 41.7161819,4.22315723 41.7683733,7.6286486 Z" id="Path" fill="#FCCCA2"></path>
                            <path d="M47.6246877,11.1885396 C47.7312452,10.5796395 49.0838733,9.3422675 50.1233528,10.7275153 C51.1628323,12.112763 49.2665433,15.3464576 48.5467364,15.3464576 C47.8269295,15.3464576 47.2093308,13.4980108 47.6246877,11.1885396 Z" id="Path" fill="#EEA886"></path>
                            <path d="M57.8585589,4.7842152 C58.0890711,4.43192299 65.1218674,1.26346774 66.5854024,7.88525651 C68.0489373,14.5070453 60.9313298,22.2052825 59.6722114,25.5172642 C58.4130929,28.8292459 59.6722114,36.6797081 59.6722114,36.6797081 C59.6722114,36.6797081 55.9492221,32.6413955 54.6509601,28.5117479 C53.2265687,23.9710928 52.7481472,12.5346438 57.8585589,4.7842152 Z" id="Path" fill="#FCCCA2"></path>
                            <path d="M52.9177694,83.4040934 C52.8242597,83.6085099 46.8896582,96.7846735 45.360884,99.061525 C45.0216397,97.8393755 44.6693475,96.610702 44.3279285,95.4189975 L44.3279285,95.4189975 C44.3279285,95.4189975 52.7198768,83.693321 52.9177694,83.4040934 Z" id="Path" fill="#162D40"></path>
                            <path d="M63.0059395,42.916585 C63.0059395,42.916585 62.8189202,51.2976601 61.7642182,56.3689283 C61.570675,55.0010776 61.3118924,53.5614638 61.040062,52.18274 C61.0835549,51.993546 62.7993484,44.2278949 63.0059395,42.916585 Z" id="Path" fill="#AB3434"></path>
                        </g>
                    </g>
                </g>
            </g>
            <path d="M-60,0 L403.736456,0 C270.953629,17.8029775 192.453446,31.7759789 168.235908,41.9190041 C139.934075,53.772653 125.728939,76.2244997 120.818664,87.1181117 C104.389972,123.565718 143.499953,179.681873 180.452406,219.827487 C204.77101,246.247527 296.841206,256.131018 296.841206,270.310993 C296.841206,328.096408 341.894137,408.405722 432,511.238933 L-60,512 L-60,0 Z" id="Rectangle" fill="#F6F6F6" opacity="0.978538876" filter="url(#filter-6)" mask="url(#mask-2)"></path>
        </g>
    </g>
</svg>