<?xml version="1.0" encoding="UTF-8"?>
<svg width="294px" height="261px" viewBox="0 0 294 261" version="1.1" xmlns="http://www.w3.org/2000/svg" xmlns:xlink="http://www.w3.org/1999/xlink">
    <!-- Generator: Sketch 63.1 (92452) - https://sketch.com -->
    <title>ux_ui</title>
    <desc>Created with Sketch.</desc>
    <defs>
        <filter x="-12.7%" y="-7.5%" width="125.4%" height="115.0%" filterUnits="objectBoundingBox" id="filter-1">
            <feOffset dx="0" dy="1" in="SourceAlpha" result="shadowOffsetOuter1"></feOffset>
            <feGaussianBlur stdDeviation="1.5" in="shadowOffsetOuter1" result="shadowBlurOuter1"></feGaussianBlur>
            <feColorMatrix values="0 0 0 0 0   0 0 0 0 0   0 0 0 0 0  0 0 0 0.107107736 0" type="matrix" in="shadowBlurOuter1" result="shadowMatrixOuter1"></feColorMatrix>
            <feMerge>
                <feMergeNode in="shadowMatrixOuter1"></feMergeNode>
                <feMergeNode in="SourceGraphic"></feMergeNode>
            </feMerge>
        </filter>
        <polygon id="path-2" points="0 0 0 80.9952078 31.293603 80.9952078 62.587206 80.9952078 62.587206 0"></polygon>
        <filter x="-4.9%" y="-5.6%" width="109.8%" height="111.3%" filterUnits="objectBoundingBox" id="filter-4">
            <feOffset dx="0" dy="2" in="SourceAlpha" result="shadowOffsetOuter1"></feOffset>
            <feGaussianBlur stdDeviation="1.5" in="shadowOffsetOuter1" result="shadowBlurOuter1"></feGaussianBlur>
            <feColorMatrix values="0 0 0 0 0   0 0 0 0 0   0 0 0 0 0  0 0 0 0.144176136 0" type="matrix" in="shadowBlurOuter1" result="shadowMatrixOuter1"></feColorMatrix>
            <feMerge>
                <feMergeNode in="shadowMatrixOuter1"></feMergeNode>
                <feMergeNode in="SourceGraphic"></feMergeNode>
            </feMerge>
        </filter>
    </defs>
    <g id="Page-1" stroke="none" stroke-width="1" fill="none" fill-rule="evenodd">
        <g id="ui_ux" transform="translate(-515.000000, -243.000000)">
            <g id="ux_ui" transform="translate(515.000000, 243.000000)">
                <path d="M256.09529,54.3006255 C285.169679,87.7780015 300.810142,134.983044 291.140312,176.036538 C281.470482,217.090032 246.490358,252.056731 210.666558,259.438589 C174.777859,266.820448 137.980586,246.617466 100.274738,228.421833 C62.6337882,210.226199 24.0193657,194.102666 8.31400392,162.179365 C-7.45625603,130.320818 -0.31745523,82.662503 25.7067186,49.8326585 C51.7957906,17.0028139 96.7702357,-0.933807317 140.576513,0.03748986 C184.382791,0.944033892 226.956003,20.8232494 256.09529,54.3006255 Z" id="Path" fill="#EFEFFF" fill-rule="nonzero" transform="translate(147.000000, 130.500000) rotate(-180.000000) translate(-147.000000, -130.500000) "></path>
                <g id="museum" filter="url(#filter-1)" transform="translate(215.000000, 130.000000)">
                    <path d="M31.293603,92.0400089 L0,92.0400089 L0,95.7216092 C0,101.79625 4.97016048,106.76641 11.0448011,106.76641 L31.293603,106.76641 L51.542405,106.76641 C57.6170455,106.76641 62.587206,101.79625 62.587206,95.7216092 L62.587206,92.0400089 L31.293603,92.0400089 Z" id="Path" fill="#FF4D53" fill-rule="nonzero"></path>
                    <g id="Group-3" transform="translate(0.000000, 11.044801)">
                        <mask id="mask-3" fill="white">
                            <use xlink:href="#path-2"></use>
                        </mask>
                        <use id="Path" fill="#FFFFFF" fill-rule="nonzero" xlink:href="#path-2"></use>
                        <path d="M14,73.9551989 L55,73.9551989 C57.209139,73.9551989 59,75.7460599 59,77.9551989 C59,80.1643379 57.209139,81.9551989 55,81.9551989 L14,81.9551989 C11.790861,81.9551989 10,80.1643379 10,77.9551989 C10,75.7460599 11.790861,73.9551989 14,73.9551989 Z" id="Rectangle" fill="#F4F4F4" mask="url(#mask-3)"></path>
                        <path d="M14,51.9551989 L55,51.9551989 C57.209139,51.9551989 59,53.7460599 59,55.9551989 C59,58.1643379 57.209139,59.9551989 55,59.9551989 L14,59.9551989 C11.790861,59.9551989 10,58.1643379 10,55.9551989 C10,53.7460599 11.790861,51.9551989 14,51.9551989 Z" id="Rectangle" fill="#F4F4F4" mask="url(#mask-3)"></path>
                        <path d="M14,62.9551989 L55,62.9551989 C57.209139,62.9551989 59,64.7460599 59,66.9551989 C59,69.1643379 57.209139,70.9551989 55,70.9551989 L14,70.9551989 C11.790861,70.9551989 10,69.1643379 10,66.9551989 C10,64.7460599 11.790861,62.9551989 14,62.9551989 Z" id="Rectangle" fill="#F4F4F4" mask="url(#mask-3)"></path>
                        <rect id="Rectangle" fill="#F3F3F3" mask="url(#mask-3)" x="17" y="4.95519894" width="11" height="10" rx="1"></rect>
                        <rect id="Rectangle" fill="#F3F3F3" mask="url(#mask-3)" x="32" y="4.95519894" width="11" height="10" rx="1"></rect>
                        <rect id="Rectangle" fill="#F3F3F3" mask="url(#mask-3)" x="47" y="4.95519894" width="11" height="10" rx="1"></rect>
                        <rect id="Rectangle" fill="#6D6D8A" mask="url(#mask-3)" x="5" y="18.9551989" width="54" height="30" rx="1"></rect>
                    </g>
                    <path d="M31.293603,95.7216092 C33.3184832,95.7216092 34.9752034,97.3783294 34.9752034,99.4032096 C34.9752034,101.446498 33.3184832,103.08481 31.293603,103.08481 C29.2687228,103.08481 27.6120027,101.446498 27.6120027,99.4032096 C27.6120027,97.3783294 29.2687228,95.7216092 31.293603,95.7216092 Z" id="Path" fill="#D5262C" fill-rule="nonzero"></path>
                    <path d="M9.20400089,0 L53.3832051,0 C58.4638136,0 62.587206,4.1233924 62.587206,9.20400089 L62.587206,11.0448011 L0,11.0448011 L0,9.20400089 C0,4.1233924 4.1233924,0 9.20400089,0 Z" id="Path" fill="#FF4D53" fill-rule="nonzero"></path>
                    <path d="M25.8264265,7.36320071 C24.808464,7.36320071 23.9764223,6.54036303 23.9764223,5.52240053 C23.9764223,4.50443803 24.790056,3.68160035 25.8061777,3.68160035 L25.8264265,3.68160035 C26.8425482,3.68160035 27.6672267,4.50443803 27.6672267,5.52240053 C27.6672267,6.54036303 26.8425482,7.36320071 25.8264265,7.36320071 Z" id="Path" fill="#D5262C" fill-rule="nonzero"></path>
                    <path d="M36.8160035,7.36320071 L31.293603,7.36320071 C30.2756405,7.36320071 29.4528028,6.54036303 29.4528028,5.52240053 C29.4528028,4.50443803 30.2756405,3.68160035 31.293603,3.68160035 L36.8160035,3.68160035 C37.833966,3.68160035 38.6568037,4.50443803 38.6568037,5.52240053 C38.6568037,6.54036303 37.833966,7.36320071 36.8160035,7.36320071 Z" id="Path" fill="#D5262C" fill-rule="nonzero"></path>
                </g>
                <g id="imac" filter="url(#filter-4)" transform="translate(14.000000, 61.000000)">
                    <path d="M78.2840012,163.966402 C77.9372012,166.823602 76.3712011,169.803203 73.9892011,171.418803 L70.072401,174.075603 C75.6868011,174.075603 126.388802,174.075603 134.727202,174.075603 L130.810402,171.418803 C128.428402,169.803203 126.862002,166.823602 126.515602,163.966002 L124.612802,147.868402 L80.1868012,147.868402 L78.2840012,163.966402 Z" id="Path" fill="#FF3A41" fill-rule="nonzero"></path>
                    <path d="M193.152003,148.280402 L11.6480002,148.280402 C5.24160008,148.280402 0,143.038802 0,136.632402 L0,11.8636002 C0,5.45720008 5.24160008,0.215600003 11.6480002,0.215600003 L193.152003,0.215600003 C199.558403,0.215600003 204.800003,5.45720008 204.800003,11.8636002 L204.800003,136.632402 C204.800003,143.038802 199.558403,148.280402 193.152003,148.280402 Z" id="Path" fill="#FF4D53" fill-rule="nonzero"></path>
                    <path d="M193.152003,0.215600003 L11.6480002,0.215600003 C5.24160008,0.215600003 0,5.45720008 0,11.8636002 L0,124.756002 L204.800003,124.756002 L204.800003,11.8636002 C204.800003,5.45720008 199.558403,0.215600003 193.152003,0.215600003 Z" id="Path" fill="#FF4D53" fill-rule="nonzero"></path>
                    <path d="M191.038003,113.000002 L13.7620002,113.000002 C12.6644002,113.000002 11.7744002,112.110002 11.7744002,111.012402 L11.7744002,13.8948002 C11.7744002,12.7968002 12.6644002,11.9072002 13.7620002,11.9072002 L191.038003,11.9072002 C192.135603,11.9072002 193.025603,12.7972002 193.025603,13.8948002 L193.025603,111.012002 C193.025603,112.110002 192.136003,113.000002 191.038003,113.000002 Z" id="Path" fill="#FAFAFF" fill-rule="nonzero"></path>
                    <rect id="Rectangle" fill="#FFBFC0" x="153" y="107" width="61" height="45" rx="1.5999999"></rect>
                    <g id="cursor-(1)" transform="translate(184.000000, 135.000000)" fill="#6D6D8A" fill-rule="nonzero">
                        <path d="M27.7437223,25.87439 L1.49448398,0.249435242 C1.2442139,0.0051173139 0.868029501,-0.0666325594 0.54073431,0.0649355676 C0.213439119,0.196503695 0,0.509128143 0,0.854184174 L0,38.4374244 C0,38.7978555 0.232715904,39.1207299 0.581010485,39.242048 C0.927500432,39.3650478 1.31771177,39.257423 1.5522323,38.9789919 L8.54150216,30.6406316 L13.2050895,40.5045575 C13.3520852,40.8155003 13.6687987,41 13.9995391,41 C14.1150358,41 14.232255,40.9778184 14.3443064,40.9299318 L20.4691561,38.3674363 C20.6861224,38.2768681 20.8576448,38.1043801 20.9416424,37.8891305 C21.0256399,37.6738809 21.0186675,37.4346879 20.9189204,37.2245633 L16.2413061,27.3333308 L27.1242403,27.3333308 C27.4777027,27.3333308 27.7979434,27.1248878 27.9327169,26.8054567 C28.0692129,26.4859456 27.9939924,26.1203896 27.7437223,25.87439 Z" id="Path"></path>
                    </g>
                    <g id="Group-2" transform="translate(106.000000, 21.000000)">
                        <rect id="Rectangle" fill="#F3F3F3" x="42" y="0" width="11" height="10" rx="1"></rect>
                        <rect id="Rectangle" fill="#F4F4F4" x="17" y="64" width="28" height="8" rx="4"></rect>
                        <rect id="Rectangle" fill="#F4F4F4" x="55" y="64" width="28" height="8" rx="4"></rect>
                        <rect id="Rectangle" fill="#F4F4F4" x="17" y="75" width="28" height="8" rx="4"></rect>
                        <rect id="Rectangle" fill="#F4F4F4" x="55" y="75" width="28" height="8" rx="4"></rect>
                        <rect id="Rectangle" fill="#F3F3F3" x="57" y="0" width="11" height="10" rx="1"></rect>
                        <rect id="Rectangle" fill="#F3F3F3" x="72" y="0" width="11" height="10" rx="1"></rect>
                        <rect id="Rectangle" fill="#6D6D8A" x="0" y="15" width="83" height="42" rx="1"></rect>
                    </g>
                    <g id="Group" transform="translate(19.000000, 28.000000)">
                        <path d="M5.59999967,5.59999967 L75.1999955,5.59999967 L75.1999955,61.5999997 L5.59999967,61.5999997 L5.59999967,5.59999967 Z" id="Rectangle" stroke="#787897" stroke-width="4.79999971" stroke-linecap="round" stroke-linejoin="round" stroke-dasharray="7.8"></path>
                        <rect id="Rectangle" fill="#6D6D8A" x="66.399996" y="0" width="13.5999992" height="11.9999993" rx="0.799999952"></rect>
                        <rect id="Rectangle" fill="#6D6D8A" x="66.399996" y="55.1999967" width="13.5999992" height="11.9999993" rx="0.799999952"></rect>
                        <rect id="Rectangle" fill="#6D6D8A" x="0" y="0" width="13.5999992" height="11.9999993" rx="0.799999952"></rect>
                        <rect id="Rectangle" fill="#6D6D8A" x="0" y="55.1999967" width="13.5999992" height="11.9999993" rx="0.799999952"></rect>
                        <rect id="Rectangle" fill="#FFBFC0" x="14.3999991" y="14.3999991" width="51.9999969" height="38.3999977" rx="1.5999999"></rect>
                    </g>
                    <path d="M140.510802,173.663203 C118.836002,173.663203 86.0824013,173.663203 64.289201,173.663203 C61.0560009,173.663203 58.4112009,176.308403 58.4112009,179.541203 L58.4112009,179.541203 C58.4112009,182.774003 61.0564009,185.419203 64.289201,185.419203 C86.3956013,185.419203 118.932002,185.419203 140.510802,185.419203 C143.743602,185.419203 146.388802,182.774003 146.388802,179.541203 L146.388802,179.541203 C146.388802,176.308403 143.743602,173.663203 140.510802,173.663203 Z" id="Path" fill="#FF545A" fill-rule="nonzero"></path>
                    <circle id="Oval" fill="#FF7463" fill-rule="nonzero" cx="102.400002" cy="136.504002" r="3.11280005"></circle>
                </g>
            </g>
        </g>
    </g>
</svg>