<?xml version="1.0" encoding="UTF-8"?>
<svg width="294px" height="263px" viewBox="0 0 294 263" version="1.1" xmlns="http://www.w3.org/2000/svg" xmlns:xlink="http://www.w3.org/1999/xlink">
    <!-- Generator: Sketch 63.1 (92452) - https://sketch.com -->
    <title>web_app_development</title>
    <desc>Created with Sketch.</desc>
    <defs>
        <filter x="-10.5%" y="-11.6%" width="121.0%" height="123.1%" filterUnits="objectBoundingBox" id="filter-1">
            <feOffset dx="0" dy="2" in="SourceAlpha" result="shadowOffsetOuter1"></feOffset>
            <feGaussianBlur stdDeviation="4.5" in="shadowOffsetOuter1" result="shadowBlurOuter1"></feGaussianBlur>
            <feColorMatrix values="0 0 0 0 0   0 0 0 0 0   0 0 0 0 0  0 0 0 0.166903409 0" type="matrix" in="shadowBlurOuter1" result="shadowMatrixOuter1"></feColorMatrix>
            <feMerge>
                <feMergeNode in="shadowMatrixOuter1"></feMergeNode>
                <feMergeNode in="SourceGraphic"></feMergeNode>
            </feMerge>
        </filter>
    </defs>
    <g id="Page-1" stroke="none" stroke-width="1" fill="none" fill-rule="evenodd">
        <g id="web_app" transform="translate(-502.000000, -233.000000)" fill-rule="nonzero">
            <g id="web_app_development" transform="translate(502.000000, 233.000000)">
                <path d="M256.09529,54.3006255 C285.169679,87.7780015 300.810142,134.983044 291.140312,176.036538 C281.470482,217.090032 246.490358,252.056731 210.666558,259.438589 C174.777859,266.820448 137.980586,246.617466 100.274738,228.421833 C62.6337882,210.226199 24.0193657,194.102666 8.31400392,162.179365 C-7.45625603,130.320818 -0.31745523,82.662503 25.7067186,49.8326585 C51.7957906,17.0028139 96.7702357,-0.933807317 140.576513,0.03748986 C184.382791,0.944033892 226.956003,20.8232494 256.09529,54.3006255 Z" id="Path" fill="#EFEFFF" transform="translate(147.000000, 130.500000) rotate(-180.000000) translate(-147.000000, -130.500000) "></path>
                <g id="imac" filter="url(#filter-1)" transform="translate(22.000000, 66.000000)">
                    <path d="M78.2840012,163.966402 C77.9372012,166.823602 76.3712011,169.803203 73.9892011,171.418803 L70.072401,174.075603 C75.6868011,174.075603 126.388802,174.075603 134.727202,174.075603 L130.810402,171.418803 C128.428402,169.803203 126.862002,166.823602 126.515602,163.966002 L124.612802,147.868402 L80.1868012,147.868402 L78.2840012,163.966402 Z" id="Path" fill="#FF3A41"></path>
                    <path d="M193.152003,148.280402 L11.6480002,148.280402 C5.24160008,148.280402 0,143.038802 0,136.632402 L0,11.8636002 C0,5.45720008 5.24160008,0.215600003 11.6480002,0.215600003 L193.152003,0.215600003 C199.558403,0.215600003 204.800003,5.45720008 204.800003,11.8636002 L204.800003,136.632402 C204.800003,143.038802 199.558403,148.280402 193.152003,148.280402 Z" id="Path" fill="#FF4D53"></path>
                    <path d="M193.152003,0.215600003 L11.6480002,0.215600003 C5.24160008,0.215600003 0,5.45720008 0,11.8636002 L0,124.756002 L204.800003,124.756002 L204.800003,11.8636002 C204.800003,5.45720008 199.558403,0.215600003 193.152003,0.215600003 Z" id="Path" fill="#FF4D53"></path>
                    <path d="M191.038003,113.000002 L13.7620002,113.000002 C12.6644002,113.000002 11.7744002,112.110002 11.7744002,111.012402 L11.7744002,13.8948002 C11.7744002,12.7968002 12.6644002,11.9072002 13.7620002,11.9072002 L191.038003,11.9072002 C192.135603,11.9072002 193.025603,12.7972002 193.025603,13.8948002 L193.025603,111.012002 C193.025603,112.110002 192.136003,113.000002 191.038003,113.000002 Z" id="Path" fill="#FAFAFF"></path>
                    <g id="Group-2" transform="translate(21.710156, 24.235220)" fill="#FFBFC0">
                        <path d="M12.6804687,25.3616567 C11.9132815,25.3616567 11.1445315,25.0694691 10.5585939,24.4835315 L0.878906113,14.8022814 C-0.292968704,13.631969 -0.292968704,11.7319689 0.878906113,10.5600937 L10.5585939,0.880405964 C11.7304687,-0.291468853 13.6304687,-0.291468853 14.8023439,0.880405964 C15.9742191,2.05228118 15.9742191,3.95071881 14.8023439,5.12259363 L7.24296861,12.6819689 L14.8023439,20.2413439 C15.9742191,21.4132191 15.9742191,23.3116567 14.8023439,24.4835315 C14.2164063,25.0694691 13.4476563,25.3616567 12.6804687,25.3616567 Z" id="Path"></path>
                        <path d="M35.8242194,25.3616567 C35.0570318,25.3616567 34.2882818,25.0694691 33.7023442,24.4835315 C32.530469,23.3116567 32.530469,21.4116567 33.7023442,20.2413439 L41.2617195,12.6819689 L33.7023442,5.12259363 C32.530469,3.95071881 32.530469,2.05071878 33.7023442,0.880405964 C34.8742194,-0.291468853 36.7742194,-0.291468853 37.9460943,0.880405964 L47.625782,10.5600937 C48.7976568,11.7319689 48.7976568,13.631969 47.625782,14.8022814 L37.9460943,24.4835315 C37.3601567,25.0694691 36.5914066,25.3616567 35.8242194,25.3616567 Z" id="Path"></path>
                        <path d="M20.7789064,25.3632191 C20.4132816,25.3632191 20.0429688,25.2960315 19.6820316,25.1538439 C18.139844,24.5491567 17.3804688,22.8069691 17.9867192,21.2647815 L25.5929689,1.90384358 C26.1992193,0.363218757 27.9414065,-0.397718855 29.4820317,0.208531154 C31.0242194,0.814781163 31.7835942,2.55696879 31.1773442,4.09915641 L23.5710941,23.4585315 C23.1070316,24.6413439 21.9757816,25.3632191 20.7789064,25.3632191 Z" id="Path"></path>
                        <path d="M25.5476565,43.4772817 L4.74765613,43.4772817 C3.09140615,43.4772817 1.74765613,42.1335318 1.74765613,40.4772817 C1.74765613,38.8194693 3.09140615,37.4772817 4.74765613,37.4772817 L25.5476565,37.4772817 C27.2054689,37.4772817 28.5476565,38.8194693 28.5476565,40.4772817 C28.5476565,42.1335318 27.2054689,43.4772817 25.5476565,43.4772817 Z" id="Path"></path>
                        <path d="M73.4570324,43.4772817 L36.8867194,43.4772817 C35.230469,43.4772817 33.8867194,42.1335318 33.8867194,40.4772817 C33.8867194,38.8194693 35.230469,37.4772817 36.8867194,37.4772817 L73.4570324,37.4772817 C75.1148448,37.4772817 76.4570324,38.8194693 76.4570324,40.4772817 C76.4570324,42.1335318 75.1148448,43.4772817 73.4570324,43.4772817 Z" id="Path"></path>
                        <path d="M13.6085939,56.4991571 L4.74765613,56.4991571 C3.09140615,56.4991571 1.74765613,55.1569696 1.74765613,53.4991571 C1.74765613,51.8429067 3.09140615,50.4991571 4.74765613,50.4991571 L13.6085939,50.4991571 C15.2664063,50.4991571 16.6085939,51.8429067 16.6085939,53.4991571 C16.6085939,55.1569696 15.2648439,56.4991571 13.6085939,56.4991571 Z" id="Path"></path>
                        <path d="M67.5570323,56.4991571 L62.160157,56.4991571 C60.503907,56.4991571 59.160157,55.1569696 59.160157,53.4991571 C59.160157,51.8429067 60.503907,50.4991571 62.160157,50.4991571 L67.5570323,50.4991571 C69.2132823,50.4991571 70.5570324,51.8429067 70.5570324,53.4991571 C70.5570324,55.1569696 69.2132823,56.4991571 67.5570323,56.4991571 Z" id="Path"></path>
                        <path d="M50.9460945,56.4991571 L24.4429688,56.4991571 C22.7851564,56.4991571 21.4429688,55.1569696 21.4429688,53.4991571 C21.4429688,51.8429067 22.7851564,50.4991571 24.4429688,50.4991571 L50.9460945,50.4991571 C52.6039069,50.4991571 53.9460945,51.8429067 53.9460945,53.4991571 C53.9460945,55.1569696 52.6023445,56.4991571 50.9460945,56.4991571 Z" id="Path"></path>
                        <path d="M87.4554698,56.4991571 L77.3476572,56.4991571 C75.6914072,56.4991571 74.3476572,55.1569696 74.3476572,53.4991571 C74.3476572,51.8429067 75.6914072,50.4991571 77.3476572,50.4991571 L87.4554698,50.4991571 C89.1117202,50.4991571 90.4554698,51.8429067 90.4554698,53.4991571 C90.4554698,55.1569696 89.1117202,56.4991571 87.4554698,56.4991571 Z" id="Path"></path>
                        <path d="M68.1054695,15.0694689 L57.4445321,15.0694689 C55.7867197,15.0694689 54.4445321,13.7272814 54.4445321,12.0694689 C54.4445321,10.4132189 55.7867197,9.06946889 57.4445321,9.06946889 L68.1054695,9.06946889 C69.7632823,9.06946889 71.1054696,10.4132189 71.1054696,12.0694689 C71.1054696,13.7272814 69.7632823,15.0694689 68.1054695,15.0694689 Z" id="Path"></path>
                        <path d="M145.091408,15.0694689 L80.0445324,15.0694689 C78.3882825,15.0694689 77.0445324,13.7272814 77.0445324,12.0694689 C77.0445324,10.4132189 78.3882825,9.06946889 80.0445324,9.06946889 L145.091408,9.06946889 C146.747658,9.06946889 148.091408,10.4132189 148.091408,12.0694689 C148.091408,13.7272814 146.747658,15.0694689 145.091408,15.0694689 Z" id="Path"></path>
                        <path d="M135.210158,28.6554063 L108.863283,28.6554063 C107.20547,28.6554063 105.863283,27.3132192 105.863283,25.6554063 C105.863283,23.9991567 107.20547,22.6554063 108.863283,22.6554063 L135.210158,22.6554063 C136.867971,22.6554063 138.210158,23.9991567 138.210158,25.6554063 C138.210158,27.3132192 136.867971,28.6554063 135.210158,28.6554063 Z" id="Path"></path>
                        <path d="M98.9820328,28.6554063 L89.9242202,28.6554063 C88.2679698,28.6554063 86.9242202,27.3132192 86.9242202,25.6554063 C86.9242202,23.9991567 88.2679698,22.6554063 89.9242202,22.6554063 L98.9820328,22.6554063 C100.639845,22.6554063 101.982033,23.9991567 101.982033,25.6554063 C101.982033,27.3132192 100.639845,28.6554063 98.9820328,28.6554063 Z" id="Path"></path>
                        <path d="M79.6335949,28.6554063 L57.4429693,28.6554063 C55.7867197,28.6554063 54.4429693,27.3132192 54.4429693,25.6554063 C54.4429693,23.9991567 55.7867197,22.6554063 57.4429693,22.6554063 L79.6335949,22.6554063 C81.2898449,22.6554063 82.6335949,23.9991567 82.6335949,25.6554063 C82.6335949,27.3132192 81.2898449,28.6554063 79.6335949,28.6554063 Z" id="Path"></path>
                        <path d="M50.9851569,69.4132197 L30.1851565,69.4132197 C28.5273441,69.4132197 27.1851565,68.0694698 27.1851565,66.4132197 C27.1851565,64.7554069 28.5273441,63.4132197 30.1851565,63.4132197 L50.9851569,63.4132197 C52.6429693,63.4132197 53.9851569,64.7554069 53.9851569,66.4132197 C53.9851569,68.0694698 52.6429693,69.4132197 50.9851569,69.4132197 Z" id="Path"></path>
                        <path d="M20.7289064,69.4132197 L4.74765613,69.4132197 C3.09140615,69.4132197 1.74765613,68.0694698 1.74765613,66.4132197 C1.74765613,64.7554069 3.09140615,63.4132197 4.74765613,63.4132197 L20.7289064,63.4132197 C22.3851564,63.4132197 23.7289065,64.7554069 23.7289065,66.4132197 C23.7289065,68.0694698 22.3851564,69.4132197 20.7289064,69.4132197 Z" id="Path"></path>
                        <path d="M88.689845,69.4132197 L61.5195322,69.4132197 C59.8617198,69.4132197 58.5195322,68.0694698 58.5195322,66.4132197 C58.5195322,64.7554069 59.8617198,63.4132197 61.5195322,63.4132197 L88.689845,63.4132197 C90.3476574,63.4132197 91.6898451,64.7554069 91.6898451,66.4132197 C91.6898451,68.0694698 90.3476574,69.4132197 88.689845,69.4132197 Z" id="Path"></path>
                    </g>
                    <path d="M140.510802,173.663203 C118.836002,173.663203 86.0824013,173.663203 64.289201,173.663203 C61.0560009,173.663203 58.4112009,176.308403 58.4112009,179.541203 L58.4112009,179.541203 C58.4112009,182.774003 61.0564009,185.419203 64.289201,185.419203 C86.3956013,185.419203 118.932002,185.419203 140.510802,185.419203 C143.743602,185.419203 146.388802,182.774003 146.388802,179.541203 L146.388802,179.541203 C146.388802,176.308403 143.743602,173.663203 140.510802,173.663203 Z" id="Path" fill="#FF545A"></path>
                    <circle id="Oval" fill="#FF7463" cx="102.400002" cy="136.504002" r="3.11280005"></circle>
                </g>
                <g id="Group-3" transform="translate(166.000000, 155.000000)">
                    <polygon id="Path" fill="#8686A9" points="7.66828107 14.4506248 67.8431242 14.4506248 67.8431242 34.8285934 7.66828107 34.8285934"></polygon>
                    <polygon id="Path" fill="#8686A9" points="7.66828107 45.9435933 67.8431242 45.9435933 67.8431242 64.8407804 7.66828107 64.8407804"></polygon>
                    <path d="M72.825468,18.8774998 L2.68593765,18.8774998 C1.20234383,18.8774998 1.02318151e-12,17.675156 1.02318151e-12,16.1915621 L1.02318151e-12,2.68593765 C1.02318151e-12,1.20234383 1.20234383,0 2.68593765,0 L72.825468,0 C74.3090618,0 75.5114056,1.20234383 75.5114056,2.68593765 L75.5114056,16.1915621 C75.5114056,17.675156 74.3090618,18.8774998 72.825468,18.8774998 Z" id="Path" fill="#787897"></path>
                    <path d="M72.825468,49.1610933 L2.68593765,49.1610933 C1.20234383,49.1610933 1.02318151e-12,47.9587494 1.02318151e-12,46.4751556 L1.02318151e-12,32.9695308 C1.02318151e-12,31.4859373 1.20234383,30.2835935 2.68593765,30.2835935 L72.825468,30.2835935 C74.3090618,30.2835935 75.5114056,31.4859373 75.5114056,32.9695308 L75.5114056,46.4751556 C75.5114056,47.9587494 74.3090618,49.1610933 72.825468,49.1610933 Z" id="Path" fill="#787897"></path>
                    <path d="M72.825468,79.4446868 L2.68593765,79.4446868 C1.20234383,79.4446868 1.02318151e-12,78.2423429 1.02318151e-12,76.7587491 L1.02318151e-12,63.2531243 C1.02318151e-12,61.7695304 1.20234383,60.567187 2.68593765,60.567187 L72.825468,60.567187 C74.3090618,60.567187 75.5114056,61.7695304 75.5114056,63.2531243 L75.5114056,76.7587491 C75.5114056,78.2423429 74.3090618,79.4446868 72.825468,79.4446868 Z" id="Path" fill="#787897"></path>
                    <path d="M23.3999997,12.1387499 L10.0279687,12.1387499 C8.53734374,12.1387499 7.32796876,10.930781 7.32796876,9.43874989 C7.32796876,7.94812491 8.53734374,6.73874992 10.0279687,6.73874992 L23.4014062,6.73874992 C24.8920309,6.73874992 26.1014062,7.94812491 26.1014062,9.43874989 C26.1014062,10.930781 24.8920309,12.1387499 23.3999997,12.1387499 Z" id="Path" fill="#E7E7E7"></path>
                    <path d="M65.4834369,12.1387499 L46.6045306,12.1387499 C45.113906,12.1387499 43.9045307,10.930781 43.9045307,9.43874989 C43.9045307,7.94812491 45.113906,6.73874992 46.6045306,6.73874992 L65.4820304,6.73874992 C66.9740619,6.73874992 68.1820304,7.94812491 68.1820304,9.43874989 C68.1820304,10.930781 66.9740619,12.1387499 65.4834369,12.1387499 L65.4834369,12.1387499 Z" id="Path" fill="#E7E7E7"></path>
                    <path d="M37.1657807,12.1387499 L32.8387496,12.1387499 C31.3481246,12.1387499 30.1387497,10.930781 30.1387497,9.43874989 C30.1387497,7.94812491 31.3481246,6.73874992 32.8387496,6.73874992 L37.1657807,6.73874992 C38.6578122,6.73874992 39.8657807,7.94812491 39.8657807,9.43874989 C39.8657807,10.930781 38.6564061,12.1387499 37.1657807,12.1387499 L37.1657807,12.1387499 Z" id="Path" fill="#E7E7E7"></path>
                    <path d="M23.3999997,42.4223433 L10.0279687,42.4223433 C8.53734374,42.4223433 7.32796876,41.2143745 7.32796876,39.7223434 C7.32796876,38.2317184 8.53734374,37.0223434 10.0279687,37.0223434 L23.4014062,37.0223434 C24.8920309,37.0223434 26.1014062,38.2317184 26.1014062,39.7223434 C26.1014062,41.2143745 24.8920309,42.4223433 23.3999997,42.4223433 Z" id="Path" fill="#E7E7E7"></path>
                    <path d="M65.4834369,42.4223433 L46.6045306,42.4223433 C45.113906,42.4223433 43.9045307,41.2143745 43.9045307,39.7223434 C43.9045307,38.2317184 45.113906,37.0223434 46.6045306,37.0223434 L65.4820304,37.0223434 C66.9740619,37.0223434 68.1820304,38.2317184 68.1820304,39.7223434 C68.1820304,41.2143745 66.9740619,42.4223433 65.4834369,42.4223433 L65.4834369,42.4223433 Z" id="Path" fill="#E7E7E7"></path>
                    <path d="M37.1657807,42.4223433 L32.8387496,42.4223433 C31.3481246,42.4223433 30.1387497,41.2143745 30.1387497,39.7223434 C30.1387497,38.2317184 31.3481246,37.0223434 32.8387496,37.0223434 L37.1657807,37.0223434 C38.6578122,37.0223434 39.8657807,38.2317184 39.8657807,39.7223434 C39.8657807,41.2143745 38.6564061,42.4223433 37.1657807,42.4223433 L37.1657807,42.4223433 Z" id="Path" fill="#E7E7E7"></path>
                    <path d="M23.3999997,72.7059368 L10.0279687,72.7059368 C8.53734374,72.7059368 7.32796876,71.4965615 7.32796876,70.0059369 C7.32796876,68.5153115 8.53734374,67.3059369 10.0279687,67.3059369 L23.4014062,67.3059369 C24.8920309,67.3059369 26.1014062,68.5153115 26.1014062,70.0059369 C26.1014062,71.4965615 24.8920309,72.7059368 23.3999997,72.7059368 Z" id="Path" fill="#E7E7E7"></path>
                    <path d="M65.4834369,72.7059368 L46.6045306,72.7059368 C45.113906,72.7059368 43.9045307,71.4965615 43.9045307,70.0059369 C43.9045307,68.5153115 45.113906,67.3059369 46.6045306,67.3059369 L65.4820304,67.3059369 C66.9740619,67.3059369 68.1820304,68.5153115 68.1820304,70.0059369 C68.1820304,71.4965615 66.9740619,72.7059368 65.4834369,72.7059368 L65.4834369,72.7059368 Z" id="Path" fill="#E7E7E7"></path>
                    <path d="M37.1657807,72.7059368 L32.8387496,72.7059368 C31.3481246,72.7059368 30.1387497,71.4965615 30.1387497,70.0059369 C30.1387497,68.5153115 31.3481246,67.3059369 32.8387496,67.3059369 L37.1657807,67.3059369 C38.6578122,67.3059369 39.8657807,68.5153115 39.8657807,70.0059369 C39.8657807,71.4965615 38.6564061,72.7059368 37.1657807,72.7059368 L37.1657807,72.7059368 Z" id="Path" fill="#E7E7E7"></path>
                </g>
            </g>
        </g>
    </g>
</svg>