<?xml version="1.0" encoding="UTF-8"?>
<svg width="52px" height="57px" viewBox="0 0 52 57" version="1.1" xmlns="http://www.w3.org/2000/svg" xmlns:xlink="http://www.w3.org/1999/xlink">
    <!-- Generator: Sketch 51.3 (57544) - http://www.bohemiancoding.com/sketch -->
    <title>id</title>
    <desc>Created with Sketch.</desc>
    <defs></defs>
    <g id="desktop" stroke="none" stroke-width="1" fill="none" fill-rule="evenodd">
        <g id="ecommerce" transform="translate(-1066.000000, -4824.000000)" fill-rule="nonzero">
            <g id="Group-11" transform="translate(990.000000, 4824.000000)">
                <g id="id" transform="translate(76.000000, 0.000000)">
                    <polygon id="Shape" fill="#E87288" points="15.4275766 0.95 17.5044979 12.35 26.8496794 12.35 28.9266007 0.95"></polygon>
                    <polygon id="Shape" fill="#FFDAAA" points="27.88814 6.65 26.8496794 12.35 17.5044979 12.35 16.4660372 6.65 0.964336532 6.65 0.964336532 56.05 43.3898408 56.05 43.3898408 6.65"></polygon>
                    <g id="Group" transform="translate(6.749512, 4.750000)">
                        <ellipse id="Oval" fill="#65CECC" cx="15.4275766" cy="1.9" rx="1.92843201" ry="1.9"></ellipse>
                        <polygon id="Shape" fill="#4DBAF6" points="0.000120527001 11.4 30.8550327 11.4 30.8550327 32.3 0.000120527001 32.3"></polygon>
                    </g>
                    <g id="Group" transform="translate(16.391672, 19.950000)" fill="#FF9811">
                        <ellipse id="Oval" cx="5.78541656" cy="3.8" rx="3.85686402" ry="3.8"></ellipse>
                        <path d="M3.76297349,7.6 L7.80785963,7.6 C9.88598617,7.6 11.5707126,9.2598875 11.5707126,11.307375 L11.5707126,17.1 L0.000120527001,17.1 L0.000120527001,11.307375 C0.000120527001,9.2598875 1.68472642,7.6 3.76297349,7.6 Z" id="Shape"></path>
                    </g>
                    <polygon id="Shape" fill="#7CCC92" points="47.2467048 37.05 39.5329767 46.55 36.6403287 43.7 33.7476807 46.55 39.5329767 52.25 50.1393528 39.9"></polygon>
                    <path d="M22.1770886,9.5 C20.5795033,9.5 19.2844406,8.22403125 19.2844406,6.65 C19.2844406,5.07596875 20.5795033,3.8 22.1770886,3.8 C23.774674,3.8 25.0697367,5.07596875 25.0697367,6.65 C25.0679288,8.22331875 23.7739509,9.4983375 22.1770886,9.5 Z M22.1770886,5.7 C21.6446004,5.7 21.2128726,6.1253625 21.2128726,6.65 C21.2128726,7.1746375 21.6446004,7.6 22.1770886,7.6 C22.7095769,7.6 23.1413047,7.1746375 23.1413047,6.65 C23.1405815,6.1256 22.7093359,5.7007125 22.1770886,5.7 Z" id="Shape" fill="#000000"></path>
                    <path d="M37.6045447,15.2 L6.74963256,15.2 C6.21714427,15.2 5.78541656,15.6253625 5.78541656,16.15 L5.78541656,37.05 C5.78541656,37.5746375 6.21714427,38 6.74963256,38 L37.6045447,38 C38.137033,38 38.5687607,37.5746375 38.5687607,37.05 L38.5687607,16.15 C38.5687607,15.6253625 38.137033,15.2 37.6045447,15.2 Z M22.1770886,26.6 C20.5795033,26.6 19.2844406,25.3240312 19.2844406,23.75 C19.2844406,22.1759687 20.5795033,20.9 22.1770886,20.9 C23.774674,20.9 25.0697367,22.1759687 25.0697367,23.75 C25.0679288,25.3233187 23.7739509,26.5983375 22.1770886,26.6 Z M20.1544045,28.5 L24.1996522,28.5 C25.7445673,28.5015437 26.9966018,29.7351187 26.9981687,31.2572562 L26.9981687,36.1 L17.3560086,36.1 L17.3560086,31.2572562 C17.3575755,29.7351187 18.60961,28.5015437 20.1544045,28.5 Z M36.6403287,36.1 L28.9266007,36.1 L28.9266007,31.2572562 C28.9203333,29.2885 27.6561256,27.5369375 25.7707217,26.8847625 C27.5457228,24.9293062 27.3756592,21.9263562 25.3909411,20.177525 C23.406223,18.4286937 20.3583362,18.59625 18.5833351,20.5517062 C16.9466989,22.3548062 16.9466989,25.0816625 18.5833351,26.8847625 C16.6979312,27.5370562 15.433844,29.2885 15.4275766,31.2572562 L15.4275766,36.1 L7.71384857,36.1 L7.71384857,17.1 L36.6403287,17.1 L36.6403287,36.1 Z" id="Shape" fill="#000000"></path>
                    <polygon id="Shape" fill="#000000" points="5.78541656 39.9 20.2486566 39.9 20.2486566 41.8 5.78541656 41.8"></polygon>
                    <polygon id="Shape" fill="#000000" points="22.1770886 39.9 27.9623847 39.9 27.9623847 41.8 22.1770886 41.8 22.1770886 39.9"></polygon>
                    <polygon id="Shape" fill="#000000" points="5.78541656 45.6 28.9266007 45.6 28.9266007 47.5 5.78541656 47.5"></polygon>
                    <polygon id="Shape" fill="#000000" points="29.8908167 39.9 33.7476807 39.9 33.7476807 41.8 29.8908167 41.8"></polygon>
                    <path d="M47.9284055,36.37835 C47.5522407,36.007375 46.9421331,36.0071375 46.5656067,36.3777562 C46.5486526,36.3943812 45.8114693,37.2990979 44.3540568,39.0919062 L44.3540568,7.65 C44.3540568,6.65 43.8552246,5.7 42.3898408,5.7 L29.0409808,5.7 L29.8757508,1.1179125 C29.9698824,0.60146875 29.6211978,0.1075875 29.0969053,0.0149625 C29.0407398,0.0049875 28.9837305,0 28.9266007,0 L15.4275766,0 C14.8949678,0 14.4632401,0.4253625 14.4632401,0.95011875 C14.4632401,0.98764375 14.7465589,2.5709375 15.3131965,5.7 L1.96433653,5.7 C1.31103516,5.7 0.000120527001,5.7 0.000120527001,7.65 L0.000120527001,55.05 C0.000120527001,56.05 0.375488281,57 1.96433653,57 L42.3898408,57 C44.3540568,57 44.3540568,55.8469238 44.3540568,55.05 L44.3540568,48.1069313 L50.8751701,40.5137 C51.1991467,40.13655 51.1755234,39.5777125 50.8210535,39.22835 L47.9284055,36.37835 Z M27.774001,1.9 L26.0433538,11.4 L18.3108235,11.4 L16.5801763,1.9 L27.774001,1.9 Z M42.4256248,55.1 L1.92855254,55.1 L1.92855254,7.6 L15.6592295,7.6 L16.5551067,12.5179125 C16.6375472,12.9707062 17.0374558,13.3001187 17.5042568,13.3 L26.8497999,13.3 C27.3167215,13.3001187 27.7165096,12.9707062 27.7989501,12.5179125 L28.6948273,7.6 L42.4256248,7.6 L42.4255042,41.4669063 L39.4528263,45.12785 L37.3219089,43.02835 C36.9456236,42.657375 36.3352749,42.6572563 35.9588691,43.0279938 C35.9587887,43.0280729 34.9944522,43.9781917 33.0658595,45.87835 C32.6893331,46.2490875 32.6892126,46.8504375 33.0654979,47.2212938 C33.0655782,47.2213729 34.9941308,49.1214917 38.8511555,52.92165 C39.031946,53.0998938 39.2772184,53.2 39.5328562,53.2 C39.8421285,53.1880063 40.094512,53.0664062 40.2686736,52.8637 L42.4255042,50.352375 L42.4256248,55.1 Z M39.4736775,50.8481562 L35.1110821,46.55 L36.6403287,45.0433 L38.851276,47.22165 C39.0459271,47.4115312 39.3126534,47.5119937 39.5862497,47.498575 C39.8602075,47.4836125 40.11464,47.3544125 40.2859089,47.143275 L47.3268552,38.47215 L48.8301885,39.9537937 L39.4736775,50.8481562 Z" id="Shape" fill="#000000"></path>
                    <polygon id="Shape" fill="#000000" points="5.78541656 51.3 14.4633606 51.3 14.4633606 53.2 5.78541656 53.2"></polygon>
                    <polygon id="Shape" fill="#000000" points="16.3917926 51.3 31.8192487 51.3 31.8192487 53.2 16.3917926 53.2 16.3917926 51.3"></polygon>
                </g>
            </g>
        </g>
    </g>
</svg>