<?xml version="1.0" encoding="UTF-8"?>
<svg width="257px" height="271px" viewBox="0 0 257 271" version="1.1" xmlns="http://www.w3.org/2000/svg" xmlns:xlink="http://www.w3.org/1999/xlink">
    <!-- Generator: Sketch 51.3 (57544) - http://www.bohemiancoding.com/sketch -->
    <title>bar-chart (2)</title>
    <desc>Created with Sketch.</desc>
    <defs></defs>
    <g id="desktop" stroke="none" stroke-width="1" fill="none" fill-rule="evenodd" opacity="0.0385044643">
        <g id="ecommerce" transform="translate(-168.000000, -4013.000000)" fill-rule="nonzero">
            <g id="Group-23" transform="translate(159.000000, 3749.000000)">
                <g id="bar-chart-(2)" transform="translate(152.683055, 396.759430) rotate(-24.000000) translate(-152.683055, -396.759430) translate(29.183055, 298.759430)">
                    <path d="M223.571715,5.24580415 C233.533286,5.24188766 241.61214,13.3191334 241.614097,23.2859655 C241.616054,33.2527976 233.543072,41.3339593 223.583458,41.3378758 C213.621886,41.3398338 205.543032,33.262588 205.541075,23.2957559 L205.541075,23.2859655 C205.543032,13.3230499 213.616015,5.24776215 223.571715,5.24580415 Z" id="Shape" fill="#FEDB41"></path>
                    <path d="M149.353115,57.979939 C153.13225,49.5561061 162.657391,45.3422315 171.429053,48.2167519 C180.200716,51.0893144 185.39091,60.1221228 183.461223,69.1529731 C181.529578,78.1818655 173.100406,84.2990331 163.921669,83.3297634 C154.740975,82.3604938 147.773747,74.6180868 147.769832,65.3835919 C147.767875,62.8321611 148.308031,60.3081443 149.353115,57.979939 Z" id="Shape" fill="#FEDB41"></path>
                    <polygon id="Shape" fill="#00ACEA" points="145.914514 113.557265 176.793428 113.557265 176.793428 171.503916 145.914514 171.503916"></polygon>
                    <path d="M119.405775,38.6650413 C117.624826,48.1443016 108.71421,54.5512709 99.165584,53.2138747 C89.6189148,51.8764785 82.8062961,43.266624 83.6967707,33.6620446 C84.5852878,24.0574651 92.8618074,16.8496242 102.492631,17.2902017 C112.123455,17.7307786 119.707166,25.6670396 119.716952,35.3127395 C119.718908,36.4367008 119.615183,37.5587035 119.405775,38.6650413 Z" id="Shape" fill="#FEDB41"></path>
                    <polygon id="Shape" fill="#00ACEA" points="87.6520428 84.4126038 118.529 84.4126038 118.529 171.503916 87.6520428 171.503916"></polygon>
                    <polygon id="Shape" fill="#00ACEA" points="29.3895711 131.045237 60.266528 131.045237 60.266528 171.503916 29.3895711 171.503916"></polygon>
                    <path d="M57.5422633,75.2388107 C64.7854416,80.3925831 67.1985294,90.0578645 63.2236862,98.013707 C59.2488429,105.969549 50.0759779,109.842711 41.6057066,107.138547 C33.1373922,104.434383 27.9021852,95.959639 29.2682319,87.1715955 C30.6342782,78.383552 38.1964613,71.9021739 47.0855494,71.9002159 C50.8333706,71.8982579 54.4872511,73.0652971 57.5422633,75.2388107 Z" id="Shape" fill="#FEDB41"></path>
                    <g id="Group" fill="#083863">
                        <path d="M123.750507,84.2716191 C123.750507,81.5028374 121.507686,79.2588314 118.740365,79.2588314 L87.6774848,79.2588314 C84.9101639,79.2588314 82.6673428,81.5028374 82.6673428,84.2716191 L82.6673428,171.494126 C82.6673428,174.262908 84.9101639,176.506913 87.6774848,176.506913 L118.740365,176.506913 C121.507686,176.506913 123.750507,174.262908 123.750507,171.494126 L123.750507,84.2716191 Z M92.6876268,89.2844068 L113.730223,89.2844068 L113.730223,166.481338 L92.6876268,166.481338 L92.6876268,89.2844068 Z" id="Shape"></path>
                        <path d="M65.63286,130.890545 C65.63286,128.121763 63.3900389,125.877757 60.6227181,125.877757 L29.5598377,125.877757 C26.7925169,125.877757 24.5496957,128.121763 24.5496957,130.890545 L24.5496957,171.494126 C24.5496957,174.262908 26.7925169,176.506913 29.5598377,176.506913 L60.6227181,176.506913 C63.3900389,176.506913 65.63286,174.262908 65.63286,171.494126 L65.63286,130.890545 Z M34.5699797,135.903333 L55.1115619,135.903333 L55.1115619,166.481338 L34.5699797,166.481338 L34.5699797,135.903333 Z" id="Shape"></path>
                        <path d="M181.868154,113.345788 C181.868154,110.577006 179.625333,108.333 176.858012,108.333 L145.795132,108.333 C143.027811,108.333 140.78499,110.577006 140.78499,113.345788 L140.78499,171.494126 C140.78499,174.262908 143.027811,176.506913 145.795132,176.506913 L176.858012,176.506913 C179.625333,176.506913 181.868154,174.262908 181.868154,171.494126 L181.868154,113.345788 Z M150.805274,118.358576 L171.84787,118.358576 L171.84787,166.481338 L150.805274,166.481338 L150.805274,118.358576 Z" id="Shape"></path>
                        <path d="M223.571715,0.23301643 C215.702269,0.238890414 208.380808,4.25891157 204.147629,10.8969388 C199.916408,17.5349666 199.360595,25.8746006 202.673943,33.0158646 L182.715573,49.7519182 C178.163389,44.8096228 171.677604,42.1035009 164.964796,42.3443493 C158.250032,42.5871562 151.977569,45.7514785 147.789403,51.0070731 L124.709479,36.1194855 C124.719265,35.8492647 124.727093,35.5810024 124.727093,35.3107815 C124.72905,25.8236893 118.922374,17.3039081 110.095913,13.8419516 C101.267495,10.3799951 91.221769,12.6807864 84.7790395,19.6419039 C78.338267,26.6010629 76.8136963,36.8009109 80.9411926,45.3402735 L56.7457294,69.006114 C46.0600359,64.0403212 33.3487576,67.9095667 27.2406901,77.9899695 C21.1306651,88.0703723 23.5750668,101.136908 32.9162416,108.321252 C42.2574163,115.507553 55.5068931,114.514786 63.6738164,106.016544 C71.8407391,97.5183022 72.3123969,84.2344147 64.7697849,75.1781089 L87.207784,53.2314976 C92.5310598,57.5471946 99.5002455,59.2664244 106.218924,57.9211957 C112.937603,56.5779254 118.709052,52.3092229 121.963687,46.2762547 L143.376173,60.0868768 C141.147051,69.5426392 145.082752,79.3802351 153.216405,84.6867406 C161.3481,89.9932466 171.933982,89.629036 179.684045,83.7762148 C187.432152,77.9233937 190.682873,67.8371164 187.811826,58.5575846 L208.780054,40.9756237 C216.530117,47.6058184 227.703125,48.379276 236.292778,42.8808745 C244.880475,37.3805145 248.859233,26.9045716 246.087998,17.0885152 C243.316763,7.27050019 234.449203,0.424911959 224.254738,0.23301643 C224.025759,0.229099939 223.798737,0.229099939 223.571715,0.23301643 Z M47.0855494,102.969709 C39.8912986,102.971667 34.0572227,97.1384271 34.0533088,89.9403772 C34.0513519,82.7423274 39.8815128,76.9051712 47.0757641,76.9032127 C54.2700143,76.8992967 60.1040902,82.7325369 60.1060472,89.9305868 L60.1060472,89.9403772 C60.0982188,97.1325526 54.2739288,102.961877 47.0855494,102.969709 Z M114.481744,37.7388506 C113.195939,44.5883553 106.75908,49.2173515 99.8603495,48.2519978 C92.9635759,47.2886032 88.0395457,41.0696134 88.6795132,34.1319934 C89.3214376,27.1924154 95.2983807,21.9818572 102.255824,22.2971149 C109.213267,22.6123721 114.695067,28.3437901 114.704852,35.3127395 C114.70681,36.1253595 114.63244,36.9379795 114.481744,37.7388506 Z M165.800472,78.41684 C158.612093,78.407049 152.785846,72.5777253 152.779974,65.3835919 C152.774103,63.5410004 153.161606,61.7199488 153.918999,60.039882 C156.57868,54.1185265 163.189719,51.0599425 169.421083,52.863371 C175.654404,54.6687581 179.609676,60.7859256 178.697674,67.2124759 C177.787628,73.6390267 172.288215,78.41684 165.800472,78.41684 Z M223.571715,36.3192136 C216.447919,36.2683022 210.705827,30.4624759 210.731269,23.3329604 C210.756711,16.2034448 216.539902,10.4367804 223.665655,10.4367804 C230.789451,10.4367804 236.574599,16.2034448 236.600041,23.3329604 C236.625483,30.4624759 230.883391,36.2683022 223.757638,36.3192136 C223.695011,36.3192136 223.634342,36.3192136 223.571715,36.3192136 Z" id="Shape"></path>
                        <path d="M200.286297,185.529931 L10.020284,185.529931 L10.020284,24.9444934 C10.020284,22.1776697 7.77746285,19.9317057 5.01014199,19.9317057 C2.24282112,19.9317057 0,22.1776697 0,24.9444934 L0,190.366488 C0,193.13527 2.12343896,195.555507 4.89075982,195.555507 L200.286297,195.555507 C203.051661,195.555507 205.296439,193.311501 205.296439,190.542719 C205.296439,187.773937 203.051661,185.529931 200.286297,185.529931 Z" id="Shape"></path>
                    </g>
                </g>
            </g>
        </g>
    </g>
</svg>