<?xml version="1.0" encoding="UTF-8"?>
<svg width="73px" height="73px" viewBox="0 0 73 73" version="1.1" xmlns="http://www.w3.org/2000/svg" xmlns:xlink="http://www.w3.org/1999/xlink">
    <!-- Generator: Sketch 51.3 (57544) - http://www.bohemiancoding.com/sketch -->
    <title>Group 31</title>
    <desc>Created with Sketch.</desc>
    <defs></defs>
    <g id="desktop" stroke="none" stroke-width="1" fill="none" fill-rule="evenodd">
        <g id="Group-34" transform="translate(-125.000000, -203.000000)" fill-rule="nonzero">
            <g id="Group-31" transform="translate(125.000000, 203.000000)">
                <g id="Group-29">
                    <circle id="Oval-4" fill="#2CA0DA" cx="36.5" cy="36.5" r="36.5"></circle>
                    <g id="analytics-(23)" transform="translate(18.000000, 9.000000)">
                        <path d="M11.390258,4.24611664 L24.530519,4.24611664 C25.4981536,4.24611664 26.2825271,5.00571084 26.2825271,5.94277689 L26.2825271,9.33609738 C26.2825271,10.2731634 25.4981536,11.0327576 24.530519,11.0327576 L11.390258,11.0327576 C10.4226234,11.0327576 9.63824996,10.2731634 9.63824996,9.33609738 L9.63824996,5.94277689 C9.63824996,5.00571084 10.4226234,4.24611664 11.390258,4.24611664 Z" id="Shape" fill="#2CA0DA"></path>
                        <path d="M2.63021768,50.9048566 L35.918772,50.9048566 C37.3704244,50.9048566 38.5469846,49.7654651 38.5469846,48.3596719 L38.5469846,7.63943713 C38.5469846,6.23364401 37.3704244,5.09425261 35.918772,5.09425261 L29.6257387,5.09425261 C29.2556074,4.0810718 28.2683234,3.40225235 27.1587317,3.39759226 L23.5668945,3.39759226 C23.1526523,1.42055002 21.3577363,0 19.2744948,0 C17.1916544,0 15.3967384,1.42055002 14.9820951,3.39759226 L11.390258,3.39759226 C10.2806662,3.40225235 9.29338227,4.0810718 8.92365197,5.09425261 L2.63021768,5.09425261 C1.93326409,5.09425261 1.26478215,5.36259592 0.771942189,5.83986664 C0.279102224,6.31713727 0.00200503958,6.96450115 0.00200503958,7.63943713 L0.00200503958,48.3596719 C0.00200503958,49.7654651 1.17896629,50.9048566 2.63021768,50.9048566 Z M8.92365197,10.1842333 C9.29338227,11.1974141 10.2806662,11.8766219 11.390258,11.8808936 L27.1587317,11.8808936 C28.2683234,11.8766219 29.2556074,11.1974141 29.6257387,10.1842333 L33.2909603,10.1842333 L33.2909603,45.8148757 L5.25843024,45.8148757 L5.25843024,10.1842333 L8.92365197,10.1842333 Z M19.2744948,1.70093202 C20.3844875,1.70520379 21.3713706,2.38441155 21.7415018,3.39759226 L16.8078888,3.39759226 C17.1776191,2.38441155 18.164903,1.70520379 19.2744948,1.70093202 Z M11.390258,5.09425261 L27.1587317,5.09425261 C27.6423484,5.09425261 28.0349362,5.47404971 28.0349362,5.94277689 L28.0349362,9.33609738 C28.0349362,9.80443625 27.6423484,10.1842333 27.1587317,10.1842333 L11.390258,10.1842333 C10.9066413,10.1842333 10.5144545,9.80443625 10.5144545,9.33609738 L10.5144545,5.94277689 C10.5144545,5.47404971 10.9066413,5.09425261 11.390258,5.09425261 Z M1.75441415,7.63943713 C1.75441415,7.17070995 2.14660084,6.79091285 2.63021768,6.79091285 L8.76244643,6.79091285 L8.76244643,8.4875731 L5.25843024,8.4875731 C4.29079568,8.4875731 3.50642219,9.2471674 3.50642219,10.1842333 L3.50642219,45.8148757 C3.50642219,46.7519417 4.29079568,47.511536 5.25843024,47.511536 L33.2909603,47.511536 C34.258595,47.511536 35.0429685,46.7519417 35.0429685,45.8148757 L35.0429685,10.1842333 C35.0429685,9.2471674 34.258595,8.4875731 33.2909603,8.4875731 L29.7869442,8.4875731 L29.7869442,6.79091285 L35.918772,6.79091285 C36.4027897,6.79091285 36.7949765,7.17070995 36.7949765,7.63943713 L36.7949765,48.3596719 C36.7949765,48.8283991 36.4027897,49.2081962 35.918772,49.2081962 L2.63021768,49.2081962 C2.14660084,49.2081962 1.75441415,48.8283991 1.75441415,48.3596719 L1.75441415,7.63943713 Z" id="Shape" fill="#105A7F"></path>
                        <path d="M13.142266,8.4875731 L14.8946752,8.4875731 C15.3782919,8.4875731 15.7704787,8.107776 15.7704787,7.63943713 C15.7704787,7.17070995 15.3782919,6.79091285 14.8946752,6.79091285 L13.142266,6.79091285 C12.6586493,6.79091285 12.2664625,7.17070995 12.2664625,7.63943713 C12.2664625,8.107776 12.6586493,8.4875731 13.142266,8.4875731 Z" id="Shape" fill="#105A7F"></path>
                        <path d="M18.3986913,8.4875731 L25.4067235,8.4875731 C25.8903404,8.4875731 26.2825271,8.107776 26.2825271,7.63943713 C26.2825271,7.17070995 25.8903404,6.79091285 25.4067235,6.79091285 L18.3986913,6.79091285 C17.9146734,6.79091285 17.5224867,7.17070995 17.5224867,7.63943713 C17.5224867,8.107776 17.9146734,8.4875731 18.3986913,8.4875731 Z" id="Shape" fill="#105A7F"></path>
                        <path d="M8.76244643,25.4545642 C8.76244643,24.985837 8.37025963,24.6060398 7.88624181,24.6060398 C7.40262508,24.6060398 7.01043828,24.985837 7.01043828,25.4545642 C7.01043828,27.5516036 8.90881466,29.294088 11.390258,29.6327211 L11.390258,29.696409 C11.390258,30.1647478 11.7824448,30.544545 12.2664625,30.544545 C12.7500794,30.544545 13.142266,30.1647478 13.142266,29.696409 L13.142266,29.6327211 C15.6241104,29.2933114 17.5224867,27.5516036 17.5224867,25.4545642 C17.5224867,23.3575247 15.6241104,21.6150402 13.142266,21.2764072 L13.142266,16.2128335 C14.6500597,16.4978756 15.7704787,17.4850374 15.7704787,18.6679231 C15.7704787,19.1362619 16.1626654,19.5160591 16.6466832,19.5160591 C17.1303001,19.5160591 17.5224867,19.1362619 17.5224867,18.6679231 C17.5224867,16.5708836 15.6241104,14.8280108 13.142266,14.4897661 L13.142266,14.4260782 C13.142266,13.9577395 12.7500794,13.5775539 12.2664625,13.5775539 C11.7824448,13.5775539 11.390258,13.9577395 11.390258,14.4260782 L11.390258,14.4897661 C8.90881466,14.8291758 7.01043828,16.5708836 7.01043828,18.6679231 C7.01043828,20.7649626 8.90881466,22.5074471 11.390258,22.8460801 L11.390258,27.908877 C9.88286536,27.6246117 8.76244643,26.6370614 8.76244643,25.4545642 Z M15.7704787,25.4545642 C15.7704787,26.6370614 14.6500597,27.6246117 13.142266,27.908877 L13.142266,22.9994746 C14.6500597,23.2845167 15.7704787,24.2720669 15.7704787,25.4545642 Z M8.76244643,18.6679231 C8.76244643,17.4850374 9.88286536,16.4978756 11.390258,16.2128335 L11.390258,21.122236 C9.88286536,20.8379706 8.76244643,19.8504203 8.76244643,18.6679231 Z" id="Shape" fill="#105A7F"></path>
                        <path d="M7.88624181,43.2696912 C8.1188271,43.2696912 8.34138699,43.1803728 8.5058007,43.0211532 L14.8946752,36.83411 L18.655337,40.4759686 C18.9973977,40.8072231 19.551993,40.8072231 19.8940536,40.4759686 L29.7869442,30.8959933 L29.7869442,32.2412053 C29.7869442,32.7099324 30.1791309,33.0897295 30.6627478,33.0897295 C31.1467656,33.0897295 31.5389523,32.7099324 31.5389523,32.2412053 L31.5389523,28.8478847 C31.5369473,28.7465278 31.5160948,28.6463359 31.4775979,28.5519691 C31.4659687,28.5228436 31.4527353,28.4944947 31.437898,28.4669225 C31.4050154,28.4032346 31.3633104,28.3442069 31.3143873,28.2906158 C31.2959409,28.2677038 31.2754894,28.2459567 31.254236,28.2253746 C31.1860644,28.1628518 31.1078678,28.1119792 31.0228538,28.0743101 C31.0148337,28.0743101 31.0088185,28.0649899 31.0007983,28.0614949 C30.9041551,28.0242142 30.8010958,28.0044088 30.6968335,28.0028554 C30.6856053,28.0028554 30.6767831,27.9970304 30.6655549,27.9970304 L27.1587317,27.9970304 C26.6751149,27.9970304 26.2825271,28.3768275 26.2825271,28.8455547 C26.2825271,29.3138934 26.6751149,29.6936906 27.1587317,29.6936906 L28.5482276,29.6936906 L19.2744948,38.6767864 L15.513833,35.0349278 C15.1717723,34.7036732 14.617177,34.7036732 14.2751164,35.0349278 L7.267084,41.8215689 C7.01645344,42.0642818 6.94146484,42.4289336 7.07700582,42.7462079 C7.21294787,43.0630939 7.53215099,43.2696912 7.88624181,43.2696912 Z" id="Shape" fill="#105A7F"></path>
                        <path d="M13.142266,40.7248949 C12.6586493,40.7248949 12.2664625,41.1046921 12.2664625,41.5730309 L12.2664625,42.4215552 C12.2664625,42.889894 12.6586493,43.2696912 13.142266,43.2696912 C13.6262839,43.2696912 14.0184707,42.889894 14.0184707,42.4215552 L14.0184707,41.5730309 C14.0184707,41.1046921 13.6262839,40.7248949 13.142266,40.7248949 Z" id="Shape" fill="#105A7F"></path>
                        <path d="M16.6466832,40.7248949 C16.1626654,40.7248949 15.7704787,41.1046921 15.7704787,41.5730309 L15.7704787,42.4215552 C15.7704787,42.889894 16.1626654,43.2696912 16.6466832,43.2696912 C17.1303001,43.2696912 17.5224867,42.889894 17.5224867,42.4215552 L17.5224867,41.5730309 C17.5224867,41.1046921 17.1303001,40.7248949 16.6466832,40.7248949 Z" id="Shape" fill="#105A7F"></path>
                        <path d="M21.9027075,40.7248949 C21.4186896,40.7248949 21.0265028,41.1046921 21.0265028,41.5730309 L21.0265028,42.4215552 C21.0265028,42.889894 21.4186896,43.2696912 21.9027075,43.2696912 C22.3863242,43.2696912 22.778511,42.889894 22.778511,42.4215552 L22.778511,41.5730309 C22.778511,41.1046921 22.3863242,40.7248949 21.9027075,40.7248949 Z" id="Shape" fill="#105A7F"></path>
                        <path d="M25.4067235,37.331186 C24.9227058,37.331186 24.530519,37.7109832 24.530519,38.1797104 L24.530519,42.4215552 C24.530519,42.889894 24.9227058,43.2696912 25.4067235,43.2696912 C25.8903404,43.2696912 26.2825271,42.889894 26.2825271,42.4215552 L26.2825271,38.1797104 C26.2825271,37.7109832 25.8903404,37.331186 25.4067235,37.331186 Z" id="Shape" fill="#105A7F"></path>
                        <path d="M28.9107397,33.9378655 C28.4271229,33.9378655 28.0349362,34.3176626 28.0349362,34.7863898 L28.0349362,42.4215552 C28.0349362,42.889894 28.4271229,43.2696912 28.9107397,43.2696912 C29.3947575,43.2696912 29.7869442,42.889894 29.7869442,42.4215552 L29.7869442,34.7863898 C29.7869442,34.3176626 29.3947575,33.9378655 28.9107397,33.9378655 Z" id="Shape" fill="#105A7F"></path>
                        <path d="M21.0265028,17.8193988 L22.778511,17.8193988 C23.2625287,17.8193988 23.6547155,17.4396016 23.6547155,16.9712628 C23.6547155,16.5025357 23.2625287,16.1227385 22.778511,16.1227385 L21.0265028,16.1227385 C20.5428861,16.1227385 20.1506993,16.5025357 20.1506993,16.9712628 C20.1506993,17.4396016 20.5428861,17.8193988 21.0265028,17.8193988 Z" id="Shape" fill="#105A7F"></path>
                        <path d="M26.2825271,17.8193988 L29.7869442,17.8193988 C30.2705611,17.8193988 30.6627478,17.4396016 30.6627478,16.9712628 C30.6627478,16.5025357 30.2705611,16.1227385 29.7869442,16.1227385 L26.2825271,16.1227385 C25.7989103,16.1227385 25.4067235,16.5025357 25.4067235,16.9712628 C25.4067235,17.4396016 25.7989103,17.8193988 26.2825271,17.8193988 Z" id="Shape" fill="#105A7F"></path>
                        <path d="M21.0265028,24.6060398 L22.778511,24.6060398 C23.2625287,24.6060398 23.6547155,24.2262427 23.6547155,23.7579038 C23.6547155,23.2891767 23.2625287,22.9093795 22.778511,22.9093795 L21.0265028,22.9093795 C20.5428861,22.9093795 20.1506993,23.2891767 20.1506993,23.7579038 C20.1506993,24.2262427 20.5428861,24.6060398 21.0265028,24.6060398 Z" id="Shape" fill="#105A7F"></path>
                        <path d="M29.7869442,22.9093795 L26.2825271,22.9093795 C25.7989103,22.9093795 25.4067235,23.2891767 25.4067235,23.7579038 C25.4067235,24.2262427 25.7989103,24.6060398 26.2825271,24.6060398 L29.7869442,24.6060398 C30.2705611,24.6060398 30.6627478,24.2262427 30.6627478,23.7579038 C30.6627478,23.2891767 30.2705611,22.9093795 29.7869442,22.9093795 Z" id="Shape" fill="#105A7F"></path>
                        <path d="M29.7869442,19.5160591 L28.0349362,19.5160591 C27.5509184,19.5160591 27.1587317,19.8958562 27.1587317,20.3645833 C27.1587317,20.8329222 27.5509184,21.2127193 28.0349362,21.2127193 L29.7869442,21.2127193 C30.2705611,21.2127193 30.6627478,20.8329222 30.6627478,20.3645833 C30.6627478,19.8958562 30.2705611,19.5160591 29.7869442,19.5160591 Z" id="Shape" fill="#105A7F"></path>
                        <path d="M21.0265028,21.2127193 L24.530519,21.2127193 C25.0145368,21.2127193 25.4067235,20.8329222 25.4067235,20.3645833 C25.4067235,19.8958562 25.0145368,19.5160591 24.530519,19.5160591 L21.0265028,19.5160591 C20.5428861,19.5160591 20.1506993,19.8958562 20.1506993,20.3645833 C20.1506993,20.8329222 20.5428861,21.2127193 21.0265028,21.2127193 Z" id="Shape" fill="#105A7F"></path>
                    </g>
                </g>
            </g>
        </g>
    </g>
</svg>