<?xml version="1.0" encoding="UTF-8"?>
<svg width="73px" height="73px" viewBox="0 0 73 73" version="1.1" xmlns="http://www.w3.org/2000/svg" xmlns:xlink="http://www.w3.org/1999/xlink">
    <!-- Generator: Sketch 51.3 (57544) - http://www.bohemiancoding.com/sketch -->
    <title>Group 33</title>
    <desc>Created with Sketch.</desc>
    <defs></defs>
    <g id="desktop" stroke="none" stroke-width="1" fill="none" fill-rule="evenodd">
        <g id="Group-34" transform="translate(-3.000000, -419.000000)" fill-rule="nonzero">
            <g id="Group-33" transform="translate(3.000000, 419.000000)">
                <g id="Group-32">
                    <circle id="Oval-4" fill="#2CA0DA" cx="36.5" cy="36.5" r="36.5"></circle>
                    <g id="performance" transform="translate(14.000000, 14.000000)" fill="#105A7F" stroke="#105A7F" stroke-width="0.3">
                        <path d="M0.540041929,19.9815514 C0.231446541,20.0587002 0,20.3672956 0,20.7530398 L0,25.3819706 C0,25.690566 0.231446541,25.9991614 0.540041929,26.1534591 L3.31740042,26.9249476 C3.47169811,27.8507338 3.70314465,28.7765199 4.01174004,29.6251572 L2.00587002,31.7081761 C1.77442348,31.9396226 1.69727463,32.248218 1.85157233,32.5568134 C2.4687631,34.0226415 3.31740042,35.4113208 4.24318658,36.6457023 C4.39748428,36.8771488 4.78322851,37.0314465 5.0918239,36.9542977 L7.86918239,36.2599581 C8.48637317,36.9542977 9.18071279,37.6486373 9.87505241,38.2658281 L9.10356394,40.8888889 C9.02641509,41.1974843 9.10356394,41.5060797 9.41215933,41.7375262 C10.7236897,42.6633124 12.0352201,43.4348008 13.5010482,44.1291405 C13.8096436,44.2834382 14.118239,44.2062893 14.3496855,43.9748428 L16.4327044,41.9689727 C17.3584906,42.2775681 18.2071279,42.5090147 19.132914,42.6633124 L19.9044025,45.4406709 C19.9815514,45.7492662 20.2901468,45.9807128 20.675891,45.9807128 L25.3048218,45.9807128 C25.6134172,45.9807128 25.9220126,45.7492662 26.0763103,45.4406709 L26.8477987,42.6633124 C27.7735849,42.5090147 28.6993711,42.2775681 29.5480084,41.9689727 L31.6310273,43.9748428 C31.8624738,44.2062893 32.1710692,44.2834382 32.4796646,44.1291405 C33.9454927,43.5119497 35.3341719,42.6633124 36.5685535,41.7375262 C36.8,41.5832285 36.9542977,41.1974843 36.8771488,40.8888889 L36.1056604,38.1115304 C36.8,37.4943396 37.4943396,36.8 38.1115304,36.1056604 L40.8888889,36.8 C41.1974843,36.8771488 41.5060797,36.8 41.7375262,36.4914046 C42.6633124,35.1798742 43.4348008,33.8683438 44.1291405,32.4025157 C44.2834382,32.0939203 44.2062893,31.7853249 43.9748428,31.5538784 L41.9689727,29.4708595 C42.2775681,28.5450734 42.5090147,27.6964361 42.6633124,26.7706499 L45.4406709,25.9991614 C45.7492662,25.9220126 45.9807128,25.6134172 45.9807128,25.227673 L45.9807128,20.5987421 C45.9807128,20.2901468 45.7492662,19.9815514 45.4406709,19.8272537 L42.6633124,19.0557652 C42.5090147,18.129979 42.2775681,17.2041929 41.9689727,16.3555556 L43.9748428,14.2725367 C44.2062893,14.0410901 44.2834382,13.7324948 44.1291405,13.4238994 C43.5119497,11.9580713 42.6633124,10.569392 41.7375262,9.33501048 C41.5832285,9.10356394 41.1974843,8.94926625 40.8888889,9.02641509 L38.1115304,9.87505241 C37.4943396,9.10356394 36.8771488,8.48637317 36.1056604,7.86918239 L36.8771488,5.0918239 C36.9542977,4.78322851 36.8771488,4.47463312 36.5685535,4.24318658 C35.2570231,3.31740042 33.9454927,2.54591195 32.4796646,1.85157233 C32.1710692,1.69727463 31.8624738,1.77442348 31.6310273,2.00587002 L29.5480084,4.01174004 C28.6222222,3.70314465 27.7735849,3.47169811 26.8477987,3.31740042 L26.0763103,0.540041929 C25.9991614,0.231446541 25.690566,-2.84217094e-14 25.3048218,-2.84217094e-14 L20.675891,-2.84217094e-14 C20.3672956,-2.84217094e-14 20.0587002,0.231446541 19.9044025,0.540041929 L19.132914,3.31740042 C18.2071279,3.47169811 17.2813417,3.70314465 16.4327044,4.01174004 L14.3496855,2.00587002 C14.118239,1.77442348 13.8096436,1.69727463 13.5010482,1.85157233 C12.0352201,2.4687631 10.6465409,3.31740042 9.41215933,4.24318658 C9.18071279,4.39748428 9.02641509,4.78322851 9.10356394,5.0918239 L9.79790356,7.86918239 C9.10356394,8.48637317 8.48637317,9.10356394 7.86918239,9.87505241 L5.0918239,9.10356394 C4.78322851,9.02641509 4.47463312,9.10356394 4.24318658,9.41215933 C3.31740042,10.7236897 2.54591195,12.0352201 1.85157233,13.5010482 C1.69727463,13.8096436 1.77442348,14.118239 2.00587002,14.3496855 L4.01174004,16.4327044 C3.70314465,17.3584906 3.47169811,18.2071279 3.31740042,19.132914 L0.540041929,19.9815514 Z M5.47756813,15.7383648 L3.47169811,13.7324948 C3.93459119,12.7295597 4.55178197,11.7266247 5.16897275,10.8008386 L7.86918239,11.4951782 C8.17777778,11.572327 8.48637317,11.4951782 8.64067086,11.2637317 C9.41215933,10.3379455 10.1836478,9.48930818 11.109434,8.79496855 C11.3408805,8.64067086 11.4180294,8.33207547 11.3408805,8.02348008 L10.6465409,5.32327044 C11.572327,4.70607966 12.5752621,4.08888889 13.5781971,3.62599581 L15.5840671,5.63186583 C15.8155136,5.86331237 16.124109,5.94046122 16.3555556,5.78616352 C17.5899371,5.24612159 18.7471698,4.93752621 19.9044025,4.70607966 C20.2129979,4.62893082 20.4444444,4.47463312 20.5215933,4.16603774 L21.2930818,1.46582809 L24.687631,1.46582809 L25.4591195,4.16603774 C25.5362683,4.47463312 25.7677149,4.70607966 26.0763103,4.70607966 C27.233543,4.93752621 28.3907757,5.16897275 29.4708595,5.63186583 C29.7794549,5.70901468 30.0880503,5.70901468 30.242348,5.47756813 L32.248218,3.47169811 C33.251153,3.93459119 34.2540881,4.55178197 35.1798742,5.16897275 L34.5626834,7.94633124 C34.4855346,8.25492662 34.5626834,8.56352201 34.79413,8.71781971 C35.7199161,9.48930818 36.5685535,10.2607966 37.2628931,11.1865828 C37.4171908,11.4180294 37.7257862,11.4951782 38.0343816,11.4180294 L40.7345912,10.7236897 C41.351782,11.6494759 41.9689727,12.6524109 42.4318658,13.6553459 L40.4259958,15.6612159 C40.1945493,15.8926625 40.1174004,16.2012579 40.2716981,16.4327044 C40.6574423,17.5127883 40.9660377,18.670021 41.1974843,19.8272537 C41.2746331,20.1358491 41.4289308,20.3672956 41.7375262,20.4444444 L44.4377358,21.2159329 L44.4377358,24.6104822 L41.7375262,25.3819706 C41.4289308,25.4591195 41.1974843,25.690566 41.1974843,25.9991614 C40.9660377,27.1563941 40.7345912,28.3136268 40.2716981,29.3937107 C40.1945493,29.7023061 40.2716981,30.0109015 40.4259958,30.1651992 L42.4318658,32.1710692 C41.9689727,33.1740042 41.351782,34.1769392 40.7345912,35.1027254 L38.0343816,34.5626834 C37.7257862,34.4855346 37.4171908,34.5626834 37.2628931,34.79413 C36.4914046,35.7199161 35.7199161,36.5685535 34.79413,37.2628931 C34.5626834,37.4171908 34.4855346,37.7257862 34.5626834,38.0343816 L35.2570231,40.7345912 C34.3312369,41.351782 33.3283019,41.9689727 32.3253669,42.4318658 L30.3194969,40.4259958 C30.0880503,40.1945493 29.7794549,40.1174004 29.5480084,40.2716981 C28.3907757,40.7345912 27.233543,41.0431866 26.0763103,41.2746331 C25.7677149,41.351782 25.5362683,41.5060797 25.4591195,41.8146751 L24.687631,44.5148847 L21.2930818,44.5148847 L20.5215933,41.8146751 C20.4444444,41.5060797 20.2129979,41.2746331 19.9044025,41.2746331 C18.7471698,41.0431866 17.5899371,40.81174 16.5098532,40.348847 C16.2012579,40.2716981 15.8926625,40.2716981 15.7383648,40.5031447 L13.7324948,42.5090147 C12.7295597,42.0461216 11.7266247,41.4289308 10.8008386,40.81174 L11.4951782,38.1115304 C11.572327,37.802935 11.4951782,37.4943396 11.2637317,37.3400419 C10.3379455,36.5685535 9.48930818,35.797065 8.79496855,34.8712788 C8.64067086,34.6398323 8.33207547,34.5626834 8.02348008,34.6398323 L5.32327044,35.3341719 C4.70607966,34.4083857 4.08888889,33.4054507 3.62599581,32.4025157 L5.63186583,30.3966457 C5.86331237,30.1651992 5.94046122,29.8566038 5.78616352,29.6251572 C5.24612159,28.3907757 4.93752621,27.233543 4.70607966,26.0763103 C4.62893082,25.7677149 4.47463312,25.5362683 4.16603774,25.4591195 L1.46582809,24.687631 L1.46582809,21.2930818 L4.16603774,20.5215933 C4.47463312,20.4444444 4.70607966,20.2129979 4.70607966,19.9044025 C4.93752621,18.7471698 5.16897275,17.5899371 5.63186583,16.5098532 C5.70901468,16.2012579 5.70901468,15.8926625 5.47756813,15.7383648 Z" id="Shape"></path>
                        <path d="M22.9903564,38.4201258 C31.4767296,38.4201258 38.4201258,31.4767296 38.4201258,22.9903564 C38.4201258,14.5039832 31.4767296,7.560587 22.9903564,7.560587 C14.5039832,7.560587 7.560587,14.5039832 7.560587,22.9903564 C7.560587,31.4767296 14.5039832,38.4201258 22.9903564,38.4201258 Z M9.18071279,22.2188679 C9.33501048,19.0557652 10.569392,16.124109 12.7295597,13.7324948 L14.3496855,15.3526205 L15.4297694,14.2725367 L13.7324948,12.6524109 C16.0469602,10.569392 19.0557652,9.33501048 22.2188679,9.10356394 L22.2188679,11.4180294 L23.7618449,11.4180294 L23.7618449,9.18071279 C26.9249476,9.33501048 29.8566038,10.569392 32.248218,12.7295597 L30.6280922,14.3496855 L31.7081761,15.4297694 L33.3283019,13.8096436 C35.4113208,16.124109 36.6457023,19.132914 36.8771488,22.2960168 L34.5626834,22.2960168 L34.5626834,23.8389937 L36.8,23.8389937 C36.6457023,27.0020964 35.4113208,29.9337526 33.251153,32.3253669 L31.6310273,30.7052411 L30.5509434,31.7853249 L32.1710692,33.4054507 C29.8566038,35.4884696 26.8477987,36.7228512 23.684696,36.9542977 L23.684696,34.5626834 L22.1417191,34.5626834 L22.1417191,36.8 C18.9786164,36.6457023 16.0469602,35.4113208 13.6553459,33.251153 L15.2754717,31.6310273 L14.1953878,30.5509434 L12.6524109,32.248218 C10.569392,29.9337526 9.33501048,26.9249476 9.10356394,23.7618449 L11.4180294,23.7618449 L11.4180294,22.2188679 L9.18071279,22.2188679 Z" id="Shape"></path>
                        <path d="M22.9903564,26.0763103 C24.687631,26.0763103 26.0763103,24.687631 26.0763103,22.9903564 C26.0763103,22.9132075 26.0763103,22.9132075 26.0763103,22.8360587 L29.7794549,17.2041929 C30.0109015,16.8184486 29.9337526,16.3555556 29.5480084,16.124109 C29.3165618,15.9698113 28.9308176,15.9698113 28.6993711,16.124109 L23.1446541,19.9044025 C23.0675052,19.9044025 23.0675052,19.9044025 22.9903564,19.9044025 C21.2930818,19.9044025 19.9044025,21.2930818 19.9044025,22.9903564 C19.9044025,24.687631 21.2930818,26.0763103 22.9903564,26.0763103 Z M22.9903564,21.4473795 C23.0675052,21.4473795 23.1446541,21.4473795 23.2218029,21.4473795 C23.3761006,21.4473795 23.6075472,21.4473795 23.7618449,21.2930818 L26.3849057,19.5186583 L24.6104822,22.2188679 C24.5333333,22.3731656 24.4561845,22.6046122 24.4561845,22.7589099 C24.4561845,22.8360587 24.4561845,22.9132075 24.4561845,22.9903564 C24.4561845,23.8389937 23.7618449,24.5333333 22.9132075,24.5333333 C22.0645702,24.5333333 21.3702306,23.8389937 21.3702306,22.9903564 C21.4473795,22.1417191 22.1417191,21.4473795 22.9903564,21.4473795 Z" id="Shape"></path>
                    </g>
                </g>
            </g>
        </g>
    </g>
</svg>