<?xml version="1.0" encoding="UTF-8"?>
<svg width="80px" height="80px" viewBox="0 0 80 80" version="1.1" xmlns="http://www.w3.org/2000/svg" xmlns:xlink="http://www.w3.org/1999/xlink">
    <!-- Generator: Sketch 51.3 (57544) - http://www.bohemiancoding.com/sketch -->
    <title>Group 33</title>
    <desc>Created with Sketch.</desc>
    <defs></defs>
    <g id="desktop" stroke="none" stroke-width="1" fill="none" fill-rule="evenodd">
        <g id="Group-34" transform="translate(-3.000000, -419.000000)" fill-rule="nonzero">
            <g id="Group-33" transform="translate(3.000000, 419.000000)">
                <g id="Group-32">
                    <circle id="Oval-4" fill="#4FBF9F" cx="40" cy="40" r="40"></circle>
                    <g id="faster_selected" transform="translate(12.000000, 12.000000)" fill="#FFFFFF" stroke="#FFFFFF" stroke-width="0.3">
                        <path d="M0.66918239,24.7597484 C0.286792453,24.8553459 0,25.2377358 0,25.7157233 L0,31.4515723 C0,31.8339623 0.286792453,32.2163522 0.66918239,32.4075472 L4.11069182,33.363522 C4.30188679,34.5106918 4.58867925,35.6578616 4.97106918,36.709434 L2.48553459,39.290566 C2.19874214,39.5773585 2.10314465,39.9597484 2.29433962,40.3421384 C3.0591195,42.1584906 4.11069182,43.8792453 5.25786164,45.408805 C5.4490566,45.6955975 5.92704403,45.8867925 6.30943396,45.791195 L9.7509434,44.9308176 C10.5157233,45.791195 11.3761006,46.6515723 12.236478,47.4163522 L11.2805031,50.6666667 C11.1849057,51.0490566 11.2805031,51.4314465 11.6628931,51.718239 C13.2880503,52.8654088 14.9132075,53.8213836 16.7295597,54.681761 C17.1119497,54.872956 17.4943396,54.7773585 17.7811321,54.490566 L20.3622642,52.0050314 C21.509434,52.3874214 22.5610063,52.6742138 23.7081761,52.8654088 L24.6641509,56.3069182 C24.7597484,56.6893082 25.1421384,56.9761006 25.6201258,56.9761006 L31.3559748,56.9761006 C31.7383648,56.9761006 32.1207547,56.6893082 32.3119497,56.3069182 L33.2679245,52.8654088 C34.4150943,52.6742138 35.5622642,52.3874214 36.6138365,52.0050314 L39.1949686,54.490566 C39.481761,54.7773585 39.8641509,54.872956 40.2465409,54.681761 C42.0628931,53.9169811 43.7836478,52.8654088 45.3132075,51.718239 C45.6,51.527044 45.791195,51.0490566 45.6955975,50.6666667 L44.7396226,47.2251572 C45.6,46.4603774 46.4603774,45.6 47.2251572,44.7396226 L50.6666667,45.6 C51.0490566,45.6955975 51.4314465,45.6 51.718239,45.2176101 C52.8654088,43.5924528 53.8213836,41.9672956 54.681761,40.1509434 C54.872956,39.7685535 54.7773585,39.3861635 54.490566,39.0993711 L52.0050314,36.518239 C52.3874214,35.3710692 52.6742138,34.3194969 52.8654088,33.172327 L56.3069182,32.2163522 C56.6893082,32.1207547 56.9761006,31.7383648 56.9761006,31.2603774 L56.9761006,25.5245283 C56.9761006,25.1421384 56.6893082,24.7597484 56.3069182,24.5685535 L52.8654088,23.6125786 C52.6742138,22.4654088 52.3874214,21.318239 52.0050314,20.2666667 L54.490566,17.6855346 C54.7773585,17.3987421 54.872956,17.0163522 54.681761,16.6339623 C53.9169811,14.8176101 52.8654088,13.0968553 51.718239,11.5672956 C51.527044,11.2805031 51.0490566,11.0893082 50.6666667,11.1849057 L47.2251572,12.236478 C46.4603774,11.2805031 45.6955975,10.5157233 44.7396226,9.7509434 L45.6955975,6.30943396 C45.791195,5.92704403 45.6955975,5.54465409 45.3132075,5.25786164 C43.6880503,4.11069182 42.0628931,3.15471698 40.2465409,2.29433962 C39.8641509,2.10314465 39.481761,2.19874214 39.1949686,2.48553459 L36.6138365,4.97106918 C35.4666667,4.58867925 34.4150943,4.30188679 33.2679245,4.11069182 L32.3119497,0.66918239 C32.2163522,0.286792453 31.8339623,-2.84217094e-14 31.3559748,-2.84217094e-14 L25.6201258,-2.84217094e-14 C25.2377358,-2.84217094e-14 24.8553459,0.286792453 24.6641509,0.66918239 L23.7081761,4.11069182 C22.5610063,4.30188679 21.4138365,4.58867925 20.3622642,4.97106918 L17.7811321,2.48553459 C17.4943396,2.19874214 17.1119497,2.10314465 16.7295597,2.29433962 C14.9132075,3.0591195 13.1924528,4.11069182 11.6628931,5.25786164 C11.3761006,5.4490566 11.1849057,5.92704403 11.2805031,6.30943396 L12.1408805,9.7509434 C11.2805031,10.5157233 10.5157233,11.2805031 9.7509434,12.236478 L6.30943396,11.2805031 C5.92704403,11.1849057 5.54465409,11.2805031 5.25786164,11.6628931 C4.11069182,13.2880503 3.15471698,14.9132075 2.29433962,16.7295597 C2.10314465,17.1119497 2.19874214,17.4943396 2.48553459,17.7811321 L4.97106918,20.3622642 C4.58867925,21.509434 4.30188679,22.5610063 4.11069182,23.7081761 L0.66918239,24.7597484 Z M6.78742138,19.5018868 L4.30188679,17.0163522 C4.8754717,15.7735849 5.64025157,14.5308176 6.40503145,13.3836478 L9.7509434,14.2440252 C10.1333333,14.3396226 10.5157233,14.2440252 10.7069182,13.9572327 C11.6628931,12.8100629 12.6188679,11.7584906 13.7660377,10.8981132 C14.0528302,10.7069182 14.1484277,10.3245283 14.0528302,9.94213836 L13.1924528,6.59622642 C14.3396226,5.83144654 15.5823899,5.06666667 16.8251572,4.49308176 L19.3106918,6.97861635 C19.5974843,7.26540881 19.9798742,7.36100629 20.2666667,7.16981132 C21.7962264,6.50062893 23.2301887,6.11823899 24.6641509,5.83144654 C25.0465409,5.73584906 25.3333333,5.54465409 25.4289308,5.16226415 L26.3849057,1.8163522 L30.591195,1.8163522 L31.5471698,5.16226415 C31.6427673,5.54465409 31.9295597,5.83144654 32.3119497,5.83144654 C33.7459119,6.11823899 35.1798742,6.40503145 36.518239,6.97861635 C36.9006289,7.07421384 37.2830189,7.07421384 37.4742138,6.78742138 L39.9597484,4.30188679 C41.2025157,4.8754717 42.445283,5.64025157 43.5924528,6.40503145 L42.827673,9.84654088 C42.7320755,10.2289308 42.827673,10.6113208 43.1144654,10.8025157 C44.2616352,11.7584906 45.3132075,12.7144654 46.1735849,13.8616352 C46.3647799,14.1484277 46.7471698,14.2440252 47.1295597,14.1484277 L50.4754717,13.2880503 C51.2402516,14.4352201 52.0050314,15.6779874 52.5786164,16.9207547 L50.0930818,19.4062893 C49.8062893,19.6930818 49.7106918,20.0754717 49.9018868,20.3622642 C50.3798742,21.7006289 50.7622642,23.1345912 51.0490566,24.5685535 C51.1446541,24.9509434 51.3358491,25.2377358 51.718239,25.3333333 L55.0641509,26.2893082 L55.0641509,30.4955975 L51.718239,31.4515723 C51.3358491,31.5471698 51.0490566,31.8339623 51.0490566,32.2163522 C50.7622642,33.6503145 50.4754717,35.0842767 49.9018868,36.4226415 C49.8062893,36.8050314 49.9018868,37.1874214 50.0930818,37.3786164 L52.5786164,39.8641509 C52.0050314,41.1069182 51.2402516,42.3496855 50.4754717,43.4968553 L47.1295597,42.827673 C46.7471698,42.7320755 46.3647799,42.827673 46.1735849,43.1144654 C45.2176101,44.2616352 44.2616352,45.3132075 43.1144654,46.1735849 C42.827673,46.3647799 42.7320755,46.7471698 42.827673,47.1295597 L43.6880503,50.4754717 C42.5408805,51.2402516 41.2981132,52.0050314 40.0553459,52.5786164 L37.5698113,50.0930818 C37.2830189,49.8062893 36.9006289,49.7106918 36.6138365,49.9018868 C35.1798742,50.4754717 33.7459119,50.8578616 32.3119497,51.1446541 C31.9295597,51.2402516 31.6427673,51.4314465 31.5471698,51.8138365 L30.591195,55.1597484 L26.3849057,55.1597484 L25.4289308,51.8138365 C25.3333333,51.4314465 25.0465409,51.1446541 24.6641509,51.1446541 C23.2301887,50.8578616 21.7962264,50.5710692 20.4578616,49.9974843 C20.0754717,49.9018868 19.6930818,49.9018868 19.5018868,50.1886792 L17.0163522,52.6742138 C15.7735849,52.1006289 14.5308176,51.3358491 13.3836478,50.5710692 L14.2440252,47.2251572 C14.3396226,46.8427673 14.2440252,46.4603774 13.9572327,46.2691824 C12.8100629,45.3132075 11.7584906,44.3572327 10.8981132,43.2100629 C10.7069182,42.9232704 10.3245283,42.827673 9.94213836,42.9232704 L6.59622642,43.7836478 C5.83144654,42.636478 5.06666667,41.3937107 4.49308176,40.1509434 L6.97861635,37.6654088 C7.26540881,37.3786164 7.36100629,36.9962264 7.16981132,36.709434 C6.50062893,35.1798742 6.11823899,33.7459119 5.83144654,32.3119497 C5.73584906,31.9295597 5.54465409,31.6427673 5.16226415,31.5471698 L1.8163522,30.591195 L1.8163522,26.3849057 L5.16226415,25.4289308 C5.54465409,25.3333333 5.83144654,25.0465409 5.83144654,24.6641509 C6.11823899,23.2301887 6.40503145,21.7962264 6.97861635,20.4578616 C7.07421384,20.0754717 7.07421384,19.6930818 6.78742138,19.5018868 Z" id="Shape"></path>
                        <path d="M28.4880503,47.6075472 C39.0037736,47.6075472 47.6075472,39.0037736 47.6075472,28.4880503 C47.6075472,17.972327 39.0037736,9.36855346 28.4880503,9.36855346 C17.972327,9.36855346 9.36855346,17.972327 9.36855346,28.4880503 C9.36855346,39.0037736 17.972327,47.6075472 28.4880503,47.6075472 Z M11.3761006,27.5320755 C11.5672956,23.6125786 13.0968553,19.9798742 15.7735849,17.0163522 L17.7811321,19.0238994 L19.1194969,17.6855346 L17.0163522,15.6779874 C19.8842767,13.0968553 23.6125786,11.5672956 27.5320755,11.2805031 L27.5320755,14.1484277 L29.4440252,14.1484277 L29.4440252,11.3761006 C33.363522,11.5672956 36.9962264,13.0968553 39.9597484,15.7735849 L37.9522013,17.7811321 L39.290566,19.1194969 L41.2981132,17.1119497 C43.8792453,19.9798742 45.408805,23.7081761 45.6955975,27.627673 L42.827673,27.627673 L42.827673,29.5396226 L45.6,29.5396226 C45.408805,33.4591195 43.8792453,37.0918239 41.2025157,40.0553459 L39.1949686,38.0477987 L37.8566038,39.3861635 L39.8641509,41.3937107 C36.9962264,43.9748428 33.2679245,45.5044025 29.3484277,45.791195 L29.3484277,42.827673 L27.436478,42.827673 L27.436478,45.6 C23.5169811,45.408805 19.8842767,43.8792453 16.9207547,41.2025157 L18.9283019,39.1949686 L17.5899371,37.8566038 L15.6779874,39.9597484 C13.0968553,37.0918239 11.5672956,33.363522 11.2805031,29.4440252 L14.1484277,29.4440252 L14.1484277,27.5320755 L11.3761006,27.5320755 Z" id="Shape"></path>
                        <path d="M28.4880503,32.3119497 C30.591195,32.3119497 32.3119497,30.591195 32.3119497,28.4880503 C32.3119497,28.3924528 32.3119497,28.3924528 32.3119497,28.2968553 L36.9006289,21.318239 C37.1874214,20.8402516 37.0918239,20.2666667 36.6138365,19.9798742 C36.327044,19.7886792 35.8490566,19.7886792 35.5622642,19.9798742 L28.6792453,24.6641509 C28.5836478,24.6641509 28.5836478,24.6641509 28.4880503,24.6641509 C26.3849057,24.6641509 24.6641509,26.3849057 24.6641509,28.4880503 C24.6641509,30.591195 26.3849057,32.3119497 28.4880503,32.3119497 Z M28.4880503,26.5761006 C28.5836478,26.5761006 28.6792453,26.5761006 28.7748428,26.5761006 C28.9660377,26.5761006 29.2528302,26.5761006 29.4440252,26.3849057 L32.6943396,24.1861635 L30.4955975,27.5320755 C30.4,27.7232704 30.3044025,28.0100629 30.3044025,28.2012579 C30.3044025,28.2968553 30.3044025,28.3924528 30.3044025,28.4880503 C30.3044025,29.5396226 29.4440252,30.4 28.3924528,30.4 C27.3408805,30.4 26.4805031,29.5396226 26.4805031,28.4880503 C26.5761006,27.436478 27.436478,26.5761006 28.4880503,26.5761006 Z" id="Shape"></path>
                    </g>
                </g>
            </g>
        </g>
    </g>
</svg>