<?xml version="1.0" encoding="UTF-8"?>
<svg width="80px" height="80px" viewBox="0 0 80 80" version="1.1" xmlns="http://www.w3.org/2000/svg" xmlns:xlink="http://www.w3.org/1999/xlink">
    <!-- Generator: Sketch 51.3 (57544) - http://www.bohemiancoding.com/sketch -->
    <title>Group 27</title>
    <desc>Created with Sketch.</desc>
    <defs></defs>
    <g id="desktop" stroke="none" stroke-width="1" fill="none" fill-rule="evenodd">
        <g id="Group-34" fill-rule="nonzero">
            <g id="Group-27">
                <g id="Group-26">
                    <circle id="Oval-4" fill="#4FBF9F" cx="40" cy="40" r="40"></circle>
                    <g id="Group-20" transform="translate(12.000000, 11.000000)" stroke="#FFFFFF" stroke-width="2.5">
                        <path d="M23.5654913,57.7560799 C23.4708693,40.6877625 30.1063921,29.2765037 43.4720597,23.5223034 L41.5250887,18.7989778 L56.6013258,23.5223034 L49.045696,37.4648044 L47.2406581,32.8664078 C38.0910467,36.9833591 33.516241,45.2799164 33.516241,57.7560799 L23.5654913,57.7560799 Z" id="Path-9"></path>
                        <path d="M0.125804277,23.4039976 L15.334758,18.790299 L13.4444681,23.4039976 C18.3795594,25.9625704 22.4412404,29.2113365 25.6295109,33.1502961 C22.8816322,37.5781618 21.2697552,41.4434276 20.7938802,44.7460938 C18.1628965,38.7313771 14.4499038,34.8042176 9.65490224,32.9646154 L7.70908334,37.6324424 L0.125804277,23.4039976 Z" id="Path-10"></path>
                        <path d="M18.3418489,12.427821 L28.4276192,0.106657951 L38.445188,12.427821 L33.5217708,12.427821 L33.5217708,24.2410456 C30.977268,26.229101 29.2792174,27.8795205 28.4276192,29.1923041 C26.6875571,27.1459331 25.0096292,25.5938734 23.3938353,24.5361249 L23.237156,12.3570202 L18.3418489,12.427821 Z" id="Path-11"></path>
                    </g>
                </g>
            </g>
        </g>
    </g>
</svg>