<?xml version="1.0" encoding="UTF-8"?>
<svg width="119px" height="121px" viewBox="0 0 119 121" version="1.1" xmlns="http://www.w3.org/2000/svg" xmlns:xlink="http://www.w3.org/1999/xlink">
    <!-- Generator: Sketch 51.3 (57544) - http://www.bohemiancoding.com/sketch -->
    <title>Group 20</title>
    <desc>Created with Sketch.</desc>
    <defs></defs>
    <g id="desktop" stroke="none" stroke-width="1" fill="none" fill-rule="evenodd">
        <g id="Group-26" transform="translate(1.000000, -9.000000)" fill-rule="nonzero">
            <g id="Group-2" transform="translate(2.000000, 0.000000)">
                <g id="Group-27">
                    <g id="Group-20" transform="translate(0.000000, 12.000000)">
                        <path d="M46.7175529,115.51216 C46.5299689,81.375525 59.6846018,58.5530074 86.1814516,47.0446069 L82.3216671,37.5979555 L112.209646,47.0446069 L97.2309413,74.9296087 L93.6525328,65.7328157 C75.5138294,73.9667181 66.4444777,90.5598328 66.4444777,115.51216 L46.7175529,115.51216 Z" id="Path-9" stroke="#183651" stroke-width="4"></path>
                        <path d="M51.7001008,110.452416 C53.3685631,78.93404 66.846495,58.5966041 92.1338966,49.4401084 L90.2594361,44.9032258 L105.82981,49.4401084 L97.4593309,64.7589623 L95.5216734,59.7745873 C74.2753486,67.3470735 63.1014627,84.2396831 62.0000158,110.452416 L51.7001008,110.452416 Z" id="Path-9" fill="#4FBF9F"></path>
                        <path d="M0.249401462,46.8079952 L30.4004851,37.5805979 L26.6530683,46.8079952 C36.4366704,51.9251407 44.4887748,58.4226731 50.8093813,66.3005922 C45.3618322,75.1563235 42.1663569,82.8868553 41.2229555,89.4921875 C36.0071457,77.4627541 28.6463006,69.6084352 19.1404202,65.9292307 L15.2829196,75.2648847 L0.249401462,46.8079952 Z" id="Path-10" stroke="#183651" stroke-width="4"></path>
                        <path d="M7.45646421,50.0831023 L22.2510868,45.1951077 L20.4184885,48.7296654 C32.3690514,54.5051821 40.6871535,60.3879492 45.3727949,66.3779669 C42.7161668,70.5984877 40.9438634,74.582761 40.0558846,78.3307869 C34.0323075,68.9612552 26.1199777,62.9072555 16.3188949,60.1687878 L14.8348192,63.8732674 L7.45646421,50.0831023 Z" id="Path-10" fill="#F06151"></path>
                        <path d="M36.3619109,24.855642 L56.3565083,0.213315902 L76.2158991,24.855642 L66.4554404,24.855642 L66.4554404,48.4820911 C61.4110751,52.4582021 58.0447644,55.7590411 56.3565083,58.3846081 C52.9069115,54.2918662 49.5804929,51.1877468 46.3772524,49.0722499 L46.0666425,24.7140404 L36.3619109,24.855642 Z" id="Path-11" stroke="#183651" stroke-width="4"></path>
                        <path d="M45.8387097,20.5613259 L56.6332715,8.41935484 L67.3548387,20.5613259 L62.0854216,20.5613259 L62.0854216,46.1964385 C59.3621003,48.3065239 57.5447169,50.0582487 56.6332715,51.4516129 C54.7709241,49.2796325 52.9750774,47.632305 51.2457314,46.5096304 L51.0780412,20.4861793 L45.8387097,20.5613259 Z" id="Path-11" fill="#2CA0DA"></path>
                    </g>
                </g>
            </g>
        </g>
    </g>
</svg>