<?xml version="1.0" encoding="UTF-8"?>
<svg width="73px" height="73px" viewBox="0 0 73 73" version="1.1" xmlns="http://www.w3.org/2000/svg" xmlns:xlink="http://www.w3.org/1999/xlink">
    <!-- Generator: Sketch 51.3 (57544) - http://www.bohemiancoding.com/sketch -->
    <title>Group 27</title>
    <desc>Created with Sketch.</desc>
    <defs></defs>
    <g id="desktop" stroke="none" stroke-width="1" fill="none" fill-rule="evenodd">
        <g id="Group-34" fill-rule="nonzero">
            <g id="Group-27">
                <g id="Group-26">
                    <circle id="Oval-4" fill="#2CA0DA" cx="36.5" cy="36.5" r="36.5"></circle>
                    <g id="flexible_deselected" transform="translate(10.000000, 10.000000)" fill="#105A7F">
                        <path d="M29.9047024,50.789724 C30.1480676,40.2132472 34.2907144,33.0314926 42.3143716,29.4211747 L43.2718975,28.9903272 L44.4259908,31.9304199 L49.3364647,22.8690592 L39.5355277,19.7984642 L40.7756628,22.8070155 L39.8713451,23.1963432 C28.9980093,27.8775423 23.4952641,37.013919 23.3186099,50.789724 L29.9047024,50.789724 Z M31.8933112,51.789724 L31.8933112,52.789724 L21.3206071,52.789724 L21.3150941,51.7952677 C21.2335357,37.0834299 26.8703672,27.0111147 38.1813853,21.7613464 L36.0594528,16.6135664 L52.2520281,21.6866364 L44.1355541,36.6640704 L42.1869825,31.700017 C35.3186825,35.2111308 31.8933112,41.8510966 31.8933112,51.789724 Z" id="Path-9"></path>
                        <path d="M8.53515932,32.1080987 L9.77408492,29.1360388 L10.6813853,29.4841246 C14.357426,30.8944375 17.3269403,33.6263914 19.5859721,37.642451 C20.2557953,35.5127009 21.3511397,33.1889513 22.8684517,30.6662829 C20.2793774,27.6222745 17.0355822,25.0885776 13.1297931,23.0636413 L12.3180673,22.6428062 L13.4966473,19.7662035 L3.56333931,22.7795133 L8.53515932,32.1080987 Z M8.75636368,36.7754226 L0.65356461,21.5722067 L16.9425906,16.6308637 L14.8580611,21.7186499 C18.8706313,23.9175314 22.2108798,26.6613847 24.8716905,29.9486923 L25.3188913,30.5011879 L24.944085,31.1051418 C22.6420314,34.8146154 21.3034765,38.0244576 20.915537,40.7168341 L20.4152955,44.188608 L19.009576,40.9749794 C17.012379,36.4091685 14.2972313,33.3449456 10.8588147,31.7318505 L8.75636368,36.7754226 Z" id="Path-10"></path>
                        <path d="M23.0190642,11.6382236 L23.1603289,22.6191135 C24.2377471,23.3837536 25.3337498,24.375084 26.4514195,25.592472 C27.2606833,24.6553579 28.4079423,23.599808 29.8980783,22.4126275 L29.8980783,11.7136388 L33.0405563,11.7136388 L26.5039396,3.67389159 L19.948197,11.6826375 L23.0190642,11.6382236 Z M21.0449978,13.6669837 L15.6756803,13.7446401 L26.5091971,0.51000143 L37.2442506,13.7136388 L31.8980783,13.7136388 L31.8980783,23.3851748 L31.5137536,23.685453 C29.400381,25.3366604 28.0058105,26.6921126 27.3455112,27.7099988 L26.6146715,28.8366268 L25.7447478,27.8135676 C24.3025238,26.1174641 22.9247004,24.8429969 21.6193902,23.9885006 L21.1740294,23.6969537 L21.0449978,13.6669837 Z" id="Path-11"></path>
                    </g>
                </g>
            </g>
        </g>
    </g>
</svg>