<?xml version="1.0" encoding="UTF-8"?>
<svg width="65px" height="57px" viewBox="0 0 65 57" version="1.1" xmlns="http://www.w3.org/2000/svg" xmlns:xlink="http://www.w3.org/1999/xlink">
    <!-- Generator: Sketch 51.3 (57544) - http://www.bohemiancoding.com/sketch -->
    <title>boxes</title>
    <desc>Created with Sketch.</desc>
    <defs></defs>
    <g id="desktop" stroke="none" stroke-width="1" fill="none" fill-rule="evenodd">
        <g id="ecommerce" transform="translate(-677.000000, -4824.000000)" fill-rule="nonzero">
            <g id="Group-15" transform="translate(638.000000, 4824.000000)">
                <g id="boxes" transform="translate(39.000000, 0.000000)">
                    <polygon id="Shape" fill="#FFDAAA" points="58.7489524 37.4152835 37.2712381 45.2483304 30.3233016 26.1187232 51.8006349 18.2866942"></polygon>
                    <path d="M62.760127,35.9607656 L64.0629841,39.5473125 L39.520381,48.4891875 C39.4747937,47.8606607 39.3427302,47.2284442 39.1166984,46.6064063 C38.8905397,45.9841138 38.5857778,45.4142411 38.2189206,44.9026406 L58.7489524,37.4151563 L62.760127,35.9607656 Z" id="Shape" fill="#EAFAFF"></path>
                    <polygon id="Shape" fill="#FFDAAA" points="46.1550476 2.74465179 51.8006349 18.2866942 43.447873 21.3326317 38.6759365 23.0729129 30.3233016 26.1187232 24.6777143 10.5779531"></polygon>
                    <polygon id="Shape" fill="#E87288" points="43.447873 21.3326317 45.1848889 26.1149062 40.4130794 27.855442 38.6759365 23.0729129"></polygon>
                    <polygon id="Shape" fill="#E87288" points="37.8024127 5.79058929 39.5394286 10.5727366 34.7660952 12.3132723 33.0290794 7.53227009"></polygon>
                    <path d="M38.2187937,44.9026406 C38.5857778,45.4142411 38.8904127,45.9841138 39.1165714,46.6064063 C39.3424762,47.2285714 39.4745397,47.8607879 39.520254,48.4891875 C39.743873,51.5337254 37.9457778,54.4792768 34.9426032,55.5744911 C31.3173333,56.8965603 27.3099683,55.0248482 25.9906032,51.392625 C24.8972698,48.3835848 25.9931429,45.110029 28.464,43.3235625 C28.9744762,42.9559888 29.5433651,42.6507589 30.1643175,42.4241585 C30.7852698,42.1978125 31.4176508,42.0653638 32.0448254,42.0195603 C33.6626032,41.8999621 35.2510476,42.3544353 36.5489524,43.2600737 C37.1864127,43.7043683 37.7528889,44.2563013 38.2187937,44.9026406 Z" id="Shape" fill="#5A7683"></path>
                    <g id="Group" transform="translate(0.888889, 0.890625)">
                        <path d="M33.4544762,47.4559353 C33.8138413,48.4460558 33.3046349,49.5412701 32.3154286,49.9027366 C31.3274921,50.2625491 30.2341587,49.7512031 29.8749206,48.7612098 C29.5141587,47.7715982 30.0248889,46.6761295 31.0126984,46.3147902 C32.0017778,45.9549777 33.0952381,46.4664509 33.4544762,47.4559353 Z" id="Shape" fill="#CCD1D9"></path>
                        <path d="M31.1560635,41.1277902 L31.1560635,41.1291897 C30.5288889,41.1748661 29.896381,41.3073147 29.2755556,41.5337879 C28.6546032,41.7603884 28.0857143,42.0657455 27.5752381,42.433192 L13.5885714,3.92765625 L1.36634921,8.34452009 L0.0636190476,4.75771875 L12.2858413,0.340982143 C14.264127,-0.380296875 16.448254,0.640359375 17.168254,2.6223817 L31.1560635,41.1277902 Z" id="Shape" fill="#EAFAFF"></path>
                    </g>
                    <rect id="Rectangle-path" fill="#FFC67C" transform="translate(47.210671, 11.159359) rotate(-19.998771) translate(-47.210671, -11.159359) " x="45.3060357" y="2.88958784" width="3.80927001" height="16.5395432"></rect>
                    <rect id="Rectangle-path" fill="#FFC67C" transform="translate(53.508019, 28.498007) rotate(-20.004155) translate(-53.508019, -28.498007) " x="51.6031922" y="18.3190865" width="3.80965428" height="20.3578401"></rect>
                    <rect id="Rectangle-path" fill="#CCE5ED" transform="translate(61.447288, 38.473660) rotate(-19.998771) translate(-61.447288, -38.473660) " x="59.3568113" y="36.5652414" width="4.18095257" height="3.81683723"></rect>
                    <path d="M32.5533968,46.1362835 C32.2201905,46.1362835 31.8915556,46.1945558 31.576381,46.3093192 C30.096127,46.8492924 29.3302857,48.4952946 29.8688254,49.978567 C30.2782222,51.1054621 31.3573333,51.8624933 32.5537778,51.8624933 C32.8869841,51.8624933 33.215619,51.804221 33.5306667,51.6894576 C35.0110476,51.1494844 35.7768889,49.5036094 35.2382222,48.0203371 C34.8289524,46.893442 33.7499683,46.1362835 32.5533968,46.1362835 Z M32.8793651,49.8961205 C32.7738413,49.9346719 32.664254,49.9541384 32.5539048,49.9541384 C32.1549206,49.9541384 31.7951746,49.7017098 31.6586667,49.3258661 C31.4791111,48.831442 31.7344762,48.2826897 32.2278095,48.1027835 C32.3333333,48.0642321 32.4429206,48.0447656 32.5532698,48.0447656 C32.952127,48.0447656 33.311873,48.2971942 33.448381,48.6731652 C33.6280635,49.1674621 33.3728254,49.7160871 32.8793651,49.8961205 Z" id="Shape" fill="#000000"></path>
                    <path d="M64.8340317,40.108279 C64.903873,39.9958058 64.9159365,39.9735402 64.9267302,39.9505112 C64.9784127,39.8095379 64.983873,39.7940156 64.9878095,39.7781116 C65.0285714,39.5358616 65.0147302,39.3758036 64.9584762,39.2209621 L63.6553651,35.6342879 C63.5662222,35.3888571 63.3869206,35.2027165 63.1687619,35.0988951 C62.8694603,34.9899844 62.6473651,34.9862946 62.4349206,35.0639062 L59.3206349,36.1986897 L52.695746,17.9602165 C52.6956614,17.9598772 51.8271323,15.568846 50.0901587,10.7871228 C49.9530159,10.4117879 49.5936508,10.1597411 49.1949206,10.1597411 C49.0844444,10.1597411 48.9739683,10.1788259 48.8698413,10.2169955 C48.375873,10.3963929 48.1206349,10.9460357 48.2996825,11.4396964 L50.5804444,17.7163125 L38.3499683,22.176308 C38.349291,22.1764777 35.8633228,23.0829643 30.8920635,24.8957679 L25.8970159,11.1476987 L32.4604444,8.75446205 L33.872,12.6393683 C34.007873,13.0147031 34.3672381,13.2680223 34.7659683,13.2680223 C34.8777143,13.2680223 34.9869206,13.2489375 35.0923175,13.2093683 L39.8655238,11.4688326 C40.104254,11.3823147 40.2947302,11.2067344 40.4026667,10.9764442 C40.4824127,10.8051897 40.5084444,10.6185402 40.4819048,10.4362165 C40.4549841,10.3074576 40.4455873,10.2767946 40.4345397,10.2462589 L39.0234921,6.36122545 L45.5855238,3.96837054 L48.2976707,11.4455959 C48.4348136,11.8209308 48.7941787,12.0741227 49.1929088,12.0741227 C49.303385,12.0741227 49.4138612,12.0550379 49.519258,12.0155959 C50.0119565,11.8361986 50.2671946,11.2877008 50.0881469,10.792895 L47.0501587,2.41766518 C46.9301587,2.08927902 46.640127,1.85529911 46.3022222,1.80186161 C46.0444444,1.79028348 45.9339683,1.8093683 45.8298413,1.84753795 L37.4813968,4.89233036 C37.4768254,4.8936875 35.8871111,5.47348437 32.712254,6.63172098 C32.7035344,6.63443527 29.9164868,7.65089286 24.3511111,9.68109375 C24.112381,9.76761161 23.9219048,9.94319196 23.8139683,10.1734821 C23.7060317,10.4050446 23.6946032,10.664471 23.7822222,10.9037946 L29.4276825,26.4458371 L34.8566349,41.3920513 C34.168381,41.1813549 33.4457143,41.063029 32.7056508,41.0486518 L18.952127,3.18665625 C18.0540952,0.714662946 15.3163175,-0.564401786 12.8488889,0.335129464 C12.8486349,0.335214286 8.77532275,1.80720536 0.628952381,4.75110268 C0.470603175,4.82629687 0.462095238,4.83024107 0.454222222,4.83520312 C0.320888889,4.93520759 0.312380952,4.94144196 0.304761905,4.94856696 C0.196444444,5.0690558 0.188952381,5.07745312 0.18247619,5.08648661 C0.101206349,5.22198884 0.0948571429,5.23280357 0.0895238095,5.24412723 C0.0361904762,5.39018973 0.0316190476,5.40329464 0.0281904762,5.41678125 C0.00355555556,5.57047768 0.0013968254,5.58472768 0.000634920635,5.59910491 C0.00647619048,5.75801786 0.00723809524,5.77226786 0.00926984127,5.78651786 C0.0476190476,5.94479464 0.051047619,5.95891741 0.056,5.97278571 C0.0563386243,5.97380357 0.490962963,7.17025223 1.35987302,9.5621317 C1.43707937,9.7260067 1.45498413,9.74992634 1.47212698,9.77499107 C1.58107937,9.90718527 1.59047619,9.91978125 1.60165079,9.93034152 C1.74387302,10.0417969 1.77638095,10.0594821 1.80888889,10.0766585 C2.00609524,10.1575781 2.04292063,10.1648304 2.08,10.1719554 C2.28190476,10.1901496 2.30895238,10.1888772 2.33612698,10.1867143 C2.51657143,10.1535067 2.53447619,10.1472723 2.55250794,10.1412924 C2.57138624,10.1352701 6.35619048,8.76786384 13.9069206,6.03907366 L27.3371429,43.0092991 C24.9414603,45.1088839 23.943746,48.5472054 25.096127,51.7192299 C26.2333968,54.8497768 29.2306032,56.9533058 32.5544127,56.9533058 C33.4791111,56.9533058 34.392127,56.7913393 35.2681905,56.4718594 C37.2601905,55.7453638 38.8505397,54.285375 39.7465397,52.3603527 C40.2227302,51.3370246 40.4699683,50.2477902 40.4905397,49.1518125 L64.3890794,40.4441719 C64.5263492,40.3808103 64.5451429,40.3712679 64.5630476,40.3603259 C64.6745397,40.279279 64.6939683,40.2636295 64.712127,40.2467076 C64.8030476,40.1483571 64.8191746,40.1287634 64.8340317,40.108279 Z M40.0111746,46.2799286 C39.9014603,45.9777522 39.7738413,45.6853728 39.6308571,45.4031719 L62.1911111,37.1832121 L62.8426667,38.9765491 L40.2820317,47.1967634 C40.2096508,46.8883527 40.1210159,46.5822321 40.0111746,46.2799286 Z M40.9814603,26.6323594 L39.896,23.6438036 L42.879619,22.5558415 L43.9654603,25.5442701 L40.9814603,26.6323594 Z M38.3188571,10.0026094 L35.335746,11.0904442 L34.2500317,8.10188839 L37.2337778,7.01392634 L38.3188571,10.0026094 Z M31.544,26.6892321 L38.1064127,24.2963772 L39.5179683,28.1812835 C39.6538413,28.5566183 40.0132063,28.809683 40.4132063,28.809683 C40.5236825,28.809683 40.6328889,28.7894531 40.7382857,28.7511563 L45.5114921,27.0106205 C46.0054603,26.8312232 46.2606984,26.2828527 46.080381,25.7879196 L44.6689524,21.9032679 L51.232381,19.509904 L57.5314286,36.8499911 L38.5296508,43.7735826 C38.1728254,43.3652946 37.7772698,42.9945402 37.3480635,42.6684442 L31.544,26.6892321 Z M15.3723175,4.4919308 C15.3286349,4.39001786 15.3212698,4.37805804 15.3145397,4.36546205 C15.2579048,4.27270982 15.2474921,4.25616964 15.2356825,4.24077455 C15.1699048,4.16290848 15.1634286,4.15731027 15.1574603,4.15120313 C15.0759365,4.07639063 15.0571429,4.06074107 15.0374603,4.04649107 C14.9589841,3.99508929 14.9570794,3.99419866 14.9553016,3.99330804 C14.8252698,3.91760491 14.6779683,3.87294643 14.5255873,3.8649308 C14.4920635,3.86353125 14.4624762,3.86340402 14.4326349,3.86480357 C14.3906032,3.86811161 14.3649524,3.87014732 14.3393016,3.87396429 C14.2836825,3.88477902 14.2647619,3.88795982 14.2459683,3.89266741 C14.1728254,3.91506027 14.1633016,3.91735045 14.1539048,3.92065848 C14.151873,3.92133705 10.3754921,5.28607143 2.8247619,8.01486161 L2.17320635,6.22127009 L13.4971429,2.12897545 C14.9804444,1.58823884 16.6229841,2.35570313 17.1617778,3.83910268 L30.7533968,41.2551496 C30.4448254,41.3274174 30.1394286,41.4171161 29.8386032,41.5269174 C29.5354921,41.6374821 29.2446984,41.7666228 28.9638095,41.9091228 L15.3723175,4.4919308 Z M38.0199365,51.5534464 C37.3390476,53.0164888 36.1304127,54.1262076 34.6165079,54.6782679 C33.9498413,54.9214085 33.255873,55.0446964 32.5541587,55.0446964 C30.0280635,55.0446964 27.7500952,53.4458973 26.8858413,51.0662746 C25.7483175,47.9350915 27.3654603,44.4602545 30.4906667,43.3203817 C31.1573333,43.0772411 31.8511746,42.9539531 32.5530159,42.9539531 C35.0789841,42.9539531 37.3570794,44.5527522 38.2213333,46.9325022 C38.7724444,48.4493638 38.7009524,50.0905312 38.0199365,51.5534464 Z" id="Shape" fill="#000000"></path>
                </g>
            </g>
        </g>
    </g>
</svg>