<?xml version="1.0" encoding="UTF-8"?>
<svg width="57px" height="57px" viewBox="0 0 57 57" version="1.1" xmlns="http://www.w3.org/2000/svg" xmlns:xlink="http://www.w3.org/1999/xlink">
    <!-- Generator: Sketch 51.3 (57544) - http://www.bohemiancoding.com/sketch -->
    <title>budget</title>
    <desc>Created with Sketch.</desc>
    <defs></defs>
    <g id="desktop" stroke="none" stroke-width="1" fill="none" fill-rule="evenodd">
        <g id="ecommerce" transform="translate(-685.000000, -4975.000000)" fill-rule="nonzero">
            <g id="Group-15" transform="translate(618.000000, 4975.000000)">
                <g id="budget" transform="translate(67.000000, 0.000000)">
                    <path d="M44.9581934,10.5457793 L44.9581934,44.1810117 C44.9581934,44.2481426 44.9570801,44.3152734 44.9537402,44.3825156 C44.8485352,46.6860059 42.9469395,48.5226973 40.6153945,48.5226973 L16.2018047,48.5226973 C13.8032402,48.5226973 11.8590059,46.5785742 11.8590059,44.1810117 L11.8590059,5.23821094 C11.8590059,3.17652539 13.2950273,1.45060547 15.2213379,1.00629492 C15.5369531,0.933597656 15.8649258,0.895523438 16.2018047,0.895523438 L35.5942734,0.895523438 C36.2535586,0.895523438 36.8971465,1.04548242 37.4802832,1.32758789 C38.653459,1.89224414 38.9838809,2.60574609 41.0922129,4.76150391 C43.5177188,7.39519336 44.0967363,7.66516406 44.5910332,8.80538672 C44.8317246,9.34922461 44.9581934,9.94026563 44.9581934,10.5457793 Z" id="Shape" fill="#FFC477"></path>
                    <path d="M44.9581934,10.5457793 L44.9581934,44.1810117 C44.9581934,44.2481426 44.9570801,44.3152734 44.9537402,44.3825156 C44.638125,44.4553242 44.3101523,44.4932871 43.9732734,44.4932871 L19.5596836,44.4932871 C17.1611191,44.4932871 15.2168848,42.5491641 15.2168848,40.1516016 L15.2168848,1.20880078 C15.2168848,1.14055664 15.217998,1.07331445 15.2213379,1.00618359 C15.5369531,0.933486328 15.8649258,0.895412109 16.2018047,0.895412109 L35.5942734,0.895412109 C36.2535586,0.895412109 36.8971465,1.04537109 37.4802832,1.32747656 C37.9593281,1.55803711 38.396959,1.87810547 38.767459,2.27443359 L41.0922129,4.76150391 L43.7538457,7.54626563 C44.1086484,7.91676563 44.3907539,8.34315234 44.5910332,8.80549805 C44.8317246,9.34922461 44.9581934,9.94026563 44.9581934,10.5457793 Z" id="Shape" fill="#FFDAAA"></path>
                    <path d="M56.0993555,25.6078066 L56.0993555,50.023623 C56.0993555,51.3812695 55.6583848,52.6371621 54.9107051,53.6533652 C53.794752,55.1733281 51.9939082,56.1605859 49.9623926,56.1605859 L34.015084,56.1605859 C30.6259219,56.1605859 27.8781211,53.4127852 27.8781211,50.023623 L27.8781211,25.6078066 C27.8781211,23.0748691 29.4137812,20.9001855 31.6041621,19.9633594 C32.3440488,19.6466309 33.1588594,19.4708438 34.015084,19.4708438 L49.9625039,19.4708438 C53.352668,19.4708438 56.0993555,22.2186445 56.0993555,25.6078066 Z" id="Shape" fill="#4CBA68"></path>
                    <path d="M56.0993555,25.6078066 L56.0993555,50.023623 C56.0993555,51.3812695 55.6583848,52.6371621 54.9107051,53.6533652 C54.1708184,53.9700937 53.3560078,54.1458809 52.4997832,54.1458809 L36.5524746,54.1458809 C33.1633125,54.1458809 30.4155117,51.3980801 30.4155117,48.008918 L30.4155117,23.5931016 C30.4155117,22.2354551 30.8564824,20.9795625 31.6041621,19.9633594 C32.3440488,19.6466309 33.1588594,19.4708438 34.015084,19.4708438 L49.9625039,19.4708438 C53.352668,19.4708438 56.0993555,22.2186445 56.0993555,25.6078066 Z" id="Shape" fill="#7CCC92"></path>
                    <path d="M44.3403223,41.6604316 L44.3403223,44.5280215 C44.3403223,45.0350098 43.9295215,45.4458105 43.4236465,45.4458105 L40.5549434,45.4458105 C40.0479551,45.4458105 39.6371543,45.0350098 39.6371543,44.5280215 L39.6371543,41.6604316 C39.6371543,41.1534434 40.0479551,40.7426426 40.5549434,40.7426426 L43.4236465,40.7426426 C43.9295215,40.7426426 44.3403223,41.153332 44.3403223,41.6604316 Z" id="Shape" fill="#2C733F"></path>
                    <path d="M51.8820234,25.0324629 L51.8820234,28.1048965 C51.8820234,29.1973594 50.9966309,30.0837539 49.903166,30.0837539 L34.0744219,30.0837539 C32.981959,30.0837539 32.0955645,29.197248 32.0955645,28.1048965 L32.0955645,25.0324629 C32.0955645,23.94 32.9820703,23.0536055 34.0744219,23.0536055 L49.903166,23.0536055 C50.9966309,23.0536055 51.8820234,23.9401113 51.8820234,25.0324629 Z" id="Shape" fill="#1E81CE"></path>
                    <path d="M51.8820234,25.0324629 L51.8820234,28.1048965 C51.8820234,29.1973594 50.9966309,30.0837539 49.903166,30.0837539 L37.4321895,30.0837539 C36.3397266,30.0837539 35.453332,29.197248 35.453332,28.1048965 L35.453332,25.0324629 C35.453332,23.94 36.3398379,23.0536055 37.4321895,23.0536055 L49.9030547,23.0536055 C50.9966309,23.0536055 51.8820234,23.9401113 51.8820234,25.0324629 Z" id="Shape" fill="#4DBAF6"></path>
                    <g id="Group" transform="translate(32.062500, 33.175781)" fill="#2C733F">
                        <path d="M4.7373457,8.48465039 L4.7373457,11.3522402 C4.7373457,11.8592285 4.32654492,12.2700293 3.81955664,12.2700293 L0.950853516,12.2700293 C0.444978516,12.2700293 0.0330644531,11.8592285 0.0330644531,11.3522402 L0.0330644531,8.48465039 C0.0330644531,7.97766211 0.444978516,7.56686133 0.950853516,7.56686133 L3.81955664,7.56686133 C4.32654492,7.56686133 4.7373457,7.97755078 4.7373457,8.48465039 Z" id="Shape"></path>
                        <path d="M12.2778223,0.985476562 L12.2778223,3.85306641 C12.2778223,4.36005469 11.8670215,4.77085547 11.3611465,4.77085547 L8.49244336,4.77085547 C7.98545508,4.77085547 7.5746543,4.36005469 7.5746543,3.85306641 L7.5746543,0.985476562 C7.5746543,0.478488281 7.98545508,0.0676875 8.49244336,0.0676875 L11.3611465,0.0676875 C11.8670215,0.0676875 12.2778223,0.478488281 12.2778223,0.985476562 Z" id="Shape"></path>
                    </g>
                    <path d="M51.9726445,34.1612578 L51.9726445,37.0288477 C51.9726445,37.5358359 51.5618438,37.9466367 51.0548555,37.9466367 L48.1872656,37.9466367 C47.6802773,37.9466367 47.2694766,37.5358359 47.2694766,37.0288477 L47.2694766,34.1612578 C47.2694766,33.6542695 47.6802773,33.2434687 48.1872656,33.2434687 L51.0548555,33.2434687 C51.5618438,33.2434687 51.9726445,33.6542695 51.9726445,34.1612578 Z" id="Shape" fill="#EE8700"></path>
                    <g id="Group" transform="translate(32.062500, 33.175781)" fill="#2C733F">
                        <path d="M4.7373457,0.985476562 L4.7373457,3.85306641 C4.7373457,4.36005469 4.32654492,4.77085547 3.81955664,4.77085547 L0.950853516,4.77085547 C0.444978516,4.77085547 0.0330644531,4.36005469 0.0330644531,3.85306641 L0.0330644531,0.985476562 C0.0330644531,0.478488281 0.444978516,0.0676875 0.950853516,0.0676875 L3.81955664,0.0676875 C4.32654492,0.0676875 4.7373457,0.478488281 4.7373457,0.985476562 Z" id="Shape"></path>
                        <path d="M12.2778223,15.6154395 L12.2778223,18.4841426 C12.2778223,18.9911309 11.8670215,19.4019316 11.3611465,19.4019316 L8.49244336,19.4019316 C7.98545508,19.4019316 7.5746543,18.9911309 7.5746543,18.4841426 L7.5746543,15.6154395 C7.5746543,15.1095645 7.98545508,14.6987637 8.49244336,14.6987637 L11.3611465,14.6987637 C11.8670215,14.6987637 12.2778223,15.1095645 12.2778223,15.6154395 Z" id="Shape"></path>
                        <path d="M4.7373457,15.6154395 L4.7373457,18.4841426 C4.7373457,18.9911309 4.32654492,19.4019316 3.81955664,19.4019316 L0.950853516,19.4019316 C0.444978516,19.4019316 0.0330644531,18.9911309 0.0330644531,18.4841426 L0.0330644531,15.6154395 C0.0330644531,15.1095645 0.444978516,14.6987637 0.950853516,14.6987637 L3.81955664,14.6987637 C4.32654492,14.6987637 4.7373457,15.1095645 4.7373457,15.6154395 Z" id="Shape"></path>
                    </g>
                    <path d="M51.9726445,42.1058555 L51.9726445,51.0118828 C51.9726445,51.877125 51.2719453,52.5777129 50.4079277,52.5777129 L48.8341934,52.5777129 C47.9700645,52.5777129 47.2694766,51.8770137 47.2694766,51.0118828 L47.2694766,42.1058555 C47.2694766,41.3526094 47.8805566,40.7425313 48.6328008,40.7425313 L50.6094316,40.7425313 C51.3626777,40.7426426 51.9726445,41.3526094 51.9726445,42.1058555 Z" id="Shape" fill="#EE8700"></path>
                    <g id="Group" transform="translate(32.062500, 33.175781)" fill="#317F46">
                        <path d="M12.2778223,8.48465039 L12.2778223,9.33753516 C12.2778223,9.84452344 11.8670215,10.2553242 11.3611465,10.2553242 L8.49244336,10.2553242 C7.98545508,10.2553242 7.5746543,9.84452344 7.5746543,9.33753516 L7.5746543,8.48465039 C7.5746543,7.97766211 7.98545508,7.56686133 8.49244336,7.56686133 L11.3611465,7.56686133 C11.8670215,7.56686133 12.2778223,7.97755078 12.2778223,8.48465039 Z" id="Shape"></path>
                        <path d="M4.7373457,8.48465039 L4.7373457,9.33753516 C4.7373457,9.84452344 4.32654492,10.2553242 3.81955664,10.2553242 L0.950853516,10.2553242 C0.444978516,10.2553242 0.0330644531,9.84452344 0.0330644531,9.33753516 L0.0330644531,8.48465039 C0.0330644531,7.97766211 0.444978516,7.56686133 0.950853516,7.56686133 L3.81955664,7.56686133 C4.32654492,7.56686133 4.7373457,7.97755078 4.7373457,8.48465039 Z" id="Shape"></path>
                        <path d="M12.2778223,0.985476562 L12.2778223,1.83836133 C12.2778223,2.34534961 11.8670215,2.75615039 11.3611465,2.75615039 L8.49244336,2.75615039 C7.98545508,2.75615039 7.5746543,2.34534961 7.5746543,1.83836133 L7.5746543,0.985476562 C7.5746543,0.478488281 7.98545508,0.0676875 8.49244336,0.0676875 L11.3611465,0.0676875 C11.8670215,0.0676875 12.2778223,0.478488281 12.2778223,0.985476562 Z" id="Shape"></path>
                    </g>
                    <path d="M51.9726445,34.1612578 L51.9726445,35.0141426 C51.9726445,35.5211309 51.5618438,35.9319316 51.0548555,35.9319316 L48.1872656,35.9319316 C47.6802773,35.9319316 47.2694766,35.5211309 47.2694766,35.0141426 L47.2694766,34.1612578 C47.2694766,33.6542695 47.6802773,33.2434687 48.1872656,33.2434687 L51.0548555,33.2434687 C51.5618438,33.2434687 51.9726445,33.6542695 51.9726445,34.1612578 Z" id="Shape" fill="#FF9811"></path>
                    <g id="Group" transform="translate(32.062500, 33.175781)" fill="#317F46">
                        <path d="M4.7373457,0.985476562 L4.7373457,1.83836133 C4.7373457,2.34534961 4.32654492,2.75615039 3.81955664,2.75615039 L0.950853516,2.75615039 C0.444978516,2.75615039 0.0330644531,2.34534961 0.0330644531,1.83836133 L0.0330644531,0.985476562 C0.0330644531,0.478488281 0.444978516,0.0676875 0.950853516,0.0676875 L3.81955664,0.0676875 C4.32654492,0.0676875 4.7373457,0.478488281 4.7373457,0.985476562 Z" id="Shape"></path>
                        <path d="M12.2778223,15.6154395 L12.2778223,16.4694375 C12.2778223,16.9764258 11.8670215,17.3872266 11.3611465,17.3872266 L8.49244336,17.3872266 C7.98545508,17.3872266 7.5746543,16.9764258 7.5746543,16.4694375 L7.5746543,15.6154395 C7.5746543,15.1095645 7.98545508,14.6987637 8.49244336,14.6987637 L11.3611465,14.6987637 C11.8670215,14.6987637 12.2778223,15.1095645 12.2778223,15.6154395 Z" id="Shape"></path>
                        <path d="M4.7373457,15.6154395 L4.7373457,16.4694375 C4.7373457,16.9764258 4.32654492,17.3872266 3.81955664,17.3872266 L0.950853516,17.3872266 C0.444978516,17.3872266 0.0330644531,16.9764258 0.0330644531,16.4694375 L0.0330644531,15.6154395 C0.0330644531,15.1095645 0.444978516,14.6987637 0.950853516,14.6987637 L3.81955664,14.6987637 C4.32654492,14.6987637 4.7373457,15.1095645 4.7373457,15.6154395 Z" id="Shape"></path>
                    </g>
                    <path d="M51.9726445,42.1058555 L51.9726445,48.9971777 C51.9726445,49.8624199 51.2719453,50.5630078 50.4079277,50.5630078 L48.8341934,50.5630078 C47.9700645,50.5630078 47.2694766,49.8623086 47.2694766,48.9971777 L47.2694766,42.1058555 C47.2694766,41.3526094 47.8805566,40.7425313 48.6328008,40.7425313 L50.6094316,40.7425313 C51.3626777,40.7426426 51.9726445,41.3526094 51.9726445,42.1058555 Z" id="Shape" fill="#FF9811"></path>
                    <path d="M44.5911445,8.80516406 L39.1493145,8.80516406 C38.2272949,8.80516406 37.4798379,8.05770703 37.4798379,7.1356875 L37.4798379,1.32747656 C37.9591055,1.55792578 38.3967363,1.87788281 38.7670137,2.27376563 L41.0925469,4.76105859 L43.7538457,7.54626562 C44.1082031,7.91654297 44.3901973,8.34304102 44.5911445,8.80516406 Z" id="Shape" fill="#FFB655"></path>
                    <path d="M25.0138711,53.5213301 C25.0138711,54.1066934 24.774293,54.6372832 24.3893203,55.0233691 C24.003123,55.4084531 23.4726445,55.6479199 22.8872812,55.6479199 L9.85899609,55.6479199 C8.68938281,55.6479199 7.73240625,54.6909434 7.73240625,53.5213301 C7.73240625,52.9359668 7.97198438,52.405377 8.35695703,52.019291 C8.7431543,51.6343184 9.27363281,51.3947402 9.85899609,51.3947402 L22.8872812,51.3947402 C24.0568945,51.3947402 25.0138711,52.3517168 25.0138711,53.5213301 Z" id="Shape" fill="#AA6100"></path>
                    <path d="M25.0138711,49.2680391 C25.0138711,49.8534023 24.774293,50.3839922 24.3893203,50.7700781 C24.003123,51.1550508 23.4726445,51.3946289 22.8872812,51.3946289 L9.85899609,51.3946289 C8.68938281,51.3946289 7.73240625,50.4376523 7.73240625,49.2680391 C7.73240625,48.6826758 7.97198438,48.1520859 8.35695703,47.766 C8.7431543,47.380916 9.27363281,47.1414492 9.85899609,47.1414492 L22.8872812,47.1414492 C24.0568945,47.1414492 25.0138711,48.0984258 25.0138711,49.2680391 Z" id="Shape" fill="#CC7400"></path>
                    <path d="M25.0138711,45.0148594 C25.0138711,45.6002227 24.774293,46.1308125 24.3893203,46.5168984 C24.003123,46.9019824 23.4726445,47.1414492 22.8872812,47.1414492 L9.85899609,47.1414492 C8.68938281,47.1414492 7.73240625,46.1844727 7.73240625,45.0148594 C7.73240625,44.4294961 7.97198438,43.8989063 8.35695703,43.5128203 C8.7431543,43.1278477 9.27363281,42.8882695 9.85899609,42.8882695 L22.8872812,42.8882695 C24.0568945,42.8882695 25.0138711,43.8452461 25.0138711,45.0148594 Z" id="Shape" fill="#EE8700"></path>
                    <path d="M25.0138711,40.7615684 C25.0138711,41.3469316 24.774293,41.8775215 24.3893203,42.2636074 C24.003123,42.6485801 23.4726445,42.8881582 22.8872812,42.8881582 L9.85899609,42.8881582 C8.68938281,42.8881582 7.73240625,41.9311816 7.73240625,40.7615684 C7.73240625,40.3452012 7.85442188,39.9556641 8.06371875,39.6265781 C8.14766016,39.4934297 8.24618555,39.3703008 8.35695703,39.259418 C8.7431543,38.874334 9.27363281,38.6348672 9.85899609,38.6348672 L22.8872812,38.6348672 C24.0568945,38.6349785 25.0138711,39.5919551 25.0138711,40.7615684 Z" id="Shape" fill="#FF9811"></path>
                    <path d="M22.8868359,38.6350898 L9.85899609,38.6350898 C8.68938281,38.6350898 7.73240625,37.6781133 7.73240625,36.5085 C7.73240625,35.3388867 8.68938281,34.3819102 9.85899609,34.3819102 L22.8868359,34.3819102 C24.0564492,34.3819102 25.0134258,35.3388867 25.0134258,36.5085 C25.0134258,37.6781133 24.0564492,38.6350898 22.8868359,38.6350898 Z" id="Shape" fill="#FFA733"></path>
                    <path d="M17.5321758,48.6720996 C17.3966895,45.4978008 15.1458574,42.9134297 12.1966641,42.221748 C11.5966055,42.0811406 10.9677129,42.0185742 10.3210078,42.0458496 L10.3210078,42.045627 L7.60961133,42.045627 C1.46218359,42.3121465 -1.40317969,49.9689609 3.30433008,54.1466602 C4.60130273,55.2996855 6.33156445,55.9705488 8.20221094,55.8902812 L10.3207852,55.8902812 L10.3207852,55.8879434 C10.5141621,55.8957363 10.7090977,55.8976289 10.9059258,55.8892793 C11.3480098,55.8702422 11.7778477,55.809791 12.1931016,55.7136035 C15.1995176,55.011791 17.4234082,52.3647422 17.5331777,49.218498 L17.5331777,49.2107051 C17.5400801,49.0324687 17.5400801,48.8533418 17.5321758,48.6720996 Z" id="Shape" fill="#CC7400"></path>
                    <path d="M17.5332891,49.2104824 L17.5332891,49.2182754 C17.4236309,52.3645195 15.1996289,55.0116797 12.1932129,55.7133809 C9.24613477,55.0205859 6.99530273,52.4373281 6.85992773,49.2641426 C6.85881445,49.2484453 6.85770117,49.2339727 6.85770117,49.2182754 L6.85770117,49.2104824 C6.74013867,45.8527148 9.03472266,42.9605215 12.1966641,42.221748 C15.1459687,42.9134297 17.3968008,45.4978008 17.5321758,48.6720996 C17.5400801,48.8533418 17.5400801,49.0324687 17.5332891,49.2104824 Z" id="Shape" fill="#EE8700"></path>
                    <path d="M49.9623926,18.6314297 L45.8534941,18.6314297 L45.8534941,10.5457793 C45.8534941,9.16119141 45.3028652,7.87067578 44.4017754,6.92716992 L41.7469336,4.14908789 C39.493875,1.82767383 39.209543,1.17183984 37.8675937,0.520458984 C37.2441562,0.209296875 36.422666,0 35.5943848,0 L16.201916,0 C13.3130625,0 10.9637051,2.3504707 10.9637051,5.23821094 L10.9637051,33.4863867 L9.85899609,33.4863867 C8.19241406,33.4863867 6.83699414,34.8418066 6.83699414,36.5083887 C6.83699414,37.3377832 7.17275977,38.0888027 7.71448242,38.6349785 C7.17275977,39.1811543 6.83699414,39.9321738 6.83699414,40.7615684 C6.83699414,41.0727305 6.88063477,41.2574238 6.89633203,41.3592891 C0.3384375,42.0263672 -2.27398828,50.1433008 2.52547852,54.5487773 C3.9749707,55.8795937 5.89894336,56.6339531 7.98523242,56.5488984 C8.6746875,56.5488984 22.8692461,56.543332 22.8871699,56.543332 C24.5526387,56.543332 25.9091719,55.1879121 25.9091719,53.5213301 C25.9091719,52.6919355 25.5734062,51.940916 25.0316836,51.3947402 C25.5408984,50.8809609 25.8677578,50.188166 25.9047187,49.4181094 L27.0385957,49.4181094 L27.0385957,50.023623 C27.0385957,53.8705664 30.1680293,57 34.0149727,57 L49.9623926,57 C53.8093359,57 56.9387695,53.8705664 56.9387695,50.023623 L56.9387695,25.6078066 C56.9388809,21.7608633 53.8093359,18.6314297 49.9623926,18.6314297 Z M38.3756953,3.16639453 C41.8924395,6.8835293 42.684873,7.72183008 42.8337188,7.87969336 C42.8337188,7.87969336 42.834832,7.87969336 42.8359453,7.88191992 C42.8370586,7.88191992 42.8370586,7.88191992 42.8370586,7.88191992 C42.8381719,7.88414648 42.8403984,7.88637305 42.8415117,7.88748633 L42.842625,7.88859961 C42.8448516,7.89193945 42.8470781,7.89416602 42.8493047,7.8952793 C42.850418,7.89639258 42.8515313,7.89750586 42.8526445,7.89973242 C42.8537578,7.9008457 42.8548711,7.9008457 42.8548711,7.90195898 C42.8559844,7.90307227 42.8570977,7.90307227 42.8582109,7.90529883 C42.8604375,7.90641211 42.8615508,7.90863867 42.8626641,7.90975195 L38.3754727,7.90975195 L38.3756953,3.16639453 Z M9.85899609,35.2772109 L22.8872812,35.2772109 C23.5656035,35.2772109 24.118459,35.8301777 24.118459,36.5083887 C24.118459,37.1878242 23.5654922,37.7395664 22.8872812,37.7395664 L9.85899609,37.7395664 C9.18067383,37.7395664 8.62781836,37.1877129 8.62781836,36.5083887 C8.62770703,35.8300664 9.18067383,35.2772109 9.85899609,35.2772109 Z M9.85899609,39.5303906 L22.8872813,39.5303906 C23.5656035,39.5303906 24.118459,40.0833574 24.118459,40.7615684 C24.118459,41.4410039 23.5654922,41.9927461 22.8872813,41.9927461 L13.8882949,41.9927461 C13.522248,41.8248633 13.1428418,41.6882637 12.754418,41.5830586 C12.1746211,41.4251953 11.5746738,41.3356875 10.9635938,41.3199902 C10.787918,41.3155371 10.6121309,41.3166504 10.4364551,41.3244434 L8.76541992,41.3244434 C8.67702539,41.1554473 8.62770703,40.9640742 8.62770703,40.761457 C8.62770703,40.0833574 9.18067383,39.5303906 9.85899609,39.5303906 Z M24.118459,45.0148594 C24.118459,45.6942949 23.5654922,46.2460371 22.8872812,46.2460371 L17.876291,46.2460371 C17.5360723,45.3404941 17.0234062,44.5066465 16.3563281,43.7836816 L22.8872812,43.7836816 C23.5654922,43.7836816 24.118459,44.3365371 24.118459,45.0148594 Z M5.50272656,43.4076152 C4.95766406,43.9247344 4.47294141,44.5391543 4.09242187,45.2163633 L3.04927734,45.2163633 C3.73093945,44.3712715 4.57825781,43.7702109 5.50272656,43.4076152 Z M2.09675391,46.8951914 L3.40074023,46.8951914 C3.37168359,47.0205469 3.22383984,47.5029316 3.15670898,48.237252 L1.77891211,48.237252 C1.83268359,47.7761309 1.93900195,47.3261426 2.09675391,46.8951914 Z M2.24114648,51.3331758 C2.04298242,50.8831875 1.90092773,50.4075938 1.82032617,49.9161914 L3.18810352,49.9161914 C3.43324805,51.3063457 3.44660742,51.0667676 3.50817188,51.3331758 L2.24114648,51.3331758 Z M3.35821289,53.0120039 C3.90772852,53.0108906 4.22679492,53.0142305 4.30171875,53.0097773 C4.63637109,53.5380293 5.03926758,54.0272051 5.50606641,54.4670625 C4.6945957,54.1481074 3.97274414,53.6612695 3.35821289,53.0120039 Z M10.9983281,54.8711836 C7.72227539,55.0122363 4.94864648,52.4748457 4.80993164,49.1908887 C4.5849375,43.9628086 10.829332,40.9519395 14.7613301,44.5615312 C18.6374414,48.1196895 16.2779531,54.6539824 10.9983281,54.8711836 Z M22.8872812,54.7525078 L15.6601934,54.7525078 C16.4604199,54.0752988 17.1174785,53.236998 17.584166,52.2901523 L22.8872812,52.2901523 C23.5656035,52.2901523 24.118459,52.8431191 24.118459,53.5213301 C24.118459,54.2006543 23.5654922,54.7525078 22.8872812,54.7525078 Z M24.1084395,49.4181094 C24.0345176,50.0269629 23.5151719,50.4993281 22.8872813,50.4993281 L18.2020371,50.4993281 C18.3643535,49.7225918 18.4102207,48.885293 18.310582,48.0369727 L22.8872813,48.0369727 C23.6416406,48.0368613 24.204627,48.7118438 24.1084395,49.4181094 Z M27.0385957,47.6271738 L25.422334,47.6271738 C25.3093359,47.451498 25.1783027,47.2891816 25.0316836,47.1414492 C26.2012969,45.9617051 26.2024102,44.0679023 25.0316836,42.8882695 C25.5734062,42.3420937 25.9091719,41.5910742 25.9091719,40.7616797 C25.9091719,39.9322852 25.5734062,39.1812656 25.0316836,38.6350898 C26.9142422,36.736834 25.5689531,33.486498 22.8871699,33.486498 L12.754418,33.486498 L12.754418,5.23821094 C12.754418,3.33772852 14.3012109,1.79082422 16.2018047,1.79082422 L36.5848711,1.79082422 L36.5848711,8.80527539 C36.5848711,9.30001758 36.985541,9.7006875 37.4802832,9.7006875 L43.9563516,9.7006875 C44.1432715,10.4259902 44.0279355,10.1864121 44.0626699,18.6313184 L34.0149727,18.6313184 C30.1680293,18.6313184 27.0385957,21.760752 27.0385957,25.6076953 L27.0385957,47.6271738 Z M55.2599414,50.023623 C55.2599414,52.944873 52.8837539,55.3211719 49.9623926,55.3211719 L34.015084,55.3211719 C31.0949473,55.3211719 28.7175352,52.9449844 28.7175352,50.023623 L28.7175352,25.6078066 C28.7175352,22.6865566 31.0948359,20.3102578 34.015084,20.3102578 L49.9625039,20.3102578 C52.8837539,20.3102578 55.2600527,22.6864453 55.2600527,25.6078066 L55.2600527,50.023623 L55.2599414,50.023623 Z" id="Shape" fill="#000000"></path>
                    <path d="M37.1199141,29.2443398 L34.0744219,29.2443398 C33.4477559,29.2443398 32.9349785,28.7315625 32.9349785,28.1048965 L32.9349785,25.0324629 C32.9349785,24.4057969 33.4477559,23.8930195 34.0744219,23.8930195 L49.903166,23.8930195 C50.5321699,23.8930195 51.0426094,24.4045723 51.0426094,25.0324629 L51.0426094,28.1048965 C51.0426094,28.7327871 50.5321699,29.2443398 49.903166,29.2443398 L40.739748,29.2443398 C40.2761777,29.2443398 39.900334,29.6201836 39.900334,30.0837539 C39.900334,30.5473242 40.2761777,30.923168 40.739748,30.923168 L49.903166,30.923168 C51.4578633,30.923168 52.7214375,29.6583691 52.7214375,28.1048965 L52.7214375,25.0324629 C52.7214375,23.4788789 51.457752,22.2141914 49.903166,22.2141914 L34.0744219,22.2141914 C32.5179434,22.2141914 31.2561504,23.4759844 31.2561504,25.0324629 L31.2561504,28.1048965 C31.2561504,29.661375 32.5179434,30.923168 34.0744219,30.923168 L37.1199141,30.923168 C37.5834844,30.923168 37.9593281,30.5473242 37.9593281,30.0837539 C37.9593281,29.6201836 37.5834844,29.2443398 37.1199141,29.2443398 Z" id="Shape" fill="#000000"></path>
                    <path d="M33.0133535,46.2852246 L35.8820566,46.2852246 C36.8513906,46.2852246 37.6392598,45.4972441 37.6392598,44.5280215 L37.6392598,41.6604316 C37.6392598,40.6910977 36.8512793,39.9032285 35.8820566,39.9032285 L33.0133535,39.9032285 C32.0451328,39.9032285 31.2561504,40.691209 31.2561504,41.6604316 L31.2561504,44.5280215 C31.2560391,45.4972441 32.0451328,46.2852246 33.0133535,46.2852246 Z M32.9349785,41.6604316 C32.9349785,41.616791 32.9708262,41.5820566 33.0133535,41.5820566 L35.8820566,41.5820566 C35.924584,41.5820566 35.9604316,41.616791 35.9604316,41.6604316 L35.9604316,44.5280215 C35.9604316,44.5716621 35.924584,44.6063965 35.8820566,44.6063965 L33.0133535,44.6063965 C32.9708262,44.6063965 32.9349785,44.5716621 32.9349785,44.5280215 L32.9349785,41.6604316 Z" id="Shape" fill="#000000"></path>
                    <path d="M51.0548555,32.4040547 L48.1872656,32.4040547 C47.2179316,32.4040547 46.4300625,33.1920352 46.4300625,34.1612578 L46.4300625,37.0288477 C46.4300625,37.9981816 47.218043,38.7860508 48.1872656,38.7860508 L51.0548555,38.7860508 C52.0241895,38.7860508 52.8120586,37.9980703 52.8120586,37.0288477 L52.8120586,34.1612578 C52.8120586,33.1920352 52.0240781,32.4040547 51.0548555,32.4040547 Z M51.1332305,37.0288477 C51.1332305,37.0724883 51.0984961,37.1072227 51.0548555,37.1072227 L48.1872656,37.1072227 C48.1447383,37.1072227 48.1088906,37.0724883 48.1088906,37.0288477 C48.143625,34.1915391 48.036082,34.0828828 48.1872656,34.0828828 L51.0548555,34.0828828 C51.0984961,34.0828828 51.1332305,34.1176172 51.1332305,34.1612578 L51.1332305,37.0288477 Z" id="Shape" fill="#000000"></path>
                    <path d="M33.0133535,38.7860508 L35.8820566,38.7860508 C36.8513906,38.7860508 37.6392598,37.9980703 37.6392598,37.0288477 L37.6392598,34.1612578 C37.6392598,33.1919238 36.8512793,32.4040547 35.8820566,32.4040547 L33.0133535,32.4040547 C32.0451328,32.4040547 31.2561504,33.1920352 31.2561504,34.1612578 L31.2561504,37.0288477 C31.2560391,37.9981816 32.0451328,38.7860508 33.0133535,38.7860508 Z M32.9349785,34.1612578 C32.9349785,34.1176172 32.9708262,34.0828828 33.0133535,34.0828828 L35.8820566,34.0828828 C35.924584,34.0828828 35.9604316,34.1176172 35.9604316,34.1612578 L35.9604316,37.0288477 C35.9604316,37.0724883 35.924584,37.1072227 35.8820566,37.1072227 L33.0133535,37.1072227 C32.9708262,37.1072227 32.9349785,37.0724883 32.9349785,37.0288477 L32.9349785,34.1612578 Z" id="Shape" fill="#000000"></path>
                    <path d="M37.1971758,47.6271738 C36.8747695,47.2645781 36.4047422,47.0351309 35.8820566,47.0351309 L33.0133535,47.0351309 C32.490668,47.0351309 32.0205293,47.2645781 31.6993477,47.6271738 C31.0893809,48.3110625 31.2964512,49.0565156 31.2561504,49.417998 L31.2561504,51.6599238 C31.2561504,52.6292578 32.0452441,53.417127 33.0133535,53.417127 L35.8820566,53.417127 C36.8513906,53.417127 37.6392598,52.6291465 37.6392598,51.6599238 L37.6392598,49.417998 C37.598959,49.0644199 37.8038027,48.3110625 37.1971758,47.6271738 Z M35.8820566,51.7382988 C33.0480879,51.7035645 32.9349785,51.8109961 32.9349785,51.6599238 C32.9349785,48.6233379 32.9013574,48.713959 33.0133535,48.713959 L35.8820566,48.713959 C36.0197695,48.713959 35.9347148,48.905332 35.9604316,49.417998 C35.9603203,49.4181094 36.0331289,51.7382988 35.8820566,51.7382988 Z" id="Shape" fill="#000000"></path>
                    <path d="M50.6093203,39.9031172 L48.6326895,39.9031172 C47.4183223,39.9031172 46.4299512,40.8914883 46.4299512,42.1058555 L46.4299512,51.0118828 C46.4299512,52.3382461 47.5089434,53.4172383 48.8341934,53.4172383 L50.4079277,53.4172383 C51.734291,53.4172383 52.8121699,52.3382461 52.8121699,51.0118828 L52.8121699,42.1058555 C52.8120586,40.8914883 51.8249121,39.9031172 50.6093203,39.9031172 Z M51.1332305,51.0118828 C51.1332305,51.4125527 50.8085977,51.7382988 50.4079277,51.7382988 L48.8341934,51.7382988 C48.4346367,51.7382988 48.1088906,51.4125527 48.1088906,51.0118828 L48.1088906,42.1058555 C48.1088906,41.8170703 48.3439043,41.5820566 48.6326895,41.5820566 L50.6093203,41.5820566 C50.8981055,41.5820566 51.1331191,41.8170703 51.1331191,42.1058555 L51.1332305,51.0118828 Z" id="Shape" fill="#000000"></path>
                    <path d="M21.6696855,24.3839766 C20.6461348,24.0079102 19.9066934,23.7362695 19.9066934,22.7879766 C19.9066934,21.9237363 20.4807012,21.4855488 21.6125742,21.4855488 C22.8141387,21.4855488 23.1376582,22.0144687 23.5609277,22.0144687 C24.0216035,22.0144687 24.2764336,21.5255156 24.2764336,21.1875234 C24.2764336,20.4881602 23.1356543,20.141373 22.1158887,20.0498613 L22.1158887,19.4192988 C22.1158887,18.980666 21.759082,18.6238594 21.3204492,18.6238594 C20.8818164,18.6238594 20.5250098,18.980666 20.5250098,19.4192988 L20.5250098,20.1503906 C19.130625,20.4814805 18.3644648,21.4445801 18.3644648,22.871584 C18.3644648,24.8253926 19.8028242,25.3658906 20.9588555,25.8004043 C22.0906172,26.2256777 22.9846934,26.561666 22.9846934,27.8538516 C22.9846934,28.9211543 22.3920937,29.4623203 21.2230371,29.4623203 C19.5121465,29.4623203 19.4961152,28.3071797 18.8435098,28.3071797 C18.4393887,28.3071797 18.1138652,28.7596172 18.1138652,29.134125 C18.1138652,29.7956367 19.0990078,30.6651094 20.5250098,30.8907715 L20.5250098,31.5000703 C20.5250098,31.9387031 20.8818164,32.2955098 21.3204492,32.2955098 C21.759082,32.2955098 22.1158887,31.9387031 22.1158887,31.5000703 L22.1158887,30.8744062 C23.6497676,30.5857324 24.5270332,29.4594258 24.5270332,27.7702441 C24.5269219,25.4338008 22.9427227,24.8517773 21.6696855,24.3839766 Z" id="Shape" fill="#000000"></path>
                    <path d="M43.4236465,47.0351309 L40.5549434,47.0351309 C40.0322578,47.0351309 39.5621191,47.2645781 39.2398242,47.6271738 C38.632084,48.3121758 38.838041,49.0565156 38.7977402,49.417998 L38.7977402,51.6599238 C38.7977402,52.6292578 39.5857207,53.417127 40.5549434,53.417127 L43.4236465,53.417127 C44.3918672,53.417127 45.1797363,52.6291465 45.1797363,51.6599238 L45.1797363,48.7912207 C45.1797363,48.2953652 44.972666,47.8466016 44.6413535,47.5275352 C44.3257383,47.2231641 43.8960117,47.0351309 43.4236465,47.0351309 Z M43.4236465,51.7382988 C40.5896777,51.7035645 40.4765684,51.8109961 40.4765684,51.6599238 L40.4765684,48.7912207 C40.4765684,48.7486934 40.512416,48.713959 40.5549434,48.713959 L43.4236465,48.713959 C43.4661738,48.713959 43.5009082,48.7486934 43.5009082,48.7912207 C43.4672871,51.6319805 43.5724922,51.7382988 43.4236465,51.7382988 Z" id="Shape" fill="#000000"></path>
                    <path d="M43.4236465,32.4040547 L40.5549434,32.4040547 C39.5856094,32.4040547 38.7977402,33.1920352 38.7977402,34.1612578 L38.7977402,37.0288477 C38.7977402,37.9981816 39.5857207,38.7860508 40.5549434,38.7860508 L43.4236465,38.7860508 C43.6497539,38.7860508 43.8646172,38.7435234 44.0627813,38.6651484 C44.7163887,38.4088711 45.1798477,37.7719629 45.1798477,37.0287363 L45.1798477,34.1611465 C45.1797363,33.188584 44.3873027,32.4040547 43.4236465,32.4040547 Z M43.5009082,37.0288477 C43.5009082,37.0724883 43.4661738,37.1072227 43.4236465,37.1072227 L40.5549434,37.1072227 C40.512416,37.1072227 40.4765684,37.0724883 40.4765684,37.0288477 L40.4765684,34.1612578 C40.4765684,34.0101855 40.5806602,34.1165039 43.4236465,34.0828828 C43.4661738,34.0828828 43.5009082,34.1176172 43.5009082,34.1612578 L43.5009082,37.0288477 Z" id="Shape" fill="#000000"></path>
                    <path d="M44.0627812,40.0240195 C43.8646172,39.9456445 43.6497539,39.9031172 43.4236465,39.9031172 L40.5549434,39.9031172 C39.5856094,39.9031172 38.7977402,40.6910977 38.7977402,41.6603203 L38.7977402,44.5279102 C38.7977402,45.4972441 39.5857207,46.2851133 40.5549434,46.2851133 L43.4236465,46.2851133 C44.3918672,46.2851133 45.1797363,45.4971328 45.1797363,44.5279102 L45.1797363,41.6603203 C45.1797363,40.9172051 44.7163887,40.2802969 44.0627812,40.0240195 Z M43.5009082,44.5279102 C43.5009082,44.5715508 43.4661738,44.6062852 43.4236465,44.6062852 L40.5549434,44.6062852 C40.512416,44.6062852 40.4765684,44.5715508 40.4765684,44.5279102 L40.4765684,41.6603203 C40.4765684,41.6166797 40.512416,41.5819453 40.5549434,41.5819453 L43.4236465,41.5819453 C43.4661738,41.5819453 43.5009082,41.6166797 43.5009082,41.6603203 L43.5009082,44.5279102 Z" id="Shape" fill="#000000"></path>
                    <path d="M36.4696465,13.1503008 L38.5783125,13.1503008 C39.0416602,13.1503008 39.4177266,12.7753477 39.4177266,12.3108867 C39.4177266,11.8475391 39.0416602,11.4714727 38.5783125,11.4714727 L36.4696465,11.4714727 C36.0062988,11.4714727 35.6302324,11.8475391 35.6302324,12.3108867 C35.6301211,12.7753477 36.0061875,13.1503008 36.4696465,13.1503008 Z" id="Shape" fill="#000000"></path>
                    <path d="M18.2255273,13.1503008 L33.1118789,13.1503008 C33.5752266,13.1503008 33.951293,12.7753477 33.951293,12.3108867 C33.951293,11.8475391 33.5752266,11.4714727 33.1118789,11.4714727 L18.2255273,11.4714727 C17.7621797,11.4714727 17.3861133,11.8475391 17.3861133,12.3108867 C17.386002,12.7753477 17.7621797,13.1503008 18.2255273,13.1503008 Z" id="Shape" fill="#000000"></path>
                    <path d="M20.8938398,17.3173125 C21.3571875,17.3173125 21.7332539,16.9412461 21.7332539,16.4778984 C21.7332539,16.0145508 21.3571875,15.6384844 20.8938398,15.6384844 L18.2255273,15.6384844 C17.7621797,15.6384844 17.3861133,16.0145508 17.3861133,16.4778984 C17.3861133,16.9412461 17.7621797,17.3173125 18.2255273,17.3173125 L20.8938398,17.3173125 Z" id="Shape" fill="#000000"></path>
                    <path d="M39.4178379,16.4778984 C39.4178379,16.0145508 39.0417715,15.6384844 38.5784238,15.6384844 L24.2516074,15.6384844 C23.7882598,15.6384844 23.4121934,16.0145508 23.4121934,16.4778984 C23.4121934,16.9412461 23.7882598,17.3173125 24.2516074,17.3173125 L38.5783125,17.3173125 C39.0416602,17.3173125 39.4178379,16.9412461 39.4178379,16.4778984 Z" id="Shape" fill="#000000"></path>
                    <path d="M10.4361211,47.2202695 C10.4361211,47.0093027 10.5138281,46.9487402 10.5865254,46.9084395 C10.8120762,46.7836406 11.3295293,46.7469023 11.8034531,46.9907109 C11.9293652,47.0553926 12.0720879,47.1287578 12.2577832,47.1287578 C13.0857305,47.1287578 13.7405625,45.5903145 11.7628184,45.250207 L11.7628184,45.1973262 C11.7628184,44.7283008 11.3811855,44.346668 10.9121602,44.346668 C10.4431348,44.346668 10.061502,44.7283008 10.061502,45.1973262 L10.061502,45.358752 C9.23277539,45.6593379 8.76397266,46.3427812 8.76397266,47.2704785 C8.76397266,48.7021582 9.80411133,49.0930312 10.5638145,49.3783652 C11.2882266,49.6505625 11.5387148,49.7696836 11.5387148,50.2624219 C11.5387148,50.5704668 11.4557754,50.8555781 10.8536016,50.8555781 C9.97611328,50.8555781 10.081207,50.1620039 9.42448242,50.1620039 C8.96035547,50.1620039 8.6133457,50.6210098 8.6133457,51.0314766 C8.6133457,51.6130547 9.21808008,52.1650195 10.061502,52.3887891 L10.061502,52.4524687 C10.061502,52.9214941 10.4431348,53.303127 10.9121602,53.303127 C11.3811855,53.303127 11.7628184,52.9216055 11.7628184,52.4524687 L11.7628184,52.3665234 C12.6754863,52.0731738 13.2108633,51.2873086 13.2108633,50.2123242 C13.2110859,47.6614629 10.4361211,48.0444316 10.4361211,47.2202695 Z" id="Shape" fill="#000000"></path>
                </g>
            </g>
        </g>
    </g>
</svg>