<?xml version="1.0" encoding="UTF-8"?>
<svg width="61px" height="57px" viewBox="0 0 61 57" version="1.1" xmlns="http://www.w3.org/2000/svg" xmlns:xlink="http://www.w3.org/1999/xlink">
    <!-- Generator: Sketch 51.3 (57544) - http://www.bohemiancoding.com/sketch -->
    <title>catalogue</title>
    <desc>Created with Sketch.</desc>
    <defs></defs>
    <g id="desktop" stroke="none" stroke-width="1" fill="none" fill-rule="evenodd">
        <g id="ecommerce" transform="translate(-317.000000, -4824.000000)" fill-rule="nonzero">
            <g id="Group-16" transform="translate(287.000000, 4824.000000)">
                <g id="catalogue" transform="translate(30.000000, 0.000000)">
                    <g id="Group" transform="translate(1.072266, 1.207627)" fill="#FFFFFF">
                        <path d="M29.4352402,54.5778623 C29.4352402,51.9064703 27.2986914,49.7409534 24.6634199,49.7409534 L0.118902344,49.7409534 L0.118902344,0.00676271186 L24.6633008,0.00676271186 C27.2988105,0.00676271186 29.4351211,2.17240042 29.4351211,4.84355085 L29.4351211,54.2083284" id="Shape"></path>
                        <path d="M29.4202285,54.5778623 C29.4202285,51.9064703 31.5567773,49.7409534 34.1920488,49.7409534 L58.7365664,49.7409534 L58.7365664,0.00676271186 L34.1920488,0.00676271186 C31.5566582,0.00676271186 29.4202285,2.17240042 29.4202285,4.84367161 L29.4202285,54.2084492" id="Shape"></path>
                    </g>
                    <rect id="Rectangle-path" fill="#FFDAAA" x="1.19116797" y="50.9485805" width="58.6026523" height="4.83654661"></rect>
                    <rect id="Rectangle-path" fill="#4DBAF6" x="5.95560156" y="8.45797881" width="19.772459" height="4.82930085"></rect>
                    <g id="Group" transform="translate(5.837891, 8.453390)" fill="#7CCC92">
                        <rect id="Rectangle-path" x="0.117710937" y="21.7364428" width="19.772459" height="14.4879025"></rect>
                        <rect id="Rectangle-path" x="29.4345254" y="0.00458898305" width="19.772459" height="14.4879025"></rect>
                    </g>
                    <path d="M25.7279414,7.25095551 L5.95560156,7.25095551 C5.29782617,7.25095551 4.76443359,7.79161017 4.76443359,8.4583411 L4.76443359,13.2876419 C4.76443359,13.9543729 5.29782617,14.4950275 5.95560156,14.4950275 L25.7280605,14.4950275 C26.3858359,14.4950275 26.9192285,13.9543729 26.9192285,13.2876419 L26.9192285,8.4583411 C26.9191094,7.79161017 26.3857168,7.25095551 25.7279414,7.25095551 Z M24.5368926,12.0802564 L7.14665039,12.0802564 L7.14665039,9.66560593 L24.5368926,9.66560593 L24.5368926,12.0802564 Z" id="Shape" fill="#000000"></path>
                    <path d="M25.7279414,17.8754174 L5.95560156,17.8754174 C5.29782617,17.8754174 4.76443359,18.416072 4.76443359,19.082803 C4.76443359,19.7495339 5.29782617,20.2901886 5.95560156,20.2901886 L25.7280605,20.2901886 C26.3858359,20.2901886 26.9192285,19.7495339 26.9192285,19.082803 C26.9191094,18.416072 26.3857168,17.8754174 25.7279414,17.8754174 Z" id="Shape" fill="#000000"></path>
                    <path d="M25.7279414,22.7047182 L5.95560156,22.7047182 C5.29782617,22.7047182 4.76443359,23.2453729 4.76443359,23.9121038 C4.76443359,24.5788347 5.29782617,25.1194894 5.95560156,25.1194894 L25.7280605,25.1194894 C26.3858359,25.1194894 26.9192285,24.5788347 26.9192285,23.9121038 C26.9191094,23.2453729 26.3857168,22.7047182 25.7279414,22.7047182 Z" id="Shape" fill="#000000"></path>
                    <path d="M25.7279414,28.9829301 L5.95560156,28.9829301 C5.29782617,28.9829301 4.76443359,29.5235847 4.76443359,30.1903157 L4.76443359,44.6782182 C4.76443359,45.3449492 5.29782617,45.8856038 5.95560156,45.8856038 L25.7280605,45.8856038 C26.3858359,45.8856038 26.9192285,45.3449492 26.9192285,44.6782182 L26.9192285,30.1903157 C26.9191094,29.523464 26.3857168,28.9829301 25.7279414,28.9829301 Z M23.5669688,31.3975805 L16.2586445,38.8055275 L14.0040273,36.520214 C13.5387832,36.0488771 12.7848613,36.0488771 12.319498,36.520214 L7.14665039,41.7633686 L7.14665039,31.3975805 L23.5669688,31.3975805 Z M8.83129883,43.4708326 L13.1618223,39.0813496 L15.4164395,41.3666631 C15.8816836,41.838 16.6356055,41.838 17.1009687,41.3666631 L24.5368926,33.8293792 L24.5368926,43.4707119 L8.83129883,43.4707119 L8.83129883,43.4708326 Z" id="Shape" fill="#000000"></path>
                    <path d="M61,1.21438983 C61,0.547658898 60.4666074,0.00700423729 59.808832,0.00700423729 L35.2644336,0.00700423729 C33.3194629,0.00700423729 31.5893027,0.95607839 30.5001191,2.42105085 C29.4109355,0.95607839 27.6807754,0.00700423729 25.7358047,0.00700423729 L1.19116797,0.00700423729 C0.533392578,0.00700423729 0,0.547658898 0,1.21438983 L0,50.948822 L0,55.7857309 C0,56.4524619 0.533392578,56.9931165 1.19116797,56.9931165 L6.67032617,56.9931165 C7.32810156,56.9931165 7.86149414,56.4524619 7.86149414,55.7857309 C7.86149414,55.119 7.32810156,54.5783453 6.67032617,54.5783453 L2.3822168,54.5783453 L2.3822168,52.1560869 L25.7355664,52.1560869 C27.2924961,52.1560869 28.6198418,53.168803 29.1118926,54.5783453 L6.46215039,54.5783453 C5.804375,54.5783453 5.27098242,55.119 5.27098242,55.7857309 C5.27098242,56.4524619 5.804375,56.9931165 6.46215039,56.9931165 L59.7937012,56.9931165 C60.4514766,56.9931165 60.9848691,56.4524619 60.9848691,55.7857309 L61,1.21438983 Z M35.2644336,2.42165466 L58.6177832,2.42165466 L58.6177832,49.7414364 L35.2644336,49.7414364 C33.9286289,49.7414364 32.6939746,50.1893453 31.6986738,50.9443538 L31.6986738,6.05129873 C31.6986738,5.96942161 31.6958145,5.88814831 31.6925977,5.80711653 C31.8170996,3.91935381 33.3710508,2.42165466 35.2644336,2.42165466 Z M25.7355664,49.7414364 L2.3822168,49.7414364 L2.3822168,2.42165466 L25.7355664,2.42165466 C27.6289492,2.42165466 29.1829004,3.91923305 29.3074023,5.80699576 C29.3041855,5.88814831 29.3013262,5.96930085 29.3013262,6.05117797 L29.3013262,50.9442331 C28.3061445,50.1893453 27.0716094,49.7414364 25.7355664,49.7414364 Z M31.8881074,54.5782246 C32.3801582,53.168803 33.7075039,52.1559661 35.2644336,52.1559661 L58.6026523,52.1559661 L58.6026523,54.5782246 L31.8881074,54.5782246 Z" id="Shape" fill="#000000"></path>
                    <path d="M35.2720586,31.3975805 L55.0445176,31.3975805 C55.702293,31.3975805 56.2356855,30.8569258 56.2356855,30.1901949 C56.2356855,29.523464 55.702293,28.9828093 55.0445176,28.9828093 L35.2720586,28.9828093 C34.6142832,28.9828093 34.0810098,29.523464 34.0810098,30.1901949 C34.0810098,30.8569258 34.6141641,31.3975805 35.2720586,31.3975805 Z" id="Shape" fill="#000000"></path>
                    <path d="M35.2720586,36.2268814 L55.0445176,36.2268814 C55.702293,36.2268814 56.2356855,35.6862267 56.2356855,35.0194958 C56.2356855,34.3527648 55.702293,33.8121102 55.0445176,33.8121102 L35.2720586,33.8121102 C34.6142832,33.8121102 34.0810098,34.3527648 34.0810098,35.0194958 C34.0810098,35.6862267 34.6141641,36.2268814 35.2720586,36.2268814 Z" id="Shape" fill="#000000"></path>
                    <path d="M35.2720586,41.0561822 L55.0445176,41.0561822 C55.702293,41.0561822 56.2356855,40.5155275 56.2356855,39.8487966 C56.2356855,39.1820657 55.702293,38.641411 55.0445176,38.641411 L35.2720586,38.641411 C34.6142832,38.641411 34.0810098,39.1820657 34.0810098,39.8487966 C34.0810098,40.5155275 34.6141641,41.0561822 35.2720586,41.0561822 Z" id="Shape" fill="#000000"></path>
                    <path d="M35.2720586,45.8854831 L55.0445176,45.8854831 C55.702293,45.8854831 56.2356855,45.3448284 56.2356855,44.6780975 C56.2356855,44.0113665 55.702293,43.4707119 55.0445176,43.4707119 L35.2720586,43.4707119 C34.6142832,43.4707119 34.0810098,44.0113665 34.0810098,44.6780975 C34.0810098,45.3448284 34.6141641,45.8854831 35.2720586,45.8854831 Z" id="Shape" fill="#000000"></path>
                    <path d="M45.1502461,9.66560593 C45.4634668,9.66560593 45.7708496,9.53638983 45.992332,9.31177119 C46.215125,9.08727331 46.3412949,8.77582627 46.3412949,8.4583411 C46.3412949,8.14085593 46.2150059,7.82928814 45.992332,7.60479025 C45.7707305,7.38017161 45.4646582,7.25107627 45.1502461,7.25107627 C44.8370254,7.25107627 44.5296426,7.38017161 44.3082793,7.60479025 C44.0866777,7.8294089 43.9591973,8.14085593 43.9591973,8.4583411 C43.9591973,8.77582627 44.0866777,9.08739407 44.3082793,9.31177119 C44.5307148,9.53638983 44.8370254,9.66560593 45.1502461,9.66560593 Z" id="Shape" fill="#000000"></path>
                    <path d="M35.2720586,24.1535085 L55.0445176,24.1535085 C55.702293,24.1535085 56.2356855,23.6128538 56.2356855,22.9461229 L56.2356855,8.4583411 C56.2356855,7.79161017 55.702293,7.25095551 55.0445176,7.25095551 L50.6222559,7.25095551 C49.9644805,7.25095551 49.4310879,7.79161017 49.4310879,8.4583411 C49.4310879,9.12507203 49.9644805,9.66572669 50.6222559,9.66572669 L53.8533496,9.66572669 L53.8533496,21.7389788 L36.4631074,21.7389788 L36.4631074,9.66572669 L39.6639395,9.66572669 C40.3217148,9.66572669 40.8549883,9.12507203 40.8549883,8.4583411 C40.8549883,7.79161017 40.3215957,7.25095551 39.6639395,7.25095551 L35.2719395,7.25095551 C34.6141641,7.25095551 34.0808906,7.79161017 34.0808906,8.4583411 L34.0808906,22.9462436 C34.0808906,23.6130953 34.6141641,24.1535085 35.2720586,24.1535085 Z" id="Shape" fill="#000000"></path>
                </g>
            </g>
        </g>
    </g>
</svg>