<?xml version="1.0" encoding="UTF-8"?>
<svg width="149px" height="164px" viewBox="0 0 149 164" version="1.1" xmlns="http://www.w3.org/2000/svg" xmlns:xlink="http://www.w3.org/1999/xlink">
    <!-- Generator: Sketch 51.3 (57544) - http://www.bohemiancoding.com/sketch -->
    <title>Shape</title>
    <desc>Created with Sketch.</desc>
    <defs></defs>
    <g id="desktop" stroke="none" stroke-width="1" fill="none" fill-rule="evenodd" opacity="0.796707589">
        <g id="ecommerce" transform="translate(-1051.000000, -3071.000000)" fill="#EFF8FF" fill-rule="nonzero" stroke="#DFF1FF" stroke-width="4">
            <g id="Group-12" transform="translate(740.000000, 2765.000000)">
                <g id="Group-50">
                    <path d="M359.558311,332.885238 L369.307575,323.655206 C375.821952,317.246022 374.137184,310.016335 365.553456,308.007574 L324.261515,308.007574 C317.415571,308.255829 312.834216,310.324339 313.060591,319.374282 L313,360.711666 C314.737784,369.234803 320.688328,370.89769 326.23998,364.412768 L337.200223,354.054227 L371.842299,388.681156 C374.851654,391.682936 379.733439,391.69051 382.735219,388.696304 L393.620565,377.810958 C396.622345,374.816751 396.614771,369.927392 393.612991,366.925612 C393.612991,366.925612 359.558311,332.885238 359.558311,332.885238 Z M382.524834,415.619757 C379.538201,412.62555 374.66399,412.62555 371.669783,415.634904 L337.1329,450.141492 L326.202111,439.7981 C320.67318,433.328325 314.737784,434.991212 313,443.484054 L313.067323,484.723819 C312.849364,493.720745 317.400423,495.811976 324.238793,496.045084 L365.433116,496.045084 C373.978975,494.021175 375.663742,486.822625 369.172087,480.450469 L359.453118,471.24989 L393.380725,437.307135 C396.374932,434.312929 396.382506,429.438718 393.388299,426.459659 C393.387458,426.459659 382.524834,415.619757 382.524834,415.619757 Z M431.39991,388.68873 C434.386542,391.682936 439.268327,391.675362 442.262534,388.673582 L476.806991,354.046653 L487.73778,364.405194 C493.251563,370.890116 499.186959,369.227229 500.924743,360.704092 L500.864152,319.366708 C501.082953,310.316765 496.515905,308.248255 489.694365,308 L448.469747,308 C439.916315,310.016335 438.276149,317.24518 444.768646,323.647632 L454.502762,332.885238 L420.552433,366.910464 C417.558227,369.912245 417.558227,374.801604 420.552433,377.79581 C420.552433,377.79581 431.39991,388.68873 431.39991,388.68873 Z M487.768075,439.790526 L476.867582,450.133918 L442.443465,415.62733 C439.449259,412.617976 434.582621,412.617976 431.611137,415.612183 L420.786382,426.452085 C417.807323,429.431144 417.814897,434.306197 420.80153,437.299561 L454.630676,471.227169 L444.919282,480.442895 C438.457081,486.829357 440.112394,494.036323 448.635531,496.03751 L489.732234,496.03751 C496.540309,495.804403 501.11409,493.713171 500.873409,484.716245 L500.934,443.47648 C499.194533,434.99037 493.274285,433.328325 487.768075,439.790526 Z" id="Shape"></path>
                </g>
            </g>
        </g>
    </g>
</svg>