<?xml version="1.0" encoding="UTF-8"?>
<svg width="61px" height="61px" viewBox="0 0 61 61" version="1.1" xmlns="http://www.w3.org/2000/svg" xmlns:xlink="http://www.w3.org/1999/xlink">
    <!-- Generator: Sketch 52.3 (67297) - http://www.bohemiancoding.com/sketch -->
    <title>Artboard</title>
    <desc>Created with Sketch.</desc>
    <g id="Artboard" stroke="none" stroke-width="1" fill="none" fill-rule="evenodd">
        <g id="business" transform="translate(2.000000, 0.000000)" fill-rule="nonzero">
            <path d="M43.3567901,0.262109375 C43.1897119,0.0953125 42.9593827,0 42.7242798,0 L20.0493827,0 C19.8130864,0 19.5827572,0.0953125 19.4168724,0.262109375 C19.2497942,0.427714844 19.154321,0.657537109 19.154321,0.893554688 L19.154321,8.92527344 C19.154321,9.41851562 19.5553086,9.82001953 20.0493827,9.82001953 C20.5422634,9.82001953 20.9444444,9.41851562 20.9444444,8.92527344 L20.9444444,1.78710938 L41.8292181,1.78710938 L41.8292181,19.0636914 L30.7901235,19.0636914 C30.676749,19.0636914 30.5621811,19.0863281 30.4583539,19.1280273 L25.718107,21.0187891 L25.718107,19.9572461 C25.718107,19.7225391 25.6226337,19.4925977 25.4555556,19.3258008 C25.2896708,19.1590039 25.0581481,19.0636914 24.8230453,19.0636914 L20.9444444,19.0636914 L20.9444444,8.49949219 C20.9444444,8.00744141 20.5422634,7.60712891 20.0493827,7.60712891 C19.5553086,7.60712891 19.154321,8.00744141 19.154321,8.49949219 L19.154321,19.9572461 C19.154321,20.1931445 19.2497942,20.4230859 19.4168724,20.5898828 C19.5826379,20.7554883 19.8130864,20.8508008 20.0492634,20.8508008 L23.9278642,20.8508008 L23.9278642,22.3388672 C23.9278642,22.6355273 24.0746543,22.9119336 24.3204979,23.0787305 C24.4696749,23.1788086 24.6427202,23.2324219 24.8229259,23.2324219 C24.9374938,23.2324219 25.0496749,23.2108574 25.1546955,23.1680859 L30.961856,20.8508008 L42.7242798,20.8508008 C42.9593827,20.8508008 43.1895926,20.7554883 43.3567901,20.5898828 C43.5238683,20.4232051 43.6193416,20.1932637 43.6193416,19.9572461 L43.6193416,0.893554688 C43.6193416,0.657537109 43.5238683,0.427714844 43.3567901,0.262109375 Z" id="Shape" fill="#42566C"></path>
            <path d="M53.4649012,50.8732852 L50.7801934,50.8732852 L50.7811481,48.8949551 C52.9729753,46.9831055 54.359963,44.174127 54.359963,41.0476387 L54.359963,37.6194863 C55.0593045,34.107459 54.7385144,31.5030449 53.4049918,29.8791582 C52.5644691,28.855502 51.5226173,28.4653164 50.779716,28.3193691 L50.779716,24.3646152 C50.779716,23.8710156 50.3790864,23.4710605 49.8846543,23.4710605 C49.5450082,23.4710605 49.1970082,23.4691543 48.8428025,23.4673672 C48.4724856,23.4653418 48.0952469,23.4634355 47.7137119,23.4634355 C43.3956955,23.4634355 38.5479218,23.7361484 35.6682099,26.9926191 C33.5967984,29.335043 32.8795556,32.7944102 33.47507,37.5681367 L33.47507,41.0477578 C33.47507,44.1750801 34.8627737,46.9847734 37.0555556,48.896623 L37.0555556,50.8735234 L34.3703704,50.8735234 C31.9026255,50.8735234 29.8950617,52.877707 29.8950617,55.3412969 L29.8950617,60.1064453 C29.8950617,60.6000449 30.2956914,61 30.7901235,61 L34.3703704,61 L40.3374486,61 L57.0451481,61 C57.5395802,61 57.9402099,60.6000449 57.9402099,60.1064453 L57.9402099,55.3457051 C57.9402099,55.3440371 57.9403292,55.3427266 57.9403292,55.3410586 C57.9403292,52.8774688 55.9326461,50.8732852 53.4649012,50.8732852 Z M37.0104444,28.175209 C39.3969177,25.4763164 43.7866584,25.2503066 47.7139506,25.2503066 C48.0922634,25.2503066 48.4662798,25.252332 48.8334938,25.2542383 C48.8857654,25.2544766 48.9377984,25.2547148 48.9898313,25.2550723 L48.9898313,29.1301211 C48.9898313,29.3767422 49.087572,29.6127598 49.2676584,29.7817012 C49.4478642,29.9506426 49.6857119,30.0380918 49.9320329,30.0223652 C50.0135432,30.0175996 51.1935926,30.0048516 52.0208683,31.0120664 C52.6317778,31.7560996 52.9365761,32.8977051 52.9297737,34.3777891 L52.5407202,33.6012305 C52.3436872,33.2074707 51.8883992,33.0155352 51.4684362,33.1494492 C51.4152099,33.1663672 46.1119095,34.8419609 43.0527078,34.8419609 C40.1183374,34.8419609 37.4632263,33.2536973 37.4378066,33.2383281 C37.0443374,32.9979023 36.5321235,33.0960742 36.2551317,33.4645762 L35.0738889,35.0369941 C35.0016872,32.015707 35.65007,29.7134336 37.0104444,28.175209 Z M35.2654321,41.0475195 L35.2654321,37.7605488 L37.2250206,35.1522031 C38.3286914,35.7001309 40.5670617,36.6290703 43.0527078,36.6290703 C45.7037613,36.6290703 49.6506255,35.5541836 51.2776091,35.0752383 L52.5699588,37.6557051 L52.5699588,41.0475195 C52.5699588,45.808498 48.6886132,49.6818789 43.9176955,49.6818789 C39.1467778,49.6818789 35.2654321,45.808498 35.2654321,41.0475195 Z M48.990428,50.1536758 L48.9898313,51.2883711 L46.2412757,53.1181328 L44.8126379,52.4056719 L44.8126379,51.4302676 C46.3183704,51.3020723 47.7337613,50.853627 48.990428,50.1536758 Z M43.0226337,51.4303867 L43.0226337,52.35325 L41.0867942,53.1262344 L38.8459177,51.3372187 L38.8459177,50.1542715 C40.1022263,50.8539844 41.5172593,51.3021914 43.0226337,51.4303867 Z M39.4423868,59.2128906 L35.2655514,59.2128906 L35.2655514,57.4257812 L39.4423868,57.4257812 L39.4423868,59.2128906 Z M56.1500864,55.3410586 L56.1502058,59.2128906 L41.2325103,59.2128906 L41.2325103,56.5322266 C41.2325103,56.038627 40.8318807,55.6386719 40.3374486,55.6386719 L34.3706091,55.6386719 C33.876177,55.6386719 33.4755473,56.038627 33.4755473,56.5322266 L33.4755473,59.2128906 L31.6854239,59.2128906 L31.6854239,55.3410586 C31.6854239,53.863 32.8900576,52.6603945 34.3706091,52.6603945 L37.6369877,52.6603945 L40.3761152,54.8469824 C40.3839918,54.8532969 40.3929424,54.8574668 40.4009383,54.863543 C40.4262387,54.882248 40.4521358,54.8996426 40.4789877,54.9156074 C40.4952181,54.9252578 40.5113292,54.9346699 40.5277984,54.9431289 C40.5534568,54.9561152 40.5798313,54.9673145 40.6063251,54.9777988 C40.624107,54.9848281 40.6416502,54.9924531 40.6596708,54.998291 C40.6891481,55.0078223 40.7193416,55.0146133 40.7497737,55.0210469 C40.76493,55.0242637 40.7797284,55.028791 40.7948848,55.031293 C40.84107,55.0386797 40.8878519,55.0429688 40.9352305,55.0429688 C40.9664979,55.0429688 40.9976461,55.0408242 41.0291523,55.0376074 C41.034642,55.0368926 41.0401317,55.0358203 41.0457407,55.0351055 C41.0703251,55.032127 41.0947901,55.0280762 41.1193745,55.0229531 C41.1293992,55.0208086 41.1393045,55.0181875 41.1493292,55.0156855 C41.1685432,55.0109199 41.1877572,55.0056777 41.2068519,54.9994824 C41.2192634,54.9955508 41.2316749,54.9912617 41.2440864,54.9867344 C41.2517243,54.9839941 41.2597202,54.9818496 41.267358,54.978752 L43.8768807,53.936748 L45.9058066,54.9484902 C45.9195309,54.9554004 45.9337325,54.9602852 45.9475761,54.9663613 C45.9638066,54.9733906 45.979679,54.9810156 45.9960288,54.9870918 C46.018465,54.9953125 46.0409012,55.001627 46.0634568,55.0079414 C46.0743169,55.0109199 46.0849383,55.0149707 46.0957984,55.0174727 C46.1275432,55.0250977 46.1591687,55.0306973 46.1911523,55.0348672 C46.1938971,55.0351055 46.1964033,55.0358203 46.1990288,55.0362969 C46.2343539,55.0404668 46.2697984,55.0428496 46.3050041,55.0428496 C46.3471317,55.0428496 46.3887819,55.039752 46.4301934,55.0339141 C46.448214,55.031293 46.4661152,55.0262891 46.4841358,55.0225957 C46.50693,55.0179492 46.529963,55.0140176 46.5522798,55.0077031 C46.5704198,55.0023418 46.588321,54.9949551 46.6062222,54.9886406 C46.6285391,54.9806582 46.6507366,54.9730332 46.6723374,54.963502 C46.6880905,54.9562344 46.7033663,54.9475371 46.7188807,54.9395547 C46.7421523,54.9274023 46.7653045,54.9151309 46.7875021,54.9009531 C46.7922757,54.8978555 46.7975267,54.8958301 46.8023004,54.8926133 L50.155679,52.6603945 L53.4650206,52.6603945 C54.9446173,52.6603945 56.148535,53.861332 56.1502058,55.3380801 C56.1502058,55.3390332 56.1500864,55.3401055 56.1500864,55.3410586 Z" id="Shape" fill="#42566C"></path>
            <path d="M23.6295103,50.8732852 L19.7513868,50.8732852 L19.7519835,49.7949434 C22.6220288,47.9357539 24.524572,44.7093066 24.524572,41.0475195 L24.524572,39.0783633 L25.7152428,39.5028613 C25.8131029,39.5377695 25.9149012,39.5549258 26.0162222,39.5549258 C26.1984568,39.5549258 26.3790206,39.4992871 26.5318971,39.3918223 C26.7698642,39.2244297 26.9114033,38.9520742 26.9114033,38.6613711 C26.9114033,33.2987324 25.8771893,29.3166953 23.8374033,26.8262988 C22.1617284,24.7802969 19.8583169,23.7429395 16.9910165,23.7429395 C13.648856,23.7429395 10.516856,25.1763203 9.40399588,25.7461699 L7.30644856,24.7492012 C7.04007819,24.6225547 6.72835802,24.6350645 6.4733251,24.7825605 C6.11434568,24.9899844 2.9898642,27.040752 3.63979835,35.1203926 L3.63979835,41.0475195 C3.63979835,44.7097832 5.54281893,47.9364688 8.41346091,49.7956582 L8.41346091,50.8732852 L4.53497942,50.8732852 C2.06723457,50.8732852 0.0596707819,52.8774688 0.0596707819,55.3410586 L0.0596707819,60.1064453 C0.0596707819,60.6000449 0.460419753,61 0.95473251,61 L27.2096379,61 C27.7039506,61 28.1046996,60.6000449 28.1046996,60.1064453 L28.1046996,55.3457051 C28.1046996,55.3440371 28.1049383,55.3427266 28.1049383,55.3410586 C28.1048189,52.8774688 26.0972551,50.8732852 23.6295103,50.8732852 Z M7.06752675,26.6149434 L9.04322634,27.5540098 C9.30828395,27.6801797 9.61904938,27.6677891 9.87372428,27.5220801 C9.90857202,27.5020645 13.3968066,25.5300488 16.9911358,25.5300488 C22.1160206,25.5300488 24.8409465,29.5175664 25.1008724,37.3860898 L9.6096214,31.8628496 C9.512,31.8280605 9.41020165,31.8109043 9.30864198,31.8109043 C9.17104115,31.8109043 9.0339177,31.8425957 8.90837037,31.9052637 L5.35211111,33.6803398 C5.22167078,29.20375 6.46186831,27.2811777 7.06752675,26.6149434 Z M5.43004115,41.0475195 L5.43004115,35.63925 L9.36735802,33.6740254 L22.7345679,38.4400078 L22.7345679,41.0475195 C22.7345679,45.808498 18.8532222,49.6818789 14.0823045,49.6818789 C9.31138683,49.6818789 5.43004115,45.808498 5.43004115,41.0475195 Z M17.9613827,50.7229297 L17.960786,51.7663633 L17.960786,51.7666016 L17.960786,51.7667207 C17.960786,53.9018398 16.220786,55.638791 14.0821852,55.638791 C11.9435844,55.638791 10.2035844,53.9018398 10.2035844,51.7667207 L10.2035844,50.723168 C11.4034444,51.2037812 12.7123827,51.4689883 14.0821852,51.4689883 C15.4523457,51.4689883 16.7614033,51.2036621 17.9613827,50.7229297 Z M26.3145761,55.3410586 L26.3146955,59.2128906 L1.84979424,59.2128906 L1.84979424,55.3410586 C1.84979424,53.863 3.05430864,52.6603945 4.53497942,52.6603945 L8.4849465,52.6603945 C8.91553086,55.3576191 11.2611893,57.4259004 14.0823045,57.4259004 C16.9034198,57.4259004 19.2490782,55.3576191 19.6796626,52.6603945 L23.6296296,52.6603945 C25.1092263,52.6603945 26.3130247,53.861332 26.3146955,55.3380801 C26.3146955,55.3390332 26.3145761,55.3401055 26.3145761,55.3410586 Z" id="Shape" fill="#42566C"></path>
            <path d="M34.1291811,4.70724609 C33.3964239,3.97691406 32.4225967,3.57421875 31.3868313,3.57302734 C30.3497531,3.57421875 29.3758066,3.97691406 28.6443621,4.70724609 C27.9116049,5.43876953 27.5082305,6.41095703 27.5082305,7.44509766 C27.5082305,7.93833984 27.9092181,8.33865234 28.4032922,8.33865234 C28.8961728,8.33865234 29.2983539,7.93833984 29.2983539,7.44509766 L29.2983539,7.44378711 C29.2995473,6.88740039 29.516749,6.36556445 29.9105761,5.97240039 C30.3044033,5.57923633 30.8281934,5.36120898 31.3868313,5.36001758 C31.9441564,5.36120898 32.4680658,5.57923633 32.8617737,5.97240039 C33.2567942,6.36556445 33.4741152,6.88847266 33.4753086,7.44497852 C33.4741152,8.00255664 33.2569136,8.52546484 32.8617737,8.91862891 C32.4706914,9.30905273 31.9511975,9.52648438 31.3981687,9.53053516 C31.3943498,9.53041602 31.3905309,9.52993945 31.3867119,9.52993945 C30.8925185,9.52993945 30.4916502,9.93132422 30.4916502,10.4246855 L30.4916502,12.807498 C30.4916502,13.2995488 30.8925185,13.7010527 31.3867119,13.7010527 C31.8795926,13.7010527 32.2817737,13.2995488 32.2817737,12.807498 L32.2817737,11.2131582 L32.281893,11.2131582 C32.9755062,11.050293 33.6124321,10.698709 34.1291811,10.1829492 C34.8607449,9.45261719 35.2642387,8.48042969 35.2654321,7.44509766 C35.2642387,6.41083789 34.8607449,5.43865039 34.1291811,4.70724609 Z" id="Shape" fill="#E83F67"></path>
            <path d="M31.3868313,14.296875 C30.8926379,14.296875 30.4917695,14.6970684 30.4917695,15.1904297 L30.4917695,16.3806445 C30.4917695,16.8738867 30.8926379,17.2741992 31.3868313,17.2741992 C31.8797119,17.2741992 32.281893,16.8738867 32.281893,16.3806445 L32.281893,15.1904297 C32.281893,14.6970684 31.8795926,14.296875 31.3868313,14.296875 Z" id="Shape" fill="#E83F67"></path>
        </g>
    </g>
</svg>