<?xml version="1.0" encoding="UTF-8"?>
<svg width="61px" height="61px" viewBox="0 0 61 61" version="1.1" xmlns="http://www.w3.org/2000/svg" xmlns:xlink="http://www.w3.org/1999/xlink">
    <!-- Generator: Sketch 52.3 (67297) - http://www.bohemiancoding.com/sketch -->
    <title>Artboard</title>
    <desc>Created with Sketch.</desc>
    <g id="Artboard" stroke="none" stroke-width="1" fill="none" fill-rule="evenodd">
        <g id="customer-support" transform="translate(1.000000, 3.000000)" fill-rule="nonzero">
            <path d="M0.155270404,5.31135887 L4.0167772,12.0685986 C4.14702959,12.2969375 4.36504347,12.4621356 4.61998864,12.5260705 L8.2225791,13.4267181 L20.5786861,25.782825 L21.9439535,24.4179547 L9.39445352,11.8688518 C9.27095199,11.7449532 9.11607877,11.6571917 8.94651237,11.6147008 L5.48489632,10.7462192 L2.19721481,4.98969895 L5.01590833,2.17100554 L10.7748111,5.46186384 L11.6436899,8.92347999 C11.6857837,9.09344347 11.7739423,9.24871377 11.8974438,9.3722153 L24.4469437,21.9217153 L25.8118141,20.5564479 L13.4557071,8.20034089 L12.5550595,4.59973606 C12.4911247,4.3443937 12.3259265,4.12598273 12.0975877,3.99533316 L5.33995085,0.134223447 C4.96309249,-0.0802163593 4.48894208,-0.0166786087 4.18157816,0.289493851 L0.320468555,4.15100065 C0.00992776845,4.45637904 -0.0575810611,4.93132362 0.155270404,5.31135887 Z" id="Shape" fill="#42566C"></path>
            <polygon id="Shape" fill="#42566C" points="40.2892877 19.0251881 19.0521916 40.2626812 17.6869242 38.8974138 38.9244174 17.6603178"></polygon>
            <path d="M15.3352332,41.0140151 C15.1605044,40.7233299 14.8467868,40.5458214 14.507654,40.5458214 L8.71579094,40.5458214 C8.37705533,40.5458214 8.06294055,40.7233299 7.88860883,41.0140151 L4.99247876,45.8405015 C4.80861636,46.1462769 4.80861636,46.5286948 4.99247876,46.8348673 L7.88860883,51.6613537 C8.06294055,51.9516418 8.37705533,52.1295475 8.71579094,52.1295475 L14.507654,52.1295475 C14.8467868,52.1295475 15.1605044,51.9516418 15.3352332,51.6613537 L18.2309662,46.8348673 C18.4148286,46.5286948 18.4148286,46.1462769 18.2309662,45.8405015 L15.3352332,41.0140151 Z M13.9616265,50.1987941 L9.2622156,50.1987941 L6.94547031,46.3376844 L9.2622156,42.4761777 L13.9616265,42.4761777 L16.2783717,46.3376844 L13.9616265,50.1987941 Z" id="Shape" fill="#E83F67"></path>
            <path d="M46.3634966,23.1698349 C52.7391128,23.191279 57.9253817,18.0399558 57.9468257,11.6643397 C57.9500025,10.6938005 57.8308693,9.72723254 57.5922056,8.78647674 C57.4635417,8.26904116 56.9397523,7.95413221 56.4223167,8.08279605 C56.2523533,8.12528695 56.09748,8.21304844 55.9735814,8.33654997 L49.9644986,14.3416617 L45.1967847,12.7528207 L43.6067524,7.98629817 L49.6158353,1.97602404 C49.9926936,1.5987686 49.9922964,0.987614937 49.615041,0.610756577 C49.4907453,0.486460878 49.3342836,0.3983023 49.1631287,0.356208489 C42.9801114,-1.20959998 36.6990077,2.53317072 35.1331992,8.71579094 C34.8953297,9.65376704 34.7765936,10.6179523 34.7797705,11.5857117 C34.7821531,12.345782 34.860384,13.1034697 35.014463,13.8476557 L13.8734678,34.9882537 C13.129282,34.8345718 12.3715942,34.756341 11.611921,34.7535611 C5.21406661,34.7535611 0.0277978167,39.93983 0.0277978167,46.3376844 C0.0277978167,52.7351417 5.21406661,57.9214106 11.611921,57.9214106 C18.0093783,57.9214106 23.1956472,52.7351417 23.1956472,46.3376844 C23.1932645,45.5776141 23.1146366,44.8199264 22.9609546,44.0757405 L28.0221336,39.0145616 L30.23563,41.2280579 C30.6128853,41.6049162 31.223642,41.6049162 31.6008974,41.2280579 L32.0833872,40.745171 C32.5067074,40.3246305 33.1909296,40.3246305 33.6142499,40.745171 C34.037173,41.1669028 34.0379672,41.8515222 33.6162354,42.2744453 C33.6158383,42.2748424 33.6150441,42.2756366 33.6142499,42.2764308 L33.1317601,42.7589206 C32.7549018,43.1357789 32.7549018,43.7469327 33.1317601,44.1237909 L44.6471832,55.6392141 C47.6759483,58.6957769 52.6088604,58.7180152 55.6654233,55.68925 C58.7215891,52.6604848 58.7438273,47.7271756 55.7150622,44.6710097 C55.6987806,44.6543311 55.6821019,44.6376525 55.6654233,44.6209738 L44.1500002,33.1059479 C43.7731419,32.7290895 43.1619882,32.7290895 42.7851299,33.1059479 L42.3026402,33.5884377 C41.8789228,34.0093752 41.1950977,34.0093752 40.7713804,33.5884377 C40.3488544,33.1667058 40.347663,32.4820866 40.7693948,32.0595605 C40.770189,32.0587662 40.7709832,32.0583692 40.7713804,32.057575 L41.2542673,31.5746881 C41.6311256,31.1978297 41.6311256,30.5866761 41.2542673,30.2098177 L39.0407709,27.9963214 L44.1019498,22.9351424 C44.8461358,23.0888244 45.6038234,23.1674523 46.3634966,23.1698349 Z M50.1563033,55.9910543 C49.4550053,55.9898629 48.759664,55.8631845 48.1032396,55.6165787 L55.6423909,48.0770304 C56.7801138,51.1034128 55.2492511,54.4788558 52.2228686,55.6165787 C51.5624731,55.8647731 50.8623665,55.9918486 50.1563033,55.9910543 Z M39.220265,30.9019821 C38.1512424,32.1771054 38.3188232,34.0776784 39.5939464,35.1463038 C40.7145935,36.0854713 42.3479108,36.084677 43.4673666,35.143524 L54.300553,45.9862412 C54.4180979,46.1041832 54.5280976,46.2284789 54.6345233,46.3547601 L46.3809695,54.6083139 C46.2542911,54.5022854 46.1299954,54.3922856 46.0120535,54.2743437 L35.1705277,43.4320236 C36.2395502,42.1569005 36.0719695,40.2563274 34.7968462,39.1877019 C33.6761992,38.2481374 32.0424847,38.2493288 30.9230291,39.1900846 L29.3786645,37.6457202 L37.6755034,29.3611917 L39.220265,30.9019821 Z M43.118306,21.1930167 L21.2196232,43.0873314 C20.9793711,43.3271863 20.8828731,43.6754527 20.9646779,44.0046576 C22.2890429,49.2056196 19.146307,54.4955345 13.9449478,55.8195024 C8.74398584,57.1438674 3.45407092,54.0011313 2.129706,48.7997723 C0.805738075,43.5988103 3.94847412,38.3088954 9.14983318,36.9845305 C10.7231868,36.5842426 12.3715942,36.5842426 13.9449478,36.9845305 C14.2741528,37.0651439 14.6216249,36.968646 14.862274,36.7299823 L36.7557946,14.8352706 C36.9956495,14.5954155 37.0921475,14.2471492 37.0095484,13.9183414 C35.6943169,8.77813733 38.7949592,3.5450094 43.9351632,2.22938088 C44.9064966,1.98118646 45.9111872,1.88587984 46.9119068,1.94822623 L41.8197533,7.04236549 C41.561234,7.30048755 41.4706927,7.68290541 41.586252,8.02958324 L43.5166083,13.8218435 C43.6131062,14.1097489 43.8394595,14.3361021 44.127762,14.4318059 L49.9200222,16.3625592 C50.266303,16.4781185 50.6487208,16.3879743 50.90724,16.1298522 L55.9993936,11.0376986 C56.0109099,11.2219581 56.0168665,11.4042321 56.0168665,11.5857117 C56.04387,16.8899226 51.766191,21.211681 46.4619801,21.2390816 C45.6419461,21.2430528 44.8246917,21.1421865 44.0304698,20.9388657 C43.7012649,20.8566637 43.3529986,20.9527646 43.1131436,21.1926196 L43.118306,21.1926196 L43.118306,21.1930167 Z" id="Shape" fill="#42566C"></path>
            <polygon id="Shape" fill="#42566C" points="49.9430547 48.5507837 48.5777872 49.9160511 38.9248145 40.2630784 40.2896848 38.8978109"></polygon>
        </g>
    </g>
</svg>