<?xml version="1.0" encoding="UTF-8"?>
<svg width="61px" height="61px" viewBox="0 0 61 61" version="1.1" xmlns="http://www.w3.org/2000/svg" xmlns:xlink="http://www.w3.org/1999/xlink">
    <!-- Generator: Sketch 52.3 (67297) - http://www.bohemiancoding.com/sketch -->
    <title>Artboard</title>
    <desc>Created with Sketch.</desc>
    <g id="Artboard" stroke="none" stroke-width="1" fill="none" fill-rule="evenodd">
        <g id="folder-(6)" transform="translate(0.000000, 7.000000)" fill-rule="nonzero">
            <path d="M59.188,38.363 L57.744,38.086 C57.067,37.956 56.534,37.513 56.282,36.87 C56.029,36.228 56.119,35.541 56.527,34.985 L57.434,33.749 C57.726,33.351 57.684,32.799 57.334,32.45 L55.375,30.492 C55.036,30.153 54.503,30.103 54.107,30.371 L52.89,31.195 C52.32,31.583 51.628,31.646 50.995,31.37 C50.363,31.095 49.94,30.545 49.835,29.862 L49.602,28.347 C49.527,27.86 49.107,27.499 48.614,27.499 L45.844,27.499 C45.365,27.499 44.952,27.84 44.862,28.311 L44.504,30.176 C44.377,30.838 43.946,31.366 43.323,31.624 C42.698,31.885 42.022,31.813 41.463,31.435 L39.891,30.371 C39.494,30.103 38.962,30.153 38.623,30.492 L36.664,32.45 C36.314,32.799 36.272,33.35 36.564,33.749 L37.471,34.985 C37.879,35.541 37.969,36.228 37.716,36.87 C37.464,37.513 36.931,37.956 36.254,38.086 L34.81,38.363 C34.341,38.454 34,38.866 34,39.346 L34,42.116 C34,42.609 34.36,43.029 34.848,43.104 L36.363,43.337 C37.046,43.442 37.595,43.865 37.871,44.497 C38.147,45.13 38.083,45.82 37.696,46.392 L36.872,47.609 C36.603,48.005 36.654,48.538 36.993,48.877 L38.951,50.836 C39.299,51.185 39.85,51.227 40.25,50.936 L41.486,50.029 C42.041,49.622 42.73,49.531 43.371,49.784 C44.014,50.036 44.457,50.569 44.587,51.246 L44.864,52.69 C44.955,53.161 45.367,53.502 45.846,53.502 L48.616,53.502 C49.109,53.502 49.529,53.142 49.604,52.654 L49.768,51.589 C49.873,50.901 50.32,50.333 50.961,50.067 C51.605,49.802 52.322,49.888 52.882,50.299 L53.751,50.937 C54.151,51.229 54.702,51.187 55.05,50.837 L57.008,48.878 C57.347,48.539 57.398,48.007 57.129,47.61 L56.305,46.393 C55.918,45.822 55.854,45.131 56.13,44.498 C56.405,43.866 56.955,43.443 57.638,43.338 L59.153,43.105 C59.64,43.028 60,42.608 60,42.115 L60,39.345 C60,38.866 59.659,38.454 59.188,38.363 Z M58,41.258 L57.333,41.361 C55.979,41.569 54.844,42.443 54.297,43.698 C53.749,44.954 53.881,46.38 54.649,47.513 L55.01,48.046 L54.242,48.814 L54.065,48.684 C52.935,47.857 51.49,47.683 50.196,48.217 C48.902,48.753 48.004,49.899 47.791,51.282 L47.758,51.5 L46.672,51.5 L46.551,50.867 C46.292,49.521 45.376,48.42 44.102,47.92 C42.827,47.421 41.407,47.607 40.302,48.414 L39.758,48.813 L38.99,48.045 L39.351,47.512 C40.119,46.378 40.25,44.952 39.703,43.697 C39.156,42.442 38.02,41.568 36.667,41.36 L36,41.258 L36,40.172 L36.633,40.051 C37.979,39.792 39.08,38.876 39.58,37.602 C40.08,36.327 39.895,34.907 39.086,33.802 L38.687,33.258 L39.455,32.49 L40.344,33.092 C41.451,33.844 42.854,33.985 44.091,33.473 C45.328,32.96 46.218,31.869 46.471,30.554 L46.673,29.5 L47.759,29.5 L47.862,30.167 C48.07,31.521 48.944,32.656 50.199,33.203 C51.455,33.751 52.881,33.619 54.014,32.851 L54.547,32.49 L55.315,33.258 L54.916,33.802 C54.106,34.906 53.922,36.326 54.422,37.602 C54.922,38.876 56.024,39.792 57.369,40.051 L58,40.172 L58,41.258 Z" id="Shape" fill="#42566C"></path>
            <path d="M47,35.5 C44.243,35.5 42,37.743 42,40.5 C42,43.257 44.243,45.5 47,45.5 C49.757,45.5 52,43.257 52,40.5 C52,37.743 49.757,35.5 47,35.5 Z M47,43.5 C45.346,43.5 44,42.154 44,40.5 C44,38.846 45.346,37.5 47,37.5 C48.654,37.5 50,38.846 50,40.5 C50,42.154 48.654,43.5 47,43.5 Z" id="Shape" fill="#E83F67"></path>
            <path d="M26.525,7.5 L22.6466937,2.16285976 C21.9745978,1.05428659 20.949056,0.5 19.5700684,0.5 C15.6656212,0.5 9.80893179,0.5 2,0.5 C0.666666667,0.5 9.09494702e-13,1.16666667 9.09494702e-13,2.5 C9.25236233e-13,24.4557563 9.33106999e-13,40.7890896 9.33106999e-13,51.5 C9.33106999e-13,52.4336344 9.09494702e-13,53.5 2,53.5 C3.33333333,53.5 13.6666667,53.5 33,53.5 L33,51.5 L2,51.5 L2,2.5 L20.485,2.5 L25.485,9.5 L30.187,16.051 C30.382,16.323 30.689,16.468 31,16.469 L58,16.5 L58,27.5 L60,27.5 C60,16.8333333 60,10.8333333 60,9.5 C60,8.16666667 59.3333333,7.5 58,7.5 L26.525,7.5 Z M31.537,14.5 L27.958,9.5 L58,9.5 L58,14.5 L31.537,14.5 Z" id="Shape" fill="#42566C"></path>
        </g>
    </g>
</svg>