<?xml version="1.0" encoding="UTF-8"?>
<svg width="61px" height="61px" viewBox="0 0 61 61" version="1.1" xmlns="http://www.w3.org/2000/svg" xmlns:xlink="http://www.w3.org/1999/xlink">
    <!-- Generator: Sketch 52.3 (67297) - http://www.bohemiancoding.com/sketch -->
    <title>Artboard</title>
    <desc>Created with Sketch.</desc>
    <g id="Artboard" stroke="none" stroke-width="1" fill="none" fill-rule="evenodd">
        <g id="integrated-circuit" transform="translate(0.000000, 5.000000)" fill-rule="nonzero">
            <path d="M58.503595,41.246517 L50.4685278,40.8732358 L50.4685278,39.273416 L46.0302594,39.273416 L46.0302594,44.709116 L50.4685278,44.709116 L50.4685278,42.6093713 L58.503595,42.2351833 L58.503595,41.246517 Z M52.0240834,46.2646715 L44.4747039,46.2646715 L44.4747039,37.7178604 L52.0240834,37.7178604 L52.0240834,39.3882682 L60.0591506,39.7615495 L60.0591506,43.7199835 L52.0240834,44.0941715 L52.0240834,46.2646715 Z" id="Path" fill="#42566C"></path>
            <path d="M50.4685278,28.8055224 L58.503595,28.4325435 L58.503595,27.4405524 L50.4685278,27.0663644 L50.4685278,25.4653356 L46.0302594,25.4653356 L46.0302594,30.9019423 L50.4685278,30.9019423 L50.4685278,28.8055224 Z M52.0240834,32.4574979 L44.4747039,32.4574979 L44.4747039,23.90978 L52.0240834,23.90978 L52.0240834,25.5815642 L60.0591506,25.9557522 L60.0591506,29.9175668 L52.0240834,30.2905458 L52.0240834,32.4574979 Z" id="Path" fill="#E83F67"></path>
            <path d="M58.503595,14.1320945 L50.4685278,13.7566976 L50.4685278,12.1568777 L46.0302594,12.1568777 L46.0302594,17.5946935 L50.4685278,17.5946935 L50.4685278,15.4961578 L58.503595,15.1219698 L58.503595,14.1320945 Z M52.0240834,19.150249 L44.4747039,19.150249 L44.4747039,10.6013222 L52.0240834,10.6013222 L52.0240834,12.2721205 L60.0591506,12.6475175 L60.0591506,16.60677 L52.0240834,16.980958 L52.0240834,19.150249 Z" id="Path" fill="#42566C"></path>
            <path d="M1.59105453,42.2351833 L9.62612172,42.6084645 L9.62612172,44.7082092 L14.0655991,44.7082092 L14.0655991,39.2725092 L9.62612172,39.2725092 L9.62612172,40.8723291 L1.59105453,41.246517 L1.59105453,42.2351833 Z M8.07056616,37.7169537 L15.6211547,37.7169537 L15.6211547,46.2637647 L8.07056616,46.2637647 L8.07056616,44.0934321 L0.0354989764,43.7201509 L0.0354989764,39.7617169 L8.07056616,39.3875289 L8.07056616,37.7169537 Z" id="Path" fill="#E83F67"></path>
            <path d="M1.59105453,28.4301254 L9.62612172,28.8034067 L9.62612172,30.8998265 L14.0655991,30.8998265 L14.0655991,25.4632198 L9.62612172,25.4632198 L9.62612172,27.0642487 L1.59105453,27.4384366 L1.59105453,28.4301254 Z M8.07056616,23.9076642 L15.6211547,23.9076642 L15.6211547,32.4553821 L8.07056616,32.4553821 L8.07056616,30.2883742 L0.0354989764,29.915093 L0.0354989764,25.9536364 L8.07056616,25.5794485 L8.07056616,23.9076642 Z" id="Path" fill="#42566C"></path>
            <path d="M1.59105453,15.1219698 L9.62612172,15.4973668 L9.62612172,17.5959025 L14.0655991,17.5959025 L14.0655991,12.1580867 L9.62612172,12.1580867 L9.62612172,13.7579066 L1.59105453,14.1320945 L1.59105453,15.1219698 Z M8.07056616,12.2731064 L8.07056616,10.6025312 L15.6211547,10.6025312 L15.6211547,19.151458 L8.07056616,19.151458 L8.07056616,16.9819439 L0.0354989764,16.6065469 L0.0354989764,12.6472944 L8.07056616,12.2731064 Z" id="Path" fill="#42566C"></path>
            <path d="M45.7793903,3.19057212 C45.7793903,1.51942081 44.4195585,0.158380048 42.750523,0.158380048 L17.3441266,0.158380048 C15.6729752,0.158380048 14.3131435,1.51911856 14.3131435,3.19057212 L14.3134457,52.6779899 C14.3134457,54.3503503 15.6732775,55.7068572 17.3444288,55.7068572 L42.750523,55.7068572 C44.4195585,55.7068572 45.7793903,54.3503503 45.7793903,52.6779899 L45.7793903,3.19057212 Z M42.750523,54.1112689 L17.3441266,54.1112689 C16.5513196,54.1112689 15.906616,53.4665654 15.906616,52.6758742 L15.906616,3.19057212 C15.906616,2.39564936 16.5513196,1.75094584 17.3441266,1.75094584 L42.7502207,1.75094584 C43.540912,1.75094584 44.1856155,2.39564936 44.1856155,3.19057212 L44.1856155,52.6758742 C44.1859177,53.4665654 43.542121,54.1112689 42.750523,54.1112689 Z" id="Shape" fill="#42566C"></path>
            <circle id="Oval" fill="#42566C" cx="19.8839501" cy="6.08947106" r="1.96766052"></circle>
        </g>
    </g>
</svg>