<?xml version="1.0" encoding="UTF-8"?>
<svg width="61px" height="61px" viewBox="0 0 61 61" version="1.1" xmlns="http://www.w3.org/2000/svg" xmlns:xlink="http://www.w3.org/1999/xlink">
    <!-- Generator: Sketch 52.3 (67297) - http://www.bohemiancoding.com/sketch -->
    <title>Artboard</title>
    <desc>Created with Sketch.</desc>
    <g id="Artboard" stroke="none" stroke-width="1" fill="none" fill-rule="evenodd">
        <g id="smartphone-(19)" transform="translate(14.000000, 1.000000)" fill-rule="nonzero">
            <path d="M29.595,0 L4.405,0 C1.976,0 0,1.977 0,4.405 L0,55.594 C0,58.023 1.976,60 4.405,60 L29.594,60 C32.024,60 34,58.023 34,55.595 L34,4.405 C34,1.977 32.024,0 29.595,0 Z M2,8 L32,8 L32,46 L2,46 L2,8 Z M4.405,2 L29.594,2 C30.921,2 32,3.079 32,4.405 L32,6 L2,6 L2,4.405 C2,3.079 3.079,2 4.405,2 Z M29.595,58 L4.405,58 C3.079,58 2,56.921 2,55.595 L2,48 L32,48 L32,55.595 C32,56.921 30.921,58 29.595,58 Z" id="Shape" fill="#42566C"></path>
            <path d="M17,49 C14.794,49 13,50.794 13,53 C13,55.206 14.794,57 17,57 C19.206,57 21,55.206 21,53 C21,50.794 19.206,49 17,49 Z M17,55 C15.897,55 15,54.103 15,53 C15,51.897 15.897,51 17,51 C18.103,51 19,51.897 19,53 C19,54.103 18.103,55 17,55 Z" id="Shape" fill="#42566C"></path>
            <path d="M13,5 L17,5 C17.552,5 18,4.553 18,4 C18,3.447 17.552,3 17,3 L13,3 C12.448,3 12,3.447 12,4 C12,4.553 12.448,5 13,5 Z" id="Shape" fill="#42566C"></path>
            <path d="M20,5 L21,5 C21.552,5 22,4.553 22,4 C22,3.447 21.552,3 21,3 L20,3 C19.448,3 19,3.447 19,4 C19,4.553 19.448,5 20,5 Z" id="Shape" fill="#42566C"></path>
            <path d="M18.962,11.02 L15.038,11.02 C13.914,11.02 13,11.934 13,13.058 L13,16.982 C13,18.106 13.914,19.02 15.038,19.02 L18.962,19.02 C20.086,19.02 21,18.106 21,16.982 L21,13.058 C21,11.934 20.086,11.02 18.962,11.02 Z M19,16.981 C19,17.002 18.983,17.019 18.962,17.019 L15,16.981 L15.038,13.019 L19,13.058 L19,16.981 Z" id="Shape" fill="#42566C"></path>
            <path d="M9.962,11.02 L6.038,11.02 C4.914,11.02 4,11.934 4,13.058 L4,16.982 C4,18.106 4.914,19.02 6.038,19.02 L9.962,19.02 C11.086,19.02 12,18.106 12,16.982 L12,13.058 C12,11.934 11.086,11.02 9.962,11.02 Z M10,16.981 C10,17.002 9.983,17.019 9.962,17.019 L6,16.981 L6.038,13.019 L10,13.058 L10,16.981 Z" id="Shape" fill="#E83F67"></path>
            <path d="M27.962,11.02 L24.038,11.02 C22.914,11.02 22,11.934 22,13.058 L22,16.982 C22,18.106 22.914,19.02 24.038,19.02 L27.962,19.02 C29.086,19.02 30,18.106 30,16.982 L30,13.058 C30,11.934 29.086,11.02 27.962,11.02 Z M28,16.981 C28,17.002 27.983,17.019 27.962,17.019 L24,16.981 L24.038,13.019 L28,13.058 L28,16.981 Z" id="Shape" fill="#42566C"></path>
            <path d="M18.962,20 L15.038,20 C13.914,20 13,20.914 13,22.038 L13,25.962 C13,27.086 13.914,28 15.038,28 L18.962,28 C20.086,28 21,27.086 21,25.962 L21,22.038 C21,20.914 20.086,20 18.962,20 Z M19,25.962 C19,25.982 18.983,26 18.962,26 L15,25.962 L15.038,22 L19,22.038 L19,25.962 Z" id="Shape" fill="#42566C"></path>
            <path d="M9.962,20 L6.038,20 C4.914,20 4,20.914 4,22.038 L4,25.962 C4,27.086 4.914,28 6.038,28 L9.962,28 C11.086,28 12,27.086 12,25.962 L12,22.038 C12,20.914 11.086,20 9.962,20 Z M10,25.962 C10,25.982 9.983,26 9.962,26 L6,25.962 L6.038,22 L10,22.038 L10,25.962 Z" id="Shape" fill="#42566C"></path>
            <path d="M27.962,20 L24.038,20 C22.914,20 22,20.914 22,22.038 L22,25.962 C22,27.086 22.914,28 24.038,28 L27.962,28 C29.086,28 30,27.086 30,25.962 L30,22.038 C30,20.914 29.086,20 27.962,20 Z M28,25.962 C28,25.982 27.983,26 27.962,26 L24,25.962 L24.038,22 L28,22.038 L28,25.962 Z" id="Shape" fill="#E83F67"></path>
            <path d="M18.962,29 L15.038,29 C13.914,29 13,29.914 13,31.038 L13,34.962 C13,36.086 13.914,37 15.038,37 L18.962,37 C20.086,37 21,36.086 21,34.962 L21,31.038 C21,29.914 20.086,29 18.962,29 Z M19,34.962 C19,34.982 18.983,35 18.962,35 L15,34.962 L15.038,31 L19,31.038 L19,34.962 Z" id="Shape" fill="#42566C"></path>
            <path d="M9.962,29 L6.038,29 C4.914,29 4,29.914 4,31.038 L4,34.962 C4,36.086 4.914,37 6.038,37 L9.962,37 C11.086,37 12,36.086 12,34.962 L12,31.038 C12,29.914 11.086,29 9.962,29 Z M10,34.962 C10,34.982 9.983,35 9.962,35 L6,34.962 L6.038,31 L10,31.038 L10,34.962 Z" id="Shape" fill="#42566C"></path>
            <path d="M27.962,29 L24.038,29 C22.914,29 22,29.914 22,31.038 L22,34.962 C22,36.086 22.914,37 24.038,37 L27.962,37 C29.086,37 30,36.086 30,34.962 L30,31.038 C30,29.914 29.086,29 27.962,29 Z M28,34.962 C28,34.982 27.983,35 27.962,35 L24,34.962 L24.038,31 L28,31.038 L28,34.962 Z" id="Shape" fill="#42566C"></path>
        </g>
    </g>
</svg>