<?xml version="1.0" encoding="UTF-8"?>
<svg width="700px" height="338px" viewBox="0 0 700 338" version="1.1" xmlns="http://www.w3.org/2000/svg" xmlns:xlink="http://www.w3.org/1999/xlink">
    <!-- Generator: Sketch 54.1 (76490) - https://sketchapp.com -->
    <title>Group 7</title>
    <desc>Created with Sketch.</desc>
    <defs>
        <polygon id="path-1" points="252.127003 107.040611 257.943409 59.5777207 300.839893 63.5952989 434.453174 220.089439 386.265674 214.804283 382.253956 261.155846"></polygon>
        <filter x="-6.6%" y="-4.5%" width="113.2%" height="111.9%" filterUnits="objectBoundingBox" id="filter-2">
            <feOffset dx="0" dy="3" in="SourceAlpha" result="shadowOffsetOuter1"></feOffset>
            <feGaussianBlur stdDeviation="3.5" in="shadowOffsetOuter1" result="shadowBlurOuter1"></feGaussianBlur>
            <feColorMatrix values="0 0 0 0 0   0 0 0 0 0   0 0 0 0 0  0 0 0 0.244509397 0" type="matrix" in="shadowBlurOuter1"></feColorMatrix>
        </filter>
        <path d="M75.1445807,34.1382676 C102.951872,11.6083197 136.378956,0.343345745 175.425831,0.343345745 C214.472706,0.343345745 253.546924,17.4637885 292.648487,51.7046739 L251.218799,49.0445176 L243.300831,95.3706895 C223.136117,75.4995957 200.511117,65.5640489 175.425831,65.5640489 C150.340544,65.5640489 131.913461,71.5288926 120.144581,83.4585801 L72.1406745,79.2906114 L75.1445807,34.1382676 Z" id="path-3"></path>
        <filter x="-5.4%" y="-9.5%" width="110.9%" height="125.3%" filterUnits="objectBoundingBox" id="filter-4">
            <feOffset dx="0" dy="3" in="SourceAlpha" result="shadowOffsetOuter1"></feOffset>
            <feGaussianBlur stdDeviation="3.5" in="shadowOffsetOuter1" result="shadowBlurOuter1"></feGaussianBlur>
            <feColorMatrix values="0 0 0 0 0   0 0 0 0 0   0 0 0 0 0  0 0 0 0.244509397 0" type="matrix" in="shadowBlurOuter1"></feColorMatrix>
        </filter>
        <path d="M107.757862,91.128502 C86.2005703,108.973554 75.4219245,130.704674 75.4219245,156.321861 C75.4219245,181.939049 82.5924974,202.332929 96.9336432,217.503502 L91.5762214,265.284752 L45.6035651,260.757408 C19.0058908,231.091733 7.31057831,196.279884 10.5176276,156.321861 C13.7246769,116.363839 31.2057967,79.0877969 62.960987,44.4937364 L62.960987,85.4527207 L107.757862,91.128502 Z" id="path-5"></path>
        <filter x="-12.3%" y="-4.1%" width="124.6%" height="110.9%" filterUnits="objectBoundingBox" id="filter-6">
            <feOffset dx="0" dy="3" in="SourceAlpha" result="shadowOffsetOuter1"></feOffset>
            <feGaussianBlur stdDeviation="3.5" in="shadowOffsetOuter1" result="shadowBlurOuter1"></feGaussianBlur>
            <feColorMatrix values="0 0 0 0 0   0 0 0 0 0   0 0 0 0 0  0 0 0 0.244509397 0" type="matrix" in="shadowBlurOuter1"></feColorMatrix>
        </filter>
        <path d="M104.668018,228.509361 C124.104216,248.118736 146.136768,257.923424 170.765674,257.923424 C195.394581,257.923424 214.740935,251.571861 228.804737,238.868736 L277.296924,243.782799 L273.947315,288.964439 C237.548878,313.886314 200.553435,325.417564 162.960987,323.558189 C125.368539,321.698814 89.3092943,304.130455 54.7832526,270.853111 L98.3398932,273.435143 L104.668018,228.509361 Z" id="path-7"></path>
        <filter x="-5.4%" y="-9.4%" width="110.8%" height="125.2%" filterUnits="objectBoundingBox" id="filter-8">
            <feOffset dx="0" dy="3" in="SourceAlpha" result="shadowOffsetOuter1"></feOffset>
            <feGaussianBlur stdDeviation="3.5" in="shadowOffsetOuter1" result="shadowBlurOuter1"></feGaussianBlur>
            <feColorMatrix values="0 0 0 0 0   0 0 0 0 0   0 0 0 0 0  0 0 0 0.244509397 0" type="matrix" in="shadowBlurOuter1"></feColorMatrix>
        </filter>
        <polygon id="path-9" points="238.769581 232.536705 400.878956 41.5581895 449.498096 44.4937364 445.068409 91.503502 283.089893 284.157799 283.089893 237.042564"></polygon>
        <filter x="-5.7%" y="-3.7%" width="111.4%" height="109.9%" filterUnits="objectBoundingBox" id="filter-10">
            <feOffset dx="0" dy="3" in="SourceAlpha" result="shadowOffsetOuter1"></feOffset>
            <feGaussianBlur stdDeviation="3.5" in="shadowOffsetOuter1" result="shadowBlurOuter1"></feGaussianBlur>
            <feColorMatrix values="0 0 0 0 0   0 0 0 0 0   0 0 0 0 0  0 0 0 0.244509397 0" type="matrix" in="shadowBlurOuter1"></feColorMatrix>
        </filter>
        <path d="M412.373096,32.4956895 C445.565805,8.6050645 482.428435,-2.11238342 522.960987,0.343345745 C563.493539,2.79907491 599.717497,20.4149603 631.632862,53.191002 L627.363331,98.9761582 L580.355518,95.3706895 C557.941348,77.4990917 537.244733,67.6208364 518.265674,65.7359239 C499.286616,63.8510113 477.950678,69.5547873 454.257862,82.847252 L454.257862,38.3101426 L412.373096,32.4956895 Z" id="path-11"></path>
        <filter x="-5.5%" y="-9.1%" width="110.9%" height="124.2%" filterUnits="objectBoundingBox" id="filter-12">
            <feOffset dx="0" dy="3" in="SourceAlpha" result="shadowOffsetOuter1"></feOffset>
            <feGaussianBlur stdDeviation="3.5" in="shadowOffsetOuter1" result="shadowBlurOuter1"></feGaussianBlur>
            <feColorMatrix values="0 0 0 0 0   0 0 0 0 0   0 0 0 0 0  0 0 0 0.244509397 0" type="matrix" in="shadowBlurOuter1"></feColorMatrix>
        </filter>
        <path d="M588.609424,104.763268 L635.527393,107.884361 L639.591846,63.5952989 C664.059294,93.252851 675.327523,129.485273 673.396534,172.292564 C671.465544,215.099856 652.192758,252.388268 615.578174,284.157799 L573.998096,278.753502 L577.543018,228.509361 C594.25656,212.086184 603.60031,193.347252 605.574268,172.292564 C607.548227,151.237877 601.893279,128.728111 588.609424,104.763268 Z" id="path-13"></path>
        <filter x="-12.0%" y="-4.1%" width="124.1%" height="110.9%" filterUnits="objectBoundingBox" id="filter-14">
            <feOffset dx="0" dy="3" in="SourceAlpha" result="shadowOffsetOuter1"></feOffset>
            <feGaussianBlur stdDeviation="3.5" in="shadowOffsetOuter1" result="shadowBlurOuter1"></feGaussianBlur>
            <feColorMatrix values="0 0 0 0 0   0 0 0 0 0   0 0 0 0 0  0 0 0 0.244509397 0" type="matrix" in="shadowBlurOuter1"></feColorMatrix>
        </filter>
        <path d="M394.201221,224.405846 L441.605518,228.509361 C460.279473,246.131366 479.770359,255.685403 500.078174,257.171471 C520.38599,258.657539 542.994714,252.184231 567.904346,237.751549 L562.960987,284.157799 L608.835987,289.89608 C572.006693,315.955865 534.032735,327.241115 494.914112,323.751829 C455.795489,320.262543 420.839109,302.472085 390.044971,270.380455 L394.201221,224.405846 Z" id="path-15"></path>
        <filter x="-5.5%" y="-9.0%" width="111.0%" height="124.0%" filterUnits="objectBoundingBox" id="filter-16">
            <feOffset dx="0" dy="3" in="SourceAlpha" result="shadowOffsetOuter1"></feOffset>
            <feGaussianBlur stdDeviation="3.5" in="shadowOffsetOuter1" result="shadowBlurOuter1"></feGaussianBlur>
            <feColorMatrix values="0 0 0 0 0   0 0 0 0 0   0 0 0 0 0  0 0 0 0.244509397 0" type="matrix" in="shadowBlurOuter1"></feColorMatrix>
        </filter>
    </defs>
    <g id="desktop" stroke="none" stroke-width="1" fill="none" fill-rule="evenodd">
        <g id="devops" transform="translate(-379.000000, -431.000000)">
            <g id="Group-7" transform="translate(376.000000, 435.000000)">
                <g id="Path-14">
                    <use fill="black" fill-opacity="1" filter="url(#filter-2)" xlink:href="#path-1"></use>
                    <use fill="#F7941E" fill-rule="evenodd" xlink:href="#path-1"></use>
                </g>
                <g id="Path-7">
                    <use fill="black" fill-opacity="1" filter="url(#filter-4)" xlink:href="#path-3"></use>
                    <use fill="#F7941E" fill-rule="evenodd" xlink:href="#path-3"></use>
                </g>
                <g id="Path-8">
                    <use fill="black" fill-opacity="1" filter="url(#filter-6)" xlink:href="#path-5"></use>
                    <use fill="#F7941E" fill-rule="evenodd" xlink:href="#path-5"></use>
                </g>
                <g id="Path-9">
                    <use fill="black" fill-opacity="1" filter="url(#filter-8)" xlink:href="#path-7"></use>
                    <use fill="#F7941E" fill-rule="evenodd" xlink:href="#path-7"></use>
                </g>
                <g id="Path-10">
                    <use fill="black" fill-opacity="1" filter="url(#filter-10)" xlink:href="#path-9"></use>
                    <use fill="#00ADEF" fill-rule="evenodd" xlink:href="#path-9"></use>
                </g>
                <g id="Path-11">
                    <use fill="black" fill-opacity="1" filter="url(#filter-12)" xlink:href="#path-11"></use>
                    <use fill="#00ADEF" fill-rule="evenodd" xlink:href="#path-11"></use>
                </g>
                <g id="Path-12">
                    <use fill="black" fill-opacity="1" filter="url(#filter-14)" xlink:href="#path-13"></use>
                    <use fill="#00ADEF" fill-rule="evenodd" xlink:href="#path-13"></use>
                </g>
                <g id="Path-13">
                    <use fill="black" fill-opacity="1" filter="url(#filter-16)" xlink:href="#path-15"></use>
                    <use fill="#00ADEF" fill-rule="evenodd" xlink:href="#path-15"></use>
                </g>
                <path d="M136.172987,49.7214864 C134.495645,49.7214864 133.009493,49.3391569 131.714487,48.5744864 C130.419481,47.8098159 129.420491,46.7244934 128.717487,45.3184864 C128.014483,43.9124793 127.662987,42.2844956 127.662987,40.4344864 C127.662987,38.5844771 128.026817,36.9441602 128.754487,35.5134864 C129.482157,34.0828126 130.499647,32.9728237 131.806987,32.1834864 C133.114327,31.3941491 134.618978,30.9994864 136.320987,30.9994864 C137.258325,30.9994864 138.189482,31.1289851 139.114487,31.3879864 C140.039492,31.6469877 140.847317,32.0231506 141.537987,32.5164864 C141.981989,32.8124879 142.296486,33.1023183 142.481487,33.3859864 C142.666488,33.6696545 142.758987,33.9841513 142.758987,34.3294864 C142.758987,34.6748214 142.666488,34.9584853 142.481487,35.1804864 C142.296486,35.4024875 142.055988,35.5134864 141.759987,35.5134864 C141.587319,35.5134864 141.402321,35.4641535 141.204987,35.3654864 C141.007653,35.2668192 140.841154,35.1681535 140.705487,35.0694864 C140.56982,34.9708192 140.477321,34.9091532 140.427987,34.8844864 C139.78665,34.4651509 139.176157,34.1321543 138.596487,33.8854864 C138.016817,33.6388185 137.307658,33.5154864 136.468987,33.5154864 C134.668311,33.5154864 133.268492,34.1259803 132.269487,35.3469864 C131.270482,36.5679925 130.770987,38.2638089 130.770987,40.4344864 C130.770987,42.6051639 131.270482,44.2824805 132.269487,45.4664864 C133.268492,46.6504923 134.668311,47.2424864 136.468987,47.2424864 C137.307658,47.2424864 138.029151,47.1191543 138.633487,46.8724864 C139.237823,46.6258185 139.848317,46.2928218 140.464987,45.8734864 C140.736322,45.7008188 140.995319,45.5528203 141.241987,45.4294864 C141.488655,45.3061524 141.698319,45.2444864 141.870987,45.2444864 C142.142322,45.2444864 142.370486,45.3554853 142.555487,45.5774864 C142.740488,45.7994875 142.832987,46.0831513 142.832987,46.4284864 C142.832987,46.7491546 142.746655,47.0389851 142.573987,47.2979864 C142.401319,47.5569877 142.080656,47.8468181 141.611987,48.1674864 C140.921317,48.6361554 140.088825,49.0123183 139.114487,49.2959864 C138.140149,49.5796545 137.159659,49.7214864 136.172987,49.7214864 Z M154.672987,49.7214864 C152.970978,49.7214864 151.472493,49.3391569 150.177487,48.5744864 C148.882481,47.8098159 147.883491,46.7183268 147.180487,45.2999864 C146.477483,43.8816459 146.125987,42.2351624 146.125987,40.3604864 C146.125987,38.4858103 146.477483,36.8393268 147.180487,35.4209864 C147.883491,34.0026459 148.882481,32.9111569 150.177487,32.1464864 C151.472493,31.3818159 152.970978,30.9994864 154.672987,30.9994864 C156.374995,30.9994864 157.879647,31.3818159 159.186987,32.1464864 C160.494327,32.9111569 161.499483,34.0026459 162.202487,35.4209864 C162.905491,36.8393268 163.256987,38.4858103 163.256987,40.3604864 C163.256987,42.2351624 162.905491,43.8816459 162.202487,45.2999864 C161.499483,46.7183268 160.494327,47.8098159 159.186987,48.5744864 C157.879647,49.3391569 156.374995,49.7214864 154.672987,49.7214864 Z M154.672987,47.2424864 C156.448996,47.2424864 157.811816,46.6566589 158.761487,45.4849864 C159.711158,44.3133138 160.185987,42.6051643 160.185987,40.3604864 C160.185987,38.1651421 159.704992,36.4693257 158.742987,35.2729864 C157.780982,34.0766471 156.424329,33.4784864 154.672987,33.4784864 C152.921645,33.4784864 151.564992,34.0766471 150.602987,35.2729864 C149.640982,36.4693257 149.159987,38.1651421 149.159987,40.3604864 C149.159987,42.5804975 149.634816,44.2824805 150.584487,45.4664864 C151.534158,46.6504923 152.896978,47.2424864 154.672987,47.2424864 Z M182.940987,23.1924864 C183.409656,23.1924864 183.779652,23.3281517 184.050987,23.5994864 C184.322322,23.8708211 184.457987,24.2161509 184.457987,24.6354864 L184.457987,48.1674864 C184.457987,48.6114886 184.322322,48.9691517 184.050987,49.2404864 C183.779652,49.5118211 183.409656,49.6474864 182.940987,49.6474864 C182.472318,49.6474864 182.108488,49.5118211 181.849487,49.2404864 C181.590486,48.9691517 181.460987,48.6114886 181.460987,48.1674864 L181.460987,46.1694864 C180.918318,47.3041587 180.122826,48.1798166 179.074487,48.7964864 C178.026148,49.4131561 176.798994,49.7214864 175.392987,49.7214864 C173.814312,49.7214864 172.42066,49.3268237 171.211987,48.5374864 C170.003314,47.7481491 169.06599,46.6443268 168.399987,45.2259864 C167.733984,43.8076459 167.400987,42.1611624 167.400987,40.2864864 C167.400987,38.4364771 167.733984,36.8084934 168.399987,35.4024864 C169.06599,33.9964793 170.003314,32.9111569 171.211987,32.1464864 C172.42066,31.3818159 173.814312,30.9994864 175.392987,30.9994864 C176.798994,30.9994864 178.026148,31.3078166 179.074487,31.9244864 C180.122826,32.5411561 180.918318,33.416814 181.460987,34.5514864 L181.460987,24.6354864 C181.460987,24.1914842 181.590486,23.8399877 181.849487,23.5809864 C182.108488,23.3219851 182.472318,23.1924864 182.940987,23.1924864 Z M175.984987,47.2424864 C177.736329,47.2424864 179.086816,46.6443257 180.036487,45.4479864 C180.986158,44.2516471 181.460987,42.5558307 181.460987,40.3604864 C181.460987,38.1651421 180.986158,36.4754923 180.036487,35.2914864 C179.086816,34.1074805 177.736329,33.5154864 175.984987,33.5154864 C174.233645,33.5154864 172.870825,34.1074805 171.896487,35.2914864 C170.922149,36.4754923 170.434987,38.1404756 170.434987,40.2864864 C170.434987,42.4818307 170.922149,44.1899803 171.896487,45.4109864 C172.870825,46.6319925 174.233645,47.2424864 175.984987,47.2424864 Z M204.696987,45.2814864 C204.968322,45.2814864 205.202653,45.3924853 205.399987,45.6144864 C205.597321,45.8364875 205.695987,46.1201513 205.695987,46.4654864 C205.695987,47.0821561 205.264325,47.6494838 204.400987,48.1674864 C203.512983,48.685489 202.575659,49.0739851 201.588987,49.3329864 C200.602315,49.5919877 199.640325,49.7214864 198.702987,49.7214864 C195.91564,49.7214864 193.714162,48.8951613 192.098487,47.2424864 C190.482812,45.5898114 189.674987,43.3081676 189.674987,40.3974864 C189.674987,38.5474771 190.03265,36.9133268 190.747987,35.4949864 C191.463324,34.0766459 192.468481,32.9728237 193.763487,32.1834864 C195.058493,31.3941491 196.532312,30.9994864 198.184987,30.9994864 C200.528332,30.9994864 202.390647,31.7641454 203.771987,33.2934864 C205.153327,34.8228274 205.843987,36.8948066 205.843987,39.5094864 C205.843987,40.0028222 205.745321,40.3604853 205.547987,40.5824864 C205.350653,40.8044875 205.029989,40.9154864 204.585987,40.9154864 L192.671987,40.9154864 C192.893988,45.1581743 194.904301,47.2794864 198.702987,47.2794864 C199.664992,47.2794864 200.491317,47.1499877 201.181987,46.8909864 C201.872657,46.6319851 202.61265,46.2804886 203.401987,45.8364864 C204.043324,45.4664845 204.474986,45.2814864 204.696987,45.2814864 Z M198.221987,33.3304864 C196.643312,33.3304864 195.379158,33.8238148 194.429487,34.8104864 C193.479816,35.797158 192.918655,37.1908107 192.745987,38.9914864 L203.216987,38.9914864 C203.167653,37.1661439 202.711325,35.7663246 201.847987,34.7919864 C200.984649,33.8176482 199.775995,33.3304864 198.221987,33.3304864 Z" id="code" fill="#262626" fill-rule="nonzero"></path>
                <path d="M154.060987,298.279486 C154.924325,298.353487 155.355987,298.748149 155.355987,299.463486 C155.355987,299.882822 155.201822,300.197319 154.893487,300.406986 C154.585152,300.616654 154.122657,300.69682 153.505987,300.647486 L152.506987,300.573486 C150.533644,300.425486 149.078325,299.833492 148.140987,298.797486 C147.203649,297.761481 146.734987,296.195164 146.734987,294.098486 L146.734987,284.811486 L144.255987,284.811486 C143.836652,284.811486 143.509821,284.706654 143.275487,284.496986 C143.041152,284.287319 142.923987,284.009821 142.923987,283.664486 C142.923987,283.294485 143.041152,282.998487 143.275487,282.776486 C143.509821,282.554485 143.836652,282.443486 144.255987,282.443486 L146.734987,282.443486 L146.734987,278.262486 C146.734987,277.793817 146.870652,277.429988 147.141987,277.170986 C147.413322,276.911985 147.783318,276.782486 148.251987,276.782486 C148.695989,276.782486 149.053652,276.911985 149.324987,277.170986 C149.596322,277.429988 149.731987,277.793817 149.731987,278.262486 L149.731987,282.443486 L153.838987,282.443486 C154.233656,282.443486 154.548152,282.554485 154.782487,282.776486 C155.016821,282.998487 155.133987,283.294485 155.133987,283.664486 C155.133987,284.009821 155.016821,284.287319 154.782487,284.496986 C154.548152,284.706654 154.233656,284.811486 153.838987,284.811486 L149.731987,284.811486 L149.731987,294.246486 C149.731987,295.60316 150.009484,296.58365 150.564487,297.187986 C151.11949,297.792323 151.951981,298.131486 153.061987,298.205486 L154.060987,298.279486 Z M173.004987,296.281486 C173.276322,296.281486 173.510653,296.392485 173.707987,296.614486 C173.905321,296.836487 174.003987,297.120151 174.003987,297.465486 C174.003987,298.082156 173.572325,298.649484 172.708987,299.167486 C171.820983,299.685489 170.883659,300.073985 169.896987,300.332986 C168.910315,300.591988 167.948325,300.721486 167.010987,300.721486 C164.22364,300.721486 162.022162,299.895161 160.406487,298.242486 C158.790812,296.589811 157.982987,294.308168 157.982987,291.397486 C157.982987,289.547477 158.34065,287.913327 159.055987,286.494986 C159.771324,285.076646 160.776481,283.972824 162.071487,283.183486 C163.366493,282.394149 164.840312,281.999486 166.492987,281.999486 C168.836332,281.999486 170.698647,282.764145 172.079987,284.293486 C173.461327,285.822827 174.151987,287.894807 174.151987,290.509486 C174.151987,291.002822 174.053321,291.360485 173.855987,291.582486 C173.658653,291.804487 173.337989,291.915486 172.893987,291.915486 L160.979987,291.915486 C161.201988,296.158174 163.212301,298.279486 167.010987,298.279486 C167.972992,298.279486 168.799317,298.149988 169.489987,297.890986 C170.180657,297.631985 170.92065,297.280489 171.709987,296.836486 C172.351324,296.466485 172.782986,296.281486 173.004987,296.281486 Z M166.529987,284.330486 C164.951312,284.330486 163.687158,284.823815 162.737487,285.810486 C161.787816,286.797158 161.226655,288.190811 161.053987,289.991486 L171.524987,289.991486 C171.475653,288.166144 171.019325,286.766325 170.155987,285.791986 C169.292649,284.817648 168.083995,284.330486 166.529987,284.330486 Z M185.362987,300.721486 C184.228315,300.721486 183.149159,300.585821 182.125487,300.314486 C181.101815,300.043152 180.195324,299.660822 179.405987,299.167486 C178.961985,298.871485 178.647488,298.593988 178.462487,298.334986 C178.277486,298.075985 178.184987,297.761488 178.184987,297.391486 C178.184987,297.070818 178.277486,296.805654 178.462487,296.595986 C178.647488,296.386319 178.887986,296.281486 179.183987,296.281486 C179.479988,296.281486 179.911651,296.466485 180.478987,296.836486 C181.218991,297.280489 181.952817,297.631985 182.680487,297.890986 C183.408157,298.149988 184.314648,298.279486 185.399987,298.279486 C186.731994,298.279486 187.767983,298.045155 188.507987,297.576486 C189.247991,297.107817 189.617987,296.429491 189.617987,295.541486 C189.617987,294.998817 189.482322,294.560988 189.210987,294.227986 C188.939652,293.894985 188.47099,293.598988 187.804987,293.339986 C187.138984,293.080985 186.16466,292.815821 184.881987,292.544486 C182.711309,292.075817 181.157325,291.446824 180.219987,290.657486 C179.282649,289.868149 178.813987,288.79516 178.813987,287.438486 C178.813987,286.377814 179.109984,285.44049 179.701987,284.626486 C180.29399,283.812482 181.114148,283.171155 182.162487,282.702486 C183.210826,282.233817 184.40098,281.999486 185.732987,281.999486 C186.694992,281.999486 187.626149,282.128985 188.526487,282.387986 C189.426825,282.646988 190.222317,283.010817 190.912987,283.479486 C191.751658,284.071489 192.170987,284.68815 192.170987,285.329486 C192.170987,285.650155 192.072321,285.921485 191.874987,286.143486 C191.677653,286.365487 191.443322,286.476486 191.171987,286.476486 C190.875986,286.476486 190.43199,286.266822 189.839987,285.847486 C189.149317,285.403484 188.495657,285.058154 187.878987,284.811486 C187.262317,284.564818 186.497658,284.441486 185.584987,284.441486 C184.425648,284.441486 183.494491,284.700484 182.791487,285.218486 C182.088483,285.736489 181.736987,286.427149 181.736987,287.290486 C181.736987,287.833156 181.866486,288.270985 182.125487,288.603986 C182.384488,288.936988 182.816151,289.232985 183.420487,289.491986 C184.024823,289.750988 184.894315,290.003818 186.028987,290.250486 C187.706329,290.620488 189.007482,291.027484 189.932487,291.471486 C190.857492,291.915489 191.517318,292.45815 191.911987,293.099486 C192.306656,293.740823 192.503987,294.554815 192.503987,295.541486 C192.503987,297.095494 191.850327,298.347315 190.542987,299.296986 C189.235647,300.246658 187.508998,300.721486 185.362987,300.721486 Z M205.934987,298.279486 C206.798325,298.353487 207.229987,298.748149 207.229987,299.463486 C207.229987,299.882822 207.075822,300.197319 206.767487,300.406986 C206.459152,300.616654 205.996657,300.69682 205.379987,300.647486 L204.380987,300.573486 C202.407644,300.425486 200.952325,299.833492 200.014987,298.797486 C199.077649,297.761481 198.608987,296.195164 198.608987,294.098486 L198.608987,284.811486 L196.129987,284.811486 C195.710652,284.811486 195.383821,284.706654 195.149487,284.496986 C194.915152,284.287319 194.797987,284.009821 194.797987,283.664486 C194.797987,283.294485 194.915152,282.998487 195.149487,282.776486 C195.383821,282.554485 195.710652,282.443486 196.129987,282.443486 L198.608987,282.443486 L198.608987,278.262486 C198.608987,277.793817 198.744652,277.429988 199.015987,277.170986 C199.287322,276.911985 199.657318,276.782486 200.125987,276.782486 C200.569989,276.782486 200.927652,276.911985 201.198987,277.170986 C201.470322,277.429988 201.605987,277.793817 201.605987,278.262486 L201.605987,282.443486 L205.712987,282.443486 C206.107656,282.443486 206.422152,282.554485 206.656487,282.776486 C206.890821,282.998487 207.007987,283.294485 207.007987,283.664486 C207.007987,284.009821 206.890821,284.287319 206.656487,284.496986 C206.422152,284.706654 206.107656,284.811486 205.712987,284.811486 L201.605987,284.811486 L201.605987,294.246486 C201.605987,295.60316 201.883484,296.58365 202.438487,297.187986 C202.99349,297.792323 203.825981,298.131486 204.935987,298.205486 L205.934987,298.279486 Z" id="test" fill="#262626" fill-rule="nonzero"></path>
                <path d="M487.202987,23.1924864 C487.671656,23.1924864 488.041652,23.3281517 488.312987,23.5994864 C488.584322,23.8708211 488.719987,24.2161509 488.719987,24.6354864 L488.719987,48.1674864 C488.719987,48.6114886 488.584322,48.9691517 488.312987,49.2404864 C488.041652,49.5118211 487.671656,49.6474864 487.202987,49.6474864 C486.734318,49.6474864 486.370488,49.5118211 486.111487,49.2404864 C485.852486,48.9691517 485.722987,48.6114886 485.722987,48.1674864 L485.722987,46.1694864 C485.180318,47.3041587 484.384826,48.1798166 483.336487,48.7964864 C482.288148,49.4131561 481.060994,49.7214864 479.654987,49.7214864 C478.076312,49.7214864 476.68266,49.3268237 475.473987,48.5374864 C474.265314,47.7481491 473.32799,46.6443268 472.661987,45.2259864 C471.995984,43.8076459 471.662987,42.1611624 471.662987,40.2864864 C471.662987,38.4364771 471.995984,36.8084934 472.661987,35.4024864 C473.32799,33.9964793 474.265314,32.9111569 475.473987,32.1464864 C476.68266,31.3818159 478.076312,30.9994864 479.654987,30.9994864 C481.060994,30.9994864 482.288148,31.3078166 483.336487,31.9244864 C484.384826,32.5411561 485.180318,33.416814 485.722987,34.5514864 L485.722987,24.6354864 C485.722987,24.1914842 485.852486,23.8399877 486.111487,23.5809864 C486.370488,23.3219851 486.734318,23.1924864 487.202987,23.1924864 Z M480.246987,47.2424864 C481.998329,47.2424864 483.348816,46.6443257 484.298487,45.4479864 C485.248158,44.2516471 485.722987,42.5558307 485.722987,40.3604864 C485.722987,38.1651421 485.248158,36.4754923 484.298487,35.2914864 C483.348816,34.1074805 481.998329,33.5154864 480.246987,33.5154864 C478.495645,33.5154864 477.132825,34.1074805 476.158487,35.2914864 C475.184149,36.4754923 474.696987,38.1404756 474.696987,40.2864864 C474.696987,42.4818307 475.184149,44.1899803 476.158487,45.4109864 C477.132825,46.6319925 478.495645,47.2424864 480.246987,47.2424864 Z M508.958987,45.2814864 C509.230322,45.2814864 509.464653,45.3924853 509.661987,45.6144864 C509.859321,45.8364875 509.957987,46.1201513 509.957987,46.4654864 C509.957987,47.0821561 509.526325,47.6494838 508.662987,48.1674864 C507.774983,48.685489 506.837659,49.0739851 505.850987,49.3329864 C504.864315,49.5919877 503.902325,49.7214864 502.964987,49.7214864 C500.17764,49.7214864 497.976162,48.8951613 496.360487,47.2424864 C494.744812,45.5898114 493.936987,43.3081676 493.936987,40.3974864 C493.936987,38.5474771 494.29465,36.9133268 495.009987,35.4949864 C495.725324,34.0766459 496.730481,32.9728237 498.025487,32.1834864 C499.320493,31.3941491 500.794312,30.9994864 502.446987,30.9994864 C504.790332,30.9994864 506.652647,31.7641454 508.033987,33.2934864 C509.415327,34.8228274 510.105987,36.8948066 510.105987,39.5094864 C510.105987,40.0028222 510.007321,40.3604853 509.809987,40.5824864 C509.612653,40.8044875 509.291989,40.9154864 508.847987,40.9154864 L496.933987,40.9154864 C497.155988,45.1581743 499.166301,47.2794864 502.964987,47.2794864 C503.926992,47.2794864 504.753317,47.1499877 505.443987,46.8909864 C506.134657,46.6319851 506.87465,46.2804886 507.663987,45.8364864 C508.305324,45.4664845 508.736986,45.2814864 508.958987,45.2814864 Z M502.483987,33.3304864 C500.905312,33.3304864 499.641158,33.8238148 498.691487,34.8104864 C497.741816,35.797158 497.180655,37.1908107 497.007987,38.9914864 L507.478987,38.9914864 C507.429653,37.1661439 506.973325,35.7663246 506.109987,34.7919864 C505.246649,33.8176482 504.037995,33.3304864 502.483987,33.3304864 Z M524.313987,30.9994864 C525.892662,30.9994864 527.286314,31.3941491 528.494987,32.1834864 C529.70366,32.9728237 530.640984,34.0766459 531.306987,35.4949864 C531.97299,36.9133268 532.305987,38.5598103 532.305987,40.4344864 C532.305987,42.3091624 531.97299,43.9433127 531.306987,45.3369864 C530.640984,46.73066 529.709826,47.8098159 528.513487,48.5744864 C527.317148,49.3391569 525.917328,49.7214864 524.313987,49.7214864 C522.90798,49.7214864 521.680826,49.4131561 520.632487,48.7964864 C519.584148,48.1798166 518.788656,47.3041587 518.245987,46.1694864 L518.245987,54.8644864 C518.245987,55.3084886 518.116488,55.6599851 517.857487,55.9189864 C517.598486,56.1779877 517.234656,56.3074864 516.765987,56.3074864 C516.297318,56.3074864 515.927322,56.1718211 515.655987,55.9004864 C515.384652,55.6291517 515.248987,55.2838218 515.248987,54.8644864 L515.248987,32.5534864 C515.248987,32.1094842 515.384652,31.7518211 515.655987,31.4804864 C515.927322,31.2091517 516.297318,31.0734864 516.765987,31.0734864 C517.234656,31.0734864 517.598486,31.2091517 517.857487,31.4804864 C518.116488,31.7518211 518.245987,32.1094842 518.245987,32.5534864 L518.245987,34.5514864 C518.788656,33.416814 519.584148,32.5411561 520.632487,31.9244864 C521.680826,31.3078166 522.90798,30.9994864 524.313987,30.9994864 Z M523.721987,47.2424864 C525.473329,47.2424864 526.829982,46.6504923 527.791987,45.4664864 C528.753992,44.2824805 529.234987,42.6051639 529.234987,40.4344864 C529.234987,38.2638089 528.753992,36.5679925 527.791987,35.3469864 C526.829982,34.1259803 525.473329,33.5154864 523.721987,33.5154864 C521.970645,33.5154864 520.620158,34.1074805 519.670487,35.2914864 C518.720816,36.4754923 518.245987,38.1651421 518.245987,40.3604864 C518.245987,42.5558307 518.720816,44.2516471 519.670487,45.4479864 C520.620158,46.6443257 521.970645,47.2424864 523.721987,47.2424864 Z M539.039987,49.6474864 C538.595985,49.6474864 538.232155,49.5179877 537.948487,49.2589864 C537.664819,48.9999851 537.522987,48.6361554 537.522987,48.1674864 L537.522987,24.6724864 C537.522987,24.2038174 537.664819,23.8399877 537.948487,23.5809864 C538.232155,23.3219851 538.595985,23.1924864 539.039987,23.1924864 C539.459322,23.1924864 539.810819,23.3219851 540.094487,23.5809864 C540.378155,23.8399877 540.519987,24.2038174 540.519987,24.6724864 L540.519987,48.1674864 C540.519987,48.6361554 540.378155,48.9999851 540.094487,49.2589864 C539.810819,49.5179877 539.459322,49.6474864 539.039987,49.6474864 Z M554.320987,49.7214864 C552.618978,49.7214864 551.120493,49.3391569 549.825487,48.5744864 C548.530481,47.8098159 547.531491,46.7183268 546.828487,45.2999864 C546.125483,43.8816459 545.773987,42.2351624 545.773987,40.3604864 C545.773987,38.4858103 546.125483,36.8393268 546.828487,35.4209864 C547.531491,34.0026459 548.530481,32.9111569 549.825487,32.1464864 C551.120493,31.3818159 552.618978,30.9994864 554.320987,30.9994864 C556.022995,30.9994864 557.527647,31.3818159 558.834987,32.1464864 C560.142327,32.9111569 561.147483,34.0026459 561.850487,35.4209864 C562.553491,36.8393268 562.904987,38.4858103 562.904987,40.3604864 C562.904987,42.2351624 562.553491,43.8816459 561.850487,45.2999864 C561.147483,46.7183268 560.142327,47.8098159 558.834987,48.5744864 C557.527647,49.3391569 556.022995,49.7214864 554.320987,49.7214864 Z M554.320987,47.2424864 C556.096996,47.2424864 557.459816,46.6566589 558.409487,45.4849864 C559.359158,44.3133138 559.833987,42.6051643 559.833987,40.3604864 C559.833987,38.1651421 559.352992,36.4693257 558.390987,35.2729864 C557.428982,34.0766471 556.072329,33.4784864 554.320987,33.4784864 C552.569645,33.4784864 551.212992,34.0766471 550.250987,35.2729864 C549.288982,36.4693257 548.807987,38.1651421 548.807987,40.3604864 C548.807987,42.5804975 549.282816,44.2824805 550.232487,45.4664864 C551.182158,46.6504923 552.544978,47.2424864 554.320987,47.2424864 Z M580.886987,31.9984864 C581.158322,31.4064834 581.589984,31.1104864 582.181987,31.1104864 C582.551989,31.1104864 582.884986,31.2338185 583.180987,31.4804864 C583.476988,31.7271543 583.624987,32.0354845 583.624987,32.4054864 C583.624987,32.6274875 583.575654,32.8248188 583.476987,32.9974864 L573.079987,55.4194864 C572.956653,55.6908211 572.777821,55.9004856 572.543487,56.0484864 C572.309152,56.1964871 572.068655,56.2704864 571.821987,56.2704864 C571.451985,56.2704864 571.125155,56.1533209 570.841487,55.9189864 C570.557819,55.6846519 570.415987,55.3824882 570.415987,55.0124864 C570.415987,54.8151521 570.46532,54.6178207 570.563987,54.4204864 L573.153987,48.8334864 L565.827987,32.9974864 C565.72932,32.8248188 565.679987,32.6398207 565.679987,32.4424864 C565.679987,32.0724845 565.846485,31.7518211 566.179487,31.4804864 C566.512489,31.2091517 566.876318,31.0734864 567.270987,31.0734864 C567.517655,31.0734864 567.758152,31.1474856 567.992487,31.2954864 C568.226821,31.4434871 568.405653,31.6531517 568.528987,31.9244864 L574.707987,45.7994864 L580.886987,31.9984864 Z" id="deploy" fill="#262626" fill-rule="nonzero"></path>
                <path d="M12.800987,165.999486 C14.3796615,165.999486 15.7733143,166.381816 16.981987,167.146486 C18.1906597,167.911157 19.1279837,168.996479 19.793987,170.402486 C20.4599903,171.808493 20.792987,173.436477 20.792987,175.286486 C20.792987,177.161162 20.4599903,178.807646 19.793987,180.225986 C19.1279837,181.644327 18.1906597,182.748149 16.981987,183.537486 C15.7733143,184.326824 14.3796615,184.721486 12.800987,184.721486 C11.39498,184.721486 10.1678256,184.413156 9.11948699,183.796486 C8.07114841,183.179817 7.27565637,182.304159 6.73298699,181.169486 L6.73298699,183.167486 C6.73298699,183.611489 6.60348828,183.969152 6.34448699,184.240486 C6.08548569,184.511821 5.721656,184.647486 5.25298699,184.647486 C4.78431798,184.647486 4.41432168,184.511821 4.14298699,184.240486 C3.8716523,183.969152 3.73598699,183.611489 3.73598699,183.167486 L3.73598699,159.635486 C3.73598699,159.216151 3.8716523,158.870821 4.14298699,158.599486 C4.41432168,158.328152 4.78431798,158.192486 5.25298699,158.192486 C5.721656,158.192486 6.08548569,158.321985 6.34448699,158.580986 C6.60348828,158.839988 6.73298699,159.191484 6.73298699,159.635486 L6.73298699,169.551486 C7.27565637,168.416814 8.07114841,167.541156 9.11948699,166.924486 C10.1678256,166.307817 11.39498,165.999486 12.800987,165.999486 Z M12.208987,182.242486 C13.9603291,182.242486 15.3169822,181.631992 16.278987,180.410986 C17.2409918,179.18998 17.721987,177.481831 17.721987,175.286486 C17.721987,173.140476 17.2409918,171.475492 16.278987,170.291486 C15.3169822,169.10748 13.9603291,168.515486 12.208987,168.515486 C10.4576449,168.515486 9.1071584,169.10748 8.15748699,170.291486 C7.20781557,171.475492 6.73298699,173.165142 6.73298699,175.360486 C6.73298699,177.555831 7.20781557,179.251647 8.15748699,180.447986 C9.1071584,181.644326 10.4576449,182.242486 12.208987,182.242486 Z M39.699987,166.073486 C40.168656,166.073486 40.5324857,166.209152 40.791487,166.480486 C41.0504883,166.751821 41.179987,167.109484 41.179987,167.553486 L41.179987,183.204486 C41.179987,183.623822 41.0504883,183.969152 40.791487,184.240486 C40.5324857,184.511821 40.168656,184.647486 39.699987,184.647486 C39.2559848,184.647486 38.9044883,184.517988 38.645487,184.258986 C38.3864857,183.999985 38.256987,183.660822 38.256987,183.241486 L38.256987,181.391486 C37.6896508,182.476825 36.8941588,183.30315 35.870487,183.870486 C34.8468152,184.437823 33.6936601,184.721486 32.410987,184.721486 C30.2649763,184.721486 28.6493257,184.123326 27.563987,182.926986 C26.4786482,181.730647 25.935987,179.960831 25.935987,177.617486 L25.935987,167.553486 C25.935987,167.109484 26.0716523,166.751821 26.342987,166.480486 C26.6143217,166.209152 26.984318,166.073486 27.452987,166.073486 C27.921656,166.073486 28.2854857,166.209152 28.544487,166.480486 C28.8034883,166.751821 28.932987,167.109484 28.932987,167.553486 L28.932987,177.543486 C28.932987,179.146828 29.2536504,180.324649 29.894987,181.076986 C30.5363235,181.829323 31.5476467,182.205486 32.928987,182.205486 C34.5076615,182.205486 35.7779822,181.693658 36.739987,180.669986 C37.7019918,179.646315 38.182987,178.295828 38.182987,176.618486 L38.182987,167.553486 C38.182987,167.109484 38.3186523,166.751821 38.589987,166.480486 C38.8613217,166.209152 39.231318,166.073486 39.699987,166.073486 Z M49.023987,184.647486 C48.5799848,184.647486 48.2161551,184.517988 47.932487,184.258986 C47.6488189,183.999985 47.506987,183.636155 47.506987,183.167486 L47.506987,167.553486 C47.506987,167.084817 47.6488189,166.720988 47.932487,166.461986 C48.2161551,166.202985 48.5799848,166.073486 49.023987,166.073486 C49.4679892,166.073486 49.8256523,166.202985 50.096987,166.461986 C50.3683217,166.720988 50.503987,167.084817 50.503987,167.553486 L50.503987,183.167486 C50.503987,183.660822 50.3683217,184.030818 50.096987,184.277486 C49.8256523,184.524154 49.4679892,184.647486 49.023987,184.647486 Z M49.023987,162.188486 C48.431984,162.188486 47.9509888,162.015821 47.580987,161.670486 C47.2109851,161.325151 47.025987,160.868823 47.025987,160.301486 C47.025987,159.758817 47.2109851,159.314821 47.580987,158.969486 C47.9509888,158.624151 48.431984,158.451486 49.023987,158.451486 C49.6159899,158.451486 50.0969851,158.624151 50.466987,158.969486 C50.8369888,159.314821 51.021987,159.758817 51.021987,160.301486 C51.021987,160.868823 50.8369888,161.325151 50.466987,161.670486 C50.0969851,162.015821 49.6159899,162.188486 49.023987,162.188486 Z M58.347987,184.647486 C57.9039848,184.647486 57.5401551,184.517988 57.256487,184.258986 C56.9728189,183.999985 56.830987,183.636155 56.830987,183.167486 L56.830987,159.672486 C56.830987,159.203817 56.9728189,158.839988 57.256487,158.580986 C57.5401551,158.321985 57.9039848,158.192486 58.347987,158.192486 C58.7673224,158.192486 59.1188189,158.321985 59.402487,158.580986 C59.6861551,158.839988 59.827987,159.203817 59.827987,159.672486 L59.827987,183.167486 C59.827987,183.636155 59.6861551,183.999985 59.402487,184.258986 C59.1188189,184.517988 58.7673224,184.647486 58.347987,184.647486 Z M80.621987,158.192486 C81.090656,158.192486 81.4606523,158.328152 81.731987,158.599486 C82.0033217,158.870821 82.138987,159.216151 82.138987,159.635486 L82.138987,183.167486 C82.138987,183.611489 82.0033217,183.969152 81.731987,184.240486 C81.4606523,184.511821 81.090656,184.647486 80.621987,184.647486 C80.153318,184.647486 79.7894883,184.511821 79.530487,184.240486 C79.2714857,183.969152 79.141987,183.611489 79.141987,183.167486 L79.141987,181.169486 C78.5993176,182.304159 77.8038256,183.179817 76.755487,183.796486 C75.7071484,184.413156 74.479994,184.721486 73.073987,184.721486 C71.4953124,184.721486 70.1016597,184.326824 68.892987,183.537486 C67.6843143,182.748149 66.7469903,181.644327 66.080987,180.225986 C65.4149837,178.807646 65.081987,177.161162 65.081987,175.286486 C65.081987,173.436477 65.4149837,171.808493 66.080987,170.402486 C66.7469903,168.996479 67.6843143,167.911157 68.892987,167.146486 C70.1016597,166.381816 71.4953124,165.999486 73.073987,165.999486 C74.479994,165.999486 75.7071484,166.307817 76.755487,166.924486 C77.8038256,167.541156 78.5993176,168.416814 79.141987,169.551486 L79.141987,159.635486 C79.141987,159.191484 79.2714857,158.839988 79.530487,158.580986 C79.7894883,158.321985 80.153318,158.192486 80.621987,158.192486 Z M73.665987,182.242486 C75.4173291,182.242486 76.7678156,181.644326 77.717487,180.447986 C78.6671584,179.251647 79.141987,177.555831 79.141987,175.360486 C79.141987,173.165142 78.6671584,171.475492 77.717487,170.291486 C76.7678156,169.10748 75.4173291,168.515486 73.665987,168.515486 C71.9146449,168.515486 70.5518252,169.10748 69.577487,170.291486 C68.6031488,171.475492 68.115987,173.140476 68.115987,175.286486 C68.115987,177.481831 68.6031488,179.18998 69.577487,180.410986 C70.5518252,181.631992 71.9146449,182.242486 73.665987,182.242486 Z" id="build" fill="#262626" fill-rule="nonzero"></path>
                <path d="M584.209987,184.721486 C582.507978,184.721486 581.009493,184.339157 579.714487,183.574486 C578.419481,182.809816 577.420491,181.718327 576.717487,180.299986 C576.014483,178.881646 575.662987,177.235162 575.662987,175.360486 C575.662987,173.48581 576.014483,171.839327 576.717487,170.420986 C577.420491,169.002646 578.419481,167.911157 579.714487,167.146486 C581.009493,166.381816 582.507978,165.999486 584.209987,165.999486 C585.911995,165.999486 587.416647,166.381816 588.723987,167.146486 C590.031327,167.911157 591.036483,169.002646 591.739487,170.420986 C592.442491,171.839327 592.793987,173.48581 592.793987,175.360486 C592.793987,177.235162 592.442491,178.881646 591.739487,180.299986 C591.036483,181.718327 590.031327,182.809816 588.723987,183.574486 C587.416647,184.339157 585.911995,184.721486 584.209987,184.721486 Z M584.209987,182.242486 C585.985996,182.242486 587.348816,181.656659 588.298487,180.484986 C589.248158,179.313314 589.722987,177.605164 589.722987,175.360486 C589.722987,173.165142 589.241992,171.469326 588.279987,170.272986 C587.317982,169.076647 585.961329,168.478486 584.209987,168.478486 C582.458645,168.478486 581.101992,169.076647 580.139987,170.272986 C579.177982,171.469326 578.696987,173.165142 578.696987,175.360486 C578.696987,177.580497 579.171816,179.28248 580.121487,180.466486 C581.071158,181.650492 582.433978,182.242486 584.209987,182.242486 Z M607.075987,165.999486 C608.654662,165.999486 610.048314,166.394149 611.256987,167.183486 C612.46566,167.972824 613.402984,169.076646 614.068987,170.494986 C614.73499,171.913327 615.067987,173.55981 615.067987,175.434486 C615.067987,177.309162 614.73499,178.943313 614.068987,180.336986 C613.402984,181.73066 612.471826,182.809816 611.275487,183.574486 C610.079148,184.339157 608.679328,184.721486 607.075987,184.721486 C605.66998,184.721486 604.442826,184.413156 603.394487,183.796486 C602.346148,183.179817 601.550656,182.304159 601.007987,181.169486 L601.007987,189.864486 C601.007987,190.308489 600.878488,190.659985 600.619487,190.918986 C600.360486,191.177988 599.996656,191.307486 599.527987,191.307486 C599.059318,191.307486 598.689322,191.171821 598.417987,190.900486 C598.146652,190.629152 598.010987,190.283822 598.010987,189.864486 L598.010987,167.553486 C598.010987,167.109484 598.146652,166.751821 598.417987,166.480486 C598.689322,166.209152 599.059318,166.073486 599.527987,166.073486 C599.996656,166.073486 600.360486,166.209152 600.619487,166.480486 C600.878488,166.751821 601.007987,167.109484 601.007987,167.553486 L601.007987,169.551486 C601.550656,168.416814 602.346148,167.541156 603.394487,166.924486 C604.442826,166.307817 605.66998,165.999486 607.075987,165.999486 Z M606.483987,182.242486 C608.235329,182.242486 609.591982,181.650492 610.553987,180.466486 C611.515992,179.28248 611.996987,177.605164 611.996987,175.434486 C611.996987,173.263809 611.515992,171.567992 610.553987,170.346986 C609.591982,169.12598 608.235329,168.515486 606.483987,168.515486 C604.732645,168.515486 603.382158,169.10748 602.432487,170.291486 C601.482816,171.475492 601.007987,173.165142 601.007987,175.360486 C601.007987,177.555831 601.482816,179.251647 602.432487,180.447986 C603.382158,181.644326 604.732645,182.242486 606.483987,182.242486 Z M634.233987,180.281486 C634.505322,180.281486 634.739653,180.392485 634.936987,180.614486 C635.134321,180.836487 635.232987,181.120151 635.232987,181.465486 C635.232987,182.082156 634.801325,182.649484 633.937987,183.167486 C633.049983,183.685489 632.112659,184.073985 631.125987,184.332986 C630.139315,184.591988 629.177325,184.721486 628.239987,184.721486 C625.45264,184.721486 623.251162,183.895161 621.635487,182.242486 C620.019812,180.589811 619.211987,178.308168 619.211987,175.397486 C619.211987,173.547477 619.56965,171.913327 620.284987,170.494986 C621.000324,169.076646 622.005481,167.972824 623.300487,167.183486 C624.595493,166.394149 626.069312,165.999486 627.721987,165.999486 C630.065332,165.999486 631.927647,166.764145 633.308987,168.293486 C634.690327,169.822827 635.380987,171.894807 635.380987,174.509486 C635.380987,175.002822 635.282321,175.360485 635.084987,175.582486 C634.887653,175.804487 634.566989,175.915486 634.122987,175.915486 L622.208987,175.915486 C622.430988,180.158174 624.441301,182.279486 628.239987,182.279486 C629.201992,182.279486 630.028317,182.149988 630.718987,181.890986 C631.409657,181.631985 632.14965,181.280489 632.938987,180.836486 C633.580324,180.466485 634.011986,180.281486 634.233987,180.281486 Z M627.758987,168.330486 C626.180312,168.330486 624.916158,168.823815 623.966487,169.810486 C623.016816,170.797158 622.455655,172.190811 622.282987,173.991486 L632.753987,173.991486 C632.704653,172.166144 632.248325,170.766325 631.384987,169.791986 C630.521649,168.817648 629.312995,168.330486 627.758987,168.330486 Z M649.440987,166.073486 C650.476992,165.999486 650.994987,166.418815 650.994987,167.331486 C650.994987,167.726155 650.883988,168.040652 650.661987,168.274986 C650.439986,168.509321 650.057656,168.651153 649.514987,168.700486 L648.404987,168.811486 C646.752312,168.959487 645.525158,169.545315 644.723487,170.568986 C643.921816,171.592658 643.520987,172.795146 643.520987,174.176486 L643.520987,183.167486 C643.520987,183.660822 643.385322,184.030818 643.113987,184.277486 C642.842652,184.524154 642.484989,184.647486 642.040987,184.647486 C641.596985,184.647486 641.233155,184.517988 640.949487,184.258986 C640.665819,183.999985 640.523987,183.636155 640.523987,183.167486 L640.523987,167.553486 C640.523987,167.084817 640.671986,166.720988 640.967987,166.461986 C641.263988,166.202985 641.621652,166.073486 642.040987,166.073486 C642.435656,166.073486 642.768652,166.202985 643.039987,166.461986 C643.311322,166.720988 643.446987,167.072484 643.446987,167.516486 L643.446987,169.588486 C643.96499,168.503148 644.698816,167.676823 645.648487,167.109486 C646.598158,166.54215 647.689647,166.209154 648.922987,166.110486 L649.440987,166.073486 Z M661.539987,165.999486 C666.05401,165.999486 668.310987,168.367463 668.310987,173.103486 L668.310987,183.167486 C668.310987,183.611489 668.181488,183.969152 667.922487,184.240486 C667.663486,184.511821 667.311989,184.647486 666.867987,184.647486 C666.423985,184.647486 666.066322,184.511821 665.794987,184.240486 C665.523652,183.969152 665.387987,183.611489 665.387987,183.167486 L665.387987,181.391486 C664.919318,182.452158 664.203992,183.272317 663.241987,183.851986 C662.279982,184.431656 661.169993,184.721486 659.911987,184.721486 C658.752648,184.721486 657.685825,184.487155 656.711487,184.018486 C655.737149,183.549817 654.966323,182.896157 654.398987,182.057486 C653.831651,181.218816 653.547987,180.293825 653.547987,179.282486 C653.547987,177.925813 653.893317,176.871323 654.583987,176.118986 C655.274657,175.366649 656.409312,174.823988 657.987987,174.490986 C659.566662,174.157985 661.761973,173.991486 664.573987,173.991486 L665.387987,173.991486 L665.387987,172.770486 C665.387987,171.290479 665.085823,170.205156 664.481487,169.514486 C663.877151,168.823816 662.89666,168.478486 661.539987,168.478486 C659.862645,168.478486 658.160662,168.934815 656.433987,169.847486 C655.767984,170.266822 655.299322,170.476486 655.027987,170.476486 C654.731986,170.476486 654.485321,170.365487 654.287987,170.143486 C654.090653,169.921485 653.991987,169.637821 653.991987,169.292486 C653.991987,168.947151 654.096819,168.644988 654.306487,168.385986 C654.516155,168.126985 654.855318,167.861821 655.323987,167.590486 C656.187325,167.097151 657.167815,166.708654 658.265487,166.424986 C659.363159,166.141318 660.454648,165.999486 661.539987,165.999486 Z M660.318987,182.353486 C661.798994,182.353486 663.013816,181.853991 663.963487,180.854986 C664.913158,179.855981 665.387987,178.567161 665.387987,176.988486 L665.387987,175.915486 L664.721987,175.915486 C662.551309,175.915486 660.898659,176.007985 659.763987,176.192986 C658.629315,176.377987 657.821489,176.686318 657.340487,177.117986 C656.859485,177.549655 656.618987,178.184816 656.618987,179.023486 C656.618987,179.985491 656.970483,180.780983 657.673487,181.409986 C658.376491,182.03899 659.258315,182.353486 660.318987,182.353486 Z M682.851987,182.279486 C683.715325,182.353487 684.146987,182.748149 684.146987,183.463486 C684.146987,183.882822 683.992822,184.197319 683.684487,184.406986 C683.376152,184.616654 682.913657,184.69682 682.296987,184.647486 L681.297987,184.573486 C679.324644,184.425486 677.869325,183.833492 676.931987,182.797486 C675.994649,181.761481 675.525987,180.195164 675.525987,178.098486 L675.525987,168.811486 L673.046987,168.811486 C672.627652,168.811486 672.300821,168.706654 672.066487,168.496986 C671.832152,168.287319 671.714987,168.009821 671.714987,167.664486 C671.714987,167.294485 671.832152,166.998487 672.066487,166.776486 C672.300821,166.554485 672.627652,166.443486 673.046987,166.443486 L675.525987,166.443486 L675.525987,162.262486 C675.525987,161.793817 675.661652,161.429988 675.932987,161.170986 C676.204322,160.911985 676.574318,160.782486 677.042987,160.782486 C677.486989,160.782486 677.844652,160.911985 678.115987,161.170986 C678.387322,161.429988 678.522987,161.793817 678.522987,162.262486 L678.522987,166.443486 L682.629987,166.443486 C683.024656,166.443486 683.339152,166.554485 683.573487,166.776486 C683.807821,166.998487 683.924987,167.294485 683.924987,167.664486 C683.924987,168.009821 683.807821,168.287319 683.573487,168.496986 C683.339152,168.706654 683.024656,168.811486 682.629987,168.811486 L678.522987,168.811486 L678.522987,178.246486 C678.522987,179.60316 678.800484,180.58365 679.355487,181.187986 C679.91049,181.792323 680.742981,182.131486 681.852987,182.205486 L682.851987,182.279486 Z M701.795987,180.281486 C702.067322,180.281486 702.301653,180.392485 702.498987,180.614486 C702.696321,180.836487 702.794987,181.120151 702.794987,181.465486 C702.794987,182.082156 702.363325,182.649484 701.499987,183.167486 C700.611983,183.685489 699.674659,184.073985 698.687987,184.332986 C697.701315,184.591988 696.739325,184.721486 695.801987,184.721486 C693.01464,184.721486 690.813162,183.895161 689.197487,182.242486 C687.581812,180.589811 686.773987,178.308168 686.773987,175.397486 C686.773987,173.547477 687.13165,171.913327 687.846987,170.494986 C688.562324,169.076646 689.567481,167.972824 690.862487,167.183486 C692.157493,166.394149 693.631312,165.999486 695.283987,165.999486 C697.627332,165.999486 699.489647,166.764145 700.870987,168.293486 C702.252327,169.822827 702.942987,171.894807 702.942987,174.509486 C702.942987,175.002822 702.844321,175.360485 702.646987,175.582486 C702.449653,175.804487 702.128989,175.915486 701.684987,175.915486 L689.770987,175.915486 C689.992988,180.158174 692.003301,182.279486 695.801987,182.279486 C696.763992,182.279486 697.590317,182.149988 698.280987,181.890986 C698.971657,181.631985 699.71165,181.280489 700.500987,180.836486 C701.142324,180.466485 701.573986,180.281486 701.795987,180.281486 Z M695.320987,168.330486 C693.742312,168.330486 692.478158,168.823815 691.528487,169.810486 C690.578816,170.797158 690.017655,172.190811 689.844987,173.991486 L700.315987,173.991486 C700.266653,172.166144 699.810325,170.766325 698.946987,169.791986 C698.083649,168.817648 696.874995,168.330486 695.320987,168.330486 Z" id="operate" fill="#262626" fill-rule="nonzero"></path>
                <path d="M269.320518,94.6283926 C270.899193,94.6283926 272.292846,95.0230553 273.501518,95.8123926 C274.710191,96.6017299 275.647515,97.7055522 276.313518,99.1238926 C276.979522,100.542233 277.312518,102.188717 277.312518,104.063393 C277.312518,105.938069 276.979522,107.572219 276.313518,108.965893 C275.647515,110.359566 274.716358,111.438722 273.520018,112.203393 C272.323679,112.968063 270.92386,113.350393 269.320518,113.350393 C267.914511,113.350393 266.687357,113.042062 265.639018,112.425393 C264.59068,111.808723 263.795188,110.933065 263.252518,109.798393 L263.252518,118.493393 C263.252518,118.937395 263.12302,119.288891 262.864018,119.547893 C262.605017,119.806894 262.241187,119.936393 261.772518,119.936393 C261.303849,119.936393 260.933853,119.800727 260.662518,119.529393 C260.391184,119.258058 260.255518,118.912728 260.255518,118.493393 L260.255518,96.1823926 C260.255518,95.7383904 260.391184,95.3807273 260.662518,95.1093926 C260.933853,94.8380579 261.303849,94.7023926 261.772518,94.7023926 C262.241187,94.7023926 262.605017,94.8380579 262.864018,95.1093926 C263.12302,95.3807273 263.252518,95.7383904 263.252518,96.1823926 L263.252518,98.1803926 C263.795188,97.0457203 264.59068,96.1700624 265.639018,95.5533926 C266.687357,94.9367229 267.914511,94.6283926 269.320518,94.6283926 Z M268.728518,110.871393 C270.47986,110.871393 271.836513,110.279399 272.798518,109.095393 C273.760523,107.911387 274.241518,106.23407 274.241518,104.063393 C274.241518,101.892715 273.760523,100.196899 272.798518,98.9758926 C271.836513,97.7548865 270.47986,97.1443926 268.728518,97.1443926 C266.977176,97.1443926 265.62669,97.7363867 264.677018,98.9203926 C263.727347,100.104399 263.252518,101.794048 263.252518,103.989393 C263.252518,106.184737 263.727347,107.880553 264.677018,109.076893 C265.62669,110.273232 266.977176,110.871393 268.728518,110.871393 Z M284.046518,113.276393 C283.602516,113.276393 283.238686,113.146894 282.955018,112.887893 C282.67135,112.628891 282.529518,112.265062 282.529518,111.796393 L282.529518,88.3013926 C282.529518,87.8327236 282.67135,87.4688939 282.955018,87.2098926 C283.238686,86.9508913 283.602516,86.8213926 284.046518,86.8213926 C284.465854,86.8213926 284.81735,86.9508913 285.101018,87.2098926 C285.384686,87.4688939 285.526518,87.8327236 285.526518,88.3013926 L285.526518,111.796393 C285.526518,112.265062 285.384686,112.628891 285.101018,112.887893 C284.81735,113.146894 284.465854,113.276393 284.046518,113.276393 Z M299.216518,94.6283926 C303.730541,94.6283926 305.987518,96.9963689 305.987518,101.732393 L305.987518,111.796393 C305.987518,112.240395 305.85802,112.598058 305.599018,112.869393 C305.340017,113.140727 304.98852,113.276393 304.544518,113.276393 C304.100516,113.276393 303.742853,113.140727 303.471518,112.869393 C303.200184,112.598058 303.064518,112.240395 303.064518,111.796393 L303.064518,110.020393 C302.595849,111.081065 301.880523,111.901223 300.918518,112.480893 C299.956513,113.060562 298.846525,113.350393 297.588518,113.350393 C296.429179,113.350393 295.362356,113.116062 294.388018,112.647393 C293.41368,112.178724 292.642854,111.525063 292.075518,110.686393 C291.508182,109.847722 291.224518,108.922731 291.224518,107.911393 C291.224518,106.554719 291.569848,105.50023 292.260518,104.747893 C292.951188,103.995556 294.085844,103.452894 295.664518,103.119893 C297.243193,102.786891 299.438504,102.620393 302.250518,102.620393 L303.064518,102.620393 L303.064518,101.399393 C303.064518,99.9193852 302.762355,98.8340627 302.158018,98.1433926 C301.553682,97.4527225 300.573192,97.1073926 299.216518,97.1073926 C297.539177,97.1073926 295.837194,97.5637214 294.110518,98.4763926 C293.444515,98.8957281 292.975853,99.1053926 292.704518,99.1053926 C292.408517,99.1053926 292.161853,98.9943937 291.964518,98.7723926 C291.767184,98.5503915 291.668518,98.2667277 291.668518,97.9213926 C291.668518,97.5760576 291.773351,97.2738939 291.983018,97.0148926 C292.192686,96.7558913 292.531849,96.4907273 293.000518,96.2193926 C293.863856,95.7260568 294.844346,95.3375607 295.942018,95.0538926 C297.03969,94.7702245 298.131179,94.6283926 299.216518,94.6283926 Z M297.995518,110.982393 C299.475526,110.982393 300.690347,110.482898 301.640018,109.483893 C302.58969,108.484888 303.064518,107.196067 303.064518,105.617393 L303.064518,104.544393 L302.398518,104.544393 C300.227841,104.544393 298.575191,104.636892 297.440518,104.821893 C296.305846,105.006894 295.498021,105.315224 295.017018,105.746893 C294.536016,106.178561 294.295518,106.813722 294.295518,107.652393 C294.295518,108.614397 294.647015,109.409889 295.350018,110.038893 C296.053022,110.667896 296.934846,110.982393 297.995518,110.982393 Z M321.268518,94.6283926 C325.585206,94.6283926 327.743518,97.0087022 327.743518,101.769393 L327.743518,111.796393 C327.743518,112.265062 327.61402,112.628891 327.355018,112.887893 C327.096017,113.146894 326.732187,113.276393 326.263518,113.276393 C325.794849,113.276393 325.424853,113.146894 325.153518,112.887893 C324.882184,112.628891 324.746518,112.265062 324.746518,111.796393 L324.746518,101.954393 C324.746518,100.277051 324.419688,99.0560631 323.766018,98.2913926 C323.112348,97.5267221 322.070192,97.1443926 320.639518,97.1443926 C318.986843,97.1443926 317.66719,97.6500542 316.680518,98.6613926 C315.693847,99.672731 315.200518,101.041717 315.200518,102.768393 L315.200518,111.796393 C315.200518,112.265062 315.07102,112.628891 314.812018,112.887893 C314.553017,113.146894 314.189187,113.276393 313.720518,113.276393 C313.251849,113.276393 312.881853,113.146894 312.610518,112.887893 C312.339184,112.628891 312.203518,112.265062 312.203518,111.796393 L312.203518,96.1823926 C312.203518,95.7383904 312.339184,95.3807273 312.610518,95.1093926 C312.881853,94.8380579 313.251849,94.7023926 313.720518,94.7023926 C314.16452,94.7023926 314.516017,94.8380579 314.775018,95.1093926 C315.03402,95.3807273 315.163518,95.7260572 315.163518,96.1453926 L315.163518,98.0323926 C315.755521,96.9223871 316.581846,96.0775622 317.642518,95.4978926 C318.70319,94.9182231 319.911845,94.6283926 321.268518,94.6283926 Z" id="plan" fill="#262626" fill-rule="nonzero" transform="translate(293.999518, 103.378893) rotate(-312.000000) translate(-293.999518, -103.378893) "></path>
                <path d="M445.789987,275.999486 C449.786007,275.999486 451.783987,278.379796 451.783987,283.140486 L451.783987,293.167486 C451.783987,293.636155 451.648322,293.999985 451.376987,294.258986 C451.105652,294.517988 450.747989,294.647486 450.303987,294.647486 C449.859985,294.647486 449.496155,294.517988 449.212487,294.258986 C448.928819,293.999985 448.786987,293.636155 448.786987,293.167486 L448.786987,283.214486 C448.786987,281.561811 448.49099,280.36549 447.898987,279.625486 C447.306984,278.885483 446.381993,278.515486 445.123987,278.515486 C443.619313,278.515486 442.435325,279.021148 441.571987,280.032486 C440.708649,281.043825 440.276987,282.412811 440.276987,284.139486 L440.276987,293.167486 C440.276987,293.636155 440.135155,293.999985 439.851487,294.258986 C439.567819,294.517988 439.203989,294.647486 438.759987,294.647486 C438.315985,294.647486 437.958322,294.517988 437.686987,294.258986 C437.415652,293.999985 437.279987,293.636155 437.279987,293.167486 L437.279987,283.214486 C437.279987,281.561811 436.98399,280.36549 436.391987,279.625486 C435.799984,278.885483 434.86266,278.515486 433.579987,278.515486 C432.09998,278.515486 430.922158,279.021148 430.046487,280.032486 C429.170816,281.043825 428.732987,282.412811 428.732987,284.139486 L428.732987,293.167486 C428.732987,293.636155 428.597322,293.999985 428.325987,294.258986 C428.054652,294.517988 427.696989,294.647486 427.252987,294.647486 C426.808985,294.647486 426.445155,294.517988 426.161487,294.258986 C425.877819,293.999985 425.735987,293.636155 425.735987,293.167486 L425.735987,277.553486 C425.735987,277.109484 425.877819,276.751821 426.161487,276.480486 C426.445155,276.209152 426.808985,276.073486 427.252987,276.073486 C427.672322,276.073486 428.017652,276.202985 428.288987,276.461986 C428.560322,276.720988 428.695987,277.072484 428.695987,277.516486 L428.695987,279.292486 C429.238656,278.231814 429.990982,277.417823 430.952987,276.850486 C431.914992,276.28315 433.024981,275.999486 434.282987,275.999486 C437.095001,275.999486 438.932649,277.183475 439.795987,279.551486 C440.31399,278.466148 441.103315,277.602823 442.163987,276.961486 C443.224659,276.32015 444.433314,275.999486 445.789987,275.999486 Z M465.473987,294.721486 C463.771978,294.721486 462.273493,294.339157 460.978487,293.574486 C459.683481,292.809816 458.684491,291.718327 457.981487,290.299986 C457.278483,288.881646 456.926987,287.235162 456.926987,285.360486 C456.926987,283.48581 457.278483,281.839327 457.981487,280.420986 C458.684491,279.002646 459.683481,277.911157 460.978487,277.146486 C462.273493,276.381816 463.771978,275.999486 465.473987,275.999486 C467.175995,275.999486 468.680647,276.381816 469.987987,277.146486 C471.295327,277.911157 472.300483,279.002646 473.003487,280.420986 C473.706491,281.839327 474.057987,283.48581 474.057987,285.360486 C474.057987,287.235162 473.706491,288.881646 473.003487,290.299986 C472.300483,291.718327 471.295327,292.809816 469.987987,293.574486 C468.680647,294.339157 467.175995,294.721486 465.473987,294.721486 Z M465.473987,292.242486 C467.249996,292.242486 468.612816,291.656659 469.562487,290.484986 C470.512158,289.313314 470.986987,287.605164 470.986987,285.360486 C470.986987,283.165142 470.505992,281.469326 469.543987,280.272986 C468.581982,279.076647 467.225329,278.478486 465.473987,278.478486 C463.722645,278.478486 462.365992,279.076647 461.403987,280.272986 C460.441982,281.469326 459.960987,283.165142 459.960987,285.360486 C459.960987,287.580497 460.435816,289.28248 461.385487,290.466486 C462.335158,291.650492 463.697978,292.242486 465.473987,292.242486 Z M488.339987,275.999486 C492.656675,275.999486 494.814987,278.379796 494.814987,283.140486 L494.814987,293.167486 C494.814987,293.636155 494.685488,293.999985 494.426487,294.258986 C494.167486,294.517988 493.803656,294.647486 493.334987,294.647486 C492.866318,294.647486 492.496322,294.517988 492.224987,294.258986 C491.953652,293.999985 491.817987,293.636155 491.817987,293.167486 L491.817987,283.325486 C491.817987,281.648145 491.491157,280.427157 490.837487,279.662486 C490.183817,278.897816 489.141661,278.515486 487.710987,278.515486 C486.058312,278.515486 484.738659,279.021148 483.751987,280.032486 C482.765315,281.043825 482.271987,282.412811 482.271987,284.139486 L482.271987,293.167486 C482.271987,293.636155 482.142488,293.999985 481.883487,294.258986 C481.624486,294.517988 481.260656,294.647486 480.791987,294.647486 C480.323318,294.647486 479.953322,294.517988 479.681987,294.258986 C479.410652,293.999985 479.274987,293.636155 479.274987,293.167486 L479.274987,277.553486 C479.274987,277.109484 479.410652,276.751821 479.681987,276.480486 C479.953322,276.209152 480.323318,276.073486 480.791987,276.073486 C481.235989,276.073486 481.587486,276.209152 481.846487,276.480486 C482.105488,276.751821 482.234987,277.097151 482.234987,277.516486 L482.234987,279.403486 C482.82699,278.293481 483.653315,277.448656 484.713987,276.868986 C485.774659,276.289317 486.983314,275.999486 488.339987,275.999486 Z M502.547987,294.647486 C502.103985,294.647486 501.740155,294.517988 501.456487,294.258986 C501.172819,293.999985 501.030987,293.636155 501.030987,293.167486 L501.030987,277.553486 C501.030987,277.084817 501.172819,276.720988 501.456487,276.461986 C501.740155,276.202985 502.103985,276.073486 502.547987,276.073486 C502.991989,276.073486 503.349652,276.202985 503.620987,276.461986 C503.892322,276.720988 504.027987,277.084817 504.027987,277.553486 L504.027987,293.167486 C504.027987,293.660822 503.892322,294.030818 503.620987,294.277486 C503.349652,294.524154 502.991989,294.647486 502.547987,294.647486 Z M502.547987,272.188486 C501.955984,272.188486 501.474989,272.015821 501.104987,271.670486 C500.734985,271.325151 500.549987,270.868823 500.549987,270.301486 C500.549987,269.758817 500.734985,269.314821 501.104987,268.969486 C501.474989,268.624151 501.955984,268.451486 502.547987,268.451486 C503.13999,268.451486 503.620985,268.624151 503.990987,268.969486 C504.360989,269.314821 504.545987,269.758817 504.545987,270.301486 C504.545987,270.868823 504.360989,271.325151 503.990987,271.670486 C503.620985,272.015821 503.13999,272.188486 502.547987,272.188486 Z M518.679987,292.279486 C519.543325,292.353487 519.974987,292.748149 519.974987,293.463486 C519.974987,293.882822 519.820822,294.197319 519.512487,294.406986 C519.204152,294.616654 518.741657,294.69682 518.124987,294.647486 L517.125987,294.573486 C515.152644,294.425486 513.697325,293.833492 512.759987,292.797486 C511.822649,291.761481 511.353987,290.195164 511.353987,288.098486 L511.353987,278.811486 L508.874987,278.811486 C508.455652,278.811486 508.128821,278.706654 507.894487,278.496986 C507.660152,278.287319 507.542987,278.009821 507.542987,277.664486 C507.542987,277.294485 507.660152,276.998487 507.894487,276.776486 C508.128821,276.554485 508.455652,276.443486 508.874987,276.443486 L511.353987,276.443486 L511.353987,272.262486 C511.353987,271.793817 511.489652,271.429988 511.760987,271.170986 C512.032322,270.911985 512.402318,270.782486 512.870987,270.782486 C513.314989,270.782486 513.672652,270.911985 513.943987,271.170986 C514.215322,271.429988 514.350987,271.793817 514.350987,272.262486 L514.350987,276.443486 L518.457987,276.443486 C518.852656,276.443486 519.167152,276.554485 519.401487,276.776486 C519.635821,276.998487 519.752987,277.294485 519.752987,277.664486 C519.752987,278.009821 519.635821,278.287319 519.401487,278.496986 C519.167152,278.706654 518.852656,278.811486 518.457987,278.811486 L514.350987,278.811486 L514.350987,288.246486 C514.350987,289.60316 514.628484,290.58365 515.183487,291.187986 C515.73849,291.792323 516.570981,292.131486 517.680987,292.205486 L518.679987,292.279486 Z M531.148987,294.721486 C529.446978,294.721486 527.948493,294.339157 526.653487,293.574486 C525.358481,292.809816 524.359491,291.718327 523.656487,290.299986 C522.953483,288.881646 522.601987,287.235162 522.601987,285.360486 C522.601987,283.48581 522.953483,281.839327 523.656487,280.420986 C524.359491,279.002646 525.358481,277.911157 526.653487,277.146486 C527.948493,276.381816 529.446978,275.999486 531.148987,275.999486 C532.850995,275.999486 534.355647,276.381816 535.662987,277.146486 C536.970327,277.911157 537.975483,279.002646 538.678487,280.420986 C539.381491,281.839327 539.732987,283.48581 539.732987,285.360486 C539.732987,287.235162 539.381491,288.881646 538.678487,290.299986 C537.975483,291.718327 536.970327,292.809816 535.662987,293.574486 C534.355647,294.339157 532.850995,294.721486 531.148987,294.721486 Z M531.148987,292.242486 C532.924996,292.242486 534.287816,291.656659 535.237487,290.484986 C536.187158,289.313314 536.661987,287.605164 536.661987,285.360486 C536.661987,283.165142 536.180992,281.469326 535.218987,280.272986 C534.256982,279.076647 532.900329,278.478486 531.148987,278.478486 C529.397645,278.478486 528.040992,279.076647 527.078987,280.272986 C526.116982,281.469326 525.635987,283.165142 525.635987,285.360486 C525.635987,287.580497 526.110816,289.28248 527.060487,290.466486 C528.010158,291.650492 529.372978,292.242486 531.148987,292.242486 Z M553.866987,276.073486 C554.902992,275.999486 555.420987,276.418815 555.420987,277.331486 C555.420987,277.726155 555.309988,278.040652 555.087987,278.274986 C554.865986,278.509321 554.483656,278.651153 553.940987,278.700486 L552.830987,278.811486 C551.178312,278.959487 549.951158,279.545315 549.149487,280.568986 C548.347816,281.592658 547.946987,282.795146 547.946987,284.176486 L547.946987,293.167486 C547.946987,293.660822 547.811322,294.030818 547.539987,294.277486 C547.268652,294.524154 546.910989,294.647486 546.466987,294.647486 C546.022985,294.647486 545.659155,294.517988 545.375487,294.258986 C545.091819,293.999985 544.949987,293.636155 544.949987,293.167486 L544.949987,277.553486 C544.949987,277.084817 545.097986,276.720988 545.393987,276.461986 C545.689988,276.202985 546.047652,276.073486 546.466987,276.073486 C546.861656,276.073486 547.194652,276.202985 547.465987,276.461986 C547.737322,276.720988 547.872987,277.072484 547.872987,277.516486 L547.872987,279.588486 C548.39099,278.503148 549.124816,277.676823 550.074487,277.109486 C551.024158,276.54215 552.115647,276.209154 553.348987,276.110486 L553.866987,276.073486 Z" id="monitor" fill="#262626" fill-rule="nonzero"></path>
                <path d="M292.891268,153.268799 C293.927273,153.194799 294.445268,153.614128 294.445268,154.526799 C294.445268,154.921468 294.334269,155.235964 294.112268,155.470299 C293.890267,155.704633 293.507938,155.846465 292.965268,155.895799 L291.855268,156.006799 C290.202593,156.1548 288.975439,156.740627 288.173768,157.764299 C287.372098,158.787971 286.971268,159.990459 286.971268,161.371799 L286.971268,170.362799 C286.971268,170.856135 286.835603,171.226131 286.564268,171.472799 C286.292934,171.719467 285.93527,171.842799 285.491268,171.842799 C285.047266,171.842799 284.683436,171.7133 284.399768,171.454299 C284.1161,171.195298 283.974268,170.831468 283.974268,170.362799 L283.974268,154.748799 C283.974268,154.28013 284.122267,153.9163 284.418268,153.657299 C284.71427,153.398298 285.071933,153.268799 285.491268,153.268799 C285.885937,153.268799 286.218934,153.398298 286.490268,153.657299 C286.761603,153.9163 286.897268,154.267797 286.897268,154.711799 L286.897268,156.783799 C287.415271,155.69846 288.149097,154.872135 289.098768,154.304799 C290.04844,153.737463 291.139929,153.404466 292.373268,153.305799 L292.891268,153.268799 Z M311.354268,167.476799 C311.625603,167.476799 311.859934,167.587798 312.057268,167.809799 C312.254603,168.0318 312.353268,168.315464 312.353268,168.660799 C312.353268,169.277469 311.921606,169.844796 311.058268,170.362799 C310.170264,170.880801 309.23294,171.269298 308.246268,171.528299 C307.259597,171.7873 306.297606,171.916799 305.360268,171.916799 C302.572921,171.916799 300.371443,171.090474 298.755768,169.437799 C297.140093,167.785124 296.332268,165.50348 296.332268,162.592799 C296.332268,160.74279 296.689931,159.108639 297.405268,157.690299 C298.120605,156.271958 299.125762,155.168136 300.420768,154.378799 C301.715775,153.589462 303.189593,153.194799 304.842268,153.194799 C307.185613,153.194799 309.047928,153.959458 310.429268,155.488799 C311.810608,157.01814 312.501268,159.090119 312.501268,161.704799 C312.501268,162.198135 312.402603,162.555798 312.205268,162.777799 C312.007934,162.9998 311.68727,163.110799 311.243268,163.110799 L299.329268,163.110799 C299.551269,167.353487 301.561583,169.474799 305.360268,169.474799 C306.322273,169.474799 307.148598,169.3453 307.839268,169.086299 C308.529938,168.827298 309.269931,168.475801 310.059268,168.031799 C310.700605,167.661797 311.132267,167.476799 311.354268,167.476799 Z M304.879268,155.525799 C303.300594,155.525799 302.03644,156.019127 301.086768,157.005799 C300.137097,157.99247 299.575936,159.386123 299.403268,161.186799 L309.874268,161.186799 C309.824935,159.361456 309.368606,157.961637 308.505268,156.987299 C307.641931,156.012961 306.433276,155.525799 304.879268,155.525799 Z M319.161268,171.842799 C318.717266,171.842799 318.353436,171.7133 318.069768,171.454299 C317.7861,171.195298 317.644268,170.831468 317.644268,170.362799 L317.644268,146.867799 C317.644268,146.39913 317.7861,146.0353 318.069768,145.776299 C318.353436,145.517298 318.717266,145.387799 319.161268,145.387799 C319.580604,145.387799 319.9321,145.517298 320.215768,145.776299 C320.499436,146.0353 320.641268,146.39913 320.641268,146.867799 L320.641268,170.362799 C320.641268,170.831468 320.499436,171.195298 320.215768,171.454299 C319.9321,171.7133 319.580604,171.842799 319.161268,171.842799 Z M340.917268,167.476799 C341.188603,167.476799 341.422934,167.587798 341.620268,167.809799 C341.817603,168.0318 341.916268,168.315464 341.916268,168.660799 C341.916268,169.277469 341.484606,169.844796 340.621268,170.362799 C339.733264,170.880801 338.79594,171.269298 337.809268,171.528299 C336.822597,171.7873 335.860606,171.916799 334.923268,171.916799 C332.135921,171.916799 329.934443,171.090474 328.318768,169.437799 C326.703093,167.785124 325.895268,165.50348 325.895268,162.592799 C325.895268,160.74279 326.252931,159.108639 326.968268,157.690299 C327.683605,156.271958 328.688762,155.168136 329.983768,154.378799 C331.278775,153.589462 332.752593,153.194799 334.405268,153.194799 C336.748613,153.194799 338.610928,153.959458 339.992268,155.488799 C341.373608,157.01814 342.064268,159.090119 342.064268,161.704799 C342.064268,162.198135 341.965603,162.555798 341.768268,162.777799 C341.570934,162.9998 341.25027,163.110799 340.806268,163.110799 L328.892268,163.110799 C329.114269,167.353487 331.124583,169.474799 334.923268,169.474799 C335.885273,169.474799 336.711598,169.3453 337.402268,169.086299 C338.092938,168.827298 338.832931,168.475801 339.622268,168.031799 C340.263605,167.661797 340.695267,167.476799 340.917268,167.476799 Z M334.442268,155.525799 C332.863594,155.525799 331.59944,156.019127 330.649768,157.005799 C329.700097,157.99247 329.138936,159.386123 328.966268,161.186799 L339.437268,161.186799 C339.387935,159.361456 338.931606,157.961637 338.068268,156.987299 C337.204931,156.012961 335.996276,155.525799 334.442268,155.525799 Z M354.570268,153.194799 C359.084291,153.194799 361.341268,155.562775 361.341268,160.298799 L361.341268,170.362799 C361.341268,170.806801 361.21177,171.164464 360.952768,171.435799 C360.693767,171.707134 360.34227,171.842799 359.898268,171.842799 C359.454266,171.842799 359.096603,171.707134 358.825268,171.435799 C358.553934,171.164464 358.418268,170.806801 358.418268,170.362799 L358.418268,168.586799 C357.949599,169.647471 357.234273,170.467629 356.272268,171.047299 C355.310263,171.626968 354.200275,171.916799 352.942268,171.916799 C351.782929,171.916799 350.716106,171.682468 349.741768,171.213799 C348.76743,170.74513 347.996604,170.09147 347.429268,169.252799 C346.861932,168.414128 346.578268,167.489137 346.578268,166.477799 C346.578268,165.121125 346.923598,164.066636 347.614268,163.314299 C348.304938,162.561962 349.439594,162.019301 351.018268,161.686299 C352.596943,161.353297 354.792254,161.186799 357.604268,161.186799 L358.418268,161.186799 L358.418268,159.965799 C358.418268,158.485791 358.116105,157.400469 357.511768,156.709799 C356.907432,156.019129 355.926942,155.673799 354.570268,155.673799 C352.892927,155.673799 351.190944,156.130128 349.464268,157.042799 C348.798265,157.462134 348.329603,157.671799 348.058268,157.671799 C347.762267,157.671799 347.515603,157.5608 347.318268,157.338799 C347.120934,157.116798 347.022268,156.833134 347.022268,156.487799 C347.022268,156.142464 347.127101,155.8403 347.336768,155.581299 C347.546436,155.322298 347.885599,155.057134 348.354268,154.785799 C349.217606,154.292463 350.198096,153.903967 351.295768,153.620299 C352.39344,153.336631 353.484929,153.194799 354.570268,153.194799 Z M353.349268,169.548799 C354.829276,169.548799 356.044097,169.049304 356.993768,168.050299 C357.94344,167.051294 358.418268,165.762473 358.418268,164.183799 L358.418268,163.110799 L357.752268,163.110799 C355.581591,163.110799 353.928941,163.203298 352.794268,163.388299 C351.659596,163.5733 350.851771,163.88163 350.370768,164.313299 C349.889766,164.744968 349.649268,165.380128 349.649268,166.218799 C349.649268,167.180804 350.000765,167.976296 350.703768,168.605299 C351.406772,169.234302 352.288596,169.548799 353.349268,169.548799 Z M373.625268,171.916799 C372.490596,171.916799 371.41144,171.781134 370.387768,171.509799 C369.364096,171.238464 368.457606,170.856135 367.668268,170.362799 C367.224266,170.066797 366.909769,169.7893 366.724768,169.530299 C366.539767,169.271298 366.447268,168.956801 366.447268,168.586799 C366.447268,168.266131 366.539767,168.000967 366.724768,167.791299 C366.909769,167.581631 367.150267,167.476799 367.446268,167.476799 C367.74227,167.476799 368.173932,167.661797 368.741268,168.031799 C369.481272,168.475801 370.215098,168.827298 370.942768,169.086299 C371.670439,169.3453 372.576929,169.474799 373.662268,169.474799 C374.994275,169.474799 376.030265,169.240468 376.770268,168.771799 C377.510272,168.30313 377.880268,167.624803 377.880268,166.736799 C377.880268,166.194129 377.744603,165.756301 377.473268,165.423299 C377.201934,165.090297 376.733272,164.7943 376.067268,164.535299 C375.401265,164.276298 374.426941,164.011134 373.144268,163.739799 C370.973591,163.27113 369.419606,162.642136 368.482268,161.852799 C367.54493,161.063462 367.076268,159.990472 367.076268,158.633799 C367.076268,157.573127 367.372265,156.635803 367.964268,155.821799 C368.556271,155.007795 369.37643,154.366468 370.424768,153.897799 C371.473107,153.42913 372.663262,153.194799 373.995268,153.194799 C374.957273,153.194799 375.88843,153.324298 376.788768,153.583299 C377.689106,153.8423 378.484598,154.20613 379.175268,154.674799 C380.013939,155.266802 380.433268,155.883462 380.433268,156.524799 C380.433268,156.845467 380.334603,157.116798 380.137268,157.338799 C379.939934,157.5608 379.705603,157.671799 379.434268,157.671799 C379.138267,157.671799 378.694271,157.462134 378.102268,157.042799 C377.411598,156.598797 376.757938,156.253467 376.141268,156.006799 C375.524598,155.760131 374.759939,155.636799 373.847268,155.636799 C372.687929,155.636799 371.756772,155.895796 371.053768,156.413799 C370.350765,156.931801 369.999268,157.622461 369.999268,158.485799 C369.999268,159.028468 370.128767,159.466297 370.387768,159.799299 C370.64677,160.132301 371.078432,160.428298 371.682768,160.687299 C372.287105,160.9463 373.156596,161.199131 374.291268,161.445799 C375.96861,161.815801 377.269764,162.222797 378.194768,162.666799 C379.119773,163.110801 379.7796,163.653462 380.174268,164.294799 C380.568937,164.936135 380.766268,165.750127 380.766268,166.736799 C380.766268,168.290807 380.112608,169.542627 378.805268,170.492299 C377.497928,171.44197 375.771279,171.916799 373.625268,171.916799 Z M400.006268,167.476799 C400.277603,167.476799 400.511934,167.587798 400.709268,167.809799 C400.906603,168.0318 401.005268,168.315464 401.005268,168.660799 C401.005268,169.277469 400.573606,169.844796 399.710268,170.362799 C398.822264,170.880801 397.88494,171.269298 396.898268,171.528299 C395.911597,171.7873 394.949606,171.916799 394.012268,171.916799 C391.224921,171.916799 389.023443,171.090474 387.407768,169.437799 C385.792093,167.785124 384.984268,165.50348 384.984268,162.592799 C384.984268,160.74279 385.341931,159.108639 386.057268,157.690299 C386.772605,156.271958 387.777762,155.168136 389.072768,154.378799 C390.367775,153.589462 391.841593,153.194799 393.494268,153.194799 C395.837613,153.194799 397.699928,153.959458 399.081268,155.488799 C400.462608,157.01814 401.153268,159.090119 401.153268,161.704799 C401.153268,162.198135 401.054603,162.555798 400.857268,162.777799 C400.659934,162.9998 400.33927,163.110799 399.895268,163.110799 L387.981268,163.110799 C388.203269,167.353487 390.213583,169.474799 394.012268,169.474799 C394.974273,169.474799 395.800598,169.3453 396.491268,169.086299 C397.181938,168.827298 397.921931,168.475801 398.711268,168.031799 C399.352605,167.661797 399.784267,167.476799 400.006268,167.476799 Z M393.531268,155.525799 C391.952594,155.525799 390.68844,156.019127 389.738768,157.005799 C388.789097,157.99247 388.227936,159.386123 388.055268,161.186799 L398.526268,161.186799 C398.476935,159.361456 398.020606,157.961637 397.157268,156.987299 C396.293931,156.012961 395.085276,155.525799 393.531268,155.525799 Z" id="release" fill="#262626" fill-rule="nonzero" transform="translate(342.563768, 158.652299) rotate(-48.000000) translate(-342.563768, -158.652299) "></path>
            </g>
        </g>
    </g>
</svg>