<?xml version="1.0" encoding="UTF-8"?>
<svg width="300px" height="105px" viewBox="0 0 300 105" version="1.1" xmlns="http://www.w3.org/2000/svg" xmlns:xlink="http://www.w3.org/1999/xlink">
    <!-- Generator: Sketch 53.2 (72643) - https://sketchapp.com -->
    <title>Group 23</title>
    <desc>Created with Sketch.</desc>
    <g id="desktop" stroke="none" stroke-width="1" fill="none" fill-rule="evenodd" opacity="0.518787202">
        <g id="cloud_migration" transform="translate(-730.000000, -863.000000)" fill="#BABABA" fill-rule="nonzero">
            <g id="Group-23" transform="translate(733.000000, 866.000000)">
                <path d="M0,2.5 C-1.38071187,2.5 -2.5,1.38071187 -2.5,0 C-2.5,-1.38071187 -1.38071187,-2.5 0,-2.5 L12,-2.5 C13.3807119,-2.5 14.5,-1.38071187 14.5,0 C14.5,1.38071187 13.3807119,2.5 12,2.5 L0,2.5 Z M24,2.5 C22.6192881,2.5 21.5,1.38071187 21.5,0 C21.5,-1.38071187 22.6192881,-2.5 24,-2.5 L36,-2.5 C37.3807119,-2.5 38.5,-1.38071187 38.5,0 C38.5,1.38071187 37.3807119,2.5 36,2.5 L24,2.5 Z M48,2.5 C46.6192881,2.5 45.5,1.38071187 45.5,0 C45.5,-1.38071187 46.6192881,-2.5 48,-2.5 L60,-2.5 C61.3807119,-2.5 62.5,-1.38071187 62.5,0 C62.5,1.38071187 61.3807119,2.5 60,2.5 L48,2.5 Z M72,2.5 C70.6192881,2.5 69.5,1.38071187 69.5,0 C69.5,-1.38071187 70.6192881,-2.5 72,-2.5 L84,-2.5 C85.3807119,-2.5 86.5,-1.38071187 86.5,0 C86.5,1.38071187 85.3807119,2.5 84,2.5 L72,2.5 Z M96,2.5 C94.6192881,2.5 93.5,1.38071187 93.5,0 C93.5,-1.38071187 94.6192881,-2.5 96,-2.5 L108,-2.5 C109.380712,-2.5 110.5,-1.38071187 110.5,0 C110.5,1.38071187 109.380712,2.5 108,2.5 L96,2.5 Z M120,2.5 C118.619288,2.5 117.5,1.38071187 117.5,0 C117.5,-1.38071187 118.619288,-2.5 120,-2.5 L132,-2.5 C133.380712,-2.5 134.5,-1.38071187 134.5,0 C134.5,1.38071187 133.380712,2.5 132,2.5 L120,2.5 Z M144,2.5 C142.619288,2.5 141.5,1.38071187 141.5,0 C141.5,-1.38071187 142.619288,-2.5 144,-2.5 L156,-2.5 C157.380712,-2.5 158.5,-1.38071187 158.5,0 C158.5,1.38071187 157.380712,2.5 156,2.5 L144,2.5 Z M168,2.5 C166.619288,2.5 165.5,1.38071187 165.5,0 C165.5,-1.38071187 166.619288,-2.5 168,-2.5 L178.777344,-2.5 C179.196377,-2.5 179.615108,-2.49733772 180.033521,-2.49201715 C181.414121,-2.47446133 182.519087,-1.34103188 182.501531,0.0395683737 C182.483975,1.42016863 181.350546,2.52513447 179.969946,2.50757865 C179.572723,2.50252754 179.175184,2.5 178.777344,2.5 L168,2.5 Z M191.623227,3.3907322 C190.255829,3.19944752 189.302402,1.93588609 189.493686,0.568488767 C189.684971,-0.798908561 190.948532,-1.75233624 192.31593,-1.56105156 C196.401947,-0.989460162 200.431391,-0.15944898 204.385681,0.9218242 C205.7175,1.28600077 206.501929,2.66087649 206.137752,3.99269506 C205.773575,5.32451363 204.3987,6.10894246 203.066881,5.74476588 C199.31802,4.71966572 195.497692,3.93272963 191.623227,3.3907322 Z M214.135047,9.55045347 C212.86087,9.01862805 212.259075,7.55457383 212.7909,6.28039684 C213.322726,5.00621985 214.78678,4.40442499 216.060957,4.93625041 C219.855346,6.51998057 223.542133,8.34424452 227.10055,10.396433 C228.296611,11.0862181 228.707028,12.6149984 228.017243,13.8110593 C227.327458,15.0071203 225.798678,15.417538 224.602617,14.7277529 C221.228333,12.7817559 217.732585,11.0520206 214.135047,9.55045347 Z M234.328017,21.1927709 C233.228958,20.3570471 233.015482,18.7885956 233.851206,17.6895365 C234.68693,16.5904773 236.255381,16.3770018 237.35444,17.2127255 C240.625005,19.6996601 243.73558,22.3920739 246.666407,25.2722202 C247.651195,26.2399791 247.665001,27.8228314 246.697242,28.8076197 C245.729483,29.792408 244.14663,29.806213 243.161842,28.8384541 C240.38143,26.1061218 237.430546,23.5519314 234.328017,21.1927709 Z M250.939247,37.5104799 C250.084038,36.4265136 250.269483,34.8545014 251.353449,33.9992926 C252.437416,33.1440837 254.009428,33.3295283 254.864637,34.4134947 C257.410176,37.6399338 259.749025,41.0247834 261.865466,44.5474225 C262.576542,45.7309494 262.193546,47.2668287 261.010019,47.977905 C259.826492,48.6889813 258.290613,48.3059845 257.579536,47.1224576 C255.572234,43.781471 253.353833,40.5709368 250.939247,37.5104799 Z M262.95802,57.5277731 C262.403845,56.2631566 262.979771,54.7887344 264.244387,54.2345588 C265.509004,53.6803832 266.983426,54.2563093 267.537601,55.5209257 C269.185523,59.2814462 270.592966,63.1472108 271.749742,67.0980398 C272.137717,68.4231211 271.378042,69.8118277 270.052961,70.1998027 C268.72788,70.5877777 267.339173,69.8281028 266.951198,68.5030214 C265.854585,64.7576735 264.520327,61.0929228 262.95802,57.5277731 Z M269.519212,79.9652356 C269.304563,78.6013107 270.236235,77.3216238 271.60016,77.106975 C272.964085,76.8923262 274.243772,77.8239986 274.458421,79.1879235 C275.09419,83.2277415 275.475646,87.3210278 275.597657,91.4509107 C275.638431,92.8310204 274.552684,93.9828737 273.172574,94.023647 C271.792465,94.0644202 270.640611,92.9786735 270.599838,91.5985638 C270.484063,87.6797727 270.122206,83.7967905 269.519212,79.9652356 Z" id="Path-2"></path>
                <path d="M292.533426,69.3509687 C293.385912,68.2648597 294.957454,68.0754708 296.043563,68.9279569 C297.129672,69.780443 297.31906,71.3519848 296.466574,72.4380938 L273.366137,101.869183 L244.169416,72.6619809 C243.19328,71.685495 243.193564,70.1025826 244.17005,69.1264471 C245.146536,68.1503116 246.729449,68.1505956 247.705584,69.1270816 L272.915113,94.3456604 L292.533426,69.3509687 Z" id="Path-3"></path>
            </g>
        </g>
    </g>
</svg>