<?xml version="1.0" encoding="UTF-8"?>
<svg width="149px" height="268px" viewBox="0 0 149 268" version="1.1" xmlns="http://www.w3.org/2000/svg" xmlns:xlink="http://www.w3.org/1999/xlink">
    <!-- Generator: Sketch 59.1 (86144) - https://sketch.com -->
    <title>lock (1)</title>
    <desc>Created with Sketch.</desc>
    <defs>
        <linearGradient x1="22.1287384%" y1="38.3995265%" x2="83.9573918%" y2="76.8411331%" id="linearGradient-1">
            <stop stop-color="#FFFFFF" stop-opacity="0.2" offset="0%"></stop>
            <stop stop-color="#FFFFFF" stop-opacity="0" offset="100%"></stop>
        </linearGradient>
    </defs>
    <g id="Page-1" stroke="none" stroke-width="1" fill="none" fill-rule="evenodd" opacity="0.892833891">
        <g id="containerization" transform="translate(-1051.000000, -3385.000000)" fill-rule="nonzero">
            <g id="Group-21" transform="translate(-16.000000, 2950.000000)">
                <g id="Group-12" transform="translate(256.000000, 298.000000)" opacity="0.100000001">
                    <g id="Group-15">
                        <g id="lock-(1)" transform="translate(811.000000, 137.000000)">
                            <path d="M205.333154,105.600002 L187.733154,105.600002 L187.733154,82.1331518 C187.733154,36.8445008 150.889203,0 105.600002,0 C60.3108013,0 23.4668505,36.8445008 23.4668505,82.1331518 L23.4668505,105.600002 L5.86685013,105.600002 C2.62405006,105.600002 0,108.224052 0,111.466852 L0,258.133706 C0,271.075756 10.5242502,281.600006 23.4668505,281.600006 L187.733704,281.600006 C200.675754,281.600006 211.200005,271.075756 211.200005,258.133156 L211.200005,111.466852 C211.200005,108.224052 208.575955,105.600002 205.333154,105.600002 Z M152.533153,105.600002 L58.6668513,105.600002 L58.6668513,82.1331518 C58.6668513,56.2545512 79.7214017,35.2000008 105.600002,35.2000008 C131.478603,35.2000008 152.533153,56.2545512 152.533153,82.1331518 L152.533153,105.600002 L152.533153,105.600002 Z" id="Shape" fill="#303C42"></path>
                            <path d="M35.2000008,82.1331518 C35.2000008,43.3125009 66.7793514,11.7331503 105.600002,11.7331503 C144.420653,11.7331503 176.000004,43.3125009 176.000004,82.1331518 L176.000004,105.600002 L164.266854,105.600002 L164.266854,82.1331518 C164.266854,49.7860011 137.947153,23.4663005 105.600002,23.4663005 C73.2528516,23.4663005 46.933151,49.7865511 46.933151,82.1331518 L46.933151,105.600002 L35.2000008,105.600002 L35.2000008,82.1331518 Z" id="Path" fill="#F2F2F2"></path>
                            <path d="M199.466854,258.133156 C199.466854,264.601156 194.201704,269.866306 187.7337,269.866306 L23.4668505,269.866306 C16.9988504,269.866306 11.7337003,264.601156 11.7337003,258.133156 L11.7337003,117.333153 L199.466854,117.333153 L199.466854,258.133156 L199.466854,258.133156 Z" id="Path" fill="#FFCA28"></path>
                            <path d="M35.2000008,258.133156 L35.2000008,117.333153 L11.7331503,117.333153 L11.7331503,258.133156 C11.7331503,264.601156 16.9983004,269.866306 23.4663005,269.866306 L44.000001,269.866306 C39.1490008,269.866306 35.2000008,264.601706 35.2000008,258.133156 Z" id="Path" fill="#FFFFFF" opacity="0.2"></path>
                            <path d="M91.735602,194.872154 L88.0346519,228.152655 C87.8515019,229.808155 88.3839019,231.469705 89.4954519,232.713255 C90.607002,233.956255 92.199802,234.666855 93.866852,234.666855 L117.333703,234.666855 C119.000753,234.666855 120.593553,233.956255 121.705103,232.713255 C122.816653,231.470255 123.349603,229.808705 123.165903,228.152655 L119.464953,194.872154 C125.474803,190.500754 129.066853,183.585604 129.066853,176.000004 C129.066853,163.057954 118.542603,152.533153 105.600002,152.533153 C92.657402,152.533153 82.1331518,163.057954 82.1331518,176.000004 C82.1331518,183.585604 85.7257519,190.500754 91.735602,194.872154 Z" id="Path" fill="#303C42"></path>
                            <path d="M105.600002,164.266854 C112.068002,164.266854 117.333153,169.532004 117.333153,176.000004 C117.333153,180.497354 114.777852,184.525004 110.664402,186.518754 C108.424252,187.607204 107.112502,189.979354 107.387502,192.448304 L110.779352,222.933155 L100.421202,222.933155 L103.813052,192.448304 C104.088052,189.978804 102.776302,187.607204 100.536152,186.518754 C96.4227021,184.525004 93.867402,180.497354 93.867402,176.000004 C93.866852,169.532004 99.1320021,164.266854 105.600002,164.266854 Z" id="Path" fill="#5C6671"></path>
                            <path d="M101.043802,187.000554 C100.255102,185.424254 99.7331522,183.707704 99.7331522,181.866304 C99.7331522,175.398304 104.998302,170.133154 111.466302,170.133154 C113.182302,170.133154 114.785002,170.545104 116.255703,171.210054 C114.413752,167.136754 110.352002,164.266304 105.599452,164.266304 C99.1314521,164.266304 93.866302,169.531454 93.866302,175.999454 C93.866302,180.496804 96.4216021,184.524454 100.535052,186.518204 C100.756152,186.626004 100.841952,186.869654 101.043802,187.000554 Z" id="Path" fill="#000000" opacity="0.1"></path>
                            <path d="M108.859852,205.680754 L107.495852,193.422354 C107.110302,193.087954 106.877102,192.616054 106.402452,192.385604 C105.249652,191.826804 104.257452,191.078804 103.370852,190.234554 C103.582602,190.962204 103.899952,191.664004 103.812502,192.448854 L100.420652,222.933705 L106.939802,222.933705 L108.859852,205.680754 Z" id="Path" fill="#000000" opacity="0.1"></path>
                            <path d="M205.333154,105.600002 L187.733154,105.600002 L187.733154,82.1331518 C187.733154,36.8445008 150.889203,0 105.600002,0 C60.3108013,0 23.4668505,36.8445008 23.4668505,82.1331518 L23.4668505,105.600002 L5.86685013,105.600002 C2.62405006,105.600002 0,108.224052 0,111.466852 L0,258.133706 C0,271.075756 10.5242502,281.600006 23.4668505,281.600006 L187.733704,281.600006 C200.675754,281.600006 211.200005,271.075756 211.200005,258.133156 L211.200005,111.466852 C211.200005,108.224052 208.575955,105.600002 205.333154,105.600002 Z M152.533153,105.600002 L58.6668513,105.600002 L58.6668513,82.1331518 C58.6668513,56.2545512 79.7214017,35.2000008 105.600002,35.2000008 C131.478603,35.2000008 152.533153,56.2545512 152.533153,82.1331518 L152.533153,105.600002 L152.533153,105.600002 Z" id="Shape" fill="url(#linearGradient-1)"></path>
                        </g>
                    </g>
                </g>
            </g>
        </g>
    </g>
</svg>