<?xml version="1.0" encoding="UTF-8"?>
<svg width="229px" height="229px" viewBox="0 0 229 229" version="1.1" xmlns="http://www.w3.org/2000/svg" xmlns:xlink="http://www.w3.org/1999/xlink">
    <!-- Generator: Sketch 59.1 (86144) - https://sketch.com -->
    <title>Group 3</title>
    <desc>Created with Sketch.</desc>
    <defs>
        <rect id="path-1" x="28.7999994" y="28.7999994" width="154.799997" height="154.799997" rx="11.5199998"></rect>
        <filter x="-12.3%" y="-12.3%" width="124.7%" height="124.7%" filterUnits="objectBoundingBox" id="filter-3">
            <feMorphology radius="1.07999998" operator="dilate" in="SourceAlpha" result="shadowSpreadOuter1"></feMorphology>
            <feOffset dx="0" dy="0" in="shadowSpreadOuter1" result="shadowOffsetOuter1"></feOffset>
            <feGaussianBlur stdDeviation="6" in="shadowOffsetOuter1" result="shadowBlurOuter1"></feGaussianBlur>
            <feComposite in="shadowBlurOuter1" in2="SourceAlpha" operator="out" result="shadowBlurOuter1"></feComposite>
            <feColorMatrix values="0 0 0 0 0   0 0 0 0 0   0 0 0 0 0  0 0 0 0.147235577 0" type="matrix" in="shadowBlurOuter1"></feColorMatrix>
        </filter>
    </defs>
    <g id="Page-1" stroke="none" stroke-width="1" fill="none" fill-rule="evenodd">
        <g id="containerization" transform="translate(-227.000000, -761.000000)">
            <g id="Group-29" transform="translate(236.000000, 680.000000)">
                <g id="Group-3" transform="translate(0.000000, 8.000000)">
                    <g id="Group-18" transform="translate(0.000000, 81.000000)">
                        <g id="Group-3">
                            <g id="Group-16">
                                <circle id="Oval" fill="#F1F1F1" cx="107.999998" cy="100.799998" r="92.1599982"></circle>
                                <mask id="mask-2" fill="white">
                                    <use xlink:href="#path-1"></use>
                                </mask>
                                <g id="Rectangle" fill-rule="nonzero" transform="translate(106.199998, 106.199998) rotate(-30.000000) translate(-106.199998, -106.199998) ">
                                    <use fill="black" fill-opacity="1" filter="url(#filter-3)" xlink:href="#path-1"></use>
                                    <use stroke="#F1F1F1" stroke-width="2.15999996" fill="#FFFFFF" xlink:href="#path-1"></use>
                                </g>
                                <g id="data-(4)" mask="url(#mask-2)">
                                    <g transform="translate(63.000000, 64.000000)">
                                        <polygon id="Path" fill="#96A5B9" fill-rule="nonzero" points="33.1516392 75.1879656 58.902185 75.1879656 58.902185 85.8459338 33.1516392 85.8459338"></polygon>
                                        <path d="M87.3281212,76.6806998 L4.72570288,76.6806998 C2.11570299,76.6806998 -2.84217094e-14,74.5649968 -2.84217094e-14,71.9549969 L-2.84217094e-14,4.72570288 C-2.84217094e-14,2.11570299 2.11570299,-2.84217094e-14 4.72570288,-2.84217094e-14 L87.3281212,-2.84217094e-14 C89.9381211,-2.84217094e-14 92.0538241,2.11570299 92.0538241,4.72570288 L92.0538241,71.9549969 C92.0538241,74.5649968 89.9381211,76.6806998 87.3281212,76.6806998 Z" id="Path" fill="#F1F1F1" fill-rule="nonzero"></path>
                                        <path d="M92.0545272,4.72640596 L92.0545272,71.9549969 C92.0545272,74.5649968 89.9388242,76.6806998 87.3288243,76.6806998 L81.5561684,76.6806998 C84.1661683,76.6806998 86.2818713,74.5649968 86.2818713,71.9549969 L86.2818713,4.72640596 C86.2818713,2.11640607 84.1661683,0.00070312497 81.5561684,0.00070312497 L87.3288243,0.00070312497 C89.9388242,0.00070312497 92.0545272,2.11640607 92.0545272,4.72640596 L92.0545272,4.72640596 Z" id="Path" fill="#E5E5E5" fill-rule="nonzero"></path>
                                        <path d="M92.0538241,65.2957003 L0,65.2957003 L0,71.9549969 C0,74.5649968 2.11570299,76.6806998 4.72570288,76.6806998 L87.3281212,76.6806998 C89.9381211,76.6806998 92.0538241,74.5649968 92.0538241,71.9549969 L92.0538241,65.2957003 Z" id="Path" fill="#BEC8DC" fill-rule="nonzero"></path>
                                        <path d="M92.0545272,65.2949972 L92.0545272,71.9549969 C92.0545272,74.5649968 89.9388242,76.6806998 87.3288243,76.6806998 L81.5561684,76.6806998 C84.1661683,76.6806998 86.2818713,74.5649968 86.2818713,71.9549969 L86.2818713,65.2949972 L92.0545272,65.2949972 Z" id="Path" fill="#96A5B9" fill-rule="nonzero"></path>
                                        <path d="M92.159293,16.1212493 L0.102656156,16.1212493 L0.102656156,4.72570288 C0.102656156,2.11570299 2.21835932,0 4.82765595,0 L87.4335901,0 C90.04359,0 92.159293,2.11570299 92.159293,4.72570288 L92.159293,16.1212493 Z" id="Path" fill="#BEC8DC" fill-rule="nonzero"></path>
                                        <path d="M92.159996,4.7249998 L92.159996,16.1219524 L86.2818713,16.1219524 L86.2818713,4.7249998 C86.2818713,2.11640607 84.1661683,0.00070312497 81.5554653,0.00070312497 L87.4342932,0.00070312497 C90.044293,0.00070312497 92.159996,2.11640607 92.159996,4.7249998 Z" id="Path" fill="#96A5B9" fill-rule="nonzero"></path>
                                        <path d="M67.2468721,92.0566366 L24.806952,92.0566366 C24.2957801,92.0566366 23.8809365,91.641793 23.8809365,91.1306211 L23.8809365,88.1289806 C23.8809365,86.0934338 25.5311708,84.4431994 27.5667177,84.4431994 L64.4871066,84.4431994 C66.5226533,84.4431994 68.1728876,86.0934338 68.1728876,88.1289806 L68.1728876,91.1306211 C68.1728876,91.641793 67.758044,92.0566366 67.2468721,92.0566366 Z" id="Path" fill="#8E98A4" fill-rule="nonzero"></path>
                                        <path d="M68.1728876,88.1282774 L68.1728876,91.1313242 C68.1728876,91.6424961 67.758044,92.0573399 67.246169,92.0573399 L63.9766378,92.0573399 L63.9766378,88.1282774 C63.9766378,86.0941369 62.3264035,84.4431994 60.292263,84.4431994 L64.4885128,84.4431994 C66.5233566,84.4431994 68.1728876,86.0934338 68.1728876,88.1282774 L68.1728876,88.1282774 Z" id="Path" fill="#738293" fill-rule="nonzero"></path>
                                        <g id="Group" stroke-width="1" fill="none" fill-rule="evenodd" transform="translate(4.680000, 22.139999)">
                                            <path d="M5.84578091,11.4285933 C5.50054668,11.4285933 5.1546092,11.2971089 4.89093729,11.033437 L0.535078057,6.67687471 C0.00773441967,6.15023416 0.00773441967,5.29523419 0.535078057,4.76789037 L4.89093729,0.412031142 C5.41828093,-0.115312495 6.27328089,-0.115312495 6.80062471,0.412031142 C7.32796852,0.93937496 7.32796852,1.79367184 6.80062471,2.32101548 L3.39890601,5.72273417 L6.80062471,9.12445269 C7.32796852,9.6517965 7.32796852,10.5060934 6.80062471,11.033437 C6.5369528,11.2971089 6.19101531,11.4285933 5.84578091,11.4285933 Z" id="Path" fill="#464655" fill-rule="nonzero"></path>
                                            <path d="M16.2604681,11.4285933 C15.9152337,11.4285933 15.5692962,11.2971089 15.3056243,11.033437 C14.7782805,10.5060934 14.7782805,9.65109342 15.3056243,9.12445269 L18.707343,5.72273417 L15.3056243,2.32101548 C14.7782805,1.79367184 14.7782805,0.93867188 15.3056243,0.412031142 C15.8329682,-0.115312495 16.6879681,-0.115312495 17.2153118,0.412031142 L21.571171,4.76789037 C22.0985146,5.29523419 22.0985146,6.15023416 21.571171,6.67687471 L17.2153118,11.033437 C16.9516399,11.2971089 16.6057024,11.4285933 16.2604681,11.4285933 Z" id="Path" fill="#464655" fill-rule="nonzero"></path>
                                            <path d="M9.49007767,11.4292964 C9.32554652,11.4292964 9.15890577,11.399062 8.99648403,11.3350776 C8.30249964,11.0629684 7.96078082,10.278984 8.23359349,9.58499959 L11.6564057,0.872578042 C11.9292183,0.179296912 12.7132025,-0.163124993 13.4064838,0.109687495 C14.1004682,0.382499984 14.4421869,1.16648437 14.1693744,1.86046876 L10.746562,10.572187 C10.537734,11.1044526 10.0286715,11.4292964 9.49007767,11.4292964 Z" id="Path" fill="#464655" fill-rule="nonzero"></path>
                                            <path d="M11.6360151,19.5806242 L2.27601548,19.5806242 C1.53070301,19.5806242 0.92601554,18.9759367 0.92601554,18.2306242 C0.92601554,17.4846087 1.53070301,16.8806243 2.27601548,16.8806243 L11.6360151,16.8806243 C12.3820306,16.8806243 12.986015,17.4846087 12.986015,18.2306242 C12.986015,18.9759367 12.3820306,19.5806242 11.6360151,19.5806242 Z" id="Path" fill="#464655" fill-rule="nonzero"></path>
                                            <path d="M33.195233,19.5806242 L16.7385931,19.5806242 C15.9932805,19.5806242 15.3885932,18.9759367 15.3885932,18.2306242 C15.3885932,17.4846087 15.9932805,16.8806243 16.7385931,16.8806243 L33.195233,16.8806243 C33.9412485,16.8806243 34.5452329,17.4846087 34.5452329,18.2306242 C34.5452329,18.9759367 33.9412485,19.5806242 33.195233,19.5806242 Z" id="Path" fill="#464655" fill-rule="nonzero"></path>
                                            <path d="M6.26343723,25.4404677 L2.27601548,25.4404677 C1.53070301,25.4404677 0.92601554,24.8364834 0.92601554,24.0904678 C0.92601554,23.3451552 1.53070301,22.7404679 2.27601548,22.7404679 L6.26343723,22.7404679 C7.00945278,22.7404679 7.61343717,23.3451552 7.61343717,24.0904678 C7.61343717,24.8364834 7.0087497,25.4404677 6.26343723,25.4404677 Z" id="Path" fill="#464655" fill-rule="nonzero"></path>
                                            <path d="M30.5402331,25.4404677 L28.1116394,25.4404677 C27.3663269,25.4404677 26.7616394,24.8364834 26.7616394,24.0904678 C26.7616394,23.3451552 27.3663269,22.7404679 28.1116394,22.7404679 L30.5402331,22.7404679 C31.2855456,22.7404679 31.890233,23.3451552 31.890233,24.0904678 C31.890233,24.8364834 31.2855456,25.4404677 30.5402331,25.4404677 Z" id="Path" fill="#464655" fill-rule="nonzero"></path>
                                            <path d="M23.0653115,25.4404677 L11.1389057,25.4404677 C10.3928901,25.4404677 9.78890574,24.8364834 9.78890574,24.0904678 C9.78890574,23.3451552 10.3928901,22.7404679 11.1389057,22.7404679 L23.0653115,22.7404679 C23.8113271,22.7404679 24.4153114,23.3451552 24.4153114,24.0904678 C24.4153114,24.8364834 23.810624,25.4404677 23.0653115,25.4404677 Z" id="Path" fill="#464655" fill-rule="nonzero"></path>
                                            <path d="M39.4945295,25.4404677 L34.9460141,25.4404677 C34.2007016,25.4404677 33.5960141,24.8364834 33.5960141,24.0904678 C33.5960141,23.3451552 34.2007016,22.7404679 34.9460141,22.7404679 L39.4945295,22.7404679 C40.2398421,22.7404679 40.8445294,23.3451552 40.8445294,24.0904678 C40.8445294,24.8364834 40.2398421,25.4404677 39.4945295,25.4404677 Z" id="Path" fill="#464655" fill-rule="nonzero"></path>
                                            <path d="M30.7870298,6.79710913 L25.9896083,6.79710913 C25.2435928,6.79710913 24.6396084,6.19312473 24.6396084,5.44710919 C24.6396084,4.70179672 25.2435928,4.09710924 25.9896083,4.09710924 L30.7870298,4.09710924 C31.5330456,4.09710924 32.1370298,4.70179672 32.1370298,5.44710919 C32.1370298,6.19312473 31.5330456,6.79710913 30.7870298,6.79710913 Z" id="Path" fill="#464655" fill-rule="nonzero"></path>
                                            <path d="M65.4307003,6.79710913 L36.1596079,6.79710913 C35.4142954,6.79710913 34.8096079,6.19312473 34.8096079,5.44710919 C34.8096079,4.70179672 35.4142954,4.09710924 36.1596079,4.09710924 L65.4307003,4.09710924 C66.1760127,4.09710924 66.7807002,4.70179672 66.7807002,5.44710919 C66.7807002,6.19312473 66.1760127,6.79710913 65.4307003,6.79710913 Z" id="Path" fill="#464655" fill-rule="nonzero"></path>
                                            <path d="M60.984138,12.9107806 L49.1280448,12.9107806 C48.3820291,12.9107806 47.7780449,12.3067964 47.7780449,11.5607807 C47.7780449,10.8154684 48.3820291,10.2107807 49.1280448,10.2107807 L60.984138,10.2107807 C61.7301535,10.2107807 62.3341379,10.8154684 62.3341379,11.5607807 C62.3341379,12.3067964 61.7301535,12.9107806 60.984138,12.9107806 Z" id="Path" fill="#464655" fill-rule="nonzero"></path>
                                            <path d="M44.6814825,12.9107806 L40.6054671,12.9107806 C39.8601544,12.9107806 39.2554672,12.3067964 39.2554672,11.5607807 C39.2554672,10.8154684 39.8601544,10.2107807 40.6054671,10.2107807 L44.6814825,10.2107807 C45.427498,10.2107807 46.0314824,10.8154684 46.0314824,11.5607807 C46.0314824,12.3067964 45.427498,12.9107806 44.6814825,12.9107806 Z" id="Path" fill="#464655" fill-rule="nonzero"></path>
                                            <path d="M35.974686,12.9107806 L25.988905,12.9107806 C25.2435928,12.9107806 24.6389051,12.3067964 24.6389051,11.5607807 C24.6389051,10.8154684 25.2435928,10.2107807 25.988905,10.2107807 L35.974686,10.2107807 C36.7199984,10.2107807 37.3246859,10.8154684 37.3246859,11.5607807 C37.3246859,12.3067964 36.7199984,12.9107806 35.974686,12.9107806 Z" id="Path" fill="#464655" fill-rule="nonzero"></path>
                                            <path d="M23.0828896,31.2517956 L13.72289,31.2517956 C12.9768744,31.2517956 12.37289,30.6471081 12.37289,29.9017956 C12.37289,29.1557799 12.9768744,28.5517957 13.72289,28.5517957 L23.0828896,28.5517957 C23.8289051,28.5517957 24.4328895,29.1557799 24.4328895,29.9017956 C24.4328895,30.6471081 23.8289051,31.2517956 23.0828896,31.2517956 Z" id="Path" fill="#464655" fill-rule="nonzero"></path>
                                            <path d="M9.46757767,31.2517956 L2.27601548,31.2517956 C1.53070301,31.2517956 0.92601554,30.6471081 0.92601554,29.9017956 C0.92601554,29.1557799 1.53070301,28.5517957 2.27601548,28.5517957 L9.46757767,28.5517957 C10.2128901,28.5517957 10.8175776,29.1557799 10.8175776,29.9017956 C10.8175776,30.6471081 10.2128901,31.2517956 9.46757767,31.2517956 Z" id="Path" fill="#464655" fill-rule="nonzero"></path>
                                            <path d="M40.0499983,31.2517956 L27.8233582,31.2517956 C27.0773427,31.2517956 26.4733583,30.6471081 26.4733583,29.9017956 C26.4733583,29.1557799 27.0773427,28.5517957 27.8233582,28.5517957 L40.0499983,28.5517957 C40.7960138,28.5517957 41.3999982,29.1557799 41.3999982,29.9017956 C41.3999982,30.6471081 40.7960138,31.2517956 40.0499983,31.2517956 Z" id="Path" fill="#464655" fill-rule="nonzero"></path>
                                        </g>
                                        <path d="M11.5460151,8.02124965 C11.5460151,9.50624959 10.3422651,10.7092965 8.85796846,10.7092965 C7.37296852,10.7092965 6.16921857,9.50624959 6.16921857,8.02124965 C6.16921857,6.5369528 7.37296852,5.33320285 8.85796846,5.33320285 C10.3422651,5.33320285 11.5460151,6.5369528 11.5460151,8.02124965 Z" id="Path" fill="#FF5770" fill-rule="nonzero"></path>
                                        <path d="M21.9269521,8.02124965 C21.9269521,9.50624959 20.7239053,10.7092965 19.2389053,10.7092965 C17.7546087,10.7092965 16.5508587,9.50624959 16.5508587,8.02124965 C16.5508587,6.5369528 17.7546087,5.33320285 19.2389053,5.33320285 C20.7239053,5.33320285 21.9269521,6.5369528 21.9269521,8.02124965 Z" id="Path" fill="#FFD86E" fill-rule="nonzero"></path>
                                        <path d="M32.3085924,8.02124965 C32.3085924,9.50624959 31.1048425,10.7092965 29.6205456,10.7092965 C28.1355457,10.7092965 26.9324988,9.50624959 26.9324988,8.02124965 C26.9324988,6.5369528 28.1355457,5.33320285 29.6205456,5.33320285 C31.1048425,5.33320285 32.3085924,6.5369528 32.3085924,8.02124965 Z" id="Path" fill="#80E0DC" fill-rule="nonzero"></path>
                                        <path d="M11.5446089,8.02195273 C11.5446089,9.50624959 10.3422651,10.7085934 8.85867154,10.7085934 C8.13937465,10.7085934 7.48546852,10.4266401 7.00382778,9.96539015 C8.45789022,9.93374957 9.62929651,8.7447652 9.62929651,7.28085911 C9.62929651,6.5144528 9.30867152,5.82468725 8.7953902,5.33601535 C8.81578078,5.33390593 8.83828078,5.33390593 8.85867154,5.33390593 C10.3422651,5.33390593 11.5446089,6.53624972 11.5446089,8.02195273 Z" id="Path" fill="#FF435F" fill-rule="nonzero"></path>
                                        <path d="M21.9262491,8.02195273 C21.9262491,9.50624959 20.7239053,10.7085934 19.2382023,10.7085934 C18.5196086,10.7085934 17.8678117,10.4266401 17.3840618,9.96539015 C18.8402336,9.93374957 20.0109366,8.7447652 20.0109366,7.28085911 C20.0109366,6.5144528 19.6903117,5.82468725 19.1777336,5.33601535 C19.1974211,5.33390593 19.2178117,5.33390593 19.2389053,5.33390593 C20.7246085,5.33390593 21.9262491,6.53624972 21.9262491,8.02195273 Z" id="Path" fill="#FFB509" fill-rule="nonzero"></path>
                                        <path d="M32.3085924,8.02195273 C32.3085924,9.50624959 31.1041392,10.7085934 29.6205456,10.7085934 C28.9012488,10.7085934 28.2494519,10.4266401 27.7657019,9.96539015 C29.2218737,9.93374957 30.3911706,8.7447652 30.3911706,7.28085911 C30.3911706,6.5144528 30.0705456,5.82468725 29.5572643,5.33601535 C29.5776549,5.33390593 29.6001549,5.33390593 29.6205456,5.33390593 C31.1041392,5.33390593 32.3085924,6.53624972 32.3085924,8.02195273 Z" id="Path" fill="#00A8B0" fill-rule="nonzero"></path>
                                    </g>
                                </g>
                                <g id="racing" mask="url(#mask-2)">
                                    <g transform="translate(135.000000, 85.000000)">
                                        <polygon id="Path" fill="#464655" fill-rule="nonzero" points="31.5396005 15.0354002 30.0500004 14.0879002 32.6677005 9.97370015 34.1574005 10.9212002"></polygon>
                                        <path d="M35.0025005,11.9829002 L35.4769005,11.2377002 C35.7387005,10.8264002 35.6176005,10.2808002 35.2063005,10.0189001 L33.0422005,8.64110013 C32.6309005,8.37930012 32.0853005,8.50040013 31.8234005,8.91170013 L31.3490005,9.65690014 C31.0872005,10.0682002 31.2083005,10.6138002 31.6196005,10.8757002 L33.7837005,12.2535002 C34.1950005,12.5153002 34.7406005,12.3942002 35.0025005,11.9829002 Z" id="Path" fill="#FFC400" fill-rule="nonzero"></path>
                                        <polygon id="Path" fill="#464655" fill-rule="nonzero" points="9.26040014 15.0354002 6.6426001 10.9212002 8.13230012 9.97370015 10.7500002 14.0879002"></polygon>
                                        <path d="M20.4000003,10.5931002 C17.4793003,10.5931002 15.1034002,8.21730012 15.1034002,5.29650008 C15.1034002,2.37570004 17.4793003,0 20.4000003,0 C23.3207003,0 25.6966004,2.37580004 25.6966004,5.29660008 C25.6966004,8.21740012 23.3207003,10.5931002 20.4000003,10.5931002 Z M20.4000003,1.76550003 C18.4526003,1.76550003 16.8690003,3.34920005 16.8690003,5.29650008 C16.8690003,7.24380011 18.4527003,8.82750013 20.4000003,8.82750013 C22.3473003,8.82750013 23.9310004,7.24380011 23.9310004,5.29650008 C23.9310004,3.34920005 22.3474003,1.76550003 20.4000003,1.76550003 Z" id="Shape" fill="#626275" fill-rule="nonzero"></path>
                                        <rect id="Rectangle" fill="#424A60" fill-rule="nonzero" x="19.5172003" y="6.17930009" width="1.76550003" height="5.29660008"></rect>
                                        <g id="Group" stroke-width="1" fill="none" fill-rule="evenodd" transform="translate(0.000000, 4.400000)">
                                            <circle id="Oval" fill="#10BDE0" fill-rule="nonzero" cx="20.4000003" cy="26.4966004" r="20.3034003"></circle>
                                            <path d="M21.7241003,2.66210004 L19.0758003,2.66210004 C18.5883003,2.66210004 18.1930003,2.26680003 18.1930003,1.77930003 L18.1930003,0.896500013 C18.1930003,0.409000006 18.5883003,0.0137000002 19.0758003,0.0137000002 L21.7241003,0.0137000002 C22.2116003,0.0137000002 22.6069003,0.409000006 22.6069003,0.896500013 L22.6069003,1.77930003 C22.6069003,2.26680003 22.2116003,2.66210004 21.7241003,2.66210004 Z" id="Path" fill="#FFC400" fill-rule="nonzero"></path>
                                        </g>
                                        <circle id="Oval" fill="#0EAFD0" fill-rule="nonzero" cx="20.4000003" cy="30.8966005" r="18.5379003"></circle>
                                        <circle id="Oval" fill="#FFFFFF" fill-rule="nonzero" cx="20.4000003" cy="30.8966005" r="16.7724002"></circle>
                                        <path d="M29.7630004,40.2595006 C32.1592005,37.8634006 33.6414005,34.5530005 33.6414005,30.8965005 C33.6414005,23.5835004 27.7130004,17.6551003 20.4000003,17.6551003 L20.4000003,30.8965005 L29.7630004,40.2595006 Z" id="Path" fill="#FFCDCD" fill-rule="nonzero"></path>
                                        <path d="M5.79750009,11.9829002 L5.32310008,11.2377002 C5.06130008,10.8264002 5.18240008,10.2808002 5.59370008,10.0189001 L7.75780012,8.64110013 C8.16910012,8.37930012 8.71470013,8.50040013 8.97660013,8.91170013 L9.45100014,9.65690014 C9.71280014,10.0682002 9.59170014,10.6138002 9.18040014,10.8757002 L7.0163001,12.2535002 C6.6049001,12.5153002 6.05930009,12.3942002 5.79750009,11.9829002 Z" id="Path" fill="#FFC400" fill-rule="nonzero"></path>
                                        <g id="Group" stroke-width="1" fill="none" fill-rule="evenodd" transform="translate(5.300000, 15.800000)">
                                            <path d="M15.1000002,0.0897000013 L15.1000002,0.0897000013 C14.6125002,0.0897000013 14.2172002,0.485000007 14.2172002,0.972500014 L14.2172002,2.73800004 C14.2172002,3.22550005 14.6125002,3.62080005 15.1000002,3.62080005 L15.1000002,3.62080005 C15.5875002,3.62080005 15.9828002,3.22550005 15.9828002,2.73800004 L15.9828002,0.972500014 C15.9828002,0.484900007 15.5875002,0.0897000013 15.1000002,0.0897000013 Z" id="Path" fill="#464655" fill-rule="nonzero"></path>
                                            <path d="M15.1000002,26.5724004 L15.1000002,26.5724004 C14.6125002,26.5724004 14.2172002,26.9677004 14.2172002,27.4552004 L14.2172002,29.2207004 C14.2172002,29.7082004 14.6125002,30.1035004 15.1000002,30.1035004 L15.1000002,30.1035004 C15.5875002,30.1035004 15.9828002,29.7082004 15.9828002,29.2207004 L15.9828002,27.4552004 C15.9828002,26.9677004 15.5875002,26.5724004 15.1000002,26.5724004 Z" id="Path" fill="#464655" fill-rule="nonzero"></path>
                                            <path d="M30.1069004,15.0966002 L30.1069004,15.0966002 C30.1069004,14.6091002 29.7116004,14.2138002 29.2241004,14.2138002 L27.4586004,14.2138002 C26.9711004,14.2138002 26.5758004,14.6091002 26.5758004,15.0966002 L26.5758004,15.0966002 C26.5758004,15.5841002 26.9711004,15.9794002 27.4586004,15.9794002 L29.2241004,15.9794002 C29.7116004,15.9793002 30.1069004,15.5841002 30.1069004,15.0966002 Z" id="Path" fill="#464655" fill-rule="nonzero"></path>
                                            <path d="M3.62410005,15.0966002 L3.62410005,15.0966002 C3.62410005,14.6091002 3.22880005,14.2138002 2.74130004,14.2138002 L0.975800015,14.2138002 C0.488300007,14.2138002 0.0930000014,14.6091002 0.0930000014,15.0966002 L0.0930000014,15.0966002 C0.0930000014,15.5841002 0.488300007,15.9794002 0.975800015,15.9794002 L2.74130004,15.9794002 C3.22890005,15.9793002 3.62410005,15.5841002 3.62410005,15.0966002 Z" id="Path" fill="#464655" fill-rule="nonzero"></path>
                                        </g>
                                        <g id="Group" stroke-width="1" fill="none" fill-rule="evenodd" transform="translate(7.200000, 17.700000)">
                                            <path d="M5.69660008,26.1929004 L5.69660008,26.1929004 C6.11880009,26.4367004 6.6587001,26.2920004 6.9024001,25.8698004 L7.78520012,24.3409004 C8.02900012,23.9187004 7.88430012,23.3788003 7.46210011,23.1350003 L7.46210011,23.1350003 C7.0399001,22.8912003 6.5000001,23.0359003 6.25630009,23.4581003 L5.37350008,24.9870004 C5.12970008,25.4092004 5.27440008,25.9491004 5.69660008,26.1929004 Z" id="Path" fill="#96A5B9" fill-rule="nonzero"></path>
                                            <path d="M18.9379003,3.25810005 L18.9379003,3.25810005 C19.3601003,3.50190005 19.9000003,3.35720005 20.1438003,2.93500004 L21.0266003,1.40610002 C21.2704003,0.983900015 21.1257003,0.444000007 20.7035003,0.200300003 L20.7035003,0.200300003 C20.2813003,-0.0435000006 19.7414003,0.101200002 19.4976003,0.523400008 L18.6148003,2.05230003 C18.3711003,2.47450004 18.5158003,3.01440004 18.9379003,3.25810005 Z" id="Path" fill="#96A5B9" fill-rule="nonzero"></path>
                                            <path d="M0.203700003,5.69310008 L0.203700003,5.69310008 C-0.0401000006,6.11530009 0.104600002,6.6552001 0.526800008,6.8989001 L2.05570003,7.78170012 C2.47790004,8.02550012 3.01780004,7.88080012 3.26150005,7.45860011 L3.26150005,7.45860011 C3.50530005,7.0364001 3.36060005,6.4965001 2.93840004,6.25280009 L1.40950002,5.37000008 C0.987300015,5.12630008 0.447400007,5.27090008 0.203700003,5.69310008 Z" id="Path" fill="#96A5B9" fill-rule="nonzero"></path>
                                            <path d="M23.1384003,18.9345003 L23.1384003,18.9345003 C22.8946003,19.3567003 23.0393003,19.8966003 23.4615003,20.1404003 L24.9904004,21.0232003 C25.4126004,21.2670003 25.9525004,21.1223003 26.1962004,20.7001003 L26.1962004,20.7001003 C26.4400004,20.2779003 26.2953004,19.7380003 25.8731004,19.4942003 L24.3442004,18.6114003 C23.9220004,18.3676003 23.3822003,18.5123003 23.1384003,18.9345003 Z" id="Path" fill="#96A5B9" fill-rule="nonzero"></path>
                                            <path d="M20.7034003,26.1929004 L20.7034003,26.1929004 C20.2812003,26.4367004 19.7413003,26.2920004 19.4975003,25.8698004 L18.6147003,24.3409004 C18.3709003,23.9187004 18.5156003,23.3788003 18.9378003,23.1350003 L18.9378003,23.1350003 C19.3600003,22.8912003 19.8999003,23.0359003 20.1437003,23.4581003 L21.0265003,24.9870004 C21.2703003,25.4092004 21.1256003,25.9491004 20.7034003,26.1929004 Z" id="Path" fill="#96A5B9" fill-rule="nonzero"></path>
                                            <path d="M7.46210011,3.25810005 L7.46210011,3.25810005 C7.0399001,3.50190005 6.5000001,3.35720005 6.25630009,2.93500004 L5.37350008,1.40610002 C5.12970008,0.983900015 5.27440008,0.444000007 5.69660008,0.200300003 L5.69660008,0.200300003 C6.11880009,-0.0435000006 6.6587001,0.101200002 6.9024001,0.523400008 L7.78520012,2.05230003 C8.02890012,2.47450004 7.88420012,3.01440004 7.46210011,3.25810005 Z" id="Path" fill="#96A5B9" fill-rule="nonzero"></path>
                                            <path d="M26.1963004,5.69310008 L26.1963004,5.69310008 C26.4401004,6.11530009 26.2954004,6.6552001 25.8732004,6.8989001 L24.3443004,7.78170012 C23.9221004,8.02550012 23.3822003,7.88080012 23.1384003,7.45860011 L23.1384003,7.45860011 C22.8946003,7.0364001 23.0393003,6.4965001 23.4615003,6.25280009 L24.9904004,5.37000008 C25.4126004,5.12630008 25.9526004,5.27090008 26.1963004,5.69310008 Z" id="Path" fill="#96A5B9" fill-rule="nonzero"></path>
                                            <path d="M3.26160005,18.9345003 L3.26160005,18.9345003 C3.50540005,19.3567003 3.36070005,19.8966003 2.93850004,20.1404003 L1.40960002,21.0232003 C0.987400015,21.2670003 0.447500007,21.1223003 0.203800003,20.7001003 L0.203800003,20.7001003 C-0.0400000006,20.2779003 0.104700002,19.7380003 0.526900008,19.4942003 L2.05580003,18.6114003 C2.47790004,18.3676003 3.01780004,18.5123003 3.26160005,18.9345003 Z" id="Path" fill="#96A5B9" fill-rule="nonzero"></path>
                                        </g>
                                        <path d="M30.1103004,41.4897006 C29.8844004,41.4897006 29.6585004,41.4035006 29.4862004,41.2311006 L18.0104003,29.7551004 C17.6656003,29.4103004 17.6656003,28.8516004 18.0104003,28.5068004 C18.3552003,28.1620004 18.9139003,28.1620004 19.2587003,28.5068004 L30.7346005,39.9827006 C31.0794005,40.3275006 31.0794005,40.8862006 30.7346005,41.2310006 C30.5621005,41.4035006 30.3362005,41.4897006 30.1103004,41.4897006 Z" id="Path" fill="#FF6464" fill-rule="nonzero"></path>
                                        <circle id="Oval" fill="#C7CFE2" fill-rule="nonzero" cx="20.4000003" cy="30.8966005" r="1.76550003"></circle>
                                    </g>
                                </g>
                            </g>
                            <g id="clouds"></g>
                        </g>
                    </g>
                </g>
            </g>
        </g>
    </g>
</svg>