<?xml version="1.0" encoding="UTF-8"?>
<svg width="228px" height="229px" viewBox="0 0 228 229" version="1.1" xmlns="http://www.w3.org/2000/svg" xmlns:xlink="http://www.w3.org/1999/xlink">
    <!-- Generator: Sketch 59.1 (86144) - https://sketch.com -->
    <title>Group 3</title>
    <desc>Created with Sketch.</desc>
    <defs>
        <rect id="path-1" x="29" y="29" width="154.799997" height="154.799997" rx="11.5199998"></rect>
        <filter x="-12.3%" y="-12.3%" width="124.7%" height="124.7%" filterUnits="objectBoundingBox" id="filter-3">
            <feMorphology radius="1.07999998" operator="dilate" in="SourceAlpha" result="shadowSpreadOuter1"></feMorphology>
            <feOffset dx="0" dy="0" in="shadowSpreadOuter1" result="shadowOffsetOuter1"></feOffset>
            <feGaussianBlur stdDeviation="6" in="shadowOffsetOuter1" result="shadowBlurOuter1"></feGaussianBlur>
            <feComposite in="shadowBlurOuter1" in2="SourceAlpha" operator="out" result="shadowBlurOuter1"></feComposite>
            <feColorMatrix values="0 0 0 0 0   0 0 0 0 0   0 0 0 0 0  0 0 0 0.147235577 0" type="matrix" in="shadowBlurOuter1"></feColorMatrix>
        </filter>
    </defs>
    <g id="Page-1" stroke="none" stroke-width="1" fill="none" fill-rule="evenodd">
        <g id="containerization" transform="translate(-228.000000, -1290.000000)">
            <g id="Group-29" transform="translate(236.000000, 680.000000)">
                <g id="Group-3" transform="translate(0.000000, 8.000000)">
                    <g id="Group-12" transform="translate(0.000000, 610.000000)">
                        <g id="Group-3">
                            <g id="Group-16">
                                <circle id="Oval" fill="#F1F1F1" cx="107.999998" cy="100.799998" r="92.1599982"></circle>
                                <mask id="mask-2" fill="white">
                                    <use xlink:href="#path-1"></use>
                                </mask>
                                <g id="Rectangle" fill-rule="nonzero" transform="translate(106.399998, 106.399998) rotate(-30.000000) translate(-106.399998, -106.399998) ">
                                    <use fill="black" fill-opacity="1" filter="url(#filter-3)" xlink:href="#path-1"></use>
                                    <use stroke="#F1F1F1" stroke-width="2.15999996" fill="#FFFFFF" xlink:href="#path-1"></use>
                                </g>
                                <g id="data-(4)" mask="url(#mask-2)">
                                    <g transform="translate(60.000000, 60.000000)">
                                        <polygon id="Path" fill="#96A5B9" fill-rule="nonzero" points="33.1516392 75.1879656 58.902185 75.1879656 58.902185 85.8459338 33.1516392 85.8459338"></polygon>
                                        <path d="M87.3281212,76.6806998 L4.72570288,76.6806998 C2.11570299,76.6806998 -2.84217094e-14,74.5649968 -2.84217094e-14,71.9549969 L-2.84217094e-14,4.72570288 C-2.84217094e-14,2.11570299 2.11570299,-2.84217094e-14 4.72570288,-2.84217094e-14 L87.3281212,-2.84217094e-14 C89.9381211,-2.84217094e-14 92.0538241,2.11570299 92.0538241,4.72570288 L92.0538241,71.9549969 C92.0538241,74.5649968 89.9381211,76.6806998 87.3281212,76.6806998 Z" id="Path" fill="#F1F1F1" fill-rule="nonzero"></path>
                                        <g id="Group-19" stroke-width="1" fill="none" fill-rule="evenodd" transform="translate(6.935488, 19.163776)">
                                            <polygon id="Path-3" fill="#0D89A3" points="-1.77635684e-14 4.0594767 26.9544485 -1.24344979e-13 41.8976462 7.72300378 14.0184195 11.9744105"></polygon>
                                            <polygon id="Path-4" fill="#119DBA" points="-8.8817842e-16 4.0594767 -8.8817842e-16 34.5203993 13.9033048 42.3684202 14.0184195 11.9744105"></polygon>
                                            <polygon id="Path-5" fill="#10BDE0" points="14.0184195 11.9744105 41.8976462 7.72300378 41.8976462 38.4875262 13.9033048 42.3684202"></polygon>
                                        </g>
                                        <path d="M92.0545272,4.72640596 L92.0545272,71.9549969 C92.0545272,74.5649968 89.9388242,76.6806998 87.3288243,76.6806998 L81.5561684,76.6806998 C84.1661683,76.6806998 86.2818713,74.5649968 86.2818713,71.9549969 L86.2818713,4.72640596 C86.2818713,2.11640607 84.1661683,0.00070312497 81.5561684,0.00070312497 L87.3288243,0.00070312497 C89.9388242,0.00070312497 92.0545272,2.11640607 92.0545272,4.72640596 L92.0545272,4.72640596 Z" id="Path" fill="#E5E5E5" fill-rule="nonzero"></path>
                                        <path d="M92.0538241,65.2957003 L0,65.2957003 L0,71.9549969 C0,74.5649968 2.11570299,76.6806998 4.72570288,76.6806998 L87.3281212,76.6806998 C89.9381211,76.6806998 92.0538241,74.5649968 92.0538241,71.9549969 L92.0538241,65.2957003 Z" id="Path" fill="#BEC8DC" fill-rule="nonzero"></path>
                                        <g id="Group-19" stroke-width="1" fill="none" fill-rule="evenodd" transform="translate(60.935488, 50.163776)">
                                            <polygon id="Path-3" fill="#A17E0E" points="-1.77635684e-14 1.44123409 9.78310489 0 14.8749015 2.74189437 4.97695283 4.25126928"></polygon>
                                            <polygon id="Path-4" fill="#BC9412" points="-8.8817842e-16 1.44123409 -8.8817842e-16 12.255761 4.93608369 15.0420401 4.97695283 4.25126928"></polygon>
                                            <polygon id="Path-5" fill="#FFC400" points="4.97695283 4.25126928 14.8749015 2.74189437 14.8749015 13.6642082 4.93608369 15.0420401"></polygon>
                                        </g>
                                        <g id="Group-19" stroke-width="1" fill="none" fill-rule="evenodd" transform="translate(46.935488, 51.163776)">
                                            <polygon id="Path-3" fill="#A17E0E" points="-1.77635684e-14 1.44123409 9.78310489 0 14.8749015 2.74189437 4.97695283 4.25126928"></polygon>
                                            <polygon id="Path-4" fill="#BC9412" points="-8.8817842e-16 1.44123409 -8.8817842e-16 12.255761 4.93608369 15.0420401 4.97695283 4.25126928"></polygon>
                                            <polygon id="Path-5" fill="#FFC400" points="4.97695283 4.25126928 14.8749015 2.74189437 14.8749015 13.6642082 4.93608369 15.0420401"></polygon>
                                        </g>
                                        <g id="Group-19" stroke-width="1" fill="none" fill-rule="evenodd" transform="translate(68.935488, 55.163776)">
                                            <polygon id="Path-3" fill="#4B5869" points="-1.77635684e-14 1.44123409 9.78310489 0 14.8749015 2.74189437 4.97695283 4.25126928"></polygon>
                                            <polygon id="Path-4" fill="#697380" points="-8.8817842e-16 1.44123409 -8.8817842e-16 12.255761 4.93608369 15.0420401 4.97695283 4.25126928"></polygon>
                                            <polygon id="Path-5" fill="#8E98A4" points="4.97695283 4.25126928 14.8749015 2.74189437 14.8749015 13.6642082 4.93608369 15.0420401"></polygon>
                                        </g>
                                        <g id="Group-19" stroke-width="1" fill="none" fill-rule="evenodd" transform="translate(54.935488, 56.163776)">
                                            <polygon id="Path-3" fill="#4B5869" points="-1.77635684e-14 1.44123409 9.78310489 0 14.8749015 2.74189437 4.97695283 4.25126928"></polygon>
                                            <polygon id="Path-4" fill="#697380" points="-8.8817842e-16 1.44123409 -8.8817842e-16 12.255761 4.93608369 15.0420401 4.97695283 4.25126928"></polygon>
                                            <polygon id="Path-5" fill="#8E98A4" points="4.97695283 4.25126928 14.8749015 2.74189437 14.8749015 13.6642082 4.93608369 15.0420401"></polygon>
                                        </g>
                                        <g id="Group-20" stroke-width="1" fill="none" fill-rule="evenodd" transform="translate(49.935488, 45.429707)" stroke-linecap="round">
                                            <line x1="0" y1="1.06591138e-13" x2="7.48847641" y2="3.99452379" id="Path-6" stroke="#0D89A3" stroke-dasharray="2"></line>
                                            <polyline id="Path-7" stroke="#0D89A3" points="6.90549257 0.651591888 7.85333064 4.23406876 4.43745073 4.73406876"></polyline>
                                        </g>
                                        <path d="M92.0545272,65.2949972 L92.0545272,71.9549969 C92.0545272,74.5649968 89.9388242,76.6806998 87.3288243,76.6806998 L81.5561684,76.6806998 C84.1661683,76.6806998 86.2818713,74.5649968 86.2818713,71.9549969 L86.2818713,65.2949972 L92.0545272,65.2949972 Z" id="Path" fill="#96A5B9" fill-rule="nonzero"></path>
                                        <path d="M92.159293,16.1212493 L0.102656156,16.1212493 L0.102656156,4.72570288 C0.102656156,2.11570299 2.21835932,0 4.82765595,0 L87.4335901,0 C90.04359,0 92.159293,2.11570299 92.159293,4.72570288 L92.159293,16.1212493 Z" id="Path" fill="#BEC8DC" fill-rule="nonzero"></path>
                                        <path d="M92.159996,4.7249998 L92.159996,16.1219524 L86.2818713,16.1219524 L86.2818713,4.7249998 C86.2818713,2.11640607 84.1661683,0.00070312497 81.5554653,0.00070312497 L87.4342932,0.00070312497 C90.044293,0.00070312497 92.159996,2.11640607 92.159996,4.7249998 Z" id="Path" fill="#96A5B9" fill-rule="nonzero"></path>
                                        <path d="M67.2468721,92.0566366 L24.806952,92.0566366 C24.2957801,92.0566366 23.8809365,91.641793 23.8809365,91.1306211 L23.8809365,88.1289806 C23.8809365,86.0934338 25.5311708,84.4431994 27.5667177,84.4431994 L64.4871066,84.4431994 C66.5226533,84.4431994 68.1728876,86.0934338 68.1728876,88.1289806 L68.1728876,91.1306211 C68.1728876,91.641793 67.758044,92.0566366 67.2468721,92.0566366 Z" id="Path" fill="#8E98A4" fill-rule="nonzero"></path>
                                        <path d="M68.1728876,88.1282774 L68.1728876,91.1313242 C68.1728876,91.6424961 67.758044,92.0573399 67.246169,92.0573399 L63.9766378,92.0573399 L63.9766378,88.1282774 C63.9766378,86.0941369 62.3264035,84.4431994 60.292263,84.4431994 L64.4885128,84.4431994 C66.5233566,84.4431994 68.1728876,86.0934338 68.1728876,88.1282774 L68.1728876,88.1282774 Z" id="Path" fill="#738293" fill-rule="nonzero"></path>
                                        <path d="M11.5460151,8.02124965 C11.5460151,9.50624959 10.3422651,10.7092965 8.85796846,10.7092965 C7.37296852,10.7092965 6.16921857,9.50624959 6.16921857,8.02124965 C6.16921857,6.5369528 7.37296852,5.33320285 8.85796846,5.33320285 C10.3422651,5.33320285 11.5460151,6.5369528 11.5460151,8.02124965 Z" id="Path" fill="#FF5770" fill-rule="nonzero"></path>
                                        <path d="M21.9269521,8.02124965 C21.9269521,9.50624959 20.7239053,10.7092965 19.2389053,10.7092965 C17.7546087,10.7092965 16.5508587,9.50624959 16.5508587,8.02124965 C16.5508587,6.5369528 17.7546087,5.33320285 19.2389053,5.33320285 C20.7239053,5.33320285 21.9269521,6.5369528 21.9269521,8.02124965 Z" id="Path" fill="#FFD86E" fill-rule="nonzero"></path>
                                        <path d="M32.3085924,8.02124965 C32.3085924,9.50624959 31.1048425,10.7092965 29.6205456,10.7092965 C28.1355457,10.7092965 26.9324988,9.50624959 26.9324988,8.02124965 C26.9324988,6.5369528 28.1355457,5.33320285 29.6205456,5.33320285 C31.1048425,5.33320285 32.3085924,6.5369528 32.3085924,8.02124965 Z" id="Path" fill="#80E0DC" fill-rule="nonzero"></path>
                                        <path d="M11.5446089,8.02195273 C11.5446089,9.50624959 10.3422651,10.7085934 8.85867154,10.7085934 C8.13937465,10.7085934 7.48546852,10.4266401 7.00382778,9.96539015 C8.45789022,9.93374957 9.62929651,8.7447652 9.62929651,7.28085911 C9.62929651,6.5144528 9.30867152,5.82468725 8.7953902,5.33601535 C8.81578078,5.33390593 8.83828078,5.33390593 8.85867154,5.33390593 C10.3422651,5.33390593 11.5446089,6.53624972 11.5446089,8.02195273 Z" id="Path" fill="#FF435F" fill-rule="nonzero"></path>
                                        <path d="M21.9262491,8.02195273 C21.9262491,9.50624959 20.7239053,10.7085934 19.2382023,10.7085934 C18.5196086,10.7085934 17.8678117,10.4266401 17.3840618,9.96539015 C18.8402336,9.93374957 20.0109366,8.7447652 20.0109366,7.28085911 C20.0109366,6.5144528 19.6903117,5.82468725 19.1777336,5.33601535 C19.1974211,5.33390593 19.2178117,5.33390593 19.2389053,5.33390593 C20.7246085,5.33390593 21.9262491,6.53624972 21.9262491,8.02195273 Z" id="Path" fill="#FFB509" fill-rule="nonzero"></path>
                                        <path d="M32.3085924,8.02195273 C32.3085924,9.50624959 31.1041392,10.7085934 29.6205456,10.7085934 C28.9012488,10.7085934 28.2494519,10.4266401 27.7657019,9.96539015 C29.2218737,9.93374957 30.3911706,8.7447652 30.3911706,7.28085911 C30.3911706,6.5144528 30.0705456,5.82468725 29.5572643,5.33601535 C29.5776549,5.33390593 29.6001549,5.33390593 29.6205456,5.33390593 C31.1041392,5.33390593 32.3085924,6.53624972 32.3085924,8.02195273 Z" id="Path" fill="#00A8B0" fill-rule="nonzero"></path>
                                    </g>
                                </g>
                            </g>
                            <g id="clouds"></g>
                        </g>
                    </g>
                </g>
            </g>
        </g>
    </g>
</svg>