<?xml version="1.0" encoding="utf-8"?>
<!-- Generator: Adobe Illustrator 24.2.1, SVG Export Plug-In . SVG Version: 6.00 Build 0)  -->
<svg version="1.1" id="Layer_1" xmlns="http://www.w3.org/2000/svg" xmlns:xlink="http://www.w3.org/1999/xlink" x="0px" y="0px"
	 viewBox="0 0 256 100" style="enable-background:new 0 0 256 100;" xml:space="preserve">
<style type="text/css">
	.st0{fill-rule:evenodd;clip-rule:evenodd;fill:#FF9900;}
	.st1{fill-rule:evenodd;clip-rule:evenodd;}
	.st2{fill-rule:evenodd;clip-rule:evenodd;stroke:#000000;}
</style>
<g>
	<g>
		<path class="st0" d="M33.3,95l-15-5.4v-22l15,5.1V95"/>
		<path class="st0" d="M36.1,95l15-5.4v-22l-15,5.1V95"/>
		<path class="st0" d="M19.9,66L35,61.7l14.1,4.5L35,71.1L19.9,66"/>
		<path class="st0" d="M15.5,64.3l-15-5.4V37l15,5.1V64.3"/>
		<path class="st0" d="M18.2,64.3l15-5.4V37l-15,5.1V64.3"/>
		<path class="st0" d="M2,35.3l15.2-4.3l14.1,4.5l-14.1,4.8L2,35.3"/>
		<path class="st0" d="M50.5,64.3l-15-5.4V37l15,5.1V64.3"/>
		<path class="st0" d="M53.2,64.3l15-5.4V37l-15,5.1V64.3"/>
		<path class="st0" d="M37,35.3l15.2-4.3l14.1,4.5l-14.1,4.8L37,35.3"/>
		<path class="st0" d="M68.3,33.6l-15-5.4v-22l15,5.1V33.6"/>
		<path class="st0" d="M71,33.6l15-5.4v-22l-15,5.1V33.6"/>
		<path class="st0" d="M54.8,4.6L70,0.4l14.1,4.5L70,9.7L54.8,4.6"/>
		<path class="st0" d="M103.3,33.6l-15-5.4v-22l15,5.1V33.6"/>
		<path class="st0" d="M106,33.6l15-5.4v-22l-15,5.1V33.6"/>
		<path class="st0" d="M89.8,4.6L105,0.4L119,4.9L105,9.7L89.8,4.6"/>
		<path class="st1" d="M95.6,80.7l-5,17.5h-2.2l-3.9-13l-3.6,13h-2.2l-5.2-17.5h2.7l3.8,13l3.6-13h2l3.9,13.1l3.9-13.1H95.6
			L95.6,80.7z"/>
		<path class="st2" d="M95.6,80.7l-5,17.5h-2.2l-3.9-13l-3.6,13h-2.2l-5.2-17.5h2.7l3.8,13l3.6-13h2l3.9,13.1l3.9-13.1H95.6
			L95.6,80.7z"/>
		<path class="st1" d="M109.6,93l2.5,0.5c-0.5,1.5-1.4,2.7-2.7,3.7c-1.3,1-2.9,1.5-4.7,1.5c-2.4,0-4.3-0.8-5.8-2.5
			c-1.5-1.7-2.2-3.9-2.2-6.6c0-2.8,0.8-5,2.3-6.8c1.5-1.7,3.5-2.6,5.8-2.6c2.3,0,4.1,0.8,5.5,2.4c1.4,1.6,2.1,3.9,2.1,7.1H99.7
			c0,2.6,0.6,4.4,1.7,5.4c1.1,0.9,2.3,1.4,3.5,1.4C107.1,96.4,108.7,95.3,109.6,93L109.6,93z M109.4,87.6c0-1-0.2-1.9-0.5-2.6
			c-0.3-0.8-0.8-1.4-1.5-1.9c-0.7-0.5-1.6-0.8-2.6-0.8c-1.3,0-2.5,0.5-3.4,1.5c-0.9,1-1.5,2.3-1.6,3.9H109.4L109.4,87.6z"/>
		<path class="st2" d="M109.6,93l2.5,0.5c-0.5,1.5-1.4,2.7-2.7,3.7c-1.3,1-2.9,1.5-4.7,1.5c-2.4,0-4.3-0.8-5.8-2.5
			c-1.5-1.7-2.2-3.9-2.2-6.6c0-2.8,0.8-5,2.3-6.8c1.5-1.7,3.5-2.6,5.8-2.6c2.3,0,4.1,0.8,5.5,2.4c1.4,1.6,2.1,3.9,2.1,7.1H99.7
			c0,2.6,0.6,4.4,1.7,5.4c1.1,0.9,2.3,1.4,3.5,1.4C107.1,96.4,108.7,95.3,109.6,93L109.6,93z M109.4,87.6c0-1-0.2-1.9-0.5-2.6
			c-0.3-0.8-0.8-1.4-1.5-1.9c-0.7-0.5-1.6-0.8-2.6-0.8c-1.3,0-2.5,0.5-3.4,1.5c-0.9,1-1.5,2.3-1.6,3.9H109.4L109.4,87.6z"/>
		<path class="st1" d="M117.3,98.2H116V74.6h2.7v9c1.2-2.3,3-3.4,5.1-3.4c2,0,3.7,0.8,5,2.4c1.4,1.6,2,3.9,2,6.9
			c0,2.6-0.7,4.8-2,6.5c-1.3,1.8-3.1,2.6-5.2,2.6c-2.4,0-4.2-1.1-5.5-3.4L117.3,98.2L117.3,98.2z M118.7,91.3
			c0.1,1.8,0.7,3.1,1.7,3.9c1,0.8,2,1.2,3.1,1.2c1.4,0,2.5-0.6,3.3-1.8c0.8-1.2,1.3-2.8,1.3-4.9c0-2.3-0.4-4-1.2-5.3
			c-0.8-1.3-2-1.9-3.4-1.9c-1.1,0-2.2,0.5-3.1,1.4c-0.9,0.9-1.5,2.1-1.6,3.6V91.3L118.7,91.3z"/>
		<path class="st2" d="M117.3,98.2H116V74.6h2.7v9c1.2-2.3,3-3.4,5.1-3.4c2,0,3.7,0.8,5,2.4c1.4,1.6,2,3.9,2,6.9
			c0,2.6-0.7,4.8-2,6.5c-1.3,1.8-3.1,2.6-5.2,2.6c-2.4,0-4.2-1.1-5.5-3.4L117.3,98.2L117.3,98.2z M118.7,91.3
			c0.1,1.8,0.7,3.1,1.7,3.9c1,0.8,2,1.2,3.1,1.2c1.4,0,2.5-0.6,3.3-1.8c0.8-1.2,1.3-2.8,1.3-4.9c0-2.3-0.4-4-1.2-5.3
			c-0.8-1.3-2-1.9-3.4-1.9c-1.1,0-2.2,0.5-3.1,1.4c-0.9,0.9-1.5,2.1-1.6,3.6V91.3L118.7,91.3z"/>
		<path class="st1" d="M137.9,93.6l2.6-0.5c0.6,2.2,2.4,3.3,5.5,3.3c1.1,0,2.1-0.3,2.9-0.8c0.8-0.5,1.2-1.2,1.2-2.1
			c0-1.4-1-2.2-3-2.6l-3.7-0.7c-1.4-0.3-2.6-0.8-3.4-1.6c-0.9-0.8-1.3-1.9-1.3-3.2c0-1.5,0.6-2.7,1.7-3.7c1.2-1,2.7-1.5,4.7-1.5
			c3.8,0,6.1,1.5,7,4.4l-2.5,0.5c-0.7-1.8-2.2-2.7-4.4-2.7c-1.1,0-2,0.2-2.7,0.7c-0.7,0.5-1.1,1.1-1.1,1.9c0,1.3,0.9,2.1,2.7,2.4
			l3.4,0.6c3.6,0.6,5.3,2.4,5.3,5.2c0,1.6-0.7,2.9-2,3.9c-1.3,1-3.1,1.5-5.3,1.5C141.4,98.7,138.8,97,137.9,93.6L137.9,93.6z"/>
		<path class="st2" d="M137.9,93.6l2.6-0.5c0.6,2.2,2.4,3.3,5.5,3.3c1.1,0,2.1-0.3,2.9-0.8c0.8-0.5,1.2-1.2,1.2-2.1
			c0-1.4-1-2.2-3-2.6l-3.7-0.7c-1.4-0.3-2.6-0.8-3.4-1.6c-0.9-0.8-1.3-1.9-1.3-3.2c0-1.5,0.6-2.7,1.7-3.7c1.2-1,2.7-1.5,4.7-1.5
			c3.8,0,6.1,1.5,7,4.4l-2.5,0.5c-0.7-1.8-2.2-2.7-4.4-2.7c-1.1,0-2,0.2-2.7,0.7c-0.7,0.5-1.1,1.1-1.1,1.9c0,1.3,0.9,2.1,2.7,2.4
			l3.4,0.6c3.6,0.6,5.3,2.4,5.3,5.2c0,1.6-0.7,2.9-2,3.9c-1.3,1-3.1,1.5-5.3,1.5C141.4,98.7,138.8,97,137.9,93.6L137.9,93.6z"/>
		<path class="st1" d="M167.3,93l2.5,0.5c-0.5,1.5-1.4,2.7-2.7,3.7c-1.3,1-2.9,1.5-4.7,1.5c-2.4,0-4.3-0.8-5.8-2.5
			c-1.5-1.7-2.2-3.9-2.2-6.6c0-2.8,0.8-5,2.3-6.8c1.5-1.7,3.5-2.6,5.8-2.6c2.3,0,4.1,0.8,5.5,2.4c1.4,1.6,2.1,3.9,2.1,7.1h-12.7
			c0,2.6,0.6,4.4,1.7,5.4c1.1,0.9,2.3,1.4,3.5,1.4C164.8,96.4,166.4,95.3,167.3,93L167.3,93z M167.2,87.6c0-1-0.2-1.9-0.5-2.6
			c-0.3-0.8-0.8-1.4-1.5-1.9c-0.7-0.5-1.6-0.8-2.6-0.8c-1.3,0-2.5,0.5-3.4,1.5c-0.9,1-1.5,2.3-1.6,3.9H167.2L167.2,87.6z"/>
		<path class="st2" d="M167.3,93l2.5,0.5c-0.5,1.5-1.4,2.7-2.7,3.7c-1.3,1-2.9,1.5-4.7,1.5c-2.4,0-4.3-0.8-5.8-2.5
			c-1.5-1.7-2.2-3.9-2.2-6.6c0-2.8,0.8-5,2.3-6.8c1.5-1.7,3.5-2.6,5.8-2.6c2.3,0,4.1,0.8,5.5,2.4c1.4,1.6,2.1,3.9,2.1,7.1h-12.7
			c0,2.6,0.6,4.4,1.7,5.4c1.1,0.9,2.3,1.4,3.5,1.4C164.8,96.4,166.4,95.3,167.3,93L167.3,93z M167.2,87.6c0-1-0.2-1.9-0.5-2.6
			c-0.3-0.8-0.8-1.4-1.5-1.9c-0.7-0.5-1.6-0.8-2.6-0.8c-1.3,0-2.5,0.5-3.4,1.5c-0.9,1-1.5,2.3-1.6,3.9H167.2L167.2,87.6z"/>
		<path class="st1" d="M175.8,98.2h-2.7V80.7h2.4v4.1c0.8-1.9,1.7-3.1,2.5-3.7c0.8-0.6,1.7-0.8,2.6-0.8c0.3,0,0.6,0,1.1,0.1v2.6
			h-0.6c-1.5,0-2.7,0.6-3.7,1.7c-1,1.1-1.5,2.6-1.6,4.4V98.2L175.8,98.2z"/>
		<path class="st2" d="M175.8,98.2h-2.7V80.7h2.4v4.1c0.8-1.9,1.7-3.1,2.5-3.7c0.8-0.6,1.7-0.8,2.6-0.8c0.3,0,0.6,0,1.1,0.1v2.6
			h-0.6c-1.5,0-2.7,0.6-3.7,1.7c-1,1.1-1.5,2.6-1.6,4.4V98.2L175.8,98.2z"/>
		<path class="st1" d="M198.6,80.7l-6,17.5h-2.8l-6.2-17.5h3l4.9,14.2l4.8-14.2H198.6L198.6,80.7z"/>
		<path class="st2" d="M198.6,80.7l-6,17.5h-2.8l-6.2-17.5h3l4.9,14.2l4.8-14.2H198.6L198.6,80.7z"/>
		<path class="st1" d="M200.8,74.6h2.9v3h-2.9V74.6z M200.9,80.7h2.7v17.5h-2.7V80.7z"/>
		<path class="st2" d="M200.8,74.6h2.9v3h-2.9V74.6z M200.9,80.7h2.7v17.5h-2.7V80.7z"/>
		<path class="st1" d="M217.9,92.1l2.4,0.4c-0.3,1.9-1.1,3.4-2.3,4.5c-1.2,1.1-2.7,1.6-4.4,1.6c-2.4,0-4.2-0.9-5.5-2.7
			c-1.3-1.8-1.9-4-1.9-6.5c0-2.7,0.7-4.9,2-6.6c1.3-1.8,3.1-2.6,5.4-2.6c1.9,0,3.4,0.6,4.6,1.7c1.1,1.1,1.9,2.6,2.1,4.4l-2.4,0.5
			c-0.5-2.9-1.9-4.3-4.2-4.3c-1.5,0-2.7,0.6-3.5,1.9c-0.8,1.3-1.2,2.9-1.2,5c0,2.2,0.4,4,1.2,5.2c0.8,1.2,1.9,1.9,3.4,1.9
			C215.8,96.4,217.3,95,217.9,92.1L217.9,92.1z"/>
		<path class="st2" d="M217.9,92.1l2.4,0.4c-0.3,1.9-1.1,3.4-2.3,4.5c-1.2,1.1-2.7,1.6-4.4,1.6c-2.4,0-4.2-0.9-5.5-2.7
			c-1.3-1.8-1.9-4-1.9-6.5c0-2.7,0.7-4.9,2-6.6c1.3-1.8,3.1-2.6,5.4-2.6c1.9,0,3.4,0.6,4.6,1.7c1.1,1.1,1.9,2.6,2.1,4.4l-2.4,0.5
			c-0.5-2.9-1.9-4.3-4.2-4.3c-1.5,0-2.7,0.6-3.5,1.9c-0.8,1.3-1.2,2.9-1.2,5c0,2.2,0.4,4,1.2,5.2c0.8,1.2,1.9,1.9,3.4,1.9
			C215.8,96.4,217.3,95,217.9,92.1L217.9,92.1z"/>
		<path class="st1" d="M235.7,93l2.5,0.5c-0.5,1.5-1.4,2.7-2.7,3.7c-1.3,1-2.9,1.5-4.7,1.5c-2.4,0-4.3-0.8-5.8-2.5
			c-1.5-1.7-2.2-3.9-2.2-6.6c0-2.8,0.8-5,2.3-6.8c1.5-1.7,3.5-2.6,5.8-2.6c2.3,0,4.1,0.8,5.5,2.4c1.4,1.6,2.1,3.9,2.1,7.1h-12.7
			c0,2.6,0.6,4.4,1.7,5.4c1.1,0.9,2.3,1.4,3.5,1.4C233.2,96.4,234.8,95.3,235.7,93L235.7,93z M235.5,87.6c0-1-0.2-1.9-0.5-2.6
			c-0.3-0.8-0.8-1.4-1.5-1.9c-0.7-0.5-1.6-0.8-2.6-0.8c-1.3,0-2.5,0.5-3.4,1.5c-0.9,1-1.5,2.3-1.6,3.9H235.5L235.5,87.6z"/>
		<path class="st2" d="M235.7,93l2.5,0.5c-0.5,1.5-1.4,2.7-2.7,3.7c-1.3,1-2.9,1.5-4.7,1.5c-2.4,0-4.3-0.8-5.8-2.5
			c-1.5-1.7-2.2-3.9-2.2-6.6c0-2.8,0.8-5,2.3-6.8c1.5-1.7,3.5-2.6,5.8-2.6c2.3,0,4.1,0.8,5.5,2.4c1.4,1.6,2.1,3.9,2.1,7.1h-12.7
			c0,2.6,0.6,4.4,1.7,5.4c1.1,0.9,2.3,1.4,3.5,1.4C233.2,96.4,234.8,95.3,235.7,93L235.7,93z M235.5,87.6c0-1-0.2-1.9-0.5-2.6
			c-0.3-0.8-0.8-1.4-1.5-1.9c-0.7-0.5-1.6-0.8-2.6-0.8c-1.3,0-2.5,0.5-3.4,1.5c-0.9,1-1.5,2.3-1.6,3.9H235.5L235.5,87.6z"/>
		<path class="st1" d="M240,93.6l2.6-0.5c0.6,2.2,2.4,3.3,5.5,3.3c1.1,0,2.1-0.3,2.9-0.8c0.8-0.5,1.2-1.2,1.2-2.1c0-1.4-1-2.2-3-2.6
			l-3.7-0.7c-1.4-0.3-2.6-0.8-3.4-1.6c-0.9-0.8-1.3-1.9-1.3-3.2c0-1.5,0.6-2.7,1.7-3.7c1.2-1,2.7-1.5,4.7-1.5c3.8,0,6.1,1.5,7,4.4
			l-2.5,0.5c-0.7-1.8-2.2-2.7-4.4-2.7c-1.1,0-2,0.2-2.7,0.7s-1.1,1.1-1.1,1.9c0,1.3,0.9,2.1,2.7,2.4l3.4,0.6
			c3.6,0.6,5.3,2.4,5.3,5.2c0,1.6-0.7,2.9-2,3.9c-1.3,1-3.1,1.5-5.3,1.5C243.6,98.7,241,97,240,93.6L240,93.6z"/>
		<path class="st2" d="M240,93.6l2.6-0.5c0.6,2.2,2.4,3.3,5.5,3.3c1.1,0,2.1-0.3,2.9-0.8c0.8-0.5,1.2-1.2,1.2-2.1c0-1.4-1-2.2-3-2.6
			l-3.7-0.7c-1.4-0.3-2.6-0.8-3.4-1.6c-0.9-0.8-1.3-1.9-1.3-3.2c0-1.5,0.6-2.7,1.7-3.7c1.2-1,2.7-1.5,4.7-1.5c3.8,0,6.1,1.5,7,4.4
			l-2.5,0.5c-0.7-1.8-2.2-2.7-4.4-2.7c-1.1,0-2,0.2-2.7,0.7s-1.1,1.1-1.1,1.9c0,1.3,0.9,2.1,2.7,2.4l3.4,0.6
			c3.6,0.6,5.3,2.4,5.3,5.2c0,1.6-0.7,2.9-2,3.9c-1.3,1-3.1,1.5-5.3,1.5C243.6,98.7,241,97,240,93.6L240,93.6z"/>
		<path class="st1" d="M178.6,43.3v-4.2c0-0.6,0.5-1.1,1.1-1.1l18.8,0c0.6,0,1.1,0.4,1.1,1.1l0,3.6c0,0.6-0.5,1.4-1.4,2.6l-9.8,13.9
			c3.6-0.1,7.4,0.5,10.7,2.3c0.7,0.4,0.9,1,1,1.6v4.5c0,0.6-0.7,1.3-1.4,1c-5.8-3-13.5-3.4-19.9,0c-0.7,0.3-1.3-0.4-1.3-1v-4.3
			c0-0.7,0-1.8,0.7-2.9l11.3-16.2l-9.8,0C179.1,44.4,178.6,43.9,178.6,43.3"/>
		<path class="st1" d="M111.2,69.6h-5.7c-0.5,0-1-0.4-1-1l0-29.4c0-0.6,0.5-1.1,1.1-1.1l5.3,0c0.6,0,1,0.5,1,1v3.8h0.1
			c1.4-3.7,4-5.4,7.5-5.4c3.6,0,5.8,1.7,7.4,5.4c1.4-3.7,4.5-5.4,7.9-5.4c2.4,0,5,1,6.6,3.2c1.8,2.5,1.4,6.1,1.4,9.2l0,18.6
			c0,0.6-0.5,1.1-1.1,1.1h-5.7c-0.6,0-1-0.5-1-1.1l0-15.6c0-1.2,0.1-4.3-0.2-5.5c-0.4-2-1.7-2.5-3.4-2.5c-1.4,0-2.8,0.9-3.4,2.4
			c-0.6,1.5-0.5,4-0.5,5.6v15.6c0,0.6-0.5,1.1-1.1,1.1h-5.7c-0.6,0-1-0.5-1-1.1l0-15.6c0-3.3,0.5-8.1-3.5-8.1c-4.1,0-4,4.7-4,8.1
			l0,15.6C112.4,69.1,111.9,69.6,111.2,69.6"/>
		<path class="st1" d="M213.4,37.5c8.4,0,13,7.3,13,16.6c0,9-5,16.1-13,16.1c-8.3,0-12.8-7.3-12.8-16.4
			C200.7,44.6,205.2,37.5,213.4,37.5L213.4,37.5z M213.5,44.3c-4.2,0-4.5,5.8-4.5,9.3s-0.1,10.5,4.4,10.5c4.4,0,4.6-5.4,4.6-9.2
			c0-2.5-0.1-5.4-0.8-7.8C216.6,45.1,215.3,44.3,213.5,44.3L213.5,44.3z"/>
		<path class="st1" d="M238.6,69.6h-5.7c-0.6,0-1-0.5-1-1.1l0-29.4c0-0.5,0.5-1,1.1-1l5.3,0c0.5,0,0.9,0.4,1,0.8v4.5h0.1
			c1.6-4,3.8-5.9,7.8-5.9c2.6,0,5.1,0.9,6.7,3.5c1.5,2.4,1.5,6.3,1.5,9.2v18.5c-0.1,0.5-0.5,0.9-1.1,0.9h-5.7c-0.5,0-1-0.4-1-0.9
			v-16c0-3.2,0.4-7.9-3.6-7.9c-1.4,0-2.7,0.9-3.3,2.4c-0.8,1.8-0.9,3.6-0.9,5.6v15.8C239.7,69.1,239.3,69.6,238.6,69.6"/>
		<path class="st1" d="M164.3,55.5c0,2.2,0.1,4.1-1.1,6.1c-0.9,1.6-2.4,2.6-4,2.6c-2.2,0-3.5-1.7-3.5-4.2c0-4.9,4.4-5.8,8.5-5.8
			V55.5L164.3,55.5z M170,69.5c-0.4,0.3-0.9,0.4-1.4,0.1c-1.9-1.6-2.2-2.3-3.3-3.8C162.3,69,160,70,156,70c-4.8,0-8.6-3-8.6-8.9
			c0-4.7,2.5-7.8,6.1-9.4c3.1-1.4,7.4-1.6,10.8-2v-0.7c0-1.4,0.1-3-0.7-4.2c-0.7-1.1-2-1.5-3.2-1.5c-2.2,0-4.1,1.1-4.6,3.4
			c-0.1,0.5-0.5,1-1,1.1l-5.6-0.6c-0.5-0.1-1-0.5-0.9-1.2c1.3-6.7,7.4-8.8,12.8-8.8c2.8,0,6.4,0.7,8.6,2.9c2.8,2.6,2.5,6.1,2.5,9.9
			v8.9c0,2.7,1.1,3.9,2.2,5.3c0.4,0.5,0.4,1.1,0,1.5C173.3,66.7,171.2,68.5,170,69.5L170,69.5L170,69.5z"/>
		<path class="st1" d="M89.8,55.5c0,2.2,0.1,4.1-1.1,6.1c-0.9,1.6-2.4,2.6-4,2.6c-2.2,0-3.5-1.7-3.5-4.2c0-4.9,4.4-5.8,8.5-5.8V55.5
			L89.8,55.5z M95.6,69.5c-0.4,0.3-0.9,0.4-1.4,0.1C92.3,68,92,67.3,91,65.8C87.8,69,85.6,70,81.5,70C76.7,70,73,67,73,61
			c0-4.7,2.5-7.8,6.1-9.4c3.1-1.4,7.4-1.6,10.8-2v-0.7c0-1.4,0.1-3-0.7-4.2c-0.7-1.1-2-1.5-3.2-1.5c-2.2,0-4.1,1.1-4.6,3.4
			c-0.1,0.5-0.5,1-1,1.1l-5.6-0.6c-0.5-0.1-1-0.5-0.9-1.2c1.3-6.7,7.4-8.8,12.8-8.8c2.8,0,6.4,0.7,8.6,2.9c2.8,2.6,2.5,6.1,2.5,9.9
			v8.9c0,2.7,1.1,3.9,2.2,5.3c0.4,0.5,0.4,1.1,0,1.5C98.8,66.7,96.8,68.5,95.6,69.5L95.6,69.5L95.6,69.5z"/>
	</g>
</g>
</svg>
