<?xml version="1.0" encoding="UTF-8"?>
<svg width="382px" height="259px" viewBox="0 0 382 259" version="1.1" xmlns="http://www.w3.org/2000/svg" xmlns:xlink="http://www.w3.org/1999/xlink">
    <!-- Generator: Sketch 62 (91390) - https://sketch.com -->
    <title>Illustration_01</title>
    <desc>Created with Sketch.</desc>
    <defs>
        <linearGradient x1="50%" y1="6.7327971%" x2="50%" y2="100%" id="linearGradient-1">
            <stop stop-color="#FF8784" offset="0%"></stop>
            <stop stop-color="#D93531" offset="100%"></stop>
        </linearGradient>
        <path d="M82.944,216.464075 C51.2169258,216.464075 0.400013758,193.706315 0.400013758,151.715915 C0.400013758,116.000165 38.937252,79.3205767 83.1842073,88.104744 C87.0648475,46.1232804 127.653438,0.0278071437 178.7832,0.643828368 C229.822586,1.25876073 277.360659,39.2210325 266.020086,75.7665104 C321.208424,57.3934047 378.387437,94.6079474 376.9272,146.587828 C375.444426,199.36996 336.085525,216.464075 264.9024,216.464075 L264.9024,216.464075 Z" id="path-2"></path>
        <filter x="-60.0%" y="-74.0%" width="220.0%" height="247.9%" filterUnits="objectBoundingBox" id="filter-4">
            <feOffset dx="4" dy="14" in="SourceAlpha" result="shadowOffsetOuter1"></feOffset>
            <feGaussianBlur stdDeviation="7" in="shadowOffsetOuter1" result="shadowBlurOuter1"></feGaussianBlur>
            <feColorMatrix values="0 0 0 0 0.630944293   0 0 0 0 0.180891537   0 0 0 0 0.11911959  0 0 0 0.52458479 0" type="matrix" in="shadowBlurOuter1" result="shadowMatrixOuter1"></feColorMatrix>
            <feMerge>
                <feMergeNode in="shadowMatrixOuter1"></feMergeNode>
                <feMergeNode in="SourceGraphic"></feMergeNode>
            </feMerge>
        </filter>
        <rect id="path-5" x="33.6440005" y="54.7916579" width="22.1089146" height="11.5350859"></rect>
        <filter x="-2.3%" y="-4.3%" width="104.5%" height="108.7%" filterUnits="objectBoundingBox" id="filter-6">
            <feOffset dx="1" dy="1" in="SourceAlpha" result="shadowOffsetInner1"></feOffset>
            <feComposite in="shadowOffsetInner1" in2="SourceAlpha" operator="arithmetic" k2="-1" k3="1" result="shadowInnerInner1"></feComposite>
            <feColorMatrix values="0 0 0 0 1   0 0 0 0 1   0 0 0 0 1  0 0 0 1 0" type="matrix" in="shadowInnerInner1"></feColorMatrix>
        </filter>
        <path d="M33.6440005,66.3359994 L55.7529151,66.3359994 L63.2855701,70.8555924 C63.6037433,71.0464963 63.7069154,71.4591849 63.5160115,71.7773581 C63.3945933,71.9797218 63.1759027,72.1035423 62.939908,72.1035423 L25.7049254,72.1035423 C25.3338749,72.1035423 25.033079,71.8027465 25.033079,71.4316959 C25.033079,71.1858376 25.1673724,70.9596147 25.3832103,70.841885 L33.6440005,66.3359994 L33.6440005,66.3359994 Z" id="path-7"></path>
        <filter x="3.5%" y="-8.7%" width="93.6%" height="117.3%" filterUnits="objectBoundingBox" id="filter-8">
            <feOffset dx="1" dy="0" in="SourceAlpha" result="shadowOffsetInner1"></feOffset>
            <feComposite in="shadowOffsetInner1" in2="SourceAlpha" operator="arithmetic" k2="-1" k3="1" result="shadowInnerInner1"></feComposite>
            <feColorMatrix values="0 0 0 0 1   0 0 0 0 1   0 0 0 0 1  0 0 0 1 0" type="matrix" in="shadowInnerInner1"></feColorMatrix>
        </filter>
        <rect id="path-9" x="0" y="0.480628578" width="89.3969156" height="58.156058" rx="4.0310784"></rect>
        <filter x="-0.6%" y="-0.9%" width="101.1%" height="101.7%" filterUnits="objectBoundingBox" id="filter-10">
            <feOffset dx="1" dy="1" in="SourceAlpha" result="shadowOffsetInner1"></feOffset>
            <feComposite in="shadowOffsetInner1" in2="SourceAlpha" operator="arithmetic" k2="-1" k3="1" result="shadowInnerInner1"></feComposite>
            <feColorMatrix values="0 0 0 0 1   0 0 0 0 1   0 0 0 0 1  0 0 0 1 0" type="matrix" in="shadowInnerInner1"></feColorMatrix>
        </filter>
        <linearGradient x1="50%" y1="5.04609%" x2="50%" y2="98.3233698%" id="linearGradient-11">
            <stop stop-color="#FF8B69" offset="0%"></stop>
            <stop stop-color="#FF5F5F" offset="100%"></stop>
        </linearGradient>
        <path d="M20.5597712,47.5091492 C16.87392,47.77056 10.7190482,26.2122275 12.67488,21.17664 C15.1303076,14.8547669 16.87392,9.9792 18.97344,5.08032 C22.5487631,-3.26210051 26.67168,-0.5184 28.7712,8.57952 C29.2410916,10.6157168 32.2704,16.27776 26.67168,22.57632 C21.07296,28.87488 24.2456224,47.2477384 20.5597712,47.5091492 Z" id="path-12"></path>
        <filter x="-2.8%" y="-1.1%" width="105.6%" height="102.1%" filterUnits="objectBoundingBox" id="filter-13">
            <feOffset dx="1" dy="1" in="SourceAlpha" result="shadowOffsetInner1"></feOffset>
            <feComposite in="shadowOffsetInner1" in2="SourceAlpha" operator="arithmetic" k2="-1" k3="1" result="shadowInnerInner1"></feComposite>
            <feColorMatrix values="0 0 0 0 1   0 0 0 0 1   0 0 0 0 1  0 0 0 0.5 0" type="matrix" in="shadowInnerInner1"></feColorMatrix>
        </filter>
        <path d="M38.9590191,41.472 C35.8486191,41.472 33.7750191,41.472 32.7382191,41.472 C29.6278191,41.472 30.3799283,34.3357604 30.2277457,33.5136244 C29.1947458,27.9330506 17.6802719,29.4816694 20.4299857,25.8153844 C23.2182276,22.0977285 37.2261457,20.5953973 37.2261457,28.6147444 C37.2261457,30.7142644 39.9147542,31.8622522 40.7253457,34.2134644 C41.380431,36.1136132 40.7916555,38.5331251 38.9590191,41.472 Z" id="path-14"></path>
        <filter x="-2.4%" y="-2.7%" width="104.8%" height="105.4%" filterUnits="objectBoundingBox" id="filter-15">
            <feOffset dx="1" dy="1" in="SourceAlpha" result="shadowOffsetInner1"></feOffset>
            <feComposite in="shadowOffsetInner1" in2="SourceAlpha" operator="arithmetic" k2="-1" k3="1" result="shadowInnerInner1"></feComposite>
            <feColorMatrix values="0 0 0 0 1   0 0 0 0 1   0 0 0 0 1  0 0 0 0.5 0" type="matrix" in="shadowInnerInner1"></feColorMatrix>
        </filter>
        <path d="M0.209805723,46.37088 C-0.153025078,41.0592304 -0.0452555483,37.4167298 0.533114313,35.4433783 C1.32952308,32.7260955 2.28271431,28.87488 3.68239431,26.77536 C6.63573601,22.3453474 14.8798343,21.17664 16.2795143,22.57632 C17.6103351,23.9071408 14.8798343,29.57472 9.98095431,33.77376 C8.70206606,34.8699499 4.87745943,37.0749471 5.08207431,39.37248 C5.31535431,41.9918811 3.69126478,44.3246811 0.209805723,46.37088 Z" id="path-16"></path>
        <filter x="-3.0%" y="-2.1%" width="106.0%" height="104.1%" filterUnits="objectBoundingBox" id="filter-17">
            <feOffset dx="1" dy="1" in="SourceAlpha" result="shadowOffsetInner1"></feOffset>
            <feComposite in="shadowOffsetInner1" in2="SourceAlpha" operator="arithmetic" k2="-1" k3="1" result="shadowInnerInner1"></feComposite>
            <feColorMatrix values="0 0 0 0 1   0 0 0 0 1   0 0 0 0 1  0 0 0 0.5 0" type="matrix" in="shadowInnerInner1"></feColorMatrix>
        </filter>
        <rect id="path-18" x="6.84" y="16.464" width="44.0976" height="34.9649954"></rect>
        <filter x="-1.1%" y="-1.4%" width="102.3%" height="102.9%" filterUnits="objectBoundingBox" id="filter-19">
            <feOffset dx="1" dy="1" in="SourceAlpha" result="shadowOffsetInner1"></feOffset>
            <feComposite in="shadowOffsetInner1" in2="SourceAlpha" operator="arithmetic" k2="-1" k3="1" result="shadowInnerInner1"></feComposite>
            <feColorMatrix values="0 0 0 0 0.985450634   0 0 0 0 0.831524782   0 0 0 0 0.664409295  0 0 0 1 0" type="matrix" in="shadowInnerInner1"></feColorMatrix>
        </filter>
        <linearGradient x1="31.7422229%" y1="46.8774256%" x2="90.2323833%" y2="53.7165203%" id="linearGradient-20">
            <stop stop-color="#FFD6BE" offset="0%"></stop>
            <stop stop-color="#FDABA1" offset="100%"></stop>
        </linearGradient>
        <path d="M4.2,0 L54.15312,0 C56.4727159,4.62075557e-16 58.35312,1.88040405 58.35312,4.2 L58.35312,14.2730308 C58.35312,16.5926268 56.4727159,18.4730308 54.15312,18.4730308 L4.2,18.4730308 C1.88040405,18.4730308 -6.04109844e-16,16.5926268 0,14.2730308 L0,4.2 C-2.84068575e-16,1.88040405 1.88040405,1.31428128e-15 4.2,0 Z" id="path-21"></path>
        <filter x="-0.9%" y="-2.7%" width="101.7%" height="105.4%" filterUnits="objectBoundingBox" id="filter-22">
            <feOffset dx="1" dy="1" in="SourceAlpha" result="shadowOffsetInner1"></feOffset>
            <feComposite in="shadowOffsetInner1" in2="SourceAlpha" operator="arithmetic" k2="-1" k3="1" result="shadowInnerInner1"></feComposite>
            <feColorMatrix values="0 0 0 0 1   0 0 0 0 1   0 0 0 0 1  0 0 0 1 0" type="matrix" in="shadowInnerInner1"></feColorMatrix>
        </filter>
        <path d="M4.2,0 L54.15312,0 C56.4727159,4.62075557e-16 58.35312,1.88040405 58.35312,4.2 L58.35312,14.2730308 C58.35312,16.5926268 56.4727159,18.4730308 54.15312,18.4730308 L4.2,18.4730308 C1.88040405,18.4730308 -6.04109844e-16,16.5926268 0,14.2730308 L0,4.2 C-2.84068575e-16,1.88040405 1.88040405,1.31428128e-15 4.2,0 Z" id="path-23"></path>
        <filter x="-0.9%" y="-2.7%" width="101.7%" height="105.4%" filterUnits="objectBoundingBox" id="filter-24">
            <feOffset dx="1" dy="1" in="SourceAlpha" result="shadowOffsetInner1"></feOffset>
            <feComposite in="shadowOffsetInner1" in2="SourceAlpha" operator="arithmetic" k2="-1" k3="1" result="shadowInnerInner1"></feComposite>
            <feColorMatrix values="0 0 0 0 1   0 0 0 0 1   0 0 0 0 1  0 0 0 1 0" type="matrix" in="shadowInnerInner1"></feColorMatrix>
        </filter>
        <path d="M4.2,0 L54.15312,0 C56.4727159,4.62075557e-16 58.35312,1.88040405 58.35312,4.2 L58.35312,14.2730308 C58.35312,16.5926268 56.4727159,18.4730308 54.15312,18.4730308 L4.2,18.4730308 C1.88040405,18.4730308 -6.04109844e-16,16.5926268 0,14.2730308 L0,4.2 C-2.84068575e-16,1.88040405 1.88040405,1.31428128e-15 4.2,0 Z" id="path-25"></path>
        <filter x="-0.9%" y="-2.7%" width="101.7%" height="105.4%" filterUnits="objectBoundingBox" id="filter-26">
            <feOffset dx="1" dy="1" in="SourceAlpha" result="shadowOffsetInner1"></feOffset>
            <feComposite in="shadowOffsetInner1" in2="SourceAlpha" operator="arithmetic" k2="-1" k3="1" result="shadowInnerInner1"></feComposite>
            <feColorMatrix values="0 0 0 0 1   0 0 0 0 1   0 0 0 0 1  0 0 0 1 0" type="matrix" in="shadowInnerInner1"></feColorMatrix>
        </filter>
        <path d="M38.008021,47.763328 C36.5127718,42.7257273 34.831905,39.2831672 32.9654206,37.4356476 C29.2542424,33.7621776 21.0389812,31.6951726 20.5722041,29.1735033 C19.0477853,20.9381377 2.05564334,23.2234657 6.11345153,17.8130548 C10.2281164,12.3268349 30.8998845,10.1098143 30.8998845,21.944127 C30.8998845,25.0424311 34.8675184,26.73654 36.0637247,30.2062713 C37.0304473,33.0103593 37.6785461,38.8627116 38.008021,47.763328 Z" id="path-27"></path>
        <filter x="-1.5%" y="-1.5%" width="103.1%" height="102.9%" filterUnits="objectBoundingBox" id="filter-28">
            <feOffset dx="1" dy="1" in="SourceAlpha" result="shadowOffsetInner1"></feOffset>
            <feComposite in="shadowOffsetInner1" in2="SourceAlpha" operator="arithmetic" k2="-1" k3="1" result="shadowInnerInner1"></feComposite>
            <feColorMatrix values="0 0 0 0 1   0 0 0 0 1   0 0 0 0 1  0 0 0 0.5 0" type="matrix" in="shadowInnerInner1"></feColorMatrix>
        </filter>
        <path d="M36.1951998,44.8257126 C32.755072,45.069696 27.0105249,24.9485857 28.835968,20.248704 C31.1277005,14.3482891 32.755072,9.79776 34.714624,5.225472 C38.0515922,-2.56078714 41.899648,-8.8817842e-15 43.8592,8.491392 C44.2977655,10.3918424 47.12512,15.676416 41.899648,21.555072 C36.674176,27.433728 39.6353276,44.5817291 36.1951998,44.8257126 Z" id="path-29"></path>
        <filter x="-3.0%" y="-1.1%" width="106.0%" height="102.3%" filterUnits="objectBoundingBox" id="filter-30">
            <feOffset dx="1" dy="1" in="SourceAlpha" result="shadowOffsetInner1"></feOffset>
            <feComposite in="shadowOffsetInner1" in2="SourceAlpha" operator="arithmetic" k2="-1" k3="1" result="shadowInnerInner1"></feComposite>
            <feColorMatrix values="0 0 0 0 1   0 0 0 0 1   0 0 0 0 1  0 0 0 0.5 0" type="matrix" in="shadowInnerInner1"></feColorMatrix>
        </filter>
        <path d="M36.674176,43.763328 C36.3355339,38.8057884 36.4361188,35.4061212 36.9759307,33.5643264 C37.7192455,31.0281958 38.6088907,27.433728 39.9152587,25.474176 C42.6717109,21.3394976 50.3662027,20.248704 51.6725707,21.555072 C52.9146701,22.7971714 50.3662027,28.086912 45.7939147,32.006016 C44.6002856,33.0291266 41.0306528,35.087124 41.2216267,37.231488 C41.4393547,39.6762624 39.9235378,41.8535424 36.674176,43.763328 Z" id="path-31"></path>
        <filter x="-3.2%" y="-2.2%" width="106.4%" height="104.4%" filterUnits="objectBoundingBox" id="filter-32">
            <feOffset dx="1" dy="1" in="SourceAlpha" result="shadowOffsetInner1"></feOffset>
            <feComposite in="shadowOffsetInner1" in2="SourceAlpha" operator="arithmetic" k2="-1" k3="1" result="shadowInnerInner1"></feComposite>
            <feColorMatrix values="0 0 0 0 1   0 0 0 0 1   0 0 0 0 1  0 0 0 0.5 0" type="matrix" in="shadowInnerInner1"></feColorMatrix>
        </filter>
        <linearGradient x1="50%" y1="5.04609%" x2="50%" y2="100%" id="linearGradient-33">
            <stop stop-color="#FF8C89" offset="0%"></stop>
            <stop stop-color="#DA3A36" offset="100%"></stop>
        </linearGradient>
        <filter x="-129.4%" y="-140.4%" width="358.8%" height="380.9%" filterUnits="objectBoundingBox" id="filter-34">
            <feOffset dx="5" dy="17" in="SourceAlpha" result="shadowOffsetOuter1"></feOffset>
            <feGaussianBlur stdDeviation="8.5" in="shadowOffsetOuter1" result="shadowBlurOuter1"></feGaussianBlur>
            <feColorMatrix values="0 0 0 0 0.630944293   0 0 0 0 0.180891537   0 0 0 0 0.11911959  0 0 0 0.52458479 0" type="matrix" in="shadowBlurOuter1" result="shadowMatrixOuter1"></feColorMatrix>
            <feMerge>
                <feMergeNode in="shadowMatrixOuter1"></feMergeNode>
                <feMergeNode in="SourceGraphic"></feMergeNode>
            </feMerge>
        </filter>
        <linearGradient x1="59.8988727%" y1="58.2989763%" x2="100%" y2="58.2989763%" id="linearGradient-35">
            <stop stop-color="#FFF2DE" offset="0%"></stop>
            <stop stop-color="#FDABA1" offset="100%"></stop>
        </linearGradient>
        <linearGradient x1="56.3921446%" y1="50%" x2="72.3793551%" y2="60.0287271%" id="linearGradient-36">
            <stop stop-color="#FFA68C" offset="0%"></stop>
            <stop stop-color="#FF5F5F" offset="100%"></stop>
        </linearGradient>
        <ellipse id="path-37" cx="25.1286242" cy="5.94573343" rx="25.1286242" ry="5.58573343"></ellipse>
        <filter x="-1.0%" y="-4.5%" width="102.0%" height="109.0%" filterUnits="objectBoundingBox" id="filter-38">
            <feOffset dx="1" dy="1" in="SourceAlpha" result="shadowOffsetInner1"></feOffset>
            <feComposite in="shadowOffsetInner1" in2="SourceAlpha" operator="arithmetic" k2="-1" k3="1" result="shadowInnerInner1"></feComposite>
            <feColorMatrix values="0 0 0 0 1   0 0 0 0 1   0 0 0 0 1  0 0 0 1 0" type="matrix" in="shadowInnerInner1" result="shadowMatrixInner1"></feColorMatrix>
            <feOffset dx="0" dy="-1" in="SourceAlpha" result="shadowOffsetInner2"></feOffset>
            <feComposite in="shadowOffsetInner2" in2="SourceAlpha" operator="arithmetic" k2="-1" k3="1" result="shadowInnerInner2"></feComposite>
            <feColorMatrix values="0 0 0 0 0   0 0 0 0 0   0 0 0 0 0  0 0 0 0.052857299 0" type="matrix" in="shadowInnerInner2" result="shadowMatrixInner2"></feColorMatrix>
            <feMerge>
                <feMergeNode in="shadowMatrixInner1"></feMergeNode>
                <feMergeNode in="shadowMatrixInner2"></feMergeNode>
            </feMerge>
        </filter>
        <linearGradient x1="59.8988727%" y1="58.2989763%" x2="100%" y2="58.2989763%" id="linearGradient-39">
            <stop stop-color="#FFF2DE" offset="0%"></stop>
            <stop stop-color="#FDABA1" offset="100%"></stop>
        </linearGradient>
        <path d="M95.689433,29.3024786 C95.5533007,26.3075679 95.5533007,23.4487895 95.5533007,20.5900111 C95.5533007,18.2757619 93.7835807,16.506042 91.4693315,16.506042 C74.4527934,16.506042 61.5202245,11.605279 50.7657724,1.12309152 C49.1321847,-0.374363839 46.6818032,-0.374363839 45.0482156,1.12309152 C34.2937635,11.605279 21.3611945,16.506042 4.34465639,16.506042 C2.0304072,16.506042 0.260687239,18.2757619 0.260687239,20.5900111 C0.260687239,23.4487895 0.260687239,26.3075679 0.124554934,29.3024786 C-0.419974286,57.8902627 -1.23676812,97.0963665 46.5456709,113.568375 L47.906994,113.84064 L49.268317,113.568375 C96.9146237,97.0963665 96.2339622,58.026395 95.689433,29.3024786 Z" id="path-40"></path>
        <filter x="-1.0%" y="-0.9%" width="102.1%" height="101.8%" filterUnits="objectBoundingBox" id="filter-41">
            <feOffset dx="2" dy="2" in="SourceAlpha" result="shadowOffsetInner1"></feOffset>
            <feComposite in="shadowOffsetInner1" in2="SourceAlpha" operator="arithmetic" k2="-1" k3="1" result="shadowInnerInner1"></feComposite>
            <feColorMatrix values="0 0 0 0 1   0 0 0 0 1   0 0 0 0 1  0 0 0 1 0" type="matrix" in="shadowInnerInner1"></feColorMatrix>
        </filter>
        <linearGradient x1="50%" y1="23.0077632%" x2="64.424554%" y2="80.0372973%" id="linearGradient-42">
            <stop stop-color="#FFF2DE" offset="0%"></stop>
            <stop stop-color="#FF9B8F" offset="100%"></stop>
        </linearGradient>
        <path d="M48.3825311,2.23212939 C46.7489434,0.734674039 46.6818032,-0.374363839 45.0482156,1.12309152 C34.2937635,11.605279 21.3611945,16.506042 4.34465639,16.506042 C2.0304072,16.506042 0.260687239,18.2757619 0.260687239,20.5900111 C0.260687239,23.4487895 0.260687239,26.3075679 0.124554934,29.3024786 C-0.419974286,57.8902627 -1.23676812,97.0963665 46.5456709,113.568375 L47.906994,113.84064 L49.268317,113.568375 C50.38848,87.0224973 48.0052387,17.2144152 48.3825311,2.23212939 Z" id="path-43"></path>
        <filter x="-2.0%" y="-0.9%" width="104.0%" height="101.8%" filterUnits="objectBoundingBox" id="filter-44">
            <feOffset dx="2" dy="2" in="SourceAlpha" result="shadowOffsetInner1"></feOffset>
            <feComposite in="shadowOffsetInner1" in2="SourceAlpha" operator="arithmetic" k2="-1" k3="1" result="shadowInnerInner1"></feComposite>
            <feColorMatrix values="0 0 0 0 1   0 0 0 0 1   0 0 0 0 1  0 0 0 1 0" type="matrix" in="shadowInnerInner1"></feColorMatrix>
        </filter>
        <linearGradient x1="50%" y1="7.86006621%" x2="50%" y2="98.3233698%" id="linearGradient-45">
            <stop stop-color="#F27753" offset="0%"></stop>
            <stop stop-color="#E33030" offset="100%"></stop>
        </linearGradient>
        <linearGradient x1="59.8988727%" y1="58.2989763%" x2="100%" y2="58.2989763%" id="linearGradient-46">
            <stop stop-color="#FFF2DE" offset="0%"></stop>
            <stop stop-color="#FDABA1" offset="100%"></stop>
        </linearGradient>
        <path d="M371.102936,100.228803 L370.827142,100.130496 L369.749995,97.5592964 L369.866804,97.2951053 C373.129917,89.8944605 372.904923,89.6737001 372.363684,89.1371648 L368.011037,84.890978 C367.83308,84.7144324 367.520598,84.5902547 367.251233,84.5902547 C367.006327,84.5902547 366.264553,84.5902547 359.836006,87.501845 L359.578244,87.6175561 L356.925984,86.5495026 L356.819524,86.2854682 C353.796456,78.8 353.486795,78.8 352.734517,78.8 L346.587565,78.8 C345.838109,78.8 345.496777,78.8 342.693529,86.2984818 L342.588009,86.5714532 L339.949547,87.6470326 L339.697272,87.5421401 C335.346036,85.7076971 332.80541,84.777462 332.143129,84.777462 C331.874391,84.777462 331.560811,84.8980335 331.382071,85.0741087 L327.025347,89.3325251 C326.472662,89.8776839 326.243435,90.1059702 329.67745,97.3521768 L329.803666,97.6209149 L328.724794,100.189292 L328.460759,100.291362 C320.8,103.251871 320.8,103.540521 320.8,104.311615 L320.8,110.335173 C320.8,111.108304 320.8,111.42941 328.475968,114.180291 L328.750351,114.277187 L329.829379,116.838038 L329.713512,117.099721 C326.450398,124.503815 326.657361,124.704192 327.212868,125.25672 L331.55893,129.508708 C331.74112,129.683843 332.056425,129.808961 332.325319,129.808961 C332.568657,129.808961 333.308706,129.808961 339.741486,126.898782 L339.999092,126.778211 L342.653077,127.851595 L342.756245,128.11704 C345.781194,135.6 346.091952,135.6 346.844701,135.6 L352.993534,135.6 C353.765568,135.6 354.085733,135.6 356.891177,128.096501 L356.995756,127.823373 L359.638451,126.755006 L359.889942,126.857546 C364.237572,128.697163 366.776943,129.625517 367.434991,129.625517 C367.701377,129.625517 368.017779,129.508708 368.199499,129.328714 L372.563278,125.061047 C373.1122,124.513065 373.340956,124.289013 369.900827,117.049705 L369.772886,116.777831 L370.849877,114.220586 L371.107012,114.11977 C378.780002,111.143739 378.780002,110.853677 378.780002,110.081643 L378.780002,104.061691 C378.780002,103.288717 378.780002,102.969492 371.102936,100.228803 Z M349.789844,116.969115 C344.296236,116.969115 339.827094,112.585423 339.827094,107.201098 C339.827094,101.816615 344.296393,97.4387249 349.789844,97.4387249 C355.2811,97.4387249 359.749458,101.817556 359.749458,107.201098 C359.749458,112.584482 355.281257,116.969115 349.789844,116.969115 Z" id="path-47"></path>
        <filter x="-1.7%" y="-1.8%" width="103.4%" height="103.5%" filterUnits="objectBoundingBox" id="filter-48">
            <feOffset dx="2" dy="0" in="SourceAlpha" result="shadowOffsetInner1"></feOffset>
            <feComposite in="shadowOffsetInner1" in2="SourceAlpha" operator="arithmetic" k2="-1" k3="1" result="shadowInnerInner1"></feComposite>
            <feColorMatrix values="0 0 0 0 1   0 0 0 0 1   0 0 0 0 1  0 0 0 1 0" type="matrix" in="shadowInnerInner1"></feColorMatrix>
        </filter>
        <linearGradient x1="59.8988727%" y1="58.2989763%" x2="100%" y2="58.2989763%" id="linearGradient-49">
            <stop stop-color="#FFF2DE" offset="0%"></stop>
            <stop stop-color="#FDABA1" offset="100%"></stop>
        </linearGradient>
        <path d="M44.3408721,132.253121 L44.1466512,132.18389 L43.3880968,130.373186 L43.4703563,130.187136 C45.7683236,124.975415 45.6098773,124.81995 45.228723,124.442108 L42.1634785,121.451835 C42.0381569,121.327508 41.8180989,121.240059 41.6284051,121.240059 C41.4559361,121.240059 40.9335604,121.240059 36.4064147,123.290474 L36.2248916,123.371961 L34.3571031,122.619811 L34.282131,122.433871 C32.1532099,117.162414 31.9351393,117.162414 31.4053658,117.162414 L27.0765263,117.162414 C26.5487403,117.162414 26.3083657,117.162414 24.3342471,122.443035 L24.2599375,122.635269 L22.4018656,123.392719 L22.2242071,123.318851 C19.1599563,122.02699 17.3707836,121.371895 16.9043886,121.371895 C16.7151364,121.371895 16.4943054,121.456804 16.3684318,121.580801 L13.3003165,124.579686 C12.9111018,124.9636 12.7496744,125.124365 15.1679945,130.227328 L15.256879,130.41658 L14.49711,132.225296 L14.3111703,132.297176 C8.91626928,134.382042 8.91626928,134.585317 8.91626928,135.12834 L8.91626928,139.370283 C8.91626928,139.914741 8.91626928,140.140872 14.3218806,142.078112 L14.5151077,142.146349 L15.2749871,143.949765 L15.1933901,144.134049 C12.8954228,149.348199 13.0411713,149.48931 13.4323734,149.878415 L16.4929804,152.872772 C16.6212833,152.996107 16.8433288,153.084218 17.0326914,153.084218 C17.2040562,153.084218 17.7252174,153.084218 22.2553442,151.034796 L22.4367569,150.949887 L24.3057599,151.705791 L24.3784133,151.892725 C26.5086594,157.162414 26.727503,157.162414 27.2576077,157.162414 L31.5877722,157.162414 C32.131458,157.162414 32.3569265,157.162414 34.3325909,151.87826 L34.406238,151.685916 L36.2672912,150.933545 L36.4443976,151.005757 C39.5061089,152.301262 41.2943982,152.955032 41.757812,152.955032 C41.9454079,152.955032 42.1682264,152.872772 42.296198,152.746015 L45.369282,149.740616 C45.7558466,149.354714 45.9169428,149.19693 43.4943165,144.098826 L43.4042174,143.907366 L44.1626615,142.106489 L44.3437429,142.035492 C49.7472563,139.939695 49.7472563,139.735427 49.7472563,139.191741 L49.7472563,134.952338 C49.7472563,134.407989 49.7472563,134.183184 44.3408721,132.253121 Z M29.3316524,144.042073 C25.4629143,144.042073 22.3156311,140.954966 22.3156311,137.163187 C22.3156311,133.371298 25.4630247,130.288277 29.3316524,130.288277 C33.1987342,130.288277 36.3454653,133.371961 36.3454653,137.163187 C36.3454653,140.954303 33.1988446,144.042073 29.3316524,144.042073 Z" id="path-50"></path>
        <filter x="-2.4%" y="-2.5%" width="104.9%" height="105.0%" filterUnits="objectBoundingBox" id="filter-51">
            <feOffset dx="2" dy="0" in="SourceAlpha" result="shadowOffsetInner1"></feOffset>
            <feComposite in="shadowOffsetInner1" in2="SourceAlpha" operator="arithmetic" k2="-1" k3="1" result="shadowInnerInner1"></feComposite>
            <feColorMatrix values="0 0 0 0 1   0 0 0 0 1   0 0 0 0 1  0 0 0 1 0" type="matrix" in="shadowInnerInner1"></feColorMatrix>
        </filter>
        <linearGradient x1="59.8988727%" y1="58.2989763%" x2="100%" y2="58.2989763%" id="linearGradient-52">
            <stop stop-color="#FFF2DE" offset="0%"></stop>
            <stop stop-color="#FDABA1" offset="100%"></stop>
        </linearGradient>
        <path d="M223.24907,16.1738553 L223.136422,16.1337016 L222.69646,15.0834935 L222.74417,14.9755844 C224.076991,11.9527858 223.985093,11.8626161 223.764023,11.6434679 L221.986181,9.90910989 C221.913495,9.83699974 221.785861,9.78627928 221.675839,9.78627928 C221.575807,9.78627928 221.272829,9.78627928 218.647084,10.9755204 L218.541801,11.0227826 L217.458484,10.5865354 L217.415,10.4786904 C216.180226,7.42124566 216.053745,7.42124566 215.746476,7.42124566 L213.235749,7.42124566 C212.929633,7.42124566 212.790216,7.42124566 211.645227,10.4840058 L211.602128,10.5955012 L210.524446,11.0348223 L210.421404,10.9919789 C208.644138,10.2426994 207.606418,9.86274422 207.335909,9.86274422 C207.226143,9.86274422 207.098061,9.91199174 207.025054,9.98390977 L205.245547,11.723263 C205.019803,11.9459335 204.926175,12.0391771 206.328801,14.9988954 L206.380354,15.1086616 L205.939688,16.157717 L205.831843,16.1994077 C202.7028,17.4086296 202.7028,17.526529 202.7028,17.8414826 L202.7028,20.3018092 C202.7028,20.6175953 202.7028,20.7487513 205.838055,21.8723504 L205.950126,21.9119277 L206.390856,22.9579091 L206.34353,23.0647935 C205.010709,26.089001 205.095243,26.1708454 205.32214,26.3965258 L207.097292,28.1332533 C207.171708,28.2047871 207.300495,28.2558918 207.410325,28.2558918 C207.509716,28.2558918 207.81199,28.2558918 210.439463,27.0672271 L210.544683,27.0179796 L211.628705,27.4564042 L211.670844,27.5648256 C212.906386,30.6212457 213.033316,30.6212457 213.340776,30.6212457 L215.852272,30.6212457 C216.167609,30.6212457 216.298381,30.6212457 217.444267,27.5564362 L217.486982,27.4448768 L218.566393,27.0085015 L218.669114,27.0503843 C220.444907,27.8017772 221.482115,28.1809639 221.750895,28.1809639 C221.8597,28.1809639 221.988935,28.1332533 222.063159,28.0597343 L223.845547,26.3166027 C224.069755,26.0927794 224.163191,26.0012649 222.758067,23.0443645 L222.70581,22.9333174 L223.145707,21.8888089 L223.250735,21.8476305 C226.384772,20.6320686 226.384772,20.5135928 226.384772,20.1982549 L226.384772,17.7394013 C226.384772,17.4236792 226.384772,17.2932918 223.24907,16.1738553 Z M214.543722,23.0114474 C212.299854,23.0114474 210.47443,21.2209255 210.47443,19.0216939 C210.47443,16.8223984 212.299918,15.034246 214.543722,15.034246 C216.78663,15.034246 218.611734,16.8227826 218.611734,19.0216939 C218.611734,21.2205412 216.786694,23.0114474 214.543722,23.0114474 Z" id="path-53"></path>
        <filter x="-2.1%" y="-2.2%" width="104.2%" height="104.3%" filterUnits="objectBoundingBox" id="filter-54">
            <feOffset dx="1" dy="0" in="SourceAlpha" result="shadowOffsetInner1"></feOffset>
            <feComposite in="shadowOffsetInner1" in2="SourceAlpha" operator="arithmetic" k2="-1" k3="1" result="shadowInnerInner1"></feComposite>
            <feColorMatrix values="0 0 0 0 1   0 0 0 0 1   0 0 0 0 1  0 0 0 1 0" type="matrix" in="shadowInnerInner1"></feColorMatrix>
        </filter>
    </defs>
    <g id="Homepage" stroke="none" stroke-width="1" fill="none" fill-rule="evenodd">
        <g id="QB_Homepage" transform="translate(-208.000000, -1022.000000)">
            <g id="02-copy" transform="translate(198.000000, 979.000000)">
                <g id="Group-6">
                    <g id="Rectangle-7" transform="translate(1.000000, 43.000000)">
                        <g id="Illustration_01" transform="translate(0.200000, 0.200000)">
                            <ellipse id="Oval" fill="#E9E9E9" opacity="0.400000006" cx="202.7028" cy="216.869172" rx="187.25" ry="6.8"></ellipse>
                            <ellipse id="Oval-Copy-13" fill="#E9E9E9" opacity="0.450520833" cx="142.666846" cy="255.714257" rx="18.7788462" ry="2.268"></ellipse>
                            <ellipse id="Oval-Copy-12" fill="#E9E9E9" opacity="0.450520833" cx="35.7528" cy="231.015168" rx="20.2" ry="3.639168"></ellipse>
                            <g id="Group-5" transform="translate(12.729600, 0.069172)">
                                <mask id="mask-3" fill="white">
                                    <use xlink:href="#path-2"></use>
                                </mask>
                                <use id="Combined-Shape" fill="url(#linearGradient-1)" xlink:href="#path-2"></use>
                                <g id="Monitor-Copy" filter="url(#filter-4)" mask="url(#mask-3)">
                                    <g transform="translate(199.943200, 145.184075)">
                                        <g id="Rectangle" fill="none">
                                            <use fill="#F6BFAC" fill-rule="evenodd" xlink:href="#path-5"></use>
                                            <use fill="black" fill-opacity="1" filter="url(#filter-6)" xlink:href="#path-5"></use>
                                        </g>
                                        <g id="Rectangle-Copy-3" fill="none">
                                            <use fill="#FDDECD" fill-rule="evenodd" xlink:href="#path-7"></use>
                                            <use fill="black" fill-opacity="1" filter="url(#filter-8)" xlink:href="#path-7"></use>
                                        </g>
                                        <g id="Rectangle" fill="none">
                                            <use fill="#FDDECD" fill-rule="evenodd" xlink:href="#path-9"></use>
                                            <use fill="black" fill-opacity="1" filter="url(#filter-10)" xlink:href="#path-9"></use>
                                        </g>
                                        <path d="M45.1790864,55.7621707 C46.476368,55.7621707 45.1790864,52.8783992 46.9931872,53.2955655 C48.807288,53.7127317 46.1403435,49.9946277 44.644251,50.9466293 C43.1481585,51.8986309 41.3340577,50.6198604 41.3340577,51.917142 C41.3340577,53.2144237 43.8818048,55.7621707 45.1790864,55.7621707 Z" id="Oval" fill="#E36B6B" fill-rule="evenodd"></path>
                                        <rect id="Rectangle" fill="url(#linearGradient-11)" fill-rule="evenodd" x="4.32565721" y="5.28691436" width="80.2649726" height="42.7759435"></rect>
                                        <polygon id="Rectangle-Copy-4" fill="#FFFFFF" fill-rule="evenodd" opacity="0.172409784" points="4.32565721 5.28691436 84.5906298 5.28691436 4.32565721 48.0628578"></polygon>
                                    </g>
                                </g>
                                <g id="Plant-Pot" mask="url(#mask-3)">
                                    <g transform="translate(275.519200, 176.251828)">
                                        <g id="Path">
                                            <use fill="#404040" fill-rule="evenodd" xlink:href="#path-12"></use>
                                            <use fill="black" fill-opacity="1" filter="url(#filter-13)" xlink:href="#path-12"></use>
                                        </g>
                                        <g id="Path-Copy" transform="translate(30.495510, 32.136046) scale(-1, 1) translate(-30.495510, -32.136046) ">
                                            <use fill="#272727" fill-rule="evenodd" xlink:href="#path-14"></use>
                                            <use fill="black" fill-opacity="1" filter="url(#filter-15)" xlink:href="#path-14"></use>
                                        </g>
                                        <g id="Path-Copy-2" transform="translate(8.307710, 34.194208) scale(-1, 1) translate(-8.307710, -34.194208) ">
                                            <use fill="#272727" fill-rule="evenodd" xlink:href="#path-16"></use>
                                            <use fill="black" fill-opacity="1" filter="url(#filter-17)" xlink:href="#path-16"></use>
                                        </g>
                                    </g>
                                </g>
                            </g>
                            <g id="Group-28" transform="translate(94.446177, 64.309556) rotate(-11.000000) translate(-94.446177, -64.309556) translate(64.946177, 31.809556)">
                                <g id="Rectangle">
                                    <use fill="#F59B7C" fill-rule="evenodd" xlink:href="#path-18"></use>
                                    <use fill="black" fill-opacity="1" filter="url(#filter-19)" xlink:href="#path-18"></use>
                                </g>
                                <g id="Rectangle-9" transform="translate(0.000000, 45.408000)">
                                    <g id="Rectangle">
                                        <use fill="url(#linearGradient-20)" fill-rule="evenodd" xlink:href="#path-21"></use>
                                        <use fill="black" fill-opacity="1" filter="url(#filter-22)" xlink:href="#path-21"></use>
                                    </g>
                                    <path d="M22.551648,12.3439461 L22.551648,14.8639461 L4.071648,14.8639461 L4.071648,12.3439461 L22.551648,12.3439461 Z M29.67552,6.02099541 C31.4514027,6.02099541 32.89104,7.46063276 32.89104,9.23651541 C32.89104,11.0123981 31.4514027,12.4520354 29.67552,12.4520354 C27.8996373,12.4520354 26.46,11.0123981 26.46,9.23651541 C26.46,7.46063276 27.8996373,6.02099541 29.67552,6.02099541 Z M40.30656,6.02099541 C42.0824427,6.02099541 43.52208,7.46063276 43.52208,9.23651541 C43.52208,11.0123981 42.0824427,12.4520354 40.30656,12.4520354 C38.5306773,12.4520354 37.09104,11.0123981 37.09104,9.23651541 C37.09104,7.46063276 38.5306773,6.02099541 40.30656,6.02099541 Z M50.9376,6.02099541 C52.7134827,6.02099541 54.15312,7.46063276 54.15312,9.23651541 C54.15312,11.0123981 52.7134827,12.4520354 50.9376,12.4520354 C49.1617173,12.4520354 47.72208,11.0123981 47.72208,9.23651541 C47.72208,7.46063276 49.1617173,6.02099541 50.9376,6.02099541 Z M22.551648,7.97651541 L22.551648,10.4965154 L4.071648,10.4965154 L4.071648,7.97651541 L22.551648,7.97651541 Z M22.551648,3.60908469 L22.551648,6.12908469 L4.071648,6.12908469 L4.071648,3.60908469 L22.551648,3.60908469 Z" id="Combined-Shape" fill="#FFFFFF"></path>
                                </g>
                                <g id="Rectangle-9-Copy" transform="translate(0.000000, 22.704000)">
                                    <g id="Rectangle">
                                        <use fill="url(#linearGradient-20)" fill-rule="evenodd" xlink:href="#path-23"></use>
                                        <use fill="black" fill-opacity="1" filter="url(#filter-24)" xlink:href="#path-23"></use>
                                    </g>
                                    <path d="M22.551648,12.3439461 L22.551648,14.8639461 L4.071648,14.8639461 L4.071648,12.3439461 L22.551648,12.3439461 Z M29.67552,6.02099541 C31.4514027,6.02099541 32.89104,7.46063276 32.89104,9.23651541 C32.89104,11.0123981 31.4514027,12.4520354 29.67552,12.4520354 C27.8996373,12.4520354 26.46,11.0123981 26.46,9.23651541 C26.46,7.46063276 27.8996373,6.02099541 29.67552,6.02099541 Z M40.30656,6.02099541 C42.0824427,6.02099541 43.52208,7.46063276 43.52208,9.23651541 C43.52208,11.0123981 42.0824427,12.4520354 40.30656,12.4520354 C38.5306773,12.4520354 37.09104,11.0123981 37.09104,9.23651541 C37.09104,7.46063276 38.5306773,6.02099541 40.30656,6.02099541 Z M50.9376,6.02099541 C52.7134827,6.02099541 54.15312,7.46063276 54.15312,9.23651541 C54.15312,11.0123981 52.7134827,12.4520354 50.9376,12.4520354 C49.1617173,12.4520354 47.72208,11.0123981 47.72208,9.23651541 C47.72208,7.46063276 49.1617173,6.02099541 50.9376,6.02099541 Z M22.551648,7.97651541 L22.551648,10.4965154 L4.071648,10.4965154 L4.071648,7.97651541 L22.551648,7.97651541 Z M22.551648,3.60908469 L22.551648,6.12908469 L4.071648,6.12908469 L4.071648,3.60908469 L22.551648,3.60908469 Z" id="Combined-Shape" fill="#FFFFFF"></path>
                                </g>
                                <g id="Rectangle-9-Copy-2">
                                    <g id="Rectangle">
                                        <use fill="url(#linearGradient-20)" fill-rule="evenodd" xlink:href="#path-25"></use>
                                        <use fill="black" fill-opacity="1" filter="url(#filter-26)" xlink:href="#path-25"></use>
                                    </g>
                                    <path d="M22.551648,12.3439461 L22.551648,14.8639461 L4.071648,14.8639461 L4.071648,12.3439461 L22.551648,12.3439461 Z M29.67552,6.02099541 C31.4514027,6.02099541 32.89104,7.46063276 32.89104,9.23651541 C32.89104,11.0123981 31.4514027,12.4520354 29.67552,12.4520354 C27.8996373,12.4520354 26.46,11.0123981 26.46,9.23651541 C26.46,7.46063276 27.8996373,6.02099541 29.67552,6.02099541 Z M40.30656,6.02099541 C42.0824427,6.02099541 43.52208,7.46063276 43.52208,9.23651541 C43.52208,11.0123981 42.0824427,12.4520354 40.30656,12.4520354 C38.5306773,12.4520354 37.09104,11.0123981 37.09104,9.23651541 C37.09104,7.46063276 38.5306773,6.02099541 40.30656,6.02099541 Z M50.9376,6.02099541 C52.7134827,6.02099541 54.15312,7.46063276 54.15312,9.23651541 C54.15312,11.0123981 52.7134827,12.4520354 50.9376,12.4520354 C49.1617173,12.4520354 47.72208,11.0123981 47.72208,9.23651541 C47.72208,7.46063276 49.1617173,6.02099541 50.9376,6.02099541 Z M22.551648,7.97651541 L22.551648,10.4965154 L4.071648,10.4965154 L4.071648,7.97651541 L22.551648,7.97651541 Z M22.551648,3.60908469 L22.551648,6.12908469 L4.071648,6.12908469 L4.071648,3.60908469 L22.551648,3.60908469 Z" id="Combined-Shape" fill="#FFFFFF"></path>
                                </g>
                            </g>
                            <g id="Plant-Pot" transform="translate(0.354448, 175.287127)">
                                <g id="Path-Copy" transform="translate(21.748573, 30.563328) rotate(19.000000) translate(-21.748573, -30.563328) ">
                                    <use fill="#272727" fill-rule="evenodd" xlink:href="#path-27"></use>
                                    <use fill="black" fill-opacity="1" filter="url(#filter-28)" xlink:href="#path-27"></use>
                                </g>
                                <g id="Path">
                                    <use fill="#404040" fill-rule="evenodd" xlink:href="#path-29"></use>
                                    <use fill="black" fill-opacity="1" filter="url(#filter-30)" xlink:href="#path-29"></use>
                                </g>
                                <g id="Path-Copy-2">
                                    <use fill="#272727" fill-rule="evenodd" xlink:href="#path-31"></use>
                                    <use fill="black" fill-opacity="1" filter="url(#filter-32)" xlink:href="#path-31"></use>
                                </g>
                                <path d="M24.916864,37.231488 L45.165568,37.231488 L43.0195365,52.7902162 C42.7520638,54.7293936 41.0947262,56.173824 39.1371893,56.173824 L30.9452427,56.173824 C28.9877058,56.173824 27.3303682,54.7293936 27.0628955,52.7902162 L24.916864,37.231488 L24.916864,37.231488 Z" id="Rectangle" fill="url(#linearGradient-33)"></path>
                            </g>
                            <path id="Path-6" d="M224.582215,80.3606991 C224.390975,82.2902037 222.681083,83.8 220.6,83.8 C218.390861,83.8 216.6,82.098682 216.6,80 C216.6,77.901318 218.390861,76.2 220.6,76.2 C222.681441,76.2 224.391563,77.7103153 224.582313,79.6402959 L251.56,79.64 L251.560699,124.257785 C253.490204,124.449025 255,126.158917 255,128.24 C255,130.449139 253.298682,132.24 251.2,132.24 C249.101318,132.24 247.4,130.449139 247.4,128.24 C247.4,126.158559 248.910315,124.448437 250.840296,124.257687 L250.84,80.36 Z" fill="#FFFFFF" fill-rule="nonzero"></path>
                            <path id="Path-6-Copy" d="M224.582313,64.6692599 C224.391563,66.5992404 222.681441,68.1095557 220.6,68.1095557 C218.390861,68.1095557 216.6,66.4082378 216.6,64.3095557 C216.6,62.2108737 218.390861,60.5095557 220.6,60.5095557 C222.681083,60.5095557 224.390975,62.019352 224.582215,63.9488566 L266.32,63.9495557 L266.320699,124.407341 C268.250204,124.59858 269.76,126.308472 269.76,128.389556 C269.76,130.598695 268.058682,132.389556 265.96,132.389556 C263.861318,132.389556 262.16,130.598695 262.16,128.389556 C262.16,126.308115 263.670315,124.597993 265.600296,124.407242 L265.6,64.669 Z" fill="#FFFFFF" fill-rule="nonzero"></path>
                            <g id="Group-26" filter="url(#filter-34)" transform="translate(154.300000, 49.100000)">
                                <path d="M50.2572484,40.6914669 C50.2572484,43.7763822 39.0067801,46.2772003 25.1286242,46.2772003 C11.2504683,46.2772003 3.27133876e-12,43.7763822 3.27133876e-12,40.6914669 L3.27133876e-12,40.6914669 L3.27133876e-12,29.52 L50.2572484,29.52 Z" id="Combined-Shape-Copy-19" fill="url(#linearGradient-35)"></path>
                                <ellipse id="Oval-Copy-22" fill="#E07652" cx="25.1286242" cy="30.1172003" rx="25.1286242" ry="5.58573343"></ellipse>
                                <path d="M50.2572484,28.8114669 C50.2572484,31.8963822 39.0067801,34.3972003 25.1286242,34.3972003 C11.2504683,34.3972003 3.27133876e-12,31.8963822 3.27133876e-12,28.8114669 L3.27133876e-12,28.8114669 L3.27133876e-12,17.64 L50.2572484,17.64 Z" id="Combined-Shape-Copy-18" fill="url(#linearGradient-36)"></path>
                                <ellipse id="Oval-Copy-21" fill-opacity="0.132785184" fill="#000000" cx="25.1286242" cy="18.1172003" rx="25.1286242" ry="5.58573343"></ellipse>
                                <path d="M50.2572484,17.1172003 C50.2572484,20.2021157 39.0067801,22.7029337 25.1286242,22.7029337 C11.2504683,22.7029337 3.27133876e-12,20.2021157 3.27133876e-12,17.1172003 L3.27133876e-12,17.1172003 L3.27133876e-12,5.94573343 L50.2572484,5.94573343 Z" id="Combined-Shape" fill="url(#linearGradient-35)"></path>
                                <g id="Oval">
                                    <use fill="#FDDECD" fill-rule="evenodd" xlink:href="#path-37"></use>
                                    <use fill="black" fill-opacity="1" filter="url(#filter-38)" xlink:href="#path-37"></use>
                                </g>
                            </g>
                            <g id="Group-12" transform="translate(129.605471, 184.800707) rotate(-15.000000) translate(-129.605471, -184.800707) translate(81.605471, 127.800707)">
                                <g id="Path">
                                    <use fill="url(#linearGradient-39)" fill-rule="evenodd" xlink:href="#path-40"></use>
                                    <use fill="black" fill-opacity="1" filter="url(#filter-41)" xlink:href="#path-40"></use>
                                </g>
                                <g id="Path-Copy-3">
                                    <use fill-opacity="0.74" fill="url(#linearGradient-42)" fill-rule="evenodd" xlink:href="#path-43"></use>
                                    <use fill="black" fill-opacity="1" filter="url(#filter-44)" xlink:href="#path-43"></use>
                                </g>
                                <path d="M66.9985344,37.2916426 C68.8205645,35.4696125 71.7746591,35.4696125 73.5966892,37.2916426 C75.3635063,39.0584597 75.4170462,41.8897708 73.7573089,43.7211027 L73.5966892,43.8897974 L41.8706092,75.6158774 C40.1037921,77.3826945 37.272481,77.4362344 35.4411491,75.7764971 L35.2724544,75.6158774 L21.675563,62.018986 C19.8535328,60.1969558 19.8535328,57.2428613 21.675563,55.4208312 C23.4423801,53.6540141 26.2736912,53.6004742 28.105023,55.2602114 L28.2737178,55.4208312 L38.5714483,65.7187085 L66.9985344,37.2916426 Z" id="Path-2" fill="url(#linearGradient-45)"></path>
                            </g>
                            <g id="Shape" transform="translate(349.790001, 107.200000) rotate(11.000000) translate(-349.790001, -107.200000) ">
                                <use fill-opacity="0.74" fill="url(#linearGradient-46)" fill-rule="evenodd" xlink:href="#path-47"></use>
                                <use fill="black" fill-opacity="1" filter="url(#filter-48)" xlink:href="#path-47"></use>
                            </g>
                            <g id="Shape-Copy-5" transform="translate(29.331763, 137.162414) rotate(11.000000) translate(-29.331763, -137.162414) ">
                                <use fill-opacity="0.74" fill="url(#linearGradient-49)" fill-rule="evenodd" xlink:href="#path-50"></use>
                                <use fill="black" fill-opacity="1" filter="url(#filter-51)" xlink:href="#path-50"></use>
                            </g>
                            <g id="Shape-Copy">
                                <use fill-opacity="0.74" fill="url(#linearGradient-52)" fill-rule="evenodd" xlink:href="#path-53"></use>
                                <use fill="black" fill-opacity="1" filter="url(#filter-54)" xlink:href="#path-53"></use>
                            </g>
                        </g>
                    </g>
                </g>
            </g>
        </g>
    </g>
</svg>