<?xml version="1.0" encoding="utf-8"?>
<!-- Generator: Adobe Illustrator 24.2.1, SVG Export Plug-In . SVG Version: 6.00 Build 0)  -->
<svg version="1.1" id="Layer_1" xmlns="http://www.w3.org/2000/svg" xmlns:xlink="http://www.w3.org/1999/xlink" x="0px" y="0px"
	 viewBox="0 0 256 192" style="enable-background:new 0 0 256 192;" xml:space="preserve">
<style type="text/css">
	.st0{fill:#0080FF;}
</style>
<g>
	<path class="st0" d="M128.4,101.1v21c41.3,0,73.4-34.5,59.9-71.8C182.4,34,167.5,21,148.5,15.9C105.3,4.3,65.5,32,65.5,67.7h24.4
		l0,0c0-22.4,25.6-39.7,52.8-31.2c10,3.2,18.1,10.1,21.8,18.8C174.4,78.9,154.4,101,128.4,101.1l0.1-21l0,0h-24.3l0,0v21
		C104.2,101.1,128.4,101.1,128.4,101.1z M104.2,117.3H85.5l0,0v-16.2h18.7V117.3L104.2,117.3z M85.5,101.1H69.8l0,0V87.6l0,0h15.7
		l0,0C85.5,87.6,85.5,101.1,85.5,101.1z"/>
	<path class="st0" d="M24.3,143.5c-3.2-1.9-7.1-2.9-11.7-2.9h-10v27.5h10c4.6,0,8.6-1,11.7-3c1.8-1,3.1-2.6,4-4.4s1.5-4.1,1.5-6.5
		c0-2.5-0.5-4.6-1.5-6.4C27.4,146,26.1,144.5,24.3,143.5z M8.4,145.3h3.2c3.5,0,6.4,0.6,8.6,1.8c2.5,1.3,3.6,3.7,3.6,7.2
		c0,3.6-1.3,6.1-3.6,7.5l0,0c-2.1,1.2-4.9,1.8-8.6,1.8H8.4V145.3z M33.9,168.2h5.6v-19.4h-5.6V168.2z M36.8,140.3
		c-1,0-1.8,0.3-2.5,0.9s-1,1.3-1,2.1c0,0.9,0.3,1.5,1,2.1c0.7,0.6,1.5,0.9,2.5,0.9c1,0,1.8-0.3,2.5-0.9c0.7-0.6,1-1.3,1-2.1
		c0-0.9-0.3-1.5-1-2.1C38.6,140.6,37.7,140.3,36.8,140.3z M60.1,150.4c-1.7-1.3-3.6-2-5.6-2c-3.2,0-5.7,0.9-7.7,2.7
		c-2,1.8-3.1,4.2-3.1,7c0,2.7,1,5.1,3,7c2,1.8,4.6,2.7,7.8,2.7c2.2,0,4-0.5,5.6-1.5v0.4c0,1.6-0.5,2.9-1.5,3.7c-1,0.9-2.4,1.3-4,1.3
		c-2.6,0-4.2-0.9-6.2-3.2l-3.8,3.2l0.1,0.1c0.8,1,2.1,2,3.7,2.9s3.7,1.4,6.3,1.4c3.3,0,6.1-0.9,8.1-2.6c2-1.8,3.1-4.2,3.1-7.1v-17.6
		h-5.5v1.7H60.1z M58.6,161.8c-1,0.9-2.3,1.4-3.8,1.4c-1.6,0-2.9-0.5-3.8-1.4c-1-0.9-1.5-2.2-1.5-3.8s0.5-2.9,1.5-3.8
		c1-0.9,2.3-1.4,3.8-1.4c1.6,0,2.9,0.5,3.8,1.4c1,0.9,1.5,2.3,1.5,3.8C60.1,159.6,59.6,160.9,58.6,161.8z M70.4,168.2H76v-19.4h-5.6
		V168.2z M73.3,140.3c-1,0-1.8,0.3-2.5,0.9c-0.7,0.6-1,1.3-1,2.1c0,0.9,0.3,1.5,1,2.1c0.7,0.6,1.5,0.9,2.5,0.9s1.8-0.3,2.5-0.9
		c0.7-0.6,1-1.3,1-2.1c0-0.9-0.3-1.5-1-2.1C75.1,140.6,74.3,140.3,73.3,140.3z M88.4,143.5h-5.5v5.3h-3.3v4.4h3.3v8.1
		c0,2.6,0.6,4.3,1.8,5.4c1.2,1,3.2,1.5,6.1,1.5c0.9,0,1.9,0,2.8-0.1h0.3v-4.4l-2,0.1c-1.4,0-2.3-0.2-2.7-0.6
		c-0.4-0.4-0.7-1.3-0.7-2.6v-7.3h5.2v-4.4h-5.2L88.4,143.5L88.4,143.5z M113.1,150.2L113.1,150.2c-1.7-1.3-4-1.9-7-1.9
		c-1.9,0-3.6,0.3-5.2,1c-1.5,0.7-3,1.7-3.8,3.1l0.1,0.1l3.6,3c1.5-2,3.2-2.7,5.3-2.7c1.2,0,2.2,0.3,3,0.9c0.8,0.5,1.1,1.2,1.1,2v0.9
		c-1.4-0.3-2.8-0.6-4.1-0.6c-2.9,0-5.1,0.6-6.8,1.7c-1.7,1.1-2.6,2.8-2.6,4.9c0,1.8,0.7,3.3,2.2,4.4c1.5,1,3.3,1.6,5.4,1.6
		c2.2,0,4.1-0.8,6-2v1.6h5.5v-12.4C115.6,153.4,114.9,151.5,113.1,150.2z M103,160.8c0.6-0.4,1.6-0.6,2.7-0.6c1.4,0,2.8,0.3,4.2,0.7
		v1.9c-1.2,1-2.9,1.4-4.8,1.4c-1,0-1.8-0.2-2.3-0.6c-0.5-0.3-0.8-0.9-0.8-1.4C102.1,161.6,102.4,161.1,103,160.8z M120.2,168.2h5.6
		v-27.5h-5.6V168.2z M146.3,168.5c-9.1,0-16.5-6.4-16.5-14.2c0-7.8,7.4-14.2,16.5-14.2s16.5,6.4,16.5,14.2
		C162.7,162.2,155.3,168.5,146.3,168.5z M146.3,145.2c-5.9,0-10.6,4.1-10.6,9.2c0,5.1,4.7,9.2,10.6,9.2s10.6-4.1,10.6-9.2
		C156.9,149.3,152.2,145.2,146.3,145.2z M182.8,161.2c-1,0.9-2.1,1.8-2.9,2.3l0,0c-0.8,0.4-1.8,0.7-3,0.7c-1.7,0-3-0.5-4.1-1.6
		c-1.1-1.1-1.7-2.5-1.7-4.1c0-1.6,0.6-3.1,1.6-4.1c1.1-1.1,2.4-1.6,4-1.6c1.8,0,3.7,0.9,5.4,2.6l3.7-3.1c-2.5-2.7-5.5-4-9.3-4
		c-3.1,0-5.8,0.9-8,2.9c-2.2,1.9-3.3,4.3-3.3,7.2s1.1,5.4,3.3,7.2c2.2,2,4.8,2.9,8,2.9c4,0,7.4-1.5,9.7-4.3L182.8,161.2z M206,151.5
		c-0.8-0.9-1.9-1.7-3.3-2.3c-1.4-0.6-3-0.9-4.6-0.9c-3.2,0-5.7,1-7.7,3c-1.9,2-2.9,4.4-2.9,7.2c0,3,1.1,5.4,3.2,7.2
		c2.1,1.9,4.8,2.8,8.2,2.8c3.8,0,6.9-1.4,9.3-3.9l0.1-0.2l-3.6-3.1c-0.3,0.3-0.8,0.8-1.3,1.1c-0.6,0.4-1.1,0.8-1.7,1
		c-0.9,0.3-1.8,0.5-2.9,0.5c-1.6,0-2.9-0.4-3.8-1.2c-0.9-0.8-1.5-1.7-1.6-3h15l0.1-1.8c0-1.3-0.2-2.5-0.6-3.6
		C207.4,153.5,206.8,152.5,206,151.5z M193.7,156c0.3-0.9,0.8-1.7,1.5-2.3c0.8-0.7,1.8-1,3-1c1.4,0,2.5,0.3,3.2,1
		c0.7,0.6,1.1,1.4,1.1,2.3H193.7z M227.7,150.2L227.7,150.2c-1.7-1.3-4-1.9-7-1.9c-1.9,0-3.6,0.3-5.2,1c-1.5,0.7-3,1.7-3.8,3.1
		l0.1,0.1l3.6,3c1.5-2,3.2-2.7,5.3-2.7c1.2,0,2.2,0.3,3,0.9c0.8,0.5,1.1,1.2,1.1,2v0.9c-1.4-0.3-2.8-0.6-4.1-0.6
		c-2.9,0-5.1,0.6-6.8,1.7c-1.7,1.1-2.6,2.8-2.6,4.9c0,1.8,0.7,3.3,2.2,4.4c1.5,1,3.3,1.6,5.4,1.6c2.2,0,4.1-0.8,6-2v1.6h5.5v-12.4
		C230.3,153.4,229.4,151.5,227.7,150.2z M217.7,160.8c0.6-0.4,1.6-0.6,2.7-0.6c1.4,0,2.8,0.3,4.2,0.7v1.9c-1.2,1-2.9,1.4-4.8,1.4
		c-1,0-1.8-0.2-2.3-0.6c-0.5-0.3-0.8-0.9-0.8-1.4C216.7,161.6,217,161.1,217.7,160.8z M252,150.6c-1.6-1.5-3.7-2.3-6.6-2.3
		c-2.3,0-4,0.6-5.4,1.6v-1.2h-5.5v19.4h5.6v-10.7c0-1.4,0.4-2.6,1.2-3.5s1.9-1.2,3.3-1.2c1.3,0,2.3,0.3,3,1.1
		c0.7,0.8,1.1,1.8,1.1,3.1v11.2h5.6V157C254.4,154.2,253.6,152.1,252,150.6z"/>
</g>
</svg>
