<?xml version="1.0" encoding="utf-8"?>
<!-- Generator: Adobe Illustrator 24.2.1, SVG Export Plug-In . SVG Version: 6.00 Build 0)  -->
<svg version="1.1" id="Layer_1" xmlns="http://www.w3.org/2000/svg" xmlns:xlink="http://www.w3.org/1999/xlink" x="0px" y="0px"
	 viewBox="0 0 256 192" style="enable-background:new 0 0 256 192;" xml:space="preserve">
<style type="text/css">
	.st0{fill:#0080FF;}
</style>
<g>
	<path class="st0" d="M127.8,103.4v24.7c41.9,0,74.5-40.5,60.8-84.3c-6-19.2-21.2-34.4-40.4-40.4c-43.9-13.7-84.3,18.9-84.3,60.8
		h24.8c0,0,0,0,0,0c0-26.3,26-46.6,53.6-36.6c10.2,3.7,18.4,11.9,22.1,22.1C174.4,77.3,154.1,103.3,127.8,103.4l0.1-24.7
		c0,0,0,0,0,0h-24.7c0,0,0,0,0,0v24.7H127.8z M103.2,122.4h-19l0,0v-19h19L103.2,122.4C103.2,122.4,103.2,122.4,103.2,122.4z
		 M84.2,103.4H68.3c0,0,0,0,0,0V87.5c0,0,0,0,0,0h15.9c0,0,0,0,0,0V103.4z"/>
	<path class="st0" d="M22.1,153.2c-3.2-2.2-7.2-3.4-11.9-3.4H0v32.3h10.2c4.7,0,8.7-1.2,11.9-3.5c1.8-1.2,3.1-3,4.1-5.2
		c1-2.2,1.5-4.8,1.5-7.6c0-2.9-0.5-5.4-1.5-7.5C25.2,156.1,23.9,154.4,22.1,153.2z M6,155.3h3.2c3.6,0,6.5,0.7,8.7,2.1
		c2.5,1.5,3.7,4.3,3.7,8.4c0,4.2-1.3,7.2-3.7,8.8h0c-2.1,1.4-5,2.1-8.7,2.1H6V155.3z M31.8,182.2h5.7v-22.8h-5.7V182.2z M34.8,149.4
		c-1,0-1.8,0.3-2.5,1c-0.7,0.7-1,1.5-1,2.5c0,1,0.3,1.8,1,2.5c0.7,0.7,1.5,1,2.5,1s1.8-0.3,2.5-1c0.7-0.7,1-1.5,1-2.5
		c0-1-0.3-1.8-1-2.5C36.6,149.8,35.7,149.4,34.8,149.4z M58.4,161.3c-1.7-1.5-3.7-2.4-5.7-2.4c-3.2,0-5.8,1.1-7.8,3.2
		c-2,2.1-3.1,4.9-3.1,8.2c0,3.2,1,6,3,8.2c2,2.1,4.7,3.2,7.9,3.2c2.2,0,4.1-0.6,5.7-1.8v0.5c0,1.9-0.5,3.4-1.5,4.4
		c-1,1-2.4,1.5-4.1,1.5c-2.6,0-4.3-1-6.3-3.8l-3.9,3.7l0.1,0.1c0.8,1.2,2.1,2.3,3.8,3.4c1.7,1.1,3.8,1.7,6.4,1.7
		c3.4,0,6.2-1,8.2-3.1c2-2.1,3.1-4.9,3.1-8.3v-20.7h-5.6V161.3z M56.9,174.7c-1,1.1-2.3,1.7-3.9,1.7c-1.6,0-2.9-0.6-3.9-1.7
		c-1-1.1-1.5-2.6-1.5-4.5c0-1.9,0.5-3.4,1.5-4.5c1-1.1,2.3-1.7,3.9-1.7c1.6,0,2.9,0.6,3.9,1.7c1,1.1,1.5,2.7,1.5,4.5
		C58.4,172.1,57.9,173.6,56.9,174.7z M68.9,182.2h5.7v-22.8h-5.7V182.2z M71.8,149.4c-1,0-1.8,0.3-2.5,1c-0.7,0.7-1,1.5-1,2.5
		c0,1,0.3,1.8,1,2.5c0.7,0.7,1.5,1,2.5,1c1,0,1.8-0.3,2.5-1c0.7-0.7,1-1.5,1-2.5c0-1-0.3-1.8-1-2.5
		C73.7,149.8,72.8,149.4,71.8,149.4z M87.2,153.2h-5.6v6.2h-3.3v5.2h3.3v9.5c0,3,0.6,5.1,1.8,6.3c1.2,1.2,3.2,1.8,6.2,1.8
		c0.9,0,1.9,0,2.8-0.1l0.3,0v-5.2l-2,0.1c-1.4,0-2.3-0.2-2.7-0.7c-0.4-0.5-0.7-1.5-0.7-3v-8.6h5.3v-5.2h-5.3V153.2z M112.2,161.1
		L112.2,161.1c-1.7-1.5-4.1-2.2-7.1-2.2c-1.9,0-3.7,0.4-5.3,1.2c-1.5,0.8-3,2-3.9,3.6l0.1,0.1l3.7,3.5c1.5-2.4,3.2-3.2,5.4-3.2
		c1.2,0,2.2,0.3,3,1c0.8,0.6,1.1,1.4,1.1,2.4v1.1c-1.4-0.4-2.8-0.7-4.2-0.7c-2.9,0-5.2,0.7-6.9,2c-1.7,1.3-2.6,3.3-2.6,5.7
		c0,2.1,0.7,3.9,2.2,5.2c1.5,1.2,3.4,1.9,5.5,1.9c2.2,0,4.2-0.9,6.1-2.4v1.9h5.6v-14.6C114.8,164.8,114,162.6,112.2,161.1z
		 M102,173.5c0.6-0.5,1.6-0.7,2.7-0.7c1.4,0,2.8,0.3,4.3,0.8v2.2c-1.2,1.2-2.9,1.7-4.9,1.7c-1,0-1.8-0.2-2.3-0.7
		c-0.5-0.4-0.8-1-0.8-1.7C101.1,174.5,101.4,173.9,102,173.5z M119.4,182.2h5.7v-32.3h-5.7V182.2z M145.9,182.6
		c-9.2,0-16.7-7.5-16.7-16.7c0-9.2,7.5-16.7,16.7-16.7c9.2,0,16.7,7.5,16.7,16.7C162.6,175.2,155.1,182.6,145.9,182.6z M145.9,155.2
		c-6,0-10.8,4.8-10.8,10.8c0,6,4.8,10.8,10.8,10.8s10.8-4.8,10.8-10.8C156.7,160,151.9,155.2,145.9,155.2z M183,174
		c-1,1.1-2.1,2.1-2.9,2.7v0c-0.8,0.5-1.8,0.8-3,0.8c-1.7,0-3-0.6-4.2-1.9c-1.1-1.3-1.7-2.9-1.7-4.8c0-1.9,0.6-3.6,1.6-4.8
		c1.1-1.3,2.4-1.9,4.1-1.9c1.8,0,3.8,1.1,5.5,3.1l3.8-3.6c-2.5-3.2-5.6-4.7-9.4-4.7c-3.1,0-5.9,1.1-8.1,3.4
		c-2.2,2.2-3.3,5.1-3.3,8.5c0,3.4,1.1,6.3,3.3,8.5c2.2,2.3,4.9,3.4,8.1,3.4c4.1,0,7.5-1.8,9.8-5.1L183,174z M206.5,162.6
		c-0.8-1.1-1.9-2-3.3-2.7c-1.4-0.7-3-1-4.7-1c-3.2,0-5.8,1.2-7.8,3.5c-1.9,2.3-2.9,5.2-2.9,8.5c0,3.5,1.1,6.3,3.2,8.5
		c2.1,2.2,4.9,3.3,8.3,3.3c3.9,0,7-1.6,9.4-4.6l0.1-0.2l-3.7-3.6c-0.3,0.4-0.8,0.9-1.3,1.3c-0.6,0.5-1.1,0.9-1.7,1.2
		c-0.9,0.4-1.8,0.6-2.9,0.6c-1.6,0-2.9-0.5-3.9-1.4c-0.9-0.9-1.5-2-1.6-3.5h15.2l0.1-2.1c0-1.5-0.2-2.9-0.6-4.2
		C207.9,164.9,207.3,163.7,206.5,162.6z M194,167.9c0.3-1.1,0.8-2,1.5-2.7c0.8-0.8,1.8-1.2,3-1.2c1.4,0,2.5,0.4,3.2,1.2
		c0.7,0.7,1.1,1.6,1.1,2.7H194z M228.5,161.1L228.5,161.1c-1.7-1.5-4.1-2.2-7.1-2.2c-1.9,0-3.7,0.4-5.3,1.2c-1.5,0.8-3,2-3.9,3.6
		l0.1,0.1l3.7,3.5c1.5-2.4,3.2-3.2,5.4-3.2c1.2,0,2.2,0.3,3,1c0.8,0.6,1.1,1.4,1.1,2.4v1.1c-1.4-0.4-2.8-0.7-4.2-0.7
		c-2.9,0-5.2,0.7-6.9,2c-1.7,1.3-2.6,3.3-2.6,5.7c0,2.1,0.7,3.9,2.2,5.2c1.5,1.2,3.4,1.9,5.5,1.9c2.2,0,4.2-0.9,6.1-2.4v1.9h5.6
		v-14.6C231.2,164.8,230.3,162.6,228.5,161.1z M218.4,173.5c0.6-0.5,1.6-0.7,2.7-0.7c1.4,0,2.8,0.3,4.3,0.8v2.2
		c-1.2,1.2-2.9,1.7-4.9,1.7c-1,0-1.8-0.2-2.3-0.7c-0.5-0.4-0.8-1-0.8-1.7C217.4,174.5,217.7,173.9,218.4,173.5z M253.2,161.5
		c-1.6-1.8-3.8-2.7-6.7-2.7c-2.3,0-4.1,0.7-5.5,1.9v-1.4h-5.6v22.8h5.7v-12.6c0-1.7,0.4-3.1,1.2-4.1c0.8-1,1.9-1.4,3.4-1.4
		c1.3,0,2.3,0.4,3,1.3c0.7,0.9,1.1,2.1,1.1,3.6v13.2h5.7V169C255.6,165.8,254.8,163.3,253.2,161.5z"/>
</g>
</svg>
