<?xml version="1.0" encoding="utf-8"?>
<!-- Generator: Adobe Illustrator 24.2.1, SVG Export Plug-In . SVG Version: 6.00 Build 0)  -->
<svg version="1.1" id="Layer_1" xmlns="http://www.w3.org/2000/svg" xmlns:xlink="http://www.w3.org/1999/xlink" x="0px" y="0px"
	 viewBox="0 0 111.5 52.8" style="enable-background:new 0 0 111.5 52.8;" xml:space="preserve">
<style type="text/css">
	.st0{fill:#EA4335;}
	.st1{fill:#4285F4;}
	.st2{fill:#34A853;}
	.st3{fill:#FBBC05;}
	.st4{fill:#5F6368;}
</style>
<path class="st0" d="M60.6,7.9l1.1,0l3.1-3.1L65,3.5C62.6,1.3,59.3,0,55.8,0c-6.4,0-11.9,4.4-13.5,10.3c0.3-0.2,1.1-0.1,1.1-0.1
	l6.2-1c0,0,0.3-0.5,0.5-0.5C52.8,5.7,57.5,5.4,60.6,7.9L60.6,7.9z"/>
<path class="st1" d="M69.3,10.3c-0.7-2.6-2.2-5-4.2-6.8l-4.4,4.4c1.8,1.5,2.9,3.7,2.9,6v0.8c2.1,0,3.9,1.7,3.9,3.9
	c0,2.1-1.7,3.9-3.9,3.9h-7.8L55,23.3v4.7l0.8,0.8h7.8c5.6,0,10.1-4.5,10.1-10.1C73.6,15.2,71.9,12.2,69.3,10.3L69.3,10.3z"/>
<path class="st2" d="M48,28.7h7.8v-6.2H48c-0.6,0-1.1-0.1-1.6-0.3l-1.1,0.3l-3.1,3.1l-0.3,1C43.7,28,45.8,28.7,48,28.7L48,28.7z"/>
<path class="st3" d="M48,8.5c-5.6,0-10.1,4.5-10.1,10.1c0,3.2,1.5,6.1,4,8l4.5-4.5c-1.4-0.6-2.3-2-2.3-3.5c0-2.1,1.7-3.9,3.9-3.9
	c1.5,0,2.9,0.9,3.5,2.3l4.5-4.5C54.2,10.1,51.3,8.5,48,8.5L48,8.5z"/>
<path class="st4" d="M7.8,48.3c-2.1,0-3.9-0.8-5.5-2.3S0,42.8,0,40.6s0.8-3.9,2.3-5.4S5.7,33,7.8,33c2,0,3.9,0.7,5.2,2.1l-1.5,1.5
	c-1-1-2.4-1.5-3.8-1.5c-1.5,0-2.8,0.5-3.9,1.6c-1,1-1.6,2.5-1.6,3.9c0,1.5,0.5,2.9,1.6,3.9c1,1.1,2.4,1.7,3.9,1.6
	c1.6,0,2.8-0.5,3.9-1.5c0.6-0.6,1-1.5,1.1-2.6h-5V40h7c0.1,0.4,0.1,0.8,0.1,1.3c0,2.1-0.6,3.7-1.8,4.9C11.7,47.6,10,48.3,7.8,48.3
	L7.8,48.3z M24.1,46.9c-1,0.9-2.1,1.4-3.5,1.4s-2.6-0.5-3.5-1.4s-1.4-2.1-1.4-3.5s0.5-2.6,1.4-3.5s2.1-1.4,3.5-1.4s2.6,0.5,3.5,1.4
	s1.4,2.1,1.4,3.5S25.1,46,24.1,46.9z M18.7,45.5c0.5,0.5,1.2,0.9,2,0.8c0.8,0,1.4-0.3,2-0.8s0.8-1.3,0.8-2.1c0-0.9-0.3-1.6-0.8-2.2
	s-1.2-0.8-2-0.8c-0.7,0-1.5,0.3-2,0.8c-0.5,0.6-0.8,1.3-0.8,2.2C17.8,44.2,18.1,45,18.7,45.5L18.7,45.5z M34.9,46.9
	c-1,0.9-2.1,1.4-3.5,1.4c-1.4,0-2.6-0.5-3.5-1.4s-1.4-2.1-1.4-3.5s0.5-2.6,1.4-3.5s2.1-1.4,3.5-1.4c1.4,0,2.6,0.5,3.5,1.4
	s1.4,2.1,1.4,3.5S35.9,46,34.9,46.9z M29.5,45.5c0.5,0.5,1.2,0.9,2,0.8c0.8,0,1.4-0.3,2-0.8c0.5-0.6,0.8-1.3,0.8-2.1
	c0-0.9-0.3-1.6-0.8-2.2s-1.2-0.8-2-0.8c-0.7,0-1.5,0.3-2,0.8c-0.5,0.6-0.8,1.3-0.8,2.2C28.6,44.2,28.9,45,29.5,45.5L29.5,45.5z
	 M42,52.7c-1.1,0-2-0.3-2.8-0.9s-1.3-1.3-1.6-2l1.9-0.8c0.2,0.5,0.5,0.9,0.9,1.2s0.9,0.5,1.6,0.5c0.8,0,1.5-0.3,1.9-0.7
	c0.5-0.5,0.7-1.2,0.7-2.2v-0.7h-0.1c-0.6,0.7-1.5,1.1-2.6,1.1c-1.3,0-2.4-0.5-3.3-1.4c-0.9-0.9-1.4-2.2-1.4-3.5
	c0-1.3,0.5-2.6,1.4-3.5c0.9-1,2-1.4,3.3-1.4c0.6,0,1.1,0.1,1.5,0.3c0.5,0.2,0.8,0.5,1.1,0.8h0.1v-0.8h2.1v8.9c0,1.7-0.4,3-1.3,3.9
	C44.5,52.3,43.4,52.8,42,52.7L42,52.7z M42.2,46.4c0.7,0,1.4-0.3,1.9-0.8c0.5-0.6,0.8-1.3,0.8-2.1c0-0.9-0.3-1.6-0.8-2.2
	c-0.5-0.6-1.2-0.9-1.9-0.9c-0.8,0-1.4,0.3-1.9,0.9c-0.5,0.6-0.8,1.3-0.8,2.2c0,0.8,0.3,1.6,0.8,2.1S41.4,46.4,42.2,46.4L42.2,46.4z
	 M50.4,33.5V48h-2.2V33.5H50.4z M56.3,48.3c-1.4,0-2.6-0.5-3.5-1.4s-1.4-2.1-1.4-3.5c0-1.4,0.5-2.6,1.4-3.5c0.9-0.9,2.1-1.4,3.3-1.4
	c0.6,0,1.2,0.1,1.7,0.3c0.5,0.2,0.9,0.5,1.3,0.8c0.3,0.3,0.6,0.6,0.8,1c0.2,0.3,0.4,0.6,0.5,1l0.2,0.6l-6.6,2.7
	c0.5,1,1.3,1.5,2.4,1.5c1,0,1.8-0.5,2.4-1.4l1.7,1.1c-0.4,0.6-0.9,1.1-1.6,1.5C58.2,48.1,57.3,48.3,56.3,48.3L56.3,48.3z M53.6,43.2
	l4.4-1.8c-0.1-0.3-0.4-0.6-0.7-0.8c-0.3-0.2-0.7-0.3-1.1-0.3c-0.6,0-1.2,0.3-1.8,0.8S53.5,42.4,53.6,43.2L53.6,43.2z M71.9,48.3
	c-2,0-3.6-0.7-5-2s-2-3-2-5s0.7-3.7,2-5s3-2,5-2c2,0,3.7,0.7,4.9,2.2l-1.2,1.2c-0.9-1.1-2.2-1.7-3.7-1.7c-1.5,0-2.7,0.5-3.7,1.5
	s-1.5,2.3-1.5,3.9s0.5,2.9,1.5,3.9s2.2,1.5,3.7,1.5c1.6,0,3-0.6,4.1-1.9l1.2,1.2c-0.6,0.7-1.4,1.3-2.3,1.7
	C74,48.1,72.9,48.3,71.9,48.3L71.9,48.3z M80.5,48h-1.7V34.6h1.7V48z M83.3,39.9c0.9-0.9,2-1.4,3.4-1.4s2.5,0.5,3.4,1.4
	s1.3,2.1,1.3,3.5S90.9,46,90,46.9s-2,1.4-3.4,1.4s-2.5-0.5-3.4-1.4s-1.3-2.1-1.3-3.5S82.4,40.9,83.3,39.9z M84.6,45.8
	c0.6,0.6,1.3,0.9,2.1,0.9s1.5-0.3,2.1-0.9s0.9-1.4,0.9-2.4s-0.3-1.8-0.9-2.4s-1.3-0.9-2.1-0.9s-1.5,0.3-2.1,0.9s-0.9,1.4-0.9,2.4
	S84,45.2,84.6,45.8z M100.9,48h-1.6v-1.3h-0.1c-0.3,0.4-0.7,0.8-1.2,1.1s-1.1,0.5-1.7,0.5c-1.1,0-2-0.3-2.6-1s-0.9-1.6-0.9-2.8v-5.6
	h1.7v5.3c0,1.7,0.8,2.6,2.3,2.6c0.7,0,1.3-0.3,1.7-0.9c0.4-0.6,0.7-1.3,0.7-2v-5h1.7L100.9,48L100.9,48z M106.7,48.3
	c-1.2,0-2.2-0.5-3.1-1.4s-1.3-2.1-1.3-3.5s0.4-2.5,1.3-3.5s1.9-1.4,3.1-1.4c0.7,0,1.3,0.2,1.9,0.4s1,0.7,1.2,1.1h0.1l-0.1-1.3v-4.2
	h1.7V48h-1.6v-1.3h-0.1c-0.3,0.4-0.7,0.8-1.2,1.1C108,48.2,107.4,48.3,106.7,48.3L106.7,48.3z M107,46.7c0.8,0,1.5-0.3,2.1-0.9
	c0.6-0.6,0.8-1.4,0.8-2.4s-0.3-1.8-0.8-2.4c-0.5-0.6-1.3-0.9-2.1-0.9c-0.8,0-1.5,0.3-2.1,0.9s-0.9,1.4-0.9,2.4s0.3,1.8,0.9,2.4
	C105.5,46.4,106.2,46.8,107,46.7L107,46.7z"/>
</svg>
