<?xml version="1.0" encoding="utf-8"?>
<!-- Generator: Adobe Illustrator 24.2.1, SVG Export Plug-In . SVG Version: 6.00 Build 0)  -->
<svg version="1.1" id="Layer_1" xmlns="http://www.w3.org/2000/svg" xmlns:xlink="http://www.w3.org/1999/xlink" x="0px" y="0px"
	 viewBox="0 0 111.9 31.2" style="enable-background:new 0 0 111.9 31.2;" xml:space="preserve">
<style type="text/css">
	.st0{fill:#035BDA;}
	.st1{fill-rule:evenodd;clip-rule:evenodd;fill:#035BDA;}
</style>
<g transform="matrix(.229053 0 0 .229053 -.144648 10.46444)">
	<path class="st0" d="M248.5,19.8h-7.8v-30.5c0-3,0.1-6,0.3-9.1c-0.3,1.5-0.7,3-1.4,4.4l-14.3,35.5h-5.5l-14.4-35.2l-1.4-4.7
		c0.3,2,0.3,5,0.3,9.4v30.6h-7.5v-47.3h11.3l12.6,31.5l2,5.4c0.5-2,1.2-3.9,2-5.7l13-31.5h10.9L248.5,19.8z M263.1-21.2
		c-1.3,0.1-2.5-0.4-3.4-1.3c-0.9-0.7-1.4-1.8-1.4-3c-0.1-1.2,0.4-2.3,1.4-3c1-0.8,2.2-1.3,3.4-1.3c1.3-0.1,2.5,0.4,3.4,1.3
		c0.9,0.7,1.4,1.8,1.4,3c0.1,1.2-0.4,2.3-1.4,3C265.7-21.6,264.4-21.1,263.1-21.2z M266.9,19.8H259v-33.9h7.8V19.8z M302,18.4
		c-2.7,1.7-6.1,2.4-9.9,2.4c-5.1,0-9.2-1.7-12.3-4.7s-4.7-7-4.7-12.1c0-5.7,1.7-10.1,5.1-13.4s7.8-5,13.6-5c2.8,0,5.6,0.6,8.2,1.7v7
		c-2.2-1.6-4.8-2.6-7.5-2.7c-3.4,0-6.1,1-8.2,3.4c-2.1,2.4-3.2,5.5-3.1,8.7c0,3.4,1,6.4,3.1,8.4c2.1,2,4.9,3.1,7.8,3
		c2.9,0,5.7-1.1,7.8-3L302,18.4L302,18.4z M329.6-6.7c-1.2-0.7-2.7-1.1-4.1-1c-2.4,0-4.1,1-5.8,3s-2.4,4.7-2.4,8.4v16.1h-7.8v-33.9
		h7.8v7c0.6-2.2,1.8-4.1,3.4-5.7c1.5-1.3,3.4-2.1,5.5-2c1.1,0,2.1,0.2,3.1,0.7L329.6-6.7z M350.4,20.8c-5.5,0-9.6-1.7-12.6-4.7
		s-4.7-7.4-4.7-12.4c0-5.7,1.7-10.1,5.1-13.4s7.8-4.7,13.3-4.7s9.6,1.7,12.6,4.7s4.4,7.4,4.4,13.1c0.1,4.8-1.5,9.5-4.7,13.1
		C360,19.4,355.3,20.9,350.4,20.8L350.4,20.8z M350.8-8.7c-3.1,0-5.5,1-7.2,3c-1.7,2-2.7,5-2.7,8.7c0,3.7,1,6.4,2.7,8.4s4.1,3,7.2,3
		s5.5-1,7.2-3s2.4-4.7,2.4-8.7c0-3.7-0.7-6.7-2.4-8.7C356-7.8,353.4-8.8,350.8-8.7L350.8-8.7z M374,18.8v-7.1c3.1,2,6.1,3.4,9.6,3.4
		c4.8,0,7.2-1.3,7.2-4c-0.1-0.7-0.3-1.4-0.7-2c-0.4-0.6-1-1.1-1.7-1.3c-0.8-0.4-1.6-0.7-2.4-1l-3.1-1c-1.3-0.5-2.5-1.1-3.8-1.7
		c-1-0.6-1.9-1.3-2.7-2c-0.8-0.8-1.3-1.7-1.7-2.7C374.3-1.8,374-2.9,374-4c0-1.5,0.3-3,1-4.4c0.7-1.3,1.7-2.4,3.1-3
		c1.4-1,2.7-1.3,4.4-2c1.7-0.4,3.4-0.6,5.1-0.7c2.9-0.1,5.8,0.4,8.5,1.3V-6c-2.4-1.6-5.3-2.5-8.2-2.4c-0.9-0.1-1.9,0-2.7,0.3
		c-0.7,0.3-1.4,0.3-2,0.7c-0.6,0.3-1.1,0.7-1.4,1.3c-0.3,0.5-0.4,1.1-0.3,1.7c-0.1,0.7,0.1,1.4,0.3,2c0.3,0.6,0.8,1.1,1.4,1.3
		c0.8,0.4,1.6,0.7,2.4,1c1,0.3,1.7,0.7,3.1,1c1.3,0.7,2.7,1.3,4.1,1.7c1.4,0.3,2,1.3,3.1,2c0.8,0.8,1.4,1.7,2,2.7
		c0.4,1.2,0.6,2.4,0.7,3.7c0,1.7-0.3,3.4-1.4,4.4c-0.7,1.3-1.8,2.3-3.1,3c-1.5,0.8-3.1,1.5-4.7,2C384.2,21.7,378.8,21.2,374,18.8
		L374,18.8z M421.4,20.8c-5.5,0-9.6-1.7-12.6-4.7s-4.7-7.4-4.7-12.4c0-5.7,1.7-10.1,5.1-13.4s7.8-4.7,13.3-4.7s9.6,1.7,12.6,4.7
		s4.4,7.4,4.4,13.1c0.1,4.8-1.5,9.5-4.7,13.1C430.9,19.4,426.2,20.9,421.4,20.8L421.4,20.8z M421.8-8.7c-3.1,0-5.5,1-7.2,3
		c-1.7,2-2.7,5-2.7,8.7c0,3.7,1,6.4,2.7,8.4s4.1,3,7.2,3s5.5-1,7.2-3s2.4-4.7,2.4-8.7c0-3.7-0.7-6.7-2.4-8.7
		C427-7.8,424.4-8.8,421.8-8.7L421.8-8.7z M466.4-23.8c-1.1-0.7-2.4-1-3.8-1c-3.8,0-5.8,2-5.8,6.4v4.7h7.8v6h-7.8v27.9h-7.8V-7.7
		h-5.8v-6h5.8v-5.4c0-3.7,1-6.4,3.4-8.4c3.8-2.9,8.7-3.8,13.3-2.4v6L466.4-23.8L466.4-23.8z M489,19.4c-1.4,0.7-3.4,1-6.1,1
		c-6.8,0-9.9-3-9.9-9.4V-8.1h-5.8v-6h5.8v-7.7l7.8-2v10.1h8.2v6h-8.2V9.1c-0.1,1.5,0.2,3,1,4.4c0.7,1,2,1.3,3.8,1.3
		c1.2,0,2.4-0.3,3.4-1L489,19.4L489,19.4z M244.8,89.4h-8.9l-4.4-12.1h-19.1l-4.1,12.1h-8.9l18.1-47.3h8.9L244.8,89.4z M229.4,71
		l-6.8-18.8c-0.3-1-0.5-2-0.7-3c-0.2,1-0.4,2-0.7,3L214.7,71H229.4z M275.8,58.9l-18.4,24.5h18.4v6h-29.4v-3l19.1-24.8h-17.1v-6
		h27.6v3.3L275.8,58.9z M312.6,89.4h-7.8v-5.4c-2.1,3.9-6.2,6.2-10.6,6c-8.2,0-12.3-4.7-12.3-14.4V55.6h7.8V75c0,6,2.4,9.1,7.2,9.1
		c2.2,0.1,4.3-0.8,5.8-2.4c1.5-1.9,2.4-4.3,2.4-6.7V55.6h7.8L312.6,89.4z M342.7,62.9c-1.2-0.7-2.7-1.1-4.1-1c-2.4,0-4.1,1-5.8,3
		c-1.7,2-2.4,4.7-2.4,8.4v16.1h-7.8V55.6h7.8v7c0.6-2.2,1.8-4.1,3.4-5.7c1.5-1.3,3.4-2.1,5.4-2c1.1,0,2.1,0.2,3.1,0.7L342.7,62.9z
		 M377.5,74.7h-23.5c0,3,1,5.7,3.1,7.4c1.7,1.7,4.4,2.7,7.8,2.7c3.7,0.1,7.3-1.1,10.3-3.4v6c-3.1,2-7.2,3-12.3,3
		c-4.5,0.1-8.8-1.6-11.9-4.7c-3.1-3-4.4-7.4-4.4-13.1c-0.2-4.7,1.5-9.3,4.7-12.8c3.1-3.3,7.4-5.2,11.9-5c4.7,0,8.2,1.3,10.9,4.4
		s3.8,7,3.8,12.4L377.5,74.7z M370,69.3c0-2.7-0.7-5-2-6.4c-1.3-1.6-3.4-2.5-5.5-2.4c-2.2-0.1-4.3,0.8-5.8,2.4
		c-1.7,1.7-2.4,3.7-2.7,6.4L370,69.3z"/>
	<path class="st1" d="M107.4-25.5L82,25.8l44.8,51.9l-83.1,9.4l129,1.4L107.4-25.5z M102.4-45.7L44,3.2L0.6,76.3l36.9-3.7
		L102.4-45.7z"/>
</g>
</svg>
