<?xml version="1.0" encoding="utf-8"?>
<!-- Generator: Adobe Illustrator 24.2.1, SVG Export Plug-In . SVG Version: 6.00 Build 0)  -->
<svg version="1.1" id="Layer_1" xmlns="http://www.w3.org/2000/svg" xmlns:xlink="http://www.w3.org/1999/xlink" x="0px" y="0px"
	 viewBox="0 0 111.9 31.2" style="enable-background:new 0 0 111.9 31.2;" xml:space="preserve">
<style type="text/css">
	.st0{fill:#035BDA;}
	.st1{fill-rule:evenodd;clip-rule:evenodd;fill:#035BDA;}
</style>
<g transform="matrix(.229053 0 0 .229053 -.144648 10.46444)">
	<path class="st0" d="M245.4,19.8h-5.9V-8.6c0-2.8,0.1-5.6,0.2-8.5c-0.2,1.4-0.5,2.8-1.1,4.1l-10.8,33.1h-4.2l-10.9-32.9l-1.1-4.4
		c0.2,1.9,0.2,4.7,0.2,8.8v28.6h-5.7V-24h8.6l9.5,29.4l1.5,5c0.4-1.9,0.9-3.6,1.5-5.3l9.9-29.4h8.3L245.4,19.8z M256.5-18.4
		c-1,0.1-1.9-0.4-2.6-1.2c-0.7-0.7-1.1-1.7-1.1-2.8c-0.1-1.1,0.3-2.1,1.1-2.8c0.8-0.7,1.7-1.2,2.6-1.2c1-0.1,1.9,0.4,2.6,1.2
		c0.7,0.7,1.1,1.7,1.1,2.8c0.1,1.1-0.3,2.1-1.1,2.8C258.5-18.8,257.5-18.4,256.5-18.4z M259.4,19.8h-6v-31.7h5.9L259.4,19.8
		L259.4,19.8z M286,18.5c-2,1.6-4.6,2.2-7.5,2.2c-3.9,0-7-1.6-9.3-4.4c-2.3-2.8-3.6-6.5-3.6-11.3c0-5.3,1.3-9.4,3.9-12.5
		c2.6-3.1,5.9-4.7,10.3-4.7c2.1,0,4.2,0.6,6.2,1.6V-4c-1.7-1.5-3.6-2.4-5.7-2.5c-2.6,0-4.6,0.9-6.2,3.2s-2.4,5.1-2.3,8.1
		c0,3.2,0.8,6,2.3,7.8s3.7,2.9,5.9,2.8c2.2,0,4.3-1,5.9-2.8L286,18.5L286,18.5z M306.9-4.9c-0.9-0.7-2-1-3.1-0.9
		c-1.8,0-3.1,0.9-4.4,2.8s-1.8,4.4-1.8,7.8v15h-5.9v-31.7h5.9v6.5c0.5-2.1,1.4-3.8,2.6-5.3c1.1-1.2,2.6-2,4.2-1.9
		c0.8,0,1.6,0.2,2.3,0.7L306.9-4.9z M322.7,20.8c-4.2,0-7.3-1.6-9.5-4.4s-3.6-6.9-3.6-11.6c0-5.3,1.3-9.4,3.9-12.5s5.9-4.4,10.1-4.4
		s7.3,1.6,9.5,4.4c2.3,2.8,3.3,6.9,3.3,12.2c0.1,4.5-1.1,8.9-3.6,12.2C329.9,19.5,326.4,20.9,322.7,20.8L322.7,20.8z M323-6.8
		c-2.3,0-4.2,0.9-5.5,2.8c-1.3,1.9-2,4.7-2,8.1s0.8,6,2,7.8c1.3,1.9,3.1,2.8,5.5,2.8s4.2-0.9,5.5-2.8c1.3-1.9,1.8-4.4,1.8-8.1
		c0-3.5-0.5-6.3-1.8-8.1C326.9-5.9,324.9-6.9,323-6.8L323-6.8z M340.6,18.9v-6.6c2.3,1.9,4.6,3.2,7.3,3.2c3.6,0,5.5-1.2,5.5-3.7
		c-0.1-0.7-0.2-1.3-0.5-1.9c-0.3-0.6-0.8-1-1.3-1.2c-0.6-0.4-1.2-0.7-1.8-0.9l-2.3-0.9c-1-0.5-1.9-1-2.9-1.6c-0.8-0.6-1.4-1.2-2-1.9
		c-0.6-0.7-1-1.6-1.3-2.5c-0.3-1.1-0.5-2.1-0.5-3.2c0-1.4,0.2-2.8,0.8-4.1c0.5-1.2,1.3-2.2,2.3-2.8c1.1-0.9,2-1.2,3.3-1.9
		c1.3-0.4,2.6-0.6,3.9-0.7c2.2-0.1,4.4,0.4,6.4,1.2v6.3c-1.8-1.5-4-2.3-6.2-2.2c-0.7-0.1-1.4,0-2,0.3c-0.5,0.3-1.1,0.3-1.5,0.7
		c-0.5,0.3-0.8,0.7-1.1,1.2c-0.2,0.5-0.3,1-0.2,1.6c-0.1,0.7,0.1,1.3,0.2,1.9c0.2,0.6,0.6,1,1.1,1.2c0.6,0.4,1.2,0.7,1.8,0.9
		c0.8,0.3,1.3,0.7,2.3,0.9c1,0.7,2,1.2,3.1,1.6c1.1,0.3,1.5,1.2,2.3,1.9c0.6,0.7,1.1,1.6,1.5,2.5c0.3,1.1,0.5,2.2,0.5,3.5
		c0,1.6-0.2,3.2-1.1,4.1c-0.5,1.2-1.4,2.1-2.3,2.8c-1.1,0.7-2.3,1.4-3.6,1.9C348.3,21.6,344.2,21.1,340.6,18.9L340.6,18.9z
		 M376.5,20.8c-4.2,0-7.3-1.6-9.5-4.4c-2.3-2.8-3.6-6.9-3.6-11.6c0-5.3,1.3-9.4,3.9-12.5s5.9-4.4,10.1-4.4c4.2,0,7.3,1.6,9.5,4.4
		c2.3,2.8,3.3,6.9,3.3,12.2c0.1,4.5-1.1,8.9-3.6,12.2C383.7,19.5,380.1,20.9,376.5,20.8L376.5,20.8z M376.8-6.8
		c-2.3,0-4.2,0.9-5.5,2.8s-2,4.7-2,8.1s0.8,6,2,7.8s3.1,2.8,5.5,2.8c2.3,0,4.2-0.9,5.5-2.8s1.8-4.4,1.8-8.1c0-3.5-0.5-6.3-1.8-8.1
		C380.7-5.9,378.7-6.9,376.8-6.8L376.8-6.8z M410.6-20.9c-0.8-0.7-1.8-0.9-2.9-0.9c-2.9,0-4.4,1.9-4.4,6v4.4h5.9v5.6h-5.9v26h-5.9
		v-26H393v-5.6h4.4v-5c0-3.5,0.8-6,2.6-7.8c2.9-2.7,6.6-3.5,10.1-2.2v5.6L410.6-20.9L410.6-20.9z M427.7,19.5
		c-1.1,0.7-2.6,0.9-4.6,0.9c-5.2,0-7.5-2.8-7.5-8.8V-6.2h-4.4v-5.6h4.4V-19l5.9-1.9v9.4h6.2v5.6h-6.2V9.8c-0.1,1.4,0.2,2.8,0.8,4.1
		c0.5,0.9,1.5,1.2,2.9,1.2c0.9,0,1.8-0.3,2.6-0.9L427.7,19.5L427.7,19.5z M242.6,84.8h-6.7l-3.3-11.3h-14.5L215,84.8h-6.7L222,40.7
		h6.7L242.6,84.8z M231,67.6l-5.2-17.6c-0.2-0.9-0.4-1.9-0.5-2.8c-0.2,0.9-0.3,1.9-0.5,2.8l-4.9,17.6H231z M266.1,56.3l-13.9,22.9
		h13.9v5.6h-22.3V82l14.5-23.2h-13v-5.6h20.9v3.1H266.1z M294,84.8h-5.9v-5c-1.6,3.6-4.7,5.8-8,5.6c-6.2,0-9.3-4.4-9.3-13.4V53.3
		h5.9v18.1c0,5.6,1.8,8.5,5.5,8.5c1.7,0.1,3.3-0.7,4.4-2.2c1.1-1.8,1.8-4,1.8-6.3V53.3h5.9L294,84.8z M316.8,60.1
		c-0.9-0.7-2-1-3.1-0.9c-1.8,0-3.1,0.9-4.4,2.8c-1.3,1.9-1.8,4.4-1.8,7.8v15h-5.9V53.3h5.9v6.5c0.5-2.1,1.4-3.8,2.6-5.3
		c1.1-1.2,2.6-2,4.1-1.9c0.8,0,1.6,0.2,2.3,0.7L316.8,60.1z M343.2,71.1h-17.8c0,2.8,0.8,5.3,2.3,6.9c1.3,1.6,3.3,2.5,5.9,2.5
		c2.8,0.1,5.5-1,7.8-3.2v5.6c-2.3,1.9-5.5,2.8-9.3,2.8c-3.4,0.1-6.7-1.5-9-4.4c-2.3-2.8-3.3-6.9-3.3-12.2c-0.2-4.4,1.1-8.7,3.6-12
		c2.3-3.1,5.6-4.9,9-4.7c3.6,0,6.2,1.2,8.3,4.1s2.9,6.5,2.9,11.6L343.2,71.1z M337.5,66c0-2.5-0.5-4.7-1.5-6c-1-1.5-2.6-2.3-4.2-2.2
		c-1.7-0.1-3.3,0.7-4.4,2.2c-1.3,1.6-1.8,3.5-2,6H337.5z"/>
	<path class="st1" d="M138.5-22.5l-19.2,47.9l34,48.5l-63,8.8L188,84L138.5-22.5z M134.7-41.3L90.5,4.3L57.6,72.6l28-3.5L134.7-41.3
		z"/>
</g>
</svg>
