<?xml version="1.0" encoding="UTF-8"?>
<svg width="82px" height="34px" viewBox="0 0 82 34" version="1.1" xmlns="http://www.w3.org/2000/svg" xmlns:xlink="http://www.w3.org/1999/xlink">
    <!-- Generator: Sketch 53 (72520) - https://sketchapp.com -->
    <title>QBlogo</title>
    <desc>Created with Sketch.</desc>
    <g id="selected" stroke="none" stroke-width="1" fill="none" fill-rule="evenodd">
        <g id="iPhone-8" transform="translate(-20.000000, -28.000000)" fill="#FFFFFF" fill-rule="nonzero">
            <g id="Group-3">
                <g id="QBlogo" transform="translate(20.000000, 28.000000)">
                    <path d="M42.4870466,18.7795649 C42.4870466,19.8867502 42.3689529,19.7270662 41.9589933,20.8235992 C41.6069578,21.4197759 41.2549223,21.9307844 40.726869,22.3566249 C40.1108068,22.8676335 39.4067358,23.1231378 38.7026647,23.293474 C37.9985937,23.4638102 37.030496,23.6341463 35.8863805,23.6341463 L30.1658031,23.6341463 L30.1658031,7.87804878 L35.0062917,7.87804878 C36.1504071,7.87804878 37.030496,7.96321688 37.6465581,8.04838497 C38.2626203,8.13355307 38.7906736,8.30388926 39.4067358,8.64456163 C40.022798,8.98523401 40.4628423,9.32590639 40.726869,9.83691496 C40.9908956,10.3479235 41.1669134,10.8589321 41.1669134,11.5402769 C41.1669134,12.2216216 40.9908956,12.9029664 40.5508513,13.413975 C40.1108068,14.0101516 39.6707624,14.350824 38.9666913,14.6914964 L38.9666913,14.7766645 C40.022798,15.0321688 40.9028868,15.4580092 41.6069578,16.2245221 C42.1350111,16.8206987 42.4870466,17.6723797 42.4870466,18.7795649 Z M39.1529443,11.967699 C39.1529443,11.5418585 38.8786825,11.0220353 38.7026647,10.773764 C38.526647,10.5182597 38.3506292,10.2627554 38.0866025,10.1775873 C37.734567,10.0072512 37.3825315,9.83691496 36.8544782,9.83691496 C36.3264249,9.75174687 35.7983716,9.75174687 35.0943005,9.75174687 L32.5420429,9.75174687 L32.5420429,14.2656559 L35.3583272,14.2656559 C35.9743894,14.2656559 36.5904515,14.2656559 37.030496,14.1804878 C37.4705404,14.0953197 37.734567,13.9249835 38.1746114,13.7546473 C38.526647,13.499143 38.7906736,13.2436388 38.8786825,12.9881345 C39.0369715,12.654016 39.1529443,12.4787076 39.1529443,11.967699 Z M40.2993988,18.7795649 C40.2993988,18.1833883 40.1108068,17.7575478 39.8467802,17.3317073 C39.6707624,16.9058668 39.230718,16.6503626 38.7906736,16.3948583 C38.526647,16.2245221 38.0866025,16.0541859 37.6465581,16.0541859 C37.1185048,15.9690178 36.5904515,15.9690178 35.8863805,15.9690178 L32.5420429,15.9690178 L32.5420429,21.8456163 L35.4463361,21.8456163 C36.4144338,21.8456163 37.2065137,21.7604483 37.734567,21.6752802 C38.3506292,21.5901121 38.7906736,21.4197759 39.230718,21.0791035 C39.6707624,20.8235992 39.934789,20.4829268 40.1108068,20.1422544 C40.3300472,19.7350869 40.2993988,19.2905735 40.2993988,18.7795649 Z" id="Shape"></path>
                    <path d="M53.7827408,23.7100653 L51.7609434,23.7100653 L51.7609434,22.4398832 C51.1456137,23.0326348 50.4423799,23.3713501 49.8270502,23.6253865 C49.2117206,23.9641017 48.5084867,24.0487805 47.7173486,24.0487805 C46.3987851,24.0487805 45.4318385,23.6253865 44.8165089,22.947956 C44.113275,22.1858468 43.761658,21.1697011 43.761658,19.6454827 L43.761658,12.109069 L45.7834554,12.109069 L45.7834554,18.7140158 C45.7834554,19.3067674 45.7834554,19.8148403 45.8713597,20.2382343 C45.9592639,20.6616283 46.0471682,21.0003435 46.3108808,21.3390587 C46.4866893,21.677774 46.750402,21.9318104 47.0141147,21.9318104 C47.3657317,22.101168 47.7173486,22.1858468 48.4205825,22.1858468 C48.9480078,22.1858468 49.5633375,22.0164892 50.1786671,21.7624528 C50.7939967,21.5084164 51.4093264,21.1697011 51.9367518,20.7463071 L51.9367518,12.0243902 L53.9585492,12.0243902 L53.9585492,23.7100653 L53.7827408,23.7100653 Z" id="Shape"></path>
                    <path d="M62.880829,14.2117356 L62.880829,14.2117356 C62.4559585,14.1276069 62.2860103,14.0434783 61.9461139,14.0434783 C61.6062176,14.0434783 61.3512953,13.9593496 61.0113989,13.9593496 C60.4165803,13.9593496 59.8217616,14.1276069 59.3119171,14.3799929 C58.7170984,14.6323789 58.2072539,14.9688936 57.6124352,15.3895369 L57.6124352,23.6341463 L55.6580311,23.6341463 L55.6580311,12.1085189 L57.6124352,12.1085189 L57.6124352,13.7910923 C58.377202,13.2021916 59.1419689,12.6974196 59.6518135,12.4450336 C60.2466321,12.1926476 60.8414508,12.0243902 61.4362694,12.0243902 L62.1160621,12.0243902 C62.2010363,12.0243902 62.5409326,12.1085189 62.7958549,12.1085189 L62.880829,14.2117356 L62.880829,14.2117356 Z" id="Shape"></path>
                    <path d="M73.5025907,20.3599664 C73.5025907,21.4751892 72.9880682,22.333053 72.1305318,23.019344 C71.2729954,23.705635 69.9866898,24.0487805 68.4431236,24.0487805 C67.5855872,24.0487805 66.7280508,23.9629941 66.0420211,23.705635 C65.3559918,23.4482759 64.6699624,23.2767031 64.2411941,23.019344 L64.2411941,20.7888982 L64.3269478,20.7888982 C64.9272234,21.3036165 65.6990065,21.646762 66.3850356,21.9041211 C67.1568187,22.1614802 67.9286018,22.333053 68.6146316,22.333053 C69.472168,22.333053 70.2439511,22.1614802 70.6727196,21.9041211 C71.1872414,21.5609756 71.3587487,21.2178301 71.3587487,20.5315391 C71.3587487,20.0168209 71.1872414,19.7594617 70.9299802,19.5021026 C70.6727196,19.2447435 70.1581971,18.9873844 69.386414,18.901598 C69.0433995,18.8158116 68.7861389,18.7300252 68.2716164,18.6442389 C67.7570945,18.5584525 67.41408,18.4726661 66.9853114,18.3868797 C65.9562678,18.1295206 65.2702381,17.7005887 64.7557161,17.1858705 C64.3269478,16.5853659 64.1554404,15.9848612 64.1554404,15.2127839 C64.1554404,14.6980656 64.2411941,14.2691337 64.4984551,13.8402019 C64.7557161,13.41127 65.0129771,13.0681245 65.4417455,12.724979 C65.8705138,12.3818335 66.2992823,12.1244743 66.9853114,11.9529016 C67.5855872,11.7813288 68.2716164,11.6097561 69.0433995,11.6097561 C69.7294292,11.6097561 70.5012123,11.6955425 71.1872414,11.8671152 C71.8732705,12.038688 72.5593003,12.2960471 72.9880682,12.4676198 L72.9880682,14.6122792 L73.0738222,14.6122792 C72.5593003,14.1833474 71.9590245,13.9259882 71.2729954,13.6686291 C70.5869656,13.41127 69.8151825,13.2396972 69.1291534,13.2396972 C68.4431236,13.2396972 67.7570945,13.41127 67.328326,13.6686291 C66.8995581,13.9259882 66.6422969,14.3549201 66.6422969,14.9554247 C66.6422969,15.470143 66.8138042,15.8132885 67.1568187,16.0706476 C67.4998333,16.3280067 67.9286018,16.5853659 68.6146316,16.6711522 C69.0433995,16.7569386 69.386414,16.842725 69.8151825,16.9285114 C70.2439511,17.0142977 70.5869656,17.1000841 70.9299802,17.1858705 C71.8732705,17.4432296 72.6450536,17.7863751 73.0738222,18.3010934 C73.3310834,18.8158116 73.5025907,19.4163162 73.5025907,20.3599664 Z" id="Shape"></path>
                    <path d="M81.9140709,23.2969713 C81.484427,23.3812651 81.1407111,23.4655588 80.7110673,23.5498526 C80.1954937,23.6341463 79.9377075,23.6341463 79.5080631,23.6341463 C78.3050589,23.6341463 77.3598415,23.2969713 76.6724109,22.706915 C75.9849803,22.1168588 75.7271935,21.0210399 75.7271935,19.6723399 L75.7271935,13.3503082 L74.3523316,13.3503082 L74.3523316,11.6644331 L75.813122,11.6644331 L75.813122,8.29268293 L77.7894859,8.29268293 L77.7894859,11.6644331 L81.9140709,11.6644331 L81.9140709,13.3503082 L77.7894859,13.3503082 L77.7894859,18.6608148 C77.7894859,19.2508711 77.7894859,19.7566336 77.8754151,20.0938086 C77.8754151,20.4309837 78.0472727,20.6838649 78.2191304,21.0210399 C78.390988,21.358215 78.6487748,21.5268025 78.8206325,21.6110962 C79.0784186,21.7796837 79.5080631,21.7796837 80.1095652,21.7796837 C80.4532805,21.7796837 80.7110673,21.69539 81.1407111,21.6110962 C81.484427,21.5268025 81.7422132,21.4425087 81.9140709,21.358215 L82,21.358215 L81.9140709,23.2969713 L81.9140709,23.2969713 Z" id="Shape"></path>
                    <path d="M74.5929865,25.5 C74.5929865,25.5 73.1115833,28.73 68.9287992,28.73 C65.1817218,28.73 63.3517537,25.5 63.3517537,25.5 L30.2380447,25.5 C30.2380447,25.5 30.1509034,26.01 29.6280553,27.71 C29.018066,29.495 28.3209353,30.345 28.3209353,30.345 C24.4867163,34.17 21.6110521,29.665 18.4739639,27.2 C17.4282678,26.435 16.2954304,25.925 15.2497343,25.755 C21.9596175,24.99 27.1880979,19.55 27.1880979,12.92 C27.1880979,5.78 21.0882041,0 13.6811903,0 C6.27417642,0 0,5.78 0,12.92 C0,19.38 5.05419768,24.735 11.5897981,25.67 C4.0085016,27.2 3.57279491,34 3.57279491,34 C3.57279491,34 3.74707759,33.66 4.18278429,32.895 C4.70563232,32.045 6.01275241,30.09 7.49415518,28.9 C9.14984062,27.625 12.3740702,26.095 15.7725824,27.37 C19.258236,28.56 20.4782147,33.32 25.0967057,33.49 C29.8894794,33.66 31.1965995,28.22 31.4580235,26.69 L62.4803403,26.69 C63.0903296,27.285 65.0074391,29.92 68.8416582,29.92 C73.1115833,29.92 74.6801275,27.285 75.1158344,26.69 L82,26.69 L82,25.5 L74.5929865,25.5 L74.5929865,25.5 Z M4.35706696,12.92 C4.35706696,6.205 8.53985127,0.765 13.5069076,0.765 C18.6482466,0.765 22.6567482,6.205 22.6567482,12.92 C22.6567482,19.635 18.5611053,25.075 13.5069076,25.075 C8.53985127,25.075 4.35706696,19.635 4.35706696,12.92 Z" id="Shape"></path>
                </g>
            </g>
        </g>
    </g>
</svg>