<?xml version="1.0" encoding="UTF-8"?>
<svg width="279px" height="129px" viewBox="0 0 279 129" version="1.1" xmlns="http://www.w3.org/2000/svg" xmlns:xlink="http://www.w3.org/1999/xlink">
    <!-- Generator: Sketch 52.2 (67145) - http://www.bohemiancoding.com/sketch -->
    <title>Group 31</title>
    <desc>Created with Sketch.</desc>
    <defs>
        <path d="M8,-2.84217094e-14 L271,-2.84217094e-14 C275.418278,-2.92333339e-14 279,3.581722 279,8 L279,129 L0,129 L0,8 C-5.41083001e-16,3.581722 3.581722,-2.76100849e-14 8,-2.84217094e-14 Z" id="path-1"></path>
        <polygon id="path-3" points="0.0234 0 195 0 195 195 0.0234 195"></polygon>
    </defs>
    <g id="desktop" stroke="none" stroke-width="1" fill="none" fill-rule="evenodd">
        <g id="Group-31">
            <mask id="mask-2" fill="white">
                <use xlink:href="#path-1"></use>
            </mask>
            <use id="Rectangle" fill="#7A84B3" xlink:href="#path-1"></use>
            <g id="Group-26" mask="url(#mask-2)">
                <g transform="translate(-30.000000, -44.000000)">
                    <g id="404343-PD54FO-309">
                        <g id="Group-3">
                            <mask id="mask-4" fill="white">
                                <use xlink:href="#path-3"></use>
                            </mask>
                            <g id="Clip-2"></g>
                            <polygon id="Fill-1" fill="#7A84B3" mask="url(#mask-4)" points="0.0234 175.5 195 175.5 195 -19.5 0.0234 -19.5"></polygon>
                        </g>
                        <path d="M150.0252,139.93356 C150.0096,139.93356 149.994,139.93356 149.9784,139.93317 C149.69175,139.92654 149.37429,139.85946 149.05644,139.67694 C148.05024,139.09779 126.92745,126.89937 126.92745,126.89937 C126.92745,126.89937 126.43527,126.61389 126.48675,126.243 L126.48675,125.21496 C126.45555,125.02737 126.54798,124.80819 126.92745,124.58862 C127.93248,124.00791 136.98555,118.78074 136.98555,118.78074 C136.98555,118.78074 137.43366,118.52217 138.03075,118.52217 C138.32871,118.52217 138.66372,118.58691 138.99873,118.77996 C140.00454,119.36106 161.12577,131.5587 161.12577,131.5587 C161.12577,131.5587 161.47872,131.76384 161.55672,132.05166 C161.57544,132.11991 161.57817,132.19245 161.55672,132.2685 L161.55672,133.20138 C161.57544,133.26963 161.57817,133.34217 161.55672,133.41861 C161.51694,133.56135 161.39448,133.71462 161.12772,133.86906 C160.12152,134.44977 160.12152,134.44977 160.12152,134.44977 L151.06806,139.67694 C151.06806,139.67694 150.62112,139.93356 150.0252,139.93356" id="Fill-4" fill="#6174AA"></path>
                        <path d="M163.72278,133.41861 C163.74384,133.34217 163.7415,133.26963 163.72278,133.20138 L163.72278,132.05166 L161.33247,131.57742 C156.07254,128.53971 141.98184,120.40158 141.16479,119.93007 C140.15898,119.34897 139.15161,119.93085 139.15161,119.93085 C139.15161,119.93085 132.21624,123.93498 129.81228,125.32338 L128.65281,125.09367 L128.65281,126.243 C128.60133,126.61389 129.09351,126.89937 129.09351,126.89937 C129.09351,126.89937 150.2163,139.09779 151.22211,139.67694 C151.53996,139.85946 151.85781,139.92654 152.14368,139.93317 L152.14407,139.93317 C152.76339,139.94721 153.23412,139.67694 153.23412,139.67694 L162.28758,134.44977 C162.28758,134.44977 162.28758,134.44977 163.29339,133.86906 C163.56015,133.71462 163.68261,133.56135 163.72278,133.41861" id="Fill-5" fill="#513B78"></path>
                        <path d="M162.28758,133.29966 L153.23412,138.52683 C153.23412,138.52683 152.22831,139.10598 151.22211,138.52683 C150.2163,137.94807 129.09351,125.74965 129.09351,125.74965 C129.09351,125.74965 128.08848,125.17011 129.09351,124.58901 C130.09854,124.00791 139.15161,118.78074 139.15161,118.78074 C139.15161,118.78074 140.15898,118.19925 141.16479,118.77996 C142.1706,119.36067 163.29105,131.5587 163.29105,131.5587 C163.29105,131.5587 164.2992,132.13824 163.29339,132.71934 C162.28758,133.29966 162.28758,133.29966 162.28758,133.29966" id="Fill-6" fill="#3A2C55"></path>
                        <polyline id="Fill-7" fill="#FBE5EA" points="159.25923 130.40235 141.1644 119.9445 131.10318 125.75082 149.22063 136.19853 159.25923 130.40235"></polyline>
                        <path d="M159.13131,132.30867 L158.96088,132.21 C158.70777,132.06414 158.39655,132.06375 158.14344,132.21 L152.98452,135.18609 C152.77431,135.30699 152.77431,135.61041 152.98452,135.73131 L153.04614,135.76719 C153.33786,135.93567 153.69744,135.93567 153.98916,135.76719 L159.13131,132.80124 C159.32124,132.69165 159.32124,132.41787 159.13131,132.30867" id="Fill-8" fill="#FBE5EA"></path>
                        <path d="M134.62527,122.18544 C134.62527,122.30205 134.85069,122.39643 135.12837,122.39643 C135.40605,122.39643 135.63108,122.30205 135.63108,122.18544 C135.63108,122.06922 135.40605,121.97484 135.12837,121.97484 C134.85069,121.97484 134.62527,122.06922 134.62527,122.18544" id="Fill-9" fill="#FBE5EA"></path>
                        <polyline id="Fill-10" fill="#6174AA" points="155.80929 117.76518 121.84419 98.30301 133.17408 92.83599 133.00638 92.9331 133.86165 93.42684 130.95732 95.10462 131.34537 95.32887 130.95732 95.55312 131.63475 95.94429 130.95732 96.33585 132.12147 97.00782 130.95732 97.68057 131.33718 97.89975 130.95732 98.11932 131.34537 98.34318 130.95732 98.56743 159.70734 115.16622 175.9485 105.78945 175.9485 106.13733 155.80929 117.76518"></polyline>
                        <path d="M107.3553,151.41165 C107.3553,151.41165 94.14093,143.70876 94.35855,143.70876 C94.3605,143.70876 94.36323,143.70915 94.36752,143.71032 C94.83084,143.84994 118.02648,144.61629 118.02648,144.61629 C117.79248,144.8343 107.3553,151.41165 107.3553,151.41165" id="Fill-11" fill="#536CA5"></path>
                        <polyline id="Fill-12" fill="#F5BB50" points="118.02648 144.61629 105.40296 137.3346 94.36752 143.71032 105.45951 150.11373 108.56001 150.08175 118.02648 144.61629"></polyline>
                        <polyline id="Fill-13" fill="#B18453" points="106.98441 148.29126 108.56001 150.08175 105.45951 150.11373 106.98441 148.29126"></polyline>
                        <polyline id="Fill-14" fill="#E46C8F" points="179.84694 103.53837 151.08015 86.94114 130.95732 98.56743 159.70734 115.16622 179.84694 103.53837"></polyline>
                        <polyline id="Fill-15" fill="#E46C8F" points="130.95732 98.11932 130.95732 98.56743 159.70734 115.16622 179.84694 103.53837 179.84694 103.09026 130.95732 98.11932"></polyline>
                        <polyline id="Fill-16" fill="#E15780" points="179.84694 103.09026 151.08015 86.49264 130.95732 98.11932 159.70734 114.71772 179.84694 103.09026"></polyline>
                        <polyline id="Fill-17" fill="#E46C8F" points="179.84694 102.65151 151.08015 86.05389 130.95732 97.68057 159.70734 114.27897 179.84694 102.65151"></polyline>
                        <polyline id="Fill-18" fill="#F7D4D5" points="130.95732 96.33585 130.95732 97.68057 159.70734 114.27897 179.84694 102.65151 179.84694 101.30679 130.95732 96.33585"></polyline>
                        <polyline id="Fill-19" fill="#FDF0F3" points="179.84694 101.30679 151.08015 84.70917 130.95732 96.33585 159.70734 112.93425 179.84694 101.30679"></polyline>
                        <polyline id="Fill-20" fill="#E46C8F" points="179.84694 100.52406 151.08015 83.92644 130.95732 95.55312 159.70734 112.15152 179.84694 100.52406"></polyline>
                        <polyline id="Fill-21" fill="#E15780" points="130.95732 95.10462 130.95732 95.55312 159.70734 112.15152 179.84694 100.52406 179.84694 100.07556 130.95732 95.10462"></polyline>
                        <polyline id="Fill-22" fill="#E46C8F" points="179.84694 100.07595 151.08015 83.47833 130.95732 95.10462 159.70734 111.70341 179.84694 100.07595"></polyline>
                        <polyline id="Fill-23" fill="#E15780" points="159.70734 111.70341 159.70734 115.16622 130.95732 98.56743 130.95732 95.10462 159.70734 111.70341"></polyline>
                        <polyline id="Fill-24" fill="#2ABBE1" points="181.896 97.90404 153.12921 81.30642 133.00638 92.9331 161.7564 109.5315 181.896 97.90404"></polyline>
                        <polyline id="Fill-25" fill="#2ABBE1" points="133.00638 92.4846 133.00638 92.9331 161.7564 109.5315 181.896 97.90404 181.896 97.45593 133.00638 92.4846"></polyline>
                        <polyline id="Fill-26" fill="#0091C5" points="181.896 97.45593 153.12921 80.85831 133.00638 92.4846 161.7564 109.083 181.896 97.45593"></polyline>
                        <polyline id="Fill-27" fill="#2ABBE1" points="181.896 97.01679 153.12921 80.41956 133.00638 92.04585 161.7564 108.64425 181.896 97.01679"></polyline>
                        <polyline id="Fill-28" fill="#F8D3CC" points="133.00638 90.70113 133.00638 92.04585 161.7564 108.64425 181.896 97.01679 181.896 95.67207 133.00638 90.70113"></polyline>
                        <polyline id="Fill-29" fill="#FDF0F3" points="181.896 95.67207 153.12921 79.07445 133.00638 90.70113 161.7564 107.29953 181.896 95.67207"></polyline>
                        <polyline id="Fill-30" fill="#2ABBE1" points="181.896 94.88973 153.12921 78.29211 133.00638 89.9184 161.7564 106.5168 181.896 94.88973"></polyline>
                        <polyline id="Fill-31" fill="#0091C5" points="133.00638 89.47029 133.00638 89.9184 161.7564 106.5168 181.896 94.88973 181.896 94.44123 133.00638 89.47029"></polyline>
                        <polyline id="Fill-32" fill="#2ABBE1" points="181.896 94.44123 153.12921 77.84361 133.00638 89.47029 161.7564 106.06869 181.896 94.44123"></polyline>
                        <polyline id="Fill-33" fill="#FBE5EA" points="141.66672 89.46873 153.13116 82.84536 173.23137 94.4424 161.7564 101.06733 141.66672 89.46873"></polyline>
                        <polyline id="Fill-34" fill="#0091C5" points="161.7564 106.06869 161.7564 109.5315 133.00638 92.9331 133.00638 89.47029 161.7564 106.06869"></polyline>
                        <path d="M55.93146,131.38281 L55.96929,131.30364 C56.02389,131.32275 56.07771,131.34147 56.12451,131.35785 C56.18067,131.37774 56.25516,131.40465 56.31132,131.42376 C56.42325,131.46354 56.57262,131.51658 56.68494,131.55558 C56.79687,131.59536 56.94624,131.6484 57.05817,131.68779 C57.11433,131.70729 57.18921,131.73381 57.24498,131.7537 C57.30504,131.77476 57.37563,131.79972 57.44544,131.82429 C57.50355,131.84457 59.14506,132.38082 59.36775,132.46974 L59.3697,132.46857 L59.38179,132.47559 L59.38959,132.47871 L59.39076,132.48066 L80.48157,144.72237 L80.77992,145.14123 L80.48508,145.90212 L79.89189,146.24454 L58.78002,133.99074 L58.76832,133.97397 C58.19502,133.47438 57.57843,132.80865 57.0063,132.31374 C56.64789,132.0033 56.28987,131.69325 55.93146,131.38281" id="Fill-35" fill="#4B66A1"></path>
                        <path d="M56.33628,130.93665 C56.39049,130.95576 56.44431,130.97487 56.4915,130.99125 C56.54727,131.01114 56.62215,131.03727 56.67792,131.05716 C56.79024,131.09694 56.93961,131.1492 57.05154,131.18898 C57.16347,131.22837 57.31323,131.28141 57.42516,131.3208 C57.48132,131.34069 57.55581,131.36682 57.61197,131.38671 C57.67164,131.40777 57.74262,131.43273 57.81243,131.4573 L57.37329,131.94675 C57.01488,131.63631 56.65647,131.32587 56.29845,131.01582 L56.33628,130.93665" id="Fill-36" fill="#2D2238"></path>
                        <path d="M57.81243,131.4573 C57.87327,131.47875 59.6817,132.0696 59.75814,132.11328 C59.71797,132.18426 59.68911,132.19245 59.56704,132.26031 C59.27649,132.42216 59.00154,132.795 58.99725,133.13196 C58.99569,133.27899 59.085,133.56486 59.15832,133.62843 C58.57878,133.1265 57.95283,132.44829 57.37329,131.94675 C57.31284,131.79426 57.67554,131.43819 57.81243,131.4573" id="Fill-37" fill="#F7D0C1"></path>
                        <path d="M58.99725,133.13196 C58.99335,133.46892 59.2254,133.61049 59.51595,133.44864 C59.8065,133.28679 60.04557,132.88236 60.04947,132.5454 C60.05376,132.20883 59.82171,132.06687 59.53116,132.22911 C59.24022,132.39096 59.00154,132.795 58.99725,133.13196" id="Fill-38" fill="#3F3A5E"></path>
                        <polyline id="Fill-39" fill="#D39B3E" points="79.96092 145.45947 58.84944 133.20567 59.14662 133.62414 80.25849 145.87794 79.96092 145.45947"></polyline>
                        <polyline id="Fill-40" fill="#D39B3E" points="80.25537 144.69819 59.14311 132.44478 58.84944 133.20567 79.96092 145.45947 80.25537 144.69819"></polyline>
                        <polyline id="Fill-41" fill="#F5BB50" points="80.84856 144.35577 59.73669 132.10197 59.14311 132.44478 80.25537 144.69819 80.84856 144.35577"></polyline>
                        <polyline id="Fill-42" fill="#3F3A5E" points="80.25537 144.69819 79.96092 145.45947 80.25849 145.87794 80.85207 145.53513 81.14691 144.77463 80.84856 144.35577 80.25537 144.69819"></polyline>
                        <path d="M47.28633,161.58714 C47.22939,161.58519 47.17089,161.58285 47.11434,161.58051 L13.104,142.8219 L14.50995,142.53954 L47.28633,161.58714 M50.10564,159.7284 L49.36815,159.30018 L59.90049,153.2193 L60.63759,153.64791 L50.10564,159.7284 M48.59907,158.85285 L47.86197,158.42463 L58.39431,152.34414 L59.13141,152.77236 L48.59907,158.85285 M46.84212,157.83222 L46.10541,157.404 L56.63775,151.32312 L57.37446,151.75134 L46.84212,157.83222 M45.08322,156.81003 L44.34612,156.38142 L54.87846,150.30093 L55.61556,150.72915 L45.08322,156.81003 M40.89228,155.73909 L40.15518,155.31087 L59.94222,143.88699 L60.95934,144.15336 L40.89228,155.73909 M38.79954,154.52307 L38.06283,154.09446 L57.0531,143.13078 L58.07022,143.39715 L38.79954,154.52307 M36.53988,153.20994 L35.80317,152.78172 L53.93349,142.31412 L54.95061,142.58049 L36.53988,153.20994 M62.43744,152.81526 L59.60994,151.17219 L61.68825,149.97216 L64.51575,151.61523 L62.43744,152.81526 M64.77939,151.46313 L59.21955,148.23198 L61.29786,147.03234 L66.8577,150.2631 L64.77939,151.46313 M34.10238,150.20382 C34.09887,150.20382 34.09536,150.20382 34.09224,150.20382 C34.08873,150.20382 34.08561,150.20382 34.0821,150.20382 C32.86998,150.20382 31.73352,149.93043 30.87864,149.43318 C29.991,148.9176 29.523,148.23198 29.55927,147.5019 C29.59359,146.82486 30.06939,146.1876 30.90204,145.70673 C31.76277,145.20987 32.9082,144.93492 34.12188,144.93492 C35.33556,144.93492 36.47826,145.20987 37.33314,145.70673 C38.19075,146.20515 38.65914,146.8662 38.65524,147.56937 C38.65329,148.27371 38.1732,148.93515 37.31247,149.43201 C36.45135,149.92887 35.3145,150.20382 34.10238,150.20382 M67.12134,150.111 L63.38319,147.9387 L65.46189,146.73867 L69.20004,148.91097 L67.12134,150.111 M69.46329,148.75887 L62.08215,144.46926 L62.10789,144.45405 L69.55455,146.40366 L71.54199,147.55845 L69.46329,148.75887 M25.32543,146.69265 L24.58833,146.26443 L38.45088,138.26085 L39.46839,138.52722 L25.32543,146.69265 M41.67189,145.83231 C41.66955,145.83231 41.66682,145.83231 41.66448,145.83231 C41.66175,145.83231 41.65902,145.83231 41.65668,145.83231 C40.44339,145.83231 39.3042,145.55775 38.45049,145.06167 C37.56285,144.5457 37.09485,143.86047 37.13151,143.13039 C37.16544,142.45296 37.64358,141.81453 38.47389,141.33483 C39.33462,140.83797 40.48005,140.56341 41.69412,140.56341 C42.90741,140.56341 44.05011,140.83797 44.90538,141.33483 C45.7626,141.83364 46.23099,142.49469 46.22709,143.19786 C46.22553,143.90181 45.74505,144.56364 44.88432,145.06011 C44.0232,145.55775 42.88518,145.83231 41.67189,145.83231 M23.7354,145.76874 L22.99635,145.33896 L34.95882,138.43245 L37.23369,137.97537 L23.7354,145.76874 M22.14342,144.84366 L21.40632,144.41505 L30.06705,139.41486 L32.3349,138.95934 L22.14342,144.84366 M20.55339,143.91936 L19.81629,143.49114 L25.17489,140.39727 L27.44274,139.94175 L20.55339,143.91936 M18.47703,142.7127 L17.23644,141.99198 L21.05298,141.22524 L18.47703,142.7127 M49.24647,141.46041 C49.24296,141.46041 49.23945,141.46041 49.23633,141.46041 C49.23321,141.46041 49.2297,141.46041 49.22658,141.46041 C48.01407,141.46041 46.878,141.18429 46.02507,140.6886 C45.68343,140.49009 45.40341,140.26662 45.19086,140.02521 L50.36499,141.38007 C50.00385,141.43311 49.62906,141.46041 49.24647,141.46041" id="Fill-43" fill="#536CA5"></path>
                        <path d="M49.63452,138.119347 C49.46721,138.010647 49.26519,137.999733 49.13454,138.084423 C49.00155,138.170422 49.01481,138.305751 49.17939,138.413142 C49.34865,138.522714 49.5534,138.529263 49.68405,138.445009 C49.80963,138.363375 49.79871,138.2263 49.63452,138.119347 M48.86349,137.911115 C49.1829,137.704192 49.63881,137.722527 49.94457,137.921592 C50.24565,138.1176 50.26983,138.411832 49.95276,138.616572 C49.63569,138.821748 49.17978,138.806469 48.87636,138.60915 C48.57489,138.413142 48.53901,138.120656 48.86349,137.911115" id="Fill-44" fill="#6D5896"></path>
                        <path d="M49.17939,138.34392 C49.34865,138.44181 49.5534,138.44766 49.68405,138.37239 C49.80963,138.29946 49.79871,138.177 49.63452,138.08145 C49.46721,137.98434 49.26519,137.97459 49.13454,138.05025 C49.00155,138.12708 49.01481,138.24798 49.17939,138.34392" id="Fill-45" fill="#FDF0F3"></path>
                        <polyline id="Fill-46" fill="#6D5896" points="47.65254 138.61887 47.32377 138.80841 50.93244 139.18437 51.26121 138.99444 47.65254 138.61887"></polyline>
                        <path d="M49.42431,139.46439 C49.25505,139.36611 49.05264,139.35675 48.91536,139.43592 C48.78939,139.50885 48.80031,139.63131 48.96723,139.72842 C49.13376,139.82514 49.33383,139.83333 49.46682,139.75689 C49.60215,139.6785 49.58889,139.56033 49.42431,139.46439" id="Fill-47" fill="#FDF0F3"></path>
                        <path d="M46.63854,140.33448 L46.02507,140.6886 C46.88034,141.18585 48.02031,141.46197 49.23633,141.46041 C50.45235,141.46197 51.59349,141.18702 52.45617,140.6886 C53.31924,140.19018 53.79738,139.53069 53.79894,138.82596 C53.80518,138.12162 53.33484,137.46174 52.47723,136.96332 C51.62196,136.46646 50.48199,136.19034 49.26597,136.19151 C48.05229,136.19151 46.9092,136.4649 46.04574,136.96332 L46.65531,137.31783 C47.35302,136.91457 48.27966,136.69383 49.26324,136.69266 C50.24643,136.69383 51.17073,136.91457 51.86376,137.31783 C52.55679,137.72031 52.93509,138.25617 52.93431,138.82596 C52.92846,139.39575 52.54431,139.932 51.8466,140.33448 C51.14928,140.73696 50.22264,140.95809 49.23906,140.95965 C48.25548,140.95809 47.33157,140.73696 46.63854,140.33448" id="Fill-48" fill="#6D5896"></path>
                        <polyline id="Fill-49" fill="#6D5896" points="16.887 141.78918 18.47703 142.7127 40.88487 129.77562 39.29523 128.85171 16.887 141.78918"></polyline>
                        <path d="M41.63523,142.69944 C41.80449,142.79772 42.0069,142.80435 42.13755,142.72908 C42.26586,142.65498 42.25494,142.53252 42.09036,142.43697 C41.92344,142.33986 41.72142,142.33011 41.59077,142.40577 C41.45505,142.48416 41.47065,142.6035 41.63523,142.69944" id="Fill-50" fill="#FDF0F3"></path>
                        <path d="M39.0663,144.70599 C38.34792,144.28869 37.96962,143.73372 37.99653,143.14365 C38.025,142.5957 38.40915,142.07856 39.08346,141.68934 C39.78078,141.28647 40.70742,141.06573 41.691,141.06417 C42.67458,141.06573 43.59888,141.28647 44.29191,141.68934 C44.98494,142.09221 45.36285,142.62807 45.36207,143.19786 C45.35661,143.76765 44.97207,144.30351 44.27475,144.70599 C43.57743,145.10886 42.65079,145.32999 41.66721,145.33116 C40.68129,145.33116 39.75933,145.10886 39.0663,144.70599" id="Fill-51" fill="#FDF0F3"></path>
                        <path d="M41.88015,143.8203 C41.71128,143.72163 41.50887,143.71227 41.3712,143.79144 C41.24289,143.86593 41.25615,143.98683 41.42307,144.08394 C41.58999,144.18066 41.78967,144.18885 41.92266,144.11241 C42.05565,144.03519 42.04473,143.91585 41.88015,143.8203" id="Fill-52" fill="#FDF0F3"></path>
                        <polyline id="Fill-53" fill="#6D5896" points="21.40632 144.41505 22.14342 144.84366 44.55126 131.90619 43.81455 131.47797 21.40632 144.41505"></polyline>
                        <polyline id="Fill-54" fill="#6D5896" points="22.99635 145.33896 23.7354 145.76874 46.14363 132.83127 45.40419 132.40149 22.99635 145.33896"></polyline>
                        <path d="M38.47389,141.33483 L39.08346,141.68934 C38.40915,142.07856 38.025,142.5957 37.99653,143.14365 C37.96962,143.73372 38.34792,144.28869 39.0663,144.70599 C38.34792,144.28869 37.96962,143.73372 37.99653,143.14365 C38.025,142.5957 38.40915,142.07856 39.08346,141.68934 C39.78078,141.28647 40.70742,141.06573 41.691,141.06417 C42.67458,141.06573 43.59888,141.28647 44.29191,141.68934 C44.98455,142.09221 45.36285,142.62807 45.36207,143.19786 C45.35661,143.76765 44.97207,144.30351 44.27475,144.70599 L44.88432,145.06011 C44.02125,145.55892 42.8805,145.83348 41.66448,145.83231 C40.44807,145.83348 39.30576,145.55892 38.45049,145.06167 C39.30576,145.55892 40.44807,145.83348 41.66448,145.83231 C42.8805,145.83348 44.02125,145.55892 44.88432,145.06011 C45.74505,144.56364 46.22553,143.90181 46.22709,143.19786 C46.23099,142.49469 45.7626,141.83364 44.90538,141.33483 C44.05011,140.83797 42.9078,140.56341 41.69412,140.56341 C40.48005,140.56341 39.33462,140.83797 38.47389,141.33483" id="Fill-55" fill="#6D5896"></path>
                        <path d="M38.47389,141.33483 C37.64358,141.81453 37.16544,142.45296 37.13151,143.13039 C37.09485,143.86047 37.56285,144.54609 38.45049,145.06167 C39.30576,145.55892 40.44807,145.83348 41.66448,145.83231 C42.8805,145.83348 44.02125,145.55892 44.88432,145.06011 L44.27475,144.70599 C43.57743,145.10886 42.65079,145.32999 41.66721,145.33116 C40.68129,145.33116 39.75933,145.10886 39.0663,144.70599 C38.34792,144.28869 37.96962,143.73372 37.99653,143.14365 C38.025,142.5957 38.40915,142.07856 39.08346,141.68934 L38.47389,141.33483" id="Fill-56" fill="#2ABBE1"></path>
                        <polyline id="Fill-57" fill="#6D5896" points="24.58833 146.26443 25.32543 146.69265 47.73366 133.75518 46.99656 133.32696 24.58833 146.26443"></polyline>
                        <path d="M34.09146,147.05457 C34.26072,147.15324 34.46274,147.15987 34.59339,147.0846 C34.7217,147.0105 34.70844,146.88921 34.54386,146.79366 C34.37694,146.69694 34.17492,146.68719 34.04427,146.76246 C33.91128,146.83968 33.92688,146.95902 34.09146,147.05457" id="Fill-58" fill="#FDF0F3"></path>
                        <path d="M31.49445,149.07789 C30.77607,148.66059 30.39777,148.10562 30.42429,147.51555 C30.45315,146.9676 30.8373,146.45046 31.51161,146.06124 C32.20893,145.65798 33.13557,145.43724 34.11915,145.43607 C35.10273,145.43724 36.02664,145.65798 36.71967,146.06124 C37.4127,146.46372 37.791,146.99958 37.79022,147.56937 C37.78476,148.13916 37.40022,148.67541 36.7029,149.07789 C36.00519,149.48037 35.07621,149.70306 34.09497,149.70306 C33.10905,149.70306 32.18748,149.48037 31.49445,149.07789" id="Fill-59" fill="#FDF0F3"></path>
                        <path d="M34.33404,148.1766 C34.16478,148.07832 33.96237,148.06896 33.82704,148.14696 C33.69873,148.22145 33.71004,148.34391 33.87657,148.44063 C34.04349,148.53774 34.24356,148.54593 34.37889,148.46793 C34.51188,148.39071 34.49823,148.27254 34.33404,148.1766" id="Fill-60" fill="#FDF0F3"></path>
                        <polyline id="Fill-61" fill="#2ABBE1" points="62.08215 144.46926 69.46329 148.75887 71.54199 147.55845 64.16046 143.26923 62.08215 144.46926"></polyline>
                        <path d="M30.90204,145.70673 L31.51161,146.06124 C30.8373,146.45046 30.45315,146.9676 30.42429,147.51555 C30.39777,148.10562 30.77607,148.66059 31.49445,149.07789 C30.77607,148.66059 30.39777,148.10562 30.42429,147.51555 C30.45315,146.9676 30.8373,146.45046 31.51161,146.06124 C32.20893,145.65798 33.13557,145.43724 34.11915,145.43607 C35.10273,145.43724 36.02664,145.65798 36.71967,146.06124 L37.33353,145.70673 C36.47826,145.20987 35.33556,144.93492 34.12188,144.93492 C32.9082,144.93492 31.76277,145.20987 30.90204,145.70673" id="Fill-62" fill="#6D5896"></path>
                        <polyline id="Fill-63" fill="#E0517A" points="63.38319 147.9387 67.12134 150.111 69.20004 148.91097 65.46189 146.73867 63.38319 147.9387"></polyline>
                        <polyline id="Fill-64" fill="#2ABBE1" points="59.60994 151.17219 62.43744 152.81526 64.51575 151.61562 61.68825 149.97216 59.60994 151.17219"></polyline>
                        <polyline id="Fill-65" fill="#6D5896" points="38.06283 154.09446 38.79954 154.52307 61.20777 141.5856 60.47067 141.15738 38.06283 154.09446"></polyline>
                        <polyline id="Fill-66" fill="#6D5896" points="40.15518 155.31087 40.89267 155.73909 63.30051 142.80162 62.56341 142.37379 40.15518 155.31087"></polyline>
                        <polyline id="Fill-67" fill="#6D5896" points="44.34612 156.38181 45.08322 156.81003 55.61556 150.72915 54.87846 150.30093 44.34612 156.38181"></polyline>
                        <polyline id="Fill-68" fill="#6D5896" points="46.10541 157.404 46.84212 157.83222 57.37446 151.75134 56.63775 151.32312 46.10541 157.404"></polyline>
                        <polyline id="Fill-69" fill="#6D5896" points="47.86197 158.42502 48.59907 158.85285 59.13141 152.77236 58.39431 152.34414 47.86197 158.42502"></polyline>
                        <polyline id="Fill-70" fill="#6D5896" points="49.36815 159.30018 50.10564 159.72879 60.63759 153.64791 59.90049 153.2193 49.36815 159.30018"></polyline>
                        <path d="M62.43744,152.81526 L64.51575,151.61523 L61.68825,149.97216 L59.60994,151.17219 L62.43744,152.81526 M50.10564,159.7284 L60.63759,153.64791 L59.90049,153.2193 L49.36815,159.30018 L50.10564,159.7284 M48.59907,158.85285 L59.13141,152.77236 L58.39431,152.34414 L47.86197,158.42463 L48.59907,158.85285 M45.08322,156.81003 L55.61556,150.72915 L54.87846,150.30093 L44.34612,156.38142 L45.08322,156.81003 M46.84212,157.83222 L57.37446,151.75134 L56.63775,151.32312 L46.10541,157.404 L46.84212,157.83222 M67.12134,150.111 L69.20004,148.91097 L65.46189,146.73867 L63.38319,147.9387 L67.12134,150.111 M64.77939,151.46313 L66.8577,150.2631 L61.29786,147.03234 L59.21955,148.23198 L64.77939,151.46313 M69.46329,148.75887 L71.54199,147.55845 L64.16046,143.26884 L62.08215,144.46926 L69.46329,148.75887 M36.53988,153.20994 L58.94811,140.27247 L58.21101,139.84425 L35.80317,152.78172 L36.53988,153.20994 M38.79954,154.52307 L61.20777,141.5856 L60.47067,141.15738 L38.06283,154.09446 L38.79954,154.52307 M40.89228,155.73909 L63.30051,142.80162 L62.56341,142.3734 L40.15518,155.31087 L40.89228,155.73909 M25.32543,146.69265 L47.73366,133.75518 L46.99656,133.32696 L24.58833,146.26443 L25.32543,146.69265 M22.14342,144.84366 L44.55126,131.90619 L43.81455,131.47797 L21.40632,144.41505 L22.14342,144.84366 M20.55339,143.91936 L42.96162,130.98228 L42.22452,130.55406 L19.81629,143.49114 L20.55339,143.91936 M23.7354,145.76874 L46.14363,132.83127 L45.40419,132.40149 L22.99635,145.33896 L23.7354,145.76874 M18.47703,142.7127 L40.88487,129.77562 L39.29523,128.85171 L16.887,141.78879 L18.47703,142.7127 M52.47723,136.96332 C51.62196,136.46646 50.48199,136.19034 49.26597,136.19151 C48.05229,136.19151 46.9092,136.4649 46.04574,136.96332 C45.21543,137.44263 44.73768,138.08145 44.70336,138.75849 C44.6667,139.48857 45.13743,140.17263 46.02507,140.6886 C46.88034,141.18585 48.02031,141.46197 49.23633,141.46041 C50.45235,141.46197 51.59349,141.18702 52.45617,140.6886 C53.31924,140.19018 53.79738,139.5303 53.79894,138.82596 C53.80518,138.12162 53.33484,137.46174 52.47723,136.96332 M37.33314,145.70673 C36.47826,145.20987 35.33556,144.93492 34.12188,144.93492 C32.9082,144.93492 31.76277,145.20987 30.90204,145.70673 C30.06939,146.1876 29.59359,146.82486 29.55927,147.5019 C29.523,148.23198 29.991,148.9176 30.87864,149.43318 C31.73586,149.9316 32.87622,150.20538 34.09224,150.20382 C35.30826,150.20538 36.44901,149.93043 37.31247,149.43201 C38.1732,148.93515 38.65329,148.27371 38.65524,147.56937 C38.65914,146.8662 38.19075,146.20515 37.33314,145.70673 M44.90538,141.33483 C44.05011,140.83797 42.90741,140.56341 41.69412,140.56341 C40.48005,140.56341 39.33462,140.83797 38.47389,141.33483 C37.64358,141.81453 37.16544,142.45296 37.13151,143.13039 C37.09485,143.86047 37.56285,144.5457 38.45049,145.06167 C39.30576,145.55892 40.44807,145.83348 41.66448,145.83231 C42.8805,145.83348 44.02125,145.55892 44.88432,145.06011 C45.74505,144.56364 46.22553,143.90181 46.22709,143.19786 C46.23099,142.49469 45.7626,141.83364 44.90538,141.33483 M76.45131,148.20897 L50.27334,163.32303 L13.44993,141.92334 L39.62751,126.80967 L76.45131,148.20897" id="Fill-71" fill="#FDF0F3"></path>
                        <path d="M46.04574,136.96332 C45.21543,137.44302 44.73768,138.08145 44.70375,138.75849 C44.6667,139.48857 45.13743,140.17263 46.02507,140.6886 L46.63854,140.33448 C45.92016,139.91718 45.54186,139.36221 45.57072,138.77058 C45.59919,138.22263 45.98373,137.70549 46.65531,137.31783 L46.04574,136.96332" id="Fill-72" fill="#E0517A"></path>
                        <path d="M52.93431,138.82596 C52.93509,138.25656 52.55679,137.72031 51.86376,137.31783 C51.17073,136.91457 50.24682,136.69383 49.26324,136.69266 C48.27966,136.69383 47.35302,136.91457 46.65531,137.31783 C45.98373,137.70549 45.59958,138.22263 45.57072,138.77058 C45.54186,139.36221 45.92016,139.91718 46.63854,140.33448 C47.33157,140.73696 48.25548,140.95809 49.23906,140.95965 C50.22264,140.95809 51.14928,140.73696 51.8466,140.33448 C52.54431,139.932 52.92846,139.39575 52.93431,138.82596" id="Fill-73" fill="#FDF0F3"></path>
                        <polyline id="Fill-74" fill="#6D5896" points="19.81629 143.49114 20.55339 143.91936 42.96162 130.98228 42.22452 130.55406 19.81629 143.49114"></polyline>
                        <path d="M30.90204,145.70673 C30.06939,146.1876 29.59359,146.82486 29.55966,147.5019 C29.523,148.23198 29.991,148.9176 30.87864,149.43318 C31.73586,149.9316 32.87622,150.20538 34.09224,150.20382 C35.30826,150.20538 36.44901,149.93043 37.31208,149.43201 C38.1732,148.93515 38.65329,148.27371 38.65524,147.56937 C38.65914,146.8662 38.19075,146.20515 37.33353,145.70673 L36.71967,146.06124 C37.4127,146.46372 37.791,146.99997 37.79022,147.56937 C37.78476,148.13916 37.40022,148.67541 36.7029,149.07789 C36.00519,149.48037 35.07621,149.70306 34.09497,149.70306 C33.10905,149.70306 32.18748,149.48037 31.49445,149.07789 C30.77607,148.66059 30.39777,148.10562 30.42429,147.51555 C30.45315,146.9676 30.8373,146.45046 31.51161,146.06124 L30.90204,145.70673" id="Fill-75" fill="#2ABBE1"></path>
                        <polyline id="Fill-76" fill="#2ABBE1" points="59.21955 148.23198 64.77939 151.46313 66.8577 150.2631 61.29786 147.03234 59.21955 148.23198"></polyline>
                        <polyline id="Fill-77" fill="#6D5896" points="35.80317 152.78172 36.53988 153.20994 58.94811 140.27247 58.21101 139.84425 35.80317 152.78172"></polyline>
                        <path d="M74.79186,131.62188 L43.3641,117.89349 C44.24901,117.21294 44.75055,116.43567 44.75055,115.61043 C44.75055,114.34332 43.56729,113.18931 41.62977,112.32468 L49.67508,107.89506 L49.68795,116.4267 C49.68873,116.85102 49.91493,117.24297 50.28231,117.45513 L74.79186,131.62188" id="Fill-78" fill="#6174AA"></path>
                        <path d="M32.91171,120.46788 C26.37336,120.46788 21.07287,118.29285 21.07287,115.61043 C21.07287,112.9284 26.37336,110.75337 32.91171,110.75337 C36.36126,110.75337 39.46605,111.35865 41.62977,112.32468 L36.75711,115.00749 L43.3641,117.89349 C41.37237,119.42502 37.43883,120.46788 32.91171,120.46788" id="Fill-80" fill="#6174AA"></path>
                        <path d="M43.3641,117.89349 L36.75711,115.00749 L41.62977,112.32468 C43.56729,113.18931 44.75055,114.34332 44.75055,115.61043 C44.75055,116.43567 44.24901,117.21294 43.3641,117.89349" id="Fill-81" fill="#556CA5"></path>
                        <path d="M39.25155,99.75537 L29.59671,102.99822 L29.59671,115.1475 C29.59671,117.60723 32.86959,119.60052 36.90687,119.60052 C40.94376,119.60052 44.21664,117.60723 44.21664,115.1475 L44.21664,102.99822 L39.25155,99.75537" id="Fill-82" fill="#FDF0F3"></path>
                        <path d="M44.21664,102.99822 C44.21664,105.45756 40.94415,107.45124 36.90687,107.45124 C32.86959,107.45124 29.59671,105.45756 29.59671,102.99822 C29.59671,100.53888 32.86959,98.5452 36.90687,98.5452 C40.94415,98.5452 44.21664,100.53888 44.21664,102.99822" id="Fill-83" fill="#C39FBF"></path>
                        <path d="M30.68364,105.33432 C31.97103,106.60455 34.27632,107.45124 36.90687,107.45124 C39.53742,107.45124 41.84232,106.60455 43.1301,105.33432 C43.21902,105.07614 43.26621,104.80899 43.26621,104.53482 C43.26621,102.39528 40.41921,100.66056 36.90687,100.66056 C33.39453,100.66056 30.54714,102.39528 30.54714,104.53482 C30.54714,104.80899 30.59472,105.07614 30.68364,105.33432" id="Fill-84" fill="#732A38"></path>
                        <path d="M36.90687,98.5452 C32.86959,98.5452 29.59671,100.53888 29.59671,102.99822 C29.59671,105.45756 32.86959,107.45124 36.90687,107.45124 C40.94415,107.45124 44.21664,105.45756 44.21664,102.99822 C44.21664,100.53888 40.94415,98.5452 36.90687,98.5452 Z M36.90687,99.05727 C40.59159,99.05727 43.70457,100.8618 43.70457,102.99822 C43.70457,105.13425 40.59159,106.93917 36.90687,106.93917 C33.22215,106.93917 30.10878,105.13425 30.10878,102.99822 C30.10878,100.8618 33.22215,99.05727 36.90687,99.05727 Z" id="Fill-85" fill="#ABA9B6"></path>
                        <path d="M43.11996,82.48149 C42.50844,83.78214 42.49986,85.27389 42.50337,86.71065 C42.50688,88.32525 42.51078,89.93985 42.51429,91.55445 C42.51858,93.39291 42.51897,95.25945 42.0186,97.02888 C41.51784,98.79792 40.44105,100.48779 38.79408,101.30562 C37.9782,101.71044 36.95289,101.86761 36.18147,101.38362 C35.83944,101.16873 35.57814,100.84737 35.36091,100.50729 C33.5049,97.59828 35.22168,93.68931 36.55587,90.89652 C38.10144,87.66186 40.34706,84.75753 43.11996,82.48149" id="Fill-86" fill="#016151"></path>
                        <path d="M29.24181,95.75904 C28.78356,89.72769 29.09283,83.58285 27.61356,77.71764 C31.64382,82.61994 33.60786,89.16804 32.94174,95.47902 C34.27749,91.31031 35.62689,87.05541 35.60271,82.67805 C35.59062,80.5857 36.87801,75.64713 36.87801,75.64713 C36.87801,75.64713 37.63578,80.37198 38.33271,82.66869 C38.80773,84.2361 38.90445,85.88931 38.99766,87.52458 C39.13377,89.9106 39.27027,92.29623 39.40638,94.68186 C41.3907,88.68366 46.70484,80.41605 46.70484,80.41605 C46.70484,80.41605 44.7486,96.17829 43.71159,99.78423 C42.53457,103.87533 38.70594,106.65681 34.32,105.68961 C30.3303,104.80938 29.49375,99.07326 29.24181,95.75904" id="Fill-87" fill="#008C74"></path>
                        <path d="M32.35596,101.70342 C31.52136,99.41061 32.29668,96.89121 32.81772,94.50753 C33.4386,91.66599 33.68469,88.69302 33.05172,85.8546 C35.15031,90.28578 36.99774,94.8363 38.58153,99.47691 C38.99103,100.67694 39.38493,101.98149 38.99571,103.18815 C38.62872,104.32539 36.57264,106.33506 35.20881,105.99888 C34.13631,105.73407 32.72178,102.70923 32.35596,101.70342" id="Fill-88" fill="#00A68D"></path>
                        <path d="M51.60675,72.34812 L93.93423,48.10065 C94.69473,47.66502 95.68182,47.45754 96.53592,47.6541 C97.73556,47.93061 98.86032,48.30813 98.85759,49.3584 L98.92194,88.70082 L95.19783,90.9012 C96.41658,91.49439 133.57149,109.57869 133.63272,109.62315 L133.72242,111.14103 C133.72242,111.79584 133.3761,112.39956 132.80943,112.72794 C126.4848,116.39121 89.43597,137.80845 89.43597,137.80845 C88.21683,138.51318 86.71455,138.51318 85.4958,137.80845 L50.28231,117.45513 C49.91493,117.24297 49.68873,116.85102 49.68795,116.4267 L49.62672,75.75438 C49.63023,74.34648 50.38527,73.04778 51.60675,72.34812" id="Fill-95" fill="#513B78"></path>
                        <path d="M98.95899,88.85721 L99.05805,49.60137 C99.06117,48.46725 97.83579,47.75511 96.85182,48.31866 L52.50999,73.72014 C51.54435,74.27316 50.94804,75.29964 50.94492,76.41192 L50.87394,116.29332 L98.95899,88.85721 Z" id="Fill-96" fill="#3A2C55"></path>
                        <polyline id="Fill-97" fill="#3A2C55" points="97.07997 50.59782 53.05833 75.86553 52.96668 112.82232 97.07997 87.49923 97.07997 50.59782"></polyline>
                        <path d="M50.90163,116.2902 L98.96133,88.57407 L132.94905,108.21759 C133.93107,108.78543 133.93068,110.2023 132.94905,110.76936 L88.70355,136.33854 C87.74025,136.89546 86.55309,136.89546 85.5894,136.33854 L50.90163,116.2902" id="Fill-98" fill="#FDF0F3"></path>
                        <path d="M64.20297,117.14274 C63.24591,117.69225 62.76738,117.9672 61.81032,118.5171 C60.84234,117.96954 60.35874,117.69615 59.39115,117.14937 C60.34821,116.59986 60.82674,116.32491 61.7838,115.77501 C62.75139,116.32257 63.23538,116.59596 64.20297,117.14274" id="Fill-99" fill="#513B78"></path>
                        <path d="M67.73481,115.11474 C66.77775,115.66425 66.29922,115.9392 65.34216,116.48871 C64.37457,115.94154 63.89058,115.66815 62.92299,115.12137 C63.88005,114.57147 64.35858,114.29652 65.31564,113.74701 C66.28362,114.29418 66.76722,114.56757 67.73481,115.11474" id="Fill-100" fill="#513B78"></path>
                        <path d="M71.26704,113.08635 C70.30998,113.63586 69.83145,113.91081 68.874,114.46032 C67.90641,113.91354 67.42242,113.64015 66.45483,113.09298 C67.41228,112.54308 67.89081,112.26852 68.84787,111.71901 C69.81546,112.26579 70.29945,112.53957 71.26704,113.08635" id="Fill-101" fill="#513B78"></path>
                        <path d="M74.79927,111.05835 C73.84182,111.60786 73.36329,111.88281 72.40623,112.43232 C71.43864,111.88554 70.95465,111.61176 69.98706,111.06459 C70.94412,110.51508 71.42265,110.24013 72.3801,109.69062 C73.34769,110.2374 73.83168,110.51079 74.79927,111.05835" id="Fill-102" fill="#513B78"></path>
                        <path d="M78.3315,109.02957 C77.37444,109.57947 76.89552,109.85442 75.93846,110.40393 C74.97048,109.85715 74.48688,109.58337 73.51929,109.03659 C74.47635,108.48669 74.95488,108.21213 75.91194,107.66223 C76.87992,108.2094 77.36391,108.48279 78.3315,109.02957" id="Fill-103" fill="#513B78"></path>
                        <path d="M81.86373,107.00118 C80.90628,107.55108 80.42775,107.82603 79.47069,108.37554 C78.5031,107.82837 78.01911,107.55498 77.05152,107.0082 C78.00858,106.45869 78.4875,106.18374 79.44456,105.63384 C80.41215,106.18101 80.89614,106.4544 81.86373,107.00118" id="Fill-104" fill="#513B78"></path>
                        <path d="M85.39596,104.97318 C84.43851,105.52269 83.95998,105.79764 83.00292,106.34754 C82.03533,105.80037 81.55134,105.52659 80.58375,104.97981 C81.54081,104.4303 82.01934,104.15496 82.97679,103.60545 C83.94438,104.15262 84.42798,104.42601 85.39596,104.97318" id="Fill-105" fill="#513B78"></path>
                        <path d="M88.92819,102.94479 C87.97074,103.4943 87.49221,103.76925 86.53515,104.31876 C85.56756,103.77198 85.08357,103.49859 84.11598,102.95142 C85.07304,102.40152 85.55157,102.12696 86.50902,101.57706 C87.47661,102.12423 87.9606,102.39801 88.92819,102.94479" id="Fill-106" fill="#513B78"></path>
                        <path d="M92.46042,100.9164 C91.50336,101.4663 91.02444,101.74086 90.06738,102.29037 C89.0994,101.74359 88.6158,101.4702 87.64821,100.92303 C88.60527,100.37352 89.0838,100.09857 90.04125,99.54906 C91.00884,100.09584 91.49283,100.36923 92.46042,100.9164" id="Fill-107" fill="#513B78"></path>
                        <path d="M95.99226,98.8884 C95.0352,99.43791 94.55667,99.71286 93.59961,100.26237 C92.63202,99.71559 92.14803,99.44181 91.18005,98.89464 C92.1375,98.34513 92.61603,98.07018 93.57309,97.52067 C94.54107,98.06784 95.02467,98.34123 95.99226,98.8884" id="Fill-108" fill="#513B78"></path>
                        <path d="M99.5241,96.86001 C98.56704,97.40952 98.0889,97.68447 97.13145,98.23437 C96.16386,97.68681 95.67987,97.41342 94.71228,96.86664 C95.66973,96.31674 96.14826,96.04218 97.10532,95.49267 C98.07291,96.03945 98.55651,96.31323 99.5241,96.86001" id="Fill-109" fill="#513B78"></path>
                        <path d="M103.05633,94.83201 C102.09927,95.38152 101.62035,95.65608 100.66329,96.20598 C99.6957,95.65881 99.2121,95.38542 98.24412,94.83825 C99.20118,94.28874 99.6801,94.01418 100.63716,93.46428 C101.60436,94.01145 102.08874,94.28484 103.05633,94.83201" id="Fill-110" fill="#513B78"></path>
                        <path d="M67.5987,119.06232 C66.64164,119.61183 66.16311,119.88678 65.20566,120.43668 C64.23807,119.88912 63.75408,119.61573 62.78649,119.06895 C63.74355,118.51944 64.22208,118.2441 65.17914,117.69459 C66.14673,118.24176 66.63111,118.51554 67.5987,119.06232" id="Fill-111" fill="#513B78"></path>
                        <path d="M71.13054,117.03432 C70.17348,117.58383 69.69495,117.85839 68.7375,118.40829 C67.76991,117.86112 67.28592,117.58773 66.31833,117.04056 C67.27539,116.49066 67.75392,116.2161 68.71137,115.66659 C69.67896,116.21337 70.16295,116.48715 71.13054,117.03432" id="Fill-112" fill="#513B78"></path>
                        <path d="M74.66277,115.00593 C73.70532,115.55544 73.22679,115.83039 72.26973,116.3799 C71.30214,115.83312 70.81776,115.55973 69.85017,115.01217 C70.80762,114.46266 71.28615,114.18771 72.24321,113.6382 C73.21119,114.18537 73.69479,114.45876 74.66277,115.00593" id="Fill-113" fill="#513B78"></path>
                        <path d="M78.195,112.97793 C77.23755,113.52744 76.75902,113.80239 75.80196,114.3519 C74.83398,113.80473 74.34999,113.53095 73.3824,112.98417 C74.33946,112.43466 74.81799,112.15971 75.77544,111.6102 C76.74303,112.15698 77.22702,112.43037 78.195,112.97793" id="Fill-114" fill="#513B78"></path>
                        <path d="M81.72723,110.94915 C80.76978,111.49905 80.29125,111.774 79.3338,112.32351 C78.36621,111.77634 77.88222,111.50295 76.91463,110.95578 C77.87169,110.40627 78.35022,110.13132 79.30767,109.58181 C80.27526,110.12859 80.75925,110.40237 81.72723,110.94915" id="Fill-115" fill="#513B78"></path>
                        <path d="M85.25946,108.92076 C84.30201,109.47066 83.82348,109.74522 82.86642,110.29512 C81.89844,109.74795 81.41445,109.47456 80.44686,108.92778 C81.40431,108.37788 81.88284,108.10332 82.8399,107.55303 C83.80788,108.10059 84.29148,108.37398 85.25946,108.92076" id="Fill-116" fill="#513B78"></path>
                        <path d="M88.7913,106.89276 C87.83424,107.44227 87.35571,107.71722 86.39865,108.26673 C85.43067,107.71956 84.94668,107.44617 83.97909,106.89939 C84.93615,106.3491 85.41507,106.07454 86.37213,105.52503 C87.33972,106.07181 87.82371,106.34559 88.7913,106.89276" id="Fill-117" fill="#513B78"></path>
                        <path d="M92.32392,104.86437 C91.36647,105.41388 90.88794,105.68883 89.93088,106.23834 C88.9629,105.69156 88.47891,105.41778 87.51132,104.87061 C88.46838,104.3211 88.9473,104.04615 89.90436,103.49664 C90.87195,104.04342 91.35594,104.3172 92.32392,104.86437" id="Fill-118" fill="#513B78"></path>
                        <path d="M95.85615,102.83598 C94.8987,103.38588 94.42017,103.66044 93.46272,104.20995 C92.49513,103.66317 92.01114,103.38978 91.04355,102.84222 C92.00061,102.29271 92.47914,102.01815 93.43659,101.46825 C94.40457,102.01542 94.88817,102.28881 95.85615,102.83598" id="Fill-119" fill="#513B78"></path>
                        <path d="M99.38799,100.80759 C98.43093,101.35749 97.95201,101.63244 96.99534,102.18195 C96.02736,101.63478 95.54337,101.361 94.57539,100.81422 C95.53284,100.26471 96.01137,99.98976 96.96843,99.44025 C97.93641,99.98703 98.42001,100.26081 99.38799,100.80759" id="Fill-120" fill="#513B78"></path>
                        <path d="M102.91983,98.77959 C101.96277,99.3291 101.48424,99.60405 100.52718,100.15356 C99.5592,99.60639 99.0756,99.333 98.10801,98.78583 C99.06507,98.23632 99.54321,97.96176 100.50027,97.41186 C101.46825,97.95903 101.95224,98.23242 102.91983,98.77959" id="Fill-121" fill="#513B78"></path>
                        <path d="M106.45167,96.75159 C104.84721,97.67277 104.04459,98.13375 102.44013,99.05493 C101.47215,98.50815 100.98816,98.23476 100.02057,97.68759 C101.62542,96.76602 102.42765,96.30543 104.0325,95.38386 C105.00009,95.93103 105.48408,96.20442 106.45167,96.75159" id="Fill-122" fill="#513B78"></path>
                        <path d="M72.57549,120.07398 C70.98585,120.98697 70.19103,121.44327 68.60139,122.35587 C67.6338,121.8087 67.14981,121.53531 66.18222,120.98853 C67.77147,120.07554 68.56629,119.61924 70.15593,118.70625 C71.12352,119.25342 71.60751,119.52681 72.57549,120.07398" id="Fill-123" fill="#513B78"></path>
                        <path d="M74.52627,118.9539 C73.56921,119.50341 73.09068,119.77836 72.13362,120.32787 C71.16564,119.7807 70.68165,119.50731 69.71406,118.96014 C70.67112,118.41024 71.14965,118.13568 72.10671,117.58617 C73.07469,118.13295 73.55868,118.40634 74.52627,118.9539" id="Fill-124" fill="#513B78"></path>
                        <path d="M78.0585,116.92551 C77.10105,117.47541 76.62252,117.74997 75.66546,118.29948 C74.69748,117.7527 74.21388,117.47931 73.2459,116.93175 C74.20296,116.38224 74.68188,116.10768 75.63894,115.55778 C76.60653,116.10495 77.09052,116.37834 78.0585,116.92551" id="Fill-125" fill="#513B78"></path>
                        <path d="M81.59073,114.89712 C80.63328,115.44702 80.15475,115.72197 79.1973,116.27148 C78.22971,115.72431 77.74572,115.45053 76.77813,114.90375 C77.73519,114.35424 78.21372,114.07929 79.17117,113.52978 C80.13876,114.07656 80.62275,114.34995 81.59073,114.89712" id="Fill-126" fill="#513B78"></path>
                        <path d="M85.12296,112.86873 C84.16551,113.41863 83.68698,113.69319 82.72953,114.24309 C81.76194,113.69592 81.27795,113.42253 80.31036,112.87536 C81.26742,112.32585 81.74595,112.0509 82.7034,111.501 C83.67099,112.04817 84.15498,112.32195 85.12296,112.86873" id="Fill-127" fill="#513B78"></path>
                        <path d="M88.65519,110.84034 C87.69774,111.39024 87.21921,111.6648 86.26215,112.2147 C85.29417,111.66753 84.81018,111.39414 83.8422,110.84697 C84.79965,110.29707 85.27818,110.02251 86.23563,109.47261 C87.20322,110.02017 87.68721,110.29356 88.65519,110.84034" id="Fill-128" fill="#513B78"></path>
                        <path d="M92.18703,108.81234 C91.22997,109.36185 90.75144,109.6368 89.79399,110.18631 C88.8264,109.63953 88.34241,109.36575 87.37482,108.81858 C88.33188,108.26907 88.81041,107.99412 89.76786,107.44461 C90.73545,107.99139 91.21944,108.26517 92.18703,108.81234" id="Fill-129" fill="#513B78"></path>
                        <path d="M95.71965,106.78395 C94.7622,107.33346 94.28367,107.60841 93.32661,108.15792 C92.35863,107.61114 91.87464,107.33775 90.90705,106.79019 C91.86411,106.24068 92.34264,105.96573 93.30009,105.41622 C94.26768,105.963 94.75167,106.23678 95.71965,106.78395" id="Fill-130" fill="#513B78"></path>
                        <path d="M99.25149,104.75556 C98.29443,105.30546 97.8159,105.58002 96.85845,106.12992 C95.89086,105.58275 95.40687,105.30897 94.43928,104.7618 C95.39634,104.21229 95.87487,103.93773 96.83232,103.38783 C97.79991,103.935 98.2839,104.20839 99.25149,104.75556" id="Fill-131" fill="#513B78"></path>
                        <path d="M102.78372,102.72717 C101.82666,103.27707 101.34774,103.55202 100.39068,104.10153 C99.42309,103.55436 98.9391,103.28058 97.97151,102.7338 C98.92857,102.18429 99.40749,101.90934 100.36455,101.35944 C101.33214,101.90661 101.81574,102.18039 102.78372,102.72717" id="Fill-132" fill="#513B78"></path>
                        <path d="M106.31556,100.69917 C105.3585,101.24868 104.87997,101.52324 103.92291,102.07353 C102.95493,101.52597 102.47133,101.25258 101.50374,100.70541 C102.4608,100.1559 102.93894,99.88095 103.896,99.33144 C104.86398,99.87861 105.34797,100.152 106.31556,100.69917" id="Fill-133" fill="#513B78"></path>
                        <path d="M109.8474,98.67117 C108.89034,99.22068 108.41181,99.49524 107.45475,100.04475 C106.48716,99.49797 106.00317,99.22458 105.03519,98.67741 C105.99225,98.12751 106.47117,97.85295 107.42823,97.30344 C108.39582,97.85022 108.87981,98.124 109.8474,98.67117" id="Fill-134" fill="#513B78"></path>
                        <path d="M74.39016,122.90148 C73.4331,123.45099 72.95457,123.72594 71.99712,124.27545 C71.02953,123.72828 70.54554,123.45489 69.57795,122.90772 C70.53501,122.35821 71.01354,122.08326 71.9706,121.53375 C72.93819,122.08053 73.42218,122.35431 74.39016,122.90148" id="Fill-135" fill="#513B78"></path>
                        <path d="M77.922,120.87348 C76.96494,121.42299 76.48641,121.69794 75.52935,122.24745 C74.56137,121.70028 74.07738,121.42689 73.10979,120.87972 C74.06685,120.33021 74.54538,120.05526 75.50244,119.50575 C76.47042,120.05253 76.95402,120.32631 77.922,120.87348" id="Fill-136" fill="#513B78"></path>
                        <path d="M81.45384,118.84509 C80.49678,119.39499 80.01825,119.66955 79.06119,120.21906 C78.09321,119.67228 77.60961,119.3985 76.64163,118.85133 C77.59908,118.30182 78.07761,118.02726 79.03467,117.47736 C80.00226,118.02453 80.48625,118.29792 81.45384,118.84509" id="Fill-137" fill="#513B78"></path>
                        <path d="M84.98646,116.8167 C84.02901,117.36621 83.55048,117.64155 82.59303,118.19106 C81.62544,117.64389 81.14145,117.37011 80.17386,116.82333 C81.13092,116.27382 81.60945,115.99887 82.5669,115.44897 C83.53449,115.99614 84.01848,116.26992 84.98646,116.8167" id="Fill-138" fill="#513B78"></path>
                        <path d="M88.5183,114.78831 C87.56124,115.33821 87.08271,115.61277 86.12526,116.16267 C85.15767,115.6155 84.67368,115.34211 83.70609,114.79494 C84.66315,114.24543 85.14207,113.97048 86.09913,113.42058 C87.06672,113.96814 87.55071,114.24153 88.5183,114.78831" id="Fill-139" fill="#513B78"></path>
                        <path d="M92.05053,112.75992 C91.09347,113.30982 90.61494,113.58438 89.65749,114.13428 C88.6899,113.58711 88.20591,113.31372 87.23832,112.76694 C88.19538,112.21665 88.6743,111.94209 89.63136,111.39258 C90.59895,111.93936 91.08294,112.21314 92.05053,112.75992" id="Fill-140" fill="#513B78"></path>
                        <path d="M95.58276,110.73192 C94.6257,111.28143 94.14717,111.55638 93.18972,112.10589 C92.22213,111.55911 91.73814,111.28533 90.77055,110.73816 C91.72761,110.18865 92.20614,109.9137 93.16359,109.36419 C94.13118,109.91097 94.61517,110.18475 95.58276,110.73192" id="Fill-141" fill="#513B78"></path>
                        <path d="M99.11538,108.70353 C98.15832,109.25304 97.6794,109.52799 96.72195,110.0775 C95.75436,109.53072 95.27037,109.25694 94.30278,108.70977 C95.25984,108.16026 95.73837,107.88531 96.69582,107.3358 C97.66341,107.88297 98.1474,108.15636 99.11538,108.70353" id="Fill-142" fill="#513B78"></path>
                        <path d="M102.64722,106.67514 C101.69016,107.22504 101.21163,107.4996 100.25457,108.0495 C99.28659,107.50194 98.8026,107.22855 97.83501,106.68177 C98.79207,106.13187 99.2706,105.85731 100.22805,105.30741 C101.19603,105.85458 101.67963,106.12797 102.64722,106.67514" id="Fill-143" fill="#513B78"></path>
                        <path d="M106.17945,104.64675 C105.22239,105.19626 104.74347,105.47121 103.78641,106.02111 C102.81882,105.47394 102.33483,105.20016 101.36724,104.65338 C102.3243,104.10387 102.80283,103.82892 103.76028,103.27902 C104.72787,103.82658 105.21147,104.09997 106.17945,104.64675" id="Fill-144" fill="#513B78"></path>
                        <path d="M111.23736,101.74242 C109.66995,102.64293 108.88605,103.0926 107.31864,103.99272 C106.35066,103.44555 105.86706,103.17216 104.89947,102.62538 C106.46649,101.72487 107.25039,101.27481 108.81819,100.37469 C109.78578,100.92186 110.26938,101.19564 111.23736,101.74242" id="Fill-145" fill="#513B78"></path>
                        <path d="M113.24313,100.59075 C112.28607,101.14026 111.80793,101.41482 110.85009,101.96433 C109.88289,101.41755 109.3989,101.14416 108.43092,100.5966 C109.38798,100.04709 109.8669,99.77253 110.82396,99.22302 C111.79194,99.7698 112.27554,100.04319 113.24313,100.59075" id="Fill-146" fill="#513B78"></path>
                        <path d="M78.25506,125.08626 C77.298,125.63616 76.81947,125.91072 75.86241,126.46023 C74.89482,125.91306 74.41083,125.63967 73.44285,125.09289 C74.4003,124.54338 74.87883,124.26843 75.83589,123.71892 C76.80348,124.2657 77.28747,124.53909 78.25506,125.08626" id="Fill-147" fill="#513B78"></path>
                        <path d="M81.7869,123.05826 C80.82984,123.60777 80.35131,123.88233 79.39425,124.43223 C78.42627,123.88506 77.94267,123.61167 76.97508,123.06489 C77.93214,122.51499 78.41067,122.24043 79.36773,121.69053 C80.33532,122.2377 80.81931,122.51109 81.7869,123.05826" id="Fill-148" fill="#513B78"></path>
                        <path d="M85.31913,121.02987 C84.36207,121.57938 83.88315,121.85433 82.92609,122.40384 C81.9585,121.85706 81.47451,121.58367 80.50692,121.0365 C81.46398,120.4866 81.94251,120.21204 82.89957,119.66214 C83.86755,120.20931 84.35154,120.48309 85.31913,121.02987" id="Fill-149" fill="#513B78"></path>
                        <path d="M106.51212,108.85992 C99.82752,112.69869 93.14292,116.53707 86.45832,120.37584 C85.49073,119.82867 85.00674,119.55528 84.03876,119.00811 C90.72375,115.16973 97.40835,111.33096 104.09295,107.49219 C105.06093,108.03936 105.54492,108.31314 106.51212,108.85992" id="Fill-150" fill="#513B78"></path>
                        <path d="M110.04435,106.83192 C109.08729,107.38143 108.60837,107.65638 107.65131,108.20589 C106.68372,107.65872 106.20012,107.38533 105.23214,106.83816 C106.1892,106.28865 106.66812,106.0137 107.62518,105.46419 C108.59277,106.01097 109.07676,106.28475 110.04435,106.83192" id="Fill-151" fill="#513B78"></path>
                        <path d="M113.57658,104.80353 C112.61952,105.35343 112.1406,105.62799 111.18354,106.1775 C110.21556,105.63072 109.73196,105.35694 108.76437,104.81016 C109.72143,104.26026 110.19996,103.9857 111.15741,103.43619 C112.125,103.98297 112.6086,104.25636 113.57658,104.80353" id="Fill-152" fill="#513B78"></path>
                        <path d="M117.10803,102.77514 C116.15097,103.32504 115.67244,103.59999 114.71538,104.1495 C113.74779,103.60233 113.2638,103.32894 112.29621,102.78177 C113.25366,102.23226 113.7318,101.9577 114.68886,101.40819 C115.65684,101.95497 116.14044,102.22836 117.10803,102.77514" id="Fill-153" fill="#513B78"></path>
                        <polyline id="Fill-154" fill="#513B78" points="90.12588 121.36059 106.61625 111.83991 116.03943 117.64506 99.5553 127.16925 90.12588 121.36059"></polyline>
                        <polyline id="Fill-169" fill="#6D5896" points="57.2013 90.25536 57.33897 90.17619 71.019 82.27791 70.95777 82.43352 57.33936 90.29631 57.20169 90.37548 57.2013 90.25536"></polyline>
                        <polyline id="Fill-170" fill="#6D5896" points="68.08269 87.48129 68.01756 87.39861 69.30495 86.65527 69.24411 86.81088 68.08269 87.48129"></polyline>
                        <polyline id="Fill-171" fill="#6D5896" points="57.22002 96.81711 57.3573 96.73755 59.92116 95.2575 59.84316 95.41935 57.35769 96.85416 57.22041 96.93333 57.22002 96.81711"></polyline>
                        <polyline id="Fill-174" fill="#6D5896" points="57.21105 93.63783 57.34833 93.55827 64.61052 89.36538 64.54656 89.52294 57.34872 93.67878 57.21144 93.75795 57.21105 93.63783"></polyline>
                        <path d="M50.87394,116.29332 L52.32084,115.46808 C52.32045,115.46808 52.32045,115.46808 52.32045,115.46808 L50.87394,116.29332" id="Fill-178" fill="#6D588F"></path>
                        <path d="M50.87394,116.29332 L50.94492,76.41192 C50.94804,75.29964 51.54435,74.27316 52.50999,73.72014 L96.85182,48.31866 C96.86274,48.31242 96.87366,48.30618 96.88458,48.30033 C97.11,48.17865 97.34673,48.12444 97.578,48.12444 C97.61739,48.12444 97.65639,48.126 97.69539,48.12912 C97.24182,48.82722 96.46884,49.99449 95.43846,51.53967 L53.05833,75.86553 L52.96668,112.82232 L54.83712,111.74865 C53.86173,113.19048 53.01426,114.44316 52.32045,115.46808 L50.87394,116.29332" id="Fill-179" fill="#5C426F"></path>
                        <path d="M53.05833,75.86553 L95.43846,51.53967 C92.99667,55.20255 57.57258,107.70513 54.83712,111.74865 L52.96668,112.82232 L53.05833,75.86553 Z" id="Fill-180" fill="#5C426F"></path>
                        <path d="M73.35705,84.34803 L73.34301,84.32385 L73.39293,84.29499 C73.38084,84.31293 73.36914,84.33048 73.35705,84.34803" id="Fill-181" fill="#856EA4"></path>
                        <path d="M163.06524,88.57719 L161.32311,87.57177 C163.21305,87.63573 164.43648,87.67629 164.43648,87.67629 C164.38578,87.72348 163.85967,88.06707 163.06524,88.57719 M143.47047,88.42665 C141.84261,87.45906 140.70342,86.76837 140.76855,86.76837 C140.77011,86.76837 140.77323,86.76915 140.77752,86.77032 C140.91363,86.81127 143.01066,86.90643 145.90485,87.02031 L143.47047,88.42665" id="Fill-193" fill="#4C73AB"></path>
                        <path d="M153.76569,94.47204 C153.76569,94.47204 147.2796,90.69099 143.47047,88.42665 L145.90485,87.02031 C150.6024,87.20478 157.39971,87.43917 161.32311,87.57177 L163.06524,88.57719 C160.18158,90.42852 153.76569,94.47204 153.76569,94.47204" id="Fill-194" fill="#6578AC"></path>
                        <polyline id="Fill-195" fill="#F5BB50" points="164.43648 87.67629 151.81296 80.39421 140.77752 86.77032 151.86951 93.17373 154.97001 93.14175 164.43648 87.67629"></polyline>
                        <polyline id="Fill-196" fill="#B18453" points="153.39441 91.35126 154.97001 93.14175 151.86951 93.17373 153.39441 91.35126"></polyline>
                        <path d="M53.1453,168.96165 C53.1453,168.96165 39.93093,161.25876 40.14855,161.25876 C40.1505,161.25876 40.15323,161.25915 40.15752,161.26032 C40.32093,161.30946 43.31067,161.4366 47.11434,161.58051 L50.27334,163.32303 L52.92417,161.79267 C58.51131,161.99079 63.81648,162.16629 63.81648,162.16629 C63.58287,162.3843 53.1453,168.96165 53.1453,168.96165" id="Fill-197" fill="#536CA5"></path>
                        <path d="M50.27334,163.32303 L47.11434,161.58051 C47.17089,161.58285 47.22939,161.58519 47.28633,161.58714 L50.27334,163.32303" id="Fill-198" fill="#4C67A2"></path>
                        <path d="M50.27334,163.32303 L47.28633,161.58714 C49.06395,161.65422 51.01044,161.72481 52.92417,161.79267 L50.27334,163.32303" id="Fill-199" fill="#647AAE"></path>
                        <polyline id="Fill-200" fill="#F5BB50" points="63.81648 162.16629 51.19296 154.8846 40.15752 161.26032 51.24951 167.66373 54.35001 167.63175 63.81648 162.16629"></polyline>
                        <polyline id="Fill-201" fill="#B18453" points="52.77441 165.84126 54.35001 167.63175 51.24951 167.66373 52.77441 165.84126"></polyline>
                    </g>
                    <g id="icon-2" transform="translate(63.570000, 68.640000)">
                        <g id="icon" fill="#FFFFFF">
                            <path d="M0.51051,24.0341629 L14.26152,29.64585 L14.12463,0 L0,8.69869765 L0.51051,24.0341629 Z M7.67736667,16.4490759 C6.00751667,15.6267494 4.91855,14.3217865 4.91855,12.2575165 C4.91855,9.83664882 6.35028333,7.98295588 8.72235,7.98295588 C9.85681667,7.98295588 10.6909833,8.32110882 11.28855,8.69922529 L10.7804667,11.2891694 C10.3770333,11.0155729 9.66268333,10.6159376 8.67685,10.6159376 C7.69253333,10.6159376 7.21478333,11.2476688 7.21478333,11.9854571 C7.21478333,12.8907847 7.78201667,13.29042 9.07876667,13.9851706 C10.8547833,14.9120171 11.68895,16.2185171 11.68895,18.2182306 C11.68895,20.5975976 10.3937167,22.6172929 7.63338333,22.6172929 C6.48375,22.6172929 5.3508,22.1976759 4.78356667,21.7550029 L5.24615,19.1020394 C5.85736667,19.5431753 6.7977,19.9843112 7.76836667,19.9843112 C8.81183333,19.9843112 9.3639,19.3756359 9.3639,18.4472524 C9.36238333,17.5649806 8.88463333,17.0577512 7.67736667,16.4490759 Z" id="Shape" fill-rule="nonzero"></path>
                            <path d="M23.0594,11.4920612 C22.5164333,11.4920612 22.0129,11.6380818 21.5609333,11.8747888 L19.565,9.84894529 C19.6954333,9.49081059 19.7758167,9.10962 19.7758167,8.70537353 C19.7758167,6.9147 18.3789667,5.46679059 16.63025,5.39301176 L16.63025,12.0208094 C16.9775667,12.0039018 17.3112333,11.9347341 17.62215,11.8194547 L19.8637833,14.0896906 C19.8107,14.3248606 19.7758167,14.5677159 19.7758167,14.8197935 C19.7758167,15.6436571 20.0821833,16.3875935 20.5720667,16.9670647 L18.6277,18.9375741 C18.1727,18.7008671 17.6661333,18.5517724 17.12165,18.5517724 C16.9548167,18.5517724 16.7925333,18.5763653 16.63025,18.6009582 L16.63025,25.1549771 C16.7925333,25.1811071 16.9548167,25.2041629 17.12165,25.2041629 C18.93255,25.2041629 20.4022,23.71629 20.4022,21.8795047 C20.4022,21.6305012 20.3733833,21.3922571 20.3218167,21.1601612 L23.3217833,18.1198588 C25.01135,17.9815235 26.3429833,16.5643553 26.3429833,14.8182565 C26.3414667,12.9814712 24.8703,11.4920612 23.0594,11.4920612 Z" id="Path"></path>
                        </g>
                    </g>
                </g>
            </g>
            <g id="Group-36" mask="url(#mask-2)">
                <g transform="translate(230.000000, 67.500000) scale(-1, 1) translate(-230.000000, -67.500000) translate(185.000000, 54.000000)">
                    <polyline id="Fill-4" fill="#CBCCC7" points="59.6428732 7.42678302 59.3888451 11.9311981 0.0978591549 26.085566 59.6428732 7.42678302"></polyline>
                    <polyline id="Fill-5" fill="#FFFFFE" points="59.5761972 7.44766981 44.1410704 0.196132075 0.0306760563 26.1051792 59.5761972 7.44766981"></polyline>
                    <polyline id="Fill-6" fill="#CBCCC7" points="67.727662 22.3040377 66.5860563 26.9666321 0.0976056338 26.0845472 67.727662 22.3040377"></polyline>
                    <polyline id="Fill-39" fill="#FFFFFE" points="0.0976056338 26.0845472 66.1451831 10.3264811 89.7908451 21.0882736 0.0976056338 26.0845472"></polyline>
                </g>
            </g>
            <path d="M72,36.7532582 C79.7565104,33.7100861 98.4726563,28.3726667 128.148438,20.741 C172.662109,9.2935 237.576172,36.7532582 190.76127,55.0821707 C143.946369,73.4110832 128.458984,37.848 156.951172,30.3935 C185.443359,22.939 209.107123,68.626707 215.5,63" id="Path-3" stroke="#FFFFFF" stroke-width="0.975000054" stroke-dasharray="2.600000143051147" mask="url(#mask-2)"></path>
        </g>
    </g>
</svg>