<?xml version="1.0" encoding="UTF-8"?>
<svg width="65px" height="65px" viewBox="0 0 65 65" version="1.1" xmlns="http://www.w3.org/2000/svg" xmlns:xlink="http://www.w3.org/1999/xlink">
    <!-- Generator: Sketch 52.2 (67145) - http://www.bohemiancoding.com/sketch -->
    <title>help</title>
    <desc>Created with Sketch.</desc>
    <g id="desktop" stroke="none" stroke-width="1" fill="none" fill-rule="evenodd">
        <g id="sharepoint_opt2" transform="translate(-659.000000, -2002.000000)">
            <g id="Group-17" transform="translate(241.000000, 1079.000000)">
                <g id="Group-47" transform="translate(376.000000, 882.000000)">
                    <g id="Group-9" transform="translate(40.000000, 41.000000)">
                        <g id="Group-15">
                            <g id="help" transform="translate(2.000000, 0.000000)">
                                <path d="M19.7880566,45.2824023 L19.7507324,45.2452051 C19.2538379,44.7507227 18.4500977,44.7525 17.9553613,45.2495215 C17.460752,45.746543 17.4626563,46.5502832 17.9596777,47.0448926 L18.0011914,47.0861523 C18.24875,47.3314258 18.5717188,47.4538086 18.8945605,47.4538086 C19.2214648,47.4538086 19.5483691,47.328252 19.7965625,47.0777734 C20.2900293,46.5796094 20.2862207,45.7758691 19.7880566,45.2824023 Z" id="Path" fill="#42566C"></path>
                                <path d="M47.0428613,17.9573926 C39.0239941,9.93852539 25.9762598,9.93852539 17.9573926,17.9573926 C11.3929004,24.5218848 10.0399609,34.7190137 14.6671484,42.7548926 C15.0170313,43.3624902 15.7933496,43.5713281 16.4008203,43.2215723 C17.008418,42.8716895 17.2173828,42.095498 16.8675,41.4879004 C12.8119824,34.4449219 13.9984863,25.507168 19.7527637,19.7527637 C26.7816504,12.723877 38.2186035,12.723877 45.2473633,19.7527637 C52.27625,26.7816504 52.27625,38.2184766 45.2473633,45.2473633 C39.4580469,51.0366797 30.4829687,52.2014746 23.421709,48.0800684 C22.8160156,47.7265039 22.0386816,47.9308984 21.6852441,48.5365918 C21.3318066,49.1421582 21.5362012,49.9196191 22.1417676,50.2730566 C25.3637109,52.1536133 28.9341406,53.0694531 32.4822266,53.0694531 C37.8063867,53.0694531 43.0795117,51.006084 47.0428613,47.0427344 C55.0616016,39.0238672 55.0616016,25.9762598 47.0428613,17.9573926 Z" id="Path" fill="#42566C"></path>
                                <path d="M64.9955566,26.9219336 C64.9953027,26.2977051 64.5411914,25.7661523 63.924707,25.6685254 L59.2384863,24.9259766 L56.7523633,18.9303613 L59.5380957,15.0895215 C59.9046094,14.584248 59.8493848,13.8874023 59.4078418,13.4462402 L51.534082,5.5778125 C51.0924121,5.13652344 50.3955664,5.08167969 49.8905469,5.44870117 L46.0533887,8.23621094 L40.053584,5.75364258 L39.3078613,1.06983398 C39.2095996,0.453603516 38.6781738,0 38.0540723,0 C38.0539453,0 38.0536914,0 38.0535645,0 L26.9219336,0.0045703125 C26.2977051,0.00482421875 25.7662793,0.458935547 25.6685254,1.07541992 L24.9261035,5.76164063 L18.9304883,8.24776367 L15.0896484,5.46203125 C14.584502,5.09551758 13.8876563,5.15074219 13.4463672,5.59228516 L5.57793945,13.4660449 C5.13665039,13.9077148 5.08193359,14.6045605 5.44882813,15.1095801 L8.23633789,18.9467383 L5.75376953,24.946543 L1.06996094,25.6922656 C0.453476563,25.7904004 -0.000253905551,26.322207 6.99476481e-10,26.9464355 L0.0045703132,38.0779395 C0.00482421945,38.702168 0.458935548,39.2337207 1.07541992,39.3313477 L5.76164063,40.0738965 L8.24776367,46.0695117 L5.46203125,49.9103516 C5.09551758,50.415625 5.15074219,51.1124707 5.59228516,51.5536328 L13.4660449,59.4220605 C13.9077148,59.8633496 14.6046875,59.9181934 15.1095801,59.5511719 L18.9467383,56.7636621 L24.946543,59.2462305 L25.6922656,63.9300391 C25.7904004,64.5463965 26.3218262,65 26.9459277,65 C26.9460547,65 26.9463086,65 26.9464355,65 L38.0779395,64.9953027 C38.702168,64.9950488 39.2335938,64.5409375 39.3313477,63.9244531 L40.0738965,59.2382324 L46.0695117,56.7521094 L49.9103516,59.5378418 C50.415625,59.9044824 51.1124707,59.8491309 51.5536328,59.4075879 L59.4220605,51.5338281 C59.8633496,51.0921582 59.9180664,50.3953125 59.5511719,49.890293 L56.7636621,46.0531348 L59.2462305,40.0533301 L63.9300391,39.3076074 C64.5465234,39.2094727 65.0002539,38.677666 65,38.0534375 L64.9955566,26.9219336 Z M58.1454199,37.6575977 C57.7093359,37.727041 57.340791,38.0178906 57.1719434,38.425918 L54.1460156,45.7389258 C53.977168,46.1468262 54.0325195,46.613252 54.2920117,46.970498 L56.8601465,50.5056348 L50.523916,56.8461816 L46.9850977,54.2795703 C46.6278516,54.020332 46.1614258,53.9656152 45.7533984,54.1344629 L38.4449609,57.1650879 C38.0371875,57.3341895 37.7464648,57.7029883 37.6774023,58.1390723 L36.993252,62.4566211 L28.0294727,62.4604297 L27.3424023,58.145293 C27.272959,57.709209 26.9821094,57.3406641 26.574082,57.1718164 L19.2610742,54.1458887 C19.1047949,54.0811426 18.9398828,54.0494043 18.7758594,54.0494043 C18.5117969,54.0494043 18.2498926,54.1317969 18.0296289,54.2918848 L14.4944922,56.8600195 L8.15394531,50.5237891 L10.7205566,46.9849707 C10.9797949,46.6275977 11.0346387,46.1611719 10.8655371,45.7532715 L7.83503906,38.444834 C7.6659375,38.0370605 7.29713867,37.7463379 6.86105469,37.6772754 L2.54337891,36.993125 L2.53969727,28.0293457 L6.85483399,27.3422754 C7.29091797,27.272832 7.65946289,26.9819824 7.82831055,26.5739551 L10.8542383,19.2609473 C11.0230859,18.8530469 10.9677344,18.3866211 10.7082422,18.029375 L8.14010742,14.4942383 L14.4763379,8.15369141 L18.0151563,10.7203027 C18.3726563,10.979541 18.8389551,11.0346387 19.2468555,10.8654102 L26.555293,7.83478516 C26.9630664,7.66568359 27.2537891,7.29675781 27.3228516,6.86080078 L28.006875,2.543125 L36.9707813,2.53944336 L37.6578516,6.85458008 C37.7272949,7.29066406 38.0181445,7.65920898 38.4261719,7.82805664 L45.7391797,10.8539844 C46.1470801,11.0225781 46.6135059,10.9674805 46.970752,10.7079883 L50.5058887,8.13985352 L56.8464355,14.476084 L54.2798242,18.0149023 C54.0205859,18.3722754 53.9657422,18.8387012 54.1348438,19.2466016 L57.1653418,26.5550391 C57.3344434,26.9628125 57.7032422,27.2535352 58.1393262,27.3225977 L62.457002,28.006748 L62.4606836,36.9705273 L58.1454199,37.6575977 Z" id="Shape" fill="#42566C" fill-rule="nonzero"></path>
                                <path d="M44.0656836,34.081582 C42.4778809,32.6390137 40.3440527,32.0125 38.2376465,32.340293 L32.6622461,26.7648926 C33.0013379,24.556416 32.2730078,22.2837012 30.6765723,20.6871387 C28.6750293,18.6855957 25.6824902,18.0725391 23.0527832,19.1251074 C22.6565625,19.2836719 22.3666016,19.6306348 22.2809082,20.0485645 C22.1950879,20.4664941 22.3250879,20.8996582 22.6268555,21.2014258 L24.4676758,23.0422461 C24.8572949,23.4318652 24.8572949,24.0658691 24.4676758,24.4556152 C24.0780566,24.8453613 23.4440527,24.8453613 23.0543066,24.4556152 L21.2071387,22.6083203 C20.9060059,22.3071875 20.4743652,22.1769336 20.0568164,22.2618652 C19.6395215,22.346543 19.2924316,22.6348535 19.1327246,23.0295508 C18.0258203,25.7631055 18.7500879,28.933252 20.9348242,30.9181641 C22.5242773,32.3625098 24.6597559,32.9888965 26.7684473,32.6588184 L32.3387695,38.2292676 C31.9975195,40.4395215 32.7254688,42.7143945 34.3236816,44.3127344 C35.6761133,45.665166 37.4780859,46.3834668 39.3158594,46.3833398 C40.2071973,46.3833398 41.1072949,46.2142383 41.9680371,45.8665137 C42.3629883,45.7070605 42.6516797,45.3599707 42.7366113,44.9425488 C42.821543,44.525127 42.691543,44.0929785 42.3902832,43.7917187 L40.5578418,41.9591504 C40.1682227,41.5695312 40.1682227,40.9355273 40.5578418,40.5457812 C40.9474609,40.1560352 41.5814648,40.1560352 41.9712109,40.5457812 L43.7999707,42.374541 C44.1014844,42.6760547 44.5343945,42.8063086 44.9523242,42.7206152 C45.3702539,42.6350488 45.7170898,42.3454687 45.8759082,41.9496289 C46.970498,39.2216602 46.2430566,36.0597656 44.0656836,34.081582 Z M43.7664551,38.7505371 C42.3867285,37.3709375 40.1418164,37.3708105 38.7622168,38.7505371 C37.3826172,40.1302637 37.3826172,42.3750488 38.7622168,43.7546484 L38.8241699,43.8167285 C37.821748,43.7067871 36.8637598,43.2621973 36.1189258,42.5173633 C34.9800293,41.3784668 34.5309961,39.7025586 34.9472754,38.1435742 C35.0641992,37.7057129 34.9388965,37.2389062 34.6184668,36.9184766 L28.0788574,30.3788672 C27.8376465,30.1376563 27.5134082,30.0070215 27.1810449,30.0070215 C27.072627,30.0070215 26.9631934,30.0208594 26.8556641,30.0494238 C25.3521582,30.4486914 23.7769238,30.070625 22.6418359,29.0392578 C21.8081348,28.2814746 21.3060352,27.2546777 21.1858105,26.1781152 L21.2588086,26.2511133 C22.6385352,27.6307129 24.8833203,27.6308398 26.2630469,26.2511133 C27.6426465,24.8713867 27.6426465,22.6266016 26.2630469,21.247002 L26.202998,21.1869531 C27.1957715,21.3019727 28.1437305,21.745166 28.8810742,22.4827637 C30.0187012,23.6203906 30.4679883,25.2947754 30.0537402,26.8524902 C29.9373242,27.2899707 30.0627539,27.7563965 30.3829297,28.0765723 L36.9263477,34.6199902 C37.2460156,34.9395312 37.7111719,35.0652148 38.1483984,34.9496875 C39.6503809,34.552832 41.2242187,34.9308984 42.3581641,35.9609961 C43.184248,36.711543 43.6849512,37.7278027 43.8106348,38.7947168 L43.7664551,38.7505371 Z" id="Shape" fill="#E83F67" fill-rule="nonzero"></path>
                                <path d="M44.0962793,23.4341504 C42.0039648,20.7614063 39.037832,18.8813574 35.7440332,18.1402051 C35.0602637,17.9862109 34.3806836,18.4159473 34.2268164,19.1000977 C34.0729492,19.784248 34.5025586,20.4634473 35.186709,20.6173145 C37.9107422,21.2302441 40.364873,22.7864355 42.0970215,24.9993555 C42.3475,25.3192773 42.7206152,25.4863477 43.0975391,25.4863477 C43.37125,25.4863477 43.6469922,25.3982422 43.8791895,25.2164453 C44.4313086,24.7842969 44.5285547,23.9862695 44.0962793,23.4341504 Z" id="Path" fill="#42566C"></path>
                                <path d="M46.5217187,28.0120801 L46.5031836,27.9546973 C46.2877441,27.2874316 45.5723633,26.9215527 44.9049707,27.1367383 C44.2377051,27.3521777 43.8714453,28.0676855 44.0870117,28.7349512 L44.1031348,28.7847168 C44.2754102,29.3241406 44.7747168,29.6683105 45.3121094,29.6683105 C45.4400781,29.6683105 45.570332,29.6487598 45.6986816,29.6077539 C46.366582,29.3943457 46.735127,28.6799805 46.5217187,28.0120801 Z" id="Path" fill="#42566C"></path>
                            </g>
                        </g>
                    </g>
                </g>
            </g>
        </g>
    </g>
</svg>