<?xml version="1.0" encoding="UTF-8"?>
<svg width="69px" height="69px" viewBox="0 0 69 69" version="1.1" xmlns="http://www.w3.org/2000/svg" xmlns:xlink="http://www.w3.org/1999/xlink">
    <!-- Generator: Sketch 52.2 (67145) - http://www.bohemiancoding.com/sketch -->
    <title>gears</title>
    <desc>Created with Sketch.</desc>
    <g id="desktop" stroke="none" stroke-width="1" fill="none" fill-rule="evenodd">
        <g id="sharepoint_opt2" transform="translate(-279.000000, -1479.000000)" stroke-width="0.3">
            <g id="Group-17" transform="translate(241.000000, 1079.000000)">
                <g id="Group-39" transform="translate(1.000000, 373.000000)">
                    <g id="Group-9" transform="translate(35.000000, 28.000000)">
                        <g id="Group-15">
                            <g id="gears" transform="translate(3.000000, 0.000000)">
                                <path d="M34.3878809,41.5095098 C34.1375469,40.9818848 33.5064121,40.7568066 32.9786563,41.0074023 C32.119957,41.4148984 31.2196445,41.7517305 30.3028438,42.0082148 C29.9192949,42.1155195 29.6286563,42.4289277 29.5506641,42.819543 L28.4315547,48.4148281 C28.3211094,48.9673164 27.831957,49.3684004 27.2684766,49.3684004 L24.2156582,49.3684004 C23.6521777,49.3684004 23.1631563,48.9674473 23.0525801,48.4148281 L21.9334707,42.819543 C21.8553477,42.4289277 21.5645781,42.1155195 21.181291,42.0082148 C19.8860449,41.6457344 18.6360762,41.127793 17.4660625,40.4687852 C17.1188926,40.2732812 16.691375,40.289377 16.3600391,40.5102676 L11.6116758,43.6757559 C11.1429375,43.988248 10.5135039,43.9258281 10.1149063,43.5274922 L7.95625,41.3687051 C7.5577832,40.9702383 7.495625,40.3408047 7.80798633,39.8719355 L10.9734746,35.1235723 C11.1944961,34.7921055 11.2105918,34.3647187 11.014957,34.0175488 C10.3558184,32.8474043 9.83787695,31.5973047 9.47552734,30.3023203 C9.36822266,29.9187715 9.05481445,29.6281328 8.66419922,29.5501406 L3.06891406,28.4310312 C2.51642578,28.3205859 2.1153418,27.8314336 2.1153418,27.2679531 L2.1153418,24.2151348 C2.1153418,23.6516543 2.51629492,23.1626328 3.06891406,23.0520566 L8.66419922,21.9329473 C9.05481445,21.8548242 9.36822266,21.5640547 9.47552734,21.1807676 C9.83800781,19.8855215 10.3559492,18.6355527 11.014957,17.4655391 C11.2104609,17.1185 11.1943652,16.6909824 10.9734746,16.3595156 L7.80824805,11.6116758 C7.49575586,11.1428066 7.55804492,10.5135039 7.95651172,10.1149062 L10.115168,7.95625 C10.5136348,7.5577832 11.1431992,7.495625 11.6119375,7.80798633 L16.3603008,10.9734746 C16.6916367,11.1944961 17.1192852,11.2104609 17.4663242,11.014957 C18.6363379,10.3559492 19.8863066,9.83800781 21.1815527,9.47552734 C21.5651016,9.36822266 21.8557402,9.05481445 21.9337324,8.66419922 L23.0528418,3.06891406 C23.1632871,2.51642578 23.6524395,2.1153418 24.2159199,2.1153418 L27.2687383,2.1153418 C27.8322187,2.1153418 28.3212402,2.51629492 28.4318164,3.06891406 L29.5509258,8.66419922 C29.6290488,9.05481445 29.9198184,9.36822266 30.3031055,9.47552734 C31.5983516,9.83800781 32.8483203,10.3559492 34.018334,11.014957 C34.3655039,11.2104609 34.7930215,11.1943652 35.1243574,10.9734746 L39.8727207,7.80798633 C40.341459,7.49549414 40.9707617,7.55791406 41.3694902,7.95625 L43.5281465,10.1149062 C43.9266133,10.513373 43.9887715,11.1428066 43.6764102,11.6116758 L40.5109219,16.3600391 C40.2899004,16.6915059 40.2738047,17.1188926 40.4694395,17.4660625 C41.1284473,18.6360762 41.6463887,19.8860449 42.0088691,21.181291 C42.1161738,21.5648398 42.429582,21.8554785 42.8201973,21.9334707 L48.4154824,23.0525801 C48.9679707,23.1630254 49.3690547,23.6521777 49.3690547,24.2156582 L49.3690547,27.2684766 C49.3690547,27.831957 48.9681016,28.3209785 48.4154824,28.4315547 L42.8201973,29.5506641 C42.429582,29.6287871 42.1161738,29.9195566 42.0088691,30.3031055 C41.7459727,31.2426758 41.3990645,32.1643184 40.9776973,33.0425156 C40.724877,33.5692246 40.9470762,34.2011445 41.4737852,34.453834 C42.0004941,34.7067852 42.6325449,34.4844551 42.8851035,33.9577461 C43.2653809,33.1651309 43.591875,32.3411094 43.858959,31.5005996 L48.8304375,30.5063301 C50.3679043,30.1985488 51.4841348,28.8368262 51.4841348,27.2683457 L51.4841348,24.2155273 C51.4841348,22.6470469 50.3679043,21.2854551 48.8297832,20.9776738 L43.8584355,19.9834043 C43.532334,18.9569434 43.1190801,17.9590098 42.6239082,17.0038672 L45.4363379,12.7850918 C46.306291,11.4800312 46.1329023,9.72782422 45.0237383,8.61866016 L42.865082,6.46000391 C41.7557871,5.35083984 40.0035801,5.17758203 38.6986504,6.0474043 L34.479875,8.85983398 C33.5247324,8.36479297 32.5267988,7.9514082 31.5003379,7.62530664 L30.5060684,2.65395898 C30.1986797,1.11623047 28.836957,0 27.2684766,0 L24.2156582,0 C22.6471777,0 21.2855859,1.11623047 20.9778047,2.65435156 L19.9835352,7.62569922 C18.9570742,7.95180078 17.9591406,8.36505469 17.003998,8.86022656 L12.7854844,6.04779687 C11.4805547,5.17784375 9.7282168,5.35110156 8.61905273,6.46039648 L6.46039648,8.61905273 C5.35136328,9.7282168 5.17784375,11.480293 6.04779688,12.7854844 L8.86022656,17.0042598 C8.36518555,17.9594023 7.95180078,18.9572051 7.62569922,19.9837969 L2.6542207,20.9780664 C1.11623047,21.2855859 0,22.6473086 0,24.2157891 L0,27.2686074 C0,28.8370879 1.11623047,30.1986797 2.65435156,30.5064609 L7.62569922,31.5007305 C7.95166992,32.5270605 8.36505469,33.5249941 8.86022656,34.4802676 L6.04779688,38.699043 C5.17784375,40.0041035 5.35123242,41.7563105 6.46039648,42.8654746 L8.61905273,45.0241309 C9.7282168,46.1332949 11.4804238,46.3065527 12.7854844,45.4367305 L17.0042598,42.6243008 C17.9594023,43.1193418 18.9572051,43.5327266 19.9837969,43.8588281 L20.9780664,48.8304375 C21.2855859,50.3680352 22.6473086,51.4843965 24.2157891,51.4843965 L27.2686074,51.4843965 C28.8370879,51.4843965 30.1986797,50.368166 30.5064609,48.8300449 L31.5007305,43.8586973 C32.3158535,43.5997266 33.1159277,43.284748 33.8860352,42.919127 C34.413791,42.6684004 34.6386074,42.0373965 34.3878809,41.5095098 Z" id="Path" stroke="#42566C" fill="#42566C"></path>
                                <path d="M34.9052988,31.6203359 C35.0597129,31.6996367 35.2245957,31.7371934 35.387123,31.7371934 C35.7713262,31.7371934 36.1420508,31.5271641 36.3293105,31.1618047 C37.1825137,29.4979277 37.6335859,27.6238906 37.6335859,25.7422637 C37.6335859,19.185293 32.2991035,13.8506797 25.742002,13.8506797 C22.6225762,13.8506797 19.6748379,15.0496133 17.4415918,17.2269824 C17.0232344,17.6347402 17.0147285,18.3046094 17.4224863,18.7228359 C17.8302441,19.1410625 18.4999824,19.1498301 18.9183398,18.7419414 C20.754166,16.9523086 23.1774199,15.9665449 25.7417402,15.9665449 C31.1320996,15.9665449 35.5175898,20.3519043 35.5175898,25.7423945 C35.5175898,27.3119219 35.1572031,28.8105234 34.4465059,30.1965859 C34.1800762,30.7160977 34.3853945,31.3536445 34.9052988,31.6203359 Z" id="Path" stroke="#42566C" fill="#42566C"></path>
                                <path d="M15.8396113,21.2155762 C15.2869922,21.0254375 14.6853008,21.3192168 14.4951621,21.8717051 C14.0676445,23.1146074 13.8508105,24.4169199 13.8508105,25.7421328 C13.8508105,32.2992344 19.1854238,37.6337168 25.7423945,37.6337168 C28.2641855,37.6337168 30.6735684,36.8543184 32.7102637,35.3794023 C33.1834512,35.0366816 33.2893164,34.3751875 32.9467266,33.902 C32.6041367,33.4288125 31.9425117,33.3229473 31.4693242,33.6655371 C29.7958945,34.8771641 27.8155996,35.5177207 25.7422637,35.5177207 C20.3517734,35.5177207 15.9664141,31.1322305 15.9664141,25.7418711 C15.9664141,24.6512891 16.1443828,23.5804668 16.4956094,22.5596328 C16.6856172,22.0072754 16.3919688,21.4054531 15.8396113,21.2155762 Z" id="Path" stroke="#42566C" fill="#42566C"></path>
                                <path d="M64.9640898,46.2347109 L61.9049902,45.6229434 C61.7186465,45.0684922 61.4942227,44.527127 61.2340742,44.0038203 L62.9648203,41.407832 C63.6320723,40.4067578 63.4991191,39.062832 62.6484023,38.2122461 L61.2298867,36.7937305 C60.3791699,35.9431445 59.0352441,35.8100605 58.0343008,36.4773125 L55.4383125,38.2080586 C54.9150059,37.9479102 54.3736406,37.7234863 53.8191895,37.5372734 L53.2074219,34.4781738 C52.9714824,33.2984766 51.9270937,32.4422637 50.7241035,32.4422637 L48.7178984,32.4422637 C47.5150391,32.4422637 46.4705195,33.2984766 46.2345801,34.4781738 L45.6228125,37.5372734 C45.0683613,37.7236172 44.5269961,37.948041 44.0036895,38.2080586 L41.4077012,36.4773125 C40.406627,35.8101914 39.0627012,35.9430137 38.2121152,36.7937305 L36.7935996,38.2122461 C35.9428828,39.0629629 35.8099297,40.4068887 36.4771816,41.407832 L38.2079277,44.0038203 C37.8501582,44.7232852 37.5603047,45.4767734 37.3436016,46.2515918 C37.1861777,46.8142871 37.5147656,47.3979199 38.0773301,47.5554746 C38.6400254,47.7128984 39.2236582,47.3844414 39.3812129,46.8217461 C39.6115254,45.9983789 39.9407676,45.2040625 40.3595176,44.4606504 C40.5550215,44.1134805 40.5389258,43.6859629 40.3180352,43.354627 L38.2377637,40.2342852 C38.1279727,40.0695332 38.1498262,39.8483809 38.2898457,39.7083613 L39.7083613,38.2898457 C39.8483809,38.149957 40.0695332,38.1282344 40.2342852,38.2377637 L43.354627,40.3180352 C43.6859629,40.5390566 44.1134805,40.5550215 44.4606504,40.3595176 C45.2041934,39.9407676 45.9983789,39.6115254 46.8217461,39.3812129 C47.2052949,39.2739082 47.4959336,38.9605 47.5739258,38.5698848 L48.3092246,34.8931289 C48.347959,34.6990645 48.5199082,34.5581289 48.7178984,34.5581289 L50.7241035,34.5581289 C50.9219629,34.5581289 51.0939121,34.6990645 51.1327773,34.8931289 L51.8680762,38.5701465 C51.9461992,38.9607617 52.2369687,39.2741699 52.6202559,39.3814746 C53.443623,39.6117871 54.2379395,39.9410293 54.9813516,40.3597793 C55.3283906,40.5552832 55.7560391,40.5391875 56.087375,40.3182969 L59.2077168,38.2380254 C59.3724687,38.1282344 59.5936211,38.149957 59.7336406,38.2901074 L61.1521562,39.708623 C61.2920449,39.8486426 61.3138984,40.0697949 61.2042383,40.2345469 L59.1239668,43.3548887 C58.9029453,43.6863555 58.8868496,44.1137422 59.0824844,44.4609121 C59.5012344,45.2044551 59.8304766,45.9986406 60.0607891,46.8220078 C60.1680937,47.2055566 60.481502,47.4961953 60.8721172,47.5741875 L64.548873,48.3094863 C64.7429375,48.3482207 64.883873,48.5201699 64.883873,48.7181602 L64.883873,50.7243652 C64.883873,50.9222246 64.7429375,51.0941738 64.548873,51.1330391 L60.8718555,51.8683379 C60.4812402,51.9464609 60.167832,52.2372305 60.0605273,52.6205176 C59.8302148,53.4438848 59.5009727,54.2382012 59.0822227,54.9816133 C58.8867187,55.3287832 58.9028145,55.7563008 59.1237051,56.0876367 L61.2039766,59.2079785 C61.3137676,59.3727305 61.2919141,59.5938828 61.1518945,59.7339023 L59.7333789,61.152418 C59.5934902,61.2924375 59.3723379,61.3141602 59.2074551,61.2045 L56.0871133,59.1242285 C55.7557773,58.9033379 55.3281289,58.8872422 54.9810898,59.0827461 C54.2375469,59.5014961 53.4433613,59.8307383 52.6199941,60.0610508 C52.2364453,60.1683555 51.9458066,60.4817637 51.8678145,60.8723789 L51.1325156,64.5491348 C51.0937812,64.7431992 50.921832,64.8841348 50.7238418,64.8841348 L48.7176367,64.8841348 C48.5197773,64.8841348 48.3478281,64.7431992 48.3089629,64.5491348 L47.5736641,60.8721172 C47.495541,60.481502 47.2047715,60.1680937 46.8214844,60.0607891 C45.9981172,59.8304766 45.2038008,59.5012344 44.4603887,59.0824844 C44.1132187,58.8869805 43.6855703,58.9030762 43.3543652,59.1239668 L40.2340234,61.2042383 C40.0692715,61.3140293 39.8481191,61.2923066 39.7080996,61.1521562 L38.289584,59.7336406 C38.1496953,59.5936211 38.1278418,59.3724687 38.237502,59.2077168 L40.3177734,56.087375 C40.5387949,55.7559082 40.5548906,55.3285215 40.3592559,54.9813516 C39.9405059,54.2378086 39.6112637,53.443623 39.3809512,52.6202559 C39.2736465,52.236707 38.9602383,51.9460684 38.569623,51.8680762 L34.8928672,51.1327773 C34.6988027,51.094043 34.5578672,50.9220937 34.5578672,50.7241035 L34.5578672,48.7178984 C34.5578672,48.5200391 34.6988027,48.3480898 34.8928672,48.3092246 L35.1179453,48.264209 C35.6908477,48.1495762 36.0624883,47.5922461 35.9477246,47.0193437 C35.8330918,46.4464414 35.276416,46.0754551 34.7027285,46.1895645 L34.4776504,46.2345801 C33.2982148,46.4706504 32.442002,47.5150391 32.442002,48.7180293 L32.442002,50.7242344 C32.442002,51.9270937 33.2982148,52.9716133 34.4779121,53.2075527 L37.5370117,53.8193203 C37.7233555,54.3737715 37.9477793,54.9151367 38.2077969,55.4384434 L36.4770508,58.0344316 C35.809668,59.0355059 35.942752,60.3794316 36.7934687,61.2300176 L38.2119844,62.6485332 C39.0627012,63.49925 40.406627,63.6322031 41.4075703,62.9649512 L44.0035586,61.2342051 C44.5268652,61.4943535 45.0682305,61.7187773 45.6226816,61.9049902 L46.2344492,64.9640898 C46.4706504,66.1437871 47.5150391,67 48.7180293,67 L50.7242344,67 C51.9270937,67 52.9716133,66.1437871 53.2075527,64.9640898 L53.8193203,61.9049902 C54.3737715,61.7186465 54.9151367,61.4942227 55.4384434,61.2340742 L58.0344316,62.9648203 C59.0355059,63.6320723 60.3794316,63.4991191 61.2300176,62.6484023 L62.6485332,61.2298867 C63.49925,60.3791699 63.6322031,59.0352441 62.9649512,58.0343008 L61.2342051,55.4383125 C61.4943535,54.9150059 61.7187773,54.3736406 61.9049902,53.8191895 L64.9640898,53.2074219 C66.1436562,52.9714824 66.9998691,51.9270937 66.9998691,50.7241035 L66.9998691,48.7178984 C67,47.5150391 66.1437871,46.4706504 64.9640898,46.2347109 Z" id="Path" stroke="#E83F67" fill="#E83F67"></path>
                                <path d="M49.7210664,45.912666 C51.8210977,45.912666 53.5294668,47.6210352 53.5294668,49.7210664 C53.5294668,50.3053535 54.0031777,50.7789336 54.587334,50.7789336 C55.1714902,50.7789336 55.6452012,50.3052227 55.6452012,49.7210664 C55.6452012,46.4544238 52.9875781,43.7968008 49.7209355,43.7968008 C46.454293,43.7968008 43.7966699,46.4544238 43.7966699,49.7210664 C43.7966699,52.987709 46.454293,55.645332 49.7209355,55.645332 C51.0440547,55.645332 52.2955938,55.2185996 53.340375,54.411459 C53.8027012,54.0542129 53.8878906,53.3898398 53.5307754,52.9273828 C53.1735293,52.4650566 52.5090254,52.3797363 52.0466992,52.7369824 C51.3756523,53.2553164 50.5713906,53.5294668 49.7209355,53.5294668 C47.6209043,53.5294668 45.9125352,51.8210977 45.9125352,49.7210664 C45.912666,47.6209043 47.6210352,45.912666 49.7210664,45.912666 Z" id="Path" stroke="#E83F67" fill="#E83F67"></path>
                                <path d="M32.1873496,25.7421328 C32.1873496,22.1882539 29.2958809,19.296916 25.7421328,19.296916 C22.1882539,19.296916 19.296916,22.1883848 19.296916,25.7421328 C19.296916,29.2960117 22.1882539,32.1873496 25.7421328,32.1873496 C29.2960117,32.1873496 32.1873496,29.2958809 32.1873496,25.7421328 Z M21.4126504,25.7421328 C21.4126504,23.3549961 23.3549961,21.4126504 25.7421328,21.4126504 C28.1292695,21.4126504 30.0716152,23.3549961 30.0716152,25.7421328 C30.0716152,28.1292695 28.1294004,30.0716152 25.7421328,30.0716152 C23.3547344,30.0716152 21.4126504,28.1292695 21.4126504,25.7421328 Z" id="Shape" stroke="#42566C" fill="#42566C" fill-rule="nonzero"></path>
                            </g>
                        </g>
                    </g>
                </g>
            </g>
        </g>
    </g>
</svg>