<?xml version="1.0" encoding="UTF-8"?>
<svg width="133px" height="140px" viewBox="0 0 133 140" version="1.1" xmlns="http://www.w3.org/2000/svg" xmlns:xlink="http://www.w3.org/1999/xlink">
    <!-- Generator: Sketch 52.1 (67048) - http://www.bohemiancoding.com/sketch -->
    <title>business</title>
    <desc>Created with Sketch.</desc>
    <g id="desktop" stroke="none" stroke-width="1" fill="none" fill-rule="evenodd">
        <g id="sharepoint_opt2" transform="translate(-350.000000, -674.000000)" fill-rule="nonzero">
            <g id="Group-13" transform="translate(240.000000, 549.000000)">
                <g id="Group-25" transform="translate(0.000000, 85.000000)">
                    <g id="business" transform="translate(110.000000, 40.000000)">
                        <path d="M99.4216049,0.6015625 C99.0384774,0.21875 98.5103086,0 97.9711934,0 L45.9753086,0 C45.4334568,0 44.9052881,0.21875 44.5248971,0.6015625 C44.1417695,0.981640625 43.9228395,1.50910156 43.9228395,2.05078125 L43.9228395,20.4842341 C43.9228395,21.6162654 44.8423457,22.5377497 45.9753086,22.5377497 C47.105535,22.5377497 48.0277778,21.6162654 48.0277778,20.4842341 L48.0277778,4.1015625 L95.9187243,4.1015625 L95.9187243,43.7527344 L70.6049383,43.7527344 C70.3449588,43.7527344 70.0822428,43.8046875 69.8441564,43.9003906 L58.9742798,48.2398437 L58.9742798,45.8035156 C58.9742798,45.2648437 58.7553498,44.7371094 58.3722222,44.3542969 C57.9918313,43.9714844 57.4609259,43.7527344 56.9218107,43.7527344 L48.0277778,43.7527344 L48.0277778,19.5070313 C48.0277778,18.3777344 47.105535,17.4589844 45.9753086,17.4589844 C44.8423457,17.4589844 43.9228395,18.3777344 43.9228395,19.5070313 L43.9228395,45.8035156 C43.9228395,46.3449219 44.1417695,46.8726562 44.5248971,47.2554687 C44.9050144,47.6355469 45.4334568,47.8542969 45.975035,47.8542969 L54.8690679,47.8542969 L54.8690679,51.2695312 C54.8690679,51.9503906 55.2056728,52.5847656 55.7694177,52.9675781 C56.1114959,53.1972656 56.5083066,53.3203125 56.921537,53.3203125 C57.1842531,53.3203125 57.4414959,53.2708203 57.6823189,53.1726563 L70.9987387,47.8542969 L97.9711934,47.8542969 C98.5103086,47.8542969 99.0382037,47.6355469 99.4216049,47.2554688 C99.8047325,46.8729297 100.023663,46.3451953 100.023663,45.8035156 L100.023663,2.05078125 C100.023663,1.50910156 99.8047325,0.981640625 99.4216049,0.6015625 Z" id="Shape" fill="#42566C"></path>
                        <path d="M122.600549,116.758359 L116.444237,116.758359 L116.446426,112.21793 C121.472512,107.830078 124.653019,101.383242 124.653019,94.2076953 L124.653019,86.3398047 C126.256681,78.2794141 125.521076,72.3020703 122.463171,68.5751172 C120.535765,66.2257422 118.146691,65.3302344 116.443142,64.9952734 L116.443142,55.9187891 C116.443142,54.7859375 115.524457,53.8680078 114.390673,53.8680078 C113.611829,53.8680078 112.813829,53.8636328 112.001599,53.8595312 C111.152424,53.8548828 110.287377,53.8505078 109.412477,53.8505078 C99.5108189,53.8505078 88.3943724,54.4764062 81.7908951,61.9502734 C77.0409342,67.3263281 75.3962222,75.2658594 76.7617984,86.2219531 L76.7617984,94.2079687 C76.7617984,101.38543 79.9439465,107.833906 84.9722222,112.221758 L84.9722222,116.758906 L78.8148148,116.758906 C73.1560206,116.758906 68.5524691,121.358672 68.5524691,127.012813 L68.5524691,137.949219 C68.5524691,139.08207 69.4711543,140 70.6049383,140 L78.8148148,140 L92.4979424,140 L130.810426,140 C131.94421,140 132.862895,139.08207 132.862895,137.949219 L132.862895,127.02293 C132.862895,127.019102 132.863169,127.016094 132.863169,127.012266 C132.863169,121.358125 128.259344,116.758359 122.600549,116.758359 Z M84.8687778,64.6644141 C90.3412078,58.4702344 100.407337,57.9515234 109.413025,57.9515234 C110.280535,57.9515234 111.138193,57.9561719 111.980253,57.9605469 C112.100117,57.9610937 112.219434,57.9616406 112.338751,57.9624609 L112.338751,66.8560156 C112.338751,67.4220312 112.562881,67.9637109 112.975837,68.3514453 C113.389068,68.7391797 113.934477,68.9398828 114.499317,68.9037891 C114.686228,68.8928516 117.392204,68.8635937 119.289233,71.1752344 C120.690111,72.8828516 121.389045,75.5029297 121.373447,78.8998438 L120.481307,77.1175781 C120.02949,76.2138672 118.985467,75.7733594 118.022449,76.0807031 C117.900395,76.1195313 105.739379,79.9651563 98.7243128,79.9651563 C91.9954979,79.9651563 85.9070535,76.3199609 85.8487634,76.2846875 C84.9464979,75.7328906 83.7719383,75.9582031 83.1367675,76.8039453 L80.4280556,80.4127734 C80.2624897,73.4786719 81.7492984,68.1947656 84.8687778,64.6644141 Z M80.867284,94.2074219 L80.867284,86.6635547 L85.360823,80.6771875 C87.8916543,81.9347266 93.0244691,84.0667188 98.7243128,84.0667188 C104.803453,84.0667188 113.854021,81.5997656 117.584862,80.5005469 L120.548354,86.4229297 L120.548354,94.2074219 C120.548354,105.134258 111.648027,114.023984 100.707819,114.023984 C89.7676111,114.023984 80.867284,105.134258 80.867284,94.2074219 Z M112.340119,115.106797 L112.338751,117.711016 L106.036029,121.910469 L102.760014,120.275312 L102.760014,118.03668 C106.212815,117.742461 109.458453,116.713242 112.340119,115.106797 Z M98.6553498,118.036953 L98.6553498,120.155 L94.2162695,121.929063 L89.0777078,117.823125 L89.0777078,115.108164 C91.9585535,116.714062 95.2033704,117.742734 98.6553498,118.036953 Z M90.4454733,135.898438 L80.8675576,135.898438 L80.8675576,131.796875 L90.4454733,131.796875 L90.4454733,135.898438 Z M128.757957,127.012266 L128.75823,135.898438 L94.5504115,135.898438 L94.5504115,129.746094 C94.5504115,128.613242 93.6317263,127.695313 92.4979424,127.695313 L78.8153621,127.695313 C77.6815782,127.695313 76.762893,128.613242 76.762893,129.746094 L76.762893,135.898438 L72.6579547,135.898438 L72.6579547,127.012266 C72.6579547,123.62 75.4203045,120.859922 78.8153621,120.859922 L86.3055062,120.859922 L92.5866091,125.87832 C92.6046708,125.892813 92.6251955,125.902383 92.6435309,125.916328 C92.7015473,125.959258 92.7609321,125.99918 92.8225062,126.03582 C92.8597243,126.057969 92.8966687,126.07957 92.9344342,126.098984 C92.9932716,126.128789 93.053751,126.154492 93.1145041,126.178555 C93.1552798,126.194688 93.1955082,126.212188 93.2368313,126.225586 C93.3044259,126.247461 93.3736626,126.263047 93.4434465,126.277813 C93.4782016,126.285195 93.5121358,126.295586 93.5468909,126.301328 C93.6527984,126.318281 93.7600741,126.328125 93.8687181,126.328125 C93.9404177,126.328125 94.0118436,126.323203 94.0840905,126.31582 C94.096679,126.31418 94.1092675,126.311719 94.1221296,126.310078 C94.1785041,126.303242 94.2346049,126.293945 94.2909794,126.282188 C94.3139671,126.277266 94.3366811,126.27125 94.3596687,126.265508 C94.4037284,126.25457 94.4477881,126.242539 94.4915741,126.22832 C94.520035,126.219297 94.5484959,126.209453 94.5769568,126.199063 C94.5944712,126.192773 94.6128066,126.187852 94.630321,126.180742 L100.614226,123.789258 L105.266763,126.111289 C105.298235,126.127148 105.3308,126.138359 105.362545,126.152305 C105.399763,126.168438 105.43616,126.185938 105.473652,126.199883 C105.525101,126.21875 105.576549,126.233242 105.628272,126.247734 C105.653175,126.25457 105.677531,126.263867 105.702434,126.269609 C105.775228,126.287109 105.847749,126.299961 105.921091,126.309531 C105.927385,126.310078 105.933132,126.311719 105.939152,126.312813 C106.020156,126.322383 106.101434,126.327852 106.182165,126.327852 C106.278767,126.327852 106.374276,126.320742 106.469237,126.307344 C106.51056,126.301328 106.551609,126.289844 106.592932,126.281367 C106.645202,126.270703 106.698019,126.26168 106.749193,126.247188 C106.79079,126.234883 106.83184,126.21793 106.872889,126.203438 C106.924064,126.185117 106.974965,126.167617 107.024498,126.145742 C107.060621,126.129063 107.09565,126.109102 107.131226,126.090781 C107.184591,126.062891 107.237681,126.034727 107.288582,126.002188 C107.299529,125.995078 107.31157,125.99043 107.322516,125.983047 L115.01216,120.859922 L122.600823,120.859922 C125.993691,120.859922 128.754399,123.616172 128.75823,127.00543 C128.75823,127.007617 128.757957,127.010078 128.757957,127.012266 Z" id="Shape" fill="#42566C"></path>
                        <path d="M54.1849115,116.758359 L45.2919733,116.758359 L45.2933416,114.283477 C51.8746523,110.016484 56.2373807,102.611523 56.2373807,94.2074219 L56.2373807,89.6880469 L58.9677119,90.6623047 C59.1921152,90.7424219 59.4255494,90.7817969 59.6578889,90.7817969 C60.0757716,90.7817969 60.489823,90.6541016 60.8403848,90.4074609 C61.3860679,90.0232813 61.7106317,89.3982031 61.7106317,88.7310156 C61.7106317,76.4233203 59.339072,67.2842187 54.6616317,61.5685547 C50.8191358,56.8728125 45.5371749,54.4919922 38.9621584,54.4919922 C31.2982387,54.4919922 24.1162387,57.7817188 21.5643354,59.0895703 L16.7544424,56.8014453 C16.1436276,56.5107813 15.428821,56.5394922 14.8440041,56.8780078 C14.0208272,57.3540625 6.8560679,62.0607422 8.34643416,80.6041797 L8.34643416,94.2074219 C8.34643416,102.612617 12.7102572,110.018125 19.2929362,114.285117 L19.2929362,116.758359 L10.399177,116.758359 C4.74038272,116.758359 0.136831276,121.358125 0.136831276,127.012266 L0.136831276,137.949219 C0.136831276,139.08207 1.05579012,140 2.18930041,140 L62.3945144,140 C63.5280247,140 64.4469835,139.08207 64.4469835,137.949219 L64.4469835,127.02293 C64.4469835,127.019102 64.4475309,127.016094 64.4475309,127.012266 C64.4472572,121.358125 59.8437058,116.758359 54.1849115,116.758359 Z M16.20657,61.0834766 L20.7370535,63.2387109 C21.344858,63.5282813 22.0574753,63.4998438 22.6414712,63.1654297 C22.7213807,63.1194922 30.7202634,58.5935547 38.9624321,58.5935547 C50.714323,58.5935547 56.9628601,67.7452344 57.5588971,85.8041406 L22.035856,73.1278516 C21.812,73.0480078 21.5785658,73.0086328 21.345679,73.0086328 C21.0301461,73.0086328 20.7157078,73.0813672 20.4278148,73.2251953 L12.2729444,77.2991406 C11.9738313,67.025 14.8177325,62.6125391 16.20657,61.0834766 Z M12.4516461,94.2074219 L12.4516461,81.795 L21.480321,77.2846484 L52.132716,88.2229688 L52.132716,94.2074219 C52.132716,105.134258 43.2323889,114.023984 32.2921811,114.023984 C21.3519733,114.023984 12.4516461,105.134258 12.4516461,94.2074219 Z M41.1873086,116.413281 L41.1859403,118.808047 L41.1859403,118.808594 L41.1859403,118.808867 C41.1859403,123.709141 37.1959403,127.695586 32.2919074,127.695586 C27.3878745,127.695586 23.3978745,123.709141 23.3978745,118.808867 L23.3978745,116.413828 C26.1492778,117.516875 29.1508086,118.125547 32.2919074,118.125547 C35.4338272,118.125547 38.4356317,117.516602 41.1873086,116.413281 Z M60.3420453,127.012266 L60.3423189,135.898438 L4.24176955,135.898438 L4.24176955,127.012266 C4.24176955,123.62 7.00384568,120.859922 10.399177,120.859922 L19.4568601,120.859922 C20.4442346,127.050273 25.823072,131.797148 32.2921811,131.797148 C38.7612901,131.797148 44.1401276,127.050273 45.1275021,120.859922 L54.1851852,120.859922 C57.5780535,120.859922 60.3384877,123.616172 60.3423189,127.00543 C60.3423189,127.007617 60.3420453,127.010078 60.3420453,127.012266 Z" id="Shape" fill="#42566C"></path>
                        <path d="M78.2617428,10.8035156 C76.5814547,9.12734375 74.3483683,8.203125 71.973251,8.20039063 C69.5951235,8.203125 67.3617634,9.12734375 65.6844856,10.8035156 C64.0041975,12.4824219 63.0792181,14.7136719 63.0792181,17.0871094 C63.0792181,18.2191406 63.9987243,19.1378906 65.1316872,19.1378906 C66.2619136,19.1378906 67.1841564,18.2191406 67.1841564,17.0871094 L67.1841564,17.0841016 C67.186893,15.8071484 67.6849588,14.6094922 68.5880453,13.7071484 C69.4911317,12.8048047 70.6922366,12.3044141 71.973251,12.3016797 C73.2512551,12.3044141 74.4526337,12.8048047 75.3554465,13.7071484 C76.2612695,14.6094922 76.7596091,15.8096094 76.7623457,17.0868359 C76.7596091,18.3665234 76.2615432,19.5666406 75.3554465,20.4689844 C74.4586543,21.3650391 73.2674012,21.8640625 71.999249,21.8733594 C71.9904918,21.8730859 71.9817346,21.8719922 71.9729774,21.8719922 C70.8397407,21.8719922 69.9205082,22.7932031 69.9205082,23.9255078 L69.9205082,29.3942578 C69.9205082,30.5235547 70.8397407,31.4450391 71.9729774,31.4450391 C73.1032037,31.4450391 74.0254465,30.5235547 74.0254465,29.3942578 L74.0254465,25.7351172 L74.0257202,25.7351172 C75.6162469,25.3613281 77.076784,24.5544141 78.2617428,23.3707031 C79.9392942,21.6945313 80.8645473,19.4632813 80.867284,17.0871094 C80.8645473,14.7133984 79.9392942,12.4821484 78.2617428,10.8035156 Z" id="Shape" fill="#E83F67"></path>
                        <path d="M71.973251,32.8125 C70.8400144,32.8125 69.9207819,33.7309766 69.9207819,34.8632812 L69.9207819,37.5949219 C69.9207819,38.7269531 70.8400144,39.6457031 71.973251,39.6457031 C73.1034774,39.6457031 74.0257202,38.7269531 74.0257202,37.5949219 L74.0257202,34.8632812 C74.0257202,33.7309766 73.1032037,32.8125 71.973251,32.8125 Z" id="Shape" fill="#E83F67"></path>
                    </g>
                </g>
            </g>
        </g>
    </g>
</svg>