<?xml version="1.0" encoding="UTF-8"?>
<svg width="149px" height="158px" viewBox="0 0 149 158" version="1.1" xmlns="http://www.w3.org/2000/svg" xmlns:xlink="http://www.w3.org/1999/xlink">
    <!-- Generator: Sketch 52.2 (67145) - http://www.bohemiancoding.com/sketch -->
    <title>Artboard</title>
    <desc>Created with Sketch.</desc>
    <g id="Artboard" stroke="none" stroke-width="1" fill="none" fill-rule="evenodd">
        <g id="settings-(1)" transform="translate(74.500000, 78.500000) rotate(-20.000000) translate(-74.500000, -78.500000) translate(18.000000, 7.000000)">
            <path d="M9.70948147,24.6164286 C35.4749875,-1.1527551 77.4059413,-1.1527551 103.200627,24.6164286 L103.60914,25.025 L95.6139546,25.025 C94.1549792,25.025 92.9586193,26.2215306 92.9586193,27.6807143 C92.9586193,29.139898 94.1549792,30.3364286 95.6139546,30.3364286 L109.999452,30.3364286 C111.458428,30.3364286 112.654788,29.139898 112.654788,27.6807143 L112.654788,13.2931633 C112.654788,11.8339796 111.458428,10.637449 109.999452,10.637449 C108.540477,10.637449 107.344117,11.8339796 107.344117,13.2931633 L107.344117,21.2894898 L106.935604,20.8809184 C79.0983528,-6.96030612 33.8117555,-6.96030612 5.97450437,20.8809184 C4.95322157,21.9023469 4.95322157,23.595 5.97450437,24.6164286 C6.99578717,25.6670408 8.68819867,25.6670408 9.70948147,24.6164286 Z" id="Path" fill="#E83F67"></path>
            <path d="M2.93983549,132.099898 C4.39881091,132.099898 5.59517076,130.903367 5.59517076,129.444184 L5.59517076,121.447857 L5.97450437,121.856429 C19.8931299,135.777041 38.1595023,142.722755 56.4550541,142.722755 C74.7214265,142.722755 93.0169783,135.747857 106.935604,121.856429 C107.956887,120.835 107.956887,119.142347 106.935604,118.120918 C105.914321,117.09949 104.22191,117.09949 103.200627,118.120918 C77.4351208,143.890102 35.504167,143.890102 9.70948147,118.120918 L9.30096835,117.712347 L17.2961537,117.712347 C18.7551291,117.712347 19.951489,116.515816 19.951489,115.056633 C19.951489,113.597449 18.7551291,112.400918 17.2961537,112.400918 L2.93983549,112.400918 C1.48086006,112.400918 0.284500208,113.597449 0.284500208,115.056633 L0.284500208,129.444184 C0.284500208,130.903367 1.48086006,132.099898 2.93983549,132.099898 Z" id="Path" fill="#E83F67"></path>
            <path d="M103.871756,60.4831633 C104.542884,58.8488776 104.542884,57.0394898 103.871756,55.3760204 L101.274779,49.1307143 C100.253496,46.6209184 97.8315973,45.0158163 95.117903,45.0158163 C94.2425177,45.0158163 93.396312,45.1909184 92.5792857,45.5119388 L88.7859496,47.0878571 C86.4807684,43.9943878 83.7670741,41.3094898 80.7032257,39.0039796 L82.2789192,35.210102 C83.6795356,31.8247959 82.0746626,27.9141837 78.6898397,26.5133673 L72.4454248,23.9160204 C71.6283986,23.5658163 70.7821928,23.419898 69.9068076,23.419898 C67.1931133,23.419898 64.8003936,25.025 63.7499313,27.5347959 L62.1742378,31.3286735 C58.3809017,30.7741837 54.5292066,30.7741837 50.7358705,31.3286735 L49.160177,27.5347959 C48.1388942,25.025 45.716995,23.419898 43.0033007,23.419898 C42.1279155,23.419898 41.2817097,23.595 40.4646835,23.9160204 L34.2202686,26.5133673 C32.5862162,27.1845918 31.3023178,28.4686735 30.6020096,30.1321429 C29.9308809,31.7664286 29.9308809,33.5758163 30.6020096,35.2392857 L32.177703,39.0331633 C29.0846751,41.3386735 26.4001603,44.0527551 24.0949792,47.1170408 L20.3016431,45.5411224 C19.4846168,45.1909184 18.6384111,45.045 17.7630258,45.045 C15.0493315,45.045 12.6566118,46.650102 11.6061495,49.159898 L9.00917326,55.4052041 C7.60855685,58.7905102 9.21342982,62.7011224 12.6274323,64.1019388 L16.4207684,65.6778571 C15.8663578,69.4717347 15.8663578,73.3239796 16.4207684,77.1178571 L12.6274323,78.6937755 C9.24260933,80.0945918 7.60855685,84.0052041 9.00917326,87.3905102 L11.6061495,93.6358163 C12.6274323,96.1456122 15.0493315,97.7507143 17.7630258,97.7507143 C18.6384111,97.7507143 19.4846168,97.5756122 20.3016431,97.2545918 L24.0949792,95.6786735 C26.4001603,98.7721429 29.1138546,101.457041 32.177703,103.762551 L30.6020096,107.556429 C29.2013932,110.941735 30.8062661,114.852347 34.1910891,116.253163 L40.435504,118.85051 C41.2525302,119.200714 42.0987359,119.346633 42.9741212,119.346633 C45.6878155,119.346633 48.0805352,117.741531 49.1309975,115.231735 L50.706691,111.437857 C54.5000271,111.992347 58.3517222,111.992347 62.1450583,111.437857 L63.7207518,115.231735 C64.7420346,117.741531 67.1639338,119.346633 69.8776281,119.346633 C70.7530133,119.346633 71.5992191,119.171531 72.4162453,118.85051 L78.6606601,116.253163 C82.0454831,114.852347 83.6795356,110.941735 82.2789192,107.556429 L80.7032257,103.762551 C83.7962536,101.457041 86.4807684,98.7429592 88.7859496,95.6786735 L92.5792857,97.2545918 C93.396312,97.6047959 94.2425177,97.7507143 95.117903,97.7507143 C97.8315973,97.7507143 100.224317,96.1456122 101.274779,93.6358163 L103.871756,87.3905102 C104.542884,85.7562245 104.542884,83.9468367 103.871756,82.2833673 C103.200627,80.6490816 101.916728,79.365 100.253496,78.6645918 L96.4601603,77.0886735 C97.014571,73.2947959 97.014571,69.442551 96.4601603,65.6486735 L100.253496,64.0727551 C101.916728,63.4015306 103.200627,62.117449 103.871756,60.4831633 Z M98.9987776,58.4694898 C98.85288,58.8196939 98.5902645,59.0823469 98.2692899,59.1990816 L92.5209267,61.5629592 C91.3537464,62.0590816 90.6826177,63.2847959 90.9452332,64.5105102 C91.849798,69.0631633 91.849798,73.645 90.9452332,78.1976531 C90.7117972,79.4233673 91.3537464,80.6782653 92.5209267,81.1452041 L98.2401104,83.5090816 C98.5902645,83.655 98.85288,83.9176531 98.9695981,84.2386735 C99.1154956,84.5888776 99.1154956,84.9390816 98.9695981,85.2892857 L96.3726218,91.5345918 C96.0808267,92.2058163 95.2638005,92.5560204 94.5926718,92.2641837 L88.8734881,89.9003061 C87.7063078,89.4041837 86.3640504,89.8127551 85.6637422,90.8633673 C83.0959454,94.7156122 79.85702,97.955 76.0053249,100.523163 C74.9548626,101.223571 74.5463494,102.56602 75.0424011,103.733367 L77.4059413,109.482551 C77.6977364,110.182959 77.3475823,111.000102 76.6764536,111.262755 L70.4320387,113.860102 C69.7317305,114.151939 68.9147043,113.801735 68.6520887,113.13051 L66.2885485,107.381327 C65.8800354,106.389082 64.8879321,105.747041 63.8374698,105.747041 C63.6623928,105.747041 63.4873157,105.776224 63.3122387,105.805408 C58.8185943,106.710102 54.1206935,106.710102 49.6270491,105.805408 C48.4015098,105.571939 47.1467909,106.21398 46.6799188,107.381327 L44.3163786,113.101327 C44.0245835,113.772551 43.2075573,114.122755 42.5364286,113.830918 L36.2920137,111.233571 C35.5917055,110.941735 35.2707309,110.153776 35.562526,109.453367 L37.9260662,103.733367 C38.4221179,102.56602 38.0136047,101.223571 36.9631424,100.523163 C33.1114473,97.955 29.8725219,94.7156122 27.3047251,90.8341837 C26.6044169,89.7835714 25.2621595,89.375 24.0949792,89.8711224 L18.346616,92.235 C17.6463078,92.5268367 16.8292815,92.1766327 16.566666,91.5054082 L13.9696897,85.260102 C13.6778946,84.5596939 14.0280487,83.742551 14.6991774,83.479898 L20.4475406,81.1160204 C21.6147209,80.619898 22.2858496,79.3941837 22.0232341,78.1684694 C21.1186693,73.6158163 21.1186693,69.0339796 22.0232341,64.4813265 C22.2566701,63.2556122 21.6147209,62.0007143 20.4475406,61.5337755 L14.7283569,59.169898 C14.0280487,58.8780612 13.7070741,58.090102 13.9988692,57.3896939 L16.5958455,51.1443878 C16.8876406,50.4731633 17.7046668,50.1229592 18.3757955,50.4147959 L24.0949792,52.7786735 C25.2621595,53.2747959 26.6044169,52.8662245 27.3047251,51.8156122 C29.8725219,47.9633673 33.1114473,44.7239796 36.9631424,42.1558163 C38.0136047,41.4554082 38.4221179,40.1129592 37.9260662,38.9456122 L35.562526,33.1964286 C35.4166285,32.8462245 35.4166285,32.4960204 35.562526,32.1458163 C35.7084236,31.7956122 35.9710392,31.5329592 36.2920137,31.4162245 L42.5364286,28.8188776 C43.2367368,28.5270408 44.053763,28.8772449 44.3163786,29.5484694 L46.6799188,35.2976531 C47.1759704,36.465 48.4015098,37.1362245 49.6270491,36.8735714 C54.1206935,35.9688776 58.8185943,35.9688776 63.3122387,36.8735714 C64.537778,37.1070408 65.7924969,36.465 66.259369,35.2976531 L68.6229092,29.5776531 C68.9147043,28.9064286 69.7317305,28.5562245 70.4028592,28.8480612 L76.6472741,31.4454082 C77.3475823,31.7372449 77.6685569,32.5252041 77.3767618,33.2256122 L75.0132216,38.9456122 C74.5171699,40.1129592 74.925683,41.4554082 75.9761454,42.1558163 C79.8278405,44.7239796 83.0667659,47.9633673 85.6345627,51.8447959 C86.3348709,52.8954082 87.6771283,53.3039796 88.8443086,52.8078571 L94.5926718,50.4439796 C95.29298,50.1521429 96.1100062,50.5023469 96.3726218,51.1735714 L98.9695981,57.4188776 C99.1446751,57.739898 99.1446751,58.1192857 98.9987776,58.4694898 Z" id="Shape" fill="#42566C" fill-rule="nonzero"></path>
            <path d="M64.362701,52.3117347 C61.8240837,51.2611224 59.1687484,50.7358163 56.4550541,50.7358163 C48.0805352,50.7358163 40.5814015,55.7262245 37.3716556,63.4890816 C35.2707309,68.5962245 35.2707309,74.1994898 37.3716556,79.277449 C39.4725802,84.3845918 43.4409933,88.3535714 48.5474073,90.4547959 C51.0860246,91.5054082 53.7413599,92.0307143 56.4550541,92.0307143 C64.8295731,92.0307143 72.3287068,87.0403061 75.5384527,79.277449 C77.6393773,74.1703061 77.6393773,68.5670408 75.5384527,63.4890816 C73.4083486,58.3819388 69.4399354,54.4129592 64.362701,52.3117347 Z M70.6362953,77.2345918 C68.2435756,82.9837755 62.6702895,86.7192857 56.4550541,86.7192857 C54.4416681,86.7192857 52.4574615,86.3107143 50.5899729,85.5519388 C46.7966368,83.9760204 43.8495065,81.0284694 42.273813,77.2345918 C40.6981195,73.4407143 40.6981195,69.267449 42.273813,65.4735714 C44.6665327,59.7243878 50.2398188,55.9888776 56.4550541,55.9888776 C58.4684402,55.9888776 60.4526468,56.397449 62.3201354,57.1562245 C66.1134715,58.7321429 69.0606018,61.6796939 70.6362953,65.4735714 C72.2119888,69.2966327 72.2119888,73.469898 70.6362953,77.2345918 Z" id="Shape" fill="#42566C" fill-rule="nonzero"></path>
        </g>
    </g>
</svg>