<?xml version="1.0" encoding="UTF-8"?>
<svg width="250px" height="251px" viewBox="0 0 250 251" version="1.1" xmlns="http://www.w3.org/2000/svg" xmlns:xlink="http://www.w3.org/1999/xlink">
    <!-- Generator: Sketch 52.2 (67145) - http://www.bohemiancoding.com/sketch -->
    <title>factory</title>
    <desc>Created with Sketch.</desc>
    <g id="desktop" stroke="none" stroke-width="1" fill="none" fill-rule="evenodd" opacity="0.0161132812">
        <g id="sharepoint_opt2" transform="translate(-1190.000000, -2526.000000)" fill="#000000">
            <g id="Group-24" transform="translate(0.000000, 2471.000000)">
                <g id="Group-38">
                    <g id="Group-21" transform="translate(250.000000, 56.000000)">
                        <g id="factory" transform="translate(940.000000, 0.000000)">
                            <path d="M246.337891,242.694125 L234.34375,242.694125 L234.34375,192.484253 C236.740723,190.382109 238.257812,187.304388 238.257812,183.877932 C238.257812,177.557863 233.103027,172.416475 226.767578,172.416475 L202.809082,172.416475 L199.109375,113.372339 C198.98877,111.446997 197.388184,109.947344 195.45459,109.947344 L179.797852,109.947344 C177.864258,109.947344 176.263672,111.446997 176.143066,113.372339 L172.443359,172.416475 L163.66748,172.416475 L159.967773,113.372339 C159.847168,111.446997 158.246582,109.947344 156.312988,109.947344 L140.656738,109.947344 C138.723145,109.947344 137.122559,111.446997 137.001953,113.372339 L133.302246,172.416475 L124.526367,172.416475 L120.82666,113.372339 C120.706055,111.446997 119.105469,109.947344 117.171875,109.947344 L101.515625,109.947344 C99.5820312,109.947344 97.9814453,111.446997 97.8608398,113.372339 L94.1611328,172.416475 L83.9609375,172.416475 L81.6923828,70.5715989 C81.6484375,68.5863491 80.0219727,67 78.03125,67 L54.5463867,67 C52.5556641,67 50.9291992,68.5863491 50.8852539,70.5715989 L48.2685547,188.034001 L19.3183594,188.034001 C12.9824219,188.034001 7.828125,193.175876 7.828125,199.495458 C7.828125,202.921914 9.34521484,205.999635 11.7421875,208.101779 L11.7421875,242.694125 L3.66210938,242.694125 C1.63964844,242.694125 0,244.329667 0,246.347062 C0,248.364458 1.63964844,250 3.66210938,250 L246.337891,250 C248.360352,250 250,248.364458 250,246.347062 C250,244.329667 248.360352,242.694125 246.337891,242.694125 Z M47.9194336,203.651527 L34.9765625,203.651527 C32.9541016,203.651527 31.3144531,205.287069 31.3144531,207.304465 C31.3144531,209.32186 32.9541016,210.957402 34.9765625,210.957402 L47.7568359,210.957402 L47.0498047,242.694125 L19.0664062,242.694125 L19.0664062,210.950584 C19.1503906,210.952532 19.2338867,210.956915 19.3183594,210.956915 C21.3408203,210.956915 22.9804688,209.321373 22.9804688,207.303978 C22.9804688,205.286582 21.3408203,203.65104 19.3183594,203.65104 C17.0209961,203.65104 15.1523438,201.786581 15.1523438,199.495458 C15.1523438,197.203849 17.0214844,195.339876 19.3183594,195.339876 L48.1044922,195.339876 L47.9194336,203.651527 Z M183.237793,117.25322 L192.013672,117.25322 L195.470215,172.416475 L179.781738,172.416475 L183.237793,117.25322 Z M144.09668,117.25322 L152.872559,117.25322 L156.329102,172.416475 L140.640625,172.416475 L144.09668,117.25322 Z M104.955566,117.25322 L113.731445,117.25322 L117.1875,172.416475 L101.499023,172.416475 L104.955566,117.25322 Z M62.6264648,242.694125 L54.3764648,242.694125 L58.1269531,74.3053882 L74.4487305,74.3053882 L76.6347656,172.416475 L70.2026367,172.416475 C63.8666992,172.416475 58.7119141,177.55835 58.7119141,183.877932 C58.7119141,187.304388 60.2290039,190.382109 62.6264648,192.484253 L62.6264648,242.694125 Z M226.767578,188.033514 L218.939453,188.033514 C216.916992,188.033514 215.277344,189.669056 215.277344,191.686452 C215.277344,193.703847 216.916992,195.339389 218.939453,195.339389 L226.767578,195.339389 C226.852051,195.339389 226.935547,195.334519 227.019531,195.333057 L227.019531,242.694125 L69.9501953,242.694125 L69.9501953,195.333057 C70.0341797,195.335006 70.1176758,195.339389 70.2021484,195.339389 L203.285645,195.339389 C205.308105,195.339389 206.947754,193.703847 206.947754,191.686452 C206.947754,189.669056 205.308105,188.033514 203.285645,188.033514 L70.2021484,188.033514 C67.9047852,188.033514 66.0356445,186.169054 66.0356445,183.877932 C66.0356445,181.58681 67.9047852,179.72235 70.2021484,179.72235 L226.76709,179.72235 C229.064453,179.72235 230.933594,181.586322 230.933594,183.877932 C230.933594,186.169542 229.064453,188.033514 226.767578,188.033514 Z" id="Shape" fill-rule="nonzero"></path>
                            <path d="M203.353192,0 C192.337608,0 181.835897,3.8321906 173.440865,10.8545523 C167.413839,6.34632148 160.109445,3.89585794 152.546165,3.89585794 C143.364724,3.89585794 134.599647,7.50934394 128.084588,13.8979483 C124.707366,12.4462358 121.054194,11.6875738 117.372257,11.6875738 C106.500987,11.6875738 96.8100618,18.1762963 92.5567224,27.8872665 C91.089213,27.4775599 89.5866004,27.2710056 88.0605857,27.2710056 C80.5070566,27.2710056 74.0114994,32.1675586 71.6912745,39.0266208 C71.2871,38.9819079 70.8804877,38.9590654 70.473388,38.9590654 C64.1470087,38.9590654 59,44.0898753 59,50.3958579 C59.0004875,52.4093983 60.6376624,54.0414206 62.6570723,54.0414206 C64.6764822,54.0414206 66.3136571,52.4093983 66.3136571,50.3963439 C66.3136571,48.1096659 68.179978,46.2497047 70.4738755,46.2497047 C71.1993419,46.2497047 71.9106696,46.454315 72.5873815,46.8581895 C73.6833819,47.5118733 75.0416812,47.547838 76.1713222,46.9544196 C77.3004755,46.3605151 78.037643,45.2222791 78.1146751,43.9513624 C78.4349919,38.6864137 82.8038794,34.5621309 88.0600982,34.5621309 C89.7221378,34.5621309 91.3627256,35.0097463 92.9355446,35.8928269 C93.9208723,36.4463925 95.1090186,36.513462 96.1518765,36.0745947 C97.1947345,35.6357275 97.9743184,34.7404967 98.2644075,33.6498897 C100.560255,25.011544 108.417525,18.9782132 117.371769,18.9782132 C120.76508,18.9782132 124.1267,19.8627518 127.092922,21.5355989 C128.609186,22.3909769 130.521823,22.060976 131.660728,20.7458323 C136.92426,14.6707046 144.536782,11.1864973 152.545677,11.1864973 C159.393242,11.1864973 165.977045,13.7346489 171.083587,18.3609802 C172.50868,19.6518233 174.693855,19.6202327 176.080432,18.2880786 C183.461858,11.1957315 193.14742,7.29015333 203.353192,7.29015333 C225.042102,7.29015333 242.68683,24.8798353 242.68683,46.5 C242.68683,68.1201647 225.042102,85.7098467 203.353192,85.7098467 C188.953561,85.7098467 175.716236,77.8724458 168.807241,65.2561065 C167.885782,63.5735391 165.814205,62.8902087 164.06782,63.6921256 C160.400509,65.376151 156.524042,66.230071 152.546165,66.230071 C144.537269,66.230071 136.924747,62.7458637 131.661215,56.6707359 C130.522311,55.3560783 128.610161,55.0255913 127.093409,55.8809693 C124.127188,57.5538165 120.765568,58.4383551 117.372257,58.4383551 C111.193116,58.4383551 105.475193,55.6180378 101.685508,50.7005863 C100.997095,49.8077856 99.9337603,49.2819225 98.8041194,49.2760904 C98.7977813,49.2760904 98.7919308,49.2760904 98.7860802,49.2760904 C97.6632649,49.2760904 96.6018802,49.7907752 95.9085918,50.6719117 C93.9740146,53.1316095 91.1135902,54.5420111 88.0605857,54.5420111 C86.0411758,54.5420111 84.4040009,56.1740335 84.4040009,58.1870878 C84.4040009,60.2001421 86.0411758,61.8321645 88.0605857,61.8321645 C91.936078,61.8321645 95.6219155,60.5413213 98.6251905,58.1997241 C103.642512,63.0248336 110.283845,65.7280224 117.372257,65.7280224 C121.054194,65.7280224 124.707366,64.9693605 128.084588,63.5181339 C134.599647,69.9067383 143.365212,73.5202243 152.546165,73.5202243 C156.486988,73.5202243 160.345416,72.8607084 164.055631,71.556743 C172.599363,84.8612728 187.371966,93 203.353192,93 C229.074584,93 250,72.1399553 250,46.5 C250,20.8600447 229.074584,0 203.353192,0 Z" id="Path" stroke="#000000" stroke-width="0.603999996"></path>
                            <path d="M93.5,204 C91.5670667,204 90,205.623163 90,207.62529 L90,215.37471 C90,217.376837 91.5670667,219 93.5,219 C95.4329333,219 97,217.376837 97,215.37471 L97,207.62529 C97,205.623163 95.4329333,204 93.5,204 Z" id="Path"></path>
                            <path d="M109.5,204 C107.567067,204 106,205.623163 106,207.62529 L106,215.37471 C106,217.376837 107.567067,219 109.5,219 C111.432933,219 113,217.376837 113,215.37471 L113,207.62529 C113,205.623163 111.432933,204 109.5,204 Z" id="Path"></path>
                            <path d="M125.5,204 C123.567067,204 122,205.623163 122,207.62529 L122,215.37471 C122,217.376837 123.567067,219 125.5,219 C127.432933,219 129,217.376837 129,215.37471 L129,207.62529 C129,205.623163 127.432933,204 125.5,204 Z" id="Path"></path>
                            <path d="M140.5,204 C138.567067,204 137,205.623163 137,207.62529 L137,215.37471 C137,217.376837 138.567067,219 140.5,219 C142.432933,219 144,217.376837 144,215.37471 L144,207.62529 C144,205.623163 142.4334,204 140.5,204 Z" id="Path"></path>
                            <path d="M156.5,204 C154.567067,204 153,205.623163 153,207.62529 L153,215.37471 C153,217.376837 154.567067,219 156.5,219 C158.432933,219 160,217.376837 160,215.37471 L160,207.62529 C160,205.623163 158.432933,204 156.5,204 Z" id="Path"></path>
                            <path d="M171.5,204 C169.567067,204 168,205.623163 168,207.62529 L168,215.37471 C168,217.376837 169.567067,219 171.5,219 C173.432933,219 175,217.376837 175,215.37471 L175,207.62529 C175,205.623163 173.432933,204 171.5,204 Z" id="Path"></path>
                            <path d="M187.5,204 C185.567067,204 184,205.623163 184,207.62529 L184,215.37471 C184,217.376837 185.567067,219 187.5,219 C189.432933,219 191,217.376837 191,215.37471 L191,207.62529 C191,205.623163 189.432933,204 187.5,204 Z" id="Path"></path>
                            <path d="M203.5,204 C201.567067,204 200,205.623163 200,207.62529 L200,215.37471 C200,217.376837 201.567067,219 203.5,219 C205.432933,219 207,217.376837 207,215.37471 L207,207.62529 C207,205.623163 205.432933,204 203.5,204 Z" id="Path"></path>
                        </g>
                    </g>
                </g>
            </g>
        </g>
    </g>
</svg>