<?xml version="1.0" encoding="UTF-8"?>
<svg width="65px" height="68px" viewBox="0 0 65 68" version="1.1" xmlns="http://www.w3.org/2000/svg" xmlns:xlink="http://www.w3.org/1999/xlink">
    <!-- Generator: Sketch 52.2 (67145) - http://www.bohemiancoding.com/sketch -->
    <title>paper-plane</title>
    <desc>Created with Sketch.</desc>
    <g id="desktop" stroke="none" stroke-width="1" fill="none" fill-rule="evenodd">
        <g id="sharepoint_opt2" transform="translate(-660.000000, -1639.000000)">
            <g id="Group-17" transform="translate(241.000000, 1079.000000)">
                <g id="Group-46" transform="translate(376.000000, 516.000000)">
                    <g id="Group-9" transform="translate(40.000000, 44.000000)">
                        <g id="Group-15">
                            <g id="paper-plane" transform="translate(3.000000, 0.000000)">
                                <path d="M52.2114683,24.5228116 C52.9391957,24.5228116 53.5299268,23.9320804 53.5299268,23.2043532 C53.5299268,22.4766258 52.9391957,21.8858947 52.2114683,21.8858947 C51.4837411,21.8858947 50.8930099,22.4766258 50.8930099,23.2043532 C50.8930099,23.9320804 51.4837411,24.5228116 52.2114683,24.5228116 Z" id="Path" fill="#42566C"></path>
                                <path d="M51.1819377,58.3083085 C51.8777335,59.178182 53.2816858,58.8454772 53.5041757,57.7453885 L64.8403429,1.59039047 C64.9237766,1.19279285 64.821287,0.777684523 64.5565654,0.465065639 C64.5560503,0.465065639 64.5560503,0.465065639 64.5555353,0.464550649 L64.5555353,0.464035527 C64.2048048,0.0515022819 63.7356189,0.0236911156 63.7222284,0.0103004564 C63.5239447,-0.0103004564 63.3436866,-0.00412018256 63.1314972,0.0674680223 L1.71554104,19.3092355 C0.522748195,19.683142 0.474335984,21.3621166 1.64652792,21.801946 L21.7499287,29.34085 L19.2628834,46.7501664 C19.2618534,46.7568616 19.2623684,46.763042 19.2618534,46.7692222 C19.1294926,47.8080233 20.2100104,48.5898279 21.1581674,48.1160069 L36.7793246,40.3046557 L51.1819377,58.3083085 Z M51.4775609,54.4569678 C50.6308633,53.3980809 33.7113337,32.2491839 32.9145933,31.2531298 L61.4550979,5.03280299 L51.4775609,54.4569678 Z M6.16276312,20.6791962 L55.295425,5.28567923 L23.0323355,27.0052216 L6.16276312,20.6791962 Z M24.4275324,29.2450558 L49.7831358,12.1751395 L30.2241141,30.1442856 C30.218964,30.1489209 30.2148438,30.154071 30.2096935,30.1587063 C30.1926978,30.1746719 30.176732,30.1916678 30.1602513,30.2086635 C30.1453157,30.2246292 30.13038,30.2405949 30.1164744,30.2570756 C30.1041138,30.2714962 30.0922683,30.2859169 30.0809378,30.3008525 C30.0639421,30.3219685 30.0479764,30.3430844 30.0330406,30.3652304 C30.0284055,30.3719257 30.0232553,30.377591 30.0191351,30.3842863 L22.6955106,41.3692079 L24.4275324,29.2450558 Z M24.419292,43.5369391 L31.2129579,33.3466975 L35.094685,38.1987275 L24.419292,43.5369391 Z" id="Shape" fill="#42566C" fill-rule="nonzero"></path>
                                <path d="M48.4718877,46.8629564 C49.1918895,46.9705961 49.8634793,46.4751442 49.9716341,45.7546273 L52.5462332,28.5842815 C52.654388,27.8642796 52.158421,27.1926899 51.4379041,27.084535 C50.7173872,26.9774103 50.0468275,27.4728623 49.9386727,28.1928641 L47.3635586,45.3632099 C47.2554037,46.0837269 47.7518858,46.7548017 48.4718877,46.8629564 Z" id="Path" fill="#42566C"></path>
                                <path d="M0.386267181,67.1188038 C0.90129,67.6338266 1.73562684,67.6333116 2.25064966,67.1188038 L10.9529903,58.4169783 C11.467498,57.9019554 11.467498,57.0671035 10.9529903,56.5520807 C10.4379675,56.037573 9.60311556,56.037573 9.08809274,56.5520807 L0.386267181,65.2539062 C-0.128755639,65.768929 -0.128755639,66.603781 0.386267181,67.1188038 Z" id="Path" fill="#E83F67"></path>
                                <path d="M22.2726769,56.5520807 L13.5708514,65.2544213 C13.0558285,65.768929 13.0558285,66.603781 13.5708514,67.1188038 C14.0858742,67.6338266 14.9207261,67.6338266 15.435749,67.1188038 L24.1375745,58.4169783 C24.6525973,57.9019554 24.6525973,57.0671035 24.1375745,56.5520807 C23.6225517,56.037573 22.7876997,56.037573 22.2726769,56.5520807 Z" id="Path" fill="#E83F67"></path>
                                <path d="M0.386267181,53.9342196 C0.90129,54.4487275 1.73562684,54.4487275 2.25064966,53.9342196 L10.9529903,45.2323941 C11.467498,44.7173713 11.467498,43.8825193 10.9529903,43.3674965 C10.4379675,42.8524737 9.60311556,42.8524737 9.08809274,43.3674965 L0.386267181,52.069322 C-0.128755639,52.5843449 -0.128755639,53.4191968 0.386267181,53.9342196 Z" id="Path" fill="#E83F67"></path>
                            </g>
                        </g>
                    </g>
                </g>
            </g>
        </g>
    </g>
</svg>