<?xml version="1.0" encoding="UTF-8"?>
<svg width="43px" height="75px" viewBox="0 0 43 75" version="1.1" xmlns="http://www.w3.org/2000/svg" xmlns:xlink="http://www.w3.org/1999/xlink">
    <!-- Generator: Sketch 52.2 (67145) - http://www.bohemiancoding.com/sketch -->
    <title>smartphone</title>
    <desc>Created with Sketch.</desc>
    <g id="desktop" stroke="none" stroke-width="1" fill="none" fill-rule="evenodd">
        <g id="sharepoint_opt2" transform="translate(-277.000000, -2104.000000)">
            <g id="Group-17" transform="translate(241.000000, 1079.000000)">
                <g id="Group-41" transform="translate(1.000000, 998.000000)">
                    <g id="Group-9" transform="translate(35.000000, 28.000000)">
                        <g id="Group-15">
                            <g id="smartphone">
                                <path d="M36.8239167,0 L6.17608333,0 C3.22201667,0 0.816666667,2.40535 0.816666667,5.35941667 L0.816666667,67.6393667 C0.816666667,70.59465 3.22201667,73 6.17608333,73 L36.8227,73 C39.7779833,73 42.1833333,70.59465 42.1833333,67.6405833 L42.1833333,5.35941667 C42.1833333,2.40535 39.7779833,0 36.8239167,0 Z M3.25,9.73333333 L39.75,9.73333333 L39.75,55.9666667 L3.25,55.9666667 L3.25,9.73333333 Z M6.17608333,2.43333333 L36.8227,2.43333333 C38.4372167,2.43333333 39.75,3.74611667 39.75,5.35941667 L39.75,7.3 L3.25,7.3 L3.25,5.35941667 C3.25,3.74611667 4.56278333,2.43333333 6.17608333,2.43333333 Z M36.8239167,70.5666667 L6.17608333,70.5666667 C4.56278333,70.5666667 3.25,69.2538833 3.25,67.6405833 L3.25,58.4 L39.75,58.4 L39.75,67.6405833 C39.75,69.2538833 38.4372167,70.5666667 36.8239167,70.5666667 Z" id="Shape" stroke="#42566C" stroke-width="0.1" fill="#42566C" fill-rule="nonzero"></path>
                                <g id="tools" transform="translate(7.000000, 18.000000)" fill="#E83F67" fill-rule="nonzero" stroke="#E83F67" stroke-width="0.6">
                                    <path d="M29.9043705,22.2544436 C29.6527553,21.431 29.2003325,20.6826863 28.5875059,20.0766005 C27.6114727,19.0976373 26.2832779,18.5489118 24.8991449,18.5526789 C24.1917577,18.5530343 23.4917102,18.6961863 22.8411876,18.9734632 L17.7105463,13.8558162 L24.5228979,7.11189461 L26.1361995,7.06640441 C26.3313777,7.0605049 26.5098812,6.95530882 26.6093587,6.78777696 L28.9181473,2.91542402 C29.0523278,2.69195343 29.0170546,2.40607598 28.8326366,2.22169853 L26.8373872,0.231502451 C26.6525416,0.0475514706 26.3659382,0.0123676471 26.1419002,0.146208333 L22.259715,2.44914951 C22.0917577,2.548375 21.9862945,2.72642647 21.98038,2.92111029 L21.9347743,4.52463971 L15.1395249,11.2913064 L10.476342,6.63993382 C10.965962,3.8082402 9.06149644,1.11678431 6.22261283,0.628404412 C4.90724466,0.402090686 3.55489311,0.68739951 2.444038,1.4256201 C2.1832304,1.60153922 2.11475059,1.95501225 2.29111639,2.21515931 C2.34071259,2.28829902 2.40669834,2.34892892 2.48394299,2.39228676 L5.07206651,3.83091422 C5.64213777,4.15503186 5.75615202,5.12169853 5.2943943,5.94052206 C4.83263658,6.75934559 3.94902613,7.1801299 3.37325416,6.86169853 L0.973254157,5.56522794 C0.697410926,5.41383088 0.350736342,5.51419363 0.199026128,5.78933824 C0.14672209,5.88408578 0.12263658,5.99176961 0.129619952,6.09973775 C0.309976247,8.96761029 2.78700713,11.1465907 5.66216152,10.9666912 C6.25617577,10.9295172 6.83942993,10.7911985 7.38662708,10.557777 L11.6279572,14.7883652 L9.79232779,16.6193456 L9.37617577,16.2099338 C8.91548694,15.7701716 8.18935867,15.7701716 7.72866983,16.2099338 L7.15859857,16.7785613 C6.72427553,17.2003407 6.6967696,17.8873137 7.09589074,18.3422868 L0.351947743,25.057777 C-0.102969121,25.4919951 -0.118859857,26.2119485 0.316460808,26.6657132 C0.328004751,26.6777966 0.339833729,26.6895956 0.351947743,26.7011103 L2.2787886,28.6230711 C2.71410926,29.0768358 3.43589074,29.0926863 3.8908076,28.6584681 C3.90292162,28.6469534 3.91475059,28.6351544 3.92629454,28.6230711 L10.6759382,21.8962083 C11.1320665,22.2943186 11.8207838,22.2668824 12.2436342,21.8336593 L12.8137055,21.2650319 C13.2686223,20.8308137 13.2845131,20.1108603 12.8491924,19.6570956 C12.8376485,19.6450123 12.8258195,19.6332132 12.8137055,19.6216985 L12.3975534,19.2066005 L14.2217815,17.3471887 L19.7514727,22.862875 C19.273753,25.6966299 21.1894774,28.3800539 24.0304276,28.8565637 C25.7131354,29.1388162 27.4278385,28.5822721 28.6217815,27.3664044 C28.8311401,27.1318456 28.8103325,26.772473 28.5751781,26.5635735 C28.5144656,26.509625 28.4428504,26.4692525 28.3652494,26.4452279 L25.1557482,25.5866005 C24.8412114,25.4857402 24.5922328,25.2437181 24.4830641,24.9326789 C24.3163183,24.5038627 24.2962945,24.0321152 24.426057,23.5907181 C24.6654869,22.697973 25.4236817,22.0611103 26.0621615,22.2316985 L29.2374584,23.0846397 C29.2884798,23.0920319 29.3403563,23.0920319 29.3913777,23.0846397 C29.7061995,23.0884779 29.9645131,22.8370025 29.9682898,22.5229779 C29.9693587,22.4295809 29.9474822,22.3373211 29.9043705,22.2544436 Z M22.8867933,5.15581618 C22.9894062,5.05275245 23.0485511,4.91436275 23.052114,4.76914951 L23.0977197,3.25091422 L26.3300238,1.33463971 L27.6981948,2.69934559 L25.8169596,5.91777696 L24.2663658,5.97463971 C24.1207838,5.97819363 23.9820428,6.03718873 23.8787173,6.13954167 L16.923848,13.0711103 L15.9433254,12.0930711 L22.8867933,5.15581618 Z M3.11672209,27.8156201 L1.16137767,25.8766005 L7.93952494,19.1326789 L8.92004751,20.1107181 L9.85496437,21.0773848 L3.11672209,27.8156201 Z M11.4568646,20.9920907 L10.7043705,20.2358162 L10.4136342,19.9458162 L8.01933492,17.5405221 L8.58940618,16.9718946 L12.0098337,20.4291495 L11.4568646,20.9920907 Z M11.5651781,18.3991495 L10.5846556,17.4211103 L12.420285,15.5901299 L13.4008076,16.5681691 L11.5651781,18.3991495 Z M26.3414252,21.1342475 C26.1722565,21.0888995 25.9978147,21.0659412 25.8226603,21.0660123 C24.5798337,21.1660907 23.5539905,22.0756103 23.3086461,23.2950319 C23.1141093,23.9798015 23.1521615,24.7095637 23.4169596,25.3705221 C23.6613064,26.0066029 24.1912589,26.4910025 24.8478385,26.6783652 L26.9685036,27.2469926 C25.0346793,28.396402 22.5328504,27.7645147 21.3805226,25.8356593 C20.8393112,24.9297647 20.672209,23.8495858 20.9143468,22.8230711 C20.9577435,22.6321544 20.8995962,22.4323529 20.7604276,22.2942475 L7.91102138,9.46601225 C7.72859857,9.29506863 7.45574822,9.26279902 7.23833729,9.38640441 C6.64966746,9.69623529 5.99415677,9.85829412 5.32859857,9.8583652 C3.61346793,9.85985784 2.08147268,8.78877696 1.49771971,7.1801299 L2.79748219,7.90228676 C3.10047506,8.07152451 3.44216152,8.15966176 3.78940618,8.15816912 C4.84489311,8.09753922 5.78893112,7.48278186 6.26921615,6.54326716 C7.04451306,5.16150245 6.7423753,3.51816912 5.60223278,2.88130637 L3.94332542,1.94307108 C6.06327791,1.18772059 8.39565321,2.28964951 9.15292162,4.40416176 C9.41572447,5.13811765 9.46154394,5.93192157 9.28489311,6.69111029 C9.24149644,6.88202696 9.29964371,7.08182843 9.43881235,7.21993382 L22.3167221,20.0595417 C22.4927316,20.2353186 22.7628029,20.2768284 22.9837055,20.1618946 C23.5724466,19.852277 24.227886,19.6902892 24.8934442,19.6899338 C26.3370071,19.6887966 27.6731829,20.450402 28.4050831,21.6915025 L26.3414252,21.1342475 Z" id="Shape"></path>
                                </g>
                                <path d="M21.5,59.6166667 C18.8160333,59.6166667 16.6333333,61.7993667 16.6333333,64.4833333 C16.6333333,67.1673 18.8160333,69.35 21.5,69.35 C24.1839667,69.35 26.3666667,67.1673 26.3666667,64.4833333 C26.3666667,61.7993667 24.1839667,59.6166667 21.5,59.6166667 Z M21.5,66.9166667 C20.1580167,66.9166667 19.0666667,65.8253167 19.0666667,64.4833333 C19.0666667,63.14135 20.1580167,62.05 21.5,62.05 C22.8419833,62.05 23.9333333,63.14135 23.9333333,64.4833333 C23.9333333,65.8253167 22.8419833,66.9166667 21.5,66.9166667 Z" id="Shape" stroke="#42566C" stroke-width="0.1" fill="#42566C" fill-rule="nonzero"></path>
                                <path d="M16.6333333,6.08333333 L21.5,6.08333333 C22.1728167,6.08333333 22.7166667,5.53948333 22.7166667,4.86666667 C22.7166667,4.19385 22.1728167,3.65 21.5,3.65 L16.6333333,3.65 C15.9605167,3.65 15.4166667,4.19385 15.4166667,4.86666667 C15.4166667,5.53948333 15.9605167,6.08333333 16.6333333,6.08333333 Z" id="Path" stroke="#42566C" stroke-width="0.1" fill="#42566C"></path>
                                <path d="M25.15,6.08333333 L26.3666667,6.08333333 C27.0394833,6.08333333 27.5833333,5.53948333 27.5833333,4.86666667 C27.5833333,4.19385 27.0394833,3.65 26.3666667,3.65 L25.15,3.65 C24.4771833,3.65 23.9333333,4.19385 23.9333333,4.86666667 C23.9333333,5.53948333 24.4771833,6.08333333 25.15,6.08333333 Z" id="Path" stroke="#42566C" stroke-width="0.1" fill="#42566C"></path>
                            </g>
                        </g>
                    </g>
                </g>
            </g>
        </g>
    </g>
</svg>