<?xml version="1.0" encoding="UTF-8"?>
<svg width="369px" height="294px" viewBox="0 0 369 294" version="1.1" xmlns="http://www.w3.org/2000/svg" xmlns:xlink="http://www.w3.org/1999/xlink">
    <!-- Generator: Sketch 52.2 (67145) - http://www.bohemiancoding.com/sketch -->
    <title>Group 25</title>
    <desc>Created with Sketch.</desc>
    <defs>
        <path d="M0.444605816,205.725391 L0.444605816,4.57935714 C0.444605816,2.09407577 2.45932444,0.0793571429 4.94460582,0.0793571429 L347.748276,0.0793571429 C350.233558,0.0793571429 352.248276,2.09407577 352.248276,4.57935714 L352.248276,205.725391 L0.444605816,205.725391 Z" id="path-1"></path>
    </defs>
    <g id="desktop" stroke="none" stroke-width="1" fill="none" fill-rule="evenodd">
        <g id="sharepoint_opt2" transform="translate(-239.000000, -688.000000)">
            <g id="Group-13" transform="translate(239.000000, 604.000000)">
                <g id="Group-25" transform="translate(0.000000, 84.000000)">
                    <path d="M138.43828,284.430419 L230.267023,284.430419 L225.820943,245.5 L143.622406,245.5 L138.43828,284.430419 Z M142.746743,244.5 L226.713237,244.5 L231.38773,285.430419 L137.296289,285.430419 L142.746743,244.5 Z" id="Fill-1" stroke="#82A0C1" fill="#A5A5A5" fill-rule="nonzero"></path>
                    <path d="M0.5,238.259604 L0.5,219.890063 L368.16383,219.890063 L368.16383,238.259604 C368.16383,242.280542 363.806321,245.5 358.541457,245.5 L10.128308,245.5 C4.85845864,245.5 0.5,242.281285 0.5,238.259604 Z M1.5,220.890063 L1.5,238.259604 C1.5,241.652022 5.35644357,244.5 10.128308,244.5 L358.541457,244.5 C363.308279,244.5 367.16383,241.651404 367.16383,238.259604 L367.16383,220.890063 L1.5,220.890063 Z" id="Fill-2" stroke="#82A0C1" fill="#A5A5A5" fill-rule="nonzero"></path>
                    <path d="M358.550491,0.914684524 C363.837909,0.914684524 368.16383,5.24460765 368.16383,10.537744 L368.16383,220.890063 L0.527273021,220.890063 L0.527273021,10.537744 C0.527273021,5.24363677 4.85416432,0.914684524 10.1465412,0.914684524 L358.550491,0.914684524 Z M367.16383,219.890063 L367.16383,10.537744 C367.16383,5.7966855 363.285417,1.91468452 358.550491,1.91468452 L10.1465412,1.91468452 C5.40655569,1.91468452 1.52727302,5.79581494 1.52727302,10.537744 L1.52727302,219.890063 L367.16383,219.890063 Z" id="Fill-3" stroke="#82A0C1" fill="#A5A5A5" fill-rule="nonzero"></path>
                    <g id="Group-29" transform="translate(8.000000, 8.000000)">
                        <mask id="mask-2" fill="white">
                            <use xlink:href="#path-1"></use>
                        </mask>
                        <use id="Fill-4" stroke="#82A0C1" fill="#FFFFFF" fill-rule="nonzero" xlink:href="#path-1"></use>
                    </g>
                    <path d="M8.44460582,213.725391 L8.44460582,12.5793571 C8.44460582,10.0940758 10.4593244,8.07935714 12.9446058,8.07935714 L355.748276,8.07935714 C358.233558,8.07935714 360.248276,10.0940758 360.248276,12.5793571 L360.248276,213.725391 L8.44460582,213.725391 Z M9.44460582,212.725391 L359.248276,212.725391 L359.248276,12.5793571 C359.248276,10.6463605 357.681273,9.07935714 355.748276,9.07935714 L12.9446058,9.07935714 C11.0116092,9.07935714 9.44460582,10.6463605 9.44460582,12.5793571 L9.44460582,212.725391 Z" id="Fill-4" stroke="#82A0C1" fill="#82A0C1" fill-rule="nonzero"></path>
                    <path d="M231.885132,286 L136.900391,286 L130.479804,287.4375 L237.052888,287.4375 L231.885132,286 Z M239.92868,288.4375 L237.052888,287.4375 L239.92868,288.4375 Z M231.738525,283.996826 L240.694198,286.993774 L127,286.993774 L137.148872,283.996826 L231.738525,283.996826 Z" id="Fill-5" fill="#82A0C1" fill-rule="nonzero"></path>
                    <path d="M130.097411,292.02815 L237.965627,292.02815 L238.884644,288.4375 L128.981689,288.4375 L130.097411,292.02815 Z M129.360976,293.02815 L127.623796,287.4375 L240.172826,287.4375 L238.741914,293.02815 L129.360976,293.02815 Z" id="Fill-6" stroke="#82A0C1" fill="#A5A5A5" fill-rule="nonzero"></path>
                    <path d="M190.86825,232.385236 L191.36825,232.385236 C191.36825,236.264636 188.224568,239.409843 184.347034,239.409843 C180.465646,239.409843 177.324039,236.266119 177.324039,232.385236 C177.324039,228.502176 180.465449,225.357069 184.347034,225.357069 C188.224765,225.357069 191.36825,228.50366 191.36825,232.385236 L190.86825,232.385236 Z" id="Fill-7" fill="#7499C2" fill-rule="nonzero"></path>
                </g>
            </g>
        </g>
    </g>
</svg>