<?xml version="1.0" encoding="UTF-8"?>
<svg width="60px" height="74px" viewBox="0 0 60 74" version="1.1" xmlns="http://www.w3.org/2000/svg" xmlns:xlink="http://www.w3.org/1999/xlink">
    <!-- Generator: Sketch 52.2 (67145) - http://www.bohemiancoding.com/sketch -->
    <title>web</title>
    <desc>Created with Sketch.</desc>
    <g id="desktop" stroke="none" stroke-width="1" fill="none" fill-rule="evenodd">
        <g id="sharepoint_opt2" transform="translate(-656.000000, -1122.000000)">
            <g id="Group-17" transform="translate(241.000000, 1079.000000)">
                <g id="Group-45" transform="translate(376.000000, 0.000000)">
                    <g id="Group-9" transform="translate(40.000000, 44.000000)">
                        <g id="Group-15">
                            <g id="web">
                                <path d="M51.9583333,0 L6.04166667,0 C2.70666667,0.00392708333 0.00392708333,2.70666667 0,6.04166667 L0,38.6666667 C0.00392708333,42.0016667 2.70666667,44.7044063 6.04166667,44.7083333 L22.5644167,44.7083333 L20.8389167,50.75 L16.9166667,50.75 L16.9166667,53.1666667 L41.0833333,53.1666667 L41.0833333,50.75 L37.1610833,50.75 L35.4355833,44.7083333 L51.9583333,44.7083333 C55.2933333,44.7044063 57.9960729,42.0016667 58,38.6666667 L58,6.04166667 C57.9960729,2.70666667 55.2933333,0.00392708333 51.9583333,0 Z M23.35225,50.75 L25.07775,44.7083333 L32.92225,44.7083333 L34.64775,50.75 L23.35225,50.75 Z M55.5833333,38.6666667 C55.5833333,40.668724 53.9603906,42.2916667 51.9583333,42.2916667 L6.04166667,42.2916667 C4.03960938,42.2916667 2.41666667,40.668724 2.41666667,38.6666667 L2.41666667,36.25 L55.5833333,36.25 L55.5833333,38.6666667 Z M55.5833333,33.8333333 L2.41666667,33.8333333 L2.41666667,6.04166667 C2.41666667,4.03960937 4.03960938,2.41666667 6.04166667,2.41666667 L51.9583333,2.41666667 C53.9603906,2.41666667 55.5833333,4.03960937 55.5833333,6.04166667 L55.5833333,33.8333333 Z" id="Shape" stroke="#42566C" stroke-width="0.1" fill="#42566C" fill-rule="nonzero"></path>
                                <path d="M38.6666667,55.5833333 L4.83333333,55.5833333 C4.16603125,55.5833333 3.625,56.1243646 3.625,56.7916667 L3.625,71.2916667 C3.625,71.9589687 4.16603125,72.5 4.83333333,72.5 L38.6666667,72.5 C39.3339688,72.5 39.875,71.9589687 39.875,71.2916667 L39.875,56.7916667 C39.875,56.1243646 39.3339688,55.5833333 38.6666667,55.5833333 Z M37.4583333,70.0833333 L6.04166667,70.0833333 L6.04166667,58 L37.4583333,58 L37.4583333,70.0833333 Z" id="Shape" stroke="#42566C" stroke-width="0.1" fill="#42566C" fill-rule="nonzero"></path>
                                <rect id="Rectangle" fill="#42566C" x="8.45833333" y="65.25" width="2.41666667" height="2.41666667"></rect>
                                <rect id="Rectangle" fill="#42566C" x="8.45833333" y="60.4166667" width="2.41666667" height="2.41666667"></rect>
                                <rect id="Rectangle" fill="#42566C" x="13.2916667" y="60.4166667" width="2.41666667" height="2.41666667"></rect>
                                <rect id="Rectangle" fill="#42566C" x="18.125" y="60.4166667" width="2.41666667" height="2.41666667"></rect>
                                <rect id="Rectangle" fill="#42566C" x="27.7916667" y="60.4166667" width="2.41666667" height="2.41666667"></rect>
                                <rect id="Rectangle" fill="#42566C" x="22.9583333" y="60.4166667" width="2.41666667" height="2.41666667"></rect>
                                <rect id="Rectangle" fill="#42566C" x="32.625" y="65.25" width="2.41666667" height="2.41666667"></rect>
                                <rect id="Rectangle" fill="#42566C" x="32.625" y="60.4166667" width="2.41666667" height="2.41666667"></rect>
                                <rect id="Rectangle" fill="#42566C" x="13.2916667" y="65.25" width="16.9166667" height="2.41666667"></rect>
                                <path d="M48.3333333,55.5833333 C44.9966719,55.5833333 42.2916667,58.2883385 42.2916667,61.625 L42.2916667,66.4583333 C42.2916667,69.7949948 44.9966719,72.5 48.3333333,72.5 C51.6699948,72.5 54.375,69.7949948 54.375,66.4583333 L54.375,61.625 C54.375,58.2883385 51.6699948,55.5833333 48.3333333,55.5833333 Z M51.9583333,66.4583333 C51.9583333,68.4603906 50.3353906,70.0833333 48.3333333,70.0833333 C46.331276,70.0833333 44.7083333,68.4603906 44.7083333,66.4583333 L44.7083333,61.625 C44.7083333,59.6229427 46.331276,58 48.3333333,58 C50.3353906,58 51.9583333,59.6229427 51.9583333,61.625 L51.9583333,66.4583333 Z" id="Shape" stroke="#42566C" stroke-width="0.1" fill="#42566C" fill-rule="nonzero"></path>
                                <rect id="Rectangle" fill="#42566C" x="47.125" y="60.4166667" width="2.41666667" height="2.41666667"></rect>
                                <polygon id="Rectangle" fill="#E83F67" transform="translate(28.991838, 19.353894) rotate(-74.031780) translate(-28.991838, -19.353894) " points="20.1990798 18.1461071 37.784597 18.1461071 37.784597 20.5616802 20.1990798 20.5616802"></polygon>
                                <path d="M22.5233333,14.2196667 L20.9766667,12.3636667 L13.7266667,18.4053333 C13.2141823,18.8327813 13.1451562,19.5946354 13.5726042,20.1072708 C13.619276,20.1631563 13.6707812,20.2148125 13.7266667,20.2613333 L20.9766667,26.303 L22.5233333,24.447 L16.3874167,19.3333333 L22.5233333,14.2196667 Z" id="Path" fill="#E83F67"></path>
                                <path d="M44.4273958,18.5593958 C44.380724,18.5035104 44.3292188,18.4518542 44.2733333,18.4053333 L37.0233333,12.3636667 L35.4766667,14.2196667 L41.6125833,19.3333333 L35.4766667,24.447 L37.0233333,26.303 L44.2733333,20.2613333 C44.7858177,19.8338854 44.8548438,19.0720312 44.4273958,18.5593958 Z" id="Path" fill="#E83F67"></path>
                            </g>
                        </g>
                    </g>
                </g>
            </g>
        </g>
    </g>
</svg>