<?xml version="1.0" encoding="UTF-8"?>
<svg width="887px" height="129px" viewBox="0 0 887 129" version="1.1" xmlns="http://www.w3.org/2000/svg" xmlns:xlink="http://www.w3.org/1999/xlink">
    <!-- Generator: Sketch 52.2 (67145) - http://www.bohemiancoding.com/sketch -->
    <title>Group 31</title>
    <desc>Created with Sketch.</desc>
    <defs>
        <path d="M8,0 L879,0 C883.418278,-8.11624501e-16 887,3.581722 887,8 L887,129 L0,129 L0,8 C-5.41083001e-16,3.581722 3.581722,8.11624501e-16 8,0 Z" id="path-1"></path>
        <polygon id="path-3" points="0.03 0 250 0 250 250 0.03 250"></polygon>
    </defs>
    <g id="desktop" stroke="none" stroke-width="1" fill="none" fill-rule="evenodd">
        <g id="Group-31">
            <mask id="mask-2" fill="white">
                <use xlink:href="#path-1"></use>
            </mask>
            <use id="Rectangle" fill="#F8FBFC" xlink:href="#path-1"></use>
            <path d="M199.726015,5.4440516 C199.737444,8.11880753 196.633985,10.3071897 192.829474,10.3071897 L190.79609,10.3071897 C186.991579,10.3071897 183.878797,8.09811715 183.878797,5.39817294 C183.878797,2.69822873 186.991579,0.507147838 190.79609,0.529037657 L192.78797,0.540432357 C196.592481,0.562622036 199.714586,2.76899582 199.726015,5.4440516 M279.275489,33.2003417 C275.470977,33.2003417 272.358496,30.7273919 272.358496,27.7047978 C272.358496,24.6822036 274.440902,22.208954 276.986165,22.208954 C279.531729,22.208954 281.614135,19.7183124 281.614135,16.6741283 C281.614135,13.6299442 278.501353,11.1393026 274.697143,11.1393026 L251.46015,11.1393026 C247.655639,11.1393026 244.542556,8.64866109 244.542556,5.60447699 C244.542556,2.56029289 241.429774,0.069651325 237.625263,0.069651325 L229.458045,0.069651325 C225.653534,0.069651325 222.540752,-2.42099024 222.540752,-5.46517434 C222.540752,-8.50935844 219.42797,-11 215.623759,-11 L185.386165,-11 C181.581654,-11 178.468872,-8.50935844 178.468872,-5.46517434 C178.468872,-2.42099024 175.35609,0.069651325 171.551579,0.069651325 L159.917293,0.069651325 C156.112782,0.069651325 153,2.56029289 153,5.60447699 C153,8.64866109 156.112782,11.1393026 159.917293,11.1393026 L173.428271,11.1393026 C177.232782,11.1393026 180.345564,13.6164505 180.345564,16.6441423 C180.345564,19.671834 177.268872,22.1489819 173.508271,22.1489819 C169.74797,22.1489819 166.670977,24.6357252 166.670977,27.6748117 C166.670977,30.7138982 163.595188,33.2003417 159.835489,33.2003417 C156.075789,33.2003417 153,35.6912831 153,38.7354672 C153,41.7796513 156.112782,44.2702929 159.917293,44.2702929 L289.561203,44.2702929 C293.365714,44.2702929 296.478496,41.7796513 296.478496,38.7354672 C296.478496,35.6912831 293.365714,33.2003417 289.561203,33.2003417 L279.275489,33.2003417" id="Fill-3" fill="#DBEAEF" mask="url(#mask-2)"></path>
            <path d="M339.420752,112.360174 C335.781654,112.360174 332.804211,115.328794 332.804211,118.957106 L332.804211,119.480363 C332.804211,123.108675 329.826767,126.077294 326.187669,126.077294 L323.616541,126.077294 C319.977444,126.077294 317,129.045914 317,132.674226 L317,133.197782 C317,136.825795 319.977444,139.794414 323.616541,139.794414 L404.970827,139.794414 C408.609925,139.794414 411.587368,136.825795 411.587368,133.197782 L411.587368,132.674226 C411.587368,129.045914 414.564812,126.077294 418.20391,126.077294 L441.198195,126.077294 C444.837594,126.077294 447.815038,123.108675 447.815038,119.480363 L447.815038,118.957106 C447.815038,115.328794 450.792481,112.360174 454.431579,112.360174 L466.868571,112.360174 C470.507669,112.360174 473.485113,109.391555 473.485113,105.763243 L473.485113,105.239986 C473.485113,101.611674 470.507669,98.6430544 466.868571,98.6430544 L460.544361,98.6430544 C456.905263,98.6430544 453.92782,95.6741353 453.92782,92.0458229 L453.92782,91.5972315 C453.92782,87.9686192 450.950376,85 447.311278,85 L332.19609,85 C328.556992,85 325.579549,87.9686192 325.579549,91.5972315 L325.579549,92.1204881 C325.579549,95.7488006 328.556992,98.7174198 332.19609,98.7174198 L342.513985,98.7174198 C346.153083,98.7174198 349.130526,101.686039 349.130526,105.314351 L349.130526,105.763243 C349.130526,109.391555 346.153083,112.360174 342.513985,112.360174 L339.420752,112.360174" id="Fill-4" fill="#DBEAEF" mask="url(#mask-2)"></path>
            <g id="369122-PBBMKF-735" mask="url(#mask-2)">
                <g transform="translate(541.000000, -50.000000)">
                    <g id="Group-3" stroke-width="1" fill="none">
                        <mask id="mask-4" fill="white">
                            <use xlink:href="#path-3"></use>
                        </mask>
                        <g id="Clip-2"></g>
                        <polygon id="Fill-1" fill="#F8FBFC" mask="url(#mask-4)" points="0.03 250 250 250 250 0 0.03 0"></polygon>
                    </g>
                    <path d="M43.8915,150.7325 C42.75,148.907 42.314,146.7555 42.429,144.606 C42.442,144.369 42.4485,144.131 42.4485,143.8905 C42.4485,141.1115 41.5995,138.5325 40.1495,136.394 C38.844,134.469 38.143,132.17 38.355,129.853 C38.3905,129.466 38.402,129.0715 38.388,128.6715 C38.2215,123.845 34.26,119.85 29.435,119.6505 C24.0865,119.429 19.6815,123.699 19.6815,128.9985 C19.6815,129.1955 19.6875,129.39 19.6995,129.584 C19.85,131.9985 19.282,134.393 17.9245,136.396 C16.475,138.534 15.6265,141.112 15.6265,143.8905 C15.6265,144.227 15.6395,144.56 15.664,144.8895 C15.82,146.9615 15.262,148.999 14.1645,150.763 C12.2265,153.8765 11.2385,157.6415 11.61,161.6565 C12.3665,169.834 18.888,176.488 27.0505,177.386 C37.608,178.549 46.542,170.3135 46.542,159.991 C46.542,156.591 45.5705,153.418 43.8915,150.7325" id="Fill-5" fill="#A4CD79"></path>
                    <path d="M11.61,161.6565 C12.3665,169.834 18.888,176.488 27.0505,177.386 C31.8375,177.9135 36.287,176.504 39.725,173.8485 C33.3615,175.579 24.809,175.1925 18.6535,169.4315 C10.3465,161.657 14.1645,150.763 14.1645,150.763 C12.2265,153.8765 11.2385,157.6415 11.61,161.6565" id="Fill-6" fill="#8DB861"></path>
                    <path d="M38.2365,156.667 C35.621,161.4055 29.7475,166.126 28.8885,171.788 C28.706,170.8035 28.562,169.811 28.484,168.802 C28.289,166.275 28.318,163.7245 28.375,161.1925 C28.49,156.101 29.0445,151.068 29.4575,145.9985 C29.5705,144.6145 29.6615,143.2435 29.699,141.8825 C31.0685,137.917 34.0845,134.86 34.713,130.558 L34.66,130.5435 C34.136,133.004 32.828,135.149 31.528,137.266 C30.8565,138.3595 30.133,139.4445 29.717,140.6405 C29.717,137.7825 29.4225,134.9625 28.4975,132.143 C28.4735,132.0705 28.359,132.101 28.382,132.175 C29.8725,136.9925 29.2755,142.16 28.574,147.064 C28.342,148.688 28.151,150.316 27.9795,151.9455 C27.529,151.029 26.794,150.1945 26.13,149.538 C24.2005,147.6305 22.328,146.047 21.0525,143.5785 C20.999,143.474 20.85,143.5655 20.8975,143.669 C21.7385,145.5025 22.787,147.15 24.1975,148.5995 C24.9525,149.3755 25.7685,150.0995 26.4415,150.95 C27.1695,151.8695 27.481,152.8085 27.7865,153.863 C27.5595,156.4025 27.4065,158.948 27.3475,161.502 C27.302,163.458 27.3205,165.3735 27.4295,167.2735 C26.888,166.2585 26.1325,165.349 25.281,164.6485 C24.232,163.785 23.044,163.4055 21.821,162.8705 C20.2365,162.1775 19.063,160.918 17.6275,159.9875 C17.546,159.9345 17.4735,160.0625 17.552,160.1165 C18.685,160.897 19.6425,161.882 20.7385,162.706 C21.7245,163.448 22.8745,163.9 23.9075,164.563 C25.8625,165.8175 26.9055,167.6315 27.6245,169.689 C27.827,171.6395 28.14,173.585 28.618,175.5505 C29.2265,178.0535 29.809,180.54 30.035,183.1135 C30.2525,185.5935 30.049,188.009 29.993,190.4845 C29.981,191.008 30.821,191.144 30.9245,190.6105 C31.8,186.097 31.079,181.1795 30.0175,176.763 C29.8855,176.216 29.7525,175.6705 29.621,175.1255 C29.9925,167.9915 35.216,162.842 38.3485,156.7325 C38.3865,156.658 38.277,156.5935 38.2365,156.667" id="Fill-7" fill="#917957"></path>
                    <path d="M223.2935,149.8105 C216.422,149.8105 210.8515,148.344 210.8515,146.534 C210.8515,144.7245 216.422,143.258 223.2935,143.258 C230.165,143.258 235.736,144.7245 235.736,146.534 C235.736,148.344 230.165,149.8105 223.2935,149.8105" id="Fill-8" fill="#E5EEEE"></path>
                    <path d="M235.8165,107.004 C234.6755,105.179 234.239,103.027 234.354,100.8775 C234.3665,100.6405 234.373,100.4025 234.373,100.1625 C234.373,97.383 233.5245,94.8045 232.074,92.6655 C230.7685,90.74 230.068,88.4415 230.28,86.125 C230.3155,85.7375 230.3265,85.343 230.313,84.943 C230.1465,80.1165 226.1845,76.1215 221.3595,75.922 C216.011,75.7005 211.606,79.971 211.606,85.27 C211.606,85.467 211.6125,85.662 211.6245,85.8555 C211.775,88.2705 211.2065,90.665 209.849,92.6675 C208.4,94.806 207.552,97.3835 207.552,100.1625 C207.552,100.4985 207.5645,100.8315 207.589,101.161 C207.7445,103.233 207.187,105.271 206.0895,107.035 C204.1515,110.148 203.1635,113.9135 203.535,117.928 C204.2915,126.1055 210.8125,132.7595 218.9755,133.658 C229.5325,134.821 238.4675,126.585 238.4675,116.263 C238.4675,112.8625 237.4955,109.6895 235.8165,107.004" id="Fill-9" fill="#A4CD79"></path>
                    <path d="M203.535,117.928 C204.2915,126.1055 210.8125,132.7595 218.9755,133.658 C223.762,134.185 228.212,132.776 231.65,130.12 C225.286,131.8505 216.734,131.464 210.5785,125.703 C202.2715,117.9285 206.0895,107.035 206.0895,107.035 C204.1515,110.148 203.1635,113.9135 203.535,117.928" id="Fill-10" fill="#8DB861"></path>
                    <path d="M230.1615,112.9385 C227.546,117.677 221.6725,122.3975 220.8135,128.0595 C220.631,127.075 220.487,126.0825 220.4085,125.0735 C220.214,122.5465 220.2425,119.9965 220.3,117.464 C220.415,112.373 220.969,107.3395 221.3825,102.2705 C221.495,100.8855 221.5865,99.515 221.6235,98.154 C222.9935,94.1885 226.01,91.1315 226.6375,86.83 L226.585,86.815 C226.0605,89.2755 224.753,91.4205 223.453,93.5375 C222.7815,94.631 222.0575,95.716 221.6415,96.9125 C221.6415,94.054 221.347,91.234 220.4225,88.415 C220.3985,88.342 220.2835,88.3725 220.3065,88.4465 C221.797,93.2645 221.2,98.432 220.499,103.3355 C220.2665,104.9595 220.0755,106.5875 219.905,108.217 C219.454,107.3005 218.719,106.466 218.0545,105.8095 C216.1255,103.902 214.253,102.3185 212.9775,99.85 C212.924,99.746 212.775,99.837 212.8225,99.9405 C213.6635,101.7745 214.7115,103.4215 216.122,104.871 C216.8775,105.647 217.693,106.3715 218.366,107.222 C219.094,108.1415 219.4065,109.0805 219.7115,110.1345 C219.4845,112.674 219.3315,115.22 219.272,117.7735 C219.2265,119.7295 219.2455,121.645 219.3545,123.545 C218.813,122.53 218.057,121.6205 217.206,120.92 C216.1565,120.0565 214.969,119.677 213.746,119.142 C212.161,118.4495 210.988,117.1895 209.552,116.259 C209.4705,116.206 209.3985,116.334 209.477,116.3885 C210.61,117.1685 211.5675,118.1535 212.663,118.978 C213.6495,119.72 214.7995,120.1715 215.8325,120.8345 C217.7875,122.089 218.8305,123.903 219.5495,125.9605 C219.752,127.911 220.065,129.8565 220.5425,131.822 C221.1515,134.325 221.734,136.8115 221.96,139.385 C222.1775,141.8645 221.974,144.2805 221.918,146.756 C221.906,147.2795 222.7455,147.4155 222.849,146.882 C223.725,142.3685 223.004,137.451 221.942,133.0345 C221.8105,132.4875 221.677,131.942 221.546,131.397 C221.917,124.263 227.1405,119.1135 230.2735,113.004 C230.3115,112.93 230.202,112.8645 230.1615,112.9385" id="Fill-11" fill="#917957"></path>
                    <polyline id="Fill-13" fill="#B8CCDC" points="45.977 82.349 40.108 88.883 56.33 197.8015 64.8065 200.16 70.2765 175.5"></polyline>
                    <polyline id="Fill-14" fill="#506BA5" points="45.977 82.349 40.108 88.883 43.308 110.154 49.1665 104.2595 47.8665 89.5925 45.977 82.349"></polyline>
                    <polyline id="Fill-15" fill="#D6E6EF" points="205.4765 160.9465 64.8065 200.16 45.977 82.349 190.839 59.48 205.4765 160.9465"></polyline>
                    <polyline id="Fill-16" fill="#A3BACD" points="134.6535 116.869 62.9075 130.293 62.1755 126.3785 133.921 112.9545 134.6535 116.869"></polyline>
                    <polyline id="Fill-17" fill="#A3BACD" points="132.884 107.4115 61.138 120.8355 60.406 116.9205 132.1515 103.497 132.884 107.4115"></polyline>
                    <polyline id="Fill-18" fill="#667CAF" points="193.712 80.082 190.839 59.48 45.977 82.349 49.1665 104.2595 193.712 80.082"></polyline>
                    <polyline id="Fill-19" fill="#FFFFFE" points="186.7595 75.169 150.4285 81.156 149.316 74.4015 185.6465 68.415 186.7595 75.169"></polyline>
                    <polyline id="Fill-20" fill="#FFFFFE" points="144.774 81.941 104.2765 88.6145 103.1635 81.86 143.661 75.187 144.774 81.941"></polyline>
                    <path d="M87.036,149.932 C83.2195,149.932 84.9125,142.946 84.9125,142.946 L99.037,134.473 L110.5205,122.3135 C110.5205,122.3135 105.57,137.174 93.673,146.534 C90.515,149.019 88.4155,149.932 87.036,149.932" id="Fill-21" fill="#B6C7DC"></path>
                    <polyline id="Fill-22" fill="#B6C7DC" points="154.051 135.17 149.701 91.636 156.7775 132.993 186.477 125.9745 186.8115 127.1915 154.051 135.17"></polyline>
                    <path d="M80.6375,76.8775 C80.634,76.871 80.6325,76.868 80.6325,76.868 L80.9535,76.8275 L80.6375,76.8775" id="Fill-23" fill="#D1E1EB"></path>
                    <path d="M98.7895,100.9775 C97.36,100.316 95.678,98.774 93.925,96.773 L96.4425,96.3515 L98.7895,100.9775" id="Fill-24" fill="#B6C7DC"></path>
                    <path d="M93.925,96.773 C87.823,89.8065 80.854,77.2685 80.6375,76.8775 L80.9535,76.8275 L86.201,76.1655 L96.4425,96.3515 L93.925,96.773" id="Fill-25" fill="#596DA5"></path>
                    <path d="M100.0915,73.806 C100.03,73.777 99.998,73.7615 99.998,73.7615 L104.305,73.141 L100.0915,73.806" id="Fill-26" fill="#D1E1EB"></path>
                    <path d="M117.988,79.417 C110.399,78.582 101.1185,74.29 100.0915,73.806 L104.3055,73.141 L123.9295,76.868 L124.5245,78.34 L117.988,79.417" id="Fill-27" fill="#596DA5"></path>
                    <path d="M125.565,81.3425 C124.7275,81.3425 123.21,79.2805 123.21,79.2805 C122.3415,79.472 121.3905,79.5575 120.3825,79.5575 C119.6125,79.5575 118.8105,79.5075 117.988,79.417 L124.5245,78.34 L125.7265,81.312 C125.6765,81.3325 125.622,81.3425 125.565,81.3425" id="Fill-28" fill="#D8E1EB"></path>
                    <polyline id="Fill-29" fill="#B393B8" points="186.2755 86.1225 191.865 124.7015 156.7775 132.993 149.701 91.636 186.2755 86.1225"></polyline>
                    <g id="icon-2" stroke-width="1" fill="none" transform="translate(171.474711, 108.137219) rotate(-9.000000) translate(-171.474711, -108.137219) translate(156.474711, 91.137219)">
                        <g id="icon" fill="#FFFFFF">
                            <path d="M0.5775,27.2115065 L16.1329412,33.5650649 L15.9780882,0 L0,9.84867532 L0.5775,27.2115065 Z M8.68480392,18.6236623 C6.79583333,17.6926234 5.56397059,16.2151429 5.56397059,13.877974 C5.56397059,11.1370649 7.18357843,9.03831169 9.86691176,9.03831169 C11.1502451,9.03831169 12.0938725,9.42116883 12.7698529,9.84927273 L12.195098,12.7816104 C11.7387255,12.4718442 10.9306373,12.0193766 9.81544118,12.0193766 C8.70196078,12.0193766 8.16151961,12.7346234 8.16151961,13.5699481 C8.16151961,14.594961 8.80318627,15.0474286 10.270098,15.834026 C12.2791667,16.8834026 13.2227941,18.3626234 13.2227941,20.6267013 C13.2227941,23.3206234 11.757598,25.6073247 8.63504902,25.6073247 C7.33455882,25.6073247 6.05294118,25.1322338 5.41127451,24.631039 L5.93455882,21.6273506 C6.62598039,22.1268052 7.68970588,22.6262597 8.7877451,22.6262597 C9.96813725,22.6262597 10.5926471,21.9371169 10.5926471,20.886 C10.5909314,19.8870909 10.0504902,19.3128052 8.68480392,18.6236623 Z" id="Shape" fill-rule="nonzero"></path>
                            <path d="M26.0852941,13.0113247 C25.4710784,13.0113247 24.9014706,13.1766494 24.3901961,13.4446494 L22.1323529,11.150987 C22.279902,10.7455065 22.3708333,10.3139221 22.3708333,9.85623377 C22.3708333,7.82883117 20.7906863,6.18950649 18.8125,6.10597403 L18.8125,13.609974 C19.2053922,13.5908312 19.5828431,13.5125195 19.9345588,13.382 L22.4703431,15.9523636 C22.4102941,16.2186234 22.3708333,16.4935844 22.3708333,16.778987 C22.3708333,17.7117662 22.717402,18.5540519 23.2715686,19.2101299 L21.0720588,21.4411429 C20.5573529,21.1731429 19.9843137,21.0043377 19.3683824,21.0043377 C19.1796569,21.0043377 18.9960784,21.0321818 18.8125,21.060026 L18.8125,28.4804935 C18.9960784,28.5100779 19.1796569,28.5361818 19.3683824,28.5361818 C21.4169118,28.5361818 23.0794118,26.8516104 23.0794118,24.772 C23.0794118,24.4900779 23.0468137,24.2203377 22.9884804,23.9575584 L26.3821078,20.5153247 C28.2933824,20.3587013 29.7997549,18.7541818 29.7997549,16.7772468 C29.7980392,14.6976364 28.1338235,13.0113247 26.0852941,13.0113247 Z" id="Path"></path>
                        </g>
                    </g>
                    <polyline id="Fill-30" fill="#9B81AE" points="184.7455 120.291 177.011 101.7965 179.693 100.627 187.7205 117.3915 184.7455 120.291"></polyline>
                    <polyline id="Fill-31" fill="#A3BACD" points="160.053 143.404 192.813 134.9385 193.712 141.344 161.203 150.2425 160.053 143.404"></polyline>
                    <polyline id="Fill-32" fill="#A3BACD" points="161.86 155.6865 194.6195 147.221 195.5185 153.6265 163.01 162.5255 161.86 155.6865"></polyline>
                    <polyline id="Fill-33" fill="#A3BACD" points="151.867 155.8405 153.6865 166.286 111.3275 178.217 109.072 167.063 151.867 155.8405"></polyline>
                    <path d="M123.21,78.3515 C123.21,78.3515 124.794,81.8575 125.7265,81.312 C126.659,80.767 125.7265,78.3755 125.7265,78.3755 L131.8955,77.1255 C131.8955,77.1255 127.4475,74.5205 123.635,74.671 L121.5315,76.1655 L123.21,78.3515" id="Fill-34" fill="#F7C061"></path>
                    <path d="M193.239,147.549 C193.239,147.549 181.802,176.179 189.657,197.849 L193.712,197.5415 C193.712,197.5415 189.4675,172.791 198.617,158.637 C198.617,158.637 194.874,180.6335 199.071,194.9565 L203.126,194.649 C203.126,194.649 201.2305,177.198 205.1615,165.3635 C211.013,147.746 206.3745,141.536 206.3745,141.536 L196.6015,142.4805 L193.239,147.549" id="Fill-38" fill="#362436"></path>
                    <path d="M162.2305,119.396 L160.5785,117.092 C160.5785,117.092 160.807,114.1005 160.1795,113.469 C159.552,112.837 159.0725,113.947 158.8495,115.0585 C158.8495,115.0585 156.4545,111.5325 155.0335,112.008 C154.1605,112.3005 153.3025,115.5065 155.134,117.7375 C156.984,119.9915 159.7485,120.2265 159.7485,120.2265 L162.2305,119.396" id="Fill-39" fill="#F7C061"></path>
                    <path d="M182.8245,108.7035 L179.0165,103.8575 C179.0165,103.8575 175.015,103.4005 174.3195,102.267 C173.623,101.133 177.011,101.7315 177.011,101.7315 C177.011,101.7315 175.7285,96.329 177.05,95.8315 C178.451,95.3035 180.096,96.1245 180.903,98.3875 C181.5245,100.1325 182.1705,102.317 182.1705,102.317 L182.8245,108.7035" id="Fill-40" fill="#F7C061"></path>
                    <path d="M185.5325,116.76 L179.0165,103.8575 C179.0165,103.8575 180.6035,101.936 182.1705,102.317 L190.9215,115.7375 L185.5325,116.76" id="Fill-41" fill="#4E68A3"></path>
                    <path d="M187.64,124.3445 L160.5785,117.092 C160.5785,117.092 159.559,117.483 159.7485,120.2265 L186.8115,130.9965 L193.239,147.549 C193.239,147.549 204.1465,148.837 206.3745,141.536 C206.3745,141.536 202.008,129.2795 195.3345,122.495 C195.1065,122.263 187.64,124.3445 187.64,124.3445" id="Fill-42" fill="#667CAF"></path>
                    <path d="M188.4095,112.823 C188.025,111.022 183.189,114.7115 183.4495,115.262 C183.711,115.8125 183.711,115.8125 183.711,115.8125 C183.711,115.8125 182.2075,117.631 183.117,120.326 C184.0265,123.021 184.765,123.31 186.3715,124.3445 L187.373,120.326 C187.373,120.326 188.5245,120.537 189.197,119.567 C189.8695,118.5975 188.8155,117.33 187.7205,117.3265 C187.7205,117.3265 188.784,114.578 188.4095,112.823" id="Fill-43" fill="#F7C061"></path>
                    <path d="M187.7205,117.3265 C187.7205,117.3265 186.0995,113.3915 188.0805,111.6015 C190.0615,109.8115 193.235,110.1555 195.3345,112.42 C197.969,115.262 198.4545,119.6355 195.7845,123.0825 C193.2805,126.315 186.935,125.9415 186.3715,124.3445 C185.8085,122.748 187.373,120.326 187.373,120.326 C187.373,120.326 189.93,119.634 187.7205,117.3265" id="Fill-44" fill="#362436"></path>
                    <path d="M198.617,158.637 C198.617,158.637 196.5665,168.2395 197.204,179.0385 C197.809,167.173 202.454,155.296 202.454,155.296 L198.617,158.637" id="Fill-45" fill="#251B26"></path>
                    <polyline id="Fill-46" fill="#4E68A3" points="189.8725 138.8805 189.7485 132.1895 186.8115 130.9965 189.8725 138.8805"></polyline>
                    <path d="M76.672,142.7255 C75.6825,142.37 64.99,152.965 65.794,158.553 C66.5485,163.796 75.5945,167.842 75.5945,167.842 L80.638,150.804 L76.672,142.7255" id="Fill-48" fill="#D73C5B"></path>
                    <polyline id="Fill-49" fill="#7D9AAF" points="110.807 146.214 46.0955 163.5625 45.064 159.716 109.776 142.367 110.807 146.214"></polyline>
                    <polyline id="Fill-50" fill="#A3BACD" points="106.713 144.3835 42.001 161.732 40.97 157.8855 105.6815 140.5365 106.713 144.3835"></polyline>
                    <polyline id="Fill-51" fill="#A3BACD" points="107.266 151.334 42.554 168.6825 41.523 164.836 106.2345 147.4875 107.266 151.334"></polyline>
                    <path d="M88.2315,157.9745 L89.6305,162.303 C89.6305,162.303 94.7355,189.511 92.36,202.1915 L84.3355,201.389 C84.3355,201.389 84.723,183.546 82.2265,177.4215 C82.2265,177.4215 78.975,190.201 72.785,199.2495 L64.9355,194.683 C64.9355,194.683 72.2705,183.546 72.2285,161.678 L88.2315,157.9745" id="Fill-58" fill="#362436"></path>
                    <path d="M105.146,128.427 L105.721,124.469 L105.146,122.3135 L106.8185,121.4665 C106.8185,121.4665 108.276,117.9975 109.5345,119.229 C111.4245,121.0795 109.1335,124.652 108.143,126.47 L105.146,128.427" id="Fill-59" fill="#F7C061"></path>
                    <path d="M83.189,137.9445 C83.189,137.9445 96.375,137.815 105.721,124.469 L108.143,126.47 C108.143,126.47 102.3595,138.1875 89.505,143.5705 C89.505,143.5705 88.1755,157.5615 89.6305,162.303 C89.6305,162.303 79.2925,166.052 72.2285,161.678 C72.2285,161.678 73.6125,148.469 76.672,142.7255 C79.732,136.9825 83.189,137.9445 83.189,137.9445" id="Fill-60" fill="#E15B73"></path>
                    <path d="M85.222,127.0685 C85.222,127.0685 87.34,129.516 87.386,133.119 L86.7655,133.388 C86.7655,133.388 87.905,137.4605 84.6215,138.814 C81.3375,140.1675 79.8335,134.979 79.8335,134.979 L81.053,128.094 L85.222,127.0685" id="Fill-61" fill="#F7C061"></path>
                    <path d="M85.254,133.3575 C85.254,133.3575 87.0365,139.3145 84.9125,142.946 C82.789,146.5765 77.625,148.339 74.988,145.2705 C72.351,142.2015 76.6885,139.9065 76.212,137.1495 C75.735,134.392 73.433,129.621 75.4215,128.1975 C75.4215,128.1975 75.154,126.381 77.4635,124.349 C79.7725,122.317 84.0755,124.799 85.5505,123.7855 C87.025,122.7725 89.778,129.8835 85.254,133.3575" id="Fill-62" fill="#362436"></path>
                    <path d="M79.9155,183.642 C81.5285,179.9215 82.2265,177.4215 82.2265,177.4215 L80.1575,171.9595 L79.9155,183.642" id="Fill-63" fill="#251B26"></path>
                    <path d="M89.505,143.5705 L85.832,144.7765 L89.094,149.4985 C88.8865,146.2655 89.505,143.5705 89.505,143.5705" id="Fill-64" fill="#D73C5B"></path>
                    <path d="M98.4955,61.223 C98.4955,61.223 110.371,73.9155 123.635,74.671 L123.21,78.3515 C123.21,78.3515 111.2445,79.1875 101.436,71.035 L99.998,73.7615 L76.62,77.5115 C76.62,77.5115 83.8565,65.236 90.8785,61.372 C97.901,57.5075 98.4955,61.223 98.4955,61.223" id="Fill-65" fill="#E98964"></path>
                    <path d="M91.8665,52.303 C91.8665,52.303 89.203,52.426 87.7555,55.5025 C86.3085,58.5795 87.6435,62.923 92.117,63.36 C96.5915,63.797 99.0435,60.0435 99.0435,60.0435 L99.9585,58.4555 C99.9585,58.4555 100.366,54.0945 98.57,52.083 C96.712,50.002 93.331,49.7795 91.8665,52.303" id="Fill-66" fill="#362436"></path>
                    <path d="M99.884,56.291 C100.1735,57.14 100.948,61.1115 98.149,63.7785 C96.096,65.7345 91.213,64.493 90.8785,61.372 C90.8785,61.372 88.4565,59.962 88.764,58.8785 C89.072,57.7945 89.9395,58.1405 90.6875,58.4555 C90.6875,58.4555 91.824,56.616 92.273,55.596 C92.5915,54.8725 93.899,53.556 96.323,53.6205 C97.9525,53.664 99.358,54.7485 99.884,56.291" id="Fill-67" fill="#F7C061"></path>
                    <path d="M90.0985,56.3445 L90.6875,58.4555 C90.6875,58.4555 95.1145,57.341 96.3035,54.7865 C96.3035,54.7865 97.562,57.7035 99.998,56.621 C99.998,56.621 99.6845,53.48 98.087,53.06 C96.4895,52.64 94.096,52.934 94.096,52.934 L91.5475,53.8795 L90.0985,56.3445" id="Fill-68" fill="#362436"></path>
                    <path d="M89.137,68.4155 C89.137,68.4155 91.045,85.5355 98.4595,92.835 L94.49,94.571 C94.49,94.571 85.1945,85.765 83.4525,71.785 C83.3665,71.0945 89.137,68.4155 89.137,68.4155" id="Fill-69" fill="#E98964"></path>
                    <polyline id="Fill-70" fill="#D96E4C" points="84.2885 76.301 83.4515 72.113 80.6325 76.868 84.2885 76.301"></polyline>
                    <path d="M98.4595,92.835 C98.4595,92.835 101.437,93.7115 101.8395,94.8525 C102.2425,95.993 100.1495,95.3225 100.1495,95.3225 C100.1495,95.3225 102.3365,99.6845 100.1755,101.094 C98.0145,102.503 94.4645,94.568 94.4645,94.568 L98.4595,92.835" id="Fill-71" fill="#F7C061"></path>
                </g>
            </g>
        </g>
    </g>
</svg>