<?xml version="1.0" encoding="UTF-8"?>
<svg width="279px" height="129px" viewBox="0 0 279 129" version="1.1" xmlns="http://www.w3.org/2000/svg" xmlns:xlink="http://www.w3.org/1999/xlink">
    <!-- Generator: Sketch 52.2 (67145) - http://www.bohemiancoding.com/sketch -->
    <title>Group 31</title>
    <desc>Created with Sketch.</desc>
    <defs>
        <path d="M8,-2.84217094e-14 L271,-2.84217094e-14 C275.418278,-2.92333339e-14 279,3.581722 279,8 L279,129 L0,129 L0,8 C-5.41083001e-16,3.581722 3.581722,-2.76100849e-14 8,-2.84217094e-14 Z" id="path-1"></path>
        <polygon id="path-3" points="0.02304 0 192 0 192 192 0.02304 192"></polygon>
    </defs>
    <g id="desktop" stroke="none" stroke-width="1" fill="none" fill-rule="evenodd">
        <g id="Group-31">
            <mask id="mask-2" fill="white">
                <use xlink:href="#path-1"></use>
            </mask>
            <use id="Rectangle" fill="#F8FBFC" xlink:href="#path-1"></use>
            <g id="369122-PBBMKF-735" mask="url(#mask-2)">
                <g transform="translate(-2.000000, -31.000000)">
                    <g id="Group-3" stroke-width="1" fill="none" transform="translate(110.000000, 0.000000)">
                        <mask id="mask-4" fill="white">
                            <use xlink:href="#path-3"></use>
                        </mask>
                        <g id="Clip-2"></g>
                        <polygon id="Fill-1" fill="#F8FBFC" mask="url(#mask-4)" points="0.02304 192 192 192 192 0 0.02304 0"></polygon>
                    </g>
                    <path d="M32.5665631,42.603304 C32.5745285,44.4906738 30.4115154,46.034847 27.7598907,46.034847 L26.3426863,46.034847 C23.6910616,46.034847 21.5215505,44.4760742 21.5215505,42.570931 C21.5215505,40.6657878 23.6910616,39.1197103 26.3426863,39.1351563 L27.7309638,39.1431966 C30.3825886,39.1588542 32.5585978,40.7157227 32.5665631,42.603304 M88.0100447,62.1887858 C85.35842,62.1887858 83.1891185,60.4438151 83.1891185,58.3110026 C83.1891185,56.1781901 84.64049,54.4330078 86.4144584,54.4330078 C88.1886364,54.4330078 89.6400079,52.6755534 89.6400079,50.5275065 C89.6400079,48.3794596 87.4704967,46.6220052 84.8190816,46.6220052 L68.6236286,46.6220052 C65.9720039,46.6220052 63.8022831,44.8645508 63.8022831,42.7165039 C63.8022831,40.568457 61.632772,38.8110026 58.9811473,38.8110026 L53.2888531,38.8110026 C50.6372284,38.8110026 48.4677173,37.0535482 48.4677173,34.9055013 C48.4677173,32.7574544 46.2982061,31 43.646791,31 L22.5721389,31 C19.9205141,31 17.751003,32.7574544 17.751003,34.9055013 C17.751003,37.0535482 15.5814919,38.8110026 12.9298671,38.8110026 L4.82113586,38.8110026 C2.16951114,38.8110026 0,40.568457 0,42.7165039 C0,44.8645508 2.16951114,46.6220052 4.82113586,46.6220052 L14.2378623,46.6220052 C16.889487,46.6220052 19.0589981,48.3699382 19.0589981,50.5063477 C19.0589981,52.6427572 16.9146407,54.3906901 14.2936198,54.3906901 C11.6728084,54.3906901 9.52824138,56.1453939 9.52824138,58.2898438 C9.52824138,60.4342936 7.38451283,62.1887858 4.76412069,62.1887858 C2.14372854,62.1887858 0,63.9464518 0,66.0944987 C0,68.2425456 2.16951114,70 4.82113586,70 L95.1788641,70 C97.8304889,70 100,68.2425456 100,66.0944987 C100,63.9464518 97.8304889,62.1887858 95.1788641,62.1887858 L88.0100447,62.1887858" id="Fill-3" fill="#DBEAEF"></path>
                    <path d="M28.7604942,146.974318 C26.2024185,146.974318 24.1094476,149.033059 24.1094476,151.549299 L24.1094476,151.912178 C24.1094476,154.428417 22.0164766,156.487159 19.458401,156.487159 L17.6510466,156.487159 C15.092971,156.487159 13,158.5459 13,161.06214 L13,161.425227 C13,163.941259 15.092971,166 17.6510466,166 L74.8384126,166 C77.3964883,166 79.4894592,163.941259 79.4894592,161.425227 L79.4894592,161.06214 C79.4894592,158.5459 81.5824302,156.487159 84.1405058,156.487159 L100.304161,156.487159 C102.862448,156.487159 104.955419,154.428417 104.955419,151.912178 L104.955419,151.549299 C104.955419,149.033059 107.04839,146.974318 109.606466,146.974318 L118.348953,146.974318 C120.907029,146.974318 123,144.915576 123,142.399337 L123,142.036458 C123,139.520218 120.907029,137.461477 118.348953,137.461477 L113.903399,137.461477 C111.345323,137.461477 109.252352,135.402527 109.252352,132.886288 L109.252352,132.575189 C109.252352,130.058741 107.159381,128 104.601305,128 L23.6819741,128 C21.1238985,128 19.0309275,130.058741 19.0309275,132.575189 L19.0309275,132.938068 C19.0309275,135.454308 21.1238985,137.513049 23.6819741,137.513049 L30.9348584,137.513049 C33.4929341,137.513049 35.585905,139.571791 35.585905,142.08803 L35.585905,142.399337 C35.585905,144.915576 33.4929341,146.974318 30.9348584,146.974318 L28.7604942,146.974318" id="Fill-4" fill="#DBEAEF"></path>
                    <path d="M133.00928,147.924096 C127.731968,147.924096 123.454208,146.79744 123.454208,145.407744 C123.454208,144.018048 127.731968,142.891392 133.00928,142.891392 C138.286592,142.891392 142.56512,144.018048 142.56512,145.407744 C142.56512,146.79744 138.286592,147.924096 133.00928,147.924096" id="Fill-4" fill="#E5EEEE"></path>
                    <path d="M143.708672,115.76256 C142.832,114.360576 142.497152,112.708224 142.585472,111.057408 C142.595456,110.875392 142.600448,110.692608 142.600448,110.507904 C142.600448,108.373632 141.948416,106.39296 140.834816,104.750592 C139.832192,103.272192 139.293824,101.50656 139.45664,99.727104 C139.483904,99.429888 139.492736,99.126912 139.481984,98.819712 C139.354112,95.11296 136.31168,92.0448 132.60608,91.891584 C128.498432,91.721472 125.115392,95.000832 125.115392,99.070848 C125.115392,99.222144 125.12,99.37152 125.129216,99.520512 C125.2448,101.374848 124.808576,103.213824 123.766016,104.752128 C122.6528,106.394112 122.001152,108.374016 122.001152,110.507904 C122.001152,110.766336 122.011136,111.02208 122.029952,111.275136 C122.14976,112.866432 121.721216,114.431232 120.878336,115.785984 C119.389952,118.177152 118.631168,121.068672 118.91648,124.152192 C119.497472,130.432512 124.505984,135.542784 130.774784,136.232448 C138.882944,137.125632 145.744256,130.800768 145.744256,122.873088 C145.744256,120.261888 144.998144,117.825024 143.708672,115.76256" id="Fill-5" fill="#A4CD79"></path>
                    <path d="M118.91648,124.152192 C119.497472,130.432512 124.505984,135.542784 130.774784,136.232448 C134.4512,136.637568 137.868416,135.555072 140.5088,133.515648 C135.621632,134.844672 129.053312,134.54784 124.325888,130.123392 C117.946112,124.152576 120.878336,115.785984 120.878336,115.785984 C119.389952,118.177152 118.631168,121.068672 118.91648,124.152192" id="Fill-6" fill="#8DB861"></path>
                    <path d="M139.365632,120.320256 C137.356928,123.959424 132.84608,127.584768 132.186368,131.933184 C132.046208,131.177088 131.935616,130.414848 131.875712,129.639936 C131.725952,127.6992 131.748224,125.740416 131.792,123.79584 C131.88032,119.885568 132.306176,116.020224 132.62336,112.126848 C132.710144,111.063936 132.780032,110.011008 132.808832,108.96576 C133.860608,105.920256 136.176896,103.57248 136.659584,100.268544 L136.61888,100.257408 C136.216448,102.147072 135.211904,103.794432 134.213504,105.420288 C133.697792,106.260096 133.142144,107.093376 132.822656,108.011904 C132.822656,105.81696 132.59648,103.6512 131.88608,101.485824 C131.867648,101.430144 131.779712,101.453568 131.797376,101.5104 C132.94208,105.21024 132.483584,109.17888 131.944832,112.945152 C131.766656,114.192384 131.619968,115.442688 131.488256,116.694144 C131.142272,115.990272 130.577792,115.349376 130.06784,114.845184 C128.585984,113.380224 127.147904,112.164096 126.16832,110.268288 C126.127232,110.188032 126.0128,110.258304 126.04928,110.337792 C126.695168,111.74592 127.500416,113.0112 128.58368,114.124416 C129.16352,114.720384 129.790208,115.276416 130.307072,115.9296 C130.866176,116.635776 131.105408,117.356928 131.340032,118.166784 C131.165696,120.11712 131.048192,122.072064 131.00288,124.033536 C130.967936,125.535744 130.982144,127.006848 131.065856,128.466048 C130.649984,127.686528 130.06976,126.988032 129.415808,126.450048 C128.610176,125.78688 127.697792,125.495424 126.758528,125.084544 C125.541632,124.55232 124.640384,123.585024 123.53792,122.8704 C123.475328,122.829696 123.419648,122.928 123.479936,122.969472 C124.35008,123.568896 125.08544,124.325376 125.927168,124.958208 C126.684416,125.528064 127.567616,125.8752 128.36096,126.384384 C129.8624,127.34784 130.663424,128.740992 131.215616,130.321152 C131.371136,131.819136 131.61152,133.31328 131.978624,134.822784 C132.445952,136.745088 132.893312,138.65472 133.06688,140.631168 C133.23392,142.535808 133.077632,144.390912 133.034624,146.292096 C133.025408,146.694144 133.670528,146.798592 133.750016,146.388864 C134.4224,142.922496 133.868672,139.145856 133.05344,135.753984 C132.952064,135.333888 132.84992,134.914944 132.748928,134.496384 C133.03424,129.017472 137.045888,125.062656 139.451648,120.37056 C139.480832,120.313344 139.396736,120.263808 139.365632,120.320256" id="Fill-7" fill="#917957"></path>
                    <path d="M281.489408,115.054464 C276.212096,115.054464 271.933952,113.928192 271.933952,112.538112 C271.933952,111.148416 276.212096,110.022144 281.489408,110.022144 C286.76672,110.022144 291.045248,111.148416 291.045248,112.538112 C291.045248,113.928192 286.76672,115.054464 281.489408,115.054464" id="Fill-8" fill="#E5EEEE"></path>
                    <path d="M291.107072,82.179072 C290.230784,80.777472 289.895552,79.124736 289.983872,77.47392 C289.993472,77.291904 289.998464,77.10912 289.998464,76.9248 C289.998464,74.790144 289.346816,72.809856 288.232832,71.167104 C287.230208,69.68832 286.692224,67.923072 286.85504,66.144 C286.882304,65.8464 286.890752,65.543424 286.880384,65.236224 C286.752512,61.529472 283.709696,58.461312 280.004096,58.308096 C275.896448,58.137984 272.513408,61.417728 272.513408,65.48736 C272.513408,65.638656 272.5184,65.788416 272.527616,65.937024 C272.6432,67.791744 272.206592,69.63072 271.164032,71.16864 C270.0512,72.811008 269.399936,74.790528 269.399936,76.9248 C269.399936,77.182848 269.409536,77.438592 269.428352,77.691648 C269.547776,79.282944 269.119616,80.848128 268.276736,82.20288 C266.788352,84.593664 266.029568,87.485568 266.31488,90.568704 C266.895872,96.849024 271.904,101.959296 278.173184,102.649344 C286.28096,103.542528 293.14304,97.21728 293.14304,89.289984 C293.14304,86.6784 292.396544,84.241536 291.107072,82.179072" id="Fill-9" fill="#A4CD79"></path>
                    <path d="M266.31488,90.568704 C266.895872,96.849024 271.904,101.959296 278.173184,102.649344 C281.849216,103.05408 285.266816,101.971968 287.9072,99.93216 C283.019648,101.261184 276.451712,100.964352 271.724288,96.539904 C265.344512,90.569088 268.276736,82.20288 268.276736,82.20288 C266.788352,84.593664 266.029568,87.485568 266.31488,90.568704" id="Fill-10" fill="#8DB861"></path>
                    <path d="M286.764032,86.736768 C284.755328,90.375936 280.24448,94.00128 279.584768,98.349696 C279.444608,97.5936 279.334016,96.83136 279.273728,96.056448 C279.124352,94.115712 279.14624,92.157312 279.1904,90.212352 C279.27872,86.302464 279.704192,82.436736 280.02176,78.543744 C280.10816,77.480064 280.178432,76.42752 280.206848,75.382272 C281.259008,72.336768 283.57568,69.988992 284.0576,66.68544 L284.01728,66.67392 C283.614464,68.563584 282.610304,70.210944 281.611904,71.8368 C281.096192,72.676608 280.54016,73.509888 280.220672,74.4288 C280.220672,72.233472 279.994496,70.067712 279.28448,67.90272 C279.266048,67.846656 279.177728,67.87008 279.195392,67.926912 C280.340096,71.627136 279.8816,75.595776 279.343232,79.361664 C279.164672,80.608896 279.017984,81.8592 278.88704,83.110656 C278.540672,82.406784 277.976192,81.765888 277.465856,81.261696 C275.984384,79.796736 274.546304,78.580608 273.56672,76.6848 C273.525632,76.604928 273.4112,76.674816 273.44768,76.754304 C274.093568,78.162816 274.898432,79.427712 275.981696,80.540928 C276.56192,81.136896 277.188224,81.693312 277.705088,82.346496 C278.264192,83.052672 278.504192,83.773824 278.738432,84.583296 C278.564096,86.533632 278.446592,88.48896 278.400896,90.450048 C278.365952,91.952256 278.380544,93.42336 278.464256,94.88256 C278.048384,94.10304 277.467776,93.404544 276.814208,92.86656 C276.008192,92.203392 275.096192,91.911936 274.156928,91.501056 C272.939648,90.969216 272.038784,90.001536 270.935936,89.286912 C270.873344,89.246208 270.818048,89.344512 270.878336,89.386368 C271.74848,89.985408 272.48384,90.741888 273.325184,91.375104 C274.082816,91.94496 274.966016,92.291712 275.75936,92.800896 C277.2608,93.764352 278.061824,95.157504 278.614016,96.737664 C278.769536,98.235648 279.00992,99.729792 279.37664,101.239296 C279.844352,103.1616 280.291712,105.071232 280.46528,107.04768 C280.63232,108.951936 280.476032,110.807424 280.433024,112.708608 C280.423808,113.110656 281.068544,113.215104 281.148032,112.805376 C281.8208,109.339008 281.267072,105.562368 280.451456,102.170496 C280.350464,101.7504 280.247936,101.331456 280.147328,100.912896 C280.432256,95.433984 284.443904,91.479168 286.850048,86.787072 C286.879232,86.73024 286.795136,86.679936 286.764032,86.736768" id="Fill-11" fill="#917957"></path>
                    <polyline id="Fill-12" fill="#E5EEEE" points="153.26144 151.911552 140.802944 148.486272 158.192 143.841408 159.189248 150.081408 153.26144 151.911552"></polyline>
                    <polyline id="Fill-13" fill="#B8CCDC" points="145.310336 63.244032 140.802944 68.262144 153.26144 151.911552 159.771392 153.72288 163.972352 134.784"></polyline>
                    <polyline id="Fill-14" fill="#506BA5" points="145.310336 63.244032 140.802944 68.262144 143.260544 84.598272 147.759872 80.071296 146.761472 68.80704 145.310336 63.244032"></polyline>
                    <polyline id="Fill-15" fill="#D6E6EF" points="267.805952 123.606912 159.771392 153.72288 145.310336 63.244032 256.564352 45.68064 267.805952 123.606912"></polyline>
                    <polyline id="Fill-16" fill="#A3BACD" points="213.413888 89.755392 158.31296 100.065024 157.750784 97.058688 212.851328 86.749056 213.413888 89.755392"></polyline>
                    <polyline id="Fill-17" fill="#A3BACD" points="212.054912 82.492032 156.953984 92.801664 156.391808 89.794944 211.492352 79.485696 212.054912 82.492032"></polyline>
                    <polyline id="Fill-18" fill="#667CAF" points="258.770816 61.502976 256.564352 45.68064 145.310336 63.244032 147.759872 80.071296 258.770816 61.502976"></polyline>
                    <polyline id="Fill-19" fill="#FFFFFE" points="253.431296 57.729792 225.529088 62.327808 224.674688 57.140352 252.576512 52.54272 253.431296 57.729792"></polyline>
                    <polyline id="Fill-20" fill="#FFFFFE" points="221.186432 62.930688 190.084352 68.055936 189.229568 62.86848 220.331648 57.743616 221.186432 62.930688"></polyline>
                    <path d="M176.843648,115.147776 C173.912576,115.147776 175.2128,109.782528 175.2128,109.782528 L186.060416,103.275264 L194.879744,93.936768 C194.879744,93.936768 191.07776,105.349632 181.940864,112.538112 C179.51552,114.446592 177.903104,115.147776 176.843648,115.147776" id="Fill-21" fill="#B6C7DC"></path>
                    <polyline id="Fill-22" fill="#B6C7DC" points="228.311168 103.81056 224.970368 70.376448 230.40512 102.138624 253.214336 96.748416 253.471232 97.683072 228.311168 103.81056"></polyline>
                    <path d="M171.9296,59.04192 C171.926912,59.036928 171.92576,59.034624 171.92576,59.034624 L172.172288,59.00352 L171.9296,59.04192" id="Fill-23" fill="#D1E1EB"></path>
                    <path d="M185.870336,77.55072 C184.77248,77.042688 183.480704,75.858432 182.1344,74.321664 L184.06784,73.997952 L185.870336,77.55072" id="Fill-24" fill="#B6C7DC"></path>
                    <path d="M182.1344,74.321664 C177.448064,68.971392 172.095872,59.342208 171.9296,59.04192 L172.172288,59.00352 L176.202368,58.495104 L184.06784,73.997952 L182.1344,74.321664" id="Fill-25" fill="#596DA5"></path>
                    <path d="M186.870272,56.683008 C186.82304,56.660736 186.798464,56.648832 186.798464,56.648832 L190.10624,56.172288 L186.870272,56.683008" id="Fill-26" fill="#D1E1EB"></path>
                    <path d="M200.614784,60.992256 C194.786432,60.350976 187.659008,57.05472 186.870272,56.683008 L190.106624,56.172288 L205.177856,59.034624 L205.634816,60.16512 L200.614784,60.992256" id="Fill-27" fill="#596DA5"></path>
                    <path d="M206.43392,62.47104 C205.79072,62.47104 204.62528,60.887424 204.62528,60.887424 C203.958272,61.034496 203.227904,61.10016 202.45376,61.10016 C201.8624,61.10016 201.246464,61.06176 200.614784,60.992256 L205.634816,60.16512 L206.557952,62.447616 C206.519552,62.46336 206.477696,62.47104 206.43392,62.47104" id="Fill-28" fill="#D8E1EB"></path>
                    <polyline id="Fill-29" fill="#B393B8" points="253.059584 66.14208 257.35232 95.770752 230.40512 102.138624 224.970368 70.376448 253.059584 66.14208"></polyline>
                    <g id="icon-2" stroke-width="1" fill="none" transform="translate(241.692578, 83.049384) rotate(-9.000000) translate(-241.692578, -83.049384) translate(230.172578, 69.993384)">
                        <g id="icon" fill="#FFFFFF">
                            <path d="M0.44352,20.898437 L12.3900988,25.7779699 L12.2711718,0 L0,7.56378265 L0.44352,20.898437 Z M6.66992941,14.3029727 C5.2192,13.5879348 4.27312941,12.4532297 4.27312941,10.6582841 C4.27312941,8.55326587 5.51698824,6.94142338 7.57778824,6.94142338 C8.56338824,6.94142338 9.28809412,7.23545766 9.80724706,7.56424145 L9.36583529,9.81627678 C9.01534118,9.57837631 8.39472941,9.23088125 7.53825882,9.23088125 C6.68310588,9.23088125 6.26804706,9.78019075 6.26804706,10.4217201 C6.26804706,11.2089301 6.76084706,11.5564251 7.88743529,12.1605319 C9.4304,12.9664532 10.1551059,14.1024948 10.1551059,15.8413066 C10.1551059,17.9102388 9.02983529,19.6664254 6.63171765,19.6664254 C5.63294118,19.6664254 4.64865882,19.3015555 4.15585882,18.9166379 L4.55774118,16.6098053 C5.08875294,16.9933864 5.90569412,17.3769675 6.74898824,17.3769675 C7.65552941,17.3769675 8.13515294,16.8477058 8.13515294,16.040448 C8.13383529,15.2732858 7.71877647,14.8322344 6.66992941,14.3029727 Z" id="Shape" fill-rule="nonzero"></path>
                            <path d="M20.0335059,9.99269735 C19.5617882,9.99269735 19.1243294,10.1196667 18.7316706,10.3254907 L16.9976471,8.56395803 C17.1109647,8.25254899 17.1808,7.92109216 17.1808,7.56958753 C17.1808,6.01254234 15.9672471,4.75354099 14.448,4.68938805 L14.448,10.4524601 C14.7497412,10.4377583 15.0396235,10.377615 15.3097412,10.277376 L17.2572235,12.2514153 C17.2111059,12.4559028 17.1808,12.6670728 17.1808,12.886262 C17.1808,13.6026365 17.4469647,14.2495119 17.8725647,14.7533797 L16.1833412,16.4667977 C15.7880471,16.2609737 15.3479529,16.1313313 14.8749176,16.1313313 C14.7299765,16.1313313 14.5889882,16.1527156 14.448,16.1740999 L14.448,21.873019 C14.5889882,21.8957398 14.7299765,21.9157876 14.8749176,21.9157876 C16.4481882,21.9157876 17.7249882,20.6220368 17.7249882,19.024896 C17.7249882,18.8083798 17.6999529,18.6012193 17.6551529,18.3994049 L20.2614588,15.7557694 C21.7293176,15.6354826 22.8862118,14.4032116 22.8862118,12.8849255 C22.8848941,11.2877847 21.6067765,9.99269735 20.0335059,9.99269735 Z" id="Path"></path>
                        </g>
                    </g>
                    <polyline id="Fill-30" fill="#9B81AE" points="251.884544 92.383488 245.944448 78.179712 248.004224 77.281536 254.169344 90.156672 251.884544 92.383488"></polyline>
                    <polyline id="Fill-31" fill="#A3BACD" points="232.920704 110.134272 258.080384 103.632768 258.770816 108.552192 233.803904 115.38624 232.920704 110.134272"></polyline>
                    <polyline id="Fill-32" fill="#A3BACD" points="234.30848 119.567232 259.467776 113.065728 260.158208 117.985152 235.19168 124.819584 234.30848 119.567232"></polyline>
                    <polyline id="Fill-33" fill="#A3BACD" points="226.633856 119.685504 228.031232 127.707648 195.49952 136.870656 193.767296 128.304384 226.633856 119.685504"></polyline>
                    <path d="M204.62528,60.173952 C204.62528,60.173952 205.841792,62.86656 206.557952,62.447616 C207.274112,62.029056 206.557952,60.192384 206.557952,60.192384 L211.295744,59.232384 C211.295744,59.232384 207.87968,57.231744 204.95168,57.347328 L203.336192,58.495104 L204.62528,60.173952" id="Fill-34" fill="#F7C061"></path>
                    <path d="M255.82208,157.454208 C247.331072,157.454208 240.447872,155.641344 240.447872,153.405696 C240.447872,151.169664 247.331072,149.3568 255.82208,149.3568 C264.313472,149.3568 271.196672,151.169664 271.196672,153.405696 C271.196672,155.641344 264.313472,157.454208 255.82208,157.454208" id="Fill-35" fill="#E5EEEE"></path>
                    <path d="M262.886528,149.726592 L258.338048,152.040576 C258.140288,152.141184 258.063488,152.330496 258.08384,152.509056 C258.108416,152.727552 258.278912,152.929152 258.551168,152.929152 L266.000768,152.929152 L266.000768,149.490432 L263.603072,148.486272 L262.886528,149.726592" id="Fill-36" fill="#4E68A3"></path>
                    <path d="M255.656576,151.948032 L251.10848,154.2624 C250.910336,154.362624 250.83392,154.551936 250.853888,154.730112 C250.878464,154.948992 251.04896,155.150592 251.320832,155.150592 L258.770816,155.150592 L258.770816,151.711872 L256.373504,150.707712 L255.656576,151.948032" id="Fill-37" fill="#667CAF"></path>
                    <path d="M258.407552,113.317632 C258.407552,113.317632 249.623936,135.305472 255.656576,151.948032 L258.770816,151.711872 C258.770816,151.711872 255.51104,132.703488 262.537856,121.833216 C262.537856,121.833216 259.663232,138.726528 262.886528,149.726592 L266.000768,149.490432 C266.000768,149.490432 264.545024,136.088064 267.564032,126.999168 C272.057984,113.468928 268.495616,108.699648 268.495616,108.699648 L260.989952,109.425024 L258.407552,113.317632" id="Fill-38" fill="#362436"></path>
                    <path d="M234.593024,91.696128 L233.324288,89.926656 C233.324288,89.926656 233.499776,87.629184 233.017856,87.144192 C232.535936,86.658816 232.16768,87.511296 231.996416,88.364928 C231.996416,88.364928 230.157056,85.65696 229.065728,86.022144 C228.395264,86.246784 227.73632,88.708992 229.142912,90.4224 C230.563712,92.153472 232.686848,92.333952 232.686848,92.333952 L234.593024,91.696128" id="Fill-39" fill="#F7C061"></path>
                    <path d="M250.409216,83.484288 L247.484672,79.76256 C247.484672,79.76256 244.41152,79.411584 243.877376,78.541056 C243.342464,77.670144 245.944448,78.129792 245.944448,78.129792 C245.944448,78.129792 244.959488,73.980672 245.9744,73.598592 C247.050368,73.193088 248.313728,73.823616 248.933504,75.5616 C249.410816,76.90176 249.906944,78.579456 249.906944,78.579456 L250.409216,83.484288" id="Fill-40" fill="#F7C061"></path>
                    <path d="M252.48896,89.67168 L247.484672,79.76256 C247.484672,79.76256 248.703488,78.286848 249.906944,78.579456 L256.627712,88.8864 L252.48896,89.67168" id="Fill-41" fill="#4E68A3"></path>
                    <path d="M254.10752,95.496576 L233.324288,89.926656 C233.324288,89.926656 232.541312,90.226944 232.686848,92.333952 L253.471232,100.605312 L258.407552,113.317632 C258.407552,113.317632 266.784512,114.306816 268.495616,108.699648 C268.495616,108.699648 265.142144,99.286656 260.016896,94.07616 C259.841792,93.897984 254.10752,95.496576 254.10752,95.496576" id="Fill-42" fill="#667CAF"></path>
                    <path d="M254.698496,86.648064 C254.4032,85.264896 250.689152,88.098432 250.889216,88.521216 C251.090048,88.944 251.090048,88.944 251.090048,88.944 C251.090048,88.944 249.93536,90.340608 250.633856,92.410368 C251.332352,94.480128 251.89952,94.70208 253.133312,95.496576 L253.902464,92.410368 C253.902464,92.410368 254.786816,92.572416 255.303296,91.827456 C255.819776,91.08288 255.010304,90.10944 254.169344,90.106752 C254.169344,90.106752 254.986112,87.995904 254.698496,86.648064" id="Fill-43" fill="#F7C061"></path>
                    <path d="M254.169344,90.106752 C254.169344,90.106752 252.924416,87.084672 254.445824,85.709952 C255.967232,84.335232 258.40448,84.599424 260.016896,86.33856 C262.040192,88.521216 262.413056,91.880064 260.362496,94.52736 C258.439424,97.00992 253.56608,96.723072 253.133312,95.496576 C252.700928,94.270464 253.902464,92.410368 253.902464,92.410368 C253.902464,92.410368 255.86624,91.878912 254.169344,90.106752" id="Fill-44" fill="#362436"></path>
                    <path d="M262.537856,121.833216 C262.537856,121.833216 260.963072,129.207936 261.452672,137.501568 C261.917312,128.388864 265.484672,119.267328 265.484672,119.267328 L262.537856,121.833216" id="Fill-45" fill="#251B26"></path>
                    <polyline id="Fill-46" fill="#4E68A3" points="255.82208 106.660224 255.726848 101.521536 253.471232 100.605312 255.82208 106.660224"></polyline>
                    <path d="M168.884096,109.613184 C168.12416,109.34016 159.91232,117.47712 160.529792,121.768704 C161.109248,125.795328 168.056576,128.902656 168.056576,128.902656 L171.929984,115.817472 L168.884096,109.613184" id="Fill-48" fill="#D73C5B"></path>
                    <polyline id="Fill-49" fill="#7D9AAF" points="195.099776 112.292352 145.401344 125.616 144.609152 122.661888 194.307968 109.337856 195.099776 112.292352"></polyline>
                    <polyline id="Fill-50" fill="#A3BACD" points="191.955584 110.886528 142.256768 124.210176 141.46496 121.256064 191.163392 107.932032 191.955584 110.886528"></polyline>
                    <polyline id="Fill-51" fill="#A3BACD" points="192.380288 116.224512 142.681472 129.54816 141.889664 126.594048 191.588096 113.2704 192.380288 116.224512"></polyline>
                    <path d="M159.11168,156.94656 L160.66112,162.200832 C160.686848,162.292992 160.654592,162.365184 160.595456,162.402432 C160.525568,162.44736 160.418048,162.442368 160.327808,162.361344 L154.621568,156.70848 L157.021568,154.621056 L159.916544,155.887488 L159.11168,156.94656" id="Fill-53" fill="#E15B73"></path>
                    <path d="M165.89888,150.556032 C165.89888,150.556032 162.678656,154.113408 159.11168,156.94656 L157.021568,154.621056 C157.021568,154.621056 161.163008,151.2288 163.685888,145.407744 L165.89888,150.556032" id="Fill-54" fill="#F7C061"></path>
                    <path d="M164.11328,146.402304 L163.432064,145.972608 C162.308096,148.39872 160.921472,150.372096 159.725696,151.818624 L163.898624,152.633088 C165.117056,151.419264 165.89888,150.556032 165.89888,150.556032 L164.11328,146.402304" id="Fill-55" fill="#E3A443"></path>
                    <path d="M180.862976,143.843328 C180.679808,144.226176 180.298112,155.77536 178.935296,161.476224 L175.49312,161.183232 C175.49312,161.183232 177.378176,145.391232 176.995328,140.843904 L180.862976,143.843328" id="Fill-56" fill="#F7C061"></path>
                    <path d="M179.782784,155.952768 C180.071936,154.002816 180.293888,152.103552 180.41792,150.227712 L176.295296,150.35712 C176.191232,152.52096 176.152448,154.684032 176.003072,156.584064 L179.782784,155.952768" id="Fill-57" fill="#E3A443"></path>
                    <path d="M177.761792,121.324416 L178.836224,124.648704 C178.836224,124.648704 182.756864,145.544448 180.93248,155.283072 L174.769664,154.666752 C174.769664,154.666752 175.067264,140.963328 173.149952,136.259712 C173.149952,136.259712 170.6528,146.074368 165.89888,153.023616 L159.870464,149.516544 C159.870464,149.516544 165.503744,140.963328 165.471488,124.168704 L177.761792,121.324416" id="Fill-58" fill="#362436"></path>
                    <path d="M190.752128,98.631936 L191.193728,95.592192 L190.752128,93.936768 L192.036608,93.286272 C192.036608,93.286272 193.155968,90.62208 194.122496,91.567872 C195.574016,92.989056 193.814528,95.732736 193.053824,97.12896 L190.752128,98.631936" id="Fill-59" fill="#F7C061"></path>
                    <path d="M173.889152,105.941376 C173.889152,105.941376 184.016,105.84192 191.193728,95.592192 L193.053824,97.12896 C193.053824,97.12896 188.612096,106.128 178.73984,110.262144 C178.73984,110.262144 177.718784,121.007232 178.836224,124.648704 C178.836224,124.648704 170.89664,127.527936 165.471488,124.168704 C165.471488,124.168704 166.5344,114.024192 168.884096,109.613184 C171.234176,105.20256 173.889152,105.941376 173.889152,105.941376" id="Fill-60" fill="#E15B73"></path>
                    <path d="M175.450496,97.588608 C175.450496,97.588608 177.07712,99.468288 177.112448,102.235392 L176.635904,102.441984 C176.635904,102.441984 177.51104,105.569664 174.989312,106.609152 C172.4672,107.64864 171.312128,103.663872 171.312128,103.663872 L172.248704,98.376192 L175.450496,97.588608" id="Fill-61" fill="#F7C061"></path>
                    <path d="M175.475072,102.41856 C175.475072,102.41856 176.844032,106.993536 175.2128,109.782528 C173.581952,112.570752 169.616,113.924352 167.590784,111.567744 C165.565568,109.210752 168.896768,107.448192 168.530816,105.330816 C168.16448,103.213056 166.396544,99.548928 167.923712,98.45568 C167.923712,98.45568 167.718272,97.060608 169.491968,95.500032 C171.26528,93.939456 174.569984,95.845632 175.702784,95.067264 C176.8352,94.28928 178.949504,99.750528 175.475072,102.41856" id="Fill-62" fill="#362436"></path>
                    <path d="M171.375104,141.037056 C172.613888,138.179712 173.149952,136.259712 173.149952,136.259712 L171.56096,132.064896 L171.375104,141.037056" id="Fill-63" fill="#251B26"></path>
                    <path d="M178.73984,110.262144 L175.918976,111.188352 L178.424192,114.814848 C178.264832,112.331904 178.73984,110.262144 178.73984,110.262144" id="Fill-64" fill="#D73C5B"></path>
                    <path d="M185.644544,47.019264 C185.644544,47.019264 194.764928,56.767104 204.95168,57.347328 L204.62528,60.173952 C204.62528,60.173952 195.435776,60.816 187.902848,54.55488 L186.798464,56.648832 L168.84416,59.528832 C168.84416,59.528832 174.401792,50.101248 179.794688,47.133696 C185.187968,44.16576 185.644544,47.019264 185.644544,47.019264" id="Fill-65" fill="#E98964"></path>
                    <path d="M180.553472,40.168704 C180.553472,40.168704 178.507904,40.263168 177.396224,42.62592 C176.284928,44.989056 177.310208,48.324864 180.745856,48.66048 C184.182272,48.996096 186.065408,46.113408 186.065408,46.113408 L186.768128,44.893824 C186.768128,44.893824 187.081088,41.544576 185.70176,39.999744 C184.274816,38.401536 181.678208,38.230656 180.553472,40.168704" id="Fill-66" fill="#362436"></path>
                    <path d="M186.710912,43.231488 C186.933248,43.88352 187.528064,46.933632 185.378432,48.981888 C183.801728,50.484096 180.051584,49.530624 179.794688,47.133696 C179.794688,47.133696 177.934592,46.050816 178.170752,45.218688 C178.407296,44.386176 179.073536,44.651904 179.648,44.893824 C179.648,44.893824 180.520832,43.481088 180.865664,42.697728 C181.110272,42.14208 182.114432,41.131008 183.976064,41.180544 C185.22752,41.213952 186.306944,42.046848 186.710912,43.231488" id="Fill-67" fill="#F7C061"></path>
                    <path d="M179.195648,43.272576 L179.648,44.893824 C179.648,44.893824 183.047936,44.037888 183.961088,42.076032 C183.961088,42.076032 184.927616,44.316288 186.798464,43.484928 C186.798464,43.484928 186.557696,41.07264 185.330816,40.75008 C184.103936,40.42752 182.265728,40.653312 182.265728,40.653312 L180.30848,41.379456 L179.195648,43.272576" id="Fill-68" fill="#362436"></path>
                    <path d="M178.457216,52.543104 C178.457216,52.543104 179.92256,65.691264 185.616896,71.29728 L182.56832,72.630528 C182.56832,72.630528 175.429376,65.86752 174.09152,55.13088 C174.025472,54.600576 178.457216,52.543104 178.457216,52.543104" id="Fill-69" fill="#E98964"></path>
                    <polyline id="Fill-70" fill="#D96E4C" points="174.733568 58.599168 174.090752 55.382784 171.92576 59.034624 174.733568 58.599168"></polyline>
                    <path d="M185.616896,71.29728 C185.616896,71.29728 187.903616,71.970432 188.212736,72.84672 C188.52224,73.722624 186.914816,73.20768 186.914816,73.20768 C186.914816,73.20768 188.594432,76.557696 186.934784,77.640192 C185.275136,78.722304 182.548736,72.628224 182.548736,72.628224 L185.616896,71.29728" id="Fill-71" fill="#F7C061"></path>
                    <polyline id="Fill-73" fill="#D6E6EF" points="198.14912 161.526144 205.732352 161.526144 209.725184 167.481984 217.6736 168.633984 221.773952 172.601856 238.389248 162.558336 235.258112 158.028672 227.489408 156.986112 224.347904 152.99328 217.050752 152.259456 198.14912 161.526144"></polyline>
                    <polyline id="Fill-74" fill="#B9CFDF" points="205.732352 161.526144 224.347904 152.99328 227.489408 156.986112 209.725184 167.481984 205.732352 161.526144"></polyline>
                    <polyline id="Fill-75" fill="#B9CFDF" points="217.6736 168.633984 235.258112 158.028672 238.389248 162.558336 221.773952 172.601856 217.6736 168.633984"></polyline>
                </g>
            </g>
        </g>
    </g>
</svg>