<?xml version="1.0" encoding="UTF-8"?>
<svg width="82px" height="59px" viewBox="0 0 82 59" version="1.1" xmlns="http://www.w3.org/2000/svg" xmlns:xlink="http://www.w3.org/1999/xlink">
    <!-- Generator: Sketch 52.2 (67145) - http://www.bohemiancoding.com/sketch -->
    <title>question</title>
    <desc>Created with Sketch.</desc>
    <g id="desktop" stroke="none" stroke-width="1" fill="none" fill-rule="evenodd">
        <g id="sharepoint_opt2" transform="translate(-277.000000, -1107.000000)">
            <g id="Group-17" transform="translate(241.000000, 1079.000000)">
                <g id="Group-44">
                    <g id="Group-9" transform="translate(36.000000, 28.000000)">
                        <g id="Group-15">
                            <g id="question">
                                <path d="M76.4580468,17.927663 L48.0815712,17.927663 C46.8188031,13.5169321 44.3393021,9.49563315 40.8673294,6.37745109 C35.6049435,1.65087772 28.8077349,-0.51913587 21.7261637,0.265980978 C10.3692437,1.5259837 1.28642495,10.7211658 0.12931384,22.1301304 C-0.502549708,28.3581576 1.19547368,34.515481 4.91008967,39.4677935 C8.46997661,44.2134457 14.24977,47.4351984 20,48.6782065 L20.1138558,54.5059723 C20.2135595,55.5914307 21.0383548,55.8691522 21.7261637,55.8689918 L29.8986706,48.6782065 C30.8933801,48.4551929 31.8623548,48.1723777 32.8033567,47.8353723 L32.8033567,48.0037147 C32.8033567,50.9803288 35.2178012,53.4020543 38.1854659,53.4020543 L47.2228889,53.4020543 L52.037232,58.2309158 C52.4678519,58.6628342 53.0392943,58.8916196 53.6222456,58.8916196 C53.911883,58.8916196 54.2042378,58.8350245 54.4836452,58.7191087 C55.3255439,58.3692772 55.8694932,57.5527364 55.8694932,56.6387174 L55.8694932,53.4020543 L76.4582066,53.4020543 C79.4258713,53.4020543 81.8403158,50.9803288 81.8403158,48.0037147 L81.8403158,23.3256821 C81.8401559,20.3493886 79.4257115,17.927663 76.4580468,17.927663 Z M28.3923002,46.3605326 L22.296916,52.25 L22.296916,46.750606 C22.1177308,46.5708804 20.4622768,46.345462 20.2135595,46.2960815 C14.9252788,45.2419375 10.2177115,42.2680489 6.9580117,37.9224103 C3.63245614,33.4887527 2.11265887,27.9727337 2.67882651,22.3903397 C3.17769981,17.4707337 5.39841326,12.7911359 8.93176608,9.21313859 C12.4657583,5.63466033 17.1093879,3.36460326 22.007809,2.82125815 C22.8600975,2.72666576 23.7066316,2.67985054 24.5469318,2.67985054 C29.9645263,2.67985054 35.0780975,4.6284538 39.1574776,8.29238587 C43.8060624,12.4675978 46.4721014,18.4490435 46.4721014,24.7032038 C46.4722612,35.3780353 38.8686394,44.4861603 28.3923002,46.3605326 Z M76.4580468,50.8315462 L54.5880234,50.8315462 C53.8803938,50.8315462 53.3065536,51.4069565 53.3065536,52.1168804 L53.3065536,55.8689918 L48.6597271,51.2081522 C48.4194815,50.9670217 48.0935595,50.8317065 47.753731,50.8317065 L38.1856257,50.8317065 C36.6311423,50.8317065 35.3664561,49.5632065 35.3664561,48.0040353 L35.3664561,46.750606 C43.569653,42.7065408 49.0352008,34.2682582 49.0352008,24.7033641 C49.0352008,23.2841576 48.9103626,21.8780978 48.6707563,20.4983315 L76.4582066,20.4983315 C78.0126901,20.4983315 79.2773762,21.7668315 79.2773762,23.3260027 L79.2773762,48.003875 C79.2772164,49.5630462 78.0125302,50.8315462 76.4580468,50.8315462 Z" id="Shape" fill="#42566C" fill-rule="nonzero"></path>
                                <path d="M75.171875,33 L52.09375,33 C51.4897813,33 51,33.4896719 51,34.09375 C51,34.6978281 51.4897813,35.1875 52.09375,35.1875 L75.171875,35.1875 C75.7759531,35.1875 76.265625,34.6978281 76.265625,34.09375 C76.265625,33.4896719 75.7758438,33 75.171875,33 Z" id="Path" stroke="#42566C" stroke-width="0.7" fill="#42566C"></path>
                                <path d="M75.8669219,41.3204688 C75.6635938,41.1170312 75.3814062,41 75.09375,41 C74.8060938,41 74.5239062,41.1170312 74.3204688,41.3204688 C74.1169219,41.5239063 74,41.8060938 74,42.09375 C74,42.3814062 74.1170312,42.6635937 74.3204688,42.8670312 C74.5239062,43.0704688 74.8060938,43.1875 75.09375,43.1875 C75.3814062,43.1875 75.6635938,43.0704688 75.8669219,42.8670312 C76.0704688,42.6635937 76.1875,42.3825 76.1875,42.09375 C76.1875,41.8060938 76.0703594,41.5239063 75.8669219,41.3204688 Z" id="Path" stroke="#42566C" stroke-width="0.7" fill="#42566C"></path>
                                <path d="M70.8698281,41 L52.09375,41 C51.4897813,41 51,41.4896719 51,42.09375 C51,42.6978281 51.4897813,43.1875 52.09375,43.1875 L70.8698281,43.1875 C71.4739062,43.1875 71.9635781,42.6978281 71.9635781,42.09375 C71.9635781,41.4896719 71.4737969,41 70.8698281,41 Z" id="Path" stroke="#42566C" stroke-width="0.7" fill="#42566C"></path>
                                <path d="M75.0625,26 L59.09375,26 C58.4897813,26 58,26.4896719 58,27.09375 C58,27.6978281 58.4897813,28.1875 59.09375,28.1875 L75.0625,28.1875 C75.6665781,28.1875 76.15625,27.6978281 76.15625,27.09375 C76.15625,26.4896719 75.6664688,26 75.0625,26 Z" id="Path" stroke="#42566C" stroke-width="0.7" fill="#42566C"></path>
                                <path d="M23,14.3268546 C23,13.594053 23.6715729,13 24.5,13 C25.3284271,13 26,13.594053 26,14.3268546 L26,29.6731454 C26,30.405947 25.3284271,31 24.5,31 C23.6715729,31 23,30.405947 23,29.6731454 L23,14.3268546 Z" id="Path-2" stroke="#E83F67" stroke-width="0.6" fill="#E83F67" fill-rule="nonzero"></path>
                                <circle id="Oval" stroke="#E83F67" fill="#E83F67" cx="24.5" cy="35.5" r="1.5"></circle>
                            </g>
                        </g>
                    </g>
                </g>
            </g>
        </g>
    </g>
</svg>