<?xml version="1.0" encoding="UTF-8"?>
<svg width="149px" height="158px" viewBox="0 0 149 158" version="1.1" xmlns="http://www.w3.org/2000/svg" xmlns:xlink="http://www.w3.org/1999/xlink">
    <!-- Generator: Sketch 52.2 (67145) - http://www.bohemiancoding.com/sketch -->
    <title>Artboard</title>
    <desc>Created with Sketch.</desc>
    <g id="Artboard" stroke="none" stroke-width="1" fill="none" fill-rule="evenodd">
        <g id="information" transform="translate(6.000000, 11.000000)">
            <path d="M110.327434,36.9778761 C110.327434,38.6508313 111.685452,40.0088496 113.358407,40.0088496 C115.031362,40.0088496 116.389381,38.6508313 116.389381,36.9778761 C116.389381,35.3049209 115.031362,33.9469027 113.358407,33.9469027 C111.685452,33.9469027 110.327434,35.3049209 110.327434,36.9778761 Z" id="Path" fill="#42566C"></path>
            <path d="M121.75223,68.717854 C121.75223,72.2334421 121.395685,75.7425971 120.693434,79.1477534 C120.38674,80.6326845 121.355587,82.0822346 122.856542,82.3856539 C123.044026,82.4242514 123.230426,82.4424779 123.414659,82.4424779 C124.705371,82.4424779 125.861703,81.5450863 126.130465,80.2456375 C126.907494,76.4791659 127.300885,72.6011905 127.300885,68.717854 C127.300885,60.075233 125.406539,51.7585463 121.668783,43.9983065 C121.00988,42.6302399 119.355037,42.0491334 117.971125,42.7010021 C116.587212,43.3528708 116.000919,44.9911198 116.659821,46.3602584 C120.038866,53.3764243 121.75223,60.8986461 121.75223,68.717854 Z" id="Path" fill="#42566C"></path>
            <path d="M82.1393805,93.1115044 L79.4115044,93.1115044 L79.4115044,58.4371681 C79.4115044,56.9639255 78.1903538,55.7699115 76.6836283,55.7699115 L54.8606195,55.7699115 C53.353894,55.7699115 52.1327434,56.9639255 52.1327434,58.4371681 L52.1327434,69.1061947 C52.1327434,70.5794374 53.353894,71.7734513 54.8606195,71.7734513 L57.5884956,71.7734513 L57.5884956,93.1115044 L54.8606195,93.1115044 C53.353894,93.1115044 52.1327434,94.3055184 52.1327434,95.7787611 L52.1327434,106.447788 C52.1327434,107.92103 53.353894,109.115044 54.8606195,109.115044 L82.1393805,109.115044 C83.646106,109.115044 84.8672566,107.92103 84.8672566,106.447788 L84.8672566,95.7787611 C84.8672566,94.3055184 83.646106,93.1115044 82.1393805,93.1115044 Z M79.4115044,103.780531 L57.5884956,103.780531 L57.5884956,98.4460177 L60.3163717,98.4460177 C61.8230971,98.4460177 63.0442478,97.2520037 63.0442478,95.7787611 L63.0442478,69.1061947 C63.0442478,67.632952 61.8230971,66.4389381 60.3163717,66.4389381 L57.5884956,66.4389381 L57.5884956,61.1044248 L73.9557522,61.1044248 L73.9557522,95.7787611 C73.9557522,97.2520037 75.1779686,98.4460177 76.6836283,98.4460177 L79.4115044,98.4460177 L79.4115044,103.780531 Z" id="Shape" fill="#E83F67" fill-rule="nonzero"></path>
            <path d="M68.5,49.7079646 C74.1820098,49.7079646 78.8053097,45.0846646 78.8053097,39.4026549 C78.8053097,33.7206451 74.1820098,29.0973451 68.5,29.0973451 C62.8179902,29.0973451 58.1946903,33.7206451 58.1946903,39.4026549 C58.1946903,45.0846646 62.8179902,49.7079646 68.5,49.7079646 Z M68.5,34.25 C71.3410049,34.25 73.6526549,36.56165 73.6526549,39.4026549 C73.6526549,42.2436598 71.3410049,44.5553097 68.5,44.5553097 C65.6589951,44.5553097 63.3473451,42.2436598 63.3473451,39.4026549 C63.3473451,36.56165 65.6589951,34.25 68.5,34.25 Z" id="Shape" fill="#E83F67" fill-rule="nonzero"></path>
            <path d="M68.5000583,1.52100554e-14 C31.58058,1.52100554e-14 0.000116685334,31.5209121 0.000116685334,68.5 C0.000116685334,81.1315688 3.61973495,94.5648269 9.72281056,104.725479 L0.137041379,133.47863 C-0.18279796,134.439194 0.0670111596,135.500099 0.78403644,136.21608 C1.5041972,136.936241 2.56614698,137.18187 3.52252871,136.86203 L32.2756554,127.277298 C42.4352536,133.381424 55.8685003,137 68.5000583,137 C105.428944,137 137,105.474907 137,68.5 C137,31.571083 105.475979,0 68.5000583,1.52100554e-14 Z M68.5000583,131.648438 C56.3827515,131.648438 43.5034746,128.072716 34.0473138,122.083565 C33.3773236,121.659203 32.5421881,121.547363 31.7687205,121.805534 L6.90697115,130.09314 L15.1945693,105.231369 C15.4496045,104.468353 15.3471725,103.632172 14.9165393,102.952774 C8.92739326,93.4976501 5.35167463,80.6173171 5.35167463,68.5 C5.35167463,34.2698594 34.2699469,5.3515625 68.5000583,5.3515625 C102.73017,5.3515625 131.648442,34.2698594 131.648442,68.5 C131.648442,102.730141 102.73017,131.648438 68.5000583,131.648438 Z" id="Shape" fill="#42566C" fill-rule="nonzero"></path>
        </g>
    </g>
</svg>