<?xml version="1.0" standalone="no"?>
<!DOCTYPE svg PUBLIC "-//W3C//DTD SVG 1.1//EN" "http://www.w3.org/Graphics/SVG/1.1/DTD/svg11.dtd" >
<svg xmlns="http://www.w3.org/2000/svg">
<metadata>Generated by IcoMoon</metadata>
<defs>
<font id="icomoon" horiz-adv-x="1024">
<font-face units-per-em="1024" ascent="960" descent="-64" />
<missing-glyph horiz-adv-x="1024" />
<glyph unicode="&#x20;" horiz-adv-x="512" d="" />
<glyph unicode="&#xe001;" glyph-name="uniE001" d="M480 896c-265.096 0-480-214.904-480-480s214.904-480 480-480c265.098 0 480 214.902 480 480s-214.902 480-480 480zM751.59 256c8.58 40.454 13.996 83.392 15.758 128h127.446c-3.336-44.196-13.624-87.114-30.68-128h-112.524zM208.41 576c-8.58-40.454-13.996-83.392-15.758-128h-127.444c3.336 44.194 13.622 87.114 30.678 128h112.524zM686.036 576c9.614-40.962 15.398-83.854 17.28-128h-191.316v128h174.036zM512 640v187.338c14.59-4.246 29.044-11.37 43.228-21.37 26.582-18.74 52.012-47.608 73.54-83.486 14.882-24.802 27.752-52.416 38.496-82.484h-155.264zM331.232 722.484c21.528 35.878 46.956 64.748 73.54 83.486 14.182 10 28.638 17.124 43.228 21.37v-187.34h-155.264c10.746 30.066 23.616 57.68 38.496 82.484zM448 576v-128h-191.314c1.88 44.146 7.666 87.038 17.278 128h174.036zM95.888 256c-17.056 40.886-27.342 83.804-30.678 128h127.444c1.762-44.608 7.178-87.546 15.758-128h-112.524zM256.686 384h191.314v-128h-174.036c-9.612 40.96-15.398 83.854-17.278 128zM448 192v-187.34c-14.588 4.246-29.044 11.372-43.228 21.37-26.584 18.74-52.014 47.61-73.54 83.486-14.882 24.804-27.75 52.418-38.498 82.484h155.266zM628.768 109.516c-21.528-35.876-46.958-64.746-73.54-83.486-14.184-9.998-28.638-17.124-43.228-21.37v187.34h155.266c-10.746-30.066-23.616-57.68-38.498-82.484zM512 256v128h191.314c-1.88-44.146-7.666-87.040-17.28-128h-174.034zM767.348 448c-1.762 44.608-7.178 87.546-15.758 128h112.524c17.056-40.886 27.344-83.806 30.68-128h-127.446zM830.658 640h-95.9c-18.638 58.762-44.376 110.294-75.316 151.428 42.536-20.34 81.058-47.616 114.714-81.272 21.48-21.478 40.362-44.938 56.502-70.156zM185.844 710.156c33.658 33.658 72.18 60.932 114.714 81.272-30.942-41.134-56.676-92.666-75.316-151.428h-95.898c16.138 25.218 35.022 48.678 56.5 70.156zM129.344 192h95.898c18.64-58.762 44.376-110.294 75.318-151.43-42.536 20.34-81.058 47.616-114.714 81.274-21.48 21.478-40.364 44.938-56.502 70.156zM774.156 121.844c-33.656-33.658-72.18-60.934-114.714-81.274 30.942 41.134 56.678 92.668 75.316 151.43h95.9c-16.14-25.218-35.022-48.678-56.502-70.156z" />
<glyph unicode="&#xe002;" glyph-name="uniE002" d="M1024 672l-64 96h-448l-64 64h-448v-160zM0 640v-576h1024v576h-1024zM630.288 169.984l-118.288 85.936-118.288-85.936 45.184 139.056-118.288 85.92h146.192l45.2 139.056 45.184-139.040h146.192l-118.288-85.92 45.2-139.072z" />
<glyph unicode="&#xe003;" glyph-name="uniE003" d="M0.8 118.464v495.376h145.872v-229.84h-45.872zM127.2 320h343.072l106.544 128h446.368l-190.368-448h-832.016zM816.816 512v208h-360.672l-119.344-144v-192h48v128h128v160h256v-160h48.016zM472.144 560h-86.080l85.76 111.28 0.32-111.28zM672.816 768v80h-360.672l-119.344-144v-320h48v256h128v160h256v-32h48.016zM328.144 688h-86.080l85.76 111.28 0.32-111.28zM541.536 537.392h198.624v-19.488h-198.624zM423.92 459.664h88.896v-19.488h-88.896zM541.536 615.296h198.624v-19.488h-198.624z" />
<glyph unicode="&#xe004;" glyph-name="uniE004" d="M431.040 819.712l-64.96-293.376c0 0-30.464-121.152 63.232-121.152 0 0 94.144 1.664 64.32 120l-62.592 294.528zM1023.168 616.704h-377.728v-629.376h377.728v629.376zM771.328 586.688h126.016v-32.96h-126.016v32.96zM832.128 37.504c-16.768 0-30.336 13.44-30.336 30.272 0 16.64 13.568 30.336 30.336 30.336s30.336-13.696 30.336-30.336c0-16.832-13.568-30.272-30.336-30.272zM960.256 140.864h-251.904v366.208h251.904v-366.208zM600.832 163.392c-46.72-25.152-99.776-40.448-156.16-42.816-2.624-0.192-0.64 69.952-0.64 69.952l-32.064 0.192c0 0-1.728-44.672-1.408-69.952-76.992 3.904-147.456 31.36-204.416 75.52-11.712 9.216-22.912 19.008-33.472 29.504-3.968 3.904 38.016 41.216 38.016 41.216l-25.728 27.648c0 0-29.184-21.248-44.992-31.552-42.816 56.256-69.184 125.696-72.32 201.472 0 1.92 68.544-0.768 68.544-0.768l0.704 34.048c0 0-39.424-0.448-69.12-1.28 3.392 72.832 33.6 150.528 73.856 205.76 2.048 2.816 40.256-37.376 40.256-37.376l26.944 36.48c0 0-31.744 25.344-37.12 31.872 65.536 66.112 156.608 107.008 257.216 107.008 99.328 0 191.104-40.832 256.192-105.344-11.648-7.68-43.776-37.376-43.776-37.376l24.576-29.824c0 0 45.504 36.416 48.192 33.088 9.344-12.16 17.984-24.896 25.728-38.208h74.24c-67.648 145.344-214.208 246.080-385.472 246.080-236.288 0-427.84-191.552-427.84-427.84 0-236.352 191.552-427.904 427.84-427.904 61.376 0 119.616 13.12 172.16 36.352v74.048z" />
<glyph unicode="&#xe005;" glyph-name="uniE005" d="M691.776 457.472v129.024h-88.448c-6.4 25.536-16.448 49.6-29.632 71.616l62.464 62.528-91.2 91.264-62.528-62.592c-22.016 13.248-46.080 23.296-71.616 29.632v88.512h-129.024v-88.448c-25.536-6.4-49.6-16.448-71.616-29.632l-62.528 62.528-91.264-91.264 62.528-62.528c-13.184-22.016-23.232-46.080-29.568-71.616h-88.448v-129.024h88.384c6.4-25.536 16.384-49.6 29.632-71.616l-62.528-62.528 91.264-91.2 62.528 62.528c22.016-13.184 46.080-23.232 71.616-29.696v-88.384h129.088v88.384c25.536 6.464 49.6 16.512 71.616 29.696l62.528-62.528 91.136 91.2-62.464 62.528c13.184 22.016 23.232 46.080 29.632 71.616h88.448zM346.304 388.736c-73.6 0-133.248 59.712-133.248 133.248 0 73.664 59.648 133.312 133.248 133.312s133.312-59.648 133.312-133.312c0-73.6-59.648-133.248-133.312-133.248zM1023.040 181.888v70.464h-48.32c-3.456 14.016-8.96 27.136-16.128 39.104l34.048 34.112-49.728 49.856-34.176-34.176c-12.032 7.168-25.152 12.672-39.040 16.256v48.192h-70.464v-48.192c-13.952-3.584-27.072-9.088-39.040-16.256l-34.112 34.176-49.792-49.856 34.112-34.112c-7.232-12.032-12.672-25.152-16.192-39.104h-48.256v-70.464h48.256c3.52-13.952 8.96-27.072 16.192-39.040l-34.112-34.112 49.792-49.792 34.112 34.112c12.032-7.168 25.152-12.672 39.040-16.192v-48.256h70.464v48.192c13.952 3.52 27.072 9.024 39.040 16.192l34.176-34.112 49.728 49.792-34.048 34.112c7.168 12.032 12.672 25.152 16.128 39.040h48.32zM834.496 144.384c-40.192 0-72.768 32.64-72.768 72.768 0 40.192 32.576 72.832 72.768 72.832s72.768-32.64 72.768-72.832c0-40.128-32.576-72.768-72.768-72.768z" />
<glyph unicode="&#xe00b;" glyph-name="uniE00B" d="M192 512h384v-64h-384zM192 384h384v-64h-384zM192 256h384v-64h-384zM192 128h384v-64h-384zM1024 768l-192 192h-576v-128h-256v-896h768v128h256v704zM832 853.536l79.776-85.536h-79.776v85.536zM64 0v768h448v-192h192v-576h-640zM576 722.656l89.328-82.656h-89.328v82.656zM768 128v512l-211.232 192h-236.768v64h448v-192h192v-576h-192z" />
<glyph unicode="&#xe00f;" glyph-name="uniE00F" d="M513.312 960.224c-282.912 0-512.224-229.312-512.224-512.24s229.312-512.208 512.224-512.208c282.88 0 509.6 229.28 509.6 512.208s-226.72 512.24-509.6 512.24zM859.808 426.912c0 0 85.216 4.176 85.024 0.336-3.968-91.12-35.904-174.544-87.472-242.064-3.6-4.576-62.944 39.344-62.944 39.344l-24.288-34.656c0 0 55.904-41.264 49.056-48.16-73.904-73.6-174.72-120.416-286.816-125.136-3.056-0.192-0.752 83.792-0.752 83.792l-38.416 0.224c0 0-2.032-53.552-1.744-83.872-92.048 4.688-176.592 37.648-244.672 90.512-14.048 10.96-27.488 22.672-40.048 35.232-4.752 4.72 45.504 49.28 45.504 49.28l-30.784 33.248c0 0-34.832-25.44-53.84-37.792-51.184 67.456-82.752 150.512-86.56 241.248-0.064 2.304 82.032-0.912 82.032-0.912l0.768 40.8c0 0-47.136-0.528-82.704-1.504 4.064 87.12 40.256 180.224 88.336 246.32 2.56 3.424 48.336-44.672 48.336-44.672l32.224 43.552c0 0-37.968 30.48-44.384 38.192 78.496 79.152 187.504 128.064 308.016 128.064 118.832 0 228.736-48.848 306.672-126.112-13.872-9.136-52.464-44.736-52.464-44.736l29.408-35.68c0 0 54.592 43.648 57.664 39.6 52.32-67.408 85.008-150.88 89.68-241.936-17.504-1.152-86.4-1.056-86.4-1.056l1.568-41.456zM512.368 839.248l-77.776-351.28c0 0-36.368-145.136 75.792-145.136 0 0 112.592 2.128 76.992 143.76l-75.008 352.656z" />
<glyph unicode="&#xe01c;" glyph-name="uniE01C" d="M128 128l384 640 384-640z" />
<glyph unicode="&#xe01d;" glyph-name="uniE01D" d="M256-62.4l-95.904 117.856 493.632 391.36-492.432 392.832 94.704 118.752 640-510.4z" />
<glyph unicode="&#xe01e;" glyph-name="uniE01E" d="M0 544v-192c0-17.672 14.328-32 32-32h960c17.672 0 32 14.328 32 32v192c0 17.672-14.328 32-32 32h-960c-17.672 0-32-14.328-32-32z" />
<glyph unicode="&#xe01f;" glyph-name="uniE01F" d="M992 576h-352v352c0 17.672-14.328 32-32 32h-192c-17.672 0-32-14.328-32-32v-352h-352c-17.672 0-32-14.328-32-32v-192c0-17.672 14.328-32 32-32h352v-352c0-17.672 14.328-32 32-32h192c17.672 0 32 14.328 32 32v352h352c17.672 0 32 14.328 32 32v192c0 17.672-14.328 32-32 32z" />
<glyph unicode="&#xe020;" glyph-name="uniE020" d="M209.968 896.128c-41.728-31.248-159.952-200.736 61.264-584.88 233.040-404.864 454.768-388 499.232-360.592l-157.152 265.44c-37.12-21.888-68.4 14.080-126.128 92.24-0.992 0.688-112.688 188.544-113.104 190.928-23.040 50.496-41.696 102.080-2.88 125.040l-161.232 271.824zM866.32 6.592c17.184 10.144 21.184 31.392 11.968 47.152l0.064 0.144c0 0-122.752 206.752-122.784 206.88-9.68 16.368-30.592 21.44-46.944 11.952l-75.152-44.464 157.568-266.096c0 0 75.152 44.32 75.088 44.352l0.192 0.080zM466.96 680.8c17.248 10.24 21.328 31.328 12.048 46.976l0.048 0.208c0 0-126.208 212.736-126.256 212.784-9.712 16.464-30.656 21.552-46.912 12.048l-75.168-44.464 161.056-272c0 0 75.104 44.16 75.2 44.304v0.144z" />
<glyph unicode="&#xe021;" glyph-name="uniE021" d="M0 392c0-4.4 3.6-8 8-8h816c4.4 0 5.456-2.544 2.336-5.648l-201.264-200.32c-3.12-3.088-2.080-5.648 2.336-5.648h112.928c4.4 0 10.544 2.544 13.664 5.664l264.352 264.304c3.104 3.104 3.104 8.208 0 11.312l-264.368 264.288c-3.104 3.104-9.248 5.664-13.664 5.664h-112.928c-4.4 0-5.456-2.544-2.336-5.648l201.248-200.336c3.152-3.088 2.096-5.632-2.304-5.632h-816c-4.4 0-8-3.6-8-8v-112z" />
<glyph unicode="&#xe022;" glyph-name="uniE022" d="M0 960v-1024h1024v1024h-1024zM351.136 176.032l-23.584 28 311.168 262.192-313.008 224.016 21.28 29.728 351.28-251.392-347.136-292.544z" />
<glyph unicode="&#xe023;" glyph-name="uniE023" d="M0 960v-1024h1024v1024h-1024zM325.712 468.576l351.28 251.392 21.28-29.728-312.992-224.016 311.152-262.192-23.584-28-347.136 292.544z" />
<glyph unicode="&#xe024;" glyph-name="uniE024" d="M442.32 768.448l-106.64 127.552c-361.168-116.56-335.28-536.912-335.28-536.912l0.032-0.032v-359.056h447.568v392h-244.944c0 280 239.264 376.448 239.264 376.448zM954.336 768.448l-106.656 127.552c-361.184-116.56-335.296-536.912-335.296-536.912l0.032-0.032v-359.056h447.584v392h-244.944c0 280 239.28 376.448 239.28 376.448z" />
<glyph unicode="&#xe026;" glyph-name="uniE026" d="M832 832l-640-384 640-384z" />
<glyph unicode="&#xe027;" glyph-name="uniE027" d="M192 832l640-384-640-384z" />
<glyph unicode="&#xe029;" glyph-name="uniE029" d="M896 768l-384-640-384 640z" />
<glyph unicode="&#xe02e;" glyph-name="uniE02E" d="M234.656 343.568l174.064-111.904v80.784l-103.632 64 103.632 64v81.344l-174.064-112.512v-65.712zM445.536 192h59.904l87.776 416h-60.304l-87.376-416zM615.28 521.776v-81.344l103.616-64-103.616-63.968v-80.816l174.064 111.904v65.728l-174.064 112.496zM0 896v-896h1024v896h-1024zM448 832h501.248v-64h-501.248v64zM335.68 840c20.624 0 37.328-16.704 37.328-37.344 0-20.624-16.704-37.328-37.328-37.328s-37.344 16.704-37.344 37.328c0 20.64 16.72 37.344 37.344 37.344zM221.344 840c20.624 0 37.344-16.704 37.344-37.344 0-20.624-16.72-37.328-37.344-37.328-20.608 0-37.328 16.704-37.328 37.328 0 20.64 16.72 37.344 37.328 37.344zM109.344 840c20.624 0 37.344-16.704 37.344-37.344 0-20.624-16.72-37.328-37.344-37.328-20.608 0-37.312 16.704-37.312 37.328 0 20.64 16.704 37.344 37.312 37.344zM949.344 74.656h-896v633.904h896v-633.904z" />
<glyph unicode="&#xe030;" glyph-name="uniE030" d="M0 896v-896h1024v896h-1024zM448 832h501.248v-64h-501.248v64zM335.68 840c20.624 0 37.328-16.704 37.328-37.344 0-20.624-16.704-37.328-37.328-37.328s-37.344 16.704-37.344 37.328c0 20.64 16.72 37.344 37.344 37.344zM221.344 840c20.624 0 37.344-16.704 37.344-37.344 0-20.624-16.72-37.328-37.344-37.328-20.608 0-37.328 16.704-37.328 37.328 0 20.64 16.72 37.344 37.328 37.344zM109.344 840c20.624 0 37.344-16.704 37.344-37.344 0-20.624-16.72-37.328-37.344-37.328-20.608 0-37.312 16.704-37.312 37.328 0 20.64 16.704 37.344 37.312 37.344zM949.344 74.656h-896v633.904h896v-633.904zM128 640h384v-320h-384zM576 640h320v-128h-320zM576 448h320v-128h-320zM128 256h768v-128h-768z" />
<glyph unicode="&#xe031;" glyph-name="uniE031" d="M575.808 296.128c35.312 0 64.192-28.88 64.192-64.16v-231.808c0-35.28-28.88-64.16-64.192-64.16h-227.552c-35.28 0-64.144 28.88-64.144 64.16v195.904c0 64.672-16.272 91.664-92.24 91.664h-125.808c-36.336 0-66.064 29.696-66.064 66.064v133.984c0 36.336 29.728 66.064 66.064 66.064h118.256c62.8 0 96.416 16.848 96.416 81.376v82.64c0 27.568 22.544 50.144 50.112 50.144h101.696c27.568 0 50.112-22.576 50.112-50.144v-87.632c0-56.176 30.48-54.24 76.576-54.24h38.672c65.36 0 76.592 15.392 76.592 67.376v117.728c0 39.056 31.872 70.912 70.848 70.912h143.776c38.976 0 70.88-31.856 70.88-70.896v-143.728c0-38.976-31.904-70.88-70.88-70.88h-119.504c-45.008 0-97.248 5.232-97.248-61.856v-51.264c0-27.184-22.224-49.376-49.376-49.376h-100.112c-27.152 0-49.36 22.192-49.36 49.376v56.656c0 42.208-12.016 61.904-63.472 61.904h-46.624c-57.296 0-73.248-33.712-73.248-87.888v-79.664c0-79.52 33.296-88.272 91.744-88.272l193.888 0.016zM812.4 193.472c-24.4 0-44.4-20-44.4-44.4v-110.208c0-24.464 20-44.448 44.4-44.448h167.184c24.4 0 44.4 19.984 44.4 44.448v110.208c0 24.4-20 44.4-44.4 44.4h-167.184zM44.4 896c-24.4 0-44.4-20-44.4-44.4v-110.208c0-24.464 20-44.448 44.4-44.448h167.184c24.4 0 44.4 19.984 44.4 44.448v110.208c0.016 24.4-19.984 44.4-44.384 44.4h-167.2z" />
<glyph unicode="&#xe032;" glyph-name="uniE032" d="M0.35 448l-0.35 312.074 384 52.144v-364.218zM448 821.518l511.872 74.482v-448h-511.872zM959.998 384l-0.126-448-511.872 72.016v375.984zM384 16.164l-383.688 52.594-0.020 315.242h383.708z" />
<glyph unicode="&#xe034;" glyph-name="uniE034" d="M791.498 415.908c-1.294 129.682 105.758 191.876 110.542 194.966-60.152 88.020-153.85 100.078-187.242 101.472-79.742 8.074-155.596-46.948-196.066-46.948-40.368 0-102.818 45.754-168.952 44.552-86.916-1.292-167.058-50.538-211.812-128.38-90.304-156.698-23.126-388.84 64.89-515.926 43.008-62.204 94.292-132.076 161.626-129.58 64.842 2.588 89.362 41.958 167.756 41.958s100.428-41.958 169.050-40.67c69.774 1.296 113.982 63.398 156.692 125.796 49.39 72.168 69.726 142.038 70.924 145.626-1.548 0.706-136.060 52.236-137.408 207.134zM662.562 796.478c35.738 43.358 59.86 103.512 53.28 163.522-51.478-2.096-113.878-34.29-150.81-77.55-33.142-38.376-62.148-99.626-54.374-158.436 57.466-4.484 116.128 29.204 151.904 72.464z" />
<glyph unicode="&#xe035;" glyph-name="uniE035" d="M864 640c-35.2 0-64-28.8-64-64v-256c0-35.2 28.8-64 64-64s64 28.8 64 64v256c0 35.2-28.8 64-64 64zM96 640c-35.2 0-64-28.8-64-64v-256c0-35.2 28.8-64 64-64s64 28.8 64 64v256c0 35.2-28.802 64-64 64zM192 224c0-53.020 42.98-96 96-96h32v-128c0-35.2 28.8-64 64-64s64 28.8 64 64v128h64v-128c0-35.2 28.802-64 64-64s64 28.8 64 64v128h32c53.020 0 96 42.98 96 96v352h-576v-352zM598.598 870.506l40.504 77.806c2.032 3.902 0.5 8.758-3.402 10.79s-8.758 0.5-10.79-3.402l-41.118-78.986c-32.198 12.448-67.194 19.286-103.792 19.286-36.596 0-71.592-6.838-103.796-19.286l-41.116 78.984c-2.032 3.902-6.886 5.434-10.79 3.402s-5.434-6.886-3.402-10.79l40.5-77.808c-90.63-41.018-156.24-127.584-167.62-230.504h572.44c-11.376 102.924-76.986 189.488-167.618 230.508zM352 689.6c-25.626 0-46.4 20.774-46.4 46.4s20.774 46.4 46.4 46.4 46.4-20.774 46.4-46.4c-0.002-25.626-20.774-46.4-46.4-46.4zM608 689.6c-25.626 0-46.402 20.774-46.402 46.4s20.778 46.4 46.402 46.4 46.398-20.774 46.398-46.4c0-25.626-20.772-46.4-46.398-46.4z" />
<glyph unicode="&#xe037;" glyph-name="uniE036" d="M83.968 863.936h133.632c57.52 0 104.128-46.608 104.128-104.112 0-57.488-46.608-104.128-104.128-104.128h-173.584l39.952 208.24zM49.328 552.128h133.632c57.488 0 104.112-46.608 104.112-104.144 0-57.488-46.624-104.112-104.112-104.112h-173.584l39.952 208.256zM430.432 863.936h133.6c57.536 0 104.16-46.608 104.16-104.112 0-57.488-46.624-104.128-104.16-104.128h-173.552l39.952 208.24zM395.76 552.128h133.632c57.536 0 104.144-46.608 104.144-104.144 0-57.488-46.608-104.112-104.144-104.112h-173.552l39.92 208.256zM361.12 240.32h133.648c57.52 0 104.112-46.624 104.112-104.128s-46.592-104.128-104.112-104.128h-173.584l39.936 208.256zM776.88 725.344h133.632c57.52 0 104.128-46.624 104.128-104.144 0-57.504-46.608-104.112-104.128-104.112h-173.568l39.936 208.256zM742.24 413.536h133.648c57.504 0 104.128-46.592 104.128-104.096 0-57.536-46.624-104.16-104.128-104.16h-173.584l39.936 208.256z" />
<glyph unicode="&#xe047;" glyph-name="uniE046" d="M512 959.664c-282.56 0-511.664-229.104-511.664-511.664s229.104-511.664 511.664-511.664 511.664 229.104 511.664 511.664-229.104 511.664-511.664 511.664zM440.176 240.352l-196.896 204.64 60.256 63.28 128.592-133.952 281.312 281.28 67.328-66.96-340.592-348.288z" />
<glyph unicode="&#xe048;" glyph-name="uniE047" d="M64 448c0-247.424 200.576-448 448-448s448 200.576 448 448c0 247.424-200.576 448-448 448s-448-200.576-448-448z" />
<glyph unicode="&#xe049;" glyph-name="uniE048" d="M64 896h896v-896h-896z" />
<glyph unicode="&#xe04a;" glyph-name="uniE049" d="M864 832l-480-480-224 224-160-160 384-384 640 640z" />
<glyph unicode="&#xe058;" glyph-name="uniE058" d="M538.752 480.816v0.912c-0.192-0.272-0.432-0.608-0.608-0.912h0.608zM512 896c-247.44 0-448-200.56-448-448s200.56-448 448-448 448 200.56 448 448-200.56 448-448 448zM390.176 234.72h-95.632v287.792h95.632v-287.792zM342.368 561.808h-0.624c-32.112 0-52.88 22.144-52.88 49.744 0 28.192 21.392 49.712 54.128 49.712 32.72 0 52.848-21.536 53.472-49.712 0-27.6-20.752-49.744-54.096-49.744zM735.12 234.72h-95.664v153.968c0 38.704-13.84 65.12-48.432 65.12-26.416 0-42.176-17.84-49.072-35.008-2.56-6.16-3.2-14.752-3.2-23.376v-160.704h-95.616c0 0 1.232 260.832 0 287.792h95.616v-40.8c12.688 19.632 35.376 47.584 86.24 47.584 62.96 0 110.144-41.168 110.144-129.536v-165.040z" />
<glyph unicode="&#xe059;" glyph-name="uniE059" d="M503.616 384v448c-247.44 0-448-200.576-448-448s200.56-448 448-448 448 200.576 448 448c0 72-17.056 140.096-47.216 200.368l-400.784-200.368zM968.384 712.368c-73.584 146.8-225.376 247.632-400.768 247.632v-448l400.768 200.368z" />
<glyph unicode="&#xe05a;" glyph-name="uniE05A" d="M512.368 222.976c-0.048 0-302.944 0.736-449.344 63.472v-211.328c0 0 24.528-76.432 449.344-76.432v0 0 0 0c424.8 0 449.328 76.432 449.328 76.432v211.312c-146.4-62.736-449.296-63.456-449.328-63.456zM512.368 501.392c-0.048 0-302.944 0.704-449.344 63.456v-211.328c0 0 24.528-76.432 449.344-76.432v0 0 0 0c424.8 0 449.328 76.432 449.328 76.432v211.328c-146.4-62.752-449.296-63.456-449.328-63.456zM511.648 897.328v0c-424.816 0-449.328-76.432-449.328-76.432v-165.904c0 0 24.512-93.392 449.328-93.392v0c424.816 0 449.328 93.392 449.328 93.392v165.904c0 0-24.528 76.432-449.328 76.432z" />
<glyph unicode="&#xe05c;" glyph-name="uniE05C" d="M0 768v-640c0-52.8 43.2-96 96-96h832c52.8 0 96 43.2 96 96v640c0 52.8-43.2 96-96 96h-832c-52.8 0-96-43.2-96-96zM992 448c0-17.664-14.336-32-32-32s-32 14.336-32 32 14.336 32 32 32 32-14.336 32-32zM896 736v-576h-768v576h768zM297.008 232.992c-35.632 0-64.496 28.88-64.496 64.496s28.88 64.496 64.496 64.496c1.904 0 3.776-0.096 5.632-0.256l69.344 115.552c-6.608 10.128-10.464 22.208-10.464 35.2 0 35.632 28.88 64.496 64.496 64.496s64.496-28.88 64.496-64.496c0-13.008-3.856-25.072-10.464-35.2l69.344-115.552c1.84 0.16 3.712 0.256 5.632 0.256 1.44 0 2.848-0.064 4.272-0.16l114.448 200.304c-7.072 10.352-11.216 22.88-11.216 36.352 0 35.632 28.88 64.496 64.496 64.496s64.496-28.88 64.496-64.496-28.88-64.496-64.496-64.496c-1.44 0-2.848 0.064-4.272 0.16l-114.448-200.304c7.056-10.352 11.216-22.88 11.216-36.352 0-35.632-28.88-64.496-64.496-64.496s-64.496 28.88-64.496 64.496c0 13.008 3.856 25.072 10.464 35.2l-69.344 115.552c-1.872-0.144-3.744-0.24-5.648-0.24s-3.776 0.096-5.632 0.256l-69.344-115.552c6.608-10.128 10.464-22.208 10.464-35.2 0.016-35.632-28.864-64.512-64.48-64.512z" />
<glyph unicode="&#xe060;" glyph-name="uniE05F" d="M1024 384.992v128l-152.992 63.744c-4.256 12-8.736 23.616-14.24 35.008l61.76 153.76-90.528 90.496-152.384-62.752c-11.616 5.632-23.488 10.368-35.744 14.752l-64.864 152h-128l-63.264-151.488c-12.736-4.512-24.992-9.248-37.12-15.008l-152.128 61.12-90.496-90.496 62.016-150.752c-6.016-12.384-10.88-24.992-15.52-38.016l-150.496-64.352v-128l150.624-62.752c4.64-12.992 9.632-25.632 15.616-38.016l-60.864-151.744 90.496-90.496 151.136 62.24c12.128-5.76 24.512-10.368 37.248-14.752l64.736-151.488h128l63.36 152.256c12.128 4.512 24.128 9.248 35.616 14.752l153.504-61.504 90.496 90.496-63.008 152.736c5.376 11.488 9.76 23.136 14.016 35.008l153.024 65.248zM511.008 256c-105.984 0-192 86.016-192 192s86.016 192 192 192 192-86.016 192-192-86.016-192-192-192z" />
<glyph unicode="&#xe061;" glyph-name="uniE060" d="M507.36 716.48c0-8.816 3.296-15.824 9.92-20.96 3.664-2.864 9.344-5.488 17.024-7.872v55.296c-9.152-0.208-15.936-2.656-20.336-7.312-4.4-4.688-6.608-11.072-6.608-19.152zM549.6 639.888v-71.712c8.224 1.040 14.192 2.944 17.904 5.664 6.56 4.848 9.84 13.2 9.84 25.072 0 9.024-3.088 26.288-9.184 31.52-3.664 3.056-9.84 6.208-18.56 9.456zM534.336 864.448c-114.624 0-207.52-92.928-207.52-207.504 0-114.608 92.912-207.504 207.52-207.504 114.592 0 207.504 92.896 207.504 207.504 0 114.592-92.896 207.504-207.504 207.504zM587.504 545.936c-11.872-7.328-21.632-11.664-37.904-12.896v-40.352h-26.816v40.032c-20.688 2.32-24.608 6.832-34.8 13.568-17.968 12.048-26.784 15.36-26.48 44.464h42.576c1.472-13.232 3.504-4.832 6.144-9.344 4.096-7.024 12.128-11.616 24.096-13.712v77.408l-12.768 3.76c-20.064 5.888-34.24 14.096-42.448 24.592-8.272 10.496-12.384 23.184-12.384 37.984 0 9.76 1.6 18.656 4.816 26.64 3.184 7.968 7.68 14.864 13.472 20.64 7.472 7.472 15.76 12.624 24.912 15.456 5.568 1.776 3.632 3.088 14.336 3.92v36.848h25.36v-37.136c17.056-1.36 24.656-5.584 34.4-12.608 17.664-11.248 22.496-15.056 23.12-40.288h-31.376c-0.848 9.328-2.368 1.744-4.656 6.064-3.936 7.488-11.12 11.568-21.504 12.336v-60.080c24.912-8.624 37.312-16.224 45.872-22.864 14.128-11.008 21.184-36.672 21.184-56.72 0-26.512-9.68-45.744-29.152-57.712zM5.472 77.664h276.688v-46.112h-276.688v46.112zM328.256 308.24l147.008 92.192h214.704l-131.12-92.192v-276.688h-230.592v276.688zM5.472 169.856h276.688v-46.096h-276.688v46.096zM5.472 262.112h276.688v-46.128h-276.688v46.128zM604.944 77.664h276.688l136.88 93.664v-48.976l-136.88-90.816h-276.688v46.128zM604.944 169.856h276.688l136.88 93.664v-48.992l-136.88-90.784h-276.688v46.112zM604.944 262.112h276.688l136.88 93.664v-49.008l-136.88-90.784h-276.688v46.128zM610.688 308.24h269.472l138.336 93.664h-265.12l-142.688-93.664zM11.264 308.24h265.152l138.32 93.664h-260.816l-142.656-93.664z" />
<glyph unicode="&#xe062;" glyph-name="uniE061" d="M911.184 598.8l-133.056 2.064 0.688-103.248h-532.928v99.104l-133.072 2.080c-36.752 0-66.528-29.776-66.528-66.528v-465.712c0-36.768 29.776-66.56 66.528-66.56h798.368c36.752 0 66.528 29.792 66.528 66.56v465.712c0 36.736-29.776 66.528-66.528 66.528zM312.4 405.44c40.192 0 72.784-42.816 72.784-95.664 0-52.816-32.592-95.632-72.784-95.632s-72.768 42.816-72.768 95.632c0.016 52.848 32.592 95.664 72.768 95.664zM168.256 101.552c0 0 7.92 63.264 25.84 75.184 17.904 11.936 69.536 19.888 69.536 19.888s33.44-35.776 47.664-35.776c14.224 0 47.664 35.776 47.664 35.776s51.632-7.952 69.536-19.888c21.072-14.048 26.336-75.184 26.336-75.184h-286.576zM844.672 133.072h-299.408v33.232h299.408v-33.232zM844.672 199.6h-299.408v33.296h299.408v-33.296zM844.672 266.144h-299.408v33.264h299.408v-33.264zM844.672 332.656h-299.408v33.28h299.408v-33.28zM711.616 632.080h-99.808c0 0 1.136 40.048 1.136 98.256 0 54.064-44.8 103.424-100.944 103.424-56.128 0-99.376-46.976-99.376-103.072 0-54.080-0.4-98.592-0.4-98.592h-99.808c-18.368 0-33.248-14.912-33.248-33.264 0-18.384 0-64.464 0-64.464h465.712c0 0 0 46.080 0 64.464 0 18.336-14.912 33.248-33.264 33.248zM512 667.424c-18.352 0-33.248 14.88-33.248 33.248s14.896 33.248 33.248 33.248c18.368 0 33.264-14.88 33.264-33.248s-14.896-33.248-33.264-33.248z" />
<glyph unicode="&#xe063;" glyph-name="uniE062" d="M553.296 592.384c-6.656 19.968 1.376 42.912 17.28 58.816l81.28 81.28c22.432 22.464 58.848 22.464 81.28 0l60.96-60.96c22.448-22.448 22.448-58.848 0-81.28l-81.264-81.28c-15.104-15.104-39.936-23.456-59.152-18.208l-62.784-63.072c44.896-44.912 117.664-44.912 162.56 0l126.72 121.92c44.896 44.88 44.896 117.664 0 162.56l-106.384 104.016c-44.896 44.864-117.664 44.864-162.56 0l-121.936-124.336c-44.896-44.896-44.896-117.664 0-162.56l64 63.104zM365.232 404.336c-20 6.64-42.912-1.376-58.816-17.28l-81.312-81.296c-22.432-22.432-22.432-58.848 0-81.248l60.976-60.992c22.464-22.448 58.848-22.448 81.28 0l81.28 81.296c15.12 15.088 23.44 39.888 18.224 59.136l67.872 65.152c44.896-44.864 44.896-117.664 0-162.544l-126.736-126.72c-44.912-44.896-117.68-44.896-162.56 0l-101.632 103.984c-44.88 44.912-44.88 117.68 0 162.56l121.936 121.936c44.896 44.896 117.664 44.896 162.56 0l-63.072-63.984zM639.888 580.080c16.848-16.832 18.64-44.128 1.808-60.96l-203.232-203.2c-16.832-16.848-53.104-16.848-69.936 0-16.848 16.832-16.848 44.128 0 60.976l210.384 203.184c16.864 16.848 44.144 16.848 60.976 0z" />
<glyph unicode="&#xe064;" glyph-name="uniE063" d="M512 832c-247.424 0-448-200.576-448-448s200.576-448 448-448 448 200.576 448 448-200.576 448-448 448zM512 24c-198.824 0-360 161.178-360 360 0 198.824 161.176 360 360 360 198.822 0 360-161.176 360-360 0-198.822-161.178-360-360-360zM934.784 672.826c16.042 28.052 25.216 60.542 25.216 95.174 0 106.040-85.96 192-192 192-61.818 0-116.802-29.222-151.92-74.596 131.884-27.236 245.206-105.198 318.704-212.578zM407.92 885.404c-35.116 45.374-90.102 74.596-151.92 74.596-106.040 0-192-85.96-192-192 0-34.632 9.174-67.122 25.216-95.174 73.5 107.38 186.822 185.342 318.704 212.578zM448 640h64v-320h-64v320zM512 384h192v-64h-192v64z" />
<glyph unicode="&#xe604;" glyph-name="uniE6032" d="M738.912 652.288l-22.624 22.624-204.288-204.288-204.288 204.288-22.624-22.624 204.288-204.288-204.288-204.288 22.624-22.624 204.288 204.288 204.288-204.288 22.624 22.624-204.288 204.288z" />
<glyph unicode="&#xe605;" glyph-name="uniE604" d="M512 264c-6.144 0-12.288 2.336-16.976 7.024l-320 320c-9.376 9.36-9.376 24.576 0 33.936 9.376 9.376 24.56 9.376 33.936 0l303.040-303.024 303.024 303.024c9.376 9.376 24.56 9.376 33.936 0 9.376-9.36 9.376-24.576 0-33.936l-320-320c-4.688-4.672-10.816-7.024-16.96-7.024z" />
<glyph unicode="&#xe606;" glyph-name="uniE605" d="M377.008-42.928l-58.88 158.32-154.384-68.144 142.88 319.376 23.856-62.56h100.48l74.272-51.68-128.224-295.312zM342.208 172.448l37.84-101.744 72.384 166.688-34.8 24.208h-111.488l-58.56-130.912 94.624 41.76zM647.056-42.928l-127.696 294.080 73.568 52.896h100.784l24.192 62.176 142.368-318.96-154.32 68.112-58.896-158.304zM571.936 236.672l72.080-165.968 37.84 101.744 94.688-41.808-58.448 130.944h-111.488l-34.672-24.912zM512.032 277.568l-85.168 61.888h-106.080l-32.608 120.256-83.696 79.968 31.872 95.952-33.008 96.816 86.272 54.208 32.464 90.672h104.816l85.136 61.6 85.136-61.6h104.832l32.064-89.6 86.688-44-33.232-107.776 32.064-103.872-83.856-71.776-32.4-120.848h-106.128l-85.168-61.888zM353.28 381.92h87.392l71.36-51.856 71.36 51.856h87.36l27.376 102.080 72.672 62.208-27.696 89.744 26.544 86.112-69.84 35.456-27.696 77.36h-88.656l-71.392 51.648-71.424-51.664h-88.64l-27.344-76.352-70.256-44.144 26.784-78.544-27.92-84 72.816-69.568 27.2-100.336zM651.088 438.624l-139.12 101.808-139.088-100.688 55.52 140.192-143.744 85.056h177.040l50.336 141.024 50.336-141.024h177.2l-143.936-84.976 55.456-141.392zM512.096 592.96l46.048-33.696-15.28 38.944 41.232 24.336h-51.68l-20.384 57.152-20.384-57.152h-51.84l41.424-24.512-15.216-38.432 46.080 33.36z" />
<glyph unicode="&#xe607;" glyph-name="uniE606" horiz-adv-x="1846" d="M0 345.676h1453.976l-409.549-409.676h289.653l512.063 512.063-512.19 511.937h-289.526l409.676-409.549h-1454.103v-204.775z" />
<glyph unicode="&#xe60e;" glyph-name="uniE60D" d="M960 512h-448v448h-64v-448h-448v-64h448v-448h64v448h448z" />
<glyph unicode="&#xe60f;" glyph-name="uniE60E" d="M0 512h960v-64h-960v64z" />
<glyph unicode="&#xe610;" glyph-name="uniE60F" d="M526.224 919.856c-162.72 0-312.368-83.248-398.576-219.344l-101.728 29.712 68.912-282.224 209.984 200.768-95.68 27.936c72.944 101.168 190.224 162.224 317.088 162.224 215.552 0 390.928-175.376 390.928-390.944 0-215.552-175.376-390.928-390.928-390.928-98.448 0-192.528 36.72-264.896 103.424-16.384 15.168-42.016 14.144-57.168-2.32-15.152-16.432-14.128-42.016 2.32-57.168 87.328-80.528 200.896-124.88 319.744-124.88 260.176 0.032 471.856 211.696 471.856 471.888s-211.68 471.856-471.856 471.856z" />
<glyph unicode="&#xe611;" glyph-name="uniE610" d="M365.376 367.408l66.624-117.68 68.224-13.424-86.656 165.488c0 0-48.24-34.24-48.192-34.384zM512 895.344c-247.056 0-447.344-200.304-447.344-447.344s200.288-447.344 447.344-447.344c247.040 0 447.344 200.304 447.344 447.344s-200.304 447.344-447.344 447.344zM305.152 704c5.12 24.336 29.008 39.92 53.344 34.8 24.368-5.152 39.84-29.008 34.864-53.392-5.232-24.256-29.12-39.84-53.376-34.784-24.336 5.12-39.92 29.088-34.832 53.376zM709.12 380.496c-6.976-33.040-39.504-54.176-72.496-47.168-33.008 6.912-54.224 39.392-47.28 72.464 7.008 33.088 39.44 54.288 72.512 47.216 33.088-6.912 54.256-39.312 47.264-72.512zM757.472 629.408l-258.8-188.368c-12.32-8.96-27.504-10.016-39.232-4.368-1.424-2.352-7.664-5.856-7.664-5.856l77.6-134.736c1.888 1.712 166.16 81.952 145.12-50.016l-32.112-197.024c-41.072-13.424-84.832-20.912-130.384-20.912-13.152 0-26.128 0.816-38.96 1.984l31.472 149.28-97.088 19.040c-11.088 2.192-19.392 10.816-21.648 21.152l-57.104 120.288-11.76-7.152c-8.976-6.544-20.224-7.984-26.096 0.128-5.824 7.952-3.248 19.92 5.872 26.432 0 0 142.576 101.648 145.568 102.224-1.216 12.592 4.336 26.16 16.272 34.768l258.768 188.48c17.12 12.304 40.016 10.096 51.088-5.168 11.056-15.2 6.208-37.696-10.912-50.176z" />
<glyph unicode="&#xe614;" glyph-name="uniE60322" d="M844.096 242.784c14.608-6.432 73.776-30.576 91.488-5.504l11.776 16.752c23.792 33.696-33.376 84.496-34.512 85.504 6.208 17.088 10.336 35.040 12.112 53.536 16.192 7.248 71.792 34.56 66.72 64.096l-2.432 14.096c-6.72 39.040-77.232 38.288-84.224 38.128-7.872 16.848-17.68 32.4-29.232 46.432 7.744 15.28 33.728 71.888 4.416 92.624l-15.2 11.36c-25.040 17.664-73.664-24.864-85.664-35.968-17.28 6.256-35.408 10.288-54.112 12.032-5.664 16.336-28.352 73.76-63.648 67.68l-14.096-2.464c-30.24-5.184-37.056-69.584-38.288-85.6-16.736-7.936-32.208-17.824-46.176-29.36-13.952 7.008-72.368 34-93.44 4.112l-11.584-13.728c-18.736-26.432 29.504-79.36 37.088-87.456-5.968-16.752-9.776-34.4-11.536-52.448-13.712-4.688-75.504-27.664-69.2-64.272l2.416-14.096c5.488-32 76.672-37.648 87.168-38.368 7.744-16.288 17.328-31.424 28.528-45.168-4.864-11.456-30.896-76.624-4.832-95.088l14.688-8.448c34.048-24.064 86.528 34.128 86.528 34.128l-3.344 2.544c17.744-6.768 36.448-11.328 55.792-13.344 4.448-10.336 33.392-74.576 65.168-69.104l14.144 2.4c41.072 7.072 38.032 85.456 38.032 85.456l-3.792-0.528c17.92 7.952 34.448 18 49.248 30.064zM597.232 395.632c-9.968 57.952 28.528 114.912 86.48 124.896 57.904 9.92 117.36-30.176 127.328-88.064 9.968-57.904-32.768-115.12-90.624-125.088-57.968-9.968-113.216 30.384-123.184 88.256zM611.328 764.256l18.224 3.168c16.336 2.816 30.56-5.008 42.464-17.088v145.664c0 4 0 7.744-0.016 11.264v52.736h-640v-1024h640.016v140.816c-8.816 15.2-14.928 28.816-16.976 33.584-24.976 2.576-49.12 8.464-72.032 17.2l4.336-3.28c0 0-67.728-75.088-111.664-44.048l-18.976 10.912c-23.712 16.816-14 63.488-4.032 94.8h-356.656v595.712h512v-18.464c1.088 0.352 2.16 0.816 3.312 1.024zM335.664 116.224c27.088 0 49.184-22.048 49.184-49.264 0-27.168-22.096-49.248-49.184-49.248-27.28 0-49.408 22.080-49.408 49.248 0.016 27.216 22.128 49.264 49.408 49.264zM480.016 832h-256v64h256v-64z" />
<glyph unicode="&#xe615;" glyph-name="uniE6042" d="M512 933.6l168.288-305.184 342.32-65.792-238.288-254.368 43.248-345.84-315.568 148.016-315.568-148.032 43.248 345.84-238.272 254.368 342.304 65.792 168.288 305.2z" />
<glyph unicode="&#xe618;" glyph-name="uniE6072" d="M783.552-36.752c34.256 34.032 34.4 89.44 0.384 123.712l-358.56 361.056 358.56 361.056c34.016 34.304 33.856 89.696-0.384 123.696-34.304 34.016-89.68 33.824-123.696-0.368l-419.76-422.8c-33.92-34.032-33.92-89.136 0-123.328l419.744-422.608c17.104-17.312 39.584-25.84 62.048-25.84 22.288-0.016 44.56 8.512 61.664 25.424z" />
<glyph unicode="&#xe619;" glyph-name="uniE6082" d="M302.096-62.192c22.464 0 44.944 8.528 62.048 25.84l419.76 422.624c33.92 34.192 33.92 89.28 0 123.328l-419.76 422.816c-34.016 34.208-89.408 34.384-123.696 0.368-34.256-34-34.4-89.408-0.384-123.696l358.576-361.056-358.592-361.056c-34.016-34.288-33.856-89.68 0.384-123.712 17.104-16.928 39.392-25.456 61.664-25.456z" />
<glyph unicode="&#xe61a;" glyph-name="uniE6092" d="M0.336 959.84v-1023.68h1023.344v1023.68h-1023.344zM512 112.128l-324.992 357.376h196v314.384h258v-314.368h196l-325.008-357.392z" />
<glyph unicode="&#xe61c;" glyph-name="uniE60B2" d="M0 957.312v-253.328h128v112.72h752v-737.44h-752v112.72h-128v-253.296h1024v1018.624zM768 448.32l-320 247.696v-184.352h-448v-127.68h448v-178.704z" />
<glyph unicode="&#xe61d;" glyph-name="uniE60C2" d="M345.392 816l0.608 144h-71.424l-0.048-144h-34.528v-880h560v880h-454.608zM416 0h-112v96h112v-96zM416 160h-112v96h112v-96zM416 320h-112v96h112v-96zM576 0h-112v96h112v-96zM576 160h-112v96h112v-96zM576 320h-112v96h112v-96zM736 0h-112v96h112v-96zM736 160h-112v96h112v-96zM736 320h-112v96h112v-96zM736 496h-432v224h432v-224z" />
<glyph unicode="&#xe61e;" glyph-name="uniE61C" d="M236.976 28.048l-22.448 12.976c-24.8 14.352-33.264 46.080-18.928 70.88l103.888 179.6c12.032 20.816 36.176 29.184 58.336 23.152l56.8 98.176c-42.048 33.424-74.304 79.904-89.232 135.792-36.96 138.384 45.264 280.528 183.648 317.488s280.528-45.264 317.488-183.648c36.96-138.384-45.264-280.528-183.648-317.488-64.416-17.2-129.52-8.32-184.576 19.776l-55.568-96.048c16.272-16.208 21.056-41.296 9.008-62.112l-103.888-179.6c-14.352-24.816-46.080-33.296-70.88-18.944zM627.056 428.4c103.792 27.712 165.456 134.32 137.744 238.112s-134.32 165.456-238.112 137.744c-103.792-27.712-165.456-134.32-137.744-238.112 9.056-33.888 26.512-63.296 49.536-86.56 47.504-47.968 118.672-69.856 188.576-51.184z" />
<glyph unicode="&#xe622;" glyph-name="uniE611" d="M0 960h448v-448h-448v448zM576 960h448v-448h-448v448zM0 384h448v-448h-448v448zM576 384h448v-448h-448v448z" />
<glyph unicode="&#xe623;" glyph-name="uniE612" d="M601.152 800.096c0-67.76-54.928-122.688-122.688-122.688s-122.688 54.928-122.688 122.688c0 67.76 54.928 122.688 122.688 122.688s122.688-54.928 122.688-122.688zM913.792 495.888c-2.064 24.384-25.568 242.016-284.832 251.872-21.696-62.256-80.88-107.008-150.496-107.008-53.888 0-101.456 26.784-130.272 67.68-45.296-8.992-191.312-52.080-161.568-232.608 0 0 225.6 300.336 524.464-21.152 0 0-4.208 140.992-35.264 222.784 0 0 173.44-4.24 197.424-193.152 0 0 3.024-14.304 22.048-13.264-0.016 0 20.592 0 18.496 24.848zM976.384 228.16c0-67.75-54.922-122.672-122.672-122.672s-122.672 54.922-122.672 122.672c0 67.75 54.922 122.672 122.672 122.672s122.672-54.922 122.672-122.672zM374.976-1.68c22.256-10.144 223.36-96.608 359.232 124.48-43.568 49.44-53.472 122.928-19.264 183.616 26.448 46.896 73.104 75.216 122.928 80.256 14.416 43.84 48.56 192.24-123.328 254.992 0 0 150.896-344.016-275.952-446.544 0 0 124.88-65.552 211.36-78.672 0 0-88.88-148.992-265.168-77.104 0 0-13.904 4.368-22.352-12.72 0 0-10.112-18 12.544-28.304zM292.96 188.288c0-67.75-54.922-122.672-122.672-122.672s-122.672 54.922-122.672 122.672c0 67.75 54.922 122.672 122.672 122.672s122.672-54.922 122.672-122.672zM215.712 717.424c-20.080-13.968-196.704-143.232-75.408-372.656 64.704 12.416 133.056-16.448 167.92-76.736 26.96-46.624 27.6-101.184 6.64-146.592 30.416-34.72 140.848-139.536 282.288-23.472 0 0-372.96 44.96-244.288 464.656 0 0-119.968-74.256-175.216-142.048 0 0-83.136 152.256 68.368 267.568 0 0 10.848 9.728 0.432 25.712 0.016 0-10.336 17.84-30.736 3.568z" />
<glyph unicode="&#xe624;" glyph-name="uniE613" d="M657.072 650.672v181.328h-290.144v-181.328h-217.6l362.672-362.672 362.672 362.672zM896 288v-128h-768v128h-128v-256h1024v256z" />
<glyph unicode="&#xe625;" glyph-name="uniE614" d="M831.696 256v224h-288v160h192v320h-447.392v-320h192v-160h-288.608v-224h-191.392v-320h447.392v320h-192.592v160h513.2v-160h-192v-320h447.392v320z" />
<glyph unicode="&#xe626;" glyph-name="uniE615" d="M893.584 105.92l-130.752 187.76c62.272 67.616 100.336 157.856 100.336 257.008 0 209.616-169.952 379.552-379.552 379.552s-379.552-169.92-379.552-379.552c0-209.616 169.952-379.552 379.552-379.552 51.712 0 100.976 10.384 145.904 29.104l155.648-213.536c32.896-29.968 83.84-27.536 113.792 5.36 29.936 32.976 27.488 83.936-5.376 113.856zM179.984 550.704c0 167.696 135.952 303.632 303.632 303.632s303.648-135.936 303.648-303.632c0-167.696-135.952-303.632-303.648-303.632-167.664 0-303.632 135.936-303.632 303.632z" />
<glyph unicode="&#xe627;" glyph-name="uniE616" d="M160 960v-1024h704v1024h-704zM384 896h256v-64h-256v64zM520.128 5.552c-20.624 0-37.344 16.656-37.344 37.216s16.72 37.232 37.344 37.232c20.48 0 37.184-16.672 37.184-37.232 0.016-20.56-16.688-37.216-37.184-37.216zM224 128v640h576v-640h-576z" />
<glyph unicode="&#xe628;" glyph-name="uniE617" d="M627.712 389.824c-140.464 90.272-99.424 155.344-99.424 155.344s190.176 610.88-198.816 335.872c0 0-460.304-312.8-190.16-751.536 0 0 221.792-313.312 522.96-125.968 0 0 266.512 192.784-34.56 386.288zM279.2 576.72c48.512 0 87.84-38.192 87.84-85.328s-39.328-85.328-87.84-85.328-87.84 38.192-87.84 85.328 39.312 85.328 87.84 85.328zM296.752 150.064c-48.512 0-87.84 38.192-87.84 85.328 0 47.12 39.328 85.328 87.84 85.328 48.528 0 87.84-38.208 87.84-85.328 0-47.136-39.312-85.328-87.84-85.328zM331.888 713.248c0 47.136 39.328 85.344 87.84 85.344s87.84-38.208 87.84-85.344c0-47.12-39.328-85.328-87.84-85.328s-87.84 38.208-87.84 85.328zM542.72 47.664c-48.512 0-87.84 38.208-87.84 85.328 0 47.136 39.328 85.328 87.84 85.328s87.84-38.192 87.84-85.328c0-47.136-39.328-85.328-87.84-85.328zM865.12 222.192c-8.624 68.032-45.184 227.76-84.080 344.32l91.072 20.672c9.008-94.768 47.344-293.552 66-348 37.008-108 38.512-264.96 19.68-268.336-10.928-2.688-74.672 109.344-92.672 251.344zM770.416 595.008l0.272-0.176c-205.568 143.36-23.568 305.36-23.568 305.36s-15.984-46.912 79.024-109.552c92.112-60.72 38.016-168.096 34.976-174.448l-90.576-21.536-0.128 0.352z" />
<glyph unicode="&#xe629;" glyph-name="uniE618" d="M170.672 41.76v-63.104h426.672v341.344h-512v514.432h768v-170.672h85.328v253.568h-938.672c0 2.896 0-765.568 0-765.568l342.608-0.96v-108.144l-171.936-0.896zM640 618.656v-637.568h384v637.568h-384zM768 576h131.552v-42.672h-131.552v42.672zM835.184 30.752c-16.576 0-30.016 13.392-30.016 29.92 0 16.544 13.456 29.936 30.016 29.936 16.464 0 29.904-13.392 29.904-29.936-0.016-16.528-13.44-29.92-29.904-29.92zM704 128v366.976h257.776v-366.976h-257.776z" />
<glyph unicode="&#xe62a;" glyph-name="uniE619" d="M830.848 446.688c84.224-90.832 121.888-180.144 89.216-237.376-32.64-57.136-127.76-68.896-247.36-40.944-35.808-119.6-93.728-197.76-159.36-197.76-65.696 0-123.616 78.368-159.328 198.368-120.88-28.768-217.2-17.248-250.080 40.336-32.72 57.232 4.992 146.72 89.152 237.552-85.776 91.648-124.384 182.096-91.376 239.84 33.056 57.872 130.224 69.264 251.968 39.856 35.776 120.24 93.856 198.848 159.664 198.848 65.696 0 123.68-78.288 159.36-198.24 120.64 28.608 216.736 16.976 249.584-40.464 33.008-57.776-5.6-148.336-91.44-240.016zM135.776 666.784c-25.232-44.208 9.6-116.672 83.312-193.248 30.080 29.312 64.688 58.416 103.264 86.384 4.688 46.496 11.856 90.56 21.664 130.656-103.056 26.544-182.864 20.576-208.24-23.792zM318.176 508.208c-26.416-20.176-50.544-40.56-72.128-60.912 21.872-20.512 45.552-41.104 72.304-61.312-1.104 20.384-1.888 40.928-1.888 62.016 0 20.416 0.704 40.432 1.712 60.208zM322.352 334.464c-38.64 27.824-73.136 56.896-103.328 86.080-72.432-75.904-106.064-147.504-81.056-191.328 25.264-44.128 104.208-50.304 206.352-24.32-9.808 39.92-17.312 83.28-21.968 129.568zM662.064 307.216c-16.336-10.72-33.088-21.296-50.528-31.472-17.648-10.336-35.344-19.776-52.992-28.88 30.256-12.832 59.808-24.016 87.824-32.608 6.528 28.768 11.68 60.176 15.696 92.96zM513.344 10.384c50.192 0 94.88 65.536 123.712 167.312-39.856 11.456-81.904 27.36-124.752 46.8-42.176-19.168-83.344-34.576-122.56-46.016 28.8-101.984 73.344-168.096 123.6-168.096zM380.672 215.232c27.296 8.496 55.76 18.944 85.072 31.504-17.728 9.024-35.472 18.64-53.296 29.008-16.448 9.6-32.336 19.568-47.872 29.68 4-32.144 9.696-61.92 16.096-90.192zM364.64 589.136c16.24 10.576 32.784 21.056 50.032 31.104 17.008 9.968 34.032 19.072 50.944 27.824-29.408 12.608-58.224 23.616-85.568 32.208-6.384-28.272-11.376-59.072-15.408-91.136zM513.344 885.616c-50.4 0-95.216-66.128-124.048-168.656 39.152-11.52 80.384-27.328 122.4-46.464 43.088 19.712 85.168 35.44 125.2 47.104-28.816 101.968-73.28 168.016-123.552 168.016zM646.016 680.944c-28.192-8.752-57.68-19.648-88-32.688 17.040-8.8 34.128-17.984 51.28-28.032 18.464-10.752 36.080-21.936 53.328-33.28-4.064 33.584-9.936 64.576-16.608 94zM667.648 536c-24.56 17.12-50.608 33.824-78 49.824-26.32 15.328-52.352 28.736-78.16 41.2-25.472-12.368-51.28-26.176-77.152-41.2-26.144-15.296-51.136-31.168-74.688-47.408-2.256-29.232-3.808-59.216-3.808-90.416 0-31.472 1.28-62.16 3.536-91.744 23.008-15.84 47.296-31.232 72.736-46.080 27.056-15.76 53.84-29.52 80.352-42.288 26.208 12.672 52.72 26.752 79.408 42.288 26.32 15.392 51.456 31.44 75.2 47.776 2.224 29.184 3.776 58.992 3.776 90.048 0 30.16-1.104 59.568-3.2 88zM885.968 229.216c24.992 43.76-8.928 115.248-81.168 190.96-29.408-28.4-63.104-56.576-100.432-83.728-4.72-47.056-12.064-91.744-22-132.304 100.848-25.136 178.608-18.656 203.6 25.072zM708.48 388.192c25.376 19.312 48.512 38.88 69.376 58.384-20.992 19.84-43.632 39.76-69.232 59.424 0.944-19.056 1.616-38.32 1.616-58 0-20.288-0.672-40.224-1.76-59.808zM888.192 666.784c-25.136 44.032-103.904 50.24-205.776 24.432 10.080-41.008 17.76-85.808 22.4-133.648 37.36-27.328 70.848-55.792 100.16-84.368 73.92 76.784 108.544 149.312 83.216 193.584zM519.312 337.792c-62.016 0-112.352 50.832-112.352 113.504 0 62.736 50.336 113.504 112.352 113.504 62.096 0 112.384-50.768 112.384-113.504 0-62.656-50.288-113.504-112.384-113.504z" />
<glyph unicode="&#xe62b;" glyph-name="uniE61A" d="M512 880c238.208 0 432-193.792 432-432s-193.792-432-432-432-432 193.792-432 432 193.792 432 432 432zM512 960c-282.752 0-512-229.216-512-512 0-282.768 229.248-512 512-512s512 229.232 512 512c0 282.784-229.248 512-512 512v0zM455.344 558.912c0-31.29-25.366-56.656-56.656-56.656s-56.656 25.366-56.656 56.656c0 31.29 25.366 56.656 56.656 56.656s56.656-25.366 56.656-56.656zM681.968 558.912c0-31.29-25.366-56.656-56.656-56.656s-56.656 25.366-56.656 56.656c0 31.29 25.366 56.656 56.656 56.656s56.656-25.366 56.656-56.656zM512 158c-137.712 0-257.872 93.024-292.192 226.256-3.312 12.832 4.416 25.92 17.248 29.216 12.8 3.424 25.936-4.4 29.232-17.248 28.864-112 129.904-190.224 245.712-190.224 115.856 0 216.896 78.256 245.76 190.288 3.296 12.848 16.448 20.656 29.216 17.248 12.832-3.296 20.56-16.368 17.248-29.216-34.304-133.264-154.48-226.32-292.224-226.32z" />
<glyph unicode="&#xe62c;" glyph-name="uniE61B" d="M0 960c0 2.944 0-832 0-832h384v-128h-128v-64h512v60.128h-128v131.872h384v832h-1024zM896 256h-768v576h768v-576z" />
<glyph unicode="&#xe62e;" glyph-name="uniE61D" d="M842.704-32h-661.408l1.088 860.768 215.44-0.24v-53.872l-162.672 0.128 1.376-752.048h550.944v751.92h-147.824v53.232h203.056v-859.888zM397.824 510.16h361.136v-26.8h-361.136v26.8zM397.824 416h361.136v-25.68h-361.136v25.68zM397.824 317.040h361.136v-29.040h-361.136v29.040zM758.96 96h-361.136v27.92h361.136v-27.92zM397.824 224h361.136v-27.92h-361.136v27.92zM302.944 510.16h34.432v-30.16h-34.432v30.16zM302.944 415.504h34.432v-30.16h-34.432v30.16zM302.944 318.8h34.432v-30.16h-34.432v30.16zM330.64 97.76h-27.984v26.8h27.984v-26.8zM303.776 224h33.6v-30.16h-33.6v30.16zM700.096 736c16.688 0 30.224-13.504 30.224-30.16s0-58.448 0-58.448h-423.184c0 0 0 41.776 0 58.448 0 16.656 13.536 30.16 30.224 30.16h90.672c0 0 0.368 49.504 0.368 98.528 0.016 50.896 39.328 93.472 90.336 93.472s91.696-44.752 91.696-93.776c0-52.784-1.024-98.224-1.024-98.224h90.688zM518.736 837.504c-16.688 0-30.224-13.504-30.224-30.16s13.536-30.16 30.224-30.16c16.688 0 30.224 13.504 30.224 30.16s-13.536 30.16-30.224 30.16z" />
<glyph unicode="&#xe62f;" glyph-name="uniE61E" d="M775.056 319.088v155.248h-236.976v100.752h183.776v320h-419.728v-320h183.792v-100.752h-236.976v-155.248h-183.792v-318.16h419.728v318.16h-183.76v102.592h421.776v-102.592h-183.792v-318.16h419.728v318.16h-183.776zM353.728 843.488h316.544v-216.816h-316.544v216.816zM433.296 52.512h-316.544v214.976h316.544v-214.976zM907.248 52.512h-316.544v214.976h316.544v-214.976z" />
<glyph unicode="&#xe630;" glyph-name="uniE61F" d="M164.88 137.136v205.152l94.944 79.344c17.12-29.312 48.896-48.992 85.28-48.992 28.304 0 51.744 9.856 69.744 28.928l92.736-135.856c0-54.784 42.368-94.064 97.168-94.064s99.216 44.432 99.216 99.216c0 24.016-7.744 46.048-21.056 63.216l163.2 202.144c3.76-0.432 7.568-0.656 11.44-0.656 54.368 0 98.448 44.080 98.448 98.448 0 54.384-44.080 98.448-98.448 98.448s-98.448-44.064-98.448-98.448c0-15.328 9.76-42.784 9.76-42.784l-160-221.12c0 0-54.464 2.528-74.048-26.336l-91.008 129.664c0 54.512-44.192 96.64-98.704 96.64-59.936 0-80.304-33.552-93.52-72.512l-85.696-69.712-0.848 462.208h-97.072v-779.728c0 0-1.024-104.416 97.936-104.416l790.128 1.216v99.056h-756.096c0 0.016-35.056-4.112-35.056 30.944z" />
<glyph unicode="&#xe631;" glyph-name="uniE620" d="M820.080 805.968c-194.688-9.424-310.88 84.784-310.88 84.784-116.192-84.784-304.592-84.784-304.592-84.784-109.888-606.048 307.744-800.72 307.744-800.72 436.48 270.048 307.728 800.72 307.728 800.72zM512.288 73.072c0 0-353.648 164.864-260.576 678.048 0 0 159.536 0 257.92 71.792 0 0 98.384-79.76 263.248-71.792 0 0 109.008-449.36-260.592-678.048zM512.256 121.216c0 0-308.24 143.68-227.12 591.008 0 0 139.056 0 224.816 62.576 0 0 85.76-69.536 229.456-62.576-0.016-0.016 95.008-391.696-227.152-591.008z" />
<glyph unicode="&#xe632;" glyph-name="uniE621" d="M463.552 206.88c-130.080 18.608-228.176 131.904-228.176 263.52 0 146.784 119.424 266.224 266.192 266.224 146.8 0 266.224-119.44 266.224-266.224h-69.92c0 108.24-88.064 196.288-196.288 196.288s-196.272-88.064-196.272-196.288c0-97.072 72.288-180.592 168.16-194.272l-9.92-69.248zM501.568 20.768c-247.92 0-449.6 201.712-449.6 449.632s201.68 449.6 449.6 449.6 449.616-201.68 449.616-449.6h-69.92c0 209.376-170.32 379.68-379.696 379.68-209.344 0-379.68-170.304-379.68-379.68s170.32-379.712 379.68-379.712c8.624 0 17.136 0.304 25.584 0.848l4.4-69.792c-9.904-0.608-19.888-0.976-29.984-0.976zM501.568 470.4l147.52-494.4 127.6 159.488 143.536-155.52 47.824 51.856-135.552 159.488 139.536 115.6z" />
<glyph unicode="&#xe633;" glyph-name="uniE622" d="M412.832 272h-122.592l-12.208 32-112.352-251.152 140.736 62.128 54.688-146.976 113.376 261.104zM733.76 272h-122.592l-61.168-43.984 112.896-260.016 54.688 146.976 140.736-62.128-112.096 251.152zM832.080 684.736l-88.464 64.912-33.792 114.352h-109.344l-88.48 64-88.464-64h-109.344l-33.792-114.416-88.464-65.6 33.792-104.096-33.792-104.208 88.464-64.688 33.792-104.832h109.344l88.464-64.272 88.464 64.272h109.344l33.792 104.912 88.464 65.184-33.792 104.16 33.808 104.32zM616.656 420.288l-104.656 76.576-104.656-75.76 39.968 120.96-104.64 81.936h129.36l39.968 112 39.968-112h129.36l-104.656-81.792 39.984-121.92z" />
<glyph unicode="&#xe635;" glyph-name="uniE624" d="M366.048 857.936c78.080-17.264 118.336-7.76 120.32-7.232 5.92 1.488 9.52 7.504 8.032 13.424-1.472 5.92-7.52 9.472-13.424 8.032-0.512-0.144-54.064-12.88-160.976 21.12l-26 8.256 12.912-24.048c0.24-0.432 23.648-44.832 51.424-163.264 1.2-5.104 5.744-8.544 10.768-8.544 0.832 0 1.68 0.096 2.528 0.288 5.952 1.392 9.648 7.344 8.256 13.296-14.128 60.288-27.104 101.696-36.752 128.432 80.416-63.776 392.848-328.096 362.672-561.472-14.544-112.448-107.488-203.424-276.256-270.4-5.68-2.256-8.464-8.688-6.208-14.368 1.728-4.336 5.888-6.976 10.288-6.976 1.36 0 2.736 0.256 4.080 0.784 176.832 70.176 274.416 167.12 290.048 288.16 30.96 239.744-266.208 498.24-361.712 574.512z" />
<glyph unicode="&#xe636;" glyph-name="uniE625" d="M306.32 637.808c0 113.184 92.080 194.192 205.68 194.192s205.696-81.008 205.696-194.192c0-113.168-92.096-205.808-205.696-205.808s-205.68 92.64-205.68 205.808zM162.336 612.208c0-85.712 104.32-266.384 104.32-266.384l245.344-409.824 231.248 409.824c0 0 118.432 181.952 118.432 266.384-0.016 192.368-156.56 347.792-349.68 347.792s-349.664-155.424-349.664-347.792z" />
<glyph unicode="&#xe638;" glyph-name="uniE627" d="M896 544h-288v288h-192v-288h-288v-192h288v-288h192v288h288z" />
<glyph unicode="&#xe63a;" glyph-name="uniE629" d="M128 704h768v-192h-768v192zM128 384h768v-192h-768v192z" />
<glyph unicode="&#xe63c;" glyph-name="uniE62B" d="M663.104 480.624c0-32.192-26.096-58.288-58.288-58.288s-58.288 26.096-58.288 58.288c0 32.192 26.096 58.288 58.288 58.288s58.288-26.096 58.288-58.288zM552.464 847.904c-96.208 3.488-176.096-40.704-218.816-73.12-34.96-26.512-3.664-52.992 8.88-61.792-15.904-37.232-49.552-70.384-67.216-105.488-3.904-7.744-2.768-21.888 2.080-33.456-13.952-27.504-55.184-41.536-77.104-58.544-4.928-3.84-18.256-17.92-18.752-25.104-1.92-28.208 63.552-36.88 25.008-73.152 1.168-13.472 7.664-21.616 14.592-29.296-15.104-5.824-18.608-28.112-6.256-39.728-1.024-14.288-24.624-20.784-27.088-39.696-2.944-22.672 22.448-50.592 43.776-56.48 37.632-10.368 85.184-1.408 106.272-31.344 11.136-15.808 9.296-39.584 12.512-62.736 6.992-50.576 20.096-109.424 20.096-109.424l343.024-0.656c0 0-50.336 122.672-48.448 185.344 39.76 0.080 162.112 93.312 177.104 315.728 4.672 69.072-32.32 289.616-289.664 298.944zM716.64 446.576c-0.336-2.368-2.592-3.968-4.88-3.68l-18.080 2.512c-4.208-10.464-10.176-20-17.776-28.4l10.544-13.984c0.688-0.928 1.008-2.064 0.864-3.216-0.176-1.136-0.768-2.176-1.68-2.848l-25.856-19.504c-1.888-1.424-4.608-1.056-6.064 0.848l-11.024 14.608c-10.352-4.48-21.28-7.088-32.592-7.744l-2.432-17.168c-0.288-2.176-2.144-3.728-4.256-3.728-0.224 0-0.432 0.016-0.624 0.048l-32.032 4.464c-2.368 0.32-4.032 2.496-3.68 4.864l2.432 17.664c-10.512 4.064-20.416 10.112-29.024 17.664l-13.312-10.032c-1.888-1.424-4.592-1.072-6.032 0.848l-19.504 25.808c-1.472 1.92-1.056 4.624 0.816 6.048l13.616 10.304c-4.768 10.64-7.536 21.92-8.256 33.616l-15.664 2.176c-2.336 0.32-4 2.496-3.664 4.864l4.432 32.032c0.144 1.152 0.768 2.176 1.648 2.848 0.944 0.688 2.048 0.992 3.2 0.832l16.208-2.24c4.192 10.976 10.368 20.992 18.4 29.872l-9.248 12.256c-0.688 0.912-0.992 2.064-0.832 3.2 0.144 1.136 0.736 2.16 1.648 2.864l25.824 19.504c1.92 1.408 4.624 1.056 6.048-0.848l9.776-12.912c10.752 4.704 22.224 7.328 34.192 7.824l2.112 15.376c0.16 1.136 0.768 2.16 1.68 2.848 0.912 0.704 2 1.008 3.2 0.848l32.048-4.464c1.136-0.16 2.16-0.768 2.848-1.68s1.008-2.064 0.832-3.2l-2.304-16.592c10.832-4.368 20.624-10.592 29.232-18.496l12.928 9.792c0.912 0.688 2.064 1.008 3.2 0.832 1.136-0.16 2.16-0.752 2.848-1.664l19.536-25.84c0.688-0.912 0.992-2.064 0.832-3.216-0.144-1.12-0.752-2.16-1.664-2.848l-14.048-10.576c4.432-10.448 6.912-21.536 7.424-33.104l16.912-2.368c2.368-0.32 4-2.512 3.68-4.864l-4.432-32.048zM692.112 714.704c-21.232 0-38.448-17.216-38.448-38.448s17.216-38.448 38.448-38.448c21.232 0 38.448 17.216 38.448 38.448s-17.216 38.448-38.448 38.448zM765.872 653.792c-0.224-1.568-1.712-2.624-3.216-2.432l-11.936 1.664c-2.768-6.912-6.704-13.184-11.728-18.72l6.944-9.216c0.448-0.608 0.656-1.36 0.576-2.112-0.112-0.752-0.512-1.44-1.104-1.888l-17.056-12.864c-1.248-0.928-3.040-0.704-4 0.56l-7.264 9.632c-6.816-2.96-14.032-4.672-21.504-5.104l-1.6-11.328c-0.192-1.44-1.408-2.464-2.8-2.464-0.144 0-0.288 0.016-0.416 0.032l-21.12 2.944c-1.568 0.208-2.656 1.648-2.432 3.216l1.6 11.648c-6.928 2.688-13.472 6.672-19.136 11.648l-8.784-6.624c-1.248-0.944-3.040-0.704-3.984 0.56l-12.864 17.024c-0.96 1.264-0.704 3.056 0.544 4l8.992 6.8c-3.136 7.008-4.976 14.464-5.44 22.176l-10.32 1.44c-1.536 0.208-2.64 1.648-2.416 3.216l2.928 21.136c0.096 0.752 0.512 1.44 1.088 1.888 0.624 0.448 1.36 0.656 2.112 0.544l10.688-1.472c2.768 7.232 6.832 13.84 12.128 19.696l-6.112 8.080c-0.448 0.608-0.656 1.36-0.544 2.112 0.096 0.752 0.496 1.424 1.088 1.888l17.040 12.864c1.264 0.928 3.056 0.688 4-0.56l6.448-8.512c7.088 3.104 14.656 4.832 22.56 5.168l1.392 10.144c0.112 0.752 0.512 1.424 1.104 1.888 0.608 0.464 1.312 0.656 2.112 0.56l21.136-2.944c0.752-0.112 1.424-0.512 1.888-1.104 0.448-0.608 0.672-1.36 0.544-2.112l-1.52-10.944c7.136-2.88 13.6-6.976 19.28-12.192l8.528 6.464c0.608 0.448 1.36 0.656 2.112 0.544 0.752-0.096 1.424-0.496 1.888-1.104l12.896-17.040c0.448-0.608 0.656-1.36 0.544-2.112-0.096-0.736-0.496-1.424-1.104-1.888l-9.264-6.976c2.912-6.88 4.56-14.208 4.896-21.84l11.152-1.568c1.568-0.208 2.64-1.664 2.432-3.216l-2.976-21.2z" />
<glyph unicode="&#xe63d;" glyph-name="uniE63C" d="M23.872 236.752c0 22.624 8.256 45.248 24.688 62.448l404.464 422.48c32.656 34.080 85.312 34.080 117.968 0l404.448-422.48c32.768-34.24 32.96-89.968 0.48-124.48-32.608-34.48-85.6-34.688-118.368-0.432l-345.536 360.896-345.488-360.88c-32.784-34.256-85.808-34.064-118.336 0.432-16.224 17.168-24.32 39.6-24.32 62.016z" />
<glyph unicode="&#xe63e;" glyph-name="uniE63D" d="M48.192 721.264c32.528 34.48 85.552 34.688 118.336 0.432l345.488-360.896 345.52 360.896c32.768 34.256 85.76 34.064 118.368-0.432 32.496-34.512 32.288-90.24-0.48-124.48l-404.448-422.48c-32.656-34.080-85.312-34.080-117.968 0l-404.464 422.48c-16.432 17.2-24.688 39.824-24.688 62.448 0.016 22.432 8.112 44.864 24.336 62.032z" />
<glyph unicode="&#xe63f;" glyph-name="uniE62C" d="M680.96 356.096c-9.28-20.352-13.696-29.568-25.536-47.616-16.576-25.344-39.936-56.704-68.928-56.96-25.728-0.32-32.32 16.704-67.264 16.512-34.88-0.192-42.24-16.896-67.968-16.64-28.992 0.32-51.136 28.672-67.712 53.888-46.464 70.72-51.328 153.472-22.72 197.504 20.352 31.36 52.416 49.664 82.56 49.664 30.72 0 49.984-16.832 75.392-16.832 24.64 0 39.68 16.896 75.136 16.896 26.816 0 55.232-14.656 75.52-39.872-66.368-36.416-55.616-131.136 11.52-156.544zM566.976 580.672c12.928 16.576 22.72 39.936 19.136 63.872-20.992-1.536-45.696-14.912-60.096-32.384-12.992-15.872-23.808-39.36-19.648-62.272 22.976-0.64 46.848 13.056 60.608 30.784zM912.896 960h-801.728v-1024h801.728v1024zM512-35.008c-9.984 0-18.112 8.064-18.112 18.048s8.128 18.176 18.112 18.176 18.112-8.128 18.112-18.112-8.128-18.112-18.112-18.112zM828.416 27.264h-632.832v841.472h632.832v-841.472z" />
<glyph unicode="&#xe640;" glyph-name="uniE62D" d="M592.512 219.136c-30.656 0-56.768-19.456-66.688-46.656l-25.28 16.704v167.872h-418.048v-417.984h418.048v167.872l25.28 16.768c9.984-27.264 36.032-46.72 66.688-46.72 39.232 0 71.104 31.872 71.104 71.104s-31.872 71.040-71.104 71.040zM773.632 355.008l-16.64 25.28c27.136 9.984 46.656 36.032 46.656 66.688 0 39.232-31.872 71.040-71.104 71.040-39.104 0-70.976-31.808-70.976-71.040 0-30.656 19.52-56.768 46.656-66.688l-16.768-25.28h-167.936v-140.032c17.472 18.048 41.92 29.248 68.992 29.248 53.12 0 96.128-43.072 96.128-96.128 0-53.12-43.008-96.192-96.128-96.192-27.072 0-51.52 11.264-68.992 29.248v-144.192h417.984v418.048h-167.872zM523.52 628.096l-25.28-16.704c-9.984 27.264-36.032 46.656-66.688 46.656-39.232 0-71.040-31.808-71.040-71.040s31.808-71.040 71.040-71.040c30.656 0 56.768 19.456 66.688 46.656l25.28-16.704v-167.936h140.032c-18.048 17.472-29.312 41.92-29.312 68.992 0 53.12 43.136 96.128 96.256 96.128s96.128-43.008 96.128-96.128c0-27.072-11.264-51.52-29.248-68.992h144.128v418.048h-417.984v-167.936zM250.432 796.032l16.704 25.28c-27.264 9.984-46.656 36.032-46.656 66.688 0 39.232 31.808 71.040 70.976 71.040 39.296 0 71.104-31.808 71.104-71.040 0-30.656-19.456-56.704-46.656-66.688l16.704-25.28h167.936v-140.032c-17.472 17.984-41.92 29.248-68.992 29.248-53.12 0-96.128-43.072-96.128-96.128s43.008-96.128 96.128-96.128c27.072 0 51.52 11.2 68.992 29.248v-144.192h-418.048v417.984h167.936z" />
<glyph unicode="&#xe641;" glyph-name="uniE62E" d="M378.368 872.384l-19.584-48.384 153.216 89.856-172.288 43.136 33.92-42.88c-205.76-60.864-348.16-249.792-348.16-466.112 0-134.208 53.44-259.2 150.592-351.936l28.544 29.952c-88.896 84.8-137.856 199.168-137.856 321.984 0 195.52 127.104 366.528 311.616 424.384zM998.464 448c0 132.096-52.032 255.744-146.624 348.032l-28.8-29.568c86.592-84.48 134.144-197.632 134.144-318.528 0-195.52-126.976-366.592-311.488-424.384l19.584 48.384-153.28-89.792 172.224-43.072-33.792 42.816c205.76 60.864 348.032 249.792 348.032 466.112zM582.208 72v96.32c27.84 6.976 54.016 17.856 77.952 32.384l68.032-68.096 99.264 99.264-68.032 68.032c14.464 23.936 25.344 50.112 32.32 77.952h96.256v140.416h-96.32c-6.976 27.776-17.856 53.888-32.32 77.888l68.032 68.032-99.2 99.328-68.032-68.032c-24 14.336-50.176 25.28-77.952 32.256v96.192h-140.48v-96.192c-27.776-6.976-53.888-17.92-77.888-32.32l-68.032 68.096-99.328-99.392 68.096-68.032c-14.4-23.936-25.344-50.048-32.32-77.824h-96.192v-140.416h96.192c6.912-27.84 17.856-54.016 32.256-77.952l-68.032-68.096 99.328-99.264 68.032 68.096c24-14.528 50.112-25.344 77.888-32.384v-96.32h140.48zM366.912 448c0 80.128 64.896 145.088 145.024 145.088 80.064 0 145.088-64.96 145.088-145.088 0-80.064-65.024-145.088-145.088-145.088s-145.024 65.024-145.024 145.088z" />
<glyph unicode="&#xe642;" glyph-name="uniE62F" d="M390.848 503.808c-10.432 0-18.88-8.576-18.88-19.2v-82.24c0-10.56 8.448-19.2 18.88-19.2s18.88 8.64 18.88 19.2v82.24c0 10.56-8.384 19.2-18.88 19.2zM511.168 500.672h-91.84l0.32-129.664c0-18.56 18.112-18.688 18.112-18.688h16.576v-46.592c0-17.536 20.288-17.216 20.288-17.216 18.944 0 18.688 18.112 18.688 18.112v44.736h39.040v-44.672c0 0-0.192-18.112 18.688-18.112 0 0 20.352-0.384 20.352 17.216v46.528h16.512c0 0 18.112 0.128 18.112 18.688l0.32 129.664h-95.168zM633.152 503.808c-10.432 0-18.816-8.576-18.816-19.2v-82.24c0-10.56 8.384-19.2 18.816-19.2s18.944 8.64 18.944 19.2v82.24c-0.064 10.56-8.512 19.2-18.944 19.2zM513.984 508.096h91.776c-4.16 38.144-23.936 58.24-44.288 68.8l14.080 26.24c0 0 1.408 2.496-0.96 3.968-0.448-0.128-2.048 1.408-3.648-1.024l-14.976-26.56c-18.944 8.448-37.184 9.216-42.56 9.216h-1.024c-5.376 0-23.616-0.832-42.56-9.216l-14.976 26.56c-1.536 2.432-3.2 0.896-3.648 0.96-2.368-1.472-0.896-3.904-0.896-3.904l14.080-26.24c-20.416-10.56-40.192-30.656-44.288-68.8h93.888zM467.136 538.432c-4.096 0-7.488 3.392-7.488 7.488 0 4.16 3.392 7.488 7.488 7.488s7.552-3.328 7.552-7.488c0-4.096-3.392-7.488-7.552-7.488zM558.656 553.408c4.096 0 7.488-3.328 7.488-7.488 0-4.096-3.392-7.488-7.488-7.488-4.16 0-7.552 3.392-7.552 7.488 0.064 4.16 3.456 7.488 7.552 7.488zM1025.536 832h-1027.008v-768h1027.072v768zM512 811.904c10.112 0 18.368-8.192 18.368-18.368 0-10.112-8.192-18.368-18.368-18.368s-18.368 8.256-18.368 18.368c0 10.176 8.256 18.368 18.368 18.368zM938.112 144.896h-852.16v606.208h852.16v-606.208z" />
<glyph unicode="&#xe643;" glyph-name="uniE630" d="M246.144 714.816v-66.56h531.776v66.56h-132.864v242.56l-265.984 0.32v-242.88h-132.928zM511.168 871.936c26.304 0 47.68-21.376 47.68-47.744 0-26.432-21.376-47.808-47.68-47.808-26.432 0-47.744 21.376-47.744 47.808 0 26.304 21.312 47.744 47.744 47.744zM905.664 868.864h-210.88v-99.712h182.848v-731.072h-731.2v731.072h182.784v99.712h-282.56v-930.56h930.688v930.56zM777.856 560.704v-72.576l-340.096-351.296-191.616 200.32 54.336 69.504 129.088-135.808z" />
<glyph unicode="&#xe644;" glyph-name="uniE631" d="M1008 768l-192 192h-544v-128h-256v-896h768v128h224v704zM816 853.504l79.808-85.504h-79.808v85.504zM80 0v768h448v-192h192v-576h-640zM592 722.688l89.344-82.688h-89.344v82.688zM784 127.936v512.064l-211.2 192h-236.8v64h416v-192h192v-576h-160zM400 528c-121.536 0-220.032-98.496-220.032-220.032s98.496-220.032 220.032-220.032c121.472 0 220.032 98.496 220.032 220.032s-98.56 220.032-220.032 220.032zM400.768 282.624l-141.056 127.872 24.576 27.072 114.944-104.128 67.712 69.376 26.176-25.472-92.352-94.72z" />
<glyph unicode="&#xe645;" glyph-name="uniE632" d="M546.464 896v-413.536h413.536v413.536h-413.536zM877.824 785.44l-159.376-164.672-89.824 93.872 25.488 32.56 60.496-63.632 163.216 135.84v-33.968zM64 896v-413.536h413.536v413.536h-413.536zM382.768 612.24l-30.16-35.008-80.080 85.104-82.176-85.104-31.584 35.008 87.104 80.416-87.104 76.016 28.24 32.56 85.68-76.032 85.2 76.032 24.896-25.296-85.68-83.28 85.664-80.416zM64 413.536v-413.536h413.536v413.536h-413.536zM395.36 272.112l-159.36-164.672-89.824 93.872 25.488 32.56 60.496-63.632 163.216 135.84v-33.968zM546.464 413.536v-413.536h413.536v413.536h-413.536zM877.824 272.112l-159.376-164.672-89.824 93.872 25.488 32.56 60.496-63.632 163.216 135.84v-33.968z" />
<glyph unicode="&#xe646;" glyph-name="uniE633" d="M512 960c-282.8 0-512-229.2-512-512s229.2-512 512-512 512 229.2 512 512-229.2 512-512 512zM726.528 432.304c-4.272-4.272-9.904-6.48-15.696-6.48-5.632 0-11.264 2.224-15.696 6.48l-161.12 161.104v-344.4c0-12.112-9.904-22.016-22.016-22.016s-22.016 9.904-22.016 22.016v344.576l-161.104-161.12c-4.272-4.272-9.904-6.48-15.696-6.48-5.632 0-11.264 2.224-15.696 6.48-8.704 8.704-8.704 22.704 0 31.232l198.832 198.832c0.512 0.512 1.024 1.024 1.536 1.536 0.336 0.176 0.688 0.512 0.848 0.688 0.336 0.176 0.512 0.336 0.848 0.688 0.336 0.176 0.688 0.512 1.024 0.688s0.512 0.336 0.848 0.512c0.336 0.176 0.688 0.336 1.024 0.512s0.512 0.336 0.848 0.336c0.336 0.176 0.688 0.176 1.024 0.336 0.336 0.176 0.688 0.336 1.024 0.336 0.336 0.176 0.688 0.176 0.848 0.176 0.336 0.176 0.848 0.176 1.2 0.336 0.336 0 0.688 0.176 1.024 0.176s0.848 0.176 1.2 0.176c0.336 0 0.848 0 1.2 0 0.336 0 0.688 0 0.848 0 0.336 0 0.688 0 1.024 0s0.688 0 1.024 0c0.512 0 0.848-0.176 1.36-0.176 0.336 0 0.512 0 0.848-0.176 0.512-0.176 0.848-0.176 1.36-0.336 0.336 0 0.512-0.176 0.848-0.176 0.336-0.176 0.848-0.336 1.2-0.336 0.336-0.176 0.512-0.176 0.848-0.336 0.336-0.176 0.688-0.336 1.024-0.512s0.688-0.336 0.848-0.512c0.336-0.176 0.688-0.336 1.024-0.512s0.688-0.336 0.848-0.512c0.336-0.176 0.688-0.512 1.024-0.688 0.176-0.176 0.512-0.336 0.688-0.512 0.512-0.512 1.024-1.024 1.712-1.536l198.832-198.832c9.056-8.88 9.056-22.864 0.352-31.568z" />
<glyph unicode="&#xe64c;" glyph-name="uniE639" d="M398.464 576.32v-256.64l227.072 128.32zM0 777.136v-658.288h1024v658.288h-1024zM995.376 147.472h-966.752v601.056h966.752v-601.056z" />
<glyph unicode="&#xe64d;" glyph-name="uniE63A" d="M538.016 700.688v45.568h36.832v36.768h-125.696v-36.768h36.832v-45.568c-150.24-13.232-268.496-139.584-268.496-293.216 0-162.384 132.112-294.496 294.512-294.496s294.512 132.112 294.512 294.496c0 153.632-118.256 279.984-268.496 293.216zM512 164.752c-133.84 0-242.736 108.88-242.736 242.72s108.896 242.752 242.736 242.752 242.736-108.912 242.736-242.736-108.896-242.736-242.736-242.736zM514.8 590.704h-25.904v-207.152h155.36v25.904h-129.456z" />
<glyph unicode="&#xe64e;" glyph-name="uniE63B" d="M572.976 465.616l315.6 171.040-315.6 171.040v-153.888h-438.592v-68.608h438.592zM889.616 276.496h-439.632v153.888l-315.6-171.040 315.6-171.040v119.584h439.632z" />
<glyph unicode="&#xe900;" glyph-name="down_arrow" d="M512-64c282.77 0 512 229.23 512 512s-229.23 512-512 512c-282.77 0-512-229.23-512-512s229.23-512 512-512zM512 21.333c-235.641 0-426.667 191.025-426.667 426.667s191.025 426.667 426.667 426.667c235.641 0 426.667-191.025 426.667-426.667s-191.025-426.667-426.667-426.667zM545.826 286.727l3.96 3.618 206.223 213.333c16.378 16.942 15.92 43.953-1.022 60.331-15.639 15.118-39.857 15.891-56.372 2.595l-3.959-3.617-176.598-182.657-189.721 183.663c-15.631 15.127-39.849 15.913-56.371 2.626l-3.961-3.615c-15.126-15.631-15.913-39.849-2.626-56.371l3.615-3.961 220.443-213.333c15.637-15.132 39.866-15.913 56.388-2.612z" />
<glyph unicode="&#xe901;" glyph-name="up_arrow" d="M512 960c282.77 0 512-229.23 512-512s-229.23-512-512-512c-282.77 0-512 229.23-512 512s229.23 512 512 512zM512 874.667c-235.641 0-426.667-191.025-426.667-426.667s191.025-426.667 426.667-426.667c235.641 0 426.667 191.025 426.667 426.667s-191.025 426.667-426.667 426.667zM545.826 609.273l3.96-3.618 206.223-213.333c16.378-16.942 15.92-43.953-1.022-60.331-15.639-15.118-39.857-15.891-56.372-2.595l-3.959 3.617-176.598 182.657-189.721-183.663c-15.631-15.127-39.849-15.913-56.371-2.626l-3.961 3.615c-15.126 15.631-15.913 39.849-2.626 56.371l3.615 3.961 220.443 213.333c15.637 15.132 39.866 15.913 56.388 2.612z" />
<glyph unicode="&#xe902;" glyph-name="smart-watch" horiz-adv-x="724" d="M724.293 533.333v34.133c0 28.277-22.109 51.2-49.384 51.2v68.267c-0.054 47.104-36.873 85.278-82.306 85.333h-16.461v170.667c0 9.425-7.37 17.067-16.461 17.067h-395.069c-9.091 0-16.461-7.642-16.461-17.067v-170.667h-16.461c-45.433-0.055-82.252-38.229-82.306-85.333v-68.267c-27.274 0-49.384-22.923-49.384-51.2v-34.133c0-28.277 22.109-51.2 49.384-51.2v-68.267c-27.274 0-49.384-22.923-49.384-51.2v-34.133c0-28.277 22.109-51.2 49.384-51.2v-68.267c0.053-47.104 36.873-85.278 82.306-85.333h16.461v-170.667c0-9.425 7.371-17.067 16.461-17.067h395.069c9.091 0 16.461 7.642 16.461 17.067v170.667h16.461c45.433 0.055 82.252 38.229 82.306 85.333v68.267c27.274 0 49.384 22.923 49.384 51.2v34.133c0 28.277-22.109 51.2-49.384 51.2v68.267c27.274 0 49.384 22.923 49.384 51.2zM691.37 567.467v-34.133c0-9.425-7.371-17.067-16.461-17.067v68.267c9.091 0 16.461-7.642 16.461-17.067zM206.049 900.891h312.195v-128.624h-312.195v128.624zM32.922 533.333v34.133c0 9.425 7.371 17.067 16.461 17.067v-68.267c-9.091 0-16.461 7.642-16.461 17.067zM32.922 328.533v34.133c0 9.425 7.371 17.067 16.461 17.067v-68.267c-9.091 0-16.461 7.642-16.461 17.067zM518.244-4.891h-312.195v128.624h312.195v-128.624zM691.37 362.667v-34.133c0-9.425-7.371-17.067-16.461-17.067v68.267c9.091 0 16.461-7.642 16.461-17.067zM455.317 638.123c30.589 0.122 59.937-12.525 81.434-35.089 44.906-46.639 44.906-122.167 0-168.806l-162.966-168.96c-6.428-6.662-16.848-6.662-23.276 0l-162.966 168.96c-44.939 46.643-44.939 122.214 0 168.858 0.041 0.043 0.082 0.085 0.123 0.128 45.034 46.62 117.992 46.562 162.958-0.128l11.523-11.947 11.523 11.947c21.568 22.581 50.997 35.209 81.648 35.038z" />
<glyph unicode="&#xe903;" glyph-name="brochure" d="M919.82 875.398c-7.805 2.758-16.375-1.336-19.133-9.148s1.336-16.383 9.148-19.141l84.164-29.719v-728.344l-301.336 104.063v730.687l217.172-76.688c7.805-2.758 16.375 1.336 19.133 9.148s-1.336 16.383-9.148 19.141l-237.164 83.742c-1.398 0.5-3.32 0.859-4.992 0.859-2.703 0-5.648-0.82-8.031-2.328l-325.672-206.367-324.914 91.141c-4.516 1.266-9.367 0.344-13.109-2.492s-5.938-7.258-5.938-11.953v-760c0-6.359 4.008-12.023 10.008-14.141l121.169-42.188c1.648-0.586 3.336-0.859 4.992-0.859 6.18 0 11.969 3.844 14.141 10.008 2.758 7.813-1.336 16.383-9.148 19.141l-111.162 38.648v729.602l301.336-84.523v-751.484l-189.258 66.828c-7.805 2.766-16.375-1.336-19.133-9.148s1.336-16.375 9.148-19.141c74.524-26.313 130.418-46.048 167.68-59.205 9.238-3.262 23.094-8.154 41.57-14.678 1.375-0.492 3.336-0.859 4.992-0.859 2.977 0 6.047 0.945 8.594 2.703l325.055 227.039 324.117-111.922c4.586-1.586 9.656-0.852 13.602 1.961 3.953 2.812 6.297 7.367 6.297 12.219v760c0 6.359-4.008 12.023-10.008 14.141l-94.172 33.258zM361.336 726.805l301.328 190.937v-727.5l-301.328-210.469v747.031zM783.211 395.984l112.836-39.852c1.656-0.578 3.336-0.859 5-0.859 6.18 0 11.969 3.852 14.141 10.008 2.758 7.813-1.336 16.383-9.148 19.141l-112.844 39.852c-7.812 2.758-16.375-1.336-19.141-9.148-2.758-7.813 1.344-16.383 9.156-19.141v0zM783.211 334.734l112.836-39.844c1.656-0.586 3.336-0.859 5-0.859 6.18 0 11.969 3.844 14.141 10.008 2.758 7.813-1.336 16.375-9.148 19.133l-112.844 39.852c-7.812 2.758-16.375-1.336-19.141-9.148-2.758-7.812 1.344-16.383 9.156-19.141v0zM783.211 273.484l112.836-39.844c1.656-0.586 3.336-0.859 5-0.859 6.18 0 11.969 3.852 14.141 10.008 2.758 7.813-1.336 16.383-9.148 19.141l-112.844 39.844c-7.812 2.758-16.375-1.336-19.141-9.148-2.758-7.812 1.344-16.383 9.156-19.141v0zM113.672 632.292l112.836-39.852c1.656-0.578 3.336-0.859 5-0.859 6.18 0 11.969 3.852 14.141 10.008 2.758 7.813-1.336 16.383-9.148 19.141l-112.844 39.852c-7.813 2.758-16.375-1.336-19.141-9.148-2.758-7.812 1.344-16.383 9.156-19.141v0zM113.672 571.042l112.836-39.844c1.656-0.586 3.336-0.859 5-0.859 6.18 0 11.969 3.844 14.141 10.008 2.758 7.813-1.336 16.375-9.148 19.133l-112.844 39.852c-7.813 2.758-16.375-1.336-19.141-9.148-2.758-7.813 1.344-16.383 9.156-19.141v0zM113.672 509.792l112.836-39.844c1.656-0.586 3.336-0.859 5-0.859 6.18 0 11.969 3.852 14.141 10.008 2.758 7.813-1.336 16.383-9.148 19.141l-112.844 39.844c-7.813 2.758-16.375-1.336-19.141-9.148-2.758-7.812 1.344-16.383 9.156-19.141v0z" />
<glyph unicode="&#xe904;" glyph-name="speaker" horiz-adv-x="1081" d="M256.805 622.59h-187.762c-26.214 0-47.465-21.251-47.465-47.465v-288.602c0-26.191 21.251-47.442 47.465-47.442h187.762c8.46 0 16.762-2.256 24.071-6.542l300.852-280.097c31.628-18.611 71.513 4.196 71.513 40.9v874.988c0 36.704-39.885 59.512-71.513 40.9l-300.852-280.097c-7.309-4.286-15.611-6.542-24.071-6.542zM823.362 119.647c-7.435 0-14.609 2.913-19.972 8.276-11.042 11.042-11.042 28.902 0 39.944 138.504 138.504 138.504 363.925 0 502.429-11.042 11.042-11.042 28.902 0 39.944s28.902 11.042 39.945 0c160.543-160.566 160.543-421.773-0.011-582.327-5.382-5.355-12.552-8.266-19.962-8.266zM743.479 210.832c-7.435 0-14.609 2.913-19.972 8.276-11.042 11.042-11.042 28.902 0 39.944 94.716 94.716 94.716 248.849 0 343.565-11.042 11.042-11.042 28.902 0 39.944s28.902 11.042 39.944 0c116.756-116.756 116.756-306.698 0-423.454-5.363-5.363-12.537-8.276-19.972-8.276zM889.574 7.798c-7.435 0-14.609 2.913-19.972 8.276-11.042 11.042-11.042 28.902 0 39.945 97.198 97.176 150.722 226.278 150.722 363.537s-53.524 266.361-150.722 363.537c-11.042 11.042-11.042 28.902 0 39.944s28.902 11.042 39.944 0c107.864-107.842 167.275-251.143 167.275-403.482s-59.411-295.64-167.275-403.482c-5.363-5.363-12.537-8.276-19.972-8.276z" />
<glyph unicode="&#xe905;" glyph-name="replay-button" horiz-adv-x="819" d="M428.032 898.951c0 14.704-11.92 26.624-26.624 26.624-7.163 0-14.023-2.886-19.032-8.006l-228.961-234.049 228.961-234.049c10.282-10.511 27.139-10.696 37.65-0.414 5.12 5.009 8.006 11.869 8.006 19.032v149.222c133.298-9.762 239.616-124.517 239.616-263.519 0-145.353-116.255-264.192-258.048-264.192s-258.048 118.839-258.048 264.192c-3.504 45.025-34.836 69.542-72.174 65.502-35.651-3.857-62.965-32.691-56.566-68.725-0.284-214.125 173.765-392.041 386.788-392.041s387.072 177.916 387.072 395.264c0 211.044-164.1 384.911-368.64 394.818v150.341z" />
<glyph unicode="&#xe906;" glyph-name="pause-button" horiz-adv-x="634" d="M130.869 960c-60.374 0-109.294-49.869-109.294-111.365v-801.27c0-61.54 48.92-111.365 109.294-111.365s109.294 49.847 109.294 111.365v801.27c0 61.518-48.898 111.365-109.294 111.365zM524.327 960c-60.374 0-109.294-49.869-109.294-111.365v-801.27c0-61.518 48.92-111.365 109.294-111.365s109.294 49.847 109.294 111.365v801.27c0 61.496-48.92 111.365-109.294 111.365z" />
<glyph unicode="&#xe907;" glyph-name="stop_button" horiz-adv-x="975" d="M97.524 960h780.19c53.861 0 97.524-43.663 97.524-97.524v-828.952c0-53.861-43.663-97.524-97.524-97.524h-780.19c-53.861 0-97.524 43.663-97.524 97.524v828.952c0 53.861 43.663 97.524 97.524 97.524z" />
<glyph unicode="&#xe908;" glyph-name="play_button" horiz-adv-x="780" d="M745.277 468.090l-707.048 487.619c-7.485 5.144-17.189 5.681-25.186 1.512-8.021-4.218-13.044-12.507-13.044-21.577v-975.238c0-9.070 5.022-17.384 13.044-21.602 3.56-1.853 7.461-2.779 11.337-2.779 4.852 0 9.679 1.463 13.848 4.315l707.048 487.619c6.607 4.559 10.533 12.044 10.533 20.066s-3.95 15.506-10.533 20.066z" />
<glyph unicode="&#xe90d;" glyph-name="location_pin" horiz-adv-x="825" d="M412.229 960c-227.243 0-412.229-184.191-412.229-410.459 0-25.761 2.372-51.737 7.33-77.068 0.216-1.503 1.078-6.011 2.803-13.739 6.252-27.693 15.523-54.957 27.597-80.932 44.414-104.117 142.081-264.050 356.388-435.361 5.39-4.294 11.858-6.44 18.326-6.44s12.936 2.147 18.326 6.44c214.092 171.311 311.974 331.244 356.388 435.361 12.074 25.976 21.344 53.025 27.597 80.932 1.725 7.728 2.587 12.236 2.803 13.739 4.743 25.332 7.33 51.307 7.33 77.068-0.431 226.268-185.417 410.459-412.66 410.459zM759.777 482.563c0-0.429-0.216-0.859-0.216-1.288-0.216-1.073-0.862-4.294-1.94-9.231 0-0.215 0-0.215 0-0.429-5.39-24.044-13.367-47.443-23.932-69.984-0.216-0.215-0.216-0.644-0.431-0.859-40.317-95.101-128.714-240.221-321.030-398.437-192.316 158.216-280.712 303.336-321.030 398.437-0.216 0.215-0.216 0.644-0.431 0.859-10.349 22.326-18.326 45.94-23.932 69.984 0 0.215 0 0.215 0 0.429-1.294 4.938-1.725 8.158-1.94 9.231 0 0.429-0.216 0.859-0.216 1.503-4.312 22.112-6.468 44.438-6.468 66.979 0 194.281 158.898 352.496 354.017 352.496s354.017-158.216 354.017-352.496c0-22.756-2.156-45.296-6.468-67.193zM412.444 808.296c-142.715 0-258.977-114.926-258.977-256s116.262-256 258.977-256c142.715 0 258.977 114.926 258.977 256s-116.262 256-258.977 256zM412.444 353.232c-111.142 0-201.379 89.41-201.379 199.064s90.45 199.064 201.379 199.064c110.929 0 201.379-89.41 201.379-199.064s-90.237-199.064-201.379-199.064z" />
<glyph unicode="&#xe90e;" glyph-name="inquiry_icon" horiz-adv-x="1365" d="M846.341 462.36c-11.33 11.33-11.33 29.701 0 41.031s29.701 11.33 41.031 0l204.8-204.8c11.33-11.33 11.33-29.701 0-41.031s-29.701-11.33-41.031 0l-204.8 204.8zM470.874 503.391c11.33 11.33 29.701 11.33 41.031 0s11.33-29.701 0-41.031l-204.8-204.8c-11.33-11.33-29.701-11.33-41.031 0s-11.33 29.701 0 41.031l204.8 204.8zM170.667 833.707c-24.507 0-44.373-19.867-44.373-44.373v-682.667c0-24.507 19.867-44.373 44.373-44.373h1024c24.507 0 44.373 19.867 44.373 44.373v682.667c0 24.507-19.867 44.373-44.373 44.373h-1024zM170.667 891.733h1024c56.554 0 102.4-45.846 102.4-102.4v-682.667c0-56.554-45.846-102.4-102.4-102.4h-1024c-56.554 0-102.4 45.846-102.4 102.4v682.667c0 56.554 45.846 102.4 102.4 102.4zM1192.585 840.863h85.221l-496.727-461.808c-62.39-58.613-119.823-59.757-190.411 0-2.779 2.352-168.726 156.288-497.843 461.808h85.291c281.641-261.435 448.519-416.228 450.044-417.52 47.957-40.599 72.218-40.487 113.409-1.79l451.016 419.31z" />
<glyph unicode="&#xe90f;" glyph-name="menu_icon" horiz-adv-x="1647" d="M54.010 831.153c-26.125 0-47.304 21.179-47.304 47.304s21.179 47.304 47.304 47.304h1504.251c26.125 0 47.304-21.179 47.304-47.304s-21.179-47.304-47.304-47.304h-1504.251zM221.149 417.149c-26.125 0-47.304 21.179-47.304 47.304s21.179 47.304 47.304 47.304h1225.686c26.125 0 47.304-21.179 47.304-47.304s-21.179-47.304-47.304-47.304h-1225.686zM54.010-31.939c-26.125 0-47.304 21.179-47.304 47.304s21.179 47.304 47.304 47.304h1504.251c26.125 0 47.304-21.179 47.304-47.304s-21.179-47.304-47.304-47.304h-1504.251z" />
<glyph unicode="&#xe910;" glyph-name="search_icon" d="M1007.381-11.778l-246.972 248.848c66.25 76.743 106.36 176.873 106.36 286.311 0 240.901-194.468 436.619-433.328 436.619-239.085 0-433.328-195.945-433.328-436.619s194.468-436.619 433.328-436.619c108.614 0 207.989 40.415 284.153 107.168l246.972-248.848c5.859-5.903 13.746-9.082 21.407-9.082s15.548 2.952 21.407 9.082c11.718 11.807 11.718 31.333 0 43.14zM60.729 523.381c0 207.071 167.202 375.315 372.486 375.315 205.51 0 372.486-168.472 372.486-375.315s-166.977-375.542-372.486-375.542c-205.284 0-372.486 168.472-372.486 375.542z" />
<glyph unicode="&#xe911;" glyph-name="account_insights" horiz-adv-x="1170" d="M1035.177 913.217h-895.566c-10.386 0-18.816 8.397-18.816 18.745s8.43 18.745 18.816 18.745h895.566c10.386 0 18.816-8.397 18.816-18.745s-8.43-18.745-18.816-18.745zM107.16 836.668h955.966c37.262 0 50.774-3.88 64.396-11.165s24.313-17.976 31.599-31.599c7.285-13.622 11.165-27.134 11.165-64.396v-684.292c0-37.262-3.88-50.774-11.165-64.396s-17.976-24.313-31.599-31.599c-13.622-7.285-27.134-11.165-64.396-11.165h-955.966c-37.262 0-50.774 3.88-64.396 11.165s-24.313 17.976-31.599 31.599c-7.285 13.622-11.165 27.134-11.165 64.396v684.292c0 37.262 3.88 50.774 11.165 64.396s17.976 24.313 31.599 31.599c13.622 7.285 27.134 11.165 64.396 11.165zM95.376 794.872c-18.631 0-25.387-1.94-32.198-5.583s-12.157-8.988-15.799-15.799c-3.643-6.811-5.583-13.567-5.583-32.198v-707.86c0-18.631 1.94-25.387 5.583-32.198s8.988-12.157 15.799-15.799c6.811-3.643 13.567-5.583 32.198-5.583h979.534c18.631 0 25.387 1.94 32.198 5.583s12.157 8.988 15.799 15.799c3.643 6.811 5.583 13.567 5.583 32.198v707.86c0 18.631-1.94 25.387-5.583 32.198s-8.988 12.157-15.799 15.799c-6.811 3.643-13.567 5.583-32.198 5.583h-979.534zM607.458 116.148h-418.123c-9.81 0-17.771 7.93-17.771 17.7v47.366c0 29.524 17.309 56.818 44.144 69.457l94.117 57.633c-30.389 24.533-49.262 60.96-50.79 100.397l-3.59 93.317c0 71.333 58.503 128.789 130.477 128.789h24.809c71.938 0 130.512-57.491 130.512-128.116l-3.625-93.989c-1.528-39.507-20.401-75.97-50.897-100.468l95.112-57.987c26.337-12.815 43.326-39.826 43.326-69.067v-47.331c0.071-9.771-7.89-17.7-17.7-17.7zM207.107 151.549h382.58v29.631c0 15.966-9.383 30.657-23.885 37.49-0.569 0.283-1.137 0.566-1.671 0.92l-119.956 73.138c-5.509 3.363-8.779 9.417-8.495 15.86 0.32 6.443 4.052 12.213 9.81 15.081 33.552 16.674 55.269 49.774 56.655 86.414l3.625 93.317c0 50.446-42.58 92.042-94.97 92.042h-24.809c-52.354 0-94.934-41.596-94.934-92.715l3.59-92.644c1.386-36.534 22.996-69.634 56.477-86.343 5.758-2.867 9.525-8.638 9.774-15.045 0.249-6.443-2.986-12.497-8.459-15.86l-119.778-73.209c-16.172-7.753-25.52-22.444-25.52-38.375v-29.701h-0.036zM988.012 510.903h-219.546c-10.962 0-19.861 8.864-19.861 19.79s8.899 19.79 19.861 19.79h219.546c10.962 0 19.861-8.864 19.861-19.79s-8.899-19.79-19.861-19.79zM988.012 353.758h-219.546c-10.962 0-19.861 8.864-19.861 19.79s8.899 19.79 19.861 19.79h219.546c10.962 0 19.861-8.864 19.861-19.79s-8.899-19.79-19.861-19.79zM988.012 196.507h-219.546c-10.962 0-19.861 8.864-19.861 19.79s8.899 19.79 19.861 19.79h219.546c10.962 0 19.861-8.864 19.861-19.79s-8.899-19.79-19.861-19.79z" />
<glyph unicode="&#xe912;" glyph-name="courier_tracker" horiz-adv-x="785" d="M391.944 323.476c147.011 0 266.568 117.696 266.568 262.208 0 144.529-119.525 262.208-266.568 262.208s-266.568-117.679-266.568-262.208c0-144.512 119.557-262.208 266.568-262.208zM391.944 294.463c-162.934 0-295.582 130.583-295.582 291.221 0 160.655 132.615 291.221 295.582 291.221s295.582-130.566 295.582-291.221c0-160.638-132.648-291.221-295.582-291.221zM564.69 724.843l2.087-1.031c4.524-3.065 6.627-7.766 6.627-12.894v-220.041c0-6.264-4.060-11.941-10.991-15.362l-160.367-51.273c-5.067-1.9-9.774-1.752-14.093-0.138l-160.258 51.249c-6.935 1.692-11.568 8.169-11.568 15.524v220.041c0 6.145 3.443 12.27 10.923 15.34l161.869 53.186c3.796 1.808 7.896 1.808 10.721 0.391 20.631-6.874 20.631-6.874 82.524-27.496 61.735-20.569 61.735-20.569 82.525-27.497zM232.316 491.772l0.159-0.051c-0.052 0.023-0.105 0.040-0.159 0.051zM393.523 440.232c1.010-0.375 1.513-0.391 2.928 0.128l159.473 50.878c0.203 0.104 0.341 72.904 0.414 218.398-17.985 5.992-20.9 6.964-79.567 26.511-60.344 20.106-61.855 20.609-81.913 27.355l-161.663-53.166v-218.847l160.329-51.259zM371.492 740.020l110.256-36.283 24.799 7.958-111.764 35.906-23.291-7.581zM562.373 711.686l-80.691-25.894-165.058 54.318 78.125 25.429 167.624-53.852zM378.999 460.606v186.351l-131.336 42.018v-186.724l131.336-41.645zM230.596 489.758v222.595l165.469-52.938v-222.125l-165.469 52.468zM430.477 687.227l-109.611 36.2-37.886-12.373 111.766-35.289 35.731 11.461zM227.164 710.781l93.731 30.61 164.72-54.401-90.829-29.134-167.622 52.924zM541.799 502.902v186.118l-42.983-13.573v-20.45l-31.535-13.471v23.955l-56.748-17.98v-186.842l131.266 42.244zM604.774 505.24l-211.307-68.002v222.758l165.399 52.312v-207.067h45.908zM391.944-55.598c4.333 0 8.479 1.889 11.292 5.148 4.864 5.73 11.433 13.58 20.13 24.161 13.47 16.387 28.154 34.619 43.735 54.419 43.335 55.068 86.186 112.778 125.868 170.745 111.715 163.192 178.372 298.584 178.372 386.779 0 205.939-170.196 373.493-379.397 373.493s-379.397-167.554-379.397-373.493c0-88.183 66.663-223.581 178.376-386.763 39.69-57.977 82.555-115.701 125.878-170.743 15.594-19.813 30.293-38.058 43.743-54.414 8.765-10.658 15.78-19.035 20.141-24.153 2.785-3.289 6.896-5.177 11.26-5.177zM392.771 3.413c-4.416 0-8.583 1.907-11.407 5.231-3.965 4.637-10.341 12.226-18.306 21.881-12.221 14.813-25.577 31.337-39.745 49.279-39.362 49.848-78.309 102.124-114.374 154.634-101.628 147.967-162.259 270.711-162.259 350.957 0 187.268 155.259 339.618 346.091 339.618s346.091-152.35 346.091-339.618c0-80.256-60.626-202.995-162.256-350.971-36.058-52.501-74.992-104.764-114.366-154.635-14.157-17.931-27.499-34.442-39.738-49.283-7.903-9.584-13.874-16.696-18.3-21.893-2.854-3.295-7.047-5.2-11.432-5.2z" />
<glyph unicode="&#xe913;" glyph-name="currency_convertr" horiz-adv-x="1221" d="M308.872 960c-170.312 0-308.872-138.562-308.872-308.872s138.56-308.872 308.872-308.872c170.312 0 308.872 138.56 308.872 308.872 0.002 170.31-138.557 308.872-308.872 308.872zM308.872 377.952c-150.631 0-273.176 122.546-273.176 273.176s122.548 273.176 273.176 273.176c150.628 0 273.176-122.548 273.176-273.176s-122.546-273.176-273.176-273.176zM322.279 682.687v89.492c30.86-2.204 42.322-16.312 52.901-16.312 13.226 0 19.397 16.754 19.397 25.129 0 21.603-42.322 30.86-72.298 31.742v11.902c0 5.291-6.613 10.139-13.226 10.139-7.495 0-12.784-4.849-12.784-10.139v-12.786c-41.88-4.407-83.76-26.45-83.76-81.996 0-56.428 44.084-72.3 83.76-86.406v-103.6c-44.966 3.528-56.87 34.385-71.418 34.385-11.020 0-20.279-14.55-20.279-25.126 0-21.603 37.031-51.139 91.7-52.021v-13.668c0-5.291 5.289-10.139 12.784-10.139 6.609 0 13.224 4.847 13.224 10.139v14.988c47.611 6.613 80.235 36.591 80.235 90.818-0.002 59.956-41.88 79.353-80.235 93.461zM298.912 691.062c-23.367 8.819-42.322 18.076-42.322 43.204 0 22.925 17.634 33.945 42.322 37.033v-80.237zM319.633 540.735v93.017c21.603-9.259 38.795-21.603 38.795-49.375 0-25.124-14.988-39.234-38.795-43.642zM909.726 556.072c-170.315 0-308.874-138.563-308.874-308.874s138.558-308.876 308.874-308.876c170.315 0 308.874 138.563 308.874 308.874s-138.561 308.876-308.874 308.876zM909.726-23.021c-148.999 0-270.217 121.218-270.217 270.217s121.218 270.217 270.217 270.217c148.999 0 270.217-121.218 270.217-270.217s-121.218-270.217-270.217-270.217zM999.070 194.576c-15.496 0-22.813-3.874-22.813-14.207-0.43-25.827-14.638-48.64-50.363-48.64-39.17 0-51.654 27.548-51.654 51.224v12.484h52.514c7.748 0 15.496 6.885 15.496 16.356 0 9.469-7.748 16.786-15.496 16.786h-52.514v34.437h52.514c7.748 0 15.496 6.887 15.496 16.356 0 9.471-7.748 16.786-15.496 16.786h-52.514v16.356c-0.002 37.888 18.507 55.536 51.222 55.536 37.019 0 50.796-23.674 50.796-46.057 0-9.901 6.887-14.207 22.813-14.207 15.496 0 22.813 4.304 22.813 21.091 0 48.643-40.462 79.634-97.713 79.634-53.377 0-95.56-26.257-95.56-95.992v-16.356h-22.813c-8.61 0-14.638-7.318-14.638-17.219 0-9.469 6.027-15.926 14.638-15.926h22.813v-34.433h-22.813c-8.61 0-14.638-7.32-14.638-17.219 0-9.471 6.027-15.926 14.638-15.926h22.813v-12.484c0-57.681 36.158-91.688 95.56-91.688 57.249 0 97.713 32.286 97.713 81.787 0.002 17.217-6.885 21.521-22.813 21.521zM559.493 152.048l-67.14 57.948c-7.544 6.512-18.939 5.676-25.451-1.87-6.512-7.544-5.674-18.939 1.869-25.449l38.174-32.947c-98.884 2.838-193.776 49.6-255.975 126.82-6.253 7.759-17.613 8.979-25.373 2.732-7.761-6.253-8.985-17.613-2.734-25.373 35.47-44.033 81.391-80.118 132.799-104.356 45.932-21.653 96.383-33.883 146.948-35.789l-26.518-30.724c-6.511-7.546-5.674-18.939 1.87-25.451 5.128-4.426 12.035-5.457 17.978-3.294 2.8 1.019 5.386 2.747 7.473 5.162l57.95 67.139c3.126 3.623 4.686 8.34 4.334 13.113-0.35 4.774-2.58 9.209-6.204 12.339zM618.851 820.929l59.578-65.698c6.694-7.383 18.106-7.942 25.489-1.246 7.383 6.694 7.94 18.106 1.246 25.487l-33.874 37.354c97.802-14.867 186.287-72.846 238.612-157.070 5.26-8.464 16.387-11.059 24.85-5.804 8.465 5.261 11.064 16.387 5.806 24.851-29.839 48.027-71.020 89.439-119.091 119.763-42.951 27.089-91.536 45.377-141.491 53.431l30.065 27.263c7.382 6.696 7.94 18.106 1.246 25.489-4.55 5.018-11.28 6.883-17.443 5.46-2.903-0.67-5.681-2.071-8.046-4.213l-65.7-59.576c-3.545-3.215-5.667-7.707-5.9-12.487-0.235-4.781 1.438-9.455 4.654-13.003z" />
<glyph unicode="&#xe914;" glyph-name="lead_insights" horiz-adv-x="1451" d="M988.669 143.326l110.234-110.412v-58.812h-750.2v118.776c0 26.71 11.969 52.196 32.473 68.904 20.505 16.93 42.021 33.165 63.591 48.055l11.045 7.625 10.519-8.336c72.938-57.802 162.534-88.915 256.497-88.915 74.567 0 147.688 20.112 211.467 57.958l12.125 7.195 23.274-23.312 18.974-18.726zM963.099 117.607l-18.927 18.679-3.657 3.662c-66.402-36.62-141.346-56.004-217.687-56.004-97.554 0-190.917 30.902-268.247 88.479-17.092-12.18-34.056-25.183-50.406-38.682-12.097-9.857-19.207-24.998-19.207-40.864v-82.509h677.667v7.54l-99.537 99.699zM557.733 507.939v146.921c0 83.051 67.398 150.558 150.343 150.558h31.73c83.145 0 150.38-67.443 150.065-150.836v-146.921c0-25.169-10.988-48.274-29.504-64.15v-126.639l-9.718-5.091c-38.984-20.425-82.538-31.065-127.544-31.065-44.096 0-87.060 10.474-126.006 30.432l-9.863 5.055v127.588c-18.516 15.876-29.504 38.981-29.504 64.15zM824.101 462.115l8.009 5.39c13.428 9.037 21.494 23.776 21.494 40.156v146.99c0.24 63.374-50.731 114.501-113.798 114.501h-31.73c-62.903 0-114.077-51.257-114.077-114.291v-146.921c0-16.38 8.066-31.119 21.494-40.156l8.009-5.39v-123.748c31.175-14.237 64.974-21.664 99.603-21.664 35.448 0 69.76 7.561 100.995 22.116v123.017zM1304.568 362.667c39.429-23.636 77.466-49.789 112.069-78.25 17.956-15.048 28.325-37.178 28.325-60.562v-102.606h-134.761l-213.429 213.775 7.174 12.102c40.73 68.709 60.786 147.824 57.598 228.171-2.642 71.727-23.918 141.258-61.616 202.481l-17.020 27.641h58.068c71.255 0 128.911-57.749 128.911-129.091v-123.224c0-21.444-9.213-41.331-24.772-55.137v-102.225c17.68-9.028 36.63-19.393 59.452-33.074zM1146.622 768.983l2.116-0.151c-0.703 0.058-1.408 0.109-2.116 0.151zM1148.738 768.831l-2.116 0.151c31.106-59.461 48.683-125.005 51.162-192.3 3.275-82.556-16.054-163.987-55.629-235.786l183.084-183.381h83.455v66.339c0 12.636-5.604 24.597-15.225 32.66-32.963 27.111-69.558 52.273-107.549 75.046-24.954 14.959-45.063 25.786-63.030 34.819-8.872 3.809-14.042 12.439-14.042 21.681v128.46l8.063 5.384c10.405 6.948 16.708 18.506 16.708 31.198v123.224c0 48.705-37.31 88.562-84.883 92.504zM1326.304 54.198c21.943-27.81 20.2-68.244-5.301-93.785-13.426-13.448-31.266-20.655-49.851-20.655s-36.425 7.207-49.851 20.655l-262.737 263.163 14.752 14.776-7.383 7.395c-69.913-54.362-155.182-83.237-242.825-83.237-104.19 0-204.781 40.903-280.036 116.279-154.586 154.837-154.586 406.060 0 560.896 75.254 75.376 175.846 116.279 280.036 116.279s204.781-40.903 280.036-116.279c142.115-142.346 154.524-367.289 32.967-523.687l7.363-7.375 14.752 14.776 268.080-268.514v-7.564c0-0.046 0-0.046-36.267-0.062v44.377l31.053-31.529c1.866-1.894 3.603-3.867 5.214-5.908zM1058.224 272.068l-14.752-14.776-56.345 56.437 10.776 12.727c120.52 142.348 112.322 354.642-20.425 487.604-68.387 68.498-159.721 105.636-254.371 105.636s-185.984-37.139-254.371-105.636c-140.451-140.678-140.451-368.971 0-509.649 68.387-68.498 159.721-105.636 254.371-105.636 84.635 0 166.783 29.619 232.38 85.193l12.749 10.801 56.327-56.418-14.752-14.776 237.155-237.54c6.537-6.547 15.113-10.012 24.186-10.012s17.649 3.464 24.186 10.012c13.253 13.274 13.265 35.022-0.048 48.582l-237.066 237.45zM1290.037 47.258v0.124h18.133l-12.833-12.812c-0.061 0.061-0.074 0.074-0.087 0.088l12.919 12.724h18.133c0-0.086 0-0.104-18.249-0.115-4.696-0.003-10.598-0.005-18.018-0.009zM975.98 305.633c139.732 139.959 139.732 367.007 0 506.649-68 68.111-158.435 104.792-252.873 104.792-94.232 0-184.956-36.765-252.873-104.792-139.735-139.961-139.735-366.688 0-506.649 68-68.111 158.435-104.792 252.873-104.792 94.232 0 184.956 36.765 252.873 104.792zM1001.645 280.010c-74.796-74.917-174.781-115.435-278.538-115.435-103.967 0-203.662 40.438-278.538 115.435-153.87 154.119-153.87 403.777 0 557.896 74.796 74.917 174.781 115.435 278.538 115.435 103.967 0 203.662-40.438 278.524-115.421 153.887-153.788 153.887-403.789 0.015-557.911zM178.274 553.103v123.224c0 71.342 57.656 129.091 128.911 129.091h56.742l-17.102-27.668c-99.807-161.468-77.628-372.671 56.805-509.694l14.857-15.143-17.271-12.319c-18.402-13.125-36.703-27.115-54.434-41.646-19.286-15.784-32.276-37.841-37.103-62.739l-2.846-14.682h-303.632v102.606c0 23.155 10.406 45.267 28.325 60.284 34.647 28.497 72.77 54.754 112.057 78.347 23.071 13.855 44.326 25.456 59.464 33.037v102.165c-15.559 13.807-24.772 33.694-24.772 55.137zM214.54 676.327v-123.224c0-12.693 6.303-24.25 16.708-31.198l8.063-5.384v-128.46c0-8.914-4.724-16.484-13.294-21.339-15.362-7.437-38.385-19.806-63.766-35.048-37.854-22.733-74.542-48.001-107.561-75.158-9.601-8.046-15.225-19.997-15.225-32.381v-66.339h238.241c8.217 27.154 24.097 51.209 46.096 69.213 12.969 10.628 26.233 20.977 39.624 30.931-126.138 141.027-149.952 345.607-63.375 510.944-47.873-3.641-85.512-43.634-85.512-92.554z" />
<glyph unicode="&#xe915;" glyph-name="news_widget" horiz-adv-x="851" d="M705.754-29.221h-7.057c-7.554 37.168-40.404 65.223-79.67 65.223h-140.933v34.227c53.563 1.844 107.703 13.125 160.056 34.868 3.985 1.654 7.151 4.829 8.801 8.825 1.652 3.996 1.652 8.486 0 12.481l-8.298 20.084c-3.437 8.32-12.951 12.273-21.246 8.825-8.298-3.446-12.239-12.986-8.801-21.304l1.956-4.74c-43.544-16.195-88.202-24.796-132.47-26.437v5.153c0 9.005-7.279 16.306-16.261 16.306s-16.261-7.301-16.261-16.306v-5.092c-161.873 6.418-313.408 105.059-379.362 264.716-88.274 213.694 8.92 458.822 216.845 554.495l1.958-4.74c3.437-8.32 12.944-12.273 21.246-8.825 8.298 3.446 12.239 12.986 8.801 21.304l-8.298 20.086c-3.437 8.322-12.948 12.273-21.246 8.825-234.711-97.487-346.571-368.273-249.349-603.627 71.134-172.204 234.763-278.456 409.407-284.892v-34.233h-140.933c-39.266 0-72.116-28.055-79.67-65.223h-7.057c-8.983 0-16.261-7.301-16.261-16.306s7.279-16.306 16.261-16.306h487.844c8.983 0 16.261 7.301 16.261 16.306s-7.279 16.306-16.261 16.306v0zM304.638 3.391h314.388c21.198 0 39.275-13.634 45.987-32.611h-406.363c6.715 18.98 24.789 32.611 45.987 32.611zM798.576 369.169c44.604 92.914 51.159 203.733 8.801 306.274-58.121 140.697-193.808 231.607-345.684 231.607-49.123 0-97.231-9.638-142.988-28.642-92.298-38.336-164.184-110.418-202.414-202.965-38.232-92.549-38.23-194.488 0.002-287.037 58.118-140.697 193.808-231.607 345.684-231.607 49.123 0 97.231 9.636 142.988 28.642 86.756 36.033 152.823 101.239 191.616 179.609 0.778 1.159 1.433 2.426 1.908 3.811 0.033 0.102 0.054 0.207 0.087 0.309v0zM774.258 394.098c-27.161 8.151-54.977 13.125-82.925 14.945-1.5 19.741-4.219 40.208-8.161 61.197-1.661 8.851-10.173 14.669-18.989 13.008-8.825-1.668-14.633-10.192-12.97-19.041 3.525-18.782 5.963-36.99 7.391-54.479-40.485-0.931-80.809-8.453-119.381-22.541l-56.145 135.916 135.031 56.083c6.808-17.621 12.896-35.457 18.141-53.211 2.554-8.633 11.596-13.566 20.212-11.003 8.61 2.557 13.521 11.631 10.973 20.265-5.566 18.836-12.036 37.753-19.273 56.429l135.024 56.081c30.637-85.312 25.231-175.75-8.929-253.648v0zM317.994 454.533l135.039 56.087 56.145-135.914c-37.234-17.397-71.073-40.693-100.372-68.765-34.643 40.921-65.837 91.81-90.813 148.591v0zM605.672 609.316l-135.039-56.087-56.145 135.914c37.234 17.397 71.073 40.693 100.372 68.765 34.646-40.921 65.839-91.81 90.813-148.591zM264.392 716.584c4.25 59.957 22.679 103.096 52.418 123.806l55.174-133.566c-35.075-12.649-71.715-19.358-108.49-20.115-0.080 10.19 0.208 20.165 0.898 29.874v0zM402.031 719.303l-55.174 133.566c35.643 6.444 79.087-10.994 124.374-50.378 7.333-6.377 14.572-13.225 21.701-20.487-26.541-25.539-57.182-46.776-90.902-62.701zM384.438 676.676l56.15-135.927-135.039-56.087c-22.38 57.851-36.207 115.947-40.571 169.445 40.515 0.924 80.863 8.472 119.461 22.569v0zM606.826 223.537l-55.144 133.49c35.053 12.64 71.67 19.349 108.421 20.113 0.581-72.761-18.375-128.985-53.277-153.602v0zM521.637 344.546l55.176-133.566c-35.636-6.442-79.087 10.994-124.374 50.378-7.333 6.377-14.572 13.225-21.699 20.487 26.537 25.541 57.177 46.776 90.897 62.701zM770.713 677.865l-134.992-56.068c-26.771 61.012-60.56 115.784-98.256 159.748 18.56 21.193 34.776 44.543 48.268 69.689 80.323-31.261 147.040-92.473 184.98-173.369v0zM554.347 861.668c-11.181-20.028-24.273-38.764-39.043-55.979-7.476 7.581-15.071 14.745-22.766 21.439-23.083 20.073-46.131 35.188-68.558 45.189 12.482 1.398 25.060 2.124 37.716 2.124 31.898-0.002 62.997-4.444 92.651-12.773v0zM248.599 799.554c-8.829-22.993-14.479-50.056-16.65-80.659-0.722-10.19-1.041-20.639-0.98-31.3-22.551 1.698-44.99 5.657-66.991 11.875 21.634 38.851 50.328 72.695 84.62 100.085zM146.338 662.964c0.945 2.291 1.925 4.561 2.916 6.824 27.207-8.177 55.074-13.166 83.070-14.988 4.349-57.814 19.082-120.497 43.175-182.618l-135.029-56.083c-28.909 80.366-26.959 167.403 5.867 246.864v0zM152.955 385.984l134.992 56.068c26.771-61.012 60.56-115.784 98.256-159.748-18.56-21.193-34.776-44.543-48.268-69.691-80.325 31.264-147.043 92.477-184.98 173.371zM369.322 202.181c11.181 20.028 24.273 38.764 39.041 55.979 7.476-7.581 15.071-14.745 22.766-21.439 23.096-20.086 46.157-35.183 68.6-45.182-12.495-1.4-25.086-2.128-37.755-2.128-31.898 0-62.997 4.442-92.651 12.771v0zM675.061 264.432c3.298 8.601 6.166 17.775 8.571 27.513 6.247 25.291 9.254 53.696 9.061 84.312 22.495-1.694 44.877-5.635 66.824-11.827-21.211-37.999-49.693-72.113-84.456-99.998v0z" />
<glyph unicode="&#xe916;" glyph-name="opportunity_insights" horiz-adv-x="819" d="M425.896 391.72l267.742-47.569c14.989-2.083 29.004-7.814 40.473-16.898 11.715-9.401 19.648-21.444 22.955-34.764l61.743-249.056-119.922-38.201c-42.102-37.362-147.29-62.47-270.087-64.909l-38.656 0.003c-122.553 2.442-227.729 27.546-269.827 64.906l-119.921 38.201 61.743 249.054c3.303 13.311 11.237 25.351 23.024 34.824 11.416 9.031 25.425 14.761 39.908 16.761l268.215 47.643-108.886-66.372 72.49-208.713 52.71 200.12 52.725-200.127 72.501 208.719-108.928 66.377zM717.416 306.312c-7.538 5.97-17.070 9.868-27.963 11.391l-127.913 22.721 5.673-3.457-108.412-312.102-49.2 186.748-49.19-186.756-108.401 312.108 5.689 3.468-128.448-22.81c-10.39-1.442-19.918-5.339-27.393-11.252-7.239-5.818-11.869-12.844-13.727-20.332l-55.706-224.703 101.779-32.421 2.235-2.133c34.211-32.639 135.502-57.314 253.97-59.678l38.123-0.003c118.718 2.36 220.015 27.040 254.23 59.681l2.235 2.132 101.779 32.421-55.705 224.7c-1.862 7.499-6.489 14.522-13.657 20.274zM409.599 352.075l65.065-21.38-65.066-86.114-65.048 86.113 65.048 21.38zM383.328 318.565l26.273-34.782 26.28 34.782-26.281 8.636-26.273-8.635zM409.6 862.194c6.937 0 12.631 5.202 12.631 11.588v74.62c0 6.366-5.694 11.598-12.631 11.598s-12.631-5.232-12.631-11.598v-74.62c0-6.386 5.694-11.588 12.631-11.588zM283.449 839.633c3.48-5.535 11.227-7.437 17.244-4.257 6.006 3.196 8.1 10.32 4.608 15.829l-40.637 64.648c-3.474 5.515-11.222 7.427-17.233 4.231-6.028-3.184-8.1-10.308-4.619-15.823l40.637-64.628zM437.98 642.026l0.263-0.136c0.055-0.010-0.153 0.116-0.301 0.176l0.038-0.040zM328.732 655.541c-2.368 1.067-4.837 1.595-7.448 1.595-7.039 0-13.453-4.027-16.3-10.139-1.925-4.111-2.087-8.612-0.446-12.864 1.635-4.293 4.856-7.666 9.208-9.604 2.453-1.088 5.602-1.692 9.393-1.692 7.394 0 16.095 2.225 24.54 5.644-4.482 13.007-11.256 23.642-18.947 27.060zM411.76 663.852c12.054 10.937 20.223 23.025 20.223 32.65 0 11.77-9.972 21.503-22.353 21.503-12.418 0-22.381-9.72-22.381-21.503 0-9.631 8.178-21.735 20.216-32.644l2.152-1.95 2.142 1.944zM496.098 622.838c3.774 0 6.921 0.605 9.353 1.684 4.371 1.947 7.606 5.332 9.256 9.634 1.617 4.222 1.456 8.744-0.456 12.844-2.86 6.111-9.274 10.137-16.317 10.137-2.604 0-5.084-0.531-7.514-1.625-7.632-3.389-14.427-14.067-18.875-27.034 8.445-3.417 17.15-5.64 24.552-5.64zM404.629 465.526h-93.713v13.391c0 18.351-7.721 35.086-21.146 45.805-1.056 0.845-7.047 5.484-6.324 5.060l-1.795 1.262c-39.875 33.219-63.145 80.419-63.15 131.138 0 97.763 85.809 176.56 191.095 176.56 105.283 0 191.084-78.796 191.084-176.56 0-50.706-23.264-97.908-63.118-131.135l-1.369-1.141c-0.892-0.595-1.025-0.697-2.046-1.487-1.85-1.433-3.627-2.824-4.729-3.705-13.411-10.707-21.129-27.444-21.129-45.797v-13.391h-93.703l36.66 153.611c-0.748 0.381-1.105 0.565-2.64 1.355-3.428 1.873-5.601 3.056-8.595 4.693-2.293 1.382-3.502 2.11-4.735 2.847-1.089 0.665-1.487 0.904-2.32 1.393l-1.38 0.838-1.391 0.883c-3.694 2.488-6.373 4.282-8.999 6.023-0.717 0.491-0.717 0.491-1.388 0.964-0.7 0.495-1.609 1.154-2.851 2.053-1.007 0.714-1.961 1.399-3.808 2.731-0.185 0.133-1.353 1.049-3.505 2.748l-2.91-2.276c-2.462-1.792-3.573-2.59-4.406-3.179-1.312-0.947-2.242-1.619-2.946-2.115-0.653-0.459-0.653-0.459-1.432-0.99-2.427-1.619-4.849-3.241-8.954-5.997l-1.568-0.996-1.236-0.741c-1.137-0.679-1.137-0.679-2.323-1.398-2.321-1.403-3.557-2.148-5.142-3.076-2.333-1.269-4.326-2.356-8.409-4.581-1.304-0.664-1.616-0.822-2.337-1.188l36.658-153.602zM374.652 653.688l1.093 0.546 13.937-22.582c-0.997-0.745-0.997-0.745-1.088-0.806-0.331-0.214-0.331-0.214-0.448-0.285-0.233-0.142-0.233-0.142-0.806-0.449l-6.085 11.928-6.987 11.414c0.399 0.243 0.396 0.241 0.383 0.234zM306.49 545.643c16.486-13.162 27.067-32.216 30.219-53.335h33.995l-25.539 107.014c-7.337-2.059-14.741-3.266-22.027-3.266-7.373 0-14.205 1.309-20.268 3.999-10.842 4.826-19.172 13.552-23.339 24.491-4.25 11.015-3.816 23.098 1.188 33.784 7.264 15.592 23.185 25.588 40.566 25.588 6.397 0 12.616-1.332 18.385-3.93 12.75-5.665 21.791-16.579 28.313-30.316 0.559 0.337 1.213 0.732 2.006 1.211 1.252 0.759 1.252 0.759 2.467 1.484l1.064 0.636c2.006 1.324 3.231 2.146 4.323 2.878-10.672 12.454-17.374 25.979-17.374 40.621 0 26.724 22.099 48.284 49.162 48.284 27.027 0 49.134-21.575 49.134-48.284 0-14.643-6.697-28.155-17.377-40.618 1.088-0.73 2.247-1.51 3.506-2.36l1.751-1.081c0.838-0.489 1.366-0.807 2.499-1.5 0.641-0.382 1.32-0.79 2.098-1.261 6.509 13.713 15.556 24.642 28.246 30.277 5.829 2.626 12.058 3.959 18.448 3.959 17.376 0 33.28-9.984 40.581-25.584 4.985-10.692 5.415-22.754 1.199-33.762-4.209-10.975-12.538-19.692-23.386-24.523-6.040-2.679-12.871-3.992-20.231-3.992-7.292 0-14.705 1.208-22.048 3.268l-25.54-107.016h33.984c3.151 21.119 13.727 40.173 30.203 53.327 3.139 2.511 5.753 4.567 7.717 5.978 33.891 28.262 53.483 68.013 53.483 110.569 0 82.439-73.325 149.778-164.302 149.778-90.98 0-164.313-67.34-164.313-149.777 0.004-42.566 19.6-82.313 53.51-110.563 2.124-1.589 5.514-4.231 7.697-5.977zM438.065 641.993l-0.005 0.005zM518.513 835.376c6.021-3.184 13.77-1.278 17.254 4.251l40.626 64.628c3.474 5.515 1.391 12.639-4.636 15.823-6.006 3.19-13.765 1.278-17.222-4.231l-40.641-64.644c-3.463-5.507-1.393-12.632 4.619-15.827zM627.442 662.166c0-6.37 5.672-11.598 12.609-11.582h81.291c6.927 0 12.603 5.212 12.603 11.582 0 6.38-5.677 11.588-12.603 11.588h-81.291c-6.954 0-12.609-5.214-12.609-11.588zM615.485 757.934l70.381 37.319c6.017 3.184 8.1 10.308 4.63 15.823-3.474 5.525-11.233 7.427-17.239 4.241l-70.381-37.303c-6.021-3.19-8.11-10.308-4.63-15.829 3.47-5.515 11.229-7.441 17.239-4.251zM133.334 795.257l70.381-37.317c6.021-3.174 13.77-1.268 17.239 4.247 3.474 5.525 1.391 12.639-4.615 15.829l-70.385 37.319c-6.017 3.164-13.787 1.283-17.25-4.251-3.468-5.519-1.374-12.653 4.63-15.827zM97.881 650.584h81.284c6.927 0 12.603 5.222 12.603 11.598 0 6.37-5.677 11.582-12.603 11.598h-81.284c-6.948-0.016-12.62-5.232-12.62-11.598 0.002-6.376 5.679-11.598 12.62-11.598zM409.6 369.077c19.874 0 36.696 11.863 42.625 28.286h-85.246c5.929-16.423 22.751-28.286 42.621-28.286zM494.913 417.589c0 6.38-5.677 11.592-12.62 11.592h-145.396c-6.937 0-12.609-5.212-12.609-11.592 0-6.376 5.677-11.588 12.609-11.588h145.402c6.935 0.006 12.614 5.218 12.614 11.588zM482.299 461.016h-145.402c-6.931 0-12.609-5.218-12.609-11.598s5.672-11.592 12.609-11.592h145.396c6.944 0 12.62 5.212 12.62 11.592 0 6.374-5.679 11.598-12.614 11.598z" />
<glyph unicode="&#xe917;" glyph-name="plus" d="M431.638 528.842h-431.638v-107.789h431.638v-455.227h107.789v455.227h432.36v107.789h-432.36v404.75h-107.789v-404.75z" />
<glyph unicode="&#xe918;" glyph-name="cross" horiz-adv-x="1092" d="M435.881 448.43l-386.605-386.605 96.544-96.544 386.605 386.605 407.732-407.732 96.544 96.544-407.732 407.732 387.251 387.251-96.544 96.544-387.251-387.251-362.522 362.522-96.544-96.544 362.522-362.522z" />
</font>
</defs>
</svg>
