<?xml version="1.0" encoding="UTF-8"?>
<svg width="119px" height="100px" viewBox="0 0 119 100" version="1.1" xmlns="http://www.w3.org/2000/svg" xmlns:xlink="http://www.w3.org/1999/xlink">
    <!-- Generator: Sketch 63.1 (92452) - https://sketch.com -->
    <title>Group 21</title>
    <desc>Created with Sketch.</desc>
    <g id="Page-1" stroke="none" stroke-width="1" fill="none" fill-rule="evenodd">
        <g id="Microservice-Arcitecture" transform="translate(-247.000000, -3691.000000)" fill-rule="nonzero">
            <g id="CCO-Through-Gov" transform="translate(240.000000, 2628.000000)">
                <g id="1" transform="translate(1.000000, 193.000000)">
                    <g id="Group-6" transform="translate(6.000000, 870.000000)">
                        <g id="Group-21">
                            <g id="blob-shape" opacity="0.49546596" fill="#FFB4BC">
                                <path d="M113.820005,13.2000005 C122.190005,24.090001 118.950005,43.8900017 113.490005,61.3200024 C108.060004,78.7800031 100.380004,93.8700037 89.0100035,98.1600039 C77.6400031,102.480004 62.5500025,96.0000038 45.7500018,89.3100035 C28.9500012,82.6500033 10.4700004,75.810003 3.42000014,61.5900024 C-3.63000014,47.3400019 0.75000003,25.740001 12.9900005,13.9500006 C25.200001,2.16000009 45.3000018,0.180000007 65.3700026,0.209667361 C85.4100034,0.24000001 105.420004,2.28000009 113.820005,13.2000005 Z" id="Path"></path>
                            </g>
                            <g id="noun_Deploy_2715487" transform="translate(14.000000, 7.000000)" stroke-width="0.1">
                                <g id="Group">
                                    <g transform="translate(11.809524, 0.000000)">
                                        <path d="M22.0461667,66.7954048 C21.661619,66.7954048 21.2866667,66.6448333 21.0061905,66.3665714 L12.1431429,57.5603571 C11.7556429,57.1750714 11.6117143,56.6074762 11.7704048,56.0849048 C13.910881,49.0235476 16.6890714,41.9732619 20.0282143,35.130381 C23.3629286,28.2697857 27.5132381,19.7278095 33.1035714,13.7817143 C33.1050476,13.7802381 33.1072619,13.7787619 33.1087381,13.7765476 C45.6445476,0.5735 65.7768333,-0.00295238095 76.6585714,0.830357143 C77.3885476,0.886452381 77.9672143,1.46880952 78.018881,2.19878571 C78.779119,13.0790476 78.1052381,33.1759048 65.0520238,45.530881 C59.179,51.1064524 50.5130238,55.2242857 43.5498333,58.5331667 C36.6715238,61.8464762 29.5762143,64.6062143 22.4690952,66.7326667 C22.3303333,66.7747381 22.187881,66.7954048 22.0461667,66.7954048 Z M14.856381,56.0937619 L22.4617143,63.650381 C29.14,61.604381 35.8013095,58.9885714 42.275881,55.869381 C49.4095714,52.4793095 57.4872857,48.6412143 63.0207857,43.3874524 C74.7092619,32.324881 75.7315238,14.2769762 75.1535952,3.68457143 C64.5560238,3.04169048 46.4808095,3.9835 35.2514286,15.8070476 C29.9703571,21.4261667 25.9292857,29.7415476 22.6831429,36.4235238 C19.5447619,42.8530714 16.9141905,49.4664048 14.856381,56.0937619 Z" id="Shape" stroke="#FF0000" fill="#FF0000"></path>
                                        <path d="M48.6987857,38.153619 C46.5922619,38.153619 44.485,37.3564762 42.881119,35.7629286 C41.3244762,34.215881 40.4668095,32.1580714 40.4668095,29.968881 C40.4668095,27.7796905 41.3244762,25.721881 42.881119,24.1748333 C46.0903571,20.987 51.3094286,20.9877381 54.5171905,24.1748333 C56.0745714,25.721881 56.9322381,27.7796905 56.9322381,29.968881 C56.9322381,32.1573333 56.0745714,34.2151429 54.5179286,35.7621905 L54.5179286,35.7621905 C52.9133095,37.3572143 50.8060476,38.153619 48.6987857,38.153619 Z M48.6987857,24.7350476 C47.345119,24.7350476 45.9921905,25.2465476 44.9618095,26.2702857 C43.9668571,27.2585952 43.4191905,28.5724048 43.4191905,29.969619 C43.4191905,31.3668333 43.9668571,32.6799048 44.9625476,33.6689524 C47.0233095,35.7164286 50.3764762,35.7156905 52.4357619,33.6689524 L52.4365,33.6689524 C53.4314524,32.6806429 53.9798571,31.3660952 53.9798571,29.969619 C53.9798571,28.5724048 53.4314524,27.2585952 52.4365,26.2702857 C51.406119,25.2465476 50.0524524,24.7350476 48.6987857,24.7350476 Z" id="Shape" stroke="#262626" fill="#262626"></path>
                                        <path d="M16.3827619,47.561381 C16.3436429,47.561381 16.3045238,47.5599048 16.2639286,47.5569524 L1.47766667,46.3782143 C1.03038095,46.3427857 0.623690476,46.105119 0.372,45.733119 C0.120309524,45.361119 0.0516666667,44.8946429 0.186,44.4665476 C0.679785714,42.8877619 5.66561905,28.7857143 28.5295952,19.5757619 C29.109,19.3410476 29.7755,19.499 30.1888333,19.9706429 C30.6029048,20.4408095 30.6737619,21.1213333 30.3674524,21.6675238 C30.1799762,22.001881 29.8810476,22.2373333 29.5415238,22.3502619 C11.8309286,29.5090476 5.60288095,39.4814524 3.70154762,43.5926429 L16.4986429,44.6126905 C17.3112857,44.6776429 17.9172619,45.3891667 17.8530476,46.2018095 C17.7910476,46.9753333 17.1452143,47.561381 16.3827619,47.561381 Z" id="Path" stroke="#FF0000" fill="#FF0000"></path>
                                        <path d="M33.8069762,78.3871905 C33.5146905,78.3871905 33.2260952,78.3008333 32.9788333,78.1332857 C32.6083095,77.8823333 32.372119,77.476381 32.3359524,77.0298333 L31.1498333,62.3432143 C31.0841429,61.5305714 31.689381,60.8183095 32.5020238,60.752619 C33.3183571,60.6825 34.0261905,61.2929048 34.091881,62.1055476 L35.1193095,74.8155476 C39.2400952,72.9393095 49.2737619,66.7754762 56.4871667,49.2169286 C56.5779524,48.887 56.7831429,48.5865952 57.0909286,48.3814048 C57.1418571,48.3474524 57.2090238,48.3090714 57.2636429,48.2817619 C57.8120476,48.0071905 58.4763333,48.1009286 58.9273095,48.5194286 C59.3782857,48.9379286 59.5229524,49.5911429 59.2904524,50.1602143 C50.0192381,72.8802619 35.8293571,77.8321429 34.2417143,78.3222381 C34.0992619,78.3650476 33.953119,78.3871905 33.8069762,78.3871905 Z" id="Path" stroke="#FF0000" fill="#FF0000"></path>
                                        <path d="M74.159381,28.8868333 C73.7829524,28.8868333 73.4065238,28.744381 73.1194048,28.458 L50.2391905,5.72614286 C49.6605238,5.15116667 49.6575714,4.2167381 50.2318095,3.63807143 C50.8060476,3.05940476 51.7419524,3.05719048 52.3191429,3.63142857 L75.198619,26.3632857 C75.7772857,26.9382619 75.7802381,27.8726905 75.206,28.4513571 C74.9181429,28.7414286 74.5380238,28.8868333 74.159381,28.8868333 Z" id="Path" stroke="#FF0000" fill="#FF0000"></path>
                                    </g>
                                    <g transform="translate(0.000000, 60.523810)" fill="#262626" id="Path" stroke="#262626">
                                        <path d="M2.36485714,31.0044286 C1.99580952,31.0044286 1.62602381,30.8664048 1.33890476,30.589619 C0.752857143,30.0235 0.736619048,29.0890714 1.3027381,28.5022857 L21.5162143,7.57433333 C22.0838095,6.98902381 23.0167619,6.97204762 23.6035476,7.53816667 C24.1895952,8.10428571 24.2058333,9.03871429 23.6397143,9.6255 L3.42697619,30.5541905 C3.13690476,30.8538571 2.75161905,31.0044286 2.36485714,31.0044286 Z"></path>
                                        <path d="M16.5886905,31.8871905 C16.2395714,31.8871905 15.8904524,31.7639286 15.6092381,31.5144524 C14.9995714,30.9726905 14.9449524,30.0397381 15.4859762,29.4300714 L28.5864286,14.6851429 C29.1289286,14.0762143 30.0604048,14.0208571 30.6700714,14.561881 C31.2797381,15.1036429 31.3343571,16.0365952 30.7933333,16.6462619 L17.692881,31.3911905 C17.4005952,31.7196429 16.995381,31.8871905 16.5886905,31.8871905 Z"></path>
                                        <path d="M1.47545238,17.755619 C1.12633333,17.755619 0.777214286,17.6323571 0.496,17.382881 C-0.113666667,16.841119 -0.168285714,15.9081667 0.372738095,15.2985 L13.4739286,0.553571429 C14.0156905,-0.0553571429 14.9479048,-0.110714286 15.5575714,0.430309524 C16.1672381,0.972071429 16.2218571,1.90502381 15.6808333,2.51469048 L2.57964286,17.259619 C2.28809524,17.5880714 1.88288095,17.755619 1.47545238,17.755619 Z"></path>
                                    </g>
                                </g>
                            </g>
                        </g>
                    </g>
                </g>
            </g>
        </g>
    </g>
</svg>