<?xml version="1.0" encoding="UTF-8"?>
<svg width="119px" height="100px" viewBox="0 0 119 100" version="1.1" xmlns="http://www.w3.org/2000/svg" xmlns:xlink="http://www.w3.org/1999/xlink">
    <!-- Generator: Sketch 63.1 (92452) - https://sketch.com -->
    <title>Group 21</title>
    <desc>Created with Sketch.</desc>
    <g id="Page-1" stroke="none" stroke-width="1" fill="none" fill-rule="evenodd">
        <g id="Microservice-Arcitecture" transform="translate(-241.000000, -4918.000000)" fill-rule="nonzero">
            <g id="CCO-Through-Gov" transform="translate(240.000000, 2628.000000)">
                <g id="1" transform="translate(1.000000, 193.000000)">
                    <g id="Group-6" transform="translate(0.000000, 2097.000000)">
                        <g id="Group-21">
                            <g id="blob-shape" opacity="0.49546596" fill="#FFB4BC">
                                <path d="M113.820005,13.2000005 C122.190005,24.090001 118.950005,43.8900017 113.490005,61.3200024 C108.060004,78.7800031 100.380004,93.8700037 89.0100035,98.1600039 C77.6400031,102.480004 62.5500025,96.0000038 45.7500018,89.3100035 C28.9500012,82.6500033 10.4700004,75.810003 3.42000014,61.5900024 C-3.63000014,47.3400019 0.75000003,25.740001 12.9900005,13.9500006 C25.200001,2.16000009 45.3000018,0.180000007 65.3700026,0.209667361 C85.4100034,0.24000001 105.420004,2.28000009 113.820005,13.2000005 Z" id="Path"></path>
                            </g>
                            <g id="life-insurance" transform="translate(13.000000, 4.000000)">
                                <path d="M70.37,10.3075 L47.12,0.1302 C46.7246717,-0.0423353794 46.2753283,-0.0423353794 45.88,0.1302 L22.63,10.3075 C22.0654041,10.5539098 21.7,11.1112755 21.7,11.7273 L21.7,36.0623 C21.7084029,41.5311999 24.3364069,46.6650287 28.768,49.8697 L44.83685,61.45905 C45.8292714,62.1773806 47.1707286,62.1773806 48.16315,61.45905 L64.232,49.87125 C68.6635931,46.6665787 71.2915971,41.5327499 71.3,36.06385 L71.3,11.7273 C71.3,11.1112755 70.9345959,10.5539098 70.37,10.3075 Z M68.2,36.06385 C68.1929004,40.5370086 66.0432568,44.7360174 62.4185,47.35715 L46.5,58.838 L30.5815,47.35715 C26.9567432,44.7360174 24.8070996,40.5370086 24.8,36.06385 L24.8,12.741 L46.5,3.2426 L68.2,12.741 L68.2,36.06385 Z" id="Shape" fill="#FF0000"></path>
                                <path d="M45.88,6.8975 L28.83,14.3623 C28.2654041,14.6087098 27.9,15.1660755 27.9,15.7821 L27.9,36.06385 C27.9047833,39.5415125 29.5762884,42.8061349 32.395,44.84305 L45.59325,54.36315 C46.1346752,54.7536812 46.8653248,54.7536812 47.40675,54.36315 L60.605,44.84305 C63.4237116,42.8061349 65.0952167,39.5415125 65.1,36.06385 L65.1,15.7821 C65.1,15.1660755 64.7345959,14.6087098 64.17,14.3623 L47.12,6.8975 C46.7246717,6.72496462 46.2753283,6.72496462 45.88,6.8975 Z M62,16.79425 L62,36.06385 C61.9952542,38.5454648 60.8023869,40.8747256 58.7915,42.32895 L46.5,51.19495 L34.2085,42.32895 C32.1976131,40.8747256 31.0047458,38.5454648 31,36.06385 L31,16.79425 L46.5,10.0099 L62,16.79425 Z" id="Shape" fill="#FF0000"></path>
                                <path d="M12.84175,51.46 L9.4891,43.6263 C8.77613188,42.0112541 7.25570542,40.899254 5.50055055,40.7091795 C3.74539566,40.5191052 2.02216218,41.2798331 0.979975466,42.7048045 C-0.0622112425,44.1297761 -0.265018205,46.0025041 0.44795,47.61755 L6.5224,60.9801 C7.34190344,62.7890461 8.48195011,64.4347882 9.88745,65.8378 L19.4401,75.392 C18.9021097,75.9622168 18.6016852,76.7160498 18.6,77.5 L18.6,89.9 C18.6,91.6120827 19.9879173,93 21.7,93 L38.75,93 C40.4620827,93 41.85,91.6120827 41.85,89.9 L41.85,77.5 C41.85,75.7879173 40.4620827,74.4 38.75,74.4 L38.75,71.51545 C38.7974918,67.8445427 37.5998552,64.2658384 35.3524,61.36295 C34.0347433,59.6299198 32.2389686,58.3201304 30.18625,57.5949 C26.9216992,56.2232957 23.919403,54.296582 21.3125,51.9002 C18.8927118,49.9072635 15.45508,49.7286199 12.84175,51.46 Z M38.75,89.9 L21.7,89.9 L21.7,77.5 L38.75,77.5 L38.75,89.9 Z M32.93285,63.2989 C34.7395494,65.6528008 35.697135,68.5485004 35.65,71.51545 L35.65,74.4 L22.83305,74.4 L12.07915,63.6461 C10.9370066,62.5055742 10.0102179,61.168163 9.3434,59.69825 L3.26895,46.3357 C3.00971757,45.7653724 3.05796381,45.1024121 3.39703757,44.5756256 C3.73611134,44.0488391 4.31957176,43.7301494 4.94605,43.7301494 C5.68330214,43.7295542 6.34959261,44.1694767 6.63865,44.8477 L10.106,52.93405 C11.0267336,55.0914993 12.3538786,57.0516957 14.0151,58.7078 L21.0955,65.78975 C21.4846655,66.1926827 22.0609607,66.3542795 22.6028863,66.2124307 C23.144812,66.0705816 23.5680316,65.647362 23.7098807,65.1054363 C23.8517295,64.5635107 23.6901327,63.9872155 23.2872,63.59805 L16.2068,56.5161 C15.4948281,55.8058469 14.8546767,55.0270741 14.29565,54.1911 C15.7841711,53.0456824 17.8665879,53.0804001 19.3161,54.2748 C22.2135809,56.9339102 25.5624301,59.0544983 29.2051,60.5368 C30.6892551,61.0765026 31.9844275,62.0361688 32.93285,63.2989 Z" id="Shape" fill="#262626"></path>
                                <path d="M34.1,82.15 L32.55,82.15 C31.6939587,82.15 31,82.8439587 31,83.7 C31,84.5560413 31.6939587,85.25 32.55,85.25 L34.1,85.25 C34.9560413,85.25 35.65,84.5560413 35.65,83.7 C35.65,82.8439587 34.9560413,82.15 34.1,82.15 Z" id="Shape" fill="#FF0000"></path>
                                <path d="M86.4776,60.9801 L92.55205,47.61755 C93.2989395,45.9970424 93.1141631,44.0997407 92.0686346,42.653795 C91.0231061,41.2078491 89.2792458,40.4378835 87.5063156,40.6393965 C85.7333855,40.8409097 84.2068057,41.9825971 83.51245,43.6263 L80.16755,51.43055 C77.545143,49.7076892 74.1058057,49.8962839 71.6875,51.89555 C69.080597,54.291932 66.0783008,56.2186457 62.81375,57.59025 C60.7610314,58.3154804 58.9652567,59.6252698 57.6476,61.3583 C55.3991468,64.2624414 54.2014534,67.8429546 54.25,71.51545 L54.25,74.4 C52.5379173,74.4 51.15,75.7879173 51.15,77.5 L51.15,89.9 C51.15,91.6120827 52.5379173,93 54.25,93 L71.3,93 C73.0120827,93 74.4,91.6120827 74.4,89.9 L74.4,77.5 C74.3983148,76.7160498 74.0978903,75.9622168 73.5599,75.392 L83.11255,65.8378 C84.5180499,64.4347882 85.6580966,62.7890461 86.4776,60.9801 Z M71.3,89.9 L54.25,89.9 L54.25,77.5 L71.3,77.5 L71.3,89.9 Z M70.16695,74.4 L57.35,74.4 L57.35,71.51545 C57.303216,68.5490293 58.2607831,65.6539323 60.06715,63.30045 C61.0134659,62.0385395 62.3057584,61.078474 63.78715,60.5368 C67.4305062,59.0549279 70.7799373,56.934304 73.6777,54.2748 C75.1256291,53.0713182 77.2138998,53.0307754 78.70745,54.17715 C78.1467897,55.019287 77.5034491,55.8033423 76.787,56.51765 L69.7066,63.5996 C69.1191931,64.2077873 69.1275938,65.1745314 69.7254812,65.7724188 C70.3233686,66.3703062 71.2901127,66.3787069 71.8983,65.7913 L78.9787,58.70935 C80.6399213,57.0532457 81.9670664,55.0930493 82.8878,52.9356 L86.35515,44.8477 C86.6450113,44.1703585 87.310993,43.7312497 88.04775,43.7316997 C88.6742282,43.7316997 89.2576887,44.0503891 89.5967625,44.5771756 C89.9358362,45.1039621 89.9840824,45.7669224 89.72485,46.33725 L83.6504,59.6998 C82.9835821,61.1697131 82.0567934,62.5071242 80.91465,63.64765 L70.16695,74.4 Z" id="Shape" fill="#262626"></path>
                                <path d="M60.45,82.15 L58.9,82.15 C58.0439587,82.15 57.35,82.8439587 57.35,83.7 C57.35,84.5560413 58.0439587,85.25 58.9,85.25 L60.45,85.25 C61.3060413,85.25 62,84.5560413 62,83.7 C62,82.8439587 61.3060413,82.15 60.45,82.15 Z" id="Shape" fill="#FF0000"></path>
                                <path d="M38.13,32.86 C37.4451669,32.3463753 36.4736249,32.4851669 35.96,33.17 C35.4463753,33.8548331 35.5851669,34.8263751 36.27,35.34 L42.47,39.99 C42.7382991,40.1912243 43.0646262,40.3 43.4,40.3 C43.4877533,40.2997081 43.575345,40.292452 43.66195,40.2783 C44.0817368,40.2062679 44.4533856,39.9646684 44.6896,39.61025 L57.0896,21.01025 C57.3969377,20.5495203 57.4351331,19.9598257 57.1897984,19.4632987 C56.9444636,18.9667715 56.4528709,18.6388461 55.9001984,18.6030487 C55.3475259,18.5672513 54.8177377,18.8290203 54.5104,19.28975 L43.0187,36.5273 L38.13,32.86 Z" id="Shape" fill="#FF0000"></path>
                            </g>
                        </g>
                    </g>
                </g>
            </g>
        </g>
    </g>
</svg>