<?xml version="1.0" encoding="UTF-8"?>
<svg width="119px" height="101px" viewBox="0 0 119 101" version="1.1" xmlns="http://www.w3.org/2000/svg" xmlns:xlink="http://www.w3.org/1999/xlink">
    <!-- Generator: Sketch 63.1 (92452) - https://sketch.com -->
    <title>Group 21</title>
    <desc>Created with Sketch.</desc>
    <g id="Page-1" stroke="none" stroke-width="1" fill="none" fill-rule="evenodd">
        <g id="Microservice-Arcitecture" transform="translate(-247.000000, -3104.000000)" fill-rule="nonzero">
            <g id="CCO-Through-Gov" transform="translate(240.000000, 2628.000000)">
                <g id="1" transform="translate(1.000000, 193.000000)">
                    <g id="Group-6" transform="translate(6.000000, 283.000000)">
                        <g id="Group-21">
                            <g id="blob-shape" opacity="0.49546596" fill="#FFB4BC">
                                <path d="M113.820005,13.2000005 C122.190005,24.090001 118.950005,43.8900017 113.490005,61.3200024 C108.060004,78.7800031 100.380004,93.8700037 89.0100035,98.1600039 C77.6400031,102.480004 62.5500025,96.0000038 45.7500018,89.3100035 C28.9500012,82.6500033 10.4700004,75.810003 3.42000014,61.5900024 C-3.63000014,47.3400019 0.75000003,25.740001 12.9900005,13.9500006 C25.200001,2.16000009 45.3000018,0.180000007 65.3700026,0.209667361 C85.4100034,0.24000001 105.420004,2.28000009 113.820005,13.2000005 Z" id="Path"></path>
                            </g>
                            <g id="scale" transform="translate(15.000000, 7.000000)" stroke-width="0.3">
                                <path d="M88.0201406,5.50025977 C87.7037227,5.15677734 87.234,4.99893164 86.7739043,5.08248633 L74.7819902,7.26290039 C74.041623,7.39749609 73.5504668,8.10698437 73.6850625,8.84735156 C73.8196582,9.58790039 74.5280566,10.0792383 75.2695137,9.9442793 L83.1007676,8.52039844 L64.0088848,23.5211895 C63.4170996,23.9861895 63.3144727,24.8429883 63.779291,25.4345918 C64.0481191,25.7766211 64.4479102,25.9553555 64.8516973,25.9553555 C65.1465,25.9553555 65.4431191,25.8601758 65.6926934,25.6641855 L84.3824238,10.9794492 L82.4310586,18.2430762 C82.2357949,18.970002 82.6666465,19.7174531 83.3933906,19.9127168 C83.512002,19.9445039 83.6307949,19.9597617 83.7479531,19.9597617 C84.3493652,19.9597617 84.8997363,19.5585176 85.0630313,18.9503848 L88.3334707,6.77683008 C88.4549883,6.32563477 88.336377,5.84392383 88.0201406,5.50025977 Z" id="Path" stroke="#262626" fill="#262626"></path>
                                <path d="M21.9154863,42.307916 L21.9154863,2.72533594 L31.9643906,2.72533594 C32.7169277,2.72533594 33.3270586,2.11538672 33.3270586,1.36266797 C33.3270586,0.609949219 32.7169277,0 31.964209,0 L20.5526367,0 C19.8000996,0 19.1899687,0.609949219 19.1899687,1.36266797 L19.1899687,42.307916 M50.7422168,61.5936094 L91.5868359,61.5936094 C92.3395547,61.5936094 92.9495039,60.9836602 92.9495039,60.2309414 L92.9495039,1.36266797 C92.9495039,0.609949219 92.339373,0 91.5868359,0 L41.5940684,0 C40.8415312,0 40.2314004,0.609949219 40.2314004,1.36266797 C40.2314004,2.11538672 40.8415312,2.72533594 41.5940684,2.72533594 L90.2239863,2.72533594 L90.2239863,58.8684551 L50.7423984,58.8684551" id="Shape" stroke="#FF0000" fill="#FF0000"></path>
                                <path d="M50.7425801,58.8684551 L50.7425801,43.670584 C50.7425801,42.9178652 50.1324492,42.307916 49.3797305,42.307916 L21.9154863,42.307916 L19.1899688,42.307916 L1.41316406,42.307916 C0.660626953,42.307916 0.0504960938,42.9178652 0.0504960938,43.670584 L0.0504960938,91.6371504 C0.0504960938,92.3898691 0.660626953,92.9998184 1.41316406,92.9998184 L49.3799121,92.9998184 C50.1326309,92.9998184 50.7425801,92.3898691 50.7425801,91.6371504 L50.7425801,84.099791 C50.7425801,83.3470723 50.1326309,82.737123 49.3799121,82.737123 C48.6271934,82.737123 48.0172441,83.3470723 48.0172441,84.099791 L48.0172441,90.2744824 L2.77565039,90.2744824 L2.77565039,45.033252 L48.0168809,45.033252 L48.0168809,74.3306133 C48.0168809,75.083332 48.6268301,75.6932813 49.3795488,75.6932813 C50.1322676,75.6932813 50.7425801,75.083332 50.7425801,74.3306133 L50.7425801,61.5936094 L50.7425801,58.8684551 Z" id="Path" stroke="#262626" fill="#262626"></path>
                            </g>
                        </g>
                    </g>
                </g>
            </g>
        </g>
    </g>
</svg>