<?xml version="1.0" encoding="UTF-8"?>
<svg width="128px" height="121px" viewBox="0 0 128 121" version="1.1" xmlns="http://www.w3.org/2000/svg" xmlns:xlink="http://www.w3.org/1999/xlink">
    <!-- Generator: Sketch 63.1 (92452) - https://sketch.com -->
    <title>dynamic_vs_static</title>
    <desc>Created with Sketch.</desc>
    <g id="Page-1" stroke="none" stroke-width="1" fill="none" fill-rule="evenodd">
        <g id="dynamic_vs_static" transform="translate(-4.000000, -3.000000)" fill-rule="nonzero">
            <g id="Group-18">
                <path d="M112.643425,14.3982323 C122.764992,23.5001537 127.664128,38.2377854 125.624894,50.6812342 C123.585659,63.1246829 114.632922,73.2240752 107.943239,84.4954957 C101.253555,95.7669162 96.8766613,108.235302 87.0783883,116.489373 C77.2552467,124.743444 61.9858568,128.808138 49.6509752,124.46914 C37.2912248,120.130141 27.8659825,107.412388 20.2561563,93.7969113 C12.6214614,80.1814343 6.85192,65.7181071 8.1948305,51.5540211 C9.56260972,37.3899352 18.0925783,23.5250905 29.8803483,14.7224103 C41.6681183,5.91973015 56.7634271,2.17921449 71.9582108,2.0046571 C87.1778632,1.85503647 102.521859,5.29631087 112.643425,14.3982323 Z" id="Path" fill="#FFCCCD" opacity="0.300000012" transform="translate(67.040001, 64.115001) rotate(-94.000000) translate(-67.040001, -64.115001) "></path>
                <g id="cloud-(1)" transform="translate(6.000000, 3.000000)">
                    <path d="M35.2952676,7.20618436 C22.8131935,11.9680705 16.1082731,25.4210424 19.5884142,38.1309202 L19.633,38.29 L19.483117,38.3083785 C8.61931876,39.7033819 0.335436409,49.0638503 0.502478648,60.2376798 C0.681241052,72.1253893 10.3587574,81.6734614 22.2477396,81.6926167 L49.0889112,81.6926167 L55.1797557,80.6062007 L54.9309909,79.1398015 C54.6449265,77.4535318 54.4999966,75.7362793 54.4999966,74 C54.4999966,57.1553151 68.1553151,43.5 84.9999966,43.5 C99.7672621,43.5 112.340411,54.0708539 114.991534,68.4229082 L115.262455,69.8895575 L118.222776,69.3601816 L118.776474,68.2468973 C120.333163,65.028945 121.149067,61.5070091 121.149067,57.8720328 C121.149067,44.7164917 110.483698,34.051449 97.3284836,34.051449 L96.7341186,34.0588476 C95.9420676,34.0785719 95.1520209,34.1377119 94.3671212,34.236006 L94.039,34.281 L94.0007212,34.1404414 C92.4977664,28.8939878 88.8755806,24.4769952 83.9659714,21.984575 L83.5885894,21.7979841 C78.7893135,19.488365 73.2750754,19.2258408 68.3010521,21.0330029 L68.211,21.067 L68.1585537,20.9442666 C62.7386173,8.57766091 48.5686508,2.3837689 35.6955878,7.05717143 L35.2952676,7.20618436 Z" id="Combined-Shape" fill="#D03D39"></path>
                    <path d="M39.2952676,2.20618436 C26.8131935,6.96807052 20.1082731,20.4210424 23.5884142,33.1309202 L23.633,33.29 L23.483117,33.3083785 C12.6193188,34.7033819 4.33543641,44.0638503 4.50247865,55.2376798 C4.68124105,67.1253893 14.3587574,76.6734614 26.2477396,76.6926167 L53.0889112,76.6926167 L59.1797557,75.6062007 L58.9309909,74.1398015 C58.6449265,72.4535318 58.4999966,70.7362793 58.4999966,69 C58.4999966,52.1553151 72.1553151,38.5 88.9999966,38.5 C103.767262,38.5 116.340411,49.0708539 118.991534,63.4229082 L119.262455,64.8895575 L122.222776,64.3601816 L122.776474,63.2468973 C124.333163,60.028945 125.149067,56.5070091 125.149067,52.8720328 C125.149067,39.7164917 114.483698,29.051449 101.328484,29.051449 L100.734119,29.0588476 C99.9420676,29.0785719 99.1520209,29.1377119 98.3671212,29.236006 L98.039,29.281 L98.0007212,29.1404414 C96.4977664,23.8939878 92.8755806,19.4769952 87.9659714,16.984575 L87.5885894,16.7979841 C82.7893135,14.488365 77.2750754,14.2258408 72.3010521,16.0330029 L72.211,16.067 L72.1585537,15.9442666 C66.7386173,3.57766091 52.5686508,-2.6162311 39.6955878,2.05717143 L39.2952676,2.20618436 Z M69.9698235,18.5456394 L70.5272973,20.081222 L72.0098401,19.3950313 C76.6599733,17.2427307 82.0400319,17.3401849 86.607852,19.6595538 C91.1771917,21.9792323 94.4312952,26.2646587 95.4377874,31.2880289 L95.7330275,32.7615623 L97.2060038,32.4635553 C98.5607679,32.1894646 99.9423151,32.051449 101.328484,32.051449 C112.826864,32.051449 122.149067,41.3733665 122.149067,52.8720328 L122.142482,53.4010459 C122.094237,55.3369975 121.781383,57.2303578 121.220256,59.0416009 L121.104,59.401 L121.037707,59.1771998 C116.804061,45.3262789 103.922705,35.5 89.0000014,35.5 C70.4984609,35.5 55.5000014,50.4984609 55.5000014,69 L55.5074495,69.7132825 C55.5273045,70.6630355 55.5868066,71.6074844 55.6854526,72.5449141 L55.757,73.168 L52.821,73.6926167 L26.2501561,73.6926167 C16.0009455,73.6761031 7.656282,65.443056 7.50214149,55.1927043 C7.34891318,44.9429188 15.442674,36.4625836 25.6882112,36.138712 L27.7572029,36.0733091 L27.0507667,34.1275569 C22.7479801,22.276299 28.8677369,9.17966282 40.719325,4.87709382 C52.5713902,0.574351575 65.6671805,6.69384751 69.9698235,18.5456394 Z" id="Combined-Shape" fill="#000000"></path>
                </g>
                <g id="timer" transform="translate(67.000000, 48.000000)" fill="#000000">
                    <path d="M28.1137194,36.4635592 C28.1666394,36.2588392 28.2399594,36.0610792 28.2399594,35.8399192 C28.2399594,34.9048792 27.7108794,34.1204392 26.9599194,33.6735592 L26.9599194,19.1999996 C26.9599194,18.4924796 26.3873994,17.9199596 25.6798794,17.9199596 C24.9723594,17.9199596 24.3998395,18.4924796 24.3998395,19.1999996 L24.3998395,33.6735592 C23.6488795,34.1204392 23.1197995,34.9049992 23.1197995,35.8399192 C23.1197995,37.2511192 24.2685595,38.3998791 25.6797594,38.3998791 C25.9007994,38.3998791 26.0987994,38.3264391 26.3036394,38.2735191 L33.7359592,45.704879 C33.9859192,45.954839 34.3135192,46.079879 34.6409992,46.079879 C34.9684792,46.079879 35.2959592,45.954839 35.5460392,45.704879 C36.0460792,45.204839 36.0460792,44.394839 35.5460392,43.894919 L28.1137194,36.4635592 Z" id="Path"></path>
                    <path d="M50.9049589,17.5449596 C51.4049989,17.0449196 51.4049989,16.2349196 50.9049589,15.7349996 L45.784919,10.6149598 C45.284879,10.1149198 44.474879,10.1149198 43.974959,10.6149598 L39.9763191,14.6135997 C37.2447592,12.7681197 34.1393992,11.4363597 30.7999193,10.7559598 L30.7999193,7.67999983 L32.0799593,7.67999983 C32.7874793,7.67999983 33.3599993,7.10747984 33.3599993,6.39995986 L33.3599993,1.28003997 C33.3599993,0.572519987 32.7874793,0 32.0799593,0 L19.2800396,0 C18.5725196,0 17.9999996,0.572519987 17.9999996,1.28003997 L17.9999996,6.40007986 C17.9999996,7.10747984 18.5725196,7.67999983 19.2800396,7.67999983 L20.5600795,7.67999983 L20.5600795,10.7559598 C17.2205996,11.4364797 14.1152397,12.7681197 11.3836797,14.6135997 L7.38503983,10.6149598 C6.88499985,10.1149198 6.07499986,10.1149198 5.57507988,10.6149598 L0.45503999,15.7349996 C-0.044999999,16.2350396 -0.044999999,17.0450396 0.45503999,17.5449596 L4.4536799,21.5435995 C1.69355996,25.6287594 0.0800099982,30.5493593 0.0800099982,35.8400392 C0.0800099982,49.9562389 11.5637997,61.4399986 25.6799994,61.4399986 C39.7961991,61.4399986 51.2799889,49.9562389 51.2799889,35.8400392 C51.2799889,30.5493593 49.6665589,25.6287594 46.906319,21.5435995 L50.9049589,17.5449596 Z M44.879999,13.3299597 L48.1899589,16.6399196 L45.349679,19.4801996 C44.348999,18.2791196 43.240799,17.1707996 42.0397191,16.1702396 L44.879999,13.3299597 Z M20.5599595,2.55995994 L30.7999193,2.55995994 L30.7999193,5.11991989 L29.5199993,5.11991989 C28.8124794,5.11991989 28.2399594,5.69243987 28.2399594,6.39995986 L28.2399594,10.3696798 C27.3975594,10.2855598 26.5439994,10.2399598 25.6799994,10.2399598 C24.8159994,10.2399598 23.9623195,10.2855598 23.1200395,10.3696798 L23.1200395,6.39995986 C23.1200395,5.69243987 22.5475195,5.11991989 21.8399995,5.11991989 L20.5599595,5.11991989 L20.5599595,2.55995994 Z M3.17003993,16.6400396 L6.47999986,13.3299597 L9.32027979,16.1702396 C8.11919982,17.1709196 7.01087984,18.2791196 6.01031987,19.4801996 L3.17003993,16.6400396 Z M48.7199989,35.8400392 C48.7199989,48.5438389 38.3837991,58.8800387 25.6799994,58.8800387 C12.9761997,58.8800387 2.63999994,48.5438389 2.63999994,35.8400392 C2.63999994,23.1362395 12.9761997,12.8000397 25.6799994,12.8000397 C38.3837991,12.8000397 48.7199989,23.1362395 48.7199989,35.8400392 Z" id="Shape"></path>
                </g>
            </g>
        </g>
    </g>
</svg>