<?xml version="1.0" encoding="UTF-8"?>
<svg width="128px" height="121px" viewBox="0 0 128 121" version="1.1" xmlns="http://www.w3.org/2000/svg" xmlns:xlink="http://www.w3.org/1999/xlink">
    <!-- Generator: Sketch 63.1 (92452) - https://sketch.com -->
    <title>leveraging_sc</title>
    <desc>Created with Sketch.</desc>
    <g id="Page-1" stroke="none" stroke-width="1" fill="none" fill-rule="evenodd">
        <g id="leveraging_sc" transform="translate(-4.000000, -3.000000)" fill-rule="nonzero">
            <g id="Group-18">
                <path d="M112.643425,14.3982323 C122.764992,23.5001537 127.664128,38.2377854 125.624894,50.6812342 C123.585659,63.1246829 114.632922,73.2240752 107.943239,84.4954957 C101.253555,95.7669162 96.8766613,108.235302 87.0783883,116.489373 C77.2552467,124.743444 61.9858568,128.808138 49.6509752,124.46914 C37.2912248,120.130141 27.8659825,107.412388 20.2561563,93.7969113 C12.6214614,80.1814343 6.85192,65.7181071 8.1948305,51.5540211 C9.56260972,37.3899352 18.0925783,23.5250905 29.8803483,14.7224103 C41.6681183,5.91973015 56.7634271,2.17921449 71.9582108,2.0046571 C87.1778632,1.85503647 102.521859,5.29631087 112.643425,14.3982323 Z" id="Path" fill="#FFCCCD" opacity="0.300000012" transform="translate(67.040001, 64.115001) rotate(-94.000000) translate(-67.040001, -64.115001) "></path>
                <g id="cloud-(1)" transform="translate(6.000000, 3.000000)">
                    <path d="M35.2952676,7.20618436 C22.8131935,11.9680705 16.1082731,25.4210424 19.5884142,38.1309202 L19.633,38.29 L19.483117,38.3083785 C8.61931876,39.7033819 0.335436409,49.0638503 0.502478648,60.2376798 C0.681241052,72.1253893 10.3587574,81.6734614 22.2477396,81.6926167 L49.0889112,81.6926167 L55.1797557,80.6062007 L54.9309909,79.1398015 C54.6449265,77.4535318 54.4999966,75.7362793 54.4999966,74 C54.4999966,57.1553151 68.1553151,43.5 84.9999966,43.5 C99.7672621,43.5 112.340411,54.0708539 114.991534,68.4229082 L115.262455,69.8895575 L118.222776,69.3601816 L118.776474,68.2468973 C120.333163,65.028945 121.149067,61.5070091 121.149067,57.8720328 C121.149067,44.7164917 110.483698,34.051449 97.3284836,34.051449 L96.7341186,34.0588476 C95.9420676,34.0785719 95.1520209,34.1377119 94.3671212,34.236006 L94.039,34.281 L94.0007212,34.1404414 C92.4977664,28.8939878 88.8755806,24.4769952 83.9659714,21.984575 L83.5885894,21.7979841 C78.7893135,19.488365 73.2750754,19.2258408 68.3010521,21.0330029 L68.211,21.067 L68.1585537,20.9442666 C62.7386173,8.57766091 48.5686508,2.3837689 35.6955878,7.05717143 L35.2952676,7.20618436 Z" id="Combined-Shape" fill="#D03D39"></path>
                    <path d="M39.2952676,2.20618436 C26.8131935,6.96807052 20.1082731,20.4210424 23.5884142,33.1309202 L23.633,33.29 L23.483117,33.3083785 C12.6193188,34.7033819 4.33543641,44.0638503 4.50247865,55.2376798 C4.68124105,67.1253893 14.3587574,76.6734614 26.2477396,76.6926167 L53.0889112,76.6926167 L59.1797557,75.6062007 L58.9309909,74.1398015 C58.6449265,72.4535318 58.4999966,70.7362793 58.4999966,69 C58.4999966,52.1553151 72.1553151,38.5 88.9999966,38.5 C103.767262,38.5 116.340411,49.0708539 118.991534,63.4229082 L119.262455,64.8895575 L122.222776,64.3601816 L122.776474,63.2468973 C124.333163,60.028945 125.149067,56.5070091 125.149067,52.8720328 C125.149067,39.7164917 114.483698,29.051449 101.328484,29.051449 L100.734119,29.0588476 C99.9420676,29.0785719 99.1520209,29.1377119 98.3671212,29.236006 L98.039,29.281 L98.0007212,29.1404414 C96.4977664,23.8939878 92.8755806,19.4769952 87.9659714,16.984575 L87.5885894,16.7979841 C82.7893135,14.488365 77.2750754,14.2258408 72.3010521,16.0330029 L72.211,16.067 L72.1585537,15.9442666 C66.7386173,3.57766091 52.5686508,-2.6162311 39.6955878,2.05717143 L39.2952676,2.20618436 Z M69.9698235,18.5456394 L70.5272973,20.081222 L72.0098401,19.3950313 C76.6599733,17.2427307 82.0400319,17.3401849 86.607852,19.6595538 C91.1771917,21.9792323 94.4312952,26.2646587 95.4377874,31.2880289 L95.7330275,32.7615623 L97.2060038,32.4635553 C98.5607679,32.1894646 99.9423151,32.051449 101.328484,32.051449 C112.826864,32.051449 122.149067,41.3733665 122.149067,52.8720328 L122.142482,53.4010459 C122.094237,55.3369975 121.781383,57.2303578 121.220256,59.0416009 L121.104,59.401 L121.037707,59.1771998 C116.804061,45.3262789 103.922705,35.5 89.0000014,35.5 C70.4984609,35.5 55.5000014,50.4984609 55.5000014,69 L55.5074495,69.7132825 C55.5273045,70.6630355 55.5868066,71.6074844 55.6854526,72.5449141 L55.757,73.168 L52.821,73.6926167 L26.2501561,73.6926167 C16.0009455,73.6761031 7.656282,65.443056 7.50214149,55.1927043 C7.34891318,44.9429188 15.442674,36.4625836 25.6882112,36.138712 L27.7572029,36.0733091 L27.0507667,34.1275569 C22.7479801,22.276299 28.8677369,9.17966282 40.719325,4.87709382 C52.5713902,0.574351575 65.6671805,6.69384751 69.9698235,18.5456394 Z" id="Combined-Shape" fill="#000000"></path>
                    <g id="Group-17" transform="translate(63.000000, 47.000000)" fill="#000000" stroke="#000000">
                        <g id="businessman">
                            <path d="M24.5759993,10.6199997 C16.8683135,10.6199997 10.6199997,16.8683135 10.6199997,24.5759993 C10.6199997,32.283685 16.8683135,38.5319988 24.5759993,38.5319988 C32.283685,38.5319988 38.5319988,32.283685 38.5319988,24.5759993 C38.5319988,16.8683135 32.283685,10.6199997 24.5759993,10.6199997 Z M24.5759993,12.4199996 C31.2895725,12.4199996 36.7319989,17.862426 36.7319989,24.5759993 C36.7319989,31.2895725 31.2895725,36.7319989 24.5759993,36.7319989 C17.862426,36.7319989 12.4199996,31.2895725 12.4199996,24.5759993 C12.4199996,17.862426 17.862426,12.4199996 24.5759993,12.4199996 Z" id="XMLID_1164_"></path>
                            <g id="XMLID_58_">
                                <path d="M47.2319986,19.3919994 L44.3966387,19.3919994 C43.9246067,17.5768315 43.2074867,15.8445115 42.2578547,14.2254716 L44.2618547,12.2214716 C45.0104627,11.4728637 45.0104627,10.2548157 44.2618547,9.50611172 L39.6458868,4.89014385 C38.8972788,4.14163188 37.6793269,4.14153588 36.9306229,4.89014385 L34.926527,6.89414379 C33.307487,5.94451182 31.5751671,5.22739184 29.7599991,4.75535986 L29.7599991,1.91999994 C29.7599991,0.861311974 28.8986871,0 27.8399992,0 L21.3119994,0 C20.2533114,0 19.3919994,0.861311974 19.3919994,1.91999994 L19.3919994,4.76169586 C17.5795195,5.23545584 15.8505595,5.95324782 14.2343996,6.90316779 L12.2214716,4.89023985 C11.4727677,4.14163188 10.2548157,4.14172788 9.50611172,4.89023985 L4.89014385,9.50611172 C4.14153588,10.2547197 4.14153588,11.4727677 4.89014385,12.2213756 L6.90969579,14.2410236 C5.96428782,15.8559355 5.25023984,17.5826875 4.77974386,19.3919994 L1.91999994,19.3919994 C0.861311974,19.3919994 0,20.2533114 0,21.3119994 L0,27.8399992 C0,28.8986871 0.861311974,29.7599991 1.91999994,29.7599991 L4.78598386,29.7599991 C5.25811184,31.5663351 5.97302382,33.290207 6.91852779,34.902143 L4.89014385,36.9305269 C4.14153588,37.6791349 4.14153588,38.8971828 4.89014385,39.6458868 L9.50611172,44.2618547 C10.2548157,45.0104627 11.4727677,45.0105587 12.2213756,44.2618547 L14.2498556,42.2334707 C15.8617915,43.1789747 17.5856635,43.8937907 19.3919994,44.3659187 L19.3919994,47.2319986 C19.3919994,48.2906866 20.2533114,49.1519985 21.3119994,49.1519985 L27.8399992,49.1519985 C28.8986871,49.1519985 29.7599991,48.2906866 29.7599991,47.2319986 L29.7599991,44.3722547 C31.5693111,43.9017587 33.296063,43.1877107 34.910975,42.2423027 L36.9305269,44.2618547 C37.6792309,45.0104627 38.8971828,45.0103667 39.6458868,44.2618547 L44.2618547,39.6458868 C45.0104627,38.8972788 45.0104627,37.6792309 44.2618547,36.9306229 L42.2489267,34.917599 C43.1988467,33.301439 43.9166387,31.5724791 44.3903987,29.7599991 L47.2319986,29.7599991 C48.2906866,29.7599991 49.1519985,28.8986871 49.1519985,27.8399992 L49.1519985,21.3119994 C49.1519985,20.2533114 48.2906866,19.3919994 47.2319986,19.3919994 Z M47.2319986,27.8399992 L43.6345907,27.8399992 C43.1843507,27.8399992 42.7945907,28.1528632 42.6972467,28.5924471 C42.2279987,30.7115511 41.3966388,32.713919 40.2261108,34.543967 C39.9832308,34.923743 40.0372788,35.4213109 40.3559988,35.7400309 L42.9041267,38.2882549 L38.2881589,42.9042227 L35.7342709,40.3504308 C35.4159349,40.0320948 34.919327,39.9776628 34.539647,40.2195828 C32.709983,41.3852148 30.7094391,42.2123507 28.5935991,42.6780467 C28.1534392,42.7749107 27.8399032,43.1648627 27.8399032,43.6155827 L27.8399032,47.2319986 L21.3119034,47.2319986 L21.3119034,43.6102067 C21.3119034,43.1599667 20.9990394,42.7702067 20.5594554,42.6728627 C18.4463995,42.2049587 16.4488315,41.3765748 14.6222396,40.2106548 C14.4634556,40.1092788 14.2842236,40.0598388 14.1060476,40.0598388 C13.8580796,40.0598388 13.6122236,40.1557428 13.4269436,40.3410228 L10.8637437,42.9042227 L6.24777581,38.2882549 L8.81097574,35.7250549 C9.12950373,35.4065269 9.18364773,34.909439 8.94134373,34.529759 C7.77542377,32.703167 6.94703979,30.7055991 6.47903981,28.5925431 C6.38169581,28.1529592 5.99193582,27.8400952 5.54169583,27.8400952 L1.91999994,27.8400952 L1.91999994,21.3120954 L5.53641584,21.3120954 C5.98713582,21.3120954 6.37708781,20.9985594 6.47395181,20.5583994 C6.93964779,18.4424635 7.76678377,16.4420155 8.93241573,14.6123516 C9.17423973,14.2326716 9.11990373,13.7360636 8.80156774,13.4177276 L6.24777581,10.8638397 L10.8637437,6.24787181 L13.4119676,8.79599974 C13.7306876,9.11471973 14.2283516,9.16876773 14.6080316,8.92588773 C16.4380795,7.75535977 18.4404475,6.92390379 20.5595514,6.45475181 C20.9991354,6.35740781 21.3119994,5.96764782 21.3119994,5.51740784 L21.3119994,1.91999994 L27.8399992,1.91999994 L27.8399992,5.51203184 C27.8399992,5.96275182 28.1535352,6.35270381 28.5936951,6.44956781 C30.7154871,6.91660779 32.720831,7.74671977 34.554047,8.91695973 C34.933823,9.15935973 35.4309109,9.10502373 35.7493429,8.78659174 L38.2881589,6.24777581 L42.9041267,10.8637437 L40.3653108,13.4025596 C40.0467828,13.7210876 39.9926388,14.2181756 40.2349428,14.5978556 C41.4051828,16.4311675 42.2352947,18.4365115 42.7023347,20.5582074 C42.7991987,20.9983674 43.1891507,21.3119034 43.6398707,21.3119034 L47.2319986,21.3119034 L47.2319986,27.8399992 Z" id="XMLID_82_"></path>
                            </g>
                        </g>
                    </g>
                </g>
            </g>
        </g>
    </g>
</svg>