<?xml version="1.0" encoding="UTF-8"?>
<svg width="128px" height="121px" viewBox="0 0 128 121" version="1.1" xmlns="http://www.w3.org/2000/svg" xmlns:xlink="http://www.w3.org/1999/xlink">
    <!-- Generator: Sketch 63.1 (92452) - https://sketch.com -->
    <title>management_of_lc</title>
    <desc>Created with Sketch.</desc>
    <g id="Page-1" stroke="none" stroke-width="1" fill="none" fill-rule="evenodd">
        <g id="management_of_lc" transform="translate(-4.000000, -3.000000)" fill-rule="nonzero">
            <g id="Group-18">
                <path d="M112.643425,14.3982323 C122.764992,23.5001537 127.664128,38.2377854 125.624894,50.6812342 C123.585659,63.1246829 114.632922,73.2240752 107.943239,84.4954957 C101.253555,95.7669162 96.8766613,108.235302 87.0783883,116.489373 C77.2552467,124.743444 61.9858568,128.808138 49.6509752,124.46914 C37.2912248,120.130141 27.8659825,107.412388 20.2561563,93.7969113 C12.6214614,80.1814343 6.85192,65.7181071 8.1948305,51.5540211 C9.56260972,37.3899352 18.0925783,23.5250905 29.8803483,14.7224103 C41.6681183,5.91973015 56.7634271,2.17921449 71.9582108,2.0046571 C87.1778632,1.85503647 102.521859,5.29631087 112.643425,14.3982323 Z" id="Path" fill="#FFCCCD" opacity="0.300000012" transform="translate(67.040001, 64.115001) rotate(-94.000000) translate(-67.040001, -64.115001) "></path>
                <g id="cloud-(1)" transform="translate(6.000000, 3.000000)">
                    <path d="M35.2952676,7.20618436 C22.8131935,11.9680705 16.1082731,25.4210424 19.5884142,38.1309202 L19.633,38.29 L19.483117,38.3083785 C8.61931876,39.7033819 0.335436409,49.0638503 0.502478648,60.2376798 C0.681241052,72.1253893 10.3587574,81.6734614 22.2477396,81.6926167 L49.0889112,81.6926167 L55.1797557,80.6062007 L54.9309909,79.1398015 C54.6449265,77.4535318 54.4999966,75.7362793 54.4999966,74 C54.4999966,57.1553151 68.1553151,43.5 84.9999966,43.5 C99.7672621,43.5 112.340411,54.0708539 114.991534,68.4229082 L115.262455,69.8895575 L118.222776,69.3601816 L118.776474,68.2468973 C120.333163,65.028945 121.149067,61.5070091 121.149067,57.8720328 C121.149067,44.7164917 110.483698,34.051449 97.3284836,34.051449 L96.7341186,34.0588476 C95.9420676,34.0785719 95.1520209,34.1377119 94.3671212,34.236006 L94.039,34.281 L94.0007212,34.1404414 C92.4977664,28.8939878 88.8755806,24.4769952 83.9659714,21.984575 L83.5885894,21.7979841 C78.7893135,19.488365 73.2750754,19.2258408 68.3010521,21.0330029 L68.211,21.067 L68.1585537,20.9442666 C62.7386173,8.57766091 48.5686508,2.3837689 35.6955878,7.05717143 L35.2952676,7.20618436 Z" id="Combined-Shape" fill="#D03D39"></path>
                    <path d="M39.2952676,2.20618436 C26.8131935,6.96807052 20.1082731,20.4210424 23.5884142,33.1309202 L23.633,33.29 L23.483117,33.3083785 C12.6193188,34.7033819 4.33543641,44.0638503 4.50247865,55.2376798 C4.68124105,67.1253893 14.3587574,76.6734614 26.2477396,76.6926167 L53.0889112,76.6926167 L59.1797557,75.6062007 L58.9309909,74.1398015 C58.6449265,72.4535318 58.4999966,70.7362793 58.4999966,69 C58.4999966,52.1553151 72.1553151,38.5 88.9999966,38.5 C103.767262,38.5 116.340411,49.0708539 118.991534,63.4229082 L119.262455,64.8895575 L122.222776,64.3601816 L122.776474,63.2468973 C124.333163,60.028945 125.149067,56.5070091 125.149067,52.8720328 C125.149067,39.7164917 114.483698,29.051449 101.328484,29.051449 L100.734119,29.0588476 C99.9420676,29.0785719 99.1520209,29.1377119 98.3671212,29.236006 L98.039,29.281 L98.0007212,29.1404414 C96.4977664,23.8939878 92.8755806,19.4769952 87.9659714,16.984575 L87.5885894,16.7979841 C82.7893135,14.488365 77.2750754,14.2258408 72.3010521,16.0330029 L72.211,16.067 L72.1585537,15.9442666 C66.7386173,3.57766091 52.5686508,-2.6162311 39.6955878,2.05717143 L39.2952676,2.20618436 Z M69.9698235,18.5456394 L70.5272973,20.081222 L72.0098401,19.3950313 C76.6599733,17.2427307 82.0400319,17.3401849 86.607852,19.6595538 C91.1771917,21.9792323 94.4312952,26.2646587 95.4377874,31.2880289 L95.7330275,32.7615623 L97.2060038,32.4635553 C98.5607679,32.1894646 99.9423151,32.051449 101.328484,32.051449 C112.826864,32.051449 122.149067,41.3733665 122.149067,52.8720328 L122.142482,53.4010459 C122.094237,55.3369975 121.781383,57.2303578 121.220256,59.0416009 L121.104,59.401 L121.037707,59.1771998 C116.804061,45.3262789 103.922705,35.5 89.0000014,35.5 C70.4984609,35.5 55.5000014,50.4984609 55.5000014,69 L55.5074495,69.7132825 C55.5273045,70.6630355 55.5868066,71.6074844 55.6854526,72.5449141 L55.757,73.168 L52.821,73.6926167 L26.2501561,73.6926167 C16.0009455,73.6761031 7.656282,65.443056 7.50214149,55.1927043 C7.34891318,44.9429188 15.442674,36.4625836 25.6882112,36.138712 L27.7572029,36.0733091 L27.0507667,34.1275569 C22.7479801,22.276299 28.8677369,9.17966282 40.719325,4.87709382 C52.5713902,0.574351575 65.6671805,6.69384751 69.9698235,18.5456394 Z" id="Combined-Shape" fill="#000000"></path>
                    <g id="price" transform="translate(63.000000, 44.000000)" fill="#000000">
                        <path d="M43.7020007,7.49800011 C38.8668006,2.66280004 32.4380005,0 25.6000004,0 C18.7620003,0 12.3332002,2.66280004 7.49800011,7.49800011 C2.66290004,12.3332002 0,18.7620003 0,25.6000004 C0,32.4380005 2.66290004,38.8668006 7.49800011,43.7020007 C12.3332002,48.5372007 18.7620003,51.2000008 25.6000004,51.2000008 C32.4380005,51.2000008 38.8668006,48.5372007 43.7020007,43.7020007 C48.5371007,38.8668006 51.2000008,32.4380005 51.2000008,25.6000004 C51.2000008,18.7620003 48.5371007,12.3332002 43.7020007,7.49800011 Z M25.6000004,48.2000007 C13.1383002,48.2000007 3.00000004,38.0617006 3.00000004,25.6000004 C3.00000004,13.1383002 13.1383002,3.00000004 25.6000004,3.00000004 C38.0617006,3.00000004 48.2000007,13.1383002 48.2000007,25.6000004 C48.2000007,38.0617006 38.0617006,48.2000007 25.6000004,48.2000007 Z" id="Shape"></path>
                        <path d="M27.2067004,24.1000004 L23.9933004,24.1000004 C22.1626003,24.1000004 20.6733003,22.6107003 20.6733003,20.7801003 C20.6733003,18.9494003 22.1627003,17.4601003 23.9933004,17.4601003 L30.4200005,17.4601003 C31.2484005,17.4601003 31.9200005,16.7885003 31.9200005,15.9601002 C31.9200005,15.1317002 31.2484005,14.4601002 30.4200005,14.4601002 L27.1000004,14.4601002 L27.1000004,11.1401001 C27.1000004,10.3117002 26.4284004,9.64010014 25.6000004,9.64010014 C24.7716004,9.64010014 24.1000004,10.3117002 24.1000004,11.1401001 L24.1000004,14.4601002 L23.9934004,14.4601002 C20.5085003,14.4601002 17.6734003,17.2953003 17.6734003,20.7801003 C17.6734003,24.2649004 20.5086003,27.1000004 23.9934004,27.1000004 L27.2068004,27.1000004 C29.0374004,27.1000004 30.5267005,28.5894004 30.5267005,30.4200005 C30.5267005,32.2506005 29.0374004,33.7400005 27.2068004,33.7400005 L20.7801003,33.7400005 C19.9517003,33.7400005 19.2801003,34.4116005 19.2801003,35.2400005 C19.2801003,36.0684005 19.9517003,36.7400005 20.7801003,36.7400005 L24.1000004,36.7400005 L24.1000004,40.0601006 C24.1000004,40.8885006 24.7716004,41.5601006 25.6000004,41.5601006 C26.4284004,41.5601006 27.1000004,40.8885006 27.1000004,40.0601006 L27.1000004,36.7400005 L27.2067004,36.7400005 C30.6915005,36.7400005 33.5266005,33.9048005 33.5266005,30.4200005 C33.5266005,26.9352004 30.6915005,24.1000004 27.2067004,24.1000004 Z" id="Path"></path>
                    </g>
                </g>
            </g>
        </g>
    </g>
</svg>