<?xml version="1.0" encoding="UTF-8"?>
<svg width="128px" height="122px" viewBox="0 0 128 122" version="1.1" xmlns="http://www.w3.org/2000/svg" xmlns:xlink="http://www.w3.org/1999/xlink">
    <!-- Generator: Sketch 63.1 (92452) - https://sketch.com -->
    <title>optimum_resource</title>
    <desc>Created with Sketch.</desc>
    <g id="Page-1" stroke="none" stroke-width="1" fill="none" fill-rule="evenodd">
        <g id="optimum_resource" transform="translate(-4.000000, -2.000000)" fill-rule="nonzero">
            <g id="Group-18">
                <path d="M112.643425,14.3982323 C122.764992,23.5001537 127.664128,38.2377854 125.624894,50.6812342 C123.585659,63.1246829 114.632922,73.2240752 107.943239,84.4954957 C101.253555,95.7669162 96.8766613,108.235302 87.0783883,116.489373 C77.2552467,124.743444 61.9858568,128.808138 49.6509752,124.46914 C37.2912248,120.130141 27.8659825,107.412388 20.2561563,93.7969113 C12.6214614,80.1814343 6.85192,65.7181071 8.1948305,51.5540211 C9.56260972,37.3899352 18.0925783,23.5250905 29.8803483,14.7224103 C41.6681183,5.91973015 56.7634271,2.17921449 71.9582108,2.0046571 C87.1778632,1.85503647 102.521859,5.29631087 112.643425,14.3982323 Z" id="Path" fill="#FFCCCD" opacity="0.300000012" transform="translate(67.040001, 64.115001) rotate(-94.000000) translate(-67.040001, -64.115001) "></path>
                <path d="M39.2949381,7.30549534 C26.8128641,12.0673815 20.1079436,25.5203534 23.5880847,38.2302311 L23.633,38.389 L23.4827875,38.4076895 C12.6189893,39.8026929 4.33510693,49.1631612 4.50214917,60.3369907 C4.68091158,72.2247003 14.358428,81.7727724 26.2474101,81.7919277 L54.4558527,81.7919277 L54.4558527,59.9969195 C54.4558527,59.7514597 54.6327278,59.5473112 54.870439,59.5050036 L54.9622057,59.4969599 L113.911047,60.2460303 C116.131347,60.2461514 117.231756,61.6610397 117.738445,64.5975394 L117.812084,65.0510826 C117.913968,65.7294058 117.962152,66.3334796 118.032282,67.6001213 L118.098634,68.775585 C118.121571,69.1135373 118.145601,69.354675 118.179882,69.5819117 C118.308375,70.4336498 118.502015,70.9397784 119.263122,71.2893899 C120.302116,71.7666482 120.959058,71.3058183 121.570833,70.4791283 C121.845945,70.1073702 122.157491,69.568555 122.551113,68.7984615 C124.250266,65.4741943 125.148738,61.7855639 125.148738,57.9713438 C125.148738,44.8158027 114.483368,34.15076 101.328154,34.15076 L100.733789,34.1581586 C99.9417381,34.1778829 99.1516915,34.2370229 98.3667918,34.335317 L98.039,34.38 L98.0003917,34.2397524 C96.4974369,28.9932988 92.8752511,24.5763062 87.9656419,22.083886 L87.58826,21.897295 C82.788984,19.5876759 77.2747459,19.3251518 72.3007226,21.1323138 L72.21,21.166 L72.1582242,21.0435776 C66.7382879,8.6769719 52.5683213,2.48307989 39.6952584,7.15648241 L39.2949381,7.30549534 Z" id="Path" fill="#D03D39"></path>
                <path d="M45.2949381,4.30549534 C32.8128641,9.0673815 26.1079436,22.5203534 29.5880847,35.2302311 L29.633,35.389 L29.4827875,35.4076895 C18.6189893,36.8026929 10.3351069,46.1631612 10.5021492,57.3369907 C10.6809116,69.2247003 20.358428,78.7727724 32.2474101,78.7919277 L60.4558527,78.7919277 L60.4558527,56.9969195 C60.4558527,56.7514597 60.6327278,56.5473112 60.870439,56.5050036 L60.9622057,56.4969599 L119.911047,57.2460303 C122.131347,57.2461514 123.231756,58.6610397 123.738445,61.5975394 L123.812084,62.0510826 C123.913968,62.7294058 123.962152,63.3334796 124.032282,64.6001213 L124.098634,65.775585 C124.121571,66.1135373 124.145601,66.354675 124.179882,66.5819117 C124.308375,67.4336498 124.502015,67.9397784 125.263122,68.2893899 C126.302116,68.7666482 126.959058,68.3058183 127.570833,67.4791283 C127.845945,67.1073702 128.157491,66.568555 128.551113,65.7984615 C130.250266,62.4741943 131.148738,58.7855639 131.148738,54.9713438 C131.148738,41.8158027 120.483368,31.15076 107.328154,31.15076 L106.733789,31.1581586 C105.941738,31.1778829 105.151691,31.2370229 104.366792,31.335317 L104.039,31.38 L104.000392,31.2397524 C102.497437,25.9932988 98.8752511,21.5763062 93.9656419,19.083886 L93.58826,18.897295 C88.788984,16.5876759 83.2747459,16.3251518 78.3007226,18.1323138 L78.21,18.166 L78.1582242,18.0435776 C72.7382879,5.6769719 58.5683213,-0.516920112 45.6952584,4.15648241 L45.2949381,4.30549534 Z M75.969494,20.6449504 L76.5269678,22.180533 L78.0095107,21.4943423 C82.6596438,19.3420416 88.0397024,19.4394959 92.6075225,21.7588648 C97.1768623,24.0785433 100.430966,28.3639697 101.437458,33.3873398 L101.732698,34.8608733 L103.205674,34.5628663 C104.560438,34.2887755 105.941986,34.15076 107.328154,34.15076 C118.826535,34.15076 128.148738,43.4726775 128.148738,54.9713438 L128.14223,55.4972037 C128.085884,57.7715095 127.664333,59.9866975 126.904749,62.0782629 L126.859,62.198 L126.847559,62.1023261 C126.807285,61.7745992 126.758605,61.4574518 126.694759,61.0874315 C125.985985,56.9797565 124.010349,54.3668724 120.199,54.2502267 L60.9558527,53.4969195 L60.7638175,53.5020984 C58.9201303,53.6017931 57.4558527,55.1283561 57.4558527,56.9969195 L57.455,75.791 L32.2498267,75.7919277 C22.000616,75.7754141 13.6559525,67.542367 13.501812,57.2920153 C13.3485837,47.0422298 21.4423445,38.5618946 31.6878817,38.238023 L33.7568734,38.1726201 L33.0504372,36.2268678 C28.7476506,24.37561 34.8674074,11.2789738 46.7189955,6.9764048 C58.5710608,2.67366256 71.666851,8.79315849 75.969494,20.6449504 Z" id="Path" fill="#000000"></path>
                <g id="servers" transform="translate(64.000000, 60.000000)" fill="#000000">
                    <path d="M48.1066318,37.5466314 C47.4589517,37.5466314 46.9332617,38.0723214 46.9332617,38.7200014 C46.9332617,39.3676814 47.4589517,39.8933715 48.1066318,39.8933715 C48.7543118,39.8933715 49.2800018,39.3676814 49.2800018,38.7200014 C49.2800018,38.0723214 48.7543118,37.5466314 48.1066318,37.5466314 Z" id="Path"></path>
                    <path d="M43.4133716,37.5466314 C42.7656916,37.5466314 42.2400015,38.0723214 42.2400015,38.7200014 C42.2400015,39.3676814 42.7656916,39.8933715 43.4133716,39.8933715 C44.0610516,39.8933715 44.5867416,39.3676814 44.5867416,38.7200014 C44.5866316,38.0723214 44.0610516,37.5466314 43.4133716,37.5466314 Z" id="Path"></path>
                    <path d="M7.21337017,19.7733707 C5.82398392,19.7733707 4.69337017,20.9039844 4.69337017,22.2933707 C4.69337017,23.6827569 5.82398392,24.8133707 7.21337017,24.8133707 C8.60275642,24.8133707 9.73337017,23.6827569 9.73337017,22.2933707 C9.73337017,20.9039844 8.60267767,19.7733707 7.21337017,19.7733707 Z" id="Shape"></path>
                    <path d="M7.21337017,33.8533712 C5.82398392,33.8533712 4.69337017,34.983985 4.69337017,36.3733712 C4.69337017,37.7627575 5.82398392,38.8933712 7.21337017,38.8933712 C8.60275642,38.8933712 9.73337017,37.7627575 9.73337017,36.3733712 C9.73337017,34.983985 8.60267767,33.8533712 7.21337017,33.8533712 Z" id="Shape"></path>
                    <path d="M34.0266312,37.5466314 C33.3789512,37.5466314 32.8532612,38.0723214 32.8532612,38.7200014 C32.8532612,39.3676814 33.3789512,39.8933715 34.0266312,39.8933715 C34.6743113,39.8933715 35.2000013,39.3676814 35.2000013,38.7200014 C35.2000013,38.0723214 34.6743113,37.5466314 34.0266312,37.5466314 Z" id="Path"></path>
                    <path d="M38.7200014,37.5466314 C38.0723214,37.5466314 37.5466314,38.0723214 37.5466314,38.7200014 C37.5466314,39.3676814 38.0723214,39.8933715 38.7200014,39.8933715 C39.3676814,39.8933715 39.8933715,39.3676814 39.8933715,38.7200014 C39.8933715,38.0723214 39.3676814,37.5466314 38.7200014,37.5466314 Z" id="Path"></path>
                    <path d="M56.3200021,10.5600004 L56.3200021,5.86663021 C56.3200021,2.6329601 53.687042,0 50.4533718,0 L5.86663021,0 C2.6329601,0 0,2.6329601 0,5.86663021 L0,10.5600004 C0,12.4842305 0.945670035,14.1832905 2.38425009,15.2533706 C0.945670035,16.3234506 0,18.0224007 0,19.9466307 L0,24.6400009 C0,26.564231 0.945670035,28.263291 2.38425009,29.3333711 C0.945670035,30.4034511 0,32.1024012 0,34.0266312 L0,38.7200014 C0,41.9536715 2.6329601,44.5866316 5.86663021,44.5866316 L21.1200008,44.5866316 L23.4665209,44.5866316 L50.4531518,44.5866316 C53.687042,44.5866316 56.3200021,41.9536715 56.3200021,38.7200014 L56.3200021,34.0266312 C56.3200021,32.1024012 55.374332,30.4033411 53.935752,29.3332611 C55.374332,28.263291 56.3200021,26.564231 56.3200021,24.6400009 L56.3200021,19.9466307 C56.3200021,18.0224007 55.374332,16.3233406 53.935752,15.2532606 C55.374332,14.1832905 56.3200021,12.4842305 56.3200021,10.5600004 Z M53.973372,34.0266312 L53.973372,38.7200014 C53.973372,40.6607315 52.3941019,42.2400015 50.4533718,42.2400015 L5.86663021,42.2400015 C3.92590014,42.2400015 2.34663009,40.6607315 2.34663009,38.7200014 L2.34663009,34.0266312 C2.34663009,32.0859012 3.92590014,30.5066311 5.86663021,30.5066311 L50.4532618,30.5066311 C52.3939919,30.5066311 53.973372,32.0860112 53.973372,34.0266312 Z M53.973372,19.9466307 L53.973372,24.6400009 C53.973372,26.580731 52.3941019,28.160001 50.4533718,28.160001 L5.86663021,28.160001 C3.92590014,28.160001 2.34663009,26.580731 2.34663009,24.6400009 L2.34663009,19.9466307 C2.34663009,18.0059007 3.92590014,16.4266306 5.86663021,16.4266306 L50.4532618,16.4266306 C52.3939919,16.4266306 53.973372,18.0060107 53.973372,19.9466307 Z M50.4533718,14.0800005 L5.86663021,14.0800005 C3.92590014,14.0800005 2.34663009,12.5007305 2.34663009,10.5600004 L2.34663009,5.86663021 C2.34663009,3.92590014 3.92590014,2.34663009 5.86663021,2.34663009 L50.4532618,2.34663009 C52.3939919,2.34663009 53.973372,3.92590014 53.973372,5.86663021 L53.973372,10.5600004 C53.973372,12.5007305 52.3941019,14.0800005 50.4533718,14.0800005 Z" id="Shape" stroke="#000000" stroke-width="0.3"></path>
                    <path d="M34.0266312,9.38663034 C33.3789512,9.38663034 32.8532612,9.91232036 32.8532612,10.5600004 C32.8532612,11.2076804 33.3789512,11.7333704 34.0266312,11.7333704 C34.6743113,11.7333704 35.2000013,11.2076804 35.2000013,10.5600004 C35.2000013,9.91232036 34.6743113,9.38663034 34.0266312,9.38663034 Z" id="Path"></path>
                    <path d="M38.7200014,9.38663034 C38.0723214,9.38663034 37.5466314,9.91232036 37.5466314,10.5600004 C37.5466314,11.2076804 38.0723214,11.7333704 38.7200014,11.7333704 C39.3676814,11.7333704 39.8933715,11.2076804 39.8933715,10.5600004 C39.8933715,9.91232036 39.3676814,9.38663034 38.7200014,9.38663034 Z" id="Path"></path>
                    <path d="M43.4133716,9.38663034 C42.7656916,9.38663034 42.2400015,9.91232036 42.2400015,10.5600004 C42.2400015,11.2076804 42.7656916,11.7333704 43.4133716,11.7333704 C44.0610516,11.7333704 44.5867416,11.2076804 44.5867416,10.5600004 C44.5867416,9.91232036 44.0610516,9.38663034 43.4133716,9.38663034 Z" id="Path"></path>
                    <path d="M34.0266312,23.4666309 C33.3789512,23.4666309 32.8532612,23.9923209 32.8532612,24.6400009 C32.8532612,25.2876809 33.3789512,25.8133709 34.0266312,25.8133709 C34.6743113,25.8133709 35.2000013,25.2876809 35.2000013,24.6400009 C35.2000013,23.9923209 34.6743113,23.4666309 34.0266312,23.4666309 Z" id="Path"></path>
                    <path d="M48.1066318,9.38663034 C47.4589517,9.38663034 46.9332617,9.91232036 46.9332617,10.5600004 C46.9332617,11.2076804 47.4589517,11.7333704 48.1066318,11.7333704 C48.7543118,11.7333704 49.2800018,11.2076804 49.2800018,10.5600004 C49.2800018,9.91232036 48.7543118,9.38663034 48.1066318,9.38663034 Z" id="Path"></path>
                    <path d="M43.4133716,23.4666309 C42.7656916,23.4666309 42.2400015,23.9923209 42.2400015,24.6400009 C42.2400015,25.2876809 42.7656916,25.8133709 43.4133716,25.8133709 C44.0610516,25.8133709 44.5867416,25.2876809 44.5867416,24.6400009 C44.5867416,23.9923209 44.0610516,23.4666309 43.4133716,23.4666309 Z" id="Path"></path>
                    <path d="M38.7200014,23.4666309 C38.0723214,23.4666309 37.5466314,23.9923209 37.5466314,24.6400009 C37.5466314,25.2876809 38.0723214,25.8133709 38.7200014,25.8133709 C39.3676814,25.8133709 39.8933715,25.2876809 39.8933715,24.6400009 C39.8933715,23.9923209 39.3676814,23.4666309 38.7200014,23.4666309 Z" id="Path"></path>
                    <path d="M48.1066318,23.4666309 C47.4589517,23.4666309 46.9332617,23.9923209 46.9332617,24.6400009 C46.9332617,25.2876809 47.4589517,25.8133709 48.1066318,25.8133709 C48.7543118,25.8133709 49.2800018,25.2876809 49.2800018,24.6400009 C49.2800018,23.9923209 48.7543118,23.4666309 48.1066318,23.4666309 Z" id="Path"></path>
                    <path d="M7.21337017,5.69337017 C5.82398392,5.69337017 4.69337017,6.82398392 4.69337017,8.21337017 C4.69337017,9.60275642 5.82398392,10.7333702 7.21337017,10.7333702 C8.60275642,10.7333702 9.73337017,9.60275642 9.73337017,8.21337017 C9.73337017,6.82398392 8.60267767,5.69337017 7.21337017,5.69337017 Z" id="Shape"></path>
                </g>
            </g>
        </g>
    </g>
</svg>