<?xml version="1.0" encoding="UTF-8"?>
<svg width="128px" height="121px" viewBox="0 0 128 121" version="1.1" xmlns="http://www.w3.org/2000/svg" xmlns:xlink="http://www.w3.org/1999/xlink">
    <!-- Generator: Sketch 63.1 (92452) - https://sketch.com -->
    <title>use_of_rcr</title>
    <desc>Created with Sketch.</desc>
    <g id="Page-1" stroke="none" stroke-width="1" fill="none" fill-rule="evenodd">
        <g id="use_of_rcr" transform="translate(-4.000000, -3.000000)">
            <g id="Group-18">
                <path d="M112.643425,14.3982323 C122.764992,23.5001537 127.664128,38.2377854 125.624894,50.6812342 C123.585659,63.1246829 114.632922,73.2240752 107.943239,84.4954957 C101.253555,95.7669162 96.8766613,108.235302 87.0783883,116.489373 C77.2552467,124.743444 61.9858568,128.808138 49.6509752,124.46914 C37.2912248,120.130141 27.8659825,107.412388 20.2561563,93.7969113 C12.6214614,80.1814343 6.85192,65.7181071 8.1948305,51.5540211 C9.56260972,37.3899352 18.0925783,23.5250905 29.8803483,14.7224103 C41.6681183,5.91973015 56.7634271,2.17921449 71.9582108,2.0046571 C87.1778632,1.85503647 102.521859,5.29631087 112.643425,14.3982323 Z" id="Path" fill="#FFCCCD" fill-rule="nonzero" opacity="0.300000012" transform="translate(67.040001, 64.115001) rotate(-94.000000) translate(-67.040001, -64.115001) "></path>
                <g id="cloud-(1)" transform="translate(6.000000, 3.000000)" fill-rule="nonzero">
                    <path d="M35.2952676,7.20618436 C22.8131935,11.9680705 16.1082731,25.4210424 19.5884142,38.1309202 L19.633,38.29 L19.483117,38.3083785 C8.61931876,39.7033819 0.335436409,49.0638503 0.502478648,60.2376798 C0.681241052,72.1253893 10.3587574,81.6734614 22.2477396,81.6926167 L49.0889112,81.6926167 L55.1797557,80.6062007 L54.9309909,79.1398015 C54.6449265,77.4535318 54.4999966,75.7362793 54.4999966,74 C54.4999966,57.1553151 68.1553151,43.5 84.9999966,43.5 C99.7672621,43.5 112.340411,54.0708539 114.991534,68.4229082 L115.262455,69.8895575 L118.222776,69.3601816 L118.776474,68.2468973 C120.333163,65.028945 121.149067,61.5070091 121.149067,57.8720328 C121.149067,44.7164917 110.483698,34.051449 97.3284836,34.051449 L96.7341186,34.0588476 C95.9420676,34.0785719 95.1520209,34.1377119 94.3671212,34.236006 L94.039,34.281 L94.0007212,34.1404414 C92.4977664,28.8939878 88.8755806,24.4769952 83.9659714,21.984575 L83.5885894,21.7979841 C78.7893135,19.488365 73.2750754,19.2258408 68.3010521,21.0330029 L68.211,21.067 L68.1585537,20.9442666 C62.7386173,8.57766091 48.5686508,2.3837689 35.6955878,7.05717143 L35.2952676,7.20618436 Z" id="Combined-Shape" fill="#D03D39"></path>
                    <path d="M39.2952676,2.20618436 C26.8131935,6.96807052 20.1082731,20.4210424 23.5884142,33.1309202 L23.633,33.29 L23.483117,33.3083785 C12.6193188,34.7033819 4.33543641,44.0638503 4.50247865,55.2376798 C4.68124105,67.1253893 14.3587574,76.6734614 26.2477396,76.6926167 L53.0889112,76.6926167 L59.1797557,75.6062007 L58.9309909,74.1398015 C58.6449265,72.4535318 58.4999966,70.7362793 58.4999966,69 C58.4999966,52.1553151 72.1553151,38.5 88.9999966,38.5 C103.767262,38.5 116.340411,49.0708539 118.991534,63.4229082 L119.262455,64.8895575 L122.222776,64.3601816 L122.776474,63.2468973 C124.333163,60.028945 125.149067,56.5070091 125.149067,52.8720328 C125.149067,39.7164917 114.483698,29.051449 101.328484,29.051449 L100.734119,29.0588476 C99.9420676,29.0785719 99.1520209,29.1377119 98.3671212,29.236006 L98.039,29.281 L98.0007212,29.1404414 C96.4977664,23.8939878 92.8755806,19.4769952 87.9659714,16.984575 L87.5885894,16.7979841 C82.7893135,14.488365 77.2750754,14.2258408 72.3010521,16.0330029 L72.211,16.067 L72.1585537,15.9442666 C66.7386173,3.57766091 52.5686508,-2.6162311 39.6955878,2.05717143 L39.2952676,2.20618436 Z M69.9698235,18.5456394 L70.5272973,20.081222 L72.0098401,19.3950313 C76.6599733,17.2427307 82.0400319,17.3401849 86.607852,19.6595538 C91.1771917,21.9792323 94.4312952,26.2646587 95.4377874,31.2880289 L95.7330275,32.7615623 L97.2060038,32.4635553 C98.5607679,32.1894646 99.9423151,32.051449 101.328484,32.051449 C112.826864,32.051449 122.149067,41.3733665 122.149067,52.8720328 L122.142482,53.4010459 C122.094237,55.3369975 121.781383,57.2303578 121.220256,59.0416009 L121.104,59.401 L121.037707,59.1771998 C116.804061,45.3262789 103.922705,35.5 89.0000014,35.5 C70.4984609,35.5 55.5000014,50.4984609 55.5000014,69 L55.5074495,69.7132825 C55.5273045,70.6630355 55.5868066,71.6074844 55.6854526,72.5449141 L55.757,73.168 L52.821,73.6926167 L26.2501561,73.6926167 C16.0009455,73.6761031 7.656282,65.443056 7.50214149,55.1927043 C7.34891318,44.9429188 15.442674,36.4625836 25.6882112,36.138712 L27.7572029,36.0733091 L27.0507667,34.1275569 C22.7479801,22.276299 28.8677369,9.17966282 40.719325,4.87709382 C52.5713902,0.574351575 65.6671805,6.69384751 69.9698235,18.5456394 Z" id="Combined-Shape" fill="#000000"></path>
                </g>
                <g id="target" transform="translate(96.500000, 76.500000) scale(1, -1) translate(-96.500000, -76.500000) translate(67.000000, 47.000000)">
                    <circle id="Oval" fill="#D03D39" cx="28" cy="31" r="14"></circle>
                    <path d="M58.0713923,8.66518523 C57.9734604,8.32716323 57.6989054,8.0695039 57.3553524,7.99320926 L51.4480226,6.65862092 L50.1134343,0.751291168 C50.0361923,0.408662049 49.7785997,0.135223986 49.4411857,0.0376902553 C49.1037717,-0.0598434755 48.7400158,0.0339860215 48.4918791,0.282560388 L41.6977614,7.0777797 C29.7998644,-0.101724865 14.4151083,2.72720357 5.84942818,13.6695234 C-2.71625197,24.6118433 -1.76863913,40.2257981 8.05748016,50.0519174 C17.8835995,59.8780367 33.4975542,60.8256495 44.4398741,52.2599694 C55.382194,43.6942892 58.2111224,28.3095332 51.0316178,16.4116361 L57.8284895,9.61476439 C58.0762504,9.36603912 58.1692875,9.00232945 58.0713923,8.66518523 L58.0713923,8.66518523 Z M53.0558212,30.6173183 C53.0542112,42.1874387 45.2807614,52.3136369 34.1040521,55.3051008 C22.9273428,58.2965646 11.1349525,53.4071941 5.35407526,43.384762 C-0.426801944,33.3623298 1.24564025,20.7065268 9.43150766,12.5297755 C17.6173751,4.35302418 30.2750337,2.69468485 40.2910183,8.48672604 L37.1707364,11.6070079 C37.1439282,11.6375259 37.1190919,11.6697211 37.0963784,11.7033979 C27.7889159,6.96488304 16.4176663,9.69581445 10.277212,18.1443174 C4.13675769,26.5928205 5.04931937,38.2517456 12.4294947,45.6419685 C19.80967,53.0321914 31.4673428,53.9606142 39.9241921,47.8316598 C48.3810414,41.7027054 51.1274409,30.3351818 46.4015932,21.0212811 C46.437025,20.9962563 46.4707025,20.9688359 46.5023896,20.9392119 L49.6226715,17.81893 C51.8759785,21.707527 53.0604285,26.1230377 53.0558212,30.6173183 L53.0558212,30.6173183 Z M44.1141209,20.8604475 C49.0113913,29.2206125 46.9348414,39.9174908 39.2652912,45.8381001 C31.5957409,51.7587094 20.7216421,51.0592532 13.8738213,44.2048411 C7.0260005,37.350429 6.33700642,26.4756623 12.2649917,18.8118117 C18.1929769,11.1479611 28.8918481,9.08170339 37.2472976,13.9870146 L38.262422,18.4837456 L37.2886076,19.45756 C31.2516799,14.1563327 22.0974194,14.601555 16.603423,20.4635947 C11.1094266,26.3256345 11.257886,35.4895129 16.9388853,41.1705122 C22.6198846,46.8515115 31.7837631,46.9999709 37.6458028,41.5059745 C43.5078425,36.0119781 43.9530648,26.8577176 38.6518376,20.8207899 L39.6256519,19.8469756 L44.1141209,20.8604475 Z M31.6368778,30.6173183 C31.6438545,32.5124832 30.3691099,34.1728627 28.5364551,34.6556415 C26.7038003,35.1384202 24.7764747,34.3215663 23.8488742,32.668915 C22.9212737,31.0162638 23.2278675,28.9455551 24.5945619,27.6326023 C25.9612564,26.3196495 28.0425928,26.096327 29.6567231,27.0894444 L26.8101889,29.9359787 C26.5596661,30.1780401 26.4592465,30.5364415 26.5475264,30.8734312 C26.6358063,31.2104208 26.8990473,31.4735555 27.2360726,31.5616991 C27.5730979,31.6498428 27.9314587,31.5492784 28.1734188,31.2986579 L31.0199531,28.4521236 C31.4229656,29.1024303 31.6366025,29.8522576 31.6368778,30.6173183 L31.6368778,30.6173183 Z M31.0441883,25.7019793 C28.4688036,23.8365327 24.8922101,24.2635982 22.8284585,26.6829838 C20.7647069,29.1023695 20.9068756,32.701563 23.1550316,34.9506277 C25.4031876,37.1996924 29.0023234,37.3433156 31.4225428,35.2805419 C33.8427623,33.2177682 34.2712731,29.6413476 32.4068674,27.0652093 L37.2858536,22.1862231 C41.8291878,27.4645319 41.3842878,35.3909079 36.278819,40.1276387 C31.1733501,44.8643694 23.2359046,44.7149311 18.3123475,39.7893838 C13.3887904,34.8638366 13.2425598,26.9263314 17.9813534,21.8227772 C22.7201469,16.7192229 30.6467021,16.2775262 35.9231745,20.8229931 L31.0441883,25.7019793 Z M49.1346627,15.5804789 L45.5170085,19.1975824 L44.9744705,19.0753048 L44.9535401,19.0703476 L40.1257783,17.9836192 L38.9090611,12.5951431 L48.6207663,2.88178548 L49.7041899,7.67705007 C49.7861778,8.03988112 50.0695164,8.3232197 50.4323475,8.40520764 L55.2276121,9.4886312 L49.1346627,15.5804789 Z" id="Shape" stroke="#000000" fill="#000000" fill-rule="nonzero"></path>
                </g>
            </g>
        </g>
    </g>
</svg>