<?xml version="1.0" encoding="UTF-8"?>
<svg width="128px" height="122px" viewBox="0 0 128 122" version="1.1" xmlns="http://www.w3.org/2000/svg" xmlns:xlink="http://www.w3.org/1999/xlink">
    <!-- Generator: Sketch 63.1 (92452) - https://sketch.com -->
    <title>selection_of_right_storage</title>
    <desc>Created with Sketch.</desc>
    <g id="Page-1" stroke="none" stroke-width="1" fill="none" fill-rule="evenodd">
        <g id="selection_of_right_storage" transform="translate(-4.000000, -2.000000)" fill-rule="nonzero">
            <g id="Group-18">
                <path d="M112.643425,14.3982323 C122.764992,23.5001537 127.664128,38.2377854 125.624894,50.6812342 C123.585659,63.1246829 114.632922,73.2240752 107.943239,84.4954957 C101.253555,95.7669162 96.8766613,108.235302 87.0783883,116.489373 C77.2552467,124.743444 61.9858568,128.808138 49.6509752,124.46914 C37.2912248,120.130141 27.8659825,107.412388 20.2561563,93.7969113 C12.6214614,80.1814343 6.85192,65.7181071 8.1948305,51.5540211 C9.56260972,37.3899352 18.0925783,23.5250905 29.8803483,14.7224103 C41.6681183,5.91973015 56.7634271,2.17921449 71.9582108,2.0046571 C87.1778632,1.85503647 102.521859,5.29631087 112.643425,14.3982323 Z" id="Path" fill="#FFCCCD" opacity="0.300000012" transform="translate(67.040001, 64.115001) rotate(-94.000000) translate(-67.040001, -64.115001) "></path>
                <path d="M39.2949381,7.30549534 C26.8128641,12.0673815 20.1079436,25.5203534 23.5880847,38.2302311 L23.633,38.389 L23.4827875,38.4076895 C12.6189893,39.8026929 4.33510693,49.1631612 4.50214917,60.3369907 C4.68091158,72.2247003 14.358428,81.7727724 26.2474101,81.7919277 L54.4558527,81.7919277 L54.4558527,59.9969195 C54.4558527,59.7514597 54.6327278,59.5473112 54.870439,59.5050036 L54.9622057,59.4969599 L113.911047,60.2460303 C116.131347,60.2461514 117.231756,61.6610397 117.738445,64.5975394 L117.812084,65.0510826 C117.913968,65.7294058 117.962152,66.3334796 118.032282,67.6001213 L118.098634,68.775585 C118.121571,69.1135373 118.145601,69.354675 118.179882,69.5819117 C118.308375,70.4336498 118.502015,70.9397784 119.263122,71.2893899 C120.302116,71.7666482 120.959058,71.3058183 121.570833,70.4791283 C121.845945,70.1073702 122.157491,69.568555 122.551113,68.7984615 C124.250266,65.4741943 125.148738,61.7855639 125.148738,57.9713438 C125.148738,44.8158027 114.483368,34.15076 101.328154,34.15076 L100.733789,34.1581586 C99.9417381,34.1778829 99.1516915,34.2370229 98.3667918,34.335317 L98.039,34.38 L98.0003917,34.2397524 C96.4974369,28.9932988 92.8752511,24.5763062 87.9656419,22.083886 L87.58826,21.897295 C82.788984,19.5876759 77.2747459,19.3251518 72.3007226,21.1323138 L72.21,21.166 L72.1582242,21.0435776 C66.7382879,8.6769719 52.5683213,2.48307989 39.6952584,7.15648241 L39.2949381,7.30549534 Z" id="Path" fill="#D03D39"></path>
                <path d="M45.2949381,4.30549534 C32.8128641,9.0673815 26.1079436,22.5203534 29.5880847,35.2302311 L29.633,35.389 L29.4827875,35.4076895 C18.6189893,36.8026929 10.3351069,46.1631612 10.5021492,57.3369907 C10.6809116,69.2247003 20.358428,78.7727724 32.2474101,78.7919277 L60.4558527,78.7919277 L60.4558527,56.9969195 C60.4558527,56.7514597 60.6327278,56.5473112 60.870439,56.5050036 L60.9622057,56.4969599 L119.911047,57.2460303 C122.131347,57.2461514 123.231756,58.6610397 123.738445,61.5975394 L123.812084,62.0510826 C123.913968,62.7294058 123.962152,63.3334796 124.032282,64.6001213 L124.098634,65.775585 C124.121571,66.1135373 124.145601,66.354675 124.179882,66.5819117 C124.308375,67.4336498 124.502015,67.9397784 125.263122,68.2893899 C126.302116,68.7666482 126.959058,68.3058183 127.570833,67.4791283 C127.845945,67.1073702 128.157491,66.568555 128.551113,65.7984615 C130.250266,62.4741943 131.148738,58.7855639 131.148738,54.9713438 C131.148738,41.8158027 120.483368,31.15076 107.328154,31.15076 L106.733789,31.1581586 C105.941738,31.1778829 105.151691,31.2370229 104.366792,31.335317 L104.039,31.38 L104.000392,31.2397524 C102.497437,25.9932988 98.8752511,21.5763062 93.9656419,19.083886 L93.58826,18.897295 C88.788984,16.5876759 83.2747459,16.3251518 78.3007226,18.1323138 L78.21,18.166 L78.1582242,18.0435776 C72.7382879,5.6769719 58.5683213,-0.516920112 45.6952584,4.15648241 L45.2949381,4.30549534 Z M75.969494,20.6449504 L76.5269678,22.180533 L78.0095107,21.4943423 C82.6596438,19.3420416 88.0397024,19.4394959 92.6075225,21.7588648 C97.1768623,24.0785433 100.430966,28.3639697 101.437458,33.3873398 L101.732698,34.8608733 L103.205674,34.5628663 C104.560438,34.2887755 105.941986,34.15076 107.328154,34.15076 C118.826535,34.15076 128.148738,43.4726775 128.148738,54.9713438 L128.14223,55.4972037 C128.085884,57.7715095 127.664333,59.9866975 126.904749,62.0782629 L126.859,62.198 L126.847559,62.1023261 C126.807285,61.7745992 126.758605,61.4574518 126.694759,61.0874315 C125.985985,56.9797565 124.010349,54.3668724 120.199,54.2502267 L60.9558527,53.4969195 L60.7638175,53.5020984 C58.9201303,53.6017931 57.4558527,55.1283561 57.4558527,56.9969195 L57.455,75.791 L32.2498267,75.7919277 C22.000616,75.7754141 13.6559525,67.542367 13.501812,57.2920153 C13.3485837,47.0422298 21.4423445,38.5618946 31.6878817,38.238023 L33.7568734,38.1726201 L33.0504372,36.2268678 C28.7476506,24.37561 34.8674074,11.2789738 46.7189955,6.9764048 C58.5710608,2.67366256 71.666851,8.79315849 75.969494,20.6449504 Z" id="Path" fill="#000000"></path>
                <g id="database" transform="translate(67.000000, 60.000000)" fill="#000000" stroke="#000000" stroke-width="0.4">
                    <path d="M11.5980796,17.6903994 C10.1420796,17.4293594 8.79527968,17.1246394 7.58991972,16.7845594 C7.23060338,16.6785808 6.84205604,16.774038 6.57275431,17.0344535 C6.30345257,17.2948691 6.19501682,17.6799961 6.28888389,18.0426649 C6.38275095,18.4053337 6.66441374,18.6894942 7.02623974,18.7865593 C8.2960797,19.1443193 9.70943964,19.4646393 11.2299196,19.7381593 C11.2910884,19.7484717 11.3530076,19.7536896 11.4150396,19.7537593 C11.9529401,19.7525998 12.4011992,19.3414566 12.4487296,18.8056589 C12.49626,18.2698612 12.1273762,17.7862296 11.5980796,17.6903994 Z" id="Path"></path>
                    <path d="M15.6644794,18.2852793 C15.2896397,18.2310028 14.9149293,18.3847952 14.6862993,18.686754 C14.4576693,18.9887127 14.4112723,19.3910898 14.5651802,19.7371579 C14.7190881,20.083226 15.0489638,20.3182623 15.4263194,20.3507193 C18.9369907,20.7447885 22.4672896,20.9381963 25.999999,20.9299992 C29.5236251,20.9380272 33.0448564,20.7456634 36.5466387,20.3538393 C36.9245436,20.3222505 37.2552979,20.0874693 37.4097909,19.741143 C37.5642839,19.3948166 37.5180221,18.991852 37.2890639,18.6895473 C37.0601057,18.3872425 36.6847504,18.2335252 36.3095187,18.2883993 C32.8864182,18.6706579 29.4443672,18.85816 25.999999,18.8499993 C22.5468927,18.8583579 19.0961187,18.6698119 15.6644794,18.2852793 Z" id="Path"></path>
                    <path d="M15.6644794,34.9252787 C15.2896397,34.8710022 14.9149293,35.0247946 14.6862993,35.3267534 C14.4576693,35.6287121 14.4112723,36.0310892 14.5651802,36.3771573 C14.7190881,36.7232254 15.0489638,36.9582617 15.4263194,36.9907186 C18.9369907,37.3847879 22.4672896,37.5781957 25.999999,37.5699986 C29.5236251,37.5780266 33.0448564,37.3856627 36.5466387,36.9938386 C36.9245436,36.9622499 37.2552979,36.7274687 37.4097909,36.3811424 C37.5642839,36.034816 37.5180221,35.6318514 37.2890639,35.3295467 C37.0601057,35.0272419 36.6847504,34.8735246 36.3095187,34.9283987 C32.8864182,35.3106573 29.4443672,35.4981594 25.999999,35.4899987 C22.5468927,35.4983573 19.0961187,35.3098112 15.6644794,34.9252787 Z" id="Path"></path>
                    <path d="M36.3095187,51.5683981 C32.8864182,51.9506567 29.4443672,52.1381587 25.999999,52.1299981 C22.5468927,52.1383566 19.0961187,51.9498106 15.6644794,51.5652781 C15.2896397,51.5110016 14.9149293,51.664794 14.6862993,51.9667528 C14.4576693,52.2687115 14.4112723,52.6710886 14.5651802,53.0171567 C14.7190881,53.3632248 15.0489638,53.5982611 15.4263194,53.630718 C18.9369907,54.0247873 22.4672896,54.2181951 25.999999,54.209998 C29.5236251,54.218026 33.0448564,54.0256621 36.5466387,53.633838 C36.9245436,53.6022493 37.2552979,53.3674681 37.4097909,53.0211417 C37.5642839,52.6748154 37.5180221,52.2718508 37.2890639,51.969546 C37.0601057,51.6672413 36.6847504,51.513524 36.3095187,51.5683981 L36.3095187,51.5683981 Z" id="Path"></path>
                    <path d="M11.5980796,34.3303987 C10.1420796,34.0693588 8.79527968,33.7646388 7.58991972,33.4245588 C7.23060338,33.3185802 6.84205604,33.4140373 6.57275431,33.6744529 C6.30345257,33.9348685 6.19501682,34.3199955 6.28888389,34.6826643 C6.38275095,35.0453331 6.66441374,35.3294936 7.02623974,35.4265587 C8.2960797,35.7843187 9.70943964,36.1046387 11.2299196,36.3781587 C11.2910884,36.3884711 11.3530076,36.393689 11.4150396,36.3937587 C11.9529401,36.3925991 12.4011992,35.981456 12.4487296,35.4456583 C12.49626,34.9098606 12.1273762,34.426229 11.5980796,34.3303987 Z" id="Path"></path>
                    <path d="M11.5980796,50.9703981 C10.1420796,50.7093581 8.79527968,50.4046382 7.58991972,50.0645582 C7.23060338,49.9585796 6.84205604,50.0540367 6.57275431,50.3144523 C6.30345257,50.5748679 6.19501682,50.9599949 6.28888389,51.3226637 C6.38275095,51.6853325 6.66441374,51.9694929 7.02623974,52.0665581 C8.2960797,52.4243181 9.70943964,52.7446381 11.2299196,53.0181581 C11.2910884,53.0284705 11.3530076,53.0336884 11.4150396,53.0337581 C11.9529401,53.0325985 12.4011992,52.6214554 12.4487296,52.0856577 C12.49626,51.54986 12.1273762,51.0662284 11.5980796,50.9703981 Z" id="Path"></path>
                    <path d="M43.8203984,1.36343995 C37.9216714,0.486810153 31.9632505,0.074397709 26,0.129999995 C20.0367476,0.074397709 14.0783267,0.486810153 8.1795997,1.36343995 C0.929759966,2.57087991 0,4.11735985 0,5.3299998 L0,55.249998 C0,60.0339978 13.0800795,62.5299977 26,62.5299977 C38.9199186,62.5299977 52,60.0339978 52,55.249998 L52,5.3299998 C52,4.11735985 51.0702381,2.57087991 43.8203984,1.36343995 Z M49.9199982,38.6099986 C49.9199982,40.7305585 40.6015985,43.8099984 25.999999,43.8099984 C11.3983996,43.8099984 2.07999992,40.7305585 2.07999992,38.6099986 L2.07999992,25.937599 C6.77975975,28.7539189 18.4079993,29.2499989 25.999999,29.2499989 C33.5919988,29.2499989 45.2202383,28.7539189 49.9199982,25.937599 L49.9199982,38.6099986 Z M49.9199982,23.0099992 C49.9199982,24.7374391 42.4985584,27.169999 25.999999,27.169999 C9.50143965,27.169999 2.07999992,24.7374391 2.07999992,23.0099992 L2.07999992,9.29759966 C6.77975975,12.1139196 18.4079993,12.6099995 25.999999,12.6099995 C33.5919988,12.6099995 45.2202383,12.1139196 49.9199982,9.29759966 L49.9199982,23.0099992 Z M2.07999992,5.4090398 C2.8506399,4.30559984 10.7338396,2.20999992 25.999999,2.20999992 C41.2661585,2.20999992 49.1493582,4.30559984 49.9199982,5.4090398 L49.9199982,6.36999977 C49.9199982,8.0974397 42.4985584,10.5299996 25.999999,10.5299996 C9.50143965,10.5299996 2.07999992,8.0974397 2.07999992,6.36999977 L2.07999992,5.4090398 Z M25.999999,60.4499978 C11.3983996,60.4499978 2.07999992,57.3705579 2.07999992,55.249998 L2.07999992,41.6509585 C6.27015977,44.4433584 16.1782394,45.8899983 25.999999,45.8899983 C35.8217587,45.8899983 45.7298383,44.4433584 49.9199982,41.6509585 L49.9199982,55.249998 C49.9199982,57.3705579 40.6015985,60.4499978 25.999999,60.4499978 Z" id="Shape"></path>
                </g>
                <g id="pickaxe" transform="translate(55.542959, 103.587150) rotate(-37.000000) translate(-55.542959, -103.587150) translate(33.542959, 81.587150)" fill="#000000">
                    <path d="M24.3714834,2.93114049 L24.3714834,1.43357805 C24.3714834,0.641812475 23.729671,0 22.9379053,0 L20.0707492,0 C19.2789836,0 18.6371712,0.641812475 18.6371712,1.43357805 L18.6371712,2.93114049 C9.46214023,3.30815608 4.28957794,5.45835918 0.76781247,7.35853092 C0.143718786,7.6613903 -0.15323439,8.38490588 0.0784218929,9.03885904 C0.34814059,9.75482772 1.10085935,10.1659684 1.84898432,10.0058434 C7.39232781,8.94271844 13.0009683,8.25529657 18.6371712,7.94849969 L18.6371712,10.422234 C16.8872805,11.9759057 16.7156712,14.6494682 18.2529368,16.4141244 C17.5405774,17.9428587 18.0006087,19.7619836 19.3537961,20.7686711 L19.3537961,30.4201394 L19.0040149,30.5077488 C18.3661399,30.6665613 17.9189055,31.2401238 17.9202181,31.8976862 L17.9202181,36.556733 C17.9205462,36.7467173 17.8454055,36.9288266 17.7108743,37.0627016 L17.2035931,37.570311 C16.7429055,38.0280454 16.4846712,38.6511547 16.48664,39.3008422 L16.48664,39.3244672 L16.5046869,41.0418734 C16.5998431,42.1502795 17.5248274,43.0027483 18.6371712,43.0079983 L23.6545303,43.0079983 C24.4462959,43.0079983 25.0881084,42.3661858 25.0881084,41.5744203 L25.0881084,40.4410765 C25.0884365,40.0594672 24.9365146,39.6932796 24.6661396,39.4238891 L24.1644365,38.922186 C24.0486084,38.8060297 24.0486084,38.6183423 24.1644365,38.502186 C24.8390615,37.8259204 24.8390615,36.7312954 24.1644365,36.0550298 C24.1086553,35.9992486 24.0771553,35.9237798 24.0771553,35.8450298 C24.0771553,35.7662798 24.1086553,35.6908111 24.1644365,35.6350298 C24.8390615,34.9587642 24.8390615,33.8641393 24.1644365,33.1878737 C24.0486084,33.0717175 24.0486084,32.8840299 24.1644365,32.7678737 L24.6661396,32.2661706 C24.9391396,31.9941549 25.0913896,31.62403 25.0881084,31.2388113 L25.0881084,30.8224207 C25.0890928,30.4417957 24.9384834,30.0765926 24.6694209,29.80753 C24.4003584,29.5384676 24.0351553,29.3878582 23.6545303,29.3888426 L23.6545303,20.7686711 C25.0077178,19.7619836 25.4674209,17.9435149 24.7557178,16.4147806 C26.2933115,14.6501244 26.1217021,11.9762339 24.3714834,10.422234 L24.3714834,8.01510908 C25.184249,8.07253089 26.0199834,8.14209347 26.817327,8.20804657 C27.4450301,8.25956217 28.0523895,8.31042157 28.6092177,8.35143717 C29.1263426,8.34454657 29.6346082,8.21624968 30.0929988,7.97737469 L31.2155144,8.51418716 C31.4100926,8.60671845 31.6358425,8.60671845 31.8304206,8.51418716 L32.8971549,8.01248408 L33.9724206,8.79374965 C34.1414049,8.91646844 34.3559986,8.95912465 34.5594361,8.91056215 L35.7328111,8.63165587 L36.9419516,9.26034343 C37.0092173,9.29578084 37.082061,9.31973403 37.1568735,9.33187463 C37.1568735,9.33187463 40.0027015,9.79354651 41.1573734,10.0051871 C41.2597484,10.0242184 41.363764,10.033734 41.4677796,10.033734 C42.1171389,10.046859 42.7031702,9.64720272 42.9279358,9.03820275 C43.1589358,8.38523407 42.8632952,7.6627028 42.2405139,7.35951531 C38.7190766,5.45835918 33.5465143,3.30815608 24.3714834,2.93114049 Z M20.0707492,1.43357805 L22.9379053,1.43357805 L22.9379053,2.88651549 C22.4660616,2.87732799 21.9958585,2.8671561 21.5043273,2.8671561 C21.012468,2.8671561 20.5422648,2.87732799 20.0707492,2.88651549 L20.0707492,1.43357805 Z M23.2348585,34.4065299 C23.2348585,34.4852798 23.2036866,34.5607486 23.1479053,34.6165298 C22.8233897,34.9410455 22.6409522,35.3810611 22.6409522,35.840108 C22.6409522,36.2988267 22.8233897,36.7391704 23.1479053,37.063686 C23.2036866,37.1191391 23.2348585,37.194936 23.2348585,37.273686 C23.2348585,37.352436 23.2036866,37.4279047 23.1479053,37.483686 C22.4732803,38.1599516 22.4732803,39.2545766 23.1479053,39.9308422 L23.6545303,40.4410765 L23.6545303,41.5744203 L18.6371712,41.5744203 C18.2411243,41.5744203 17.9202181,41.253514 17.9202181,40.8574672 L17.9202181,39.3008422 C17.9212024,39.0321079 18.0275149,38.7745297 18.2171712,38.5838891 L18.7244524,38.0762797 C19.1287024,37.6743266 19.3554367,37.1270141 19.3537961,36.556733 L19.3537961,31.8976862 L23.6545303,30.8224207 L23.6545303,31.2447176 L23.1528272,31.7464206 C22.8283116,32.0709362 22.6462022,32.5109518 22.6462022,32.9699987 C22.6462022,33.4287175 22.8283116,33.8690612 23.1528272,34.1935768 C23.2036866,34.251983 23.2348585,34.3274518 23.2348585,34.4065299 Z M22.2209522,29.7035144 L20.7873742,30.0618269 L20.7873742,21.4324679 C21.2605304,21.5289367 21.7481241,21.5289367 22.2209522,21.4324679 L22.2209522,29.7035144 Z M23.3907179,15.7588588 C23.1196866,15.9987182 23.0698116,16.4029681 23.2748897,16.7015618 C23.8917647,17.5963587 23.7437803,18.8110774 22.9300303,19.531968 C22.1159522,20.2525304 20.8923742,20.2525304 20.0786242,19.531968 C19.2648742,18.8110774 19.1168899,17.5963587 19.7337648,16.7015618 C19.9398273,16.40264 19.8899523,15.9967494 19.6176086,15.7565619 C18.9958118,15.2204056 18.6378274,14.4404525 18.6371712,13.6191557 C18.6371712,12.0356245 19.9207961,10.7519996 21.5043273,10.7519996 C23.0878585,10.7519996 24.3714834,12.0356245 24.3714834,13.6191557 C24.3714834,14.4411088 24.0134991,15.2220463 23.3907179,15.7588588 Z M22.9379053,9.56943712 C22.0112803,9.23474964 20.9970461,9.23474964 20.0707492,9.56943712 L20.0707492,7.9019059 C20.5494836,7.8914059 21.028218,7.88484348 21.5043273,7.88484348 C21.9308897,7.88484348 22.4188116,7.90124969 22.9379053,7.92717158 L22.9379053,9.56943712 Z M41.4182328,8.59589027 C40.3934984,8.40820277 38.0493735,8.02232779 37.5017329,7.93570279 L36.157733,7.23974971 C36.0051548,7.16034351 35.8292798,7.13835911 35.6619361,7.17806222 L34.5499205,7.4402341 L33.3959049,6.60384353 C33.1842643,6.45028095 32.9056862,6.42403096 32.6691081,6.53592164 L31.5272332,7.07470283 L30.3925769,6.53231224 C30.1832332,6.43354664 29.9391082,6.44109354 29.7359988,6.55232785 C29.4213269,6.73640594 29.0761395,6.86207783 28.7168427,6.92278094 C28.1626395,6.88143723 27.5598739,6.83123413 26.9361083,6.77939034 C25.0838428,6.62549974 22.9844991,6.45126535 21.5043273,6.45126535 C13.2884057,6.45126535 4.48382793,8.06531218 1.59074994,8.59589027 C1.55793744,8.60179656 1.52414054,8.60179656 1.49132805,8.59589027 C5.21784359,6.59465595 10.8625777,4.30073423 21.5043273,4.30073423 C32.1070299,4.30073423 37.7497954,6.57529664 41.510764,8.60146845 C41.4799203,8.60409345 41.4487484,8.60212466 41.4182328,8.59589027 Z" id="Shape" stroke="#000000" stroke-width="0.2"></path>
                    <path d="M22.2209522,13.6191557 C22.2209522,14.0152026 21.900046,14.3361088 21.5043273,14.3361088 C21.1082804,14.3361088 20.7873742,14.0152026 20.7873742,13.6191557 C20.7873742,13.223437 21.1082804,12.9025307 21.5043273,12.9025307 C21.900046,12.9025307 22.2209522,13.223437 22.2209522,13.6191557 Z" id="Path"></path>
                    <path d="M22.2209522,17.9198899 C22.2209522,18.3159368 21.900046,18.6368431 21.5043273,18.6368431 C21.1082804,18.6368431 20.7873742,18.3159368 20.7873742,17.9198899 C20.7873742,17.5241712 21.1082804,17.2032649 21.5043273,17.2032649 C21.900046,17.2032649 22.2209522,17.5241712 22.2209522,17.9198899 Z" id="Path"></path>
                    <path d="M20.7873742,39.4238891 C20.7873742,39.8199359 20.466468,40.1408422 20.0707492,40.1408422 C19.6747023,40.1408422 19.3537961,39.8199359 19.3537961,39.4238891 C19.3537961,39.0281704 19.6747023,38.7072641 20.0707492,38.7072641 C20.466468,38.7072641 20.7873742,39.0281704 20.7873742,39.4238891 Z" id="Path"></path>
                </g>
            </g>
        </g>
    </g>
</svg>