<?xml version="1.0" encoding="UTF-8"?>
<svg width="147px" height="146px" viewBox="0 0 147 146" version="1.1" xmlns="http://www.w3.org/2000/svg" xmlns:xlink="http://www.w3.org/1999/xlink">
    <!-- Generator: Sketch 63.1 (92452) - https://sketch.com -->
    <title>use_of_la</title>
    <desc>Created with Sketch.</desc>
    <g id="Page-1" stroke="none" stroke-width="1" fill="none" fill-rule="evenodd">
        <g id="use_of_la" transform="translate(-4.000000, -2.000000)">
            <g id="Group-18">
                <path d="M112.643425,14.3982323 C122.764992,23.5001537 127.664128,38.2377854 125.624894,50.6812342 C123.585659,63.1246829 114.632922,73.2240752 107.943239,84.4954957 C101.253555,95.7669162 96.8766613,108.235302 87.0783883,116.489373 C77.2552467,124.743444 61.9858568,128.808138 49.6509752,124.46914 C37.2912248,120.130141 27.8659825,107.412388 20.2561563,93.7969113 C12.6214614,80.1814343 6.85192,65.7181071 8.1948305,51.5540211 C9.56260972,37.3899352 18.0925783,23.5250905 29.8803483,14.7224103 C41.6681183,5.91973015 56.7634271,2.17921449 71.9582108,2.0046571 C87.1778632,1.85503647 102.521859,5.29631087 112.643425,14.3982323 Z" id="Path" fill="#FFCCCD" fill-rule="nonzero" opacity="0.300000012" transform="translate(67.040001, 64.115001) rotate(-94.000000) translate(-67.040001, -64.115001) "></path>
                <path d="M39.2949381,7.30549534 C26.8128641,12.0673815 20.1079436,25.5203534 23.5880847,38.2302311 L23.633,38.389 L23.4827875,38.4076895 C12.6189893,39.8026929 4.33510693,49.1631612 4.50214917,60.3369907 C4.68091158,72.2247003 14.358428,81.7727724 26.2474101,81.7919277 L54.4558527,81.7919277 L54.4558527,59.9969195 C54.4558527,59.7514597 54.6327278,59.5473112 54.870439,59.5050036 L54.9622057,59.4969599 L113.911047,60.2460303 C116.131347,60.2461514 117.231756,61.6610397 117.738445,64.5975394 L117.812084,65.0510826 C117.913968,65.7294058 117.962152,66.3334796 118.032282,67.6001213 L118.098634,68.775585 C118.121571,69.1135373 118.145601,69.354675 118.179882,69.5819117 C118.308375,70.4336498 118.502015,70.9397784 119.263122,71.2893899 C120.302116,71.7666482 120.959058,71.3058183 121.570833,70.4791283 C121.845945,70.1073702 122.157491,69.568555 122.551113,68.7984615 C124.250266,65.4741943 125.148738,61.7855639 125.148738,57.9713438 C125.148738,44.8158027 114.483368,34.15076 101.328154,34.15076 L100.733789,34.1581586 C99.9417381,34.1778829 99.1516915,34.2370229 98.3667918,34.335317 L98.039,34.38 L98.0003917,34.2397524 C96.4974369,28.9932988 92.8752511,24.5763062 87.9656419,22.083886 L87.58826,21.897295 C82.788984,19.5876759 77.2747459,19.3251518 72.3007226,21.1323138 L72.21,21.166 L72.1582242,21.0435776 C66.7382879,8.6769719 52.5683213,2.48307989 39.6952584,7.15648241 L39.2949381,7.30549534 Z" id="Path" fill="#D03D39" fill-rule="nonzero"></path>
                <path d="M45.2949381,4.30549534 C32.8128641,9.0673815 26.1079436,22.5203534 29.5880847,35.2302311 L29.633,35.389 L29.4827875,35.4076895 C18.6189893,36.8026929 10.3351069,46.1631612 10.5021492,57.3369907 C10.6809116,69.2247003 20.358428,78.7727724 32.2474101,78.7919277 L60.4558527,78.7919277 L60.4558527,56.9969195 C60.4558527,56.7514597 60.6327278,56.5473112 60.870439,56.5050036 L60.9622057,56.4969599 L119.911047,57.2460303 C122.131347,57.2461514 123.231756,58.6610397 123.738445,61.5975394 L123.812084,62.0510826 C123.913968,62.7294058 123.962152,63.3334796 124.032282,64.6001213 L124.098634,65.775585 C124.121571,66.1135373 124.145601,66.354675 124.179882,66.5819117 C124.308375,67.4336498 124.502015,67.9397784 125.263122,68.2893899 C126.302116,68.7666482 126.959058,68.3058183 127.570833,67.4791283 C127.845945,67.1073702 128.157491,66.568555 128.551113,65.7984615 C130.250266,62.4741943 131.148738,58.7855639 131.148738,54.9713438 C131.148738,41.8158027 120.483368,31.15076 107.328154,31.15076 L106.733789,31.1581586 C105.941738,31.1778829 105.151691,31.2370229 104.366792,31.335317 L104.039,31.38 L104.000392,31.2397524 C102.497437,25.9932988 98.8752511,21.5763062 93.9656419,19.083886 L93.58826,18.897295 C88.788984,16.5876759 83.2747459,16.3251518 78.3007226,18.1323138 L78.21,18.166 L78.1582242,18.0435776 C72.7382879,5.6769719 58.5683213,-0.516920112 45.6952584,4.15648241 L45.2949381,4.30549534 Z M75.969494,20.6449504 L76.5269678,22.180533 L78.0095107,21.4943423 C82.6596438,19.3420416 88.0397024,19.4394959 92.6075225,21.7588648 C97.1768623,24.0785433 100.430966,28.3639697 101.437458,33.3873398 L101.732698,34.8608733 L103.205674,34.5628663 C104.560438,34.2887755 105.941986,34.15076 107.328154,34.15076 C118.826535,34.15076 128.148738,43.4726775 128.148738,54.9713438 L128.14223,55.4972037 C128.085884,57.7715095 127.664333,59.9866975 126.904749,62.0782629 L126.859,62.198 L126.847559,62.1023261 C126.807285,61.7745992 126.758605,61.4574518 126.694759,61.0874315 C125.985985,56.9797565 124.010349,54.3668724 120.199,54.2502267 L60.9558527,53.4969195 L60.7638175,53.5020984 C58.9201303,53.6017931 57.4558527,55.1283561 57.4558527,56.9969195 L57.455,75.791 L32.2498267,75.7919277 C22.000616,75.7754141 13.6559525,67.542367 13.501812,57.2920153 C13.3485837,47.0422298 21.4423445,38.5618946 31.6878817,38.238023 L33.7568734,38.1726201 L33.0504372,36.2268678 C28.7476506,24.37561 34.8674074,11.2789738 46.7189955,6.9764048 C58.5710608,2.67366256 71.666851,8.79315849 75.969494,20.6449504 Z" id="Path" fill="#000000" fill-rule="nonzero"></path>
                <g id="database" transform="translate(45.000000, 28.000000)">
                    <path d="M33.5980796,49.6903994 C32.1420796,49.4293594 30.7952797,49.1246394 29.5899197,48.7845594 C29.2306034,48.6785808 28.842056,48.774038 28.5727543,49.0344535 C28.3034526,49.2948691 28.1950168,49.6799961 28.2888839,50.0426649 C28.382751,50.4053337 28.6644137,50.6894942 29.0262397,50.7865593 C30.2960797,51.1443193 31.7094396,51.4646393 33.2299196,51.7381593 C33.2910884,51.7484717 33.3530076,51.7536896 33.4150396,51.7537593 C33.9529401,51.7525998 34.4011992,51.3414566 34.4487296,50.8056589 C34.49626,50.2698612 34.1273762,49.7862296 33.5980796,49.6903994 Z" id="Path" stroke="#000000" stroke-width="0.4" fill="#000000" fill-rule="nonzero"></path>
                    <path d="M37.6644794,50.2852793 C37.2896397,50.2310028 36.9149293,50.3847952 36.6862993,50.686754 C36.4576693,50.9887127 36.4112723,51.3910898 36.5651802,51.7371579 C36.7190881,52.083226 37.0489638,52.3182623 37.4263194,52.3507193 C40.9369907,52.7447885 44.4672896,52.9381963 47.999999,52.9299992 C51.5236251,52.9380272 55.0448564,52.7456634 58.5466387,52.3538393 C58.9245436,52.3222505 59.2552979,52.0874693 59.4097909,51.741143 C59.5642839,51.3948166 59.5180221,50.991852 59.2890639,50.6895473 C59.0601057,50.3872425 58.6847504,50.2335252 58.3095187,50.2883993 C54.8864182,50.6706579 51.4443672,50.85816 47.999999,50.8499993 C44.5468927,50.8583579 41.0961187,50.6698119 37.6644794,50.2852793 Z" id="Path" stroke="#000000" stroke-width="0.4" fill="#000000" fill-rule="nonzero"></path>
                    <path d="M37.6644794,66.9252787 C37.2896397,66.8710022 36.9149293,67.0247946 36.6862993,67.3267534 C36.4576693,67.6287121 36.4112723,68.0310892 36.5651802,68.3771573 C36.7190881,68.7232254 37.0489638,68.9582617 37.4263194,68.9907186 C40.9369907,69.3847879 44.4672896,69.5781957 47.999999,69.5699986 C51.5236251,69.5780266 55.0448564,69.3856627 58.5466387,68.9938386 C58.9245436,68.9622499 59.2552979,68.7274687 59.4097909,68.3811424 C59.5642839,68.034816 59.5180221,67.6318514 59.2890639,67.3295467 C59.0601057,67.0272419 58.6847504,66.8735246 58.3095187,66.9283987 C54.8864182,67.3106573 51.4443672,67.4981594 47.999999,67.4899987 C44.5468927,67.4983573 41.0961187,67.3098112 37.6644794,66.9252787 Z" id="Path" stroke="#000000" stroke-width="0.4" fill="#000000" fill-rule="nonzero"></path>
                    <path d="M58.3095187,83.5683981 C54.8864182,83.9506567 51.4443672,84.1381587 47.999999,84.1299981 C44.5468927,84.1383566 41.0961187,83.9498106 37.6644794,83.5652781 C37.2896397,83.5110016 36.9149293,83.664794 36.6862993,83.9667528 C36.4576693,84.2687115 36.4112723,84.6710886 36.5651802,85.0171567 C36.7190881,85.3632248 37.0489638,85.5982611 37.4263194,85.630718 C40.9369907,86.0247873 44.4672896,86.2181951 47.999999,86.209998 C51.5236251,86.218026 55.0448564,86.0256621 58.5466387,85.633838 C58.9245436,85.6022493 59.2552979,85.3674681 59.4097909,85.0211417 C59.5642839,84.6748154 59.5180221,84.2718508 59.2890639,83.969546 C59.0601057,83.6672413 58.6847504,83.513524 58.3095187,83.5683981 L58.3095187,83.5683981 Z" id="Path" stroke="#000000" stroke-width="0.4" fill="#000000" fill-rule="nonzero"></path>
                    <path d="M33.5980796,66.3303987 C32.1420796,66.0693588 30.7952797,65.7646388 29.5899197,65.4245588 C29.2306034,65.3185802 28.842056,65.4140373 28.5727543,65.6744529 C28.3034526,65.9348685 28.1950168,66.3199955 28.2888839,66.6826643 C28.382751,67.0453331 28.6644137,67.3294936 29.0262397,67.4265587 C30.2960797,67.7843187 31.7094396,68.1046387 33.2299196,68.3781587 C33.2910884,68.3884711 33.3530076,68.393689 33.4150396,68.3937587 C33.9529401,68.3925991 34.4011992,67.981456 34.4487296,67.4456583 C34.49626,66.9098606 34.1273762,66.426229 33.5980796,66.3303987 Z" id="Path" stroke="#000000" stroke-width="0.4" fill="#000000" fill-rule="nonzero"></path>
                    <path d="M33.5980796,82.9703981 C32.1420796,82.7093581 30.7952797,82.4046382 29.5899197,82.0645582 C29.2306034,81.9585796 28.842056,82.0540367 28.5727543,82.3144523 C28.3034526,82.5748679 28.1950168,82.9599949 28.2888839,83.3226637 C28.382751,83.6853325 28.6644137,83.9694929 29.0262397,84.0665581 C30.2960797,84.4243181 31.7094396,84.7446381 33.2299196,85.0181581 C33.2910884,85.0284705 33.3530076,85.0336884 33.4150396,85.0337581 C33.9529401,85.0325985 34.4011992,84.6214554 34.4487296,84.0856577 C34.49626,83.54986 34.1273762,83.0662284 33.5980796,82.9703981 Z" id="Path" stroke="#000000" stroke-width="0.4" fill="#000000" fill-rule="nonzero"></path>
                    <path d="M65.8203984,33.3634399 C59.9216714,32.4868102 53.9632505,32.0743977 48,32.13 C42.0367476,32.0743977 36.0783267,32.4868102 30.1795997,33.3634399 C22.92976,34.5708799 22,36.1173598 22,37.3299998 L22,87.249998 C22,92.0339978 35.0800795,94.5299977 48,94.5299977 C60.9199186,94.5299977 74,92.0339978 74,87.249998 L74,37.3299998 C74,36.1173598 73.0702381,34.5708799 65.8203984,33.3634399 Z M71.9199982,70.6099986 C71.9199982,72.7305585 62.6015985,75.8099984 47.999999,75.8099984 C33.3983996,75.8099984 24.0799999,72.7305585 24.0799999,70.6099986 L24.0799999,57.937599 C28.7797598,60.7539189 40.4079993,61.2499989 47.999999,61.2499989 C55.5919988,61.2499989 67.2202383,60.7539189 71.9199982,57.937599 L71.9199982,70.6099986 Z M71.9199982,55.0099992 C71.9199982,56.7374391 64.4985584,59.169999 47.999999,59.169999 C31.5014397,59.169999 24.0799999,56.7374391 24.0799999,55.0099992 L24.0799999,41.2975997 C28.7797598,44.1139196 40.4079993,44.6099995 47.999999,44.6099995 C55.5919988,44.6099995 67.2202383,44.1139196 71.9199982,41.2975997 L71.9199982,55.0099992 Z M24.0799999,37.4090398 C24.8506399,36.3055998 32.7338396,34.2099999 47.999999,34.2099999 C63.2661585,34.2099999 71.1493582,36.3055998 71.9199982,37.4090398 L71.9199982,38.3699998 C71.9199982,40.0974397 64.4985584,42.5299996 47.999999,42.5299996 C31.5014397,42.5299996 24.0799999,40.0974397 24.0799999,38.3699998 L24.0799999,37.4090398 Z M47.999999,92.4499978 C33.3983996,92.4499978 24.0799999,89.3705579 24.0799999,87.249998 L24.0799999,73.6509585 C28.2701598,76.4433584 38.1782394,77.8899983 47.999999,77.8899983 C57.8217587,77.8899983 67.7298383,76.4433584 71.9199982,73.6509585 L71.9199982,87.249998 C71.9199982,89.3705579 62.6015985,92.4499978 47.999999,92.4499978 Z" id="Shape" stroke="#000000" stroke-width="0.4" fill="#000000" fill-rule="nonzero"></path>
                    <path d="M32.5451182,0.933959797 C34.0473237,-0.359040065 35.7262713,0.572872814 37.4084748,3.00374186 L37.6743597,3.39944803 C40.4505435,7.6486167 44.1172199,16.8650092 48.7281077,31.1295918 L48.9519523,31.8237536 L47.0480477,32.4362463 L46.3894263,30.403601 C41.8973279,16.6418771 38.3375685,7.86096774 35.763867,4.141839 C35.1499068,3.25463549 34.6173337,2.69777783 34.2133287,2.47353174 C34.0015505,2.35598257 33.9555074,2.35882522 33.8498366,2.44977975 C33.2449656,2.970413 32.6799108,4.92755223 32.3491242,8.17733589 C30.5865545,25.4935491 36.6132312,91.9832098 40.5407341,113.082835 L40.6590967,113.708227 C40.9480394,115.208925 41.2691373,116.247112 41.511005,116.745157 L41.55,116.822 L41.6035159,116.747746 C41.7494799,116.532753 41.9152301,116.227375 42.0921934,115.835987 L42.1815698,115.633145 C43.4772563,112.618086 45.0307269,105.899115 46.8114597,95.5502043 L47.0140213,94.3631265 L48.9859787,94.6968689 L48.6784413,96.4916496 C46.9143181,106.656907 45.3708074,113.277334 44.0190827,116.422795 C43.1002531,118.560909 42.0414826,119.615261 40.6757441,118.765193 C39.8053184,118.223419 39.2471741,116.827349 38.75853,114.407774 L38.695168,114.086359 C34.7382035,93.5348421 28.5553689,25.6984044 30.3594051,7.97480785 L30.4426896,7.21740816 C30.8360799,3.9025843 31.484579,1.84680239 32.5451182,0.933959797 Z" id="Path-2" fill="#000000" fill-rule="nonzero"></path>
                    <path d="M101.352129,24.0681178 C104.153855,23.4672966 105.679,24.7569565 104.993825,27.3823264 C104.46973,29.3904884 102.636515,32.4674497 99.4749665,36.7123244 C81.6304281,60.6714158 25.1226442,104.126404 12.8043016,104.126404 C8.28665282,104.126404 6.814747,101.575197 8.86287546,97.4091278 C10.582407,93.9114532 14.8142126,88.8587705 21.5842051,82.1855741 L22.481644,81.3059617 L23.8776604,82.7381412 L22.9994275,83.5989051 C16.3750664,90.1281423 12.2525212,95.0475106 10.6577047,98.2915042 L10.4776295,98.6709881 C9.30310442,101.246058 9.94115829,102.126404 12.8043016,102.126404 C24.3086497,102.126404 80.3712924,59.0137333 97.8709657,35.5176775 L98.4382065,34.7488099 C101.102715,31.1012251 102.648104,28.450334 103.058643,26.8772783 L103.113479,26.6564142 C103.303742,25.8346744 103.126799,25.7427115 101.926857,25.9908921 L101.771489,26.0236581 C97.7581964,26.8842958 88.5340567,32.2395676 74.3043216,42.0219131 L73.747384,42.4052833 L72.612379,40.75854 L74.8473914,39.2260838 C88.3729594,30.0025297 97.147144,24.9698635 101.352129,24.0681178 Z" id="Path-5" fill="#000000" fill-rule="nonzero"></path>
                    <circle id="Oval" fill="#D03D39" cx="79.5" cy="56.5" r="3.5"></circle>
                    <circle id="Oval" fill="#D03D39" cx="37.5" cy="104.5" r="3.5"></circle>
                    <path d="M2.16837567,29.7814764 C4.16469805,29.4103371 10.150651,32.6606236 21.0168014,39.8258696 L23.8355252,41.6989127 L22.7232402,43.3610866 L21.2690377,42.3919554 C11.7389141,36.0675752 5.51111866,32.4767485 3.25392248,31.8397397 L3.109,31.802 L3.12130881,31.827508 C3.34463838,32.2719905 3.73232023,32.8706893 4.28093234,33.6055121 L4.45034045,33.8300246 C6.16057057,36.073565 9.1859574,39.3938872 13.5155378,43.7744847 C40.2218715,70.7955094 73.0526851,98.2774311 83.4994647,102.189926 L83.8363809,102.314032 C86.2613886,103.190109 86.4066063,102.816916 85.0921006,99.9720959 L84.889914,99.5482983 C83.1448905,95.9966684 79.1012474,90.2255892 72.7796964,82.2835833 L71.9942455,81.300246 L73.5548429,80.049432 L75.1540228,82.0588594 C81.2302086,89.751081 85.1065397,95.3526697 86.8023687,98.9089639 L86.907652,99.1331841 C88.9927884,103.645783 87.3114613,105.753245 82.7980112,104.062882 C72.1900329,100.090015 40.3274439,73.5167086 13.7155773,46.8151495 L12.0930654,45.1803909 C7.70803474,40.7436898 4.633925,37.3698948 2.85977302,35.0424994 C1.93065148,33.8236449 1.34055598,32.8723287 1.08009647,32.1389056 C0.682827261,31.0202427 1.00619475,29.9975392 2.16837567,29.7814764 Z" id="Path-6" fill="#000000" fill-rule="nonzero"></path>
                    <circle id="Oval" fill="#D03D39" cx="23.5" cy="55.5" r="3.5"></circle>
                </g>
            </g>
        </g>
    </g>
</svg>