<?xml version="1.0" encoding="UTF-8"?>
<svg width="85px" height="116px" viewBox="0 0 85 116" version="1.1" xmlns="http://www.w3.org/2000/svg" xmlns:xlink="http://www.w3.org/1999/xlink">
    <!-- Generator: Sketch 51.3 (57544) - http://www.bohemiancoding.com/sketch -->
    <title>analytics (23)</title>
    <desc>Created with Sketch.</desc>
    <defs></defs>
    <g id="desktop" stroke="none" stroke-width="1" fill="none" fill-rule="evenodd">
        <g id="Group-26" transform="translate(-7.000000, -241.000000)" fill-rule="nonzero">
            <g id="Group-2" transform="translate(7.000000, 241.000000)">
                <g id="Group-27">
                    <g id="analytics-(23)">
                        <path d="M63.7518876,13.5169043 L79.2054972,13.5169043 C81.3366026,13.5230873 83.0627096,15.2472589 83.0688996,17.3759747 L83.0688996,109.994548 C83.0627096,112.123264 81.3366026,113.847435 79.2054972,113.853618 L5.79996719,113.853618 C3.6688616,113.847435 1.9427546,112.123264 1.93656484,109.994548 L1.93656484,17.3759747 C1.9427546,15.2472589 3.6688616,13.5230873 5.79996719,13.5169043 L63.7518876,13.5169043 Z" id="Shape" fill="#15B789"></path>
                        <path d="M59.3358125,13.5169043 L73.6867298,13.5169043 C75.740019,13.6016996 77.3414432,15.3241045 77.2742382,17.3759747 L77.2742382,109.994548 C77.3414432,112.046418 75.740019,113.769706 73.6867298,113.853618 L5.52407304,113.853618 C3.46989953,113.769706 1.86935962,112.046418 1.93656484,109.994548 L1.93656484,17.3759747 C1.86935962,15.3241045 3.46989953,13.6016996 5.52407304,13.5169043 L59.3358125,13.5169043 Z" id="Shape" fill="#4FBF9F"></path>
                        <path d="M63.7518876,21.235045 L73.4108356,21.235045 C74.4772727,21.235045 75.3420947,22.0988975 75.3420947,23.1641386 L75.3420947,104.206384 C75.3420947,105.271625 74.4772727,106.135478 73.4108356,106.135478 L11.5955128,106.135478 C10.5281915,106.135478 9.66336954,105.271625 9.66336954,104.206384 L9.66336954,23.1641386 C9.66336954,22.0988975 10.5281915,21.235045 11.5955128,21.235045 L63.7518876,21.235045 Z" id="Shape" fill="#FFFFFF"></path>
                        <path d="M25.1169792,9.65783393 L59.8884853,9.65783393 C62.0222435,9.65783393 63.7518876,11.3855384 63.7518876,13.5169043 L63.7518876,21.235045 C63.7518876,23.3664109 62.0222435,25.0941154 59.8884853,25.0941154 L25.1169792,25.0941154 C22.9832209,25.0941154 21.2535768,23.3664109 21.2535768,21.235045 L21.2535768,13.5169043 C21.2535768,11.3855384 22.9832209,9.65783393 25.1169792,9.65783393 Z" id="Shape" fill="#1B8AC1"></path>
                        <path d="M25.1169792,9.65783393 L54.0929394,9.65783393 C56.2266976,9.65783393 57.9563417,11.3855384 57.9563417,13.5169043 L57.9563417,21.235045 C57.9563417,23.3664109 56.2266976,25.0941154 54.0929394,25.0941154 L25.1169792,25.0941154 C22.9832209,25.0941154 21.2535768,23.3664109 21.2535768,21.235045 L21.2535768,13.5169043 C21.2535768,11.3855384 22.9832209,9.65783393 25.1169792,9.65783393 Z" id="Shape" fill="#2CA0DA"></path>
                        <path d="M5.79996719,115.783595 L79.2054972,115.783595 C82.4065768,115.783595 85.0010429,113.192038 85.0010429,109.994548 L85.0010429,17.3759747 C85.0010429,14.1784844 82.4065768,11.5869275 79.2054972,11.5869275 L65.328552,11.5869275 C64.5123651,9.28243781 62.3352771,7.73845633 59.8884853,7.72785691 L51.9680238,7.72785691 C51.0545666,3.23105496 47.0965467,0 42.5027321,0 C37.909802,0 33.951782,3.23105496 33.0374404,7.72785691 L25.1169792,7.72785691 C22.6701871,7.73845633 20.4930994,9.28243781 19.6777967,11.5869275 L5.79996719,11.5869275 C4.26309516,11.5869275 2.7890068,12.197277 1.70223149,13.2828339 C0.615456186,14.3683907 0.00442136933,15.8408261 0.00442136933,17.3759747 L0.00442136933,109.994548 C0.00442136933,113.192038 2.59977182,115.783595 5.79996719,115.783595 Z M19.6777967,23.1641386 C20.4930994,25.4686281 22.6701871,27.013493 25.1169792,27.023209 L59.8884853,27.023209 C62.3352771,27.013493 64.5123651,25.4686281 65.328552,23.1641386 L73.4108356,23.1641386 L73.4108356,104.206384 L11.5955128,104.206384 L11.5955128,23.1641386 L19.6777967,23.1641386 Z M42.5027321,3.86878655 C44.9504084,3.87850274 47.1266122,5.42336745 47.9427989,7.72785691 L37.0635496,7.72785691 C37.8788523,5.42336745 40.05594,3.87850274 42.5027321,3.86878655 Z M25.1169792,11.5869275 L59.8884853,11.5869275 C60.9549222,11.5869275 61.8206285,12.4507797 61.8206285,13.5169043 L61.8206285,21.235045 C61.8206285,22.3002864 60.9549222,23.1641386 59.8884853,23.1641386 L25.1169792,23.1641386 C24.0505423,23.1641386 23.1857201,22.3002864 23.1857201,21.235045 L23.1857201,13.5169043 C23.1857201,12.4507797 24.0505423,11.5869275 25.1169792,11.5869275 Z M3.86870812,17.3759747 C3.86870812,16.3098501 4.73353006,15.4459979 5.79996719,15.4459979 L19.3223178,15.4459979 L19.3223178,19.3050682 L11.5955128,19.3050682 C9.46175459,19.3050682 7.73211048,21.0327729 7.73211048,23.1641386 L7.73211048,104.206384 C7.73211048,106.33775 9.46175459,108.065454 11.5955128,108.065454 L73.4108356,108.065454 C75.5445941,108.065454 77.2742382,106.33775 77.2742382,104.206384 L77.2742382,23.1641386 C77.2742382,21.0327729 75.5445941,19.3050682 73.4108356,19.3050682 L65.6840309,19.3050682 L65.6840309,15.4459979 L79.2054972,15.4459979 C80.2728184,15.4459979 81.1376405,16.3098501 81.1376405,17.3759747 L81.1376405,109.994548 C81.1376405,111.060673 80.2728184,111.924525 79.2054972,111.924525 L5.79996719,111.924525 C4.73353006,111.924525 3.86870812,111.060673 3.86870812,109.994548 L3.86870812,17.3759747 Z" id="Shape" fill="#183651"></path>
                        <path d="M28.9803815,19.3050682 L32.8446683,19.3050682 C33.9111052,19.3050682 34.7759274,18.441216 34.7759274,17.3759747 C34.7759274,16.3098501 33.9111052,15.4459979 32.8446683,15.4459979 L28.9803815,15.4459979 C27.9139446,15.4459979 27.0491225,16.3098501 27.0491225,17.3759747 C27.0491225,18.441216 27.9139446,19.3050682 28.9803815,19.3050682 Z" id="Shape" fill="#183651"></path>
                        <path d="M40.571473,19.3050682 L56.0250827,19.3050682 C57.0915198,19.3050682 57.9563417,18.441216 57.9563417,17.3759747 C57.9563417,16.3098501 57.0915198,15.4459979 56.0250827,15.4459979 L40.571473,15.4459979 C39.5041517,15.4459979 38.6393298,16.3098501 38.6393298,17.3759747 C38.6393298,18.441216 39.5041517,19.3050682 40.571473,19.3050682 Z" id="Shape" fill="#183651"></path>
                        <path d="M19.3223178,57.8966558 C19.3223178,56.8305312 18.4574956,55.9666787 17.3901742,55.9666787 C16.3237373,55.9666787 15.4589152,56.8305312 15.4589152,57.8966558 C15.4589152,62.6663926 19.6450785,66.6296904 25.1169792,67.3999146 L25.1169792,67.5447735 C25.1169792,68.6100146 25.9818013,69.4738671 27.0491225,69.4738671 C28.1155596,69.4738671 28.9803815,68.6100146 28.9803815,67.5447735 L28.9803815,67.3999146 C34.4531664,66.627924 38.6393298,62.6663926 38.6393298,57.8966558 C38.6393298,53.1269189 34.4531664,49.1636209 28.9803815,48.3933967 L28.9803815,36.8762487 C32.3052598,37.5245797 34.7759274,39.7698891 34.7759274,42.4603741 C34.7759274,43.5256152 35.6407493,44.3894676 36.7080707,44.3894676 C37.7745078,44.3894676 38.6393298,43.5256152 38.6393298,42.4603741 C38.6393298,37.6906372 34.4531664,33.726456 28.9803815,32.957115 L28.9803815,32.8122563 C28.9803815,31.7470152 28.1155596,30.8822795 27.0491225,30.8822795 C25.9818013,30.8822795 25.1169792,31.7470152 25.1169792,32.8122563 L25.1169792,32.957115 C19.6450785,33.7291056 15.4589152,37.6906372 15.4589152,42.4603741 C15.4589152,47.2301109 19.6450785,51.193409 25.1169792,51.9636332 L25.1169792,63.4790144 C21.7929852,62.8324501 19.3223178,60.5862573 19.3223178,57.8966558 Z M34.7759274,57.8966558 C34.7759274,60.5862573 32.3052598,62.8324501 28.9803815,63.4790144 L28.9803815,52.3125304 C32.3052598,52.9608614 34.7759274,55.2070542 34.7759274,57.8966558 Z M19.3223178,42.4603741 C19.3223178,39.7698891 21.7929852,37.5245797 25.1169792,36.8762487 L25.1169792,48.0427328 C21.7929852,47.3961684 19.3223178,45.1499756 19.3223178,42.4603741 Z" id="Shape" fill="#183651"></path>
                        <path d="M17.3901742,98.4173369 C17.9030546,98.4173369 18.3938277,98.2141813 18.756381,97.8520347 L32.8446683,83.7795442 L41.1374098,92.0629873 C41.8916975,92.816429 43.1146512,92.816429 43.8689387,92.0629873 L65.6840309,70.2732396 L65.6840309,73.3329374 C65.6840309,74.399062 66.5488528,75.2629142 67.61529,75.2629142 C68.6826113,75.2629142 69.5474332,74.399062 69.5474332,73.3329374 L69.5474332,65.6147965 C69.5430119,65.3842593 69.4970296,65.1563719 69.4121391,64.9417337 C69.3864951,64.8754873 69.3573138,64.8110076 69.3245957,64.7482943 C69.2520851,64.6034357 69.1601204,64.4691764 69.0522386,64.347283 C69.011562,64.2951694 68.9664639,64.2457055 68.9195973,64.1988912 C68.7692703,64.0566824 68.5968366,63.9409723 68.4093698,63.8552936 C68.3916845,63.8552936 68.3784203,63.8340947 68.3607348,63.8261452 C68.1476241,63.7413499 67.9203652,63.6963023 67.6904534,63.6927692 C67.6656936,63.6927692 67.6462397,63.6795201 67.62148,63.6795201 L59.8884853,63.6795201 C58.8220481,63.6795201 57.9563417,64.5433723 57.9563417,65.6094969 C57.9563417,66.674738 58.8220481,67.5385905 59.8884853,67.5385905 L62.952502,67.5385905 L42.5027321,87.9707298 L34.2099907,79.6872867 C33.455703,78.933845 32.2327493,78.933845 31.4784618,79.6872867 L16.0248519,95.1235684 C15.4721794,95.6756215 15.3068199,96.5050255 15.6057051,97.226669 C15.9054748,97.9474292 16.6093586,98.4173369 17.3901742,98.4173369 Z" id="Shape" fill="#F06151"></path>
                        <path d="M28.9803815,92.6291727 C27.9139446,92.6291727 27.0491225,93.4930252 27.0491225,94.5582663 L27.0491225,96.4882433 C27.0491225,97.5534844 27.9139446,98.4173369 28.9803815,98.4173369 C30.0477029,98.4173369 30.912525,97.5534844 30.912525,96.4882433 L30.912525,94.5582663 C30.912525,93.4930252 30.0477029,92.6291727 28.9803815,92.6291727 Z" id="Shape" fill="#183651"></path>
                        <path d="M36.7080707,92.6291727 C35.6407493,92.6291727 34.7759274,93.4930252 34.7759274,94.5582663 L34.7759274,96.4882433 C34.7759274,97.5534844 35.6407493,98.4173369 36.7080707,98.4173369 C37.7745078,98.4173369 38.6393298,97.5534844 38.6393298,96.4882433 L38.6393298,94.5582663 C38.6393298,93.4930252 37.7745078,92.6291727 36.7080707,92.6291727 Z" id="Shape" fill="#183651"></path>
                        <path d="M48.298278,92.6291727 C47.2309566,92.6291727 46.3661345,93.4930252 46.3661345,94.5582663 L46.3661345,96.4882433 C46.3661345,97.5534844 47.2309566,98.4173369 48.298278,98.4173369 C49.3647149,98.4173369 50.229537,97.5534844 50.229537,96.4882433 L50.229537,94.5582663 C50.229537,93.4930252 49.3647149,92.6291727 48.298278,92.6291727 Z" id="Shape" fill="#183651"></path>
                        <path d="M56.0250827,84.9101485 C54.9577616,84.9101485 54.0929394,85.774001 54.0929394,86.8401255 L54.0929394,96.4882433 C54.0929394,97.5534844 54.9577616,98.4173369 56.0250827,98.4173369 C57.0915198,98.4173369 57.9563417,97.5534844 57.9563417,96.4882433 L57.9563417,86.8401255 C57.9563417,85.774001 57.0915198,84.9101485 56.0250827,84.9101485 Z" id="Shape" fill="#183651"></path>
                        <path d="M63.7518876,77.1920078 C62.6854505,77.1920078 61.8206285,78.05586 61.8206285,79.1219846 L61.8206285,96.4882433 C61.8206285,97.5534844 62.6854505,98.4173369 63.7518876,98.4173369 C64.819209,98.4173369 65.6840309,97.5534844 65.6840309,96.4882433 L65.6840309,79.1219846 C65.6840309,78.05586 64.819209,77.1920078 63.7518876,77.1920078 Z" id="Shape" fill="#183651"></path>
                        <path d="M46.3661345,40.5303973 L50.229537,40.5303973 C51.2968582,40.5303973 52.1616803,39.6665448 52.1616803,38.6013037 C52.1616803,37.5351792 51.2968582,36.6713267 50.229537,36.6713267 L46.3661345,36.6713267 C45.2996976,36.6713267 44.4348754,37.5351792 44.4348754,38.6013037 C44.4348754,39.6665448 45.2996976,40.5303973 46.3661345,40.5303973 Z" id="Shape" fill="#183651"></path>
                        <path d="M57.9563417,40.5303973 L65.6840309,40.5303973 C66.750468,40.5303973 67.61529,39.6665448 67.61529,38.6013037 C67.61529,37.5351792 66.750468,36.6713267 65.6840309,36.6713267 L57.9563417,36.6713267 C56.8899048,36.6713267 56.0250827,37.5351792 56.0250827,38.6013037 C56.0250827,39.6665448 56.8899048,40.5303973 57.9563417,40.5303973 Z" id="Shape" fill="#183651"></path>
                        <path d="M46.3661345,55.9666787 L50.229537,55.9666787 C51.2968582,55.9666787 52.1616803,55.1028265 52.1616803,54.0375852 C52.1616803,52.9714608 51.2968582,52.1076084 50.229537,52.1076084 L46.3661345,52.1076084 C45.2996976,52.1076084 44.4348754,52.9714608 44.4348754,54.0375852 C44.4348754,55.1028265 45.2996976,55.9666787 46.3661345,55.9666787 Z" id="Shape" fill="#183651"></path>
                        <path d="M65.6840309,52.1076084 L57.9563417,52.1076084 C56.8899048,52.1076084 56.0250827,52.9714608 56.0250827,54.0375852 C56.0250827,55.1028265 56.8899048,55.9666787 57.9563417,55.9666787 L65.6840309,55.9666787 C66.750468,55.9666787 67.61529,55.1028265 67.61529,54.0375852 C67.61529,52.9714608 66.750468,52.1076084 65.6840309,52.1076084 Z" id="Shape" fill="#183651"></path>
                        <path d="M65.6840309,44.3894676 L61.8206285,44.3894676 C60.7533072,44.3894676 59.8884853,45.2533199 59.8884853,46.3194444 C59.8884853,47.3846858 60.7533072,48.248538 61.8206285,48.248538 L65.6840309,48.248538 C66.750468,48.248538 67.61529,47.3846858 67.61529,46.3194444 C67.61529,45.2533199 66.750468,44.3894676 65.6840309,44.3894676 Z" id="Shape" fill="#183651"></path>
                        <path d="M46.3661345,48.248538 L54.0929394,48.248538 C55.1602607,48.248538 56.0250827,47.3846858 56.0250827,46.3194444 C56.0250827,45.2533199 55.1602607,44.3894676 54.0929394,44.3894676 L46.3661345,44.3894676 C45.2996976,44.3894676 44.4348754,45.2533199 44.4348754,46.3194444 C44.4348754,47.3846858 45.2996976,48.248538 46.3661345,48.248538 Z" id="Shape" fill="#183651"></path>
                    </g>
                </g>
            </g>
        </g>
    </g>
</svg>