<?xml version="1.0" encoding="UTF-8"?>
<svg width="80px" height="80px" viewBox="0 0 80 80" version="1.1" xmlns="http://www.w3.org/2000/svg" xmlns:xlink="http://www.w3.org/1999/xlink">
    <!-- Generator: Sketch 51.3 (57544) - http://www.bohemiancoding.com/sketch -->
    <title>Group 31</title>
    <desc>Created with Sketch.</desc>
    <defs></defs>
    <g id="desktop" stroke="none" stroke-width="1" fill="none" fill-rule="evenodd">
        <g id="Group-34" transform="translate(-125.000000, -203.000000)" fill-rule="nonzero">
            <g id="Group-31" transform="translate(125.000000, 203.000000)">
                <g id="Group-29">
                    <circle id="Oval-4" fill="#4FBF9F" cx="40" cy="40" r="40"></circle>
                    <g id="cost_efficient_selected" transform="translate(18.000000, 11.000000)" fill="#FFFFFF" stroke="#FFFFFF" stroke-width="0.2">
                        <path d="M2.99122795,57.8917977 L40.8487995,57.8917977 C42.4996983,57.8917977 43.8377472,56.5960191 43.8377472,54.997274 L43.8377472,8.68798733 C43.8377472,7.0892422 42.4996983,5.79346375 40.8487995,5.79346375 L33.6920166,5.79346375 C33.2710829,4.6412189 32.1482893,3.86922816 30.8864007,3.86392846 L26.8015663,3.86392846 C26.3304673,1.61552748 24.2891903,0 21.9200137,0 C19.5512932,0 17.5100162,1.61552748 17.0384611,3.86392846 L12.9536267,3.86392846 C11.6917381,3.86922816 10.5689445,4.6412189 10.1484669,5.79346375 L2.99122795,5.79346375 C2.19861406,5.79346375 1.4383797,6.0986385 0.877895038,6.64141697 C0.317410372,7.18419533 0.00228024109,7.92041307 0.00228024109,8.68798733 L0.00228024109,54.997274 C0.00228024109,56.5960191 1.34078519,57.8917977 2.99122795,57.8917977 Z M10.1484669,11.5820693 C10.5689445,12.734314 11.6917381,13.5067465 12.9536267,13.5116045 L30.8864007,13.5116045 C32.1482893,13.5067465 33.2710829,12.734314 33.6920166,11.5820693 L37.8603078,11.5820693 L37.8603078,52.103192 L5.98017556,52.103192 L5.98017556,11.5820693 L10.1484669,11.5820693 Z M21.9200137,1.93439327 C23.1823584,1.93925137 24.304696,2.71168372 24.7256295,3.86392846 L19.1148539,3.86392846 C19.5353315,2.71168372 20.658125,1.93925137 21.9200137,1.93439327 Z M12.9536267,5.79346375 L30.8864007,5.79346375 C31.4363962,5.79346375 31.8828686,6.22538986 31.8828686,6.75845215 L31.8828686,10.6175225 C31.8828686,11.1501432 31.4363962,11.5820693 30.8864007,11.5820693 L12.9536267,11.5820693 C12.4036312,11.5820693 11.9576149,11.1501432 11.9576149,10.6175225 L11.9576149,6.75845215 C11.9576149,6.22538986 12.4036312,5.79346375 12.9536267,5.79346375 Z M1.99521609,8.68798733 C1.99521609,8.15492504 2.44123233,7.72299893 2.99122795,7.72299893 L9.96513515,7.72299893 L9.96513515,9.65253411 L5.98017556,9.65253411 C4.87972842,9.65253411 3.98769583,10.5163865 3.98769583,11.5820693 L3.98769583,52.103192 C3.98769583,53.1688748 4.87972842,54.0327272 5.98017556,54.0327272 L37.8603078,54.0327272 C38.9607551,54.0327272 39.8527877,53.1688748 39.8527877,52.103192 L39.8527877,11.5820693 C39.8527877,10.5163865 38.9607551,9.65253411 37.8603078,9.65253411 L33.8753484,9.65253411 L33.8753484,7.72299893 L40.8487995,7.72299893 C41.3992511,7.72299893 41.8452674,8.15492504 41.8452674,8.68798733 L41.8452674,54.997274 C41.8452674,55.5303363 41.3992511,55.9622624 40.8487995,55.9622624 L2.99122795,55.9622624 C2.44123233,55.9622624 1.99521609,55.5303363 1.99521609,54.997274 L1.99521609,8.68798733 Z" id="Shape"></path>
                        <path d="M14.9461065,9.65253411 L16.9390424,9.65253411 C17.4890379,9.65253411 17.9350542,9.220608 17.9350542,8.68798733 C17.9350542,8.15492504 17.4890379,7.72299893 16.9390424,7.72299893 L14.9461065,7.72299893 C14.396111,7.72299893 13.9500946,8.15492504 13.9500946,8.68798733 C13.9500946,9.220608 14.396111,9.65253411 14.9461065,9.65253411 Z" id="Shape"></path>
                        <path d="M20.9240018,9.65253411 L28.8939209,9.65253411 C29.4439165,9.65253411 29.8899327,9.220608 29.8899327,8.68798733 C29.8899327,8.15492504 29.4439165,7.72299893 28.8939209,7.72299893 L20.9240018,7.72299893 C20.3735502,7.72299893 19.9275339,8.15492504 19.9275339,8.68798733 C19.9275339,9.220608 20.3735502,9.65253411 20.9240018,9.65253411 Z" id="Shape"></path>
                        <path d="M9.96513515,28.9483279 C9.96513515,28.4152656 9.51911879,27.9833394 8.96866716,27.9833394 C8.41867166,27.9833394 7.9726553,28.4152656 7.9726553,28.9483279 C7.9726553,31.3331963 10.1315931,33.3148452 12.9536267,33.6999573 L12.9536267,33.7723868 C12.9536267,34.3050073 13.3996431,34.7369335 13.9500946,34.7369335 C14.5000902,34.7369335 14.9461065,34.3050073 14.9461065,33.7723868 L14.9461065,33.6999573 C17.7685961,33.313962 19.9275339,31.3331963 19.9275339,28.9483279 C19.9275339,26.5634595 17.7685961,24.5818104 14.9461065,24.1966983 L14.9461065,18.4381244 C16.6608522,18.7622899 17.9350542,19.8849445 17.9350542,21.230187 C17.9350542,21.7628076 18.3810705,22.1947338 18.9315221,22.1947338 C19.4815177,22.1947338 19.9275339,21.7628076 19.9275339,21.230187 C19.9275339,18.8453186 17.7685961,16.863228 14.9461065,16.4785575 L14.9461065,16.4061282 C14.9461065,15.8735076 14.5000902,15.4411398 13.9500946,15.4411398 C13.3996431,15.4411398 12.9536267,15.8735076 12.9536267,16.4061282 L12.9536267,16.4785575 C10.1315931,16.8645528 7.9726553,18.8453186 7.9726553,21.230187 C7.9726553,23.6150555 10.1315931,25.5967045 12.9536267,25.9818166 L12.9536267,31.7395072 C11.2393371,31.4162251 9.96513515,30.2931287 9.96513515,28.9483279 Z M17.9350542,28.9483279 C17.9350542,30.2931287 16.6608522,31.4162251 14.9461065,31.7395072 L14.9461065,26.1562652 C16.6608522,26.4804307 17.9350542,27.6035271 17.9350542,28.9483279 Z M9.96513515,21.230187 C9.96513515,19.8849445 11.2393371,18.7622899 12.9536267,18.4381244 L12.9536267,24.0213664 C11.2393371,23.6980842 9.96513515,22.5749878 9.96513515,21.230187 Z" id="Shape"></path>
                        <path d="M8.96866716,49.2086684 C9.23317592,49.2086684 9.48628324,49.1070906 9.67326355,48.9260174 L16.9390424,41.8897721 L21.2158734,46.0314937 C21.6048836,46.4082145 22.2355999,46.4082145 22.62461,46.0314937 L33.8753484,35.1366198 L33.8753484,36.6664687 C33.8753484,37.199531 34.3213646,37.6314571 34.8713602,37.6314571 C35.4218119,37.6314571 35.8678281,37.199531 35.8678281,36.6664687 L35.8678281,32.8073982 C35.8655479,32.6921296 35.8418333,32.578186 35.7980526,32.4708669 C35.7848272,32.4377437 35.7697774,32.4055038 35.7529036,32.3741472 C35.7155077,32.3017178 35.6680785,32.2345882 35.6124404,32.1736415 C35.5914622,32.1475847 35.5682037,32.1228527 35.5440331,32.0994456 C35.4665046,32.0283412 35.3775751,31.9704862 35.2808925,31.9276468 C35.2717716,31.9276468 35.2649309,31.9170474 35.2558099,31.9130726 C35.1459019,31.870675 35.0286972,31.8481512 34.9101244,31.8463846 C34.897355,31.8463846 34.887322,31.83976 34.8745526,31.83976 L30.8864007,31.83976 C30.3364051,31.83976 29.8899327,32.2716862 29.8899327,32.8047484 C29.8899327,33.337369 30.3364051,33.7692952 30.8864007,33.7692952 L32.4666118,33.7692952 L21.9200137,43.9853649 L17.6431826,39.8436434 C17.2541724,39.4669225 16.6234562,39.4669225 16.2344461,39.8436434 L8.26452691,47.5617842 C7.97949607,47.8378107 7.89421492,48.2525128 8.04835956,48.6133345 C8.20296033,48.9737146 8.56597564,49.2086684 8.96866716,49.2086684 Z" id="Shape"></path>
                        <path d="M14.9461065,46.3145864 C14.396111,46.3145864 13.9500946,46.7465126 13.9500946,47.2791331 L13.9500946,48.2441216 C13.9500946,48.7767422 14.396111,49.2086684 14.9461065,49.2086684 C15.4965581,49.2086684 15.9425745,48.7767422 15.9425745,48.2441216 L15.9425745,47.2791331 C15.9425745,46.7465126 15.4965581,46.3145864 14.9461065,46.3145864 Z" id="Shape"></path>
                        <path d="M18.9315221,46.3145864 C18.3810705,46.3145864 17.9350542,46.7465126 17.9350542,47.2791331 L17.9350542,48.2441216 C17.9350542,48.7767422 18.3810705,49.2086684 18.9315221,49.2086684 C19.4815177,49.2086684 19.9275339,48.7767422 19.9275339,48.2441216 L19.9275339,47.2791331 C19.9275339,46.7465126 19.4815177,46.3145864 18.9315221,46.3145864 Z" id="Shape"></path>
                        <path d="M24.9089614,46.3145864 C24.3585098,46.3145864 23.9124934,46.7465126 23.9124934,47.2791331 L23.9124934,48.2441216 C23.9124934,48.7767422 24.3585098,49.2086684 24.9089614,49.2086684 C25.4589569,49.2086684 25.9049733,48.7767422 25.9049733,48.2441216 L25.9049733,47.2791331 C25.9049733,46.7465126 25.4589569,46.3145864 24.9089614,46.3145864 Z" id="Shape"></path>
                        <path d="M28.8939209,42.4550743 C28.3434694,42.4550743 27.897453,42.8870005 27.897453,43.4200628 L27.897453,48.2441216 C27.897453,48.7767422 28.3434694,49.2086684 28.8939209,49.2086684 C29.4439165,49.2086684 29.8899327,48.7767422 29.8899327,48.2441216 L29.8899327,43.4200628 C29.8899327,42.8870005 29.4439165,42.4550743 28.8939209,42.4550743 Z" id="Shape"></path>
                        <path d="M32.8788805,38.5960039 C32.3288849,38.5960039 31.8828686,39.02793 31.8828686,39.5609923 L31.8828686,48.2441216 C31.8828686,48.7767422 32.3288849,49.2086684 32.8788805,49.2086684 C33.4293321,49.2086684 33.8753484,48.7767422 33.8753484,48.2441216 L33.8753484,39.5609923 C33.8753484,39.02793 33.4293321,38.5960039 32.8788805,38.5960039 Z" id="Shape"></path>
                        <path d="M23.9124934,20.2651986 L25.9049733,20.2651986 C26.4554248,20.2651986 26.9014412,19.8332724 26.9014412,19.3006519 C26.9014412,18.7675896 26.4554248,18.3356633 25.9049733,18.3356633 L23.9124934,18.3356633 C23.3624979,18.3356633 22.9164816,18.7675896 22.9164816,19.3006519 C22.9164816,19.8332724 23.3624979,20.2651986 23.9124934,20.2651986 Z" id="Shape"></path>
                        <path d="M29.8899327,20.2651986 L33.8753484,20.2651986 C34.425344,20.2651986 34.8713602,19.8332724 34.8713602,19.3006519 C34.8713602,18.7675896 34.425344,18.3356633 33.8753484,18.3356633 L29.8899327,18.3356633 C29.3399372,18.3356633 28.8939209,18.7675896 28.8939209,19.3006519 C28.8939209,19.8332724 29.3399372,20.2651986 29.8899327,20.2651986 Z" id="Shape"></path>
                        <path d="M23.9124934,27.9833394 L25.9049733,27.9833394 C26.4554248,27.9833394 26.9014412,27.5514133 26.9014412,27.0187926 C26.9014412,26.4857304 26.4554248,26.0538042 25.9049733,26.0538042 L23.9124934,26.0538042 C23.3624979,26.0538042 22.9164816,26.4857304 22.9164816,27.0187926 C22.9164816,27.5514133 23.3624979,27.9833394 23.9124934,27.9833394 Z" id="Shape"></path>
                        <path d="M33.8753484,26.0538042 L29.8899327,26.0538042 C29.3399372,26.0538042 28.8939209,26.4857304 28.8939209,27.0187926 C28.8939209,27.5514133 29.3399372,27.9833394 29.8899327,27.9833394 L33.8753484,27.9833394 C34.425344,27.9833394 34.8713602,27.5514133 34.8713602,27.0187926 C34.8713602,26.4857304 34.425344,26.0538042 33.8753484,26.0538042 Z" id="Shape"></path>
                        <path d="M33.8753484,22.1947338 L31.8828686,22.1947338 C31.332417,22.1947338 30.8864007,22.6266599 30.8864007,23.1597222 C30.8864007,23.6923429 31.332417,24.124269 31.8828686,24.124269 L33.8753484,24.124269 C34.425344,24.124269 34.8713602,23.6923429 34.8713602,23.1597222 C34.8713602,22.6266599 34.425344,22.1947338 33.8753484,22.1947338 Z" id="Shape"></path>
                        <path d="M23.9124934,24.124269 L27.897453,24.124269 C28.4479046,24.124269 28.8939209,23.6923429 28.8939209,23.1597222 C28.8939209,22.6266599 28.4479046,22.1947338 27.897453,22.1947338 L23.9124934,22.1947338 C23.3624979,22.1947338 22.9164816,22.6266599 22.9164816,23.1597222 C22.9164816,23.6923429 23.3624979,24.124269 23.9124934,24.124269 Z" id="Shape"></path>
                    </g>
                </g>
            </g>
        </g>
    </g>
</svg>