<?xml version="1.0" encoding="UTF-8"?>
<svg width="57px" height="57px" viewBox="0 0 57 57" version="1.1" xmlns="http://www.w3.org/2000/svg" xmlns:xlink="http://www.w3.org/1999/xlink">
    <!-- Generator: Sketch 51.3 (57544) - http://www.bohemiancoding.com/sketch -->
    <title>tag (1)</title>
    <desc>Created with Sketch.</desc>
    <defs></defs>
    <g id="desktop" stroke="none" stroke-width="1" fill="none" fill-rule="evenodd">
        <g id="ecommerce" transform="translate(-1065.000000, -4975.000000)" fill-rule="nonzero">
            <g id="Group-41" transform="translate(1005.000000, 4975.000000)">
                <g id="tag-(1)" transform="translate(60.000000, 0.000000)">
                    <path d="M47.1072049,9.77252197 C46.2395833,8.90320584 44.8320312,8.90320584 43.9639757,9.77252197 C43.0963542,10.6422729 43.0963542,12.0525742 43.9639757,12.9218902 C44.8320312,13.7916412 46.2395833,13.7916412 47.1072049,12.9218902 C47.9752604,12.0525742 47.9752604,10.6422729 47.1072049,9.77252197 Z M50.249566,6.62445829 C52.8971354,9.27719876 52.9327257,13.5420227 50.3294271,16.1504058 L55.0985243,20.7940063 C55.9661458,21.6633225 55.9661458,23.0727539 55.0985243,23.94207 L23.7335069,55.2339707 C22.8654513,56.1032867 21.4578993,56.1032867 20.5902778,55.2339707 L15.6623264,50.2963943 C13.1757812,51.4653396 10.1037327,51.0243759 8.02039933,48.9361038 C5.93576389,46.8487014 5.49609378,43.7706528 6.66276044,41.279251 L1.734809,36.3416748 C0.867187556,35.4723587 0.867187556,34.0616226 1.734809,33.1923066 L32.9652778,1.76602933 C33.8333333,0.896713312 35.2400173,0.896713312 36.1076389,1.76602933 L40.7417534,6.54400635 C43.3450521,3.93562311 47.6019966,3.97128296 50.249566,6.62445829 Z" id="Shape" fill="#E87288"></path>
                    <polygon id="Shape" fill="#FFFFFF" points="7.234375 33.9794312 33.750434 7.41158297 49.4635417 23.1553803 22.9474827 49.7227935"></polygon>
                    <path d="M29.9422743,20.6748505 C30.8098958,21.5441665 30.8098958,22.9535981 29.9422743,23.8229141 C29.0742188,24.6926651 27.6666667,24.6926651 26.7990451,23.8229141 C25.9309896,22.9535981 25.9309896,21.5441665 26.7990451,20.6748505 C27.6666667,19.8055344 29.0742188,19.8055344 29.9422743,20.6748505 Z" id="Shape" fill="#FFE781"></path>
                    <path d="M30.593316,34.8439636 C30.593316,36.0737915 29.5980902,37.070961 28.3706598,37.070961 C27.1427951,37.070961 26.1480034,36.0737915 26.1480034,34.8439636 C26.1480034,33.6137009 27.1427951,32.6169663 28.3706598,32.6169663 C29.5980902,32.6169663 30.593316,33.6137009 30.593316,34.8439636 Z" id="Shape" fill="#FFE781"></path>
                    <path d="M19.7556423,23.0362244 C20.1901042,22.600914 20.1901042,21.8959809 19.7556423,21.4619751 C19.3224827,21.0266648 18.6189236,21.0266648 18.1844618,21.4619751 C17.75,21.8959809 17.75,22.600914 18.1844618,23.0362244 C18.6189236,23.47023 19.3224827,23.47023 19.7556423,23.0362244 Z" id="Shape" fill="#000000"></path>
                    <path d="M30.7556423,24.6104736 C32.0551216,23.3084565 32.0551216,21.1897431 30.7556423,19.8877258 C29.453125,18.5826645 27.34375,18.5822296 26.0412327,19.8877258 C24.7382812,21.1927871 24.7382812,23.3049775 26.0412327,24.6104736 C27.3407118,25.9124908 29.4557291,25.9129257 30.7556423,24.6104736 Z M27.6124132,21.4619751 C28.046875,21.0270996 28.75,21.0270996 29.1844618,21.4619751 C29.6171876,21.8959809 29.6171876,22.6017837 29.1844618,23.0357895 C28.750868,23.4697952 28.0455729,23.47023 27.6124132,23.0357895 C27.1788194,22.6017837 27.1770833,21.8981552 27.6124132,21.4619751 Z" id="Shape" fill="#000000"></path>
                    <path d="M26.0412327,32.48172 C24.7382812,33.7872162 24.7382812,35.9002762 26.0412327,37.2057724 C27.34375,38.5108337 29.452691,38.5112686 30.7556423,37.2057724 C32.0555556,35.9033203 32.0555556,33.7841721 30.7556423,32.48172 C29.453125,31.1770935 27.34375,31.1766587 26.0412327,32.48172 Z M29.1844618,35.6315232 C28.75,36.0663986 28.046441,36.0663986 27.6124132,35.6315232 C27.1788194,35.1970825 27.1770833,34.4925842 27.6124132,34.0564041 C28.046875,33.6210938 28.75,33.6215286 29.1844618,34.0564041 C29.6176216,34.4904099 29.6176216,35.1970825 29.1844618,35.6315232 Z" id="Shape" fill="#000000"></path>
                    <path d="M19.4518229,30.3390884 C19.5720487,30.9426956 20.1579861,31.3327789 20.7591146,31.2123184 L36.4722222,28.0629502 C37.0737847,27.9424897 37.4639757,27.3558426 37.34375,26.7531052 C37.2235243,26.1499329 36.6380209,25.7594146 36.0364583,25.8798752 L20.3233507,29.0292434 C19.7213542,29.149704 19.3311632,29.736351 19.4518229,30.3390884 Z" id="Shape" fill="#000000"></path>
                    <path d="M33.7786458,6.29830172 C33.483941,6.29830172 33.2013889,6.4152832 32.9930556,6.62402344 L21.327691,18.3121719 C20.8936632,18.7470474 20.8936632,19.4519805 21.327691,19.886856 C21.7617188,20.3217315 22.4652778,20.3217315 22.8988716,19.886856 L33.7786458,8.98583224 L47.9201389,23.1553803 L22.9756944,48.1485444 L8.83376733,33.9794312 L16.6137153,26.1842881 C17.0477431,25.7498474 17.0477431,25.0449143 16.6137153,24.6100388 C16.1796876,24.1755981 15.4761284,24.1755981 15.0421007,24.6100388 L6.47699656,33.1923066 C6.04296878,33.6267471 6.04296878,34.3316802 6.47699656,34.7665557 L22.1901042,50.5103531 C22.624132,50.9452285 23.3272569,50.9452285 23.7612847,50.5103531 L50.2773438,23.9425049 C50.7113716,23.5076294 50.7113716,22.8026963 50.2773438,22.3678208 L34.5642361,6.62402344 C34.3559028,6.4152832 34.0733507,6.29830172 33.7786458,6.29830172 Z" id="Shape" fill="#000000"></path>
                    <path d="M54.9917534,0.32659152 L50.2226562,5.10456843 C47.4401042,2.99933621 43.5976562,2.96498102 40.8385417,5.01759333 L36.9322917,0.990211459 C36.9283854,0.986297607 36.9249132,0.982818604 36.9210069,0.978904752 C35.625,-0.319633512 33.5173611,-0.333549527 32.2057291,0.980644254 L0.976996556,32.4051819 C-0.325520889,33.7102432 -0.325954889,35.8237381 0.976996556,37.1292343 L5.38411456,41.5445251 C4.39973956,44.367302 5.109809,47.5675507 7.26215278,49.7232285 C9.41406244,51.8802109 12.6080729,52.5912324 15.4253472,51.6058044 L19.8324653,56.0210952 C21.1349827,57.3261567 23.2452257,57.3257217 24.5451389,56.0228348 L55.9118923,24.7296295 C57.2148438,23.4241333 57.2148438,21.3119431 55.9118923,20.0068818 C55.9079861,20.0029678 55.9045139,19.9994888 55.9006077,19.995575 L51.8815104,16.0825654 C53.9227431,13.3367615 53.9149306,9.4850693 51.7942709,6.67925265 L56.562934,1.90127563 C56.9969618,1.46640015 56.9969618,0.761467008 56.562934,0.32659152 C56.1289062,-0.108283969 55.4257812,-0.108283969 54.9917534,0.32659152 Z M49.5716146,15.3632812 C49.3615451,15.5741958 49.2443577,15.860344 49.2460938,16.1586685 C49.2482639,16.4565582 49.3697917,16.7414016 49.5828993,16.9488373 L54.3450521,21.5859146 C54.7760417,22.0225296 54.7712673,22.7235489 54.3420139,23.1532058 L22.9756944,54.4464111 C22.5421007,54.8808518 21.8368056,54.8808518 21.4036458,54.4464111 L16.4756944,49.5092697 C16.2630209,49.2957458 15.9782987,49.1831131 15.6901042,49.1831131 C15.530382,49.1831131 15.3693577,49.2174683 15.218316,49.288353 C13.0815972,50.2929153 10.515625,49.8349915 8.83376733,48.1485444 C7.15060767,46.4634018 6.69357644,43.8928528 7.69618056,41.7519607 C7.89496533,41.3270874 7.80729167,40.8235015 7.47612844,40.4916916 L2.54861111,35.5545502 C2.11501733,35.1201096 2.11501733,34.4138718 2.54991322,33.9776917 L33.7790799,2.55315402 C34.2113716,2.12045288 34.9101562,2.11784368 35.3450521,2.54837036 L39.9726562,7.31982422 C40.3875868,7.7477417 41.0980902,7.78948975 41.5555556,7.33156588 C43.4574653,5.42507174 46.4357639,5.22155002 48.6297743,6.70056152 L47,8.33351901 C45.7608507,7.74208835 44.2304688,7.95909124 43.2061632,8.98539739 C41.906684,10.2878494 41.906684,12.4069976 43.2061632,13.7090149 C44.5086806,15.0140762 46.6180556,15.0145112 47.9210069,13.7090149 C48.96875,12.6592255 49.1523438,11.1193313 48.5729167,9.90646362 L50.2022569,8.27394098 C51.6671007,10.446579 51.4982639,13.4333038 49.5716146,15.3632812 Z M46.3493923,10.5596466 C46.7829861,10.9940872 46.7847222,11.6985855 46.3493923,12.1347656 C45.9153646,12.5696411 45.2118056,12.5696411 44.7777778,12.1347656 C44.344184,11.700325 44.344184,10.9936523 44.7773438,10.5596466 C45.2109376,10.1260757 45.9162327,10.125206 46.3493923,10.5596466 Z" id="Shape" fill="#000000"></path>
                </g>
            </g>
        </g>
    </g>
</svg>