<?xml version="1.0" encoding="UTF-8"?>
<svg width="116px" height="116px" viewBox="0 0 116 116" version="1.1" xmlns="http://www.w3.org/2000/svg" xmlns:xlink="http://www.w3.org/1999/xlink">
    <!-- Generator: Sketch 51.3 (57544) - http://www.bohemiancoding.com/sketch -->
    <title>performance</title>
    <desc>Created with Sketch.</desc>
    <defs></defs>
    <g id="desktop" stroke="none" stroke-width="1" fill="none" fill-rule="evenodd">
        <g id="Group-26" transform="translate(0.000000, -491.000000)" fill-rule="nonzero">
            <g id="Group-2" transform="translate(0.000000, 482.000000)">
                <g id="Group-27">
                    <g id="performance" transform="translate(0.000000, 9.000000)">
                        <path d="M114.00587,63.8121593 L106.02935,66.1467505 C105.640252,69.2595388 104.862055,72.1777778 103.694759,75.0960168 L109.531237,81.127044 C107.974843,84.6289308 106.02935,87.9362683 103.694759,91.0490566 L95.5236897,88.9090147 C93.3836478,91.4381551 91.2436059,93.5781971 88.9090147,95.5236897 L91.0490566,103.694759 C87.9362683,106.02935 84.6289308,107.974843 81.127044,109.531237 L75.0960168,103.694759 C72.1777778,104.667505 69.2595388,105.445702 66.1467505,106.02935 L63.8121593,114.200419 L52.1392034,114.200419 L49.8046122,106.02935 C46.6918239,105.640252 43.7735849,104.862055 40.8553459,103.694759 L34.8243187,109.531237 C31.3224319,107.974843 28.0150943,106.02935 24.9023061,103.694759 L27.2368973,95.5236897 C24.7077568,93.3836478 22.5677149,91.2436059 20.6222222,88.9090147 L12.451153,91.0490566 C10.1165618,87.9362683 8.17106918,84.6289308 6.61467505,81.127044 L12.451153,75.0960168 C11.4784067,72.1777778 10.7002096,69.2595388 10.1165618,66.1467505 L1.94549266,63.8121593 L1.94549266,52.1392034 L9.92201258,49.8046122 C10.3111111,46.6918239 11.0893082,43.7735849 12.2566038,40.8553459 L6.42012579,34.8243187 C7.97651992,31.3224319 9.92201258,28.0150943 12.2566038,24.9023061 L20.427673,27.2368973 C22.5677149,24.7077568 24.7077568,22.5677149 27.042348,20.6222222 L24.9023061,12.451153 C28.0150943,10.1165618 31.3224319,8.17106918 34.8243187,6.61467505 L40.8553459,12.451153 C43.7735849,11.4784067 46.6918239,10.7002096 49.8046122,10.1165618 L52.1392034,1.94549266 L63.8121593,1.94549266 L66.1467505,9.92201258 C69.2595388,10.3111111 72.1777778,11.0893082 75.0960168,12.2566038 L81.127044,6.42012579 C84.6289308,7.97651992 87.9362683,9.92201258 91.0490566,12.2566038 L88.7144654,20.427673 C91.2436059,22.5677149 93.3836478,24.7077568 95.3291405,27.042348 L103.50021,24.9023061 C105.834801,28.0150943 107.780294,31.3224319 109.336688,34.8243187 L103.50021,40.8553459 C104.472956,43.7735849 105.251153,46.6918239 105.834801,49.8046122 L114.00587,52.1392034 L114.00587,63.8121593 Z M58.3491624,99.8537495 C81.2715129,99.8537495 99.8537495,81.2715129 99.8537495,58.3491624 C99.8537495,35.4268119 81.2715129,16.8445752 58.3491624,16.8445752 C35.4268119,16.8445752 16.8445752,35.4268119 16.8445752,58.3491624 C16.8445752,81.2715129 35.4268119,99.8537495 58.3491624,99.8537495 Z" id="Combined-Shape" fill="#4FBF9F"></path>
                        <circle id="Oval" fill="#2CA0DA" cx="57.4678899" cy="58.5321101" r="26.6055046"></circle>
                        <path d="M73.5396226,42.41174 L58.7538784,52.1392034 C55.4465409,51.5555556 52.3337526,53.6955975 51.7501048,57.002935 C51.166457,60.3102725 53.306499,63.4230608 56.6138365,64.0067086 C59.921174,64.5903564 63.0339623,62.4503145 63.6176101,59.1429769 C63.8121593,58.5593291 63.8121593,57.7811321 63.6176101,57.002935 L73.5396226,42.41174 Z" id="Shape" fill="#F06151"></path>
                        <path d="M1.36184486,50.38826 C0.583647799,50.5828092 0,51.3610063 0,52.3337526 L0,64.0067086 C0,64.7849057 0.583647799,65.5631027 1.36184486,65.9522013 L8.36561845,67.8976939 C8.75471698,70.2322851 9.33836478,72.5668763 10.1165618,74.7069182 L5.05828092,79.9597484 C4.47463312,80.5433962 4.28008386,81.3215933 4.66918239,82.0997904 C6.22557652,85.7962264 8.36561845,89.2981132 10.7002096,92.4109015 C11.0893082,92.9945493 12.0620545,93.3836478 12.8402516,93.1890985 L19.8440252,91.4381551 C21.4004193,93.1890985 23.1513627,94.9400419 24.9023061,96.4964361 L22.9568134,103.111111 C22.7622642,103.889308 22.9568134,104.667505 23.7350105,105.251153 C27.042348,107.585744 30.3496855,109.531237 34.0461216,111.28218 C34.8243187,111.671279 35.6025157,111.47673 36.1861635,110.893082 L41.4389937,105.834801 C43.7735849,106.612998 45.9136268,107.196646 48.248218,107.585744 L50.1937107,114.589518 C50.38826,115.367715 51.166457,115.951363 52.1392034,115.951363 L63.8121593,115.951363 C64.5903564,115.951363 65.3685535,115.367715 65.757652,114.589518 L67.7031447,107.585744 C70.0377358,107.196646 72.372327,106.612998 74.512369,105.834801 L79.7651992,110.893082 C80.348847,111.47673 81.127044,111.671279 81.9052411,111.28218 C85.6016771,109.725786 89.1035639,107.585744 92.2163522,105.251153 C92.8,104.862055 93.1890985,103.889308 92.9945493,103.111111 L91.0490566,96.1073375 C92.8,94.5509434 94.5509434,92.8 96.1073375,91.0490566 L103.111111,92.8 C103.889308,92.9945493 104.667505,92.8 105.251153,92.0218029 C107.585744,88.7144654 109.531237,85.4071279 111.28218,81.7106918 C111.671279,80.9324948 111.47673,80.1542977 110.893082,79.5706499 L105.834801,74.3178197 C106.612998,71.9832285 107.196646,69.8431866 107.585744,67.5085954 L114.589518,65.5631027 C115.367715,65.3685535 115.951363,64.5903564 115.951363,63.6176101 L115.951363,51.9446541 C115.951363,51.166457 115.367715,50.38826 114.589518,49.9991614 L107.585744,48.0536688 C107.196646,45.7190776 106.612998,43.3844864 105.834801,41.2444444 L110.893082,35.9916143 C111.47673,35.4079665 111.671279,34.6297694 111.28218,33.8515723 C109.725786,30.1551363 107.585744,26.6532495 105.251153,23.5404612 C104.862055,22.9568134 103.889308,22.5677149 103.111111,22.7622642 L96.1073375,24.9023061 C94.5509434,22.9568134 92.9945493,21.4004193 91.0490566,19.8440252 L92.9945493,12.8402516 C93.1890985,12.0620545 92.9945493,11.2838574 92.2163522,10.7002096 C88.9090147,8.36561845 85.6016771,6.42012579 81.9052411,4.66918239 C81.127044,4.28008386 80.348847,4.47463312 79.7651992,5.05828092 L74.512369,10.1165618 C72.1777778,9.33836478 70.0377358,8.75471698 67.7031447,8.36561845 L65.757652,1.36184486 C65.5631027,0.583647799 64.7849057,-2.84217094e-14 63.8121593,-2.84217094e-14 L52.1392034,-2.84217094e-14 C51.3610063,-2.84217094e-14 50.5828092,0.583647799 50.1937107,1.36184486 L48.248218,8.36561845 C45.9136268,8.75471698 43.5790356,9.33836478 41.4389937,10.1165618 L36.1861635,5.05828092 C35.6025157,4.47463312 34.8243187,4.28008386 34.0461216,4.66918239 C30.3496855,6.22557652 26.8477987,8.36561845 23.7350105,10.7002096 C23.1513627,11.0893082 22.7622642,12.0620545 22.9568134,12.8402516 L24.7077568,19.8440252 C22.9568134,21.4004193 21.4004193,22.9568134 19.8440252,24.9023061 L12.8402516,22.9568134 C12.0620545,22.7622642 11.2838574,22.9568134 10.7002096,23.7350105 C8.36561845,27.042348 6.42012579,30.3496855 4.66918239,34.0461216 C4.28008386,34.8243187 4.47463312,35.6025157 5.05828092,36.1861635 L10.1165618,41.4389937 C9.33836478,43.7735849 8.75471698,45.9136268 8.36561845,48.248218 L1.36184486,50.38826 Z M13.8129979,39.6880503 L8.75471698,34.6297694 C9.92201258,32.1006289 11.4784067,29.5714885 13.0348008,27.2368973 L19.8440252,28.9878407 C20.6222222,29.1823899 21.4004193,28.9878407 21.7895178,28.4041929 C23.7350105,26.0696017 25.6805031,23.9295597 28.0150943,22.1786164 C28.5987421,21.7895178 28.7932914,21.0113208 28.5987421,20.2331237 L26.8477987,13.4238994 C29.1823899,11.8675052 31.7115304,10.3111111 34.2406709,9.14381551 L39.2989518,14.2020964 C39.8825996,14.7857442 40.6607966,14.9802935 41.2444444,14.591195 C44.3572327,13.2293501 47.2754717,12.451153 50.1937107,11.8675052 C50.9719078,11.672956 51.5555556,11.2838574 51.7501048,10.5056604 L53.6955975,3.69643606 L62.2557652,3.69643606 L64.2012579,10.5056604 C64.3958071,11.2838574 64.9794549,11.8675052 65.757652,11.8675052 C68.675891,12.451153 71.59413,13.0348008 74.3178197,14.2020964 C75.0960168,14.3966457 75.8742138,14.3966457 76.2633124,13.8129979 L81.3215933,8.75471698 C83.8507338,9.92201258 86.3798742,11.4784067 88.7144654,13.0348008 L87.1580713,20.0385744 C86.963522,20.8167715 87.1580713,21.5949686 87.7417191,21.9840671 C90.0763103,23.9295597 92.2163522,25.8750524 93.9672956,28.2096436 C94.3563941,28.7932914 95.1345912,28.9878407 95.9127883,28.7932914 L102.722013,27.042348 C104.278407,29.3769392 105.834801,31.9060797 107.002096,34.4352201 L101.943816,39.493501 C101.360168,40.0771488 101.165618,40.8553459 101.554717,41.4389937 C102.527463,44.1626834 103.30566,47.0809224 103.889308,49.9991614 C104.083857,50.7773585 104.472956,51.3610063 105.251153,51.5555556 L112.060377,53.5010482 L112.060377,62.0612159 L105.251153,64.0067086 C104.472956,64.2012579 103.889308,64.7849057 103.889308,65.5631027 C103.30566,68.4813417 102.722013,71.3995807 101.554717,74.1232704 C101.360168,74.9014675 101.554717,75.6796646 101.943816,76.0687631 L107.002096,81.127044 C105.834801,83.6561845 104.278407,86.1853249 102.722013,88.5199161 L95.9127883,87.1580713 C95.1345912,86.963522 94.3563941,87.1580713 93.9672956,87.7417191 C92.0218029,90.0763103 90.0763103,92.2163522 87.7417191,93.9672956 C87.1580713,94.3563941 86.963522,95.1345912 87.1580713,95.9127883 L88.9090147,102.722013 C86.5744235,104.278407 84.045283,105.834801 81.5161426,107.002096 L76.4578616,101.943816 C75.8742138,101.360168 75.0960168,101.165618 74.512369,101.554717 C71.59413,102.722013 68.675891,103.50021 65.757652,104.083857 C64.9794549,104.278407 64.3958071,104.667505 64.2012579,105.445702 L62.2557652,112.254927 L53.6955975,112.254927 L51.7501048,105.445702 C51.5555556,104.667505 50.9719078,104.083857 50.1937107,104.083857 C47.2754717,103.50021 44.3572327,102.916562 41.633543,101.749266 C40.8553459,101.554717 40.0771488,101.554717 39.6880503,102.138365 L34.6297694,107.196646 C32.1006289,106.02935 29.5714885,104.472956 27.2368973,102.916562 L28.9878407,96.1073375 C29.1823899,95.3291405 28.9878407,94.5509434 28.4041929,94.1618449 C26.0696017,92.2163522 23.9295597,90.2708595 22.1786164,87.9362683 C21.7895178,87.3526205 21.0113208,87.1580713 20.2331237,87.3526205 L13.4238994,89.1035639 C11.8675052,86.7689727 10.3111111,84.2398323 9.14381551,81.7106918 L14.2020964,76.6524109 C14.7857442,76.0687631 14.9802935,75.290566 14.591195,74.7069182 C13.2293501,71.59413 12.451153,68.675891 11.8675052,65.757652 C11.672956,64.9794549 11.2838574,64.3958071 10.5056604,64.2012579 L3.69643606,62.2557652 L3.69643606,53.6955975 L10.5056604,51.7501048 C11.2838574,51.5555556 11.8675052,50.9719078 11.8675052,50.1937107 C12.451153,47.2754717 13.0348008,44.3572327 14.2020964,41.633543 C14.3966457,40.8553459 14.3966457,40.0771488 13.8129979,39.6880503 Z" id="Shape" fill="#183651"></path>
                        <path d="M57.9756813,96.8855346 C79.3761006,96.8855346 96.8855346,79.3761006 96.8855346,57.9756813 C96.8855346,36.5752621 79.3761006,19.0658281 57.9756813,19.0658281 C36.5752621,19.0658281 19.0658281,36.5752621 19.0658281,57.9756813 C19.0658281,79.3761006 36.5752621,96.8855346 57.9756813,96.8855346 Z M23.1513627,56.0301887 C23.5404612,48.0536688 26.6532495,40.6607966 32.1006289,34.6297694 L36.1861635,38.715304 L38.9098532,35.9916143 L34.6297694,31.9060797 C40.4662474,26.6532495 48.0536688,23.5404612 56.0301887,22.9568134 L56.0301887,28.7932914 L59.921174,28.7932914 L59.921174,23.1513627 C67.8976939,23.5404612 75.290566,26.6532495 81.3215933,32.1006289 L77.2360587,36.1861635 L79.9597484,38.9098532 L84.045283,34.8243187 C89.2981132,40.6607966 92.4109015,48.248218 92.9945493,56.2247379 L87.1580713,56.2247379 L87.1580713,60.1157233 L92.8,60.1157233 C92.4109015,68.0922432 89.2981132,75.4851153 83.8507338,81.5161426 L79.7651992,77.430608 L77.0415094,80.1542977 L81.127044,84.2398323 C75.290566,89.4926625 67.7031447,92.6054507 59.7266247,93.1890985 L59.7266247,87.1580713 L55.8356394,87.1580713 L55.8356394,92.8 C47.8591195,92.4109015 40.4662474,89.2981132 34.4352201,83.8507338 L38.5207547,79.7651992 L35.797065,77.0415094 L31.9060797,81.3215933 C26.6532495,75.4851153 23.5404612,67.8976939 22.9568134,59.921174 L28.7932914,59.921174 L28.7932914,56.0301887 L23.1513627,56.0301887 Z" id="Shape" fill="#183651"></path>
                        <path d="M57.9756813,65.757652 C62.2557652,65.757652 65.757652,62.2557652 65.757652,57.9756813 C65.757652,57.7811321 65.757652,57.7811321 65.757652,57.5865828 L75.0960168,43.3844864 C75.6796646,42.41174 75.4851153,41.2444444 74.512369,40.6607966 C73.9287212,40.2716981 72.9559748,40.2716981 72.372327,40.6607966 L58.3647799,50.1937107 C58.1702306,50.1937107 58.1702306,50.1937107 57.9756813,50.1937107 C53.6955975,50.1937107 50.1937107,53.6955975 50.1937107,57.9756813 C50.1937107,62.2557652 53.6955975,65.757652 57.9756813,65.757652 Z M57.9756813,54.084696 C58.1702306,54.084696 58.3647799,54.084696 58.5593291,54.084696 C58.9484277,54.084696 59.5320755,54.084696 59.921174,53.6955975 L66.5358491,49.2209644 L62.0612159,56.0301887 C61.8666667,56.4192872 61.6721174,57.002935 61.6721174,57.3920335 C61.6721174,57.5865828 61.6721174,57.7811321 61.6721174,57.9756813 C61.6721174,60.1157233 59.921174,61.8666667 57.7811321,61.8666667 C55.6410901,61.8666667 53.8901468,60.1157233 53.8901468,57.9756813 C54.084696,55.8356394 55.8356394,54.084696 57.9756813,54.084696 Z" id="Shape" fill="#183651"></path>
                    </g>
                </g>
            </g>
        </g>
    </g>
</svg>