<?xml version="1.0" encoding="UTF-8"?>
<svg width="64px" height="57px" viewBox="0 0 64 57" version="1.1" xmlns="http://www.w3.org/2000/svg" xmlns:xlink="http://www.w3.org/1999/xlink">
    <!-- Generator: Sketch 51.3 (57544) - http://www.bohemiancoding.com/sketch -->
    <title>chest</title>
    <desc>Created with Sketch.</desc>
    <defs></defs>
    <g id="desktop" stroke="none" stroke-width="1" fill="none" fill-rule="evenodd">
        <g id="ecommerce" transform="translate(-316.000000, -5126.000000)" fill-rule="nonzero">
            <g id="Group-39" transform="translate(259.000000, 5126.000000)">
                <g id="chest" transform="translate(57.000000, 0.000000)">
                    <path d="M57.0242018,1.23913043 L5.91718665,1.24532609 C3.30913171,1.37791304 1.23429008,3.54391304 1.23429008,6.19565217 L1.23429008,50.8043478 L61.9613621,50.8043478 L61.9613621,6.19565217 C61.9613621,3.45841304 59.7507486,1.23913043 57.0242018,1.23913043 Z" id="Shape" fill="#CC7400"></path>
                    <rect id="Rectangle-path" fill="#3C435A" x="47.1498811" y="50.8043478" width="9.87432065" height="4.95652174"></rect>
                    <g id="Group" transform="translate(5.801163, 1.239130)" fill="#FFB655">
                        <path d="M48.7544582,22.3043478 L2.83886719,22.3043478 C1.47497665,22.3043478 0.370287024,23.4133696 0.370287024,24.7826087 L0.370287024,42.1304348 C0.370287024,43.4996739 1.47497665,44.6086957 2.83886719,44.6086957 L48.7544582,44.6086957 C50.1183488,44.6086957 51.2230384,43.4996739 51.2230384,42.1304348 L51.2230384,24.7826087 C51.2230384,23.4133696 50.1183488,22.3043478 48.7544582,22.3043478 Z" id="Shape"></path>
                        <path d="M51.2230384,0.123913043 L51.2230384,7.43478261 C51.2230384,8.80402174 50.1183488,9.91304348 48.7544582,9.91304348 C46.4143677,9.91304348 4.27595113,9.91304348 2.83886719,9.91304348 C1.47497665,9.91304348 0.370287024,8.80402174 0.370287024,7.43478261 L0.370287024,0.123913043 L0.116023268,0.00619565217 C0.199954993,0.00247826087 0.285121009,0 0.370287024,0 L51.2230384,0 L51.2230384,0.123913043 Z" id="Shape"></path>
                    </g>
                    <path d="M36.5349864,21.0652174 C36.5349864,23.7861 34.3406655,26.0217391 31.5978261,26.0217391 C28.8557272,26.0217391 26.6606658,23.7869674 26.6606658,21.0652174 C26.6606658,19.865863 26.6606658,12.3594587 26.6606658,11.1521739 L36.5349864,11.1521739 C36.5349864,12.3515283 36.5349864,19.8579326 36.5349864,21.0652174 Z" id="Shape" fill="#EAFAFF"></path>
                    <rect id="Rectangle-path" fill="#3C435A" x="6.17145041" y="50.8043478" width="9.87432065" height="4.95652174"></rect>
                    <path d="M31.5978261,29.7391304 C30.916498,29.7391304 30.363536,30.2942609 30.363536,30.9782609 C30.363536,31.6622609 30.916498,32.2173913 31.5978261,32.2173913 C32.2791542,32.2173913 32.8321162,31.6622609 32.8321162,30.9782609 C32.8321162,30.2942609 32.2791542,29.7391304 31.5978261,29.7391304 Z" id="Shape" fill="#000000"></path>
                    <path d="M0,50.8043478 C0,51.4885957 0.552591669,52.0434783 1.23429008,52.0434783 L4.93716033,52.0434783 L4.93716033,55.7608696 C4.93716033,56.4451174 5.489752,57 6.17145041,57 L16.0457711,57 C16.7274695,57 17.2800611,56.4451174 17.2800611,55.7608696 L17.2800611,52.0434783 L45.915591,52.0434783 L45.915591,55.7608696 C45.915591,56.4451174 46.4681827,57 47.1498811,57 L57.0242018,57 C57.7059002,57 58.2584918,56.4451174 58.2584918,55.7608696 L58.2584918,52.0434783 L61.9613621,52.0434783 C62.6430605,52.0434783 63.1956522,51.4885957 63.1956522,50.8043478 L63.1956522,6.19565217 C63.1956522,2.77936957 60.4271395,0 57.0242018,0 L6.17145041,0 C6.06789347,0 5.96433653,0.00272608696 5.85473157,0.00780652174 C2.57164338,0.174717391 0,2.89275 0,6.19565217 L0,50.8043478 Z M14.811481,54.5217391 L7.40574049,54.5217391 L7.40574049,52.0434783 L14.811481,52.0434783 L14.811481,54.5217391 Z M55.7899117,54.5217391 L48.3841712,54.5217391 L48.3841712,52.0434783 L55.7899117,52.0434783 L55.7899117,54.5217391 Z M6.17145041,49.5652174 L2.46858016,49.5652174 L2.46858016,17.3478261 L25.4263757,17.3478261 L25.4263757,21.0652174 C25.4263757,21.4829283 25.4696993,21.897913 25.5522733,22.3043478 L8.64003057,22.3043478 C6.59826792,22.3043478 4.93716033,23.9719696 4.93716033,26.0217391 L4.93716033,43.3695652 C4.93716033,45.4193348 6.59826792,47.0869565 8.64003057,47.0869565 L54.5556216,47.0869565 C56.5973843,47.0869565 58.2584918,45.4193348 58.2584918,43.3695652 L58.2584918,26.0217391 C58.2584918,23.9719696 56.5973843,22.3043478 54.5556216,22.3043478 L37.6433789,22.3043478 C37.7259529,21.897913 37.7692765,21.4829283 37.7692765,21.0652174 L37.7692765,17.3478261 L60.727072,17.3478261 L60.727072,49.5652174 C59.7825932,49.5652174 7.0279243,49.5652174 6.17145041,49.5652174 Z M7.40574049,2.47826087 L55.7899117,2.47826087 L55.7899117,8.67391304 C55.7899117,9.35716957 55.2362092,9.91304348 54.5556216,9.91304348 L8.64003057,9.91304348 C7.95944302,9.91304348 7.40574049,9.35716957 7.40574049,8.67391304 L7.40574049,2.47826087 Z M7.40574049,39.776087 L55.7899117,39.776087 L55.7899117,43.3695652 C55.7899117,44.0528217 55.2362092,44.6086957 54.5556216,44.6086957 L8.64003057,44.6086957 C7.95944302,44.6086957 7.40574049,44.0528217 7.40574049,43.3695652 L7.40574049,39.776087 Z M55.7899117,29.8630435 L36.5337521,29.8630435 C35.8520537,29.8630435 35.299462,30.4179261 35.299462,31.1021739 C35.299462,31.7864217 35.8520537,32.3413043 36.5337521,32.3413043 L55.7899117,32.3413043 L55.7899117,37.2978261 L7.40574049,37.2978261 L7.40574049,32.3413043 L26.6619001,32.3413043 C27.3435985,32.3413043 27.8961901,31.7864217 27.8961901,31.1021739 C27.8961901,30.4179261 27.3435985,29.8630435 26.6619001,29.8630435 L7.40574049,29.8630435 L7.40574049,26.0217391 C7.40574049,25.3384826 7.95944302,24.7826087 8.64003057,24.7826087 L26.6630109,24.7826087 C27.8195407,26.326937 29.6477712,27.2608696 31.5978261,27.2608696 C33.5480044,27.2608696 35.3763583,26.326813 36.5327647,24.7826087 L54.5556216,24.7826087 C55.2362092,24.7826087 55.7899117,25.3384826 55.7899117,26.0217391 L55.7899117,29.8630435 Z M35.3006963,12.3913043 L35.3006963,21.0652174 C35.3006963,23.1469565 33.6088549,24.7826087 31.5978261,24.7826087 C29.5869207,24.7826087 27.8949558,23.146213 27.8949558,21.0652174 L27.8949558,12.3913043 L35.3006963,12.3913043 Z M60.727072,6.19565217 L60.727072,14.8695652 L37.7692765,14.8695652 L37.7692765,12.3913043 L54.5556216,12.3913043 C56.5973843,12.3913043 58.2584918,10.7236826 58.2584918,8.67391304 L58.2584918,2.6913913 C59.6950821,3.20290435 60.727072,4.58032174 60.727072,6.19565217 Z M4.93716033,2.68742609 L4.93716033,8.67391304 C4.93716033,10.7236826 6.59826792,12.3913043 8.64003057,12.3913043 L25.4263757,12.3913043 L25.4263757,14.8695652 L2.46858016,14.8695652 L2.46858016,6.19565217 C2.46858016,4.57920652 3.49464551,3.19658478 4.93716033,2.68742609 Z" id="Shape" fill="#000000"></path>
                    <path d="M31.5978261,22.3043478 C32.2795245,22.3043478 32.8321162,21.7494652 32.8321162,21.0652174 L32.8321162,18.5869565 C32.8321162,17.9027087 32.2795245,17.3478261 31.5978261,17.3478261 C30.9161277,17.3478261 30.363536,17.9027087 30.363536,18.5869565 L30.363536,21.0652174 C30.363536,21.7494652 30.9161277,22.3043478 31.5978261,22.3043478 Z" id="Shape" fill="#000000"></path>
                </g>
            </g>
        </g>
    </g>
</svg>