<?xml version="1.0" encoding="UTF-8"?>
<svg width="57px" height="57px" viewBox="0 0 57 57" version="1.1" xmlns="http://www.w3.org/2000/svg" xmlns:xlink="http://www.w3.org/1999/xlink">
    <!-- Generator: Sketch 51.3 (57544) - http://www.bohemiancoding.com/sketch -->
    <title>transparency</title>
    <desc>Created with Sketch.</desc>
    <defs></defs>
    <g id="desktop" stroke="none" stroke-width="1" fill="none" fill-rule="evenodd">
        <g id="ecommerce" transform="translate(-320.000000, -4975.000000)" fill-rule="nonzero">
            <g id="Group-40" transform="translate(291.000000, 4975.000000)">
                <g id="transparency" transform="translate(29.000000, 0.000000)">
                    <polygon id="Shape" fill="#EAFAFF" points="31.7559128 34.8376736 34.905281 31.6944444 38.932663 35.7139757 35.7832947 38.8572049"></polygon>
                    <path d="M54.5807876,48.1905382 C56.3207245,49.9257812 56.3207245,52.7387153 54.5807876,54.4743923 C52.8417206,56.2109376 50.0232925,56.2109376 48.2846604,54.4743923 L38.9330979,45.141059 L45.2292251,38.8572049 L54.5807876,48.1905382 Z" id="Shape" fill="#E87288"></path>
                    <path d="M40.5069122,34.1432291 L45.2292251,38.8572049 L38.9330979,45.141059 L34.2099151,40.4279513 C36.1746826,38.4670139 38.6613007,35.9852431 40.5069122,34.1432291 Z" id="Shape" fill="#EAFAFF"></path>
                    <path d="M33.4227905,6.64756944 C40.8182831,14.0286458 40.808281,25.9869791 33.4227905,33.3576389 C26.0272979,40.7391493 14.0451736,40.7282987 6.66055298,33.3576389 C-0.729721125,25.9817709 -0.729721125,14.0234376 6.66055298,6.64756944 C14.0503921,-0.728298667 26.0325165,-0.728298667 33.4227905,6.64756944 Z" id="Shape" fill="#5A7683"></path>
                    <path d="M30.2747268,9.79036456 C35.9163666,15.4210069 35.9163666,24.5842013 30.2738571,30.2157118 C24.6291733,35.8493923 15.4746094,35.8710938 9.80818171,30.2157118 C4.16697698,24.5842013 4.16697698,15.4210069 9.80818171,9.78906244 C15.4589539,4.14973956 24.6174316,4.14409722 30.2747268,9.79036456 Z" id="Shape" fill="#EAFAFF"></path>
                    <path d="M10.1021576,20.0815972 C9.4876785,20.0815972 8.9888764,20.5789931 8.9888764,21.1922743 C8.9888764,21.8055556 9.4876785,22.3033854 10.1021576,22.3033854 C10.7166367,22.3033854 11.2154389,21.8055556 11.2154389,21.1922743 C11.2154389,20.5789931 10.7166367,20.0815972 10.1021576,20.0815972 Z" id="Shape" fill="#000000"></path>
                    <path d="M41.2940369,33.3576389 C41.0857315,33.1493056 40.8021927,33.032118 40.5069122,33.032118 C40.4956055,33.0342882 40.067688,33.0104167 39.7197876,33.3576389 L38.9330979,34.1427951 L36.3751602,31.5902778 C42.019844,23.6931423 41.1613999,12.7994791 34.2099151,5.86197911 C26.3795471,-1.953125 13.7046661,-1.95442711 5.87342829,5.86197911 C-1.9569397,13.6766493 -1.95824435,26.3272569 5.87342829,34.1432291 C12.807518,41.0642361 23.7181091,41.9522569 31.6515427,36.3042534 L34.2094803,38.8572049 L33.4227905,39.6423611 C32.9883499,40.0759549 32.987915,40.7799479 33.4227905,41.2139757 L47.4971008,55.2595487 C49.6719131,57.4314236 53.1922302,57.4327257 55.3674775,55.2599827 C57.5435943,53.0898438 57.5444641,49.5759549 55.3674775,47.4049479 L41.2940369,33.3576389 Z M35.7837295,37.2860243 L33.400177,34.907118 C33.6771927,34.6592882 33.9481201,34.4049479 34.2099151,34.1432291 C34.4721451,33.8819444 34.7269821,33.6115451 34.975296,33.3355034 L37.3588486,35.7144098 L35.7837295,37.2860243 Z M7.44767767,32.5720487 C0.487060547,25.625434 0.486190852,14.3806423 7.44767767,7.43315978 C14.4078598,0.486111111 25.674614,0.485243111 32.6356659,7.43315978 C39.5806274,14.3641493 39.6158523,25.6063368 32.6356659,32.5720487 C25.576767,39.6180556 14.3130569,39.4244791 7.44767767,32.5720487 Z M40.5069122,35.7144098 L43.6549759,38.8567709 L38.932663,43.5698784 L35.7841645,40.4279513 L40.5069122,35.7144098 Z M53.7932281,53.6888021 C52.4886016,54.9921876 50.3772812,54.9926216 49.0717849,53.6888021 L40.5069122,45.141059 L45.2292251,40.4279513 L53.7936631,48.9765624 C55.0991592,50.2782118 55.1004639,52.3854167 53.7932281,53.6888021 Z" id="Shape" fill="#000000"></path>
                    <path d="M31.0618515,9.00477433 C24.9740295,2.92881944 15.1114883,2.92534722 9.02105713,9.00390622 C2.94584661,15.0685764 2.94584661,24.936632 9.02105713,31.0017361 C15.1123581,37.0807291 24.9692459,37.0811632 31.0609817,31.0017361 C37.137497,24.936632 37.1379319,15.0690104 31.0618515,9.00477433 Z M29.4867325,29.4301216 C24.2660522,34.640625 15.8172913,34.6419271 10.5953064,29.4305556 C5.38810736,24.2317709 5.38810736,15.7734376 10.5953064,10.5746528 C15.8133774,5.36718756 24.2677917,5.36588544 29.4876023,10.5759549 C34.6956711,15.7738716 34.6952363,24.2317709 29.4867325,29.4301216 Z" id="Shape" fill="#000000"></path>
                    <path d="M20.0416718,8.89366322 C17.0662537,8.89366322 14.270874,10.0490451 12.1704254,12.1467013 C10.952774,13.3619791 10.0564956,14.7977431 9.50681302,16.4149306 C9.30937961,16.9956598 9.62075046,17.6267361 10.2030488,17.8237847 C10.7862168,18.0212673 11.417656,17.7087673 11.6150894,17.1289062 C12.0538788,15.8376736 12.7705536,14.6901042 13.7446747,13.7174479 C15.4250336,12.0399306 17.6611633,11.1158854 20.0416718,11.1158854 C20.6565857,11.1158854 21.1549531,10.6184896 21.1549531,10.0047743 C21.1549531,9.391059 20.6565857,8.89366322 20.0416718,8.89366322 Z" id="Shape" fill="#000000"></path>
                </g>
            </g>
        </g>
    </g>
</svg>