<?xml version="1.0" encoding="UTF-8"?>
<svg width="57px" height="57px" viewBox="0 0 57 57" version="1.1" xmlns="http://www.w3.org/2000/svg" xmlns:xlink="http://www.w3.org/1999/xlink">
    <!-- Generator: Sketch 51.3 (57544) - http://www.bohemiancoding.com/sketch -->
    <title>rating</title>
    <desc>Created with Sketch.</desc>
    <defs></defs>
    <g id="desktop" stroke="none" stroke-width="1" fill="none" fill-rule="evenodd">
        <g id="ecommerce" transform="translate(-1064.000000, -5126.000000)" fill-rule="nonzero">
            <g id="Group-37" transform="translate(1021.000000, 5126.000000)">
                <g id="rating" transform="translate(43.000000, 0.000000)">
                    <g id="Group" transform="translate(1.113281, 1.113281)" fill="#FF9811">
                        <path d="M48.3461309,0.424048828 L49.9539316,3.67950586 C50.0648145,3.90405469 50.2791211,4.05969141 50.5270488,4.09565039 L54.1202754,4.61677734 C54.7444922,4.70728711 54.9938672,5.47433789 54.5423203,5.91464063 L51.9430313,8.44980469 C51.7636816,8.62470117 51.6819668,8.87663672 51.7243828,9.12345117 L52.3391367,12.7018711 C52.4459004,13.3235273 51.7935176,13.7976738 51.235207,13.5043242 L48.0209414,11.8155879 C47.7991758,11.6991387 47.5343262,11.6991387 47.3126719,11.8158105 L44.0992969,13.5062168 C43.5410977,13.7999004 42.8884922,13.3259766 42.9949219,12.7043203 L43.6077832,9.12556641 C43.6500879,8.87875195 43.5681504,8.62681641 43.3888008,8.45203125 L40.7881758,5.91831445 C40.3364063,5.47823438 40.5854473,4.71107227 41.2095527,4.62022852 L44.8025566,4.09720898 C45.050373,4.06113867 45.2646797,3.90539063 45.3754512,3.68073047 L46.9814707,0.424382813 C47.2603477,-0.141275391 48.0669199,-0.141498047 48.3461309,0.424048828 Z" id="Shape"></path>
                        <path d="M28.0677129,0.424048828 L29.6755137,3.67950586 C29.7863965,3.90405469 30.0007031,4.05969141 30.2486309,4.09565039 L33.8418574,4.61677734 C34.4660742,4.70728711 34.7154492,5.47433789 34.2639023,5.91464063 L31.664502,8.44980469 C31.4851523,8.62470117 31.4034375,8.87663672 31.4458535,9.12345117 L32.0606074,12.7018711 C32.1673711,13.3235273 31.5149883,13.7976738 30.9566777,13.5043242 L27.7424121,11.8155879 C27.5206465,11.6991387 27.2557969,11.6991387 27.0341426,11.8158105 L23.8207676,13.5062168 C23.2625684,13.7999004 22.6099629,13.3259766 22.7163926,12.7043203 L23.3292539,9.12556641 C23.3715586,8.87875195 23.2896211,8.62681641 23.1102715,8.45203125 L20.5096465,5.91831445 C20.057877,5.47823438 20.306918,4.71107227 20.9310234,4.62022852 L24.5240273,4.09720898 C24.7718437,4.06113867 24.9861504,3.90539063 25.0969219,3.68073047 L26.7029414,0.424382813 C26.9818184,-0.141275391 27.7883906,-0.141498047 28.0677129,0.424048828 Z" id="Shape"></path>
                        <path d="M7.78929492,0.424048828 L9.3970957,3.67950586 C9.50797852,3.90405469 9.72228516,4.05969141 9.97021289,4.09565039 L13.5634395,4.61677734 C14.1876563,4.70728711 14.4370313,5.47433789 13.9854844,5.91464063 L11.3859727,8.44980469 C11.206623,8.62470117 11.1249082,8.87663672 11.1673242,9.12345117 L11.7820781,12.7018711 C11.8888418,13.3235273 11.236459,13.7976738 10.6781484,13.5043242 L7.46388281,11.8155879 C7.24211719,11.6991387 6.97726758,11.6991387 6.75561328,11.8158105 L3.54223828,13.5062168 C2.98403906,13.7999004 2.33143359,13.3259766 2.43786328,12.7043203 L3.05072461,9.12556641 C3.0930293,8.87875195 3.0110918,8.62681641 2.83174219,8.45203125 L0.231117188,5.91831445 C-0.220652344,5.47823438 0.0283886719,4.71107227 0.652494141,4.62022852 L4.24549805,4.09720898 C4.49331445,4.06113867 4.70762109,3.90539063 4.81839258,3.68073047 L6.42441211,0.424382813 C6.70351172,-0.141275391 7.50997266,-0.141498047 7.78929492,0.424048828 Z" id="Shape"></path>
                    </g>
                    <path d="M41.8111699,55.8862734 L43.3815645,50.8785117 C44.1635332,48.384873 44.5614199,45.7866973 44.5614199,43.1734922 L44.5614199,33.7797363 C44.5614199,32.3012988 43.3629727,31.1028516 41.8845352,31.1028516 C40.4060977,31.1028516 39.2076504,32.3012988 39.2076504,33.7797363 L39.2076504,37.0471055 L39.2076504,33.0754746 L39.2076504,31.8072246 C39.2076504,30.3287871 38.0092031,29.1303398 36.5307656,29.1303398 C35.0523281,29.1303398 33.8538809,30.3287871 33.8538809,31.8072246 L33.8538809,32.7640898 L33.8538809,37.0471055 L33.8538809,30.1116973 C33.8538809,28.6332598 32.6554336,27.4348125 31.1769961,27.4348125 C29.6985586,27.4348125 28.5001113,28.6332598 28.5001113,30.1116973 L28.5001113,37.0471055 L28.5001113,21.3378164 C28.5001113,19.8593789 27.3016641,18.6609316 25.8232266,18.6609316 C24.3447891,18.6609316 23.1463418,19.8593789 23.1463418,21.3378164 L23.1463418,40.741084 L20.0025469,34.9197363 C19.2763535,33.5750039 17.6118867,33.0524297 16.2474492,33.7407715 C15.0773906,34.3310332 14.4674238,35.6490469 14.7748008,36.9230859 L16.8128848,45.3708867 C17.2524082,47.1927715 18.047959,48.9096738 19.1536699,50.4228457 L23.1461191,55.8863848 L41.8111699,55.8863848 L41.8111699,55.8862734 Z" id="Shape" fill="#FFCDAC"></path>
                    <path d="M23.1463418,31.1276777 C22.5314766,31.1276777 22.0330605,31.6262051 22.0330605,32.240959 L22.0330605,36.3367207 L20.982123,34.3907051 C19.9621348,32.5022461 17.6619844,31.7798379 15.7460273,32.746834 C14.1062754,33.5741133 13.2618516,35.3987812 13.6925801,37.1841504 L15.7306641,45.6318398 C16.2070371,47.6065781 17.0563594,49.4394844 18.254918,51.0796816 L22.2475898,56.543332 C22.4655703,56.8416914 22.8041191,56.9998887 23.1473437,56.9998887 C23.3752324,56.9998887 23.6052363,56.9300859 23.8032891,56.7853594 C24.2997012,56.422541 24.4081348,55.7259609 24.0453164,55.2295488 L20.0526445,49.7658984 C19.0282031,48.3640547 18.3023437,46.7975566 17.8952168,45.1097109 L15.8571328,36.6619102 C15.6699902,35.8865098 16.0368164,35.0940762 16.7489824,34.734709 C17.5812715,34.3147793 18.5801074,34.6283906 19.023082,35.4486562 L22.166877,41.2700039 C22.409127,41.7185449 22.9251328,41.9449863 23.4193184,41.8202988 C23.9135039,41.6953887 24.2597344,41.2507441 24.2597344,40.7409727 L24.2597344,32.240959 C24.259623,31.6260937 23.761207,31.1276777 23.1463418,31.1276777 Z" id="Shape" fill="#000000"></path>
                    <path d="M41.8844238,29.9895703 C41.2274766,29.9895703 40.6090488,30.1577871 40.0697754,30.4531406 C39.5234883,29.0301445 38.1435762,28.0169473 36.530543,28.0169473 C35.8348535,28.0169473 35.182916,28.2062051 34.6219336,28.534623 C34.0223203,27.2300801 32.704084,26.3214199 31.1767734,26.3214199 C30.6193535,26.3214199 30.0902109,26.4433242 29.6131699,26.6603027 L29.6131699,21.3375937 C29.6131699,19.2477422 27.9129668,17.5474277 25.8230039,17.5474277 C23.733041,17.5474277 22.0328379,19.2476309 22.0328379,21.3375937 L22.0328379,33.2673555 C22.0328379,33.8821094 22.5312539,34.3806367 23.1461191,34.3806367 C23.7609844,34.3806367 24.2594004,33.8821094 24.2594004,33.2673555 L24.2594004,21.3377051 C24.2594004,20.4755801 24.9608789,19.7741016 25.8230039,19.7741016 C26.6851289,19.7741016 27.3867188,20.4756914 27.3867188,21.3378164 L27.3867188,37.0469941 C27.3867188,37.661748 27.8851348,38.1602754 28.5,38.1602754 C29.1148652,38.1602754 29.6132813,37.661748 29.6132813,37.0469941 L29.6132813,30.1116973 C29.6132813,29.2495723 30.3146484,28.5480937 31.1768848,28.5480937 C32.0391211,28.5480937 32.7404883,29.2495723 32.7404883,30.1116973 L32.7404883,37.0469941 C32.7404883,37.661748 33.2389043,38.1602754 33.8537695,38.1602754 C34.4686348,38.1602754 34.9670508,37.661748 34.9670508,37.0469941 L34.9670508,31.8072246 C34.9670508,30.9449883 35.668418,30.2435098 36.5306543,30.2435098 C37.3928906,30.2435098 38.0942578,30.9449883 38.0942578,31.8072246 L38.0942578,37.0469941 C38.0942578,37.661748 38.5926738,38.1602754 39.2075391,38.1602754 C39.8224043,38.1602754 40.3208203,37.661748 40.3208203,37.0469941 L40.3208203,33.779625 C40.3208203,32.9175 41.0222988,32.2160215 41.8844238,32.2160215 C42.7465488,32.2160215 43.4480273,32.9175 43.4480273,33.779625 L43.4480273,43.1733809 C43.4480273,45.6764824 43.0681758,48.156873 42.3191602,50.5453066 L40.7487656,55.5530684 C40.5648516,56.1397676 40.8912656,56.764541 41.4779648,56.9484551 C41.5888477,56.9833008 41.7009551,56.9997773 41.8113926,56.9997773 C42.2849824,56.999666 42.7241719,56.6950723 42.8733516,56.2192559 L44.4437461,51.2114941 C45.2604492,48.607084 45.6745898,45.9025898 45.6745898,43.1733809 L45.6745898,33.779625 C45.6745898,31.6898848 43.9743867,29.9895703 41.8844238,29.9895703 Z" id="Shape" fill="#000000"></path>
                    <path d="M56.9065957,5.90361914 C56.6843848,5.22017578 56.1044766,4.73155664 55.3932012,4.62835547 L51.983332,4.13394727 L50.4575801,1.04436914 C50.1395156,0.400113281 49.4955938,0 48.7771934,0 C48.777082,0 48.7768594,0 48.776748,0 C48.0580137,0.000111328125 47.4140918,0.400669922 47.09625,1.04525977 L45.572168,4.13550586 L42.1625215,4.63191797 C41.4513574,4.73545313 40.8716719,5.22440625 40.6499063,5.90807227 C40.4280293,6.59162695 40.6100508,7.32772852 41.1247207,7.82915039 L43.5927539,10.2336152 L43.0111758,13.629791 C42.8899395,14.3381719 43.1758301,15.040541 43.7572969,15.4626973 C44.0857148,15.7012734 44.4699082,15.8222871 44.8566621,15.8222871 C45.1546875,15.8222871 45.4542715,15.7503691 45.7310332,15.6048633 L48.7804219,14.000625 L51.8307012,15.6033047 C52.4668301,15.9377344 53.2231934,15.8827383 53.8044375,15.4600254 C54.3856816,15.0374238 54.6712383,14.3350547 54.5494453,13.6266738 L53.9660859,10.230832 L56.4327832,7.82514258 C56.9472305,7.32327539 57.1288066,6.58695117 56.9065957,5.90361914 Z M52.2790195,8.76608789 C51.8371582,9.19681641 51.635877,9.81713672 51.7404141,10.4252109 L52.2342656,13.3000371 L49.6521211,11.9433926 C49.105834,11.656166 48.4536738,11.6565 47.9076094,11.9437266 L45.3261328,13.3018184 L45.8185371,10.4265469 C45.9225176,9.81847266 45.7209023,9.19848633 45.2789297,8.76786914 L43.1895234,6.7323457 L46.0762617,6.31219336 C46.6866738,6.22324219 47.2141465,5.83982813 47.4870117,5.28641602 L48.7773047,2.67042773 L50.0689336,5.28563672 C50.3421328,5.8389375 50.8697168,6.22201758 51.4804629,6.31074609 L54.3672012,6.72945117 L52.2790195,8.76608789 Z" id="Shape" fill="#000000"></path>
                    <path d="M23.3142246,10.2335039 L22.7326465,13.6296797 C22.6114102,14.3380605 22.8973008,15.0404297 23.4787676,15.4625859 C23.8071855,15.7011621 24.1913789,15.8221758 24.5781328,15.8221758 C24.8761582,15.8221758 25.1757422,15.7502578 25.4525039,15.604752 L28.5020039,14.000625 L31.5522832,15.6031934 C32.1884121,15.937623 32.9447754,15.882627 33.5260195,15.4599141 C34.1072637,15.0373125 34.3928203,14.3349434 34.2710273,13.6265625 L33.687668,10.2307207 L36.1543652,7.82503125 C36.6688125,7.32327539 36.8503887,6.5870625 36.6281777,5.90361914 C36.4059668,5.22017578 35.8261699,4.73144531 35.1148945,4.62835547 L31.7050254,4.13394727 L30.1791621,1.04436914 C29.8609863,0.400113281 29.2171758,0 28.4986641,0 C28.4985527,0 28.4983301,0 28.4981074,0 C27.7794844,0.000111328125 27.1355625,0.400669922 26.8177207,1.04525977 L25.2936387,4.13550586 L21.8839922,4.63191797 C21.1728281,4.73545313 20.5931426,5.22440625 20.371377,5.90807227 C20.1495,6.59162695 20.3315215,7.32772852 20.8461914,7.82915039 L23.3142246,10.2335039 Z M25.7977324,6.31219336 C26.4081445,6.22324219 26.9356172,5.83982813 27.2085937,5.28641602 L28.4988867,2.67031641 L29.7905156,5.28563672 C30.0636035,5.83882617 30.5911875,6.22201758 31.2020449,6.31074609 L34.0887832,6.72945117 L32.0006016,8.76608789 C31.5588516,9.19670508 31.3575703,9.81691406 31.4619961,10.4252109 L31.9558477,13.3000371 L29.3737031,11.9433926 C28.8273047,11.6562773 28.1750332,11.6563887 27.6291914,11.9437266 L25.0476035,13.3018184 L25.5400078,10.4265469 C25.6439883,9.81836133 25.442373,9.198375 25.0004004,8.76786914 L22.9111055,6.7323457 L25.7977324,6.31219336 Z" id="Shape" fill="#000000"></path>
                    <path d="M13.992498,13.6264512 L13.4091387,10.2306094 L15.8758359,7.82491992 C16.3902832,7.32316406 16.5718594,6.58695117 16.3496484,5.90350781 C16.1274375,5.22006445 15.5475293,4.73144531 14.8362539,4.62824414 L11.4263848,4.13383594 L9.90074414,1.04436914 C9.58256836,0.400113281 8.93875781,0 8.22024609,0 C8.22013477,0 8.21991211,0 8.21968945,0 C7.50106641,0.000111328125 6.85714453,0.400669922 6.53930273,1.04525977 L5.0152207,4.13550586 L1.60557422,4.63191797 C0.894410156,4.73545312 0.314835938,5.22440625 0.0929589844,5.90796094 C-0.128917969,6.59151562 0.0528808594,7.32761719 0.567662109,7.82915039 L3.03569531,10.2336152 L2.45411719,13.629791 C2.33288086,14.3381719 2.61877148,15.040541 3.20023828,15.4628086 C3.52876758,15.7012734 3.91284961,15.8223984 4.29971484,15.8222871 C4.59774023,15.8222871 4.89732422,15.7503691 5.17408594,15.6048633 L8.22358594,14.0007363 L11.2738652,15.6033047 C11.9101055,15.9375117 12.6663574,15.882627 13.2476016,15.4601367 C13.8287344,15.0373125 14.1141797,14.3347207 13.992498,13.6264512 Z M11.7221836,8.76597656 C11.2803223,9.19659375 11.0789297,9.81691406 11.1834668,10.4252109 L11.6773184,13.3000371 L9.09528516,11.9433926 C8.54899805,11.6562773 7.89672656,11.6563887 7.35077344,11.9437266 L4.76907422,13.3019297 L5.26136719,10.4268809 C5.36557031,9.81880664 5.16395508,9.19870898 4.72187109,8.76798047 L2.6326875,6.7323457 L5.51931445,6.31219336 C6.12972656,6.22324219 6.65719922,5.83982813 6.93006445,5.28641602 L8.22035742,2.67031641 L9.51198633,5.28563672 C9.78507422,5.83882617 10.3126582,6.22201758 10.9235156,6.31074609 L13.8103652,6.72945117 L11.7221836,8.76597656 Z" id="Shape" fill="#000000"></path>
                </g>
            </g>
        </g>
    </g>
</svg>