<?xml version="1.0" encoding="UTF-8"?>
<svg width="66px" height="57px" viewBox="0 0 66 57" version="1.1" xmlns="http://www.w3.org/2000/svg" xmlns:xlink="http://www.w3.org/1999/xlink">
    <!-- Generator: Sketch 51.3 (57544) - http://www.bohemiancoding.com/sketch -->
    <title>cart (3)</title>
    <desc>Created with Sketch.</desc>
    <defs></defs>
    <g id="desktop" stroke="none" stroke-width="1" fill="none" fill-rule="evenodd">
        <g id="ecommerce" transform="translate(-680.000000, -5126.000000)" fill-rule="nonzero">
            <g id="Group-38" transform="translate(660.000000, 5126.000000)">
                <g id="cart-(3)" transform="translate(20.000000, 0.000000)">
                    <g id="Group" transform="translate(8.941176, 7.823529)">
                        <path d="M7.82352941,31.8529412 L2.04864706,1.67647059 L55.8823529,1.67647059 L55.8823529,27.3957647 C55.8823529,29.8568235 53.8873529,31.8529412 51.4251765,31.8529412 L7.82352941,31.8529412" id="Shape" fill="#EAFAFF"></path>
                        <path d="M51.4262941,32.9705882 L6.89923529,32.9705882 L0.696294118,0.558823529 L57,0.558823529 L57,27.3968824 C57,30.4704118 54.4998235,32.9705882 51.4262941,32.9705882 Z M8.74782353,30.7352941 L51.4262941,30.7352941 C53.2670588,30.7352941 54.7647059,29.2376471 54.7647059,27.3968824 L54.7647059,2.79411765 L3.401,2.79411765 L8.74782353,30.7352941 Z" id="Shape" fill="#000000"></path>
                    </g>
                    <g id="Group" transform="translate(17.882353, 42.470588)">
                        <circle id="Oval" fill="#FFFFFF" cx="6.70588235" cy="7.26470588" r="5.58823529"></circle>
                        <path d="M6.70588235,13.9705882 C3.00758824,13.9705882 0,10.963 0,7.26470588 C0,3.56641176 3.00758824,0.558823529 6.70588235,0.558823529 C10.4041765,0.558823529 13.4117647,3.56641176 13.4117647,7.26470588 C13.4117647,10.963 10.4041765,13.9705882 6.70588235,13.9705882 Z M6.70588235,2.79411765 C4.24035294,2.79411765 2.23529412,4.79917647 2.23529412,7.26470588 C2.23529412,9.73023529 4.24035294,11.7352941 6.70588235,11.7352941 C9.17141176,11.7352941 11.1764706,9.73023529 11.1764706,7.26470588 C11.1764706,4.79917647 9.17141176,2.79411765 6.70588235,2.79411765 Z" id="Shape" fill="#000000"></path>
                    </g>
                    <g id="Group" transform="translate(43.588235, 42.470588)">
                        <circle id="Oval" fill="#FFFFFF" cx="6.70588235" cy="7.26470588" r="5.58823529"></circle>
                        <path d="M6.70588235,13.9705882 C3.00758824,13.9705882 0,10.963 0,7.26470588 C0,3.56641176 3.00758824,0.558823529 6.70588235,0.558823529 C10.4041765,0.558823529 13.4117647,3.56641176 13.4117647,7.26470588 C13.4117647,10.963 10.4041765,13.9705882 6.70588235,13.9705882 Z M6.70588235,2.79411765 C4.24035294,2.79411765 2.23529412,4.79917647 2.23529412,7.26470588 C2.23529412,9.73023529 4.24035294,11.7352941 6.70588235,11.7352941 C9.17141176,11.7352941 11.1764706,9.73023529 11.1764706,7.26470588 C11.1764706,4.79917647 9.17141176,2.79411765 6.70588235,2.79411765 Z" id="Shape" fill="#000000"></path>
                    </g>
                    <path d="M61.4705882,49.7352941 L55.7694706,49.7352941 C55.1514118,49.7352941 54.6518235,49.2357059 54.6518235,48.6176471 C54.6518235,47.9995882 55.1514118,47.5 55.7694706,47.5 L61.4705882,47.5 C62.0886471,47.5 62.5882353,47.9995882 62.5882353,48.6176471 C62.5882353,49.2357059 62.0886471,49.7352941 61.4705882,49.7352941 Z" id="Shape" fill="#000000"></path>
                    <path d="M44.8187647,49.7352941 L30.0635882,49.7352941 C29.4455294,49.7352941 28.9459412,49.2357059 28.9459412,48.6176471 C28.9459412,47.9995882 29.4455294,47.5 30.0635882,47.5 L44.8176471,47.5 C45.4357059,47.5 45.9352941,47.9995882 45.9352941,48.6176471 C45.9352941,49.2357059 45.4357059,49.7352941 44.8187647,49.7352941 Z" id="Shape" fill="#000000"></path>
                    <path d="M10.9887059,10.6176471 C10.4522353,10.6176471 9.97835294,10.2298235 9.88782353,9.68329412 L9.11105882,5.02941176 L6.70588235,5.02941176 C6.08782353,5.02941176 5.58823529,4.52982353 5.58823529,3.91176471 C5.58823529,3.29370588 6.08782353,2.79411765 6.70588235,2.79411765 L11.0065882,2.79411765 L12.0929412,9.31670588 C12.1946471,9.92582353 11.7833529,10.5014118 11.1742353,10.602 C11.1105294,10.6131765 11.0501765,10.6176471 10.9887059,10.6176471 Z" id="Shape" fill="#000000"></path>
                    <path d="M65.9411765,18.4411765 L55.8823529,18.4411765 L55.8823529,8.38235294 L43.5882353,8.38235294 L43.5882353,18.4411765 L35.7647059,18.4411765 L35.7647059,8.38235294 L23.4705882,8.38235294 L23.4705882,18.4411765 L11.5642941,18.4411765 L13.9158235,30.7352941 L23.4705882,30.7352941 L23.4705882,40.7918824 L35.7647059,40.7885294 L35.7647059,30.7352941 L43.5882353,30.7352941 L43.5882353,40.7851765 L55.8823529,40.7818235 L55.8823529,30.7352941 L65.9411765,30.7352941 L65.9411765,18.4411765 Z M45.8235294,10.6176471 L53.6470588,10.6176471 L53.6470588,18.4411765 L45.8235294,18.4411765 L45.8235294,10.6176471 Z M53.6470588,20.6764706 L53.6470588,28.5 L45.8235294,28.5 L45.8235294,20.6764706 L53.6470588,20.6764706 Z M25.7058824,10.6176471 L33.5294118,10.6176471 L33.5294118,18.4411765 L25.7058824,18.4411765 L25.7058824,10.6176471 Z M33.5294118,20.6764706 L33.5294118,28.5 L25.7058824,28.5 L25.7058824,20.6764706 L33.5294118,20.6764706 Z M15.7632941,28.5 L14.2656471,20.6764706 L23.4705882,20.6764706 L23.4705882,28.5 L15.7632941,28.5 Z M33.5294118,38.5532353 L25.7058824,38.5565882 L25.7058824,30.7352941 L33.5294118,30.7352941 L33.5294118,38.5532353 Z M35.7647059,28.5 L35.7647059,20.6764706 L43.5882353,20.6764706 L43.5882353,28.5 L35.7647059,28.5 Z M53.6470588,38.5465294 L45.8235294,38.5498824 L45.8235294,30.7352941 L53.6470588,30.7352941 L53.6470588,38.5465294 Z M63.7058824,28.5 L55.8823529,28.5 L55.8823529,20.6764706 L63.7058824,20.6764706 L63.7058824,28.5 Z" id="Shape" fill="#000000"></path>
                    <path d="M19.1128824,49.7352941 L15.6470588,49.7352941 C14.0756471,49.7352941 12.5645882,49.0613529 11.5039412,47.8889412 C10.4455294,46.7187647 9.92917647,45.1473529 10.0867647,43.5770588 C10.3717647,40.7628235 12.9054706,38.5599412 15.8571765,38.5599412 C16.4752353,38.5599412 16.9748235,39.0595294 16.9748235,39.6775882 C16.9748235,40.2956471 16.4752353,40.7952353 15.8571765,40.7952353 C14.0387647,40.7952353 12.4807647,42.1162941 12.3108824,43.8017059 C12.2136471,44.7572941 12.5165294,45.6771176 13.1614118,46.3901765 C13.8007059,47.0954118 14.706,47.5 15.6470588,47.5 L19.1128824,47.5 C19.7309412,47.5 20.2305294,47.9995882 20.2305294,48.6176471 C20.2305294,49.2357059 19.7298235,49.7352941 19.1128824,49.7352941 Z" id="Shape" fill="#000000"></path>
                    <circle id="Oval" fill="#E87288" cx="3.35294118" cy="3.91176471" r="3.35294118"></circle>
                </g>
            </g>
        </g>
    </g>
</svg>