<?xml version="1.0" encoding="UTF-8"?>
<svg width="122px" height="122px" viewBox="0 0 122 122" version="1.1" xmlns="http://www.w3.org/2000/svg" xmlns:xlink="http://www.w3.org/1999/xlink">
    <!-- Generator: Sketch 55.1 (78136) - https://sketchapp.com -->
    <title>Group 19</title>
    <desc>Created with Sketch.</desc>
    <g id="desktop" stroke="none" stroke-width="1" fill="none" fill-rule="evenodd">
        <g id="cloud_native" transform="translate(-272.000000, -3584.000000)">
            <g id="Group-19" transform="translate(273.000000, 3585.000000)">
                <circle id="Oval" stroke="#E5E5E5" fill="#FFFFFF" cx="60" cy="60" r="60"></circle>
                <g id="Group-10" transform="translate(23.000000, 23.000000)">
                    <g id="cogwheels" transform="translate(15.441176, 16.544118)" fill-rule="nonzero">
                        <path d="M38.4990106,24.8178008 L38.3208301,25.481697 C37.9080351,27.0244476 37.299305,28.4968135 36.5111262,29.8594812 L36.1655451,30.4555297 L37.5719653,33.3666546 L33.3666546,37.5719653 L30.4555297,36.1655451 L29.8594812,36.5111262 C28.4968135,37.2980367 27.0231793,37.9067668 25.481697,38.3208301 L24.8178008,38.4990106 L23.7518889,41.5559772 L17.8040883,41.5559772 L16.7381764,38.4990106 L16.0742802,38.3208301 C14.5315297,37.9080351 13.0591637,37.299305 11.696496,36.5111262 L11.1004476,36.1655451 L8.18932264,37.5719653 L3.98401196,33.3666546 L5.39043213,30.4555297 L5.044851,29.8594812 C4.25794052,28.4968135 3.64921038,27.0231793 3.23514711,25.481697 L3.05696661,24.8178008 L7.81597009e-14,23.7518889 L7.81597009e-14,17.8040883 L3.05696661,16.7381764 L3.23514711,16.0742802 C3.64794211,14.5315297 4.25667225,13.0591637 5.044851,11.696496 L5.39043213,11.1004476 L3.98401196,8.18932264 L8.18932264,3.98401196 L11.1004476,5.39043213 L11.696496,5.044851 C13.0591637,4.25794052 14.5327979,3.64921038 16.0742802,3.23514711 L16.7381764,3.05696661 L17.8040883,2.91322522e-13 L23.7518889,2.91322522e-13 L24.8178008,3.05696661 L25.481697,3.23514711 C27.0244476,3.64794211 28.4968135,4.25667225 29.8594812,5.044851 L30.4555297,5.39043213 L33.3666546,3.98401196 L37.5719653,8.18932264 L36.1655451,11.1004476 L36.5111262,11.696496 C37.2980367,13.0591637 37.9067668,14.5327979 38.3208301,16.0742802 L38.4990106,16.7381764 L41.5559772,17.8040883 L41.5559772,23.7518889 L38.4990106,24.8178008 Z" id="Combined-Shape" stroke="#42566C" stroke-width="2"></path>
                        <path d="M20.7424099,7.75616698 C13.5815876,7.75616698 7.75616698,13.5815876 7.75616698,20.7424099 C7.75616698,27.9032321 13.5815876,33.7286528 20.7424099,33.7286528 C27.9032321,33.7286528 33.7286528,27.9032321 33.7286528,20.7424099 C33.7286528,13.5815876 27.9032321,7.75616698 20.7424099,7.75616698 Z M20.7424099,27.2355313 C17.1566089,27.2355313 14.2492884,24.3282109 14.2492884,20.7424099 C14.2492884,17.1566089 17.1566089,14.2492884 20.7424099,14.2492884 C24.3282109,14.2492884 27.2355313,17.1566089 27.2355313,20.7424099 C27.2355313,24.3282109 24.3282109,27.2355313 20.7424099,27.2355313 Z" id="Shape" fill="#E83F67"></path>
                        <path d="M20.7424099,12.9506641 C16.4451556,12.9506641 12.9506641,16.4451556 12.9506641,20.7424099 C12.9506641,25.0396641 16.4451556,28.5341556 20.7424099,28.5341556 C25.0396641,28.5341556 28.5341556,25.0396641 28.5341556,20.7424099 C28.5341556,16.4451556 25.0396641,12.9506641 20.7424099,12.9506641 Z M20.7424099,25.936907 C17.8775736,25.936907 15.5479127,23.6072461 15.5479127,20.7424099 C15.5479127,17.8775736 17.8775736,15.5479127 20.7424099,15.5479127 C23.6072461,15.5479127 25.936907,17.8775736 25.936907,20.7424099 C25.936907,23.6072461 23.6072461,25.936907 20.7424099,25.936907 Z" id="Shape" fill="#42566C"></path>
                    </g>
                    <g id="Group-9">
                        <g id="Group" transform="translate(60.110294, 31.985294)">
                            <polygon id="Polygon" stroke="#42566C" stroke-width="2" points="7.72058824 0 12.0188761 2.48161765 12.0188761 7.44485294 7.72058824 9.92647059 3.42230039 7.44485294 3.42230039 2.48161765"></polygon>
                            <polygon id="Path-2" fill="#E0E4E8" transform="translate(7.710522, 4.917366) rotate(-8.000000) translate(-7.710522, -4.917366) " points="7.26876533 8.13295669 4.78284838 6.16057799 5.2466796 2.86024737 8.172609 1.70177483 10.6381951 3.61797545 10.1743638 6.91830607"></polygon>
                            <path d="M2.75735294,4.96323529 L0,4.96323529" id="Path-16" stroke="#42566C" stroke-width="2"></path>
                        </g>
                        <g id="Group-7" transform="translate(30.882353, 61.661765)">
                            <polygon id="Polygon" stroke="#42566C" stroke-width="2" points="4.96323529 3.41176471 9.26152314 5.89338235 9.26152314 10.8566176 4.96323529 13.3382353 0.664947444 10.8566176 0.664947444 5.89338235"></polygon>
                            <polygon id="Path-2" fill="#E0E4E8" transform="translate(4.957916, 8.332239) rotate(-8.000000) translate(-4.957916, -8.332239) " points="4.50177983 11.6160373 1.89115224 9.72373334 2.37415528 6.28698818 5.42479531 5.04844094 8.02467903 7.08111751 7.541676 10.5178627"></polygon>
                            <path d="M6.61764706,1.75735294 L3.30882353,1.75735294" id="Path-16" stroke="#42566C" stroke-width="2" transform="translate(4.963235, 1.757353) rotate(-90.000000) translate(-4.963235, -1.757353) "></path>
                        </g>
                        <g id="Group-3" transform="translate(30.882353, 0.000000)">
                            <polygon id="Polygon" stroke="#42566C" stroke-width="2" points="4.96323529 0 9.26152314 2.48161765 9.26152314 7.44485294 4.96323529 9.92647059 0.664947444 7.44485294 0.664947444 2.48161765"></polygon>
                            <polygon id="Path-2" fill="#E0E4E8" transform="translate(4.986423, 4.956672) rotate(-8.000000) translate(-4.986423, -4.956672) " points="4.508652 8.18957891 2.00894245 6.28999686 2.47764083 2.95503462 5.41736283 1.72376544 7.96390381 3.7260786 7.49520543 7.06104083"></polygon>
                            <path d="M6.61764706,11.5808824 L3.30882353,11.5808824" id="Path-16" stroke="#42566C" stroke-width="2" transform="translate(4.963235, 11.580882) rotate(-90.000000) translate(-4.963235, -11.580882) "></path>
                        </g>
                        <g id="Group-2" transform="translate(52.286765, 7.720588)">
                            <polygon id="Polygon" stroke="#42566C" stroke-width="2" transform="translate(6.720588, 7.169118) rotate(-315.000000) translate(-6.720588, -7.169118) " points="6.72058824 2.20588235 11.0188761 4.6875 11.0188761 9.65073529 6.72058824 12.1323529 2.42230039 9.65073529 2.42230039 4.6875"></polygon>
                            <polygon id="Path-2" fill="#E0E4E8" transform="translate(6.675760, 7.129204) rotate(-21.000000) translate(-6.675760, -7.129204) " points="6.46970143 10.3467946 3.74808637 8.347527 4.19413129 5.25536391 7.08915082 3.91161391 9.60343305 5.80492446 9.17203656 9.01061294"></polygon>
                            <path d="M3.96323529,11.5808824 L0.654411765,11.5808824" id="Path-16" stroke="#42566C" stroke-width="2" transform="translate(2.308824, 11.580882) rotate(-45.000000) translate(-2.308824, -11.580882) "></path>
                        </g>
                        <g id="Group-6" transform="translate(6.617647, 52.941176)">
                            <polygon id="Polygon" stroke="#42566C" stroke-width="2" transform="translate(7.169118, 7.169118) rotate(-315.000000) translate(-7.169118, -7.169118) " points="7.16911765 2.20588235 11.4674055 4.6875 11.4674055 9.65073529 7.16911765 12.1323529 2.8708298 9.65073529 2.8708298 4.6875"></polygon>
                            <polygon id="Path-2" fill="#E0E4E8" transform="translate(7.158223, 7.128122) rotate(-21.000000) translate(-7.158223, -7.128122) " points="6.84977595 10.3457126 4.27812254 8.44372 4.59562993 5.32483689 7.46922534 3.91053198 10.0383243 5.78906832 9.70207273 9.10680594"></polygon>
                            <path d="M13.2352941,2.75735294 L9.92647059,2.75735294" id="Path-16" stroke="#42566C" stroke-width="2" transform="translate(11.580882, 2.757353) rotate(-45.000000) translate(-11.580882, -2.757353) "></path>
                        </g>
                        <g id="Group-8" transform="translate(52.389706, 51.838235)">
                            <polygon id="Polygon" stroke="#42566C" stroke-width="2" transform="translate(7.720588, 7.169118) rotate(-233.000000) translate(-7.720588, -7.169118) " points="7.72058824 2.20588235 12.0188761 4.6875 12.0188761 9.65073529 7.72058824 12.1323529 3.42230039 9.65073529 3.42230039 4.6875"></polygon>
                            <path d="M3.86029412,3.30882353 L0.551470588,3.30882353" id="Path-16" stroke="#42566C" stroke-width="2" transform="translate(2.205882, 3.308824) rotate(-141.000000) translate(-2.205882, -3.308824) "></path>
                            <polygon id="Path-2" fill="#E0E4E8" points="7.5 10.3791719 4.77838494 8.37990435 5.22442986 5.28774127 8.11944939 3.94399127 10.6337316 5.83730182 10.2023351 9.04299029"></polygon>
                        </g>
                        <g id="Group-4" transform="translate(5.514706, 8.823529)">
                            <polygon id="Polygon" stroke="#42566C" stroke-width="2" transform="translate(7.169118, 7.169118) rotate(-233.000000) translate(-7.169118, -7.169118) " points="7.16911765 2.20588235 11.4674055 4.6875 11.4674055 9.65073529 7.16911765 12.1323529 2.8708298 9.65073529 2.8708298 4.6875"></polygon>
                            <polygon id="Path-2" fill="#E0E4E8" points="6.95074822 10.456683 4.09790398 8.32234461 4.59509636 5.19295008 7.49011589 3.84920008 10.1356273 5.87758143 9.70423081 9.0832699"></polygon>
                            <path d="M14.3382353,11.0294118 L11.0294118,11.0294118" id="Path-16" stroke="#42566C" stroke-width="2" transform="translate(12.683824, 11.029412) rotate(-141.000000) translate(-12.683824, -11.029412) "></path>
                        </g>
                        <g id="Group-5" transform="translate(0.000000, 31.985294)">
                            <polygon id="Polygon" stroke="#42566C" stroke-width="2" points="4.96323529 0 9.26152314 2.48161765 9.26152314 7.44485294 4.96323529 9.92647059 0.664947444 7.44485294 0.664947444 2.48161765"></polygon>
                            <polygon id="Path-2" fill="#E0E4E8" transform="translate(4.927673, 5.005778) rotate(-8.000000) translate(-4.927673, -5.005778) " points="4.47426264 8.30429402 1.98834569 6.33191532 2.47548553 2.86573531 5.40141492 1.70726277 7.86700099 3.6234634 7.37986115 7.0896434"></polygon>
                            <path d="M12.1323529,4.96323529 L8.82352941,4.96323529" id="Path-16" stroke="#42566C" stroke-width="2"></path>
                        </g>
                    </g>
                </g>
            </g>
        </g>
    </g>
</svg>