<?xml version="1.0" encoding="UTF-8"?>
<svg width="122px" height="122px" viewBox="0 0 122 122" version="1.1" xmlns="http://www.w3.org/2000/svg" xmlns:xlink="http://www.w3.org/1999/xlink">
    <!-- Generator: Sketch 55.1 (78136) - https://sketchapp.com -->
    <title>Group 20</title>
    <desc>Created with Sketch.</desc>
    <g id="desktop" stroke="none" stroke-width="1" fill="none" fill-rule="evenodd">
        <g id="cloud_native" transform="translate(-772.000000, -3584.000000)">
            <g id="Group-20" transform="translate(773.000000, 3585.000000)">
                <circle id="Oval" stroke="#E5E5E5" fill="#FFFFFF" cx="60" cy="60" r="60"></circle>
                <g id="computing" transform="translate(18.000000, 31.000000)">
                    <polygon id="Path" stroke="#42566C" stroke-width="2" fill="#FFFFFF" fill-rule="nonzero" points="5.1547689 15.5199701 37.4118601 15.5199701 37.4118601 22.2269064 5.1547689 22.2269064"></polygon>
                    <polygon id="Path" stroke="#42566C" stroke-width="2" fill="#FFFFFF" fill-rule="nonzero" points="5.1547689 36.9819044 37.4118601 36.9819044 37.4118601 43.689496 5.1547689 43.689496"></polygon>
                    <path d="M38.7556048,36.9819044 L3.81102443,36.9819044 C1.95525205,36.9819044 0.450678232,35.4809186 0.450678232,33.6287638 L0.450678232,25.5800469 C0.450678232,23.7278922 1.95525205,22.2269064 3.81102443,22.2269064 L38.7556048,22.2269064 C40.611377,22.2269064 42.115951,23.7278922 42.115951,25.5800469 L42.115951,33.6287638 C42.115951,35.4809186 40.611377,36.9819044 38.7556048,36.9819044 Z" id="Path" stroke="#42566C" stroke-width="2" fill="#FFFFFF" fill-rule="nonzero"></path>
                    <path d="M38.7556048,58.4444939 L3.81102443,58.4444939 C1.95525205,58.4444939 0.450678232,56.9435081 0.450678232,55.0913534 L0.450678232,47.0426365 C0.450678232,45.1904818 1.95525205,43.689496 3.81102443,43.689496 L38.7556048,43.689496 C40.611377,43.689496 42.115951,45.1904818 42.115951,47.0426365 L42.115951,55.0913534 C42.115951,56.9435081 40.611377,58.4444939 38.7556048,58.4444939 L38.7556048,58.4444939 Z" id="Path" stroke="#42566C" stroke-width="2" fill="#FFFFFF" fill-rule="nonzero"></path>
                    <path d="M38.7556048,0.764316847 L3.81102443,0.764316847 C1.95525205,0.764316847 0.450678232,2.26530265 0.450678232,4.11745754 L0.450678232,12.1661743 C0.450678232,14.0183291 1.95525205,15.5199701 3.81102443,15.5199701 L38.7556048,15.5199701 C40.611377,15.5199701 42.115951,14.0183291 42.115951,12.1661743 L42.115951,4.11745754 C42.115951,2.26530265 40.611377,0.764316847 38.7556048,0.764316847 Z" id="Path" stroke="#42566C" stroke-width="2" fill="#FFFFFF" fill-rule="nonzero"></path>
                    <rect id="Rectangle" fill="#E0E4E8" x="3" y="3" width="37" height="10" rx="2"></rect>
                    <rect id="Rectangle" fill="#E0E4E8" x="3" y="46" width="37" height="10" rx="2"></rect>
                    <path d="M5,24.4921875 L38,24.4921875 C39.1045695,24.4921875 40,25.387618 40,26.4921875 L40,32.855957 C40,33.9605265 39.1045695,34.855957 38,34.855957 L5,34.855957 C3.8954305,34.855957 3,33.9605265 3,32.855957 L3,26.4921875 C3,25.387618 3.8954305,24.4921875 5,24.4921875 Z" id="Rectangle" fill="#E83F67"></path>
                    <path d="M70.0857945,58.4444939 L72.5481227,58.4444939 C78.3937728,58.4444939 83.1326551,53.7181251 83.1326551,47.887801 C83.1326551,42.0568218 78.3937728,37.3304528 72.5481227,37.3304528 C72.3413422,37.3304528 72.1358747,37.3383148 71.9323766,37.3494527 C70.1685066,28.8073957 62.5904961,22.3848014 53.5098811,22.3848014 C45.4014623,22.3848014 38.4917135,27.5049253 35.8488627,34.6829262 C35.5830022,34.654754 35.3145157,34.63903 35.0420908,34.63903 C30.8526535,34.63903 27.4568593,38.0262394 27.4568593,42.2042342 C27.4568593,42.7761942 27.5225039,43.3324303 27.6432899,43.8677012 C24.866524,44.9913113 22.9076897,47.70632 22.9076897,50.8792898 C22.9076897,55.0572846 26.303484,58.4444939 30.4922648,58.4444939 L70.0857945,58.4444939 Z" id="Path" stroke="#42566C" stroke-width="2" fill="#FFFFFF" fill-rule="nonzero"></path>
                    <path d="M7.45167287,31.2813033 C7.89346087,31.2813033 8.3254023,31.1017878 8.63918332,30.7899286 C8.95165153,30.4780696 9.13151777,30.0456598 9.13151777,29.604733 C9.13151777,29.163151 8.95165153,28.7307413 8.63918332,28.4188822 C8.32671511,28.1070231 7.89346087,27.9275075 7.45167287,27.9275075 C7.0079155,27.9275075 6.57597406,28.1070231 6.26219304,28.4188822 C5.94972483,28.7307413 5.77182797,29.163151 5.77182797,29.604733 C5.77182797,30.0456598 5.94972483,30.4780696 6.26219304,30.7899286 C6.57597406,31.1017878 7.00988488,31.2813033 7.45167287,31.2813033 Z" id="Path" fill="#FFFFFF" fill-rule="nonzero"></path>
                    <path d="M14.1717087,31.2813033 C14.6134969,31.2813033 15.0454381,31.1017878 15.3592193,30.7899286 C15.6716874,30.4780696 15.8515536,30.0456598 15.8515536,29.604733 C15.8515536,29.163151 15.6716874,28.7307413 15.3592193,28.4188822 C15.0467509,28.1070231 14.6134969,27.9275075 14.1717087,27.9275075 C13.7279513,27.9275075 13.2966665,28.1070231 12.9841983,28.4188822 C12.6697607,28.7307413 12.491864,29.163151 12.491864,29.604733 C12.491864,30.0456598 12.6697607,30.4780696 12.9841983,30.7899286 C13.2966665,31.1017878 13.7299207,31.2813033 14.1717087,31.2813033 Z" id="Path" fill="#FFFFFF" fill-rule="nonzero"></path>
                    <path d="M23.5792338,31.2813033 L26.93958,31.2813033 C27.8671379,31.2813033 28.6194249,30.5304829 28.6194249,29.604733 C28.6194249,28.678328 27.8671379,27.9275075 26.93958,27.9275075 L23.5792338,27.9275075 C22.6516759,27.9275075 21.8993889,28.678328 21.8993889,29.604733 C21.8993889,30.5304829 22.6516759,31.2813033 23.5792338,31.2813033 Z" id="Path" fill="#FFFFFF" fill-rule="nonzero"></path>
                    <path d="M7.45167287,49.3900971 C7.0079155,49.3900971 6.57597406,49.5696125 6.26350602,49.8814718 C5.94972483,50.1933307 5.77182797,50.6257406 5.77182797,51.0666674 C5.77182797,51.5082493 5.94972483,51.940659 6.26350602,52.2525181 C6.57597406,52.5643773 7.00988488,52.7438929 7.45167287,52.7438929 C7.89346087,52.7438929 8.3254023,52.5643773 8.63918332,52.2525181 C8.95165153,51.940659 9.13151777,51.5082493 9.13151777,51.0666674 C9.13151777,50.6257406 8.95165153,50.1933307 8.63918332,49.8814718 C8.32671511,49.5696125 7.89346087,49.3900971 7.45167287,49.3900971 Z" id="Path" fill="#42566C" fill-rule="nonzero"></path>
                    <path d="M14.1717087,49.3900971 C13.7279513,49.3900971 13.2966665,49.5696125 12.9822289,49.8814718 C12.6697607,50.1933307 12.491864,50.6257406 12.491864,51.0666674 C12.491864,51.5082493 12.6697607,51.940659 12.9822289,52.2525181 C13.2966665,52.5643773 13.7299207,52.7438929 14.1717087,52.7438929 C14.6134969,52.7438929 15.0454381,52.5643773 15.3592193,52.2525181 C15.6716874,51.940659 15.8515536,51.5082493 15.8515536,51.0666674 C15.8515536,50.6257406 15.6716874,50.1933307 15.3592193,49.8814718 C15.0467509,49.5696125 14.6134969,49.3900971 14.1717087,49.3900971 Z" id="Path" fill="#42566C" fill-rule="nonzero"></path>
                    <path d="M7.45167287,9.81871373 C7.89346087,9.81871373 8.32671511,9.63919827 8.63918332,9.32733916 C8.95165153,9.01548005 9.13151777,8.58307036 9.13151777,8.14214338 C9.13151777,7.70121657 8.95165153,7.26815175 8.63918332,6.95629264 C8.32671511,6.64443353 7.89346087,6.46491791 7.45167287,6.46491791 C7.00988488,6.46491791 6.57597406,6.64443353 6.26350602,6.95629264 C5.94972483,7.26815175 5.77182797,7.70121657 5.77182797,8.14214338 C5.77182797,8.58307036 5.94972483,9.01548005 6.26350602,9.32733916 C6.57597406,9.63919827 7.00988488,9.81871373 7.45167287,9.81871373 Z" id="Path" fill="#42566C" fill-rule="nonzero"></path>
                    <path d="M14.1717087,9.81871373 C14.6134969,9.81871373 15.0454381,9.63919827 15.3592193,9.32733916 C15.6716874,9.01548005 15.8515536,8.58307036 15.8515536,8.14214338 C15.8515536,7.70121657 15.6716874,7.26815175 15.3592193,6.95629264 C15.0467509,6.64443353 14.6134969,6.46491791 14.1717087,6.46491791 C13.7299207,6.46491791 13.2966665,6.64443353 12.9822289,6.95629264 C12.6697607,7.26815175 12.491864,7.70121657 12.491864,8.14214338 C12.491864,8.58307036 12.6697607,9.01548005 12.9822289,9.32733916 C13.2966665,9.63919827 13.7299207,9.81871373 14.1717087,9.81871373 Z" id="Path" fill="#42566C" fill-rule="nonzero"></path>
                    <path d="M23.5792338,9.81871373 L34.7795125,9.81871373 C35.7077268,9.81871373 36.4600138,9.06789334 36.4600138,8.14214338 C36.4600138,7.21573846 35.7077268,6.46491791 34.7795125,6.46491791 L23.5792338,6.46491791 C22.6516759,6.46491791 21.8993889,7.21573846 21.8993889,8.14214338 C21.8993889,9.06789334 22.6516759,9.81871373 23.5792338,9.81871373 Z" id="Path" fill="#42566C" fill-rule="nonzero"></path>
                </g>
            </g>
        </g>
    </g>
</svg>