<?xml version="1.0" encoding="UTF-8"?>
<svg width="122px" height="122px" viewBox="0 0 122 122" version="1.1" xmlns="http://www.w3.org/2000/svg" xmlns:xlink="http://www.w3.org/1999/xlink">
    <!-- Generator: Sketch 55.1 (78136) - https://sketchapp.com -->
    <title>Group 22</title>
    <desc>Created with Sketch.</desc>
    <g id="desktop" stroke="none" stroke-width="1" fill="none" fill-rule="evenodd">
        <g id="cloud_native" transform="translate(-772.000000, -4174.000000)">
            <g id="Group-22" transform="translate(773.000000, 4175.000000)">
                <circle id="Oval" stroke="#E5E5E5" fill="#FFFFFF" cx="60" cy="60" r="60"></circle>
                <g id="cogwheels" transform="translate(24.000000, 24.000000)" fill-rule="nonzero">
                    <g id="Group" transform="translate(2.354839, 2.354839)">
                        <path d="M15.3064516,7.06451613 C10.7629237,7.06451613 7.06451613,10.7629237 7.06451613,15.3064516 C7.06451613,19.8499796 10.7629237,23.5483871 15.3064516,23.5483871 C19.8499796,23.5483871 23.5483871,19.8499796 23.5483871,15.3064516 C23.5483871,10.7629237 19.8499796,7.06451613 15.3064516,7.06451613 Z M15.3064516,17.6612903 C14.0054262,17.6612903 12.9516129,16.607477 12.9516129,15.3064516 C12.9516129,14.0054262 14.0054262,12.9516129 15.3064516,12.9516129 C16.607477,12.9516129 17.6612903,14.0054262 17.6612903,15.3064516 C17.6612903,16.607477 16.607477,17.6612903 15.3064516,17.6612903 Z" id="Shape" fill="#E0E4E8"></path>
                        <path d="M49.4516129,37.6774194 C42.959134,37.6774194 37.6774194,42.959134 37.6774194,49.4516129 C37.6774194,55.9440918 42.959134,61.2258065 49.4516129,61.2258065 C55.9440918,61.2258065 61.2258065,55.9440918 61.2258065,49.4516129 C61.2258065,42.959134 55.9440918,37.6774194 49.4516129,37.6774194 Z M49.4516129,55.3387097 C46.2004867,55.3387097 43.5645161,52.7027391 43.5645161,49.4516129 C43.5645161,46.2004867 46.2004867,43.5645161 49.4516129,43.5645161 C52.7027391,43.5645161 55.3387097,46.2004867 55.3387097,49.4516129 C55.3387097,52.7027391 52.7027391,55.3387097 49.4516129,55.3387097 Z" id="Shape" fill="#E83F67"></path>
                        <path d="M25.9032258,53.3173198 L12.2168756,37.6774194 L9.74762951,37.6774194 L8.78465222,40.5692258 L6.05899544,39.2055348 L1.52811548,43.7364148 L2.8918064,46.4620716 L0,47.4250489 L0,53.8318659 L2.8918064,54.7948432 L1.52811548,57.5205 L6.05899544,62.0513798 L8.78465222,60.687689 L9.74762951,63.5806452 L16.1544465,63.5806452 L17.1174238,60.6888388 L19.8430806,62.0525297 L24.3739604,57.5216497 L23.0102697,54.7959929 L25.9032258,53.8330157 L25.9032258,53.3173198 Z M12.9516129,55.3387097 C10.3507119,55.3387097 8.24193548,53.2299332 8.24193548,50.6290323 C8.24193548,48.0281313 10.3507119,45.9193548 12.9516129,45.9193548 C15.5525139,45.9193548 17.6612903,48.0281313 17.6612903,50.6290323 C17.6612903,53.2299332 15.5525139,55.3387097 12.9516129,55.3387097 Z" id="Shape" stroke="#42566C" stroke-width="2" fill="#E0E4E8"></path>
                        <path d="M63.5806452,9.74762951 L60.6888388,8.78465222 L62.0525297,6.05899544 L57.5216497,1.52811548 L54.7959929,2.8918064 L53.8330157,0 L47.4261986,0 L46.4632213,2.8918064 L43.7375645,1.52811548 L39.2066847,6.05899544 L40.5703755,8.78465222 L37.6774194,9.74762951 L37.6774194,12.2099768 L53.3345671,25.9032258 L53.8318659,25.9032258 L54.7948432,23.0114194 L57.5205,24.3751103 L62.0513798,19.8442304 L60.687689,17.1185736 L63.5806452,16.1555963 L63.5806452,9.74762951 Z M50.6290323,17.6612903 C48.0281313,17.6612903 45.9193548,15.5525139 45.9193548,12.9516129 C45.9193548,10.3507119 48.0281313,8.24193548 50.6290323,8.24193548 C53.2299332,8.24193548 55.3387097,10.3507119 55.3387097,12.9516129 C55.3387097,15.5525139 53.2299332,17.6612903 50.6290323,17.6612903 Z" id="Shape" stroke="#42566C" stroke-width="2" fill="#E0E4E8"></path>
                    </g>
                    <path d="M17.6612903,30.6129032 L17.6612903,28.2580645 C11.8178868,28.2580645 7.06451613,23.5046938 7.06451613,17.6612903 L4.70967742,17.6612903 C4.70967742,24.8022697 10.520311,30.6129032 17.6612903,30.6129032 Z" id="Path" fill="#42566C"></path>
                    <path d="M17.6612903,21.1935484 C19.6085166,21.1935484 21.1935484,19.6085166 21.1935484,17.6612903 C21.1935484,15.714064 19.6085166,14.1290323 17.6612903,14.1290323 C15.714064,14.1290323 14.1290323,15.714064 14.1290323,17.6612903 C14.1290323,19.6085166 15.714064,21.1935484 17.6612903,21.1935484 Z M17.6612903,16.483871 C18.3109406,16.483871 18.8387097,17.0116401 18.8387097,17.6612903 C18.8387097,18.3109406 18.3109406,18.8387097 17.6612903,18.8387097 C17.0116401,18.8387097 16.483871,18.3109406 16.483871,17.6612903 C16.483871,17.0116401 17.0116401,16.483871 17.6612903,16.483871 Z" id="Shape" fill="#42566C"></path>
                    <path d="M73,56.1746315 L73,47.4382717 L69.8138388,46.3269673 C69.4562437,45.1518476 68.9882656,44.0192714 68.4150784,42.9453362 L69.8822533,39.9098019 L68.7450778,38.7726263 C68.2184586,38.0810075 67.3543662,37.1686225 66.7006915,36.5080488 C65.8871913,35.68535 64.9489352,34.792512 64.311933,34.2348475 L30.34097,4.52628052 C27.0053317,1.60745338 22.7279879,2.84217094e-14 18.2948432,2.84217094e-14 L18.2948432,0.0316201855 C18.0827006,0.024721244 17.8757324,2.84217094e-14 17.6612903,2.84217094e-14 C7.9228594,2.84217094e-14 0,7.9228594 0,17.6612903 C0,17.8757324 0.024721244,18.0827006 0.0316201855,18.2948432 L0,18.2948432 C0,22.7279879 1.60745338,27.0041819 4.52628052,30.3398201 L34.2313981,64.2849121 C34.7666409,64.8960433 35.5697928,65.7469128 36.3258017,66.5086709 C37.041567,67.2284605 38.0269657,68.177065 38.7663024,68.7410534 L39.9075022,69.8822533 L42.9430365,68.4150784 C44.0163967,68.9871157 45.1495479,69.4562437 46.3246676,69.8138388 L47.4382717,73 L56.1746315,73 L57.285936,69.8138388 C58.4610557,69.4562437 59.5936318,68.9882656 60.6675671,68.4150784 L63.7031013,69.8822533 L69.8822533,63.7031013 L68.4150784,60.6675671 C68.9871157,59.5936318 69.4562437,58.4610557 69.8138388,57.285936 L73,56.1746315 Z M35.1978248,42.9453362 C34.6257876,44.0192714 34.1566595,45.1518476 33.7990645,46.3269673 L30.6129032,47.4382717 L30.6129032,56.1746315 L33.7990645,57.285936 C34.1566595,58.4610557 34.6246377,59.5936318 35.1978248,60.6675671 L34.8408045,61.4057538 L10.8014428,33.9353185 C12.911369,34.8281565 15.2299884,35.3225806 17.6612903,35.3225806 C27.3997212,35.3225806 35.3225806,27.3997212 35.3225806,17.6612903 C35.3225806,15.2276887 34.8281565,12.9079196 33.9341686,10.7968435 L61.4212765,34.8339057 L60.668717,35.1978248 C59.5953566,34.6257876 58.4622054,34.1566595 57.2870857,33.7990645 L56.1746315,30.6129032 L47.4382717,30.6129032 L46.3269673,33.7990645 C45.1518476,34.1566595 44.0192714,34.6246377 42.9453362,35.1978248 L39.9098019,33.7306499 L33.7306499,39.9098019 L35.1978248,42.9453362 Z M17.6612903,2.35483871 C26.1009955,2.35483871 32.9677419,9.22158518 32.9677419,17.6612903 C32.9677419,26.1009955 26.1009955,32.9677419 17.6612903,32.9677419 C9.22158518,32.9677419 2.35483871,26.1009955 2.35483871,17.6612903 C2.35483871,9.22158518 9.22158518,2.35483871 17.6612903,2.35483871 Z M67.8735116,55.4692147 L67.7119612,56.0711472 C67.3376938,57.4699077 66.7857785,58.8048528 66.0711631,60.0403383 L65.7578362,60.5807555 L67.0329904,63.2201754 L63.2201754,67.0329904 L60.5807555,65.7578362 L60.0403383,66.0711631 C58.8048528,66.7846286 57.4687578,67.3365439 56.0711472,67.7119612 L55.4692147,67.8735116 L54.5027879,70.6451613 L49.1101154,70.6451613 L48.1436885,67.8735116 L47.541756,67.7119612 C46.1429955,67.3376938 44.8080504,66.7857785 43.572565,66.0711631 L43.0321477,65.7578362 L40.3927278,67.0329904 L36.5799128,63.2201754 L37.8550671,60.5807555 L37.5417402,60.0403383 C36.8282747,58.8048528 36.2763593,57.4687578 35.900942,56.0711472 L35.7393917,55.4692147 L32.9677419,54.5027879 L32.9677419,49.1101154 L35.7393917,48.1436885 L35.900942,47.541756 C36.2752095,46.1429955 36.8271248,44.8080504 37.5417402,43.572565 L37.8550671,43.0321477 L36.5799128,40.3927278 L40.3927278,36.5799128 L43.0321477,37.8550671 L43.572565,37.5417402 C44.8080504,36.8282747 46.1441454,36.2763593 47.541756,35.900942 L48.1436885,35.7393917 L49.1101154,32.9677419 L54.5027879,32.9677419 L55.4692147,35.7393917 L56.0711472,35.900942 C57.4699077,36.2752095 58.8048528,36.8271248 60.0403383,37.5417402 L60.5807555,37.8550671 L63.2201754,36.5799128 L67.0329904,40.3927278 L65.7578362,43.0321477 L66.0711631,43.572565 C66.7846286,44.8080504 67.3365439,46.1441454 67.7119612,47.541756 L67.8735116,48.1436885 L70.6451613,49.1101154 L70.6451613,54.5027879 L67.8735116,55.4692147 Z" id="Shape" fill="#42566C"></path>
                    <path d="M51.8064516,44.7419355 C47.9102744,44.7419355 44.7419355,47.9102744 44.7419355,51.8064516 C44.7419355,55.7026288 47.9102744,58.8709677 51.8064516,58.8709677 C55.7026288,58.8709677 58.8709677,55.7026288 58.8709677,51.8064516 C58.8709677,47.9102744 55.7026288,44.7419355 51.8064516,44.7419355 Z M51.8064516,56.516129 C49.2090001,56.516129 47.0967742,54.4039032 47.0967742,51.8064516 C47.0967742,49.2090001 49.2090001,47.0967742 51.8064516,47.0967742 C54.4039032,47.0967742 56.516129,49.2090001 56.516129,51.8064516 C56.516129,54.4039032 54.4039032,56.516129 51.8064516,56.516129 Z" id="Shape" fill="#42566C"></path>
                    <path d="M52.983871,21.1935484 C56.229823,21.1935484 58.8709677,18.5524037 58.8709677,15.3064516 C58.8709677,12.0604995 56.229823,9.41935484 52.983871,9.41935484 C49.7379189,9.41935484 47.0967742,12.0604995 47.0967742,15.3064516 C47.0967742,18.5524037 49.7379189,21.1935484 52.983871,21.1935484 Z M52.983871,11.7741935 C54.9310973,11.7741935 56.516129,13.3592253 56.516129,15.3064516 C56.516129,17.2536779 54.9310973,18.8387097 52.983871,18.8387097 C51.0366447,18.8387097 49.4516129,17.2536779 49.4516129,15.3064516 C49.4516129,13.3592253 51.0366447,11.7741935 52.983871,11.7741935 Z" id="Shape" fill="#42566C"></path>
                    <path d="M15.3064516,47.0967742 C12.0604995,47.0967742 9.41935484,49.7379189 9.41935484,52.983871 C9.41935484,56.229823 12.0604995,58.8709677 15.3064516,58.8709677 C18.5524037,58.8709677 21.1935484,56.229823 21.1935484,52.983871 C21.1935484,49.7379189 18.5524037,47.0967742 15.3064516,47.0967742 Z M15.3064516,56.516129 C13.3592253,56.516129 11.7741935,54.9310973 11.7741935,52.983871 C11.7741935,51.0366447 13.3592253,49.4516129 15.3064516,49.4516129 C17.2536779,49.4516129 18.8387097,51.0366447 18.8387097,52.983871 C18.8387097,54.9310973 17.2536779,56.516129 15.3064516,56.516129 Z" id="Shape" fill="#42566C"></path>
                </g>
            </g>
        </g>
    </g>
</svg>