<?xml version="1.0" encoding="UTF-8"?>
<svg width="122px" height="122px" viewBox="0 0 122 122" version="1.1" xmlns="http://www.w3.org/2000/svg" xmlns:xlink="http://www.w3.org/1999/xlink">
    <!-- Generator: Sketch 55.1 (78136) - https://sketchapp.com -->
    <title>Group 23</title>
    <desc>Created with Sketch.</desc>
    <g id="desktop" stroke="none" stroke-width="1" fill="none" fill-rule="evenodd">
        <g id="cloud_native" transform="translate(-272.000000, -4692.000000)">
            <g id="Group-23" transform="translate(273.000000, 4693.000000)">
                <circle id="Oval" stroke="#E5E5E5" fill="#FFFFFF" cx="60" cy="60" r="60"></circle>
                <g id="padlock" transform="translate(23.000000, 23.000000)" fill-rule="nonzero">
                    <path d="M34.8329034,67 L20.1670966,67 C19.6978361,66.9996101 19.2529303,66.7954672 18.9524266,66.4426548 C18.651923,66.0898423 18.5267877,65.6247165 18.6107856,65.1727809 L20.9064631,52.8146422 C15.0876465,50.5 15.8837891,35.4186666 27.5,35.4186666 C39.1162109,35.4186666 39.5600295,49.5373535 34.0935369,52.8146422 L36.3892144,65.1727809 C36.4732123,65.6247165 36.348077,66.0898423 36.0475734,66.4426548 C35.7470697,66.7954672 35.3021639,66.9996101 34.8329034,67 Z M21.9536731,62 L33.0528263,62 L29.8495313,52.3575294 C29.7257375,51.7023676 30.0473094,51.0437428 30.6505818,50.7168646 C33.242043,49.335703 34.5341691,46.4439394 33.7924295,43.6854452 C33.05069,40.9269508 30.4628458,39 27.5,39 C24.5371542,39 21.94931,40.9269508 21.2075705,43.6854452 C20.4658309,46.4439394 21.757957,49.335703 24.3494182,50.7168646 C24.9526906,51.0437428 25.2742625,51.7023676 25.1504687,52.3575294 L21.9536731,62 Z" id="Shape" stroke="#E83F67" fill="#E83F67"></path>
                    <path d="M32.5,63.7037037 L22.5,63.7037037 C22.129506,63.7033898 21.7782408,63.5390587 21.5409849,63.2550512 C21.3037291,62.9710438 21.2049314,62.5966262 21.27125,62.2328265 L23.08375,52.2847563 C20.4590196,50.3763029 19.3630746,46.9987381 20.3685796,43.9169416 C21.3740845,40.8351452 24.2525941,38.7492842 27.5,38.7492842 C30.7474059,38.7492842 33.6259155,40.8351452 34.6314204,43.9169416 C35.6369254,46.9987381 34.5409804,50.3763029 31.91625,52.2847563 L33.72875,62.2328265 C33.7950686,62.5966262 33.6962709,62.9710438 33.4590151,63.2550512 C33.2217593,63.5390587 32.870494,63.7033898 32.5,63.7037037 Z M24,61.208577 L31,61.208577 L29.305,51.9129825 C29.2097651,51.3898874 29.4571511,50.8640274 29.92125,50.6030409 C31.9148673,49.5002924 32.9089029,47.1914472 32.3382809,44.9890071 C31.7676589,42.7865669 29.7768243,41.2480487 27.4975,41.2480487 C25.2181758,41.2480487 23.2273411,42.7865669 22.6567191,44.9890071 C22.0860971,47.1914472 23.0801328,49.5002924 25.07375,50.6030409 C25.5378489,50.8640274 25.7852349,51.3898874 25.69,51.9129825 L24,61.208577 Z" id="Shape" fill="#42566C"></path>
                    <path d="M41.17625,36.1306043 C39.0402082,34.6225029 37.764391,32.1785079 37.75,29.5671735 L37.75,12.2260429 L53.75,5.76116959 L69.75,12.228538 L69.75,29.5696686 C69.7351378,32.1805015 68.4587824,34.6237066 66.3225,36.1306043 L53.75,46.357037 L41.17625,36.1306043 Z" id="Shape" fill="#E0E4E8"></path>
                    <path d="M53.75,52.4756335 C53.2569774,52.4748343 52.7764241,52.3209211 52.375,52.0352437 L38.55125,42.2156725 C34.7681509,39.5356256 32.514471,35.1973505 32.4999986,30.5671735 L32.4999986,9.94869396 C32.4992613,9.45196286 32.7938485,9.00212292 33.25,8.8034308 L53.25,0.180272904 C53.5659365,0.0442893486 53.9240635,0.0442893486 54.24,0.180272904 L74.24,8.8034308 C74.6961515,9.00212292 74.9907387,9.45196286 74.9900014,9.94869396 L74.9900014,30.5671735 C74.9739967,35.1972726 72.7201058,39.5350581 68.9375,42.2156725 L55.125,52.0364912 C54.7236531,52.3221753 54.2429642,52.4756335 53.75,52.4756335 Z M35,10.7683431 L35,30.5671735 C35.0136713,34.3901837 36.8757615,37.971437 40,40.1833918 L53.75,49.9518129 L67.5,40.1833918 C70.6242385,37.971437 72.4863287,34.3901837 72.5,30.5671735 L72.5,10.7683431 L53.75,2.68413255 L35,10.7683431 Z" id="Shape" fill="#42566C"></path>
                    <path d="M50.89125,33.9406041 C50.6207872,33.9406041 50.3576202,33.8530334 50.14125,33.6910721 L44.4275,29.414425 C43.8752152,29.0010189 43.7632865,28.2190444 44.1775,27.6678363 C44.5917135,27.1166281 45.3752152,27.0049175 45.9275,27.4183236 L50.6775,30.9701365 L61.34375,17.6561404 C61.6226405,17.3078168 62.0665371,17.1344489 62.5082286,17.2013425 C62.94992,17.2682362 63.3223026,17.5652287 63.4851036,17.9804458 C63.6479045,18.395663 63.5763905,18.8660234 63.2975,19.214347 L51.875,33.471501 C51.6362836,33.7698707 51.2738119,33.942709 50.89125,33.9406041 Z" id="Shape" fill="#42566C"></path>
                    <path d="M48.75,74.9317739 L6.25,74.9317739 C2.79993356,74.9276493 0.00413264541,72.1372983 0,68.6939571 L0,33.7621832 C0.00413264541,30.318842 2.79993356,27.528491 6.25,27.5243665 L33.75,27.5243665 C34.4403559,27.5243665 35,28.0829197 35,28.7719298 C35,29.46094 34.4403559,30.0194932 33.75,30.0194932 L6.25,30.0194932 C4.17893219,30.0194932 2.5,31.6951527 2.5,33.7621832 L2.5,68.6939571 C2.5,70.7609877 4.17893219,72.4366472 6.25,72.4366472 L48.75,72.4366472 C50.8210677,72.4366472 52.5,70.7609877 52.5,68.6939571 L52.5,51.2280702 C52.5,50.53906 53.0596441,49.9805068 53.75,49.9805068 C54.4403559,49.9805068 55,50.53906 55,51.2280702 L55,68.6939571 C54.9958674,72.1372983 52.2000665,74.9276493 48.75,74.9317739 Z" id="Shape" fill="#42566C"></path>
                    <path d="M15,30.0194932 L7.5,30.0194932 C6.80964406,30.0194932 6.24999946,29.46094 6.24999946,28.7719298 L6.24999946,21.2865497 C6.24809125,12.8266543 11.2838804,5.17478002 19.0636841,1.81617546 C26.8434878,-1.54242912 35.8790953,0.0347087096 42.055,5.82923977 C42.5586146,6.30052275 42.5840785,7.09003761 42.111875,7.59267057 C41.6396715,8.09530352 40.8486146,8.12071769 40.345,7.6494347 C34.8960586,2.53521067 26.922807,1.14250129 20.0574348,4.10575089 C13.1920625,7.06900051 8.74810771,13.8212564 8.74999946,21.2865497 L8.74999946,27.5243665 L13.7499995,27.5243665 L13.7499995,21.2865497 C13.7501248,16.3837859 16.3709093,11.853502 20.6251513,9.40217405 C24.8793933,6.9508461 30.1207893,6.95087933 34.375,9.40226121 C34.7649385,9.62353102 35.0061915,10.0363642 35.0071776,10.4840462 C35.0081638,10.9317282 34.7687318,11.3456161 34.3797718,11.568595 C33.9908119,11.7915737 33.511963,11.7894542 33.125,11.5630409 C29.6442821,9.55736485 25.3558671,9.55733767 21.8751238,11.5629696 C18.3943804,13.5686016 16.2501021,17.2751975 16.2499995,21.2865497 L16.2499995,28.7719298 C16.2499995,29.46094 15.6903559,30.0194932 15,30.0194932 Z" id="Shape" fill="#42566C"></path>
                    <path d="M10,37.5048733 L1.25,37.5048733 C0.559644062,37.5048733 0,36.9463201 0,36.2573099 C0,35.5682998 0.559644062,35.0097466 1.25,35.0097466 L10,35.0097466 C10.6903559,35.0097466 11.25,35.5682998 11.25,36.2573099 C11.25,36.9463201 10.6903559,37.5048733 10,37.5048733 Z" id="Shape" fill="#42566C"></path>
                    <path d="M10,47.4853801 L1.25,47.4853801 C0.559644062,47.4853801 0,46.9268269 0,46.2378168 C0,45.5488066 0.559644062,44.9902534 1.25,44.9902534 L10,44.9902534 C10.6903559,44.9902534 11.25,45.5488066 11.25,46.2378168 C11.25,46.9268269 10.6903559,47.4853801 10,47.4853801 Z" id="Shape" fill="#42566C"></path>
                    <path d="M10,57.4658869 L1.25,57.4658869 C0.559644062,57.4658869 0,56.9073337 0,56.2183236 C0,55.5293134 0.559644062,54.9707602 1.25,54.9707602 L10,54.9707602 C10.6903559,54.9707602 11.25,55.5293134 11.25,56.2183236 C11.25,56.9073337 10.6903559,57.4658869 10,57.4658869 Z" id="Shape" fill="#42566C"></path>
                    <path d="M10,67.4463938 L1.25,67.4463938 C0.559644062,67.4463938 0,66.8878406 0,66.1988304 C0,65.5098203 0.559644062,64.9512671 1.25,64.9512671 L10,64.9512671 C10.6903559,64.9512671 11.25,65.5098203 11.25,66.1988304 C11.25,66.8878406 10.6903559,67.4463938 10,67.4463938 Z" id="Shape" fill="#42566C"></path>
                    <path d="M53.75,57.4658869 L45,57.4658869 C44.3096441,57.4658869 43.75,56.9073337 43.75,56.2183236 C43.75,55.5293134 44.3096441,54.9707602 45,54.9707602 L53.75,54.9707602 C54.4403559,54.9707602 55,55.5293134 55,56.2183236 C55,56.9073337 54.4403559,57.4658869 53.75,57.4658869 Z" id="Shape" fill="#42566C"></path>
                    <path d="M53.75,67.4463938 L45,67.4463938 C44.3096441,67.4463938 43.75,66.8878406 43.75,66.1988304 C43.75,65.5098203 44.3096441,64.9512671 45,64.9512671 L53.75,64.9512671 C54.4403559,64.9512671 55,65.5098203 55,66.1988304 C55,66.8878406 54.4403559,67.4463938 53.75,67.4463938 Z" id="Shape" fill="#42566C"></path>
                </g>
            </g>
        </g>
    </g>
</svg>