<?xml version="1.0" encoding="UTF-8"?>
<svg width="115px" height="115px" viewBox="0 0 115 115" version="1.1" xmlns="http://www.w3.org/2000/svg" xmlns:xlink="http://www.w3.org/1999/xlink">
    <!-- Generator: Sketch 48.2 (47327) - http://www.bohemiancoding.com/sketch -->
    <title>Group 21</title>
    <desc>Created with Sketch.</desc>
    <defs></defs>
    <g id="Large-Device-Desktops" stroke="none" stroke-width="1" fill="none" fill-rule="evenodd" transform="translate(-939.000000, -694.000000)">
        <g id="iot_solutions_manufacturing" transform="translate(218.000000, 695.000000)">
            <g id="Group-23" transform="translate(100.000000, 0.000000)">
                <g id="Group-11" transform="translate(29.000000, 0.000000)">
                    <g id="Group-18" transform="translate(593.000000, 0.000000)">
                        <g id="Group-21">
                            <circle id="Oval-3" stroke="#386BA1" stroke-width="2" fill="#386BA1" cx="56.5" cy="56.5" r="56.5"></circle>
                            <g id="hydro-power" transform="translate(22.000000, 30.000000)" fill="#FFFFFF" fill-rule="nonzero">
                                <g id="Layer_1">
                                    <g id="Group">
                                        <path d="M1.4899292,47.9924011 C2.5191899,47.9924011 3.97374319,48.0950943 4.59129961,48.4061321 C5.32382101,48.7748868 6.23547082,49.2338491 7.9144358,49.2338491 C9.59340078,49.2338491 10.5050506,48.7748868 11.237572,48.4061321 C11.8552607,48.0952264 12.3016265,47.870434 13.3311518,47.870434 C14.360677,47.870434 14.8070428,48.0950943 15.4248638,48.4061321 C16.1573852,48.7748868 17.069035,49.2338491 18.7481323,49.2338491 C20.4272296,49.2338491 21.3388794,48.7748868 22.0714008,48.4062642 C22.6892218,48.0952264 23.1355875,47.870434 24.1652451,47.870434 C25.1946381,47.870434 25.6410039,48.0950943 26.2588249,48.4061321 C26.9913463,48.7748868 27.9031284,49.2338491 29.5820934,49.2338491 C31.2610584,49.2338491 32.1725759,48.7748868 32.9050973,48.4061321 C33.522786,48.0952264 33.9691518,47.870434 34.9982802,47.870434 C36.0276732,47.870434 36.4740389,48.0950943 37.0919922,48.4061321 C37.8245136,48.7748868 38.7361634,49.2338491 40.4152607,49.2338491 C42.0944903,49.2338491 43.0061401,48.7748868 43.7386615,48.4061321 C44.3564825,48.0952264 44.8028482,47.870434 45.8323735,47.870434 C46.8618988,47.870434 47.3083969,48.0950943 47.9262179,48.4062642 C48.6587393,48.7748868 49.5705214,49.2338491 51.2496187,49.2338491 C52.928716,49.2338491 53.8404981,48.7748868 54.5730195,48.4062642 C55.1908405,48.0952264 55.6372062,47.870434 56.6668638,47.870434 C57.6965214,47.870434 58.1431518,48.0950943 58.7609728,48.4062642 C59.4936265,48.7748868 60.4054086,49.2338491 62.0846381,49.2338491 C63.764,49.2338491 64.6757821,48.7748868 65.4084358,48.4062642 C66.0262568,48.0952264 66.4727549,47.870434 67.5025447,47.870434 C68.2566304,47.870434 68.8682335,48.2599811 68.8682335,47.5070189 C68.8682335,46.7540566 68.3342045,46.0099182 67.5799866,46.0099182 C67.5138387,46.0099182 67.0522512,46.0084654 66.9886169,46.0099182 C66.9249827,46.011371 66.9886169,1.50097656 66.9886169,1.50097656 C66.9886169,0.748146374 66.1626537,0.00244140625 65.4084358,0.00244140625 L60.59375,0.00244140625 C59.8396644,0.00244140625 58.9965515,0.705811321 58.9965515,1.45877358 L58.9965515,5.01083374 L10.9996948,5.01083374 L10.9996948,1.59927368 C10.9996948,0.846443493 10.7538161,0.00244140625 9.99946594,0.00244140625 L4.48866272,0.00244140625 C3.73444482,0.00244140625 3.00765991,0.705811321 3.00765991,1.45877358 L3.00765991,46.0099182 C2.81106847,45.9949937 2.22880786,46.0099182 2.00668335,46.0099182 C1.25246545,46.0099182 1.00683594,46.8468707 1.00683594,47.5997009 C1.00683594,48.3525311 0.735579005,47.9924011 1.4899292,47.9924011 Z M20.2469339,40.7040755 C19.9349805,40.129283 19.7291284,39.749566 19.7291284,38.8369245 C19.7291284,37.9244151 19.9352451,37.5446981 20.2469339,36.9701698 C20.6246381,36.2742642 21.0946848,35.4081132 21.0946848,33.8043208 C21.0946848,32.2005283 20.6246381,31.3345094 20.2469339,30.6384717 C19.9349805,30.0638113 19.7291284,29.6840943 19.7291284,28.7715849 C19.7291284,27.8590755 20.9352451,27.4792264 21.2469339,26.9046981 C21.5004125,26.4378113 21.7954319,25.8940566 21.9621245,25.1023962 L25.9317899,25.1023962 C25.8581012,25.2660377 25.7710506,25.4263774 25.6736809,25.6057358 C25.2959767,26.3016415 24.82593,27.1677925 24.82593,28.7715849 C24.82593,30.3753774 25.2959767,31.2413962 25.6736809,31.937434 C25.9856342,32.5120943 26.1914864,32.8918113 26.1914864,33.8043208 C26.1914864,34.7168302 25.9853696,35.0966792 25.6736809,35.6712075 C25.2959767,36.3671132 24.82593,37.2332642 24.82593,38.8369245 C24.82593,40.440717 25.2959767,41.3068679 25.6735486,42.0030377 C25.9855019,42.5778302 26.1914864,42.9575472 26.1914864,43.8703208 C26.1914864,44.7830943 25.9853696,45.1626792 25.6736809,45.7374717 C25.5887471,45.8939811 25.4994475,46.0610566 25.4116031,46.2412075 C25.0475253,46.1808491 24.6375409,46.1434717 24.1651128,46.1434717 C22.9049961,46.1434717 21.0772218,46.4019434 20.4328093,46.6868302 C20.7628872,46.0441509 21.0946848,45.2180189 21.0946848,43.8703208 C21.0948171,42.2663962 20.6247704,41.4002453 20.2469339,40.7040755 Z M42.4386148,40.7040755 C42.1266615,40.129283 41.920677,39.749566 41.920677,38.8369245 C41.920677,37.9244151 42.1267938,37.5446981 42.4384825,36.9701698 C42.8161868,36.2742642 43.2862335,35.4081132 43.2862335,33.8043208 C43.2862335,32.2005283 42.8161868,31.3345094 42.4384825,30.6384717 C42.1266615,30.0638113 41.920677,29.6840943 41.920677,28.7715849 C41.920677,27.8590755 42.5352249,27.4792264 42.8470459,26.9046981 C43.1003922,26.4378113 43.868657,25.804905 44.0352173,25.0132446 L48.0058899,25.0132446 C47.9323335,25.1768861 47.9625992,25.4263774 47.8652296,25.6057358 C47.4875253,26.3016415 47.0174786,27.1677925 47.0174786,28.7715849 C47.0174786,30.3753774 47.4875253,31.2413962 47.8652296,31.937434 C48.1770506,32.5120943 48.383035,32.8918113 48.383035,33.8043208 C48.383035,34.7168302 48.1769183,35.0966792 47.8650973,35.6712075 C47.4875253,36.3671132 47.0174786,37.2332642 47.0174786,38.8369245 C47.0174786,40.440717 47.487393,41.3068679 47.8650973,42.0030377 C48.1770506,42.5778302 48.383035,42.9575472 48.383035,43.8703208 C48.383035,44.7830943 48.1769183,45.1626792 47.8650973,45.7374717 C47.7648171,45.9222453 47.6581868,46.1196981 47.5555253,46.3393396 C47.0832296,46.2220566 46.5233541,46.1436038 45.8319767,46.1436038 C44.9541946,46.1436038 43.2872918,46.2696038 42.7448794,46.4419623 C43.0305058,45.8340189 43.2862335,45.0530566 43.2862335,43.8704528 C43.2863658,42.2663962 42.8164514,41.4002453 42.4386148,40.7040755 Z M49.9811401,23.0216064 L42.920677,23.0216064 C42.1665914,23.0216064 42.0215454,23.287382 42.0215454,24.0403442 C42.0215454,24.9528537 41.7703069,25.1333574 41.4586182,25.7078857 C41.4154898,25.7873952 40.9585953,25.9343116 40.9138794,26.019104 L38.989624,26.019104 L38.989624,20.0241089 L53.0458374,20.0241089 L52.9475098,26.019104 L49.9811401,25.9312134 C50.179716,25.3939304 49.9811401,24.8218402 49.9811401,23.9161987 C49.9811401,23.1631044 49.9811401,23.0216064 49.9811401,23.0216064 Z M28.0123901,23.0007782 L20.8693848,23.0007782 C20.1151669,23.0007782 19.6068115,22.813444 19.6068115,23.5664062 C19.6068115,24.4789157 19.5550359,25.0312075 19.2433472,25.6057358 C19.2002188,25.6852453 18.9542619,25.9343116 18.9095459,26.019104 L17.0100098,26.019104 L17.0100098,20.0241089 L30.0153619,19.9824524 L30.0153619,26.019104 L28.0123901,26.019104 L28.0123901,23.9161987 C28.0125224,23.1631044 28.0123901,23.0007782 28.0123901,23.0007782 Z M61.0027161,1.99707031 L65.0022888,1.99707031 L65.0022888,33.4443359 L65.0022888,46.0099182 C64.8617908,46.0762201 64.3050895,46.9075283 64.1784825,46.9711887 C63.5606615,47.2822264 62.925847,47.4751887 61.8960571,47.4751887 C61.8128431,47.4751887 61.0786538,46.9740943 61.0027161,46.9711887 L61.0027161,1.99707031 Z M58.9965515,7.01150513 L58.9965515,10.0022278 L48.1807251,10.0022278 C47.4266395,10.0022278 47.0174786,10.2565897 47.0174786,11.009552 C47.0174786,11.7623822 47.251672,11.9938354 48.0058899,11.9938354 L58.9965515,11.9938354 C58.9965515,11.9938354 58.9965515,13.2667338 58.9965515,13.4060669 L58.9965515,46.2412075 C58.3940768,46.0065094 57.7499689,46.1436038 56.6663346,46.1436038 C54.9872374,46.1436038 54.0754553,46.602566 53.3429339,46.9711887 C52.7251128,47.2822264 52.2787471,47.5070189 51.2490895,47.5070189 C50.7573463,47.5070189 49.3990895,47.4553774 49.0911051,47.3678113 C49.1448171,47.2613585 49.2034241,47.1529245 49.2663969,47.036566 C49.6441012,46.3405283 50.1140156,45.4743774 50.1140156,43.8704528 C50.1140156,42.2665283 49.6441012,41.4003774 49.2663969,40.7042075 C48.9544436,40.1294151 48.7484591,39.7496981 48.7484591,38.8370566 C48.7484591,37.9245472 48.9545759,37.5448302 49.2662646,36.9703019 C49.6439689,36.2743962 50.1140156,35.4082453 50.1140156,33.8044528 C50.1140156,32.2006604 49.6439689,31.3346415 49.2662646,30.6386038 C48.9544436,30.0639434 48.7484591,29.6842264 48.7484591,28.771717 C48.7484591,28.7043585 48.8880098,28.0590037 48.8902588,27.9971924 L53.5516968,27.9971924 C54.3057824,27.9971924 54.9982758,27.968566 54.9982758,27.2156038 L54.9982758,19.0355094 C54.9982758,18.2826792 54.4265812,18.0175781 53.6723633,18.0175781 L42.5985718,18.0175781 L38.5506848,18.0175781 C37.7965992,18.0175781 36.9989624,18.3456095 36.9989624,19.0985718 L36.9989624,27.259328 C36.9989624,28.0121582 37.7017452,27.9971924 38.4559631,27.9971924 L40.0117493,27.9971924 C40.010294,28.0608528 40.0117493,28.7726974 40.0117493,28.8388672 C40.0117493,30.4426596 40.6594786,31.2415283 41.0371829,31.937566 C41.3490039,32.5122264 41.5549883,32.8919434 41.5549883,33.8044528 C41.5549883,34.7169623 41.3488716,35.0968113 41.0370506,35.6713396 C40.6594786,36.3672453 40.1894319,37.2333962 40.1894319,38.8370566 C40.1894319,40.4408491 40.6593463,41.307 41.0370506,42.0031698 C41.3490039,42.5779623 41.5549883,42.9576792 41.5549883,43.8704528 C41.5549883,44.7832264 41.3488716,45.1628113 41.0370506,45.7376038 C40.7874086,46.1976226 40.4983424,46.7334528 40.3304591,47.5058302 C39.3617899,47.4935472 38.9217743,47.2735094 38.3214163,46.9713208 C37.5888949,46.6026981 36.6772451,46.1437358 34.9982802,46.1437358 C33.3193152,46.1437358 32.4077977,46.6026981 31.6752763,46.9714528 C31.0575875,47.2823585 30.6112218,47.5071509 29.5820934,47.5071509 C28.8403113,47.5071509 27.4013541,47.39 26.9827704,47.2085283 C27.012537,47.1526604 27.0432296,47.0957358 27.0753774,47.036566 C27.4530817,46.3405283 27.9231284,45.4743774 27.9231284,43.8704528 C27.9231284,42.2665283 27.4530817,41.4003774 27.0753774,40.7042075 C26.7634241,40.1294151 26.557572,39.7496981 26.557572,38.8370566 C26.557572,37.9245472 26.7636887,37.5448302 27.0753774,36.9703019 C27.4530817,36.2743962 27.9231284,35.4082453 27.9231284,33.8044528 C27.9231284,32.2006604 27.4530817,31.3346415 27.0753774,30.6386038 C26.7634241,30.0639434 26.557572,29.6842264 26.557572,28.771717 C26.557572,28.7043585 26.555323,28.0590037 26.557572,27.9971924 L30.7114258,27.9971924 C31.4656437,27.9971924 31.9924316,28.1961385 31.9924316,27.4431763 L31.9924316,19.0355094 C31.9924316,18.2826792 31.7476363,18.0175781 30.9932861,18.0175781 L16.3591362,18.0175781 C15.6049183,18.0175781 14.9934475,18.2825472 14.9934475,19.0355094 L14.9934475,27.2156038 C14.9934475,27.968434 15.604786,27.9971924 16.3591362,27.9971924 L17.9978833,27.9971924 C17.996428,28.0608528 17.9978833,28.7055472 17.9978833,28.771717 C17.9978833,30.3755094 18.46793,31.2415283 18.8456342,31.937566 C19.1575875,32.5122264 19.3634397,32.8919434 19.3634397,33.8044528 C19.3634397,34.7169623 19.157323,35.0968113 18.8456342,35.6713396 C18.46793,36.3672453 17.9978833,37.2333962 17.9978833,38.8370566 C17.9978833,40.4408491 18.46793,41.307 18.8455019,42.0031698 C19.1574553,42.5779623 19.3634397,42.9576792 19.3634397,43.8704528 C19.3634397,44.7832264 19.157323,45.1628113 18.8456342,45.7376038 C18.5994319,46.1914151 18.1666926,46.0689512 17.9978833,46.8249512 C17.366965,46.75297 16.8409572,47.0673097 16.3591362,46.8249512 C15.6266148,46.4561965 15.0103813,46.1437358 13.331284,46.1437358 C12.4938521,46.1437358 11.5282162,46.2817547 10.9996948,46.4419623 L10.9996948,11.9938354 L34.9981232,11.9938354 C35.7522088,11.9938354 35.9961548,11.7625143 35.9961548,11.009552 C35.9961548,10.2567218 35.7524981,10.0022278 34.9982802,10.0022278 L10.9996948,9.98059082 L10.9996948,7.01150513 L58.9965515,7.01150513 Z M9.00358582,1.99707031 L9.00358582,47.5233307 C8.80778815,47.5490854 8.17108949,47.5068868 7.9144358,47.5068868 C6.90488716,47.5068868 5.5945288,47.3026369 4.9949646,47.0009766 L4.9949646,1.99707031 L9.00358582,1.99707031 Z" id="Shape"></path>
                                        <path d="M67.5020156,50.8146604 C65.822786,50.8146604 64.9110039,51.2736226 64.1783502,51.6422453 C63.5605292,51.953283 63.1138988,52.1780755 62.0841089,52.1780755 C61.0543191,52.1780755 60.607821,51.9534151 59.99,51.6422453 C59.2573463,51.2736226 58.3455642,50.8146604 56.6663346,50.8146604 C54.9872374,50.8146604 54.0754553,51.2736226 53.3429339,51.6422453 C52.7251128,51.953283 52.2787471,52.1780755 51.2490895,52.1780755 C50.2194319,52.1780755 49.7730661,51.9534151 49.1552451,51.6422453 C48.4227237,51.2736226 47.5109416,50.8146604 45.8318444,50.8146604 C44.1527471,50.8146604 43.2410973,51.2736226 42.5085759,51.6422453 C41.8907549,51.953283 41.4443891,52.1780755 40.4147315,52.1780755 C39.3853385,52.1780755 38.9388405,51.9534151 38.3210195,51.6422453 C37.5884981,51.2736226 36.6768482,50.8146604 34.9978833,50.8146604 C33.3189183,50.8146604 32.4074008,51.2736226 31.6748794,51.6423774 C31.0571907,51.953283 30.6108249,52.1780755 29.5816965,52.1780755 C28.5523035,52.1780755 28.1058054,51.9534151 27.4879844,51.6422453 C26.755463,51.2736226 25.8438132,50.8146604 24.1648482,50.8146604 C22.485751,50.8146604 21.5741012,51.2736226 20.8415798,51.6422453 C20.2237588,51.953283 19.777393,52.1780755 18.7477354,52.1780755 C17.7183424,52.1780755 17.2718444,51.9534151 16.6540233,51.6423774 C15.9215019,51.2736226 15.0098521,50.8146604 13.3307549,50.8146604 C11.6517899,50.8146604 10.7401401,51.2736226 10.0076187,51.6423774 C9.38992996,51.953283 8.9435642,52.1780755 7.91403891,52.1780755 C6.88477821,52.1780755 6.43828016,51.9534151 5.82072374,51.6423774 C5.08820233,51.2736226 4.17655253,50.8146604 2.49758755,50.8146604 C1.74336965,50.8146604 1.13189883,51.4251132 1.13189883,52.1780755 C1.13189883,52.9310377 1.74323735,52.5414906 2.49758755,52.5414906 C3.52684825,52.5414906 3.9733463,52.7661509 4.59090272,53.0771887 C5.32342412,53.4459434 6.23507393,53.9049057 7.91403891,53.9049057 C9.59300389,53.9049057 10.5046537,53.4459434 11.2371751,53.0771887 C11.8548638,52.766283 12.3012296,52.5414906 13.3307549,52.5414906 C14.3602802,52.5414906 14.8066459,52.7661509 15.4244669,53.0771887 C16.1569883,53.4459434 17.0686381,53.9049057 18.7477354,53.9049057 C20.4268327,53.9049057 21.3384825,53.4459434 22.0710039,53.0773208 C22.6888249,52.766283 23.1351907,52.5414906 24.1648482,52.5414906 C25.1942412,52.5414906 25.640607,52.7661509 26.258428,53.0771887 C26.9909494,53.4459434 27.9027315,53.9049057 29.5816965,53.9049057 C31.2606615,53.9049057 32.172179,53.4459434 32.9047004,53.0771887 C33.5223891,52.766283 33.9687549,52.5414906 34.9978833,52.5414906 C36.0272763,52.5414906 36.473642,52.7661509 37.0915953,53.0771887 C37.8241167,53.4459434 38.7357665,53.9049057 40.4148638,53.9049057 C42.0940934,53.9049057 43.0057432,53.4459434 43.7382646,53.0771887 C44.3560856,52.766283 44.8024514,52.5414906 45.8319767,52.5414906 C46.8615019,52.5414906 47.308,52.7661509 47.925821,53.0773208 C48.6583424,53.4459434 49.5701245,53.9049057 51.2492218,53.9049057 C52.9283191,53.9049057 53.8401012,53.4459434 54.5726226,53.0773208 C55.1904436,52.766283 55.6368093,52.5414906 56.6664669,52.5414906 C57.6961245,52.5414906 58.1427549,52.7661509 58.7605759,53.0773208 C59.4932296,53.4459434 60.4050117,53.9049057 62.0842412,53.9049057 C63.7636031,53.9049057 64.6753852,53.4459434 65.4080389,53.0773208 C66.0258599,52.766283 66.472358,52.5414906 67.5021479,52.5414906 C68.2562335,52.5414906 68.8678366,52.9310377 68.8678366,52.1780755 C68.8678366,51.4251132 68.2562335,50.8146604 67.5020156,50.8146604 Z" id="Shape"></path>
                                        <path d="M41.3563538,12.9851379 L41.7826693,12.9851379 C42.5367549,12.9851379 43.0018616,12.2218679 43.0018616,11.4689057 C43.0018616,10.7160755 42.5368872,10.0032654 41.7826693,10.0032654 L41.3068848,10.0032654 C40.5527992,10.0032654 40.0019836,10.7874125 40.0019836,11.5403748 C40.0021159,12.2932049 40.6022682,12.9851379 41.3563538,12.9851379 Z" id="Shape"></path>
                                    </g>
                                </g>
                            </g>
                        </g>
                    </g>
                </g>
            </g>
        </g>
    </g>
</svg>