<?xml version="1.0" encoding="UTF-8" standalone="no"?>
<svg width="102px" height="102px" viewBox="0 0 102 102" version="1.1" xmlns="http://www.w3.org/2000/svg" xmlns:xlink="http://www.w3.org/1999/xlink">
    <!-- Generator: Sketch 42 (36781) - http://www.bohemiancoding.com/sketch -->
    <title>healthcare_icon</title>
    <desc>Created with Sketch.</desc>
    <defs></defs>
    <g id="Page-1" stroke="none" stroke-width="1" fill="none" fill-rule="evenodd">
        <g id="Large-Device-Desktops" transform="translate(-598.000000, -646.000000)">
            <g id="Group-23" transform="translate(79.000000, 636.000000)">
                <g id="iot_solutions_retail">
                    <g id="Group-11" transform="translate(138.000000, 0.000000)">
                        <g id="Group-17" transform="translate(382.000000, 11.000000)">
                            <g id="healthcare_icon">
                                <circle id="Oval-3" stroke="#3687A4" stroke-width="2" cx="50" cy="50" r="50"></circle>
                                <g id="stethoscope-(4)" transform="translate(21.000000, 12.000000)" fill="#3687A4">
                                    <g id="Capa_1">
                                        <g id="Group">
                                            <path d="M52.29,39.2666667 C47.15928,39.2666667 42.92064,43.1426667 42.29694,48.1333333 L28.35,48.1333333 L28.35,40.375 C29.6604,40.0469333 30.79314,39.2122 31.50756,38.0025333 L47.78676,10.3246 C48.73932,8.7096 48.7557,6.77033333 47.83086,5.13886667 C46.90602,3.5074 45.23904,2.53333333 43.37046,2.53333333 L40.50774,2.53333333 C39.7971,1.0412 38.29266,0 36.54,0 C34.52904,0 29.61,1.5542 29.61,4.43333333 C29.61,7.31246667 34.52904,8.86666667 36.54,8.86666667 C38.75508,8.86666667 40.57704,7.20986667 40.88574,5.06666667 L43.3692,5.06666667 C44.3205,5.06666667 45.16974,5.5632 45.63972,6.39413333 C46.11096,7.2238 46.10214,8.2118 45.61704,9.03513333 L29.33784,36.7130667 C28.86282,37.5186667 28.0224,38 27.09,38 C26.1576,38 25.31718,37.5186667 24.83334,36.7004 L8.09928,9.03386667 C7.61418,8.2118 7.60536,7.2238 8.0766,6.39413333 C8.54784,5.5632 9.39708,5.06666667 10.34712,5.06666667 L13.293,5.06666667 C13.60296,7.20986667 15.42492,8.86666667 17.64,8.86666667 C19.65096,8.86666667 24.57,7.31246667 24.57,4.43333333 C24.57,1.5542 19.65096,0 17.64,0 C15.88734,0 14.3829,1.0412 13.67226,2.53333333 L10.34712,2.53333333 C8.47854,2.53333333 6.81156,3.50866667 5.88672,5.14013333 C4.96188,6.7716 4.97826,8.7096 5.93838,10.3372667 L22.6737,38.0038 C23.38686,39.2134667 24.5196,40.0469333 25.83,40.375 L25.83,48.1333333 L14.49,48.1333333 C6.8481,48.1333333 0.63,54.3843333 0.63,62.0666667 C0.63,69.749 6.8481,76 14.49,76 C22.1319,76 28.35,69.749 28.35,62.0666667 L28.35,50.6666667 L42.29694,50.6666667 C42.92064,55.6573333 47.15928,59.5333333 52.29,59.5333333 C57.84786,59.5333333 62.37,54.9872667 62.37,49.4 C62.37,43.8127333 57.84786,39.2666667 52.29,39.2666667 Z M36.54,6.33333333 C34.98516,6.33333333 32.30892,5.0806 32.13252,4.43333333 C32.30892,3.78606667 34.98516,2.53333333 36.54,2.53333333 C37.58202,2.53333333 38.43,3.3858 38.43,4.43333333 C38.43,5.48086667 37.58202,6.33333333 36.54,6.33333333 Z M17.64,2.53333333 C19.19484,2.53333333 21.87108,3.78606667 22.04748,4.43333333 C21.87108,5.0806 19.19484,6.33333333 17.64,6.33333333 C16.59798,6.33333333 15.75,5.48086667 15.75,4.43333333 C15.75,3.3858 16.59798,2.53333333 17.64,2.53333333 Z M25.83,62.0666667 C25.83,68.3531333 20.74212,73.4666667 14.49,73.4666667 C8.23788,73.4666667 3.15,68.3531333 3.15,62.0666667 C3.15,55.7802 8.23788,50.6666667 14.49,50.6666667 L25.83,50.6666667 L25.83,62.0666667 Z M52.29,57 C48.12066,57 44.73,53.5914 44.73,49.4 C44.73,45.2086 48.12066,41.8 52.29,41.8 C56.45934,41.8 59.85,45.2086 59.85,49.4 C59.85,53.5914 56.45934,57 52.29,57 Z" id="Shape"></path>
                                            <path d="M52.29,44.3333333 C49.51044,44.3333333 47.25,46.6057333 47.25,49.4 C47.25,52.1942667 49.51044,54.4666667 52.29,54.4666667 C55.06956,54.4666667 57.33,52.1942667 57.33,49.4 C57.33,46.6057333 55.06956,44.3333333 52.29,44.3333333 Z M52.29,51.9333333 C50.90022,51.9333333 49.77,50.7971333 49.77,49.4 C49.77,48.0028667 50.90022,46.8666667 52.29,46.8666667 C53.67978,46.8666667 54.81,48.0028667 54.81,49.4 C54.81,50.7971333 53.67978,51.9333333 52.29,51.9333333 Z" id="Shape"></path>
                                        </g>
                                    </g>
                                </g>
                            </g>
                        </g>
                    </g>
                </g>
            </g>
        </g>
    </g>
</svg>