<?xml version="1.0" encoding="UTF-8"?>
<svg width="115px" height="115px" viewBox="0 0 115 115" version="1.1" xmlns="http://www.w3.org/2000/svg" xmlns:xlink="http://www.w3.org/1999/xlink">
    <!-- Generator: Sketch 49 (51002) - http://www.bohemiancoding.com/sketch -->
    <title>healthcareActive1</title>
    <desc>Created with Sketch.</desc>
    <defs></defs>
    <g id="Page-1" stroke="none" stroke-width="1" fill="none" fill-rule="evenodd">
        <g id="healthcareActive1" transform="translate(1.000000, 1.000000)" fill-rule="nonzero">
            <circle id="Oval-3" stroke="#3687A4" stroke-width="2" fill="#3687A4" cx="56.3683525" cy="56.3683525" r="56.3683525"></circle>
            <g id="stethoscope-(4)" transform="translate(23.806355, 13.660052)" fill="#FFFFFF">
                <g id="Capa_1">
                    <g id="Group">
                        <path d="M58.9500231,44.2679462 C53.1658184,44.2679462 48.3873154,48.6376209 47.6841765,54.263934 L31.9608559,54.263934 L31.9608559,45.5174447 C33.4381577,45.1475931 34.7151714,44.2065423 35.5205849,42.8428039 L53.8732187,11.6396139 C54.9471034,9.81891607 54.9655697,7.63265072 53.9229356,5.79338896 C52.8803014,3.95412719 51.0010031,2.85599652 48.8944276,2.85599652 L45.6670913,2.85599652 C44.8659393,1.17381457 43.1698831,0 41.193992,0 C38.9269019,0 33.3813383,1.75215387 33.3813383,4.99799393 C33.3813383,8.24383398 38.9269019,9.99598783 41.193992,9.99598783 C43.6912002,9.99598783 45.7452179,8.12816612 46.0932362,5.71199306 L48.8930071,5.71199306 C49.9654714,5.71199306 50.9228766,6.27176837 51.4527165,7.20853523 C51.983977,8.1438741 51.9740336,9.25771275 51.4271478,10.1859116 L33.0745142,41.3891017 C32.5389922,42.2973085 31.5915304,42.8399479 30.5403734,42.8399479 C29.4892164,42.8399479 28.5417545,42.2973085 27.9962892,41.3748217 L9.13086141,10.1844836 C8.58397564,9.25771275 8.57403227,8.1438741 9.10529272,7.20853523 C9.63655317,6.27176837 10.5939584,5.71199306 11.6650022,5.71199306 L14.9860902,5.71199306 C15.3355289,8.12816612 17.3895466,9.99598783 19.8867548,9.99598783 C22.1538448,9.99598783 27.6994084,8.24383398 27.6994084,4.99799393 C27.6994084,1.75215387 22.1538448,0 19.8867548,0 C17.9108637,0 16.2148075,1.17381457 15.4136555,2.85599652 L11.6650022,2.85599652 C9.55842663,2.85599652 7.6791283,3.95555519 6.63649416,5.79481695 C5.59386002,7.63407872 5.6123263,9.81891607 6.69473395,11.6538938 L25.5615823,42.8442319 C26.3655754,44.2079702 27.6425891,45.1475931 29.1198909,45.5174447 L29.1198909,54.263934 L16.3355485,54.263934 C7.72032229,54.263934 0.710241242,61.3111054 0.710241242,69.9719149 C0.710241242,78.6327244 7.72032229,85.6798958 16.3355485,85.6798958 C24.9507748,85.6798958 31.9608559,78.6327244 31.9608559,69.9719149 L31.9608559,57.1199306 L47.6841765,57.1199306 C48.3873154,62.7462437 53.1658184,67.1159184 58.9500231,67.1159184 C65.2157713,67.1159184 70.3138829,61.9908327 70.3138829,55.6919323 C70.3138829,49.3930319 65.2157713,44.2679462 58.9500231,44.2679462 Z M41.193992,7.13999132 C39.4411167,7.13999132 36.4240118,5.72770104 36.2251443,4.99799393 C36.4240118,4.26828681 39.4411167,2.85599652 41.193992,2.85599652 C42.3687311,2.85599652 43.3247157,3.81703936 43.3247157,4.99799393 C43.3247157,6.17894849 42.3687311,7.13999132 41.193992,7.13999132 Z M19.8867548,2.85599652 C21.6396301,2.85599652 24.6567349,4.26828681 24.8556025,4.99799393 C24.6567349,5.72770104 21.6396301,7.13999132 19.8867548,7.13999132 C18.7120157,7.13999132 17.7560311,6.17894849 17.7560311,4.99799393 C17.7560311,3.81703936 18.7120157,2.85599652 19.8867548,2.85599652 Z M29.119891,69.9719149 C29.119891,77.0590703 23.3839826,82.8238993 16.3355485,82.8238993 C9.28711448,82.8238993 3.55120621,77.0590703 3.55120621,69.9719149 C3.55120621,62.8847595 9.28711448,57.1199306 16.3355485,57.1199306 L29.119891,57.1199306 L29.119891,69.9719149 Z M58.9500231,64.2599218 C54.2496465,64.2599218 50.4271281,60.4171785 50.4271281,55.6919322 C50.4271281,50.9666861 54.2496465,47.1239427 58.9500231,47.1239427 C63.6503996,47.1239427 67.4729179,50.9666861 67.4729179,55.6919322 C67.4729179,60.4171785 63.6503996,64.2599218 58.9500231,64.2599218 Z" id="Shape"></path>
                        <path d="M58.9500231,49.9799393 C55.8164387,49.9799393 53.2680931,52.5417681 53.2680931,55.6919323 C53.2680931,58.8420965 55.8164387,61.4039253 58.9500231,61.4039253 C62.0836074,61.4039253 64.631953,58.8420965 64.631953,55.6919323 C64.631953,52.5417681 62.0836074,49.9799393 58.9500231,49.9799393 Z M58.9500231,58.5479288 C57.3832309,58.5479288 56.1090581,57.2670144 56.1090581,55.6919323 C56.1090581,54.1168502 57.3832309,52.8359357 58.9500231,52.8359357 C60.5168153,52.8359357 61.790988,54.1168502 61.790988,55.6919323 C61.790988,57.2670144 60.5168153,58.5479288 58.9500231,58.5479288 Z" id="Shape"></path>
                    </g>
                </g>
            </g>
        </g>
    </g>
</svg>