<?xml version="1.0" encoding="UTF-8" standalone="no"?>
<svg width="102px" height="102px" viewBox="0 0 102 102" version="1.1" xmlns="http://www.w3.org/2000/svg" xmlns:xlink="http://www.w3.org/1999/xlink">
    <!-- Generator: Sketch 42 (36781) - http://www.bohemiancoding.com/sketch -->
    <title>manufacturing_icon</title>
    <desc>Created with Sketch.</desc>
    <defs>
        <circle id="path-1" cx="50" cy="50" r="50"></circle>
    </defs>
    <g id="Page-1" stroke="none" stroke-width="1" fill="none" fill-rule="evenodd">
        <g id="Large-Device-Desktops" transform="translate(-403.000000, -646.000000)">
            <g id="Group-23" transform="translate(79.000000, 636.000000)">
                <g id="iot_solutions_retail">
                    <g id="Group-11" transform="translate(138.000000, 0.000000)">
                        <g id="Group-16" transform="translate(178.000000, 11.000000)">
                            <g id="manufacturing_icon" transform="translate(9.000000, 0.000000)">
                                <g id="Group-8">
                                    <mask id="mask-2" fill="white">
                                        <use xlink:href="#path-1"></use>
                                    </mask>
                                    <use id="Oval-3" stroke="#13BAA0" stroke-width="2" xlink:href="#path-1"></use>
                                </g>
                                <g id="robotic-arm" transform="translate(15.000000, 14.000000)">
                                    <g id="Capa_1">
                                        <g id="Group">
                                            <path d="M31.819919,19.5724896 C31.9591093,19.5724896 32.0993198,19.5257195 32.2148988,19.429848 L45.3916275,8.50720614 C45.654996,8.28894563 45.6914332,7.89861191 45.4731012,7.6353297 C45.254915,7.3720475 44.8644534,7.33576788 44.6009393,7.55388269 L31.4242105,18.4765246 C31.1608421,18.6947851 31.1244049,19.0851188 31.3427368,19.348401 C31.465166,19.4962878 31.6419595,19.5724896 31.819919,19.5724896 Z" id="Shape" fill="#FFFFFF"></path>
                                            <path d="M26.8877733,23.6610131 C27.0271093,23.6610131 27.1671741,23.614243 27.282753,23.5183716 L30.5699757,20.7934663 C30.8333441,20.5752058 30.8697814,20.1848721 30.6514494,19.9215899 C30.4331174,19.6583077 30.0426559,19.622028 29.7792874,19.8401428 L26.4920648,22.5650481 C26.2286964,22.7833086 26.1922591,23.1736424 26.4105911,23.4369246 C26.5330202,23.5848114 26.7098138,23.6610131 26.8877733,23.6610131 Z" id="Shape" fill="#FFFFFF"></path>
                                            <path d="M71.9118219,22.4715079 C71.9118219,19.819599 69.7535709,17.6620545 67.1006478,17.6620545 C66.9088421,17.6620545 66.7198057,17.6747305 66.5336842,17.6965857 L57.3952227,8.73231461 C58.1745425,6.69715918 57.8658462,4.31042657 56.3781862,2.51684385 L56.2083887,2.31198786 C55.0199514,0.879307205 53.2693603,0.0575520043 51.405668,0.0575520043 C49.9575061,0.0575520043 48.5453441,0.56721507 47.4290526,1.49256388 L18.0346883,25.8589169 C17.4773441,25.7018509 16.9023644,25.6212781 16.3200972,25.6212781 C14.0988826,25.6212781 12.0774899,26.7478404 10.9128097,28.6348176 L10.7701215,28.8658998 C9.87988664,30.3084882 9.6048583,32.0114447 9.99590283,33.6612202 C10.3869474,35.3108501 11.3969879,36.7094367 12.8400486,37.5995258 L15.6184615,39.3131185 L8.19255061,39.3131185 C3.67520648,39.3129728 0,42.9869762 0,47.5031329 L0,50.5309512 C0,54.4967942 2.83452632,57.8125182 6.58450202,58.5618598 C6.58697976,58.566668 6.58785425,58.5719132 6.59047773,58.5767214 L10.0926802,65.2055466 L6.96694737,65.2055466 C6.18092308,65.2055466 5.54152227,65.8447381 5.54152227,66.6305051 L5.54152227,69.5314176 C5.54152227,70.3171845 6.18092308,70.9565217 6.96694737,70.9565217 L47.5733441,70.9565217 C48.3593684,70.9565217 48.998915,70.3171845 48.998915,69.5314176 L48.998915,66.6305051 C48.998915,65.8447381 48.3593684,65.2055466 47.5733441,65.2055466 L31.6456032,65.2055466 L28.219919,58.7214027 L45.3011174,58.7214027 C49.818753,58.7214027 53.4941053,55.0472536 53.4941053,50.5310969 L53.4941053,47.5032786 C53.4941053,42.9871219 49.818753,39.3131185 45.3011174,39.3131185 L40.3185425,39.3131185 L29.6752227,32.7489846 L53.3945587,13.086743 L62.3511255,21.7068676 C62.3111903,21.9560168 62.2896194,22.2112854 62.2896194,22.4716536 C62.2896194,23.7364864 62.7813765,24.8881093 63.5827045,25.7476011 C63.5821215,25.7591115 63.5793522,25.7698934 63.5793522,25.7815495 L63.5793522,29.562789 C63.5793522,29.9047499 63.8567126,30.1820195 64.1987854,30.1820195 L65.410251,30.1820195 L66.5626883,53.3456084 C66.5790121,53.6753304 66.8511255,53.9340959 67.1813927,53.9340959 C67.5115142,53.9340959 67.7836275,53.6753304 67.8000972,53.3456084 L68.9526802,30.1820195 L70.164,30.1820195 C70.5060729,30.1820195 70.7834332,29.9047499 70.7834332,29.562789 L70.7834332,25.5621234 C71.4868178,24.7256524 71.9118219,23.6474629 71.9118219,22.4715079 Z M48.2198866,2.44588733 C49.1143482,1.70441353 50.2457976,1.29601286 51.405668,1.29601286 C52.8994494,1.29601286 54.3022834,1.95443693 55.2546073,3.10241728 L55.4245506,3.30727328 C57.1828664,5.42708115 56.8881619,8.5818052 54.7676599,10.3396911 L28.220502,32.3458291 C28.2203563,32.3459748 28.2202105,32.3459748 28.2200648,32.3461205 L23.1765668,36.526873 C23.1205992,36.573206 23.0639028,36.6182277 23.0061862,36.661938 C22.7843563,36.8300773 22.5492632,36.9779641 22.3045506,37.1060355 C22.2946397,37.1112808 22.2850202,37.1169631 22.2749636,37.1220627 C21.5721619,37.4836932 20.7881781,37.6766017 19.9907854,37.6766017 C18.4971498,37.6766017 17.0943158,37.0181777 16.1421377,35.8704887 L15.9721943,35.665487 C14.2138785,33.5458248 14.5084372,30.3909551 16.6287935,28.6330692 L18.5681296,27.0256927 C18.5685668,27.0254013 18.569004,27.0248185 18.5694413,27.0245271 L48.2198866,2.44588733 Z M47.7601943,66.6303594 L47.7601943,69.5312719 C47.7601943,69.634137 47.6763887,69.7179152 47.5734899,69.7179152 L6.96694737,69.7179152 C6.86404858,69.7179152 6.78038866,69.634137 6.78038866,69.5312719 L6.78038866,66.6303594 C6.78038866,66.5274943 6.86404858,66.4438618 6.96694737,66.4438618 L47.5733441,66.4438618 C47.6763887,66.4438618 47.7601943,66.5274943 47.7601943,66.6303594 Z M28.4042915,61.7219748 L19.8822024,61.7219748 C19.5401296,61.7219748 19.2627692,61.9992444 19.2627692,62.3412052 C19.2627692,62.6831661 19.5401296,62.9604357 19.8822024,62.9604357 L29.0587045,62.9604357 L30.244664,65.2054009 L11.4936194,65.2054009 L8.06618623,58.7180516 C8.10859919,58.7186344 8.15042915,58.721257 8.19284211,58.721257 L26.8189798,58.721257 L28.4042915,61.7219748 Z M45.3011174,40.5514336 C49.1356275,40.5514336 52.2552389,43.6700237 52.2552389,47.5031329 L52.2552389,50.5309512 C52.2552389,54.3642061 49.1356275,57.4827962 45.3011174,57.4827962 L8.19284211,57.4827962 C4.76322267,57.4827962 1.907417,54.9872247 1.34234818,51.7175424 L8.68008097,51.7175424 C9.02215385,51.7175424 9.29951417,51.4402728 9.29951417,51.0983119 C9.29951417,50.756351 9.02215385,50.4790815 8.68008097,50.4790815 L1.2388664,50.4790815 L1.2388664,48.1223634 L6.54937652,48.1223634 C6.89144939,48.1223634 7.16880972,47.8450938 7.16880972,47.5031329 C7.16880972,47.161172 6.89144939,46.8839025 6.54937652,46.8839025 L1.26787045,46.8839025 C1.29716599,46.5540348 1.34992713,46.2310151 1.42382186,45.9158632 L19.0778138,45.9158632 C19.4198866,45.9158632 19.697247,45.6385937 19.697247,45.2966328 C19.697247,44.9546719 19.4198866,44.6774024 19.0778138,44.6774024 L1.84168421,44.6774024 C2.92707692,42.2488535 5.364583,40.5512879 8.19284211,40.5512879 L17.6267368,40.5512879 L39.5505911,54.0725121 C40.5540729,54.6913054 41.7047611,55.0185505 42.8784777,55.0185505 L42.8790607,55.0185505 C44.9613765,55.0185505 46.868502,54.0279275 48.058834,52.3485746 C48.1381215,52.236676 48.2143482,52.121572 48.2870769,52.003554 L48.4297652,51.7724717 C50.2676599,48.7941919 49.3390931,44.8762846 46.3599838,43.0388458 L42.3266721,40.5512879 L45.3011174,40.5512879 L45.3011174,40.5514336 Z M39.8170202,40.4589133 C39.817166,40.4589133 39.8173117,40.459059 39.8174575,40.4592047 L45.7095061,44.0929946 C48.1073684,45.5718625 48.8546235,48.7251295 47.375417,51.1223526 L47.2327287,51.3534349 C46.2949798,52.8729535 44.6671093,53.7802353 42.8784777,53.7802353 C41.9346073,53.7802353 41.008664,53.5168074 40.2010688,53.0186548 L13.4908178,36.5452313 C12.3293441,35.8289638 11.5163563,34.7031301 11.2016842,33.3755 C10.8870121,32.0477243 11.1082591,30.6771124 11.8247611,29.5160189 L11.9673036,29.2849367 C12.9046154,27.7662923 14.5319028,26.859739 16.3202429,26.859739 C16.4811498,26.859739 16.6413279,26.8673154 16.8003401,26.8823226 L15.8379595,27.6800371 C13.1917409,29.8738613 12.8241619,33.8108555 15.018413,36.4560621 L15.1883563,36.6610638 C16.3766478,38.0935988 18.1270931,38.915354 19.9907854,38.915354 C21.4389474,38.915354 22.8512551,38.4056909 23.9675466,37.4803421 L28.6686802,33.5832701 L39.8170202,40.4589133 Z M54.35417,12.291214 L55.5583482,11.2930146 C56.0559352,10.8805342 56.4727773,10.4064223 56.807417,9.89078547 L65.1516923,18.0759918 C64.1094413,18.539759 63.2607449,19.362097 62.7656356,20.3866683 L54.35417,12.291214 Z M67.1006478,18.9005153 C69.0704453,18.9005153 70.6729555,20.5025008 70.6729555,22.4715079 C70.6729555,24.4406607 69.0704453,26.0426462 67.1006478,26.0426462 C65.130996,26.0426462 63.5284858,24.4406607 63.5284858,22.4715079 C63.5284858,20.5025008 65.130996,18.9005153 67.1006478,18.9005153 Z M67.181247,40.8491013 L66.6505749,30.1820195 L67.711919,30.1820195 L67.181247,40.8491013 Z M68.3629798,28.9435586 L65.9995142,28.9435586 L64.8182186,28.9435586 L64.8182186,26.7042757 C65.4978462,27.07188 66.2752713,27.2809613 67.1006478,27.2809613 C67.9923401,27.2809613 68.8274818,27.0363289 69.5442753,26.6120468 L69.5442753,28.9434129 L68.3629798,28.9434129 L68.3629798,28.9435586 Z" id="Shape" fill="#13BAA0"></path>
                                            <path d="M42.1121296,51.6974356 C44.1871579,51.6974356 45.8752227,50.0097777 45.8752227,47.9355743 C45.8752227,45.8612252 44.1871579,44.1737131 42.1121296,44.1737131 C40.0371012,44.1737131 38.3490364,45.8613709 38.3490364,47.9355743 C38.3488907,50.0097777 40.0371012,51.6974356 42.1121296,51.6974356 Z M42.1121296,45.4120282 C43.5040324,45.4120282 44.6363563,46.5441271 44.6363563,47.9354286 C44.6363563,49.3267301 43.5038866,50.458829 42.1121296,50.458829 C40.7202267,50.458829 39.5879028,49.3267301 39.5879028,47.9354286 C39.5879028,46.5441271 40.7202267,45.4120282 42.1121296,45.4120282 Z" id="Shape" fill="#13BAA0"></path>
                                            <path d="M16.9877733,31.7013924 C16.9877733,33.7757415 18.6758381,35.4632536 20.7508664,35.4632536 C22.8258947,35.4632536 24.5139595,33.7755958 24.5139595,31.7013924 C24.5139595,29.627189 22.8258947,27.9395311 20.7508664,27.9395311 C18.6758381,27.9393854 16.9877733,29.6270433 16.9877733,31.7013924 Z M23.2750931,31.7013924 C23.2750931,33.0928396 22.1426235,34.2247928 20.7508664,34.2247928 C19.3591093,34.2247928 18.2266397,33.0926939 18.2266397,31.7013924 C18.2266397,30.3100909 19.3591093,29.177992 20.7508664,29.177992 C22.1426235,29.177992 23.2750931,30.3099452 23.2750931,31.7013924 Z" id="Shape" fill="#13BAA0"></path>
                                            <path d="M50.9774575,10.3229355 C53.0524858,10.3229355 54.7405506,8.63527756 54.7405506,6.56107419 C54.7405506,4.48672511 53.0524858,2.79921293 50.9774575,2.79921293 C48.9024291,2.79921293 47.2143644,4.48687082 47.2143644,6.56107419 C47.2142186,8.63527756 48.9024291,10.3229355 50.9774575,10.3229355 Z M50.9774575,4.03752808 C52.3693603,4.03752808 53.5016842,5.1694813 53.5016842,6.56092849 C53.5016842,7.95237568 52.3692146,9.0843289 50.9774575,9.0843289 C49.5855547,9.0843289 48.4532308,7.95222998 48.4532308,6.56092849 C48.453085,5.169627 49.5855547,4.03752808 50.9774575,4.03752808 Z" id="Shape" fill="#13BAA0"></path>
                                        </g>
                                    </g>
                                </g>
                            </g>
                        </g>
                    </g>
                </g>
            </g>
        </g>
    </g>
</svg>