<?xml version="1.0" encoding="UTF-8" standalone="no"?>
<svg width="115px" height="115px" viewBox="0 0 115 115" version="1.1" xmlns="http://www.w3.org/2000/svg" xmlns:xlink="http://www.w3.org/1999/xlink">
    <!-- Generator: Sketch 42 (36781) - http://www.bohemiancoding.com/sketch -->
    <title>manufacturing_icon_selected</title>
    <desc>Created with Sketch.</desc>
    <defs>
        <circle id="path-1" cx="56.5" cy="56.5" r="56.5"></circle>
    </defs>
    <g id="Page-1" stroke="none" stroke-width="1" fill="none" fill-rule="evenodd">
        <g id="Large-Device-Desktops" transform="translate(-398.000000, -634.000000)">
            <g id="iot_solutions_manufacturing" transform="translate(80.000000, 635.000000)">
                <g id="Group-11" transform="translate(156.000000, 0.000000)">
                    <g id="Group-16" transform="translate(151.000000, 0.000000)">
                        <g id="manufacturing_icon_selected" transform="translate(12.000000, 0.000000)">
                            <g id="Group-8">
                                <mask id="mask-2" fill="white">
                                    <use xlink:href="#path-1"></use>
                                </mask>
                                <use id="Oval-3" stroke="#13BAA0" stroke-width="2" fill="#0FB49C" xlink:href="#path-1"></use>
                            </g>
                            <g id="Capa_1" transform="translate(16.000000, 14.000000)" fill="#FFFFFF">
                                <g id="Group">
                                    <path d="M79.1785221,24.7422571 C79.1785221,21.8223724 76.8021795,19.4468077 73.8811782,19.4468077 C73.6699905,19.4468077 73.4618519,19.4607646 73.2569229,19.4848283 L63.1950184,9.6147163 C64.0530887,7.37390811 63.7131985,4.74599581 62.0752103,2.7711713 L61.8882547,2.54561457 C60.5797257,0.968161328 58.6522371,0.0633676429 56.6002184,0.0633676429 C55.0057195,0.0633676429 53.4508584,0.624532237 52.2217654,1.64338768 L19.8570962,28.4719643 C19.2434324,28.2990268 18.6103508,28.2103121 17.9692454,28.2103121 C15.5235768,28.2103121 13.297922,29.4507136 12.0155508,31.5283702 L11.8584438,31.7828033 C10.8782507,33.3711654 10.5754307,35.2462059 11.0059903,37.0626916 C11.4365499,38.8790168 12.5486552,40.4189307 14.1375374,41.3989634 L17.1967094,43.2857149 L9.02040906,43.2857149 C4.04658664,43.2855545 0,47.3308165 0,52.3033316 L0,55.6371113 C0,60.0037034 3.12095562,63.6544817 7.24986693,64.4795445 C7.25259504,64.4848385 7.2535579,64.4906138 7.25644649,64.4959078 L11.112547,71.7945768 L7.67095843,71.7945768 C6.80550627,71.7945768 6.10149392,72.4983587 6.10149392,73.3635276 L6.10149392,76.5575776 C6.10149392,77.4227465 6.80550627,78.1266888 7.67095843,78.1266888 L52.3806376,78.1266888 C53.2460898,78.1266888 53.9502626,77.4227465 53.9502626,76.5575776 L53.9502626,73.3635276 C53.9502626,72.4983587 53.2460898,71.7945768 52.3806376,71.7945768 L34.8433961,71.7945768 L31.071546,64.6552092 L49.8788021,64.6552092 C54.8529454,64.6552092 58.8996925,60.6097868 58.8996925,55.6372717 L58.8996925,52.303492 C58.8996925,47.3309769 54.8529454,43.2857149 49.8788021,43.2857149 L44.3927372,43.2857149 L32.6739083,36.0582743 L58.7900868,14.4091603 L68.651716,23.9003498 C68.6077453,24.1746755 68.5839947,24.4557391 68.5839947,24.7424175 C68.5839947,26.1350619 69.1254439,27.4030564 70.0077462,28.3494 C70.0071043,28.3620736 70.0040552,28.373945 70.0040552,28.3867789 L70.0040552,32.5501133 C70.0040552,32.9266294 70.3094428,33.231917 70.6860822,33.231917 L72.0199666,33.231917 L73.2888578,58.7361901 C73.3068312,59.0992305 73.6064417,59.3841443 73.9700824,59.3841443 C74.3335627,59.3841443 74.6331732,59.0992305 74.6513071,58.7361901 L75.9203587,33.231917 L77.2540826,33.231917 C77.630722,33.231917 77.9361096,32.9266294 77.9361096,32.5501133 L77.9361096,28.1451797 C78.7105714,27.2241832 79.1785221,26.0370425 79.1785221,24.7422571 Z M53.0925133,2.69304461 C54.0773604,1.87664478 55.3231429,1.42697515 56.6002184,1.42697515 C58.2449466,1.42697515 59.7895372,2.15193307 60.8380936,3.41591701 L61.0252097,3.64147374 C62.9612035,5.97548851 62.6367192,9.44899789 60.3019401,11.3845184 L31.0721879,35.61438 C31.0720275,35.6145404 31.071867,35.6145404 31.0717065,35.6147008 L25.5185623,40.2179189 C25.4569392,40.2689339 25.3945136,40.318505 25.3309648,40.3666323 C25.0867189,40.5517621 24.8278695,40.7145929 24.5584288,40.8556059 C24.5475163,40.8613812 24.5369248,40.8676378 24.5258519,40.8732526 C23.7520321,41.271426 22.8888266,41.4838279 22.0108573,41.4838279 C20.3662895,41.4838279 18.8216989,40.75887 17.7733031,39.4952069 L17.5861869,39.2694898 C15.6501931,36.9356354 15.974517,33.4619656 18.3091356,31.5264451 L20.4444418,29.756643 C20.4449232,29.7563221 20.4454047,29.7556804 20.4458861,29.7553596 L53.0925133,2.69304461 Z M52.5863691,73.3633672 L52.5863691,76.5574172 C52.5863691,76.6706768 52.4940948,76.7629209 52.3807981,76.7629209 L7.67095843,76.7629209 C7.55766171,76.7629209 7.46554795,76.6706768 7.46554795,76.5574172 L7.46554795,73.3633672 C7.46554795,73.2501075 7.55766171,73.1580239 7.67095843,73.1580239 L52.3806376,73.1580239 C52.4940948,73.1580239 52.5863691,73.2501075 52.5863691,73.3633672 Z M31.2745494,67.9589895 L21.8913019,67.9589895 C21.5146625,67.9589895 21.2092749,68.2642772 21.2092749,68.6407933 C21.2092749,69.0173094 21.5146625,69.3225971 21.8913019,69.3225971 L31.9950909,69.3225971 L33.3008918,71.7944164 L12.6550514,71.7944164 L8.88127555,64.6515194 C8.92797434,64.6521611 8.97403123,64.6550488 9.02073002,64.6550488 L29.5290416,64.6550488 L31.2745494,67.9589895 Z M49.8788021,44.649162 C54.10079,44.649162 57.5356385,48.0828861 57.5356385,52.3033316 L57.5356385,55.6371113 C57.5356385,59.8577172 54.10079,63.2914413 49.8788021,63.2914413 L9.02073002,63.2914413 C5.24454703,63.2914413 2.10016178,60.5436919 1.47799266,56.9436077 L9.55720444,56.9436077 C9.93384383,56.9436077 10.2392315,56.63832 10.2392315,56.2618039 C10.2392315,55.8852879 9.93384383,55.5800002 9.55720444,55.5800002 L1.36405403,55.5800002 L1.36405403,52.9851353 L7.21119199,52.9851353 C7.58783138,52.9851353 7.893219,52.6798477 7.893219,52.3033316 C7.893219,51.9268155 7.58783138,51.6215278 7.21119199,51.6215278 L1.39598894,51.6215278 C1.42824481,51.258327 1.48633746,50.902666 1.56769927,50.555668 L21.0056297,50.555668 C21.3822691,50.555668 21.6876567,50.2503804 21.6876567,49.8738643 C21.6876567,49.4973482 21.3822691,49.1920605 21.0056297,49.1920605 L2.02778667,49.1920605 C3.22285848,46.5181064 5.9066749,44.6490016 9.02073002,44.6490016 L19.4079212,44.6490016 L43.5471842,59.5365475 C44.652068,60.21787 45.9190334,60.5781832 47.2113543,60.5781832 L47.2119962,60.5781832 C49.5047303,60.5781832 51.6045711,59.4874576 52.9151863,57.6384058 C53.0024858,57.5151999 53.0864152,57.3884646 53.1664932,57.2585208 L53.3236001,57.0040877 C55.3472144,53.7248523 54.3248158,49.4110398 51.0446671,47.3879276 L46.6037886,44.6490016 L49.8788021,44.6490016 L49.8788021,44.649162 Z M43.8405361,44.5472925 C43.8406965,44.5472925 43.840857,44.5474529 43.8410175,44.5476134 L50.3284585,48.5485982 C52.9686251,50.176906 53.7913904,53.6488111 52.1627099,56.288274 L52.005603,56.5427071 C50.9730943,58.2157733 49.1807273,59.2147361 47.2113543,59.2147361 C46.1721056,59.2147361 45.1525956,58.9246888 44.2633928,58.3761977 L14.854067,40.2381324 C13.5752262,39.449486 12.6800858,38.2098865 12.3336161,36.7480993 C11.9871463,35.2861516 12.2307503,33.7770392 13.019655,32.498617 L13.1766015,32.2441839 C14.2086287,30.5720803 16.0003538,29.5739196 17.9694059,29.5739196 C18.1465724,29.5739196 18.3229366,29.5822616 18.4980169,29.5987853 L17.4383877,30.477109 C14.5247683,32.8926194 14.1200454,37.2274474 16.5360258,40.1399526 L16.7231419,40.3656698 C18.0315105,41.9429626 19.9588386,42.8477563 22.0108573,42.8477563 C23.6053562,42.8477563 25.1603778,42.2865917 26.3894707,41.2677363 L31.5656546,36.9768645 L43.8405361,44.5472925 Z M59.846667,13.533243 L61.1725275,12.4341754 C61.7203958,11.9800138 62.1793599,11.4579928 62.5478149,10.8902508 L71.7352805,19.9025734 C70.5877099,20.4132043 69.6532526,21.3186397 69.1081124,22.4467442 L59.846667,13.533243 Z M73.8811782,20.8104152 C76.0500241,20.8104152 77.8144681,22.5742816 77.8144681,24.7422571 C77.8144681,26.910393 76.0500241,28.6742595 73.8811782,28.6742595 C71.7124928,28.6742595 69.9480488,26.910393 69.9480488,24.7422571 C69.9480488,22.5742816 71.7124928,20.8104152 73.8811782,20.8104152 Z M73.9699219,44.9769091 L73.3856254,33.231917 L74.5542185,33.231917 L73.9699219,44.9769091 Z M75.271069,31.8683095 L72.6687749,31.8683095 L71.3681092,31.8683095 L71.3681092,29.4027467 C72.1164132,29.8074975 72.9723973,30.0377065 73.8811782,30.0377065 C74.8629761,30.0377065 75.782509,29.768354 76.5717347,29.3011981 L76.5717347,31.8681491 L75.271069,31.8681491 L75.271069,31.8683095 Z" id="Shape"></path>
                                    <path d="M46.3675665,56.9214691 C48.6522768,56.9214691 50.5109207,55.0632732 50.5109207,52.7794712 C50.5109207,50.4955089 48.6522768,48.6374733 46.3675665,48.6374733 C44.0828562,48.6374733 42.2242123,50.4956693 42.2242123,52.7794712 C42.2240518,55.0632732 44.0828562,56.9214691 46.3675665,56.9214691 Z M46.3675665,50.0009204 C47.9001213,50.0009204 49.1468667,51.2474181 49.1468667,52.7793108 C49.1468667,54.3112035 47.8999608,55.5577012 46.3675665,55.5577012 C44.8350117,55.5577012 43.5882663,54.3112035 43.5882663,52.7793108 C43.5882663,51.2474181 44.8350117,50.0009204 46.3675665,50.0009204 Z" id="Shape"></path>
                                    <path d="M18.7043903,34.9048228 C18.7043903,37.1887851 20.5630343,39.0468207 22.8477445,39.0468207 C25.1324548,39.0468207 26.9910988,37.1886247 26.9910988,34.9048228 C26.9910988,32.6210209 25.1324548,30.7628249 22.8477445,30.7628249 C20.5630343,30.7626645 18.7043903,32.6208604 18.7043903,34.9048228 Z M25.6270447,34.9048228 C25.6270447,36.4368759 24.3801389,37.6832132 22.8477445,37.6832132 C21.3153502,37.6832132 20.0684443,36.4367155 20.0684443,34.9048228 C20.0684443,33.3729301 21.3153502,32.1264324 22.8477445,32.1264324 C24.3801389,32.1264324 25.6270447,33.3727696 25.6270447,34.9048228 Z" id="Shape"></path>
                                    <path d="M56.1287371,11.3660696 C58.4134474,11.3660696 60.2720914,9.50787365 60.2720914,7.22407171 C60.2720914,4.94010935 58.4134474,3.08207381 56.1287371,3.08207381 C53.8440269,3.08207381 51.9853829,4.94026978 51.9853829,7.22407171 C51.9852224,9.50787365 53.8440269,11.3660696 56.1287371,11.3660696 Z M56.1287371,4.44552089 C57.661292,4.44552089 58.9080373,5.69185815 58.9080373,7.22391129 C58.9080373,8.75596442 57.6611315,10.0023017 56.1287371,10.0023017 C54.5961823,10.0023017 53.3494369,8.755804 53.3494369,7.22391129 C53.3492765,5.69201857 54.5961823,4.44552089 56.1287371,4.44552089 Z" id="Shape"></path>
                                </g>
                            </g>
                        </g>
                    </g>
                </g>
            </g>
        </g>
    </g>
</svg>