<?xml version="1.0" encoding="UTF-8" standalone="no"?>
<svg width="115px" height="115px" viewBox="0 0 115 115" version="1.1" xmlns="http://www.w3.org/2000/svg" xmlns:xlink="http://www.w3.org/1999/xlink">
    <!-- Generator: Sketch 42 (36781) - http://www.bohemiancoding.com/sketch -->
    <title>retail_icon_selected</title>
    <desc>Created with Sketch.</desc>
    <defs></defs>
    <g id="Page-1" stroke="none" stroke-width="1" fill="none" fill-rule="evenodd">
        <g id="Large-Device-Desktops" transform="translate(-787.000000, -635.000000)">
            <g id="Group-23" transform="translate(79.000000, 636.000000)">
                <g id="iot_solutions_retail">
                    <g id="Group-11" transform="translate(138.000000, 0.000000)">
                        <g id="Group-18" transform="translate(571.000000, 0.000000)">
                            <g id="retail_icon_selected">
                                <circle id="Oval-3" stroke="#785C92" stroke-width="2" fill="#785C92" cx="56.5" cy="56.5" r="56.5"></circle>
                                <g id="shopping-cart-of-checkered-design" transform="translate(19.000000, 28.000000)" fill="#FFFFFF">
                                    <g id="Capa_1">
                                        <g id="cart" transform="translate(0.000000, 1.064516)">
                                            <g id="Capa_1">
                                                <path d="M13.7976609,10.0995558 L12.8148138,4.16283127 L9.28270712,4.16283127 C8.75466308,2.12059801 6.92127526,0.600796526 4.72522633,0.600796526 C2.11926401,0.600796526 0,2.7308933 0,5.35017618 C0,7.96945906 2.11926401,10.0995558 4.72522633,10.0995558 C6.92127526,10.0995558 8.75466308,8.57975434 9.28270712,6.53752109 L10.8113178,6.53752109 L11.4019711,10.0995558 L11.3688945,10.0995558 L11.6311446,11.4780633 L11.6311446,11.4816253 L11.6311446,11.4816253 L14.6541081,27.3611762 L15.8873922,33.8464541 L15.8885735,33.8464541 L17.473887,42.1756787 C14.5584223,42.3965248 12.1284747,44.6501055 11.8414172,47.4890471 C11.6736716,49.1572667 12.2194353,50.827861 13.3393139,52.0698238 C14.4603739,53.316536 16.0575004,54.0313176 17.7184174,54.0313176 L20.0810306,54.0313176 C20.0810306,57.9602419 23.2599266,61.1553871 27.1688701,61.1553871 C31.0778136,61.1553871 34.2567096,57.9602419 34.2567096,54.0313176 L47.251082,54.0313176 C47.251082,57.9602419 50.429978,61.1553871 54.3389215,61.1553871 C58.2478649,61.1553871 61.4267609,57.9602419 61.4267609,54.0313176 L66.1519873,54.0313176 C66.8052498,54.0313176 67.3332939,53.5005744 67.3332939,52.8439727 C67.3332939,52.187371 66.8052498,51.6566278 66.1519873,51.6566278 L61.0133036,51.6566278 C60.0375444,48.8936762 57.4185877,46.9072481 54.3389215,46.9072481 C51.2592552,46.9072481 48.6402985,48.8936762 47.6645393,51.6566278 L33.8432523,51.6566278 C32.867493,48.8936762 30.2485363,46.9072481 27.1688701,46.9072481 C24.0892038,46.9072481 21.4702471,48.8936762 20.4944879,51.6566278 L17.7195987,51.6566278 C16.7249386,51.6566278 15.7680803,51.2268089 15.0923729,50.4775943 C14.410759,49.7188809 14.0906249,48.7428834 14.1933986,47.7277035 C14.3729572,45.936 16.0196986,44.5337457 17.9416844,44.5337457 L18.8642848,44.5337457 L18.9351632,44.5337457 L26.1742099,44.531371 L38.9831172,44.5266216 L38.9831172,44.5254342 L47.4235527,44.5230596 L60.2466357,44.5206849 L60.2466357,44.5194975 L65.0002134,44.5183102 C68.2499878,44.5183102 70.8925706,41.8622196 70.8925706,38.5970211 L70.8925706,10.0853077 L13.7976609,10.0995558 Z M4.72522633,7.724866 C3.42224517,7.724866 2.36261316,6.65981762 2.36261316,5.35017618 C2.36261316,4.04053474 3.42224517,2.97548635 4.72522633,2.97548635 C6.02820749,2.97548635 7.08783949,4.04053474 7.08783949,5.35017618 C7.08783949,6.65981762 6.02820749,7.724866 4.72522633,7.724866 Z M54.3401028,49.281938 C56.9460651,49.281938 59.0653291,51.4120347 59.0653291,54.0313176 C59.0653291,56.6506005 56.9460651,58.7806973 54.3401028,58.7806973 C51.7341404,58.7806973 49.6148764,56.6506005 49.6148764,54.0313176 C49.6148764,51.4120347 51.7341404,49.281938 54.3401028,49.281938 Z M27.1700514,49.281938 C29.7760137,49.281938 31.8952777,51.4120347 31.8952777,54.0313176 C31.8952777,56.6506005 29.7760137,58.7806973 27.1700514,58.7806973 C24.5640891,58.7806973 22.4448251,56.6506005 22.4448251,54.0313176 C22.4448251,51.4120347 24.5640891,49.281938 27.1700514,49.281938 Z M68.5311387,20.78566 L60.2466357,20.78566 L60.2466357,12.4611849 L68.5311387,12.4588102 L68.5311387,20.78566 Z M49.6148764,42.1483697 L49.6148764,33.8476414 L57.8840225,33.8476414 L57.8840225,42.145995 L49.6148764,42.1483697 Z M49.6148764,31.4717643 L49.6148764,23.1603499 L57.8840225,23.1603499 L57.8840225,31.4717643 L49.6148764,31.4717643 Z M28.351358,42.1543065 L28.351358,33.8464541 L36.620504,33.8464541 L36.620504,42.1519318 L28.351358,42.1543065 Z M28.351358,31.4717643 L28.351358,23.1603499 L36.620504,23.1603499 L36.620504,31.4717643 L28.351358,31.4717643 Z M16.2606851,23.1603499 L25.9887448,23.1603499 L25.9887448,31.4717643 L17.8436359,31.4717643 L16.2606851,23.1603499 Z M57.8840225,20.78566 L49.6148764,20.78566 L49.6148764,12.4742457 L57.8840225,12.4742457 L57.8840225,20.78566 Z M47.2522633,20.78566 L38.9831172,20.78566 L38.9831172,12.4671216 L47.2522633,12.4647469 L47.2522633,20.78566 Z M36.620504,12.4742457 L36.620504,20.78566 L28.351358,20.78566 L28.351358,12.4742457 L36.620504,12.4742457 Z M38.9831172,23.1603499 L47.2522633,23.1603499 L47.2522633,31.4717643 L38.9831172,31.4717643 L38.9831172,23.1603499 Z M60.2466357,23.1603499 L68.5157817,23.1603499 L68.5157817,31.4717643 L60.2466357,31.4717643 L60.2466357,23.1603499 Z M25.9887448,12.471871 L25.9887448,20.7868474 L15.8082447,20.7868474 L14.2252939,12.475433 L25.9887448,12.471871 Z M18.294895,33.8464541 L25.9887448,33.8464541 L25.9887448,42.1543065 L19.8778459,42.1566811 L18.294895,33.8464541 Z M38.9831172,33.8464541 L47.2522633,33.8464541 L47.2522633,42.1483697 L38.9831172,42.1507444 L38.9831172,33.8464541 Z M65.0002134,42.1436203 L60.2466357,42.1448077 L60.2466357,33.8464541 L68.5311387,33.8464541 L68.5311387,38.5958337 C68.5311387,40.5525782 66.9470066,42.1436203 65.0002134,42.1436203 Z" id="Shape"></path>
                                            </g>
                                        </g>
                                    </g>
                                </g>
                            </g>
                        </g>
                    </g>
                </g>
            </g>
        </g>
    </g>
</svg>