<?xml version="1.0" encoding="UTF-8" standalone="no"?>
<svg width="102px" height="102px" viewBox="0 0 102 102" version="1.1" xmlns="http://www.w3.org/2000/svg" xmlns:xlink="http://www.w3.org/1999/xlink">
    <!-- Generator: Sketch 42 (36781) - http://www.bohemiancoding.com/sketch -->
    <title>Group 21</title>
    <desc>Created with Sketch.</desc>
    <defs></defs>
    <g id="Page-1" stroke="none" stroke-width="1" fill="none" fill-rule="evenodd">
        <g id="Large-Device-Desktops" transform="translate(-793.000000, -641.000000)">
            <g id="iot_solutions_manufacturing" transform="translate(80.000000, 635.000000)">
                <g id="Group-11" transform="translate(156.000000, 0.000000)">
                    <g id="Group-18" transform="translate(558.000000, 7.000000)">
                        <g id="Group-21">
                            <circle id="Oval-3" stroke="#785C92" stroke-width="2" cx="50" cy="50" r="50"></circle>
                            <g id="shopping-cart-of-checkered-design" transform="translate(15.000000, 20.000000)" fill="#785C92">
                                <g id="Capa_1">
                                    <g id="cart" transform="translate(0.000000, 1.000000)">
                                        <g id="Capa_1">
                                            <path d="M13.0203279,9.48746154 L12.0928525,3.91053846 L8.7597377,3.91053846 C8.26144262,1.99207692 6.53134426,0.564384615 4.45901639,0.564384615 C1.99986885,0.564384615 0,2.56538462 0,5.02592308 C0,7.48646154 1.99986885,9.48746154 4.45901639,9.48746154 C6.53134426,9.48746154 8.26144262,8.05976923 8.7597377,6.14130769 L10.2022295,6.14130769 L10.7596066,9.48746154 L10.7283934,9.48746154 L10.9758689,10.7824231 L10.9758689,10.7857692 L10.9758689,10.7857692 L13.8285246,25.7029231 L14.9923279,31.7951538 L14.9934426,31.7951538 L16.4894426,39.6195769 C13.7382295,39.8270385 11.4451803,41.9440385 11.1742951,44.6109231 C11.016,46.1780385 11.5310164,47.7473846 12.5878033,48.9140769 C13.6457049,50.0852308 15.1528525,50.7566923 16.7201967,50.7566923 L18.9497049,50.7566923 C18.9497049,54.4475 21.9495082,57.449 25.6382295,57.449 C29.3269508,57.449 32.3267541,54.4475 32.3267541,50.7566923 L44.5890492,50.7566923 C44.5890492,54.4475 47.5888525,57.449 51.2775738,57.449 C54.9662951,57.449 57.9660984,54.4475 57.9660984,50.7566923 L62.4251148,50.7566923 C63.0415738,50.7566923 63.5398689,50.2581154 63.5398689,49.6413077 C63.5398689,49.0245 63.0415738,48.5259231 62.4251148,48.5259231 L57.5759344,48.5259231 C56.6551475,45.9304231 54.1837377,44.0643846 51.2775738,44.0643846 C48.3714098,44.0643846 45.9,45.9304231 44.9792131,48.5259231 L31.9365902,48.5259231 C31.0158033,45.9304231 28.5443934,44.0643846 25.6382295,44.0643846 C22.7320656,44.0643846 20.2606557,45.9304231 19.3398689,48.5259231 L16.7213115,48.5259231 C15.7826885,48.5259231 14.8797377,48.1221538 14.2420984,47.4183462 C13.5988852,46.7056154 13.2967869,45.7887692 13.3937705,44.8351154 C13.5632131,43.152 15.1171803,41.8347308 16.9308852,41.8347308 L17.8015082,41.8347308 L17.8683934,41.8347308 L24.6996066,41.8325 L36.7868852,41.8280385 L36.7868852,41.8269231 L44.7518033,41.8246923 L56.852459,41.8224615 L56.852459,41.8213462 L61.3382295,41.8202308 C64.404918,41.8202308 66.898623,39.3251154 66.898623,36.2578077 L66.898623,9.47407692 L13.0203279,9.48746154 Z M4.45901639,7.25669231 C3.22944262,7.25669231 2.2295082,6.25619231 2.2295082,5.02592308 C2.2295082,3.79565385 3.22944262,2.79515385 4.45901639,2.79515385 C5.68859016,2.79515385 6.68852459,3.79565385 6.68852459,5.02592308 C6.68852459,6.25619231 5.68859016,7.25669231 4.45901639,7.25669231 Z M51.2786885,46.2951538 C53.7378361,46.2951538 55.7377049,48.2961538 55.7377049,50.7566923 C55.7377049,53.2172308 53.7378361,55.2182308 51.2786885,55.2182308 C48.819541,55.2182308 46.8196721,53.2172308 46.8196721,50.7566923 C46.8196721,48.2961538 48.819541,46.2951538 51.2786885,46.2951538 Z M25.6393443,46.2951538 C28.0984918,46.2951538 30.0983607,48.2961538 30.0983607,50.7566923 C30.0983607,53.2172308 28.0984918,55.2182308 25.6393443,55.2182308 C23.1801967,55.2182308 21.1803279,53.2172308 21.1803279,50.7566923 C21.1803279,48.2961538 23.1801967,46.2951538 25.6393443,46.2951538 Z M64.6702295,19.5259231 L56.852459,19.5259231 L56.852459,11.7059615 L64.6702295,11.7037308 L64.6702295,19.5259231 Z M46.8196721,39.5939231 L46.8196721,31.7962692 L54.6229508,31.7962692 L54.6229508,39.5916923 L46.8196721,39.5939231 Z M46.8196721,29.5643846 L46.8196721,21.7566923 L54.6229508,21.7566923 L54.6229508,29.5643846 L46.8196721,29.5643846 Z M26.7540984,39.5995 L26.7540984,31.7951538 L34.557377,31.7951538 L34.557377,39.5972692 L26.7540984,39.5995 Z M26.7540984,29.5643846 L26.7540984,21.7566923 L34.557377,21.7566923 L34.557377,29.5643846 L26.7540984,29.5643846 Z M15.3445902,21.7566923 L24.5245902,21.7566923 L24.5245902,29.5643846 L16.8383607,29.5643846 L15.3445902,21.7566923 Z M54.6229508,19.5259231 L46.8196721,19.5259231 L46.8196721,11.7182308 L54.6229508,11.7182308 L54.6229508,19.5259231 Z M44.5901639,19.5259231 L36.7868852,19.5259231 L36.7868852,11.7115385 L44.5901639,11.7093077 L44.5901639,19.5259231 Z M34.557377,11.7182308 L34.557377,19.5259231 L26.7540984,19.5259231 L26.7540984,11.7182308 L34.557377,11.7182308 Z M36.7868852,21.7566923 L44.5901639,21.7566923 L44.5901639,29.5643846 L36.7868852,29.5643846 L36.7868852,21.7566923 Z M56.852459,21.7566923 L64.6557377,21.7566923 L64.6557377,29.5643846 L56.852459,29.5643846 L56.852459,21.7566923 Z M24.5245902,11.716 L24.5245902,19.5270385 L14.9176393,19.5270385 L13.4238689,11.7193462 L24.5245902,11.716 Z M17.2641967,31.7951538 L24.5245902,31.7951538 L24.5245902,39.5995 L18.7579672,39.6017308 L17.2641967,31.7951538 Z M36.7868852,31.7951538 L44.5901639,31.7951538 L44.5901639,39.5939231 L36.7868852,39.5961538 L36.7868852,31.7951538 Z M61.3382295,39.5894615 L56.852459,39.5905769 L56.852459,31.7951538 L64.6702295,31.7951538 L64.6702295,36.2566923 C64.6702295,38.0948462 63.1753443,39.5894615 61.3382295,39.5894615 Z" id="Shape"></path>
                                        </g>
                                    </g>
                                </g>
                            </g>
                        </g>
                    </g>
                </g>
            </g>
        </g>
    </g>
</svg>