<?xml version="1.0" encoding="UTF-8"?>
<svg width="188px" height="168px" viewBox="0 0 188 168" version="1.1" xmlns="http://www.w3.org/2000/svg" xmlns:xlink="http://www.w3.org/1999/xlink">
    <!-- Generator: Sketch 61.1 (89650) - https://sketch.com -->
    <title>illustration</title>
    <desc>Created with Sketch.</desc>
    <defs>
        <path d="M85.4353723,5.57829629 C105.821094,-6.1884245 122.742895,1.294296 125.764135,22.0594574 C129.009775,19.0545372 132.449216,16.445377 136.019216,14.3890569 C155.433897,3.18129613 171.247978,12.1715767 171.311396,34.5014183 C171.372418,56.8190198 155.664417,84.0061016 136.243616,95.2179424 L35.2982889,153.500746 C15.8754476,164.710547 0.0654465434,155.724346 -9.9475983e-14,133.408785 C-0.058993465,111.072823 15.6510476,83.8837016 35.0677689,72.6739008 C38.6377692,70.6094207 42.0772094,69.2446606 45.3269296,68.5021006 C48.2237298,44.3199389 65.0455709,17.3470571 85.4353723,5.57829629" id="path-1"></path>
    </defs>
    <g id="Page-1" stroke="none" stroke-width="1" fill="none" fill-rule="evenodd">
        <g id="iAM" transform="translate(-240.000000, -1104.000000)">
            <g id="IAM_governance" transform="translate(240.000000, 1023.000000)">
                <g id="illustration" transform="translate(0.000000, 81.000000)">
                    <path d="M161.050022,11.9452278 C157.088341,9.64206767 152.196421,8.96478762 146.716981,10.1214677 C143.34282,10.8293477 139.7463,12.2369478 136.01514,14.391188 C132.44514,16.4515881 129.003659,19.0566683 125.760059,22.0656685 L141.59862,31.2619891 C144.84426,28.2570689 148.283701,25.6479088 151.853701,23.5915886 C155.578741,21.4414285 159.175261,20.0277084 162.553502,19.3198283 C168.026822,18.1672282 172.924862,18.8424683 176.878383,21.1435884 L161.050022,11.9452278" id="Fill-605" fill="#C7E6F4"></path>
                    <path d="M114.374818,2.7448272 C109.805218,0.0846670214 104.144218,-0.692573031 97.8140972,0.635467059 C93.909537,1.46166711 89.7458967,3.08958723 85.4312964,5.58246739 C78.2647759,9.71958767 71.5348155,15.7396281 65.6963351,22.8551486 C54.9373743,35.9743895 47.2078138,52.8268306 45.3269337,68.5042317 C42.0833335,69.2447517 38.6336932,70.6156318 35.067773,72.6719519 C28.8845326,76.2439922 23.0746122,81.4378325 18.0337718,87.572113 C7.24013109,100.711754 -0.0406293992,118.186395 2.98427949e-13,133.414996 C0.0328106057,144.490157 3.94757087,152.282957 10.2572913,155.950878 L26.0938124,165.153318 C19.7820519,161.483358 15.8693317,153.690557 15.8346517,142.611317 C15.7918117,127.390876 23.0746122,109.914194 33.8682529,96.7745536 C38.9090932,90.6402732 44.7190136,85.4484728 50.9022541,81.8764326 C54.4722543,79.8119524 57.9116945,78.4471923 61.1614147,77.7046323 C63.0382149,62.0251912 70.7718554,45.1768301 81.5328561,32.0514692 C87.3692965,24.9379887 94.099257,18.9240683 101.269857,14.780828 C105.584458,12.2920278 109.746058,10.6620677 113.646538,9.83790768 C119.976659,8.50782759 125.637659,9.28710765 130.209299,11.9472678 L114.374818,2.7448272" id="Fill-606" fill="#C7E6F4"></path>
                    <g id="Group-15" transform="translate(15.834485, 9.202532)">
                        <mask id="mask-2" fill="white">
                            <use xlink:href="#path-1"></use>
                        </mask>
                        <use id="Fill-607" fill="#E9F6FA" xlink:href="#path-1"></use>
                        <g id="Group-12" mask="url(#mask-2)">
                            <g transform="translate(92.165515, 71.797468) scale(-1, 1) translate(-92.165515, -71.797468) translate(56.165515, 28.797468)">
                                <path d="M4.01562618,19.6449363 L14.4919828,5.8122802 C17.0173441,2.47787148 21.6111664,1.50951792 25.2675951,3.54083784 L52.2841364,18.5498107 C52.9877661,18.9407104 53.5400944,19.5561428 53.8528929,20.2977993 L70.9719006,60.8875827 C71.5119838,62.1681394 71.2667228,63.6452036 70.3417694,64.6824965 L55.3833584,81.4576688 C53.1194033,83.9965907 49.3874307,84.6046232 46.4346432,82.9156403 L17.9262489,66.6089501 C17.1329866,66.1552071 16.541977,65.4167601 16.2730683,64.5433553 L3.44483277,22.8777544 C3.10409846,21.7710629 3.31650869,20.5680293 4.01562618,19.6449363 Z" id="Path-3" fill="#0069C2"></path>
                                <path d="M1.2639371,22.8576196 L14.7919356,5.37526844 C15.883505,3.9646237 17.8434429,3.56596708 19.3993376,4.43811053 L47.934052,20.4330008 C48.6149886,20.814694 49.1534095,21.4073781 49.4681658,22.121726 L66.4969839,60.7690845 C67.0537209,62.0326141 66.8387303,63.5032497 65.9435936,64.5545315 L50.9239067,82.1942088 C49.7991354,83.515182 47.8921858,83.8460023 46.3882004,82.9810695 L17.7705595,66.5232388 C17.071554,66.121245 16.5277473,65.4962143 16.2262999,64.7483259 L0.772096638,26.4065817 C0.293917316,25.2202229 0.481148319,23.8692244 1.2639371,22.8576196 Z" id="Path-3" fill="#1486FC"></path>
                                <g id="Group-17" stroke-width="1" fill="none" transform="translate(8.000000, 30.000000)">
                                    <g id="Group-21" transform="translate(0.873460, 0.068507)">
                                        <path d="M9.96271719,14.1923805 C12.6454958,14.1923805 14.8203697,11.4738532 14.8203697,8.12037998 C14.5082694,1.72590206 7.98477293,2.08434726 7.50414278,2.2833547 C5.57027101,3.0840845 5.1051168,5.43444827 5.1051168,8.12037998 C5.1051168,11.4738532 7.27993858,14.1923805 9.96271719,14.1923805 Z" id="Oval" fill="#CFCFCF" transform="translate(9.962743, 8.196190) rotate(-25.000000) translate(-9.962743, -8.196190) "></path>
                                        <path d="M19.6107616,23.3945977 C19.6107616,17.3583458 16.8922344,12.4649968 13.5387611,12.4649968 C10.1852879,12.4649968 7.46676064,17.3583458 7.46676064,23.3945977 C7.46676064,27.2078995 6.64731508,30.9472502 8.29186769,32.9027667 C9.25055354,34.0427278 18.8596419,37.7734137 19.6107616,23.3945977 Z" id="Oval" fill="#CFCFCF" transform="translate(13.436683, 23.327885) rotate(-31.000000) translate(-13.436683, -23.327885) "></path>
                                        <ellipse id="Oval" fill="#FFFFFF" transform="translate(8.157600, 9.227494) rotate(-25.000000) translate(-8.157600, -9.227494) " cx="8.15760046" cy="9.22749386" rx="4.85760039" ry="6.07200048"></ellipse>
                                        <ellipse id="Oval" fill="#FFFFFF" transform="translate(11.358541, 24.432495) rotate(-31.000000) translate(-11.358541, -24.432495) " cx="11.3585408" cy="24.432495" rx="6.07200048" ry="10.9296009"></ellipse>
                                    </g>
                                </g>
                                <g id="Group-17" stroke-width="1" fill="none" transform="translate(22.000000, 24.000000)">
                                    <g id="Group-20" transform="translate(0.837745, 0.418129)">
                                        <path d="M16.1899285,21.694962 C20.3254373,21.694962 23.6779296,17.5043467 23.6779296,12.3349608 C23.2648898,1.52334835 12.8884165,2.58375456 12.4462326,2.66363679 C8.71860244,3.33704752 7.49268964,7.18965571 7.49268964,11.8108591 C7.49268964,16.980245 12.0544198,21.694962 16.1899285,21.694962 Z" id="Oval" fill="#CFCFCF" transform="translate(15.585310, 12.147481) rotate(-25.000000) translate(-15.585310, -12.147481) "></path>
                                        <path d="M30.7741732,35.6096413 C30.7741732,26.3047466 26.5835579,18.761639 21.414172,18.761639 C16.244786,18.761639 12.0541707,26.3047466 12.0541707,35.6096413 C12.0541707,41.9555516 10.7692199,47.3454421 13.6486667,50.2185729 C14.9913012,51.5582624 29.6156735,57.4881523 30.7741732,35.6096413 Z" id="Oval" fill="#CFCFCF" transform="translate(21.271282, 35.360155) rotate(-31.000000) translate(-21.271282, -35.360155) "></path>
                                        <ellipse id="Oval" fill="#FFFFFF" transform="translate(12.688001, 13.361872) rotate(-25.000000) translate(-12.688001, -13.361872) " cx="12.6880013" cy="13.3618725" rx="7.48800101" ry="9.36000126"></ellipse>
                                        <ellipse id="Oval" fill="#FFFFFF" transform="translate(17.622257, 36.800413) rotate(-31.000000) translate(-17.622257, -36.800413) " cx="17.6222574" cy="36.800413" rx="9.36000126" ry="16.8480023"></ellipse>
                                    </g>
                                </g>
                            </g>
                        </g>
                    </g>
                </g>
            </g>
        </g>
    </g>
</svg>