<?xml version="1.0" encoding="UTF-8"?>
<svg width="188px" height="168px" viewBox="0 0 188 168" version="1.1" xmlns="http://www.w3.org/2000/svg" xmlns:xlink="http://www.w3.org/1999/xlink">
    <!-- Generator: Sketch 61.1 (89650) - https://sketch.com -->
    <title>illustration</title>
    <desc>Created with Sketch.</desc>
    <g id="Page-1" stroke="none" stroke-width="1" fill="none" fill-rule="evenodd">
        <g id="iAM" transform="translate(-1012.000000, -690.000000)">
            <g id="identity_and_access" transform="translate(235.000000, 609.000000)">
                <g id="illustration" transform="translate(777.000000, 81.000000)">
                    <g id="Group-11" transform="translate(94.000000, 84.000000) scale(-1, 1) translate(-94.000000, -84.000000) ">
                        <path d="M161.050022,11.9452278 C157.088341,9.64206767 152.196421,8.96478762 146.716981,10.1214677 C143.34282,10.8293477 139.7463,12.2369478 136.01514,14.391188 C132.44514,16.4515881 129.003659,19.0566683 125.760059,22.0656685 L141.59862,31.2619891 C144.84426,28.2570689 148.283701,25.6479088 151.853701,23.5915886 C155.578741,21.4414285 159.175261,20.0277084 162.553502,19.3198283 C168.026822,18.1672282 172.924862,18.8424683 176.878383,21.1435884 L161.050022,11.9452278" id="Fill-605" fill="#C7E6F4"></path>
                        <path d="M114.374818,2.7448272 C109.805218,0.0846670214 104.144218,-0.692573031 97.8140972,0.635467059 C93.909537,1.46166711 89.7458967,3.08958723 85.4312964,5.58246739 C78.2647759,9.71958767 71.5348155,15.7396281 65.6963351,22.8551486 C54.9373743,35.9743895 47.2078138,52.8268306 45.3269337,68.5042317 C42.0833335,69.2447517 38.6336932,70.6156318 35.067773,72.6719519 C28.8845326,76.2439922 23.0746122,81.4378325 18.0337718,87.572113 C7.24013109,100.711754 -0.0406293992,118.186395 2.98427949e-13,133.414996 C0.0328106057,144.490157 3.94757087,152.282957 10.2572913,155.950878 L26.0938124,165.153318 C19.7820519,161.483358 15.8693317,153.690557 15.8346517,142.611317 C15.7918117,127.390876 23.0746122,109.914194 33.8682529,96.7745536 C38.9090932,90.6402732 44.7190136,85.4484728 50.9022541,81.8764326 C54.4722543,79.8119524 57.9116945,78.4471923 61.1614147,77.7046323 C63.0382149,62.0251912 70.7718554,45.1768301 81.5328561,32.0514692 C87.3692965,24.9379887 94.099257,18.9240683 101.269857,14.780828 C105.584458,12.2920278 109.746058,10.6620677 113.646538,9.83790768 C119.976659,8.50782759 125.637659,9.28710765 130.209299,11.9472678 L114.374818,2.7448272" id="Fill-606" fill="#C7E6F4"></path>
                        <path d="M101.269857,14.780828 C121.655579,3.01410722 138.57738,10.4968277 141.59862,31.2619891 C144.84426,28.2570689 148.283701,25.6479088 151.853701,23.5915886 C171.268382,12.3838279 187.082463,21.3741085 187.145882,43.70395 C187.206903,66.0215515 171.498902,93.2086333 152.078101,104.420474 L51.1327741,162.703278 C31.7099328,173.913079 15.8999317,164.926878 15.8344851,142.611317 C15.7754917,120.275355 31.4855327,93.0862333 50.9022541,81.8764326 C54.4722543,79.8119524 57.9116945,78.4471923 61.1614147,77.7046323 C64.0582149,53.5224706 80.8800561,26.5495888 101.269857,14.780828" id="Fill-607" fill="#E9F6FA"></path>
                    </g>
                    <g id="Group-12" transform="translate(39.000000, 33.000000)">
                        <path d="M4.01562618,19.6449363 L14.4919828,5.8122802 C17.0173441,2.47787148 21.6111664,1.50951792 25.2675951,3.54083784 L52.2841364,18.5498107 C52.9877661,18.9407104 53.5400944,19.5561428 53.8528929,20.2977993 L70.9719006,60.8875827 C71.5119838,62.1681394 71.2667228,63.6452036 70.3417694,64.6824965 L55.3833584,81.4576688 C53.1194033,83.9965907 49.3874307,84.6046232 46.4346432,82.9156403 L17.9262489,66.6089501 C17.1329866,66.1552071 16.541977,65.4167601 16.2730683,64.5433553 L3.44483277,22.8777544 C3.10409846,21.7710629 3.31650869,20.5680293 4.01562618,19.6449363 Z" id="Path-3" fill="#0069C2"></path>
                        <path d="M1.2639371,22.8576196 L14.7919356,5.37526844 C15.883505,3.9646237 17.8434429,3.56596708 19.3993376,4.43811053 L47.934052,20.4330008 C48.6149886,20.814694 49.1534095,21.4073781 49.4681658,22.121726 L66.4969839,60.7690845 C67.0537209,62.0326141 66.8387303,63.5032497 65.9435936,64.5545315 L50.9239067,82.1942088 C49.7991354,83.515182 47.8921858,83.8460023 46.3882004,82.9810695 L17.7705595,66.5232388 C17.071554,66.121245 16.5277473,65.4962143 16.2262999,64.7483259 L0.772096638,26.4065817 C0.293917316,25.2202229 0.481148319,23.8692244 1.2639371,22.8576196 Z" id="Path-3" fill="#1486FC"></path>
                        <g id="Group-22" transform="translate(17.000000, 21.000000)">
                            <path d="M18.4172952,0 L34.2172174,17.4245218 L34.2172174,36.0073542 C31.1331294,41.8970836 25.8664887,45.7605895 18.4172952,47.597872 C12.3542098,42.9069289 8.43170285,38.9763599 6.64977428,35.806165 C3.88908798,30.894681 3.10682312,24.4313815 2.29999995,18.501973 C0.766666651,11.3115469 6.75015599e-14,5.91088925 6.75015599e-14,2.29999995 L2.29999995,0 L18.4172952,0 Z M9.59445447,19.358768 C6.32799145,21.321457 6.54393281,27.6789155 10.076773,33.5585489 C13.6096132,39.4381823 19.1215375,42.6134932 22.3880005,40.6508042 C25.6544635,38.6881152 25.4385217,32.330657 21.9056815,26.4510236 C19.8374961,23.0089851 15.0517656,22.5786511 12.4746351,21.4784964 C10.6495537,20.699385 10.9486737,18.545071 9.59445447,19.358768 Z M13.9525933,6.47285293 C11.1896126,7.76125198 10.2553415,11.6055038 11.8658403,15.0592296 C13.4763391,18.5129555 17.0217447,20.2682997 19.7847254,18.9799006 C22.5477061,17.6915016 23.4819773,13.8472498 21.8714784,10.3935239 C20.2609796,6.93979807 16.715574,5.18445388 13.9525933,6.47285293 Z" id="Combined-Shape" fill="#CFCFCF"></path>
                            <path d="M16.1172952,2.29999995 L31.9172174,19.7245218 L31.9172174,38.3073542 C28.8331294,44.1970835 23.5664887,48.0605895 16.1172952,49.897872 C6.96042005,42.1708601 1.58798831,32.4722271 4.08562073e-14,20.801973 L4.08562073e-14,2.29999995 L16.1172952,2.29999995 Z M7.29445451,21.658768 C4.0279915,23.621457 4.24393286,29.9789154 7.77677304,35.8585488 C11.3096132,41.7381823 16.8215375,44.9134931 20.0880005,42.9508041 C23.3544636,40.9881151 23.1385222,34.6306567 19.605682,28.7510233 C16.0728418,22.8713898 10.5609175,19.696079 7.29445451,21.658768 Z M11.6525934,8.77285288 C8.88961267,10.0612519 7.95534152,13.9055037 9.56584034,17.3592296 C11.1763392,20.8129554 14.7217448,22.5682996 17.4847255,21.2799006 C20.2477062,19.9915015 21.1819773,16.1472497 19.5714785,12.6935239 C17.9609797,9.23979803 14.415574,7.48445383 11.6525934,8.77285288 Z" id="Combined-Shape" fill="#FFFFFF"></path>
                        </g>
                    </g>
                </g>
            </g>
        </g>
    </g>
</svg>