<?xml version="1.0" encoding="UTF-8"?>
<svg width="188px" height="168px" viewBox="0 0 188 168" version="1.1" xmlns="http://www.w3.org/2000/svg" xmlns:xlink="http://www.w3.org/1999/xlink">
    <!-- Generator: Sketch 61.1 (89650) - https://sketch.com -->
    <title>illustration</title>
    <desc>Created with Sketch.</desc>
    <g id="Page-1" stroke="none" stroke-width="1" fill="none" fill-rule="evenodd">
        <g id="iAM" transform="translate(-240.000000, -1908.000000)">
            <g id="IAM_monitoring_and_audit" transform="translate(240.000000, 1827.000000)">
                <g id="illustration" transform="translate(0.000000, 81.000000)">
                    <path d="M161.050022,11.9452278 C157.088341,9.64206767 152.196421,8.96478762 146.716981,10.1214677 C143.34282,10.8293477 139.7463,12.2369478 136.01514,14.391188 C132.44514,16.4515881 129.003659,19.0566683 125.760059,22.0656685 L141.59862,31.2619891 C144.84426,28.2570689 148.283701,25.6479088 151.853701,23.5915886 C155.578741,21.4414285 159.175261,20.0277084 162.553502,19.3198283 C168.026822,18.1672282 172.924862,18.8424683 176.878383,21.1435884 L161.050022,11.9452278" id="Fill-605" fill="#C7E6F4"></path>
                    <path d="M114.374818,2.7448272 C109.805218,0.0846670214 104.144218,-0.692573031 97.8140972,0.635467059 C93.909537,1.46166711 89.7458967,3.08958723 85.4312964,5.58246739 C78.2647759,9.71958767 71.5348155,15.7396281 65.6963351,22.8551486 C54.9373743,35.9743895 47.2078138,52.8268306 45.3269337,68.5042317 C42.0833335,69.2447517 38.6336932,70.6156318 35.067773,72.6719519 C28.8845326,76.2439922 23.0746122,81.4378325 18.0337718,87.572113 C7.24013109,100.711754 -0.0406293992,118.186395 3.41060513e-13,133.414996 C0.0328106057,144.490157 3.94757087,152.282957 10.2572913,155.950878 L26.0938124,165.153318 C19.7820519,161.483358 15.8693317,153.690557 15.8346517,142.611317 C15.7918117,127.390876 23.0746122,109.914194 33.8682529,96.7745536 C38.9090932,90.6402732 44.7190136,85.4484728 50.9022541,81.8764326 C54.4722543,79.8119524 57.9116945,78.4471923 61.1614147,77.7046323 C63.0382149,62.0251912 70.7718554,45.1768301 81.5328561,32.0514692 C87.3692965,24.9379887 94.099257,18.9240683 101.269857,14.780828 C105.584458,12.2920278 109.746058,10.6620677 113.646538,9.83790768 C119.976659,8.50782759 125.637659,9.28710765 130.209299,11.9472678 L114.374818,2.7448272" id="Fill-606" fill="#C7E6F4"></path>
                    <path d="M101.269857,14.780828 C121.655579,3.01410722 138.57738,10.4968277 141.59862,31.2619891 C144.84426,28.2570689 148.283701,25.6479088 151.853701,23.5915886 C171.268382,12.3838279 187.082463,21.3741085 187.145882,43.70395 C187.206903,66.0215515 171.498902,93.2086333 152.078101,104.420474 L51.1327741,162.703278 C31.7099328,173.913079 15.8999317,164.926878 15.8344851,142.611317 C15.7754917,120.275355 31.4855327,93.0862333 50.9022541,81.8764326 C54.4722543,79.8119524 57.9116945,78.4471923 61.1614147,77.7046323 C64.0582149,53.5224706 80.8800561,26.5495888 101.269857,14.780828" id="Fill-607" fill="#E9F6FA"></path>
                    <g id="Group-12" transform="translate(101.000000, 83.000000) scale(-1, 1) translate(-101.000000, -83.000000) translate(65.000000, 40.000000)">
                        <path d="M4.01562618,19.6449363 L14.4919828,5.8122802 C17.0173441,2.47787148 21.6111664,1.50951792 25.2675951,3.54083784 L52.2841364,18.5498107 C52.9877661,18.9407104 53.5400944,19.5561428 53.8528929,20.2977993 L70.9719006,60.8875827 C71.5119838,62.1681394 71.2667228,63.6452036 70.3417694,64.6824965 L55.3833584,81.4576688 C53.1194033,83.9965907 49.3874307,84.6046232 46.4346432,82.9156403 L17.9262489,66.6089501 C17.1329866,66.1552071 16.541977,65.4167601 16.2730683,64.5433553 L3.44483277,22.8777544 C3.10409846,21.7710629 3.31650869,20.5680293 4.01562618,19.6449363 Z" id="Path-3" fill="#0069C2"></path>
                        <path d="M1.2639371,22.8576196 L14.7919356,5.37526844 C15.883505,3.9646237 17.8434429,3.56596708 19.3993376,4.43811053 L47.934052,20.4330008 C48.6149886,20.814694 49.1534095,21.4073781 49.4681658,22.121726 L66.4969839,60.7690845 C67.0537209,62.0326141 66.8387303,63.5032497 65.9435936,64.5545315 L50.9239067,82.1942088 C49.7991354,83.515182 47.8921858,83.8460023 46.3882004,82.9810695 L17.7705595,66.5232388 C17.071554,66.121245 16.5277473,65.4962143 16.2262999,64.7483259 L0.772096638,26.4065817 C0.293917316,25.2202229 0.481148319,23.8692244 1.2639371,22.8576196 Z" id="Path-3" fill="#1486FC"></path>
                        <g id="Group-19" transform="translate(34.000000, 43.500000) rotate(8.000000) translate(-34.000000, -43.500000) translate(11.000000, 18.000000)">
                            <path d="M26.1412722,22.2029629 C26.1412722,29.7804189 20.8214401,32.8518109 14.2591441,29.0627549 C7.69717605,25.2740269 2.37734401,16.0601788 2.37734401,8.4827228 C2.37734401,0.905594749 7.69717605,-2.16579727 14.2591441,1.62260275 C20.8214401,5.41165878 26.1412722,14.6258348 26.1412722,22.2029629" id="Fill-25" fill="#DDDDDD"></path>
                            <path d="M40.1439202,48.447227 L22.1340961,28.1305789 L24.5344002,25.7309309 L44.8507203,43.740427 C46.1505843,45.040291 46.1505843,47.147691 44.8507203,48.447227 C43.5508563,49.7470911 41.4434563,49.7470911 40.1439202,48.447227" id="Fill-26" fill="#DDDDDD"></path>
                            <path d="M38.7856722,49.533891 L20.7758481,29.2175709 L23.1758241,26.8175949 L43.4921443,44.827419 C44.7920083,46.127283 44.7920083,48.234355 43.4921443,49.533891 C42.1922803,50.8337551 40.0852082,50.8337551 38.7856722,49.533891" id="Fill-27" fill="#FFFFFF"></path>
                            <path d="M23.7642561,23.6294349 C23.7642561,31.2065629 18.4444241,34.278283 11.8821281,30.4892269 C5.31983203,26.7004989 9.9475983e-14,17.4863229 9.9475983e-14,9.9091948 C9.9475983e-14,2.33173876 5.31983203,-0.739653261 11.8821281,3.04907476 C18.4444241,6.83780279 23.7642561,16.0516508 23.7642561,23.6294349" id="Fill-28" fill="#C3D3E7"></path>
                            <path d="M11.8821281,27.2292349 C6.88701604,24.3451309 2.82342402,17.3069069 2.82342402,11.5390268 C2.82342402,5.77114678 6.88701604,3.42529076 11.8821281,6.30939478 C16.8769121,9.1928428 20.9405041,16.2310668 20.9405041,21.9989469 C20.9405041,27.7668269 16.8769121,30.1130109 11.8821281,27.2292349" id="Fill-29" fill="#6882B3"></path>
                        </g>
                    </g>
                </g>
            </g>
        </g>
    </g>
</svg>