<?xml version="1.0" encoding="UTF-8"?>
<svg width="188px" height="168px" viewBox="0 0 188 168" version="1.1" xmlns="http://www.w3.org/2000/svg" xmlns:xlink="http://www.w3.org/1999/xlink">
    <!-- Generator: Sketch 61.1 (89650) - https://sketch.com -->
    <title>illustration</title>
    <desc>Created with Sketch.</desc>
    <defs>
        <path d="M13.8091182,38.9483208 C13.8802028,38.0613352 13.9565841,37.1825478 14.0382623,36.3119871 C14.1199405,35.4386247 14.2100014,34.6319342 14.3084449,33.8923764 C14.3600408,34.0326086 14.4278031,34.2313602 14.5117318,34.4886349 C14.5956604,34.7459281 14.6853905,35.0346662 14.7809221,35.3548368 C14.8764536,35.6750091 14.9783203,36.0151739 15.0865221,36.3753334 C15.1947239,36.7354976 15.2962093,37.0838157 15.3909785,37.4202723 C15.4857476,37.7567128 15.5743341,38.0698922 15.656738,38.3598152 C15.7391418,38.6497283 15.8050743,38.8876468 15.8545355,39.0735706 L16.5188642,39.4267885 C16.5829634,39.3008663 16.6674985,39.1423045 16.7724694,38.9509756 C16.8774403,38.7593564 16.9904236,38.5516089 17.1114194,38.3276574 C17.2324151,38.1033146 17.3608895,37.8741422 17.4968427,37.6401002 C17.6327959,37.4056134 17.7608891,37.1833955 17.8811225,36.9735161 C18.0013558,36.763285 18.1131955,36.5770469 18.2166416,36.4148975 C18.3200877,36.252524 18.402793,36.1299034 18.4647576,36.0471551 C18.4912305,36.8616904 18.503374,37.7329359 18.5011882,38.660315 C18.4990023,39.5853346 18.4907572,40.5131009 18.4764529,41.4434951 L19.2855711,41.8854568 C19.2982205,39.4822557 19.2590996,37.1135527 19.1682085,34.7819861 L18.4442606,34.4029694 C18.2775358,34.6158274 18.0970152,34.8754538 17.9026989,35.1815859 C17.7083826,35.4869296 17.5132276,35.8096526 17.317234,36.1496547 C17.1212404,36.4887348 16.9309248,36.8298786 16.7462873,37.1730961 C16.5616497,37.5154053 16.3929608,37.8267352 16.2402204,38.1073034 C16.1204157,37.6830902 15.9881694,37.2138454 15.8434817,36.6995589 C15.6987939,36.1852366 15.5484281,35.6679343 15.3923843,35.1476868 C15.2363405,34.62745 15.079458,34.1252787 14.9217369,33.6412143 C14.7640159,33.1572159 14.6152111,32.7316661 14.4753228,32.3645959 L13.7513749,32 C13.6774006,32.4663764 13.6063126,32.9634351 13.5381108,33.4910346 C13.469909,34.0175314 13.40386,34.5590108 13.3399639,35.1154011 C13.2760677,35.6705932 13.2159727,36.2364787 13.1596787,36.8130206 C13.1033847,37.3883151 13.0501585,37.9590162 13,38.5251674 L13.8091182,38.9483208 Z M21.4063126,43.0570489 L21.5522361,39.890215 L23.9795908,41.2311348 L24.0171009,40.4059895 L21.5897462,39.0711077 L21.6853512,36.9740196 L24.4193191,38.4619639 L24.4572867,37.6185342 L20.8971665,35.6961678 L20.5801603,42.5983757 L21.4063126,43.0570489 Z M25.3496994,45.2863028 L25.9672395,43.8174063 L28.6415882,45.3585472 C28.7187133,45.7158713 28.7932282,46.0663907 28.8651328,46.4101043 C28.9370373,46.7537396 29.0143912,47.1056956 29.0971944,47.4659847 L30,48 C29.8064247,47.1214847 29.6245286,46.3068111 29.4543115,45.5560911 C29.2840945,44.805094 29.1166875,44.0886117 28.9520904,43.4067279 C28.7874933,42.7246782 28.6231721,42.0688788 28.4591268,41.4393999 C28.2950815,40.8098489 28.1222904,40.1805518 27.9407536,39.5515834 L27.1827376,39.1265598 C26.9554568,39.5245322 26.7364642,39.9311722 26.52576,40.3464656 C26.3150558,40.7605274 26.1017885,41.1979328 25.8859581,41.6585118 C25.6701277,42.1176325 25.4485902,42.6048056 25.2213456,43.1197895 C24.994101,43.6329932 24.7501455,44.1913564 24.489479,44.7943788 L25.3496994,45.2863028 Z M26.2423117,43.1465427 C26.4448619,42.6601358 26.647993,42.1916126 26.851705,41.7410938 C27.0554169,41.2892122 27.2680743,40.8637055 27.4896771,40.464692 C27.6598579,41.0852539 27.82195,41.7238849 27.9759535,42.3804668 C28.1299569,43.0368651 28.2845413,43.7125603 28.4397064,44.4074979 L26.2423117,43.1465427 Z" id="path-1"></path>
        <filter x="-1.5%" y="-1.6%" width="105.9%" height="103.1%" filterUnits="objectBoundingBox" id="filter-2">
            <feOffset dx="0.5" dy="0" in="SourceAlpha" result="shadowOffsetOuter1"></feOffset>
            <feColorMatrix values="0 0 0 0 0   0 0 0 0 0   0 0 0 0 0  0 0 0 0.5 0" type="matrix" in="shadowOffsetOuter1"></feColorMatrix>
        </filter>
    </defs>
    <g id="Page-1" stroke="none" stroke-width="1" fill="none" fill-rule="evenodd">
        <g id="iAM" transform="translate(-1012.000000, -1518.000000)">
            <g id="multi_factor_authentication" transform="translate(240.000000, 1437.000000)">
                <g id="illustration" transform="translate(866.000000, 165.000000) scale(-1, 1) translate(-866.000000, -165.000000) translate(772.000000, 81.000000)">
                    <path d="M161.050022,11.9452278 C157.088341,9.64206767 152.196421,8.96478762 146.716981,10.1214677 C143.34282,10.8293477 139.7463,12.2369478 136.01514,14.391188 C132.44514,16.4515881 129.003659,19.0566683 125.760059,22.0656685 L141.59862,31.2619891 C144.84426,28.2570689 148.283701,25.6479088 151.853701,23.5915886 C155.578741,21.4414285 159.175261,20.0277084 162.553502,19.3198283 C168.026822,18.1672282 172.924862,18.8424683 176.878383,21.1435884 L161.050022,11.9452278" id="Fill-605" fill="#C7E6F4"></path>
                    <path d="M97.8140972,0.635467059 C93.909537,1.46166711 89.7458967,3.08958723 85.4312964,5.58246739 C78.2647759,9.71958767 71.5348155,15.7396281 65.6963351,22.8551486 C54.9373743,35.9743895 47.2078138,52.8268306 45.3269337,68.5042317 C42.0833335,69.2447517 38.6336932,70.6156318 35.067773,72.6719519 C28.8845326,76.2439922 23.0746122,81.4378325 18.0337718,87.572113 C7.24013109,100.711754 -0.0406293992,118.186395 -0.000169183363,133.414996 C0.0328106057,144.490157 3.94757087,152.282957 10.2572913,155.950878 L26.0938124,165.153318 C19.7820519,161.483358 15.8693317,153.690557 15.8346517,142.611317 C15.7918117,127.390876 23.0746122,109.914194 33.8682529,96.7745536 C38.9090932,90.6402732 44.7190136,85.4484728 50.9022541,81.8764326 C54.4722543,79.8119524 57.9116945,78.4471923 61.1614147,77.7046323 C63.0382149,62.0251912 70.7718554,45.1768301 81.5328561,32.0514692 C87.3692965,24.9379887 94.099257,18.9240683 101.269857,14.780828 C105.584458,12.2920278 109.746058,10.6620677 113.646538,9.83790768 C119.976659,8.50782759 125.637659,9.28710765 130.209299,11.9472678 L114.374818,2.7448272 C109.805218,0.0846670214 104.144218,-0.692573031 97.8140972,0.635467059 Z" id="Fill-606" fill="#C7E6F4"></path>
                    <path d="M141.59862,31.2619891 C144.84426,28.2570689 148.283701,25.6479088 151.853701,23.5915886 C171.268382,12.3838279 187.082463,21.3741085 187.146059,43.70395 C187.206903,66.0215515 171.498902,93.2086333 152.078101,104.420474 L51.1327741,162.703278 C31.7099328,173.913079 15.8999317,164.926878 15.8343195,142.611317 C15.7754917,120.275355 31.4855327,93.0862333 50.9022541,81.8764326 C54.4722543,79.8119524 57.9116945,78.4471923 61.1614147,77.7046323 C64.0582149,53.5224706 80.8800561,26.5495888 101.269857,14.780828 C121.655579,3.01410722 138.57738,10.4968277 141.59862,31.2619891 Z" id="Fill-607" fill="#E9F6FA"></path>
                    <g id="Group-16" transform="translate(82.000000, 31.000000)">
                        <path d="M48.7966671,0 C41.6846672,4.43659992 26.7382675,5.31439991 24.4520675,5.41379991 L24.4016675,5.44179991 C22.1070676,7.94919986 7.16066782,24.0799996 0.0514679444,27.7381995 C0.0514679444,49.8973992 -0.558932045,69.8417988 2.4244679,76.3853987 C5.98046784,84.1721986 14.6870677,85.5203985 24.4016675,85.1899985 L24.4016675,85.2263985 L24.4240675,85.1969985 L24.4520675,85.1969985 L24.4520675,85.1577985 C31.7320674,77.1189987 38.4520673,68.7791988 42.8592672,60.117399 C44.3278672,57.226399 45.5388672,54.3059991 46.4264672,51.3477991 C49.3132671,41.7213993 53.749867,23.8713996 53.7192265,2.58579996 L48.7966671,0" id="Fill-128" fill="#0069C2"></path>
                        <path d="M0.150867943,27.6849995 L0.0514679444,27.7381995 C0.0514679444,49.8973992 -0.558932045,69.8417988 2.4244679,76.3853987 C5.98046784,84.1721986 14.6870677,85.5203985 24.4016675,85.1899985 L24.4016675,85.2263985 L24.4240675,85.1969985 L24.4520675,85.1969985 L24.4520675,85.1577985 C25.7106675,83.7689986 26.9538675,82.3689986 28.1690675,80.9619986 L19.6220676,38.7911993 L0.150867943,27.6849995" id="Fill-129" fill="#054F8E"></path>
                        <path d="M53.719067,2.58579996 C46.6056672,7.02239988 31.6592674,7.90019987 29.3730674,7.99819986 L29.3730674,7.97859986 L29.3450674,8.00799986 L29.3226674,8.01079986 L29.3226674,8.02759986 C27.0266675,10.5363998 12.0816677,26.6671995 4.97246786,30.3225995 C4.97246786,52.4831991 4.36206787,72.4275988 7.34546782,78.9697987 C10.9014678,86.7579985 19.6094676,88.1061985 29.3226674,87.7757985 L29.3226674,87.8121985 L29.3450674,87.7813985 L29.3730674,87.7827985 L29.3730674,87.7449985 C36.6530673,79.7047986 43.3730672,71.3649988 47.7802671,62.7017989 C49.2488671,59.812199 50.4598671,56.891799 51.3460671,53.9335991 C54.328067,43.9963993 53.719067,24.7477996 53.719067,2.58579996" id="Fill-130" fill="#1486FC"></path>
                        <g id="Group-18" transform="translate(12.000000, 17.000000)">
                            <path d="M27.209,33.501 C27.209,35.68 25.285,38.55 22.913,39.913 L15.266,44.307 L8.229,55.225 L0.946,51.06 L0.947,51.058 C0.356,50.723 1.13686838e-13,50.068 1.13686838e-13,49.133 L1.13686838e-13,29.145 C1.13686838e-13,26.968 1.924,24.096 4.296,22.733 L22.913,12.038 C24.271,11.258 25.481,11.142 26.268,11.592 L33.635,15.808 L27.209,25.777 L27.209,33.501" id="Fill-361" fill="#DAD7D3"></path>
                            <path d="M0.381,27.301 C1.056,25.546 2.555,23.734 4.296,22.733 L22.913,12.038 C24.271,11.258 25.481,11.142 26.268,11.592 L33.635,15.808 L27.649,25.095 L8.066,32.283 C5.632,32.257 0.972,29.214 0.381,27.301" id="Fill-362" fill="#FFFFFF"></path>
                            <path d="M34.497,37.67 C34.497,39.849 32.573,42.719 30.201,44.082 L11.583,54.777 C9.212,56.14 7.287,55.481 7.287,53.302 L7.287,33.314 C7.287,31.137 9.212,28.265 11.583,26.902 L30.201,16.207 C32.573,14.844 34.497,15.505 34.497,17.683 L34.497,37.67" id="Fill-363" fill="#E5E5E5"></path>
                            <path d="M10.436,25.079 C10.436,26.1 8.867,26.695 7.815,26.6861007 C6.761,26.677 5.162,26.39 5.128,25.079 L5.128,18.354 C5.128,15.269 6.348,11.847 8.311,8.818 C10.237,5.849 12.912,3.203 15.87,1.6 L16.027,1.522 C17.977,0.49 19.865,8.52651283e-14 21.565,8.52651283e-14 C22.959,8.52651283e-14 24.241,0.326 25.355,0.949 C26.503,1.593 27.438,2.54 28.101,3.763 C28.771,5 29.142,6.498 29.142,8.216 L29.131,8.216 L29.131,14.615 C29.096,15.467 27.935,16.214 26.475,16.214 C25.016,16.214 23.832,15.678 23.844,14.615 L23.844,8.216 L23.834,8.216 C23.834,7.396 23.692,6.745 23.436,6.272 C23.268,5.963 23.039,5.728 22.763,5.573 C22.451,5.399 22.047,5.308 21.565,5.308 C20.699,5.308 19.667,5.593 18.524,6.193 L18.4,6.264 C16.214,7.449 14.212,9.443 12.748,11.701 C11.321,13.9 10.436,16.295 10.436,18.354 L10.436,25.079" id="Fill-364" fill="#1C3B59"></path>
                            <path d="M10.436,25.079 C10.436,26.1 8.867,26.695 7.815,26.6861007 C7.368,26.682 6.826,26.628 6.345,26.468 L6.345,18.658 C6.345,15.573 7.564,12.151 9.527,9.123 C11.453,6.153 14.129,3.507 17.087,1.904 L17.243,1.826 C19.193,0.795 21.081,0.305 22.78,0.305 C23.253,0.305 23.713,0.343 24.157,0.417 C24.574,0.559 24.975,0.736 25.355,0.949 C26.503,1.593 27.438,2.54 28.101,3.763 C28.771,5 29.142,6.498 29.142,8.216 L29.131,8.216 L29.131,14.615 C29.096,15.467 27.935,16.214 26.475,16.214 C25.955,16.214 25.469,16.147 25.061,16.011 L25.061,8.52 L25.05,8.52 C25.05,7.7 24.908,7.049 24.652,6.576 C24.485,6.268 24.256,6.032 23.979,5.877 C23.679,5.709 23.29,5.619 22.828,5.613 L22.763,5.573 C22.451,5.399 22.047,5.308 21.565,5.308 C20.699,5.308 19.667,5.593 18.524,6.193 L18.4,6.264 C16.214,7.449 14.212,9.443 12.748,11.701 C11.321,13.9 10.436,16.295 10.436,18.354 L10.436,25.079" id="Fill-365" fill="#6882B3"></path>
                            <path d="M10.099,8.786 C11.942,6.272 14.31,4.074 16.895,2.673 L17.052,2.595 C19.001,1.564 20.89,1.074 22.589,1.074 C23.062,1.074 23.521,1.112 23.965,1.186 C24.382,1.328 24.782,1.505 25.162,1.718 C26.218,2.31 27.092,3.158 27.741,4.241 C27.209,3.749 26.605,3.333 25.935,3 C25.506,2.787 25.055,2.609 24.585,2.467 C24.084,2.393 23.567,2.356 23.034,2.356 C21.12,2.356 18.992,2.846 16.796,3.876 L16.619,3.955 C14.214,5.112 11.975,6.813 10.099,8.786" id="Fill-366" fill="#E5E6E3"></path>
                            <path d="M32.166,37.525 C32.166,39.195 30.693,41.394 28.875,42.439 L14.61,50.633 C12.793,51.677 11.318,51.172 11.318,49.502 L11.318,34.188 C11.318,32.52 12.793,30.319 14.61,29.275 L28.875,21.08 C30.693,20.036 32.166,20.543 32.166,22.211 L32.166,37.525" id="Fill-370" fill="#FFFFFF"></path>
                            <path d="M32.166,37.525 C32.166,37.861 32.108,38.218 31.997,38.583 C30.033,37.516 28.151,35.926 27.791,34.756 C28.118,33.905 27.557,28.036 27.091,22.105 L28.875,21.08 C30.693,20.036 32.166,20.543 32.166,22.211 L32.166,37.525" id="Fill-371" fill="#FFFFFF"></path>
                            <path d="M11.613,50.585 C11.424,50.312 11.318,49.949 11.318,49.502 L11.318,34.188 C11.318,32.52 12.793,30.319 14.61,29.275 L28.875,21.08 C29.685,20.615 30.426,20.458 30.999,20.574 C31.189,20.847 31.294,21.209 31.294,21.655 L31.294,36.97 C31.294,38.64 29.819,40.839 28.002,41.883 L13.737,50.078 C12.928,50.543 12.187,50.7 11.613,50.585" id="Fill-372" fill="#6882B3"></path>
                            <g id="MFA" fill-rule="nonzero" transform="translate(21.500000, 40.000000) scale(-1, 1) translate(-21.500000, -40.000000) ">
                                <use fill="black" fill-opacity="1" filter="url(#filter-2)" xlink:href="#path-1"></use>
                                <use fill="#FFFFFF" xlink:href="#path-1"></use>
                            </g>
                        </g>
                    </g>
                </g>
            </g>
        </g>
    </g>
</svg>