<?xml version="1.0" encoding="UTF-8"?>
<svg width="119px" height="100px" viewBox="0 0 119 100" version="1.1" xmlns="http://www.w3.org/2000/svg" xmlns:xlink="http://www.w3.org/1999/xlink">
    <!-- Generator: Sketch 63.1 (92452) - https://sketch.com -->
    <title>Group 21</title>
    <desc>Created with Sketch.</desc>
    <g id="Page-1" stroke="none" stroke-width="1" fill="none" fill-rule="evenodd">
        <g id="Microservice-Arcitecture" transform="translate(-247.000000, -4079.000000)" fill-rule="nonzero">
            <g id="CCO-Through-Gov" transform="translate(240.000000, 2628.000000)">
                <g id="1" transform="translate(1.000000, 193.000000)">
                    <g id="Group-6" transform="translate(6.000000, 1258.000000)">
                        <g id="Group-21">
                            <g id="blob-shape" opacity="0.49546596" fill="#FFB4BC">
                                <path d="M113.820005,13.2000005 C122.190005,24.090001 118.950005,43.8900017 113.490005,61.3200024 C108.060004,78.7800031 100.380004,93.8700037 89.0100035,98.1600039 C77.6400031,102.480004 62.5500025,96.0000038 45.7500018,89.3100035 C28.9500012,82.6500033 10.4700004,75.810003 3.42000014,61.5900024 C-3.63000014,47.3400019 0.75000003,25.740001 12.9900005,13.9500006 C25.200001,2.16000009 45.3000018,0.180000007 65.3700026,0.209667361 C85.4100034,0.24000001 105.420004,2.28000009 113.820005,13.2000005 Z" id="Path"></path>
                            </g>
                            <g id="dashboard" transform="translate(14.000000, 0.000000)">
                                <path d="M84,50.295 L84,20.88 C89.0805,20.148 93,15.7785 93,10.5 C93,4.7115 88.29,0 82.5,0 C76.71,0 72,4.7115 72,10.5 L0,10.5 L0,70.5 L45.0765,70.5 C45.8565,83.034 56.274,93 69,93 C82.233,93 93,82.233 93,69 C93,61.4415 89.4795,54.6975 84,50.295 Z M82.5,3 C86.6355,3 90,6.3645 90,10.5 C90,14.6355 86.6355,18 82.5,18 C78.3645,18 75,14.6355 75,10.5 C75,6.3645 78.3645,3 82.5,3 Z M3,13.5 L72.4425,13.5 C72.801,14.697 73.371,15.7995 74.103,16.7775 L64.929,25.9515 C64.341,25.6695 63.693,25.5 63,25.5 C62.307,25.5 61.659,25.6695 61.0725,25.9515 L58.05,22.929 C58.3305,22.341 58.5,21.693 58.5,21 C58.5,18.519 56.481,16.5 54,16.5 C51.519,16.5 49.5,18.519 49.5,21 C49.5,21.693 49.6695,22.341 49.9515,22.9275 L42.429,30.45 C41.841,30.1695 41.193,30 40.5,30 C38.019,30 36,32.019 36,34.5 C36,36.981 38.019,39 40.5,39 C42.981,39 45,36.981 45,34.5 C45,33.807 44.8305,33.159 44.5485,32.5725 L52.071,25.05 C52.659,25.3305 53.307,25.5 54,25.5 C54.693,25.5 55.341,25.3305 55.9275,25.0485 L58.95,28.071 C58.6695,28.659 58.5,29.307 58.5,30 C58.5,32.481 60.519,34.5 63,34.5 C65.481,34.5 67.5,32.481 67.5,30 C67.5,29.307 67.3305,28.659 67.0485,28.0725 L76.224,18.8985 C77.5965,19.9275 79.2255,20.625 81,20.8815 L81,48.249 C77.4645,46.1955 73.374,45 69,45 C61.83,45 55.401,48.177 51,53.1795 L51,46.5 L42,46.5 L42,64.5 L45.438,64.5 C45.252,65.4795 45.1395,66.483 45.0765,67.5 L3,67.5 L3,13.5 Z M63,28.5 C63.8265,28.5 64.5,29.172 64.5,30 C64.5,30.828 63.8265,31.5 63,31.5 C62.1735,31.5 61.5,30.828 61.5,30 C61.5,29.172 62.1735,28.5 63,28.5 Z M52.5,21 C52.5,20.172 53.1735,19.5 54,19.5 C54.8265,19.5 55.5,20.172 55.5,21 C55.5,21.828 54.8265,22.5 54,22.5 C53.1735,22.5 52.5,21.828 52.5,21 Z M42,34.5 C42,35.328 41.3265,36 40.5,36 C39.6735,36 39,35.328 39,34.5 C39,33.672 39.6735,33 40.5,33 C41.3265,33 42,33.672 42,34.5 Z M69,81 C62.3835,81 57,75.6165 57,69 C57,62.3835 62.3835,57 69,57 C75.6165,57 81,62.3835 81,69 C81,75.6165 75.6165,81 69,81 Z M48,57.4065 C47.2815,58.7025 46.6875,60.072 46.2165,61.5 L45,61.5 L45,49.5 L48,49.5 L48,57.4065 Z M67.5,48.0765 L67.5,54.0765 C59.931,54.8325 54,61.236 54,69 C54,71.1945 54.486,73.275 55.3365,75.156 L50.133,78.1605 C48.78,75.3885 48,72.2865 48,69 C48,57.927 56.6205,48.8505 67.5,48.0765 Z M69,90 C61.779,90 55.398,86.3355 51.618,80.7675 L56.8425,77.751 C59.5695,81.528 63.996,84 69,84 C74.004,84 78.4305,81.528 81.1575,77.751 L86.382,80.7675 C82.602,86.3355 76.221,90 69,90 L69,90 Z M87.867,78.1605 L82.6635,75.156 C83.514,73.275 84,71.1945 84,69 C84,61.236 78.069,54.831 70.5,54.0765 L70.5,48.0765 C81.3795,48.8505 90,57.927 90,69 C90,72.2865 89.22,75.3885 87.867,78.1605 Z" id="Shape" fill="#FF0000"></path>
                                <path d="M69,60 C64.0365,60 60,64.0365 60,69 C60,73.9635 64.0365,78 69,78 C73.9635,78 78,73.9635 78,69 C78,64.0365 73.9635,60 69,60 Z M69,75 C65.691,75 63,72.309 63,69 C63,65.691 65.691,63 69,63 C72.309,63 75,65.691 75,69 C75,72.309 72.309,75 69,75 Z" id="Shape" fill="#262626"></path>
                                <polygon id="Path" fill="#FF0000" points="6 16.5 9 16.5 9 19.5 6 19.5"></polygon>
                                <polygon id="Path" fill="#FF0000" points="12 16.5 33 16.5 33 19.5 12 19.5"></polygon>
                                <polygon id="Path" fill="#FF0000" points="6 22.5 9 22.5 9 25.5 6 25.5"></polygon>
                                <polygon id="Path" fill="#FF0000" points="12 22.5 33 22.5 33 25.5 12 25.5"></polygon>
                                <polygon id="Path" fill="#FF0000" points="6 28.5 9 28.5 9 31.5 6 31.5"></polygon>
                                <polygon id="Path" fill="#FF0000" points="12 28.5 33 28.5 33 31.5 12 31.5"></polygon>
                                <polygon id="Path" fill="#FF0000" points="6 34.5 9 34.5 9 37.5 6 37.5"></polygon>
                                <polygon id="Path" fill="#FF0000" points="12 34.5 33 34.5 33 37.5 12 37.5"></polygon>
                                <path d="M6,64.5 L15,64.5 L15,49.5 L6,49.5 L6,64.5 Z M9,52.5 L12,52.5 L12,61.5 L9,61.5 L9,52.5 Z" id="Shape" fill="#262626"></path>
                                <path d="M18,64.5 L27,64.5 L27,52.5 L18,52.5 L18,64.5 Z M21,55.5 L24,55.5 L24,61.5 L21,61.5 L21,55.5 Z" id="Shape" fill="#262626"></path>
                                <path d="M30,64.5 L39,64.5 L39,40.5 L30,40.5 L30,64.5 Z M33,43.5 L36,43.5 L36,61.5 L33,61.5 L33,43.5 Z" id="Shape" fill="#262626"></path>
                            </g>
                        </g>
                    </g>
                </g>
            </g>
        </g>
    </g>
</svg>