<?xml version="1.0" encoding="UTF-8"?>
<svg width="119px" height="100px" viewBox="0 0 119 100" version="1.1" xmlns="http://www.w3.org/2000/svg" xmlns:xlink="http://www.w3.org/1999/xlink">
    <!-- Generator: Sketch 63.1 (92452) - https://sketch.com -->
    <title>Group 21</title>
    <desc>Created with Sketch.</desc>
    <g id="Page-1" stroke="none" stroke-width="1" fill="none" fill-rule="evenodd">
        <g id="Microservice-Arcitecture" transform="translate(-247.000000, -2821.000000)" fill-rule="nonzero">
            <g id="CCO-Through-Gov" transform="translate(240.000000, 2628.000000)">
                <g id="1" transform="translate(1.000000, 193.000000)">
                    <g id="Group-6" transform="translate(6.000000, 0.000000)">
                        <g id="Group-21">
                            <g id="blob-shape" opacity="0.49546596" fill="#FFB4BC">
                                <path d="M113.820005,13.2000005 C122.190005,24.090001 118.950005,43.8900017 113.490005,61.3200024 C108.060004,78.7800031 100.380004,93.8700037 89.0100035,98.1600039 C77.6400031,102.480004 62.5500025,96.0000038 45.7500018,89.3100035 C28.9500012,82.6500033 10.4700004,75.810003 3.42000014,61.5900024 C-3.63000014,47.3400019 0.75000003,25.740001 12.9900005,13.9500006 C25.200001,2.16000009 45.3000018,0.180000007 65.3700026,0.209667361 C85.4100034,0.24000001 105.420004,2.28000009 113.820005,13.2000005 Z" id="Path"></path>
                            </g>
                            <g id="decision" transform="translate(15.000000, 4.000000)">
                                <path d="M27.6119995,55.2959989 L27.6119995,52.223999 C14.0954996,52.223999 3.03599994,41.3182492 3.03599994,27.6479995 C3.03599994,13.9777497 13.9417497,3.07199994 27.6119995,3.07199994 C33.6029993,3.07199994 39.4394991,5.22224994 44.047499,9.21599982 C37.5959993,16.4354996 35.4457492,26.4194994 38.2109992,35.7884994 L41.1292492,34.8674992 C38.6714991,26.7262495 40.5149992,17.8177496 46.197749,11.3662498 C51.881249,17.8177496 53.7239989,26.5724996 51.266999,34.8674992 L54.185249,35.7884994 C56.9497488,26.5724996 54.7994988,16.4354996 48.347999,9.21599982 C58.3319988,0.307499898 73.8457485,1.22850007 82.9079984,11.3662498 C91.9709982,21.5039996 90.8954981,37.0177492 80.7577483,46.0799991 C76.3034984,50.073749 70.4669986,52.223999 64.4759987,52.223999 L64.4759987,55.2959989 C79.6829984,55.2959989 92.1239982,43.0079991 92.1239982,27.6479995 C92.1239982,12.2879998 79.8359984,0 64.4759987,0 C57.7177488,0 51.113249,2.4577499 46.0439991,7.06574981 C34.6777493,-3.07199994 17.1674996,-2.15025001 7.02974981,9.21599982 C-3.10799994,20.5822496 -2.18625,38.0924993 9.17999982,48.2302491 C14.2492498,52.838249 20.8537495,55.2959989 27.6119995,55.2959989 Z" id="Path" fill="#FF0000"></path>
                                <path d="M21.0074995,72.1919986 L16.3994996,92.1599982 L75.5354984,92.1599982 L70.9274985,72.1919986 C70.4669986,70.5022486 69.0839986,69.1199986 67.3949987,68.6594985 L55.8749989,66.3554986 L58.6394987,60.8257487 C59.4074987,59.2897488 59.7149988,57.7537488 59.7149988,56.0639989 L59.7149988,46.0799991 C59.7149988,41.7794991 56.3354988,38.3999992 52.034999,38.3999992 L39.7469992,38.3999992 C35.4457492,38.3999992 32.0669994,41.7794991 32.0669994,46.0799991 L32.0669994,56.2177488 C32.0669994,57.9074988 32.5274993,59.5964989 33.1417493,60.9794987 L35.9069993,66.5084988 L24.3869995,68.8124987 C22.8509995,69.1199986 21.4679996,70.5022486 21.0074995,72.1919986 L21.0074995,72.1919986 Z M68.0092487,72.9599986 L71.6954985,89.0879982 L47.5799991,89.0879982 L47.5799991,85.0942484 L60.6359988,70.5022486 L66.7799987,71.7314985 C67.3949987,71.8844987 67.8554986,72.3457485 68.0092487,72.9599986 L68.0092487,72.9599986 Z M57.1034988,69.8879986 L47.5799991,80.4862484 L47.5799991,74.4959985 L54.185249,69.2737486 L57.1034988,69.8879986 Z M39.8999992,41.4719992 L52.187999,41.4719992 C54.7994988,41.4719992 56.7959989,43.4684992 56.7959989,46.0799991 L56.7959989,50.2274989 C50.498999,45.465749 41.5897491,45.465749 35.2919993,50.2274989 L35.2919993,46.0799991 C35.2919993,43.4684992 37.2892493,41.4719992 39.8999992,41.4719992 Z M35.2919993,56.2177488 L35.2919993,54.374249 C40.9754991,48.383999 50.345249,48.2302491 56.3354988,53.9137489 C56.4892489,54.0674988 56.6429989,54.220499 56.7959989,54.374249 L56.7959989,56.2177488 C56.7959989,57.4462489 56.4892489,58.5217488 56.0279989,59.5964989 L52.4954989,66.5084988 L46.0439991,71.7314985 L39.5932493,66.5084988 L36.0599993,59.5964989 C35.5994992,58.5217488 35.2919993,57.4462489 35.2919993,56.2177488 Z M37.9034992,69.2737486 L44.5079991,74.4959985 L44.5079991,80.7937483 L33.7559993,70.0417486 L37.9034992,69.2737486 Z M30.2234993,70.8097485 L44.5079991,85.0942484 L44.5079991,89.0879982 L20.3932496,89.0879982 L24.0794994,72.9599986 C24.2332496,72.3457485 24.6937495,71.8844987 25.3079995,71.7314985 L30.2234993,70.8097485 Z" id="Shape" fill="#FF0000"></path>
                                <polygon id="Path" fill="#262626" points="60.9434987 37.9394992 69.0839986 29.7982495 77.2252485 37.9394992 79.3754983 35.7884994 71.2349986 27.6479995 79.3754983 19.5074995 77.2252485 17.3564998 69.0839986 25.4977494 60.9434987 17.3564998 58.7932489 19.5074995 66.9337486 27.6479995 58.7932489 35.7884994"></polygon>
                                <polygon id="Path" fill="#262626" points="31.1452494 17.3564998 15.3239997 33.1777493 11.7914997 29.6444995 9.64124986 31.7954993 15.3239997 37.4782493 33.2954992 19.5074995"></polygon>
                                <polygon id="Path" fill="#262626" points="27.6119995 81.4079984 35.2919993 81.4079984 35.2919993 84.4799983 27.6119995 84.4799983"></polygon>
                                <polygon id="Path" fill="#262626" points="56.7959989 81.4079984 64.4759987 81.4079984 64.4759987 84.4799983 56.7959989 84.4799983"></polygon>
                            </g>
                        </g>
                    </g>
                </g>
            </g>
        </g>
    </g>
</svg>