<?xml version="1.0" encoding="UTF-8"?>
<svg width="119px" height="100px" viewBox="0 0 119 100" version="1.1" xmlns="http://www.w3.org/2000/svg" xmlns:xlink="http://www.w3.org/1999/xlink">
    <!-- Generator: Sketch 63.1 (92452) - https://sketch.com -->
    <title>Group 21</title>
    <desc>Created with Sketch.</desc>
    <g id="Page-1" stroke="none" stroke-width="1" fill="none" fill-rule="evenodd">
        <g id="Microservice-Arcitecture" transform="translate(-247.000000, -3429.000000)" fill-rule="nonzero">
            <g id="CCO-Through-Gov" transform="translate(240.000000, 2628.000000)">
                <g id="1" transform="translate(1.000000, 193.000000)">
                    <g id="Group-6" transform="translate(6.000000, 608.000000)">
                        <g id="Group-21">
                            <g id="blob-shape" opacity="0.49546596" fill="#FFB4BC">
                                <path d="M113.820005,13.2000005 C122.190005,24.090001 118.950005,43.8900017 113.490005,61.3200024 C108.060004,78.7800031 100.380004,93.8700037 89.0100035,98.1600039 C77.6400031,102.480004 62.5500025,96.0000038 45.7500018,89.3100035 C28.9500012,82.6500033 10.4700004,75.810003 3.42000014,61.5900024 C-3.63000014,47.3400019 0.75000003,25.740001 12.9900005,13.9500006 C25.200001,2.16000009 45.3000018,0.180000007 65.3700026,0.209667361 C85.4100034,0.24000001 105.420004,2.28000009 113.820005,13.2000005 Z" id="Path"></path>
                            </g>
                            <g id="noun_Microservices_2324129" transform="translate(15.000000, 7.000000)">
                                <path d="M17.414094,47.8065639 L17.414094,45.0678928 C17.414094,45.0403931 17.4177219,45.0138221 17.4180774,44.9864094 L11.609396,44.9864094 L11.609396,43.8980285 C11.6093809,43.3819138 11.3352639,42.9046382 10.8894756,42.6445475 L6.53595207,40.1049922 C6.08408006,39.8414011 5.52531592,39.8414011 5.0734439,40.1049922 L0.719920412,42.6445475 C0.274132094,42.9046382 0,43.3819138 0,43.8980285 L0,48.9771393 C0,49.4932303 0.274197364,49.9704647 0.719920412,50.2306203 L5.0734439,52.7701756 C5.52531775,53.0337695 6.08408548,53.0337695 6.53595933,52.7701756 L10.8894828,50.2306203 C11.3352031,49.9704629 11.6092935,49.4932288 11.609396,48.9771393 L11.609396,47.8887584 L17.4180774,47.8887584 C17.4177727,47.8610772 17.414094,47.8342886 17.414094,47.8065639 Z M8.70704698,48.1438458 L5.80469799,49.8366409 L2.90234899,48.1438458 L2.90234899,44.7316775 L5.80469799,43.0385196 L8.70704698,44.7316775 L8.70704698,48.1438458 Z" id="Shape" fill="#262626"></path>
                                <path d="M65.9908832,24.9424172 L67.9331061,26.8871144 C67.9512458,26.9052541 67.9662292,26.9251569 67.9841222,26.9434054 L71.5016966,23.4258745 L75.5694838,24.4963624 C76.068555,24.6278195 76.5998858,24.4841307 76.9646793,24.1190571 L80.5564813,20.5276106 C80.921427,20.1627426 81.065219,19.6315512 80.9341567,19.1324152 L79.6516232,14.2580869 C79.5182905,13.7521518 79.1230763,13.3570735 78.6170954,13.2239147 L73.7427671,11.9413812 C73.243695,11.8096241 72.7122148,11.9533533 72.3475717,12.3186865 L68.7564808,15.910133 C68.3915761,16.2750249 68.2477905,16.8061926 68.3788053,17.3053284 L69.4493803,21.3740879 L65.9332208,24.8902039 C65.9519119,24.908496 65.9723299,24.923922 65.9908832,24.9424172 Z M73.8100799,14.9602812 L77.0596369,15.8151826 L77.9148938,19.0647396 L75.5021711,21.4774624 L72.2533252,20.6225537 L71.3980682,17.3729967 L73.8100799,14.9602812 Z" id="Shape" fill="#FF0000"></path>
                                <path d="M26.8885365,67.9359432 L24.9456098,65.9915943 C24.9263454,65.9723735 24.91031,65.9512516 24.8913141,65.9318494 L21.3737832,69.4493368 L17.305684,68.3788053 C16.8065472,68.2475329 16.2752512,68.3913532 15.9104885,68.7564808 L12.3186865,72.3475789 C11.9537819,72.7124708 11.8099963,73.2436385 11.9410111,73.7427744 L13.2235446,78.6171026 C13.3568538,79.1231243 13.7520507,79.5183212 14.2580724,79.6516304 L19.1324007,80.9341639 C19.6315358,81.0650073 20.1626183,80.9212448 20.5275961,80.5564885 L24.118687,76.9646865 C24.4835917,76.5997947 24.6273772,76.0686269 24.4963624,75.5694911 L23.425831,71.5013918 L26.9425057,67.9847462 C26.9250263,67.9676513 26.9058926,67.9532557 26.8885365,67.9359432 Z M19.0643841,77.9148938 L15.8155382,77.0596369 L14.9602812,73.8107909 L17.373004,71.3980682 L20.6218426,72.2533252 L21.4770996,75.5021711 L19.0643841,77.9148938 Z" id="Shape" fill="#FF0000"></path>
                                <path d="M66.0929225,58.2255396 L64.424217,56.556123 C65.2341021,55.1188697 65.8681128,53.5893904 66.3125796,52.0006613 L68.6700125,52.0006613 C70.8994594,51.910767 72.6373128,50.0364379 72.5587248,47.8065639 L72.5587248,45.0678928 C72.6369897,42.838333 70.8991657,40.9645019 68.6700343,40.874862 L66.3126013,40.874862 C65.8691549,39.2861139 65.2350898,37.7568625 64.4242315,36.3204524 L66.0943592,34.6492654 C67.6037971,33.0097888 67.507928,30.4596227 65.8796579,28.9381028 L63.9409251,26.9969247 C62.4190534,25.3661726 59.865955,25.270412 58.2261999,26.782579 L56.5560722,28.4516401 C55.1198965,27.6405576 53.5907348,27.0064801 52.0020182,26.5632703 L52.0020182,24.2040741 C51.9115481,21.9747945 50.0369919,20.2374812 47.8072749,20.316443 L45.0700188,20.316443 C42.8399162,20.2371341 40.9647364,21.9744152 40.8738026,24.2040741 L40.8738026,26.563292 C39.2851168,27.0064314 37.7559607,27.6403871 36.3197486,28.4513063 L34.6517469,26.7822452 C33.0100149,25.2714134 30.4568155,25.3682523 28.9342427,26.9991015 L27.0005527,28.9353021 C25.3667471,30.4552792 25.268569,33.009863 26.7808957,34.6507528 L28.4517272,36.3212361 C27.6410787,37.7574983 27.0070229,39.2864885 26.5633573,40.8749346 L24.2037476,40.8749346 C21.9750271,40.9649524 20.237832,42.8387408 20.316443,45.0678928 L20.316443,47.8065566 C20.2374714,50.0360315 21.9746741,51.9103544 24.2037186,52.0006613 L26.5633283,52.0006613 C27.0077605,53.5892897 27.6420271,55.1185681 28.4524092,56.5554192 L26.7794155,58.2269255 C25.2694641,59.8677458 25.3672663,62.4197557 26.9983687,63.9401995 L28.9370507,65.8795854 C30.4620001,67.5057969 33.012003,67.6009336 34.6538874,66.0928717 L36.3204742,64.422744 C37.7567274,65.2333182 39.2855475,65.8676138 40.8737809,66.3118757 L40.8737809,68.6721603 C40.9652063,70.9014415 42.8402773,72.6381363 45.0700188,72.5587248 L47.8072749,72.5587248 C50.0366428,72.6377974 51.9111067,70.9010671 52.0020762,68.672153 L52.0020762,66.3118757 C53.5906975,65.8677548 55.1198071,65.2332239 56.5561303,64.422091 L58.2276511,66.0957523 C59.8698953,67.6029891 62.4198686,67.505607 63.9423763,65.8775102 L65.8810583,63.9388354 C67.5082466,62.4155434 67.6028215,59.8651632 66.0929225,58.2255396 Z M63.8269136,61.8881952 L61.8917724,63.8233364 C61.4954625,64.3090147 60.7908033,64.4049905 60.2790386,64.0429934 L57.8075071,61.5686248 C57.3256087,61.0855054 56.5720619,61.0037771 55.9977909,61.3723462 C54.2358628,62.5041079 52.2862937,63.3127253 50.2405681,63.7602539 C49.5745051,63.9063139 49.0998548,64.4962344 49.099749,65.1781239 L49.099749,68.6721385 C49.099749,69.2056991 48.5080834,69.6563613 47.8072967,69.6563613 L45.0700188,69.6563613 C44.3685211,69.6563613 43.7761516,69.2057063 43.7761516,68.6721385 L43.7761516,65.1781457 C43.7760459,64.4962561 43.3013955,63.9063357 42.6353326,63.7602756 C40.5896672,63.3132618 38.6402431,62.5046046 36.8788208,61.372368 C36.3039485,61.0037686 35.5498786,61.0857828 35.0676898,61.5693504 L32.6032472,64.0394671 C32.0922417,64.4040709 31.3861455,64.3105446 30.9876836,63.8254769 L29.0504165,61.8875132 C28.5651766,61.4922551 28.4700066,60.788235 28.8328854,60.2783275 L31.3058319,57.8075071 C31.7878129,57.3257021 31.8697536,56.5734855 31.5028143,55.9992058 C30.3717978,54.2364585 29.5634712,52.2865193 29.1156323,50.2405681 C28.9703564,49.5738126 28.3801608,49.098352 27.6977622,49.0983341 L24.2037186,49.0983341 C23.5859476,48.9951533 23.1547408,48.4296085 23.2187919,47.8065639 L23.2187919,45.0678928 C23.154887,44.4451143 23.5861593,43.8799603 24.2037186,43.777211 L27.6977332,43.777211 C28.3800245,43.7772296 28.9701831,43.3019467 29.1156032,42.6353326 C29.562145,40.5898611 30.3703249,38.6405529 31.502096,36.8791764 C31.8695773,36.3048965 31.7879168,35.5522709 31.3058174,35.0701713 L28.8349969,32.6000546 C28.4695715,32.0901787 28.5646146,31.3838835 29.0518241,30.988743 L30.9855141,29.0521869 C31.3824167,28.5660834 32.0882373,28.4709633 32.5996628,28.8346559 L35.0683573,31.3047725 C35.5503154,31.7870969 36.3030297,31.868915 36.8773624,31.5014067 C38.6389062,30.3698365 40.5883522,29.5619012 42.6339177,29.1156395 C43.3006731,28.9703637 43.7761338,28.3801681 43.7761516,27.6977695 L43.7761516,24.2040741 C43.7761516,23.670158 44.3685283,23.2187919 45.0700188,23.2187919 L47.8072749,23.2187919 C48.4306485,23.1545069 48.9965854,23.5859407 49.0997272,24.2040741 L49.0997272,27.6977332 C49.0996241,28.3801745 49.5751383,28.9704365 50.2419612,29.1156032 C52.287447,29.5620755 54.2368425,30.369996 55.9984729,31.5013704 C56.5725131,31.8685703 57.3246937,31.7870802 57.8067742,31.3054618 L60.2790168,28.8346413 C60.7885653,28.4702619 61.4935306,28.5643926 61.8896246,29.0496981 L63.8261662,30.9891058 C64.3110975,31.3850658 64.4047843,32.0897371 64.0401564,32.598647 L61.5700397,35.0708896 C61.0883426,35.5531762 61.0072663,36.3057262 61.3751833,36.8795464 C62.5061006,38.6414139 63.3139952,40.5907182 63.7609794,42.6360436 C63.9068835,43.3022542 64.4968492,43.7770858 65.1788495,43.777211 L68.670027,43.777211 C69.2881913,43.8792432 69.7202646,44.4446305 69.6563758,45.0678928 L69.6563758,47.8065566 C69.7203989,48.430076 69.2883992,48.9958416 68.6700343,49.0983123 L65.1788495,49.0983123 C64.49696,49.0984181 63.9070395,49.5730685 63.7609794,50.2391314 C63.313217,52.2855504 62.5048909,54.2359699 61.3737974,55.9991913 C61.0072587,56.5733181 61.0891821,57.3250804 61.5707798,57.8067815 L64.0401854,60.2768981 C64.4042959,60.7864171 64.3110246,61.4909779 63.8268773,61.8882025 L63.8269136,61.8881952 Z" id="Shape" fill="#FF0000"></path>
                                <path d="M46.4366551,35.5537749 C40.4258145,35.5542881 35.5534332,40.4273623 35.5537752,46.438203 C35.5541171,52.4490437 40.4270528,57.3213926 46.4378935,57.3213926 C52.4487341,57.3213926 57.3213927,52.4484246 57.3213927,46.4375839 C57.3217545,43.5507465 56.1750596,40.7820561 54.1336702,38.7408409 C52.0922807,36.6996256 49.3234925,35.5531669 46.4366551,35.5537749 L46.4366551,35.5537749 Z M46.4366551,54.4190436 C42.0287376,54.4185307 38.4557822,50.8448824 38.4561242,46.4369648 C38.4564661,42.0290472 42.0299759,38.4559533 46.4378934,38.4561242 C50.845811,38.4562952 54.4190436,42.0296663 54.4190436,46.4375839 C54.4143158,50.8440251 50.8430969,54.4148285 46.4366551,54.4190436 L46.4366551,54.4190436 Z" id="Shape" fill="#FF0000"></path>
                                <path d="M41.3528063,10.3233216 L44.9864094,12.4429071 L44.9864094,17.418121 C45.0145767,17.417809 45.041808,17.414094 45.0700188,17.414094 L47.8072749,17.414094 C47.8347747,17.414094 47.8613457,17.4177219 47.8887584,17.418121 L47.8887584,12.4429071 L51.5223615,10.3233216 C51.9681498,10.0632309 52.2422819,9.58595532 52.2422819,9.0698406 L52.2422819,3.99072987 C52.2422819,3.47461515 51.9681498,2.99733958 51.5223615,2.73724887 L47.168838,0.197693502 C46.716966,-0.0658975984 46.1582018,-0.0658975984 45.7063298,0.197693502 L41.3528063,2.73724887 C40.907018,2.99733958 40.6328859,3.47461515 40.6328859,3.99072987 L40.6328859,9.0698406 C40.6328859,9.58595532 40.907018,10.0632309 41.3528063,10.3233216 Z M43.5352349,4.82437882 L46.4375839,3.13122098 L49.3399329,4.82437882 L49.3399329,8.2361989 L46.4375839,9.92935675 L43.5352349,8.2361989 L43.5352349,4.82437882 Z" id="Shape" fill="#262626"></path>
                                <path d="M51.5223615,82.5518462 L47.8887584,80.4322607 L47.8887584,75.4570468 C47.8613457,75.4574459 47.8347747,75.4610738 47.8072749,75.4610738 L45.0700188,75.4610738 C45.041808,75.4610738 45.0145694,75.4573516 44.9864094,75.4570468 L44.9864094,80.4322607 L41.3528063,82.5518462 C40.9070833,82.8120017 40.6328859,83.2892362 40.6328859,83.8053272 L40.6328859,88.8844379 C40.6328859,89.4005289 40.9070833,89.8777634 41.3528063,90.1379189 L45.7063298,92.6774743 C46.1582037,92.9410682 46.7169714,92.9410682 47.1688452,92.6774743 L51.5223687,90.1379189 C51.968089,89.8777616 52.2422819,89.4005274 52.2422819,88.8844379 L52.2422819,83.8053272 C52.2422819,83.2892362 51.9680845,82.8120017 51.5223615,82.5518462 Z M49.3399329,88.0511445 L46.4375839,89.7439396 L43.5352349,88.0511445 L43.5352349,84.6386206 L46.4375839,82.9458256 L49.3399329,84.6386206 L49.3399329,88.0511445 Z" id="Shape" fill="#262626"></path>
                                <path d="M92.1552474,42.6445475 L87.8017239,40.1049922 C87.3498519,39.8414011 86.7910877,39.8414011 86.3392157,40.1049922 L81.9856922,42.6445475 C81.5399039,42.9046382 81.2657869,43.3819138 81.2657718,43.8980285 L81.2657718,44.9864094 L75.4570904,44.9864094 C75.4574459,45.0138221 75.4610738,45.0403931 75.4610738,45.0678928 L75.4610738,47.8065566 C75.4610738,47.8342813 75.4573951,47.86107 75.4570904,47.8887511 L81.2657718,47.8887511 L81.2657718,48.977132 C81.2658758,49.493223 81.5399692,49.9704575 81.9856922,50.230613 L86.3392157,52.7701684 C86.7910896,53.0337623 87.3498573,53.0337623 87.8017311,52.7701684 L92.1552546,50.230613 C92.6009727,49.9704569 92.8751678,49.4932262 92.8751678,48.9771393 L92.8751678,43.8980285 C92.8751678,43.3819138 92.6010357,42.9046382 92.1552474,42.6445475 L92.1552474,42.6445475 Z M89.9728188,48.1438458 L87.0704698,49.8366409 L84.1681208,48.1438458 L84.1681208,44.7316775 L87.0704698,43.0385196 L89.9728188,44.7316775 L89.9728188,48.1438458 Z" id="Shape" fill="#262626"></path>
                                <path d="M76.9646865,68.7564808 C76.5998761,68.3914355 76.0686275,68.247628 75.5694911,68.3788053 L71.5013918,69.4493368 L67.98545,65.9333877 C67.9683552,65.9508816 67.9539595,65.9699718 67.936647,65.9873278 L65.9951351,67.9295653 C65.9752541,67.9494028 65.9534139,67.9659244 65.9333586,67.9854355 L69.4493368,71.5013701 L68.3788053,75.5694693 C68.2477905,76.0686051 68.3915761,76.5997729 68.7564808,76.9646647 L72.3475717,80.5564667 C72.7125495,80.921223 73.243632,81.0649855 73.7427671,80.9341422 L78.6170954,79.6516087 C79.123117,79.5182995 79.518314,79.1231025 79.6516232,78.6170809 L80.9341567,73.7427526 C81.0651715,73.2436168 80.9213859,72.712449 80.5564813,72.3475572 L76.9646865,68.7564808 Z M77.0596369,77.0596369 L73.8107909,77.9148938 L71.3980682,75.5021711 L72.2533252,72.2533252 L75.5021711,71.3980682 L77.9148938,73.8107909 L77.0596369,77.0596369 Z" id="Shape" fill="#FF0000"></path>
                                <path d="M15.9104813,24.1190426 C16.2752747,24.4841162 16.8066055,24.627805 17.3056767,24.4963479 L21.3734639,23.42586 L24.8923662,26.9447623 C24.9131833,26.9235026 24.9308223,26.9003854 24.9519732,26.8793071 L26.8800254,24.9484251 C26.9003418,24.9281884 26.9225811,24.9113548 26.9430862,24.8913866 L23.4257802,21.3740807 L24.4963552,17.3053212 C24.62737,16.8061853 24.4835844,16.2750176 24.1186798,15.9101257 L20.5275888,12.3186865 C20.1628023,11.9536009 19.6314646,11.8099102 19.1323934,11.9413812 L14.2580724,13.2239002 C13.7520915,13.357059 13.3568773,13.7521373 13.2235446,14.2580724 L11.9409893,19.1324007 C11.809927,19.6315367 11.953719,20.162728 12.3186648,20.5275961 L15.9104813,24.1190426 Z M15.8155309,15.8151754 L19.0650879,14.960274 L21.4770996,17.3729967 L20.6218426,20.6225537 L17.3729967,21.4774551 L14.960274,19.0647324 L15.8155309,15.8151754 Z" id="Shape" fill="#FF0000"></path>
                            </g>
                        </g>
                    </g>
                </g>
            </g>
        </g>
    </g>
</svg>