<?xml version="1.0" encoding="UTF-8"?>
<svg width="119px" height="100px" viewBox="0 0 119 100" version="1.1" xmlns="http://www.w3.org/2000/svg" xmlns:xlink="http://www.w3.org/1999/xlink">
    <!-- Generator: Sketch 63.1 (92452) - https://sketch.com -->
    <title>Group 21</title>
    <desc>Created with Sketch.</desc>
    <g id="Page-1" stroke="none" stroke-width="1" fill="none" fill-rule="evenodd">
        <g id="Microservice-Arcitecture" transform="translate(-247.000000, -4341.000000)" fill-rule="nonzero">
            <g id="CCO-Through-Gov" transform="translate(240.000000, 2628.000000)">
                <g id="1" transform="translate(1.000000, 193.000000)">
                    <g id="Group-6" transform="translate(6.000000, 1520.000000)">
                        <g id="Group-21">
                            <g id="blob-shape" opacity="0.49546596" fill="#FFB4BC">
                                <path d="M113.820005,13.2000005 C122.190005,24.090001 118.950005,43.8900017 113.490005,61.3200024 C108.060004,78.7800031 100.380004,93.8700037 89.0100035,98.1600039 C77.6400031,102.480004 62.5500025,96.0000038 45.7500018,89.3100035 C28.9500012,82.6500033 10.4700004,75.810003 3.42000014,61.5900024 C-3.63000014,47.3400019 0.75000003,25.740001 12.9900005,13.9500006 C25.200001,2.16000009 45.3000018,0.180000007 65.3700026,0.209667361 C85.4100034,0.24000001 105.420004,2.28000009 113.820005,13.2000005 Z" id="Path"></path>
                            </g>
                            <g id="chat" transform="translate(11.000000, 10.000000)" stroke-width="0.1">
                                <path d="M43.6394313,19.8581991 C42.8087204,15.8720379 39.5725118,12.6358294 35.5865403,11.8051185 C32.4075829,11.1425592 29.1643602,11.9165877 26.6892891,13.9287204 C24.214218,15.9412322 22.7946919,18.9232227 22.7946919,22.1101422 C22.7946919,22.8953555 23.4312796,23.5319431 24.2164929,23.5319431 C25.0017062,23.5319431 25.6382938,22.8953555 25.6382938,22.1101422 C25.6382938,19.7829384 26.6752607,17.6051185 28.4832227,16.1351659 C30.2909953,14.6652133 32.6686256,14.1016114 35.0062559,14.5890047 C37.9014218,15.1924171 40.2521327,17.543128 40.855545,20.4382938 C41.6978199,24.4796209 39.3833175,28.3778199 35.4718483,29.5059716 C33.3429384,30.12 31.9126066,31.962654 31.9126066,34.0913744 C31.9126066,34.8765877 32.5491943,35.5131754 33.3344076,35.5131754 C34.1196209,35.5131754 34.7562085,34.8765877 34.7562085,34.0913744 C34.7562085,33.2422749 35.3605687,32.4976303 36.2599052,32.2382938 C41.6159242,30.6936493 44.788436,25.3713744 43.6394313,19.8581991 Z" id="Path" stroke="#262626" fill="#262626"></path>
                                <path d="M33.3344076,38.923981 L33.3179147,38.923981 C32.5327014,38.923981 31.9042654,39.5605687 31.9042654,40.345782 C31.9042654,41.1309953 32.5491943,41.7675829 33.3344076,41.7675829 C34.1196209,41.7675829 34.7562085,41.1309953 34.7562085,40.345782 C34.7562085,39.5605687 34.1196209,38.923981 33.3344076,38.923981 Z" id="Path" stroke="#262626" fill="#262626"></path>
                                <path d="M60.6879621,0.141421801 L5.98066351,0.141421801 C2.6828436,0.141421801 0,2.8242654 0,6.12208531 L0,45.6327962 C0,48.9306161 2.6828436,51.6134597 5.98066351,51.6134597 L12.1571564,51.6134597 L12.1571564,61.7194313 C12.1571564,62.9133649 12.8699526,63.9800948 13.9730806,64.4369668 C14.3391469,64.5886256 14.7222749,64.6623697 15.1018009,64.6623697 C15.865782,64.6623697 16.6145972,64.3634123 17.1787678,63.7994313 L29.3645498,51.6136493 L60.6881517,51.6136493 C63.985782,51.6136493 66.6686256,48.9308057 66.6686256,45.6329858 L66.6686256,6.12208531 C66.6686256,2.8242654 63.985782,0.141421801 60.6879621,0.141421801 Z M63.8250237,45.6327962 C63.8250237,47.362654 62.4178199,48.7698578 60.6879621,48.7698578 L28.775545,48.7698578 L28.775545,48.7700474 C28.3984834,48.7700474 28.0367773,48.9198104 27.770237,49.1865403 L15.1677725,61.7888152 C15.1438863,61.8125118 15.121327,61.8350711 15.0610427,61.8100474 C15.0005687,61.7850237 15.0005687,61.7531754 15.0005687,61.7196209 L15.0005687,50.1918483 C15.0005687,49.4066351 14.363981,48.7700474 13.5787678,48.7700474 L5.98066351,48.7700474 C4.25080569,48.7700474 2.8436019,47.3628436 2.8436019,45.6329858 L2.8436019,6.12208531 C2.8436019,4.39222749 4.25080569,2.9850237 5.98066351,2.9850237 L60.6879621,2.9850237 C62.4178199,2.9850237 63.8250237,4.39222749 63.8250237,6.12208531 L63.8250237,45.6327962 Z" id="Shape" stroke="#FF0000" fill="#FF0000"></path>
                                <path d="M91.0809479,15.3378199 L71.3254976,15.3378199 C70.5402844,15.3378199 69.9036967,15.9744076 69.9036967,16.7596209 C69.9036967,17.5448341 70.5402844,18.1814218 71.3254976,18.1814218 L91.0809479,18.1814218 C92.8108057,18.1814218 94.2180095,19.5886256 94.2180095,21.3184834 L94.2180095,60.8291943 C94.2180095,62.5590521 92.8108057,63.9662559 91.0809479,63.9662559 L83.482654,63.9662559 C82.6974408,63.9662559 82.0608531,64.6028436 82.0608531,65.3880569 L82.0608531,76.9158294 C82.0608531,76.9493839 82.0608531,76.9812322 82.0003791,77.0062559 C81.9399052,77.0309005 81.917346,77.0085308 81.8936493,76.9850237 L69.2913744,64.3827488 C69.0248341,64.116019 68.663128,63.9662559 68.2860664,63.9662559 L36.3736493,63.9662559 C34.6437915,63.9662559 33.2365877,62.5590521 33.2365877,60.8291943 L33.2365877,56.2701422 C33.2365877,55.4849289 32.6,54.8483412 31.8147867,54.8483412 C31.0295735,54.8483412 30.3929858,55.4849289 30.3929858,56.2701422 L30.3929858,60.8291943 C30.3929858,64.1270142 33.0758294,66.8098578 36.3736493,66.8098578 L67.6972512,66.8098578 L79.8830332,78.9956398 C80.4472038,79.5598104 81.196019,79.8587678 81.96,79.8587678 C82.3393365,79.8587678 82.722654,79.7850237 83.0887204,79.6333649 C84.1918483,79.1764929 84.9046445,78.109763 84.9046445,76.9158294 L84.9046445,66.8098578 L91.0811374,66.8098578 C94.3789573,66.8098578 97.0618009,64.1270142 97.0618009,60.8291943 L97.0618009,21.318673 C97.0618009,18.0208531 94.3787678,15.3378199 91.0809479,15.3378199 Z" id="Path" stroke="#262626" fill="#262626"></path>
                            </g>
                        </g>
                    </g>
                </g>
            </g>
        </g>
    </g>
</svg>