<?xml version="1.0" encoding="UTF-8"?>
<svg width="244px" height="243px" viewBox="0 0 244 243" version="1.1" xmlns="http://www.w3.org/2000/svg" xmlns:xlink="http://www.w3.org/1999/xlink">
    <!-- Generator: Sketch 58 (84663) - https://sketch.com -->
    <title>Group 3</title>
    <desc>Created with Sketch.</desc>
    <defs>
        <circle id="path-1" cx="111.149997" cy="111.149997" r="111.149997"></circle>
    </defs>
    <g id="desktop" stroke="none" stroke-width="1" fill="none" fill-rule="evenodd">
        <g id="cloud_security" transform="translate(-252.000000, -910.000000)">
            <g id="Group-21" transform="translate(253.000000, 441.000000)">
                <g id="Group-25" transform="translate(0.000000, 471.000000)">
                    <g id="Group-3">
                        <g id="Group-2" transform="translate(12.700000, 1.800000)">
                            <mask id="mask-2" fill="white">
                                <use xlink:href="#path-1"></use>
                            </mask>
                            <use id="Oval" fill="#FFC400" xlink:href="#path-1"></use>
                            <circle id="Oval" fill="#FFD800" mask="url(#mask-2)" cx="91.5958309" cy="85.4208311" r="111.149997"></circle>
                            <path d="M133.199996,154.799996 C146.600973,156.60401 160.237569,161.438829 174.109785,169.304454 C187.982002,177.170078 199.933588,188.336875 209.964545,202.804843" id="Path-3" stroke="#FFFFFF" stroke-width="3.5999999" stroke-linecap="round" mask="url(#mask-2)" transform="translate(171.582271, 178.802420) scale(-1, -1) rotate(-74.000000) translate(-171.582271, -178.802420) "></path>
                            <g id="networking-(1)" opacity="0.5" mask="url(#mask-2)">
                                <g transform="translate(35.099999, 101.699997)">
                                    <g id="Group" transform="translate(0.000000, 11.700000)">
                                        <path d="M24.614821,35.5914916 L13.8858306,35.5914916 C13.0326305,32.6266214 10.3237204,30.4509614 7.08156029,30.4509614 C3.17817013,30.4509614 0,33.6291315 0,37.5325216 C0,41.4359118 3.17817013,44.6140819 7.08156029,44.6140819 C10.3023904,44.6140819 13.0326305,42.4384218 13.8858306,39.4735517 L24.636151,39.4735517 C25.702651,39.4735517 26.5771811,38.5990217 26.5771811,37.5325216 C26.5558511,36.4660216 25.681321,35.5914916 24.614821,35.5914916 Z M7.08156029,40.7320218 C5.31117021,40.7320218 3.88206016,39.3029117 3.88206016,37.5325216 C3.88206016,35.7621316 5.31117021,34.3330215 7.08156029,34.3330215 C8.85195036,34.3330215 10.2810604,35.7621316 10.2810604,37.5325216 C10.2810604,39.3029117 8.85195036,40.7320218 7.08156029,40.7320218 Z" id="Shape" fill="#000000" fill-rule="nonzero"></path>
                                        <path d="M24.614821,24.2226011 L12.8619905,24.2226011 C10.7503204,24.2226011 9.02259036,22.494871 9.02259036,20.3832009 L9.02259036,14.0695207 C11.9874605,13.2163207 14.1631206,10.5074105 14.1631206,7.26525041 C14.1631206,3.36186026 10.9849504,0.183690128 7.08156029,0.183690128 C3.17817013,0.183690128 0,3.36186026 0,7.26525041 C0,10.4860805 2.17566009,13.2163207 5.14053021,14.0695207 L5.14053021,20.3832009 C5.14053021,24.6278711 8.59599035,28.0833313 12.8406605,28.0833313 L24.614821,28.0833313 C25.681321,28.0833313 26.5558511,27.2088012 26.5558511,26.1423012 C26.5558511,25.0758011 25.681321,24.2226011 24.614821,24.2226011 Z M3.86073016,7.26525041 C3.86073016,5.49486034 5.28984021,4.06575028 7.06023029,4.06575028 C8.83062036,4.06575028 10.2597304,5.49486034 10.2597304,7.26525041 C10.2597304,9.03564049 8.83062036,10.4647505 7.06023029,10.4647505 C5.28984021,10.4647505 3.86073016,9.03564049 3.86073016,7.26525041 Z" id="Shape" fill="#000000" fill-rule="nonzero"></path>
                                        <path d="M24.614821,46.960382 L12.8619905,46.960382 C8.61732035,46.960382 5.16186021,50.4158422 5.16186021,54.6605123 L5.16186021,60.9741926 C2.19699009,61.8273926 0.0213300009,64.5363027 0.0213300009,67.7784629 C0.0213300009,71.681853 3.19950013,74.8600231 7.10289029,74.8600231 C11.0062804,74.8600231 14.1844506,71.681853 14.1844506,67.7784629 C14.1844506,64.5576327 12.0087905,61.8273926 9.04392037,60.9741926 L9.04392037,54.6605123 C9.04392037,52.5488422 10.7716504,50.8211122 12.8833205,50.8211122 L24.657481,50.8211122 C25.723981,50.8211122 26.5985111,49.9465821 26.5985111,48.8800821 C26.5558511,47.8349121 25.681321,46.960382 24.614821,46.960382 Z M10.2810604,67.7784629 C10.2810604,69.5488529 8.85195036,70.977963 7.08156029,70.977963 C5.31117021,70.977963 3.88206016,69.5488529 3.88206016,67.7784629 C3.88206016,66.0080728 5.31117021,64.5789627 7.08156029,64.5789627 C8.85195036,64.5789627 10.2810604,66.0080728 10.2810604,67.7784629 Z" id="Shape" fill="#000000" fill-rule="nonzero"></path>
                                        <path d="M104.507464,30.4509614 C101.286634,30.4509614 98.5563935,32.6266214 97.7031935,35.5914916 L86.952873,35.5914916 C85.886373,35.5914916 85.011843,36.4660216 85.011843,37.5325216 C85.011843,38.5990217 85.886373,39.4735517 86.952873,39.4735517 L97.7031935,39.4735517 C98.5563935,42.4384218 101.265304,44.6140819 104.507464,44.6140819 C108.410854,44.6140819 111.589024,41.4359118 111.589024,37.5325216 C111.589024,33.6291315 108.410854,30.4509614 104.507464,30.4509614 Z M104.507464,40.7320218 C102.737074,40.7320218 101.307964,39.3029117 101.307964,37.5325216 C101.307964,35.7621316 102.737074,34.3330215 104.507464,34.3330215 C106.277854,34.3330215 107.706964,35.7621316 107.706964,37.5325216 C107.728294,39.3029117 106.277854,40.7320218 104.507464,40.7320218 Z" id="Shape" fill="#000000" fill-rule="nonzero"></path>
                                        <path d="M106.448494,60.9741926 L106.448494,54.6605123 C106.448494,50.4158422 102.993034,46.960382 98.7483635,46.960382 L86.974203,46.960382 C85.907703,46.960382 85.033173,47.8349121 85.033173,48.9014121 C85.033173,49.9679121 85.907703,50.8424422 86.974203,50.8424422 L98.7483635,50.8424422 C100.860034,50.8424422 102.587764,52.5701722 102.587764,54.6818423 L102.587764,60.9955226 C99.6228935,61.8487226 97.4472335,64.5576327 97.4472335,67.7997929 C97.4472335,71.703183 100.625404,74.8813531 104.528794,74.8813531 C108.432184,74.8813531 111.610354,71.703183 111.610354,67.7997929 C111.589024,64.5576327 109.413364,61.8273926 106.448494,60.9741926 Z M104.507464,70.999293 C102.737074,70.999293 101.307964,69.5701829 101.307964,67.7997929 C101.307964,66.0294028 102.737074,64.6002927 104.507464,64.6002927 C106.277854,64.6002927 107.706964,66.0294028 107.706964,67.7997929 C107.728294,69.5488529 106.277854,70.999293 104.507464,70.999293 Z" id="Shape" fill="#000000" fill-rule="nonzero"></path>
                                    </g>
                                    <g id="locked-(1)" transform="translate(30.599999, 0.000000)">
                                        <path d="M25.1999989,35.9999984 C22.420439,35.9999984 20.1599991,38.2604383 20.1599991,41.0399982 L20.1599991,48.5999979 C20.1599991,51.3795577 22.420439,53.6399976 25.1999989,53.6399976 C27.9795588,53.6399976 30.2399987,51.3795577 30.2399987,48.5999979 L30.2399987,41.0399982 C30.2399987,38.2604383 27.9795588,35.9999984 25.1999989,35.9999984 Z M27.7199988,48.5999979 C27.7199988,49.9897778 26.5897788,51.1199977 25.1999989,51.1199977 C23.810219,51.1199977 22.679999,49.9897778 22.679999,48.5999979 L22.679999,41.0399982 C22.679999,39.6502182 23.810219,38.5199983 25.1999989,38.5199983 C26.5897788,38.5199983 27.7199988,39.6502182 27.7199988,41.0399982 L27.7199988,48.5999979 Z" id="Shape" stroke="#000000" stroke-width="0.899999976" fill="#000000" fill-rule="nonzero"></path>
                                        <path d="M39.0599983,26.8556388 L39.0599983,12.8771994 C39.0599983,5.77709975 32.8418986,0 25.1999989,0 C17.5580992,0 11.3399995,5.77709975 11.3399995,12.8771994 L11.3399995,26.8556388 C4.5158398,31.3689586 0,39.1028383 0,47.8799979 C0,61.7752773 11.3047195,73.0799968 25.1999989,73.0799968 C39.0952783,73.0799968 50.3999978,61.7752773 50.3999978,47.8799979 C50.3999978,39.1028383 45.884158,31.3689586 39.0599983,26.8556388 Z M13.8599994,25.3978189 L13.8599994,12.8771994 C13.8599994,7.16687969 18.9466192,2.51999989 25.1999989,2.51999989 C31.4533786,2.51999989 36.5399984,7.16687969 36.5399984,12.8771994 L36.5399984,25.3990789 C36.3031184,25.2793789 36.0611984,25.1735389 35.8217984,25.0613989 C35.3266185,24.8295589 34.8238785,24.6128389 34.3123185,24.4124989 C33.9834585,24.2839789 33.6533385,24.1630189 33.3206985,24.048359 C32.9930986,23.936219 32.6680186,23.824079 32.3353786,23.725799 C31.7847586,23.561999 31.2278386,23.422139 30.6671387,23.296139 C30.4239587,23.241959 30.1795187,23.190299 29.9338187,23.142419 C29.2748387,23.015159 28.6120788,22.911839 27.9442788,22.837499 C27.7930788,22.821119 27.6418788,22.811039 27.4906788,22.797179 C26.7283788,22.725359 25.9660789,22.679999 25.1999989,22.679999 C24.4339189,22.679999 23.671619,22.725359 22.911839,22.795919 C22.760639,22.809779 22.608179,22.819859 22.458239,22.836239 C21.7904391,22.910579 21.1276791,23.013899 20.4686991,23.141159 C20.2229991,23.187779 19.9785591,23.240699 19.7353791,23.294879 C19.1746792,23.420879 18.6177592,23.560739 18.0671392,23.724539 C17.7344992,23.822819 17.4081592,23.936219 17.0818193,24.047099 C16.7491793,24.1617589 16.4177993,24.2827189 16.0901993,24.4112389 C15.5773793,24.6103189 15.0758993,24.8282989 14.5807194,25.0601389 C14.3387994,25.1722789 14.0968794,25.2781189 13.8599994,25.3978189 Z M25.1999989,70.5599969 C12.6944994,70.5599969 2.51999989,60.3854974 2.51999989,47.8799979 C2.51999989,39.6433783 6.9488997,32.4386986 13.5361794,28.4659188 C14.6953794,27.7678788 15.9062393,27.1794588 17.1561593,26.7006588 C17.3779192,26.6162388 17.6009392,26.5330788 17.8252192,26.4549588 C18.1691992,26.3352589 18.5144392,26.2205989 18.8634592,26.1172789 C19.2918592,25.9925389 19.7265591,25.8816589 20.1650391,25.7821189 C20.4850791,25.7090389 20.8063791,25.6447789 21.1289391,25.5855589 C21.5938791,25.5011389 22.062599,25.4255389 22.537619,25.3700989 C22.751819,25.3436389 22.967279,25.3209589 23.182739,25.3020589 C23.849279,25.2428389 24.5195989,25.1999989 25.1999989,25.1999989 C25.8803989,25.1999989 26.5507188,25.2428389 27.2172588,25.3020589 C27.4327188,25.3222189 27.6469188,25.3448989 27.8623788,25.3700989 C28.3373988,25.4255389 28.8061187,25.5011389 29.2710587,25.5855589 C29.5936187,25.6447789 29.9149187,25.7090389 30.2349587,25.7821189 C30.6734387,25.8816589 31.1081386,25.9925389 31.5365386,26.1172789 C31.8855586,26.2193389 32.2307986,26.3352589 32.5747786,26.4549588 C32.8003186,26.5330788 33.0220786,26.6162388 33.2438386,26.7006588 C34.4937585,27.1794588 35.7046184,27.7678788 36.8638184,28.4659188 C43.4510981,32.4386986 47.8799979,39.6433783 47.8799979,47.8799979 C47.8799979,60.3854974 37.7054984,70.5599969 25.1999989,70.5599969 Z" id="Shape" stroke="#000000" stroke-width="0.899999976" fill="#000000" fill-rule="nonzero"></path>
                                    </g>
                                </g>
                            </g>
                        </g>
                        <g id="Group" transform="translate(115.099994, 120.000000) scale(-1, 1) translate(-115.099994, -120.000000) translate(0.599994, 0.000000)" stroke="#000000" stroke-width="3.5999999">
                            <path d="M0.4934947,135.193218 C5.88455523,193.439508 54.7792871,239.039276 114.299997,239.039276 C177.426142,239.039276 228.599994,187.747827 228.599994,124.476618 C228.599994,61.2054094 177.426142,9.91396039 114.299997,9.91396039 C113.204979,9.91396039 112.113558,9.92939404 111.025939,9.96005614" id="Path" stroke-linecap="round"></path>
                            <path d="M110.972888,0.47142796 L110.972888,21.0908464 C110.972888,21.2399633 110.852004,21.3608464 110.702888,21.3608464 C110.654856,21.3608464 110.607695,21.3480337 110.566266,21.3237297 L92.992422,11.0140205 C92.8638041,10.9385667 92.8207061,10.7731339 92.8961599,10.644516 C92.9194985,10.6047332 92.9526393,10.5715924 92.992422,10.5482538 L110.566266,0.238544625 C110.694884,0.163090828 110.860317,0.206188859 110.935771,0.334806774 C110.960075,0.376235113 110.972888,0.423396824 110.972888,0.47142796 Z" id="Path-2"></path>
                        </g>
                        <path d="M240.399994,116.999997 L149.499996,116.999997 C150.541409,107.968161 153.702793,95.8728743 158.984243,87.913881 C164.191306,80.0669862 173.893247,70.8257406 188.09035,60.1898743 L189.593249,59.0637886 L190.889447,58.0803182 C198.517771,52.2538108 203.466579,47.7649703 205.736001,44.6136809 C208.215555,41.1706054 209.455314,37.9022277 209.455314,34.8084498 C209.455314,31.4651736 208.227953,28.6084618 205.773194,26.2382287 C203.318436,23.8679956 200.231437,22.6828968 196.512106,22.6828968 C192.644002,22.6828968 189.482618,23.9054197 187.027859,26.3505023 C184.573101,28.7955849 182.924222,33.1118394 182.081174,39.2993953 L151.731584,36.8293753 C152.92177,28.2466364 155.103744,21.5477096 158.277574,16.7323939 C161.451403,11.9170782 165.926931,8.22455991 171.704292,5.65472822 C177.481653,3.08489653 185.478095,1.79999995 195.693857,1.79999995 C206.35594,1.79999995 214.649924,3.02252291 220.576058,5.46760549 C226.502192,7.91268807 231.163684,11.66758 234.560673,16.7323939 C237.957662,21.7972078 239.656131,27.4732073 239.656131,33.7605625 C239.656131,40.4471149 237.70971,46.8341736 233.816811,52.9219302 C229.923911,59.0096868 222.84489,65.6961389 212.579536,72.981487 L209.935282,74.82941 L208.077945,76.1407735 C204.532139,78.6571712 201.999532,80.5355955 200.480082,81.776078 L200.342998,81.888529 C198.284968,83.5851169 193.090339,87.913881 193.090339,92.1500982 L240.399994,92.1500982" id="Shape" stroke="#000000" stroke-width="3.5999999" stroke-linecap="round" fill-rule="nonzero"></path>
                    </g>
                </g>
            </g>
        </g>
    </g>
</svg>