<?xml version="1.0" encoding="UTF-8"?>
<svg width="318px" height="319px" viewBox="0 0 318 319" version="1.1" xmlns="http://www.w3.org/2000/svg" xmlns:xlink="http://www.w3.org/1999/xlink">
    <!-- Generator: Sketch 58 (84663) - https://sketch.com -->
    <title>Group 3</title>
    <desc>Created with Sketch.</desc>
    <defs>
        <rect id="path-1" x="40" y="40" width="215" height="215" rx="16"></rect>
        <filter x="-12.6%" y="-12.6%" width="125.1%" height="125.1%" filterUnits="objectBoundingBox" id="filter-3">
            <feMorphology radius="1.5" operator="dilate" in="SourceAlpha" result="shadowSpreadOuter1"></feMorphology>
            <feOffset dx="0" dy="0" in="shadowSpreadOuter1" result="shadowOffsetOuter1"></feOffset>
            <feGaussianBlur stdDeviation="8.5" in="shadowOffsetOuter1" result="shadowBlurOuter1"></feGaussianBlur>
            <feComposite in="shadowBlurOuter1" in2="SourceAlpha" operator="out" result="shadowBlurOuter1"></feComposite>
            <feColorMatrix values="0 0 0 0 0   0 0 0 0 0   0 0 0 0 0  0 0 0 0.147235577 0" type="matrix" in="shadowBlurOuter1"></feColorMatrix>
        </filter>
    </defs>
    <g id="desktop" stroke="none" stroke-width="1" fill="none" fill-rule="evenodd">
        <g id="cloud_security" transform="translate(-208.000000, -4847.000000)">
            <g id="Group-3" transform="translate(220.000000, 4859.000000)">
                <g id="Group-18">
                    <circle id="Oval" fill="#F1F1F1" cx="148" cy="148" r="128"></circle>
                    <mask id="mask-2" fill="white">
                        <use xlink:href="#path-1"></use>
                    </mask>
                    <g id="Rectangle" fill-rule="nonzero" transform="translate(147.500000, 147.500000) rotate(-30.000000) translate(-147.500000, -147.500000) ">
                        <use fill="black" fill-opacity="1" filter="url(#filter-3)" xlink:href="#path-1"></use>
                        <use stroke="#F1F1F1" stroke-width="3" fill="#FFFFFF" xlink:href="#path-1"></use>
                    </g>
                    <g id="network-(1)" mask="url(#mask-2)">
                        <g transform="translate(83.000000, 84.000000)">
                            <path d="M92.2320058,30.7440019 L92.2320058,64.9518281 C88.9116536,60.8321318 84.7304694,57.4502916 79.9344051,55.0932515 L79.9344051,30.7440019 C79.9344051,21.6847694 72.5968366,14.3472009 63.537604,14.3472009 C59.0079877,14.3472009 54.9087875,16.191841 51.9368673,19.1432652 C48.9854431,22.1151854 47.140803,26.2143857 47.140803,30.7440019 L47.140803,55.0932515 C42.3447387,57.4502916 38.1635544,60.8321318 34.8432022,64.9518281 L34.8432022,30.7440019 C34.8432022,28.6329138 35.0686582,26.5833137 35.4990742,24.5952016 C36.7083383,19.1432652 39.4343065,14.2652169 43.2465627,10.4529607 C48.4525471,5.26747233 55.6261475,2.04960013 63.537604,2.04960013 C77.2699249,2.04960013 88.7476856,11.7032167 91.5761338,24.5952016 C92.0065498,26.5833137 92.2320058,28.6329138 92.2320058,30.7440019 Z" id="Path" fill="#E6E9ED" fill-rule="nonzero"></path>
                            <path d="M79.9344051,55.0932515 C84.7304694,57.4502916 88.9116536,60.8321318 92.2320058,64.9518281 C92.2320058,64.9518281 92.2525018,64.9518281 92.2320058,64.9723241 C94.855494,68.1901963 96.9255901,71.8589805 98.3193182,75.8352048 C99.6925503,79.688453 100.430406,83.8286453 100.430406,88.1328056 C100.430406,92.4369658 99.6925503,96.5771581 98.3193182,100.430406 C93.2568059,114.757111 79.606469,125.025608 63.537604,125.025608 C47.468739,125.025608 33.8184021,114.757111 28.7558898,100.430406 C27.3826577,96.5771581 26.6448017,92.4369658 26.6448017,88.1328056 C26.6448017,83.8286453 27.3826577,79.688453 28.7558898,75.8352048 C30.1496179,71.8589805 32.219714,68.1901963 34.8432022,64.9723241 C34.8227062,64.9518281 34.8432022,64.9518281 34.8432022,64.9518281 C38.1635544,60.8321318 42.3447387,57.4502916 47.140803,55.0932515 C52.0803393,52.6337313 57.6347556,51.2400032 63.537604,51.2400032 C69.4404524,51.2400032 74.9948687,52.6337313 79.9344051,55.0932515 Z" id="Path" fill="#14649A" fill-rule="nonzero"></path>
                            <circle id="Oval" fill="#1BB4C2" fill-rule="nonzero" cx="63.537604" cy="88.1328056" r="28.6944018"></circle>
                            <g id="Group" stroke-width="1" fill="none" fill-rule="evenodd" transform="translate(2.049600, 2.049600)">
                                <path d="M116.827207,0 C120.229544,0 122.976008,2.74646417 122.976008,6.14880039 C122.976008,9.5511366 120.229544,12.2976008 116.827207,12.2976008 C115.126039,12.2976008 113.588839,11.6007367 112.482055,10.4939527 C111.375271,9.38716859 110.678407,7.8499685 110.678407,6.14880039 C110.678407,2.74646417 113.424871,0 116.827207,0 Z" id="Path" fill="#FFD800" fill-rule="nonzero"></path>
                                <path d="M6.14880039,0 C9.5511366,0 12.2976008,2.74646417 12.2976008,6.14880039 C12.2976008,7.8499685 11.6007367,9.38716859 10.4939527,10.4939527 C9.38716859,11.6007367 7.8499685,12.2976008 6.14880039,12.2976008 C2.74646417,12.2976008 0,9.5511366 0,6.14880039 C0,2.74646417 2.74646417,0 6.14880039,0 Z" id="Path" fill="#FFD800" fill-rule="nonzero"></path>
                                <circle id="Oval" fill="#FFD800" fill-rule="nonzero" cx="4.09920026" cy="86.0832054" r="4.09920026"></circle>
                                <circle id="Oval" fill="#FFD800" fill-rule="nonzero" cx="4.09920026" cy="65.5872041" r="4.09920026"></circle>
                                <circle id="Oval" fill="#FFD800" fill-rule="nonzero" cx="4.09920026" cy="106.579207" r="4.09920026"></circle>
                                <circle id="Oval" fill="#FFD800" fill-rule="nonzero" cx="118.876808" cy="86.0832054" r="4.09920026"></circle>
                                <circle id="Oval" fill="#FFD800" fill-rule="nonzero" cx="118.876808" cy="65.5872041" r="4.09920026"></circle>
                                <circle id="Oval" fill="#FFD800" fill-rule="nonzero" cx="118.876808" cy="106.579207" r="4.09920026"></circle>
                            </g>
                            <path d="M63.537604,57.3888036 C46.5853613,57.3888036 32.7936021,71.1805629 32.7936021,88.1328056 C32.7936021,105.085048 46.5853613,118.876808 63.537604,118.876808 C80.4898467,118.876808 94.281606,105.085048 94.281606,88.1328056 C94.281606,71.1805629 80.4898467,57.3888036 63.537604,57.3888036 Z M63.537604,113.972114 C62.2176615,112.588634 60.108623,110.096321 58.1328085,106.579207 L68.9444492,106.579207 C66.966585,110.09837 64.8575465,112.590684 63.537604,113.972114 Z M56.1446963,102.480006 C54.7120259,99.0223311 53.6277874,94.9026348 53.3715874,90.1824057 L73.6995215,90.1824057 C73.445371,94.9026348 72.359083,99.0223311 70.9264125,102.480006 L56.1446963,102.480006 Z M36.9973319,90.1824057 L49.2744367,90.1824057 C49.4957935,94.8308988 50.4283616,98.9382975 51.7216593,102.480006 L41.123177,102.480006 C38.8071289,98.8768094 37.3416648,94.6874268 36.9973319,90.1824057 Z M63.537604,62.2934967 C64.8575465,63.6769768 66.9686346,66.1692906 68.9423996,69.6864044 L58.1307589,69.6864044 C60.1065734,66.1692906 62.2176615,63.6769768 63.537604,62.2934967 Z M70.9305117,73.7856047 C72.3631822,77.2432801 73.4474206,81.3629763 73.7036207,86.0832054 L53.3756866,86.0832054 C53.629837,81.3629763 54.7161251,77.2432801 56.1487955,73.7856047 L70.9305117,73.7856047 Z M49.2723871,86.0832054 L36.9952823,86.0832054 C37.3416648,81.5781844 38.8050793,77.3888017 41.1211274,73.7856047 L51.7196097,73.7856047 C50.426312,77.3273137 49.4937439,81.4347123 49.2723871,86.0832054 L49.2723871,86.0832054 Z M77.8028209,90.1824057 L90.0799257,90.1824057 C89.7335433,94.6874268 88.2701288,98.8768094 85.9540806,102.480006 L75.3555984,102.480006 C76.648896,98.9382975 77.5814641,94.8308988 77.8028209,90.1824057 L77.8028209,90.1824057 Z M77.8028209,86.0832054 C77.5814641,81.4347123 76.648896,77.3273137 75.3555984,73.7856047 L85.9540806,73.7856047 C88.2680792,77.3888017 89.7335433,81.5781844 90.0799257,86.0832054 L77.8028209,86.0832054 Z M82.7198116,69.6864044 L73.6175375,69.6864044 C72.0454942,66.4890282 70.2869372,63.9249784 68.7476875,62.0065527 C74.1832271,63.0887416 79.0161842,65.8372554 82.7198116,69.6864044 Z M58.3275205,62.0065527 C56.7882708,63.9249784 55.0317635,66.4890282 53.4576706,69.6864044 L44.3553964,69.6864044 C48.0590238,65.8372554 52.8919809,63.0887416 58.3275205,62.0065527 Z M44.3553964,106.579207 L53.4576706,106.579207 C55.0297139,109.776583 56.7882708,112.340633 58.3275205,114.259058 C52.8919809,113.17687 48.0590238,110.428356 44.3553964,106.579207 Z M68.7476875,114.259058 C70.2869372,112.340633 72.0454942,109.776583 73.6175375,106.579207 L82.7198116,106.579207 C79.0161842,110.428356 74.1832271,113.17687 68.7476875,114.259058 Z" id="Shape" fill="#000000" fill-rule="nonzero"></path>
                            <polygon id="Path" fill="#000000" fill-rule="nonzero" points="57.3888036 77.8848049 61.4880039 77.8848049 61.4880039 81.9840052 57.3888036 81.9840052"></polygon>
                            <polygon id="Path" fill="#000000" fill-rule="nonzero" points="65.5872041 77.8848049 69.6864044 77.8848049 69.6864044 81.9840052 65.5872041 81.9840052"></polygon>
                            <polygon id="Path" fill="#000000" fill-rule="nonzero" points="57.3888036 94.281606 61.4880039 94.281606 61.4880039 98.3808062 57.3888036 98.3808062"></polygon>
                            <polygon id="Path" fill="#000000" fill-rule="nonzero" points="65.5872041 94.281606 69.6864044 94.281606 69.6864044 98.3808062 65.5872041 98.3808062"></polygon>
                            <path d="M103.377731,77.8848049 C106.20413,77.8848049 108.657501,75.9684288 109.344117,73.2281134 L109.838071,71.2400013 C110.069676,70.3258796 110.887466,69.6864044 111.830282,69.6864044 L115.156783,69.6864044 C116.005318,72.0659902 118.259878,73.7856047 120.928457,73.7856047 C124.318496,73.7856047 127.077258,71.0268429 127.077258,67.6368043 C127.077258,64.2467657 124.318496,61.4880039 120.928457,61.4880039 C118.259878,61.4880039 116.005318,63.2076184 115.156783,65.5872041 L111.830282,65.5872041 C109.003884,65.5872041 106.550512,67.5035803 105.863896,70.2438956 L105.369943,72.2320078 C105.138338,73.1461294 104.320547,73.7856047 103.377731,73.7856047 L99.7048479,73.7856047 C98.3418638,70.3627724 96.5054221,67.1858922 94.2795564,64.3185017 L94.2795564,30.7440019 C94.2795564,29.3502739 94.1545307,27.9893394 93.9741659,26.6448017 L103.326491,26.6448017 L114.736615,15.2346778 C115.958177,15.956137 117.360103,16.396801 118.876808,16.396801 C123.398225,16.396801 127.075208,12.7198184 127.075208,8.19840052 C127.075208,3.67698263 123.398225,0 118.876808,0 C114.35539,0 110.678407,3.67698263 110.678407,8.19840052 C110.678407,9.71510461 111.119071,11.1170311 111.84053,12.3365432 L101.631472,22.5456014 L93.1379291,22.5456014 C89.5367817,9.5654838 77.6491009,0 63.537604,0 C49.4261071,0 37.5384264,9.5654838 33.9372789,22.5456014 L25.443736,22.5456014 L15.2346778,12.3365432 C15.956137,11.1170311 16.396801,9.71510461 16.396801,8.19840052 C16.396801,3.67698263 12.7198184,0 8.19840052,0 C3.67698263,0 0,3.67698263 0,8.19840052 C0,12.7198184 3.67698263,16.396801 8.19840052,16.396801 C9.71510461,16.396801 11.1170311,15.956137 12.3365432,15.2346778 L23.7466671,26.6448017 L33.0989925,26.6448017 C32.9186277,27.9893394 32.7936021,29.3502739 32.7936021,30.7440019 L32.7936021,64.3185017 C30.5677363,67.1858922 28.7312946,70.3627724 27.3683105,73.7856047 L23.6954271,73.7856047 C22.752611,73.7856047 21.9368702,73.1461294 21.707315,72.2340574 L21.2092621,70.241846 C20.5267453,67.5035803 18.0713243,65.5872041 15.2449258,65.5872041 L11.9204744,65.5872041 C11.0719399,63.2076184 8.81737976,61.4880039 6.14880039,61.4880039 C2.75876177,61.4880039 0,64.2467657 0,67.6368043 C0,71.0268429 2.75876177,73.7856047 6.14880039,73.7856047 C8.81737976,73.7856047 11.0719399,72.0659902 11.9204744,69.6864044 L15.2469754,69.6864044 C16.1897914,69.6864044 17.0055323,70.3258796 17.2350875,71.2379517 L17.7331403,73.230163 C18.4156572,75.9684288 20.8710781,77.8848049 23.6974767,77.8848049 L26.0094256,77.8848049 C25.2879664,80.5185411 24.8473024,83.2588565 24.6997312,86.0832054 L11.9204744,86.0832054 C11.0719399,83.7036197 8.81737976,81.9840052 6.14880039,81.9840052 C2.75876177,81.9840052 0,84.742767 0,88.1328056 C0,91.5228442 2.75876177,94.281606 6.14880039,94.281606 C8.81737976,94.281606 11.0719399,92.5619914 11.9204744,90.1824057 L24.6997312,90.1824057 C24.8473024,93.0067547 25.290016,95.7470701 26.0094256,98.3808062 L23.6974767,98.3808062 C20.8710781,98.3808062 18.4177068,100.297182 17.7310907,103.037498 L17.2371371,105.02561 C17.0055323,105.939731 16.1877418,106.579207 15.2449258,106.579207 L11.9204744,106.579207 C11.0719399,104.199621 8.81737976,102.480006 6.14880039,102.480006 C2.75876177,102.480006 0,105.238768 0,108.628807 C0,112.018845 2.75876177,114.777607 6.14880039,114.777607 C8.81737976,114.777607 11.0719399,113.057993 11.9204744,110.678407 L15.2469754,110.678407 C18.0733739,110.678407 20.5267453,108.762031 21.2133613,106.021715 L21.707315,104.033603 C21.9368702,103.119482 22.7546606,102.480006 23.6974767,102.480006 L27.3703601,102.480006 C33.0969429,116.86615 47.1346542,127.075208 63.537604,127.075208 C79.9405539,127.075208 93.9782651,116.86615 99.7068975,102.480006 L103.379781,102.480006 C104.322597,102.480006 105.138338,103.119482 105.367893,104.031554 L105.865946,106.023765 C106.548463,108.762031 109.003884,110.678407 111.830282,110.678407 L115.156783,110.678407 C116.005318,113.057993 118.259878,114.777607 120.928457,114.777607 C124.318496,114.777607 127.077258,112.018845 127.077258,108.628807 C127.077258,105.238768 124.318496,102.480006 120.928457,102.480006 C118.259878,102.480006 116.005318,104.199621 115.156783,106.579207 L111.830282,106.579207 C110.887466,106.579207 110.071725,105.939731 109.84217,105.027659 L109.344117,103.035448 C108.659551,100.297182 106.20413,98.3808062 103.377731,98.3808062 L101.065782,98.3808062 C101.787242,95.7470701 102.227906,93.0067547 102.375477,90.1824057 L115.154734,90.1824057 C116.003268,92.5619914 118.257828,94.281606 120.926408,94.281606 C124.316446,94.281606 127.075208,91.5228442 127.075208,88.1328056 C127.075208,84.742767 124.316446,81.9840052 120.926408,81.9840052 C118.257828,81.9840052 116.003268,83.7036197 115.154734,86.0832054 L102.375477,86.0832054 C102.227906,83.2588565 101.785192,80.5185411 101.065782,77.8848049 L103.377731,77.8848049 Z M120.926408,65.5872041 C122.057787,65.5872041 122.976008,66.505425 122.976008,67.6368043 C122.976008,68.7681835 122.057787,69.6864044 120.926408,69.6864044 C119.795028,69.6864044 118.876808,68.7681835 118.876808,67.6368043 C118.876808,66.505425 119.795028,65.5872041 120.926408,65.5872041 Z M118.876808,4.09920026 C121.137516,4.09920026 122.976008,5.93769158 122.976008,8.19840052 C122.976008,10.4591095 121.137516,12.2976008 118.876808,12.2976008 C116.616099,12.2976008 114.777607,10.4591095 114.777607,8.19840052 C114.777607,5.93769158 116.616099,4.09920026 118.876808,4.09920026 Z M8.19840052,12.2976008 C5.93769158,12.2976008 4.09920026,10.4591095 4.09920026,8.19840052 C4.09920026,5.93769158 5.93769158,4.09920026 8.19840052,4.09920026 C10.4591095,4.09920026 12.2976008,5.93769158 12.2976008,8.19840052 C12.2976008,10.4591095 10.4591095,12.2976008 8.19840052,12.2976008 Z M6.14880039,69.6864044 C5.01742112,69.6864044 4.09920026,68.7681835 4.09920026,67.6368043 C4.09920026,66.505425 5.01742112,65.5872041 6.14880039,65.5872041 C7.28017966,65.5872041 8.19840052,66.505425 8.19840052,67.6368043 C8.19840052,68.7681835 7.28017966,69.6864044 6.14880039,69.6864044 Z M6.14880039,110.678407 C5.01742112,110.678407 4.09920026,109.760186 4.09920026,108.628807 C4.09920026,107.497428 5.01742112,106.579207 6.14880039,106.579207 C7.28017966,106.579207 8.19840052,107.497428 8.19840052,108.628807 C8.19840052,109.760186 7.28017966,110.678407 6.14880039,110.678407 Z M120.926408,106.579207 C122.057787,106.579207 122.976008,107.497428 122.976008,108.628807 C122.976008,109.760186 122.057787,110.678407 120.926408,110.678407 C119.795028,110.678407 118.876808,109.760186 118.876808,108.628807 C118.876808,107.497428 119.795028,106.579207 120.926408,106.579207 Z M63.537604,4.09920026 C78.2291377,4.09920026 90.1824057,16.0524682 90.1824057,30.7440019 L90.1824057,59.811431 C87.7208359,57.4933332 84.9825702,55.4683283 81.9840052,53.8491442 L81.9840052,30.7440019 C81.9840052,20.5718365 73.7097695,12.2976008 63.537604,12.2976008 C53.3654386,12.2976008 45.0912028,20.5718365 45.0912028,30.7440019 L45.0912028,53.8491442 C42.0926379,55.4683283 39.3543721,57.4933332 36.8928023,59.811431 L36.8928023,30.7440019 C36.8928023,16.0524682 48.8460703,4.09920026 63.537604,4.09920026 Z M77.8848049,51.9635121 C73.4392222,50.1926576 68.6062651,49.1904031 63.537604,49.1904031 C58.4689429,49.1904031 53.6359858,50.1926576 49.1904031,51.9635121 L49.1904031,30.7440019 C49.1904031,22.834595 55.6281971,16.396801 63.537604,16.396801 C71.4470109,16.396801 77.8848049,22.834595 77.8848049,30.7440019 L77.8848049,51.9635121 Z M6.14880039,90.1824057 C5.01742112,90.1824057 4.09920026,89.2641848 4.09920026,88.1328056 C4.09920026,87.0014263 5.01742112,86.0832054 6.14880039,86.0832054 C7.28017966,86.0832054 8.19840052,87.0014263 8.19840052,88.1328056 C8.19840052,89.2641848 7.28017966,90.1824057 6.14880039,90.1824057 Z M63.537604,122.976008 C44.3246524,122.976008 28.6944018,107.345757 28.6944018,88.1328056 C28.6944018,68.919854 44.3246524,53.2896034 63.537604,53.2896034 C82.7505556,53.2896034 98.3808062,68.919854 98.3808062,88.1328056 C98.3808062,107.345757 82.7505556,122.976008 63.537604,122.976008 Z M120.926408,86.0832054 C122.057787,86.0832054 122.976008,87.0014263 122.976008,88.1328056 C122.976008,89.2641848 122.057787,90.1824057 120.926408,90.1824057 C119.795028,90.1824057 118.876808,89.2641848 118.876808,88.1328056 C118.876808,87.0014263 119.795028,86.0832054 120.926408,86.0832054 Z" id="Shape" fill="#000000" fill-rule="nonzero"></path>
                        </g>
                    </g>
                </g>
                <g id="clouds"></g>
            </g>
        </g>
    </g>
</svg>