<?xml version="1.0" encoding="UTF-8"?>
<svg width="236px" height="243px" viewBox="0 0 236 243" version="1.1" xmlns="http://www.w3.org/2000/svg" xmlns:xlink="http://www.w3.org/1999/xlink">
    <!-- Generator: Sketch 58 (84663) - https://sketch.com -->
    <title>Group 3</title>
    <desc>Created with Sketch.</desc>
    <defs>
        <circle id="path-1" cx="111.149997" cy="111.149997" r="111.149997"></circle>
    </defs>
    <g id="desktop" stroke="none" stroke-width="1" fill="none" fill-rule="evenodd">
        <g id="cloud_security" transform="translate(-251.000000, -550.000000)">
            <g id="Group-21" transform="translate(253.000000, 441.000000)">
                <g id="Group-24" transform="translate(0.000000, 111.000000)">
                    <g id="Group-3">
                        <g id="Group-2" transform="translate(11.700000, 1.800000)">
                            <mask id="mask-2" fill="white">
                                <use xlink:href="#path-1"></use>
                            </mask>
                            <use id="Oval" fill="#00BAE1" xlink:href="#path-1"></use>
                            <circle id="Oval" fill="#00CDF8" mask="url(#mask-2)" cx="91.5958309" cy="85.4208311" r="111.149997"></circle>
                            <g id="loupe" opacity="0.5" mask="url(#mask-2)" fill="#000000" fill-rule="nonzero">
                                <g transform="translate(83.699998, 104.399997)">
                                    <path d="M51.8940037,31.8060022 C50.9699556,31.8060022 50.2200035,32.5559543 50.2200035,33.4800024 C50.2200035,34.4040504 50.9699556,35.1540025 51.8940037,35.1540025 C52.8180517,35.1540025 53.5680038,34.4040504 53.5680038,33.4800024 C53.5680038,32.5559543 52.8180517,31.8060022 51.8940037,31.8060022 Z" id="Path"></path>
                                    <path d="M83.7470453,74.2785658 L61.4024917,51.9340123 C65.042605,46.4509923 66.9600047,40.1015098 66.9600047,33.4800024 C66.9600047,15.0191291 51.9408757,0 33.4800024,0 C15.0191291,0 0,15.0191291 0,33.4800024 C0,51.9408757 15.0191291,66.9600047 33.4800024,66.9600047 C40.1016772,66.9600047 46.4511597,65.0424376 51.9340123,61.4026591 L58.1102357,67.5788826 C58.1110727,67.5797196 58.1119097,67.5805566 58.1129141,67.581561 L74.2783984,83.7470453 C75.5436077,85.0120872 77.2248061,85.7088061 79.0128056,85.7088061 C80.8008051,85.7088061 82.4820034,85.0120872 83.7465431,83.7475475 C85.0119198,82.4831752 85.7088061,80.8018095 85.7088061,79.0128056 C85.7088061,77.2238017 85.0119198,75.5424359 83.7470453,74.2785658 Z M51.14673,57.8747039 C51.14673,57.8748713 51.1465626,57.8748713 51.1463952,57.8750387 C45.979259,61.628147 39.8704978,63.6120045 33.4800024,63.6120045 C16.8652164,63.6120045 3.34800024,50.0947883 3.34800024,33.4800024 C3.34800024,16.8652164 16.8652164,3.34800024 33.4800024,3.34800024 C50.0947883,3.34800024 63.6120045,16.8652164 63.6120045,33.4800024 C63.6120045,39.8704978 61.628147,45.979259 57.8748713,51.1465626 C55.9971454,53.733395 53.7335624,55.9971454 51.14673,57.8747039 Z M54.6587823,59.3923524 C56.3913724,57.9749765 57.9751439,56.391205 59.3923524,54.6587823 L64.1416581,59.408088 C62.6973308,61.1127223 61.1127223,62.6974982 59.408088,64.1416581 L54.6587823,59.3923524 Z M81.3796743,81.3796743 C80.7469023,82.0124464 79.9063868,82.3608058 79.0128056,82.3608058 C78.1192243,82.3608058 77.2787089,82.0124464 76.6459368,81.3796743 L61.7816528,66.5153903 C63.4769127,65.0605168 65.0605168,63.4770801 66.5152229,61.7818202 L81.3800091,76.6466064 C82.0124464,77.2783741 82.3608058,78.1185547 82.3608058,79.0128056 C82.3608058,79.9070564 82.0124464,80.7472371 81.3796743,81.3796743 Z" id="Shape"></path>
                                    <path d="M33.4800024,6.69600047 C18.7111363,6.69600047 6.69600047,18.7111363 6.69600047,33.4800024 C6.69600047,48.2488684 18.7111363,60.2640043 33.4800024,60.2640043 C48.2488684,60.2640043 60.2640043,48.2488684 60.2640043,33.4800024 C60.2640043,18.7111363 48.2488684,6.69600047 33.4800024,6.69600047 Z M33.4800024,56.916004 C20.5573911,56.916004 10.0440007,46.4026137 10.0440007,33.4800024 C10.0440007,20.5573911 20.5573911,10.0440007 33.4800024,10.0440007 C46.4026137,10.0440007 56.916004,20.5573911 56.916004,33.4800024 C56.916004,46.4026137 46.4026137,56.916004 33.4800024,56.916004 Z" id="Shape"></path>
                                    <path d="M52.2396847,26.2940221 C50.7982032,22.542253 48.2883748,19.334534 44.9812202,17.0178852 C41.5953875,14.645827 37.6182981,13.3920009 33.4800024,13.3920009 C32.5556195,13.3920009 31.8060022,14.1416182 31.8060022,15.0660011 C31.8060022,15.9903839 32.5556195,16.7400012 33.4800024,16.7400012 C40.3599754,16.7400012 46.6428327,21.0619347 49.1144939,27.4949497 C49.3702811,28.1605322 50.0045597,28.5689882 50.6775078,28.5689882 C50.8770486,28.5689882 51.0801048,28.5329972 51.2774694,28.457165 C52.1404165,28.1255456 52.5713041,27.1571365 52.2396847,26.2940221 Z" id="Path"></path>
                                </g>
                            </g>
                        </g>
                        <g id="Group" stroke-width="3.5999999">
                            <path d="M0.0638720244,120.610164 C0.021402497,121.893748 0,123.182678 0,124.476618 C0,187.747827 51.1738517,239.039276 114.299997,239.039276 L114.299997,239.039276 C177.426142,239.039276 228.599994,187.747827 228.599994,124.476618 C228.599994,61.2054094 177.426142,9.91396039 114.299997,9.91396039 C113.204979,9.91396039 112.113558,9.92939404 111.025939,9.96005614" id="Path" stroke="#000000" stroke-linecap="round"></path>
                            <path d="M38.699999,166.499996 C52.1009752,168.304009 65.7375715,173.138829 79.6097879,181.004453 C93.4820044,188.870078 105.433591,200.036875 115.464548,214.504843" id="Path-3" stroke="#FFFFFF" stroke-linecap="round" transform="translate(77.082273, 190.502419) scale(-1, -1) translate(-77.082273, -190.502419) "></path>
                            <path d="M110.972888,0.47142796 L110.972888,21.0908464 C110.972888,21.2399633 110.852004,21.3608464 110.702888,21.3608464 C110.654856,21.3608464 110.607695,21.3480337 110.566266,21.3237297 L92.992422,11.0140205 C92.8638041,10.9385667 92.8207061,10.7731339 92.8961599,10.644516 C92.9194985,10.6047332 92.9526393,10.5715924 92.992422,10.5482538 L110.566266,0.238544625 C110.694884,0.163090828 110.860317,0.206188859 110.935771,0.334806774 C110.960075,0.376235113 110.972888,0.423396824 110.972888,0.47142796 Z" id="Path-2" stroke="#000000"></path>
                        </g>
                        <path d="M28.3707685,142.199996 L28.3707685,41.9177128 C22.6476631,46.3352634 13.4908318,49.8265011 0.899999976,52.3915305 L0.899999976,29.5201325 C17.0677727,27.382608 28.6568873,20.5426322 35.6676914,8.99999976 L56.6999985,8.99999976 L56.6999985,142.199996" id="Path" stroke="#000000" stroke-width="3.5999999" stroke-linecap="round" fill-rule="nonzero"></path>
                    </g>
                </g>
            </g>
        </g>
    </g>
</svg>