<?xml version="1.0" encoding="UTF-8"?>
<svg width="318px" height="319px" viewBox="0 0 318 319" version="1.1" xmlns="http://www.w3.org/2000/svg" xmlns:xlink="http://www.w3.org/1999/xlink">
    <!-- Generator: Sketch 58 (84663) - https://sketch.com -->
    <title>Group 3</title>
    <desc>Created with Sketch.</desc>
    <defs>
        <rect id="path-1" x="40" y="40" width="215" height="215" rx="16"></rect>
        <filter x="-12.6%" y="-12.6%" width="125.1%" height="125.1%" filterUnits="objectBoundingBox" id="filter-3">
            <feMorphology radius="1.5" operator="dilate" in="SourceAlpha" result="shadowSpreadOuter1"></feMorphology>
            <feOffset dx="0" dy="0" in="shadowSpreadOuter1" result="shadowOffsetOuter1"></feOffset>
            <feGaussianBlur stdDeviation="8.5" in="shadowOffsetOuter1" result="shadowBlurOuter1"></feGaussianBlur>
            <feComposite in="shadowBlurOuter1" in2="SourceAlpha" operator="out" result="shadowBlurOuter1"></feComposite>
            <feColorMatrix values="0 0 0 0 0   0 0 0 0 0   0 0 0 0 0  0 0 0 0.147235577 0" type="matrix" in="shadowBlurOuter1"></feColorMatrix>
        </filter>
    </defs>
    <g id="desktop" stroke="none" stroke-width="1" fill="none" fill-rule="evenodd">
        <g id="cloud_security" transform="translate(-912.000000, -6032.000000)">
            <g id="Group-3" transform="translate(924.000000, 6044.000000)">
                <g id="Group-16">
                    <circle id="Oval" fill="#F1F1F1" cx="150" cy="140" r="128"></circle>
                    <mask id="mask-2" fill="white">
                        <use xlink:href="#path-1"></use>
                    </mask>
                    <g id="Rectangle" fill-rule="nonzero" transform="translate(147.500000, 147.500000) rotate(-30.000000) translate(-147.500000, -147.500000) ">
                        <use fill="black" fill-opacity="1" filter="url(#filter-3)" xlink:href="#path-1"></use>
                        <use stroke="#F1F1F1" stroke-width="3" fill="#FFFFFF" xlink:href="#path-1"></use>
                    </g>
                    <g id="folder-(1)" mask="url(#mask-2)" fill-rule="nonzero">
                        <g transform="translate(88.000000, 73.000000)">
                            <path d="M112.319992,10.7999992 L54.7192761,10.7999992 L64.7999954,28.079998 L116.639992,28.079998 L116.639992,15.1199989 C116.632875,12.7370831 114.702908,10.807116 112.319992,10.7999992 Z" id="Path" fill="#BABDC0"></path>
                            <path d="M127.439991,32.3999977 L127.439991,114.479992 C127.432874,116.862908 125.502907,118.792875 123.119991,118.799992 L6.47999954,118.799992 C4.09708368,118.792875 2.16711662,116.862908 2.15999985,114.479992 L2.15999985,28.079998 L123.119991,28.079998 C125.502907,28.0871148 127.432874,30.0170818 127.439991,32.3999977 Z" id="Path" fill="#E6E9ED"></path>
                            <path d="M12.9599991,112.319992 C10.5770832,112.312875 8.64711616,110.382908 8.63999939,107.999992 L8.63999939,28.079998 L2.15999985,28.079998 L2.15999985,114.479992 C2.16711662,116.862908 4.09708368,118.792875 6.47999954,118.799992 L123.119991,118.799992 C125.502907,118.792875 127.432874,116.862908 127.439991,114.479992 L127.439991,112.319992 L12.9599991,112.319992 Z" id="Path" fill="#B8BABD"></path>
                            <rect id="Rectangle" fill="#1BB4C2" x="43.1999969" y="62.6399956" width="43.1999969" height="43.1999969" rx="8.63999939"></rect>
                            <circle id="Oval" fill="#14649A" cx="64.7999954" cy="75.5999947" r="4.31999969"></circle>
                            <path d="M64.7999954,28.079998 L54.7192761,10.7999992 L50.9306364,4.3027197 C50.1561354,2.97545897 48.734865,2.15954449 47.1981567,2.15999966 L6.47999954,2.15999966 C4.09412959,2.15999966 2.15999985,4.09412959 2.15999985,6.47999954 L2.15999985,28.079998 L64.7999954,28.079998 Z" id="Path" fill="#A2A4A7"></path>
                            <path d="M12.9599991,2.15999985 L6.47999954,2.15999985 C4.09412959,2.15999985 2.15999985,4.09412959 2.15999985,6.47999954 L2.15999985,28.079998 L8.63999939,28.079998 L8.63999939,6.47999954 C8.63999939,4.09412959 10.5741291,2.15999985 12.9599991,2.15999985 Z" id="Path" fill="#828486"></path>
                            <path d="M28.079998,17.2799988 C24.5011931,17.2799988 21.5999985,20.1811934 21.5999985,23.7599983 L21.5999985,28.079998 L34.5599976,28.079998 L34.5599976,23.7599983 C34.5599976,20.1811934 31.6588029,17.2799988 28.079998,17.2799988 L28.079998,17.2799988 Z" id="Path" fill="#FFD800"></path>
                            <path d="M84.239994,101.519993 L58.3199959,101.519993 C53.548256,101.519993 49.6799965,97.6517333 49.6799965,92.8799934 L49.6799965,66.9599953 C49.6890489,65.4785994 50.0827883,64.0249642 50.8226364,62.7415156 C46.4838343,63.2422606 43.2073561,66.9123989 43.1999969,71.279995 L43.1999969,97.1999931 C43.1999969,101.971733 47.0682564,105.839993 51.8399963,105.839993 L77.7599945,105.839993 C80.8755774,105.833214 83.743784,104.141708 85.257354,101.418473 C84.9204963,101.472064 84.5807994,101.505962 84.239994,101.519993 L84.239994,101.519993 Z" id="Path" fill="#1795A0"></path>
                            <path d="M79.9199944,60.6959957 L79.9199944,53.9999962 C79.9199944,45.6494514 73.1505402,38.8799973 64.7999954,38.8799973 C56.4494506,38.8799973 49.6799965,45.6494514 49.6799965,53.9999962 L49.6799965,60.6959957 C44.6549366,61.7294102 41.0464734,66.1497775 41.0399971,71.279995 L41.0399971,97.1999931 C41.0471383,103.161708 45.878282,107.992851 51.8399963,107.999992 L77.7599945,107.999992 C83.7217089,107.992851 88.5528525,103.161708 88.5599937,97.1999931 L88.5599937,71.279995 C88.5535174,66.1497775 84.9450543,61.7294102 79.9199944,60.6959957 L79.9199944,60.6959957 Z M53.9999962,53.9999962 C53.9999962,48.0353213 58.8353205,43.1999969 64.7999954,43.1999969 C70.7646703,43.1999969 75.5999947,48.0353213 75.5999947,53.9999962 L75.5999947,60.4799957 L53.9999962,60.4799957 L53.9999962,53.9999962 Z M84.239994,97.1999931 C84.239994,100.778798 81.3387994,103.679993 77.7599945,103.679993 L51.8399963,103.679993 C48.2611914,103.679993 45.3599968,100.778798 45.3599968,97.1999931 L45.3599968,71.279995 C45.3599968,67.70119 48.2611914,64.7999954 51.8399963,64.7999954 L77.7599945,64.7999954 C81.3387994,64.7999954 84.239994,67.70119 84.239994,71.279995 L84.239994,97.1999931 Z" id="Shape" fill="#000000"></path>
                            <path d="M66.9599953,90.7199936 L71.279995,90.7199936 L71.279995,86.3999939 L66.9599953,86.3999939 L66.9599953,81.6825542 C69.9354959,80.6305559 71.7203586,77.5879155 71.1866736,74.4773713 C70.6529886,71.3668272 67.9559904,69.0931525 64.7999954,69.0931525 C61.6440004,69.0931525 58.9470022,71.3668272 58.4133172,74.4773713 C57.8796322,77.5879155 59.6644949,80.6305559 62.6399956,81.6825542 L62.6399956,99.359993 L66.9599953,99.359993 L66.9599953,97.1999931 L71.279995,97.1999931 L71.279995,92.8799934 L66.9599953,92.8799934 L66.9599953,90.7199936 Z M64.7999954,73.4399948 C65.9929304,73.4399948 66.9599953,74.4070597 66.9599953,75.5999947 C66.9599953,76.7929296 65.9929304,77.7599945 64.7999954,77.7599945 C63.6070604,77.7599945 62.6399956,76.7929296 62.6399956,75.5999947 C62.6399956,74.4070597 63.6070604,73.4399948 64.7999954,73.4399948 Z" id="Shape" fill="#000000"></path>
                            <path d="M123.119991,25.9199982 L118.799992,25.9199982 L118.799992,15.1199989 C118.799992,11.541194 115.898797,8.63999939 112.319992,8.63999939 L55.961276,8.63999939 L52.7947163,3.21407977 C51.6311803,1.2271021 49.5028972,0.00436651245 47.2003167,0 L6.47999954,0 C2.90119462,0 0,2.90119462 0,6.47999954 L0,114.479992 C0,118.058797 2.90119462,120.959991 6.47999954,120.959991 L123.119991,120.959991 C126.698796,120.959991 129.599991,118.058797 129.599991,114.479992 L129.599991,32.3999977 C129.599991,28.8211928 126.698796,25.9199982 123.119991,25.9199982 Z M112.319992,12.9599991 C113.512927,12.9599991 114.479992,13.927064 114.479992,15.1199989 L114.479992,25.9199982 L66.0398353,25.9199982 L58.4798359,12.9599991 L112.319992,12.9599991 Z M4.31999969,6.47999954 C4.31999969,5.28706457 5.28706457,4.31999969 6.47999954,4.31999969 L47.2003167,4.31999969 C47.9696746,4.32232936 48.6797193,4.73371103 49.0643965,5.39999962 L61.0394357,25.9199982 L36.7199974,25.9199982 L36.7199974,23.7599983 C36.7199974,18.9882584 32.8517379,15.1199989 28.079998,15.1199989 C23.3082581,15.1199989 19.4399986,18.9882584 19.4399986,23.7599983 L19.4399986,25.9199982 L4.31999969,25.9199982 L4.31999969,6.47999954 Z M32.3999977,25.9199982 L23.7599983,25.9199982 L23.7599983,23.7599983 C23.7599983,21.3741284 25.6941281,19.4399986 28.079998,19.4399986 C30.465868,19.4399986 32.3999977,21.3741284 32.3999977,23.7599983 L32.3999977,25.9199982 Z M125.279991,114.479992 C125.279991,115.672927 124.312926,116.639992 123.119991,116.639992 L6.47999954,116.639992 C5.28706457,116.639992 4.31999969,115.672927 4.31999969,114.479992 L4.31999969,30.2399979 L123.119991,30.2399979 C124.312926,30.2399979 125.279991,31.2070627 125.279991,32.3999977 L125.279991,114.479992 Z" id="Shape" fill="#000000"></path>
                            <polygon id="Path" fill="#000000" points="92.8799934 79.9199944 112.319992 79.9199944 112.319992 84.239994 92.8799934 84.239994"></polygon>
                            <polygon id="Path" fill="#000000" points="116.639992 79.9199944 120.959991 79.9199944 120.959991 84.239994 116.639992 84.239994"></polygon>
                            <polygon id="Path" fill="#000000" points="92.8799934 66.9599953 107.999992 66.9599953 107.999992 71.279995 92.8799934 71.279995"></polygon>
                            <polygon id="Path" fill="#000000" points="112.319992 66.9599953 116.639992 66.9599953 116.639992 71.279995 112.319992 71.279995"></polygon>
                            <polygon id="Path" fill="#000000" points="92.8799934 92.8799934 107.999992 92.8799934 107.999992 97.1999931 92.8799934 97.1999931"></polygon>
                            <polygon id="Path" fill="#000000" points="112.319992 92.8799934 116.639992 92.8799934 116.639992 97.1999931 112.319992 97.1999931"></polygon>
                            <polygon id="Path" fill="#000000" points="17.2799988 79.9199944 36.7199974 79.9199944 36.7199974 84.239994 17.2799988 84.239994"></polygon>
                            <polygon id="Path" fill="#000000" points="8.63999939 79.9199944 12.9599991 79.9199944 12.9599991 84.239994 8.63999939 84.239994"></polygon>
                            <polygon id="Path" fill="#000000" points="21.5999985 66.9599953 36.7199974 66.9599953 36.7199974 71.279995 21.5999985 71.279995"></polygon>
                            <polygon id="Path" fill="#000000" points="12.9599991 66.9599953 17.2799988 66.9599953 17.2799988 71.279995 12.9599991 71.279995"></polygon>
                            <polygon id="Path" fill="#000000" points="21.5999985 92.8799934 36.7199974 92.8799934 36.7199974 97.1999931 21.5999985 97.1999931"></polygon>
                            <polygon id="Path" fill="#000000" points="12.9599991 92.8799934 17.2799988 92.8799934 17.2799988 97.1999931 12.9599991 97.1999931"></polygon>
                            <polygon id="Path" fill="#000000" points="66.9599953 17.2799988 101.519993 17.2799988 101.519993 21.5999985 66.9599953 21.5999985"></polygon>
                            <polygon id="Path" fill="#000000" points="105.839993 17.2799988 110.159992 17.2799988 110.159992 21.5999985 105.839993 21.5999985"></polygon>
                            <polygon id="Path" fill="#000000" points="25.9199982 6.47999954 30.2399979 6.47999954 30.2399979 12.9599991 25.9199982 12.9599991"></polygon>
                            <polygon id="Path" fill="#000000" transform="translate(21.059999, 11.599817) rotate(-30.000728) translate(-21.059999, -11.599817) " points="18.9000462 8.35988845 23.2199508 8.35988845 23.2199508 14.8397454 18.9000462 14.8397454"></polygon>
                            <polygon id="Path" fill="#000000" transform="translate(15.921359, 16.737221) rotate(-59.999272) translate(-15.921359, -16.737221) " points="13.7614065 13.4972926 18.0813112 13.4972926 18.0813112 19.9771495 13.7614065 19.9771495"></polygon>
                            <polygon id="Path" fill="#000000" transform="translate(35.100615, 11.605679) rotate(-59.999272) translate(-35.100615, -11.605679) " points="31.8606868 9.44572685 38.3405438 9.44572685 38.3405438 13.7656315 31.8606868 13.7656315"></polygon>
                            <polygon id="Path" fill="#000000" transform="translate(40.238019, 16.742159) rotate(-30.000728) translate(-40.238019, -16.742159) " points="36.9980909 14.5822065 43.4779479 14.5822065 43.4779479 18.9021111 36.9980909 18.9021111"></polygon>
                        </g>
                    </g>
                </g>
                <g id="clouds"></g>
            </g>
        </g>
    </g>
</svg>