<?xml version="1.0" encoding="UTF-8"?>
<svg width="318px" height="319px" viewBox="0 0 318 319" version="1.1" xmlns="http://www.w3.org/2000/svg" xmlns:xlink="http://www.w3.org/1999/xlink">
    <!-- Generator: Sketch 58 (84663) - https://sketch.com -->
    <title>Group 3</title>
    <desc>Created with Sketch.</desc>
    <defs>
        <rect id="path-1" x="40" y="40" width="215" height="215" rx="16"></rect>
        <filter x="-12.6%" y="-12.6%" width="125.1%" height="125.1%" filterUnits="objectBoundingBox" id="filter-3">
            <feMorphology radius="1.5" operator="dilate" in="SourceAlpha" result="shadowSpreadOuter1"></feMorphology>
            <feOffset dx="0" dy="0" in="shadowSpreadOuter1" result="shadowOffsetOuter1"></feOffset>
            <feGaussianBlur stdDeviation="8.5" in="shadowOffsetOuter1" result="shadowBlurOuter1"></feGaussianBlur>
            <feComposite in="shadowBlurOuter1" in2="SourceAlpha" operator="out" result="shadowBlurOuter1"></feComposite>
            <feColorMatrix values="0 0 0 0 0   0 0 0 0 0   0 0 0 0 0  0 0 0 0.147235577 0" type="matrix" in="shadowBlurOuter1"></feColorMatrix>
        </filter>
    </defs>
    <g id="desktop" stroke="none" stroke-width="1" fill="none" fill-rule="evenodd">
        <g id="cloud_security" transform="translate(-912.000000, -3696.000000)">
            <g id="Group-3" transform="translate(924.000000, 3708.000000)">
                <g id="Group-16">
                    <circle id="Oval" fill="#F1F1F1" cx="150" cy="140" r="128"></circle>
                    <mask id="mask-2" fill="white">
                        <use xlink:href="#path-1"></use>
                    </mask>
                    <g id="Rectangle" fill-rule="nonzero" transform="translate(147.500000, 147.500000) rotate(-30.000000) translate(-147.500000, -147.500000) ">
                        <use fill="black" fill-opacity="1" filter="url(#filter-3)" xlink:href="#path-1"></use>
                        <use stroke="#F1F1F1" stroke-width="3" fill="#FFFFFF" xlink:href="#path-1"></use>
                    </g>
                    <g id="cloud-(4)" mask="url(#mask-2)" fill-rule="nonzero">
                        <g transform="translate(81.000000, 77.000000)">
                            <path d="M21.4667984,34.1759974 C22.5347983,22.1930383 32.5953575,12.815999 44.8559966,12.815999 C48.9357563,12.815999 52.780556,13.862639 56.1340758,15.6995988 C61.4740753,7.51871943 70.7015946,2.13599984 81.1679939,2.13599984 C97.6792726,2.13599984 111.071992,15.5287188 111.071992,32.0399976 C111.071992,32.7662375 111.007912,33.4711175 110.965192,34.1759974 L111.071992,34.1759974 C121.687911,34.1759974 130.29599,42.7840768 130.29599,53.399996 C130.29599,64.0159152 121.687911,72.6239945 111.071992,72.6239945 L93.9839929,72.6239945 L93.9626329,72.6026345 L99.4521525,65.553835 L90.3741532,56.4758357 L82.8340737,62.3498353 C80.0786339,60.6837554 77.0455142,59.4021555 73.8201544,58.6118356 L72.6239945,49.1279963 L59.8079955,49.1279963 L58.6118356,58.6118356 C55.3864758,59.4021555 52.353356,60.6837554 49.5979162,62.3498353 L42.0578368,56.4758357 L32.9798375,65.553835 L38.4693571,72.6026345 L38.4479971,72.6239945 L21.3599984,72.6239945 C10.7440792,72.6239945 2.13599984,64.0159152 2.13599984,53.399996 C2.13599984,42.7840768 10.7440792,34.1759974 21.3599984,34.1759974 L21.4667984,34.1759974 Z" id="Path" fill="#E6E9ED"></path>
                            <path d="M21.2959184,122.371431 C21.9367183,121.965591 22.6843183,121.751991 23.4959982,121.751991 C25.845598,121.751991 27.7679979,123.674391 27.7679979,126.02399 C27.7679979,128.37359 25.845598,130.29599 23.4959982,130.29599 C21.1463984,130.29599 19.2239985,128.37359 19.2239985,126.02399 C19.2239985,124.486071 20.0570385,123.119031 21.2959184,122.371431 Z" id="Path" fill="#FFD800"></path>
                            <path d="M121.751991,79.031994 C124.101591,79.031994 126.02399,80.9543939 126.02399,83.3039937 C126.02399,85.6535935 124.101591,87.5759934 121.751991,87.5759934 C121.730631,87.5759934 121.730631,87.5759934 121.709271,87.5759934 C119.381031,87.5546334 117.479991,85.6322335 117.479991,83.3039937 C117.479991,80.9543939 119.402391,79.031994 121.751991,79.031994 Z" id="Path" fill="#FFD800"></path>
                            <path d="M106.799992,83.3039937 L106.799992,96.1199927 L97.3161526,97.3161526 C96.5258327,100.541512 95.2442328,103.574632 93.5781529,106.330072 L99.4521525,113.870151 L90.3741532,122.948151 L82.8340737,117.074151 C80.0786339,118.740231 77.0455142,120.021831 73.8201544,120.812151 L72.6239945,130.29599 L59.8079955,130.29599 L58.6118356,120.812151 C55.3864758,120.021831 52.353356,118.740231 49.5979162,117.074151 L42.0578368,122.948151 L32.9798375,113.870151 L38.8538371,106.330072 C37.1877572,103.574632 35.9061573,100.541512 35.1158373,97.3161526 L25.6319981,96.1199927 L25.6319981,83.3039937 L35.1158373,82.1078338 C35.9061573,78.882474 37.1877572,75.8493543 38.8538371,73.0939145 L38.4693571,72.6026345 L32.9798375,65.553835 L42.0578368,56.4758357 L49.5979162,62.3498353 C52.353356,60.6837554 55.3864758,59.4021555 58.6118356,58.6118356 L59.8079955,49.1279963 L72.6239945,49.1279963 L73.8201544,58.6118356 C77.0455142,59.4021555 80.0786339,60.6837554 82.8340737,62.3498353 L90.3741532,56.4758357 L99.4521525,65.553835 L93.9626329,72.6026345 L93.5781529,73.0939145 C95.2442328,75.8493543 96.5258327,78.882474 97.3161526,82.1078338 L106.799992,83.3039937 Z M89.7119932,89.7119932 C89.7119932,76.7251142 79.202874,66.215995 66.215995,66.215995 C53.229116,66.215995 42.7199968,76.7251142 42.7199968,89.7119932 C42.7199968,102.698872 53.229116,113.207991 66.215995,113.207991 C79.202874,113.207991 89.7119932,102.698872 89.7119932,89.7119932 Z" id="Shape" fill="#1CB6C4"></path>
                            <path d="M66.215995,66.215995 C79.202874,66.215995 89.7119932,76.7251142 89.7119932,89.7119932 C89.7119932,102.698872 79.202874,113.207991 66.215995,113.207991 C53.229116,113.207991 42.7199968,102.698872 42.7199968,89.7119932 C42.7199968,76.7251142 53.229116,66.215995 66.215995,66.215995 Z M81.1679939,89.7119932 C81.1679939,81.4456738 74.4823144,74.7599943 66.215995,74.7599943 C57.9496756,74.7599943 51.2639961,81.4456738 51.2639961,89.7119932 C51.2639961,97.9783126 57.9496756,104.663992 66.215995,104.663992 C74.4823144,104.663992 81.1679939,97.9783126 81.1679939,89.7119932 Z" id="Shape" fill="#159AA6"></path>
                            <path d="M81.1679939,12.815999 L81.1679939,8.54399935 C79.574538,8.54399935 77.9810821,8.70419934 76.4346182,9.02246332 L77.2911542,13.206887 C78.5578021,12.948431 79.860762,12.815999 81.1679939,12.815999 Z" id="Path" fill="#000000"></path>
                            <path d="M73.7496664,14.2983829 L72.1006745,10.3595992 C63.3345312,14.0271109 57.6719956,22.5369343 57.6719956,32.0399976 L61.9439953,32.0399976 C61.9439953,24.2649582 66.576979,17.3015987 73.7496664,14.2983829 Z" id="Path" fill="#000000"></path>
                            <path d="M99.0057285,99.2470965 L108.935992,98.0060806 L108.935992,81.4179058 L99.0057285,80.1768899 C98.4610485,78.3057541 97.7134486,76.5093782 96.8590487,74.7599943 L111.071992,74.7599943 C122.849895,74.7599943 132.43199,65.1778991 132.43199,53.399996 C132.43199,42.3718288 124.033239,33.2703335 113.207991,32.1596136 C113.207991,32.1190296 113.207991,32.0805816 113.207991,32.0399976 C113.207991,14.3731429 98.8348485,0 81.1679939,0 C70.6268347,0 61.2882434,5.13921561 55.4462838,13.018919 C52.1312121,11.5130391 48.5213723,10.6799992 44.8559966,10.6799992 C32.3134056,10.6799992 21.5992304,19.9502385 19.5807105,32.1297096 C8.63371135,33.0396455 0,42.2223088 0,53.399996 C0,65.1778991 9.58209527,74.7599943 21.3599984,74.7599943 L35.5729413,74.7599943 C34.7185414,76.5093782 33.9688054,78.3057541 33.4262615,80.1768899 L23.4959982,81.4179058 L23.4959982,98.0060806 L33.4262615,99.2470965 C34.1247334,101.64796 35.0816613,103.961248 36.2906373,106.152784 L30.1453657,114.053847 L41.8741408,125.782622 L49.7752042,119.637351 C51.9667401,120.844191 54.2800279,121.803255 56.6808917,122.501727 L57.9219076,132.43199 L74.5100824,132.43199 L75.7510983,122.501727 C78.1519621,121.803255 80.4652499,120.846327 82.6567857,119.637351 L90.5578491,125.782622 L102.286624,114.053847 L96.1413527,106.152784 C97.3503286,103.961248 98.3072566,101.64796 99.0057285,99.2470965 Z M4.27199968,53.399996 C4.27199968,43.9781007 11.9381031,36.3119973 21.3599984,36.3119973 C25.884046,36.3119973 30.1475017,38.0613811 33.3643175,41.2397489 L36.3653972,38.2002211 C32.9542055,34.8296134 28.5967658,32.7619655 23.9039742,32.2066056 C25.83919,22.3639183 34.6181494,14.9519989 44.8559966,14.9519989 C47.6947404,14.9519989 50.4971722,15.5393988 53.096684,16.6244867 C50.5719322,21.2019344 49.1279963,26.454358 49.1279963,32.0399976 L53.399996,32.0399976 C53.399996,16.7291507 65.857147,4.27199968 81.1679939,4.27199968 C96.4788407,4.27199968 108.935992,16.7291507 108.935992,32.0399976 C108.935992,32.6380775 108.891136,33.2276135 108.833464,34.0286134 L108.775792,36.3119973 L111.071992,36.3119973 C120.493887,36.3119973 128.15999,43.9781007 128.15999,53.399996 C128.15999,62.8218912 120.493887,70.4879947 111.071992,70.4879947 L98.3072566,70.4879947 L102.28876,65.3701391 L90.5599851,53.6413639 L82.6589217,59.7866355 C80.4673859,58.5797956 78.1540981,57.6207316 75.7532343,56.9222597 L74.5100824,46.9919964 L57.9219076,46.9919964 L56.6808917,56.9222597 C54.2800279,57.6207316 51.9667401,58.5776596 49.7752042,59.7866355 L41.8741408,53.6413639 L30.1453657,65.3701391 L34.1247334,70.4879947 L21.3599984,70.4879947 C11.9381031,70.4879947 4.27199968,62.8218912 4.27199968,53.399996 Z M96.6005927,113.699271 L90.2054092,120.094455 L82.9814577,114.476775 L81.7233538,115.243599 C79.106754,116.837055 76.2765542,118.009719 73.3053785,118.733823 L71.8742586,119.081991 L70.7379066,128.15999 L61.6940833,128.15999 L60.5598674,119.081991 L59.1287475,118.733823 C56.1575718,118.011855 53.327372,116.837055 50.7107722,115.243599 L49.4526683,114.476775 L42.2287168,120.094455 L35.8335333,113.699271 L41.4512129,106.47532 L40.6843889,105.217216 C39.090933,102.600616 37.9182691,99.7704164 37.1941652,96.7992407 L36.8459972,95.3681208 L27.7679979,94.2339049 L27.7679979,85.1900816 L36.8459972,84.0558656 L37.1941652,82.6247457 C37.9161331,79.65357 39.090933,76.8233702 40.6843889,74.2067704 L41.4512129,72.9486665 L35.8335333,65.724715 L42.2287168,59.3295315 L49.4526683,64.9472111 L50.7107722,64.1803871 C53.327372,62.5869313 56.1575718,61.4142674 59.1287475,60.6901634 L60.5598674,60.3419954 L61.6940833,51.2639961 L70.7379066,51.2639961 L71.8721226,60.3419954 L73.3032425,60.6901634 C76.2744182,61.4121314 79.104618,62.5869313 81.7212178,64.1803871 L82.9793217,64.9472111 L90.2032732,59.3295315 L96.5984567,65.724715 L90.9807771,72.9486665 L91.7476011,74.2067704 C93.3410569,76.8233702 94.5137208,79.65357 95.2378248,82.6247457 L95.5859928,84.0558656 L104.663992,85.1900816 L104.663992,94.2339049 L95.5859928,95.3681208 L95.2378248,96.7992407 C94.5158568,99.7704164 93.3410569,102.600616 91.7476011,105.217216 L90.9807771,106.47532 L96.6005927,113.699271 Z" id="Shape" fill="#000000"></path>
                            <path d="M66.215995,72.6239945 C56.7940997,72.6239945 49.1279963,80.2900979 49.1279963,89.7119932 C49.1279963,99.1338885 56.7940997,106.799992 66.215995,106.799992 C75.6378903,106.799992 83.3039937,99.1338885 83.3039937,89.7119932 C83.3039937,80.2900979 75.6378903,72.6239945 66.215995,72.6239945 Z M66.215995,102.527992 C59.1479715,102.527992 53.399996,96.7800167 53.399996,89.7119932 C53.399996,82.6439697 59.1479715,76.8959942 66.215995,76.8959942 C73.2840185,76.8959942 79.031994,82.6439697 79.031994,89.7119932 C79.031994,96.7800167 73.2840185,102.527992 66.215995,102.527992 Z" id="Shape" fill="#000000"></path>
                            <path d="M81.5930578,69.2021228 C80.3306819,68.2537388 78.974322,67.4206989 77.5666981,66.722227 L75.6720663,70.5520747 C76.8468662,71.1309306 77.9746741,71.8272666 79.027722,72.6175865 L81.5930578,69.2021228 Z" id="Path" fill="#000000"></path>
                            <path d="M87.2000574,85.7005855 L91.3972971,84.9017216 C91.1025291,83.3509857 90.6603771,81.8237458 90.0857932,80.3584499 L86.1085615,81.9155938 C86.5870254,83.1373857 86.9544174,84.4104416 87.2000574,85.7005855 L87.2000574,85.7005855 Z" id="Path" fill="#000000"></path>
                            <path d="M87.9604733,76.1355782 C87.1274334,74.8005783 86.1619615,73.5360664 85.0960976,72.3762185 L81.9497698,75.2662263 C82.8404817,76.2359702 83.6436177,77.2911542 84.3399536,78.4018741 L87.9604733,76.1355782 Z" id="Path" fill="#000000"></path>
                            <path d="M91.847993,89.7782092 L91.847993,89.6137372 L87.5759934,89.7119932 C87.5759934,91.0320411 87.4542414,92.352089 87.2171454,93.6379609 L91.4186571,94.4176009 C91.7027451,92.875409 91.847993,91.2926331 91.847993,89.7782092 L91.847993,89.7782092 Z" id="Path" fill="#000000"></path>
                            <path d="M73.1473145,65.0283791 C71.6307546,64.6033151 70.0672027,64.3170911 68.4972428,64.1803871 L68.1213068,68.4352988 C69.4285387,68.5506428 70.7314986,68.7898748 71.9960106,69.1423148 L73.1473145,65.0283791 Z" id="Path" fill="#000000"></path>
                            <path d="M64.1761151,68.4481148 L63.7745472,64.1953391 C62.2024513,64.3427231 60.6388994,64.6396271 59.1266115,65.0732351 L60.3078194,69.1786268 C61.5659233,68.8176428 62.8667472,68.5720028 64.1761151,68.4481148 L64.1761151,68.4481148 Z" id="Path" fill="#000000"></path>
                            <path d="M79.09821,106.750864 L81.6763618,110.157784 C82.9323297,109.207264 84.1071296,108.134992 85.1665856,106.970872 L82.0074418,104.09368 C81.1231379,105.063424 80.1448499,105.958408 79.09821,106.750864 Z" id="Path" fill="#000000"></path>
                            <path d="M84.3848096,100.947352 L88.0138733,103.200832 C88.8447773,101.86156 89.5539292,100.436848 90.1242412,98.9672805 L86.1406015,97.4229526 C85.6685455,98.6468805 85.0768736,99.8323604 84.3848096,100.947352 L84.3848096,100.947352 Z" id="Path" fill="#000000"></path>
                            <path d="M66.245899,111.071992 C65.575195,111.059176 64.9194431,111.042088 64.2700991,110.984416 L63.8792112,115.237191 C64.6609871,115.309815 65.4000431,115.341855 66.250171,115.343991 C67.0426269,115.343991 67.8286749,115.305543 68.6061788,115.235055 L68.2110188,110.98228 C67.5638109,111.039952 66.9101949,111.071992 66.245899,111.071992 Z" id="Path" fill="#000000"></path>
                            <path d="M46.3063405,97.4656726 L42.3269728,99.0185445 C42.8972848,100.481704 43.6107087,101.90428 44.4437486,103.245688 L48.0706764,100.987936 C47.3743404,99.8686724 46.7805325,98.6853285 46.3063405,97.4656726 L46.3063405,97.4656726 Z" id="Path" fill="#000000"></path>
                            <path d="M47.2995804,107.011456 C48.3633083,108.17344 49.5402443,109.243576 50.7962122,110.189824 L53.367956,106.778632 C52.31918,105.988312 51.3387561,105.095464 50.4501802,104.12572 L47.2995804,107.011456 Z" id="Path" fill="#000000"></path>
                            <path d="M54.8182999,112.676127 C56.2280597,113.376735 57.7125796,113.951319 59.2312755,114.380655 L60.3932594,110.268856 C59.1287475,109.912144 57.8941396,109.43368 56.7193397,108.850552 L54.8182999,112.676127 Z" id="Path" fill="#000000"></path>
                            <path d="M72.0814505,110.25604 L73.2519785,114.365703 C74.7664023,113.934231 76.2487862,113.357511 77.6606821,112.652631 L75.7510983,108.831328 C74.5762984,109.418728 73.3416904,109.897192 72.0814505,110.25604 L72.0814505,110.25604 Z" id="Path" fill="#000000"></path>
                            <path d="M46.2743005,82.0416178 L42.2885248,80.5058339 C41.7224848,81.9754018 41.2910129,83.5069137 41.0069249,85.0597856 L45.2084366,85.8287455 C45.4433966,84.5386016 45.8022445,83.2634097 46.2743005,82.0416178 L46.2743005,82.0416178 Z" id="Path" fill="#000000"></path>
                            <path d="M50.3946442,75.3623463 L47.2312284,72.4915625 C46.1717725,73.6578184 45.2169806,74.9287383 44.3882126,76.2680102 L48.0236844,78.5129461 C48.7136123,77.3958181 49.5103403,76.3363622 50.3946442,75.3623463 L50.3946442,75.3623463 Z" id="Path" fill="#000000"></path>
                            <path d="M56.6403077,70.6140187 L54.7264519,66.7948509 C53.320964,67.4997309 51.9710121,68.3434508 50.7150442,69.2982428 L53.30174,72.6987545 C54.3483799,71.9020266 55.4719158,71.1992826 56.6403077,70.6140187 L56.6403077,70.6140187 Z" id="Path" fill="#000000"></path>
                            <path d="M44.8559966,89.7568492 L40.5839969,89.7653932 C40.5861329,91.3460331 40.7356529,92.928809 41.0261489,94.4710009 L45.2255246,93.6828169 C44.9820206,92.396945 44.8581326,91.0768971 44.8559966,89.7568492 L44.8559966,89.7568492 Z" id="Path" fill="#000000"></path>
                            <path d="M121.751991,76.8959942 C118.219047,76.8959942 115.343991,79.77105 115.343991,83.3039937 C115.343991,86.0829295 117.131823,88.4303933 119.609583,89.3168332 C119.609583,89.4492652 119.615991,89.5795612 119.615991,89.7119932 C119.615991,104.44612 113.438679,118.671879 102.666832,128.73671 L105.582472,131.857406 C117.215127,120.987303 123.887991,105.625192 123.887991,89.7119932 C123.887991,89.5816972 123.881583,89.4514012 123.879447,89.3211052 C126.36575,88.4389373 128.15999,86.0872015 128.15999,83.3039937 C128.15999,79.77105 125.284935,76.8959942 121.751991,76.8959942 L121.751991,76.8959942 Z M121.751991,85.4399935 C120.575055,85.4399935 119.615991,84.4809296 119.615991,83.3039937 C119.615991,82.1270578 120.575055,81.1679939 121.751991,81.1679939 C122.928927,81.1679939 123.887991,82.1270578 123.887991,83.3039937 C123.887991,84.4809296 122.928927,85.4399935 121.751991,85.4399935 Z" id="Shape" fill="#000000"></path>
                            <path d="M23.4959982,119.615991 C23.0239423,119.615991 22.5668383,119.675799 22.1225503,119.771919 C16.0520388,110.892568 12.815999,100.54792 12.815999,89.7119932 C12.815999,86.2559455 13.147079,82.7998977 13.802831,79.43997 L9.60986327,78.6218821 C8.90284733,82.2509458 8.54399935,85.9825375 8.54399935,89.7119932 C8.54399935,101.361736 12.0085911,112.486023 18.5084386,122.048895 C17.6326787,123.144663 17.0879987,124.515975 17.0879987,126.02399 C17.0879987,129.556934 19.9630545,132.43199 23.4959982,132.43199 C27.028942,132.43199 29.9039977,129.556934 29.9039977,126.02399 C29.9039977,122.491047 27.028942,119.615991 23.4959982,119.615991 L23.4959982,119.615991 Z M23.4959982,128.15999 C22.3190623,128.15999 21.3599984,127.200926 21.3599984,126.02399 C21.3599984,124.847055 22.3190623,123.887991 23.4959982,123.887991 C24.6729341,123.887991 25.6319981,124.847055 25.6319981,126.02399 C25.6319981,127.200926 24.6729341,128.15999 23.4959982,128.15999 Z" id="Shape" fill="#000000"></path>
                        </g>
                    </g>
                </g>
                <g id="clouds"></g>
            </g>
        </g>
    </g>
</svg>