<?xml version="1.0" encoding="UTF-8"?>
<svg width="318px" height="319px" viewBox="0 0 318 319" version="1.1" xmlns="http://www.w3.org/2000/svg" xmlns:xlink="http://www.w3.org/1999/xlink">
    <!-- Generator: Sketch 58 (84663) - https://sketch.com -->
    <title>Group 3</title>
    <desc>Created with Sketch.</desc>
    <defs>
        <rect id="path-1" x="40" y="40" width="215" height="215" rx="16"></rect>
        <filter x="-12.6%" y="-12.6%" width="125.1%" height="125.1%" filterUnits="objectBoundingBox" id="filter-3">
            <feMorphology radius="1.5" operator="dilate" in="SourceAlpha" result="shadowSpreadOuter1"></feMorphology>
            <feOffset dx="0" dy="0" in="shadowSpreadOuter1" result="shadowOffsetOuter1"></feOffset>
            <feGaussianBlur stdDeviation="8.5" in="shadowOffsetOuter1" result="shadowBlurOuter1"></feGaussianBlur>
            <feComposite in="shadowBlurOuter1" in2="SourceAlpha" operator="out" result="shadowBlurOuter1"></feComposite>
            <feColorMatrix values="0 0 0 0 0   0 0 0 0 0   0 0 0 0 0  0 0 0 0.147235577 0" type="matrix" in="shadowBlurOuter1"></feColorMatrix>
        </filter>
    </defs>
    <g id="desktop" stroke="none" stroke-width="1" fill="none" fill-rule="evenodd">
        <g id="cloud_security" transform="translate(-208.000000, -5637.000000)">
            <g id="Group-3" transform="translate(220.000000, 5649.000000)">
                <g id="Group-18">
                    <circle id="Oval" fill="#F1F1F1" cx="148" cy="148" r="128"></circle>
                    <mask id="mask-2" fill="white">
                        <use xlink:href="#path-1"></use>
                    </mask>
                    <g id="Rectangle" fill-rule="nonzero" transform="translate(147.500000, 147.500000) rotate(-30.000000) translate(-147.500000, -147.500000) ">
                        <use fill="black" fill-opacity="1" filter="url(#filter-3)" xlink:href="#path-1"></use>
                        <use stroke="#F1F1F1" stroke-width="3" fill="#FFFFFF" xlink:href="#path-1"></use>
                    </g>
                    <g id="cloud-(7)" mask="url(#mask-2)">
                        <g transform="translate(63.000000, 87.000000)">
                            <path d="M25.1891667,41.8181818 C26.5808333,26.1781818 39.6903333,13.9393939 55.6666667,13.9393939 C60.9828333,13.9393939 65.9928333,15.3054545 70.3626667,17.7030303 C77.321,7.02545455 89.345,0 102.983333,0 C124.4985,0 141.95,17.48 141.95,39.030303 C141.95,39.9781818 141.8665,40.8981818 141.810833,41.8181818 L141.95,41.8181818 C155.783167,41.8181818 167,53.0533333 167,66.9090909 C167,80.7648485 155.783167,92 141.95,92 L119.683333,92 L119.6555,91.9721212 L47.3445,91.9721212 L47.3166667,92 L25.05,92 C11.2168333,92 0,80.7648485 0,66.9090909 C0,53.0533333 11.2168333,41.8181818 25.05,41.8181818 L25.1891667,41.8181818 Z" id="Path" stroke="#000000" stroke-width="4" fill="#E6E9ED" fill-rule="nonzero"></path>
                            <g id="Group-23" stroke="none" stroke-width="1" fill="none" fill-rule="evenodd" transform="translate(90.000000, 16.000000) rotate(11.000000) translate(-90.000000, -16.000000) translate(78.000000, 4.000000)">
                                <path d="M23.4959982,4.27199968 L23.4959982,1.53210777e-13 C21.9025423,1.53210777e-13 20.3090865,0.160199988 18.7626226,0.478463964 L19.6191585,4.66288765 C20.8858064,4.40443167 22.1887663,4.27199968 23.4959982,4.27199968 Z" id="Path" fill="#000000" fill-rule="nonzero"></path>
                                <path d="M16.0776708,5.75438356 L14.4286789,1.81559986 C5.66253557,5.48311159 1.93622895e-13,13.9929349 1.93622895e-13,23.4959982 L4.27199968,23.4959982 C4.27199968,15.7209588 8.90498333,8.75759934 16.0776708,5.75438356 Z" id="Path" fill="#000000" fill-rule="nonzero"></path>
                            </g>
                            <path d="M74.7599991,64.639999 L74.7599991,54.1199991 C74.7599991,52.529419 76.049419,51.2399991 77.6399991,51.2399991 L89.1599989,51.2399991 C90.750579,51.2399991 92.0399989,52.529419 92.0399989,54.1199991 L92.0399989,65.639999 L54.5999993,65.639999 C53.0094193,65.639999 51.7199994,66.9294189 51.7199994,68.5199989 L51.7199994,114.599998 C51.7199994,116.190578 53.0094193,117.479998 54.5999993,117.479998 L112.199999,117.479998 C113.790579,117.479998 115.079999,116.190578 115.079999,114.599998 L115.079999,68.5199989 C115.079999,66.9294189 113.790579,65.639999 112.199999,65.639999 L112.199999,65.639999 L103.559999,65.639999 L103.559999,51.2399991 C103.559999,44.8776789 98.4023191,39.7199993 92.0399989,39.7199993 L74.7599991,39.7199993 C68.3976789,39.7199993 63.2399992,44.8776789 63.2399992,51.2399991 L63.2399992,64.639999 M89.1599989,92.1964787 L89.1599989,105.959998 L77.6399991,105.959998 L77.6399991,92.1964787 C74.9699232,89.8082902 74.0505123,86.0201296 75.3287499,82.6736601 C76.6069875,79.3271907 79.8177163,77.1166031 83.399999,77.1166031 C86.9822817,77.1166031 90.1930105,79.3271907 91.4712481,82.6736601 C92.7494857,86.0201296 91.8300748,89.8082902 89.1599989,92.1964787 Z" id="Shape" stroke="#000000" stroke-width="4" fill="#1BB4C2" fill-rule="nonzero"></path>
                            <path d="M83.399999,77.1599564 C79.8228533,77.1488086 76.6112986,79.3502978 75.3316747,82.6907558 C74.0520509,86.0312137 74.9708675,89.8149176 77.6399991,92.1964787 L77.6399991,105.959998 L89.1599989,105.959998 L89.1599989,92.1964787 C91.8291305,89.8149176 92.7479471,86.0312137 91.4683233,82.6907558 C90.1886994,79.3502978 86.9771447,77.1488086 83.399999,77.1599564 L83.399999,77.1599564 Z" id="Path" stroke="#000000" stroke-width="4" fill="#FFD800" fill-rule="nonzero"></path>
                        </g>
                    </g>
                </g>
                <g id="clouds"></g>
            </g>
        </g>
    </g>
</svg>