<?xml version="1.0" encoding="utf-8"?>
<!-- Generator: Adobe Illustrator 22.0.1, SVG Export Plug-In . SVG Version: 6.00 Build 0)  -->
<svg version="1.1" id="Layer_1" xmlns="http://www.w3.org/2000/svg" xmlns:xlink="http://www.w3.org/1999/xlink" x="0px" y="0px"
	 viewBox="0 0 885.9 176.3" style="enable-background:new 0 0 885.9 176.3;" xml:space="preserve">
<style type="text/css">
	.st0{fill:#03AEEF;}
	.st1{fill:#1293DB;}
	.st2{fill:#7A7A7A;}
</style>
<g>
	<g>
		<path class="st0" d="M314.3,163.2c-3.8,0-7.4-0.7-10.7-2.1c-3.2-1.4-6.1-3.4-8.5-6c-2.4-2.5-4.2-5.5-5.7-8.9
			c-1.3-3.4-2-7.2-2-11.2s0.7-7.8,2-11.1c1.3-3.3,3.2-6.2,5.7-8.6c2.4-2.3,5.2-4.1,8.5-5.5c3.2-1.3,6.9-1.9,10.7-1.9h29.9v9.7h-29.9
			c-2.5,0-4.7,0.4-6.9,1.3c-2.1,0.9-3.9,2.1-5.5,3.6c-1.5,1.6-2.7,3.4-3.5,5.7c-0.9,2.2-1.3,4.5-1.3,7.2c0,2.6,0.4,4.9,1.3,7.2
			c0.9,2.2,2,4.1,3.5,5.8s3.3,2.8,5.5,3.7s4.3,1.4,6.9,1.4h29.9v9.7L314.3,163.2L314.3,163.2z"/>
		<path class="st0" d="M352,163.2V108h9.7v45.5h37.2v9.7H352z"/>
		<path class="st0" d="M430.9,163.2c-3.8,0-7.4-0.7-10.7-2.1c-3.2-1.4-6.1-3.4-8.5-6c-2.4-2.5-4.2-5.5-5.7-8.9
			c-1.3-3.4-2-7.2-2-11.2s0.7-7.8,2-11.1s3.2-6.2,5.7-8.6c2.4-2.3,5.2-4.1,8.5-5.5c3.2-1.3,6.9-1.9,10.7-1.9h13.4c4,0,7.7,0.7,11,2
			c3.3,1.3,6.2,3.1,8.6,5.6s4.2,5.2,5.6,8.6c1.3,3.3,2,7,2,11c0,4-0.7,7.7-2,11.2c-1.3,3.4-3.2,6.5-5.7,8.9c-2.4,2.5-5.2,4.4-8.6,6
			c-3.3,1.4-6.9,2.1-10.9,2.1h-13.4V163.2z M444.3,153.6c2.5,0,4.8-0.5,7-1.4s3.9-2.1,5.6-3.7c1.5-1.6,2.7-3.5,3.6-5.8
			c0.9-2.2,1.3-4.6,1.3-7.2c0-2.6-0.4-4.9-1.3-7.2c-0.9-2.2-2-4-3.6-5.7c-1.5-1.6-3.3-2.8-5.6-3.6c-2.1-0.9-4.4-1.3-7-1.3h-13.4
			c-2.5,0-4.7,0.4-6.9,1.3c-2.1,0.9-3.9,2.1-5.5,3.6c-1.5,1.6-2.7,3.4-3.5,5.7c-0.9,2.2-1.3,4.5-1.3,7.2c0,2.6,0.4,4.9,1.3,7.2
			c0.9,2.2,2,4.1,3.5,5.8c1.5,1.6,3.3,2.8,5.5,3.7s4.3,1.4,6.9,1.4H444.3z"/>
		<path class="st0" d="M528.5,108h9.4v30.8c0,4.2-0.6,8-1.7,11.1c-1.1,3.1-2.8,5.8-5.2,7.9c-2.4,2.1-5.5,3.6-9.2,4.6
			c-3.7,1-8.4,1.5-13.7,1.5s-9.9-0.5-13.6-1.5c-3.7-1-6.9-2.5-9.2-4.6c-2.4-2.1-4.1-4.6-5.2-7.9c-1.1-3.1-1.7-6.9-1.7-11.1V108h10
			v30.8c0,2.8,0.3,5.1,1,7.2c0.7,2,1.8,3.6,3.3,4.8c1.5,1.3,3.6,2.2,6.2,2.7c2.6,0.6,5.8,0.9,9.6,0.9c3.8,0,7-0.3,9.6-0.9
			s4.6-1.5,6.2-2.7c1.5-1.3,2.6-2.9,3.3-4.8c0.7-2,1-4.3,1-7.2V108H528.5z"/>
		<path class="st0" d="M546.6,163.2V108h32c3.9,0,7.5,0.7,10.8,2c3.3,1.3,6.2,3.1,8.5,5.6c2.4,2.4,4.2,5.2,5.6,8.6s2,7,2,11
			c0,4-0.7,7.7-2,11.2c-1.3,3.4-3.2,6.5-5.6,8.9c-2.4,2.5-5.2,4.4-8.5,6c-3.3,1.4-6.9,2.1-10.8,2.1h-32V163.2z M578.6,153.6
			c2.5,0,4.7-0.5,6.9-1.4c2.1-0.9,3.9-2.1,5.5-3.7s2.7-3.5,3.6-5.8c0.9-2.2,1.3-4.6,1.3-7.2c0-2.6-0.4-4.9-1.3-7.2
			c-0.9-2.2-2-4-3.6-5.7c-1.5-1.6-3.3-2.8-5.5-3.6c-2.1-0.9-4.3-1.3-6.9-1.3h-22.4v35.9h22.4V153.6z"/>
		<path class="st0" d="M638.6,163.2c-3.8,0-7.4-0.7-10.7-2.1c-3.2-1.4-6.1-3.4-8.5-6c-2.4-2.5-4.2-5.5-5.7-8.9
			c-1.3-3.4-2-7.2-2-11.2s0.7-7.8,2-11.1s3.2-6.2,5.7-8.6c2.4-2.3,5.2-4.1,8.5-5.5c3.2-1.3,6.9-1.9,10.7-1.9h29.9v9.7h-29.9
			c-2.5,0-4.7,0.4-6.9,1.3c-2.1,0.9-3.9,2.1-5.5,3.6c-1.5,1.6-2.7,3.4-3.5,5.7c-0.9,2.2-1.3,4.5-1.3,7.2c0,2.6,0.4,4.9,1.3,7.2
			c0.9,2.2,2,4.1,3.5,5.8s3.3,2.8,5.5,3.7s4.3,1.4,6.9,1.4h29.9v9.7L638.6,163.2L638.6,163.2z"/>
		<path class="st0" d="M733.9,163.2l-8.3-13.9h-26.1l4.5-7.8h17l-12.3-20.7l-25,42.4h-11l31.7-52.8c0.6-1,1.2-1.7,2-2.3
			c0.8-0.6,1.7-0.8,2.7-0.8s1.9,0.3,2.7,0.8s1.4,1.3,1.9,2.3l31.8,52.8H733.9z"/>
		<path class="st0" d="M802.6,163.2l-13.9-15.3H768v-8.5h23c3.5,0,6.2-0.9,7.9-2.8c1.8-1.9,2.6-4.6,2.6-8.3c0-3.6-0.9-6.3-2.7-8
			s-4.4-2.6-7.8-2.6h-30.1v45.5h-9.6V108H791c3.1,0,6,0.5,8.4,1.4c2.5,0.9,4.5,2.3,6.3,4c1.7,1.7,3,3.8,3.9,6.4
			c0.9,2.5,1.4,5.2,1.4,8.4c0,4.6-1,8.5-3,11.6s-4.8,5.4-8.4,6.8l16.7,16.8h-13.6V163.2z"/>
		<path class="st0" d="M821.3,163.2V108h49.3v9.7h-39.7v35.9h39.8v9.7h-49.4V163.2z M837.9,139.3v-8.1h30.6v8.1H837.9z"/>
	</g>
	<g>
		<polygon class="st0" points="27,125.3 61.9,125.3 61.9,106.5 61.9,104 61.9,90.4 27,90.4 27,104 26.8,104 26.8,106.5 27,106.5 		
			"/>
		<polygon class="st1" points="40.6,161.3 40.6,162.8 70.3,162.8 70.3,161.3 70.3,133.2 40.6,133.2 		"/>
		<rect x="69.8" y="110.2" class="st2" width="20.5" height="20.5"/>
		<polygon class="st2" points="24.2,132.6 15.3,132.6 15.3,153.1 24.2,153.1 26.8,153.1 35.8,153.1 35.8,132.6 26.8,132.6 		"/>
		<rect x="40.6" y="64.3" class="st2" width="20.5" height="20.5"/>
		<rect x="75.7" y="137.8" class="st2" width="17.7" height="17.7"/>
		<polygon class="st1" points="114.5,110.6 96.3,110.6 96.3,161.2 96.3,163.9 147.4,163.9 147.4,161.2 147.4,130.8 147.4,128 
			147.4,110.6 117,110.6 		"/>
		<polygon class="st1" points="110.4,106.5 110.4,104.1 110.4,96.4 110.4,65.8 106.6,65.8 103.9,65.8 67.7,65.8 67.7,104.1 
			67.7,106.5 107.8,106.5 		"/>
		<path class="st0" d="M260.3,74.5c-1.8-1.8-3.8-3.6-5.9-5.1c-0.4-0.3-0.8-0.6-1.2-0.9c-0.3-0.2-0.6-0.4-0.9-0.6l-1.8,1.9
			l-24.7,26.6l7.5,7.5l-18.4,18.4l-2.9-2.9l-1.8-1.8l-2-2l-5.4-5.4l-6.3-6.3l18.4-18.4l8.9,8.9l24.3-26.1l1.8-1.9l8.6-9.3l2,2
			l1.8,1.8l2.9,2.9l18.3-18.4L265.1,27l-18.4,18.4l6.3,6.3l-10.5,11.1c-6.1-2.4-12.6-3.7-19.3-3.7c-6.5-27.1-31.3-46.7-59.3-46.7
			S111,32,104.5,59.1c-0.1,0.3-0.2,0.7-0.3,1c-0.1,0.5-0.2,1-0.3,1.6h2.6h7.8V104v0.6v1.9h1.4h1.2h34.5v24v2.6v28.2v2.6h2.6h69.2
			c28.9,0,52.4-23.5,52.4-52.4c0-7-1.4-13.8-4-20.1C269.1,85.2,265.2,79.4,260.3,74.5z"/>
	</g>
</g>
</svg>
