<?xml version="1.0" encoding="utf-8"?>
<!-- Generator: Adobe Illustrator 22.0.1, SVG Export Plug-In . SVG Version: 6.00 Build 0)  -->
<svg version="1.1" id="Layer_1" xmlns="http://www.w3.org/2000/svg" xmlns:xlink="http://www.w3.org/1999/xlink" x="0px" y="0px"
	 viewBox="0 0 1073.5 152" style="enable-background:new 0 0 1073.5 152;" xml:space="preserve">
<style type="text/css">
	.st0{fill:#03AEEF;}
	.st1{fill:#1293DB;}
	.st2{fill:#7A7A7A;}
</style>
<g>
	<g>
		<path class="st0" d="M309.1,151c-5.2,0-10.2-1-14.7-2.9c-4.4-1.9-8.4-4.7-11.7-8.2c-3.3-3.4-5.8-7.6-7.8-12.2
			c-1.8-4.7-2.7-9.9-2.7-15.4c0-5.5,1-10.7,2.7-15.2c1.8-4.5,4.4-8.5,7.8-11.8c3.3-3.2,7.1-5.6,11.7-7.6c4.4-1.8,9.5-2.6,14.7-2.6
			h41.1v13.3h-41.1c-3.4,0-6.5,0.5-9.5,1.8c-2.9,1.2-5.4,2.9-7.6,4.9c-2.1,2.2-3.7,4.7-4.8,7.8c-1.2,3-1.8,6.2-1.8,9.9
			c0,3.6,0.5,6.7,1.8,9.9c1.2,3,2.7,5.6,4.8,8c2.1,2.3,4.5,3.8,7.6,5.1c3,1.2,5.9,1.9,9.5,1.9h41.1V151L309.1,151L309.1,151z"/>
		<path class="st0" d="M360.8,151V75.2h13.3v62.5h51.1V151H360.8z"/>
		<path class="st0" d="M469.2,151c-5.2,0-10.2-1-14.7-2.9c-4.4-1.9-8.4-4.7-11.7-8.2c-3.3-3.4-5.8-7.6-7.8-12.2
			c-1.8-4.7-2.7-9.9-2.7-15.4c0-5.5,1-10.7,2.7-15.2s4.4-8.5,7.8-11.8c3.3-3.2,7.1-5.6,11.7-7.6c4.4-1.8,9.5-2.6,14.7-2.6h18.4
			c5.5,0,10.6,1,15.1,2.7s8.5,4.3,11.8,7.7c3.3,3.4,5.8,7.1,7.7,11.8c1.8,4.5,2.7,9.6,2.7,15.1c0,5.5-1,10.6-2.7,15.4
			c-1.8,4.7-4.4,8.9-7.8,12.2c-3.3,3.4-7.1,6-11.8,8.2c-4.5,1.9-9.5,2.9-15,2.9h-18.4V151z M487.6,137.8c3.4,0,6.6-0.7,9.6-1.9
			c3-1.2,5.4-2.9,7.7-5.1c2.1-2.2,3.7-4.8,4.9-8c1.2-3,1.8-6.3,1.8-9.9c0-3.6-0.5-6.7-1.8-9.9c-1.2-3-2.7-5.5-4.9-7.8
			c-2.1-2.2-4.5-3.8-7.7-4.9c-2.9-1.2-6-1.8-9.6-1.8h-18.4c-3.4,0-6.5,0.5-9.5,1.8c-2.9,1.2-5.4,2.9-7.6,4.9
			c-2.1,2.2-3.7,4.7-4.8,7.8c-1.2,3-1.8,6.2-1.8,9.9c0,3.6,0.5,6.7,1.8,9.9c1.2,3,2.7,5.6,4.8,8c2.1,2.2,4.5,3.8,7.6,5.1
			c3,1.2,5.9,1.9,9.5,1.9H487.6z"/>
		<path class="st0" d="M603.3,75.2h12.9v42.3c0,5.8-0.8,11-2.3,15.2c-1.5,4.3-3.8,8-7.1,10.9c-3.3,2.9-7.6,4.9-12.6,6.3
			c-5.1,1.4-11.5,2.1-18.8,2.1s-13.6-0.7-18.7-2.1c-5.1-1.4-9.5-3.4-12.6-6.3c-3.3-2.9-5.6-6.3-7.1-10.9c-1.5-4.3-2.3-9.5-2.3-15.2
			V75.2h13.7v42.3c0,3.8,0.4,7,1.4,9.9c1,2.7,2.5,4.9,4.5,6.6c2.1,1.8,4.9,3,8.5,3.7c3.6,0.8,8,1.2,13.2,1.2c5.2,0,9.6-0.4,13.2-1.2
			c3.6-0.8,6.3-2.1,8.5-3.7c2.1-1.8,3.6-4,4.5-6.6c1-2.7,1.4-5.9,1.4-9.9V75.2H603.3z"/>
		<path class="st0" d="M628.2,151V75.2h44c5.4,0,10.3,1,14.8,2.7c4.5,1.8,8.5,4.3,11.7,7.7c3.3,3.3,5.8,7.1,7.7,11.8
			c1.9,4.7,2.7,9.6,2.7,15.1s-1,10.6-2.7,15.4c-1.8,4.7-4.4,8.9-7.7,12.2c-3.3,3.4-7.1,6-11.7,8.2c-4.5,1.9-9.5,2.9-14.8,2.9h-44
			V151z M672.1,137.8c3.4,0,6.5-0.7,9.5-1.9c2.9-1.2,5.4-2.9,7.6-5.1c2.2-2.2,3.7-4.8,4.9-8c1.2-3,1.8-6.3,1.8-9.9
			c0-3.6-0.5-6.7-1.8-9.9c-1.2-3-2.7-5.5-4.9-7.8c-2.1-2.2-4.5-3.8-7.6-4.9c-2.9-1.2-5.9-1.8-9.5-1.8h-30.8v49.3L672.1,137.8
			L672.1,137.8z"/>
		<path class="st0" d="M754.5,151c-5.2,0-10.2-1-14.7-2.9c-4.4-1.9-8.4-4.7-11.7-8.2c-3.3-3.4-5.8-7.6-7.8-12.2
			c-1.8-4.7-2.7-9.9-2.7-15.4c0-5.5,1-10.7,2.7-15.2s4.4-8.5,7.8-11.8c3.3-3.2,7.1-5.6,11.7-7.6c4.4-1.8,9.5-2.6,14.7-2.6h41.1v13.3
			h-41.1c-3.4,0-6.5,0.5-9.5,1.8c-2.9,1.2-5.4,2.9-7.6,4.9c-2.1,2.2-3.7,4.7-4.8,7.8c-1.2,3-1.8,6.2-1.8,9.9c0,3.6,0.5,6.7,1.8,9.9
			c1.2,3,2.7,5.6,4.8,8c2.1,2.3,4.5,3.8,7.6,5.1s5.9,1.9,9.5,1.9h41.1V151L754.5,151L754.5,151z"/>
		<path class="st0" d="M885.4,151L874,131.9h-35.9l6.2-10.7h23.4l-16.9-28.4L816.5,151h-15.1l43.5-72.5c0.8-1.4,1.6-2.3,2.7-3.2
			c1.1-0.8,2.3-1.1,3.7-1.1s2.6,0.4,3.7,1.1c1.1,0.7,1.9,1.8,2.6,3.2l43.7,72.5L885.4,151L885.4,151z"/>
		<path class="st0" d="M979.8,151l-19.1-21h-28.4v-11.7h31.6c4.8,0,8.5-1.2,10.9-3.8c2.5-2.6,3.6-6.3,3.6-11.4c0-4.9-1.2-8.7-3.7-11
			s-6-3.6-10.7-3.6h-41.3V151h-13.2V75.2h54.5c4.3,0,8.2,0.7,11.5,1.9c3.4,1.2,6.2,3.2,8.7,5.5c2.3,2.3,4.1,5.2,5.4,8.8
			c1.2,3.4,1.9,7.1,1.9,11.5c0,6.3-1.4,11.7-4.1,15.9c-2.7,4.3-6.6,7.4-11.5,9.3l22.9,23.1H980V151H979.8z"/>
		<path class="st0" d="M1005.5,151V75.2h67.7v13.3h-54.5v49.3h54.7v13.3h-67.9L1005.5,151L1005.5,151z M1028.3,118.2V107h42v11.1
			H1028.3z"/>
	</g>
	<g>
		<polygon class="st0" points="11.7,113.4 46.6,113.4 46.6,94.6 46.6,92.1 46.6,78.5 11.7,78.5 11.7,92.1 11.5,92.1 11.5,94.6 
			11.7,94.6 		"/>
		<polygon class="st1" points="25.3,149.4 25.3,150.9 55,150.9 55,149.4 55,121.3 25.3,121.3 		"/>
		<rect x="54.5" y="98.3" class="st2" width="20.5" height="20.5"/>
		<polygon class="st2" points="8.9,120.7 0,120.7 0,141.2 8.9,141.2 11.5,141.2 20.5,141.2 20.5,120.7 11.5,120.7 		"/>
		<rect x="25.3" y="52.4" class="st2" width="20.5" height="20.5"/>
		<rect x="60.4" y="125.9" class="st2" width="17.7" height="17.7"/>
		<polygon class="st1" points="99.2,98.7 81,98.7 81,149.3 81,152 132.1,152 132.1,149.3 132.1,118.9 132.1,116.1 132.1,98.7 
			101.7,98.7 		"/>
		<polygon class="st1" points="95.1,94.6 95.1,92.2 95.1,84.5 95.1,53.9 91.3,53.9 88.6,53.9 52.4,53.9 52.4,92.2 52.4,94.6 
			92.5,94.6 		"/>
		<path class="st0" d="M245,62.6c-1.8-1.8-3.8-3.6-5.9-5.1c-0.4-0.3-0.8-0.6-1.2-0.9c-0.3-0.2-0.6-0.4-0.9-0.6l-1.8,1.9l-24.7,26.6
			L218,92l-18.4,18.4l-2.9-2.9l-1.8-1.8l-2-2l-5.4-5.4l-6.3-6.3l18.4-18.4l8.9,8.9l24.3-26.1l1.8-1.9l8.6-9.3l2,2L247,49l2.9,2.9
			l18.3-18.4l-18.4-18.4l-18.4,18.4l6.3,6.3l-10.5,11.1c-6.1-2.4-12.6-3.7-19.3-3.7c-6.5-27.1-31.3-46.7-59.3-46.7
			S95.7,20.1,89.2,47.2c-0.1,0.3-0.2,0.7-0.3,1c-0.1,0.5-0.2,1-0.3,1.6h2.6H99v42.3v0.6v1.9h1.4h1.2h34.5v24v2.6v28.2v2.6h2.6h69.2
			c28.9,0,52.4-23.5,52.4-52.4c0-7-1.4-13.8-4-20.1C253.8,73.3,249.9,67.5,245,62.6z"/>
	</g>
</g>
</svg>
