<svg id="Layer_1" data-name="Layer 1" xmlns="http://www.w3.org/2000/svg" viewBox="0 0 527.64 95.12"><defs><style>.cls-1{fill:#03aeef;}.cls-2{fill:#7a7a7a;}.cls-3{fill:#1293db;}</style></defs><title>Cloud Care New</title><path class="cls-1" d="M229.46,329.16a15.65,15.65,0,0,1-6.38-1.29,15.84,15.84,0,0,1-5.09-3.54,16.09,16.09,0,0,1-3.35-5.34,18,18,0,0,1-1.21-6.67,17.51,17.51,0,0,1,1.21-6.63,14.75,14.75,0,0,1,3.35-5.1,15.14,15.14,0,0,1,5.09-3.27,17.23,17.23,0,0,1,6.38-1.16h17.88v5.77H229.46a10.42,10.42,0,0,0-4.11.79,9.68,9.68,0,0,0-3.25,2.2,10,10,0,0,0-2.13,3.36,11.52,11.52,0,0,0-.77,4.31,11.67,11.67,0,0,0,.77,4.31,10.06,10.06,0,0,0,2.13,3.43,9.67,9.67,0,0,0,3.25,2.25,10.26,10.26,0,0,0,4.11.82h17.88v5.76Z" transform="translate(-34.49 -250.08)"/><path class="cls-1" d="M252,329.16v-33h5.76V323.4H280v5.76Z" transform="translate(-34.49 -250.08)"/><path class="cls-1" d="M299.18,329.16a15.63,15.63,0,0,1-11.46-4.83,16,16,0,0,1-3.36-5.34,18.21,18.21,0,0,1-1.2-6.67,17.7,17.7,0,0,1,1.2-6.63,14.63,14.63,0,0,1,3.36-5.1,15,15,0,0,1,5.08-3.27,17.23,17.23,0,0,1,6.38-1.16h8a17.56,17.56,0,0,1,6.56,1.18,14.56,14.56,0,0,1,8.42,8.42,17.56,17.56,0,0,1,1.18,6.56,18.21,18.21,0,0,1-1.2,6.67,16,16,0,0,1-3.36,5.34,15.78,15.78,0,0,1-5.1,3.54,16.08,16.08,0,0,1-6.5,1.29Zm8-5.76a10.57,10.57,0,0,0,4.18-.82,9.83,9.83,0,0,0,3.29-2.25,10.12,10.12,0,0,0,2.16-3.43,12.39,12.39,0,0,0,0-8.6,10.1,10.1,0,0,0-2.16-3.38,9.85,9.85,0,0,0-3.29-2.2,10.73,10.73,0,0,0-4.18-.79h-8a10.49,10.49,0,0,0-4.11.79,9.64,9.64,0,0,0-3.24,2.2,10.22,10.22,0,0,0-2.14,3.36,11.72,11.72,0,0,0-.77,4.31,11.87,11.87,0,0,0,.77,4.31,10.23,10.23,0,0,0,2.14,3.43,9.62,9.62,0,0,0,3.24,2.25,10.33,10.33,0,0,0,4.11.82Z" transform="translate(-34.49 -250.08)"/><path class="cls-1" d="M357.55,296.16h5.63v18.43a19.93,19.93,0,0,1-1,6.65,10.89,10.89,0,0,1-3.13,4.7,13.68,13.68,0,0,1-5.51,2.77,37.17,37.17,0,0,1-16.35,0,13.68,13.68,0,0,1-5.51-2.77,10.89,10.89,0,0,1-3.13-4.7,19.93,19.93,0,0,1-1-6.65V296.16h5.95v18.43a13.11,13.11,0,0,0,.61,4.27,6.28,6.28,0,0,0,2,2.9,8.76,8.76,0,0,0,3.69,1.66,31.72,31.72,0,0,0,11.44,0,8.75,8.75,0,0,0,3.7-1.66,6.28,6.28,0,0,0,2-2.9,13.11,13.11,0,0,0,.61-4.27Z" transform="translate(-34.49 -250.08)"/><path class="cls-1" d="M368.4,329.16v-33h19.11a17.17,17.17,0,0,1,6.45,1.18,15,15,0,0,1,5.08,3.31,15.3,15.3,0,0,1,3.34,5.11,17.37,17.37,0,0,1,1.2,6.56,18.21,18.21,0,0,1-1.2,6.67,16.22,16.22,0,0,1-3.34,5.34,15.38,15.38,0,0,1-5.08,3.54,16,16,0,0,1-6.45,1.29Zm19.11-5.76a10.29,10.29,0,0,0,4.11-.82,9.85,9.85,0,0,0,3.27-2.25A10,10,0,0,0,397,316.9a12.24,12.24,0,0,0,0-8.6,9.71,9.71,0,0,0-5.42-5.58,10.46,10.46,0,0,0-4.11-.79H374.12V323.4Z" transform="translate(-34.49 -250.08)"/><path class="cls-1" d="M423.37,329.16a15.63,15.63,0,0,1-11.46-4.83,16,16,0,0,1-3.36-5.34,18.21,18.21,0,0,1-1.2-6.67,17.7,17.7,0,0,1,1.2-6.63,14.63,14.63,0,0,1,3.36-5.1,15.09,15.09,0,0,1,5.08-3.27,17.27,17.27,0,0,1,6.38-1.16h17.89v5.77H423.37a10.49,10.49,0,0,0-4.11.79,9.74,9.74,0,0,0-3.24,2.2,10.22,10.22,0,0,0-2.14,3.36,11.72,11.72,0,0,0-.77,4.31,11.87,11.87,0,0,0,.77,4.31,10.23,10.23,0,0,0,2.14,3.43,9.72,9.72,0,0,0,3.24,2.25,10.33,10.33,0,0,0,4.11.82h17.89v5.76Z" transform="translate(-34.49 -250.08)"/><path class="cls-1" d="M480.34,329.16l-4.95-8.3H459.78l2.72-4.68h10.12l-7.35-12.35-15,25.33h-6.58l19-31.59a4.29,4.29,0,0,1,1.18-1.36,2.66,2.66,0,0,1,1.64-.5,2.55,2.55,0,0,1,1.61.5,4.5,4.5,0,0,1,1.16,1.36l19,31.59Z" transform="translate(-34.49 -250.08)"/><path class="cls-1" d="M521.47,329.16,513.11,320H500.77v-5.08h13.75a6.16,6.16,0,0,0,4.72-1.7,7,7,0,0,0,1.59-4.93,6.29,6.29,0,0,0-1.66-4.79,6.5,6.5,0,0,0-4.65-1.56h-18v27.23h-5.72v-33h23.69a14.17,14.17,0,0,1,5,.84,10.3,10.3,0,0,1,3.77,2.41,10.41,10.41,0,0,1,2.36,3.79,14.51,14.51,0,0,1,.81,5,12.52,12.52,0,0,1-1.79,6.92,10,10,0,0,1-5,4l9.95,10Z" transform="translate(-34.49 -250.08)"/><path class="cls-1" d="M532.63,329.16v-33h29.46v5.77H538.35V323.4h23.79v5.76Zm9.94-14.34V310h18.3v4.86Z" transform="translate(-34.49 -250.08)"/><path class="cls-2" d="M217.46,345.08a3.92,3.92,0,0,1-1.61-.32,4.1,4.1,0,0,1-1.27-.89,4.2,4.2,0,0,1-.85-1.34,4.64,4.64,0,0,1-.3-1.68,4.46,4.46,0,0,1,.3-1.66,3.82,3.82,0,0,1,.85-1.28,3.61,3.61,0,0,1,1.27-.82,4.27,4.27,0,0,1,1.61-.29H222v1.44h-4.49a2.63,2.63,0,0,0-1,.2,2.49,2.49,0,0,0-.82.56,2.43,2.43,0,0,0-.54.84,2.92,2.92,0,0,0-.19,1.08,3,3,0,0,0,.19,1.09,2.62,2.62,0,0,0,.54.86,2.49,2.49,0,0,0,.82.56,2.46,2.46,0,0,0,1,.21H222v1.44Z" transform="translate(-34.49 -250.08)"/><path class="cls-2" d="M224.26,345.08V336.8h1.45v6.84h5.57v1.44Z" transform="translate(-34.49 -250.08)"/><path class="cls-2" d="M237.25,345.08a3.89,3.89,0,0,1-1.61-.32,4.1,4.1,0,0,1-1.27-.89,4.2,4.2,0,0,1-.85-1.34,4.64,4.64,0,0,1-.3-1.68,4.46,4.46,0,0,1,.3-1.66,3.82,3.82,0,0,1,.85-1.28,3.61,3.61,0,0,1,1.27-.82,4.23,4.23,0,0,1,1.61-.29h2a4.61,4.61,0,0,1,1.65.29,3.77,3.77,0,0,1,2.12,2.12,4.52,4.52,0,0,1,.29,1.64,4.64,4.64,0,0,1-.3,1.68,4,4,0,0,1-.84,1.34,4.07,4.07,0,0,1-1.29.89,3.92,3.92,0,0,1-1.63.32Zm2-1.44a2.59,2.59,0,0,0,1.05-.21,2.53,2.53,0,0,0,.83-.56,2.62,2.62,0,0,0,.54-.86,3,3,0,0,0,.19-1.09,2.9,2.9,0,0,0-.19-1.07,2.47,2.47,0,0,0-.54-.85,2.53,2.53,0,0,0-.83-.56,2.77,2.77,0,0,0-1.05-.2h-2a2.71,2.71,0,0,0-1,.2,2.55,2.55,0,0,0-.81.56,2.43,2.43,0,0,0-.54.84,2.92,2.92,0,0,0-.19,1.08,3,3,0,0,0,.19,1.09,2.62,2.62,0,0,0,.54.86,2.54,2.54,0,0,0,1.85.77Z" transform="translate(-34.49 -250.08)"/><path class="cls-2" d="M253,336.8h1.42v4.62a4.93,4.93,0,0,1-.25,1.67,2.71,2.71,0,0,1-.79,1.18,3.33,3.33,0,0,1-1.38.7,8.19,8.19,0,0,1-2.06.23,8.1,8.1,0,0,1-2-.23,3.27,3.27,0,0,1-1.38-.7,2.71,2.71,0,0,1-.79-1.18,4.93,4.93,0,0,1-.25-1.67V336.8H247v4.62a3.05,3.05,0,0,0,.16,1.07,1.65,1.65,0,0,0,.5.74,2.22,2.22,0,0,0,.93.41,6.46,6.46,0,0,0,1.43.13,6.55,6.55,0,0,0,1.44-.13,2.22,2.22,0,0,0,.93-.41,1.65,1.65,0,0,0,.5-.74,3.32,3.32,0,0,0,.15-1.07Z" transform="translate(-34.49 -250.08)"/><path class="cls-2" d="M256.91,345.08V336.8h4.8a4.52,4.52,0,0,1,1.62.29,3.71,3.71,0,0,1,1.27.84,3.66,3.66,0,0,1,.84,1.28,4.32,4.32,0,0,1,.3,1.64,4.64,4.64,0,0,1-.3,1.68,3.9,3.9,0,0,1-3.73,2.55Zm4.8-1.44a2.53,2.53,0,0,0,1-.21,2.49,2.49,0,0,0,.82-.56,2.62,2.62,0,0,0,.54-.86,3,3,0,0,0,.2-1.09,2.91,2.91,0,0,0-.2-1.07,2.48,2.48,0,0,0-1.36-1.41,2.7,2.7,0,0,0-1-.2h-3.36v5.4Z" transform="translate(-34.49 -250.08)"/><path class="cls-2" d="M276.35,345.08a3.89,3.89,0,0,1-1.61-.32,4.1,4.1,0,0,1-1.27-.89,4,4,0,0,1-.85-1.34,4.64,4.64,0,0,1-.3-1.68,4.46,4.46,0,0,1,.3-1.66,3.68,3.68,0,0,1,.85-1.28,3.61,3.61,0,0,1,1.27-.82,4.23,4.23,0,0,1,1.61-.29h4.49v1.44h-4.49a2.71,2.71,0,0,0-1,.2,2.55,2.55,0,0,0-.81.56,2.43,2.43,0,0,0-.54.84,2.92,2.92,0,0,0-.19,1.08A3,3,0,0,0,274,342a2.62,2.62,0,0,0,.54.86,2.54,2.54,0,0,0,1.85.77h4.49v1.44Z" transform="translate(-34.49 -250.08)"/><path class="cls-2" d="M286.94,345.08a3.89,3.89,0,0,1-1.61-.32,4.1,4.1,0,0,1-1.27-.89,4.2,4.2,0,0,1-.85-1.34,4.64,4.64,0,0,1-.3-1.68,4.46,4.46,0,0,1,.3-1.66,3.82,3.82,0,0,1,.85-1.28,3.61,3.61,0,0,1,1.27-.82,4.23,4.23,0,0,1,1.61-.29h2a4.61,4.61,0,0,1,1.65.29,3.77,3.77,0,0,1,2.12,2.12,4.52,4.52,0,0,1,.29,1.64,4.64,4.64,0,0,1-.3,1.68,4,4,0,0,1-.84,1.34,4.19,4.19,0,0,1-1.29.89,3.92,3.92,0,0,1-1.63.32Zm2-1.44a2.59,2.59,0,0,0,1.05-.21,2.53,2.53,0,0,0,.83-.56,2.62,2.62,0,0,0,.54-.86,3,3,0,0,0,.19-1.09,2.9,2.9,0,0,0-.19-1.07,2.47,2.47,0,0,0-.54-.85,2.53,2.53,0,0,0-.83-.56,2.77,2.77,0,0,0-1.05-.2h-2a2.71,2.71,0,0,0-1,.2,2.55,2.55,0,0,0-.81.56,2.43,2.43,0,0,0-.54.84,2.92,2.92,0,0,0-.19,1.08,3,3,0,0,0,.19,1.09,2.62,2.62,0,0,0,.54.86,2.54,2.54,0,0,0,1.85.77Z" transform="translate(-34.49 -250.08)"/><path class="cls-2" d="M296.67,339v6.06h-1.38v-7.52a.93.93,0,0,1,.2-.63.66.66,0,0,1,.54-.24.82.82,0,0,1,.31.07,1.18,1.18,0,0,1,.31.23l5.85,5.8v-6.06h1.37v7.59a1,1,0,0,1-.19.64.68.68,0,0,1-.52.23.93.93,0,0,1-.66-.31Z" transform="translate(-34.49 -250.08)"/><path class="cls-2" d="M306.42,345.08v-1.44h6.21a1.23,1.23,0,0,0,.89-.3,1,1,0,0,0,.32-.79,1,1,0,0,0-.32-.8,1.32,1.32,0,0,0-.89-.27h-3.81a2.89,2.89,0,0,1-1.05-.18,2.16,2.16,0,0,1-.8-.49,2.11,2.11,0,0,1-.5-.74,2.47,2.47,0,0,1-.18-.95,2.6,2.6,0,0,1,.17-.93,1.92,1.92,0,0,1,.49-.73,2.21,2.21,0,0,1,.8-.49,3.08,3.08,0,0,1,1.09-.17h6v1.44h-6a1,1,0,0,0-.77.27,1,1,0,0,0-.27.75.94.94,0,0,0,.28.74,1.05,1.05,0,0,0,.75.26h3.8a2.81,2.81,0,0,1,1.92.59,2.31,2.31,0,0,1,.66,1.8,2.94,2.94,0,0,1-.16,1,2.1,2.1,0,0,1-.48.77,2.16,2.16,0,0,1-.81.51,3.23,3.23,0,0,1-1.13.18Z" transform="translate(-34.49 -250.08)"/><path class="cls-2" d="M325,336.8h1.41v4.62a4.93,4.93,0,0,1-.25,1.67,2.71,2.71,0,0,1-.79,1.18,3.27,3.27,0,0,1-1.38.7,9.3,9.3,0,0,1-4.11,0,3.33,3.33,0,0,1-1.38-.7,2.71,2.71,0,0,1-.79-1.18,5.2,5.2,0,0,1-.25-1.67V336.8H319v4.62a3.32,3.32,0,0,0,.15,1.07,1.65,1.65,0,0,0,.5.74,2.22,2.22,0,0,0,.93.41,6.55,6.55,0,0,0,1.44.13,6.4,6.4,0,0,0,1.43-.13,2.22,2.22,0,0,0,.93-.41,1.65,1.65,0,0,0,.5-.74,3.05,3.05,0,0,0,.16-1.07Z" transform="translate(-34.49 -250.08)"/><path class="cls-2" d="M328.86,345.08V336.8h1.45v6.84h5.57v1.44Z" transform="translate(-34.49 -250.08)"/><path class="cls-2" d="M339.44,345.08v-6.84h-3.15V336.8H344v1.44h-3.14v6.84Z" transform="translate(-34.49 -250.08)"/><path class="cls-2" d="M353.21,345.08,352,343h-3.92l.68-1.18h2.54l-1.84-3.1-3.77,6.36H344l4.77-7.93a1,1,0,0,1,.29-.34.65.65,0,0,1,.41-.13.63.63,0,0,1,.41.13,1,1,0,0,1,.29.34l4.78,7.93Z" transform="translate(-34.49 -250.08)"/><path class="cls-2" d="M358.33,339v6.06H357v-7.52a.93.93,0,0,1,.2-.63.66.66,0,0,1,.54-.24.82.82,0,0,1,.31.07,1.18,1.18,0,0,1,.31.23l5.84,5.8v-6.06h1.38v7.59a.91.91,0,0,1-.2.64.65.65,0,0,1-.51.23,1,1,0,0,1-.67-.31Z" transform="translate(-34.49 -250.08)"/><path class="cls-2" d="M370.73,345.08v-6.84h-3.14V336.8h7.73v1.44h-3.14v6.84Z" transform="translate(-34.49 -250.08)"/><path class="cls-2" d="M384.42,345.08a3.5,3.5,0,0,1-1.11-.17,2.37,2.37,0,0,1-.84-.51,2.33,2.33,0,0,1-.53-.8,2.87,2.87,0,0,1-.19-1,1.86,1.86,0,0,1,1.3-1.85,1.65,1.65,0,0,1-.8-.57,1.9,1.9,0,0,1-.34-1.2,2.27,2.27,0,0,1,.19-.93,1.86,1.86,0,0,1,.54-.67,2.49,2.49,0,0,1,.85-.41,4.2,4.2,0,0,1,1.1-.13h1.58v1.43h-1.62c-.78,0-1.18.34-1.18,1a.92.92,0,0,0,.3.74,1.37,1.37,0,0,0,.91.26H389v1.21h-1v2.17h1.49v1.44Zm2.16-3.61h-1.9a2,2,0,0,0-1.08.23.88.88,0,0,0-.39.83,1,1,0,0,0,.38.82,1.75,1.75,0,0,0,1.07.29h1.92Z" transform="translate(-34.49 -250.08)"/><path class="cls-2" d="M396.2,345.08v-1.44h6.21a1.21,1.21,0,0,0,.89-.3,1,1,0,0,0,.32-.79,1,1,0,0,0-.32-.8,1.3,1.3,0,0,0-.89-.27H398.6a2.89,2.89,0,0,1-1.05-.18,2.16,2.16,0,0,1-.8-.49,2.11,2.11,0,0,1-.5-.74,2.47,2.47,0,0,1-.18-.95,2.6,2.6,0,0,1,.17-.93,1.92,1.92,0,0,1,.49-.73,2.21,2.21,0,0,1,.8-.49,3.08,3.08,0,0,1,1.09-.17h6v1.44h-6a1,1,0,0,0-.77.27,1,1,0,0,0-.27.75.94.94,0,0,0,.28.74,1.05,1.05,0,0,0,.75.26h3.8a2.81,2.81,0,0,1,1.92.59,2.31,2.31,0,0,1,.66,1.8,2.94,2.94,0,0,1-.16,1,2.08,2.08,0,0,1-1.29,1.28,3.23,3.23,0,0,1-1.13.18Z" transform="translate(-34.49 -250.08)"/><path class="cls-2" d="M411.15,345.08a3.88,3.88,0,0,1-1.6-.32,4.26,4.26,0,0,1-1.28-.89,4,4,0,0,1-.84-1.34,4.64,4.64,0,0,1-.3-1.68,4.46,4.46,0,0,1,.3-1.66,3.66,3.66,0,0,1,.84-1.28,3.74,3.74,0,0,1,1.28-.82,4.21,4.21,0,0,1,1.6-.29h2a4.61,4.61,0,0,1,1.65.29,3.75,3.75,0,0,1,1.28.84,3.5,3.5,0,0,1,.83,1.28,4.32,4.32,0,0,1,.3,1.64,4.64,4.64,0,0,1-.3,1.68,4.2,4.2,0,0,1-.85,1.34,4.14,4.14,0,0,1-1.28.89,4,4,0,0,1-1.63.32Zm2-1.44a2.59,2.59,0,0,0,1.05-.21,2.44,2.44,0,0,0,1.37-1.42,3,3,0,0,0,.19-1.09,2.9,2.9,0,0,0-.19-1.07,2.47,2.47,0,0,0-.54-.85,2.64,2.64,0,0,0-.83-.56,2.77,2.77,0,0,0-1.05-.2h-2a2.7,2.7,0,0,0-1,.2,2.53,2.53,0,0,0-1.35,1.4,2.92,2.92,0,0,0-.19,1.08,3,3,0,0,0,.19,1.09,2.62,2.62,0,0,0,.54.86,2.45,2.45,0,0,0,.81.56,2.53,2.53,0,0,0,1,.21Z" transform="translate(-34.49 -250.08)"/><path class="cls-2" d="M419.54,345.08V336.8H421v6.84h5.58v1.44Z" transform="translate(-34.49 -250.08)"/><path class="cls-2" d="M436.15,336.8h1.42v4.62a4.92,4.92,0,0,1-.26,1.67,2.61,2.61,0,0,1-.78,1.18,3.32,3.32,0,0,1-1.39.7,9.25,9.25,0,0,1-4.1,0,3.32,3.32,0,0,1-1.39-.7,2.69,2.69,0,0,1-.78-1.18,4.93,4.93,0,0,1-.25-1.67V336.8h1.49v4.62a3.32,3.32,0,0,0,.15,1.07,1.67,1.67,0,0,0,.51.74,2.24,2.24,0,0,0,.92.41,8,8,0,0,0,2.88,0,2.35,2.35,0,0,0,.93-.41,1.65,1.65,0,0,0,.5-.74,3.32,3.32,0,0,0,.15-1.07Z" transform="translate(-34.49 -250.08)"/><path class="cls-2" d="M442.67,345.08v-6.84h-3.14V336.8h7.74v1.44h-3.15v6.84Z" transform="translate(-34.49 -250.08)"/><path class="cls-2" d="M449.44,345.08V336.8h1.45v8.28Z" transform="translate(-34.49 -250.08)"/><path class="cls-2" d="M457.33,345.08a3.84,3.84,0,0,1-1.6-.32,4.14,4.14,0,0,1-1.28-.89,4,4,0,0,1-.84-1.34,4.64,4.64,0,0,1-.3-1.68,4.46,4.46,0,0,1,.3-1.66,3.66,3.66,0,0,1,2.12-2.1,4.18,4.18,0,0,1,1.6-.29h2a4.61,4.61,0,0,1,1.65.29,3.85,3.85,0,0,1,1.28.84,3.63,3.63,0,0,1,.83,1.28,4.32,4.32,0,0,1,.3,1.64,4.64,4.64,0,0,1-.3,1.68,4.2,4.2,0,0,1-.85,1.34,4.14,4.14,0,0,1-1.28.89,4,4,0,0,1-1.63.32Zm2-1.44a2.59,2.59,0,0,0,1-.21,2.52,2.52,0,0,0,1.37-1.42,3.24,3.24,0,0,0,.19-1.09,3.12,3.12,0,0,0-.19-1.07,2.36,2.36,0,0,0-.55-.85,2.49,2.49,0,0,0-.82-.56,2.77,2.77,0,0,0-1-.2h-2a2.7,2.7,0,0,0-1,.2,2.49,2.49,0,0,0-.82.56,2.56,2.56,0,0,0-.53.84,2.92,2.92,0,0,0-.19,1.08A3,3,0,0,0,455,342a2.77,2.77,0,0,0,.53.86,2.49,2.49,0,0,0,.82.56,2.53,2.53,0,0,0,1,.21Z" transform="translate(-34.49 -250.08)"/><path class="cls-2" d="M467.07,339v6.06h-1.38v-7.52a.88.88,0,0,1,.2-.63.66.66,0,0,1,.54-.24.82.82,0,0,1,.31.07,1.15,1.15,0,0,1,.3.23l5.85,5.8v-6.06h1.38v7.59a1,1,0,0,1-.2.64.65.65,0,0,1-.52.23,1,1,0,0,1-.66-.31Z" transform="translate(-34.49 -250.08)"/><path class="cls-2" d="M483.8,342.78v-1.4h3.33a1.62,1.62,0,0,0,1.19-.43,1.55,1.55,0,0,0,.43-1.15,1.5,1.5,0,0,0-.43-1.13,1.58,1.58,0,0,0-1.19-.43h-4.39v6.84H481.3V336.8h5.83a3.62,3.62,0,0,1,1.28.21,2.55,2.55,0,0,1,.95.59,2.49,2.49,0,0,1,.6.93,3.85,3.85,0,0,1,0,2.45,2.79,2.79,0,0,1-.6,1,2.75,2.75,0,0,1-.95.62,3.4,3.4,0,0,1-1.28.22Z" transform="translate(-34.49 -250.08)"/><path class="cls-2" d="M500,345.08l-2.09-2.3h-3.11V341.5h3.46a1.54,1.54,0,0,0,1.18-.42,1.75,1.75,0,0,0,.4-1.24,1.42,1.42,0,0,0-1.58-1.6h-4.52v6.84h-1.43V336.8h5.95a3.54,3.54,0,0,1,1.26.21,2.57,2.57,0,0,1,.95.6,2.51,2.51,0,0,1,.59.95,3.54,3.54,0,0,1,.21,1.26,3.11,3.11,0,0,1-.45,1.73,2.48,2.48,0,0,1-1.26,1l2.49,2.52Z" transform="translate(-34.49 -250.08)"/><path class="cls-2" d="M507.56,345.08a3.84,3.84,0,0,1-1.6-.32,4.14,4.14,0,0,1-1.28-.89,4,4,0,0,1-.84-1.34,4.44,4.44,0,0,1-.31-1.68,4.27,4.27,0,0,1,.31-1.66,3.66,3.66,0,0,1,2.12-2.1,4.18,4.18,0,0,1,1.6-.29h2a4.56,4.56,0,0,1,1.64.29,3.77,3.77,0,0,1,2.12,2.12,4.52,4.52,0,0,1,.29,1.64,4.64,4.64,0,0,1-.3,1.68,4,4,0,0,1-.84,1.34,4.14,4.14,0,0,1-1.28.89,4,4,0,0,1-1.63.32Zm2-1.44a2.58,2.58,0,0,0,1-.21,2.53,2.53,0,0,0,.83-.56A2.62,2.62,0,0,0,512,342a3,3,0,0,0,.2-1.09,2.91,2.91,0,0,0-.2-1.07,2.47,2.47,0,0,0-.54-.85,2.53,2.53,0,0,0-.83-.56,2.75,2.75,0,0,0-1-.2h-2a2.63,2.63,0,0,0-1,.2,2.49,2.49,0,0,0-.82.56,2.27,2.27,0,0,0-.53.84,2.92,2.92,0,0,0-.2,1.08,3,3,0,0,0,.2,1.09,2.44,2.44,0,0,0,.53.86,2.49,2.49,0,0,0,.82.56,2.46,2.46,0,0,0,1,.21Z" transform="translate(-34.49 -250.08)"/><path class="cls-2" d="M514.28,336.8h1.77l3.76,6.38,3.75-6.38h1.67l-4.78,7.93a1,1,0,0,1-.3.34.6.6,0,0,1-.4.13.65.65,0,0,1-.41-.13,1.09,1.09,0,0,1-.29-.34Z" transform="translate(-34.49 -250.08)"/><path class="cls-2" d="M527.33,345.08V336.8h1.45v8.28Z" transform="translate(-34.49 -250.08)"/><path class="cls-2" d="M531.44,345.08V336.8h4.8a4.52,4.52,0,0,1,1.62.29,3.71,3.71,0,0,1,1.27.84,3.66,3.66,0,0,1,.84,1.28,4.32,4.32,0,0,1,.3,1.64,4.64,4.64,0,0,1-.3,1.68,3.9,3.9,0,0,1-3.73,2.55Zm4.8-1.44a2.53,2.53,0,0,0,1-.21,2.46,2.46,0,0,0,1.36-1.42,3,3,0,0,0,.2-1.09,2.91,2.91,0,0,0-.2-1.07,2.47,2.47,0,0,0-.54-.85,2.6,2.6,0,0,0-.82-.56,2.7,2.7,0,0,0-1-.2h-3.36v5.4Z" transform="translate(-34.49 -250.08)"/><path class="cls-2" d="M542.6,345.08V336.8H550v1.44h-6v5.4h6v1.44Zm2.5-3.6v-1.22h4.59v1.22Z" transform="translate(-34.49 -250.08)"/><path class="cls-2" d="M560.09,345.08l-2.1-2.3h-3.1V341.5h3.45a1.57,1.57,0,0,0,1.19-.42,1.79,1.79,0,0,0,.4-1.24,1.56,1.56,0,0,0-.42-1.2,1.61,1.61,0,0,0-1.17-.4h-4.51v6.84h-1.44V336.8h6a3.64,3.64,0,0,1,1.27.21,2.61,2.61,0,0,1,.94.6,2.66,2.66,0,0,1,.6.95,3.78,3.78,0,0,1,.2,1.26,3.11,3.11,0,0,1-.45,1.73,2.48,2.48,0,0,1-1.26,1l2.5,2.52Z" transform="translate(-34.49 -250.08)"/><polygon class="cls-1" points="7.34 70.88 29.24 70.88 29.24 59.12 29.24 57.51 29.24 48.98 7.34 48.98 7.34 57.51 7.23 57.51 7.23 59.12 7.34 59.12 7.34 70.88"/><polygon class="cls-3" points="15.92 93.51 15.92 94.46 34.52 94.46 34.52 93.51 34.52 75.84 15.92 75.84 15.92 93.51"/><rect class="cls-2" x="34.23" y="61.43" width="12.85" height="12.87"/><polygon class="cls-2" points="5.62 75.47 0 75.47 0 88.34 5.62 88.34 7.23 88.34 12.85 88.34 12.85 75.47 7.23 75.47 5.62 75.47"/><rect class="cls-2" x="15.92" y="32.59" width="12.85" height="12.87"/><rect class="cls-2" x="37.91" y="78.72" width="11.1" height="11.08"/><polygon class="cls-3" points="62.27 61.69 50.89 61.69 50.89 93.44 50.89 95.12 82.96 95.12 82.96 93.44 82.96 74.33 82.96 72.59 82.96 61.69 63.87 61.69 62.27 61.69"/><polygon class="cls-3" points="59.69 59.12 59.69 57.56 59.69 52.76 59.69 33.51 57.32 33.51 55.67 33.51 32.92 33.51 32.92 57.56 32.92 59.12 58.07 59.12 59.69 59.12"/><path class="cls-1" d="M188.33,289.07a31.8,31.8,0,0,0-3.73-3.22c-.24-.19-.5-.36-.76-.54l-.57-.39-1.11,1.19-15.53,16.72,4.7,4.71-11.56,11.58L158,317.29l-1.14-1.14-1.25-1.26-3.42-3.42-3.94-3.93L159.77,296l5.6,5.6,15.25-16.41,1.12-1.2,5.41-5.83,1.26,1.25,1.14,1.14,1.81,1.83,11.57-11.58L191.36,259.2,179.8,270.77l3.93,3.94-6.54,7a32.64,32.64,0,0,0-12.11-2.31,38.31,38.31,0,0,0-74.49,0c-.06.21-.11.42-.16.63s-.14.64-.21,1h6.54V309.2H120v36h45.06a32.94,32.94,0,0,0,30.39-45.5A32.58,32.58,0,0,0,188.33,289.07Z" transform="translate(-34.49 -250.08)"/></svg>