<?xml version="1.0" encoding="UTF-8"?>
<svg width="116px" height="116px" viewBox="0 0 116 116" version="1.1" xmlns="http://www.w3.org/2000/svg" xmlns:xlink="http://www.w3.org/1999/xlink">
    <!-- Generator: Sketch 50.2 (55047) - http://www.bohemiancoding.com/sketch -->
    <title>Group 5</title>
    <desc>Created with Sketch.</desc>
    <defs>
        <circle id="path-1" cx="50" cy="50" r="50"></circle>
        <filter x="-12.5%" y="-11.5%" width="125.0%" height="125.0%" filterUnits="objectBoundingBox" id="filter-2">
            <feOffset dx="0" dy="1" in="SourceAlpha" result="shadowOffsetOuter1"></feOffset>
            <feGaussianBlur stdDeviation="4" in="shadowOffsetOuter1" result="shadowBlurOuter1"></feGaussianBlur>
            <feColorMatrix values="0 0 0 0 0   0 0 0 0 0   0 0 0 0 0  0 0 0 0.127547554 0" type="matrix" in="shadowBlurOuter1"></feColorMatrix>
        </filter>
    </defs>
    <g id="Page-1" stroke="none" stroke-width="1" fill="none" fill-rule="evenodd">
        <g id="Large-Device-Desktops" transform="translate(-953.000000, -662.000000)">
            <g id="Group-16" transform="translate(939.000000, 669.000000)">
                <g id="Group-5" transform="translate(22.000000, 0.000000)">
                    <g id="Oval" fill-rule="nonzero">
                        <use fill="black" fill-opacity="1" filter="url(#filter-2)" xlink:href="#path-1"></use>
                        <use fill="#FFFFFF" fill-rule="evenodd" xlink:href="#path-1"></use>
                    </g>
                    <g id="loupe" transform="translate(23.176471, 22.588235)">
                        <path d="M0.862103631,24.2969075 L2.34604737,24.5843376 L4.15541146,26.0410989 L5.93798819,22.8796605 L7.64263807,25.4750197 L8.88429287,23.2666081 L9.45230656,20.934385 L10.8495107,20.8594542 L13.2512406,23.692192 L16.5695242,21.7015483 L18.4973006,26.2743798 L19.978824,2 L22.0895458,31 L23.6587369,24.2969075 L25.0084543,22.436222 L27.2476337,23.2136297 L29.3008236,26.3782878 L31.0261728,23.3924686 L34.7937534,27.0579342 L37.3848213,23.1969458 L39.2721122,24.4394517" id="Path-4" stroke="#E83F67" stroke-width="1.82000007"></path>
                        <polygon id="Rectangle-9" fill="#93A5D0" opacity="0.5" points="17 3.55271368e-15 23.3765252 3.55271368e-15 23.3765252 39 17 39"></polygon>
                    </g>
                    <g id="search-(4)" transform="translate(22.000000, 21.000000)" fill-rule="nonzero">
                        <path d="M58.0092593,61.9435185 L61.937037,58.0157407 C62.4555556,57.4972222 62.4555556,56.6675926 61.937037,56.1490741 L42.5962963,36.8083333 L36.8018519,42.6027778 L56.1425926,61.9435185 C56.6611111,62.462037 57.4907407,62.462037 58.0092593,61.9435185 Z" id="Shape" fill="#607892"></path>
                        <path d="M43.4259259,35.9787037 C42.9722222,35.525 42.2203704,35.525 41.7666667,35.9787037 L39.7055556,38.0398148 L36.9703704,35.3046296 C40.3277778,31.5583333 42.3759259,26.6064815 42.3759259,21.187963 C42.3759259,9.50833333 32.8740741,0.00648148148 21.1944444,0.00648148148 C9.51481481,0.00648148148 0,9.50833333 0,21.187963 C0,32.8675926 9.50185185,42.3694444 21.1814815,42.3694444 C26.6,42.3694444 31.5388889,40.3212963 35.2981481,36.9638889 L38.0333333,39.6990741 L35.9722222,41.7601852 C35.7518519,41.9805556 35.6222222,42.2787037 35.6222222,42.5898148 C35.6222222,42.9009259 35.7518519,43.1990741 35.9722222,43.4194444 L54.3666667,61.8138889 C55.0925926,62.5398148 56.0518519,62.9416667 57.0759259,62.9416667 C58.1,62.9416667 59.0592593,62.5398148 59.7851852,61.8138889 L61.8203704,59.7787037 C62.5462963,59.0527778 62.9481481,58.0935185 62.9481481,57.0694444 C62.9481481,56.0453704 62.5462963,55.0861111 61.8203704,54.3601852 L43.4259259,35.9787037 Z M2.35925926,21.187963 C2.35925926,10.8046296 10.8111111,2.35277778 21.1944444,2.35277778 C31.5777778,2.35277778 40.0296296,10.8046296 40.0296296,21.187963 C40.0296296,31.5712963 31.5777778,40.0231481 21.1944444,40.0231481 C10.8111111,40.0231481 2.35925926,31.5712963 2.35925926,21.187963 Z M60.1611111,58.1324074 L58.1259259,60.1675926 C57.8407407,60.4527778 57.4777778,60.6083333 57.0759259,60.6083333 C56.6740741,60.6083333 56.3111111,60.4527778 56.0259259,60.1675926 L38.4611111,42.6027778 L42.5962963,38.4675926 L60.1611111,56.0324074 C60.4462963,56.3175926 60.6018519,56.6805556 60.6018519,57.0824074 C60.6018519,57.4842593 60.4333333,57.8601852 60.1611111,58.1324074 Z" id="Shape" fill="#44596E"></path>
                    </g>
                </g>
            </g>
        </g>
    </g>
</svg>