<?xml version="1.0" encoding="UTF-8"?>
<svg width="93px" height="93px" viewBox="0 0 93 93" version="1.1" xmlns="http://www.w3.org/2000/svg" xmlns:xlink="http://www.w3.org/1999/xlink">
    <!-- Generator: Sketch 50.2 (55047) - http://www.bohemiancoding.com/sketch -->
    <title>Group 36</title>
    <desc>Created with Sketch.</desc>
    <defs></defs>
    <g id="Page-1" stroke="none" stroke-width="1" fill="none" fill-rule="evenodd">
        <g id="Large-Device-Desktops" transform="translate(-1044.000000, -1671.000000)">
            <g id="Group-6" transform="translate(150.000000, 1672.000000)">
                <g id="Group-32" transform="translate(880.000000, 0.000000)">
                    <g id="Group-36" transform="translate(15.000000, 0.000000)">
                        <path d="M91.2209112,45.6104556 C91.2209112,70.8006259 70.7998414,91.2201267 45.6104556,91.2201267 C20.4210699,91.2201267 0,70.8006259 0,45.6104556 C0,20.4202853 20.4210699,0 45.6104556,0 C70.7998414,0 91.2209112,20.4202853 91.2209112,45.6104556" id="Fill-411" stroke="#D4D4D4" fill="#FFFFFF"></path>
                        <g id="Group-35" transform="translate(14.000000, 18.000000)" fill-rule="nonzero">
                            <g id="mortarboard-(1)" transform="translate(0.123288, 0.164384)">
                                <g id="Layer_1">
                                    <g id="Group">
                                        <path d="M43.1099476,50.660008 C42.5629183,50.5222611 42.0088329,50.8543486 41.8730922,51.3960818 L40.8525848,55.445793 C40.714811,55.9894245 41.0484821,56.5381578 41.5955113,56.6738878 C41.6781517,56.6951252 41.7618685,56.7042609 41.8435521,56.7042609 C42.3007652,56.7042609 42.71612,56.3974448 42.8324863,55.937814 L43.8529936,51.8881028 C43.9896912,51.3454204 43.6569768,50.7957379 43.1099476,50.660008 Z" id="Shape" fill="#E83F67"></path>
                                        <path d="M30.6164165,30.3809606 C30.7490478,30.3809606 30.8817986,30.3556892 31.0062974,30.3040786 L42.2323567,25.6954307 C42.7528358,25.481751 42.9998002,24.889475 42.7845285,24.3731318 C42.5691373,23.8557208 41.970084,23.6127357 41.4506813,23.8243985 L30.6164165,28.2729942 L2.0411343,16.5429151 L2.0411343,16.2067937 C2.0411343,15.6479756 1.58392117,15.1943956 1.02062695,15.1943956 C0.457332722,15.1943956 0,15.6479756 0,16.2067937 L0,17.2191918 C0,17.6292291 0.248997575,17.9988084 0.630746018,18.154708 L30.2266552,30.30396 C30.3510344,30.3555706 30.4837852,30.3809606 30.6164165,30.3809606 Z" id="Shape" fill="#E83F67"></path>
                                        <path d="M42.756902,40.7533845 C42.5079044,40.2522279 41.8976092,40.0456669 41.3904052,40.2937537 C39.4523622,41.2444564 36.2151545,42.3499908 31.6370435,42.5009073 L31.6370435,33.4182736 C31.6370435,32.8594555 31.1798303,32.4058755 30.6165361,32.4058755 C30.0532419,32.4058755 29.5960288,32.8594555 29.5960288,33.4182736 L29.5960288,42.4917717 C16.9239418,42.0908701 12.8346171,34.4752823 12.2466862,33.2076787 L12.2466862,26.3312495 C12.2466862,25.7724314 11.7894731,25.3188514 11.2261788,25.3188514 C10.6628846,25.3188514 10.2056715,25.7724314 10.2056715,26.3312495 L10.2056715,33.4182736 C10.2056715,33.5468849 10.2301885,33.6744283 10.2781463,33.794853 C10.4557454,34.2332464 14.7992103,44.5550089 30.6166557,44.5550089 C36.144952,44.5550089 40.019005,43.2246421 42.2947855,42.1089041 C42.8006739,41.860936 43.0079327,41.2545412 42.756902,40.7533845 Z" id="Shape" fill="#44596E"></path>
                                        <path d="M45.9246248,51.6421517 C45.3602542,51.6421517 44.9041174,52.0957316 44.9041174,52.6545498 L44.9041174,55.6918628 C44.9041174,56.2506809 45.3602542,56.7042609 45.9246248,56.7042609 C46.4889953,56.7042609 46.9451321,56.2506809 46.9451321,55.6918628 L46.9451321,52.6545498 C46.9451321,52.0957316 46.4889953,51.6421517 45.9246248,51.6421517 Z" id="Shape" fill="#E83F67"></path>
                                        <path d="M60.2123257,15.1943956 C59.6479551,15.1943956 59.1918183,15.6479756 59.1918183,16.2067937 L59.1918183,16.5408981 L46.9452517,21.541312 L46.9452517,19.7118055 L60.6022066,14.1048782 C60.9838354,13.9489786 61.2329526,13.5793993 61.2329526,13.1693621 C61.2329526,12.7593248 60.983955,12.3908133 60.603283,12.2338459 L31.0062974,0.084712558 C30.7562235,-0.0175594658 30.4766095,-0.0175594658 30.2266552,0.084712558 L0.630746018,12.2339646 C0.248997575,12.390932 0,12.7594435 0,13.1694807 C0,13.579518 0.248997575,13.9490973 0.630746018,14.1049968 L30.2266552,26.2542489 C30.351154,26.3058595 30.4837852,26.3312495 30.6165361,26.3312495 C30.749287,26.3312495 30.8819182,26.3059781 31.006417,26.2542489 L41.707931,21.8612976 C42.2294864,21.6486857 42.4764509,21.0564097 42.2610596,20.5389987 C42.0456683,20.0226555 41.4486482,19.7786026 40.9281691,19.9912145 L30.6164165,24.2232831 L3.68927819,13.1694807 L30.6164165,2.11567834 L57.5435548,13.1694807 L45.8266761,17.9795879 L34.6037264,13.822503 C34.6629261,13.6119081 34.6986851,13.3952622 34.6986851,13.1694807 C34.6986851,11.4665685 32.9055916,10.1321677 30.6165361,10.1321677 C28.3274806,10.1321677 26.5343871,11.4665685 26.5343871,13.1694807 C26.5343871,14.872393 28.3274806,16.2067937 30.6165361,16.2067937 C31.6381198,16.2067937 32.5494366,15.9303508 33.2576804,15.4849573 L44.9041174,19.7990096 L44.9041174,23.0428836 L44.9041174,23.0439514 L44.9041174,44.7415189 C43.719286,45.161641 42.8629831,46.2742941 42.8629831,47.5925592 C42.8629831,49.2671153 44.2366556,50.6298722 45.9246248,50.6298722 C47.6125939,50.6298722 48.9862664,49.2671153 48.9862664,47.5925592 C48.9862664,46.2744128 48.1300831,45.1617596 46.9451321,44.7415189 L46.9451321,38.9949464 C49.8750993,36.8009623 50.9252663,33.879091 50.9711909,33.7495306 C51.0079067,33.6432246 51.0272811,33.5308678 51.0272811,33.4185109 L51.0272811,26.3314868 C51.0272811,25.7726687 50.5711443,25.3190887 50.0067738,25.3190887 C49.4424032,25.3190887 48.9862664,25.7726687 48.9862664,26.3314868 L48.9862664,33.231289 C48.8097436,33.6605468 48.1963389,34.9837949 46.9451321,36.2898395 L46.9451321,23.7312621 L60.6011302,18.1557758 C60.9838354,17.9998762 61.232833,17.6293477 61.232833,17.2193105 L61.232833,16.2069124 C61.232833,15.6479756 60.7766962,15.1943956 60.2123257,15.1943956 Z M30.6164165,14.1818788 C29.3703523,14.1818788 28.5752822,13.5824841 28.5752822,13.1694807 C28.5752822,12.7563587 29.3702327,12.1570826 30.6164165,12.1570826 C31.8626003,12.1570826 32.6575508,12.7564773 32.6575508,13.1694807 C32.6575508,13.5826027 31.8624807,14.1818788 30.6164165,14.1818788 Z M45.9246248,48.6048387 C45.3613305,48.6048387 44.9041174,48.1503095 44.9041174,47.5924405 C44.9041174,47.0345716 45.3613305,46.5800424 45.9246248,46.5800424 C46.487919,46.5800424 46.9451321,47.0345716 46.9451321,47.5924405 C46.9451321,48.1501909 46.487919,48.6048387 45.9246248,48.6048387 Z" id="Shape" fill="#44596E"></path>
                                        <path d="M49.9761573,51.3960818 C49.8394598,50.8544672 49.2841785,50.5233289 48.739302,50.660008 C48.1922727,50.7956193 47.8595584,51.3454204 47.9963755,51.8881028 L49.0168828,55.937814 C49.1332491,56.3974448 49.5486039,56.7042609 50.005817,56.7042609 C50.0875006,56.7042609 50.1710978,56.6951252 50.2538578,56.6738878 C50.8008871,56.5382765 51.1336014,55.9894245 50.9967843,55.445793 L49.9761573,51.3960818 Z" id="Shape" fill="#E83F67"></path>
                                    </g>
                                </g>
                            </g>
                        </g>
                    </g>
                </g>
            </g>
        </g>
    </g>
</svg>