<?xml version="1.0" encoding="UTF-8"?>
<svg width="93px" height="93px" viewBox="0 0 93 93" version="1.1" xmlns="http://www.w3.org/2000/svg" xmlns:xlink="http://www.w3.org/1999/xlink">
    <!-- Generator: Sketch 50.2 (55047) - http://www.bohemiancoding.com/sketch -->
    <title>Group 34</title>
    <desc>Created with Sketch.</desc>
    <defs></defs>
    <g id="Page-1" stroke="none" stroke-width="1" fill="none" fill-rule="evenodd">
        <g id="Large-Device-Desktops" transform="translate(-751.000000, -1671.000000)">
            <g id="Group-6" transform="translate(150.000000, 1672.000000)">
                <g id="Group-32" transform="translate(587.000000, 0.000000)">
                    <g id="Group-34" transform="translate(15.000000, 0.000000)">
                        <path d="M91.2209112,45.6104556 C91.2209112,70.8006259 70.7998414,91.2201267 45.6104556,91.2201267 C20.4210699,91.2201267 0,70.8006259 0,45.6104556 C0,20.4202853 20.4210699,0 45.6104556,0 C70.7998414,0 91.2209112,20.4202853 91.2209112,45.6104556" id="Fill-411" stroke="#D4D4D4" fill="#FFFFFF"></path>
                        <g id="presentation" transform="translate(19.000000, 19.000000)" fill-rule="nonzero">
                            <path d="M54,3.6 L27.9,3.6 L27.9,0.9 C27.9,0.4023 27.4977,0 27,0 C26.5023,0 26.1,0.4023 26.1,0.9 L26.1,3.6 L0,3.6 L0,41.4 L24.8274,41.4 L13.7637,52.4637 C13.4118,52.8156 13.4118,53.3844 13.7637,53.7363 C13.9392,53.9118 14.1696,54 14.4,54 C14.6304,54 14.8608,53.9118 15.0363,53.7363 L26.1,42.6726 L26.1,51.3 C26.1,51.7977 26.5023,52.2 27,52.2 C27.4977,52.2 27.9,51.7977 27.9,51.3 L27.9,42.6726 L38.9637,53.7363 C39.1392,53.9118 39.3696,54 39.6,54 C39.8304,54 40.0608,53.9118 40.2363,53.7363 C40.5882,53.3844 40.5882,52.8156 40.2363,52.4637 L29.1726,41.4 L54,41.4 L54,3.6 Z M52.2,39.6 L1.8,39.6 L1.8,5.4 L52.2,5.4 L52.2,39.6 Z" id="Shape" fill="#44596E"></path>
                            <path d="M9.9,24.4098 L9.9,25.2 C9.9,25.6977 10.3023,26.1 10.8,26.1 C11.2977,26.1 11.7,25.6977 11.7,25.2 L11.7,24.4062 C12.6819,24.2064 13.5774,23.6853 14.2362,22.905 C14.7861,22.2543 15.0408,21.4227 14.9508,20.5614 C14.8581,19.6812 14.4054,18.864 13.7061,18.3213 L8.9991,14.6601 C8.6841,14.4153 8.4807,14.0472 8.4393,13.6521 C8.4015,13.284 8.5068,12.9312 8.7381,12.6585 C9.252,12.0492 10.0035,11.7 10.8,11.7 C12.2886,11.7 13.5,12.9114 13.5,14.4 C13.5,14.8977 13.9023,15.3 14.4,15.3 C14.8977,15.3 15.3,14.8977 15.3,14.4 C15.3,12.2274 13.7511,10.4094 11.7,9.9909 L11.7,9.2007 C11.7,8.703 11.2977,8.3007 10.8,8.3007 C10.3023,8.3007 9.9,8.703 9.9,9.2007 L9.9,9.9945 C8.9181,10.1943 8.0226,10.7145 7.3638,11.4948 C6.8139,12.1455 6.5601,12.9762 6.6492,13.8375 C6.741,14.7186 7.1937,15.5358 7.8939,16.0803 L12.6009,19.7415 C12.9159,19.9854 13.1193,20.3535 13.1607,20.7486 C13.1985,21.1167 13.0932,21.4704 12.8619,21.7431 C12.348,22.3515 11.5965,22.6998 10.8,22.6998 C9.3114,22.6998 8.1,21.4884 8.1,19.9998 C8.1,19.5021 7.6977,19.0998 7.2,19.0998 C6.7023,19.0998 6.3,19.5021 6.3,19.9998 C6.3,22.1733 7.8489,23.9913 9.9,24.4098 Z" id="Shape" fill="#E83F67"></path>
                            <path d="M35.1,18 L47.7,18 L47.7,21.6 L37.8,21.6 C37.3023,21.6 36.9,22.0023 36.9,22.5 C36.9,22.9977 37.3023,23.4 37.8,23.4 L47.7,23.4 L47.7,27 L44.1,27 C43.6023,27 43.2,27.4023 43.2,27.9 C43.2,28.3977 43.6023,28.8 44.1,28.8 L47.7,28.8 L47.7,33.3 L41.4,33.3 C40.9023,33.3 40.5,33.7023 40.5,34.2 C40.5,34.6977 40.9023,35.1 41.4,35.1 L47.7,35.1 L47.7,36.9 C47.7,37.3977 48.1023,37.8 48.6,37.8 C49.0977,37.8 49.5,37.3977 49.5,36.9 L49.5,9 C49.5,8.5023 49.0977,8.1 48.6,8.1 C48.1023,8.1 47.7,8.5023 47.7,9 L47.7,10.8 L41.4,10.8 C40.9023,10.8 40.5,11.2023 40.5,11.7 C40.5,12.1977 40.9023,12.6 41.4,12.6 L47.7,12.6 L47.7,16.2 L35.1,16.2 C34.6023,16.2 34.2,16.6023 34.2,17.1 C34.2,17.5977 34.6023,18 35.1,18 Z" id="Shape" fill="#E83F67"></path>
                            <path d="M14.4,34.2 L7.2,34.2 C6.7023,34.2 6.3,34.6023 6.3,35.1 C6.3,35.5977 6.7023,36 7.2,36 L14.4,36 C14.8977,36 15.3,35.5977 15.3,35.1 C15.3,34.6023 14.8977,34.2 14.4,34.2 Z" id="Shape" fill="#44596E"></path>
                            <path d="M18.261,34.461 C18.0981,34.6311 18,34.8561 18,35.1 C18,35.343 18.0981,35.568 18.261,35.73 C18.4311,35.901 18.6561,36 18.9,36 C19.134,36 19.368,35.901 19.539,35.739 C19.701,35.568 19.8,35.334 19.8,35.1 C19.8,34.866 19.701,34.6311 19.539,34.461 C19.206,34.128 18.594,34.128 18.261,34.461 Z" id="Shape" fill="#44596E"></path>
                            <path d="M18.9,29.7 L16.2,29.7 C15.7023,29.7 15.3,30.1023 15.3,30.6 C15.3,31.0977 15.7023,31.5 16.2,31.5 L18.9,31.5 C19.3977,31.5 19.8,31.0977 19.8,30.6 C19.8,30.1023 19.3977,29.7 18.9,29.7 Z" id="Shape" fill="#44596E"></path>
                            <path d="M7.2,31.5 L9,31.5 C9.4977,31.5 9.9,31.0977 9.9,30.6 C9.9,30.1023 9.4977,29.7 9,29.7 L7.2,29.7 C6.7023,29.7 6.3,30.1023 6.3,30.6 C6.3,31.0977 6.7023,31.5 7.2,31.5 Z" id="Shape" fill="#44596E"></path>
                            <path d="M11.961,29.961 C11.7981,30.1311 11.7,30.366 11.7,30.6 C11.7,30.843 11.7981,31.068 11.961,31.239 C12.1311,31.401 12.366,31.5 12.6,31.5 C12.834,31.5 13.068,31.401 13.239,31.239 C13.401,31.068 13.5,30.834 13.5,30.6 C13.5,30.366 13.401,30.1311 13.239,29.961 C12.897,29.628 12.303,29.628 11.961,29.961 Z" id="Shape" fill="#44596E"></path>
                        </g>
                    </g>
                </g>
            </g>
        </g>
    </g>
</svg>