<?xml version="1.0" encoding="UTF-8"?>
<svg width="93px" height="93px" viewBox="0 0 93 93" version="1.1" xmlns="http://www.w3.org/2000/svg" xmlns:xlink="http://www.w3.org/1999/xlink">
    <!-- Generator: Sketch 50.2 (55047) - http://www.bohemiancoding.com/sketch -->
    <title>Group 33</title>
    <desc>Created with Sketch.</desc>
    <defs></defs>
    <g id="Page-1" stroke="none" stroke-width="1" fill="none" fill-rule="evenodd">
        <g id="Large-Device-Desktops" transform="translate(-457.000000, -1671.000000)">
            <g id="Group-6" transform="translate(150.000000, 1672.000000)">
                <g id="Group-32" transform="translate(293.000000, 0.000000)">
                    <g id="Group-33" transform="translate(15.000000, 0.000000)">
                        <path d="M91.2209112,45.6104556 C91.2209112,70.8006259 70.7998414,91.2201267 45.6104556,91.2201267 C20.4210699,91.2201267 0,70.8006259 0,45.6104556 C0,20.4202853 20.4210699,0 45.6104556,0 C70.7998414,0 91.2209112,20.4202853 91.2209112,45.6104556" id="Fill-411" stroke="#D4D4D4" fill="#FFFFFF"></path>
                        <g id="Group-29" transform="translate(28.000000, 17.000000)">
                            <g id="stethoscope" transform="translate(0.000000, 2.000000)" fill="#44596E" fill-rule="nonzero">
                                <path d="M45.8119739,48.2375204 C45.3881765,45.2743353 43.0816051,42.9464975 40.1454908,42.5187927 L40.1454908,33.7597075 C40.1454908,30.0303437 37.1498752,27.0071087 33.4545817,27.0071087 C29.7592882,27.0071087 26.7636726,30.0303437 26.7636726,33.7597075 L26.7636726,48.229562 C26.7636726,51.426194 24.1960363,54.0175037 21.0286077,54.0175037 C17.8611791,54.0175037 15.2935428,51.426194 15.2935428,48.229562 L15.2935428,32.7950505 C22.8364674,32.2864351 28.6922077,25.954668 28.6753609,18.3251961 L28.6753609,3.85534158 C28.6753609,1.80338834 27.0882733,0.125508973 25.085381,0.00378550173 C25.0081776,-0.000906450049 25.0158107,1.93130403 25.095578,1.94154075 C26.0363885,2.06227719 26.7636726,2.87304234 26.7636726,3.85534158 L26.7636726,18.3251961 C26.7636726,25.2511919 21.2004207,30.8657366 14.3376986,30.8657366 C7.47497652,30.8657366 1.91172457,25.2511919 1.91172457,18.3251961 L1.91172457,3.85534158 C1.91172457,2.85527566 2.66555518,2.03300495 3.63107459,1.9356698 C3.69432959,1.92929298 3.71694997,-0.0021831109 3.66412261,1.85239042e-06 C1.62641333,0.0842824261 3.62587067e-05,1.77814483 3.62587067e-05,3.85534158 L3.62587067e-05,18.3251961 C-0.0168104945,25.954668 5.83892977,32.2864351 13.3818544,32.7950505 L13.3818544,48.229562 C13.3818544,52.4916576 16.8054492,55.9468177 21.0286077,55.9468177 C25.2517661,55.9468177 28.6753609,52.4916576 28.6753609,48.229562 L28.6753609,33.7597075 C28.6753609,31.0959279 30.8151376,28.9364227 33.4545817,28.9364227 C36.0940259,28.9364227 38.2338025,31.0959279 38.2338025,33.7597075 L38.2338025,42.5187927 C34.5763843,43.0515245 32.0394544,46.475695 32.5673194,50.1668343 C33.0951843,53.8579736 36.4880726,56.4182938 40.1454908,55.885562 C43.802909,55.3528301 46.3398389,51.9285391 45.8119739,48.2375204 Z M43.8780622,50.1540526 C43.42547,52.4038738 41.4643168,54.0197948 39.1896466,54.0175037 C36.5502025,54.0201566 34.4082752,51.8629424 34.4056466,49.1990422 C34.4033765,46.9033998 36.0046544,44.9241649 38.2338025,44.4673998 L40.1454908,44.4673998 C42.7322441,44.9974788 44.4032986,47.5434497 43.8780622,50.1540526 Z" id="Shape"></path>
                            </g>
                            <circle id="Shape" stroke="#E83F67" stroke-width="1.5" fill-rule="nonzero" transform="translate(39.000000, 51.000000) scale(-1, 1) translate(-39.000000, -51.000000) " cx="39" cy="51" r="3"></circle>
                            <path d="M19.7792208,3.85862786 L19.7792208,1.92931393 L19.7792208,0.964656965 C19.7792208,0.431925156 20.2072,0 20.7350649,0 L23.6025974,0 C25.1863117,0 26.4701299,1.29565489 26.4701299,2.89397089 C26.4701299,4.4922869 25.1863117,5.78794179 23.6025974,5.78794179 L20.7350649,5.78794179 C20.2072,5.78794179 19.7792208,5.35601663 19.7792208,4.82328482 L19.7792208,3.85862786 Z M21.8675325,1.92931393 L21.8675325,3.85862786 L23.7792208,3.85862786 C24.3070857,3.85862786 24.7350649,3.4267027 24.7350649,2.89397089 C24.7350649,2.36123909 24.3070857,1.92931393 23.7792208,1.92931393 L21.8675325,1.92931393 Z" id="Combined-Shape" fill="#E83F67" transform="translate(23.124675, 2.893971) scale(-1, 1) translate(-23.124675, -2.893971) "></path>
                            <path d="M3,3.85862786 L3,1.92931393 L3,0.964656965 C3,0.431925156 3.42797922,0 3.95584416,0 L6.82337662,0 C8.40709091,0 9.69090909,1.29565489 9.69090909,2.89397089 C9.69090909,4.4922869 8.40709091,5.78794179 6.82337662,5.78794179 L3.95584416,5.78794179 C3.42797922,5.78794179 3,5.35601663 3,4.82328482 L3,3.85862786 Z M4.91168831,1.92931393 L4.91168831,3.85862786 L6.82337662,3.85862786 C7.35124156,3.85862786 7.77922078,3.4267027 7.77922078,2.89397089 C7.77922078,2.36123909 7.35124156,1.92931393 6.82337662,1.92931393 L4.91168831,1.92931393 Z" id="Combined-Shape" fill="#E83F67"></path>
                        </g>
                    </g>
                </g>
            </g>
        </g>
    </g>
</svg>