<?xml version="1.0" encoding="UTF-8"?>
<svg width="93px" height="93px" viewBox="0 0 93 93" version="1.1" xmlns="http://www.w3.org/2000/svg" xmlns:xlink="http://www.w3.org/1999/xlink">
    <!-- Generator: Sketch 50.2 (55047) - http://www.bohemiancoding.com/sketch -->
    <title>Group 29</title>
    <desc>Created with Sketch.</desc>
    <defs></defs>
    <g id="Page-1" stroke="none" stroke-width="1" fill="none" fill-rule="evenodd">
        <g id="Large-Device-Desktops" transform="translate(-164.000000, -1671.000000)">
            <g id="Group-6" transform="translate(150.000000, 1672.000000)">
                <g id="Group-32">
                    <g id="Group-29" transform="translate(15.000000, 0.000000)">
                        <path d="M91.2209112,45.6104556 C91.2209112,70.8006259 70.7998414,91.2201267 45.6104556,91.2201267 C20.4210699,91.2201267 0,70.8006259 0,45.6104556 C0,20.4202853 20.4210699,0 45.6104556,0 C70.7998414,0 91.2209112,20.4202853 91.2209112,45.6104556" id="Fill-411" stroke="#D4D4D4" fill="#FFFFFF"></path>
                        <g id="shopping-cart-(2)" transform="translate(44.500000, 48.000000) scale(-1, 1) translate(-44.500000, -48.000000) translate(18.000000, 21.000000)" fill-rule="nonzero">
                            <path d="M35.8626033,44.8089796 C33.3549587,44.8089796 31.4057851,46.8808163 31.4057851,49.4044898 C31.4057851,51.9281633 33.4644628,54 35.8626033,54 C38.2607438,54 40.3194215,51.9281633 40.3194215,49.4044898 C40.3194215,46.8808163 38.2607438,44.8089796 35.8626033,44.8089796 Z M35.8626033,51.6967347 C34.6033058,51.6967347 33.6944215,50.6608163 33.6944215,49.3934694 C33.6944215,48.1261224 34.7237603,47.0902041 35.8626033,47.0902041 C37.0014463,47.0902041 38.0307851,48.1261224 38.0307851,49.3934694 C38.0307851,50.6608163 37.0014463,51.6967347 35.8626033,51.6967347 Z" id="Shape" fill="#E83F67"></path>
                            <path d="M11.5417355,44.8089796 C9.03409091,44.8089796 7.08491736,46.8808163 7.08491736,49.4044898 C7.08491736,51.9281633 9.14359504,54 11.5417355,54 C14.0493802,54 15.9985537,51.9281633 15.9985537,49.4044898 C15.9985537,46.8808163 13.939876,44.8089796 11.5417355,44.8089796 Z M11.5417355,51.6967347 C10.282438,51.6967347 9.37355372,50.6608163 9.37355372,49.3934694 C9.37355372,48.1261224 10.4028926,47.0902041 11.5417355,47.0902041 C12.8010331,47.0902041 13.7099174,48.1261224 13.7099174,49.3934694 C13.7099174,50.6718367 12.6915289,51.6967347 11.5417355,51.6967347 Z" id="Shape" fill="#E83F67"></path>
                            <path d="M46.5940083,0 L44.8200413,7.00897959 L0.0109504132,7.00897959 L8.2785124,31.6616327 C5.50805785,32.0693878 3.43842975,34.4277551 3.43842975,37.4583673 C3.43842975,40.7865306 5.94607438,43.4314286 9.14359504,43.4314286 L40.1989669,43.4314286 L40.1989669,41.2493878 L9.14359504,41.2493878 C7.2053719,41.2493878 5.7161157,39.6404082 5.7161157,37.5685714 C5.7161157,35.4967347 7.31487603,33.8877551 9.14359504,33.8877551 L40.1989669,33.8877551 L40.3084711,33.8877551 L48.4117769,2.2922449 L52.9780992,2.2922449 L52.9780992,0 L46.5940083,0 Z M38.6002066,31.5955102 L10.6328512,31.5955102 L3.20847107,9.30122449 L44.1958678,9.30122449 L38.6002066,31.5955102 Z" id="Shape" fill="#44596E"></path>
                            <rect id="Rectangle-path" fill="#E83F67" x="14.5092975" y="14.7012245" width="2.28863636" height="12.9820408"></rect>
                            <rect id="Rectangle-path" fill="#E83F67" x="22.6235537" y="14.7012245" width="2.28863636" height="12.9820408"></rect>
                            <rect id="Rectangle-path" fill="#E83F67" x="30.7268595" y="14.7012245" width="2.28863636" height="12.9820408"></rect>
                        </g>
                    </g>
                </g>
            </g>
        </g>
    </g>
</svg>