<?xml version="1.0" encoding="UTF-8"?>
<svg width="106px" height="106px" viewBox="0 0 106 106" version="1.1" xmlns="http://www.w3.org/2000/svg" xmlns:xlink="http://www.w3.org/1999/xlink">
    <!-- Generator: Sketch 50.2 (55047) - http://www.bohemiancoding.com/sketch -->
    <title>Group 19</title>
    <desc>Created with Sketch.</desc>
    <defs></defs>
    <g id="Page-1" stroke="none" stroke-width="1" fill="none" fill-rule="evenodd">
        <g id="Large-Device-Desktops-Copy" transform="translate(-248.000000, -674.000000)">
            <g id="Group-18" transform="translate(248.000000, 624.000000)">
                <g id="Group-17">
                    <g id="Group-12" transform="translate(0.000000, 50.000000)">
                        <g id="Group-19">
                            <circle id="Oval-3" stroke="#EEEEEE" stroke-width="2" fill="#FFFFFF" cx="53" cy="53" r="52"></circle>
                            <g id="dollar-symbol-(2)" transform="translate(25.000000, 25.000000)">
                                <path d="M27.9770961,39.7153374 C27.404499,39.7153374 26.9349693,40.1848671 26.9349693,40.7574642 L26.9349693,45.8879346 C24.6331288,46.3689162 22.8924335,48.4188139 22.8924335,50.8695297 C22.8924335,53.6752556 25.1713701,55.9541922 27.9770961,55.9541922 C30.7828221,55.9541922 33.0617587,53.6752556 33.0617587,50.8695297 C33.0617587,48.4188139 31.3210634,46.3689162 29.0192229,45.8879346 L29.0192229,40.7574642 C29.0192229,40.1848671 28.5496933,39.7153374 27.9770961,39.7153374 Z M30.9889571,50.8695297 C30.9889571,52.5300613 29.6376278,53.8813906 27.9770961,53.8813906 C26.3165644,53.8813906 24.9652352,52.5300613 24.9652352,50.8695297 C24.9652352,49.208998 26.3165644,47.8576687 27.9770961,47.8576687 C29.6376278,47.8576687 30.9889571,49.208998 30.9889571,50.8695297 Z" id="Shape" fill="#44596E" fill-rule="nonzero"></path>
                                <path d="M39.9100204,41.3758691 C39.3717791,42.200409 39.0740286,43.1509202 39.0740286,44.1586912 C39.0740286,45.5214724 39.600818,46.792638 40.5627812,47.7546012 C41.5247444,48.7165644 42.79591,49.2433538 44.1586912,49.2433538 C45.5214724,49.2433538 46.792638,48.7165644 47.7546012,47.7546012 C48.7165644,46.792638 49.2433538,45.5214724 49.2433538,44.1586912 C49.2433538,42.79591 48.7165644,41.5247444 47.7546012,40.5627812 C46.792638,39.600818 45.5214724,39.0740286 44.1586912,39.0740286 C43.1509202,39.0740286 42.1889571,39.3603272 41.3758691,39.9100204 L37.7456033,36.2797546 C37.3447853,35.8789366 36.6805726,35.8789366 36.2797546,36.2797546 C35.8789366,36.6805726 35.8789366,37.3447853 36.2797546,37.7456033 L39.9100204,41.3758691 Z M46.2887526,42.0400818 C47.4568507,43.20818 47.4568507,45.1206544 46.2887526,46.3002045 C45.7161554,46.8728016 44.9603272,47.1820041 44.1586912,47.1820041 C43.3570552,47.1820041 42.601227,46.8728016 42.0286299,46.3002045 C40.8605317,45.1321063 40.8605317,43.2196319 42.0286299,42.0515337 C42.601227,41.4789366 43.3570552,41.1697342 44.1586912,41.1697342 C44.9717791,41.1582822 45.7276074,41.4674847 46.2887526,42.0400818 Z" id="Shape" fill="#44596E" fill-rule="nonzero"></path>
                                <path d="M36.2797546,19.6744376 C36.4858896,19.8805726 36.7492843,19.9836401 37.0126789,19.9836401 C37.2760736,19.9836401 37.5394683,19.8805726 37.7456033,19.6744376 L41.3758691,16.0441718 C42.200409,16.5824131 43.1509202,16.8801636 44.1586912,16.8801636 C45.5214724,16.8801636 46.792638,16.3533742 47.7546012,15.391411 C48.7165644,14.4294479 49.2433538,13.1582822 49.2433538,11.795501 C49.2433538,10.4327198 48.7165644,9.16155419 47.7546012,8.199591 C46.792638,7.23762781 45.5214724,6.71083845 44.1586912,6.71083845 C42.79591,6.71083845 41.5247444,7.23762781 40.5627812,8.199591 C39.600818,9.16155419 39.0740286,10.4327198 39.0740286,11.795501 C39.0740286,12.803272 39.3603272,13.7652352 39.9100204,14.5783231 L36.2797546,18.208589 C35.8789366,18.609407 35.8789366,19.2736196 36.2797546,19.6744376 Z M42.0400818,9.66543967 C42.6126789,9.09284254 43.3685072,8.78364008 44.1701431,8.78364008 C44.9717791,8.78364008 45.7276074,9.09284254 46.3002045,9.66543967 C47.4683027,10.8335378 47.4683027,12.7460123 46.3002045,13.9255624 C45.7276074,14.4981595 44.9717791,14.807362 44.1701431,14.807362 C43.3685072,14.807362 42.6126789,14.4981595 42.0400818,13.9255624 C40.8605317,12.7460123 40.8605317,10.8335378 42.0400818,9.66543967 Z" id="Shape" fill="#44596E" fill-rule="nonzero"></path>
                                <rect id="Rectangle-3" stroke="#E83F67" stroke-width="2" x="22" y="23" width="13" height="11"></rect>
                                <path d="M19.6744376,36.2797546 C19.2736196,35.8789366 18.609407,35.8789366 18.208589,36.2797546 L14.5783231,39.9100204 C13.7537832,39.3717791 12.803272,39.0740286 11.795501,39.0740286 C10.4327198,39.0740286 9.16155419,39.600818 8.199591,40.5627812 C7.23762781,41.5247444 6.71083845,42.79591 6.71083845,44.1586912 C6.71083845,45.5214724 7.23762781,46.792638 8.199591,47.7546012 C9.16155419,48.7165644 10.4327198,49.2433538 11.795501,49.2433538 C13.1582822,49.2433538 14.4294479,48.7165644 15.391411,47.7546012 C16.3533742,46.792638 16.8801636,45.5214724 16.8801636,44.1586912 C16.8801636,43.1509202 16.593865,42.1889571 16.0441718,41.3758691 L19.6744376,37.7456033 C20.0752556,37.3447853 20.0752556,36.6805726 19.6744376,36.2797546 Z M13.9141104,46.2887526 C13.3415133,46.8613497 12.5856851,47.1705521 11.7840491,47.1705521 C10.9824131,47.1705521 10.2265849,46.8613497 9.65398773,46.2887526 C8.48588957,45.1206544 8.48588957,43.20818 9.65398773,42.0286299 C10.2265849,41.4560327 10.9824131,41.1468303 11.7840491,41.1468303 C12.5856851,41.1468303 13.3415133,41.4560327 13.9141104,42.0286299 C15.0936605,43.20818 15.0936605,45.1206544 13.9141104,46.2887526 Z" id="Shape" fill="#44596E" fill-rule="nonzero"></path>
                                <path d="M22.8924335,5.08466258 C22.8924335,7.53537832 24.6331288,9.58527607 26.9349693,10.0662577 L26.9349693,15.196728 C26.9349693,15.7693252 27.404499,16.2388548 27.9770961,16.2388548 C28.5496933,16.2388548 29.0192229,15.7693252 29.0192229,15.196728 L29.0192229,10.0662577 C31.3210634,9.58527607 33.0617587,7.53537832 33.0617587,5.08466258 C33.0617587,2.27893661 30.7828221,0 27.9770961,0 C25.1713701,0 22.8924335,2.27893661 22.8924335,5.08466258 Z M30.9889571,5.08466258 C30.9889571,6.74519427 29.6376278,8.09652352 27.9770961,8.09652352 C26.3165644,8.09652352 24.9652352,6.74519427 24.9652352,5.08466258 C24.9652352,3.42413088 26.3165644,2.07280164 27.9770961,2.07280164 C29.6376278,2.07280164 30.9889571,3.42413088 30.9889571,5.08466258 Z" id="Shape" fill="#44596E" fill-rule="nonzero"></path>
                                <path d="M45.8879346,26.9349693 L40.7574642,26.9349693 C40.1848671,26.9349693 39.7153374,27.404499 39.7153374,27.9770961 C39.7153374,28.5496933 40.1848671,29.0192229 40.7574642,29.0192229 L45.8879346,29.0192229 C46.3689162,31.3210634 48.4188139,33.0617587 50.8695297,33.0617587 C53.6752556,33.0617587 55.9541922,30.7828221 55.9541922,27.9770961 C55.9541922,25.1713701 53.6752556,22.8924335 50.8695297,22.8924335 C48.4188139,22.8924335 46.3689162,24.6331288 45.8879346,26.9349693 Z M53.8813906,27.9770961 C53.8813906,29.6376278 52.5300613,30.9889571 50.8695297,30.9889571 C49.208998,30.9889571 47.8576687,29.6376278 47.8576687,27.9770961 C47.8576687,26.3165644 49.208998,24.9652352 50.8695297,24.9652352 C52.5300613,24.9652352 53.8813906,26.3165644 53.8813906,27.9770961 Z" id="Shape" fill="#44596E" fill-rule="nonzero"></path>
                                <path d="M5.08466258,33.0617587 C7.53537832,33.0617587 9.58527607,31.3210634 10.0662577,29.0192229 L15.196728,29.0192229 C15.7693252,29.0192229 16.2388548,28.5496933 16.2388548,27.9770961 C16.2388548,27.404499 15.7693252,26.9349693 15.196728,26.9349693 L10.0662577,26.9349693 C9.58527607,24.6331288 7.53537832,22.8924335 5.08466258,22.8924335 C2.27893661,22.8924335 0,25.1713701 0,27.9770961 C0,30.7828221 2.27893661,33.0617587 5.08466258,33.0617587 Z M5.08466258,24.9652352 C6.74519427,24.9652352 8.09652352,26.3165644 8.09652352,27.9770961 C8.09652352,29.6376278 6.74519427,30.9889571 5.08466258,30.9889571 C3.42413088,30.9889571 2.07280164,29.6376278 2.07280164,27.9770961 C2.07280164,26.3165644 3.42413088,24.9652352 5.08466258,24.9652352 Z" id="Shape" fill="#44596E" fill-rule="nonzero"></path>
                                <path d="M15.3799591,8.18813906 C14.4179959,7.22617587 13.1468303,6.6993865 11.7840491,6.6993865 C10.4212679,6.6993865 9.15010225,7.22617587 8.18813906,8.18813906 C7.22617587,9.15010225 6.6993865,10.4212679 6.6993865,11.7840491 C6.6993865,13.1468303 7.22617587,14.4179959 8.18813906,15.3799591 C9.15010225,16.3419223 10.4212679,16.8687117 11.7840491,16.8687117 C12.79182,16.8687117 13.7537832,16.5824131 14.5668712,16.0327198 L18.197137,19.6629857 C18.403272,19.8691207 18.6666667,19.9721881 18.9300613,19.9721881 C19.193456,19.9721881 19.4568507,19.8691207 19.6629857,19.6629857 C20.0638037,19.2621677 20.0638037,18.597955 19.6629857,18.197137 L16.0441718,14.5783231 C16.5824131,13.7537832 16.8801636,12.803272 16.8801636,11.795501 C16.8687117,10.4327198 16.3419223,9.15010225 15.3799591,8.18813906 Z M9.66543967,13.9141104 C8.49734151,12.7460123 8.49734151,10.8335378 9.66543967,9.65398773 C10.2380368,9.08139059 10.993865,8.77218814 11.795501,8.77218814 C12.597137,8.77218814 13.3529652,9.08139059 13.9255624,9.65398773 C15.0936605,10.8220859 15.0936605,12.7345603 13.9255624,13.9026585 C13.3529652,14.4752556 12.597137,14.7844581 11.795501,14.7844581 C10.9824131,14.79591 10.2265849,14.4867076 9.66543967,13.9141104 Z" id="Shape" fill="#44596E" fill-rule="nonzero"></path>
                            </g>
                        </g>
                    </g>
                </g>
            </g>
        </g>
    </g>
</svg>