<?xml version="1.0" encoding="UTF-8"?>
<svg width="106px" height="106px" viewBox="0 0 106 106" version="1.1" xmlns="http://www.w3.org/2000/svg" xmlns:xlink="http://www.w3.org/1999/xlink">
    <!-- Generator: Sketch 50.2 (55047) - http://www.bohemiancoding.com/sketch -->
    <title>Group 12</title>
    <desc>Created with Sketch.</desc>
    <defs></defs>
    <g id="Page-1" stroke="none" stroke-width="1" fill="none" fill-rule="evenodd">
        <g id="Large-Device-Desktops-Copy" transform="translate(-248.000000, -1118.000000)">
            <g id="Group-18" transform="translate(248.000000, 1068.000000)">
                <g id="Group-17">
                    <g id="Group-12" transform="translate(0.000000, 50.000000)">
                        <circle id="Oval-3" stroke="#EEEEEE" stroke-width="2" fill="#FFFFFF" cx="53" cy="53" r="52"></circle>
                        <g id="diagram-(2)" transform="translate(23.000000, 20.000000)" fill-rule="nonzero">
                            <rect id="Rectangle-path" fill="#44596E" x="0.000330561331" y="51.1313651" width="52.8898129" height="1.7593361"></rect>
                            <path d="M51.0345925,7.63441909 L47.508605,0.597074689 C47.2912058,0.162298755 46.7619771,-0.0142946058 46.3262973,0.202653527 C46.3260769,0.202763485 46.3258565,0.202873444 46.3256362,0.202983402 L39.2736611,3.7216556 C38.8379813,3.93882365 38.661131,4.46739419 38.8787505,4.90217012 C39.0963701,5.33694606 39.6260395,5.51342946 40.0617193,5.29626141 L45.1691123,2.74962241 L43.7754657,6.72044398 C37.6498337,24.1299544 21.8722516,36.3437054 3.45139085,37.9363444 L3.60124532,39.6956805 C22.7161746,38.0432241 39.0874449,25.3675373 45.4406133,7.3010249 L46.8633493,3.24399585 L49.4567131,8.42084232 C49.6743326,8.85561826 50.2040021,9.03210166 50.6396819,8.81493361 C51.0754719,8.59776556 51.2522121,8.06930498 51.0345925,7.63441909 Z" id="Shape" fill="#E83F67"></path>
                            <path d="M10.5782931,42.3346846 L4.40781497,42.3346846 C3.92100832,42.3346846 3.52631809,42.728556 3.52631809,43.2143527 L3.52631809,48.492361 C3.52631809,48.9781577 3.92100832,49.372029 4.40781497,49.372029 L10.5782931,49.372029 C11.0650998,49.372029 11.45979,48.9781577 11.45979,48.492361 L11.45979,43.2143527 C11.45979,42.728556 11.0650998,42.3346846 10.5782931,42.3346846 Z M9.69679626,47.6126929 L5.28931185,47.6126929 L5.28931185,44.0940207 L9.69679626,44.0940207 L9.69679626,47.6126929 Z" id="Shape" fill="#44596E"></path>
                            <path d="M20.2747588,39.6956805 L14.1042807,39.6956805 C13.617474,39.6956805 13.2227838,40.0895519 13.2227838,40.5753485 L13.2227838,48.492361 C13.2227838,48.9781577 13.617474,49.372029 14.1042807,49.372029 L20.2747588,49.372029 C20.7615655,49.372029 21.1562557,48.9781577 21.1562557,48.492361 L21.1562557,40.5753485 C21.1562557,40.0895519 20.7615655,39.6956805 20.2747588,39.6956805 Z M19.393262,47.6126929 L14.9857775,47.6126929 L14.9857775,41.4550166 L19.393262,41.4550166 L19.393262,47.6126929 Z" id="Shape" fill="#44596E"></path>
                            <path d="M29.9712245,35.2973402 L23.8007464,35.2973402 C23.3139397,35.2973402 22.9192495,35.6912116 22.9192495,36.1770083 L22.9192495,48.492361 C22.9192495,48.9781577 23.3139397,49.372029 23.8007464,49.372029 L29.9712245,49.372029 C30.4580312,49.372029 30.8527214,48.9781577 30.8527214,48.492361 L30.8527214,36.1770083 C30.8527214,35.6912116 30.4580312,35.2973402 29.9712245,35.2973402 Z M29.0897277,47.6126929 L24.6822432,47.6126929 L24.6822432,37.0566763 L29.0897277,37.0566763 L29.0897277,47.6126929 Z" id="Shape" fill="#44596E"></path>
                            <path d="M39.6676902,29.1396639 L33.4972121,29.1396639 C33.0104054,29.1396639 32.6157152,29.5335353 32.6157152,30.019332 L32.6157152,48.492361 C32.6157152,48.9781577 33.0104054,49.372029 33.4972121,49.372029 L39.6676902,49.372029 C40.1544969,49.372029 40.5491871,48.9781577 40.5491871,48.492361 L40.5491871,30.019332 C40.5491871,29.5335353 40.1544969,29.1396639 39.6676902,29.1396639 Z M38.7861933,47.6126929 L34.3787089,47.6126929 L34.3787089,30.899 L38.7861933,30.899 L38.7861933,47.6126929 Z" id="Shape" fill="#44596E"></path>
                            <path d="M49.3641559,16.8243112 L43.1936778,16.8243112 C42.7068711,16.8243112 42.3121809,17.2181826 42.3121809,17.7039793 L42.3121809,48.492361 C42.3121809,48.9781577 42.7068711,49.372029 43.1936778,49.372029 L49.3641559,49.372029 C49.8509626,49.372029 50.2456528,48.9781577 50.2456528,48.492361 L50.2456528,17.7039793 C50.2456528,17.2181826 49.8509626,16.8243112 49.3641559,16.8243112 Z M48.482659,47.6126929 L44.0751746,47.6126929 L44.0751746,18.5836473 L48.482659,18.5836473 L48.482659,47.6126929 Z" id="Shape" fill="#44596E"></path>
                        </g>
                    </g>
                </g>
            </g>
        </g>
    </g>
</svg>