<?xml version="1.0" encoding="UTF-8"?>
<svg width="93px" height="93px" viewBox="0 0 93 93" version="1.1" xmlns="http://www.w3.org/2000/svg" xmlns:xlink="http://www.w3.org/1999/xlink">
    <!-- Generator: Sketch 50.2 (55047) - http://www.bohemiancoding.com/sketch -->
    <title>Group 36</title>
    <desc>Created with Sketch.</desc>
    <defs></defs>
    <g id="Page-1" stroke="none" stroke-width="1" fill="none" fill-rule="evenodd">
        <g id="Large-Device-Desktops-Copy" transform="translate(-246.000000, -2051.000000)">
            <g id="Group-29" transform="translate(247.000000, 2052.000000)">
                <g id="Group-23">
                    <g id="Group-21">
                        <g id="Group-9">
                            <g id="Group-36">
                                <path d="M91.2209112,45.6104556 C91.2209112,70.8006259 70.7998414,91.2201267 45.6104556,91.2201267 C20.4210699,91.2201267 0,70.8006259 0,45.6104556 C0,20.4202853 20.4210699,0 45.6104556,0 C70.7998414,0 91.2209112,20.4202853 91.2209112,45.6104556" id="Fill-411" stroke="#D4D4D4" fill="#FFFFFF"></path>
                                <g id="domain-registration" transform="translate(20.000000, 23.000000)" fill-rule="nonzero">
                                    <path d="M50.1861702,0.0539906103 L0.813829787,0.0539906103 C0.364378723,0.0539906103 0,0.416483568 0,0.863849765 L0,45.1361502 C0,45.5835164 0.364378723,45.9460094 0.813829787,45.9460094 L50.1861702,45.9460094 C50.6356213,45.9460094 51,45.5835164 51,45.1361502 L51,36.4976526 C51,36.0502864 50.6356213,35.6877934 50.1861702,35.6877934 C49.7367191,35.6877934 49.3723404,36.0502864 49.3723404,36.4976526 L49.3723404,44.3262911 L1.62765957,44.3262911 L1.62765957,8.15258216 L49.3723404,8.15258216 L49.3723404,37.258216 C49.3723404,37.7055822 49.7367191,38.0680751 50.1861702,38.0680751 C50.6356213,38.0680751 51,37.7055822 51,37.258216 L51,0.863849765 C51,0.416483568 50.6356213,0.0539906103 50.1861702,0.0539906103 Z M1.62765957,1.67370892 L31.7393617,1.67370892 L31.7393617,6.53286385 L1.62765957,6.53286385 L1.62765957,1.67370892 Z M33.3670213,6.53286385 L33.3670213,1.67370892 L49.3723404,1.67370892 L49.3723404,6.53286385 L33.3670213,6.53286385 Z" id="Shape" stroke="#44596E" stroke-width="0.2" fill="#44596E"></path>
                                    <path d="M41.3968085,3.23943662 C40.9181681,3.23943662 40.5287234,3.62698122 40.5287234,4.10328638 C40.5287234,4.57959155 40.9181681,4.96713615 41.3968085,4.96713615 C41.8754489,4.96713615 42.2648936,4.57959155 42.2648936,4.10328638 C42.2648936,3.62698122 41.8754489,3.23943662 41.3968085,3.23943662 Z" id="Shape" fill="#E83F67"></path>
                                    <path d="M36.9478723,3.23943662 C36.4692319,3.23943662 36.0797872,3.62698122 36.0797872,4.10328638 C36.0797872,4.57959155 36.4692319,4.96713615 36.9478723,4.96713615 C37.4265128,4.96713615 37.8159574,4.57959155 37.8159574,4.10328638 C37.8159574,3.62698122 37.4265128,3.23943662 36.9478723,3.23943662 Z" id="Shape" fill="#E83F67"></path>
                                    <path d="M45.8457447,3.23943662 C45.3671043,3.23943662 44.9776596,3.62698122 44.9776596,4.10328638 C44.9776596,4.57959155 45.3671043,4.96713615 45.8457447,4.96713615 C46.3243851,4.96713615 46.7138298,4.57959155 46.7138298,4.10328638 C46.7138298,3.62698122 46.3243851,3.23943662 45.8457447,3.23943662 Z" id="Shape" fill="#E83F67"></path>
                                    <path d="M16.1370511,22.0269812 C16.4570489,21.9871362 16.7232255,21.7631831 16.8156766,21.4557606 L18.6878106,15.2366901 C18.8167213,14.8082207 18.5723553,14.3568592 18.1417851,14.2284695 C17.7114319,14.1001878 17.2576404,14.3433615 17.1286213,14.771831 L15.7859106,19.2321033 L14.4915957,17.0824131 C14.3445638,16.8381596 14.0795809,16.6887136 13.7934383,16.6887136 C13.5072957,16.6887136 13.2423128,16.8381596 13.0952809,17.0824131 L11.800966,19.2321033 L10.4584723,14.7726948 C10.3295617,14.3442254 9.87587872,14.1009437 9.44530851,14.2293333 C9.0147383,14.357615 8.77026383,14.8090845 8.89928298,15.237554 L10.7712,21.4557606 C10.8637596,21.7631831 11.1299362,21.9871362 11.4498255,22.0269812 C11.4836809,22.0311925 11.5174277,22.0332441 11.5509574,22.0332441 C11.8343872,22.0332441 12.1006723,21.8857418 12.2488979,21.6395446 L13.7933298,19.0743427 L15.3377617,21.6395446 C15.503783,21.9147887 15.8173787,22.0670423 16.1370511,22.0269812 Z" id="Shape" fill="#E83F67"></path>
                                    <path d="M22.3920383,22.0262254 C22.4258936,22.0304366 22.4596404,22.0324883 22.4931702,22.0324883 C22.7766,22.0324883 23.0428851,21.8849859 23.1911106,21.6387887 L24.7355426,19.0735869 L26.2799745,21.6387887 C26.4456702,21.9140329 26.7591574,22.0660704 27.0790468,22.0262254 C27.3990447,21.9863803 27.6652213,21.7624272 27.7576723,21.4550047 L29.6298064,15.2359343 C29.758717,14.8074648 29.5143511,14.3561033 29.0837809,14.2277136 C28.6532106,14.0993239 28.1996362,14.3424977 28.070617,14.7710751 L26.7279064,19.2314554 L25.4335915,17.0817653 C25.2865596,16.8375117 25.0215766,16.6880657 24.735434,16.6880657 C24.4492915,16.6880657 24.1843085,16.8375117 24.0372766,17.0817653 L22.7431787,19.2314554 L21.4006851,14.771939 C21.2717745,14.3434695 20.8183085,14.1000798 20.3875213,14.2285775 C19.9569511,14.3568592 19.7124766,14.8083286 19.8414957,15.2367981 L21.7134128,21.4551127 C21.8059723,21.7624272 22.0721489,21.9863803 22.3920383,22.0262254 Z" id="Shape" fill="#E83F67"></path>
                                    <path d="M40.0257766,14.2270657 C39.5953149,14.098784 39.1416319,14.3419577 39.0126128,14.7704272 L37.6699021,19.2305915 L36.3755872,17.0809014 C36.2285553,16.8366479 35.9635723,16.6872019 35.6774298,16.6872019 C35.3912872,16.6872019 35.1263043,16.8366479 34.9792723,17.0809014 L33.6849574,19.2305915 L32.3424638,14.7711831 C32.2134447,14.3428216 31.7600872,14.0995399 31.3293,14.2278216 C30.8987298,14.3561033 30.6542553,14.8075728 30.7832745,15.2360423 L32.6551915,21.4542488 C32.7477511,21.7616714 33.0139277,21.9856244 33.333817,22.0254695 C33.6538149,22.0653146 33.9670851,21.913385 34.1328894,21.6380329 L35.6773213,19.072831 L37.2217532,21.6380329 C37.3699787,21.8841221 37.6361553,22.0317324 37.9196936,22.0317324 C37.9532234,22.0317324 37.9870787,22.0296808 38.0208255,22.0254695 C38.3408234,21.9856244 38.607,21.7616714 38.6994511,21.4542488 L40.5715851,15.2352864 C40.7007128,14.8068169 40.4563468,14.3553474 40.0257766,14.2270657 Z" id="Shape" fill="#E83F67"></path>
                                    <path d="M14.8334043,26.622446 C14.8334043,26.1750798 14.4690255,25.8125869 14.0195745,25.8125869 L9.67914894,25.8125869 C9.22969787,25.8125869 8.86531915,26.1750798 8.86531915,26.622446 L8.86531915,30.9416948 C8.86531915,31.389061 9.22969787,31.751554 9.67914894,31.751554 L14.0195745,31.751554 C14.4690255,31.751554 14.8334043,31.389061 14.8334043,30.9416948 L14.8334043,26.622446 Z M13.2057447,30.1318357 L10.4929787,30.1318357 L10.4929787,27.4323052 L13.2057447,27.4323052 L13.2057447,30.1318357 Z" id="Shape" fill="#E83F67"></path>
                                    <path d="M14.0195745,33.3712723 L9.67914894,33.3712723 C9.22969787,33.3712723 8.86531915,33.7337653 8.86531915,34.1811315 L8.86531915,38.5003803 C8.86531915,38.9477465 9.22969787,39.3102394 9.67914894,39.3102394 L14.0195745,39.3102394 C14.4690255,39.3102394 14.8334043,38.9477465 14.8334043,38.5003803 L14.8334043,34.1811315 C14.8334043,33.7337653 14.4690255,33.3712723 14.0195745,33.3712723 Z M13.2057447,37.6905211 L10.4929787,37.6905211 L10.4929787,34.9909906 L13.2057447,34.9909906 L13.2057447,37.6905211 Z" id="Shape" fill="#E83F67"></path>
                                    <path d="M39.7921532,27.9722113 L36.536834,27.9722113 C36.087383,27.9722113 35.7230043,28.3347042 35.7230043,28.7820704 C35.7230043,29.2294366 36.087383,29.5919296 36.536834,29.5919296 L39.7921532,29.5919296 C40.2416043,29.5919296 40.605983,29.2294366 40.605983,28.7820704 C40.605983,28.3347042 40.2416043,27.9722113 39.7921532,27.9722113 Z" id="Shape" fill="#44596E"></path>
                                    <path d="M33.2815149,27.9722113 L17.2748936,27.9722113 C16.8254426,27.9722113 16.4610638,28.3347042 16.4610638,28.7820704 C16.4610638,29.2294366 16.8254426,29.5919296 17.2748936,29.5919296 L33.2816234,29.5919296 C33.7310745,29.5919296 34.0954532,29.2294366 34.0954532,28.7820704 C34.0954532,28.3347042 33.730966,27.9722113 33.2815149,27.9722113 Z" id="Shape" fill="#44596E"></path>
                                    <path d="M39.7921532,35.5308967 L36.536834,35.5308967 C36.087383,35.5308967 35.7230043,35.8933897 35.7230043,36.3407559 C35.7230043,36.7881221 36.087383,37.150615 36.536834,37.150615 L39.7921532,37.150615 C40.2416043,37.150615 40.605983,36.7881221 40.605983,36.3407559 C40.605983,35.8933897 40.2416043,35.5308967 39.7921532,35.5308967 Z" id="Shape" fill="#44596E"></path>
                                    <path d="M33.2815149,35.5308967 L17.2748936,35.5308967 C16.8254426,35.5308967 16.4610638,35.8933897 16.4610638,36.3407559 C16.4610638,36.7881221 16.8254426,37.150615 17.2748936,37.150615 L33.2816234,37.150615 C33.7310745,37.150615 34.0954532,36.7881221 34.0954532,36.3407559 C34.0954532,35.8933897 33.730966,35.5308967 33.2815149,35.5308967 Z" id="Shape" fill="#44596E"></path>
                                </g>
                            </g>
                        </g>
                    </g>
                </g>
            </g>
        </g>
    </g>
</svg>