<?xml version="1.0" encoding="UTF-8"?>
<svg width="93px" height="93px" viewBox="0 0 93 93" version="1.1" xmlns="http://www.w3.org/2000/svg" xmlns:xlink="http://www.w3.org/1999/xlink">
    <!-- Generator: Sketch 50.2 (55047) - http://www.bohemiancoding.com/sketch -->
    <title>Group 35</title>
    <desc>Created with Sketch.</desc>
    <defs></defs>
    <g id="Page-1" stroke="none" stroke-width="1" fill="none" fill-rule="evenodd">
        <g id="Large-Device-Desktops-Copy" transform="translate(-750.000000, -1319.000000)">
            <g id="Group-24" transform="translate(247.000000, 871.000000)">
                <g id="Group-18" transform="translate(504.000000, 0.000000)">
                    <g id="Group-16">
                        <g id="Group-15" transform="translate(0.000000, 448.000000)">
                            <g id="Group-35">
                                <path d="M91.2209112,46.3903289 C91.2209112,71.5804992 70.7998414,92 45.6104556,92 C20.4210699,92 0,71.5804992 0,46.3903289 C0,21.2001586 20.4210699,0.779873288 45.6104556,0.779873288 C70.7998414,0.779873288 91.2209112,21.2001586 91.2209112,46.3903289" id="Fill-411" stroke="#D4D4D4" fill="#FFFFFF"></path>
                                <g id="optimization-clock" transform="translate(21.000000, 17.000000)" fill-rule="nonzero">
                                    <path d="M45.9435698,17.9801265 C44.9496644,16.1552571 43.7426532,14.4915061 42.3629279,13.0119061 L44.9269302,9.83538367 C45.3094392,9.36161633 45.2347252,8.66777143 44.7601757,8.28580408 C44.2856261,7.90394694 43.5906869,7.97822449 43.2082883,8.45221224 L40.779036,11.4617755 C37.7297793,8.73675918 34.0285135,6.80962041 30.0121689,5.88004898 L30.0121689,1.10204082 C30.0121689,0.493383673 29.5180856,0 28.9085653,0 L20.6186261,0 C20.0092162,0 19.5150225,0.493383673 19.5150225,1.10204082 L19.5150225,5.76830204 C17.1940338,6.25452245 14.9400338,7.07565306 12.8426351,8.21483265 C11.1622883,9.12743265 9.61702252,10.2170204 8.22394369,11.4570367 L5.79877477,8.45221224 C5.41637613,7.9784449 4.72143694,7.90394694 4.24688739,8.28580408 C3.77233784,8.66777143 3.69762387,9.36161633 4.08013288,9.83538367 L6.63751351,13.0038612 C4.08719595,15.7322939 2.18756306,19.0353306 1.0977545,22.7191224 C-0.749346847,28.9621837 -0.0512072072,35.5498531 3.06338288,41.2684531 C7.34072973,49.1215959 15.5641216,54 24.5242793,54 C28.5664482,54 32.5916216,52.9742204 36.1644279,51.0338571 C39.9992297,48.9512204 43.2050878,45.8840204 45.4354707,42.1639714 C47.6000788,38.5534653 48.8001374,34.4219143 48.9061937,30.2158653 C49.0132432,25.9662857 47.988768,21.7352204 45.9435698,17.9801265 Z M21.7222297,2.20408163 L27.8050721,2.20408163 L27.8050721,5.47405714 C26.7133874,5.32495102 25.6039347,5.24857959 24.4828941,5.24857959 C23.5600608,5.24857959 22.6382207,5.30478367 21.7222297,5.41046939 L21.7222297,2.20408163 Z M46.6996486,30.1604327 C46.5004482,38.0670245 42.0595473,45.323302 35.1099347,49.0976816 C31.8597117,50.8629306 28.1991689,51.7959184 24.5242793,51.7959184 C16.3733941,51.7959184 8.8929482,47.358551 5.00241441,40.2155633 C-0.845801802,29.4777184 3.14460811,15.9908327 13.8973491,10.150898 C17.1474617,8.38564898 20.8080045,7.45266122 24.4828941,7.45266122 C32.6337793,7.45266122 40.1141149,11.8901388 44.0045383,19.0331265 C45.8649932,22.4490122 46.7969865,26.2967878 46.6996486,30.1604327 Z" id="Shape" fill="#44596E"></path>
                                    <path d="M25.0398829,12.8447265 C25.0519122,12.8450571 25.0638311,12.8451673 25.07575,12.8451673 C25.6689369,12.8451673 26.1590473,12.3745959 26.1781396,11.7782816 L26.1973423,11.1781102 C26.2167658,10.5696735 25.7386847,10.060751 25.1294955,10.0414653 C24.5225135,10.0220694 24.0105518,10.4994735 23.9912387,11.1078 L23.972036,11.7080816 C23.9526126,12.316298 24.4306937,12.8252204 25.0398829,12.8447265 Z" id="Shape" fill="#44596E"></path>
                                    <path d="M15.0725766,14.3735878 C15.2715563,14.7445347 15.6525203,14.9555755 16.0463964,14.9555755 C16.2222005,14.9555755 16.4005428,14.9134776 16.5664144,14.8248735 C17.1036486,14.5375714 17.3060495,13.8697347 17.0183401,13.333151 L16.7344932,12.8037306 C16.4467838,12.2672571 15.7781104,12.0651429 15.2406554,12.3524449 C14.7034212,12.6397469 14.5010203,13.3075837 14.7887297,13.8441673 L15.0725766,14.3735878 Z" id="Shape" fill="#44596E"></path>
                                    <path d="M9.86389865,19.2528735 L9.35293018,18.9362571 C8.83534009,18.6153429 8.15474775,18.7743673 7.83326802,19.2914449 C7.51178829,19.8086327 7.67103829,20.4879306 8.18895946,20.8089551 L8.69992793,21.1256816 C8.88113964,21.2378694 9.08221622,21.2914286 9.28086486,21.2914286 C9.65002027,21.2914286 10.0106779,21.1065061 10.2195901,20.7704939 C10.5410698,20.2533061 10.3818198,19.573898 9.86389865,19.2528735 Z" id="Shape" fill="#44596E"></path>
                                    <path d="M7.70028378,29.0883673 C7.71970721,28.4799306 7.24151577,27.9711184 6.63232658,27.9518327 L6.03130405,27.9327673 C5.42112162,27.9138122 4.91258108,28.3908857 4.89315766,28.9992122 C4.87373423,29.607649 5.35192568,30.1164612 5.96111486,30.1358571 L6.56213739,30.1549224 C6.57405631,30.1552531 6.58608559,30.1554735 6.59789414,30.1554735 C7.19108108,30.1553633 7.68119144,29.6846816 7.70028378,29.0883673 Z" id="Shape" fill="#44596E"></path>
                                    <path d="M8.18929054,37.0988816 L7.65922973,37.3824367 C7.12188514,37.669849 6.91970495,38.3377959 7.20752477,38.8742694 C7.4065045,39.2451061 7.78746847,39.4561469 8.18123423,39.4561469 C8.35714865,39.4561469 8.53549099,39.4139388 8.70136261,39.3252245 L9.23142342,39.0417796 C9.76876802,38.7543673 9.9709482,38.0864204 9.68312838,37.5499469 C9.39530856,37.0133633 8.72652477,36.8113592 8.18929054,37.0988816 Z" id="Shape" fill="#44596E"></path>
                                    <path d="M15.6372905,43.8877837 C15.119259,43.5668694 14.4391081,43.7260041 14.117518,44.2431918 L13.8004527,44.7533265 C13.4790833,45.2704041 13.6383333,45.9498122 14.1562545,46.2708367 C14.3375766,46.3832449 14.5385428,46.4366939 14.7371914,46.4366939 C15.1063468,46.4366939 15.4670045,46.2517714 15.676027,45.9155388 L15.9930923,45.4052939 C16.3144617,44.8882163 16.1551014,44.208698 15.6372905,43.8877837 Z" id="Shape" fill="#44596E"></path>
                                    <path d="M23.9672905,46.4036327 C23.3558941,46.3856694 22.8484572,46.8616408 22.8290338,47.4700776 L22.8098311,48.0701388 C22.7904077,48.6784653 23.2684887,49.187498 23.8776779,49.2067837 C23.8897072,49.2072245 23.9016261,49.2073347 23.913545,49.2073347 C24.506732,49.2073347 24.9968423,48.7367633 25.0159347,48.140449 L25.0351374,47.5401673 C25.0545608,46.931951 24.5764797,46.4231388 23.9672905,46.4036327 Z" id="Shape" fill="#44596E"></path>
                                    <path d="M33.9345968,44.874551 C33.6468874,44.3380776 32.9779932,44.1357429 32.4406486,44.4234857 C31.9034144,44.7107878 31.7011239,45.3787347 31.9888333,45.9152082 L32.2727905,46.4446286 C32.4717703,46.8155755 32.8528446,47.0266163 33.2466104,47.0266163 C33.4224144,47.0266163 33.6008671,46.9844082 33.7667387,46.8956939 C34.303973,46.6083918 34.5062635,45.9404449 34.2185541,45.4038612 L33.9345968,44.874551 Z" id="Shape" fill="#44596E"></path>
                                    <path d="M40.8181036,38.4394041 L40.3072455,38.1227878 C39.789545,37.8018735 39.1089527,37.9607878 38.7875833,38.4779755 C38.4661036,38.9950531 38.6253536,39.6744612 39.1432748,39.9954857 L39.6541329,40.312102 C39.8353446,40.4245102 40.0364212,40.4780694 40.2350698,40.4780694 C40.6042252,40.4780694 40.9648829,40.2931469 41.173795,39.9569143 C41.4951644,39.4397265 41.3359144,38.7603184 40.8181036,38.4394041 Z" id="Shape" fill="#44596E"></path>
                                    <path d="M43.0461689,29.1126122 L42.445036,29.0935469 C41.8336396,29.0754735 41.3263131,29.5516653 41.3067793,30.1599918 C41.2873559,30.7684286 41.7655473,31.2772408 42.3747365,31.2966367 L42.9758694,31.315702 C42.9877883,31.3160327 42.9998176,31.3162531 43.0116261,31.3162531 C43.6048131,31.3162531 44.0949234,30.8455714 44.1140158,30.2492571 C44.1335495,29.6408204 43.6553581,29.1320082 43.0461689,29.1126122 Z" id="Shape" fill="#44596E"></path>
                                    <path d="M40.2978649,22.2802898 C40.4737793,22.2802898 40.6521216,22.2381918 40.8179932,22.1493673 L41.3480541,21.8659224 C41.8853986,21.5786204 42.0875788,20.9106735 41.799759,20.3740898 C41.5120495,19.8376163 40.843045,19.6356122 40.3059212,19.9230245 L39.7758604,20.2065796 C39.2385158,20.4938816 39.0363356,21.1618286 39.3241554,21.6984122 C39.5230248,22.0693592 39.9040991,22.2802898 40.2978649,22.2802898 Z" id="Shape" fill="#44596E"></path>
                                    <path d="M34.8506982,12.9775224 C34.3329977,12.6566082 33.6525158,12.8157429 33.331036,13.3329306 L33.0139707,13.8431755 C32.6926014,14.3602531 32.8519617,15.0397714 33.3698829,15.3606857 C33.5510946,15.4729837 33.7520608,15.5265429 33.9507095,15.5265429 C34.3198649,15.5265429 34.6806329,15.3415102 34.889545,15.0053878 L35.2066104,14.4951429 C35.5279797,13.9777347 35.3686194,13.2983265 34.8506982,12.9775224 Z" id="Shape" fill="#44596E"></path>
                                    <path d="M26.2471149,26.7329755 C25.7008311,26.4047878 25.0763018,26.2313265 24.4410676,26.2313265 C23.6036532,26.2313265 22.8002297,26.5357102 22.174045,27.0625959 L13.676518,21.6764816 C13.1617973,21.3503878 12.4797703,21.5025796 12.1533243,22.016351 C11.8266577,22.5302327 11.9790653,23.2111837 12.4935653,23.537498 L21.0206689,28.9423469 C20.8960721,29.4754041 20.8980586,30.0340286 21.0342432,30.5806408 C21.2603716,31.4887224 21.8271824,32.2545306 22.6301644,32.7368939 C23.1764482,33.0651918 23.8010878,33.2386531 24.4363221,33.2386531 C25.6613221,33.2386531 26.814036,32.5881184 27.4448559,31.5409592 C28.4419617,29.8856939 27.9047275,27.7288898 26.2471149,26.7329755 Z M25.5533896,30.4048653 C25.3158941,30.7991755 24.8982905,31.0346816 24.4363221,31.0346816 C24.2019167,31.0346816 23.9707117,30.9702122 23.7678694,30.8484367 C23.4701171,30.6695755 23.2598806,30.3855796 23.1761171,30.0487959 C23.0922432,29.7120122 23.1447748,29.3627755 23.324,29.0653347 C23.5614955,28.6709143 23.9792095,28.4355184 24.4410676,28.4355184 C24.6753626,28.4355184 24.9064572,28.4999878 25.1092995,28.6217633 C25.7240068,28.9909469 25.9233176,29.7909184 25.5533896,30.4048653 Z" id="Shape" fill="#E83F67"></path>
                                </g>
                            </g>
                        </g>
                    </g>
                </g>
            </g>
        </g>
    </g>
</svg>