<?xml version="1.0" encoding="UTF-8"?>
<svg width="93px" height="93px" viewBox="0 0 93 93" version="1.1" xmlns="http://www.w3.org/2000/svg" xmlns:xlink="http://www.w3.org/1999/xlink">
    <!-- Generator: Sketch 50.2 (55047) - http://www.bohemiancoding.com/sketch -->
    <title>Group 9</title>
    <desc>Created with Sketch.</desc>
    <defs></defs>
    <g id="Page-1" stroke="none" stroke-width="1" fill="none" fill-rule="evenodd">
        <g id="Large-Device-Desktops-Copy" transform="translate(-750.000000, -2051.000000)">
            <g id="Group-29" transform="translate(247.000000, 2052.000000)">
                <g id="Group-22" transform="translate(504.000000, 0.000000)">
                    <g id="Group-9">
                        <path d="M91.2209112,45.6104556 C91.2209112,70.8006259 70.7998414,91.2201267 45.6104556,91.2201267 C20.4210699,91.2201267 0,70.8006259 0,45.6104556 C0,20.4202853 20.4210699,0 45.6104556,0 C70.7998414,0 91.2209112,20.4202853 91.2209112,45.6104556" id="Fill-411" stroke="#D4D4D4" fill="#FFFFFF"></path>
                        <g id="bar-chart" transform="translate(19.000000, 15.000000)" fill-rule="nonzero">
                            <path d="M49.8875494,50.9296875 L47.5859383,50.9296875 L47.5859383,17.9636875 C47.5859383,16.4292754 46.3203827,15.1809805 44.7649877,15.1809805 L39.6204938,15.1809805 C38.0649938,15.1809805 36.7995432,16.4293789 36.7995432,17.9636875 L36.7995432,50.9296875 L30.955321,50.9296875 L30.955321,32.8998535 C30.955321,31.3654414 29.6898704,30.1171465 28.1343704,30.1171465 L22.9898765,30.1171465 C21.4343765,30.1171465 20.1689259,31.3655449 20.1689259,32.8998535 L20.1689259,50.9296875 L14.3247037,50.9296875 L14.3247037,41.5921641 C14.3247037,40.057752 13.0591481,38.809457 11.5037531,38.809457 L6.35915432,38.809457 C4.80365432,38.809457 3.5382037,40.0578555 3.5382037,41.5921641 L3.5382037,50.9296875 L1.11245062,50.9296875 C0.532876543,50.9296875 0.0630679012,51.393127 0.0630679012,51.9648438 C0.0630679012,52.5365605 0.532876543,53 1.11245062,53 L49.8875494,53 C50.4671235,53 50.9369321,52.5365605 50.9369321,51.9648438 C50.9369321,51.393127 50.4671235,50.9296875 49.8875494,50.9296875 Z M12.2257284,50.9296875 L5.6368642,50.9296875 L5.6368642,41.5921641 C5.6368642,41.1993223 5.96080864,40.8797695 6.35904938,40.8797695 L11.5035432,40.8797695 C11.901784,40.8797695 12.2257284,41.1993223 12.2257284,41.5921641 L12.2257284,50.9296875 Z M28.8564506,50.9296875 L22.2675864,50.9296875 L22.2675864,32.8998535 C22.2675864,32.5070117 22.5915309,32.187459 22.9897716,32.187459 L28.1342654,32.187459 C28.5324012,32.187459 28.8564506,32.5070117 28.8564506,32.8998535 L28.8564506,50.9296875 Z M45.4871728,50.9296875 L38.8983086,50.9296875 L38.8983086,17.9636875 C38.8983086,17.5708457 39.2222531,17.251293 39.6204938,17.251293 L44.7649877,17.251293 C45.1632284,17.251293 45.4871728,17.5708457 45.4871728,17.9636875 L45.4871728,50.9296875 Z" id="Shape" fill="#44596E"></path>
                            <path d="M47.5834198,1.08857031 C47.5981111,0.806076172 47.4973704,0.518820313 47.278679,0.30309375 C47.0599877,0.0873671875 46.768784,-0.0121113281 46.4824074,0.002484375 C46.4655123,0.00175976563 46.4488272,0 46.4316173,0 L40.0828519,0 C39.5032778,0 39.0334691,0.463439453 39.0334691,1.03515625 C39.0334691,1.60687305 39.5032778,2.0703125 40.0828519,2.0703125 L44.0030309,2.0703125 L33.6291481,12.3036602 L29.7170494,8.44459766 C29.5202901,8.25050586 29.2533272,8.14140039 28.9750309,8.14140039 C28.6967346,8.14140039 28.4297716,8.25050586 28.2330123,8.44459766 L9.3683642,27.0536016 C8.95858025,27.4578301 8.95858025,28.113291 9.3683642,28.517623 C9.57330864,28.719582 9.84184568,28.8206133 10.1103827,28.8206133 C10.3789198,28.8206133 10.6475617,28.719582 10.8524012,28.517416 L28.9750309,10.6403711 L32.8871296,14.4994336 C33.2969136,14.9036621 33.9613827,14.9036621 34.3712716,14.4994336 L45.4871728,3.53433398 L45.4871728,7.03419727 C45.4871728,7.60591406 45.9569815,8.06935352 46.5365556,8.06935352 C47.1161296,8.06935352 47.5859383,7.60591406 47.5859383,7.03419727 L47.5859383,1.13867188 C47.5859383,1.12179883 47.5841543,1.10533984 47.5834198,1.08857031 Z" id="Shape" fill="#E83F67"></path>
                            <ellipse id="Oval" fill="#E83F67" cx="6.57333333" cy="31.3973242" rx="1.04938272" ry="1.03515625"></ellipse>
                        </g>
                    </g>
                </g>
            </g>
        </g>
    </g>
</svg>