<?xml version="1.0" encoding="UTF-8"?>
<svg width="93px" height="93px" viewBox="0 0 93 93" version="1.1" xmlns="http://www.w3.org/2000/svg" xmlns:xlink="http://www.w3.org/1999/xlink">
    <!-- Generator: Sketch 50.2 (55047) - http://www.bohemiancoding.com/sketch -->
    <title>Group 9</title>
    <desc>Created with Sketch.</desc>
    <defs></defs>
    <g id="Page-1" stroke="none" stroke-width="1" fill="none" fill-rule="evenodd">
        <g id="Large-Device-Desktops-Copy" transform="translate(-246.000000, -2239.000000)">
            <g id="Group-29" transform="translate(247.000000, 2052.000000)">
                <g id="Group-23">
                    <g id="Group-11" transform="translate(0.000000, 188.000000)">
                        <g id="Group-9">
                            <path d="M91.2209112,45.6104556 C91.2209112,70.8006259 70.7998414,91.2201267 45.6104556,91.2201267 C20.4210699,91.2201267 0,70.8006259 0,45.6104556 C0,20.4202853 20.4210699,0 45.6104556,0 C70.7998414,0 91.2209112,20.4202853 91.2209112,45.6104556" id="Fill-411" stroke="#D4D4D4" fill="#FFFFFF"></path>
                            <g id="like-(3)" transform="translate(21.000000, 17.000000)" fill-rule="nonzero">
                                <path d="M5.53917773,44.7890292 C4.24594922,44.7890292 3.19377539,45.8597427 3.19377539,47.1757583 C3.19377539,48.4917739 4.24594922,49.5624873 5.53917773,49.5624873 C6.83240625,49.5624873 7.88458008,48.4917739 7.88458008,47.1757583 C7.88458008,45.8597427 6.83240625,44.7890292 5.53917773,44.7890292 Z M5.53917773,48.0390799 C5.07141211,48.0390799 4.69080469,47.6518674 4.69080469,47.1757583 C4.69080469,46.6996491 5.0713125,46.3124366 5.53917773,46.3124366 C6.00694336,46.3124366 6.38755078,46.6996491 6.38755078,47.1757583 C6.38755078,47.6518674 6.00694336,48.0390799 5.53917773,48.0390799 Z" id="Shape" fill="#44596E"></path>
                                <path d="M51,26.8632203 C51,24.6511423 49.2314355,22.8515166 47.0577598,22.8515166 L35.5802695,22.8515166 C35.1668906,22.8515166 34.8317051,23.1926082 34.8317051,23.613271 C34.8317051,24.0339337 35.1668906,24.3750253 35.5802695,24.3750253 L47.0577598,24.3750253 C48.4059727,24.3750253 49.5029707,25.4913528 49.5029707,26.8633216 C49.5029707,28.2352904 48.4059727,29.3516179 47.0577598,29.3516179 L41.4686777,29.3516179 C41.0552988,29.3516179 40.7201133,29.6927096 40.7201133,30.1133723 C40.7201133,30.5340351 41.0552988,30.8751267 41.4686777,30.8751267 L45.4608223,30.8751267 C46.8090352,30.8751267 47.9060332,31.9914542 47.9060332,33.363423 C47.9060332,34.7353918 46.8090352,35.8517193 45.4608223,35.8517193 L41.4686777,35.8517193 C41.0552988,35.8517193 40.7201133,36.1928109 40.7201133,36.6134737 C40.7201133,37.0341365 41.0552988,37.3752281 41.4686777,37.3752281 L43.8639844,37.3752281 C45.2121973,37.3752281 46.3091953,38.4915556 46.3091953,39.8635244 C46.3091953,41.2354932 45.2121973,42.3518207 43.8639844,42.3518207 L41.4686777,42.3518207 C41.0552988,42.3518207 40.7201133,42.6929123 40.7201133,43.113575 C40.7201133,43.5342378 41.0552988,43.8753294 41.4686777,43.8753294 L42.2671465,43.8753294 C43.6153594,43.8753294 44.7123574,44.9916569 44.7123574,46.3636257 C44.7123574,47.7355945 43.6153594,48.851922 42.2671465,48.851922 L18.0339785,48.851922 C17.7707109,48.851922 17.5105312,48.8089435 17.2607109,48.7243041 L11.0783555,46.6271735 L11.0783555,28.8125614 C11.9128828,27.9862378 14.7959766,25.0427135 17.718416,21.0190487 C22.1463516,14.922885 24.4733262,9.42507602 24.6418652,4.66651852 C25.2897246,4.48821832 26.5275703,4.28366472 27.5691855,4.90644834 C28.6501465,5.55254581 29.3154375,6.95411306 29.5467305,9.07222612 C30.3084434,16.048538 26.4811523,23.172538 26.4426035,23.2432904 C26.173459,23.7413957 26.5354395,24.374924 27.0969375,24.374924 L35.9873594,24.374924 C36.4007383,24.374924 36.7359238,24.0338324 36.7359238,23.6131696 C36.7359238,23.1925068 36.4007383,22.8514152 35.9873594,22.8514152 L28.3112754,22.8514152 C29.4100664,20.4772554 31.6720957,14.7409357 31.0346953,8.90396101 C30.7476211,6.27466667 29.8324102,4.48517739 28.3146621,3.58495906 C26.177543,2.31769981 23.7124102,3.36753216 23.6085176,3.41284211 C23.3331973,3.5328577 23.1546973,3.80836647 23.1546973,4.11296686 C23.1546973,9.77478363 19.5517266,15.928117 16.5292793,20.0930838 C14.4557109,22.9504483 12.3631172,25.2880156 11.0783555,26.6460975 L11.0783555,25.2380429 C11.0783555,24.8173801 10.7431699,24.4762885 10.329791,24.4762885 L0.748564453,24.4762885 C0.335185547,24.4762885 0,24.8173801 0,25.2380429 L0,51.2381442 C0,51.6589084 0.335185547,52 0.748564453,52 L10.329791,52 C10.7431699,52 11.0783555,51.6589084 11.0783555,51.2382456 L11.0783555,48.2325848 L16.7873672,50.1690526 C17.1901875,50.305692 17.609543,50.374924 18.0339785,50.374924 L42.2671465,50.374924 C44.4409219,50.374924 46.2093867,48.5751969 46.2093867,46.3632203 C46.2093867,45.3172398 45.8135391,44.3637037 45.1667754,43.6488811 C46.7021543,43.0999922 47.8063242,41.610846 47.8063242,39.8632203 C47.8063242,38.8172398 47.4104766,37.8637037 46.7637129,37.1488811 C48.2990918,36.5999922 49.4032617,35.110846 49.4032617,33.3632203 C49.4032617,32.3172398 49.0074141,31.3637037 48.3606504,30.6488811 C49.8958301,30.0999922 51,28.6107446 51,26.8632203 Z M9.58122656,50.4765926 L1.4970293,50.4765926 L1.4970293,25.9998986 L9.58122656,25.9998986 L9.58122656,50.4765926 Z" id="Shape" stroke="#44596E" stroke-width="0.3" fill="#44596E"></path>
                                <path d="M38.2749023,4.16385185 C37.0154414,4.16385185 35.8296914,2.30431969 35.8296914,0.863017544 C35.8296914,0.442354776 35.4945059,0.101263158 35.081127,0.101263158 C34.667748,0.101263158 34.3325625,0.442354776 34.3325625,0.863017544 C34.3325625,2.30431969 33.1468125,4.16385185 31.8873516,4.16385185 C31.4739727,4.16385185 31.1387871,4.50494347 31.1387871,4.92560624 C31.1387871,5.34626901 31.4739727,5.68736062 31.8873516,5.68736062 C33.1468125,5.68736062 34.3325625,7.54689279 34.3325625,8.98819493 C34.3325625,9.4088577 34.667748,9.74994932 35.081127,9.74994932 C35.4945059,9.74994932 35.8296914,9.4088577 35.8296914,8.98819493 C35.8296914,7.54689279 37.0154414,5.68736062 38.2749023,5.68736062 C38.6882812,5.68736062 39.0234668,5.34626901 39.0234668,4.92560624 C39.0234668,4.50494347 38.6883809,4.16385185 38.2749023,4.16385185 Z M35.0812266,6.32575439 C34.7680547,5.78325146 34.368123,5.29801949 33.9047402,4.92560624 C34.368123,4.55319298 34.7680547,4.06796101 35.0812266,3.52545809 C35.3943984,4.06796101 35.7943301,4.55319298 36.2577129,4.92560624 C35.7942305,5.29801949 35.3943984,5.7831501 35.0812266,6.32575439 Z" id="Shape" fill="#E83F67"></path>
                                <path d="M13.5234668,13.1013645 C12.2640059,13.1013645 11.0782559,11.2418324 11.0782559,9.80053021 C11.0782559,9.37986745 10.7430703,9.03877583 10.3296914,9.03877583 C9.9163125,9.03877583 9.58112695,9.37986745 9.58112695,9.80053021 C9.58112695,11.2418324 8.39537695,13.1013645 7.13591602,13.1013645 C6.72253711,13.1013645 6.38735156,13.4424561 6.38735156,13.8631189 C6.38735156,14.2837817 6.72253711,14.6248733 7.13591602,14.6248733 C8.39537695,14.6248733 9.58112695,16.4844055 9.58112695,17.9257076 C9.58112695,18.3463704 9.9163125,18.687462 10.3296914,18.687462 C10.7430703,18.687462 11.0782559,18.3463704 11.0782559,17.9257076 C11.0782559,16.4844055 12.2640059,14.6248733 13.5234668,14.6248733 C13.9368457,14.6248733 14.2720312,14.2837817 14.2720312,13.8631189 C14.2720312,13.4424561 13.9368457,13.1013645 13.5234668,13.1013645 Z M10.329791,15.2632671 C10.0166191,14.7207641 9.6166875,14.2355322 9.15330469,13.8631189 C9.6166875,13.4907057 10.0166191,13.0054737 10.329791,12.4629708 C10.6429629,13.0054737 11.0428945,13.4907057 11.5062773,13.8631189 C11.0427949,14.2355322 10.6429629,14.7207641 10.329791,15.2632671 Z" id="Shape" fill="#E83F67"></path>
                                <path d="M50.2514355,15.5388772 C48.9919746,15.5388772 47.8062246,13.679345 47.8062246,12.2380429 C47.8062246,11.8173801 47.4710391,11.4762885 47.0576602,11.4762885 C46.6442813,11.4762885 46.3090957,11.8173801 46.3090957,12.2380429 C46.3090957,13.679345 45.1233457,15.5388772 43.8638848,15.5388772 C43.4505059,15.5388772 43.1153203,15.8799688 43.1153203,16.3006316 C43.1153203,16.7212943 43.4505059,17.062386 43.8638848,17.062386 C45.1233457,17.062386 46.3090957,18.9219181 46.3090957,20.3632203 C46.3090957,20.783883 46.6442813,21.1249747 47.0576602,21.1249747 C47.4710391,21.1249747 47.8062246,20.783883 47.8062246,20.3632203 C47.8062246,18.9219181 48.9919746,17.062386 50.2514355,17.062386 C50.6648145,17.062386 51,16.7212943 51,16.3006316 C51,15.8799688 50.6648145,15.5388772 50.2514355,15.5388772 Z M47.0577598,17.7007797 C46.7445879,17.1582768 46.3446563,16.6730448 45.8812734,16.3006316 C46.3446563,15.9282183 46.7445879,15.4429864 47.0577598,14.9004834 C47.3709316,15.4429864 47.7708633,15.9282183 48.2342461,16.3006316 C47.7707637,16.6730448 47.3709316,17.1582768 47.0577598,17.7007797 Z" id="Shape" fill="#E83F67"></path>
                            </g>
                        </g>
                    </g>
                </g>
            </g>
        </g>
    </g>
</svg>