<?xml version="1.0" encoding="UTF-8"?>
<svg width="93px" height="93px" viewBox="0 0 93 93" version="1.1" xmlns="http://www.w3.org/2000/svg" xmlns:xlink="http://www.w3.org/1999/xlink">
    <!-- Generator: Sketch 50.2 (55047) - http://www.bohemiancoding.com/sketch -->
    <title>Group 33</title>
    <desc>Created with Sketch.</desc>
    <defs></defs>
    <g id="Page-1" stroke="none" stroke-width="1" fill="none" fill-rule="evenodd">
        <g id="Large-Device-Desktops-Copy" transform="translate(-750.000000, -871.000000)">
            <g id="Group-24" transform="translate(247.000000, 871.000000)">
                <g id="Group-18" transform="translate(504.000000, 0.000000)">
                    <g id="Group-16">
                        <g id="Group-20">
                            <g id="Group-33">
                                <path d="M91.2209112,46.3903289 C91.2209112,71.5804992 70.7998414,92 45.6104556,92 C20.4210699,92 0,71.5804992 0,46.3903289 C0,21.2001586 20.4210699,0.779873288 45.6104556,0.779873288 C70.7998414,0.779873288 91.2209112,21.2001586 91.2209112,46.3903289" id="Fill-411" stroke="#D4D4D4" fill="#FFFFFF"></path>
                                <g id="responsive-(4)" transform="translate(19.000000, 24.000000)" fill-rule="nonzero">
                                    <path d="M50.35,23 L49.4666667,23 L49.4666667,4.42307692 C49.4637958,1.98153846 47.488,0.002875 45.05,0 L7.95,0 C5.512,0.002875 3.53620417,1.98153846 3.53333333,4.42307692 L3.53333333,17.6923077 L2.65,17.6923077 C1.18642708,17.6923077 0,18.8804567 0,20.3461538 L0,43.3461538 C0,44.811851 1.18642708,46 2.65,46 L36.2166667,46 C36.7044875,46 37.1,45.6039135 37.1,45.1153846 C37.0971292,42.6738462 35.1213333,40.6951827 32.6833333,40.6923077 L30.0333333,40.6923077 L30.0333333,35.3846154 L40.6333333,35.3846154 L40.6333333,43.3461538 C40.6333333,44.811851 41.8197604,46 43.2833333,46 L50.35,46 C51.8135729,46 53,44.811851 53,43.3461538 L53,25.6538462 C53,24.188149 51.8135729,23 50.35,23 Z M19.4333333,43.3461538 C19.4333333,43.8346827 19.0378208,44.2307692 18.55,44.2307692 L2.65,44.2307692 C2.16217917,44.2307692 1.76666667,43.8346827 1.76666667,43.3461538 L1.76666667,42.4615385 L19.4333333,42.4615385 L19.4333333,43.3461538 Z M19.4333333,40.6923077 L1.76666667,40.6923077 L1.76666667,20.3461538 C1.76666667,19.857625 2.16217917,19.4615385 2.65,19.4615385 L18.55,19.4615385 C19.0378208,19.4615385 19.4333333,19.857625 19.4333333,20.3461538 L19.4333333,40.6923077 Z M32.6833333,42.4615385 C33.80605,42.4628654 34.8065354,43.1712212 35.1822833,44.2307692 L21.0374667,44.2307692 C21.1421417,43.9474712 21.1970188,43.64825 21.2,43.3461538 L21.2,42.4615385 L32.6833333,42.4615385 Z M21.2,40.6923077 L21.2,35.3846154 L22.9666667,35.3846154 L22.9666667,40.6923077 L21.2,40.6923077 Z M24.7333333,40.6923077 L24.7333333,35.3846154 L28.2666667,35.3846154 L28.2666667,40.6923077 L24.7333333,40.6923077 Z M40.6333333,33.6153846 L21.2,33.6153846 L21.2,28.3076923 L40.6333333,28.3076923 L40.6333333,33.6153846 Z M40.6333333,25.6538462 L40.6333333,26.5384615 L21.2,26.5384615 L21.2,20.3461538 C21.1970188,19.9264038 21.0933375,19.5135096 20.8979,19.1421923 C20.91115,19.1298077 20.9288167,19.1262692 20.9411833,19.113 L29.6861833,10.3553077 C30.0251625,10.0038942 30.0154458,9.44382212 29.6645417,9.10446154 C29.32225,8.77339423 28.7795521,8.77339423 28.43715,9.10446154 L19.69215,17.8621538 C19.67095,17.8842692 19.6621167,17.9125769 19.6435667,17.9355769 C19.3008333,17.7763462 18.9277354,17.6934135 18.55,17.6923077 L5.3,17.6923077 L5.3,4.42307692 C5.3,2.95737981 6.48642708,1.76923077 7.95,1.76923077 L45.05,1.76923077 C46.5135729,1.76923077 47.7,2.95737981 47.7,4.42307692 L47.7,23 L43.2833333,23 C41.8197604,23 40.6333333,24.188149 40.6333333,25.6538462 Z M51.2333333,43.3461538 C51.2333333,43.8346827 50.8378208,44.2307692 50.35,44.2307692 L43.2833333,44.2307692 C42.7955125,44.2307692 42.4,43.8346827 42.4,43.3461538 L42.4,42.4615385 L51.2333333,42.4615385 L51.2333333,43.3461538 Z M51.2333333,40.6923077 L42.4,40.6923077 L42.4,25.6538462 C42.4,25.1653173 42.7955125,24.7692308 43.2833333,24.7692308 L50.35,24.7692308 C50.8378208,24.7692308 51.2333333,25.1653173 51.2333333,25.6538462 L51.2333333,40.6923077 Z" id="Shape" stroke="#44596E" stroke-width="0.2" fill="#44596E"></path>
                                    <path d="M10.55495,28.4598462 C10.2100083,28.1145144 9.65085833,28.1145144 9.30591667,28.4598462 L5.55881667,32.2123846 C5.2079125,32.5518558 5.19819583,33.1118173 5.537175,33.4632308 C5.87615417,33.8146442 6.43530417,33.824375 6.78620833,33.4849038 C6.79360625,33.4778269 6.80078333,33.4705288 6.80785,33.4632308 L10.55495,29.7106923 C10.712625,29.4370144 10.3957292,28.91675 10.55495,28.4598462 Z" id="Shape" fill="#E83F67"></path>
                                    <path d="M15.8333083,28.4598462 C15.4910167,28.1287788 14.9483187,28.1287788 14.6059167,28.4598462 L10.8588167,32.2123846 C10.5079125,32.5517452 10.4981958,33.1118173 10.837175,33.4632308 C11.1760437,33.8146442 11.7353042,33.824375 12.0862083,33.4849038 C12.0936062,33.4778269 12.1007833,33.4705288 12.10785,33.4632308 L15.85495,29.7106923 C16.1938188,29.3592788 16.1842125,28.7992067 15.8333083,28.4598462 Z" id="Shape" fill="#E83F67"></path>
                                    <path d="M35.052875,9.10534615 C34.7105833,8.77427885 34.1678854,8.77427885 33.8254833,9.10534615 L25.0804833,17.8630385 C24.7295792,18.202399 24.7198625,18.7624712 25.0587312,19.1138846 C25.3976,19.4652981 25.9568604,19.4750288 26.3077646,19.1356683 C26.3151625,19.1285913 26.3223396,19.1212933 26.3295167,19.1138846 L35.0745167,10.3561923 C35.4134958,10.0047788 35.4037792,9.44470673 35.052875,9.10534615 Z" id="Shape" fill="#E83F67"></path>
                                    <path d="M48.668575,30.8545 C48.3262833,30.5233221 47.783475,30.5233221 47.4411833,30.8545 L44.9431167,33.3561923 C44.5922125,33.6956635 44.5824958,34.255625 44.921475,34.6070385 C45.2604542,34.9584519 45.8196042,34.9681827 46.1705083,34.6287115 C46.1777958,34.6216346 46.1850833,34.6143365 46.19215,34.6070385 L48.6902167,32.1053462 C49.0291958,31.7539327 49.0194792,31.1939712 48.668575,30.8545 Z" id="Shape" fill="#E83F67"></path>
                                    <path d="M26.5176667,30.0769231 L26.5088333,30.0769231 C26.0210125,30.0793558 25.6274875,30.4774327 25.6299167,30.9659615 C25.6323458,31.4544904 26.0298458,31.8485865 26.5176667,31.8461538 C27.0054875,31.8461538 27.401,31.4500673 27.401,30.9615385 C27.401,30.4730096 27.0054875,30.0769231 26.5176667,30.0769231 Z" id="Shape" fill="#E83F67"></path>
                                    <path d="M28.2666667,3.53846154 L24.7333333,3.53846154 C24.2455125,3.53846154 23.85,3.93454808 23.85,4.42307692 C23.85,4.91160577 24.2455125,5.30769231 24.7333333,5.30769231 L28.2666667,5.30769231 C28.7544875,5.30769231 29.15,4.91160577 29.15,4.42307692 C29.15,3.93454808 28.7544875,3.53846154 28.2666667,3.53846154 Z" id="Shape" fill="#E83F67"></path>
                                </g>
                            </g>
                        </g>
                    </g>
                </g>
            </g>
        </g>
    </g>
</svg>