<?xml version="1.0" encoding="UTF-8"?>
<svg width="93px" height="93px" viewBox="0 0 93 93" version="1.1" xmlns="http://www.w3.org/2000/svg" xmlns:xlink="http://www.w3.org/1999/xlink">
    <!-- Generator: Sketch 50.2 (55047) - http://www.bohemiancoding.com/sketch -->
    <title>Group 32</title>
    <desc>Created with Sketch.</desc>
    <defs></defs>
    <g id="Page-1" stroke="none" stroke-width="1" fill="none" fill-rule="evenodd">
        <g id="Large-Device-Desktops-Copy" transform="translate(-249.000000, -871.000000)">
            <g id="Group-24" transform="translate(247.000000, 871.000000)">
                <g id="Group-18" transform="translate(0.000000, 1.000000)">
                    <g id="Group-16">
                        <g id="Group-32" transform="translate(3.000000, 0.000000)">
                            <path d="M91.2209112,45.6104556 C91.2209112,70.8006259 70.7998414,91.2201267 45.6104556,91.2201267 C20.4210699,91.2201267 0,70.8006259 0,45.6104556 C0,20.4202853 20.4210699,0 45.6104556,0 C70.7998414,0 91.2209112,20.4202853 91.2209112,45.6104556" id="Fill-411" stroke="#D4D4D4" fill="#FFFFFF"></path>
                            <g id="recycle" transform="translate(16.000000, 19.000000)" fill-rule="nonzero">
                                <path d="M47.9517426,11.4806886 C47.69437,11.1633234 47.2439678,11.0363772 46.7935657,11.2267964 L45.1206434,11.8615269 L39.9731903,0.626796407 C39.7801609,0.245958084 39.458445,0.0555389222 39.0723861,0.0555389222 L22.3431635,0.0555389222 C22.0214477,0.0555389222 21.7640751,0.18248503 21.5710456,0.436377246 L12.1126005,11.6076347 C11.919571,11.7980539 11.8552279,12.1154192 11.919571,12.3693114 C11.9839142,12.6232036 12.1126005,12.8770958 12.30563,13.067515 L21.7640751,19.9860778 C22.2144772,20.3034431 22.8579088,20.2399701 23.1796247,19.7956587 L29.3565684,11.5441617 L32.3163539,16.7489521 L30.4504021,17.7010479 C30.0643432,17.8914671 29.8713137,18.2723054 29.9356568,18.6531437 C30,19.033982 30.2573727,19.4148204 30.7077748,19.4782934 L41.2600536,22.0172156 C41.3243968,22.0172156 41.3887399,22.0172156 41.5174263,22.0172156 C41.8391421,22.0172156 42.1608579,21.8267964 42.3538874,21.5729042 L48.0160858,12.6232036 C48.2734584,12.2423653 48.2091153,11.7980539 47.9517426,11.4806886 Z M22.150134,17.764521 L14.3646113,12.0519461 L22.8579088,2.02320359 L24.2091153,2.02320359 L28.3914209,9.70344311 L22.150134,17.764521 Z M40.9383378,19.9860778 L33.7962466,18.2723054 L34.1823056,18.0818862 C34.4396783,17.9549401 34.6327078,17.764521 34.6970509,17.5106287 C34.7613941,17.2567365 34.7613941,17.0028443 34.6327078,16.7489521 L30.386059,9.25913174 L26.3967828,1.95973054 L38.3646113,1.95973054 L43.6407507,13.5118263 C43.8337802,13.8926647 44.2841823,14.1465569 44.6702413,14.0830838 L40.9383378,19.9860778 Z" id="Shape" fill="#E83F67"></path>
                                <path d="M25.689008,37.1238024 L15.2654155,36.679491 L17.9678284,31.3477545 L19.769437,32.3633234 C20.155496,32.5537425 20.6058981,32.5537425 20.9276139,32.2363772 C21.2493298,31.982485 21.3780161,31.5381737 21.1849866,31.1573353 L17.3887399,21.1285928 C17.2600536,20.7477545 16.8739946,20.4938623 16.4235925,20.4938623 L5.67828418,20.8747006 C5.22788204,20.8747006 4.90616622,21.1920659 4.77747989,21.5729042 C4.64879357,21.9537425 4.84182306,22.3980539 5.16353887,22.6519461 L6.64343164,23.667515 L0.144772118,34.2040419 C-0.0482573727,34.5214072 -0.0482573727,34.9657186 0.144772118,35.2830838 L7.35120643,45.7561377 L10.1179625,49.8818862 C10.310992,50.1357784 10.6327078,50.3261976 10.9544236,50.3261976 L25.6246649,50.3261976 C26.2037534,50.3261976 26.6541555,49.8818862 26.6541555,49.3106287 L26.6541555,38.1393713 C26.6541555,37.6315868 26.2037534,37.1872754 25.689008,37.1238024 Z M8.89544236,44.4866766 L2.20375335,34.7118263 L8.95978552,23.9214072 C9.21715818,23.5405689 9.15281501,23.0962575 8.8310992,22.7788922 L15.844504,22.4615269 L18.4182306,29.3166168 L18.0321716,29.1261976 C17.7747989,28.9992515 17.5174263,28.9357784 17.2600536,29.0627246 C17.002681,29.1261976 16.8096515,29.3166168 16.6809651,29.570509 L12.8203753,37.1872754 L8.89544236,44.4866766 Z M24.5951743,48.3585329 L11.4691689,48.3585329 L10.1823056,46.3908683 L14.3002681,38.6471557 L24.5951743,39.0914671 L24.5951743,48.3585329 Z" id="Shape" fill="#44596E"></path>
                                <path d="M59.7908847,33.8232036 L53.3565684,20.7477545 C53.227882,20.4938623 53.0348525,20.3034431 52.7774799,20.2399701 C52.5201072,20.176497 52.2627346,20.176497 52.0053619,20.3669162 L41.7104558,26.016018 C41.2600536,26.2699102 41.0670241,26.9046407 41.3243968,27.3489521 L46.3431635,36.2986527 L40.2949062,36.8064371 L40.230563,34.7752994 C40.230563,34.330988 39.9088472,34.0136228 39.5227882,33.8866766 C39.1367292,33.7597305 38.6863271,33.8866766 38.4289544,34.2040419 L31.7372654,42.6459581 C31.4798928,42.9633234 31.4798928,43.4711078 31.6729223,43.7884731 L37.6568365,52.5477545 C37.849866,52.8016467 38.1715818,52.9920659 38.4932976,52.9920659 C38.5576408,52.9920659 38.6863271,52.9920659 38.7506702,52.9285928 C39.1367292,52.8016467 39.458445,52.4208084 39.458445,52.0399701 L39.5227882,50.2627246 L52.0053619,50.2627246 C52.3914209,50.2627246 52.7774799,50.0088323 52.9061662,49.6914671 L59.7908847,34.6483533 C59.919571,34.3944611 59.919571,34.0770958 59.7908847,33.8232036 Z M51.4906166,48.3585329 L38.6863271,48.3585329 C38.2359249,48.3585329 37.849866,48.6758982 37.7211796,49.0567365 L33.7962466,43.2806886 L38.3646113,37.5046407 L38.3646113,37.9489521 C38.3646113,38.2028443 38.4932976,38.4567365 38.6863271,38.6471557 C38.8793566,38.8375749 39.1367292,38.9010479 39.458445,38.9010479 L48.080429,38.1393713 L56.4450402,37.5681138 L51.4906166,48.3585329 Z M57.2815013,35.473503 L48.4664879,36.1082335 L43.5120643,27.222006 L52.0053619,22.525 L57.8605898,34.267515 L57.2815013,35.473503 Z" id="Shape" fill="#44596E"></path>
                            </g>
                        </g>
                    </g>
                </g>
            </g>
        </g>
    </g>
</svg>