<?xml version="1.0" encoding="UTF-8"?>
<svg width="93px" height="93px" viewBox="0 0 93 93" version="1.1" xmlns="http://www.w3.org/2000/svg" xmlns:xlink="http://www.w3.org/1999/xlink">
    <!-- Generator: Sketch 50.2 (55047) - http://www.bohemiancoding.com/sketch -->
    <title>Group 34</title>
    <desc>Created with Sketch.</desc>
    <defs></defs>
    <g id="Page-1" stroke="none" stroke-width="1" fill="none" fill-rule="evenodd">
        <g id="Large-Device-Desktops-Copy" transform="translate(-750.000000, -1107.000000)">
            <g id="Group-24" transform="translate(247.000000, 871.000000)">
                <g id="Group-18" transform="translate(504.000000, 0.000000)">
                    <g id="Group-16">
                        <g id="Group-17" transform="translate(0.000000, 236.000000)">
                            <g id="Group-34">
                                <path d="M91.2209112,46.3903289 C91.2209112,71.5804992 70.7998414,92 45.6104556,92 C20.4210699,92 0,71.5804992 0,46.3903289 C0,21.2001586 20.4210699,0.779873288 45.6104556,0.779873288 C70.7998414,0.779873288 91.2209112,21.2001586 91.2209112,46.3903289" id="Fill-411" stroke="#D4D4D4" fill="#FFFFFF"></path>
                                <g id="plug" transform="translate(18.000000, 25.000000)" fill-rule="nonzero">
                                    <path d="M51.863875,0.100774359 L26.2994375,0.100774359 C24.0188594,0.100774359 22.1633125,1.9711641 22.1633125,4.27023077 L22.1633125,30.0405718 C22.1633125,32.3395282 24.01875,34.2100282 26.2994375,34.2100282 L51.863875,34.2100282 C54.1444531,34.2100282 56,32.3396385 56,30.0405718 L56,4.27023077 C56,1.97127436 54.1445625,0.100774359 51.863875,0.100774359 Z M53.7689687,30.0405718 C53.7689687,31.0994744 52.9143125,31.9609077 51.8639844,31.9609077 L26.2994375,31.9609077 C25.2488906,31.9609077 24.3944531,31.0993641 24.3944531,30.0405718 L24.3944531,4.27023077 C24.3944531,3.21132821 25.2491094,2.34989487 26.2994375,2.34989487 L51.863875,2.34989487 C52.9144219,2.34989487 53.7688594,3.21143846 53.7688594,4.27023077 L53.7688594,30.0405718 L53.7689687,30.0405718 Z" id="Shape" fill="#44596E"></path>
                                    <path d="M39.0816562,6.00489487 C32.9824687,6.00489487 28.0203437,11.0068974 28.0203437,17.1553462 C28.0203437,23.3037949 32.9823594,28.3057974 39.0816562,28.3057974 C45.1809531,28.3057974 50.1429687,23.3039051 50.1429687,17.1553462 C50.1429687,11.0067872 45.1809531,6.00489487 39.0816562,6.00489487 Z M39.0816563,26.0567872 C34.5907188,26.0567872 30.8747031,22.6587949 30.3243281,18.2798513 L30.6829688,18.2798513 C31.2990781,18.2798513 31.7984844,17.7763103 31.7984844,17.1553462 C31.7984844,16.5343821 31.2990781,16.030841 30.6829688,16.030841 L30.3243281,16.030841 C30.8747031,11.6518974 34.5907188,8.25390513 39.0816563,8.25390513 C43.5725937,8.25390513 47.2885,11.6518974 47.8389844,16.030841 L47.4803438,16.030841 C46.8642344,16.030841 46.3648281,16.5343821 46.3648281,17.1553462 C46.3648281,17.7763103 46.8642344,18.2798513 47.4803438,18.2798513 L47.8389844,18.2798513 C47.2886094,22.6589051 43.5727031,26.0567872 39.0816563,26.0567872 Z" id="Shape" fill="#44596E"></path>
                                    <path d="M36.2638281,14.5270538 C35.6477188,14.5270538 35.1483125,15.0305949 35.1483125,15.651559 L35.1483125,18.6593538 C35.1483125,19.2803179 35.6477188,19.783859 36.2638281,19.783859 C36.8799375,19.783859 37.3793438,19.2803179 37.3793438,18.6593538 L37.3793438,15.651559 C37.3793438,15.0305949 36.8799375,14.5270538 36.2638281,14.5270538 Z" id="Shape" fill="#E83F67"></path>
                                    <path d="M41.8997031,14.5270538 C41.2835938,14.5270538 40.7841875,15.0305949 40.7841875,15.651559 L40.7841875,18.6593538 C40.7841875,19.2803179 41.2835938,19.783859 41.8997031,19.783859 C42.5158125,19.783859 43.0152188,19.2803179 43.0152188,18.6593538 L43.0152188,15.651559 C43.0152187,15.0305949 42.5158125,14.5270538 41.8997031,14.5270538 Z" id="Shape" fill="#E83F67"></path>
                                    <path d="M54.6634375,40.6501051 L53.4479531,40.6501051 C52.8318438,40.6501051 52.3324375,41.1536462 52.3324375,41.7746103 C52.3324375,42.3955744 52.8318437,42.8991154 53.4479531,42.8991154 L54.6634375,42.8991154 C55.2795469,42.8991154 55.7789531,42.3955744 55.7789531,41.7746103 C55.7790625,41.1537564 55.2795469,40.6501051 54.6634375,40.6501051 Z" id="Shape" fill="#E83F67"></path>
                                    <path d="M48.143375,40.6501051 L19.0979687,40.6501051 C14.6453125,40.6501051 11.0228125,36.9984128 11.0228125,32.5098744 L11.0228125,28.7163923 C15.6921406,28.3214538 19.3726094,24.3669974 19.3726094,19.5597077 L19.3726094,11.9986538 C19.3726094,10.4680744 18.1372188,9.22261795 16.6187656,9.22261795 L14.3566719,9.22261795 L14.3566719,2.88552051 C14.3566719,2.26455641 13.8572656,1.76101538 13.2411563,1.76101538 C12.6250469,1.76101538 12.1256406,2.26455641 12.1256406,2.88552051 L12.1256406,9.22272821 L7.24696875,9.22272821 L7.24696875,2.88552051 C7.24696875,2.26455641 6.7475625,1.76101538 6.13145313,1.76101538 C5.51534375,1.76101538 5.0159375,2.26455641 5.0159375,2.88552051 L5.0159375,9.22272821 L2.75384375,9.22272821 C1.23539062,9.22261795 0,10.4679641 0,11.9986538 L0,19.5597077 C0,24.5176077 3.91485938,28.5688692 8.79189063,28.7430744 L8.79189063,32.5098744 C8.79189063,38.2384667 13.4152812,42.8991154 19.0980781,42.8991154 L48.1434844,42.8991154 C48.7595938,42.8991154 49.259,42.3955744 49.259,41.7746103 C49.259,41.1537564 48.7594844,40.6501051 48.143375,40.6501051 Z M9.11815625,26.5023333 C5.32065625,26.5023333 2.23103125,23.3879205 2.23103125,19.5597077 L2.23103125,11.9986538 C2.23103125,11.7081282 2.46553125,11.4717385 2.75373438,11.4717385 L16.6189844,11.4717385 C16.9070781,11.4717385 17.1416875,11.7081282 17.1416875,11.9986538 L17.1416875,19.5597077 C17.1416875,23.3879205 14.0520625,26.5023333 10.2545625,26.5023333 L9.11815625,26.5023333 Z" id="Shape" fill="#E83F67"></path>
                                </g>
                            </g>
                        </g>
                    </g>
                </g>
            </g>
        </g>
    </g>
</svg>