<svg width="214" height="141" xmlns="http://www.w3.org/2000/svg"><path d="M78.316 125.34l-14.36 7.96-15.162-17.201c-.66-.706-1.885-2.157-3.678-4.352-1.793-2.195-3.247-4.056-4.36-5.582.574 1.423 1.225 3.226 1.953 5.409a225.523 225.523 0 0 1 1.933 6.063c.562 1.859 2.798 9.41 6.707 22.65l-14.359 7.96L.94 109.463l11.716-6.494 17.382 19.829c3.868 4.367 6.825 7.913 8.871 10.638-.892-2.239-1.99-5.342-3.29-9.31-1.303-3.968-2.31-7.295-3.022-9.982L27.138 94.94l11.254-6.238 13.269 14.874c2.167 2.362 4.578 5.14 7.231 8.331 2.654 3.192 4.582 5.607 5.785 7.245-.995-2.423-2.455-6.772-4.38-13.048l-7.545-25.361 11.715-6.494 13.849 51.09zm55.408-30.714l-12.207 6.767-10.158-18.326-14.114 7.823 10.159 18.326-12.207 6.767-24.919-44.954 12.207-6.767 9.238 16.666 14.114-7.824-9.238-16.665 12.207-6.767 24.918 44.954zm36.406-20.18L143.44 89.24l-24.918-44.954 26.69-14.794 5.403 9.747-14.544 8.062 3.92 7.072 13.468-7.465 5.403 9.747-13.468 7.466 4.704 8.486 14.544-8.062 5.488 9.901zm50.674-28.088l-15.928 8.828L170.9 32.617l-.277.154c3.15 4.765 5.453 8.46 6.908 11.083l11.232 20.263-10.762 5.966-24.919-44.954 15.867-8.795 33.674 22.173.185-.102c-2.798-4.372-4.959-7.93-6.481-10.677L185.062 7.403l10.823-6 24.919 44.955z" fill="#727272" stroke="#000" fill-rule="evenodd" opacity=".033"/></svg>