<?xml version="1.0" encoding="UTF-8"?>
<svg width="61px" height="61px" viewBox="0 0 61 61" version="1.1" xmlns="http://www.w3.org/2000/svg" xmlns:xlink="http://www.w3.org/1999/xlink">
    <!-- Generator: Sketch 61.2 (89653) - https://sketch.com -->
    <title>AI</title>
    <desc>Created with Sketch.</desc>
    <g id="Menu" stroke="none" stroke-width="1" fill="none" fill-rule="evenodd">
        <g transform="translate(-837.000000, -449.000000)" fill="#000000" fill-rule="nonzero" id="Enabling-02">
            <g transform="translate(801.000000, 0.000000)">
                <g id="Enabling">
                    <g id="Group-7" transform="translate(35.595782, 121.000000)">
                        <g id="Group" transform="translate(0.000000, 213.416942)">
                            <g id="Group-5" transform="translate(0.568873, 115.027900)">
                                <path d="M31.3356208,-8.5975671e-13 L31.335,11.999 L35.781,11.999 L35.7819138,5.4 L37.6539138,5.4 L37.653,11.999 L43.2,12 C45.8509668,12 48,14.1490332 48,16.8 L47.999,22.657 L54.6,22.6578422 L54.6,24.5298422 L47.999,24.529 L47.999,28.976 L60,28.9761352 L60,30.8481352 L47.999,30.848 L47.999,34.894 L51.2931929,34.8937001 C51.6981453,33.507466 52.9786998,32.4948074 54.4957734,32.4948074 C56.3381953,32.4948074 57.8317734,33.9883855 57.8317734,35.8308074 C57.8317734,37.6732293 56.3381953,39.1668074 54.4957734,39.1668074 C52.9783342,39.1668074 51.6975281,38.1536607 51.2929004,36.7669126 L47.999,36.766 L48,43.2 C48,45.8509668 45.8509668,48 43.2,48 L37.653,47.999 L37.6539138,54.336 L35.7819138,54.336 L35.781,47.999 L31.335,47.999 L31.3356208,59.736 L29.4636208,59.736 L29.463,47.999 L25.416,47.999 L25.418056,51.0291929 C26.80429,51.4341453 27.8169486,52.7146998 27.8169486,54.2317734 C27.8169486,56.0741953 26.3233705,57.5677734 24.4809486,57.5677734 C22.6385267,57.5677734 21.1449486,56.0741953 21.1449486,54.2317734 C21.1449486,52.7143342 22.1580953,51.4335281 23.5448434,51.0289004 L23.544,47.999 L16.8,48 C14.1490332,48 12,45.8509668 12,43.2 L11.999,36.766 L8.70709964,36.7669126 C8.30247186,38.1536607 7.02166578,39.1668074 5.50422661,39.1668074 C3.66180468,39.1668074 2.16822661,37.6732293 2.16822661,35.8308074 C2.16822661,33.9883855 3.66180468,32.4948074 5.50422661,32.4948074 C6.95534049,32.4948074 8.19005507,33.421323 8.64907411,34.715058 L8.70680706,34.8937001 L11.999,34.894 L11.999,30.848 L-1.25233157e-12,30.8481352 L-1.25233157e-12,28.9761352 L11.999,28.976 L11.999,24.529 L5.4,24.5298422 L5.4,22.6578422 L11.999,22.657 L12,16.8 C12,14.1490332 14.1490332,12 16.8,12 L23.544,11.999 L23.5448434,8.70709964 C22.1580953,8.30247186 21.1449486,7.02166578 21.1449486,5.50422661 C21.1449486,3.66180468 22.6385267,2.16822661 24.4809486,2.16822661 C26.3233705,2.16822661 27.8169486,3.66180468 27.8169486,5.50422661 C27.8169486,6.95534049 26.890433,8.19005507 25.596698,8.64907411 L25.418056,8.70680706 L25.416,11.999 L29.463,11.999 L29.4636208,-8.5975671e-13 L31.3356208,-8.5975671e-13 Z M24.4809486,52.7677734 C23.6724037,52.7677734 23.0169486,53.4232285 23.0169486,54.2317734 C23.0169486,55.0403183 23.6724037,55.6957734 24.4809486,55.6957734 C25.2894935,55.6957734 25.9449486,55.0403183 25.9449486,54.2317734 C25.9449486,53.4232285 25.2894935,52.7677734 24.4809486,52.7677734 Z M43.2,13.875 L16.8,13.875 C15.2491844,13.875 13.9802548,15.081897 13.8812217,16.6076804 L13.875,16.8 L13.875,43.2 C13.875,44.7508156 15.081897,46.0197452 16.6076804,46.1187783 L16.8,46.125 L43.2,46.125 C44.7508156,46.125 46.0197452,44.918103 46.1187783,43.3923196 L46.125,43.2 L46.125,16.8 C46.125,15.2491844 44.918103,13.9802548 43.3923196,13.8812217 L43.2,13.875 Z M33.890742,17.6666818 C36.1502058,17.6666818 37.9818632,19.6395871 37.9818632,22.0732891 C37.9818632,22.4297143 37.9425764,22.7762559 37.8667152,23.1056561 C40.8691672,23.8012223 43.1196208,26.6769517 43.1196208,30.118836 C43.1196208,32.9911729 41.5523346,35.469222 39.2895803,36.613887 C39.3102868,36.8080163 39.3209281,37.0054433 39.3209281,37.2055475 C39.3209281,40.037537 37.1895109,42.3333182 34.5602745,42.3333182 C32.9460484,42.3333182 31.5194691,41.467952 30.6584239,40.1442378 C29.7998933,41.467952 28.373314,42.3333182 26.7590879,42.3333182 C24.1298515,42.3333182 21.9984343,40.037537 21.9984343,37.2055475 C21.9984343,37.0054433 22.0090757,36.8080163 22.0297821,36.613887 C19.7670279,35.469222 18.1997416,32.9911729 18.1997416,30.118836 C18.1997416,26.6769517 20.4501952,23.8012223 23.4526472,23.1056561 C23.376786,22.7762559 23.3374993,22.4297143 23.3374993,22.0732891 C23.3374993,19.6395871 25.1691566,17.6666818 27.4286204,17.6666818 C28.74285,17.6666818 29.9123427,18.3341613 30.6608383,19.3715561 C31.4070197,18.3341613 32.5765125,17.6666818 33.890742,17.6666818 Z M27.4286204,19.4666818 C26.1943721,19.4666818 25.1374993,20.6050552 25.1374993,22.0732891 C25.1374993,22.2195063 25.148009,22.3620843 25.1685222,22.4995376 L25.2067311,22.7016886 L25.6101755,24.453501 L23.8588873,24.859215 C21.64773,25.3714651 19.9997416,27.5434 19.9997416,30.118836 C19.9997416,32.1623901 21.039516,33.9798738 22.623044,34.8893774 L22.8423035,35.0077086 L23.9514645,35.5688026 L23.8196293,36.8047978 C23.8055491,36.9368042 23.7984343,37.0705103 23.7984343,37.2055475 C23.7984343,39.072069 25.155067,40.5333182 26.7590879,40.5333182 C27.6383894,40.5333182 28.4626285,40.0966321 29.0235659,39.3440063 L29.1482443,39.1647699 L29.7587416,38.2226818 L29.7589868,31.3405815 C26.5133385,31.5837862 24.6159406,30.3089253 24.5207251,27.5963572 L24.5169605,27.3791075 L24.5169605,26.4791075 L26.3169605,26.4791075 L26.3169605,27.3791075 L26.3208052,27.5592587 C26.3895139,29.1289394 27.3847634,29.7611248 29.7581164,29.5357539 L29.7587416,21.1976818 L29.2011256,20.4247602 C28.7610203,19.814786 28.1151411,19.4666818 27.4286204,19.4666818 Z M33.890742,19.4666818 C33.2668494,19.4666818 32.6771377,19.7540964 32.2464175,20.2632747 L32.1220961,20.4226154 L31.5587416,21.2046818 L31.559887,33.9658271 C33.8602186,34.1636622 34.8280543,33.5272847 34.8957761,31.9801512 L34.8996208,31.8 L34.8996208,30.9 L36.6996208,30.9 L36.6996208,31.8 C36.6996208,34.6321521 34.8278687,35.9831176 31.5600928,35.7686793 L31.5587416,38.2276818 L32.1672938,39.1627533 C32.7292021,40.0265942 33.6131735,40.5333182 34.5602745,40.5333182 C36.1642954,40.5333182 37.5209281,39.072069 37.5209281,37.2055475 L37.5156107,37.0040361 L37.4997416,36.8047978 L37.3678979,35.5688026 L38.4770589,35.0077086 C40.1831732,34.1446325 41.3196208,32.2552789 41.3196208,30.118836 C41.3196208,27.6322082 39.7833272,25.5217335 37.6871621,24.9180753 L37.4604751,24.859215 L35.7091869,24.453501 L36.1126313,22.7016886 C36.1582162,22.5037525 36.1818632,22.2926149 36.1818632,22.0732891 C36.1818632,20.6050552 35.1249904,19.4666818 33.890742,19.4666818 Z M5.50422661,34.3668074 C4.69568173,34.3668074 4.04022661,35.0222625 4.04022661,35.8308074 C4.04022661,36.6393523 4.69568173,37.2948074 5.50422661,37.2948074 C6.31277148,37.2948074 6.96822661,36.6393523 6.96822661,35.8308074 C6.96822661,35.0222625 6.31277148,34.3668074 5.50422661,34.3668074 Z M54.4957734,34.3668074 C53.6872285,34.3668074 53.0317734,35.0222625 53.0317734,35.8308074 C53.0317734,36.6393523 53.6872285,37.2948074 54.4957734,37.2948074 C55.3043183,37.2948074 55.9597734,36.6393523 55.9597734,35.8308074 C55.9597734,35.0222625 55.3043183,34.3668074 54.4957734,34.3668074 Z M24.4809486,4.04022661 C23.6724037,4.04022661 23.0169486,4.69568173 23.0169486,5.50422661 C23.0169486,6.31277148 23.6724037,6.96822661 24.4809486,6.96822661 C25.2894935,6.96822661 25.9449486,6.31277148 25.9449486,5.50422661 C25.9449486,4.69568173 25.2894935,4.04022661 24.4809486,4.04022661 Z" id="AI"></path>
                            </g>
                        </g>
                    </g>
                </g>
            </g>
        </g>
    </g>
</svg>