<?xml version="1.0" encoding="UTF-8"?>
<svg width="50px" height="51px" viewBox="0 0 50 51" version="1.1" xmlns="http://www.w3.org/2000/svg" xmlns:xlink="http://www.w3.org/1999/xlink">
    <!-- Generator: Sketch 61.2 (89653) - https://sketch.com -->
    <title>Cloud Migration</title>
    <desc>Created with Sketch.</desc>
    <g id="Menu" stroke="none" stroke-width="1" fill="none" fill-rule="evenodd">
        <g transform="translate(-843.000000, -334.000000)" fill="#000000" fill-rule="nonzero" id="Enabling-02">
            <g transform="translate(801.000000, 0.000000)">
                <g id="Enabling">
                    <g id="Group-7" transform="translate(35.595782, 121.000000)">
                        <g id="Group" transform="translate(0.000000, 213.416942)">
                            <g id="Group-6" transform="translate(6.959824, 0.083700)">
                                <path d="M25.228995,16.5212481 L25.228995,46.8079174 L28.4213561,44.1412513 L29.6170227,45.5723606 L24.406593,49.9250263 L24.3449493,50 L24.3310663,49.9884314 L24.3175219,50 L24.2546071,49.9250263 L19.0454485,45.5723606 L20.2411151,44.1412513 L23.3641378,46.7501068 L23.3641378,16.5212481 L25.228995,16.5212481 Z M37.6069655,28.6428204 L37.6694579,28.7183979 L42.879039,33.0704597 L41.6833724,34.5015691 L38.4862653,31.8308447 L38.4396534,43.9870232 L38.4441904,44.1875084 C38.5411871,46.1608922 40.1718961,47.7310726 42.1693404,47.7310726 L42.1693404,47.7310726 L48.6090493,47.7310726 L48.6090493,49.5959298 L42.1693404,49.5959298 L41.9596015,49.592071 C38.9669841,49.4817743 36.5747686,47.0209321 36.5747686,44.0013581 L36.5747686,44.0013581 L36.6214081,31.8961147 L33.5031314,34.5015691 L32.3074647,33.0704597 L37.5165396,28.7183979 L37.5795382,28.6428204 L37.5929987,28.6540604 L37.6069655,28.6428204 Z M11.0295111,28.6428204 L11.0946296,28.7202628 L16.3015846,33.0704597 L15.105918,34.5015691 L11.9878962,31.8970471 L12.0342807,44.0013581 C12.0342807,47.0209321 9.64206521,49.4817743 6.64944778,49.592071 L6.4397089,49.5959298 L1.03028697e-13,49.5959298 L1.03028697e-13,47.7310726 L6.4397089,47.7310726 C8.43715322,47.7310726 10.0678623,46.1608922 10.1648589,44.1875084 L10.1693959,43.9870232 L10.1230389,31.8308447 L6.92567696,34.5015691 L5.73001035,33.0704597 L10.9379816,28.7202628 L11.0020838,28.6428204 L11.0163056,28.6549928 L11.0295111,28.6428204 Z M25.2444124,-1.15818466e-12 C31.0544148,-1.15818466e-12 35.9353789,3.97768642 37.312628,9.35838277 C38.0448425,9.13599631 38.8215869,9.0164221 39.6262594,9.0164221 C44.0160074,9.0164221 47.5746012,12.575016 47.5746012,16.964764 C47.5746012,21.2746984 44.1442344,24.7834276 39.8648595,24.909593 L39.6262594,24.9131058 L29.4239602,24.913 L29.4239602,23.048 L39.598807,23.0484506 L39.8099033,23.0455457 C43.0909882,22.9488121 45.709744,20.2563723 45.709744,16.964764 C45.709744,13.6049482 42.9860751,10.8812794 39.6262594,10.8812794 C39.1191132,10.8812794 38.6217121,10.9429408 38.1409668,11.0634275 L37.8545735,11.1427559 L35.9893808,11.7092478 L35.5060131,9.82080595 C34.3167651,5.17460066 30.1103206,1.86485727 25.2444124,1.86485727 C21.7787737,1.86485727 18.6002082,3.53999633 16.6278064,6.29729255 L16.4464555,6.55894136 L15.6661117,7.72129749 L14.3321495,7.29638221 C13.5475308,7.04645273 12.7241277,6.91771753 11.881083,6.91771753 C7.42675984,6.91771753 3.81581748,10.5286599 3.81581748,14.982983 C3.81581748,19.3563185 7.29664655,22.9166628 11.638973,23.0446841 L11.881083,23.0484506 L19.1679602,23.048 L19.1679602,24.913 L11.881083,24.9131058 C6.39682762,24.9131058 1.95096021,20.4672384 1.95096021,14.982983 C1.95096021,9.49872767 6.39682762,5.05286026 11.881083,5.05286026 C12.932989,5.05286026 13.9466937,5.21641948 14.8981528,5.51949368 C17.1331341,2.19039156 20.9329766,-1.15818466e-12 25.2444124,-1.15818466e-12 Z" id="Cloud-Migration"></path>
                            </g>
                        </g>
                    </g>
                </g>
            </g>
        </g>
    </g>
</svg>