<?xml version="1.0" encoding="UTF-8"?>
<svg width="51px" height="35px" viewBox="0 0 51 35" version="1.1" xmlns="http://www.w3.org/2000/svg" xmlns:xlink="http://www.w3.org/1999/xlink">
    <!-- Generator: Sketch 61.2 (89653) - https://sketch.com -->
    <title>DevOps</title>
    <desc>Created with Sketch.</desc>
    <g id="Menu" stroke="none" stroke-width="1" fill="none" fill-rule="evenodd">
        <g transform="translate(-842.000000, -578.000000)" fill="#000000" fill-rule="nonzero" id="Enabling-02">
            <g transform="translate(801.000000, 0.000000)">
                <g id="Enabling">
                    <g id="Group-7" transform="translate(35.595782, 121.000000)">
                        <g id="Group" transform="translate(0.000000, 213.416942)">
                            <g id="Group-4" transform="translate(4.888628, 243.972100)">
                                <path d="M16.6797349,33.6586993 L16.6797349,35.2731446 L11.7099072,35.2736833 C15.8238792,38.4491658 20.8699502,40.2030268 26.1866837,40.2030268 C31.6032637,40.2030268 36.737915,38.3823592 40.8901654,35.0965343 L41.2889058,34.7739894 L42.3604897,36.0700871 C37.8417098,39.8061108 32.1728038,41.8847407 26.1866837,41.8847407 C20.6431679,41.8847407 15.3705657,40.1023977 11.0296383,36.8683271 L11.0291764,42 L9.41473112,42 L9.41473112,33.6586993 L16.6797349,33.6586993 Z M26.4748683,1.54330079 C27.3592256,1.54330079 28.1168588,2.14235965 28.3288749,2.98686624 L28.3605404,3.13837274 L28.7221761,5.28235608 C29.3266245,5.46317396 29.9145409,5.69358759 30.482619,5.96698421 L30.9049062,6.17998767 L32.7001693,4.901347 C33.0230584,4.66886687 33.4040675,4.54616903 33.8044499,4.54616903 C34.2579297,4.54616903 34.6858972,4.70434481 35.0293909,4.99348332 L35.1541262,5.10799599 L37.078545,7.03241478 C37.7045699,7.65236177 37.8157599,8.60981162 37.3744278,9.35560714 L37.285194,9.4928294 L36.0065533,11.2816348 C36.2906957,11.8189222 36.5335082,12.3768745 36.734991,12.9521853 L36.8783538,13.3868714 L39.0481682,13.754965 C39.9203274,13.9013413 40.5678396,14.6179757 40.6263675,15.4859748 L40.6305077,15.6406371 L40.6305077,18.3593629 C40.6305077,19.2437202 40.0312855,20.0013535 39.1867608,20.2133695 L39.0352527,20.245035 L36.8654382,20.6066708 C36.6897865,21.185288 36.4645391,21.7515062 36.1996151,22.3020192 L35.9936377,22.7119074 L37.2722784,24.5071706 C37.782823,25.2243642 37.7327696,26.1875344 37.1759572,26.8475241 L37.0656294,26.9675852 L35.1412106,28.892004 C34.8197566,29.213458 34.4064586,29.4073509 33.9602782,29.4464696 L33.7915344,29.453831 L33.6208833,29.4463565 C33.3382847,29.4215044 33.0660412,29.3349927 32.8229801,29.1915283 L32.680796,29.098653 L30.8919906,27.8200123 C30.3547032,28.1041547 29.7967509,28.3469673 29.2214401,28.54845 L28.786754,28.6918128 L28.4186604,30.8616273 C28.2722841,31.7337865 27.5556497,32.3812986 26.6876506,32.4505526 L26.5329883,32.4566992 L23.8078047,32.4566992 C22.9234474,32.4566992 22.1658142,31.8576403 21.9537981,31.0131338 L21.9221326,30.8616273 L21.5604968,28.6918128 C20.9973783,28.5161611 20.4466587,28.3033127 19.9149509,28.049961 L19.519838,27.8523012 L17.7052015,29.1438575 C17.3823124,29.3763376 17.0013033,29.4990354 16.6009209,29.4990354 C16.1474412,29.4990354 15.7194736,29.3408597 15.3759799,29.0517211 L15.2512446,28.9372085 L13.3268259,27.0127897 C12.700801,26.3928427 12.5896109,25.4353928 13.030943,24.6895973 L13.1201769,24.5523751 L14.3923598,22.782943 C14.1030512,22.2456556 13.8550724,21.6877033 13.6517297,21.1156989 L13.5076437,20.6841642 L11.3119981,20.3096128 C10.4398389,20.1632365 9.79232677,19.4466021 9.72307282,18.5786031 L9.71692619,18.4239407 L9.71692619,15.7052149 C9.71692619,14.8208576 10.3159851,14.0632244 11.1604916,13.8512083 L11.3119981,13.8195428 L13.4559815,13.457907 C13.6316331,12.8741236 13.8486146,12.3068721 14.1102322,11.7561525 L14.3148664,11.3462126 L13.0233101,9.53157609 C12.5127656,8.81438251 12.562819,7.85121227 13.1196314,7.19122257 L13.2299591,7.07116147 L15.1608357,5.14674268 C15.5160137,4.78510694 16.0003473,4.58491572 16.510512,4.58491572 C16.8536969,4.58491572 17.1873929,4.67506107 17.4790662,4.84721836 L17.6212503,4.94009368 L19.3971402,6.21873435 C19.9344275,5.92942576 20.4923798,5.68144696 21.0643843,5.47810435 L21.495919,5.33401833 L21.8704703,3.13837274 C22.0168467,2.26621352 22.733481,1.61870137 23.6014801,1.54944742 L23.7561424,1.54330079 L26.4748683,1.54330079 Z M26.4877839,3.28044393 L23.769058,3.28044393 C23.7018971,3.28044393 23.6430021,3.31764074 23.6155178,3.37550246 L23.6011557,3.42251511 L23.1361954,6.15415654 C23.0780754,6.48996116 22.8262219,6.76118797 22.4968751,6.85159691 C21.5475813,7.09699259 20.6370341,7.48445946 19.7975226,7.98816639 C19.5375969,8.14073147 19.2183403,8.14991363 18.9522343,8.01571286 L18.841771,7.9494197 L16.6138365,6.36080554 C16.5880053,6.3414322 16.5557164,6.32851663 16.5169698,6.32851663 C16.4954438,6.32851663 16.4681776,6.33138676 16.438998,6.34669409 L16.3942719,6.38017888 L14.4698531,8.30459767 C14.4233571,8.35109369 14.4099249,8.4223876 14.4295566,8.48210916 L14.4504798,8.52416223 L16.0584673,10.7843856 C16.2586585,11.0620702 16.2780318,11.4301637 16.1036718,11.7272217 C15.6064226,12.573191 15.2383291,13.4901959 14.9993912,14.4394898 C14.9247679,14.7379828 14.6970714,14.970144 14.4070116,15.0588698 L14.295493,15.0852679 L11.6025983,15.5373126 C11.5354374,15.547645 11.4848084,15.5951743 11.4672432,15.6567557 L11.4605271,15.7052149 L11.4605271,18.4239407 C11.4605271,18.4911017 11.4977239,18.5499966 11.5555856,18.577481 L11.6025983,18.5918431 L14.3342397,19.0568033 C14.6700443,19.1149233 14.9412711,19.3667768 15.0316801,19.6961236 C15.2770758,20.6454175 15.6645426,21.5559646 16.1682496,22.3954762 C16.3208146,22.6554019 16.3299968,22.9746584 16.195796,23.2407644 L16.1295029,23.3512278 L14.5408887,25.5791623 C14.5047251,25.6359907 14.5016254,25.7052182 14.5315895,25.7603934 L14.5602621,25.7987268 L16.4846808,27.7231456 C16.5298853,27.7683501 16.5815476,27.7748079 16.6073787,27.7748079 L16.655812,27.7659284 L16.655812,27.7659284 L16.7042454,27.742519 L18.9644688,26.1345315 C19.1129978,26.0247492 19.2938157,25.9730869 19.4681757,25.9730869 C19.6167047,25.9730869 19.7716915,26.0118336 19.9073049,26.089327 C20.7403586,26.5672028 21.6315324,26.9352963 22.5549951,27.1742342 C22.8477479,27.2488575 23.0792713,27.4714516 23.1679263,27.7603775 L23.1943155,27.8716746 L23.6463602,30.5839427 C23.6566926,30.6511036 23.7042219,30.7017326 23.7658033,30.7192978 L23.8142625,30.7260139 L26.5329883,30.7260139 C26.6001493,30.7260139 26.6590442,30.688817 26.6865285,30.6309553 L26.7008906,30.5839427 L27.1593931,27.8716746 C27.2110554,27.53587 27.4629088,27.2581854 27.7987134,27.1742342 C28.7480073,26.9288385 29.6585544,26.5542872 30.5045237,26.0505803 C30.7644494,25.8980152 31.083706,25.8888331 31.3454858,26.0230338 L31.4538176,26.089327 L33.6946676,27.6843989 C33.7204988,27.7037723 33.7527877,27.7166878 33.7915344,27.7166878 C33.8130603,27.7166878 33.8403265,27.7138177 33.8695061,27.6985104 L33.9142322,27.6650256 L35.838651,25.7406068 C35.885147,25.6941108 35.8985792,25.6228169 35.8789475,25.5630953 L35.8580243,25.5210422 L34.2629524,23.2737344 C34.0627612,22.989592 34.0498456,22.6214985 34.2242057,22.3244406 C34.7279126,21.4784712 35.1024639,20.5679241 35.3478596,19.6186303 C35.4224829,19.3258775 35.645077,19.0943541 35.9340029,19.0056991 L36.0453,18.9793099 L38.7575681,18.5272652 C38.824729,18.5169328 38.875358,18.4694035 38.8929232,18.4078221 L38.8996393,18.3593629 L38.906097,18.3593629 L38.906097,15.6406371 C38.906097,15.5734761 38.8689002,15.5145812 38.8110385,15.4870969 L38.7640258,15.4727348 L36.0517578,15.0142323 C35.7159531,14.96257 35.4382686,14.7107166 35.3543174,14.374912 C35.1089217,13.4256181 34.7343704,12.515071 34.2306635,11.6691017 C34.0780984,11.409176 34.0689162,11.0899194 34.203117,10.8281396 L34.2694102,10.7198078 L35.8644821,8.47895776 C35.9006457,8.42212928 35.9037454,8.35290187 35.8737813,8.29772659 L35.8451088,8.2593932 L33.92069,6.33497441 C33.8754855,6.28976995 33.8238233,6.28331216 33.7979921,6.28331216 L33.7495588,6.29219161 L33.7495588,6.29219161 L33.7011254,6.31560107 L31.4731909,7.9171308 C31.1890485,8.11732201 30.820955,8.13023758 30.5238971,7.95587749 C29.6585544,7.44571277 28.7286339,7.06470368 27.753509,6.819308 C27.455016,6.74468475 27.2228548,6.51698817 27.1341289,6.22692838 L27.1077309,6.11540985 L26.6556862,3.42251511 C26.6427706,3.33856396 26.571735,3.28044393 26.4877839,3.28044393 Z M25.1768543,10.3258832 C28.8577895,10.3258832 31.8477422,13.3158358 31.8477422,16.9967711 C31.8477422,20.6777064 28.8577895,23.667659 25.1768543,23.667659 C21.495919,23.667659 18.5059664,20.6777064 18.5059664,16.9967711 C18.5059664,13.3158358 21.495919,10.3258832 25.1768543,10.3258832 Z M25.1768543,12.0694841 C22.4581284,12.0694841 20.2495673,14.2780452 20.2495673,16.9967711 C20.2495673,19.715497 22.4581284,21.9240581 25.1768543,21.9240581 C27.8955802,21.9240581 30.1041413,19.715497 30.1041413,16.9967711 C30.1041413,14.2780452 27.8955802,12.0694841 25.1768543,12.0694841 Z M41.9457586,-8 L41.9457586,0.341300665 L34.6807548,0.341300665 L34.6807548,-1.27314462 L39.6505825,-1.2736833 C35.5366105,-4.44916577 30.4905395,-6.20302683 25.173806,-6.20302683 C19.757226,-6.20302683 14.6225747,-4.38235917 10.4703243,-1.09653433 L10.0715839,-0.773989361 L9,-2.0700871 C13.5187799,-5.80611077 19.1876859,-7.88474067 25.173806,-7.88474067 C30.7173218,-7.88474067 35.989924,-6.10239767 40.3308514,-2.86832709 L40.3313133,-8 L41.9457586,-8 Z" id="DevOps" transform="translate(25.680245, 17.000000) rotate(90.000000) translate(-25.680245, -17.000000) "></path>
                            </g>
                        </g>
                    </g>
                </g>
            </g>
        </g>
    </g>
</svg>