<?xml version="1.0" encoding="UTF-8"?>
<svg width="31px" height="51px" viewBox="0 0 31 51" version="1.1" xmlns="http://www.w3.org/2000/svg" xmlns:xlink="http://www.w3.org/1999/xlink">
    <!-- Generator: Sketch 62 (91390) - https://sketch.com -->
    <title>Mobility</title>
    <desc>Created with Sketch.</desc>
    <g id="Menu" stroke="none" stroke-width="1" fill="none" fill-rule="evenodd">
        <g transform="translate(-852.000000, -674.000000)" fill="#000000" fill-rule="nonzero" id="Enabling-02">
            <g transform="translate(801.000000, 0.000000)">
                <g id="Enabling">
                    <g id="Group-7" transform="translate(35.595782, 121.000000)">
                        <g id="Group" transform="translate(0.000000, 232.000000)">
                            <g id="Group-3" transform="translate(14.539046, 321.083700)">
                                <g id="Group-29" transform="translate(0.865171, 0.215686)">
                                    <path d="M25,1.45519152e-11 C28.3137085,1.45519152e-11 31,2.6862915 31,6 L31,44.1915468 C31,47.5052553 28.3137085,50.1915468 25,50.1915468 L6,50.1915468 C2.6862915,50.1915468 0,47.5052553 0,44.1915468 L0,6 C0,2.6862915 2.6862915,1.45519152e-11 6,1.45519152e-11 L25,1.45519152e-11 Z M25,1.6 L6,1.6 C3.64141924,1.6 1.71627726,3.45577197 1.60507391,5.78681603 L1.6,6 L1.6,44.1915468 C1.6,46.5501275 3.45577197,48.4752695 5.78681603,48.5864729 L6,48.5915468 L25,48.5915468 C27.3585808,48.5915468 29.2837227,46.7357748 29.3949261,44.4047308 L29.4,44.1915468 L29.4,6 C29.4,3.64141924 27.544228,1.71627726 25.213184,1.60507391 L25,1.6 Z M15.5,41.4212341 C16.9188671,41.4212341 18.0690862,42.5714531 18.0690862,43.9903203 C18.0690862,45.4091874 16.9188671,46.5594065 15.5,46.5594065 C14.0811329,46.5594065 12.9309138,45.4091874 12.9309138,43.9903203 C12.9309138,42.5714531 14.0811329,41.4212341 15.5,41.4212341 Z M26.7601874,8.09128026 L26.7601874,39.8495789 L4.05151575,39.8495789 L4.05151575,8.09128026 L26.7601874,8.09128026 Z M25.16,9.691 L5.651,9.691 L5.651,38.249 L25.16,38.249 L25.16,9.691 Z M20.799409,15.0502112 L21.9694139,15.8190341 L10.3470452,33.5061091 L9.17704034,32.7372863 L20.799409,15.0502112 Z M20,4.51962512 C20.5522847,4.51962512 21,4.96734037 21,5.51962512 C21,6.07190987 20.5522847,6.51962512 20,6.51962512 L12,6.51962512 C11.4477153,6.51962512 11,6.07190987 11,5.51962512 C11,4.96734037 11.4477153,4.51962512 12,4.51962512 L20,4.51962512 Z" id="Mobility"></path>
                                </g>
                            </g>
                        </g>
                    </g>
                </g>
            </g>
        </g>
    </g>
</svg>