<svg height="48" viewBox="0 0 41 48" width="41" xmlns="http://www.w3.org/2000/svg"><g fill="none" fill-rule="evenodd"><path d="m-319-730h1440v3753h-1440z" fill="#fff"/><path d="m40.2900391 47.5390625c0 3.0807446-1.0833225 5.6917211-3.25 7.8330078-2.1666775 2.1412868-4.7649588 3.2119141-7.7949219 3.2119141-3.0807446 0-5.6959528-1.0790908-7.8457031-3.2373047-2.1497504-2.1582139-3.2246094-4.760727-3.2246094-7.8076172v-25.3652344c0-3.0807445 1.0833225-5.6959528 3.25-7.8457031s4.7734223-3.2246094 7.8203125-3.2246094c3.0807446 0 5.6917211 1.0833225 7.8330078 3.25s3.2119141 4.7734223 3.2119141 7.8203125zm-7.2363282-25.5175781c0-1.1002659-.3935507-2.0439414-1.180664-2.8310547s-1.7392523-1.1806641-2.8564453-1.1806641c-1.100266 0-2.0397097.3935508-2.8183594 1.1806641s-1.1679688 1.7307888-1.1679688 2.8310547v25.4160156c0 1.1002659.3893191 2.0439414 1.1679688 2.8310547s1.7180934 1.1806641 2.8183594 1.1806641c1.117193 0 2.069332-.3935508 2.8564453-1.1806641s1.180664-1.7307888 1.180664-2.8310547zm18.7636719 35.9785156v-35.6484375h-5.890625v-4.875c1.6588625-.1861988 3.2457607-.8167264 4.7607422-1.8916016 1.5149815-1.0748751 2.6109992-2.3740158 3.2880859-3.8974609h4.875v46.3125z" fill="#676ea5" transform="translate(-18 -11)"/></g></svg>