<svg height="48" viewBox="0 0 52 48" width="52" xmlns="http://www.w3.org/2000/svg"><g fill="none" fill-rule="evenodd"><path d="m-567-1068h1440v3753h-1440z" fill="#fff"/><path d="m34.9277344 186.539062c0 3.080745-1.0833225 5.691722-3.25 7.833008-2.1666775 2.141287-4.7649588 3.211914-7.7949219 3.211914-3.0807446 0-5.6959528-1.07909-7.8457031-3.237304-2.1497504-2.158214-3.2246094-4.760727-3.2246094-7.807618v-25.365234c0-3.080744 1.0833225-5.695953 3.25-7.845703s4.7734223-3.224609 7.8203125-3.224609c3.0807446 0 5.6917211 1.083322 7.8330078 3.25 2.1412868 2.166677 3.2119141 4.773422 3.2119141 7.820312zm-7.2363282-25.517578c0-1.100266-.3935507-2.043941-1.180664-2.831054-.7871133-.787114-1.7392522-1.180664-2.8564453-1.180664-1.1002659 0-2.0397097.39355-2.8183594 1.180664-.7786497.787113-1.1679687 1.730788-1.1679687 2.831054v25.416016c0 1.100266.389319 2.043941 1.1679687 2.831055.7786497.787113 1.7180935 1.180664 2.8183594 1.180664 1.1171931 0 2.069332-.393551 2.8564453-1.180664.7871133-.787114 1.180664-1.730789 1.180664-2.831055zm12.8730469 2.183594c0-4.384136 1.184884-7.735665 3.5546875-10.054687 2.0312602-2.031261 4.7141761-3.046875 8.0488282-3.046875 3.0468902 0 5.6494032 1.142566 7.8076171 3.427734 2.158214 2.285168 3.2373047 4.95962 3.2373047 8.023438 0 3.52085-.7024669 6.745428-2.1074218 9.673828-.7617226 1.625008-2.547512 4.417949-5.3574219 8.378906-.7617226 1.083339-1.8958258 2.767567-3.4023438 5.052734l-1.2695312 1.904297c-.8125041 1.235683-1.421873 2.208981-1.828125 2.919922-.203126.355471-.3046875.567057-.3046875.634766l13.7109375.02539v6.855469h-22.1914063v-6.398438c0-.152344.5162709-.99869 1.5488282-2.539062.4570335-.727868.9817678-1.523433 1.5742187-2.386719l1.8027344-2.640625c1.0664116-1.455736 2.7337126-3.783187 5.0019531-6.982422 2.1328232-2.996108 3.7324165-5.712878 4.7988281-8.15039.8632856-1.997406 1.2949219-4.045563 1.2949219-6.144532 0-1.404954-.3977825-2.598302-1.1933594-3.580078-.8632855-1.032557-1.9719984-1.548828-3.3261718-1.548828-1.9466244 0-3.3261679 1.12564-4.1386719 3.376953-.2708347.727869-.40625 1.608068-.40625 2.640625v1.777344h-6.8554688z" fill="#e4617d" transform="translate(-12 -150)"/></g></svg>