<svg height="48" viewBox="0 0 50 48" width="50" xmlns="http://www.w3.org/2000/svg"><g fill="none" fill-rule="evenodd"><path d="m-825-730h1440v3753h-1440z" fill="#fff"/><path d="m36.3466797 47.5390625c0 3.0807446-1.0833225 5.6917211-3.25 7.8330078-2.1666775 2.1412868-4.7649588 3.2119141-7.7949219 3.2119141-3.0807446 0-5.6959528-1.0790908-7.8457031-3.2373047s-3.2246094-4.760727-3.2246094-7.8076172v-25.3652344c0-3.0807445 1.0833225-5.6959528 3.25-7.8457031s4.7734223-3.2246094 7.8203125-3.2246094c3.0807446 0 5.6917211 1.0833225 7.8330078 3.25 2.1412868 2.1666775 3.2119141 4.7734223 3.2119141 7.8203125zm-7.2363281-25.5175781c0-1.1002659-.3935508-2.0439414-1.1806641-2.8310547s-1.7392522-1.1806641-2.8564453-1.1806641c-1.1002659 0-2.0397097.3935508-2.8183594 1.1806641s-1.1679687 1.7307888-1.1679687 2.8310547v25.4160156c0 1.1002659.389319 2.0439414 1.1679687 2.8310547s1.7180935 1.1806641 2.8183594 1.1806641c1.1171931 0 2.069332-.3935508 2.8564453-1.1806641s1.1806641-1.7307888 1.1806641-2.8310547zm22.8769531 29.4277344c3.1992347 0 4.7988281-1.4895685 4.7988281-4.46875v-2.7675782c0-4.7565342-2.4882564-7.1347656-7.4648437-7.1347656v-5.9921875c2.6914197 0 4.6803321-.7532477 5.9667968-2.2597656 1.1679746-1.3541735 1.7519532-3.2499878 1.7519532-5.6875v-1.1171875c0-3.0299631-1.3287628-4.5449219-3.9863282-4.5449219-1.4726636 0-2.5559861.5670516-3.25 1.7011719-.507815.8632855-.7617187 1.9889253-.7617187 3.3769531v1.21875h-6.8300781v-1.0917969c0-3.2838706.8378822-5.9667864 2.5136718-8.0488281 1.8958428-2.3528763 4.5618318-3.5292969 7.9980469-3.5292969 3.2838706 0 5.9075423 1.1087129 7.8710938 3.3261719 1.7773526 1.9804787 2.6660156 4.4602716 2.6660156 7.4394531v2.03125c0 2.8776186-.8632726 5.3574115-2.5898438 7.4394532-.7447954.8971399-1.608068 1.6503875-2.5898437 2.2597656 2.0651145 1.1510474 3.6647079 2.9114465 4.7988281 5.28125.5924509 1.2018289.8886719 2.666007.8886719 4.3925781v3.7070313c0 3.4192879-1.1679571 6.2291556-3.5039063 8.4296874-2.2343861 2.115896-4.9342289 3.1738282-8.0996093 3.1738282-3.0638174 0-5.6663305-1.0833225-7.8076172-3.25-2.1412868-2.1666775-3.2119141-4.7649588-3.2119141-7.7949219v-1.1425781l6.6269531-.5078125.1523438 1.625c.101563 1.1510474.5162724 2.0947229 1.2441406 2.8310547s1.667312 1.1044922 2.8183594 1.1044922z" fill="#53bbbb" transform="translate(-14 -11)"/></g></svg>