<svg height="48" viewBox="0 0 51 48" width="51" xmlns="http://www.w3.org/2000/svg"><g fill="none" fill-rule="evenodd"><path d="m-1075-1068h1440v3753h-1440z" fill="#fff"/><path d="m35.2753906 186.539062c0 3.080745-1.0833225 5.691722-3.25 7.833008-2.1666775 2.141287-4.7649588 3.211914-7.7949218 3.211914-3.0807446 0-5.6959528-1.07909-7.8457032-3.237304-2.1497503-2.158214-3.2246094-4.760727-3.2246094-7.807618v-25.365234c0-3.080744 1.0833226-5.695953 3.25-7.845703 2.1666775-2.14975 4.7734223-3.224609 7.8203126-3.224609 3.0807445 0 5.691721 1.083322 7.8330078 3.25 2.1412867 2.166677 3.211914 4.773422 3.211914 7.820312zm-7.2363281-25.517578c0-1.100266-.3935508-2.043941-1.1806641-2.831054-.7871133-.787114-1.7392522-1.180664-2.8564453-1.180664-1.1002659 0-2.0397096.39355-2.8183593 1.180664-.7786498.787113-1.1679688 1.730788-1.1679688 2.831054v25.416016c0 1.100266.389319 2.043941 1.1679688 2.831055.7786497.787113 1.7180934 1.180664 2.8183593 1.180664 1.1171931 0 2.069332-.393551 2.8564453-1.180664.7871133-.787114 1.1806641-1.730789 1.1806641-2.831055zm12.0351563 18.941407 12.3144531-29.275391h6.9824219v29.275391h4.46875v7.033203h-4.46875v10.003906h-6.9824219v-10.003906h-12.3144531zm12.3144531 0v-14.396485l-5.7636719 14.396485z" fill="#e3a44a" transform="translate(-13 -150)"/></g></svg>