<?xml version="1.0" encoding="UTF-8"?>
<svg width="91px" height="91px" viewBox="0 0 91 91" version="1.1" xmlns="http://www.w3.org/2000/svg" xmlns:xlink="http://www.w3.org/1999/xlink">
    <!-- Generator: Sketch 51 (57462) - http://www.bohemiancoding.com/sketch -->
    <title>Group 20</title>
    <desc>Created with Sketch.</desc>
    <defs></defs>
    <g id="Page-1" stroke="none" stroke-width="1" fill="none" fill-rule="evenodd">
        <g id="Large-Device-Desktops" transform="translate(-803.000000, -1230.000000)">
            <rect fill="#FFFFFF" x="0" y="0" width="1440" height="3753"></rect>
            <g id="Group-15" transform="translate(803.000000, 1230.000000)" fill-rule="nonzero">
                <g id="Group-20">
                    <circle id="Oval" fill="#FFDCE0" cx="45.3696836" cy="45.5790259" r="44.9030249"></circle>
                    <g id="database-(6)" transform="translate(8.000000, 10.000000)">
                        <path d="M56.6514059,1.31025743 L4.24269307,1.31025743 C2.62051485,1.31025743 1.24784158,2.68293069 1.24784158,4.30510891 L1.24784158,16.284198 C1.24784158,17.9063762 2.62051485,19.2790495 4.24269307,19.2790495 L56.6515644,19.2790495 C58.2737426,19.2790495 59.6464158,17.9063762 59.6464158,16.284198 L59.6464158,4.3049505 C59.6462574,2.68277228 58.2735842,1.31025743 56.6514059,1.31025743 Z" id="Shape" fill="#FFFFFF"></path>
                        <path d="M56.6514059,20.5267327 L4.24269307,20.5267327 C1.87168317,20.5267327 0,18.6550495 0,16.284198 L0,4.3049505 C0,1.93409901 1.87168317,0.0624158416 4.24269307,0.0624158416 L56.6515644,0.0624158416 C59.0224158,0.0624158416 60.8942574,1.93409901 60.8942574,4.30510891 L60.8942574,16.284198 C60.894099,18.6550495 59.0222574,20.5267327 56.6514059,20.5267327 Z M4.24269307,2.55809901 C3.24435644,2.55809901 2.49568317,3.30677228 2.49568317,4.30510891 L2.49568317,16.284198 C2.49568317,17.2825347 3.24435644,18.0312079 4.24269307,18.0312079 L56.6515644,18.0312079 C57.649901,18.0312079 58.3985743,17.2825347 58.3985743,16.284198 L58.3985743,4.3049505 C58.3985743,3.30661386 57.649901,2.55794059 56.6515644,2.55794059 L4.24269307,2.55794059 L4.24269307,2.55809901 Z" id="Shape" fill="#183651"></path>
                        <rect id="Rectangle-path" fill="#5194E2" x="5.24087129" y="5.30328713" width="50.4123564" height="9.98257426"></rect>
                        <circle id="Oval" stroke="#183651" stroke-width="2" fill="#FF84AE" cx="12.7279208" cy="10.2946535" r="3.2460198"></circle>
                        <circle id="Oval" stroke="#183651" stroke-width="2" fill="#FF84AE" cx="22.0883168" cy="10.2946535" r="3.2460198"></circle>
                        <circle id="Oval" stroke="#183651" stroke-width="2" fill="#FF84AE" cx="31.5735446" cy="10.2946535" r="3.2460198"></circle>
                        <path d="M56.6514059,19.2788911 L4.24269307,19.2788911 C2.62051485,19.2788911 1.24784158,20.6515644 1.24784158,22.2737426 L1.24784158,34.2528317 C1.24784158,35.8750099 2.62051485,37.2476832 4.24269307,37.2476832 L56.6515644,37.2476832 C58.2737426,37.2476832 59.6464158,35.8750099 59.6464158,34.2528317 L59.6464158,22.2737426 C59.6462574,20.6515644 58.2735842,19.2788911 56.6514059,19.2788911 Z" id="Shape" fill="#FFFFFF"></path>
                        <path d="M56.6514059,38.4955248 L4.24269307,38.4955248 C1.87168317,38.4955248 0,36.6238416 0,34.2529901 L0,22.273901 C0,19.9030495 1.87168317,18.0312079 4.24269307,18.0312079 L56.6515644,18.0312079 C59.0224158,18.0312079 60.8942574,19.9028911 60.8942574,22.273901 L60.8942574,34.2529901 C60.894099,36.6238416 59.0222574,38.4955248 56.6514059,38.4955248 Z M4.24269307,20.5267327 C3.24435644,20.5267327 2.49568317,21.2754059 2.49568317,22.2737426 L2.49568317,34.2528317 C2.49568317,35.2511683 3.24435644,35.9998416 4.24269307,35.9998416 L56.6515644,35.9998416 C57.649901,35.9998416 58.3985743,35.2511683 58.3985743,34.2528317 L58.3985743,22.2737426 C58.3985743,21.2754059 57.649901,20.5267327 56.6515644,20.5267327 L4.24269307,20.5267327 Z" id="Shape" fill="#183651"></path>
                        <rect id="Rectangle-path" fill="#5194E2" x="5.24087129" y="23.2720792" width="50.4123564" height="9.98257426"></rect>
                        <circle id="Oval" stroke="#183651" stroke-width="2" fill="#FF84AE" cx="12.7279208" cy="28.2632871" r="3.2460198"></circle>
                        <circle id="Oval" stroke="#183651" stroke-width="2" fill="#FF84AE" cx="22.0883168" cy="28.2632871" r="3.2460198"></circle>
                        <circle id="Oval" stroke="#183651" stroke-width="2" fill="#FF84AE" cx="31.5735446" cy="28.2632871" r="3.2460198"></circle>
                        <circle id="Oval" fill="#FFFFFF" cx="59.6462574" cy="19.2788911" r="6.73821782"></circle>
                        <g id="Group" transform="translate(50.851485, 11.247525)" fill="#183651">
                            <path d="M8.79477228,16.0175842 C4.42740594,16.0175842 0.808712871,12.3988911 0.808712871,8.03152475 C0.808712871,3.66415842 4.42740594,0.0454653465 8.79477228,0.0454653465 C13.1621386,0.0454653465 16.7808317,3.66415842 16.7808317,8.03152475 C16.7808317,12.3988911 13.1621386,16.0175842 8.79477228,16.0175842 Z M8.79477228,2.5409901 C5.79992079,2.5409901 3.30439604,5.03667327 3.30439604,8.03136634 C3.30439604,11.0260594 5.80007921,13.5217426 8.79477228,13.5217426 C11.7896238,13.5217426 14.2851485,11.0260594 14.2851485,8.03136634 C14.2851485,5.03667327 11.7896238,2.5409901 8.79477228,2.5409901 Z" id="Shape"></path>
                            <path d="M21.5226931,51.9550099 L19.9005149,51.9550099 L19.9005149,49.4593267 L21.5226931,49.4593267 C21.772198,49.4593267 22.0218614,49.4593267 22.2713663,49.4593267 L22.645703,51.9550099 C22.2713663,51.9550099 21.8970297,51.9550099 21.5226931,51.9550099 Z M17.529505,51.9550099 L15.0338218,51.9550099 L15.0338218,49.4593267 L17.529505,49.4593267 L17.529505,51.9550099 Z M12.538297,51.9550099 L10.0426139,51.9550099 L10.0426139,49.4593267 L12.538297,49.4593267 L12.538297,51.9550099 Z M7.54693069,51.9550099 L5.05124752,51.9550099 L5.05124752,49.4593267 L7.54693069,49.4593267 L7.54693069,51.9550099 Z M2.55556436,51.9550099 L0.0598811881,51.9550099 L0.0598811881,49.4593267 L2.55556436,49.4593267 L2.55556436,51.9550099 Z M25.3908911,50.9568317 L24.1430495,48.8354851 C24.7668911,48.4611485 25.2660594,48.0868119 25.640396,47.4628119 L27.6369109,48.9601584 C27.0130693,49.7089901 26.264396,50.3328317 25.3908911,50.9568317 Z M28.8847525,46.2149703 L26.3890693,45.715802 C26.513901,45.3414653 26.513901,44.9671287 26.513901,44.5927921 L26.513901,43.4697822 L29.0095842,43.4697822 L29.0095842,44.5927921 C29.0095842,45.0919604 29.0095842,45.5911287 28.8847525,46.2149703 Z M29.0095842,40.974099 L26.513901,40.974099 L26.513901,38.4784158 L29.0095842,38.4784158 L29.0095842,40.974099 Z M29.0095842,35.9828911 L26.513901,35.9828911 L26.513901,33.4872079 L29.0095842,33.4872079 L29.0095842,35.9828911 Z M29.0095842,30.9915248 L26.513901,30.9915248 L26.513901,28.4958416 L29.0095842,28.4958416 L29.0095842,30.9915248 Z M29.0095842,26.0001584 L26.513901,26.0001584 L26.513901,23.5044752 L29.0095842,23.5044752 L29.0095842,26.0001584 Z M29.0095842,21.0087921 L26.513901,21.0087921 L26.513901,18.5131089 L29.0095842,18.5131089 L29.0095842,21.0087921 Z M29.0095842,16.0175842 L26.513901,16.0175842 L26.513901,14.3954059 C26.513901,14.145901 26.513901,13.8962376 26.513901,13.7715644 L29.0095842,13.3972277 C29.0095842,13.7715644 29.1344158,14.0210693 29.1344158,14.3955644 L29.1344158,16.0177426 L29.0095842,16.0177426 L29.0095842,16.0175842 Z M25.8900594,11.7748911 C25.5157228,11.1510495 25.1413861,10.6518812 24.5173861,10.2775446 L26.0147327,8.2810297 C26.7634059,8.90487129 27.5120792,9.65370297 28.0112475,10.5270495 L25.8900594,11.7748911 Z M22.7703762,9.4040396 C22.3960396,9.27920792 22.021703,9.27920792 21.6473663,9.27920792 L20.6490297,9.27920792 L20.6490297,6.78352475 L21.6473663,6.78352475 C22.2712079,6.78352475 22.7703762,6.90835644 23.3943762,7.0330297 L22.7703762,9.4040396 Z M18.0286733,9.27920792 L15.5329901,9.27920792 L15.5329901,6.78352475 L18.0286733,6.78352475 L18.0286733,9.27920792 Z" id="Shape"></path>
                        </g>
                        <polygon id="Shape" fill="#FFFFFF" points="49.5388515 57.2129901 40.9287921 61.9546931 49.5388515 66.8212277"></polygon>
                        <path d="M48.9148515,67.9442376 L40.3047921,63.077703 C39.9304554,62.828198 39.6809505,62.4538614 39.6809505,61.9546931 C39.6809505,61.4555248 39.9304554,61.0811881 40.3047921,60.8316832 L48.9148515,55.9651485 C49.2891881,55.7156436 49.7883564,55.7156436 50.1626931,55.9651485 C50.5370297,56.2146535 50.7865347,56.5889901 50.7865347,57.0881584 L50.7865347,66.8212277 C50.7865347,67.320396 50.5370297,67.6947327 50.1626931,67.9442376 C49.7883564,68.193901 49.2891881,68.193901 48.9148515,67.9442376 Z M43.5493069,61.9546931 L48.2910099,64.6998812 L48.2910099,59.3341782 L43.5493069,61.9546931 Z" id="Shape" fill="#183651"></path>
                        <path d="M34.6895842,63.8265347 L34.6895842,60.2078416 L31.8195644,59.833505 C31.6947327,58.8351683 31.4452277,57.9618218 31.0708911,57.0883168 L33.3169109,55.3413069 L31.569901,52.2217822 L28.8247129,53.0952871 C28.2008713,52.3466139 27.5768713,51.7226139 26.828198,51.0987723 L27.8265347,48.4782574 L24.7070099,46.7312475 L22.96,48.9772673 C22.086495,48.6029307 21.0883168,48.3534257 20.2148119,48.2285941 L19.7156436,45.3585743 L16.0969505,45.3585743 L15.7226139,48.1037624 C14.7242772,48.2285941 13.8509307,48.478099 12.9774257,48.8524356 L11.2304158,46.6064158 L8.11089109,48.478099 L9.10922772,51.0986139 C8.36055446,51.7224554 7.73655446,52.3464554 7.11271287,53.0951287 L4.36752475,52.0967921 L2.62051485,55.2163168 L4.86653465,56.9633267 C4.49219802,57.8368317 4.24269307,58.8350099 4.11786139,59.7085149 L1.24784158,60.2076832 L1.24784158,63.8263762 L4.11786139,64.3255446 C4.24269307,65.3238812 4.49219802,66.1972277 4.86653465,67.0707327 L2.62051485,68.8177426 L4.36752475,71.9372673 L6.9880396,70.9389307 C7.61188119,71.687604 8.23588119,72.311604 8.98455446,72.9354455 L8.11089109,75.5561188 L11.2304158,77.3031287 L12.9774257,75.0571089 C13.8509307,75.4314455 14.8491089,75.6809505 15.7226139,75.8057822 L16.2217822,78.675802 L19.8404752,78.675802 L20.3396436,75.8057822 C21.3379802,75.6809505 22.2113267,75.4314455 23.0848317,75.0571089 L24.8318416,77.3031287 L27.9513663,75.5561188 L26.8283564,72.935604 C27.5770297,72.3117624 28.2010297,71.6877624 28.8248713,70.9390891 L31.4453861,71.9374257 L33.192396,68.817901 L30.9463762,67.0708911 C31.3207129,66.1973861 31.5702178,65.1992079 31.6950495,64.325703 L34.6895842,63.8265347 Z" id="Shape" fill="#FFFFFF"></path>
                        <path d="M19.7156436,79.9234851 L16.0969505,79.9234851 C15.4731089,79.9234851 14.9739406,79.4243168 14.8491089,78.9251485 L14.599604,76.9286337 C14.2252673,76.803802 13.726099,76.6791287 13.3517624,76.554297 L12.1039208,78.0516436 C11.7295842,78.5508119 10.9809109,78.6754851 10.4817426,78.3011485 L7.36221782,76.5541386 C6.8630495,76.3046337 6.73837624,75.6806337 6.8630495,75.1814653 L7.61172277,73.3097822 C7.23738614,73.0602772 6.98788119,72.6859406 6.73821782,72.4362772 L4.86653465,73.0601188 C4.24269307,73.3096238 3.61869307,73.0601188 3.36918812,72.5609505 L1.62217822,69.4417426 C1.37267327,68.9425743 1.49734653,68.193901 1.87168317,67.8195644 L3.3690297,66.5717228 C3.24419802,66.1973861 3.11952475,65.6982178 2.99469307,65.3238812 L0.998178218,65.0743762 C0.374336634,64.9495446 0,64.4503762 0,63.8265347 L0,60.2078416 C0,59.584 0.499168317,59.0848317 0.998336634,58.96 L2.99485149,58.710495 C3.11968317,58.3361584 3.24435644,57.8369901 3.36918812,57.4626535 L1.87184158,56.2148119 C1.37267327,55.8404752 1.248,55.091802 1.62233663,54.5926337 L3.36934653,51.4731089 C3.61885149,50.9739406 4.36768317,50.7244356 4.86669307,50.9739406 L6.73837624,51.7226139 C6.98788119,51.3482772 7.36221782,51.0987723 7.61188119,50.8491089 L6.86320792,48.8525941 C6.61370297,48.2287525 6.86320792,47.6047525 7.36237624,47.3552475 L10.481901,45.6082376 C10.9810693,45.3587327 11.7297426,45.4834059 12.1040792,45.8577426 L13.3519208,47.3550891 C13.7262574,47.2302574 14.2254257,47.1055842 14.5997624,46.9807525 L14.8492673,44.9842376 C14.974099,44.360396 15.4731089,43.985901 16.0971089,43.985901 L19.715802,43.985901 C20.3396436,43.985901 20.8388119,44.4850693 20.9636436,44.9842376 L21.2131485,46.9807525 C21.5874851,47.1055842 22.0866535,47.2302574 22.4609901,47.3550891 L23.7088317,45.8577426 C24.0831683,45.3585743 24.8318416,45.233901 25.3310099,45.6082376 L28.4505347,47.3552475 C28.949703,47.6047525 29.1992079,48.3535842 28.949703,48.8525941 L28.2010297,50.7242772 C28.5753663,50.9737822 28.8248713,51.3481188 29.0745347,51.5977822 L30.9462178,50.8491089 C31.5700594,50.599604 32.1940594,50.8491089 32.4435644,51.3482772 L34.1905743,54.467802 C34.4400792,54.9669703 34.3154059,55.7156436 33.9410693,56.0899802 L32.4437228,57.3378218 C32.5685545,57.7121584 32.6932277,58.2113267 32.8180594,58.5856634 L34.8145743,58.8351683 C35.4384158,58.96 35.8129109,59.4590099 35.8129109,60.0830099 L35.8129109,63.701703 C35.8129109,64.3255446 35.3137426,64.8247129 34.8145743,64.9495446 L32.8180594,65.1990495 C32.6932277,65.5733861 32.5685545,66.0725545 32.4437228,66.4468911 L33.9410693,67.6947327 C34.4402376,68.0690693 34.5649109,68.8177426 34.1905743,69.3169109 L32.4435644,72.4364356 C32.1940594,72.935604 31.4452277,73.1851089 30.9462178,72.935604 L29.0745347,72.1869307 C28.8250297,72.5612673 28.4506931,72.8107723 28.2010297,73.0604356 L28.949703,74.9321188 C29.1992079,75.5559604 28.949703,76.1799604 28.4505347,76.4294653 L25.3310099,78.1764752 C24.8318416,78.4259802 24.0831683,78.3013069 23.7088317,77.9269703 L22.4609901,76.4296238 C22.0866535,76.5544554 21.5874851,76.6791287 21.2131485,76.8039604 L20.9636436,78.8004752 C20.8388119,79.5491485 20.3396436,79.9234851 19.7156436,79.9234851 Z M17.2201188,77.427802 L18.5927921,77.427802 L18.842297,75.6807921 C18.9671287,75.1816238 19.3414653,74.6824554 19.8406337,74.6824554 C20.7141386,74.5576238 21.5876436,74.3081188 22.3363168,74.0586139 C22.8354851,73.8091089 23.4593267,74.0586139 23.7089901,74.4329505 L24.832,75.8056238 L26.0798416,75.0569505 L25.456,73.4347723 C25.206495,72.935604 25.456,72.3117624 25.8303366,72.062099 C26.4541782,71.5629307 27.0781782,70.9390891 27.7020198,70.1904158 C28.0763564,69.8160792 28.5755248,69.5665743 29.0746931,69.8160792 L30.6968713,70.4399208 L31.4455446,69.1920792 L30.0728713,68.0690693 C29.6985347,67.6947327 29.4490297,67.1955644 29.6985347,66.696396 C30.0728713,65.8228911 30.197703,65.0742178 30.3223762,64.2007129 C30.4472079,63.7015446 30.8215446,63.2023762 31.3207129,63.2023762 L33.0677228,62.9528713 L33.0677228,61.580198 L31.3207129,61.3306931 C30.8215446,61.2058614 30.3223762,60.8315248 30.3223762,60.3323564 C30.1975446,59.4588515 29.9480396,58.5853465 29.6985347,57.8366733 C29.4490297,57.337505 29.6985347,56.7136634 30.0728713,56.464 L31.4455446,55.3409901 L30.6968713,54.0931485 L29.324198,54.3426535 C28.8250297,54.5921584 28.2011881,54.3426535 27.9515248,53.9683168 C27.4523564,53.3444752 26.8285149,52.7204752 26.0798416,52.0966337 C25.705505,51.722297 25.456,51.2231287 25.705505,50.7239604 L26.3293465,49.1017822 L25.081505,48.3531089 L23.958495,49.7257822 C23.5841584,50.1001188 23.0849901,50.3496238 22.5858218,50.1001188 C21.7123168,49.7257822 20.9636436,49.6009505 20.0901386,49.4762772 C19.5909703,49.3514455 19.091802,48.9771089 19.091802,48.4779406 L18.842297,46.7309307 L17.4696238,46.7309307 L17.2201188,48.4779406 C16.8457822,48.8522772 16.4714455,49.3514455 15.9722772,49.3514455 C15.0987723,49.4762772 14.2252673,49.7257822 13.4765941,49.9752871 C12.9774257,50.2247921 12.3535842,49.9752871 12.1039208,49.6009505 L10.9809109,48.2282772 L9.73306931,48.9769505 L10.3569109,50.5991287 C10.6064158,51.098297 10.3569109,51.7221386 9.98257426,51.971802 C9.35873267,52.4709703 8.73473267,53.0948119 8.11089109,53.8434851 C7.73655446,54.3426535 7.11255446,54.4673267 6.61354455,54.3426535 L4.99136634,53.7188119 L4.24269307,54.9666535 L5.61536634,56.0896634 C5.98970297,56.464 6.23920792,56.9631683 5.98970297,57.4623366 C5.61536634,58.3358416 5.49053465,59.0845149 5.36586139,59.9580198 C5.2410297,60.4571881 4.86669307,60.9563564 4.36752475,60.9563564 L2.62051485,61.2058614 L2.62051485,62.5785347 L4.36752475,62.8280396 C4.86669307,62.9528713 5.36586139,63.3272079 5.36586139,63.8263762 C5.49069307,64.6998812 5.74019802,65.5733861 5.98970297,66.3220594 C6.23920792,66.8212277 5.98970297,67.4450693 5.61536634,67.6947327 L4.24269307,68.8177426 L4.99136634,70.0655842 L6.61354455,69.4417426 C7.11271287,69.1922376 7.73655446,69.4417426 7.98621782,69.8160792 C8.48538614,70.4399208 9.10922772,71.0639208 9.85790099,71.6877624 C10.2322376,72.062099 10.4817426,72.5612673 10.2322376,73.0604356 L9.60839604,74.6826139 L10.8562376,75.4312871 L11.9792475,74.0586139 C12.3535842,73.6842772 12.8527525,73.4347723 13.3519208,73.6842772 C14.2254257,74.0586139 14.974099,74.1834455 15.847604,74.3081188 C16.3467723,74.4329505 16.8459406,74.8072871 16.8459406,75.3064554 L17.2201188,77.427802 Z" id="Shape" fill="#183651"></path>
                        <circle id="Oval" fill="#F05F50" cx="17.9687921" cy="61.9546931" r="9.73306931"></circle>
                        <circle id="Oval" fill="#FFFFFF" cx="17.9687921" cy="61.9546931" r="3.9930297"></circle>
                        <path d="M17.9687921,67.320396 C15.0987723,67.320396 12.7279208,64.9495446 12.7279208,62.0795248 C12.7279208,59.209505 15.0987723,56.8386535 17.9687921,56.8386535 C20.8388119,56.8386535 23.2096634,59.209505 23.2096634,62.0795248 C23.2096634,64.9495446 20.8388119,67.320396 17.9687921,67.320396 Z M17.9687921,59.209505 C16.4714455,59.209505 15.223604,60.4573465 15.223604,61.9546931 C15.223604,63.4520396 16.4714455,64.6998812 17.9687921,64.6998812 C19.4661386,64.6998812 20.7139802,63.4520396 20.7139802,61.9546931 C20.7139802,60.4573465 19.4661386,59.209505 17.9687921,59.209505 Z" id="Shape" fill="#183651"></path>
                    </g>
                </g>
            </g>
        </g>
    </g>
</svg>