<?xml version="1.0" encoding="UTF-8"?>
<svg width="91px" height="91px" viewBox="0 0 91 91" version="1.1" xmlns="http://www.w3.org/2000/svg" xmlns:xlink="http://www.w3.org/1999/xlink">
    <!-- Generator: Sketch 51 (57462) - http://www.bohemiancoding.com/sketch -->
    <title>Group 22</title>
    <desc>Created with Sketch.</desc>
    <defs></defs>
    <g id="Page-1" stroke="none" stroke-width="1" fill="none" fill-rule="evenodd">
        <g id="Large-Device-Desktops" transform="translate(-247.000000, -1718.000000)">
            <rect fill="#FFFFFF" x="0" y="0" width="1440" height="3753"></rect>
            <g id="Group-15" transform="translate(247.000000, 1718.000000)" fill-rule="nonzero">
                <g id="Group-22">
                    <circle id="Oval" fill="#CFFAFA" cx="45.5266549" cy="45.5266549" r="44.9204292"></circle>
                    <g id="server-(2)" transform="translate(13.000000, 13.000000)">
                        <path d="M65.9063362,17.9744681 L65.9063362,5.99153617 C65.9063362,2.68704255 63.2192936,0 59.9149404,0 L5.99153617,0 C2.68704255,0 0,2.68704255 0,5.99153617 L0,17.9744681 C0,19.772617 0.812221277,21.3691149 2.07001277,22.4680851 C0.812221277,23.5670553 0,25.1635532 0,26.9617021 L0,38.944634 C0,40.742783 0.812221277,42.3392809 2.07001277,43.4382511 C0.812221277,44.5372213 0,46.1338596 0,47.9318681 L0,59.9148 C0,63.2191532 2.68704255,65.9063362 5.99153617,65.9063362 L59.9149404,65.9063362 C63.2192936,65.9063362 65.9064766,63.2192936 65.9064766,59.9148 L65.9064766,47.9318681 C65.9064766,46.1337191 65.0942553,44.5372213 63.8364638,43.4382511 C65.0942553,42.3392809 65.9064766,40.742783 65.9064766,38.944634 L65.9064766,26.9617021 C65.9064766,25.1635532 65.0942553,23.5670553 63.8364638,22.4680851 C65.0941149,21.3691149 65.9063362,19.772617 65.9063362,17.9744681 Z" id="Shape" fill="#183651"></path>
                        <g id="Group" transform="translate(2.948936, 2.948936)" fill="#BDDCFF">
                            <path d="M59.9617021,44.9829319 L59.9617021,56.9658638 C59.9617021,58.6172681 58.6174085,59.9615617 56.9660043,59.9615617 L3.0426,59.9615617 C1.39119574,59.9615617 0.0469021277,58.6172681 0.0469021277,56.9658638 L0.0469021277,44.9829319 C0.0469021277,43.3315277 1.39119574,41.987234 3.0426,41.987234 L56.9660043,41.987234 C58.6174085,41.987234 59.9617021,43.3315277 59.9617021,44.9829319 Z" id="Shape"></path>
                            <path d="M59.9617021,24.012766 L59.9617021,35.9956979 C59.9617021,37.6471021 58.6174085,38.9913957 56.9660043,38.9913957 L3.0426,38.9913957 C1.39119574,38.9913957 0.0469021277,37.6471021 0.0469021277,35.9956979 L0.0469021277,24.012766 C0.0469021277,22.3613617 1.39119574,21.0170681 3.0426,21.0170681 L56.9660043,21.0170681 C58.6174085,21.0170681 59.9617021,22.3613617 59.9617021,24.012766 Z" id="Shape"></path>
                            <path d="M3.0426,18.0212298 C1.39119574,18.0212298 0.0469021277,16.6769362 0.0469021277,15.0255319 L0.0469021277,3.0426 C0.0469021277,1.39119574 1.39119574,0.0469021277 3.0426,0.0469021277 L56.9660043,0.0469021277 C58.6174085,0.0469021277 59.9617021,1.39119574 59.9617021,3.0426 L59.9617021,15.0255319 C59.9617021,16.6769362 58.6174085,18.0212298 56.9660043,18.0212298 L3.0426,18.0212298 Z" id="Shape"></path>
                        </g>
                        <g id="Group" transform="translate(8.987234, 5.897872)">
                            <path d="M1.49791915,0.0936638298 C0.669970213,0.0936638298 0,0.763634043 0,1.59144255 L0,10.5786766 C0,11.4066255 0.669970213,12.0765957 1.49791915,12.0765957 C2.32586809,12.0765957 2.9958383,11.4066255 2.9958383,10.5786766 L2.9958383,1.59144255 C2.99569787,0.763634043 2.32586809,0.0936638298 1.49791915,0.0936638298 Z" id="Shape" fill="#183651"></path>
                            <path d="M7.48931489,0.0936638298 C6.66136596,0.0936638298 5.99139574,0.763634043 5.99139574,1.59158298 L5.99139574,10.578817 C5.99139574,11.406766 6.66136596,12.0767362 7.48931489,12.0767362 C8.31726383,12.0767362 8.98723404,11.4066255 8.98723404,10.5786766 L8.98723404,1.59144255 C8.98723404,0.763634043 8.31726383,0.0936638298 7.48931489,0.0936638298 Z" id="Shape" fill="#183651"></path>
                            <path d="M13.4808511,0.0936638298 C12.6529021,0.0936638298 11.9829319,0.763634043 11.9829319,1.59158298 L11.9829319,10.578817 C11.9829319,11.406766 12.6529021,12.0767362 13.4808511,12.0767362 C14.3088,12.0767362 14.9787702,11.406766 14.9787702,10.578817 L14.9787702,1.59158298 C14.9787702,0.763634043 14.3088,0.0936638298 13.4808511,0.0936638298 Z" id="Shape" fill="#183651"></path>
                            <circle id="Oval" stroke="#183651" stroke-width="2" fill="#FF84AE" cx="44.5" cy="6.5" r="3.5"></circle>
                            <circle id="Oval" stroke="#183651" stroke-width="2" fill="#00BCD4" cx="33.5" cy="6.5" r="3.5"></circle>
                            <path d="M1.49791915,33.0467617 C2.32586809,33.0467617 2.9958383,32.3767915 2.9958383,31.5488426 L2.9958383,22.5616085 C2.9958383,21.7336596 2.32586809,21.0636894 1.49791915,21.0636894 C0.669970213,21.0638298 0,21.7338 0,22.5617489 L0,31.548983 C0,32.3769319 0.669970213,33.0467617 1.49791915,33.0467617 Z" id="Shape" fill="#183651"></path>
                            <path d="M7.48931489,33.0467617 C8.31726383,33.0467617 8.98723404,32.3767915 8.98723404,31.5488426 L8.98723404,22.5616085 C8.98723404,21.7336596 8.31726383,21.0636894 7.48931489,21.0636894 C6.66136596,21.0636894 5.99139574,21.7336596 5.99139574,22.5616085 L5.99139574,31.5488426 C5.99153617,32.3769319 6.66150638,33.0467617 7.48931489,33.0467617 Z" id="Shape" fill="#183651"></path>
                            <path d="M13.4808511,33.0467617 C14.3088,33.0467617 14.9787702,32.3767915 14.9787702,31.5488426 L14.9787702,22.5616085 C14.9787702,21.7336596 14.3088,21.0636894 13.4808511,21.0636894 C12.6529021,21.0636894 11.9829319,21.7336596 11.9829319,22.5616085 L11.9829319,31.5488426 C11.9829319,32.3769319 12.6529021,33.0467617 13.4808511,33.0467617 Z" id="Shape" fill="#183651"></path>
                            <circle id="Oval" stroke="#183651" stroke-width="2" fill="#FF84AE" cx="44.5" cy="27.5" r="3.5"></circle>
                            <circle id="Oval" stroke="#183651" stroke-width="2" fill="#00BCD4" cx="33.5" cy="27.5" r="3.5"></circle>
                            <path d="M1.49791915,54.0170681 C2.32586809,54.0170681 2.9958383,53.3470979 2.9958383,52.5191489 L2.9958383,43.5319149 C2.9958383,42.703966 2.32586809,42.0339957 1.49791915,42.0339957 C0.669970213,42.0339957 0,42.703966 0,43.5319149 L0,52.5191489 C0,53.3470979 0.669970213,54.0170681 1.49791915,54.0170681 Z" id="Shape" fill="#183651"></path>
                            <path d="M7.48931489,54.0170681 C8.31726383,54.0170681 8.98723404,53.3470979 8.98723404,52.5191489 L8.98723404,43.5319149 C8.98723404,42.703966 8.31726383,42.0339957 7.48931489,42.0339957 C6.66136596,42.0339957 5.99139574,42.703966 5.99139574,43.5319149 L5.99139574,52.5191489 C5.99153617,53.3470979 6.66150638,54.0170681 7.48931489,54.0170681 Z" id="Shape" fill="#183651"></path>
                            <path d="M13.4808511,54.0170681 C14.3088,54.0170681 14.9787702,53.3470979 14.9787702,52.5191489 L14.9787702,43.5319149 C14.9787702,42.703966 14.3088,42.0339957 13.4808511,42.0339957 C12.6529021,42.0339957 11.9829319,42.703966 11.9829319,43.5319149 L11.9829319,52.5191489 C11.9829319,53.3470979 12.6529021,54.0170681 13.4808511,54.0170681 Z" id="Shape" fill="#183651"></path>
                            <circle id="Oval" stroke="#183651" stroke-width="2" fill="#FF84AE" cx="44.5" cy="48.5" r="3.5"></circle>
                            <circle id="Oval" stroke="#183651" stroke-width="2" fill="#00BCD4" cx="33.5" cy="48.5" r="3.5"></circle>
                        </g>
                    </g>
                </g>
            </g>
        </g>
    </g>
</svg>