<?xml version="1.0" encoding="UTF-8"?>
<svg width="91px" height="91px" viewBox="0 0 91 91" version="1.1" xmlns="http://www.w3.org/2000/svg" xmlns:xlink="http://www.w3.org/1999/xlink">
    <!-- Generator: Sketch 51 (57462) - http://www.bohemiancoding.com/sketch -->
    <title>Group 21</title>
    <desc>Created with Sketch.</desc>
    <defs></defs>
    <g id="Page-1" stroke="none" stroke-width="1" fill="none" fill-rule="evenodd">
        <g id="Large-Device-Desktops" transform="translate(-804.000000, -1718.000000)">
            <rect fill="#FFFFFF" x="0" y="0" width="1440" height="3753"></rect>
            <g id="Group-15" transform="translate(804.000000, 1718.000000)" fill-rule="nonzero">
                <g id="Group-21">
                    <circle id="Oval" fill="#F7E8D3" cx="45.3172315" cy="45.3172315" r="44.9204292"></circle>
                    <g id="network-(3)" transform="translate(2.931928, 2.931928)">
                        <g id="Group" transform="translate(1.326980, 1.326980)">
                            <rect id="Rectangle-path" fill="#3F51B5" x="60.9526699" y="22.7356459" width="8.492672" height="11.323618"></rect>
                            <path d="M49.7622911,0.0884100425 L79.1873344,0.0884100425 C80.042683,0.0884100425 80.7359636,0.722208865 80.7359636,1.50380008 L80.7359636,24.151036 C80.7359636,24.9327931 80.0425015,25.566426 79.1873344,25.566426 L49.7622911,25.566426 C48.9069425,25.566426 48.2136619,24.9326272 48.2136619,24.151036 L48.2136619,1.50396596 C48.2136619,0.722208865 48.9069425,0.0884100425 49.7622911,0.0884100425 Z" id="Shape" fill="#FFFFFF"></path>
                            <path d="M76.522458,34.059098 L76.522458,36.890044 L53.875388,36.890044 L53.875388,34.059098 C53.8798665,32.4975743 55.1446443,31.2327965 56.7063339,31.2281521 L73.6916779,31.2281521 C75.2532016,31.2327965 76.5179795,32.4975743 76.522458,34.059098 Z" id="Shape" fill="#283593"></path>
                            <g transform="translate(53.742690, 31.184030)" fill="#3F51B5">
                                <path d="M18.533432,2.87506804 L18.533432,5.706014 L0.132698,5.706014 L0.132698,2.87506804 C0.137176557,1.31354433 1.40195437,0.048766515 2.96364396,0.044122085 L15.702652,0.044122085 C17.2641757,0.048766515 18.5289535,1.31354433 18.533432,2.87506804 Z" id="Shape"></path>
                                <rect id="Rectangle-path" x="7.20997995" y="36.845756" width="8.492672" height="11.323618"></rect>
                            </g>
                            <path d="M49.7622911,45.382716 L79.1873344,45.382716 C80.042683,45.382716 80.7359636,46.0165148 80.7359636,46.798106 L80.7359636,69.4451761 C80.7359636,70.2269331 80.0425015,70.8605661 79.1873344,70.8605661 L49.7622911,70.8605661 C48.9069425,70.8605661 48.2136619,70.2269331 48.2136619,69.4451761 L48.2136619,46.798106 C48.2136619,46.0165148 48.9069425,45.382716 49.7622911,45.382716 Z" id="Shape" fill="#FFFFFF"></path>
                            <path d="M76.522458,79.353404 L76.522458,82.1843499 L53.875388,82.1843499 L53.875388,79.353404 C53.8798665,77.7918802 55.1446443,76.5271024 56.7063339,76.522458 L73.6916779,76.522458 C75.2532016,76.5271024 76.5179795,77.7918802 76.522458,79.353404 Z" id="Shape" fill="#283593"></path>
                            <path d="M72.276122,79.353404 L72.276122,82.1843499 L53.875388,82.1843499 L53.875388,79.353404 C53.8798665,77.7918802 55.1446443,76.5271024 56.7063339,76.522458 L69.4453419,76.522458 C71.0068656,76.5271024 72.2716435,77.7918802 72.276122,79.353404 Z" id="Shape" fill="#3F51B5"></path>
                            <path d="M3.323743,22.7356459 L30.8235992,22.7356459 C32.6104539,22.7356459 34.0589322,24.0030777 34.0589322,25.5665919 L34.0589322,79.353404 C34.0589322,80.9169181 32.6104539,82.1843499 30.8235992,82.1843499 L3.323743,82.1843499 C1.53688834,82.1843499 0.0884100425,80.9169181 0.0884100425,79.353404 L0.0884100425,25.566426 C0.0884100425,24.0030777 1.53688834,22.7356459 3.323743,22.7356459 Z" id="Shape" fill="#1E61AE"></path>
                            <path d="M34.0587426,47.3076663 L34.0587426,79.353404 C34.0534347,80.9149277 32.6081791,82.1797055 30.8234096,82.1843499 L3.323743,82.1843499 C1.53916314,82.1797055 0.0937179069,80.9149277 0.0884100425,79.353404 L0.0884100425,45.6799595 L10.0046383,49.629052 L24.1427039,51.2567588 L34.0587426,47.3076663 Z" id="Shape" fill="#67ADFF"></path>
                            <circle id="Oval" fill="#FF84AE" cx="17.073754" cy="52.4599979" r="4.246336"></circle>
                            <path d="M7.165692,28.397372 L26.9819819,28.397372 C27.763739,28.397372 28.397372,29.0311708 28.397372,29.812762 L28.397372,34.059098 C28.397372,34.8408551 27.7635732,35.4744881 26.9819819,35.4744881 L7.165692,35.4744881 C6.3839349,35.4744881 5.75030195,34.8406892 5.75030195,34.059098 L5.75030195,29.812762 C5.75030195,29.0311708 6.3839349,28.397372 7.165692,28.397372 Z" id="Shape" fill="#00BCD4"></path>
                        </g>
                        <g id="Group" fill="#183651">
                            <path d="M8.492672,38.217024 L28.3089619,38.217024 C29.8716468,38.2151994 31.1380833,36.9489287 31.1399079,35.386078 L31.1399079,31.139742 C31.1380833,29.5770572 29.8718126,28.3106207 28.3089619,28.3087961 L8.492672,28.3087961 C6.92998717,28.3106207 5.66355064,29.5768913 5.66172604,31.139742 L5.66172604,35.386078 C5.66355064,36.9489287 6.92998717,38.2151994 8.492672,38.217024 Z M8.492672,31.139742 L28.3089619,31.139742 L28.3104548,35.386078 L8.492672,35.386078 L8.492672,31.139742 Z" id="Shape"></path>
                            <path d="M29.3138175,41.4583385 C29.2426582,41.401776 29.1721624,41.3450476 29.1016666,41.2883192 C29.0227113,41.2345765 28.9369552,41.1916155 28.8465547,41.1604315 C28.7662724,41.1196269 28.6803505,41.0912627 28.5916087,41.0761683 C28.125507,40.9809574 27.6426521,41.1242713 27.3039405,41.4583385 C27.1788726,41.5956809 27.0780221,41.7535916 27.0060335,41.9249378 C26.9335472,42.0952889 26.8952306,42.2782463 26.8932402,42.46336 C26.889591,42.8398906 27.0375492,43.2019902 27.3037746,43.4682156 C27.57,43.7344409 27.9320996,43.8823992 28.3086302,43.87875 C28.4033434,43.8760961 28.4978907,43.8666413 28.5912769,43.8503858 C28.6800187,43.8346279 28.7659407,43.805932 28.846223,43.7654591 C28.9364576,43.7344409 29.0223796,43.6913141 29.1013349,43.6375714 C29.1718307,43.5816724 29.2423265,43.524944 29.3134858,43.4682156 C29.5717493,43.1966823 29.7183806,42.8379001 29.7240202,42.4631941 C29.7218639,42.2780804 29.6833815,42.095123 29.6107293,41.924772 C29.5390724,41.7537574 29.4385537,41.5960127 29.3138175,41.4583385 Z" id="Shape"></path>
                            <path d="M25.0674816,41.4583385 C24.9963222,41.401776 24.9258264,41.3450476 24.8553306,41.2883192 C24.7763753,41.2345765 24.6906192,41.1916155 24.6002187,41.1604315 C24.5199364,41.1196269 24.4340145,41.0912627 24.3452727,41.0761683 C23.879171,40.9809574 23.3963161,41.1242713 23.0576045,41.4583385 C22.9325366,41.5956809 22.8316861,41.7535916 22.7596975,41.9249378 C22.6872112,42.0952889 22.6488946,42.2782463 22.6469042,42.46336 C22.643255,42.8398906 22.7912132,43.2019902 23.0574386,43.4682156 C23.323664,43.7344409 23.6857636,43.8823992 24.0622942,43.87875 C24.1570074,43.8760961 24.2515547,43.8666413 24.3449409,43.8503858 C24.4336827,43.8346279 24.5196047,43.805932 24.599887,43.7654591 C24.6901216,43.7344409 24.7760436,43.6913141 24.8549989,43.6375714 C24.9254947,43.5816724 24.9959905,43.524944 25.0671498,43.4682156 C25.3254133,43.1966823 25.4720446,42.8379001 25.4776842,42.4631941 C25.4755279,42.2780804 25.4370455,42.095123 25.3643933,41.924772 C25.2927364,41.7537574 25.1922177,41.5960127 25.0674816,41.4583385 Z" id="Shape"></path>
                            <path d="M15.569954,76.434048 L12.739008,76.434048 C11.9572509,76.434048 11.323618,77.0678468 11.323618,77.849438 C11.323618,78.6311951 11.9574168,79.264828 12.739008,79.264828 L15.569954,79.264828 C16.351711,79.264828 16.985344,78.6310292 16.985344,77.849438 C16.985344,77.0678468 16.3515452,76.434048 15.569954,76.434048 Z" id="Shape"></path>
                            <path d="M24.0626259,76.434048 L21.23168,76.434048 C20.4499229,76.434048 19.8162899,77.0678468 19.8162899,77.849438 C19.8162899,78.6311951 20.4500888,79.264828 21.23168,79.264828 L24.0626259,79.264828 C24.844383,79.264828 25.478016,78.6310292 25.478016,77.849438 C25.478016,77.0678468 24.8442172,76.434048 24.0626259,76.434048 Z" id="Shape"></path>
                            <path d="M61.8691155,65.5209645 C61.7360857,65.3899252 61.5768481,65.2884112 61.4018527,65.2230574 C60.873217,65.0170438 60.2730903,65.1328228 59.8590725,65.5209645 C59.7308531,65.6559847 59.6296709,65.8143929 59.5611655,65.9875638 C59.4888451,66.1579148 59.4505286,66.3408722 59.4485381,66.5259859 C59.4448889,66.9025165 59.5928472,67.2646162 59.8590725,67.5308415 C60.1252979,67.7970669 60.4873976,67.9450252 60.8639281,67.941376 C61.048876,67.9390538 61.2315016,67.9005713 61.4016868,67.8280851 C61.5765164,67.7627313 61.7355881,67.6613832 61.8689496,67.5308415 C62.4164947,66.9726806 62.4164947,66.0791254 61.8691155,65.5209645 Z" id="Shape"></path>
                            <path d="M66.5259859,67.941376 C67.1934569,67.9349069 67.7637265,67.4585211 67.8891261,66.802993 C68.0145257,66.147299 67.6602221,65.494259 67.042347,65.241801 C66.424472,64.9893431 65.7142059,65.2077972 65.344642,65.7636359 C64.9752439,66.3196405 65.0488913,67.0589343 65.5209645,67.5308415 C65.7924977,67.789105 66.1512799,67.9357363 66.5259859,67.941376 Z" id="Shape"></path>
                            <path d="M71.6492898,67.8280851 C71.9921483,67.9791949 72.3826122,67.9791949 72.7253047,67.8280851 C72.8984756,67.7594138 73.0568839,67.6585634 73.1925676,67.5308415 C73.7399468,66.9726806 73.7399468,66.0791254 73.1925676,65.5209645 C72.6290987,64.9866891 71.7461594,64.9866891 71.1826905,65.5209645 C70.6353112,66.0791254 70.6353112,66.9726806 71.1826905,67.5308415 C71.3180424,67.6585634 71.4762848,67.7594138 71.6492898,67.8280851 Z" id="Shape"></path>
                            <path d="M82.095774,0 L50.956032,0 C49.3933472,0.0018245975 48.1269106,1.26809526 48.125086,2.83094596 L48.125086,25.478016 C48.1269106,27.0407008 49.3931813,28.3071373 50.956032,28.3089619 L60.864094,28.3089619 L60.864094,31.1399079 L58.0331481,31.1399079 C56.2395687,31.1453817 54.6435435,32.2791202 54.0475636,33.9708539 L45.2941401,33.9708539 C42.9500299,33.9733419 41.0502922,35.8730797 41.0478041,38.2171899 L41.0478041,79.2651598 L36.8014681,79.2651598 L36.8014681,26.893406 C36.79898,24.5492959 34.8992422,22.6495581 32.5551321,22.64707 L4.246336,22.64707 C1.90222583,22.6495581 0.0024880875,24.5492959 0,26.893406 L0,82.095774 C0.0018245975,83.6584588 1.26809526,84.9248954 2.83094596,84.92672 L33.970688,84.92672 C35.5333728,84.9248954 36.7998093,83.6586247 36.8016339,82.095774 L53.7869779,82.095774 L53.7869779,83.511164 C53.7868121,83.8865335 53.9359314,84.2466427 54.2014933,84.5122046 C54.4668893,84.7776006 54.8269985,84.92672 55.2025338,84.92672 L77.8496039,84.92672 C78.2249733,84.9268858 78.5850825,84.7777665 78.8506444,84.5122046 C79.1160404,84.2468086 79.2651598,83.8866994 79.2651598,83.511164 L79.2651598,80.680384 C79.2626717,78.3362738 77.362934,76.4365361 75.0188238,76.434048 L72.187712,76.434048 L72.187712,73.603102 L82.095774,73.603102 C83.6584588,73.6012774 84.9248954,72.3350067 84.92672,70.7721561 L84.92672,48.125086 C84.9248954,46.5624012 83.6586247,45.2959647 82.095774,45.2941401 L50.956032,45.2941401 C49.3933472,45.2959647 48.1269106,46.5622353 48.125086,48.125086 L48.125086,70.7721561 C48.1269106,72.3348409 49.3931813,73.6012774 50.956032,73.603102 L60.864094,73.603102 L60.864094,76.434048 L58.0331481,76.434048 C56.2395687,76.4395218 54.6435435,77.5732603 54.0475636,79.2649939 L43.8785841,79.2649939 L43.8785841,38.217024 C43.8794135,37.4355986 44.5125488,36.8022974 45.2939742,36.8016339 L53.7866462,36.8016339 L53.7866462,38.217024 C53.7864803,38.5923934 53.9355997,38.9525026 54.2011616,39.2180645 C54.4665576,39.4834605 54.8266668,39.6325799 55.2022021,39.6325799 L77.8492721,39.6325799 C78.2246416,39.6327458 78.5847508,39.4836264 78.8503127,39.2180645 C79.1157087,38.9526685 79.264828,38.5925593 79.264828,38.217024 L79.264828,35.386078 C79.26234,33.0419679 77.3626022,31.1422301 75.0184921,31.139742 L72.187712,31.139742 L72.187712,28.3087961 L82.095774,28.3087961 C83.6584588,28.3069715 84.9248954,27.0407008 84.92672,25.4778501 L84.92672,2.83094596 C84.9248954,1.26809526 83.6586247,0.0018245975 82.095774,0 Z M4.246336,25.478016 L32.5552979,25.478016 C33.3367233,25.4788454 33.9700245,26.1119807 33.970688,26.893406 L33.9711856,45.7980607 L23.1461804,50.7185026 C22.1093114,49.1024068 20.32104,48.125086 18.4008999,48.125086 C16.4807598,48.125086 14.6924884,49.1024068 13.6556194,50.7185026 L2.83111183,45.7983925 L2.83111183,26.893406 C2.83160945,26.1119807 3.46491065,25.4788454 4.246336,25.478016 Z M18.400734,50.956032 C19.9642482,50.956032 21.23168,52.2234637 21.23168,53.7869779 C21.23168,55.3504921 19.9642482,56.6179239 18.400734,56.6179239 C16.8372198,56.6179239 15.5697881,55.3504921 15.5697881,53.7869779 C15.5716127,52.2241272 16.8380492,50.9578566 18.400734,50.956032 Z M2.83094596,82.095774 L2.83094596,48.9075066 L12.7753341,53.427864 C12.7675381,53.5489509 12.739008,53.6639005 12.739008,53.7869779 C12.739008,56.9138404 15.2738715,59.448704 18.400734,59.448704 C21.5275965,59.448704 24.0624601,56.9138404 24.0624601,53.7869779 C24.0624601,53.6640664 24.03393,53.5489509 24.026134,53.427864 L33.9710197,48.9075066 L33.9718491,80.6737491 L33.9703562,80.680384 L33.9718491,80.6870189 L33.9718491,82.095774 L2.83094596,82.095774 Z M50.956032,48.125086 L82.095774,48.125086 L82.0972669,70.7721561 L50.956032,70.7721561 L50.956032,48.125086 Z M63.69504,73.603102 L69.356766,73.603102 L69.356766,76.434048 L63.69504,76.434048 L63.69504,73.603102 Z M58.0333139,79.2649939 L75.0186579,79.2649939 C75.8000833,79.2658233 76.4333845,79.8989586 76.434048,80.680384 L76.434048,82.095774 L56.617758,82.095774 L56.617758,80.680384 C56.6185874,79.8989586 57.2518886,79.2656574 58.0333139,79.2649939 Z M76.434048,35.386078 L76.434048,36.8014681 L56.617758,36.8014681 L56.617758,35.386078 C56.6185874,34.6046527 57.2517227,33.9713515 58.0331481,33.970688 L75.0184921,33.970688 C75.8000833,33.9715173 76.4332186,34.6046527 76.434048,35.386078 Z M69.356766,31.139742 L63.69504,31.139742 L63.69504,28.3087961 L69.356766,28.3087961 L69.356766,31.139742 Z M70.7723219,25.478016 L50.956032,25.478016 L50.956032,2.83094596 L82.095774,2.83094596 L82.0972669,25.478016 L70.7723219,25.478016 Z" id="Shape"></path>
                            <path d="M61.4018527,19.9289174 C60.873217,19.7229037 60.2730903,19.8386827 59.8592384,20.2268244 C59.731019,20.3618446 59.6298367,20.5202528 59.5613314,20.6934237 C59.489011,20.8637748 59.4506944,21.0467322 59.448704,21.2318459 C59.4450548,21.6083764 59.593013,21.9704761 59.8592384,22.2367015 C60.1254638,22.5029268 60.4875634,22.6508851 60.864094,22.6472359 C61.0490419,22.6449137 61.2316675,22.6064313 61.4018527,22.533945 C61.5766823,22.4685912 61.735754,22.3672431 61.8691155,22.2367015 C62.4164947,21.6785405 62.4164947,20.7849853 61.8691155,20.2268244 C61.7359199,20.0956192 61.5768481,19.9942711 61.4018527,19.9289174 Z" id="Shape"></path>
                            <path d="M65.5209645,20.2266585 C64.9714289,20.7806727 64.9739169,21.6747254 65.5264382,22.2257539 C66.0789595,22.7767823 66.9730123,22.7767823 67.5255336,22.2257539 C68.0780549,21.6747254 68.0803771,20.7806727 67.5310074,20.2266585 C66.9623965,19.7051554 66.0894095,19.7051554 65.5209645,20.2266585 Z" id="Shape"></path>
                            <path d="M71.6492898,19.9289174 C71.4761189,19.9974227 71.3177107,20.0986049 71.1826905,20.2268244 C70.6353112,20.7849853 70.6353112,21.6785405 71.1826905,22.2367015 C71.3178766,22.3645892 71.4762848,22.4654396 71.6492898,22.533945 C71.9919824,22.6850548 72.3826122,22.6850548 72.7253047,22.533945 C72.8984756,22.4652738 73.0568839,22.3644233 73.1925676,22.2367015 C73.7399468,21.6785405 73.7399468,20.7849853 73.1925676,20.2268244 C72.7823649,19.8308867 72.1774279,19.7141125 71.6492898,19.9289174 Z" id="Shape"></path>
                        </g>
                    </g>
                </g>
            </g>
        </g>
    </g>
</svg>