<svg width="90" height="90" viewBox="0 0 90 90" version="1.1" xmlns="http://www.w3.org/2000/svg"><title>Group 27</title><g transform="translate(0 -1)" fill-rule="nonzero" stroke="none" stroke-width="1" fill="none"><ellipse fill="#E7EAFF" cx="44.968" cy="45.667" rx="44.655" ry="44.575"/><g transform="translate(14 23)"><ellipse fill="#5ECC66" cx="52.071" cy="47.559" rx="1.929" ry="1.951"/><path d="M2.571 41.706v11.707H60.43V41.706H2.57zM9 50.811H6.429v-6.503H9v6.503zm6.429 0h-2.572v-6.503h2.572v6.503zm6.428 0h-2.571v-6.503h2.571v6.503zm30.214-7.804c2.481 0 4.5 2.043 4.5 4.552 0 2.51-2.019 4.553-4.5 4.553-2.48 0-4.5-2.043-4.5-4.553s2.02-4.552 4.5-4.552z" fill="#DCECFF"/><ellipse fill="#E65F58" cx="52.071" cy="28.049" rx="1.929" ry="1.951"/><path d="M2.571 22.196v11.706H60.43V22.196H2.57zM9 31.3H6.429v-6.504H9v6.504zm6.429 0h-2.572v-6.504h2.572v6.504zm6.428 0h-2.571v-6.504h2.571v6.504zm30.214-7.805c2.481 0 4.5 2.043 4.5 4.553s-2.019 4.552-4.5 4.552c-2.48 0-4.5-2.042-4.5-4.552s2.02-4.553 4.5-4.553z" fill="#DCECFF"/><ellipse fill="#E65F58" cx="52.071" cy="8.538" rx="1.929" ry="1.951"/><path d="M60.429 2.685H2.57v11.707H60.43V2.685zM9 11.79H6.429V5.287H9v6.503zm6.429 0h-2.572V5.287h2.572v6.503zm6.428 0h-2.571V5.287h2.571v6.503zm30.214 1.3c-2.48 0-4.5-2.042-4.5-4.552s2.02-4.552 4.5-4.552c2.481 0 4.5 2.042 4.5 4.552s-2.019 4.553-4.5 4.553z" fill="#DCECFF"/><g fill="#183651"><path d="M63 13.873V3.203a3.12 3.12 0 0 0-3.12-3.12H3.12A3.12 3.12 0 0 0 0 3.204v10.67a3.12 3.12 0 0 0 3.12 3.12h27.737v2.601H3.12A3.12 3.12 0 0 0 0 22.714v10.67a3.12 3.12 0 0 0 3.12 3.12h27.737v2.6H3.12A3.12 3.12 0 0 0 0 42.225v10.67a3.12 3.12 0 0 0 3.12 3.12h.737v3.902H6.43v-3.902H56.57v3.902h2.572v-3.902h.737a3.12 3.12 0 0 0 3.12-3.12v-10.67a3.12 3.12 0 0 0-3.12-3.12H33.429v-2.6H59.88a3.12 3.12 0 0 0 3.12-3.12v-10.67a3.12 3.12 0 0 0-3.12-3.12H33.429v-2.601H59.88a3.12 3.12 0 0 0 3.12-3.12zm-2.571 28.873v9.627a1.04 1.04 0 0 1-1.04 1.04H3.61a1.04 1.04 0 0 1-1.04-1.04v-9.627c0-.574.466-1.04 1.04-1.04H59.39c.574 0 1.04.466 1.04 1.04zm-1.04-8.844H3.61a1.04 1.04 0 0 1-1.04-1.04v-9.626c0-.575.466-1.04 1.04-1.04H59.39c.574 0 1.04.465 1.04 1.04v9.626a1.04 1.04 0 0 1-1.04 1.04zM3.61 2.685H59.39c.574 0 1.04.466 1.04 1.04v9.627a1.04 1.04 0 0 1-1.04 1.04H3.61a1.04 1.04 0 0 1-1.04-1.04V3.725c0-.574.466-1.04 1.04-1.04z"/><path d="M52.071 3.986c-2.48 0-4.5 2.042-4.5 4.552s2.02 4.553 4.5 4.553c2.481 0 4.5-2.043 4.5-4.553s-2.019-4.552-4.5-4.552zm0 6.503c-1.063 0-1.928-.875-1.928-1.95 0-1.076.865-1.952 1.928-1.952 1.064 0 1.929.876 1.929 1.951 0 1.076-.865 1.951-1.929 1.951zM6.429 5.287H9v6.504H6.429zM12.857 5.287h2.571v6.504h-2.571zM19.286 5.287h2.571v6.504h-2.571zM52.071 32.601c2.481 0 4.5-2.042 4.5-4.552s-2.019-4.552-4.5-4.552c-2.48 0-4.5 2.042-4.5 4.552s2.02 4.552 4.5 4.552zm0-6.503c1.064 0 1.929.875 1.929 1.95C54 29.126 53.135 30 52.071 30c-1.063 0-1.928-.875-1.928-1.951s.865-1.951 1.928-1.951zM6.429 24.797H9v6.504H6.429zM12.857 24.797h2.571v6.504h-2.571zM19.286 24.797h2.571v6.504h-2.571zM52.071 52.112c2.481 0 4.5-2.042 4.5-4.552s-2.019-4.553-4.5-4.553c-2.48 0-4.5 2.043-4.5 4.553s2.02 4.552 4.5 4.552zm0-6.504c1.064 0 1.929.876 1.929 1.951 0 1.076-.865 1.951-1.929 1.951-1.063 0-1.928-.875-1.928-1.95 0-1.076.865-1.952 1.928-1.952zM6.429 44.308H9v6.504H6.429zM12.857 44.308h2.571v6.504h-2.571zM19.286 44.308h2.571v6.504h-2.571z"/></g></g><path d="M34.966 20.475l6.63-7.28a.46.46 0 0 0 .082-.496.485.485 0 0 0-.428-.284l-3.356-.117c-.01-3.647-1.245-6.196-3.677-7.585-2.098-1.196-4.63-1.274-6.305-1.322l-.387-.013a.485.485 0 0 0-.482.335.462.462 0 0 0 .211.534c4.526 2.703 4.675 4.803 4.58 7.836l-3.346-.117a.482.482 0 0 0-.447.257.466.466 0 0 0 .048.503l6.127 7.723a.494.494 0 0 0 .75.026z" fill="#00BCD4" stroke="#00BCD4" stroke-width=".5"/><path d="M61.211 23.379l-8.405-9.429a.606.606 0 0 1 .438-1.007l4.25-.149c.009-4.719 1.572-8.017 4.651-9.812 2.657-1.545 5.864-1.644 7.985-1.704l.49-.018a.616.616 0 0 1 .612.435.6.6 0 0 1-.267.69c-5.73 3.494-5.918 6.212-5.794 10.137l4.237-.148a.61.61 0 0 1 .508.983l-7.755 9.989a.62.62 0 0 1-.95.033z" fill="#00BCD4"/></g></svg>