<?xml version="1.0" encoding="UTF-8"?>
<svg width="122px" height="122px" viewBox="0 0 122 122" version="1.1" xmlns="http://www.w3.org/2000/svg" xmlns:xlink="http://www.w3.org/1999/xlink">
    <!-- Generator: Sketch 55.1 (78136) - https://sketchapp.com -->
    <title>Group 21</title>
    <desc>Created with Sketch.</desc>
    <g id="desktop" stroke="none" stroke-width="1" fill="none" fill-rule="evenodd">
        <g id="cloud_native" transform="translate(-272.000000, -4054.000000)">
            <g id="Group-21" transform="translate(273.000000, 4055.000000)">
                <circle id="Oval" stroke="#E5E5E5" fill="#FFFFFF" cx="60" cy="60" r="60"></circle>
                <g id="database-(3)" transform="translate(26.000000, 26.000000)">
                    <path d="M12,4 C7.58933333,4 4,7.58933333 4,12 C4,16.4106667 7.58933333,20 12,20 C16.4106667,20 20,16.4106667 20,12 C20,7.58933333 16.4106667,4 12,4 Z M12.5,17 C10.0196,17 8,14.9822 8,12.5 C8,10.0178 10.0196,8 12.5,8 C14.9804,8 17,10.0178 17,12.5 C17,14.9822 14.9804,17 12.5,17 Z" id="Shape" fill="#E83F67" fill-rule="nonzero"></path>
                    <path d="M12,26 C7.58933333,26 4,29.5893333 4,34 C4,38.4106667 7.58933333,42 12,42 C16.4106667,42 20,38.4106667 20,34 C20,29.5893333 16.4106667,26 12,26 Z M12.5,39 C10.0196,39 8,36.9822 8,34.5 C8,32.0178 10.0196,30 12.5,30 C14.9804,30 17,32.0178 17,34.5 C17,36.9822 14.9804,39 12.5,39 Z" id="Shape" fill="#E0E4E8" fill-rule="nonzero"></path>
                    <path d="M12,47 C7.58933333,47 4,50.5893333 4,55 C4,59.4106667 7.58933333,63 12,63 C16.4106667,63 20,59.4106667 20,55 C20,50.5893333 16.4106667,47 12,47 Z M12.5,60 C10.0196,60 8,57.9822 8,55.5 C8,53.0178 10.0196,51 12.5,51 C14.9804,51 17,53.0178 17,55.5 C17,57.9822 14.9804,60 12.5,60 Z" id="Shape" fill="#E0E4E8" fill-rule="nonzero"></path>
                    <path d="M12.1,7 C9.2882,7 7,9.2882 7,12.1 C7,14.9118 9.2882,17.2 12.1,17.2 C14.9118,17.2 17.2,14.9118 17.2,12.1 C17.2,9.2882 14.9118,7 12.1,7 Z M12.1,14.9333333 C10.5382667,14.9333333 9.26666667,13.6628667 9.26666667,12.1 C9.26666667,10.5371333 10.5382667,9.26666667 12.1,9.26666667 C13.6617333,9.26666667 14.9333333,10.5371333 14.9333333,12.1 C14.9333333,13.6628667 13.6617333,14.9333333 12.1,14.9333333 Z" id="Shape" fill="#42566C" fill-rule="nonzero"></path>
                    <rect id="Rectangle" fill="#E0E4E8" x="22" y="4" width="41" height="16" rx="4"></rect>
                    <circle id="Oval" fill="#42566C" fill-rule="nonzero" cx="56.6666667" cy="10.3416667" r="1.13333333"></circle>
                    <circle id="Oval" fill="#42566C" fill-rule="nonzero" cx="52.1333333" cy="10.3416667" r="1.13333333"></circle>
                    <circle id="Oval" fill="#42566C" fill-rule="nonzero" cx="58.9333333" cy="13.7416667" r="1.13333333"></circle>
                    <circle id="Oval" fill="#42566C" fill-rule="nonzero" cx="54.4" cy="13.7416667" r="1.13333333"></circle>
                    <circle id="Oval" fill="#42566C" fill-rule="nonzero" cx="47.6" cy="10.3416667" r="1.13333333"></circle>
                    <circle id="Oval" fill="#42566C" fill-rule="nonzero" cx="49.8666667" cy="13.7416667" r="1.13333333"></circle>
                    <circle id="Oval" fill="#42566C" fill-rule="nonzero" cx="43.0666667" cy="10.3416667" r="1.13333333"></circle>
                    <circle id="Oval" fill="#42566C" fill-rule="nonzero" cx="45.3333333" cy="13.7416667" r="1.13333333"></circle>
                    <circle id="Oval" fill="#42566C" fill-rule="nonzero" cx="38.5333333" cy="10.3416667" r="1.13333333"></circle>
                    <circle id="Oval" fill="#42566C" fill-rule="nonzero" cx="40.8" cy="13.7416667" r="1.13333333"></circle>
                    <path d="M12.1,29 C9.2882,29 7,31.2882 7,34.1 C7,36.9118 9.2882,39.2 12.1,39.2 C14.9118,39.2 17.2,36.9118 17.2,34.1 C17.2,31.2882 14.9118,29 12.1,29 Z M12.1,36.9333333 C10.5382667,36.9333333 9.26666667,35.6628667 9.26666667,34.1 C9.26666667,32.5371333 10.5382667,31.2666667 12.1,31.2666667 C13.6617333,31.2666667 14.9333333,32.5371333 14.9333333,34.1 C14.9333333,35.6628667 13.6617333,36.9333333 12.1,36.9333333 Z" id="Shape" fill="#42566C" fill-rule="nonzero"></path>
                    <path d="M12.1,50 C9.2882,50 7,52.2882 7,55.1 C7,57.9118 9.2882,60.2 12.1,60.2 C14.9118,60.2 17.2,57.9118 17.2,55.1 C17.2,52.2882 14.9118,50 12.1,50 Z M12.1,57.9333333 C10.5382667,57.9333333 9.26666667,56.6628667 9.26666667,55.1 C9.26666667,53.5371333 10.5382667,52.2666667 12.1,52.2666667 C13.6617333,52.2666667 14.9333333,53.5371333 14.9333333,55.1 C14.9333333,56.6628667 13.6617333,57.9333333 12.1,57.9333333 Z" id="Shape" fill="#42566C" fill-rule="nonzero"></path>
                    <path d="M68,18.7192667 L68,5.36406667 C68,2.48426667 65.6574,0.141666667 62.7776,0.141666667 L5.2224,0.141666667 C2.3426,0.141666667 0,2.48426667 0,5.36406667 L0,18.7181333 C0,20.383 0.796733333,21.8506667 2.01393333,22.8072 C0.796733333,23.7648667 0,25.2336667 0,26.8974 L0,40.2514667 C0,41.9163333 0.796733333,43.384 2.01393333,44.3405333 C0.796733333,45.2982 0,46.767 0,48.4307333 L0,61.7848 C0,64.6646 2.3426,67.0072 5.2224,67.0072 L36.8140667,67.0072 C39.8536667,67.5670667 43.1856667,67.8572 46.4666667,67.8572 C56.2949333,67.8572 66.6581333,65.3083333 67.881,60.4304667 C67.9569333,60.2797333 68,60.1074667 68,59.925 L68,49.725 L68,49.3 L68,48.875 L68,39.525 L68,39.1 L68,38.675 L68,28.9 L68,28.475 C68,28.305 67.9580667,28.1474667 67.8912,28.0035333 C67.4979333,26.3443333 66.0234667,24.9469333 63.8542667,23.8272 C66.2184,23.3296667 68,21.2296 68,18.7192667 Z M2.26666667,40.2526 L2.26666667,26.8974 C2.26666667,25.2676667 3.59266667,23.9416667 5.2224,23.9416667 L28.8637333,23.9416667 C26.8135333,25.0421333 25.4218,26.3998667 25.0421333,28.0035333 C24.9752667,28.1486 24.9333333,28.305 24.9333333,28.475 L24.9333333,28.9 L24.9333333,38.675 L24.9333333,39.1 L24.9333333,39.525 L24.9333333,43.2083333 L5.2224,43.2083333 C3.59266667,43.2083333 2.26666667,41.8823333 2.26666667,40.2526 Z M27.9094667,33.2973333 C27.9604667,33.3302 28.0148667,33.3630667 28.067,33.3959333 C28.2664667,33.5206 28.4738667,33.643 28.6903333,33.7631333 C28.7526667,33.7971333 28.8127333,33.8322667 28.8750667,33.8651333 C29.1391333,34.0068 29.4134,34.1450667 29.699,34.2776667 C29.7443333,34.2992 29.7930667,34.3196 29.8384,34.34 C30.0888667,34.4544667 30.3461333,34.5644 30.6113333,34.6720667 C30.6895333,34.7038 30.7666,34.7355333 30.8448,34.7661333 C31.1576,34.8885333 31.4760667,35.0086667 31.8058667,35.122 C31.824,35.1276667 31.8421333,35.1333333 31.8602667,35.1401333 C32.1753333,35.2478 32.4994667,35.3509333 32.8292667,35.4506667 C32.9176667,35.4778667 33.0072,35.5039333 33.0967333,35.53 C33.4231333,35.6252 33.7540667,35.7181333 34.0929333,35.8065333 C34.1201333,35.8133333 34.1462,35.8212667 34.1734,35.8280667 C34.5383333,35.9221333 34.9112,36.0094 35.2897333,36.0944 C35.3849333,36.1159333 35.4812667,36.1363333 35.5764667,36.1567333 C35.9006,36.227 36.2281333,36.2938667 36.5590667,36.3573333 C36.6248,36.3698 36.6905333,36.3834 36.7562667,36.3958667 C37.145,36.4684 37.5382667,36.5352667 37.9360667,36.5987333 C38.0301333,36.6134667 38.1264667,36.6282 38.2205333,36.6429333 C38.5503333,36.6939333 38.8824,36.7415333 39.2178667,36.7857333 C39.3096667,36.7982 39.4003333,36.8106667 39.4932667,36.822 C39.899,36.873 40.307,36.9206 40.7184,36.9636667 C40.8011333,36.9727333 40.885,36.9795333 40.9677333,36.9874667 C41.3134,37.0214667 41.6613333,37.0520667 42.0092667,37.0804 C42.1146667,37.0883333 42.2189333,37.0974 42.3243333,37.1053333 C42.7402667,37.1359333 43.1584667,37.1631333 43.5766667,37.1846667 C43.6356,37.1880667 43.6956667,37.1892 43.7557333,37.1926 C44.1240667,37.2107333 44.4935333,37.2243333 44.863,37.2345333 C44.9740667,37.2379333 45.0851333,37.2413333 45.1973333,37.2436 C45.6200667,37.2526667 46.0428,37.2594667 46.4644,37.2594667 C46.886,37.2594667 47.3087333,37.2526667 47.7314667,37.2436 C47.8425333,37.2413333 47.9536,37.2379333 48.0658,37.2345333 C48.4352667,37.2243333 48.8036,37.2107333 49.1730667,37.1926 C49.2331333,37.1892 49.2920667,37.1880667 49.3521333,37.1846667 C49.7703333,37.1631333 50.1885333,37.1359333 50.6044667,37.1053333 C50.7098667,37.0974 50.8141333,37.0894667 50.9195333,37.0804 C51.2686,37.0532 51.6154,37.0214667 51.9610667,36.9874667 C52.0438,36.9795333 52.1276667,36.9716 52.2104,36.9636667 C52.6218,36.9206 53.0298,36.8741333 53.4355333,36.822 C53.5273333,36.8106667 53.6191333,36.7982 53.7109333,36.7857333 C54.0452667,36.7415333 54.3784667,36.6939333 54.7082667,36.6429333 C54.8034667,36.6282 54.8986667,36.6146 54.9927333,36.5987333 C55.3905333,36.5352667 55.7838,36.4684 56.1725333,36.3958667 C56.2394,36.3834 56.304,36.3698 56.3697333,36.3573333 C56.7018,36.2938667 57.0293333,36.227 57.3523333,36.1567333 C57.4486667,36.1352 57.5438667,36.1148 57.6390667,36.0944 C58.0164667,36.0094 58.3904667,35.9221333 58.7554,35.8280667 C58.7826,35.8212667 58.8086667,35.8133333 58.8358667,35.8065333 C59.1747333,35.7192667 59.5056667,35.6263333 59.8320667,35.53 C59.9216,35.5039333 60.0111333,35.4778667 60.0995333,35.4506667 C60.4293333,35.3509333 60.7534667,35.2478 61.0685333,35.1401333 C61.0866667,35.1344667 61.1048,35.1288 61.1229333,35.122 C61.4527333,35.0075333 61.7723333,34.8885333 62.084,34.7661333 C62.1633333,34.7355333 62.2404,34.7038 62.3174667,34.6720667 C62.5826667,34.5644 62.8399333,34.4544667 63.0904,34.34 C63.1368667,34.3184667 63.1844667,34.2992 63.2298,34.2776667 C63.5154,34.1450667 63.7885333,34.0068 64.0537333,33.8651333 C64.1172,33.8311333 64.1772667,33.7971333 64.2384667,33.7631333 C64.4538,33.6441333 64.6612,33.5217333 64.8618,33.3959333 C64.9139333,33.3630667 64.9683333,33.3313333 65.0193333,33.2973333 C65.2539333,33.1454667 65.4760667,32.9890667 65.6868667,32.8281333 C65.7004667,32.8179333 65.7163333,32.8088667 65.7299333,32.7986667 L65.7299333,38.4517333 C65.7027333,38.5832 65.6846,38.7169333 65.7061333,38.8518 C65.722,38.9345333 65.7333333,39.0161333 65.7333333,39.1 C65.7333333,39.2246667 65.6982,39.3516 65.6676,39.4774 C65.6438,39.5748667 65.6132,39.6734667 65.5724,39.7709333 C65.5361333,39.8559333 65.4908,39.9420667 65.4409333,40.0270667 C65.3922,40.1120667 65.3389333,40.1982 65.2777333,40.2832 C65.1904667,40.4010667 65.0918667,40.5189333 64.9796667,40.6368 C64.9377333,40.6821333 64.8958,40.7274667 64.8504667,40.7728 C62.4512,43.0938667 55.3712667,45.1905333 46.4678,45.1905333 C37.57,45.1905333 30.4934667,43.0961333 28.0896667,40.7762 C28.0398,40.7263333 27.9944667,40.6776 27.9491333,40.6277333 C27.8426,40.5144 27.7462667,40.4010667 27.6624,40.2877333 C27.5978,40.1982 27.5411333,40.1086667 27.4901333,40.018 C27.4436667,39.9375333 27.4006,39.8570667 27.3654667,39.7754667 C27.3212667,39.6723333 27.2906667,39.5703333 27.2657333,39.4683333 C27.2351333,39.3459333 27.2,39.2224 27.2,39.1 C27.2,39.0195333 27.2102,38.9390667 27.2238,38.8597333 C27.2476,38.7124 27.2328667,38.5650667 27.2,38.4234 L27.2,32.7975333 C27.2136,32.8077333 27.2294667,32.8168 27.2430667,32.827 C27.4527333,32.9879333 27.6748667,33.1443333 27.9094667,33.2973333 Z M65.5712667,49.9709333 C65.535,50.0559333 65.4896667,50.1420667 65.4398,50.2270667 C65.3910667,50.3120667 65.3378,50.3982 65.2766,50.4832 C65.1893333,50.6010667 65.0907333,50.7189333 64.9785333,50.8368 C64.9366,50.8821333 64.8946667,50.9274667 64.8493333,50.9728 C62.4500667,53.2938667 55.3701333,55.3905333 46.4666667,55.3905333 C37.5688667,55.3905333 30.4923333,53.2961333 28.0885333,50.9762 C28.0386667,50.9263333 27.9933333,50.8776 27.948,50.8277333 C27.8414667,50.7144 27.7451333,50.6010667 27.6612667,50.4877333 C27.5966667,50.3982 27.54,50.3086667 27.489,50.218 C27.4425333,50.1375333 27.3994667,50.0570667 27.3643333,49.9754667 C27.3201333,49.8723333 27.2895333,49.7703333 27.2646,49.6683333 C27.2385333,49.5618 27.2113333,49.4541333 27.2079333,49.3476 L27.2079333,49.2116 C27.2124667,49.1606 27.2147333,49.1096 27.2226667,49.0586 C27.2385333,48.9611333 27.217,48.8659333 27.2068,48.7696 L27.2,43.2083333 L27.2,42.9975333 C27.2453333,43.0326667 27.2986,43.0655333 27.3462,43.0995333 C27.489,43.2060667 27.6386,43.3103333 27.7916,43.4134667 C27.9162667,43.4962 28.0454667,43.5778 28.1769333,43.6594 C28.3798,43.7840667 28.5838,43.9076 28.8014,44.0266 C28.8036667,44.0277333 28.8059333,44.0288667 28.8070667,44.03 C31.1712,45.3186 34.4216,46.2490667 38.0154,46.8123333 C38.0426,46.8168667 38.0698,46.8202667 38.097,46.8248 C39.2564,47.005 40.4464,47.1455333 41.6568,47.2486667 C41.9140667,47.2702 42.1702,47.2928667 42.4297333,47.311 C42.6824667,47.3291333 42.9352,47.345 43.1890667,47.3586 C43.5313333,47.3778667 43.8736,47.3948667 44.2158667,47.4084667 C44.4153333,47.4164 44.6148,47.4254667 44.8154,47.4311333 C45.3673333,47.447 45.9181333,47.4583333 46.4678,47.4583333 C47.0163333,47.4583333 47.5671333,47.4481333 48.1168,47.4322667 C48.3185333,47.4266 48.5191333,47.4175333 48.7208667,47.4096 C49.0608667,47.396 49.3997333,47.3801333 49.7386,47.3608667 C49.9947333,47.3461333 50.2497333,47.3302667 50.5047333,47.3121333 C50.7597333,47.294 51.0113333,47.2724667 51.2652,47.2509333 C52.4869333,47.1478 53.6882667,47.005 54.8578667,46.8236667 C54.8748667,46.8214 54.893,46.818 54.91,46.8157333 C58.837,46.2014667 62.3492,45.1463333 64.7484667,43.6662 C64.8788,43.5857333 65.008,43.5052667 65.1315333,43.4225333 C65.2845333,43.3205333 65.4341333,43.2162667 65.5758,43.1097333 C65.6268,43.0723333 65.6846,43.0372 65.7344667,42.9986667 L65.7344667,48.6517333 C65.7072667,48.7832 65.6891333,48.9169333 65.7106667,49.0518 C65.722,49.1345333 65.7333333,49.2161333 65.7333333,49.3 C65.7333333,49.4246667 65.6982,49.5516 65.6676,49.6774 C65.6426667,49.7748667 65.6132,49.8734667 65.5712667,49.9709333 Z M5.2224,64.7416667 C3.59266667,64.7416667 2.26666667,63.4156667 2.26666667,61.7859333 L2.26666667,48.4307333 C2.26666667,46.801 3.59266667,45.475 5.2224,45.475 L24.9333333,45.475 L24.9333333,48.875 L24.9333333,49.3 L24.9333333,49.725 L24.9333333,59.925 L24.9333333,61.0583333 L25.2688,61.0583333 C25.2869333,61.1002667 25.313,61.1410667 25.3334,61.183 C25.3730667,61.268 25.4172667,61.3507333 25.4626,61.4346 C25.5555333,61.6023333 25.6609333,61.7678 25.7776667,61.931 C25.8932667,62.0953333 26.0236,62.254 26.1618667,62.4115333 C26.2321333,62.4908667 26.3024,62.5690667 26.3783333,62.6472667 C26.8124,63.0949333 27.3337333,63.5142667 27.9355333,63.9064 C27.9559333,63.92 27.9774667,63.9336 27.999,63.9472 C28.4342,64.2271333 28.9045333,64.4923333 29.4134,64.7428 L5.2224,64.7428 L5.2224,64.7416667 Z M65.7333333,59.6348667 C65.7242667,59.67 65.7163333,59.7062667 65.7106667,59.7414 C65.2471333,62.5668 57.4033333,65.5916667 46.4666667,65.5916667 C42.9771333,65.5916667 39.8083333,65.2822667 37.0872,64.7711333 L37.0883333,64.7620667 C31.4522667,63.6956 28.3333333,61.8947333 27.4606667,60.3760667 C27.4595333,60.3749333 27.4584,60.3738 27.4584,60.3715333 C27.4187333,60.3012667 27.3904,60.2321333 27.3598,60.1641333 C27.3008667,60.0224667 27.2453333,59.8819333 27.2226667,59.7414 L27.2136,53.2077333 C27.2544,53.2394667 27.3031333,53.2689333 27.3450667,53.3006667 C27.4878667,53.4072 27.6374667,53.5114667 27.7904667,53.6146 C27.9151333,53.6973333 28.0443333,53.7789333 28.1758,53.8605333 C28.3786667,53.9852 28.5826667,54.1087333 28.8002667,54.2277333 C28.8025333,54.2288667 28.8048,54.23 28.8059333,54.2311333 C31.1700667,55.5197333 34.4204667,56.4502 38.0142667,57.0134667 C38.0414667,57.018 38.0686667,57.0214 38.0958667,57.0259333 C39.2552667,57.2061333 40.4452667,57.3466667 41.6556667,57.4498 C41.9129333,57.4713333 42.1690667,57.494 42.4286,57.5121333 C42.6813333,57.5302667 42.9340667,57.5461333 43.1879333,57.5597333 C43.5302,57.579 43.8724667,57.596 44.2147333,57.6096 C44.4142,57.6175333 44.6136667,57.6266 44.8142667,57.6322667 C45.3662,57.6481333 45.917,57.6594667 46.4666667,57.6594667 C47.0152,57.6594667 47.566,57.6492667 48.1156667,57.6334 C48.3174,57.6277333 48.518,57.6186667 48.7197333,57.6107333 C49.0597333,57.5971333 49.3986,57.5812667 49.7374667,57.562 C49.9936,57.5472667 50.2486,57.5314 50.5036,57.5132667 C50.7586,57.4951333 51.0102,57.4736 51.2640667,57.4520667 C52.4858,57.3489333 53.6871333,57.2061333 54.8567333,57.0248 C54.8737333,57.0225333 54.8918667,57.0191333 54.9088667,57.0168667 C58.8358667,56.4026 62.3480667,55.3474667 64.7473333,53.8673333 C64.8776667,53.7868667 65.0068667,53.7064 65.1304,53.6236667 C65.2834,53.5216667 65.433,53.4174 65.5746667,53.3108667 C65.6256667,53.2734667 65.6834667,53.2383333 65.7333333,53.1998 L65.7333333,59.6348667 L65.7333333,59.6348667 Z M65.7333333,28.9 C65.7333333,31.7752667 57.4928667,34.9916667 46.4666667,34.9916667 C35.4393333,34.9916667 27.2,31.7752667 27.2,28.9 C27.2,28.7549333 27.2351333,28.6076 27.2770667,28.4602667 C27.3224,28.3140667 27.3836,28.1644667 27.4742667,28.0103333 C27.4776667,28.0035333 27.4810667,27.9967333 27.4844667,27.9899333 C27.8618667,27.3598 28.6223333,26.6820667 29.7930667,26.0281333 C29.8429333,26.0009333 29.8939333,25.9737333 29.9449333,25.9465333 C30.1455333,25.8377333 30.3574667,25.7300667 30.5807333,25.6235333 C30.8402667,25.5022667 31.1066,25.381 31.3922,25.2642667 C31.4477333,25.2404667 31.5055333,25.2178 31.5633333,25.1951333 C32.8802667,24.6704 34.4669333,24.2046 36.2530667,23.8238 C36.8118,23.7059333 37.3807333,23.5948667 37.9655333,23.4974 C38.1208,23.4713333 38.2726667,23.4441333 38.4302,23.4192 C43.5041333,22.6372 49.4235333,22.6372 54.4974667,23.4192 C54.6572667,23.4441333 54.8114,23.4724667 54.9689333,23.4985333 C55.5503333,23.5948667 56.1158667,23.7048 56.6700667,23.8226667 C62.1950667,24.9990667 65.7333333,27.0198 65.7333333,28.9 Z M65.7333333,18.7192667 C65.7333333,20.349 64.4073333,21.675 62.7776,21.675 L57.5302667,21.675 C57.4645333,21.6602667 57.392,21.6512 57.3262667,21.6364667 C56.5828,21.4755333 55.8178,21.3316 55.0358,21.2069333 C54.9598667,21.1956 54.8839333,21.1831333 54.808,21.1718 C52.1322,20.7558667 49.2762,20.5416667 46.4666667,20.5416667 C43.6571333,20.5416667 40.8034,20.7558667 38.1276,21.1718 C38.0494,21.1831333 37.9723333,21.1956 37.8941333,21.2069333 C37.1144,21.3316 36.3516667,21.4755333 35.6104667,21.6353333 C35.5436,21.6500667 35.4688,21.6591333 35.4019333,21.6738667 L5.2224,21.6738667 C3.59266667,21.675 2.26666667,20.349 2.26666667,18.7192667 L2.26666667,5.36406667 C2.26666667,3.73433333 3.59266667,2.40833333 5.2224,2.40833333 L62.7764667,2.40833333 C64.4073333,2.40833333 65.7333333,3.73433333 65.7333333,5.36406667 L65.7333333,18.7192667 Z" id="Shape" fill="#42566C" fill-rule="nonzero"></path>
                    <ellipse id="Oval" fill="#E0E4E8" cx="46.5" cy="29" rx="16.5" ry="4"></ellipse>
                </g>
            </g>
        </g>
    </g>
</svg>