<?xml version="1.0" encoding="UTF-8"?>
<svg width="55px" height="61px" viewBox="0 0 55 61" version="1.1" xmlns="http://www.w3.org/2000/svg" xmlns:xlink="http://www.w3.org/1999/xlink">
    <!-- Generator: Sketch 49 (51002) - http://www.bohemiancoding.com/sketch -->
    <title>brain</title>
    <desc>Created with Sketch.</desc>
    <defs></defs>
    <g id="Page-1" stroke="none" stroke-width="1" fill="none" fill-rule="evenodd">
        <g id="Large-Device-Desktops" transform="translate(-366.000000, -2357.000000)" fill-rule="nonzero">
            <g id="Group-7" transform="translate(247.000000, 2328.000000)">
                <g id="brain" transform="translate(92.000000, 30.000000)">
                    <path d="M80.8881,25.9246599 C80.5809,23.4685228 79.5528,21.5125381 79.1211,20.7790812 C79.4334,15.6688426 78.4185,11.8209645 76.1034,9.33847208 C74.2986,7.40345178 72.1902,6.8559797 71.1195,6.70144162 C69.4866,3.25548223 66.7107,2.58881218 65.0235,2.75083756 C61.8645,-0.186284264 58.9425,-0.25606599 57.0168,0.22342132 C55.7469,0.540284264 54.7527,1.13417766 54.1359,1.58191878 C53.5194,1.13357868 52.5246,0.540284264 51.255,0.22342132 C49.3293,-0.256964467 46.4073,-0.186883249 43.2483,2.75083756 C41.5593,2.5882132 38.7846,3.25548223 37.1523,6.70144162 C36.0816,6.8556802 33.9732,7.40315228 32.1684,9.33847208 C29.8527,11.8209645 28.8384,15.6688426 29.1507,20.7790812 C28.719,21.5119391 27.6915,23.4685228 27.3837,25.9246599 C27.036,28.7078426 27.567,32.6326904 31.926,35.8171929 C31.4208,38.7941472 31.899,43.9187614 36.6615,46.4386904 C36.4638,47.5216548 36.3327,49.4000711 37.3011,51.0056497 C38.0625,52.2686091 39.3204,53.099401 41.0442,53.4791574 C41.9145,54.8199848 44.9145,58.9727462 48.6582,58.9727462 C48.6819,58.9727462 48.7062,58.9727462 48.7299,58.9721472 C50.7369,58.9433959 52.5504,57.759203 54.1356,55.4468223 C55.7214,57.7586041 57.5349,58.9433959 59.5413,58.9721472 C63.3126,59.0272538 66.3513,54.8283706 67.2273,53.4791574 C68.9511,53.099401 70.2093,52.2689086 70.9704,51.0056497 C71.9391,49.4000711 71.8074,47.5213553 71.61,46.4386904 C76.3731,43.9187614 76.8513,38.7941472 76.3461,35.8171929 C80.7054,32.6326904 81.2367,28.7081421 80.8881,25.9246599 Z M74.6382,34.5152995 C74.2782,34.7548934 74.1078,35.1945482 74.2128,35.6138376 C74.2824,35.8917665 75.8481,42.440467 70.0185,44.9343401 C69.5286,45.1439848 69.2817,45.6929543 69.4503,46.1972995 C69.4575,46.2191624 70.1478,48.4075533 69.2157,49.9520355 C68.7105,50.7903147 67.7712,51.3291015 66.4257,51.5528223 C66.1257,51.6025381 65.8635,51.7834315 65.7099,52.0451878 C64.9092,53.4093756 62.2617,56.9284112 59.6124,56.9284112 C59.5977,56.9284112 59.5821,56.9284112 59.5668,56.9284112 C57.9735,56.9038528 56.4549,55.5911777 55.0536,53.0269239 C54.8739,52.6986802 54.4905,52.4944264 54.1155,52.4944264 C53.7405,52.4944264 53.3961,52.6983807 53.2164,53.0269239 C51.8157,55.5911777 50.2971,56.9038528 48.7032,56.9284112 C46.0509,56.9709391 43.3656,53.4174619 42.5601,52.0451878 C42.4065,51.7834315 42.1437,51.6025381 41.8443,51.5528223 C40.503,51.329401 39.5658,50.7933096 39.0594,49.9601218 C38.1159,48.4072538 38.814,46.2161675 38.8203,46.197 C38.9883,45.6926548 38.742,45.1436853 38.2521,44.9340406 C32.4531,42.4530457 33.9906,35.8896701 34.0584,35.6135381 C34.1634,35.1945482 33.993,34.7548934 33.633,34.515 C25.9938,29.4308173 30.8376,21.9192487 31.0464,21.6038832 C31.1724,21.415203 31.2318,21.1899848 31.2159,20.963868 C30.882,16.302868 31.6968,12.8715838 33.6372,10.7640558 C35.5029,8.73798985 37.761,8.68587817 37.8495,8.6846802 C38.2683,8.6846802 38.6445,8.43011168 38.8002,8.04226904 C39.9462,5.18301523 41.7876,4.77450761 42.7452,4.77450761 C43.0533,4.77450761 43.2705,4.81703553 43.3422,4.83380711 C43.6914,4.9206599 44.0601,4.81913198 44.3145,4.56486294 C46.3983,2.48548731 48.54,1.68674112 50.6805,2.18869036 C52.3185,2.57293909 53.385,3.6028934 53.3922,3.61008122 C53.5842,3.80175635 53.8449,3.9095736 54.1161,3.9095736 L54.1551,3.9095736 C54.4266,3.9095736 54.687,3.80175635 54.879,3.61008122 C54.8892,3.59989848 55.9194,2.60468528 57.5133,2.20695939 C59.679,1.66667513 61.8474,2.45883249 63.9567,4.56486294 C64.2054,4.81374112 64.5741,4.91407107 64.9194,4.83620305 C65.2251,4.76612183 67.956,4.26177665 69.471,8.04256853 C69.6246,8.42591878 70.0014,8.67988832 70.4151,8.6849797 C70.5102,8.68647716 72.7683,8.73798985 74.634,10.7643553 C76.5741,12.8718832 77.3886,16.303467 77.0553,20.9641675 C77.0394,21.1899848 77.0988,21.4155025 77.2248,21.6041827 C77.238,21.6236497 78.5298,23.5829289 78.855,26.1789289 C79.2789,29.5658883 77.8602,32.370934 74.6382,34.5152995 Z" id="Shape" stroke="#42566C" stroke-width="0.2" fill="#42566C"></path>
                    <path d="M71.3553,7.3396599 C71.1762,6.80386802 70.5951,6.51515736 70.0599,6.69305584 C63.6918,8.81226396 63.6183,14.1249594 63.6183,14.3498782 C63.6183,14.9117259 64.0725,15.3648579 64.635,15.3684518 C64.6377,15.3684518 64.6401,15.3684518 64.6422,15.3684518 C65.2017,15.3684518 65.6586,14.9156193 65.6661,14.3567665 C65.6688,14.1905482 65.7792,10.2722893 70.7073,8.63256853 C71.244,8.45407107 71.5338,7.87545178 71.3553,7.3396599 Z" id="Shape" fill="#42566C"></path>
                    <path d="M75.9816,34.7453096 C75.6387,34.2966701 74.997,34.2095178 74.5464,34.5521371 C72.8778,35.8213858 71.3688,36.2736193 70.0644,35.8983553 C67.7403,35.2301878 66.5694,32.1741675 66.5583,32.1430203 C66.3618,31.6144162 65.7723,31.3439746 65.244,31.5404416 C64.7136,31.7357107 64.4421,32.3239137 64.6383,32.8534162 C64.6992,33.0181371 66.1683,36.8965635 69.4854,37.8594315 C69.9801,38.0031878 70.4844,38.0747665 70.9974,38.0747665 C72.5241,38.0747665 74.1297,37.4404416 75.7881,36.1780812 C76.2378,35.8360609 76.3242,35.1939492 75.9816,34.7453096 Z" id="Shape" fill="#42566C"></path>
                    <path d="M58.6683,35.5979645 C58.269,35.1987411 57.6198,35.1987411 57.2205,35.5979645 C56.8206,35.9971878 56.8206,36.6443909 57.2205,37.0433147 C60.5454,40.3625888 59.8557,43.5695533 59.8203,43.7213959 C59.6871,44.2673706 60.0204,44.8181371 60.5667,44.9547056 C60.6495,44.9750711 60.7332,44.9852538 60.8154,44.9852538 C61.2741,44.9852538 61.692,44.6749797 61.8081,44.210467 C61.8534,44.0316701 62.8575,39.7800761 58.6683,35.5979645 Z" id="Shape" fill="#E83F67"></path>
                    <path d="M74.5557,26.017802 C74.3631,25.4882995 73.776,25.214264 73.245,25.4050406 C73.0377,25.4790152 68.1552,27.1834264 65.562,23.7377665 C64.215,21.9482995 63.6363,20.415797 63.171,19.1845838 C62.6001,17.6742437 62.0616,16.2471624 60.2715,16.0998122 C59.7129,16.0527919 59.2131,16.4717817 59.1672,17.0345279 C59.1207,17.5966751 59.5398,18.0905381 60.1035,18.1369594 C60.5322,18.1717005 60.6933,18.4199797 61.2546,19.9054619 C61.7391,21.1869898 62.4021,22.9420152 63.9246,24.9650863 C65.709,27.335868 68.1984,27.9312589 70.251,27.9312589 C72.2382,27.9312589 73.8156,27.3727056 73.9455,27.3259848 C74.4759,27.1328122 74.7483,26.5476041 74.5557,26.017802 Z" id="Shape" fill="#E83F67"></path>
                    <path d="M54.1167,1.86463959 C53.5515,1.86463959 53.0928,2.32256345 53.0928,2.88680711 L53.0928,53.5150964 C53.0928,54.0793401 53.5515,54.537264 54.1167,54.537264 C54.6819,54.537264 55.1406,54.0799391 55.1406,53.5153959 L55.1406,2.88680711 C55.1406,2.32256345 54.6819,1.86463959 54.1167,1.86463959 Z" id="Shape" fill="#42566C"></path>
                    <path d="M61.6038,10.6715127 C61.5957,10.107269 61.1475,9.64934518 60.5649,9.6640203 C59.9991,9.6721066 59.5476,10.1369188 59.5557,10.7011624 C59.5566,10.7649543 59.6124,17.1387513 56.4198,21.181 C56.0697,21.6245482 56.1453,22.2672589 56.5899,22.6167665 C56.7777,22.7650152 57.0009,22.8365939 57.2232,22.8365939 C57.5259,22.8365939 57.8259,22.7033198 58.0275,22.4472538 C61.6656,17.8416599 61.6077,10.9623198 61.6038,10.6715127 Z" id="Shape" fill="#E83F67"></path>
                    <path d="M63.6855,41.9849391 C59.1717,41.9849391 57.0603,48.1526853 56.9727,48.4156396 C56.7939,48.9508325 57.0834,49.5282538 57.6195,49.7076497 C57.7269,49.7438883 57.8367,49.7606599 57.9441,49.7606599 C58.3722,49.7606599 58.7715,49.4908173 58.9155,49.0628426 C59.3871,47.6627157 61.1637,44.0292741 63.6858,44.0292741 C64.251,44.0292741 64.7097,43.5713503 64.7097,43.0071066 C64.7097,42.4428629 64.2507,41.9849391 63.6855,41.9849391 Z" id="Shape" fill="#E83F67"></path>
                    <path d="M64.839,2.59180711 C64.3863,2.25487817 63.7443,2.34861929 63.4065,2.80175127 L60.9498,6.09706599 C60.6123,6.54929949 60.7065,7.18991371 61.1601,7.52714213 C61.3434,7.66401015 61.5573,7.72959898 61.7703,7.72959898 C62.0832,7.72959898 62.3919,7.58763959 62.5926,7.31719797 L65.0493,4.02188325 C65.3868,3.56964975 65.2926,2.92933503 64.839,2.59180711 Z" id="Shape" fill="#42566C"></path>
                    <path d="M43.8753,9.19890863 C41.6169,9.19890863 39.7794,11.0332995 39.7794,13.2878782 C39.7794,15.5424569 41.6169,17.3768477 43.8753,17.3768477 C46.1337,17.3768477 47.9712,15.5424569 47.9712,13.2878782 C47.9712,11.0332995 46.1337,9.19890863 43.8753,9.19890863 Z M43.8753,15.3325127 C42.7458,15.3325127 41.8272,14.415467 41.8272,13.2878782 C41.8272,12.1602893 42.7458,11.2432437 43.8753,11.2432437 C45.0048,11.2432437 45.9234,12.1602893 45.9234,13.2878782 C45.9231,14.415467 45.0045,15.3325127 43.8753,15.3325127 Z" id="Shape" fill="#E83F67"></path>
                    <path d="M36.7071,22.4882843 C34.4487,22.4882843 32.6112,24.3226751 32.6112,26.5772538 C32.6112,28.8318325 34.4487,30.6662234 36.7071,30.6662234 C38.9655,30.6662234 40.803,28.8318325 40.803,26.5772538 C40.8033,24.3226751 38.9655,22.4882843 36.7071,22.4882843 Z M36.7071,28.6218883 C35.5776,28.6218883 34.659,27.7048426 34.659,26.5772538 C34.659,25.449665 35.5776,24.5326193 36.7071,24.5326193 C37.8366,24.5326193 38.7552,25.449665 38.7552,26.5772538 C38.7552,27.7048426 37.8366,28.6218883 36.7071,28.6218883 Z" id="Shape" fill="#E83F67"></path>
                    <path d="M46.9473,31.6886904 C44.6889,31.6886904 42.8514,33.5230812 42.8514,35.7776599 C42.8514,38.0322386 44.6889,39.8666294 46.9473,39.8666294 C49.2057,39.8666294 51.0432,38.0322386 51.0432,35.7776599 C51.0432,33.5230812 49.2057,31.6886904 46.9473,31.6886904 Z M46.9473,37.8222944 C45.8178,37.8222944 44.8992,36.9052487 44.8992,35.7776599 C44.8992,34.6500711 45.8178,33.7330254 46.9473,33.7330254 C48.0768,33.7330254 48.9954,34.6500711 48.9954,35.7776599 C48.9954,36.9052487 48.0765,37.8222944 46.9473,37.8222944 Z" id="Shape" fill="#E83F67"></path>
                    <path d="M46.9473,42.933731 C44.6889,42.933731 42.8514,44.7681218 42.8514,47.0227005 C42.8514,49.2772792 44.6889,51.1116701 46.9473,51.1116701 C49.2057,51.1116701 51.0432,49.2772792 51.0432,47.0227005 C51.0432,44.7681218 49.2057,42.933731 46.9473,42.933731 Z M46.9473,49.067335 C45.8178,49.067335 44.8992,48.1502893 44.8992,47.0227005 C44.8992,45.8951117 45.8178,44.978066 46.9473,44.978066 C48.0768,44.978066 48.9954,45.8951117 48.9954,47.0227005 C48.9951,48.1502893 48.0765,49.067335 46.9473,49.067335 Z" id="Shape" fill="#E83F67"></path>
                    <path d="M43.8753,15.3325127 C43.3101,15.3325127 42.8514,15.7904365 42.8514,16.3546802 L42.8514,26.5772538 C42.8514,27.1414975 43.3101,27.5994213 43.8753,27.5994213 C44.4411,27.5994213 44.8992,27.1420964 44.8992,26.5772538 L44.8992,16.3546802 C44.8992,15.7904365 44.4405,15.3325127 43.8753,15.3325127 Z" id="Shape" fill="#E83F67"></path>
                    <path d="M46.9473,25.5550863 L39.7791,25.5550863 C39.2139,25.5550863 38.7552,26.0130102 38.7552,26.5772538 C38.7552,27.1414975 39.2139,27.5994213 39.7791,27.5994213 L46.947,27.5994213 C47.5128,27.5994213 47.9709,27.1414975 47.9709,26.5772538 C47.9712,26.0130102 47.5125,25.5550863 46.9473,25.5550863 Z" id="Shape" fill="#E83F67"></path>
                    <path d="M46.9473,25.5550863 C46.3821,25.5550863 45.9234,26.0130102 45.9234,26.5772538 L45.9234,32.7108579 C45.9234,33.2751015 46.3821,33.7330254 46.9473,33.7330254 C47.5131,33.7330254 47.9712,33.2757005 47.9712,32.7108579 L47.9712,26.5772538 C47.9712,26.0130102 47.5125,25.5550863 46.9473,25.5550863 Z" id="Shape" fill="#E83F67"></path>
                    <path d="M46.9473,37.8222944 C46.3821,37.8222944 45.9234,38.2802183 45.9234,38.8444619 L45.9234,43.9558985 C45.9234,44.5201421 46.3821,44.978066 46.9473,44.978066 C47.5131,44.978066 47.9712,44.5207411 47.9712,43.9558985 L47.9712,38.8444619 C47.9712,38.2802183 47.5125,37.8222944 46.9473,37.8222944 Z" id="Shape" fill="#E83F67"></path>
                </g>
            </g>
        </g>
    </g>
</svg>