<svg xmlns="http://www.w3.org/2000/svg" viewBox="0 0 134 139"><defs><style>.cls-1{fill:#424a60;}.cls-2{fill:#686e80;}.cls-3{fill:#8e92a0;}.cls-4{fill:#b3b7bf;}.cls-5{fill:#f05244;}.cls-6,.cls-8{fill:none;stroke:#395368;stroke-linecap:square;}.cls-6{stroke-width:6.3px;}.cls-7{fill:#f9a53d;}.cls-8{stroke-width:3.6px;}</style></defs><title>Asset 1</title><g id="Layer_2" data-name="Layer 2"><g id="Layer_1-2" data-name="Layer 1"><g id="Page-1"><g id="Large-Device-Desktops"><g id="Group-9"><g id="Group-25"><g id="Group-9-2" data-name="Group-9"><g id="Group-23"><g id="Group-11"><rect id="Rectangle-2" class="cls-1" x="98.03" y="45.13" width="17.09" height="93.87" rx="2.7" ry="2.7"/><path id="Rectangle-2-2" data-name="Rectangle-2" class="cls-2" d="M85.74,56.86c1.29-.09,3,0,4.25,0h0a2.67,2.67,0,0,1,2.64,2.67V136.3a2.7,2.7,0,0,1-2.7,2.7H78.24a2.7,2.7,0,0,1-2.7-2.7V73.12A32.81,32.81,0,0,0,85.74,56.86Z"/><path id="Rectangle-2-3" data-name="Rectangle-2" class="cls-3" d="M54.82,82.85l11.69-4.33a2.71,2.71,0,0,1,3.64,2.53V136.3a2.7,2.7,0,0,1-2.7,2.7H55.76a2.7,2.7,0,0,1-2.7-2.7V85.38A2.69,2.69,0,0,1,54.82,82.85Z"/><rect id="Rectangle-2-4" data-name="Rectangle-2" class="cls-4" x="30.58" y="90.26" width="17.09" height="48.74" rx="2.7" ry="2.7"/><g id="search-_2_" data-name="search-(2)"><path id="Shape" class="cls-5" d="M1.29,88.77,22.13,67.1a35.34,35.34,0,1,1,6.8,6.23l-21,21.83a4.55,4.55,0,0,1-3.32,1.42,4.61,4.61,0,0,1-3.32-7.81ZM49.18,18.25A26.13,26.13,0,1,0,75.31,44.38,26.16,26.16,0,0,0,49.18,18.25Z"/><path id="Line-5" class="cls-6" d="M49.91,42,65.2,29.33"/><ellipse id="Oval-8" class="cls-7" cx="44.97" cy="46.03" rx="9.89" ry="9.93"/><path id="Line-2" class="cls-8" d="M126.36,6.77,109.27,21.21"/><path id="Line-4" class="cls-8" d="M103,23,87.68,19.41"/><ellipse id="Oval-7" class="cls-7" cx="84.54" cy="18.95" rx="5.4" ry="5.42"/><ellipse id="Oval-7-2" data-name="Oval-7" class="cls-7" cx="106.12" cy="22.56" rx="5.4" ry="5.42"/><ellipse id="Oval-7-3" data-name="Oval-7" class="cls-7" cx="128.6" cy="5.42" rx="5.4" ry="5.42"/></g></g></g></g></g></g></g></g></g></g></svg>