<svg xmlns="http://www.w3.org/2000/svg" viewBox="0 0 111.72 129.64"><defs><style>.cls-1{fill:#545e73;}.cls-2{fill:#424a60;}.cls-3{fill:#38454f;}.cls-4{fill:#686e80;}.cls-5{fill:#556080;}.cls-6{fill:#b3b7bf;}.cls-7{fill:#8e92a0;}.cls-8{fill:#8697cb;}.cls-9{fill:#f9a53d;}.cls-10{fill:#f05244;}</style></defs><title>Asset 2</title><g id="Layer_2" data-name="Layer 2"><g id="Layer_1-2" data-name="Layer 1"><g id="Page-1"><g id="Large-Device-Desktops"><g id="Group-9"><g id="Group-25"><g id="Group-21"><g id="Group-12"><g id="database-_2_" data-name="database-(2)"><path id="Shape" class="cls-1" d="M102.62,17.14C101.06,7.58,78.71,0,51.36,0S1.66,7.58.09,17.14H0V96.43H.1C1.66,106,24,113.57,51.36,113.57s49.7-7.58,51.26-17.14h.1V17.14Z"/><g id="Group"><path id="Shape-2" data-name="Shape" class="cls-2" d="M51.36,87.86C23,87.86,0,79.7,0,69.64V96.43H.1C1.66,106,24,113.57,51.36,113.57s49.7-7.58,51.26-17.14h.1V69.64C102.72,79.7,79.72,87.86,51.36,87.86Z"/><path id="Shape-3" data-name="Shape" class="cls-3" d="M0,68.57v1.07a6.46,6.46,0,0,1,.1-1.07Z"/><path id="Shape-4" data-name="Shape" class="cls-3" d="M102.62,68.57a6.46,6.46,0,0,1,.1,1.07V68.57Z"/></g><g id="Group-2" data-name="Group"><path id="Shape-5" data-name="Shape" class="cls-4" d="M51.36,62.14C23,62.14,0,54,0,43.93V70.71H.1C1.66,80.27,24,87.86,51.36,87.86s49.7-7.59,51.26-17.15h.1V43.93C102.72,54,79.72,62.14,51.36,62.14Z"/><path id="Shape-6" data-name="Shape" class="cls-5" d="M0,42.86v1.07a6.36,6.36,0,0,1,.1-1.07Z"/><path id="Shape-7" data-name="Shape" class="cls-5" d="M102.62,42.86a6.36,6.36,0,0,1,.1,1.07V42.86Z"/></g><ellipse id="Oval" class="cls-6" cx="51.36" cy="18.21" rx="51.36" ry="18.21"/><g id="Group-3" data-name="Group"><path id="Shape-8" data-name="Shape" class="cls-7" d="M51.36,36.43C23,36.43,0,28.27,0,18.21V45H.1C1.66,54.56,24,62.14,51.36,62.14s49.7-7.58,51.26-17.14h.1V18.21C102.72,28.27,79.72,36.43,51.36,36.43Z"/><path id="Shape-9" data-name="Shape" class="cls-8" d="M0,17.14v1.07a6.46,6.46,0,0,1,.1-1.07Z"/><path id="Shape-10" data-name="Shape" class="cls-8" d="M102.62,17.14a6.46,6.46,0,0,1,.1,1.07V17.14Z"/></g></g><path id="Shape-11" data-name="Shape" class="cls-9" d="M89.49,81.58a25.93,25.93,0,0,0,0-6.1A5.74,5.74,0,0,1,86.07,65a26.93,26.93,0,0,0-3.6-4.94,5.76,5.76,0,0,1-8.94-6.47,27.41,27.41,0,0,0-5.83-1.89,5.78,5.78,0,0,1-11.06,0,27.6,27.6,0,0,0-5.83,1.89,5.76,5.76,0,0,1-8.94,6.47A27.41,27.41,0,0,0,38.27,65a5.74,5.74,0,0,1-3.42,10.47,27.45,27.45,0,0,0,0,6.1,5.74,5.74,0,0,1,3.42,10.47A27.41,27.41,0,0,0,41.87,97a5.76,5.76,0,0,1,8.94,6.47,27.6,27.6,0,0,0,5.83,1.89,5.78,5.78,0,0,1,11.06,0,27.41,27.41,0,0,0,5.83-1.89A5.76,5.76,0,0,1,82.47,97a26.93,26.93,0,0,0,3.6-4.94,5.74,5.74,0,0,1,3.42-10.47ZM62.17,88.11a9.58,9.58,0,1,1,9.62-9.58A9.6,9.6,0,0,1,62.17,88.11Z"/><path id="Shape-12" data-name="Shape" class="cls-10" d="M111.61,115.06a16.34,16.34,0,0,0,.11-1.87,16.61,16.61,0,0,0-.11-1.87,3.52,3.52,0,0,1-2.09-6.42,17.42,17.42,0,0,0-2.21-3,3.54,3.54,0,0,1-5.49-4,17.14,17.14,0,0,0-3.57-1.16,3.54,3.54,0,0,1-6.78,0,17.23,17.23,0,0,0-3.58,1.16,3.5,3.5,0,0,1-1.26,4,3.54,3.54,0,0,1-4.22,0,16.45,16.45,0,0,0-2.21,3,3.52,3.52,0,0,1-2.1,6.42,16.61,16.61,0,0,0-.1,1.87,16.36,16.36,0,0,0,.1,1.87,3.52,3.52,0,0,1,2.1,6.42,16.12,16.12,0,0,0,2.21,3,3.55,3.55,0,0,1,4.22,0,3.49,3.49,0,0,1,1.26,4,16.66,16.66,0,0,0,3.58,1.16,3.54,3.54,0,0,1,6.78,0,16.57,16.57,0,0,0,3.57-1.16,3.52,3.52,0,0,1,1.26-4,3.55,3.55,0,0,1,4.23,0,17.05,17.05,0,0,0,2.21-3,3.52,3.52,0,0,1,2.09-6.42Zm-16.75,4a5.88,5.88,0,1,1,5.9-5.88A5.89,5.89,0,0,1,94.86,119.07Z"/></g></g></g></g></g></g></g></g></svg>