<?xml version="1.0" encoding="UTF-8"?>
<svg width="56px" height="67px" viewBox="0 0 56 67" version="1.1" xmlns="http://www.w3.org/2000/svg" xmlns:xlink="http://www.w3.org/1999/xlink">
    <!-- Generator: Sketch 49 (51002) - http://www.bohemiancoding.com/sketch -->
    <title>lightbulb (1)</title>
    <desc>Created with Sketch.</desc>
    <defs></defs>
    <g id="Page-1" stroke="none" stroke-width="1" fill="none" fill-rule="evenodd">
        <g id="Large-Device-Desktops" transform="translate(-1019.000000, -2354.000000)" fill-rule="nonzero">
            <g id="Group-7" transform="translate(900.000000, 2328.000000)">
                <g id="lightbulb-(1)" transform="translate(119.000000, 26.000000)">
                    <path d="M28.0818343,14.4212471 C18.6144309,14.4212471 10.8796243,22.1579677 10.8796243,31.6277136 C10.8796243,36.5792148 13.0453702,41.3450346 16.6961989,44.5635104 C19.4188508,47.286836 19.171337,53.1048499 19.1094586,53.1667436 C19.1094586,53.4762125 19.171337,53.7237875 19.4188508,53.9713626 C19.6044862,54.1570439 19.9138785,54.2808314 20.1613923,54.2808314 L35.9403978,54.2808314 C36.2497901,54.2808314 36.4973039,54.1570439 36.6829392,53.9713626 C36.8685746,53.7856813 36.9923315,53.4762125 36.9923315,53.1667436 C36.9923315,53.1048499 36.6829392,47.286836 39.4055912,44.5635104 C39.4674696,44.5016166 39.5293481,44.4397229 39.5912265,44.3778291 C43.1801768,41.0974596 45.2840442,36.4554273 45.2840442,31.6277136 C45.2840442,22.1579677 37.5492376,14.4212471 28.0818343,14.4212471 Z M37.9823867,42.9542725 C37.9205083,43.0161663 37.7967514,43.1399538 37.7967514,43.2018476 C35.3834917,45.8013857 34.9503425,50.0720554 34.8884641,52.1145497 L21.213326,52.1145497 C21.1514475,50.0720554 20.7182983,45.6157044 18.1194033,42.9542725 C14.8398453,40.1071594 12.9216133,35.9602771 12.9216133,31.5658199 C12.9216133,23.2101617 19.6663646,16.4637413 28.0199558,16.4637413 C36.373547,16.4637413 43.1182983,23.2101617 43.1182983,31.5658199 C43.1182983,35.9602771 41.2619448,40.1071594 37.9823867,42.9542725 Z" id="Shape" fill="#42566C"></path>
                    <path d="M28.0199558,18.8157044 C27.4630497,18.8157044 26.9680221,19.3108545 26.9680221,19.8678984 C26.9680221,20.4249423 27.4630497,20.9200924 28.0199558,20.9200924 C34.2696796,20.9200924 39.2818343,25.9953811 39.2818343,32.1847575 C39.2818343,32.7418014 39.7768619,33.2369515 40.333768,33.2369515 C40.890674,33.2369515 41.3857017,32.7418014 41.3857017,32.1847575 C41.4475801,24.8193995 35.4453702,18.8157044 28.0199558,18.8157044 Z" id="Shape" fill="#E83F67"></path>
                    <path d="M34.8884641,55.4568129 L21.1514475,55.4568129 C19.7282431,55.4568129 18.5525525,56.6327945 18.5525525,58.056351 C18.5525525,59.4799076 19.7282431,60.6558891 21.1514475,60.6558891 L34.8265856,60.6558891 C36.3116685,60.5939954 37.4873591,59.4799076 37.4873591,58.056351 C37.4873591,56.6327945 36.3116685,55.4568129 34.8884641,55.4568129 Z M34.8884641,58.4896074 L21.1514475,58.4896074 C20.9039337,58.4896074 20.6564199,58.3039261 20.6564199,57.9944573 C20.6564199,57.6849885 20.8420552,57.4993072 21.1514475,57.4993072 L34.8265856,57.4993072 C35.0740994,57.4993072 35.3216133,57.6849885 35.3216133,57.9944573 C35.3216133,58.3039261 35.1359779,58.4896074 34.8884641,58.4896074 Z" id="Shape" fill="#42566C"></path>
                    <path d="M32.8464751,61.7080831 L23.1934365,61.7080831 C21.770232,61.7080831 20.5945414,62.8840647 20.5945414,64.3076212 C20.5945414,65.7311778 21.770232,66.9071594 23.1934365,66.9071594 L32.8464751,66.9071594 C34.2696796,66.9071594 35.4453702,65.7311778 35.4453702,64.3076212 C35.4453702,62.8221709 34.2696796,61.7080831 32.8464751,61.7080831 Z M32.8464751,64.7408776 L23.1934365,64.7408776 C22.9459227,64.7408776 22.6984088,64.5551963 22.6984088,64.2457275 C22.6984088,63.9362587 22.8840442,63.7505774 23.1934365,63.7505774 L32.8464751,63.7505774 C33.093989,63.7505774 33.3415028,63.9362587 33.3415028,64.2457275 C33.3415028,64.5551963 33.093989,64.7408776 32.8464751,64.7408776 Z" id="Shape" fill="#42566C"></path>
                    <path d="M28.0199558,9.28406467 C28.6387403,9.28406467 29.0718895,8.78891455 29.0718895,8.23187067 L29.0718895,1.052194 C29.0718895,0.495150115 28.5768619,0 28.0199558,0 C27.4630497,0 26.9680221,0.495150115 26.9680221,1.052194 L26.9680221,8.23187067 C26.9680221,8.78891455 27.4630497,9.28406467 28.0199558,9.28406467 Z" id="Shape" fill="#E83F67"></path>
                    <path d="M45.531558,5.32286374 C45.0365304,4.95150115 44.4177459,5.13718245 44.1083536,5.5704388 L40.1481326,11.5122402 C39.7768619,12.0073903 39.9006188,12.6882217 40.3956464,12.9976905 C40.5812818,13.1214781 40.7669171,13.1833718 40.9525525,13.1833718 C41.3238232,13.1833718 41.6332155,12.9976905 41.8188508,12.6882217 L45.7790718,6.74642032 C46.1503425,6.31316397 46.0265856,5.63233256 45.531558,5.32286374 Z" id="Shape" fill="#E83F67"></path>
                    <path d="M15.4586298,12.9357968 C15.6442652,12.9357968 15.8299006,12.873903 16.0155359,12.7501155 C16.5105635,12.4406467 16.6343204,11.7598152 16.3249282,11.2646651 L12.4884641,5.26096998 C12.1790718,4.76581986 11.4984088,4.64203233 11.0033812,4.95150115 C10.5083536,5.26096998 10.3845967,5.94180139 10.693989,6.4369515 L14.530453,12.4406467 C14.7779669,12.8120092 15.0873591,12.9357968 15.4586298,12.9357968 Z" id="Shape" fill="#E83F67"></path>
                    <path d="M7.97133702,19.4965358 L1.72161326,16.0923788 C1.22658564,15.8448037 0.545922652,16.030485 0.29840884,16.5256351 C-0.0109834254,17.0207852 0.174651934,17.7016166 0.731558011,17.9491917 L6.98128177,21.3533487 C7.16691713,21.4152425 7.29067403,21.4771363 7.47630939,21.4771363 C7.84758011,21.4771363 8.21885083,21.291455 8.40448619,20.9200924 C8.652,20.4249423 8.46636464,19.7441109 7.97133702,19.4965358 Z" id="Shape" fill="#E83F67"></path>
                    <path d="M55.8033812,16.5256351 C55.5558674,16.030485 54.8752044,15.8448037 54.3801768,16.0923788 L48.0685746,19.4965358 C47.573547,19.7441109 47.3879116,20.4249423 47.6354254,20.9200924 C47.8210608,21.291455 48.1923315,21.4771363 48.5636022,21.4771363 C48.7492376,21.4771363 48.9348729,21.4152425 49.0586298,21.3533487 L55.370232,17.9491917 C55.8652597,17.7016166 56.050895,17.0207852 55.8033812,16.5256351 Z" id="Shape" fill="#E83F67"></path>
                </g>
            </g>
        </g>
    </g>
</svg>