<?xml version="1.0" encoding="UTF-8"?>
<svg width="81px" height="56px" viewBox="0 0 81 56" version="1.1" xmlns="http://www.w3.org/2000/svg" xmlns:xlink="http://www.w3.org/1999/xlink">
    <!-- Generator: Sketch 49 (51002) - http://www.bohemiancoding.com/sketch -->
    <title>Group 15</title>
    <desc>Created with Sketch.</desc>
    <defs></defs>
    <g id="Page-1" stroke="none" stroke-width="1" fill="none" fill-rule="evenodd">
        <g id="Large-Device-Desktops" transform="translate(-691.000000, -2360.000000)">
            <g id="Group-7" transform="translate(573.000000, 2328.000000)">
                <g id="Group-3">
                    <g id="Group-15" transform="translate(118.000000, 32.000000)">
                        <g id="happiness" transform="translate(46.000000, 6.000000)">
                            <path d="M12.4996959,0 C8.73759034,0 5.18817147,0.928138379 2.06839368,2.56746078 C-0.56262207,5.35168457 10.5994873,11.5025393 8.65722656,23.4064941 C8.36694715,26.6321566 7.27102366,29.8740268 6.4675293,31.888916 C3.56908964,39.157212 -1.49941607,39.7963754 0.521484375,41.3261719 C4.2935891,44.1816082 7.41479736,44.9993919 12.4996959,44.9993919 C20.6815002,44.9993919 34.9993919,39.2800293 34.9993919,22.4996959 C34.9993919,10.0933845 24.9061655,0 12.4996959,0 Z M12.4492691,42.7831757 C7.97915042,42.7831757 5.00003873,41.8635767 1.64405543,39.4044085 C1.21933194,39.0931833 9.12736609,31.4753248 9.21630859,23.072998 C9.30051328,15.1182489 0.300011824,5.86018305 3.58491832,4.25749472 C6.26436607,2.95020647 9.27271374,2.21621622 12.4492691,2.21621622 C17.7542477,2.21621622 22.5891649,4.26426405 26.2073623,7.61016692 C28.0833053,9.34473805 29.6324027,11.4278215 30.7493939,13.7561544 C32.0202039,16.4051863 32.7327488,19.3707681 32.7327488,22.4996959 C32.7327488,33.6840532 23.6336263,42.7831757 12.4492691,42.7831757 Z" id="Shape" fill="#42566C" fill-rule="nonzero"></path>
                            <circle id="Oval-6" stroke="#E83F67" stroke-width="2" cx="21" cy="17" r="3"></circle>
                            <path d="M12.4566723,34.9654561 C17.1625169,34.9654561 21.6723986,32.5588682 24.2545777,28.5631419 L22.2114865,27.2429392 C19.840473,30.9121115 15.5019257,32.9599155 11.1601858,32.4586824 C10.3408847,32.36421 9.5365065,32.1783382 8.76147756,31.9100607 C6.33496331,31.0701189 6.00240542,33.8934698 9.59941442,34.6640534 C10.0223532,34.7546592 10.4501493,34.8252723 10.8813682,34.875 C11.4075338,34.9358108 11.9329392,34.9654561 12.4566723,34.9654561 Z" id="Shape" fill="#E83F67" fill-rule="nonzero" transform="translate(15.586105, 31.104198) scale(1, -1) translate(-15.586105, -31.104198) "></path>
                        </g>
                        <g id="happiness" fill-rule="nonzero">
                            <path d="M27.9996216,0 C12.5606486,0 0,12.5606486 0,27.9996216 C0,43.4385946 12.5606486,55.9992432 27.9996216,55.9992432 C43.4385946,55.9992432 55.9992432,43.4385946 55.9992432,27.9996216 C55.9992432,12.5606486 43.4387838,0 27.9996216,0 Z M27.9996216,53.4857297 C20.9991381,53.4857297 14.6495256,50.6482334 10.0387871,46.0637537 C8.19758097,44.2329738 6.6346024,42.123001 5.4176223,39.8041162 C3.56425216,36.2728852 2.51351351,32.2568316 2.51351351,27.9996216 C2.51351351,13.9465231 13.9465231,2.51351351 27.9996216,2.51351351 C34.6653053,2.51351351 40.7403587,5.08687712 45.2866087,9.29099019 C47.6437232,11.4704716 49.5901577,14.0878573 50.9936526,17.013398 C52.5904201,20.3418955 53.4857297,24.0681368 53.4857297,27.9996216 C53.4857297,42.0527201 42.0527201,53.4857297 27.9996216,53.4857297 Z" id="Shape" fill="#42566C"></path>
                            <path d="M18.4289189,21.6432432 C20.0559459,21.6432432 21.3797027,22.8913243 21.3797027,24.594027 L24.4067297,24.594027 C24.4067297,21.1886216 21.7251622,18.6162162 18.4289189,18.6162162 C15.1326757,18.6162162 12.4511081,21.1886216 12.4511081,24.594027 L15.4781351,24.594027 C15.4781351,22.8913243 16.8020811,21.6432432 18.4289189,21.6432432 Z" id="Shape" fill="#E83F67"></path>
                            <path d="M37.5699459,21.6432432 C39.196973,21.6432432 40.5207297,22.8913243 40.5207297,24.594027 L43.5477568,24.594027 C43.5477568,21.1886216 40.8661892,18.6162162 37.5699459,18.6162162 C34.2737027,18.6162162 31.5921351,21.1886216 31.5921351,24.594027 L34.6191622,24.594027 C34.6191622,22.8913243 35.9429189,21.6432432 37.5699459,21.6432432 Z" id="Shape" fill="#E83F67"></path>
                            <path d="M27.9460811,43.5125676 C33.8022432,43.5125676 39.4145405,40.5177027 42.6279189,35.5452432 L40.0854054,33.9023243 C37.1348108,38.4684054 31.7357297,41.0167838 26.3326757,40.393027 C22.1209459,39.9073784 18.2261081,37.4808378 15.9136486,33.9023243 L13.3713243,35.5452432 C16.1694324,39.8755946 20.8851622,42.8118108 25.9857027,43.4 C26.6404865,43.4756757 27.2943243,43.5125676 27.9460811,43.5125676 Z" id="Shape" fill="#E83F67"></path>
                        </g>
                    </g>
                </g>
            </g>
        </g>
    </g>
</svg>