<?xml version="1.0" encoding="UTF-8"?>
<svg width="467px" height="360px" viewBox="0 0 467 360" version="1.1" xmlns="http://www.w3.org/2000/svg" xmlns:xlink="http://www.w3.org/1999/xlink">
    <!-- Generator: Sketch 53.2 (72643) - https://sketchapp.com -->
    <title>Group 30</title>
    <desc>Created with Sketch.</desc>
    <defs>
        <linearGradient x1="42.4243528%" y1="46.31272%" x2="-40.8130363%" y2="-4.26628104%" id="linearGradient-1">
            <stop stop-color="#555191" offset="0%"></stop>
            <stop stop-color="#3C88BC" offset="100%"></stop>
        </linearGradient>
        <linearGradient x1="71.622164%" y1="65.8828813%" x2="10.4980469%" y2="23.0258824%" id="linearGradient-2">
            <stop stop-color="#555191" offset="0%"></stop>
            <stop stop-color="#3C88BC" offset="100%"></stop>
        </linearGradient>
        <linearGradient x1="62.7452283%" y1="70.1549919%" x2="28.7695903%" y2="17.0277525%" id="linearGradient-3">
            <stop stop-color="#555191" offset="0%"></stop>
            <stop stop-color="#3C88BC" offset="100%"></stop>
        </linearGradient>
        <linearGradient x1="45.8447623%" y1="31.2181825%" x2="20.8795679%" y2="-40.6742294%" id="linearGradient-4">
            <stop stop-color="#555191" offset="0%"></stop>
            <stop stop-color="#3C88BC" offset="100%"></stop>
        </linearGradient>
        <linearGradient x1="27.6829065%" y1="21.7771066%" x2="57.4799506%" y2="62.488259%" id="linearGradient-5">
            <stop stop-color="#3C88BC" offset="0%"></stop>
            <stop stop-color="#ABDAD9" offset="100%"></stop>
        </linearGradient>
        <path d="M64.0860537,94.0236671 C64.0977213,94.7269449 63.980962,95.4614093 63.7358976,96.2265755 C63.4909562,96.9918224 63.127108,97.7456538 62.6444549,98.4875708 C62.1620752,99.228873 61.5665047,99.9297519 60.8578,100.589845 C60.1494668,101.248812 59.36465,101.810535 58.503288,102.275085 L55.2173924,104.03908 L55.3389616,110.267799 L52.0074702,112.019755 L51.6555271,95.6818121 L58.3084211,92.0472111 C59.1733379,91.5708581 59.9623696,91.267428 60.6753436,91.1376261 C61.3883832,91.0077191 61.999068,91.0402978 62.5072925,91.2359103 C63.0154175,91.4321469 63.4026602,91.767983 63.6690083,92.2436468 C63.9352241,92.7202255 64.0742159,93.3135953 64.0860537,94.0236671 Z M60.7263288,95.8690004 C60.7184374,95.4327311 60.6072619,95.0989025 60.3927742,94.8675205 C60.1782372,94.6364539 59.8806633,94.5307226 59.5000822,94.5501183 C59.1195032,94.5695561 58.6857485,94.7126082 58.1988806,94.9789951 L55.0681213,96.6852768 L55.1595935,101.154878 L58.2847227,99.4673902 C58.7707118,99.2039236 59.2002047,98.877632 59.5732235,98.4885072 C59.9463569,98.0990483 60.2338512,97.6779693 60.4356785,97.2254537 C60.6375714,96.7728661 60.7344748,96.3206229 60.7263288,95.8690004 Z M79.4141012,91.3252936 C79.4252123,92.5005307 79.1547792,93.7020501 78.603255,94.9279795 C78.052212,96.1533572 77.2967653,97.2818477 76.3371232,98.312261 C75.378268,99.3404906 74.3093825,100.178558 73.130312,100.82665 C71.9518603,101.472775 70.8789021,101.811702 69.9109428,101.845115 C68.9429834,101.878792 68.1742267,101.596398 67.6043893,100.999272 C67.0342062,100.40421 66.7404638,99.5286718 66.7233208,98.3725796 L66.5542016,87.4703453 L69.9297499,85.5740198 L70.0824161,96.4093621 C70.0952127,97.3625989 70.3725853,97.9697988 70.9144978,98.2305868 C71.4562664,98.4921944 72.1831929,98.3720879 73.0956855,97.8687668 C74.0164215,97.3599154 74.7434764,96.6782066 75.2768467,95.8239665 C75.8105638,94.9689923 76.0723082,94.0565332 76.0617604,93.0881369 L75.9355572,82.1678537 L79.3017472,80.240868 L79.4141012,91.3252936 Z M95.760604,82.9320106 C95.7625807,83.7114439 95.6331079,84.4959149 95.3723255,85.2848541 C95.1116716,86.073842 94.7476114,86.8146224 94.2802244,87.5067678 C93.8130862,88.1983622 93.2546586,88.8419738 92.6049739,89.4373745 C91.9556027,90.0318946 91.2387647,90.5524693 90.4544194,90.9991321 L83.2186925,95.0868106 L83.0785946,78.063669 L90.0780448,73.9869091 C91.1870286,73.3360464 92.1519171,72.9637476 92.9723327,72.8713483 C93.7927925,72.7790558 94.4162739,72.9676105 94.8425995,73.4378843 C95.2687074,73.9094198 95.4834554,74.636307 95.4869383,75.6186456 C95.4885201,76.0749145 95.4261296,76.5314927 95.2998056,76.9882191 C95.1735142,77.4450065 94.9993126,77.8982925 94.7772247,78.347967 C94.5552085,78.7975378 94.3211006,79.1948292 94.0748893,79.539817 C93.8287437,79.8846533 93.5864713,80.1816862 93.3480513,80.4309427 C94.002058,80.3431019 94.5670646,80.4733612 95.0429274,80.8224494 C95.5186125,81.1725135 95.7578201,81.875551 95.760604,82.9320106 Z M92.0905281,77.7601254 C92.0885683,77.3607892 91.9971848,77.0649118 91.8163591,76.8724762 C91.635496,76.6802571 91.3812383,76.5996536 91.0536103,76.6305174 C90.7259877,76.6614033 90.3151811,76.8210072 89.8212612,77.1090654 L86.5022587,79.0377498 L86.5305155,82.957449 L89.8441907,81.0453048 C90.5600543,80.6306156 91.1140987,80.1303091 91.5062908,79.5446106 C91.8986587,78.9585243 92.0934559,78.3634754 92.0905281,77.7601254 Z M92.3608399,84.7309804 C92.3583122,84.1060757 92.1634751,83.7095646 91.7763007,83.5413158 C91.3890569,83.3734534 90.8258742,83.5029214 90.0869803,83.9288669 L86.551006,85.9587887 L86.5781398,90.1775891 L90.1079733,88.166495 C90.8376466,87.7490217 91.3961192,87.2284732 91.7833578,86.6051066 C92.1707795,85.9813635 92.3633274,85.3564305 92.3608399,84.7309804 Z M110.558998,79.3345965 L99.2413107,85.955889 L99.2147501,68.5847264 L102.642421,66.5348836 L102.64647,80.9104846 L110.571143,76.235725 L110.558998,79.3345965 Z M116.770776,75.6416084 L113.344134,77.6838965 L113.420047,60.0086028 L116.871936,57.8927346 L116.770776,75.6416084 Z M131.688245,64.6688907 C131.000473,65.7699039 130.272825,66.7332119 129.505236,67.5587346 C128.738158,68.3829987 127.818324,69.1216635 126.745762,69.7745355 C124.876222,70.909679 123.300259,71.2097185 122.015919,70.6811713 C121.473427,70.4357102 121.082196,70.0401068 120.8422,69.4944808 C120.602037,68.9498032 120.456561,68.320022 120.40582,67.6050284 C120.354981,66.8908631 120.334295,65.8807062 120.343689,64.5755843 C120.352888,63.2727 120.388241,62.2330004 120.449875,61.4552461 C120.511482,60.6781186 120.66784,59.8716323 120.919062,59.0353961 C121.1704,58.1992969 121.573187,57.328334 122.127629,56.4218343 C123.441441,54.3271546 125.040301,52.6922054 126.924072,51.5164731 C128.004817,50.8403326 128.925924,50.4329746 129.687024,50.2955488 C130.448195,50.1581264 131.171022,50.2112202 131.855327,50.4556402 L129.526046,54.2191183 C129.10833,54.0405206 128.709637,53.9702566 128.330026,54.0080092 C127.950422,54.0458025 127.472502,54.2441938 126.896375,54.602828 C125.971682,55.1777416 125.239358,55.9399339 124.699336,56.8897806 C124.462131,57.3118596 124.28349,57.7239709 124.163373,58.1262471 C124.043282,58.5285558 123.954249,59.0738928 123.896236,59.7626102 C123.838203,60.4518079 123.804522,61.3520521 123.7951,62.4642221 C123.785534,63.5780087 123.802057,64.4488094 123.844721,65.0759117 C123.887309,65.7036458 123.967574,66.1494293 124.085545,66.4129698 C124.203475,66.6767344 124.378099,66.8774521 124.609424,67.015098 C125.127876,67.314312 125.85094,67.1813305 126.779097,66.6146153 C127.18278,66.3678568 127.534578,66.1032977 127.834491,65.8209612 C128.134473,65.5384478 128.406716,65.2295835 128.651226,64.8943863 C128.895798,64.5590484 129.153049,64.1726023 129.423004,63.7350135 L131.688245,64.6688907 Z" id="path-6"></path>
        <filter x="-3.7%" y="-4.9%" width="105.0%" height="106.5%" filterUnits="objectBoundingBox" id="filter-7">
            <feOffset dx="-2" dy="-2" in="SourceAlpha" result="shadowOffsetOuter1"></feOffset>
            <feColorMatrix values="0 0 0 0 0   0 0 0 0 0   0 0 0 0 0  0 0 0 0.5 0" type="matrix" in="shadowOffsetOuter1"></feColorMatrix>
        </filter>
        <linearGradient x1="62.7917033%" y1="70.1549919%" x2="28.6921744%" y2="17.0277525%" id="linearGradient-8">
            <stop stop-color="#555191" offset="0%"></stop>
            <stop stop-color="#3C88BC" offset="100%"></stop>
        </linearGradient>
        <path d="M84.0914575,86.5179749 C84.1481508,87.2149934 84.0889045,87.9383171 83.9146819,88.6873448 C83.7398897,89.4367403 83.4574126,90.1701916 83.0683953,90.8869763 C82.6803461,91.6031359 82.1905664,92.2742014 81.6000487,92.8995426 C81.0118418,93.5233917 80.3530281,94.0466689 79.623802,94.4692513 L76.8633842,96.0673171 L77.2968491,102.283528 L74.5696351,103.856865 L72.9826445,87.6296362 L78.6570758,84.3376225 C79.4048857,83.9030411 80.1014356,83.6352144 80.7453201,83.5350554 C81.3898994,83.4344478 81.9548752,83.4898567 82.4390097,83.7020938 C82.9221665,83.9149622 83.3043109,84.2611826 83.5847802,84.7412007 C83.8633727,85.2224305 84.0322683,85.8146795 84.0914575,86.5179749 Z M81.1796075,88.2105258 C81.1402384,87.7784165 81.0145253,87.443581 80.8025519,87.2059527 C80.589973,86.9687154 80.3117031,86.8520097 79.9682353,86.8555083 C79.6248304,86.8589663 79.2438643,86.9822127 78.8258971,87.2248822 L76.1558266,88.7738262 L76.6115037,93.2008084 L79.2519856,91.6709689 C79.6653551,91.431268 80.024966,91.1265744 80.3307032,90.7569603 C80.6370974,90.3869219 80.8653188,89.9817888 81.0148902,89.5418615 C81.1644732,89.1019266 81.2195744,88.6580259 81.1796075,88.2105258 Z M98.6546003,89.8786572 L95.1649341,91.9146746 L91.9710479,86.9027663 L89.8350751,88.1476584 L90.0905756,94.8692509 L87.1863854,96.5568561 L86.122112,79.9921242 L92.2122032,76.4356795 C93.2588046,75.8235319 94.1891231,75.5128056 94.9998923,75.5056185 C95.8107811,75.4983541 96.4498381,75.7586879 96.9147604,76.2881268 C97.3767064,76.8194875 97.6321866,77.5544689 97.6810058,78.4932242 C97.734387,79.6025794 97.5078767,80.689056 97.0055443,81.7500546 C96.504135,82.8104573 95.8382612,83.7524312 95.0100972,84.5745875 L98.6546003,89.8786572 Z M94.6027271,80.2938913 C94.5779472,79.868139 94.4637865,79.5457847 94.2603495,79.3267487 C94.0563835,79.1080542 93.7772975,79.0040369 93.4235219,79.0144103 C93.069802,79.0247477 92.6744138,79.1576351 92.2379024,79.4127167 L89.3812072,81.0808427 L89.684168,85.4407732 L92.5120982,83.7912199 C93.1712639,83.4064155 93.6937296,82.8929369 94.0787511,82.2512594 C94.4646157,81.6090375 94.6398895,80.9561897 94.6027271,80.2938913 Z M104.260182,86.6014853 L101.171722,88.4080681 L100.651709,71.4919236 L103.856012,69.6105442 L104.260182,86.6014853 Z M119.615056,60.3263965 L113.930718,80.9300104 L111.529318,82.3403589 L105.854399,68.4360619 L109.237514,66.4458096 L112.816811,75.5685237 L116.082515,62.4118124 L119.615056,60.3263965 Z M134.928378,68.5477217 L131.329836,70.6757529 L130.462503,68.1263661 L124.272437,71.7822383 L123.110588,75.5273067 L119.65388,77.5637596 L126.232579,56.4136119 L128.971855,54.7916873 L134.928378,68.5477217 Z M129.679447,65.7427889 L127.662961,60.6557157 L125.316895,68.3206873 L129.679447,65.7427889 Z M149.876253,45.3862531 L144.933918,48.3266557 L144.054625,63.1408155 L140.499091,65.2489742 L141.282722,50.4965805 L136.462912,53.3578717 L136.511839,50.3208053 L149.99932,42.3013171 L149.876253,45.3862531 Z M164.370998,51.0575901 L151.822205,58.5282458 L153.046344,40.4859538 L165.985346,32.7633518 L165.777943,35.9027412 L156.681559,41.331823 L156.417445,45.5490959 L164.097511,40.9686836 L163.824091,44.1506984 L156.184741,48.7048214 L155.808457,53.1365103 L164.72607,47.8228553 L164.370998,51.0575901 Z" id="path-9"></path>
        <filter x="-3.2%" y="-4.2%" width="104.3%" height="105.6%" filterUnits="objectBoundingBox" id="filter-10">
            <feOffset dx="-2" dy="-2" in="SourceAlpha" result="shadowOffsetOuter1"></feOffset>
            <feColorMatrix values="0 0 0 0 0   0 0 0 0 0   0 0 0 0 0  0 0 0 0.5 0" type="matrix" in="shadowOffsetOuter1"></feColorMatrix>
        </filter>
        <linearGradient x1="168.044567%" y1="50%" x2="-56.437681%" y2="42.5190155%" id="linearGradient-11">
            <stop stop-color="#5596D2" offset="0%"></stop>
            <stop stop-color="#115A8C" offset="100%"></stop>
        </linearGradient>
        <linearGradient x1="71.622164%" y1="65.8382351%" x2="10.4980469%" y2="23.1017056%" id="linearGradient-12">
            <stop stop-color="#35317E" offset="0%"></stop>
            <stop stop-color="#3C88BC" offset="100%"></stop>
        </linearGradient>
        <linearGradient x1="62.8183323%" y1="70.1549919%" x2="28.6478171%" y2="17.0277525%" id="linearGradient-13">
            <stop stop-color="#35317C" offset="0%"></stop>
            <stop stop-color="#3C88BC" offset="100%"></stop>
        </linearGradient>
        <linearGradient x1="45.8330492%" y1="31.2181825%" x2="20.7974807%" y2="-40.6742294%" id="linearGradient-14">
            <stop stop-color="#635DB9" offset="0%"></stop>
            <stop stop-color="#3C88BC" offset="100%"></stop>
        </linearGradient>
        <linearGradient x1="27.6829065%" y1="21.8564401%" x2="57.4799506%" y2="62.453155%" id="linearGradient-15">
            <stop stop-color="#294371" offset="0%"></stop>
            <stop stop-color="#8FB6FF" offset="100%"></stop>
        </linearGradient>
        <path d="M90.0199902,113.922394 L85.5653163,116.334969 L85.8411,107.988555 L78.14855,112.154546 L77.8146097,120.532833 L73.3081395,122.973721 L74.343181,102.819925 L78.7694557,100.423006 L78.3138919,108.678595 L85.9822761,104.525832 L86.3803585,96.3016753 L90.7535886,93.9336199 L90.0199902,113.922394 Z M110.977139,82.9831885 L104.045965,98.2915255 L103.915471,106.397346 L99.552069,108.760255 L99.7161291,100.636129 L93.4444841,92.4765496 L98.1507434,89.9282273 L102.017917,95.7349214 L106.334738,85.4968684 L110.977139,82.9831885 Z M129.229607,87.0468698 C129.236023,87.9212256 129.078586,88.8036711 128.756582,89.6946179 C128.434667,90.5855159 127.981799,91.4263864 127.397414,92.2175527 C126.812386,93.0090674 126.110378,93.7519511 125.291058,94.4463951 C124.470682,95.1414119 123.562756,95.7584308 122.567255,96.2974698 L113.316744,101.306481 L113.610908,81.5571084 L122.325276,76.8386239 C123.695566,76.0966631 124.880448,75.6790233 125.8816,75.5848038 C126.882818,75.4905489 127.638821,75.7171658 128.150728,76.2640692 C128.664161,76.810148 128.917531,77.6448265 128.910993,78.7680508 C128.908542,79.2889115 128.827747,79.8096375 128.668395,80.3303588 C128.50913,80.8510331 128.290778,81.3678645 128.013183,81.8809504 C127.735473,82.3940982 127.442943,82.8480848 127.135536,83.24295 C126.827951,83.6379119 126.52526,83.9787156 126.227473,84.2653611 C127.040054,84.1568049 127.741176,84.2966999 128.331744,84.6845699 C128.923465,85.0718154 129.222559,85.8593443 129.229607,87.0468698 Z M124.704136,81.2205795 C124.708483,80.7613952 124.601267,80.420848 124.382464,80.1989381 C124.163922,79.9768873 123.853206,79.8831273 123.450122,79.9177544 C123.047055,79.9523727 122.538758,80.1357842 121.924887,80.4681719 L117.785217,82.7096448 L117.711467,87.2641311 L121.87027,85.0122867 C122.765377,84.5276188 123.459999,83.9477268 123.95448,83.2724183 C124.448509,82.5973546 124.698116,81.9135646 124.704136,81.2205795 Z M124.973675,89.1631994 C124.972518,88.4561857 124.730452,88.0117465 124.247298,87.8299617 C123.764593,87.647934 123.059826,87.8078463 122.131935,88.3102673 L117.67407,90.7240581 L117.648806,95.5479165 L122.128285,93.1223924 C123.050682,92.6229414 123.75599,92.014866 124.244592,91.2979522 C124.73276,90.5812733 124.975509,89.8698464 124.973675,89.1631994 Z M149.952262,81.4695102 L145.107282,84.092871 L140.736825,78.6394742 L137.738744,80.2628326 L137.878631,88.0068851 L133.638598,90.3026947 L133.529881,70.7716851 L141.831101,66.2766958 C143.22836,65.5200838 144.441722,65.1295344 145.473219,65.1039604 C146.505025,65.0782197 147.299016,65.3716001 147.856387,65.9834779 C148.415626,66.5943464 148.704158,67.4458463 148.721822,68.5380933 C148.744745,69.8245622 148.40841,71.0927987 147.710398,72.3441426 C147.011444,73.5959906 146.092952,74.7226011 144.953881,75.7245581 L149.952262,81.4695102 Z M144.610106,70.7645465 C144.604108,70.2661632 144.475843,69.8922169 144.225305,69.6426992 C143.975101,69.3930004 143.619613,69.2809359 143.15861,69.3066218 C142.697647,69.332286 142.17211,69.5048882 141.581644,69.8246174 L137.680058,71.9372544 L137.705237,77.0965874 L141.628487,74.9722607 C142.533566,74.4821831 143.259404,73.8517855 143.806273,73.0809124 C144.352519,72.3103742 144.6201,71.5384548 144.610106,70.7645465 Z M157.532096,77.365296 L153.386068,79.6102325 L152.867033,60.3005972 L156.924423,58.1033541 L157.532096,77.365296 Z M176.92086,55.5246826 L177.076836,58.3563627 C177.162712,59.8328731 177.107378,61.1282589 176.909041,62.2435307 C176.711334,63.3584513 176.200217,64.5557239 175.37389,65.836346 C174.741861,66.8146513 173.965996,67.7051013 173.045812,68.5079725 C172.124002,69.3117176 171.110683,70.0127183 170.005914,70.6109493 L162.451794,74.7014082 L161.73778,55.4966277 L169.126101,51.4951666 C170.215669,50.905038 171.220545,50.5108341 172.141682,50.3120488 C173.062481,50.1134449 173.869112,50.1491341 174.562584,50.4185872 C175.459378,50.7571018 176.057488,51.3335375 176.357063,52.1478371 C176.658399,52.961183 176.846051,54.0869402 176.92086,55.5246826 Z M172.997277,59.1144051 C172.946786,58.0935687 172.889166,57.2960925 172.823739,56.7223226 C172.758853,56.1482588 172.654249,55.689781 172.509772,55.346959 C172.365632,55.0039544 172.166285,54.7580468 171.911618,54.6092875 C171.197575,54.1897086 170.187289,54.3337327 168.877905,55.0428848 L165.853178,56.6810174 L166.377136,69.1629172 L169.446122,67.5010368 C170.120213,67.1360073 170.698177,66.7222508 171.180099,66.2597181 C171.661545,65.797441 172.070763,65.2734969 172.407913,64.6877901 C172.585092,64.376838 172.721866,64.040738 172.818317,63.6794371 C172.914796,63.3181198 172.979585,62.9538108 173.012752,62.5864641 C173.046033,62.2190547 173.063088,61.7730912 173.064074,61.2484747 C173.065384,60.7236812 173.042921,60.0124396 172.997277,59.1144051 Z" id="path-16"></path>
        <filter x="-2.9%" y="-4.1%" width="103.9%" height="105.5%" filterUnits="objectBoundingBox" id="filter-17">
            <feOffset dx="-2" dy="-2" in="SourceAlpha" result="shadowOffsetOuter1"></feOffset>
            <feColorMatrix values="0 0 0 0 0   0 0 0 0 0   0 0 0 0 0  0 0 0 0.5 0" type="matrix" in="shadowOffsetOuter1"></feColorMatrix>
        </filter>
    </defs>
    <g id="desktop" stroke="none" stroke-width="1" fill="none" fill-rule="evenodd">
        <g id="cloud_migration" transform="translate(-194.000000, -2307.000000)">
            <g id="Group-30" transform="translate(194.000000, 2307.000000)">
                <g id="Group-35" transform="translate(46.000000, 45.000000)" fill="#D1E9F2">
                    <path d="M334.164,35.489 L334.164,35.489 L333.181,34.922 L333.056,34.849 L315.428,24.671 L333.056,34.849 L362.126,18.066 L333.056,1.283 L303.987,18.066 L302.88,17.426 L333.056,0.003 L364.341,18.066 L334.164,35.489 M331.949,35.489 L317.414,27.097 L331.949,35.489" id="Fill-3"></path>
                    <path d="M273.811,35.488 L273.81,35.488 L284.308,29.427 L273.811,35.488 M272.703,34.848 L272.703,34.848 L243.632,18.065 L243.633,18.065 L242.662,17.505 L242.525,17.425 L272.702,0.003 L272.978,0.164 L302.879,17.426 L301.772,18.066 L272.702,1.283 L243.633,18.065 L272.703,34.848 L292.779,23.258 L272.703,34.848" id="Fill-4"></path>
                    <path d="M303.987,52.912 L303.987,52.912 L316.714,45.564 L303.987,52.912 M301.772,52.912 L285.328,43.417 L301.772,52.912 M302.88,52.272 L302.88,52.272 L288.345,43.88 L302.88,52.272 L321.991,41.238 L302.88,52.272 M334.164,35.489 L333.333,35.009 L333.181,34.922 L334.164,35.489 M331.949,35.489 L302.88,18.706 L273.81,35.488 L272.703,34.848 L301.772,18.066 L302.88,17.426 L303.987,18.066 L333.056,34.849 L331.949,35.489" id="Fill-5"></path>
                    <path d="M334.165,70.335 L334.164,70.335 L334.165,70.335 L333.195,69.774 L333.057,69.695 L303.987,52.912 L302.99,52.336 L302.88,52.272 L331.949,35.489 L333.056,34.849 L333.181,34.922 L333.333,35.009 L334.164,35.489 L364.342,52.912 L334.165,70.335 M303.987,52.912 L333.057,69.695 L362.127,52.912 L333.056,36.129 L303.987,52.912" id="Fill-6"></path>
                    <path d="M213.456,35.488 L213.456,35.488 L231.084,25.31 L213.456,35.488 M212.348,34.848 L183.278,18.065 L182.306,17.504 L182.171,17.425 L212.347,0.002 L212.624,0.163 L242.525,17.425 L241.417,18.065 L212.347,1.282 L183.278,18.065 L212.348,34.848 L226.883,26.457 L212.349,34.848 L212.348,34.848 M243.632,18.065 L242.801,17.586 L242.662,17.505 L243.633,18.065" id="Fill-7"></path>
                    <path d="M243.634,52.911 L243.634,52.911 L258.168,44.519 L243.634,52.911 M242.526,52.271 L213.456,35.488 L212.566,34.974 L212.349,34.848 L241.417,18.065 L242.525,17.425 L242.662,17.505 L242.801,17.586 L243.632,18.065 L272.702,34.848 L271.595,35.488 L242.525,18.705 L213.456,35.488 L242.526,52.271 L255.253,44.923 L242.526,52.271" id="Fill-8"></path>
                    <path d="M273.812,70.334 L273.811,70.333 L288.345,61.942 L273.812,70.334 M272.704,69.694 L243.633,52.911 L243.634,52.911 L242.698,52.371 L242.526,52.271 L271.595,35.488 L272.703,34.848 L273.81,35.488 L273.811,35.488 L302.879,52.272 L301.772,52.912 L272.703,36.127 L243.634,52.911 L272.704,69.694 L282.853,63.834 L272.704,69.694 M303.987,52.912 L303.156,52.432 L302.99,52.336 L303.987,52.912" id="Fill-9"></path>
                    <path d="M303.989,87.756 L303.988,87.756 L324.064,76.166 L303.989,87.756 M301.773,87.756 L287.239,79.365 L301.773,87.756 M302.88,87.117 L285.252,76.939 L302.881,87.117 L313.332,81.083 L302.881,87.117 M334.164,70.335 L333.334,69.855 L333.195,69.774 L334.165,70.335 M331.95,70.335 L302.88,53.551 L273.811,70.333 L272.704,69.694 L301.772,52.912 L302.88,52.272 L302.99,52.336 L303.156,52.432 L303.987,52.912 L333.057,69.695 L331.95,70.334" id="Fill-10"></path>
                    <path d="M334.166,105.18 L334.166,105.18 L333.251,104.652 L333.058,104.541 L314.925,94.071 L333.058,104.541 L362.128,87.757 L333.057,70.974 L303.988,87.756 L302.881,87.117 L333.057,69.695 L333.195,69.774 L333.334,69.855 L334.164,70.335 L334.165,70.335 L364.342,87.757 L334.166,105.18 M331.95,105.18 L322.384,99.657 L331.951,105.18 L331.95,105.18" id="Fill-11"></path>
                    <path d="M153.102,35.487 L153.101,35.487 L169.121,26.238 L153.102,35.487 M151.994,34.847 L122.923,18.064 L122.924,18.064 L121.916,17.482 L121.816,17.424 L151.993,0.002 L182.17,17.425 L181.063,18.065 L151.993,1.281 L122.924,18.064 L151.994,34.847 L162.492,28.786 L151.994,34.847 M183.278,18.065 L182.447,17.586 L182.306,17.504 L183.278,18.065" id="Fill-12"></path>
                    <path d="M183.279,52.911 L183.279,52.911 L194.72,46.305 L183.279,52.911 M181.064,52.911 L171.497,47.387 L181.064,52.911 M182.172,52.271 L182.172,52.271 L162.668,41.011 L182.172,52.271 L196.706,43.879 L182.172,52.271 M213.456,35.488 L212.625,35.008 L212.566,34.974 L213.456,35.488 M211.241,35.488 L182.171,18.705 L153.101,35.487 L151.994,34.847 L181.063,18.065 L182.171,17.425 L182.306,17.504 L182.447,17.586 L183.278,18.065 L212.348,34.848 L211.241,35.488" id="Fill-13"></path>
                    <path d="M213.457,70.333 L213.457,70.333 L232.568,59.3 L213.457,70.334 M212.349,69.694 L183.279,52.911 L182.322,52.358 L182.172,52.271 L211.241,35.488 L212.348,34.848 L212.349,34.848 L212.566,34.974 L212.625,35.008 L213.456,35.488 L242.526,52.271 L241.418,52.911 L212.348,36.127 L183.279,52.911 L212.349,69.694 L222.308,63.944 L212.349,69.694 M243.633,52.911 L242.803,52.431 L242.698,52.371 L243.634,52.911" id="Fill-14"></path>
                    <path d="M243.635,87.756 L243.635,87.756 L258.169,79.365 L243.635,87.756 M242.527,87.117 L213.456,70.334 L213.457,70.333 L212.449,69.752 L212.349,69.694 L241.418,52.911 L242.526,52.271 L242.698,52.371 L242.803,52.431 L243.633,52.911 L272.704,69.694 L271.596,70.333 L242.526,53.55 L213.457,70.333 L242.527,87.117 L257.062,78.725 L242.527,87.117" id="Fill-15"></path>
                    <path d="M273.811,105.179 L273.811,105.179 L286.538,97.831 L273.812,105.179 M271.596,105.179 L257.062,96.788 L271.596,105.179 M272.704,104.54 L272.704,104.54 L258.169,96.148 L272.704,104.54 L287.239,96.148 L272.704,104.54 M301.773,87.756 L272.704,70.973 L243.634,87.756 L242.527,87.117 L271.596,70.333 L272.704,69.694 L273.811,70.333 L273.812,70.334 L302.88,87.117 L301.773,87.756" id="Fill-16"></path>
                    <path d="M303.99,122.602 L303.989,122.602 L320.009,113.354 L303.99,122.602 M302.881,121.963 L273.811,105.179 L272.786,104.587 L272.704,104.54 L301.773,87.756 L302.881,87.117 L303.988,87.756 L303.989,87.756 L333.058,104.541 L331.951,105.18 L302.881,88.396 L273.811,105.179 L302.882,121.962 L317.416,113.571 L302.882,121.963 L302.882,121.962 M334.166,105.18 L333.335,104.701 L333.251,104.652 L334.166,105.18" id="Fill-17"></path>
                    <path d="M334.167,140.026 L334.166,140.026 L334.167,140.026 L333.133,139.429 L333.059,139.386 L323.492,133.863 L333.059,139.386 L362.129,122.603 L333.058,105.82 L303.989,122.602 L302.882,121.962 L331.95,105.18 L331.951,105.18 L333.058,104.541 L333.251,104.652 L333.335,104.701 L334.166,105.18 L364.343,122.603 L334.167,140.026 M331.951,140.026 L317.417,131.634 L331.952,140.026 L331.951,140.026" id="Fill-18"></path>
                    <path d="M92.747,35.487 L92.747,35.487 L107.281,27.095 L92.747,35.487 M91.639,34.847 L61.535,17.467 L61.462,17.424 L91.638,0.002 L91.915,0.162 L121.816,17.424 L120.709,18.064 L91.638,1.281 L62.569,18.064 L91.639,34.847 L106.174,26.456 L91.639,34.847 M122.923,18.064 L122.093,17.585 L121.916,17.482 L122.924,18.064" id="Fill-19"></path>
                    <path d="M122.925,52.91 L122.925,52.91 L137.459,44.518 L122.925,52.91 M121.817,52.27 L91.739,34.905 L91.639,34.847 L120.709,18.064 L121.816,17.424 L121.916,17.482 L122.093,17.585 L122.923,18.064 L151.994,34.847 L150.886,35.487 L121.816,18.704 L92.747,35.487 L121.817,52.27 L140.928,41.236 L121.817,52.27" id="Fill-20"></path>
                    <path d="M122.924,52.91 L121.954,52.35 L121.817,52.27 L150.886,35.487 L151.994,34.847 L153.101,35.487 L153.102,35.487 L182.171,52.271 L181.064,52.911 L151.994,36.127 L122.925,52.91 L132.259,58.299 L122.924,52.91 Z M182.448,52.431 L182.322,52.358 L183.279,52.911 L182.448,52.431 Z" id="Fill-21"></path>
                    <path d="M200.79,76.368 L198.774,77.532 L200.79,76.368 Z M212.626,69.854 L212.449,69.752 L213.457,70.333 L212.626,69.854 Z M182.172,53.55 L66.5711433,123.611 L65.4631433,122.972 L181.064,52.911 L182.172,52.271 L182.448,52.431 L183.279,52.911 L212.349,69.694 L211.242,70.333 L182.172,53.55 Z" id="Fill-22"></path>
                    <polyline id="Fill-23" points="241.42 87.756 212.349 70.973 199.881 78.171 198.774 77.532 211.242 70.333 212.349 69.694 212.449 69.752 212.626 69.854 213.456 70.334 242.527 87.117 241.419 87.756"></polyline>
                    <path d="M259.128,112.378 L259.128,112.378 L261.638,110.929 L259.128,112.378 M273.811,105.179 L272.98,104.7 L272.786,104.587 L273.811,105.179 M271.596,105.179 L242.527,88.396 L230.059,95.594 L228.952,94.955 L241.419,87.756 L242.527,87.117 L243.635,87.756 L272.704,104.54 L271.596,105.179" id="Fill-24"></path>
                    <path d="M280.773,136.006 L280.773,136.006 L283.771,134.276 L280.773,136.006 M281.747,134.165 C281.748,134.165 281.748,134.165 281.748,134.164 L289.047,129.95 L281.747,134.165 M301.774,122.602 L272.704,105.819 L260.236,113.017 L259.128,112.378 L271.596,105.179 L272.704,104.54 L272.786,104.587 L272.98,104.7 L273.811,105.179 L302.881,121.963 L301.774,122.602" id="Fill-25"></path>
                    <path d="M303.99,157.448 L303.99,157.448 L317.04,149.914 L303.99,157.448 M302.882,156.808 L283.18,145.434 C283.18,145.433 283.18,145.433 283.18,145.433 L302.883,156.808 L321.5,146.06 L302.883,156.808 M334.166,140.026 L333.336,139.546 L333.133,139.429 L334.167,140.026 M331.952,140.026 L302.882,123.242 L283.771,134.276 L280.773,136.006 C281.272,135.409 281.598,134.786 281.747,134.165 L301.774,122.602 L302.882,121.962 L303.989,122.602 L303.99,122.602 L333.059,139.386 L331.952,140.026" id="Fill-26"></path>
                    <path d="M334.168,174.871 L333.06,174.231 L303.1,156.934 L302.883,156.808 L331.951,140.026 L331.952,140.026 L333.059,139.386 L333.133,139.429 L333.336,139.546 L334.166,140.026 L334.167,140.026 L364.344,157.449 L334.168,174.871 M303.99,157.448 L333.06,174.231 L362.13,157.449 L333.059,140.666 L303.99,157.448" id="Fill-27"></path>
                    <path d="M32.392,35.486 L32.392,35.486 L42.891,29.425 L32.392,35.486 M30.177,35.486 L0,18.063 L31.284,-5.68434189e-14 L61.462,17.424 L60.354,18.064 L31.284,1.28 L2.215,18.063 L31.285,34.846 L51.361,23.256 L31.285,34.846 L30.177,35.486 M62.569,18.064 L61.738,17.585 L61.535,17.467 L62.569,18.064" id="Fill-28"></path>
                    <path d="M62.571,52.909 L62.57,52.909 L75.62,45.375 L62.571,52.909 M61.462,52.269 L31.561,35.006 L31.285,34.846 L60.354,18.064 L61.462,17.424 L61.535,17.467 L61.738,17.585 L62.569,18.064 L91.639,34.847 L90.532,35.487 L61.462,18.704 L32.392,35.486 L61.463,52.269 L80.08,41.521 L61.463,52.269 M92.747,35.487 L91.916,35.007 L91.739,34.905 L92.747,35.487" id="Fill-29"></path>
                    <path d="M92.748,70.333 L92.748,70.333 L105.628,62.896 L92.748,70.333 M90.533,70.332 L75.998,61.94 L90.533,70.333 L90.533,70.332 M91.64,69.693 L77.105,61.301 L91.64,69.693 L106.175,61.301 L91.641,69.693 L91.64,69.693 M122.924,52.91 L122.093,52.43 L121.954,52.35 L122.925,52.91 M120.71,52.91 L91.639,36.127 L62.57,52.909 L61.463,52.269 L90.532,35.487 L91.639,34.847 L91.739,34.905 L91.916,35.007 L92.747,35.487 L121.817,52.27 L120.709,52.91" id="Fill-30"></path>
                    <polygon id="Fill-31" points="92.747 70.333 91.791 69.78 91.641 69.693 120.709 52.91 121.817 52.27 121.954 52.35 122.093 52.43 122.924 52.91 157.4255 72.161109 156.3175 72.800109 121.817 53.549 92.748 70.333 102.077 75.719"></polygon>
                    <path d="M273.813,174.871 L273.813,174.871 L285.254,168.265 L273.813,174.871 M272.705,174.231 L267.322,171.123 L272.706,174.231 L287.24,165.839 L272.706,174.231 M303.99,157.448 L303.159,156.968 L303.1,156.934 L303.99,157.448 M301.775,157.448 L283.289,146.775 C283.295,146.678 283.299,146.58 283.299,146.482 C283.299,146.124 283.259,145.774 283.18,145.434 L302.882,156.808 L301.775,157.448" id="Fill-32"></path>
                    <path d="M303.991,192.293 L303.991,192.293 L320.18,182.947 L303.991,192.294 M302.883,191.654 L273.813,174.871 L272.878,174.331 L272.706,174.231 L301.775,157.448 L302.883,156.808 L303.1,156.934 L303.159,156.968 L303.99,157.448 L333.06,174.231 L331.953,174.871 L302.883,158.087 L273.813,174.871 L302.884,191.654 L312.842,185.904 L302.884,191.654" id="Fill-33"></path>
                    <path d="M334.169,209.717 L334.168,209.716 L334.169,209.716 L333.161,209.135 L333.061,209.077 L303.991,192.294 L303.991,192.293 L302.983,191.712 L302.884,191.654 L331.953,174.871 L333.06,174.231 L334.168,174.871 L364.345,192.294 L334.169,209.717 M303.991,192.293 L333.061,209.077 L362.131,192.294 L333.06,175.51 L303.991,192.293" id="Fill-34"></path>
                    <path d="M32.393,70.332 L32.393,70.332 L48.583,60.985 L32.394,70.332 M30.178,70.331 L0.001,52.909 L30.177,35.486 L31.285,34.846 L31.561,35.006 L61.462,52.269 L60.355,52.909 L31.285,36.125 L2.216,52.909 L31.286,69.692 L41.244,63.943 L31.286,69.692 L30.178,70.331" id="Fill-35"></path>
                    <path d="M62.571,87.754 L62.571,87.754 L78.591,78.506 L62.571,87.754 M61.463,87.115 L31.562,69.852 L31.286,69.692 L60.355,52.909 L61.463,52.269 L62.57,52.909 L62.571,52.909 L91.64,69.693 L90.533,70.332 L61.463,53.548 L32.393,70.332 L61.464,87.115 L71.962,81.054 L61.464,87.115 M92.747,70.333 L91.917,69.853 L91.791,69.78 L92.748,70.333" id="Fill-36"></path>
                    <polygon id="Fill-37" points="61.464 87.115 91.64 69.693 91.791 69.78 91.917 69.853 92.747 70.333 136.271086 94.2706301 135.163086 94.9096301 91.64 70.972 62.571 87.754"></polygon>
                    <path d="M243.636,192.293 L243.636,192.293 L262.747,181.26 L243.637,192.294 M241.421,192.293 L236.032,189.182 L236.033,189.182 L241.422,192.293 L241.421,192.293 M242.529,191.654 L242.529,191.654 L237.14,188.543 L242.529,191.654 L252.487,185.904 L242.529,191.654 M273.813,174.871 L272.982,174.391 L272.878,174.331 L273.813,174.871 M271.598,174.871 L266.214,171.762 L267.322,171.123 L272.705,174.231 L271.598,174.871" id="Fill-38"></path>
                    <path d="M273.814,209.716 L273.814,209.716 L288.349,201.325 L273.814,209.716 M272.707,209.077 L272.707,209.077 L243.636,192.294 L243.636,192.293 L242.605,191.698 L242.529,191.654 L271.598,174.871 L272.706,174.231 L272.878,174.331 L272.982,174.391 L273.813,174.871 L302.883,191.654 L301.776,192.293 L272.706,175.51 L243.636,192.293 L272.707,209.077 L290.335,198.899 L272.707,209.077 M303.991,192.294 L303.16,191.814 L302.983,191.712 L303.991,192.293" id="Fill-39"></path>
                    <path d="M303.992,227.139 L303.992,227.139 L320.334,217.704 L303.992,227.139 M302.884,226.5 L273.814,209.716 L272.807,209.135 L272.707,209.077 L301.776,192.293 L302.884,191.654 L302.983,191.712 L303.16,191.814 L303.991,192.294 L333.061,209.077 L331.954,209.716 L302.884,192.933 L273.814,209.716 L302.885,226.5 L317.419,218.108 L302.884,226.5 M334.168,209.716 L333.338,209.237 L333.161,209.135 L334.169,209.716" id="Fill-40"></path>
                    <path d="M333.062,245.202 L332.786,245.041 L302.885,227.779 L303.992,227.139 L302.884,226.5 L333.061,209.077 L333.161,209.135 L333.338,209.237 L334.168,209.716 L334.169,209.717 L364.346,227.139 L333.062,245.202 M303.992,227.139 L333.062,243.922 L362.132,227.139 L333.061,210.356 L303.992,227.139" id="Fill-41"></path>
                    <path d="M32.394,105.177 L32.394,105.177 L46.929,96.786 L32.395,105.177 M30.18,105.177 L0.002,87.754 L30.178,70.331 L31.286,69.692 L31.562,69.852 L61.463,87.115 L60.356,87.754 L31.286,70.971 L2.217,87.754 L31.287,104.538 L48.915,94.36 L30.18,105.177" id="Fill-42"></path>
                    <path d="M65.38,120.979 L62.572,122.6 L65.38,120.979 Z M59.558,120.86 L61.465,121.96 L64.272,120.339 L61.465,121.961 L59.558,120.86 Z M31.563,104.698 L31.287,104.538 L60.356,87.754 L61.464,87.115 L125.64125,122.39962 L124.53325,123.03962 L61.464,88.394 L32.394,105.177 L56.647,119.179 L31.563,104.698 Z" id="Fill-43"></path>
                    <polyline id="Fill-44" points="69.988 126.882 62.572 122.6 61.617 122.049 61.465 121.961 64.273 120.34 65.38 120.979 62.572 122.6 69.988 126.882"></polyline>
                    <path d="M213.46,209.715 L213.46,209.715 L226.509,202.182 L213.46,209.716 M212.352,209.076 L206.959,205.962 L212.352,209.076 L230.97,198.327 L212.353,209.076 L212.352,209.076 M243.636,192.294 L242.805,191.814 L242.605,191.698 L243.636,192.293 M241.422,192.293 L236.033,189.182 L237.14,188.543 L242.529,191.654 L241.421,192.293" id="Fill-45"></path>
                    <path d="M243.637,227.138 L243.637,227.138 L254.089,221.104 L243.638,227.138 M242.53,226.499 L213.459,209.716 L213.46,209.715 L212.524,209.175 L212.353,209.076 L241.421,192.293 L242.529,191.654 L242.605,191.698 L242.805,191.814 L243.636,192.294 L272.707,209.077 L271.599,209.716 L242.529,192.933 L213.46,209.715 L242.53,226.499 L258.55,217.25 L242.53,226.499 M273.814,209.716 L272.983,209.237 L272.807,209.135 L273.814,209.716" id="Fill-46"></path>
                    <path d="M272.708,245.202 L242.53,227.778 L243.637,227.138 L242.53,226.499 L271.599,209.716 L272.707,209.077 L272.807,209.135 L272.983,209.237 L273.814,209.716 L302.884,226.5 L303.992,227.139 L302.885,227.779 L302.884,227.779 L272.708,245.202 M243.637,227.138 L272.708,243.922 L301.777,227.139 L272.707,210.356 L243.637,227.138" id="Fill-47"></path>
                    <path d="M243.161,261.135 L243.061,261.077 L213.991,244.294 L212.983,243.712 L212.884,243.654 L241.421,227.1395 L242.528,226.4995 L243.636,227.1395 L273.3455,244.294 L244.169,261.717 L243.161,261.135 Z M243.061,261.077 L271.1315,244.294 L242.528,227.7785 L213.991,244.293 L243.061,261.077 Z" id="Fill-34"></path>
                    <path d="M213.992,279.139 L213.992,279.139 L230.334,269.704 L213.992,279.139 M212.884,278.5 L183.814,261.716 L182.807,261.135 L182.707,261.077 L211.776,244.293 L212.884,243.654 L212.983,243.712 L213.16,243.814 L213.991,244.294 L243.061,261.077 L241.954,261.716 L212.884,244.933 L183.814,261.716 L212.885,278.5 L227.419,270.108 L212.884,278.5 M244.168,261.716 L243.338,261.237 L243.161,261.135 L244.169,261.716" id="Fill-40"></path>
                    <path d="M243.062,297.202 L242.786,297.041 L212.885,279.779 L213.992,279.139 L212.884,278.5 L243.061,261.077 L243.161,261.135 L243.338,261.237 L244.168,261.716 L244.169,261.717 L274.346,279.139 L243.062,297.202 M213.992,279.139 L243.062,295.922 L272.132,279.139 L243.061,262.356 L213.992,279.139" id="Fill-41"></path>
                    <path d="M153.061,279.356 L154.168,278.716 L153.061,278.077 L181.599,261.716 L182.707,261.077 L182.807,261.135 L182.983,261.237 L183.814,261.716 L212.884,278.5 L213.992,279.139 L212.885,279.779 L182.983,296.779 L153.061,279.356 Z M182.983,295.499 L211.777,279.139 L182.707,262.356 L154.168,278.716 L182.983,295.499 Z" id="Fill-47"></path>
                    <path d="M153.161,278.135 L153.061,278.077 L123.991,261.294 L122.983,260.712 L122.884,260.654 L151.421,244.1395 L152.528,243.4995 L153.636,244.1395 L183.814,261.717 L154.169,278.717 L153.161,278.135 Z M153.061,278.077 L181.6,261.717 L152.528,244.7785 L123.991,261.293 L153.061,278.077 Z" id="Fill-34"></path>
                    <path d="M123.992,296.139 L123.992,296.139 L140.334,286.704 L123.992,296.139 M122.884,295.5 L93.814,278.716 L92.807,278.135 L92.707,278.077 L121.776,261.293 L122.884,260.654 L122.983,260.712 L123.16,260.814 L123.991,261.294 L153.061,278.077 L151.954,278.716 L122.884,261.933 L93.814,278.716 L122.885,295.5 L137.419,287.108 L122.884,295.5 M154.168,278.716 L153.338,278.237 L153.161,278.135 L154.169,278.716" id="Fill-40"></path>
                    <path d="M153.062,314.202 L152.786,314.041 L122.885,296.779 L123.992,296.139 L122.884,295.5 L153.061,278.077 L153.161,278.135 L153.338,278.237 L154.168,278.716 L154.169,278.717 L184.346,296.139 L153.062,314.202 M123.992,296.139 L153.062,312.922 L182.132,296.139 L153.061,279.356 L123.992,296.139" id="Fill-41"></path>
                    <path d="M92.708,314.202 L62.53,296.778 L63.637,296.138 L62.53,295.499 L91.599,278.716 L92.707,278.077 L92.807,278.135 L92.983,278.237 L93.814,278.716 L122.884,295.5 L123.992,296.139 L122.885,296.779 L122.884,296.779 L92.708,314.202 M63.637,296.138 L92.708,312.922 L121.777,296.139 L92.707,279.356 L63.637,296.138" id="Fill-47"></path>
                    <path d="M32.395,140.023 L32.395,140.023 L40.755,135.197 L32.395,140.023 M30.18,140.023 L0.003,122.6 L31.287,104.538 L31.563,104.698 L56.647,119.179 L56.185,119.446 C55.97,119.57 55.762,119.699 55.561,119.831 L31.287,105.817 L2.218,122.6 L31.288,139.383 L45.823,130.992 L31.288,139.383 L30.18,140.023 M62.572,122.6 L61.741,122.121 L61.617,122.049 L62.572,122.6 M60.357,122.6 L58.451,121.5 L59.558,120.86 L61.464,121.961 L60.357,122.6" id="Fill-48"></path>
                    <path d="M62.573,157.446 L62.573,157.446 L72.328,151.814 L62.573,157.446 M61.465,156.806 L31.564,139.544 L31.288,139.383 L52.522,127.124 C52.673,127.454 52.863,127.771 53.09,128.075 L32.395,140.023 L61.466,156.806 L71.221,151.174 L61.466,156.806 M68.88,127.521 L61.465,123.24 L55.649,126.597 C55.388,126.325 55.177,126.009 55.076,125.649 L60.357,122.6 L61.465,121.96 L61.465,121.961 L61.617,122.049 L61.741,122.121 L62.572,122.6 L69.988,126.882 L68.88,127.521" id="Fill-49"></path>
                    <path d="M92.751,174.869 L92.751,174.869 L102.506,169.237 L92.751,174.869 M91.643,174.229 L62.573,157.446 L61.64,156.907 L61.466,156.806 L71.221,151.174 L72.328,151.814 L62.573,157.446 L91.643,174.229 L101.398,168.597 L101.399,168.597 L91.644,174.229 L91.643,174.229" id="Fill-50"></path>
                    <path d="M122.928,192.293 L122.928,192.293 L132.684,186.66 L122.929,192.293 M120.713,192.292 L106.178,183.9 L120.714,192.293 L120.713,192.292 M121.821,191.653 L121.821,191.653 L107.286,183.261 L121.821,191.653 L131.576,186.02 L131.577,186.021 L121.821,191.653 M92.751,174.869 L91.643,174.229 L101.399,168.597 L102.506,169.237 L92.751,174.869" id="Fill-51"></path>
                    <path d="M153.107,209.715 L153.106,209.715 L162.862,204.083 L153.107,209.715 M151.999,209.076 L151.999,209.076 L122.928,192.293 L121.938,191.721 L121.821,191.653 L131.577,186.021 L132.684,186.66 L122.928,192.293 L151.999,209.076 L161.754,203.443 L151.999,209.076" id="Fill-52"></path>
                    <path d="M181.068,227.138 L169.627,220.533 L181.068,227.138 M183.283,227.138 L183.283,227.138 L194.724,220.533 L183.283,227.138 M182.175,226.499 L167.641,218.107 L182.175,226.499 L196.71,218.107 L182.175,226.499 M213.459,209.716 L212.629,209.236 L212.524,209.175 L213.46,209.715 M211.245,209.715 L205.851,206.602 L206.959,205.962 L212.352,209.076 L211.245,209.715 M153.106,209.715 L151.999,209.076 L161.754,203.443 L162.862,204.083 L153.106,209.715" id="Fill-53"></path>
                    <path d="M212.353,245.201 L212.077,245.041 L182.176,227.778 L183.283,227.138 L182.175,226.499 L212.352,209.076 L212.353,209.076 L212.524,209.175 L212.629,209.236 L213.459,209.716 L243.637,227.138 L242.53,227.778 L212.353,245.201 M183.283,227.138 L212.353,243.921 L241.423,227.138 L212.352,210.355 L183.283,227.138" id="Fill-54"></path>
                    <path d="M32.396,174.869 L32.396,174.869 L46.931,166.477 L32.396,174.869 M30.181,174.868 L0.004,157.446 L30.18,140.023 L31.288,139.383 L31.564,139.544 L61.465,156.806 L60.358,157.446 L31.288,140.663 L2.218,157.446 L31.289,174.229 L47.631,164.794 L31.289,174.229 L30.181,174.868 M62.573,157.446 L61.742,156.966 L61.64,156.907 L62.573,157.446" id="Fill-55"></path>
                    <path d="M62.574,192.291 L62.574,192.291 L83.284,180.335 L62.574,192.292 M61.466,191.652 L31.565,174.389 L31.289,174.229 L60.358,157.446 L61.466,156.806 L61.64,156.907 L61.742,156.966 L62.573,157.446 L91.643,174.229 L90.536,174.869 L61.466,158.085 L32.396,174.869 L61.467,191.652 L71.365,185.937 L61.467,191.652" id="Fill-56"></path>
                    <path d="M92.752,209.714 L92.752,209.714 L112.828,198.124 L92.752,209.715 M91.644,209.075 L62.574,192.292 L62.574,192.291 L61.59,191.724 L61.467,191.652 L90.536,174.869 L91.643,174.229 L92.751,174.869 L121.821,191.653 L120.713,192.292 L91.643,175.508 L62.574,192.291 L91.644,209.075 L102.096,203.041 L91.644,209.075 M122.928,192.293 L122.097,191.813 L121.938,191.721 L122.928,192.293" id="Fill-57"></path>
                    <polyline id="Fill-58" points="111.527 220.554 92.751 209.714 92.752 209.714 91.787 209.158 91.644 209.075 120.713 192.292 121.821 191.653 121.938 191.721 122.097 191.813 122.928 192.293 151.998 209.076 150.891 209.715 121.821 192.932 92.752 209.714 111.527 220.554"></polyline>
                    <path d="M151.999,245.201 L129.352,232.125 L130.46,231.485 L151.999,243.921 L181.068,227.138 L151.999,210.355 L150.94,210.966 C150.776,210.605 150.567,210.297 150.318,210.046 L150.891,209.715 L151.999,209.076 L153.106,209.715 L153.107,209.715 L182.175,226.499 L183.283,227.138 L182.176,227.778 L182.175,227.778 L151.999,245.201" id="Fill-59"></path>
                    <path d="M32.397,209.714 L32.397,209.714 L45.124,202.367 L32.398,209.714 M30.182,209.714 L0.005,192.291 L30.181,174.868 L31.289,174.229 L31.565,174.389 L61.466,191.652 L60.359,192.291 L31.289,175.508 L2.22,192.291 L31.29,209.075 L45.824,200.683 L31.29,209.075 L30.182,209.714 M62.574,192.292 L61.743,191.812 L61.59,191.724 L62.574,192.291" id="Fill-60"></path>
                    <path d="M62.575,227.137 L62.575,227.137 L75.302,219.789 L62.575,227.137 M61.467,226.498 L31.566,209.235 L31.29,209.075 L60.359,192.291 L61.467,191.652 L61.59,191.724 L61.743,191.812 L62.574,192.292 L91.644,209.075 L90.537,209.714 L61.467,192.931 L32.397,209.714 L61.467,226.498 L76.002,218.106 L61.467,226.498 M92.751,209.714 L91.921,209.235 L91.787,209.158 L92.752,209.714" id="Fill-61"></path>
                    <path d="M91.645,245.2 L91.369,245.04 L61.468,227.777 L62.575,227.137 L61.467,226.498 L91.644,209.075 L91.787,209.158 L91.921,209.235 L92.751,209.714 L111.527,220.554 C111.368,220.891 111.216,221.229 111.071,221.57 L91.644,210.354 L62.575,227.137 L91.645,243.92 L101.149,238.433 C100.934,238.957 100.756,239.489 100.619,240.018 L91.645,245.2" id="Fill-62"></path>
                    <path d="M31.291,245.2 L0.006,227.136 L30.182,209.714 L31.29,209.075 L31.566,209.235 L61.467,226.498 L62.575,227.137 L61.468,227.777 L61.467,227.777 L31.291,245.2 M31.29,210.354 L2.22,227.136 L31.291,243.92 L60.36,227.137 L31.29,210.354" id="Fill-63"></path>
                </g>
                <g id="Group-34">
                    <g id="Group-32" transform="translate(0.000000, 153.269978)">
                        <path d="M188.931435,19.1505735 C184.207133,16.4039212 177.669133,16.7742106 170.494438,20.9145346 L164.335875,24.4668715 L151.671215,17.1126253 L157.829778,13.5609666 C165.004473,9.4206426 171.542473,9.05035319 176.266775,11.7970055 L188.931435,19.1505735" id="Fill-3003" fill="url(#linearGradient-1)"></path>
                        <path d="M157.257567,8.99406377 C152.84754,6.44001625 146.752782,6.77910913 140.053912,10.6447679 L119.190279,22.6784957 L106.517474,15.3249277 L107.5818,14.712526 C109.379885,15.2035325 111.07276,15.9203748 112.644134,16.8305001 L108.291124,14.3015454 L127.389252,3.29119984 C134.088122,-0.575137095 140.18288,-0.913551781 144.584762,1.63981755 L157.257567,8.99406377" id="Fill-3006" fill="url(#linearGradient-2)"></path>
                        <path d="M112.081055,16.4504806 C104.672181,14.3881177 90.9910817,14.1889666 81.0673317,19.915567 C56.551868,34.0598089 36.7525613,68.3312474 36.833336,96.465783 C36.833336,97.0056188 36.8496267,97.5373165 36.8659174,98.0608759 L24.2012576,90.7066296 C24.1849669,90.1830702 24.1686762,89.6520508 24.1686762,89.112215 C24.0879014,60.9776793 43.8872081,26.7055627 68.4026718,12.561999 C80.7367663,5.44986507 91.9101485,4.78931215 99.9794741,9.47693202 L108.291124,14.3015454 L112.081055,16.4504806 Z" id="Fill-3012" fill="url(#linearGradient-3)"></path>
                        <path d="M20.2263273,116.3685 C15.5427517,124.471463 12.6491166,133.605269 12.6728738,141.788936 C12.6891645,149.932591 15.5909451,155.674789 20.2589087,158.381429 L7.59424883,151.027861 C2.92628517,148.321221 0.0238258681,142.578345 6.86006333e-05,134.435368 C-0.016222097,126.251701 2.86994651,117.117895 7.56166744,109.014932 C11.882775,101.532509 17.7277416,94.9195195 24.2012576,90.7066296 L36.8659174,98.0608759 C30.3924014,102.281226 24.5474349,108.886077 20.2263273,116.3685" id="Fill-3018" fill="url(#linearGradient-4)"></path>
                        <path d="M81.0707256,19.9169234 C97.2175221,10.6020422 111.380926,12.353796 119.186885,22.6812085 L140.053233,10.6447679 C153.362733,2.96702705 164.290397,9.18938126 164.333839,24.4689061 L170.491044,20.9172474 C184.76441,12.6840724 196.474707,19.3601329 196.521542,35.7376404 C196.544621,43.9314806 193.650986,53.0591826 188.962659,61.173675 C184.273653,69.2874893 177.796743,76.3752085 170.66006,80.491796 L38.6992997,156.61272 C24.4266122,164.846573 12.7163157,158.178651 12.6694799,141.792327 C12.6464014,133.607304 15.5393578,124.470785 20.2283637,116.365109 C24.5508288,108.88472 30.393759,102.277157 36.8632023,98.0615541 C36.8462328,97.5346037 36.8374087,97.0035843 36.8353724,96.4678175 C36.7559552,68.3312474 56.5559407,34.0584525 81.0707256,19.9169234" id="Fill-3021" fill="url(#linearGradient-5)"></path>
                        <g id="PUBLIC" fill-rule="nonzero">
                            <use fill="black" fill-opacity="1" filter="url(#filter-7)" xlink:href="#path-6"></use>
                            <use fill="#000000" xlink:href="#path-6"></use>
                            <use fill="#FFFFFF" xlink:href="#path-6"></use>
                        </g>
                    </g>
                    <g id="Group-32" transform="translate(270.154070, 0.000000)">
                        <path d="M188.931435,19.1505735 C184.207133,16.4039212 177.669133,16.7742106 170.494438,20.9145346 L164.335875,24.4668715 L151.671215,17.1126253 L157.829778,13.5609666 C165.004473,9.4206426 171.542473,9.05035319 176.266775,11.7970055 L188.931435,19.1505735" id="Fill-3003" fill="url(#linearGradient-1)"></path>
                        <path d="M157.257567,8.99406377 C152.84754,6.44001625 146.752782,6.77910913 140.053912,10.6447679 L119.190279,22.6784957 L106.517474,15.3249277 L107.5818,14.712526 C109.379885,15.2035325 111.07276,15.9203748 112.644134,16.8305001 L108.291124,14.3015454 L127.389252,3.29119984 C134.088122,-0.575137095 140.18288,-0.913551781 144.584762,1.63981755 L157.257567,8.99406377" id="Fill-3006" fill="url(#linearGradient-2)"></path>
                        <path d="M112.241194,16.5002441 C104.83232,14.4378813 90.9910817,14.1889666 81.0673317,19.915567 C56.551868,34.0598089 36.7525613,68.3312474 36.833336,96.465783 C36.833336,97.0056188 36.8496267,97.5373165 36.8659174,98.0608759 L24.2012576,90.7066296 C24.1849669,90.1830702 24.1686762,89.6520508 24.1686762,89.112215 C24.0879014,60.9776793 43.8872081,26.7055627 68.4026718,12.561999 C80.7367663,5.44986507 91.9101485,4.78931215 99.9794741,9.47693202 L108.291124,14.3015454 L112.241194,16.5002441 Z" id="Fill-3012" fill="url(#linearGradient-8)"></path>
                        <path d="M20.2263273,116.3685 C15.5427517,124.471463 12.6491166,133.605269 12.6728738,141.788936 C12.6891645,149.932591 15.5909451,155.674789 20.2589087,158.381429 L7.59424883,151.027861 C2.92628517,148.321221 0.0238258681,142.578345 6.86006333e-05,134.435368 C-0.016222097,126.251701 2.86994651,117.117895 7.56166744,109.014932 C11.882775,101.532509 17.7277416,94.9195195 24.2012576,90.7066296 L36.8659174,98.0608759 C30.3924014,102.281226 24.5474349,108.886077 20.2263273,116.3685" id="Fill-3018" fill="url(#linearGradient-4)"></path>
                        <path d="M81.0707256,19.9169234 C97.2175221,10.6020422 111.380926,12.353796 119.186885,22.6812085 L140.053233,10.6447679 C153.362733,2.96702705 164.290397,9.18938126 164.333839,24.4689061 L170.491044,20.9172474 C184.76441,12.6840724 196.474707,19.3601329 196.521542,35.7376404 C196.544621,43.9314806 193.650986,53.0591826 188.962659,61.173675 C184.273653,69.2874893 177.796743,76.3752085 170.66006,80.491796 L38.6992997,156.61272 C24.4266122,164.846573 12.7163157,158.178651 12.6694799,141.792327 C12.6464014,133.607304 15.5393578,124.470785 20.2283637,116.365109 C24.5508288,108.88472 30.393759,102.277157 36.8632023,98.0615541 C36.8462328,97.5346037 36.8374087,97.0035843 36.8353724,96.4678175 C36.7559552,68.3312474 56.5559407,34.0584525 81.0707256,19.9169234" id="Fill-3021" fill="url(#linearGradient-5)"></path>
                        <g id="PRIVATE" fill-rule="nonzero">
                            <use fill="black" fill-opacity="1" filter="url(#filter-10)" xlink:href="#path-9"></use>
                            <use fill="#000000" xlink:href="#path-9"></use>
                            <use fill="#FFFFFF" xlink:href="#path-9"></use>
                        </g>
                    </g>
                    <g id="Group-32" transform="translate(132.361919, 95.624190)">
                        <path d="M226.717722,22.9483665 C221.048559,19.6570195 213.202959,20.1007419 204.593325,25.0621427 L197.20305,29.3189516 L182.005458,20.5062683 L189.395733,16.2502722 C198.005367,11.2888713 205.850967,10.845149 211.52013,14.136496 L226.717722,22.9483665" id="Fill-3003" fill="url(#linearGradient-11)"></path>
                        <path d="M188.709081,10.7776967 C183.417047,7.71715028 176.103339,8.12348942 168.064694,12.7557556 L143.028335,27.1759189 L127.820969,18.3640484 L129.09816,17.6301999 C131.255863,18.218579 133.287313,19.0775799 135.172961,20.1681942 L129.949349,17.1377169 L152.867102,3.94388504 C160.905747,-0.689193818 168.219456,-1.09472028 173.501714,1.96501343 L188.709081,10.7776967" id="Fill-3006" fill="url(#linearGradient-12)"></path>
                        <path d="M134.650581,19.8404095 C125.759933,17.3690549 109.189298,17.0028123 97.280798,23.8650676 C67.8622416,40.8142858 44.1030736,81.8821698 44.2000033,115.596128 C44.2000033,116.24302 44.2195521,116.88016 44.2391009,117.507547 L29.0415091,108.694864 C29.0219602,108.067477 29.0024114,107.431149 29.0024114,106.784258 C28.9054817,73.0702993 52.6646498,32.0016025 82.0832062,15.0531971 C96.8841195,6.53063999 110.292178,5.73909135 119.975369,11.3563236 L129.949349,17.1377169 L134.650581,19.8404095 Z" id="Fill-3012" fill="url(#linearGradient-13)"></path>
                        <path d="M24.2715928,139.445798 C18.6513021,149.155678 15.1789399,160.100829 15.2074486,169.907417 C15.2269974,179.666058 18.7091341,186.547005 24.3106905,189.790404 L9.1130986,180.978534 C3.5115422,177.735135 0.0285910417,170.853375 8.23207599e-05,161.095547 C-0.0194665164,151.288958 3.44393581,140.343807 9.07400093,130.633927 C14.25933,121.667648 21.2732899,113.743222 29.0415091,108.694864 L44.2391009,117.507547 C36.4708817,122.564844 29.4569219,130.479518 24.2715928,139.445798" id="Fill-3018" fill="url(#linearGradient-14)"></path>
                        <path d="M97.2848707,23.866693 C116.661027,12.7045569 133.657111,14.8037049 143.024263,27.1791697 L168.063879,12.7557556 C184.035279,3.55542482 197.148477,11.011748 197.200607,29.3213896 L204.589253,25.0653935 C221.717292,15.1994792 235.769648,23.1994841 235.825851,42.8248518 C235.853545,52.6436308 232.381183,63.5814677 226.75519,73.3051633 C221.128383,83.0280462 213.356092,91.5213469 204.792072,96.454304 L46.4391596,187.670939 C29.3119346,197.537666 15.2595788,189.547413 15.2033759,169.911481 C15.1756817,160.103267 18.6472294,149.154865 24.2740364,139.441734 C29.4609945,130.477893 36.4725108,122.559968 44.2358428,117.50836 C44.2154794,116.876909 44.2048905,116.240582 44.2024469,115.598566 C44.1071463,81.8821698 67.8671288,40.8126604 97.2848707,23.866693" id="Fill-3021" fill="url(#linearGradient-15)"></path>
                        <g id="HYBRID" fill-rule="nonzero" transform="translate(125.212047, 86.579733) rotate(-1.000000) translate(-125.212047, -86.579733) ">
                            <use fill="black" fill-opacity="1" filter="url(#filter-17)" xlink:href="#path-16"></use>
                            <use fill="#000000" xlink:href="#path-16"></use>
                            <use fill="#FFFFFF" xlink:href="#path-16"></use>
                        </g>
                    </g>
                </g>
            </g>
        </g>
    </g>
</svg>