<?xml version="1.0" encoding="UTF-8"?>
<svg width="379px" height="313px" viewBox="0 0 379 313" version="1.1" xmlns="http://www.w3.org/2000/svg" xmlns:xlink="http://www.w3.org/1999/xlink">
    <!-- Generator: Sketch 53.2 (72643) - https://sketchapp.com -->
    <title>844</title>
    <desc>Created with Sketch.</desc>
    <defs>
        <polyline id="path-1" points="22.919 26.39 0.329 39.432 0.329 13.348 22.919 0.306 22.919 26.39"></polyline>
        <radialGradient cx="-9.46436476%" cy="31.224761%" fx="-9.46436476%" fy="31.224761%" r="149.042939%" gradientTransform="translate(-0.094644,0.312248),scale(1.000000,0.577365),translate(0.094644,-0.312248)" id="radialGradient-3">
            <stop stop-color="#2B4876" offset="0%"></stop>
            <stop stop-color="#263765" offset="100%"></stop>
        </radialGradient>
        <polyline id="path-4" points="23.329 26.348 0.739 13.306 23.328 0.264 45.918 13.306 23.329 26.348"></polyline>
        <linearGradient x1="0%" y1="50%" x2="131.869895%" y2="50%" id="linearGradient-6">
            <stop stop-color="#D4EAF2" offset="0%"></stop>
            <stop stop-color="#83B0D1" offset="100%"></stop>
        </linearGradient>
        <polyline id="path-7" points="23.329 39.432 0.739 26.39 0.739 0.306 23.329 13.348 23.329 39.432"></polyline>
        <radialGradient cx="-123.740593%" cy="-57.8234422%" fx="-123.740593%" fy="-57.8234422%" r="269.408145%" gradientTransform="translate(-1.237406,-0.578234),scale(1.000000,0.577365),translate(1.237406,0.578234)" id="radialGradient-9">
            <stop stop-color="#6693BF" offset="0%"></stop>
            <stop stop-color="#3B6397" offset="100%"></stop>
        </radialGradient>
        <path d="M36.333,0.424 C34.933,0.457 33.48,0.81 32.333,1.473 L24.557,5.962 L0.423,5.948 L0.423,17.008 C0.37,17.755 0.786,18.476 1.706,19.007 L32.87,36.999 C33.789,37.531 35.039,37.771 36.333,37.74 L36.333,0.424" id="path-10"></path>
        <radialGradient cx="5.51166381%" cy="6.42038133%" fx="5.51166381%" fy="6.42038133%" r="109.681092%" gradientTransform="translate(0.055117,0.064204),scale(1.000000,0.962374),translate(-0.055117,-0.064204)" id="radialGradient-12">
            <stop stop-color="#6693BF" offset="0%"></stop>
            <stop stop-color="#3B6397" offset="100%"></stop>
        </radialGradient>
        <path d="M32.87,40.981 L1.705,22.988 C-0.207,21.884 0.033,19.954 2.241,18.68 L32.333,1.306 C34.542,0.031 37.882,-0.107 39.796,0.996 L70.96,18.99 C72.873,20.094 72.632,22.023 70.423,23.298 L40.332,40.671 C38.124,41.947 34.783,42.085 32.87,40.981" id="path-13"></path>
        <path d="M129.787,189.49 L5.543,117.758 C2.028,115.729 0,110.347 1.012,105.737 L22.965,5.902 C23.978,1.291 27.648,-0.801 31.163,1.229 L155.407,72.96 C158.922,74.99 160.95,80.372 159.937,84.983 L137.984,184.818 C136.971,189.428 133.301,191.52 129.787,189.49" id="path-15"></path>
        <radialGradient cx="96.7162787%" cy="94.4057072%" fx="96.7162787%" fy="94.4057072%" r="126.495416%" gradientTransform="translate(0.967163,0.944057),scale(1.000000,0.840020),translate(-0.967163,-0.944057)" id="radialGradient-17">
            <stop stop-color="#D4EAF2" offset="0%"></stop>
            <stop stop-color="#83B0D1" offset="100%"></stop>
        </radialGradient>
        <path d="M122.093,175.639 L5.244,108.209 C2.028,106.352 0.172,101.427 1.098,97.208 L21.334,5.196 C22.26,0.977 25.619,-0.938 28.835,0.919 L145.684,68.349 C148.9,70.205 150.756,75.131 149.83,79.35 L129.595,171.363 C128.669,175.581 125.309,177.495 122.093,175.639" id="path-18"></path>
        <radialGradient cx="89.225014%" cy="72.0208927%" fx="89.225014%" fy="72.0208927%" r="93.0175764%" gradientTransform="translate(0.892250,0.720209),scale(1.000000,0.847110),translate(-0.892250,-0.720209)" id="radialGradient-20">
            <stop stop-color="#2B4876" offset="0%"></stop>
            <stop stop-color="#263765" offset="100%"></stop>
        </radialGradient>
        <path d="M132.786,131.833 C130.6,131.833 128.511,131.4 126.929,130.518 C128.51,131.4 130.6,131.833 132.786,131.833 M132.789,129.705 C130.557,129.705 128.426,129.255 126.834,128.335 L2.59,56.603 C1.438,55.938 0.719,55.109 0.405,54.213 C-0.046,55.576 0.344,56.951 1.62,58.05 C0.735,57.29 0.273,56.396 0.222,55.466 C0.134,53.86 1.272,52.144 3.575,50.815 L17.45,42.807 L18.558,42.167 L47.631,25.387 L48.739,24.748 L77.813,7.967 L78.921,7.328 L88.175,1.987 C90.395,0.705 93.237,0.048 95.932,0.048 C98.164,0.048 100.295,0.499 101.888,1.418 L115.258,9.138 L116.366,9.777 L205.79,61.407 L206.898,62.046 L226.131,73.151 C227.779,74.101 228.557,75.385 228.502,76.722 C228.443,78.117 227.477,79.571 225.642,80.764 C228.004,79.228 228.92,77.26 228.317,75.54 C227.917,76.751 226.857,77.951 225.147,78.939 L140.546,127.767 C138.327,129.048 135.484,129.705 132.789,129.705 M50.276,38.221 L17.788,56.979 L129.268,121.267 L161.757,102.51 L50.276,38.221" id="path-21"></path>
        <radialGradient cx="112.681063%" cy="60.040217%" fx="112.681063%" fy="60.040217%" r="207.699662%" gradientTransform="translate(1.126811,0.600402),scale(0.577277,1.000000),translate(-1.126811,-0.600402)" id="radialGradient-23">
            <stop stop-color="#D4EAF2" offset="0%"></stop>
            <stop stop-color="#83B0D1" offset="100%"></stop>
        </radialGradient>
        <path d="M112.268,83.267 L0.788,18.979 L33.276,0.221 L144.757,64.51 M63.1,21.723 C62.329,21.723 61.516,21.911 60.882,22.278 L39.181,34.806 C38.02,35.477 37.894,36.491 38.9,37.072 L80.054,60.832 C80.51,61.095 81.119,61.224 81.758,61.224 C82.529,61.224 83.343,61.036 83.979,60.669 L105.678,48.141 C106.839,47.471 106.965,46.456 105.96,45.875 L64.805,22.115" id="path-24"></path>
        <radialGradient cx="166.47056%" cy="49.3112251%" fx="166.47056%" fy="49.3112251%" r="329.59685%" gradientTransform="translate(1.664706,0.493112),scale(0.576833,1.000000),translate(-1.664706,-0.493112)" id="radialGradient-26">
            <stop stop-color="#6F8BAA" offset="0%"></stop>
            <stop stop-color="#4C719A" offset="100%"></stop>
        </radialGradient>
        <path d="M0.984,0.831 L0.984,30.231 C0.984,31.238 1.649,32.243 2.979,33.011 C5.64,34.547 9.953,34.547 12.613,33.012 C13.943,32.243 14.608,31.238 14.608,30.231 L14.608,0.831 L0.984,0.831" id="path-27"></path>
        <radialGradient cx="-6.20229008%" cy="83.8560397%" fx="-6.20229008%" fy="83.8560397%" r="93.4453905%" gradientTransform="translate(-0.062023,0.838560),scale(1.000000,0.408735),translate(0.062023,-0.838560)" id="radialGradient-29">
            <stop stop-color="#6693BF" offset="0%"></stop>
            <stop stop-color="#3B6397" offset="100%"></stop>
        </radialGradient>
        <path d="M22.835,0.858 L0.758,0.858 L0.758,46.967 C0.758,48.598 1.836,50.23 3.992,51.474 C8.301,53.962 15.291,53.962 19.601,51.474 C21.757,50.23 22.835,48.599 22.835,46.967 L22.835,0.858" id="path-30"></path>
        <radialGradient cx="-16.9361779%" cy="105.291338%" fx="-16.9361779%" fy="105.291338%" r="91.1822258%" gradientTransform="translate(-0.169362,1.052913),scale(1.000000,0.420659),translate(0.169362,-1.052913)" id="radialGradient-32">
            <stop stop-color="#6693BF" offset="0%"></stop>
            <stop stop-color="#3B6397" offset="100%"></stop>
        </radialGradient>
        <path d="M0.792,0.575 L0.792,29.974 C0.792,30.981 1.457,31.988 2.787,32.755 C5.447,34.291 9.76,34.291 12.421,32.755 C13.751,31.988 14.416,30.981 14.416,29.974 L14.416,0.575 L0.792,0.575" id="path-33"></path>
        <radialGradient cx="-6.20963006%" cy="83.8563543%" fx="-6.20963006%" fy="83.8563543%" r="93.4453905%" gradientTransform="translate(-0.062096,0.838564),scale(1.000000,0.408736),translate(0.062096,-0.838564)" id="radialGradient-35">
            <stop stop-color="#6693BF" offset="0%"></stop>
            <stop stop-color="#3B6397" offset="100%"></stop>
        </radialGradient>
        <path d="M22.6410007,0.601 L0.565,0.601 L0.565,46.711 C0.565,48.342 1.643,49.973 3.798,51.217 C8.109,53.706 15.098,53.706 19.409,51.217 C21.564,49.973 22.642,48.342 22.641,46.711 L22.6410007,0.601" id="path-36"></path>
        <radialGradient cx="-16.9369446%" cy="105.289833%" fx="-16.9369446%" fy="105.289833%" r="91.1863534%" gradientTransform="translate(-0.169369,1.052898),scale(1.000000,0.420633),translate(0.169369,-1.052898)" id="radialGradient-38">
            <stop stop-color="#6693BF" offset="0%"></stop>
            <stop stop-color="#3B6397" offset="100%"></stop>
        </radialGradient>
        <path d="M135.466,131.52 C135.466,119.687 127.159,105.298 116.912,99.382 C114.681,98.094 112.552,97.343 110.571,97.032 C107.617,81.504 96.812,65.014 83.928,57.575 C80.053,55.339 76.369,54.143 73.026,53.886 C71.267,35.066 58.181,13.676 42.29,4.501 C33.989,-0.292 26.457,-0.858 20.899,2.076 L20.9,2.062 L20.63,2.217 C20.489,2.296 20.348,2.376 20.209,2.46 L2.928,12.666 L8.671,17.201 C3.516,19.453 0.258,25.235 0.258,33.779 C0.258,49.536 11.321,68.698 24.968,76.577 L109.211,136.733 L111.808,154.263 L130.012,143.541 L130.061,143.513 L130.17,143.448 L130.168,143.446 C133.444,141.474 135.466,137.355 135.466,131.52" id="path-39"></path>
        <radialGradient cx="50%" cy="49.9997837%" fx="50%" fy="49.9997837%" r="53.5838116%" gradientTransform="translate(0.500000,0.499998),scale(1.000000,0.878080),translate(-0.500000,-0.499998)" id="radialGradient-41">
            <stop stop-color="#6693BF" offset="0%"></stop>
            <stop stop-color="#3B6397" offset="100%"></stop>
        </radialGradient>
        <path d="M128.769,100.069 C126.539,98.781 124.41,98.03 122.429,97.719 C119.475,82.191 108.67,65.7 95.787,58.263 C91.912,56.026 88.227,54.83 84.884,54.573 C83.126,35.752 70.039,14.362 54.148,5.188 C37.057,-4.679 23.203,3.32 23.203,23.053 C23.203,23.722 23.222,24.398 23.254,25.075 C10.756,19.279 0.992,25.811 0.992,40.615 C0.992,56.371 12.054,75.532 25.702,83.411 L128.769,142.918 C139.017,148.834 147.325,144.038 147.325,132.206 C147.325,120.373 139.017,105.985 128.769,100.069" id="path-42"></path>
        <linearGradient x1="0%" y1="50.0001118%" x2="100%" y2="50.0001118%" id="linearGradient-44">
            <stop stop-color="#D4EAF2" offset="0%"></stop>
            <stop stop-color="#83B0D1" offset="100%"></stop>
        </linearGradient>
        <path d="M15.074,23.776 L22.822,27.368 L22.428,18.837 C22.4,18.238 22.382,17.644 22.382,17.053 C22.382,9.438 24.682,3.916 28.856,1.506 C33.031,-0.902 38.964,-0.134 45.557,3.674 C59.741,11.862 72.114,31.796 73.726,49.055 L74.133,53.404 L78.487,53.739 C81.164,53.944 84.093,54.956 87.197,56.749 C98.463,63.253 108.616,78.367 111.34,92.687 L112.022,96.271 L115.627,96.836 C117.062,97.062 118.594,97.639 120.18,98.555 C128.834,103.551 136.144,116.214 136.144,126.205 C136.144,129.945 135.108,132.689 133.299,133.733 C131.493,134.775 128.599,134.302 125.36,132.433 L22.292,72.926 C10.301,66.004 0.172,48.459 0.172,34.614 C0.172,29.181 1.774,25.042 4.568,23.257 C5.717,22.524 7.108,22.158 8.675,22.158 C10.584,22.158 12.754,22.698 15.074,23.776" id="path-45"></path>
        <radialGradient cx="100.216956%" cy="90.7515499%" fx="100.216956%" fy="90.7515499%" r="109.210953%" gradientTransform="translate(1.002170,0.907515),scale(0.986572,1.000000),rotate(-143.130165),translate(-1.002170,-0.907515)" id="radialGradient-47">
            <stop stop-color="#2B4876" offset="0%"></stop>
            <stop stop-color="#263765" offset="100%"></stop>
        </radialGradient>
    </defs>
    <g id="desktop" stroke="none" stroke-width="1" fill="none" fill-rule="evenodd">
        <g id="cloud_migration" transform="translate(-820.000000, -7772.000000)">
            <g id="844" transform="translate(820.000000, 7772.000000)">
                <path d="M348.826,102.518 L348.826,102.518 L347.843,101.951 L347.718,101.878 L330.09,91.7 L347.718,101.878 L376.788,85.095 L347.718,68.312 L318.649,85.095 L317.542,84.455 L347.718,67.032 L379.003,85.095 L348.826,102.518 M346.611,102.518 L332.076,94.126 L346.611,102.518" id="Fill-3" fill="#D1E9F2"></path>
                <path d="M288.473,102.517 L288.472,102.517 L298.97,96.456 L288.473,102.517 M287.365,101.877 L287.365,101.877 L258.294,85.094 L258.295,85.094 L257.324,84.534 L257.187,84.454 L287.364,67.032 L287.64,67.193 L317.541,84.455 L316.434,85.095 L287.364,68.312 L258.295,85.094 L287.365,101.877 L307.441,90.287 L287.365,101.877" id="Fill-4" fill="#D1E9F2"></path>
                <path d="M318.649,119.941 L318.649,119.941 L331.376,112.593 L318.649,119.941 M316.434,119.941 L299.99,110.446 L316.434,119.941 M317.542,119.301 L317.542,119.301 L303.007,110.909 L317.542,119.301 L336.653,108.267 L317.542,119.301 M348.826,102.518 L347.995,102.038 L347.843,101.951 L348.826,102.518 M346.611,102.518 L317.542,85.735 L288.472,102.517 L287.365,101.877 L316.434,85.095 L317.542,84.455 L318.649,85.095 L347.718,101.878 L346.611,102.518" id="Fill-5" fill="#D1E9F2"></path>
                <path d="M348.827,137.364 L348.826,137.364 L348.827,137.364 L347.857,136.803 L347.719,136.724 L318.649,119.941 L317.652,119.365 L317.542,119.301 L346.611,102.518 L347.718,101.878 L347.843,101.951 L347.995,102.038 L348.826,102.518 L379.004,119.941 L348.827,137.364 M318.649,119.941 L347.719,136.724 L376.789,119.941 L347.718,103.158 L318.649,119.941" id="Fill-6" fill="#D1E9F2"></path>
                <path d="M228.118,102.517 L228.118,102.517 L245.746,92.339 L228.118,102.517 M227.01,101.877 L197.94,85.094 L196.968,84.533 L196.833,84.454 L227.009,67.031 L227.286,67.192 L257.187,84.454 L256.079,85.094 L227.009,68.311 L197.94,85.094 L227.01,101.877 L241.545,93.486 L227.011,101.877 L227.01,101.877 M258.294,85.094 L257.463,84.615 L257.324,84.534 L258.295,85.094" id="Fill-7" fill="#D1E9F2"></path>
                <path d="M258.296,119.94 L258.296,119.94 L272.83,111.548 L258.296,119.94 M257.188,119.3 L228.118,102.517 L227.228,102.003 L227.011,101.877 L256.079,85.094 L257.187,84.454 L257.324,84.534 L257.463,84.615 L258.294,85.094 L287.364,101.877 L286.257,102.517 L257.187,85.734 L228.118,102.517 L257.188,119.3 L269.915,111.952 L257.188,119.3" id="Fill-8" fill="#D1E9F2"></path>
                <path d="M288.474,137.363 L288.473,137.362 L303.007,128.971 L288.474,137.363 M287.366,136.723 L258.295,119.94 L258.296,119.94 L257.36,119.4 L257.188,119.3 L286.257,102.517 L287.365,101.877 L288.472,102.517 L288.473,102.517 L317.541,119.301 L316.434,119.941 L287.365,103.156 L258.296,119.94 L287.366,136.723 L297.515,130.863 L287.366,136.723 M318.649,119.941 L317.818,119.461 L317.652,119.365 L318.649,119.941" id="Fill-9" fill="#D1E9F2"></path>
                <path d="M318.651,154.785 L318.65,154.785 L338.726,143.195 L318.651,154.785 M316.435,154.785 L301.901,146.394 L316.435,154.785 M317.542,154.146 L299.914,143.968 L317.543,154.146 L327.994,148.112 L317.543,154.146 M348.826,137.364 L347.996,136.884 L347.857,136.803 L348.827,137.364 M346.612,137.364 L317.542,120.58 L288.473,137.362 L287.366,136.723 L316.434,119.941 L317.542,119.301 L317.652,119.365 L317.818,119.461 L318.649,119.941 L347.719,136.724 L346.612,137.363" id="Fill-10" fill="#D1E9F2"></path>
                <path d="M348.828,172.209 L348.828,172.209 L347.913,171.681 L347.72,171.57 L329.587,161.1 L347.72,171.57 L376.79,154.786 L347.719,138.003 L318.65,154.785 L317.543,154.146 L347.719,136.724 L347.857,136.803 L347.996,136.884 L348.826,137.364 L348.827,137.364 L379.004,154.786 L348.828,172.209 M346.612,172.209 L337.046,166.686 L346.613,172.209 L346.612,172.209" id="Fill-11" fill="#D1E9F2"></path>
                <path d="M167.764,102.516 L167.763,102.516 L183.783,93.267 L167.764,102.516 M166.656,101.876 L137.585,85.093 L137.586,85.093 L136.578,84.511 L136.478,84.453 L166.655,67.031 L196.832,84.454 L195.725,85.094 L166.655,68.31 L137.586,85.093 L166.656,101.876 L177.154,95.815 L166.656,101.876 M197.94,85.094 L197.109,84.615 L196.968,84.533 L197.94,85.094" id="Fill-12" fill="#D1E9F2"></path>
                <path d="M197.941,119.94 L197.941,119.94 L209.382,113.334 L197.941,119.94 M195.726,119.94 L186.159,114.416 L195.726,119.94 M196.834,119.3 L196.834,119.3 L177.33,108.04 L196.834,119.3 L211.368,110.908 L196.834,119.3 M228.118,102.517 L227.287,102.037 L227.228,102.003 L228.118,102.517 M225.903,102.517 L196.833,85.734 L167.763,102.516 L166.656,101.876 L195.725,85.094 L196.833,84.454 L196.968,84.533 L197.109,84.615 L197.94,85.094 L227.01,101.877 L225.903,102.517" id="Fill-13" fill="#D1E9F2"></path>
                <path d="M228.119,137.362 L228.119,137.362 L247.23,126.329 L228.119,137.363 M227.011,136.723 L197.941,119.94 L196.984,119.387 L196.834,119.3 L225.903,102.517 L227.01,101.877 L227.011,101.877 L227.228,102.003 L227.287,102.037 L228.118,102.517 L257.188,119.3 L256.08,119.94 L227.01,103.156 L197.941,119.94 L227.011,136.723 L236.97,130.973 L227.011,136.723 M258.295,119.94 L257.465,119.46 L257.36,119.4 L258.296,119.94" id="Fill-14" fill="#D1E9F2"></path>
                <path d="M258.297,154.785 L258.297,154.785 L272.831,146.394 L258.297,154.785 M257.189,154.146 L228.118,137.363 L228.119,137.362 L227.111,136.781 L227.011,136.723 L256.08,119.94 L257.188,119.3 L257.36,119.4 L257.465,119.46 L258.295,119.94 L287.366,136.723 L286.258,137.362 L257.188,120.579 L228.119,137.362 L257.189,154.146 L271.724,145.754 L257.189,154.146" id="Fill-15" fill="#D1E9F2"></path>
                <path d="M288.473,172.208 L288.473,172.208 L301.2,164.86 L288.474,172.208 M286.258,172.208 L271.724,163.817 L286.258,172.208 M287.366,171.569 L287.366,171.569 L272.831,163.177 L287.366,171.569 L301.901,163.177 L287.366,171.569 M316.435,154.785 L287.366,138.002 L258.296,154.785 L257.189,154.146 L286.258,137.362 L287.366,136.723 L288.473,137.362 L288.474,137.363 L317.542,154.146 L316.435,154.785" id="Fill-16" fill="#D1E9F2"></path>
                <path d="M318.652,189.631 L318.651,189.631 L334.671,180.383 L318.652,189.631 M317.543,188.992 L288.473,172.208 L287.448,171.616 L287.366,171.569 L316.435,154.785 L317.543,154.146 L318.65,154.785 L318.651,154.785 L347.72,171.57 L346.613,172.209 L317.543,155.425 L288.473,172.208 L317.544,188.991 L332.078,180.6 L317.544,188.992 L317.544,188.991 M348.828,172.209 L347.997,171.73 L347.913,171.681 L348.828,172.209" id="Fill-17" fill="#D1E9F2"></path>
                <path d="M348.829,207.055 L348.828,207.055 L348.829,207.055 L347.795,206.458 L347.721,206.415 L338.154,200.892 L347.721,206.415 L376.791,189.632 L347.72,172.849 L318.651,189.631 L317.544,188.991 L346.612,172.209 L346.613,172.209 L347.72,171.57 L347.913,171.681 L347.997,171.73 L348.828,172.209 L379.005,189.632 L348.829,207.055 M346.613,207.055 L332.079,198.663 L346.614,207.055 L346.613,207.055" id="Fill-18" fill="#D1E9F2"></path>
                <path d="M107.409,102.516 L107.409,102.516 L121.943,94.124 L107.409,102.516 M106.301,101.876 L76.197,84.496 L76.124,84.453 L106.3,67.031 L106.577,67.191 L136.478,84.453 L135.371,85.093 L106.3,68.31 L77.231,85.093 L106.301,101.876 L120.836,93.485 L106.301,101.876 M137.585,85.093 L136.755,84.614 L136.578,84.511 L137.586,85.093" id="Fill-19" fill="#D1E9F2"></path>
                <path d="M137.587,119.939 L137.587,119.939 L152.121,111.547 L137.587,119.939 M136.479,119.299 L106.401,101.934 L106.301,101.876 L135.371,85.093 L136.478,84.453 L136.578,84.511 L136.755,84.614 L137.585,85.093 L166.656,101.876 L165.548,102.516 L136.478,85.733 L107.409,102.516 L136.479,119.299 L155.59,108.265 L136.479,119.299" id="Fill-20" fill="#D1E9F2"></path>
                <path d="M146.921,125.328 L137.586,119.939 L137.587,119.939 L136.616,119.379 L136.479,119.299 L165.548,102.516 L166.656,101.876 L167.763,102.516 L167.764,102.516 L196.833,119.3 L195.726,119.94 L166.656,103.156 L137.587,119.939 L146.921,125.328 M197.941,119.94 L197.11,119.46 L196.984,119.387 L197.941,119.94" id="Fill-21" fill="#D1E9F2"></path>
                <path d="M213.436,144.561 L213.436,144.561 L215.452,143.397 L213.436,144.561 M228.118,137.363 L227.288,136.883 L227.111,136.781 L228.119,137.362 M225.904,137.362 L196.834,120.579 L184.366,127.777 L183.258,127.138 L195.726,119.94 L196.834,119.3 L197.11,119.46 L197.941,119.94 L227.011,136.723 L225.904,137.362" id="Fill-22" fill="#D1E9F2"></path>
                <polyline id="Fill-23" fill="#D1E9F2" points="256.082 154.785 227.011 138.002 214.543 145.2 213.436 144.561 225.904 137.362 227.011 136.723 227.111 136.781 227.288 136.883 228.118 137.363 257.189 154.146 256.081 154.785"></polyline>
                <path d="M273.79,179.407 L273.79,179.407 L276.3,177.958 L273.79,179.407 M288.473,172.208 L287.642,171.729 L287.448,171.616 L288.473,172.208 M286.258,172.208 L257.189,155.425 L244.721,162.623 L243.614,161.984 L256.081,154.785 L257.189,154.146 L258.297,154.785 L287.366,171.569 L286.258,172.208" id="Fill-24" fill="#D1E9F2"></path>
                <path d="M295.435,203.035 L295.435,203.035 L298.433,201.305 L295.435,203.035 M296.409,201.194 C296.41,201.194 296.41,201.194 296.41,201.193 L303.709,196.979 L296.409,201.194 M316.436,189.631 L287.366,172.848 L274.898,180.046 L273.79,179.407 L286.258,172.208 L287.366,171.569 L287.448,171.616 L287.642,171.729 L288.473,172.208 L317.543,188.992 L316.436,189.631" id="Fill-25" fill="#D1E9F2"></path>
                <path d="M318.652,224.477 L318.652,224.477 L331.702,216.943 L318.652,224.477 M317.544,223.837 L297.842,212.463 C297.842,212.462 297.842,212.462 297.842,212.462 L317.545,223.837 L336.162,213.089 L317.545,223.837 M348.828,207.055 L347.998,206.575 L347.795,206.458 L348.829,207.055 M346.614,207.055 L317.544,190.271 L298.433,201.305 L295.435,203.035 C295.934,202.438 296.26,201.815 296.409,201.194 L316.436,189.631 L317.544,188.991 L318.651,189.631 L318.652,189.631 L347.721,206.415 L346.614,207.055" id="Fill-26" fill="#D1E9F2"></path>
                <path d="M348.83,241.9 L347.722,241.26 L317.762,223.963 L317.545,223.837 L346.613,207.055 L346.614,207.055 L347.721,206.415 L347.795,206.458 L347.998,206.575 L348.828,207.055 L348.829,207.055 L379.006,224.478 L348.83,241.9 M318.652,224.477 L347.722,241.26 L376.792,224.478 L347.721,207.695 L318.652,224.477" id="Fill-27" fill="#D1E9F2"></path>
                <path d="M47.054,102.515 L47.054,102.515 L57.553,96.454 L47.054,102.515 M44.839,102.515 L14.662,85.092 L45.946,67.029 L76.124,84.453 L75.016,85.093 L45.946,68.309 L16.877,85.092 L45.947,101.875 L66.023,90.285 L45.947,101.875 L44.839,102.515 M77.231,85.093 L76.4,84.614 L76.197,84.496 L77.231,85.093" id="Fill-28" fill="#D1E9F2"></path>
                <path d="M77.233,119.938 L77.232,119.938 L90.282,112.404 L77.233,119.938 M76.124,119.298 L46.223,102.035 L45.947,101.875 L75.016,85.093 L76.124,84.453 L76.197,84.496 L76.4,84.614 L77.231,85.093 L106.301,101.876 L105.194,102.516 L76.124,85.733 L47.054,102.515 L76.125,119.298 L94.742,108.55 L76.125,119.298 M107.409,102.516 L106.578,102.036 L106.401,101.934 L107.409,102.516" id="Fill-29" fill="#D1E9F2"></path>
                <path d="M107.41,137.362 L107.41,137.362 L120.29,129.925 L107.41,137.362 M105.195,137.361 L90.66,128.969 L105.195,137.362 L105.195,137.361 M106.302,136.722 L91.767,128.33 L106.302,136.722 L120.837,128.33 L106.303,136.722 L106.302,136.722 M137.586,119.939 L136.755,119.459 L136.616,119.379 L137.587,119.939 M135.372,119.939 L106.301,103.156 L77.232,119.938 L76.125,119.298 L105.194,102.516 L106.301,101.876 L106.401,101.934 L106.578,102.036 L107.409,102.516 L136.479,119.299 L135.371,119.939" id="Fill-30" fill="#D1E9F2"></path>
                <polyline id="Fill-31" fill="#D1E9F2" points="116.739 142.748 107.409 137.362 107.41 137.362 106.453 136.809 106.303 136.722 135.371 119.939 136.479 119.299 136.616 119.379 136.755 119.459 137.586 119.939 146.921 125.328 145.813 125.967 136.479 120.578 107.41 137.362 116.739 142.748"></polyline>
                <path d="M288.475,241.9 L288.475,241.9 L299.916,235.294 L288.475,241.9 M287.367,241.26 L281.984,238.152 L287.368,241.26 L301.902,232.868 L287.368,241.26 M318.652,224.477 L317.821,223.997 L317.762,223.963 L318.652,224.477 M316.437,224.477 L297.951,213.804 C297.957,213.707 297.961,213.609 297.961,213.511 C297.961,213.153 297.921,212.803 297.842,212.463 L317.544,223.837 L316.437,224.477" id="Fill-32" fill="#D1E9F2"></path>
                <path d="M318.653,259.322 L318.653,259.322 L334.842,249.976 L318.653,259.323 M317.545,258.683 L288.475,241.9 L287.54,241.36 L287.368,241.26 L316.437,224.477 L317.545,223.837 L317.762,223.963 L317.821,223.997 L318.652,224.477 L347.722,241.26 L346.615,241.9 L317.545,225.116 L288.475,241.9 L317.546,258.683 L327.504,252.933 L317.546,258.683" id="Fill-33" fill="#D1E9F2"></path>
                <path d="M348.831,276.746 L348.83,276.745 L348.831,276.745 L347.823,276.164 L347.723,276.106 L318.653,259.323 L318.653,259.322 L317.645,258.741 L317.546,258.683 L346.615,241.9 L347.722,241.26 L348.83,241.9 L379.007,259.323 L348.831,276.746 M318.653,259.322 L347.723,276.106 L376.793,259.323 L347.722,242.539 L318.653,259.322" id="Fill-34" fill="#D1E9F2"></path>
                <path d="M47.055,137.361 L47.055,137.361 L63.245,128.014 L47.056,137.361 M44.84,137.36 L14.663,119.938 L44.839,102.515 L45.947,101.875 L46.223,102.035 L76.124,119.298 L75.017,119.938 L45.947,103.154 L16.878,119.938 L45.948,136.721 L55.906,130.972 L45.948,136.721 L44.84,137.36" id="Fill-35" fill="#D1E9F2"></path>
                <path d="M77.233,154.783 L77.233,154.783 L93.253,145.535 L77.233,154.783 M76.125,154.144 L46.224,136.881 L45.948,136.721 L75.017,119.938 L76.125,119.298 L77.232,119.938 L77.233,119.938 L106.302,136.722 L105.195,137.361 L76.125,120.577 L47.055,137.361 L76.126,154.144 L86.624,148.083 L76.126,154.144 M107.409,137.362 L106.579,136.882 L106.453,136.809 L107.41,137.362" id="Fill-36" fill="#D1E9F2"></path>
                <polyline id="Fill-37" fill="#D1E9F2" points="77.233 154.783 76.126 154.144 106.302 136.722 106.303 136.722 106.453 136.809 106.579 136.882 107.409 137.362 116.739 142.748 115.631 143.387 106.302 138.001 77.233 154.783"></polyline>
                <path d="M258.298,259.322 L258.298,259.322 L277.409,248.289 L258.299,259.323 M256.083,259.322 L250.694,256.211 L250.695,256.211 L256.084,259.322 L256.083,259.322 M257.191,258.683 L257.191,258.683 L251.802,255.572 L257.191,258.683 L267.149,252.933 L257.191,258.683 M288.475,241.9 L287.644,241.42 L287.54,241.36 L288.475,241.9 M286.26,241.9 L280.876,238.791 L281.984,238.152 L287.367,241.26 L286.26,241.9" id="Fill-38" fill="#D1E9F2"></path>
                <path d="M288.476,276.745 L288.476,276.745 L303.011,268.354 L288.476,276.745 M287.369,276.106 L287.369,276.106 L258.298,259.323 L258.298,259.322 L257.267,258.727 L257.191,258.683 L286.26,241.9 L287.368,241.26 L287.54,241.36 L287.644,241.42 L288.475,241.9 L317.545,258.683 L316.438,259.322 L287.368,242.539 L258.298,259.322 L287.369,276.106 L304.997,265.928 L287.369,276.106 M318.653,259.323 L317.822,258.843 L317.645,258.741 L318.653,259.322" id="Fill-39" fill="#D1E9F2"></path>
                <path d="M318.654,294.168 L318.654,294.168 L334.996,284.733 L318.654,294.168 M317.546,293.529 L288.476,276.745 L287.469,276.164 L287.369,276.106 L316.438,259.322 L317.546,258.683 L317.645,258.741 L317.822,258.843 L318.653,259.323 L347.723,276.106 L346.616,276.745 L317.546,259.962 L288.476,276.745 L317.547,293.529 L332.081,285.137 L317.546,293.529 M348.83,276.745 L348,276.266 L347.823,276.164 L348.831,276.745" id="Fill-40" fill="#D1E9F2"></path>
                <path d="M347.724,312.231 L347.448,312.07 L317.547,294.808 L318.654,294.168 L317.546,293.529 L347.723,276.106 L347.823,276.164 L348,276.266 L348.83,276.745 L348.831,276.746 L379.008,294.168 L347.724,312.231 M318.654,294.168 L347.724,310.951 L376.794,294.168 L347.723,277.385 L318.654,294.168" id="Fill-41" fill="#D1E9F2"></path>
                <path d="M47.056,172.206 L47.056,172.206 L61.591,163.815 L47.057,172.206 M44.842,172.206 L14.664,154.783 L44.84,137.36 L45.948,136.721 L46.224,136.881 L76.125,154.144 L75.018,154.783 L45.948,138 L16.879,154.783 L45.949,171.567 L63.577,161.389 L44.842,172.206" id="Fill-42" fill="#D1E9F2"></path>
                <path d="M77.234,189.629 L77.234,189.629 L80.042,188.008 L77.234,189.629 M76.126,188.99 L74.22,187.889 L74.221,187.889 L76.127,188.989 L78.934,187.368 L78.935,187.369 L76.127,188.99 L76.127,188.989 M71.309,186.208 L46.225,171.727 L45.949,171.567 L75.018,154.783 L76.126,154.144 L86.558,160.167 L85.45,160.807 L76.126,155.423 L47.056,172.206 L71.309,186.208" id="Fill-43" fill="#D1E9F2"></path>
                <polyline id="Fill-44" fill="#D1E9F2" points="84.65 193.911 77.234 189.629 76.279 189.078 76.127 188.99 78.935 187.369 80.042 188.008 77.234 189.629 84.65 193.911"></polyline>
                <path d="M228.122,276.744 L228.122,276.744 L241.171,269.211 L228.122,276.745 M227.014,276.105 L221.621,272.991 L227.014,276.105 L245.632,265.356 L227.015,276.105 L227.014,276.105 M258.298,259.323 L257.467,258.843 L257.267,258.727 L258.298,259.322 M256.084,259.322 L250.695,256.211 L251.802,255.572 L257.191,258.683 L256.083,259.322" id="Fill-45" fill="#D1E9F2"></path>
                <path d="M258.299,294.167 L258.299,294.167 L268.751,288.133 L258.3,294.167 M257.192,293.528 L228.121,276.745 L228.122,276.744 L227.186,276.204 L227.015,276.105 L256.083,259.322 L257.191,258.683 L257.267,258.727 L257.467,258.843 L258.298,259.323 L287.369,276.106 L286.261,276.745 L257.191,259.962 L228.122,276.744 L257.192,293.528 L273.212,284.279 L257.192,293.528 M288.476,276.745 L287.645,276.266 L287.469,276.164 L288.476,276.745" id="Fill-46" fill="#D1E9F2"></path>
                <path d="M287.37,312.231 L257.192,294.807 L258.299,294.167 L257.192,293.528 L286.261,276.745 L287.369,276.106 L287.469,276.164 L287.645,276.266 L288.476,276.745 L317.546,293.529 L318.654,294.168 L317.547,294.808 L317.546,294.808 L287.37,312.231 M258.299,294.167 L287.37,310.951 L316.439,294.168 L287.369,277.385 L258.299,294.167" id="Fill-47" fill="#D1E9F2"></path>
                <path d="M55.417,202.226 L47.057,207.052 L55.417,202.226 Z M14.665,189.629 L45.949,171.567 L46.225,171.727 L74.199,187.877 L73.737,188.144 C73.522,188.268 73.314,188.397 73.113,188.529 L45.949,172.846 L16.88,189.629 L45.95,206.412 L60.485,198.021 L45.95,206.412 L44.842,207.052 L14.665,189.629 Z M76.403,189.15 L76.279,189.078 L77.234,189.629 L76.403,189.15 Z M73.113,188.529 L74.22,187.889 L76.126,188.99 L75.019,189.629 L73.113,188.529 Z" id="Fill-48" fill="#D1E9F2"></path>
                <path d="M86.99,218.843 L77.235,224.475 L86.99,218.843 Z M46.226,206.573 L45.95,206.412 L67.184,194.153 C67.335,194.483 67.525,194.8 67.752,195.104 L47.057,207.052 L76.128,223.835 L85.883,218.203 L76.128,223.835 L46.226,206.573 Z M76.127,190.269 L67.752,195.104 C67.491,194.832 67.28,194.516 67.179,194.156 L75.019,189.629 L76.127,188.989 L76.279,189.078 L76.403,189.15 L77.234,189.629 L84.65,193.911 L83.542,194.55 L76.127,190.269 Z" id="Fill-49" fill="#D1E9F2"></path>
                <path d="M107.413,241.898 L107.413,241.898 L117.168,236.266 L107.413,241.898 M106.305,241.258 L77.235,224.475 L76.302,223.936 L76.128,223.835 L85.883,218.203 L86.99,218.843 L77.235,224.475 L106.305,241.258 L116.06,235.626 L116.061,235.626 L106.306,241.258 L106.305,241.258" id="Fill-50" fill="#D1E9F2"></path>
                <path d="M137.59,259.322 L137.59,259.322 L147.346,253.689 L137.591,259.322 M135.375,259.321 L120.84,250.929 L135.376,259.322 L135.375,259.321 M136.483,258.682 L136.483,258.682 L121.948,250.29 L136.483,258.682 L146.238,253.049 L146.239,253.05 L136.483,258.682 M107.413,241.898 L106.305,241.258 L116.061,235.626 L117.168,236.266 L107.413,241.898" id="Fill-51" fill="#D1E9F2"></path>
                <path d="M167.769,276.744 L167.768,276.744 L177.524,271.112 L167.769,276.744 M166.661,276.105 L166.661,276.105 L137.59,259.322 L136.6,258.75 L136.483,258.682 L146.239,253.05 L147.346,253.689 L137.59,259.322 L166.661,276.105 L176.416,270.472 L166.661,276.105" id="Fill-52" fill="#D1E9F2"></path>
                <path d="M195.73,294.167 L184.289,287.562 L195.73,294.167 M197.945,294.167 L197.945,294.167 L209.386,287.562 L197.945,294.167 M196.837,293.528 L182.303,285.136 L196.837,293.528 L211.372,285.136 L196.837,293.528 M228.121,276.745 L227.291,276.265 L227.186,276.204 L228.122,276.744 M225.907,276.744 L220.513,273.631 L221.621,272.991 L227.014,276.105 L225.907,276.744 M167.768,276.744 L166.661,276.105 L176.416,270.472 L177.524,271.112 L167.768,276.744" id="Fill-53" fill="#D1E9F2"></path>
                <path d="M227.015,312.23 L226.739,312.07 L196.838,294.807 L197.945,294.167 L196.837,293.528 L227.014,276.105 L227.015,276.105 L227.186,276.204 L227.291,276.265 L228.121,276.745 L258.299,294.167 L257.192,294.807 L227.015,312.23 M197.945,294.167 L227.015,310.95 L256.085,294.167 L227.014,277.384 L197.945,294.167" id="Fill-54" fill="#D1E9F2"></path>
                <path d="M47.058,241.898 L47.058,241.898 L61.593,233.506 L47.058,241.898 M44.843,241.897 L14.666,224.475 L44.842,207.052 L45.95,206.412 L46.226,206.573 L76.127,223.835 L75.02,224.475 L45.95,207.692 L16.88,224.475 L45.951,241.258 L62.293,231.823 L45.951,241.258 L44.843,241.897 M77.235,224.475 L76.404,223.995 L76.302,223.936 L77.235,224.475" id="Fill-55" fill="#D1E9F2"></path>
                <path d="M77.236,259.32 L77.236,259.32 L97.946,247.364 L77.236,259.321 M76.128,258.681 L46.227,241.418 L45.951,241.258 L75.02,224.475 L76.128,223.835 L76.302,223.936 L76.404,223.995 L77.235,224.475 L106.305,241.258 L105.198,241.898 L76.128,225.114 L47.058,241.898 L76.129,258.681 L86.027,252.966 L76.129,258.681" id="Fill-56" fill="#D1E9F2"></path>
                <path d="M107.414,276.743 L107.414,276.743 L127.49,265.153 L107.414,276.744 M106.306,276.104 L77.236,259.321 L77.236,259.32 L76.252,258.753 L76.129,258.681 L105.198,241.898 L106.305,241.258 L107.413,241.898 L136.483,258.682 L135.375,259.321 L106.305,242.537 L77.236,259.32 L106.306,276.104 L116.758,270.07 L106.306,276.104 M137.59,259.322 L136.759,258.842 L136.6,258.75 L137.59,259.322" id="Fill-57" fill="#D1E9F2"></path>
                <polyline id="Fill-58" fill="#D1E9F2" points="126.189 287.583 107.413 276.743 107.414 276.743 106.449 276.187 106.306 276.104 135.375 259.321 136.483 258.682 136.6 258.75 136.759 258.842 137.59 259.322 166.66 276.105 165.553 276.744 136.483 259.961 107.414 276.743 126.189 287.583"></polyline>
                <path d="M166.661,312.23 L144.014,299.154 L145.122,298.514 L166.661,310.95 L195.73,294.167 L166.661,277.384 L165.602,277.995 C165.438,277.634 165.229,277.326 164.98,277.075 L165.553,276.744 L166.661,276.105 L167.768,276.744 L167.769,276.744 L196.837,293.528 L197.945,294.167 L196.838,294.807 L196.837,294.807 L166.661,312.23" id="Fill-59" fill="#D1E9F2"></path>
                <path d="M47.059,276.743 L47.059,276.743 L59.786,269.396 L47.06,276.743 M44.844,276.743 L14.667,259.32 L44.843,241.897 L45.951,241.258 L46.227,241.418 L76.128,258.681 L75.021,259.32 L45.951,242.537 L16.882,259.32 L45.952,276.104 L60.486,267.712 L45.952,276.104 L44.844,276.743 M77.236,259.321 L76.405,258.841 L76.252,258.753 L77.236,259.32" id="Fill-60" fill="#D1E9F2"></path>
                <path d="M77.237,294.166 L77.237,294.166 L89.964,286.818 L77.237,294.166 M76.129,293.527 L46.228,276.264 L45.952,276.104 L75.021,259.32 L76.129,258.681 L76.252,258.753 L76.405,258.841 L77.236,259.321 L106.306,276.104 L105.199,276.743 L76.129,259.96 L47.059,276.743 L76.129,293.527 L90.664,285.135 L76.129,293.527 M107.413,276.743 L106.583,276.264 L106.449,276.187 L107.414,276.743" id="Fill-61" fill="#D1E9F2"></path>
                <path d="M106.307,312.229 L106.031,312.069 L76.13,294.806 L77.237,294.166 L76.129,293.527 L106.306,276.104 L106.449,276.187 L106.583,276.264 L107.413,276.743 L126.189,287.583 C126.03,287.92 125.878,288.258 125.733,288.599 L106.306,277.383 L77.237,294.166 L106.307,310.949 L115.811,305.462 C115.596,305.986 115.418,306.518 115.281,307.047 L106.307,312.229" id="Fill-62" fill="#D1E9F2"></path>
                <path d="M45.953,312.229 L14.668,294.165 L44.844,276.743 L45.952,276.104 L46.228,276.264 L76.129,293.527 L77.237,294.166 L76.13,294.806 L76.129,294.806 L45.953,312.229 M45.952,277.383 L16.882,294.165 L45.953,310.949 L75.022,294.166 L45.952,277.383" id="Fill-63" fill="#D1E9F2"></path>
                <path d="M255.073,270.985 C255.073,272.903 253.725,275.236 252.064,276.195 C250.403,277.154 249.056,276.376 249.056,274.458 C249.056,272.539 250.403,270.206 252.064,269.247 C253.725,268.288 255.073,269.066 255.073,270.985" id="Fill-64" fill="#FFFFFE"></path>
                <path d="M264.824,265.355 C264.824,267.273 263.477,269.606 261.815,270.565 C260.154,271.524 258.807,270.746 258.807,268.828 C258.807,266.909 260.154,264.576 261.815,263.617 C263.477,262.658 264.824,263.436 264.824,265.355" id="Fill-65" fill="#FFFFFE"></path>
                <path d="M274.575,259.725 C274.575,261.643 273.228,263.976 271.566,264.935 C269.905,265.894 268.558,265.116 268.558,263.198 C268.558,261.28 269.905,258.947 271.566,257.988 C273.228,257.029 274.575,257.806 274.575,259.725" id="Fill-66" fill="#FFFFFE"></path>
                <path d="M284.326,254.095 C284.326,256.013 282.979,258.346 281.318,259.305 C279.656,260.265 278.309,259.487 278.309,257.569 C278.309,255.65 279.656,253.318 281.318,252.358 C282.979,251.399 284.326,252.176 284.326,254.095" id="Fill-67" fill="#FFFFFE"></path>
                <polyline id="Fill-68" fill="#FFFFFE" points="5.594 197.787 0.323 200.831 0.323 194.743 5.594 191.699 5.594 197.787"></polyline>
                <polyline id="Fill-69" fill="#FFFFFE" points="14.139 192.855 8.867 195.898 8.867 189.811 14.139 186.767 14.139 192.855"></polyline>
                <polyline id="Fill-73" fill="#FFFFFE" points="104.224 263.155 98.208 266.628 98.208 259.681 104.224 256.207 104.224 263.155"></polyline>
                <path d="M137.591,294.166 L137.591,294.166 L156.209,283.418 L137.592,294.166 M136.484,293.527 L126.189,287.583 L136.484,293.527 L145.477,288.335 L136.484,293.527" id="Fill-77" fill="#EBF6F9"></path>
                <path d="M144.014,299.154 L136.484,294.806 L137.591,294.166 L136.484,293.527 L164.98,277.075 C165.229,277.326 165.438,277.634 165.602,277.995 L137.591,294.166 L145.122,298.514 L144.014,299.154" id="Fill-78" fill="#D1E9F2"></path>
                <path d="M115.281,307.047 C115.418,306.518 115.596,305.986 115.811,305.462 L135.377,294.166 L125.733,288.599 C125.878,288.258 126.03,287.92 126.189,287.583 L137.591,294.166 L136.484,294.806 L115.281,307.047" id="Fill-79" fill="#D1E9F2"></path>
                <g id="Group-84" transform="translate(352.000000, 110.000000)">
                    <mask id="mask-2" fill="white">
                        <use xlink:href="#path-1"></use>
                    </mask>
                    <g id="Clip-83"></g>
                    <polyline id="Fill-82" fill="url(#radialGradient-3)" mask="url(#mask-2)" points="22.919 26.39 0.329 39.432 0.329 13.348 22.919 0.306 22.919 26.39"></polyline>
                </g>
                <g id="Group-87" transform="translate(329.000000, 97.000000)">
                    <mask id="mask-5" fill="white">
                        <use xlink:href="#path-4"></use>
                    </mask>
                    <g id="Clip-86"></g>
                    <polyline id="Fill-85" fill="url(#linearGradient-6)" mask="url(#mask-5)" points="23.329 26.348 0.739 13.306 23.328 0.264 45.918 13.306 23.329 26.348"></polyline>
                </g>
                <g id="Group-90" transform="translate(329.000000, 110.000000)">
                    <mask id="mask-8" fill="white">
                        <use xlink:href="#path-7"></use>
                    </mask>
                    <g id="Clip-89"></g>
                    <polyline id="Fill-88" fill="url(#radialGradient-9)" mask="url(#mask-8)" points="23.329 39.432 0.739 26.39 0.739 0.306 23.329 13.348 23.329 39.432"></polyline>
                </g>
                <polyline id="Fill-91" fill="#FFFFFE" points="344.193 135.34 337.875 131.693 337.875 124.397 344.193 128.045 344.193 135.34"></polyline>
                <path d="M37.87,268.735 L6.705,250.741 C4.793,249.637 5.033,247.708 7.241,246.433 L37.333,229.06 C39.542,227.784 42.882,227.646 44.796,228.75 L75.96,246.743 C77.873,247.847 77.632,249.777 75.423,251.051 L45.332,268.425 C43.124,269.7 39.783,269.838 37.87,268.735" id="Fill-92" fill="#7DBCDB"></path>
                <path d="M38.755,257.355 C40.13,258.15 42.79,258.003 44.446,257.046 L74.539,239.671 C75.295,239.235 75.476,238.84 75.481,238.766 C75.47,238.744 75.369,238.6 75.075,238.43 L43.911,220.437 C42.536,219.643 39.877,219.787 38.217,220.746 L8.126,238.119 C7.37,238.556 7.188,238.95 7.184,239.025 C7.194,239.047 7.296,239.193 7.59,239.363 L38.755,257.355 Z M41.128,261.411 C39.605,261.411 38.135,261.084 36.985,260.421 L5.82,242.428 C4.437,241.629 3.644,240.388 3.644,239.024 C3.644,237.496 4.632,236.049 6.355,235.054 L36.448,217.68 C39.232,216.073 43.203,215.942 45.68,217.37 L76.844,235.364 C78.227,236.161 79.021,237.403 79.021,238.767 C79.021,240.296 78.032,241.742 76.308,242.738 L46.216,260.112 C44.724,260.974 42.89,261.411 41.128,261.411 L41.128,261.411 Z" id="Fill-93" fill="#FFFFFE"></path>
                <path d="M77.241,227.741 L77.241,216.989 L53.13,216.975 L44.796,212.163 C42.882,211.059 39.542,211.198 37.333,212.473 L29.557,216.962 L5.423,216.948 L5.423,228.008 C5.37,228.755 5.786,229.476 6.706,230.007 L37.87,247.999 C39.783,249.104 43.124,248.965 45.332,247.691 L75.423,230.317 C76.698,229.581 77.312,228.628 77.241,227.741" id="Fill-94" fill="#3B6397"></path>
                <g id="Group-97" transform="translate(5.000000, 211.000000)">
                    <mask id="mask-11" fill="white">
                        <use xlink:href="#path-10"></use>
                    </mask>
                    <g id="Clip-96"></g>
                    <path d="M36.333,0.424 C34.933,0.457 33.48,0.81 32.333,1.473 L24.557,5.962 L0.423,5.948 L0.423,17.008 C0.37,17.755 0.786,18.476 1.706,19.007 L32.87,36.999 C33.789,37.531 35.039,37.771 36.333,37.74 L36.333,0.424" id="Fill-95" fill="url(#radialGradient-12)" mask="url(#mask-11)"></path>
                </g>
                <path d="M8.155,216.95 L5.423,216.948 L5.423,228.008 C5.37,228.755 5.786,229.476 6.706,230.007 L8.155,230.844 L8.155,216.95" id="Fill-98" fill="#D4EAF2"></path>
                <path d="M38.35,248.235 C40,248.942 42.386,248.903 44.315,248.167 L44.315,235.611 L38.35,235.611 L38.35,248.235" id="Fill-99" fill="#5589BB"></path>
                <g id="Group-102" transform="translate(5.000000, 196.000000)">
                    <mask id="mask-14" fill="white">
                        <use xlink:href="#path-13"></use>
                    </mask>
                    <g id="Clip-101"></g>
                    <path d="M32.87,40.981 L1.705,22.988 C-0.207,21.884 0.033,19.954 2.241,18.68 L32.333,1.306 C34.542,0.031 37.882,-0.107 39.796,0.996 L70.96,18.99 C72.873,20.094 72.632,22.023 70.423,23.298 L40.332,40.671 C38.124,41.947 34.783,42.085 32.87,40.981" id="Fill-100" mask="url(#mask-14)"></path>
                </g>
                <path d="M75.423,217.182 L45.332,234.555 C43.124,235.83 39.783,235.969 37.87,234.865 L6.706,216.871 C6.279,216.625 5.965,216.337 5.751,216.025 C5.093,217.082 5.392,218.23 6.706,218.988 L37.87,236.981 C39.783,238.085 43.124,237.947 45.332,236.671 L75.423,219.298 C77.14,218.307 77.662,216.923 76.914,215.836 C76.614,216.319 76.116,216.782 75.423,217.182" id="Fill-103" fill="#FFFFFE"></path>
                <path d="M65.778,230.579 C65.778,231.382 65.214,232.359 64.519,232.76 C63.824,233.161 63.26,232.835 63.26,232.032 C63.26,231.23 63.824,230.254 64.519,229.853 C65.214,229.451 65.778,229.777 65.778,230.579" id="Fill-104" fill="#D4EAF2"></path>
                <path d="M69.828,228.241 C69.828,229.044 69.264,230.02 68.569,230.421 C67.875,230.823 67.31,230.497 67.31,229.695 C67.31,228.892 67.875,227.916 68.569,227.515 C69.264,227.114 69.828,227.439 69.828,228.241" id="Fill-105" fill="#D4EAF2"></path>
                <path d="M73.879,225.903 C73.879,226.705 73.314,227.682 72.62,228.083 C71.924,228.485 71.361,228.159 71.361,227.357 C71.361,226.554 71.924,225.577 72.62,225.176 C73.314,224.775 73.879,225.1 73.879,225.903" id="Fill-106" fill="#D4EAF2"></path>
                <path d="M39.713,225.825 L25.129,217.406 C24.234,216.889 24.346,215.987 25.38,215.39 L39.462,207.26 C40.495,206.663 42.058,206.598 42.953,207.115 L57.537,215.534 C58.431,216.051 58.319,216.954 57.286,217.551 L43.205,225.681 C42.171,226.278 40.607,226.342 39.713,225.825" id="Fill-107" fill="#5589BB"></path>
                <path d="M41.109,218.776 L39.09,217.611 C38.967,217.539 38.983,217.414 39.126,217.332 L41.074,216.207 C41.216,216.124 41.433,216.115 41.557,216.187 L43.575,217.352 C43.699,217.423 43.683,217.548 43.54,217.631 L41.591,218.756 C41.449,218.838 41.232,218.847 41.109,218.776" id="Fill-108" fill="#D4EAF2"></path>
                <path d="M25.129,217.406 L25.171,217.43 L25.38,217.285 L39.462,209.156 C40.495,208.559 42.058,208.494 42.953,209.011 L57.496,217.406 C58.32,216.816 58.364,216.012 57.537,215.534 L42.953,207.115 C42.058,206.598 40.495,206.663 39.462,207.26 L25.38,215.39 C24.346,215.987 24.234,216.889 25.129,217.406" id="Fill-109" fill="#3B6397"></path>
                <path d="M194.834,281.106 L70.59,209.374 C67.076,207.345 67.516,203.8 71.575,201.457 L156.175,152.629 C160.234,150.285 166.373,150.032 169.888,152.061 L294.131,223.793 C297.646,225.823 297.206,229.366 293.147,231.709 L208.546,280.537 C204.488,282.881 198.349,283.135 194.834,281.106" id="Fill-204" fill="#7DBCDB"></path>
                <path d="M324.947,73.222 L200.704,1.49 C199.26,0.656 197.794,0.528 196.493,0.973 L196.501,0.96 L196.275,1.045 L196.22,1.066 L191.73,2.784 L195.76,4.757 L195.703,4.977 L173.75,104.812 C172.737,109.422 174.764,114.804 178.28,116.833 L299.535,186.841 L299.103,191.979 L304.01,190.077 C305.659,189.306 306.979,187.562 307.524,185.078 L329.477,85.243 C330.49,80.633 328.463,75.25 324.947,73.222" id="Fill-206" fill="#263764"></path>
                <path d="M324.947,73.222 L200.704,1.49 C199.26,0.656 197.794,0.528 196.493,0.973 L196.501,0.96 L196.275,1.045 L196.22,1.066 L191.73,2.784 L195.76,4.757 L195.703,4.977 L180.649,73.405 L241.44,120.767 L328.872,78.172 C328.047,76.037 326.679,74.222 324.947,73.222" id="Fill-207" fill="#3B6397"></path>
                <path d="M320.262,87.382 L329.72,83.355 C329.894,79.693 328.378,75.908 325.889,73.884 L310.918,80.182 L320.262,87.382" id="Fill-208" fill="#2B4876"></path>
                <g id="Group-211" transform="translate(165.000000, 2.000000)">
                    <mask id="mask-16" fill="white">
                        <use xlink:href="#path-15"></use>
                    </mask>
                    <g id="Clip-210"></g>
                    <path d="M129.787,189.49 L5.543,117.758 C2.028,115.729 0,110.347 1.012,105.737 L22.965,5.902 C23.978,1.291 27.648,-0.801 31.163,1.229 L155.407,72.96 C158.922,74.99 160.95,80.372 159.937,84.983 L137.984,184.818 C136.971,189.428 133.301,191.52 129.787,189.49" id="Fill-209" fill="url(#radialGradient-17)" mask="url(#mask-16)"></path>
                </g>
                <path d="M321.6,74.524 L197.356,2.792 C195.653,1.81 193.92,1.81 192.464,2.579 C193.632,2.324 194.906,2.502 196.163,3.229 L320.407,74.96 C323.922,76.99 325.95,82.372 324.937,86.983 L302.984,186.818 C302.463,189.194 301.228,190.884 299.678,191.702 C301.776,191.244 303.527,189.342 304.177,186.381 L326.13,86.546 C327.143,81.936 325.115,76.553 321.6,74.524" id="Fill-212" fill="#FFFFFE"></path>
                <path d="M292.093,184.639 L175.244,117.209 C172.028,115.352 170.172,110.427 171.098,106.208 L191.334,14.196 C192.26,9.977 195.619,8.062 198.835,9.919 L315.684,77.349 C318.9,79.205 320.756,84.131 319.83,88.35 L299.595,180.363 C298.669,184.581 295.309,186.495 292.093,184.639" id="Fill-213" fill="#FFFFFE"></path>
                <g id="Group-216" transform="translate(170.000000, 9.000000)">
                    <mask id="mask-19" fill="white">
                        <use xlink:href="#path-18"></use>
                    </mask>
                    <g id="Clip-215"></g>
                    <path d="M122.093,175.639 L5.244,108.209 C2.028,106.352 0.172,101.427 1.098,97.208 L21.334,5.196 C22.26,0.977 25.619,-0.938 28.835,0.919 L145.684,68.349 C148.9,70.205 150.756,75.131 149.83,79.35 L129.595,171.363 C128.669,175.581 125.309,177.495 122.093,175.639" id="Fill-214" fill="url(#radialGradient-20)" mask="url(#mask-19)"></path>
                </g>
                <path d="M293.112,184.224 L176.262,116.794 C173.047,114.938 171.19,110.012 172.117,105.794 L192.351,13.781 C192.821,11.646 193.915,10.108 195.296,9.343 C193.444,9.82 191.913,11.557 191.334,14.196 L171.098,106.208 C170.172,110.427 172.028,115.352 175.244,117.209 L292.093,184.639 C293.681,185.556 295.302,185.546 296.65,184.8 C295.541,185.086 294.316,184.919 293.112,184.224" id="Fill-217" fill="#5589BB"></path>
                <path d="M296.502,194.615 L279.518,192.372 L169.888,129.076 C166.373,127.048 160.234,127.302 156.175,129.645 L78.492,174.48 L68.222,173.123 L68.222,178.95 L68.232,178.951 C68.165,180.298 68.932,181.594 70.59,182.551 L194.834,254.283 C198.348,256.313 204.488,256.058 208.546,253.715 L293.147,204.887 C295.43,203.569 296.569,201.87 296.502,200.276 L296.502,194.615" id="Fill-218" fill="#263764"></path>
                <path d="M214.13,154.619 L206.34,150.122 L120.708,150.122 L78.492,174.48 L68.222,173.123 L68.222,178.95 L68.232,178.951 C68.165,180.298 68.932,181.594 70.59,182.551 L194.834,254.283 C196.691,255.356 199.282,255.784 201.911,255.61 L214.13,154.619" id="Fill-219" fill="#3B6397"></path>
                <path d="M72.78,173.726 L68.222,173.123 L68.222,178.95 L68.232,178.951 C68.165,180.298 68.932,181.594 70.59,182.551 L72.78,183.816 L72.78,173.726" id="Fill-220" fill="#5589BB"></path>
                <path d="M196.086,254.865 C199.417,256.128 204.179,255.853 207.736,254.141 L207.736,241.145 L196.086,241.145 L196.086,254.865" id="Fill-221" fill="#2B4876"></path>
                <g id="Group-224" transform="translate(68.000000, 118.000000)">
                    <mask id="mask-22" fill="white">
                        <use xlink:href="#path-21"></use>
                    </mask>
                    <g id="Clip-223"></g>
                    <path d="M132.786,131.833 C130.6,131.833 128.511,131.4 126.929,130.518 C128.51,131.4 130.6,131.833 132.786,131.833 M132.789,129.705 C130.557,129.705 128.426,129.255 126.834,128.335 L2.59,56.603 C1.438,55.938 0.719,55.109 0.405,54.213 C-0.046,55.576 0.344,56.951 1.62,58.05 C0.735,57.29 0.273,56.396 0.222,55.466 C0.134,53.86 1.272,52.144 3.575,50.815 L17.45,42.807 L18.558,42.167 L47.631,25.387 L48.739,24.748 L77.813,7.967 L78.921,7.328 L88.175,1.987 C90.395,0.705 93.237,0.048 95.932,0.048 C98.164,0.048 100.295,0.499 101.888,1.418 L115.258,9.138 L116.366,9.777 L205.79,61.407 L206.898,62.046 L226.131,73.151 C227.779,74.101 228.557,75.385 228.502,76.722 C228.443,78.117 227.477,79.571 225.642,80.764 C228.004,79.228 228.92,77.26 228.317,75.54 C227.917,76.751 226.857,77.951 225.147,78.939 L140.546,127.767 C138.327,129.048 135.484,129.705 132.789,129.705 M50.276,38.221 L17.788,56.979 L129.268,121.267 L161.757,102.51 L50.276,38.221" id="Fill-222" fill="url(#radialGradient-23)" mask="url(#mask-22)"></path>
                </g>
                <path d="M293.147,196.939 L208.546,245.767 C204.488,248.11 198.349,248.364 194.834,246.335 L70.59,174.603 C69.438,173.938 68.719,173.109 68.405,172.213 C67.855,173.875 68.556,175.557 70.59,176.732 L194.834,248.463 C198.349,250.492 204.488,250.239 208.546,247.895 L293.147,199.067 C295.875,197.492 296.961,195.375 296.317,193.54 C295.917,194.751 294.857,195.951 293.147,196.939" id="Fill-225" fill="#FFFFFE"></path>
                <path d="M123.433,152.984 L117.811,149.738 C117.36,149.478 117.417,149.022 117.938,148.721 L124.573,144.89 C125.094,144.589 125.882,144.557 126.334,144.818 L131.956,148.063 C132.407,148.323 132.35,148.779 131.829,149.079 L125.194,152.91 C124.672,153.211 123.884,153.244 123.433,152.984" id="Fill-226" fill="#5589BB"></path>
                <path d="M132.114,157.995 L126.493,154.75 C126.042,154.49 126.098,154.034 126.619,153.734 L133.255,149.903 C133.776,149.602 134.564,149.569 135.015,149.829 L140.637,153.075 C141.089,153.335 141.032,153.791 140.51,154.092 L133.875,157.923 C133.354,158.224 132.565,158.256 132.114,157.995" id="Fill-227" fill="#5589BB"></path>
                <path d="M140.796,163.008 L135.174,159.762 C134.722,159.501 134.779,159.046 135.3,158.745 L141.936,154.914 C142.457,154.614 143.246,154.581 143.697,154.842 L149.318,158.087 C149.769,158.348 149.713,158.803 149.192,159.104 L142.556,162.935 C142.035,163.236 141.247,163.269 140.796,163.008" id="Fill-228" fill="#5589BB"></path>
                <path d="M152.802,158.868 L147.18,155.623 C146.729,155.363 146.786,154.907 147.307,154.607 L152.878,151.391 C153.398,151.089 154.187,151.057 154.638,151.318 L160.259,154.563 C160.711,154.823 160.654,155.279 160.133,155.579 L154.563,158.795 C154.042,159.097 153.254,159.129 152.802,158.868" id="Fill-229" fill="#5589BB"></path>
                <path d="M161.484,163.881 L155.862,160.635 C155.411,160.374 155.467,159.919 155.989,159.618 L161.558,156.403 C162.08,156.102 162.868,156.069 163.319,156.329 L168.941,159.575 C169.392,159.836 169.336,160.291 168.814,160.592 L163.245,163.808 C162.723,164.109 161.935,164.142 161.484,163.881" id="Fill-230" fill="#5589BB"></path>
                <path d="M170.165,168.893 L164.544,165.648 C164.092,165.387 164.149,164.932 164.67,164.631 L170.24,161.415 C170.761,161.114 171.549,161.081 172.001,161.342 L177.623,164.587 C178.074,164.848 178.017,165.303 177.496,165.604 L171.925,168.82 C171.405,169.121 170.616,169.154 170.165,168.893" id="Fill-231" fill="#5589BB"></path>
                <path d="M178.846,173.906 L173.225,170.659 C172.773,170.399 172.83,169.944 173.351,169.643 L178.922,166.427 C179.442,166.126 180.231,166.093 180.682,166.354 L186.303,169.6 C186.755,169.861 186.699,170.316 186.177,170.616 L180.607,173.832 C180.087,174.133 179.297,174.165 178.846,173.906" id="Fill-232" fill="#5589BB"></path>
                <path d="M187.528,178.917 L181.906,175.672 C181.455,175.411 181.511,174.956 182.033,174.656 L187.602,171.44 C188.124,171.138 188.912,171.106 189.364,171.366 L194.985,174.612 C195.436,174.872 195.38,175.327 194.859,175.628 L189.289,178.844 C188.767,179.145 187.979,179.178 187.528,178.917" id="Fill-233" fill="#5589BB"></path>
                <path d="M196.209,183.93 L190.588,180.684 C190.136,180.423 190.193,179.968 190.714,179.667 L196.284,176.451 C196.805,176.151 197.593,176.117 198.045,176.378 L203.667,179.624 C204.118,179.885 204.061,180.34 203.54,180.641 L197.97,183.857 C197.449,184.157 196.661,184.19 196.209,183.93" id="Fill-234" fill="#5589BB"></path>
                <path d="M204.89,188.942 L199.269,185.697 C198.817,185.436 198.874,184.981 199.395,184.679 L204.965,181.463 C205.486,181.162 206.275,181.13 206.726,181.391 L212.347,184.636 C212.799,184.897 212.743,185.352 212.221,185.653 L206.651,188.868 C206.13,189.169 205.341,189.202 204.89,188.942" id="Fill-235" fill="#5589BB"></path>
                <path d="M213.572,193.954 L207.95,190.708 C207.499,190.448 207.555,189.992 208.077,189.692 L213.647,186.476 C214.168,186.175 214.957,186.142 215.408,186.403 L221.029,189.649 C221.48,189.909 221.423,190.365 220.903,190.665 L215.333,193.881 C214.811,194.182 214.023,194.214 213.572,193.954" id="Fill-236" fill="#5589BB"></path>
                <path d="M222.254,198.966 L216.631,195.721 C216.18,195.46 216.237,195.005 216.758,194.703 L222.328,191.488 C222.849,191.187 223.637,191.155 224.089,191.415 L229.711,194.66 C230.162,194.921 230.105,195.376 229.584,195.677 L224.014,198.893 C223.493,199.194 222.705,199.227 222.254,198.966" id="Fill-237" fill="#5589BB"></path>
                <path d="M230.934,203.978 L225.313,200.733 C224.862,200.472 224.919,200.017 225.439,199.716 L231.009,196.5 C231.531,196.199 232.319,196.166 232.77,196.427 L238.392,199.673 C238.843,199.933 238.787,200.389 238.265,200.69 L232.695,203.906 C232.174,204.206 231.385,204.239 230.934,203.978" id="Fill-238" fill="#5589BB"></path>
                <path d="M165.593,156.495 L159.972,153.25 C159.521,152.99 159.578,152.534 160.098,152.234 L165.669,149.018 C166.19,148.717 166.978,148.684 167.429,148.945 L173.051,152.19 C173.503,152.45 173.446,152.906 172.924,153.207 L167.355,156.423 C166.834,156.724 166.045,156.756 165.593,156.495" id="Fill-239" fill="#5589BB"></path>
                <path d="M156.783,151.408 L151.161,148.163 C150.71,147.903 150.766,147.448 151.288,147.147 L156.858,143.931 C157.379,143.63 158.168,143.597 158.619,143.858 L164.24,147.103 C164.691,147.364 164.635,147.819 164.114,148.119 L158.544,151.335 C158.022,151.637 157.234,151.669 156.783,151.408" id="Fill-240" fill="#5589BB"></path>
                <path d="M147.958,146.314 L135.85,139.323 C135.399,139.063 135.456,138.608 135.976,138.307 L141.547,135.091 C142.068,134.789 142.856,134.757 143.307,135.018 L155.415,142.008 C155.866,142.269 155.809,142.724 155.289,143.025 L149.718,146.24 C149.197,146.541 148.409,146.574 147.958,146.314" id="Fill-241" fill="#5589BB"></path>
                <path d="M154.127,140.116 L144.3,134.445 C143.849,134.184 143.906,133.729 144.427,133.427 L149.998,130.211 C150.518,129.91 151.307,129.878 151.758,130.139 L161.584,135.812 C162.035,136.072 161.978,136.528 161.458,136.828 L155.887,140.044 C155.366,140.345 154.578,140.377 154.127,140.116" id="Fill-242" fill="#5589BB"></path>
                <path d="M174.275,161.508 L168.654,158.262 C168.202,158.001 168.258,157.546 168.78,157.245 L174.35,154.03 C174.871,153.729 175.66,153.697 176.111,153.956 L181.732,157.202 C182.184,157.463 182.128,157.918 181.606,158.219 L176.036,161.435 C175.515,161.736 174.726,161.769 174.275,161.508" id="Fill-243" fill="#5589BB"></path>
                <path d="M182.957,166.52 L177.335,163.275 C176.883,163.014 176.94,162.559 177.462,162.258 L183.031,159.042 C183.552,158.741 184.34,158.708 184.793,158.969 L190.414,162.214 C190.865,162.475 190.808,162.93 190.288,163.231 L184.717,166.448 C184.196,166.748 183.408,166.781 182.957,166.52" id="Fill-244" fill="#5589BB"></path>
                <path d="M191.637,171.532 L186.016,168.286 C185.565,168.026 185.622,167.571 186.142,167.27 L191.713,164.054 C192.234,163.753 193.022,163.721 193.473,163.981 L199.095,167.227 C199.547,167.488 199.49,167.943 198.968,168.243 L193.399,171.459 C192.878,171.76 192.089,171.793 191.637,171.532" id="Fill-245" fill="#5589BB"></path>
                <path d="M200.319,176.544 L194.698,173.299 C194.246,173.038 194.302,172.583 194.824,172.282 L200.394,169.067 C200.916,168.765 201.704,168.733 202.155,168.993 L207.776,172.239 C208.228,172.499 208.172,172.954 207.65,173.255 L202.08,176.471 C201.559,176.773 200.77,176.805 200.319,176.544" id="Fill-246" fill="#5589BB"></path>
                <path d="M209.001,181.557 L203.379,178.311 C202.927,178.05 202.984,177.595 203.505,177.294 L209.076,174.078 C209.596,173.778 210.385,173.744 210.837,174.005 L216.458,177.251 C216.909,177.512 216.852,177.967 216.332,178.268 L210.761,181.484 C210.24,181.784 209.452,181.818 209.001,181.557" id="Fill-247" fill="#5589BB"></path>
                <path d="M217.682,186.569 L212.06,183.323 C211.609,183.063 211.666,182.608 212.187,182.307 L217.756,179.091 C218.278,178.789 219.066,178.757 219.517,179.018 L225.139,182.263 C225.59,182.524 225.534,182.979 225.012,183.28 L219.443,186.495 C218.922,186.797 218.133,186.829 217.682,186.569" id="Fill-248" fill="#5589BB"></path>
                <path d="M226.363,191.581 L220.742,188.335 C220.291,188.074 220.347,187.619 220.868,187.319 L226.438,184.103 C226.96,183.802 227.748,183.769 228.199,184.03 L233.821,187.276 C234.272,187.536 234.215,187.991 233.694,188.292 L228.124,191.508 C227.603,191.809 226.814,191.841 226.363,191.581" id="Fill-249" fill="#5589BB"></path>
                <path d="M235.045,196.593 L229.422,193.348 C228.971,193.087 229.028,192.632 229.549,192.331 L235.12,189.115 C235.64,188.814 236.429,188.781 236.88,189.042 L242.502,192.287 C242.953,192.548 242.897,193.003 242.376,193.304 L236.805,196.52 C236.284,196.821 235.496,196.854 235.045,196.593" id="Fill-250" fill="#5589BB"></path>
                <path d="M243.726,201.606 L238.104,198.36 C237.653,198.099 237.71,197.644 238.231,197.343 L243.8,194.127 C244.322,193.826 245.11,193.793 245.562,194.054 L251.183,197.3 C251.634,197.561 251.578,198.016 251.057,198.317 L245.487,201.532 C244.965,201.833 244.177,201.865 243.726,201.606" id="Fill-251" fill="#5589BB"></path>
                <path d="M259.16,210.516 L246.893,203.434 C246.442,203.174 246.499,202.718 247.02,202.417 L252.59,199.201 C253.111,198.901 253.9,198.868 254.351,199.129 L266.617,206.21 C267.068,206.471 267.011,206.926 266.49,207.227 L260.921,210.443 C260.399,210.743 259.611,210.777 259.16,210.516" id="Fill-252" fill="#5589BB"></path>
                <path d="M276.061,200.758 L265.708,194.781 C265.256,194.52 265.313,194.065 265.835,193.764 L271.405,190.548 C271.925,190.247 272.714,190.214 273.166,190.475 L283.518,196.452 C283.969,196.713 283.913,197.168 283.392,197.469 L277.822,200.685 C277.3,200.986 276.512,201.019 276.061,200.758" id="Fill-253" fill="#5589BB"></path>
                <path d="M189.478,160.528 L183.856,157.281 C183.405,157.021 183.462,156.566 183.983,156.265 L189.552,153.049 C190.074,152.748 190.863,152.715 191.314,152.976 L196.935,156.222 C197.386,156.483 197.33,156.938 196.809,157.239 L191.239,160.454 C190.717,160.755 189.929,160.787 189.478,160.528" id="Fill-254" fill="#5589BB"></path>
                <path d="M180.581,155.39 L174.959,152.145 C174.507,151.884 174.564,151.429 175.086,151.128 L180.656,147.912 C181.176,147.612 181.965,147.578 182.417,147.839 L188.038,151.085 C188.49,151.345 188.433,151.801 187.912,152.102 L182.341,155.318 C181.82,155.618 181.032,155.651 180.581,155.39" id="Fill-255" fill="#5589BB"></path>
                <path d="M171.683,150.253 L166.062,147.008 C165.61,146.747 165.667,146.292 166.188,145.991 L171.758,142.776 C172.28,142.475 173.068,142.442 173.519,142.702 L179.14,145.948 C179.592,146.208 179.536,146.663 179.014,146.965 L173.444,150.181 C172.923,150.482 172.134,150.514 171.683,150.253" id="Fill-256" fill="#5589BB"></path>
                <path d="M162.786,145.116 L157.165,141.871 C156.714,141.611 156.77,141.156 157.291,140.855 L162.861,137.639 C163.382,137.337 164.171,137.305 164.622,137.566 L170.244,140.811 C170.695,141.072 170.638,141.527 170.117,141.827 L164.547,145.043 C164.026,145.345 163.237,145.377 162.786,145.116" id="Fill-257" fill="#5589BB"></path>
                <path d="M198.159,165.539 L192.538,162.294 C192.087,162.033 192.143,161.578 192.664,161.277 L198.234,158.061 C198.755,157.76 199.544,157.728 199.995,157.989 L205.617,161.234 C206.068,161.494 206.011,161.949 205.49,162.25 L199.921,165.466 C199.399,165.767 198.611,165.8 198.159,165.539" id="Fill-258" fill="#5589BB"></path>
                <path d="M206.84,170.552 L201.219,167.306 C200.768,167.045 200.825,166.59 201.345,166.289 L206.916,163.073 C207.437,162.773 208.225,162.74 208.676,163 L214.298,166.246 C214.75,166.507 214.693,166.962 214.172,167.263 L208.601,170.479 C208.081,170.78 207.292,170.812 206.84,170.552" id="Fill-259" fill="#5589BB"></path>
                <path d="M215.522,175.564 L209.9,172.319 C209.449,172.058 209.505,171.603 210.027,171.301 L215.597,168.085 C216.118,167.784 216.907,167.752 217.358,168.013 L222.979,171.258 C223.43,171.519 223.374,171.974 222.853,172.275 L217.283,175.49 C216.761,175.791 215.973,175.824 215.522,175.564" id="Fill-260" fill="#5589BB"></path>
                <path d="M224.204,180.575 L218.582,177.33 C218.13,177.07 218.187,176.615 218.709,176.314 L224.278,173.098 C224.799,172.797 225.588,172.764 226.04,173.025 L231.661,176.271 C232.112,176.531 232.055,176.987 231.535,177.287 L225.964,180.503 C225.443,180.804 224.655,180.836 224.204,180.575" id="Fill-261" fill="#5589BB"></path>
                <path d="M232.884,185.588 L227.263,182.342 C226.812,182.082 226.869,181.626 227.389,181.325 L232.96,178.11 C233.481,177.809 234.269,177.777 234.72,178.037 L240.342,181.282 C240.794,181.543 240.737,181.998 240.215,182.299 L234.646,185.515 C234.125,185.816 233.336,185.849 232.884,185.588" id="Fill-262" fill="#5589BB"></path>
                <path d="M241.566,190.6 L235.945,187.355 C235.493,187.094 235.549,186.639 236.071,186.338 L241.641,183.122 C242.162,182.822 242.951,182.788 243.402,183.049 L249.023,186.295 C249.475,186.555 249.419,187.011 248.897,187.312 L243.327,190.528 C242.806,190.828 242.017,190.861 241.566,190.6" id="Fill-263" fill="#5589BB"></path>
                <path d="M250.248,195.613 L244.626,192.366 C244.174,192.107 244.231,191.651 244.753,191.35 L250.322,188.134 C250.843,187.833 251.631,187.801 252.084,188.062 L257.705,191.307 C258.156,191.568 258.099,192.023 257.579,192.323 L252.008,195.539 C251.487,195.84 250.699,195.873 250.248,195.613" id="Fill-264" fill="#5589BB"></path>
                <path d="M258.928,200.624 L253.307,197.379 C252.856,197.118 252.913,196.663 253.433,196.363 L259.004,193.147 C259.525,192.846 260.313,192.813 260.764,193.073 L266.386,196.319 C266.838,196.579 266.781,197.034 266.259,197.336 L260.69,200.552 C260.169,200.853 259.38,200.885 258.928,200.624" id="Fill-265" fill="#5589BB"></path>
                <path d="M267.61,205.637 L261.989,202.391 C261.537,202.13 261.593,201.675 262.115,201.374 L267.685,198.158 C268.207,197.858 268.995,197.825 269.446,198.085 L275.067,201.331 C275.519,201.592 275.463,202.047 274.941,202.348 L269.371,205.564 C268.85,205.865 268.061,205.898 267.61,205.637" id="Fill-266" fill="#5589BB"></path>
                <path d="M184.907,148.13 L179.285,144.884 C178.834,144.623 178.89,144.168 179.412,143.867 L184.982,140.652 C185.503,140.351 186.292,140.319 186.743,140.578 L192.364,143.824 C192.815,144.085 192.758,144.54 192.238,144.841 L186.668,148.057 C186.146,148.358 185.358,148.391 184.907,148.13" id="Fill-267" fill="#5589BB"></path>
                <path d="M176.268,143.143 L170.647,139.897 C170.196,139.636 170.253,139.181 170.773,138.88 L176.343,135.664 C176.865,135.364 177.653,135.331 178.104,135.591 L183.726,138.837 C184.177,139.098 184.121,139.553 183.599,139.854 L178.03,143.07 C177.508,143.37 176.72,143.404 176.268,143.143" id="Fill-268" fill="#5589BB"></path>
                <path d="M167.63,138.156 L162.008,134.909 C161.557,134.65 161.614,134.194 162.135,133.893 L167.706,130.677 C168.226,130.376 169.015,130.344 169.466,130.604 L175.088,133.85 C175.539,134.111 175.482,134.566 174.962,134.866 L169.391,138.082 C168.87,138.383 168.082,138.416 167.63,138.156" id="Fill-269" fill="#5589BB"></path>
                <path d="M158.992,133.168 L153.371,129.922 C152.92,129.662 152.976,129.206 153.497,128.906 L159.067,125.69 C159.589,125.389 160.377,125.357 160.828,125.617 L166.45,128.863 C166.901,129.123 166.844,129.578 166.323,129.879 L160.754,133.095 C160.232,133.396 159.444,133.429 158.992,133.168" id="Fill-270" fill="#5589BB"></path>
                <path d="M167.875,128.039 L162.254,124.794 C161.802,124.533 161.859,124.078 162.38,123.778 L164.221,122.714 C164.742,122.413 165.531,122.381 165.982,122.642 L171.603,125.887 C172.055,126.148 171.999,126.603 171.477,126.904 L169.635,127.967 C169.115,128.268 168.326,128.3 167.875,128.039" id="Fill-271" fill="#5589BB"></path>
                <path d="M179.148,134.548 L173.526,131.302 C173.075,131.042 173.131,130.587 173.653,130.285 L175.494,129.223 C176.015,128.922 176.803,128.889 177.255,129.15 L182.877,132.396 C183.328,132.656 183.271,133.112 182.75,133.412 L180.909,134.475 C180.387,134.776 179.599,134.809 179.148,134.548" id="Fill-272" fill="#5589BB"></path>
                <path d="M187.75,139.515 L182.129,136.269 C181.677,136.008 181.733,135.553 182.255,135.252 L184.096,134.189 C184.617,133.888 185.406,133.856 185.857,134.116 L191.478,137.362 C191.93,137.622 191.874,138.077 191.352,138.378 L189.51,139.442 C188.99,139.742 188.201,139.775 187.75,139.515" id="Fill-273" fill="#5589BB"></path>
                <path d="M196.352,144.481 L190.73,141.236 C190.279,140.975 190.336,140.52 190.857,140.219 L192.698,139.156 C193.219,138.855 194.007,138.823 194.46,139.082 L200.081,142.328 C200.532,142.589 200.475,143.044 199.955,143.345 L198.113,144.408 C197.591,144.709 196.803,144.741 196.352,144.481" id="Fill-274" fill="#5589BB"></path>
                <path d="M204.954,149.448 L199.333,146.201 C198.881,145.942 198.938,145.487 199.459,145.185 L201.3,144.122 C201.822,143.822 202.61,143.788 203.061,144.049 L208.683,147.295 C209.134,147.555 209.078,148.01 208.556,148.312 L206.715,149.374 C206.194,149.675 205.406,149.708 204.954,149.448" id="Fill-275" fill="#5589BB"></path>
                <path d="M252.979,177.174 L247.357,173.929 C246.906,173.668 246.963,173.213 247.484,172.912 L249.325,171.849 C249.846,171.548 250.634,171.516 251.086,171.776 L256.708,175.022 C257.159,175.282 257.102,175.738 256.581,176.038 L254.74,177.102 C254.218,177.403 253.43,177.435 252.979,177.174" id="Fill-276" fill="#5589BB"></path>
                <path d="M261.581,182.141 L255.96,178.896 C255.508,178.635 255.565,178.18 256.086,177.878 L257.927,176.816 C258.448,176.515 259.237,176.482 259.688,176.742 L265.309,179.989 C265.761,180.248 265.705,180.704 265.183,181.005 L263.341,182.068 C262.821,182.368 262.032,182.402 261.581,182.141" id="Fill-277" fill="#5589BB"></path>
                <path d="M270.183,187.108 L264.561,183.862 C264.11,183.601 264.167,183.146 264.688,182.845 L266.529,181.782 C267.05,181.481 267.839,181.448 268.291,181.709 L273.912,184.954 C274.363,185.215 274.306,185.67 273.786,185.971 L271.944,187.034 C271.422,187.335 270.634,187.368 270.183,187.108" id="Fill-278" fill="#5589BB"></path>
                <path d="M278.785,192.073 L273.164,188.828 C272.713,188.568 272.769,188.113 273.29,187.812 L275.131,186.748 C275.653,186.448 276.441,186.415 276.892,186.675 L282.514,189.921 C282.965,190.182 282.909,190.637 282.387,190.938 L280.547,192.001 C280.025,192.302 279.237,192.334 278.785,192.073" id="Fill-279" fill="#5589BB"></path>
                <path d="M193.589,153.142 L187.966,149.897 C187.515,149.636 187.572,149.181 188.093,148.88 L193.663,145.664 C194.184,145.363 194.972,145.33 195.423,145.591 L201.046,148.836 C201.497,149.097 201.44,149.552 200.919,149.853 L195.349,153.069 C194.828,153.37 194.04,153.403 193.589,153.142" id="Fill-280" fill="#5589BB"></path>
                <path d="M202.269,158.155 L196.648,154.908 C196.197,154.648 196.254,154.193 196.774,153.892 L202.344,150.676 C202.866,150.375 203.654,150.342 204.105,150.603 L209.727,153.849 C210.178,154.11 210.122,154.565 209.6,154.865 L204.03,158.081 C203.509,158.382 202.72,158.415 202.269,158.155" id="Fill-281" fill="#5589BB"></path>
                <path d="M210.951,163.166 L205.329,159.921 C204.878,159.66 204.934,159.205 205.456,158.905 L211.026,155.689 C211.547,155.387 212.336,155.355 212.787,155.615 L218.408,158.861 C218.859,159.121 218.803,159.576 218.282,159.877 L212.712,163.093 C212.19,163.395 211.402,163.427 210.951,163.166" id="Fill-282" fill="#5589BB"></path>
                <path d="M219.632,168.179 L214.01,164.933 C213.559,164.672 213.616,164.217 214.137,163.916 L219.707,160.7 C220.228,160.4 221.016,160.366 221.468,160.627 L227.089,163.873 C227.541,164.134 227.484,164.589 226.964,164.89 L221.393,168.106 C220.872,168.406 220.084,168.439 219.632,168.179" id="Fill-283" fill="#5589BB"></path>
                <path d="M228.313,173.191 L222.692,169.946 C222.241,169.685 222.297,169.23 222.818,168.929 L228.388,165.712 C228.91,165.411 229.698,165.379 230.149,165.64 L235.771,168.885 C236.222,169.146 236.166,169.601 235.644,169.902 L230.075,173.117 C229.553,173.418 228.765,173.451 228.313,173.191" id="Fill-284" fill="#5589BB"></path>
                <path d="M236.995,178.203 L231.374,174.957 C230.922,174.697 230.978,174.241 231.5,173.941 L237.07,170.725 C237.59,170.424 238.38,170.391 238.831,170.652 L244.452,173.898 C244.904,174.158 244.847,174.614 244.326,174.914 L238.755,178.13 C238.235,178.431 237.446,178.463 236.995,178.203" id="Fill-285" fill="#5589BB"></path>
                <path d="M245.676,183.215 L240.054,179.97 C239.603,179.709 239.66,179.254 240.181,178.952 L245.751,175.737 C246.272,175.436 247.06,175.404 247.512,175.664 L253.133,178.909 C253.585,179.17 253.528,179.625 253.007,179.926 L247.437,183.142 C246.916,183.443 246.128,183.476 245.676,183.215" id="Fill-286" fill="#5589BB"></path>
                <path d="M254.357,188.228 L248.736,184.982 C248.285,184.721 248.341,184.266 248.862,183.965 L254.432,180.749 C254.954,180.448 255.742,180.415 256.193,180.676 L261.815,183.922 C262.266,184.182 262.21,184.638 261.688,184.939 L256.119,188.155 C255.597,188.455 254.809,188.488 254.357,188.228" id="Fill-287" fill="#5589BB"></path>
                <path d="M263.039,193.24 L257.418,189.993 C256.965,189.734 257.022,189.279 257.544,188.977 L263.114,185.761 C263.635,185.46 264.423,185.428 264.875,185.689 L270.497,188.934 C270.948,189.195 270.891,189.65 270.37,189.95 L264.799,193.166 C264.279,193.467 263.49,193.5 263.039,193.24" id="Fill-288" fill="#5589BB"></path>
                <path d="M143.956,153.761 L127.399,144.202 C126.948,143.942 127.005,143.487 127.526,143.186 L133.095,139.97 C133.617,139.669 134.405,139.636 134.857,139.897 L151.413,149.455 C151.864,149.716 151.807,150.171 151.287,150.472 L145.716,153.688 C145.195,153.989 144.407,154.022 143.956,153.761" id="Fill-289" fill="#5589BB"></path>
                <path d="M250.608,215.337 L234.051,205.779 C233.6,205.518 233.657,205.063 234.178,204.761 L239.749,201.545 C240.269,201.244 241.058,201.212 241.509,201.473 L258.065,211.031 C258.516,211.292 258.46,211.747 257.939,212.048 L252.369,215.264 C251.847,215.565 251.059,215.597 250.608,215.337" id="Fill-290" fill="#5589BB"></path>
                <path d="M215.89,206.364 L210.268,203.118 C209.817,202.858 209.874,202.403 210.395,202.102 L217.03,198.271 C217.551,197.97 218.339,197.937 218.791,198.198 L224.413,201.443 C224.864,201.703 224.807,202.158 224.286,202.46 L217.651,206.29 C217.13,206.592 216.341,206.624 215.89,206.364" id="Fill-291" fill="#5589BB"></path>
                <path d="M152.845,169.965 L143.855,164.775 C143.404,164.514 143.461,164.059 143.982,163.758 L150.617,159.927 C151.138,159.626 151.926,159.593 152.378,159.854 L161.369,165.044 C161.82,165.305 161.763,165.76 161.242,166.061 L154.607,169.892 C154.086,170.193 153.297,170.226 152.845,169.965" id="Fill-292" fill="#5589BB"></path>
                <path d="M207.525,201.534 L198.535,196.344 C198.084,196.083 198.14,195.628 198.662,195.327 L205.297,191.496 C205.818,191.196 206.606,191.162 207.057,191.423 L216.048,196.614 C216.5,196.874 216.443,197.329 215.922,197.63 L209.286,201.461 C208.765,201.762 207.976,201.795 207.525,201.534" id="Fill-293" fill="#5589BB"></path>
                <path d="M165.371,177.197 L156.38,172.006 C155.929,171.745 155.986,171.29 156.507,170.99 L163.142,167.158 C163.664,166.858 164.452,166.824 164.903,167.085 L173.894,172.276 C174.345,172.536 174.289,172.991 173.767,173.292 L167.132,177.123 C166.611,177.424 165.823,177.457 165.371,177.197" id="Fill-294" fill="#5589BB"></path>
                <path d="M164.964,167.12 L204.052,189.688 C204.537,189.968 204.537,190.422 204.052,190.701 L197.286,194.609 C196.8,194.889 196.014,194.889 195.529,194.609 L156.442,172.041 L164.964,167.12" id="Fill-295" fill="#5589BB"></path>
                <path d="M240.153,215.451 L246.415,219.067 C246.785,219.281 246.738,219.654 246.311,219.9 L243.596,221.467 C243.17,221.714 242.523,221.74 242.153,221.527 L235.891,217.911 C235.521,217.698 235.568,217.324 235.995,217.078 L238.71,215.511 C239.136,215.265 239.783,215.238 240.153,215.451" id="Fill-296" fill="#5589BB"></path>
                <path d="M231.399,210.398 L237.662,214.013 C238.031,214.227 237.985,214.6 237.557,214.846 L234.843,216.413 C234.417,216.659 233.77,216.687 233.4,216.473 L227.138,212.858 C226.768,212.644 226.815,212.271 227.242,212.025 L229.956,210.457 C230.383,210.211 231.03,210.184 231.399,210.398" id="Fill-297" fill="#5589BB"></path>
                <path d="M222.718,205.385 L228.98,209 C229.35,209.214 229.303,209.587 228.877,209.834 L226.162,211.401 C225.735,211.648 225.089,211.674 224.718,211.461 L218.457,207.846 C218.087,207.632 218.133,207.259 218.56,207.012 L221.275,205.446 C221.702,205.198 222.348,205.172 222.718,205.385" id="Fill-298" fill="#5589BB"></path>
                <path d="M236.194,207.63 L242.456,211.245 C242.826,211.458 242.779,211.831 242.352,212.078 L239.637,213.646 C239.211,213.892 238.564,213.919 238.194,213.705 L231.932,210.09 C231.562,209.876 231.609,209.503 232.036,209.257 L234.751,207.69 C235.177,207.443 235.824,207.416 236.194,207.63" id="Fill-299" fill="#5589BB"></path>
                <polyline id="Fill-300" fill="#D4EAF2" points="218.744 56.308 204.625 48.156 205.226 45.116 219.345 53.268 218.744 56.308"></polyline>
                <polyline id="Fill-301" fill="#FFFFFE" points="217.212 63.372 203.092 55.221 203.694 52.181 217.813 60.332 217.212 63.372"></polyline>
                <polyline id="Fill-302" fill="#D4EAF2" points="286.513 161.365 272.394 153.213 272.996 150.173 287.115 158.325 286.513 161.365"></polyline>
                <polyline id="Fill-303" fill="#D4EAF2" points="214.148 77.502 200.028 69.35 200.63 66.31 214.749 74.462 214.148 77.502"></polyline>
                <polyline id="Fill-304" fill="#D4EAF2" points="274.32 117.24 222.088 87.082 222.759 83.687 274.992 113.843 274.32 117.24"></polyline>
                <polyline id="Fill-305" fill="#D4EAF2" points="255.613 122.969 219.151 101.918 219.823 98.523 256.285 119.573 255.613 122.969"></polyline>
                <polyline id="Fill-306" fill="#FFFFFE" points="252.163 112.712 220.619 94.5 221.292 91.105 252.835 109.316 252.163 112.712"></polyline>
                <path d="M245.467,83.575 C244.965,84.672 243.695,85.063 242.631,84.448 C241.568,83.834 241.114,82.448 241.616,81.352 C242.119,80.255 243.388,79.865 244.452,80.479 C245.515,81.092 245.97,82.479 245.467,83.575" id="Fill-307" fill="#DA3A36"></path>
                <path d="M252.26,87.497 C251.758,88.594 250.489,88.985 249.425,88.37 C248.362,87.757 247.907,86.37 248.41,85.274 C248.912,84.178 250.181,83.786 251.245,84.401 C252.308,85.015 252.763,86.402 252.26,87.497" id="Fill-308" fill="#FFFFFE"></path>
                <path d="M259.054,91.419 C258.551,92.516 257.282,92.906 256.218,92.293 C255.155,91.679 254.7,90.292 255.203,89.197 C255.706,88.1 256.975,87.708 258.039,88.323 C259.102,88.937 259.556,90.323 259.054,91.419" id="Fill-309" fill="#D4EAF2"></path>
                <path d="M265.847,95.342 C265.344,96.438 264.075,96.829 263.011,96.215 C261.948,95.601 261.494,94.214 261.996,93.118 C262.499,92.022 263.768,91.631 264.832,92.244 C265.895,92.859 266.35,94.245 265.847,95.342" id="Fill-310" fill="#DA3A36"></path>
                <polyline id="Fill-311" fill="#DA3A36" points="272.852 124.656 257.081 115.551 257.753 112.156 273.524 121.261 272.852 124.656"></polyline>
                <path d="M165.054,216.832 L123.9,193.072 C122.894,192.491 123.02,191.477 124.181,190.806 L145.882,178.278 C147.043,177.607 148.799,177.534 149.805,178.115 L190.96,201.875 C191.965,202.456 191.839,203.471 190.678,204.141 L168.979,216.669 C167.817,217.34 166.06,217.413 165.054,216.832" id="Fill-312" fill="#FFFFFE"></path>
                <g id="Group-315" transform="translate(85.000000, 156.000000)">
                    <mask id="mask-25" fill="white">
                        <use xlink:href="#path-24"></use>
                    </mask>
                    <g id="Clip-314"></g>
                    <path d="M112.268,83.267 L0.788,18.979 L33.276,0.221 L144.757,64.51 L112.268,83.267 M63.1,21.723 C62.329,21.723 61.516,21.911 60.882,22.278 L39.181,34.806 C38.02,35.477 37.894,36.491 38.9,37.072 L80.054,60.832 C80.51,61.095 81.119,61.224 81.758,61.224 C82.529,61.224 83.343,61.036 83.979,60.669 L105.678,48.141 C106.839,47.471 106.965,46.456 105.96,45.875 L64.805,22.115 C64.349,21.852 63.739,21.723 63.1,21.723" id="Fill-313" fill="url(#radialGradient-26)" mask="url(#mask-25)"></path>
                </g>
                <path d="M166.758,217.224 C166.119,217.224 165.51,217.095 165.054,216.832 L123.9,193.072 C122.894,192.491 123.02,191.477 124.181,190.806 L145.882,178.278 C146.516,177.911 147.329,177.723 148.1,177.723 C148.739,177.723 149.349,177.852 149.805,178.115 L190.96,201.875 C191.965,202.456 191.839,203.471 190.678,204.141 L168.979,216.669 C168.343,217.036 167.529,217.224 166.758,217.224" id="Fill-316" fill="#8596AC"></path>
                <path d="M137.797,171.657 C137.036,171.657 136.419,171.04 136.419,170.28 L136.419,126.763 C136.419,126.002 137.036,125.385 137.797,125.385 C138.557,125.385 139.174,126.002 139.174,126.763 L139.174,170.28 C139.174,171.04 138.557,171.657 137.797,171.657" id="Fill-318" fill="#3B6397"></path>
                <g id="Group-321" transform="translate(130.000000, 121.000000)">
                    <mask id="mask-28" fill="white">
                        <use xlink:href="#path-27"></use>
                    </mask>
                    <g id="Clip-320"></g>
                    <path d="M0.984,0.831 L0.984,30.231 C0.984,31.238 1.649,32.243 2.979,33.011 C5.64,34.547 9.953,34.547 12.613,33.012 C13.943,32.243 14.608,31.238 14.608,30.231 L14.608,0.831 L0.984,0.831" id="Fill-319" fill="url(#radialGradient-29)" mask="url(#mask-28)"></path>
                </g>
                <path d="M130.984,126.667 L130.984,136.616 C134.982,138.444 140.611,138.444 144.608,136.617 L144.608,126.667 C140.61,124.842 134.982,124.842 130.984,126.667" id="Fill-322" fill="#3B6397"></path>
                <g id="Group-325" transform="translate(126.000000, 80.000000)">
                    <mask id="mask-31" fill="white">
                        <use xlink:href="#path-30"></use>
                    </mask>
                    <g id="Clip-324"></g>
                    <path d="M22.835,0.858 L0.758,0.858 L0.758,46.967 C0.758,48.598 1.836,50.23 3.992,51.474 C8.301,53.962 15.291,53.962 19.601,51.474 C21.757,50.23 22.835,48.599 22.835,46.967 L22.835,0.858" id="Fill-323" fill="url(#radialGradient-32)" mask="url(#mask-31)"></path>
                </g>
                <path d="M135.885,146.761 C135.885,148.113 134.936,148.661 133.765,147.985 C132.593,147.309 131.644,145.664 131.644,144.312 C131.644,142.96 132.593,142.411 133.765,143.088 C134.936,143.764 135.885,145.408 135.885,146.761" id="Fill-326" fill="#D4EAF2"></path>
                <path d="M180.603,196.402 C179.842,196.402 179.225,195.784 179.225,195.024 L179.225,151.507 C179.225,150.746 179.842,150.129 180.603,150.129 C181.364,150.129 181.981,150.746 181.981,151.507 L181.981,195.024 C181.981,195.784 181.364,196.402 180.603,196.402" id="Fill-327" fill="#3B6397"></path>
                <g id="Group-330" transform="translate(173.000000, 146.000000)">
                    <mask id="mask-34" fill="white">
                        <use xlink:href="#path-33"></use>
                    </mask>
                    <g id="Clip-329"></g>
                    <path d="M0.792,0.575 L0.792,29.974 C0.792,30.981 1.457,31.988 2.787,32.755 C5.447,34.291 9.76,34.291 12.421,32.755 C13.751,31.988 14.416,30.981 14.416,29.974 L14.416,0.575 L0.792,0.575" id="Fill-328" fill="url(#radialGradient-35)" mask="url(#mask-34)"></path>
                </g>
                <path d="M173.792,151.411 L173.792,161.361 C177.79,163.187 183.418,163.187 187.416,161.361 L187.416,151.411 C183.418,149.585 177.79,149.585 173.792,151.411" id="Fill-331" fill="#3B6397"></path>
                <g id="Group-334" transform="translate(169.000000, 105.000000)">
                    <mask id="mask-37" fill="white">
                        <use xlink:href="#path-36"></use>
                    </mask>
                    <g id="Clip-333"></g>
                    <path d="M22.6410007,0.601 L0.565,0.601 L0.565,46.711 C0.565,48.342 1.643,49.973 3.798,51.217 C8.109,53.706 15.098,53.706 19.409,51.217 C21.564,49.973 22.642,48.342 22.641,46.711 L22.6410007,0.601" id="Fill-332" fill="url(#radialGradient-38)" mask="url(#mask-37)"></path>
                </g>
                <path d="M178.693,171.504 C178.693,172.857 177.743,173.405 176.572,172.729 C175.401,172.052 174.452,170.408 174.452,169.056 C174.452,167.703 175.401,167.156 176.572,167.831 C177.743,168.508 178.693,170.152 178.693,171.504" id="Fill-335" fill="#D4EAF2"></path>
                <polyline id="Fill-336" fill="#5589BB" points="95.486 47.481 124.791 30.621 123.688 47.481 106.854 52.696 95.486 47.481"></polyline>
                <g id="Group-339" transform="translate(117.000000, 13.000000)">
                    <mask id="mask-40" fill="white">
                        <use xlink:href="#path-39"></use>
                    </mask>
                    <g id="Clip-338"></g>
                    <path d="M135.466,131.52 C135.466,119.687 127.159,105.298 116.912,99.382 C114.681,98.094 112.552,97.343 110.571,97.032 C107.617,81.504 96.812,65.014 83.928,57.575 C80.053,55.339 76.369,54.143 73.026,53.886 C71.267,35.066 58.181,13.676 42.29,4.501 C33.989,-0.292 26.457,-0.858 20.899,2.076 L20.9,2.062 L20.63,2.217 C20.489,2.296 20.348,2.376 20.209,2.46 L2.928,12.666 L8.671,17.201 C3.516,19.453 0.258,25.235 0.258,33.779 C0.258,49.536 11.321,68.698 24.968,76.577 L109.211,136.733 L111.808,154.263 L130.012,143.541 L130.061,143.513 L130.17,143.448 L130.168,143.446 C133.444,141.474 135.466,137.355 135.466,131.52" id="Fill-337" fill="url(#radialGradient-41)" mask="url(#mask-40)"></path>
                </g>
                <path d="M118.112,39.841 L157.772,16.668 C150.073,12.654 143.116,12.321 137.899,15.076 L137.9,15.062 L137.63,15.217 C137.489,15.296 137.348,15.376 137.209,15.46 L119.928,25.666 L125.671,30.201 C122.067,31.776 119.396,35.079 118.112,39.841" id="Fill-340" fill="#5589BB"></path>
                <path d="M191.355,108.011 L220.293,91.029 C215.33,82.445 208.496,74.945 200.929,70.575 C199.927,69.997 198.939,69.492 197.965,69.051 L161.158,90.576 L191.355,108.011" id="Fill-341" fill="#5589BB"></path>
                <path d="M128.083,27.562 L140.978,35.007 L164.595,21.097 C162.871,19.757 161.1,18.546 159.29,17.501 C156.429,15.85 153.665,14.712 151.037,14.034 L128.083,27.562" id="Fill-342" fill="#D4EAF2"></path>
                <path d="M217.101,86.032 L194.005,99.642 L202.038,108.601 L223.005,96.221 C221.347,92.67 219.354,89.238 217.101,86.032" id="Fill-343" fill="#D4EAF2"></path>
                <g id="Group-346" transform="translate(87.000000, 23.000000)">
                    <mask id="mask-43" fill="white">
                        <use xlink:href="#path-42"></use>
                    </mask>
                    <g id="Clip-345"></g>
                    <path d="M128.769,100.069 C126.539,98.781 124.41,98.03 122.429,97.719 C119.475,82.191 108.67,65.7 95.787,58.263 C91.912,56.026 88.227,54.83 84.884,54.573 C83.126,35.752 70.039,14.362 54.148,5.188 C37.057,-4.679 23.203,3.32 23.203,23.053 C23.203,23.722 23.222,24.398 23.254,25.075 C10.756,19.279 0.992,25.811 0.992,40.615 C0.992,56.371 12.054,75.532 25.702,83.411 L128.769,142.918 C139.017,148.834 147.325,144.038 147.325,132.206 C147.325,120.373 139.017,105.985 128.769,100.069" id="Fill-344" fill="url(#linearGradient-44)" mask="url(#mask-43)"></path>
                </g>
                <path d="M110.254,48.075 C110.222,47.398 110.203,46.722 110.203,46.053 L110.205,45.969 C103.3,43.284 97.368,44.453 93.644,48.761 C97.689,45.431 103.571,44.977 110.254,48.075" id="Fill-347" fill="#FFFFFE"></path>
                <path d="M217.279,121.598 C215.047,120.31 212.919,119.559 210.938,119.248 C207.984,103.72 197.179,87.23 184.296,79.792 C180.421,77.555 176.736,76.36 173.393,76.103 C171.634,57.281 158.547,35.892 142.657,26.717 C132.009,20.57 122.62,21.36 117.051,27.599 C122.724,22.751 131.408,22.565 141.148,28.188 C157.039,37.362 170.126,58.752 171.884,77.573 C175.227,77.83 178.912,79.026 182.787,81.263 C195.67,88.7 206.475,105.191 209.429,120.719 C211.41,121.03 213.539,121.781 215.77,123.069 C226.017,128.985 234.325,143.373 234.325,155.206 C234.325,159.476 233.23,162.813 231.366,165.076 C234.145,162.936 235.834,159.054 235.834,153.736 C235.834,141.903 227.526,127.514 217.279,121.598" id="Fill-348" fill="#FFFFFE"></path>
                <g id="Group-351" transform="translate(93.000000, 29.000000)">
                    <mask id="mask-46" fill="white">
                        <use xlink:href="#path-45"></use>
                    </mask>
                    <g id="Clip-350"></g>
                    <path d="M15.074,23.776 L22.822,27.368 L22.428,18.837 C22.4,18.238 22.382,17.644 22.382,17.053 C22.382,9.438 24.682,3.916 28.856,1.506 C33.031,-0.902 38.964,-0.134 45.557,3.674 C59.741,11.862 72.114,31.796 73.726,49.055 L74.133,53.404 L78.487,53.739 C81.164,53.944 84.093,54.956 87.197,56.749 C98.463,63.253 108.616,78.367 111.34,92.687 L112.022,96.271 L115.627,96.836 C117.062,97.062 118.594,97.639 120.18,98.555 C128.834,103.551 136.144,116.214 136.144,126.205 C136.144,129.945 135.108,132.689 133.299,133.733 C131.493,134.775 128.599,134.302 125.36,132.433 L22.292,72.926 C10.301,66.004 0.172,48.459 0.172,34.614 C0.172,29.181 1.774,25.042 4.568,23.257 C5.717,22.524 7.108,22.158 8.675,22.158 C10.584,22.158 12.754,22.698 15.074,23.776" id="Fill-349" fill="url(#radialGradient-47)" mask="url(#mask-46)"></path>
                </g>
                <polyline id="Fill-352" fill="#5589BB" points="159.514 117.372 162.233 116.007 159.556 113.98 159.514 117.372"></polyline>
                <polyline id="Fill-353" fill="#5589BB" points="151.348 80.644 153.988 79.31 154.036 80.691 151.348 80.644"></polyline>
                <polyline id="Fill-354" fill="#5589BB" points="167.27 108.786 170.025 107.402 164.723 102.359 167.27 108.786"></polyline>
                <path d="M161.437,115.92 L148.565,108.338 C147.912,107.953 147.383,106.985 147.386,106.174 L147.428,91.272 L162.667,100.246 L162.625,115.149 C162.623,115.959 162.09,116.305 161.437,115.92" id="Fill-355" fill="#5589BB"></path>
                <path d="M153.96,79.325 L140.057,88.272 C139.466,88.652 139.944,90.067 140.839,90.595 L155.039,98.957 L169.238,107.321 C170.133,107.848 170.617,106.998 170.031,105.926 L156.225,80.66 C155.629,79.569 154.56,78.94 153.96,79.325" id="Fill-356" fill="#5589BB"></path>
                <path d="M158.677,117.31 L145.804,109.729 C145.151,109.344 144.624,108.374 144.626,107.564 L144.668,92.661 L159.907,101.636 L159.864,116.539 C159.862,117.35 159.331,117.695 158.677,117.31" id="Fill-357" fill="#D4EAF2"></path>
                <path d="M151.2,80.716 L137.297,89.662 C136.707,90.042 137.183,91.457 138.079,91.985 L166.477,108.71 C167.374,109.238 167.857,108.388 167.27,107.316 L153.464,82.05 C152.869,80.958 151.8,80.329 151.2,80.716" id="Fill-358" fill="#D4EAF2"></path>
            </g>
        </g>
    </g>
</svg>