<?xml version="1.0" encoding="UTF-8"?>
<svg width="140px" height="140px" viewBox="0 0 140 140" version="1.1" xmlns="http://www.w3.org/2000/svg" xmlns:xlink="http://www.w3.org/1999/xlink">
    <!-- Generator: Sketch 58 (84663) - https://sketch.com -->
    <title>3</title>
    <desc>Created with Sketch.</desc>
    <defs>
        <circle id="path-1" cx="64" cy="64" r="64"></circle>
        <filter x="-7.0%" y="-5.5%" width="114.1%" height="114.1%" filterUnits="objectBoundingBox" id="filter-2">
            <feMorphology radius="2" operator="dilate" in="SourceAlpha" result="shadowSpreadOuter1"></feMorphology>
            <feOffset dx="0" dy="2" in="shadowSpreadOuter1" result="shadowOffsetOuter1"></feOffset>
            <feGaussianBlur stdDeviation="2" in="shadowOffsetOuter1" result="shadowBlurOuter1"></feGaussianBlur>
            <feComposite in="shadowBlurOuter1" in2="SourceAlpha" operator="out" result="shadowBlurOuter1"></feComposite>
            <feColorMatrix values="0 0 0 0 0.439509737   0 0 0 0 0.439509737   0 0 0 0 0.439509737  0 0 0 0.5 0" type="matrix" in="shadowBlurOuter1"></feColorMatrix>
        </filter>
    </defs>
    <g id="Page-1" stroke="none" stroke-width="1" fill="none" fill-rule="evenodd">
        <g id="3" transform="translate(6.000000, 4.000000)">
            <g id="Oval">
                <use fill="black" fill-opacity="1" filter="url(#filter-2)" xlink:href="#path-1"></use>
                <use stroke="#2EA2DB" stroke-width="4" fill="#FFFFFF" fill-rule="evenodd" xlink:href="#path-1"></use>
            </g>
            <path d="M55.2,53.7 L58.3,53.7 C60.033342,53.7 61.7166585,53.600001 63.35,53.4 C64.9833415,53.199999 66.4499935,52.76667 67.75,52.1 C69.0500065,51.43333 70.1,50.466673 70.9,49.2 C71.700004,47.933327 72.1,46.233344 72.1,44.1 C72.1,41.366653 71.166676,39.133342 69.3,37.4 C67.433324,35.666658 65.000015,34.8 62,34.8 C59.599988,34.8 57.4500095,35.4833265 55.55,36.85 C53.6499905,38.2166735 52.266671,40.133321 51.4,42.6 L38.7,39.2 C39.500004,36.599987 40.633326,34.333343 42.1,32.4 C43.566674,30.466657 45.29999,28.8833395 47.3,27.65 C49.30001,26.4166605 51.499988,25.5 53.9,24.9 C56.300012,24.299997 58.799987,24 61.4,24 C64.466682,24 67.366653,24.399996 70.1,25.2 C72.833347,26 75.233323,27.1833255 77.3,28.75 C79.366677,30.3166745 81.0166605,32.2833215 82.25,34.65 C83.4833395,37.0166785 84.1,39.766651 84.1,42.9 C84.1,46.700019 83.033344,50.0833185 80.9,53.05 C78.766656,56.0166815 75.800019,57.966662 72,58.9 L72,59.1 C76.533356,59.76667 79.966655,61.699984 82.3,64.9 C84.633345,68.100016 85.8,71.899978 85.8,76.3 C85.8,79.700017 85.1500065,82.699987 83.85,85.3 C82.5499935,87.900013 80.800011,90.0833245 78.6,91.85 C76.399989,93.6166755 73.8500145,94.9499955 70.95,95.85 C68.0499855,96.7500045 65.033349,97.2 61.9,97.2 C58.966652,97.2 56.200013,96.8833365 53.6,96.25 C50.999987,95.6166635 48.6500105,94.63334 46.55,93.3 C44.4499895,91.96666 42.633341,90.2500105 41.1,88.15 C39.566659,86.0499895 38.400004,83.533348 37.6,80.6 L50.4,77.2 C51.133337,80.133348 52.433324,82.399992 54.3,84 C56.166676,85.600008 58.699984,86.4 61.9,86.4 C63.500008,86.4 65.0166595,86.133336 66.45,85.6 C67.8833405,85.066664 69.1499945,84.3166715 70.25,83.35 C71.3500055,82.3833285 72.2166635,81.2166735 72.85,79.85 C73.4833365,78.4833265 73.8,76.966675 73.8,75.3 C73.8,73.033322 73.3166715,71.1833405 72.35,69.75 C71.3833285,68.3166595 70.1500075,67.2166705 68.65,66.45 C67.1499925,65.6833295 65.466676,65.166668 63.6,64.9 C61.733324,64.633332 59.900009,64.5 58.1,64.5 L55.2,64.5 L55.2,53.7 Z" fill="#2EA2DB" fill-rule="nonzero"></path>
        </g>
    </g>
</svg>