<?xml version="1.0" encoding="utf-8"?>
<!-- Generator: Adobe Illustrator 22.0.1, SVG Export Plug-In . SVG Version: 6.00 Build 0)  -->
<svg version="1.1" id="Layer_1" xmlns="http://www.w3.org/2000/svg" xmlns:xlink="http://www.w3.org/1999/xlink" x="0px" y="0px"
	 viewBox="0 0 450 223" style="enable-background:new 0 0 450 223;" xml:space="preserve">
<style type="text/css">
	.st0{fill:#FFC13E;}
	.st1{fill:#FFFFFF;}
	.st2{fill:#4CCAFC;}
	.st3{fill:#424D4C;}
	.st4{fill:#A3A8A7;}
	.st5{fill:none;stroke:#424D4C;}
	.st6{fill:#B02721;}
	.st7{fill:#2B2B2B;}
	.st8{fill:#F0F7FF;}
	.st9{fill:#A1C2E3;}
	.st10{fill:#589FD5;}
	.st11{fill:#7383BF;}
	.st12{fill:#5F5E5E;}
	.st13{fill:#7E7E7E;}
</style>
<title>main_image</title>
<desc>Created with Sketch.</desc>
<g id="Page-1">
	<g id="main_image">
		<circle id="Oval" class="st0" cx="359.8" cy="157.7" r="18.9"/>
		<path id="Shape" class="st1" d="M353.4,150.5h13.4c1.7,0,3,1.3,3,3v11h-19.4v-11C350.4,151.8,351.8,150.5,353.4,150.5z
			 M366.7,155.5c0-0.8-0.6-1.4-1.4-1.4c-0.8,0-1.4,0.6-1.4,1.4s0.6,1.4,1.4,1.4C366,156.9,366.7,156.3,366.7,155.5z M364.8,155.5
			c0-0.3,0.2-0.5,0.5-0.5c0.3,0,0.5,0.2,0.5,0.5s-0.2,0.5-0.5,0.5C365,156,364.8,155.8,364.8,155.5z M356.4,155.5
			c0-0.8-0.6-1.4-1.4-1.4c-0.8,0-1.4,0.6-1.4,1.4s0.6,1.4,1.4,1.4C355.8,156.9,356.4,156.3,356.4,155.5z M355,156
			c-0.3,0-0.5-0.2-0.5-0.5s0.2-0.5,0.5-0.5c0.3,0,0.5,0.2,0.5,0.5C355.5,155.8,355.3,156,355,156z M355.5,160.2v1.9
			c0,0.3,0.2,0.5,0.5,0.5h8.4c0.3,0,0.5-0.2,0.5-0.5v-1.9c0-0.3-0.2-0.5-0.5-0.5h-8.4C355.7,159.7,355.5,160,355.5,160.2z
			 M362,160.7h1.9v0.9H362V160.7z M359.2,160.7h1.9v0.9h-1.9V160.7z M356.4,160.7h1.9v0.9h-1.9V160.7z"/>
		<path id="Shape_1_" class="st1" d="M369.9,158.8c-0.3,0-0.5,0.2-0.5,0.5v3.7c0,0.8-0.6,1.4-1.4,1.4h-15.9c-0.8,0-1.4-0.6-1.4-1.4
			v-3.7c0-0.3-0.2-0.5-0.5-0.5c-0.3,0-0.5,0.2-0.5,0.5v3.7c0,1.3,1,2.3,2.3,2.3h15.9c1.3,0,2.3-1,2.3-2.3v-3.7
			C370.4,159,370.2,158.8,369.9,158.8z"/>
		<path id="Shape_2_" class="st1" d="M350.8,157.4v-4.7c0-0.8,0.6-1.4,1.4-1.4h3.7c0.3,0,0.5-0.2,0.5-0.5c0-1.8,2-3.3,3.7-3.3
			c1.2,0,2.5,0.7,3.2,1.7c0.1,0.2,0.4,0.3,0.7,0.1c0.2-0.1,0.3-0.4,0.1-0.7c-0.8-1.1-2.1-1.9-3.5-2v-1.1c0.5-0.2,0.9-0.7,0.9-1.3
			c0-0.8-0.6-1.4-1.4-1.4c-0.8,0-1.4,0.6-1.4,1.4c0,0.6,0.4,1.1,0.9,1.3v1c-1.9,0.2-3.9,1.7-4.2,3.7h-3.3c-1.3,0-2.3,1-2.3,2.3
			l0,4.2h-1c-0.2-0.5-0.7-0.9-1.3-0.9c-0.8,0-1.4,0.6-1.4,1.4s0.6,1.4,1.4,1.4c0.6,0,1.1-0.4,1.3-0.9h1.5
			C350.6,157.9,350.8,157.7,350.8,157.4z M360.1,143.9c0.3,0,0.5,0.2,0.5,0.5s-0.2,0.5-0.5,0.5s-0.5-0.2-0.5-0.5
			C359.7,144.1,359.9,143.9,360.1,143.9z M347.5,157.9c-0.3,0-0.5-0.2-0.5-0.5s0.2-0.5,0.5-0.5s0.5,0.2,0.5,0.5
			S347.8,157.9,347.5,157.9z"/>
		<path id="Shape_3_" class="st1" d="M372.7,156c-0.6,0-1.1,0.4-1.3,0.9h-1v-4.2c0-1.3-1-2.3-2.3-2.3h-10.3c-0.3,0-0.5,0.2-0.5,0.5
			s0.2,0.5,0.5,0.5h10.3c0.8,0,1.4,0.6,1.4,1.4v4.7c0,0.3,0.2,0.5,0.5,0.5h1.5c0.2,0.5,0.7,0.9,1.3,0.9c0.8,0,1.4-0.6,1.4-1.4
			C374.1,156.6,373.5,156,372.7,156z M372.7,157.9c-0.3,0-0.5-0.2-0.5-0.5s0.2-0.5,0.5-0.5c0.3,0,0.5,0.2,0.5,0.5
			S373,157.9,372.7,157.9z"/>
		<path id="Shape_4_" class="st1" d="M364.3,166.3h-8.4c-0.3,0-0.5,0.2-0.5,0.5c0,0.3,0.2,0.5,0.5,0.5h8.4c0.3,0,0.5-0.2,0.5-0.5
			C364.8,166.5,364.6,166.3,364.3,166.3z"/>
		<path id="Shape_5_" class="st1" d="M363.4,170h-6.5c-0.3,0-0.5,0.2-0.5,0.5s0.2,0.5,0.5,0.5h6.5c0.3,0,0.5-0.2,0.5-0.5
			S363.7,170,363.4,170z"/>
		<path id="Shape_6_" class="st1" d="M363.4,168.2h-6.5c-0.3,0-0.5,0.2-0.5,0.5c0,0.3,0.2,0.5,0.5,0.5h6.5c0.3,0,0.5-0.2,0.5-0.5
			C363.9,168.4,363.7,168.2,363.4,168.2z"/>
		<circle id="Oval_1_" class="st2" cx="101.4" cy="154.3" r="13.7"/>
		<path id="Shape_7_" class="st1" d="M107.4,154.6c0-0.2,0-0.5-0.1-0.7l1.5-0.9l-0.4-0.9l-0.4-0.9l-1.7,0.4c-0.4-0.5-0.8-1-1.3-1.4
			l0.5-1.7l-0.9-0.4l-0.9-0.4l-0.9,1.5c-0.4-0.1-0.8-0.1-1.2-0.1c-0.2,0-0.5,0-0.7,0.1l-0.9-1.5l-1.8,0.7l0.4,1.7
			c-0.5,0.4-1,0.8-1.4,1.3l-1.7-0.5l-0.4,0.9l-0.4,0.9l1.5,0.9c-0.1,0.4-0.1,0.8-0.1,1.2c0,0.2,0,0.5,0.1,0.7l-1.5,0.9l0.7,1.8
			l1.7-0.4c0.4,0.5,0.8,1,1.3,1.4l-0.5,1.7l0.9,0.4l0.9,0.4l0.9-1.5c0.4,0.1,0.8,0.1,1.2,0.1c0.2,0,0.5,0,0.7-0.1l0.9,1.5l1.8-0.7
			l-0.4-1.7c0.5-0.4,1-0.8,1.4-1.3l1.7,0.5l0.4-0.9l0.4-0.9l-1.5-0.9C107.4,155.4,107.4,155,107.4,154.6z M102,158
			c-1.8,0.1-3.3-1.3-3.4-3.1c-0.1-1.8,1.3-3.3,3.1-3.4c1.8-0.1,3.3,1.3,3.4,3.1C105.2,156.4,103.8,157.9,102,158z"/>
		<polygon id="Shape_8_" class="st3" points="370.2,47.5 370.2,46.5 441.3,46.5 441.3,47.5 		"/>
		<polygon id="Shape_9_" class="st3" points="351.4,105.3 351.4,104.3 422.5,104.3 422.5,105.3 		"/>
		<polygon id="Shape_10_" class="st3" points="198.8,41.4 198.8,40.4 252.2,40.4 252.2,41.4 		"/>
		<polygon id="Shape_11_" class="st3" points="0.6,42.4 0.6,41.4 71.7,41.4 71.7,42.4 		"/>
		<polygon id="Shape_12_" class="st3" points="342,180.9 342,179.9 376,179.9 376,180.9 		"/>
		<polygon id="Shape_13_" class="st3" points="16.3,183.4 16.3,182.4 50.2,182.4 50.2,183.4 		"/>
		<polygon id="Shape_14_" class="st3" points="58.2,183.4 58.2,182.4 92.1,182.4 92.1,183.4 		"/>
		<polygon id="Shape_15_" class="st3" points="10.1,75.7 10.1,74.7 38.3,74.7 38.3,75.7 		"/>
		<polygon id="Shape_16_" class="st3" points="290.7,158.6 290.7,157.6 301.5,157.6 301.5,158.6 		"/>
		<polygon id="Shape_17_" class="st3" points="46.2,75.7 46.2,74.7 80.2,74.7 80.2,75.7 		"/>
		<polygon id="Shape_18_" class="st3" points="304.4,158.6 304.4,157.6 332,157.6 332,158.6 		"/>
		<polygon id="Shape_19_" class="st3" points="173.4,53.9 173.4,52.9 184.2,52.9 184.2,53.9 		"/>
		<polygon id="Shape_20_" class="st3" points="187,53.9 187,52.9 237.2,52.9 237.2,53.9 		"/>
		<polygon id="Shape_21_" class="st3" points="36.3,126.1 36.3,125.1 47.1,125.1 47.1,126.1 		"/>
		<polygon id="Shape_22_" class="st3" points="49.9,126.1 49.9,125.1 83.9,125.1 83.9,126.1 		"/>
		<g id="_x2B_">
			<g>
				<polygon id="path-1" points="373.2,81 373.2,82 370.5,82 370.5,84.8 369.4,84.8 369.4,82 366.7,82 366.7,81 369.4,81 
					369.4,78.2 370.5,78.2 370.5,81 				"/>
			</g>
			<g>
				<polygon id="path-1_1_" class="st3" points="373.2,81 373.2,82 370.5,82 370.5,84.8 369.4,84.8 369.4,82 366.7,82 366.7,81 
					369.4,81 369.4,78.2 370.5,78.2 370.5,81 				"/>
			</g>
		</g>
		<g id="_x2B__1_">
			<g>
				<polygon id="path-2" points="262,40 262,41 259.3,41 259.3,43.8 258.2,43.8 258.2,41 255.5,41 255.5,40 258.2,40 258.2,37.2 
					259.3,37.2 259.3,40 				"/>
			</g>
			<g>
				<polygon id="path-2_1_" class="st3" points="262,40 262,41 259.3,41 259.3,43.8 258.2,43.8 258.2,41 255.5,41 255.5,40 
					258.2,40 258.2,37.2 259.3,37.2 259.3,40 				"/>
			</g>
		</g>
		<g id="_x2B__2_">
			<g>
				<polygon id="path-3" points="168.3,52.5 168.3,53.5 165.6,53.5 165.6,56.3 164.5,56.3 164.5,53.5 161.8,53.5 161.8,52.5 
					164.5,52.5 164.5,49.8 165.6,49.8 165.6,52.5 				"/>
			</g>
			<g>
				<polygon id="path-3_1_" class="st3" points="168.3,52.5 168.3,53.5 165.6,53.5 165.6,56.3 164.5,56.3 164.5,53.5 161.8,53.5 
					161.8,52.5 164.5,52.5 164.5,49.8 165.6,49.8 165.6,52.5 				"/>
			</g>
		</g>
		<g id="_x2B__3_">
			<g>
				<polygon id="path-4" points="84.4,41.4 84.4,42.4 81.7,42.4 81.7,45.2 80.6,45.2 80.6,42.4 77.9,42.4 77.9,41.4 80.6,41.4 
					80.6,38.7 81.7,38.7 81.7,41.4 				"/>
			</g>
			<g>
				<polygon id="path-4_1_" class="st3" points="84.4,41.4 84.4,42.4 81.7,42.4 81.7,45.2 80.6,45.2 80.6,42.4 77.9,42.4 77.9,41.4 
					80.6,41.4 80.6,38.7 81.7,38.7 81.7,41.4 				"/>
			</g>
		</g>
		<g id="_x2B__4_">
			<g>
				<polygon id="path-5" points="99.6,176.8 99.6,177.8 96.9,177.8 96.9,180.5 95.8,180.5 95.8,177.8 93.1,177.8 93.1,176.8 
					95.8,176.8 95.8,174 96.9,174 96.9,176.8 				"/>
			</g>
			<g>
				<polygon id="path-5_1_" class="st3" points="99.6,176.8 99.6,177.8 96.9,177.8 96.9,180.5 95.8,180.5 95.8,177.8 93.1,177.8 
					93.1,176.8 95.8,176.8 95.8,174 96.9,174 96.9,176.8 				"/>
			</g>
		</g>
		<g id="_x2B__5_">
			<g>
				<polygon id="path-6" points="289.4,153.7 289.4,154.7 286.7,154.7 286.7,157.5 285.6,157.5 285.6,154.7 282.9,154.7 
					282.9,153.7 285.6,153.7 285.6,150.9 286.7,150.9 286.7,153.7 				"/>
			</g>
			<g>
				<polygon id="path-6_1_" class="st3" points="289.4,153.7 289.4,154.7 286.7,154.7 286.7,157.5 285.6,157.5 285.6,154.7 
					282.9,154.7 282.9,153.7 285.6,153.7 285.6,150.9 286.7,150.9 286.7,153.7 				"/>
			</g>
		</g>
		<g id="_x2B__6_">
			<g>
				<polygon id="path-7" points="70,102.4 70,103.4 67.3,103.4 67.3,106.2 66.2,106.2 66.2,103.4 63.5,103.4 63.5,102.4 66.2,102.4 
					66.2,99.6 67.3,99.6 67.3,102.4 				"/>
			</g>
			<g>
				<polygon id="path-7_1_" class="st3" points="70,102.4 70,103.4 67.3,103.4 67.3,106.2 66.2,106.2 66.2,103.4 63.5,103.4 
					63.5,102.4 66.2,102.4 66.2,99.6 67.3,99.6 67.3,102.4 				"/>
			</g>
		</g>
		<g id="_x2B__7_">
			<g>
				<polygon id="path-8" points="427.9,97.3 427.9,98.4 425.2,98.4 425.2,101.1 424.1,101.1 424.1,98.4 421.4,98.4 421.4,97.3 
					424.1,97.3 424.1,94.6 425.2,94.6 425.2,97.3 				"/>
			</g>
			<g>
				<polygon id="path-8_1_" class="st4" points="427.9,97.3 427.9,98.4 425.2,98.4 425.2,101.1 424.1,101.1 424.1,98.4 421.4,98.4 
					421.4,97.3 424.1,97.3 424.1,94.6 425.2,94.6 425.2,97.3 				"/>
			</g>
		</g>
		<polygon id="Shape_23_" class="st5" points="383.8,174.9 387.4,171.4 390.9,174.9 387.4,178.4 		"/>
		<polygon id="Shape_24_" class="st5" points="39.3,73 42.8,69.5 46.3,73 42.8,76.5 		"/>
		<polygon id="Shape_25_" class="st5" points="441.7,43.8 445.2,40.3 448.7,43.8 445.2,47.3 		"/>
		<path id="Shape_26_" class="st6" d="M300.3,136.3C300.3,136.3,300.3,136.3,300.3,136.3l-20.2-50.9c-2.8-7.1-9.7-11.8-17.3-11.8
			h-86.6c-7.6,0-14.5,4.7-17.3,11.8l-20.2,50.9c0,0,0,0,0,0c-5.7,4.2-9.3,11-9.3,18.6v18.2c0,11.3,7.7,21.2,18.7,23.9
			c11.6,2.6,23.4,4.6,35.2,5.9l3.2-16c1.2-5.8,6.3-10,12.2-10h41.8c5.9,0,11,4.2,12.2,10.1l3.2,16c11.8-1.3,23.6-3.2,35.2-5.9
			c11-2.7,18.7-12.5,18.7-23.9v-18.2C309.6,147.4,306,140.6,300.3,136.3z"/>
		<path id="Shape_27_" class="st7" d="M290.7,199.1c-8.2,1.8-16.5,3.3-24.8,4.5v12.6c0,3.4,2.8,6.2,6.2,6.2H297
			c3.4,0,6.2-2.8,6.2-6.2v-24.7C300,195.2,295.7,197.9,290.7,199.1z"/>
		<path id="Shape_28_" class="st7" d="M147.8,199.1c-5-1.2-9.3-3.9-12.5-7.5v24.7c0,3.4,2.8,6.2,6.2,6.2h24.9c3.4,0,6.2-2.8,6.2-6.2
			v-12.6C164.3,202.4,156,200.9,147.8,199.1z"/>
		<path id="Shape_29_" class="st8" d="M291.2,131.9l-14-2.9c-38.6-7.8-78.3-7.8-116.7,0l-14,2.9c-10.7,2.2-18.4,11.7-18.4,22.7v18.3
			c0,11.4,7.8,21.4,18.8,24c11.7,2.6,23.5,4.6,35.4,5.9l3.2-7.9c1.2-5.9,6.3-10.1,12.3-10.1h42.1c6,0,11.1,4.2,12.3,10.1l3.2,7.8
			c11.9-1.3,23.7-3.3,35.4-5.9c11.1-2.7,18.8-12.6,18.8-24v-18.3C309.6,143.6,302,134.1,291.2,131.9z"/>
		<path id="Shape_30_" class="st9" d="M176.5,163.9l-4.3,1.6c-1.1,0.4-2.3,0.5-3.5,0.1l-21.1-6.2c-3.2-0.9-5.3-4.3-4.6-7.9l1.2-6.2
			c0.6-3.4,3.6-5.7,6.8-5.4l24.2,3.3c3.2,0.3,5.6,3.3,5.6,6.7v7.6C180.8,160.4,179.1,163,176.5,163.9z"/>
		<path id="Shape_31_" class="st0" d="M284.5,172.1l27.9-4.6v4c0,3.2-0.6,6.3-1.6,9.2l-33,5L284.5,172.1z"/>
		<path id="Shape_32_" class="st8" d="M147.4,132.5h144.1c3.3,0.7,6.4,2.1,9,4l-20.2-51.1c-2.8-7.1-9.7-11.8-17.4-11.8h-86.9
			c-7.7,0-14.5,4.7-17.4,11.8l-20.2,51.1C141.1,134.6,144.1,133.2,147.4,132.5z"/>
		<path id="Shape_33_" class="st9" d="M281,117.8c-7.3,0-34.5,0.3-81.6,0.9l-9.2,6.8l-4.8-6.8c-15.1-0.6-24.4-0.9-27.9-0.9l11-28.2
			c1-2.5,3.3-5.1,6-5.1H264c2.6,0,5,2.6,6,5.1L281,117.8z"/>
		<ellipse id="Oval_2_" class="st10" cx="194.6" cy="101" rx="5.3" ry="5.3"/>
		<ellipse id="Oval_3_" class="st10" cx="213.7" cy="101" rx="5.3" ry="5.3"/>
		<ellipse id="Oval_4_" class="st10" cx="232.9" cy="101" rx="5.3" ry="5.3"/>
		<path id="Shape_34_" class="st11" d="M307.9,113.7h-12.8l5.3,13h7.4c3.7,0,6.7-2.9,6.7-6.5C314.6,116.6,311.6,113.7,307.9,113.7z"
			/>
		<path id="Shape_35_" class="st9" d="M260.2,163.9l4.3,1.6c1.1,0.4,2.3,0.5,3.5,0.1l21.1-6.2c3.2-0.9,5.3-4.3,4.6-7.9l-1.2-6.2
			c-0.6-3.4-3.6-5.7-6.8-5.4l-24.2,3.3c-3.2,0.3-5.6,3.3-5.6,6.7v7.6C255.9,160.4,257.6,163,260.2,163.9z"/>
		<path id="Shape_36_" class="st7" d="M267.2,166.9c0.7,0,1.4-0.1,2.1-0.3l19.1-5.3c4.5-1.1,7.3-5.6,6.4-10.2l-1-5.2
			c-0.9-4.5-5-7.5-9.5-7l-21.9,2.8c-4.4,0.4-7.8,4.2-7.8,8.7v6.4c0,3.8,2.4,7.1,6,8.3l3.9,1.3C265.4,166.7,266.3,166.9,267.2,166.9z
			 M261.5,162.1L261.5,162.1L261.5,162.1z M291.7,146.2l1,5.3c1.1,4.6-3,7.5-4.6,7.9l-20.9,5.7c-1.8,0-9.6-0.8-10.6-8.3v-6.4
			c0-1.6,0-5.7,5.7-6.8l21.9-2.6C284.4,141,290.4,140.3,291.7,146.2z"/>
		<path id="Shape_37_" class="st7" d="M278.4,188.7c-1,0-1.9-0.5-2.5-1.3c-0.7-0.9-0.8-2.2-0.3-3.2l6.2-12.5
			c0.4-0.9,1.3-1.5,2.3-1.7l24.9-4.2c0.9-0.1,1.8,0.1,2.5,0.7c0.7,0.6,1.1,1.5,1.1,2.4v3.6c0,3.1-0.5,6.2-1.6,9.2
			c-0.4,1.1-1.3,1.9-2.4,2l-29.7,4.9C278.8,188.7,278.6,188.7,278.4,188.7z M285.3,171c-1.3,0.2-2.2,0.8-2.7,1.8
			c-2.2,4.2-4.1,8.2-5.7,12c-0.4,1.7,0.2,2.5,1.9,2.5c0.5,0.1,10.6-1.5,30.3-4.9c0.6-2.5,2.8-12.8,2.8-15.4L285.3,171z"/>
		<path id="Shape_38_" class="st0" d="M157.7,172.1l-27.9-4.6v4c0,3.2,0.6,6.3,1.6,9.2l33,5L157.7,172.1z"/>
		<path id="Shape_39_" class="st7" d="M161.5,188.7c1,0,1.9-0.5,2.5-1.3c0.7-0.9,0.8-2.2,0.3-3.2l-6.2-12.5
			c-0.4-0.9-1.3-1.5-2.3-1.7l-24.9-4.2c-0.9-0.1-1.8,0.1-2.5,0.7c-0.7,0.6-1.1,1.5-1.1,2.4v3.6c0,3.1,0.5,6.2,1.6,9.2
			c0.4,1.1,1.3,1.9,2.4,2l29.7,4.9C161.2,188.7,161.4,188.7,161.5,188.7z M154.7,171c1.3,0.2,2.2,0.8,2.7,1.8
			c2.2,4.2,4.1,8.2,5.7,12c0.4,1.7-0.2,2.5-1.9,2.5c-0.5,0.1-10.6-1.5-30.3-4.9c-0.6-2.5-2.8-12.8-2.8-15.4L154.7,171z"/>
		<path id="Shape_40_" class="st7" d="M307.3,129.4h-6.9c-1.3,0-2.4-0.8-2.9-2l-5-12.5c-0.4-1-0.3-2,0.3-2.9
			c0.6-0.9,1.5-1.4,2.6-1.4h11.9c5.1,0,9.3,4.2,9.3,9.4C316.6,125.2,312.4,129.4,307.3,129.4z M300.7,126.3h8c2.9,0,5.6-2.4,5.2-6.2
			c-0.4-3.8-3.3-6.2-6.2-6.2h-12.1L300.7,126.3z"/>
		<path id="Shape_41_" class="st11" d="M129.8,113.7h12.8l-5.3,13h-7.4c-3.7,0-6.7-2.9-6.7-6.5C123.1,116.6,126.1,113.7,129.8,113.7
			z"/>
		<path id="Shape_42_" class="st7" d="M130.6,129.4h6.9c1.3,0,2.4-0.8,2.9-2l5-12.5c0.4-1,0.3-2-0.3-2.9c-0.6-0.9-1.5-1.4-2.6-1.4
			h-11.9c-5.1,0-9.3,4.2-9.3,9.4C121.3,125.2,125.5,129.4,130.6,129.4z M137.3,126.3h-8c-2.9,0-5.6-2.4-5.2-6.2
			c0.4-3.8,3.3-6.2,6.2-6.2h12.1L137.3,126.3z"/>
		<path id="Shape_43_" class="st7" d="M219.3,207.4c-12.2,0-24.5-2.7-36.6-4c-0.9-0.1-1.7-0.6-2.2-1.3c-0.5-0.7-0.7,0.4-0.5-0.5
			l3.2-6.9c3.6-7.8,6.7-12.5,15.3-12.5h41.8c7.4,0,11.7,4.8,15.2,12.5l3.2,6.9c0.2,0.9,0-0.3-0.5,0.5c-0.5,0.7-1.3,1.2-2.2,1.3
			C243.8,204.7,231.6,207.4,219.3,207.4z M183.5,203c21.6,2.2,50.2,2.9,71.8,0.7l-2.5-7.8c-2.1-4.7-6.1-11-11.7-11h-43.8
			c-5.1,0-8.1,3.6-11.7,11L183.5,203z"/>
		<path id="Shape_44_" class="st7" d="M219.3,207.4c-24.3,0-48.6-2.7-72.2-8c-12.5-3-21.1-14.1-21.1-26.9v-18.1
			c0-12.3,8.7-22.1,20.8-24.6c28.2,0,50.2,0,65.9,0c16.5,0,42.9,0,79.2,0c12,2.5,20.8,12.2,20.8,24.6v18.1
			c0,12.8-8.7,23.9-21.1,26.9C267.9,204.7,243.6,207.4,219.3,207.4z M145.1,132.3c-9.5,2-16.4,10.8-16.4,20.9v19.4
			c0,10.6,7,20.8,17,23.3c48.2,11.2,99.1,11.2,147.4,0c10-2.5,17-12.7,17-23.3v-19.4c0-10.1-6.9-18.8-16.4-20.9c-37,0-64,0-80.8,0
			C196.6,132.3,174,132.3,145.1,132.3z"/>
		<path id="Shape_45_" class="st7" d="M301,134.9c-0.6,0-0.9-0.4-1.5-0.8c-2.3-1.7-3.1-1.5-5.9-2.1H144.4c-2.8,0.6-4.4,1.2-6.7,2.9
			c-1.1,0.8-1.2,2.2-2.3,1.3c-1.1-0.8-0.4-0.2,0.2-1.5l20.2-50.8c3.3-8.4,11.3-13.7,20.2-13.7h86.7c9,0,16.9,5.4,20.2,13.7
			l20.2,50.8c0.5,1.3,0.1-0.2-1,0.6C301.5,135.8,301.7,134.9,301,134.9z M144.4,131.9L144.4,131.9L144.4,131.9z M174.7,72.5
			c-9.6,0-14.5,7.5-16.9,13.5l-20,47.7c0.8-0.2,2.8-1.9,3.7-2H296c0.8,0.2,2.9,1.2,3.7,1.4l-18.9-47c-2.4-6-7.5-12.9-17.7-13.5
			H174.7z"/>
		<path id="Shape_46_" class="st7" d="M159.5,119.7c-0.9,0-1.8-0.4-2.4-1.1c-0.7-0.9-0.9-2.1-0.5-3.2l10.7-26.9
			c1.4-3.6,4.8-5.9,8.7-5.9h86.7c3.8,0,7.2,2.3,8.7,5.9l10.7,26.9c0.4,1.1,0.2,2.3-0.5,3.1c-0.7,0.9-1.7,1.1-3,1.1
			c-7.1,0-33.5,0-79.3,0l-9.1,6.9l-4.7-6.9c-13.3,0-21.7,0-25.3,0C159.9,119.7,159.7,119.7,159.5,119.7z M279.9,116.5l-11-27.5
			c-1.4-3.1-2.5-4-6.2-3.8H176c-4.3-0.3-6.1,2.7-6.4,3.8l-11.3,27.4c-0.2,0.6,0.2,1.2,1,1.2c2.4,0,11.5,0,27.1,0l4.2,6.2l7.8-6.2
			c49.7-0.1,76.5-0.2,80.5-0.2C279.5,117.4,280.2,117.4,279.9,116.5z"/>
		<path id="Shape_47_" class="st7" d="M169.3,166.9c-0.7,0-1.4-0.1-2.1-0.3l-19.1-5.3c-4.5-1.1-7.3-5.6-6.4-10.2l1-5.2
			c0.9-4.5,5-7.5,9.5-7l21.9,2.8c4.4,0.4,7.8,4.2,7.8,8.7v6.4c0,3.8-2.4,7.1-6,8.3l-3.9,1.3C171.2,166.7,170.3,166.9,169.3,166.9z
			 M175,162.1L175,162.1L175,162.1z M144.8,146.2l-1,5.3c-1.1,4.6,3,7.5,4.6,7.9l20.9,5.7c1.8,0,9.6-0.8,10.6-8.3v-6.4
			c0-1.6-0.8-6.4-5.7-6.8l-21.9-2.6C152.1,141,146.2,140.3,144.8,146.2z"/>
		<path id="Rectangle-path" class="st0" d="M103,49h32c3.3,0,6,2.7,6,6v22c0,3.3-2.7,6-6,6h-32c-3.3,0-6-2.7-6-6V55
			C97,51.7,99.7,49,103,49z"/>
		<path id="Shape_48_" d="M133,60c0-1.7-1.3-3-3-3s-3,1.3-3,3s1.3,3,3,3S133,61.7,133,60z"/>
		<path id="Shape_49_" class="st1" d="M129,60c0-0.6,0.4-1,1-1s1,0.4,1,1s-0.4,1-1,1S129,60.6,129,60z"/>
		<path id="Shape_50_" d="M110,60c0-1.7-1.3-3-3-3s-3,1.3-3,3s1.3,3,3,3S110,61.7,110,60z"/>
		<path id="Shape_51_" class="st1" d="M107,61c-0.6,0-1-0.4-1-1s0.4-1,1-1s1,0.4,1,1C108,60.6,107.6,61,107,61z"/>
		<path id="Shape_52_" d="M108,71v4c0,0.6,0.5,1,1,1H128c0.6,0,1-0.4,1-1v-4c0-0.6-0.5-1-1-1H109C108.5,70,108,70.4,108,71z"/>
		<polygon id="Shape_53_" class="st1" points="123,72 127,72 127,74 123,74 		"/>
		<polygon id="Shape_54_" class="st1" points="116,72 120,72 120,74 116,74 		"/>
		<polygon id="Shape_55_" class="st1" points="110,72 114,72 114,74 110,74 		"/>
		<path id="Shape_56_" d="M140,68c-0.6,0-1,0.5-1,1.1v8.6c0,1.8-1.4,3.2-3.1,3.2h-35.5c-1.7,0-3.1-1.4-3.1-3.2v-8.6
			c0-0.6-0.5-1.1-1-1.1c-0.6,0-1,0.5-1,1.1v8.6c0,3,2.3,5.4,5.2,5.4h35.5c2.9,0,5.2-2.4,5.2-5.4v-8.6C141,68.5,140.5,68,140,68z"/>
		<path id="Shape_57_" d="M97.3,64.8V54.2c0-1.8,1.4-3.2,3.1-3.2h8.3c0.6,0,1-0.5,1-1.1c0-4.2,4.4-7.4,8.3-7.4
			c2.7,0,5.5,1.5,7.1,3.8c0.3,0.5,1,0.6,1.4,0.3c0.5-0.3,0.6-1,0.3-1.5c-1.8-2.6-4.7-4.3-7.8-4.6v-2.4c1.2-0.4,2.1-1.6,2.1-3
			c0-1.8-1.4-3.2-3.1-3.2c-1.7,0-3.1,1.4-3.1,3.2c0,1.4,0.9,2.5,2.1,3v2.4c-4.3,0.5-8.6,3.9-9.2,8.4h-7.3c-2.9,0-5.2,2.4-5.2,5.3
			l0,9.5H93c-0.4-1.2-1.6-2.1-2.9-2.1c-1.7,0-3.1,1.4-3.1,3.2c0,1.8,1.4,3.2,3.1,3.2c1.3,0,2.5-0.9,2.9-2.1h3.3
			C96.9,65.9,97.3,65.4,97.3,64.8z M118,34.1c0.6,0,1,0.5,1,1.1c0,0.6-0.5,1.1-1,1.1c-0.6,0-1-0.5-1-1.1
			C117,34.6,117.5,34.1,118,34.1z M90.1,65.9c-0.6,0-1-0.5-1-1.1c0-0.6,0.5-1.1,1-1.1c0.6,0,1,0.5,1,1.1
			C91.1,65.4,90.7,65.9,90.1,65.9z"/>
		<path id="Shape_58_" d="M146.8,61.7c-1.4,0-2.5,0.9-3,2.1h-2.3v-9.5c0-2.9-2.4-5.3-5.3-5.3h-23.2c-0.6,0-1.1,0.5-1.1,1.1
			c0,0.6,0.5,1.1,1.1,1.1h23.2c1.7,0,3.2,1.4,3.2,3.2v10.6c0,0.6,0.5,1.1,1.1,1.1h3.4c0.4,1.2,1.6,2.1,3,2.1c1.7,0,3.2-1.4,3.2-3.2
			C150,63.1,148.6,61.7,146.8,61.7z M146.8,65.9c-0.6,0-1.1-0.5-1.1-1.1c0-0.6,0.5-1.1,1.1-1.1c0.6,0,1.1,0.5,1.1,1.1
			C147.9,65.4,147.4,65.9,146.8,65.9z"/>
		<path id="Shape_59_" class="st12" d="M128,85H109c-0.6,0-1,0.4-1,1s0.5,1,1,1H128c0.6,0,1-0.4,1-1S128.5,85,128,85z"/>
		<path id="Shape_60_" class="st13" d="M125.9,93h-14.9c-0.6,0-1.1,0.4-1.1,1s0.5,1,1.1,1h14.9c0.6,0,1.1-0.4,1.1-1
			S126.5,93,125.9,93z"/>
		<path id="Shape_61_" d="M125.9,89h-14.9c-0.6,0-1.1,0.4-1.1,1s0.5,1,1.1,1h14.9c0.6,0,1.1-0.4,1.1-1S126.5,89,125.9,89z"/>
		<path id="Shape_62_" class="st2" d="M185.8,0h-43.5c-2.3,0-4.2,1.9-4.2,4.3v25.7c0,2.4,1.9,4.3,4.2,4.3h2.5v10.6
			c0,0.5,0.3,0.9,0.7,1.1c0.1,0.1,0.3,0.1,0.5,0.1c0.3,0,0.6-0.1,0.9-0.4l11.3-11.4h27.6c2.3,0,4.2-1.9,4.2-4.3V4.3
			C190,1.9,188.1,0,185.8,0z"/>
		<path id="Shape_63_" class="st1" d="M162.1,9.5h-14.6c-0.5,0-0.9,0.4-0.9,0.9c0,0.5,0.4,0.9,0.9,0.9h14.6c0.5,0,0.9-0.4,0.9-0.9
			C163,9.9,162.6,9.5,162.1,9.5z"/>
		<path id="Shape_64_" class="st1" d="M171.8,16.2h-24.3c-0.5,0-0.9,0.4-0.9,0.9c0,0.5,0.4,0.9,0.9,0.9h24.3c0.5,0,0.9-0.4,0.9-0.9
			C172.8,16.6,172.4,16.2,171.8,16.2z"/>
		<path id="Shape_65_" class="st1" d="M180.5,9.5h-12.9c-0.5,0-0.9,0.4-0.9,0.9c0,0.5,0.4,0.9,0.9,0.9h12.9c0.5,0,0.9-0.4,0.9-0.9
			C181.4,9.9,181,9.5,180.5,9.5z"/>
		<path id="Shape_66_" class="st1" d="M180.5,16.2h-3.4c-0.5,0-0.9,0.4-0.9,0.9c0,0.5,0.4,0.9,0.9,0.9h3.4c0.5,0,0.9-0.4,0.9-0.9
			S181,16.2,180.5,16.2z"/>
		<path id="Shape_67_" class="st1" d="M165.1,22.9h-17.6c-0.5,0-0.9,0.4-0.9,0.9c0,0.5,0.4,0.9,0.9,0.9h17.6c0.5,0,0.9-0.4,0.9-0.9
			C166.1,23.3,165.6,22.9,165.1,22.9z"/>
		<path id="Shape_68_" class="st1" d="M180.5,22.9h-10.4c-0.5,0-0.9,0.4-0.9,0.9c0,0.5,0.4,0.9,0.9,0.9h10.4c0.5,0,0.9-0.4,0.9-0.9
			C181.4,23.3,181,22.9,180.5,22.9z"/>
		<path id="Shape_69_" class="st2" d="M336.9,67h-31.8c-1.7,0-3.1,1.4-3.1,3.1v18.4c0,1.7,1.4,3.1,3.1,3.1h1.8v7.6
			c0,0.4,0.2,0.7,0.5,0.8c0.1,0,0.2,0.1,0.3,0.1c0.2,0,0.5-0.1,0.6-0.3l8.3-8.2h20.2c1.7,0,3.1-1.4,3.1-3.1V70.1
			C340,68.4,338.6,67,336.9,67z"/>
		<path id="Shape_70_" class="st1" d="M315.1,73h-5.2c-0.5,0-0.9,0.4-0.9,1c0,0.6,0.4,1,0.9,1h5.2c0.5,0,0.9-0.4,0.9-1
			C316,73.4,315.6,73,315.1,73z"/>
		<path id="Shape_71_" class="st1" d="M324.1,78h-14.2c-0.5,0-0.9,0.4-0.9,1c0,0.6,0.4,1,0.9,1h14.2c0.5,0,0.9-0.4,0.9-1
			C325,78.4,324.6,78,324.1,78z"/>
		<path id="Shape_72_" class="st1" d="M332.1,73h-12.2c-0.5,0-0.9,0.4-0.9,1c0,0.6,0.4,1,0.9,1h12.2c0.5,0,0.9-0.4,0.9-1
			C333,73.4,332.6,73,332.1,73z"/>
		<path id="Shape_73_" class="st1" d="M332.1,78h-3.2c-0.5,0-0.9,0.4-0.9,1c0,0.6,0.4,1,0.9,1h3.2c0.5,0,0.9-0.4,0.9-1
			S332.6,78,332.1,78z"/>
		<path id="Shape_74_" class="st1" d="M318.1,83h-8.2c-0.5,0-0.9,0.4-0.9,1c0,0.6,0.4,1,0.9,1h8.2c0.5,0,0.9-0.4,0.9-1
			C319,83.4,318.6,83,318.1,83z"/>
		<path id="Shape_75_" class="st1" d="M333.1,83h-10.2c-0.5,0-0.9,0.4-0.9,1c0,0.6,0.4,1,0.9,1h10.2c0.5,0,0.9-0.4,0.9-1
			C334,83.4,333.6,83,333.1,83z"/>
		<path id="Shape_76_" class="st0" d="M346.2,30h-28.5c-1.5,0-2.8,1.3-2.8,2.8v16.7c0,1.5,1.2,2.8,2.8,2.8h1.6v6.9
			c0,0.3,0.2,0.6,0.5,0.7c0.1,0,0.2,0.1,0.3,0.1c0.2,0,0.4-0.1,0.6-0.2l7.4-7.4h18.1c1.5,0,2.8-1.3,2.8-2.8V32.8
			C349,31.3,347.8,30,346.2,30z"/>
		<path id="Shape_77_" class="st1" d="M343.7,35h-4.9c-0.5,0-0.8,0.3-0.8,0.7c0,0.4,0.4,0.7,0.8,0.7h4.9c0.5,0,0.8-0.3,0.8-0.7
			C344.5,35.3,344.2,35,343.7,35z"/>
		<path id="Shape_78_" class="st1" d="M343.6,40h-12.8c-0.4,0-0.8,0.3-0.8,0.7c0,0.4,0.4,0.7,0.8,0.7h12.8c0.4,0,0.8-0.3,0.8-0.7
			C344.4,40.3,344,40,343.6,40z"/>
		<path id="Shape_79_" class="st1" d="M333.2,35h-11.4c-0.5,0-0.8,0.3-0.8,0.7c0,0.4,0.4,0.7,0.8,0.7h11.4c0.5,0,0.8-0.3,0.8-0.7
			C334.1,35.3,333.7,35,333.2,35z"/>
		<path id="Shape_80_" class="st1" d="M324.2,40h-2.5c-0.4,0-0.7,0.3-0.7,0.7c0,0.4,0.3,0.7,0.7,0.7h2.5c0.4,0,0.7-0.3,0.7-0.7
			C324.9,40.3,324.6,40,324.2,40z"/>
		<path id="Shape_81_" class="st1" d="M343.3,44h-7.5c-0.5,0-0.8,0.3-0.8,0.7c0,0.4,0.4,0.7,0.8,0.7h7.5c0.5,0,0.8-0.3,0.8-0.7
			C344.2,44.3,343.8,44,343.3,44z"/>
		<path id="Shape_82_" class="st1" d="M330.7,44h-8.9c-0.4,0-0.8,0.3-0.8,0.7c0,0.4,0.4,0.7,0.8,0.7h8.9c0.4,0,0.8-0.3,0.8-0.7
			C331.5,44.3,331.1,44,330.7,44z"/>
	</g>
</g>
</svg>
