<?xml version="1.0" encoding="UTF-8"?>
<svg width="119px" height="100px" viewBox="0 0 119 100" version="1.1" xmlns="http://www.w3.org/2000/svg" xmlns:xlink="http://www.w3.org/1999/xlink">
    <!-- Generator: Sketch 63.1 (92452) - https://sketch.com -->
    <title>app_integration</title>
    <desc>Created with Sketch.</desc>
    <g id="Page-1" stroke="none" stroke-width="1" fill="none" fill-rule="evenodd">
        <g id="application_services" transform="translate(-235.000000, -953.000000)" fill-rule="nonzero">
            <g id="section1" transform="translate(234.000000, 240.000000)">
                <g id="Group-9" transform="translate(1.000000, 713.000000)">
                    <g id="app_integration">
                        <g id="blob-shape" opacity="0.49546596" fill="#FFB4BC">
                            <path d="M113.820005,13.2000005 C122.190005,24.090001 118.950005,43.8900017 113.490005,61.3200024 C108.060004,78.7800031 100.380004,93.8700037 89.0100035,98.1600039 C77.6400031,102.480004 62.5500025,96.0000038 45.7500018,89.3100035 C28.9500012,82.6500033 10.4700004,75.810003 3.42000014,61.5900024 C-3.63000014,47.3400019 0.75000003,25.740001 12.9900005,13.9500006 C25.200001,2.16000009 45.3000018,0.180000007 65.3700026,0.209667361 C85.4100034,0.24000001 105.420004,2.28000009 113.820005,13.2000005 Z" id="Path"></path>
                        </g>
                        <g id="oracle-data-integrator" transform="translate(13.000000, 4.000000)" fill="#FF0000">
                            <path d="M88.35,-2.20268248e-14 L4.65,-2.20268248e-14 C2.08505566,0.00766041259 0.00766041259,2.08505566 0,4.65 L0,62 C0.00766041259,64.5649443 2.08505566,66.6423396 4.65,66.65 L20.7855,66.65 C20.8448285,66.8518409 20.8225655,67.0689046 20.7235,67.2545 L16.8175,73.749 C15.7189607,75.5835575 16.0131677,77.9308174 17.5305,79.4375 L22.8625,84.7695 C24.3691826,86.2868323 26.7164425,86.5810393 28.551,85.4825 L35.0455,81.5765 C35.2970325,81.4458602 35.5951308,81.4401276 35.8515,81.561 C36.1070482,81.6594367 36.3019713,81.8715589 36.3785,82.1345 L38.2075,89.4815 C38.726386,91.5498139 40.5855917,93 42.718,93 L50.282,93 C52.4144083,93 54.273614,91.5498139 54.7925,89.4815 L56.6215,82.1345 C56.704604,81.8613869 56.9112744,81.6432348 57.1795,81.5455 C57.4291498,81.4376771 57.7142598,81.4490815 57.9545,81.5765 L64.449,85.4825 C66.2851213,86.5735775 68.6274604,86.2799873 70.1375,84.7695 L75.4695,79.4375 C76.9868323,77.9308174 77.2810393,75.5835575 76.1825,73.749 L72.2765,67.2545 C72.1850078,67.0666692 72.163041,66.8524924 72.2145,66.65 L88.35,66.65 C90.9149443,66.6423396 92.9923396,64.5649443 93,62 L93,4.65 C92.9923396,2.08505566 90.9149443,0.00766041259 88.35,-2.20268248e-14 L88.35,-2.20268248e-14 Z M80.6,59.582 C80.6,60.2943082 80.1134897,60.9145462 79.422,61.0855 L72.075,62.9145 C70.8499756,63.2405162 69.8504407,64.125162 69.378,65.3015 C68.8970632,66.4576986 68.988956,67.7729136 69.626,68.851 L73.5165,75.3455 C73.8900525,75.9527966 73.7935382,76.7377801 73.284,77.2365 L67.9365,82.584 C67.4377801,83.0935382 66.6527966,83.1900525 66.0455,82.8165 L59.551,78.926 C58.4618923,78.2971922 57.1425394,78.2097609 55.9799799,78.6893547 C54.8174203,79.1689484 53.9434676,80.1611898 53.6145,81.375 L51.7855,88.722 C51.6145462,89.4134897 50.9943082,89.9 50.282,89.9 L42.718,89.9 C42.0056918,89.9 41.3854538,89.4134897 41.2145,88.722 L39.3855,81.375 C39.0594838,80.1499756 38.174838,79.1504407 36.9985,78.678 C36.5066285,78.4757783 35.9803128,78.3705151 35.4485,78.368 C34.7432644,78.3658225 34.0511974,78.5589575 33.449,78.926 L26.9545,82.8165 C26.3472034,83.1900525 25.5622199,83.0935382 25.0635,82.584 L19.716,77.2365 C19.2064618,76.7377801 19.1099475,75.9527966 19.4835,75.3455 L23.374,68.851 C24.0028078,67.7618923 24.0902391,66.4425394 23.6106453,65.2799799 C23.1310516,64.1174203 22.1388102,63.2434676 20.925,62.9145 L13.578,61.0855 C12.8865103,60.9145462 12.4,60.2943082 12.4,59.582 L12.4,52.018 C12.4,51.3056918 12.8865103,50.6854538 13.578,50.5145 L20.925,48.6855 C22.1500244,48.3594838 23.1495593,47.474838 23.622,46.2985 C24.1029368,45.1423014 24.011044,43.8270864 23.374,42.749 L19.4835,36.2545 C19.1099475,35.6472034 19.2064618,34.8622199 19.716,34.3635 L25.0635,29.016 C25.5622199,28.5064618 26.3472034,28.4099475 26.9545,28.7835 L33.449,32.674 C34.5381077,33.3028078 35.8574606,33.3902391 37.0200201,32.9106453 C38.1825797,32.4310516 39.0565324,31.4388102 39.3855,30.225 L41.2145,22.878 C41.3854538,22.1865103 42.0056918,21.7 42.718,21.7 L50.282,21.7 C50.9943082,21.7 51.6145462,22.1865103 51.7855,22.878 L53.6145,30.225 C53.9405162,31.4500244 54.825162,32.4495593 56.0015,32.922 C57.1576986,33.4029368 58.4729136,33.311044 59.551,32.674 L66.0455,28.7835 C66.6546819,28.4187245 67.4338248,28.5145207 67.9365,29.016 L73.284,34.3635 C73.7935382,34.8622199 73.8900525,35.6472034 73.5165,36.2545 L69.626,42.749 C68.9971922,43.8381077 68.9097609,45.1574606 69.3893547,46.3200201 C69.8689484,47.4825797 70.8611898,48.3565324 72.075,48.6855 L79.422,50.5145 C80.1134897,50.6854538 80.6,51.3056918 80.6,52.018 L80.6,59.582 Z M89.9,62 C89.9,62.8560414 89.2060414,63.55 88.35,63.55 L81.4525,63.55 C82.8456024,62.7129139 83.6984186,61.2072523 83.7,59.582 L83.7,52.018 C83.7001221,49.8855917 82.2498139,48.026386 80.1815,47.5075 L72.8345,45.6785 C72.6167388,45.6194024 72.4288347,45.4812376 72.3075,45.291 C72.292,45.2445 72.261,45.167 72.2455,45.1205 C72.1376771,44.8708502 72.1490815,44.5857402 72.2765,44.3455 L76.1825,37.851 C77.2810393,36.0164425 76.9868323,33.6691826 75.4695,32.1625 L70.1375,26.8305 C68.6308174,25.3131677 66.2835575,25.0189607 64.449,26.1175 L57.9545,30.0235 C57.7029675,30.1541398 57.4048692,30.1598724 57.1485,30.039 C56.8929518,29.9405633 56.6980287,29.7284411 56.6215,29.4655 L54.7925,22.1185 C54.273614,20.0501861 52.4144083,18.5998779 50.282,18.6 L42.718,18.6 C40.5855917,18.5998779 38.726386,20.0501861 38.2075,22.1185 L36.3785,29.4655 C36.295396,29.7386131 36.0887256,29.9567652 35.8205,30.0545 C35.5708502,30.1623229 35.2857402,30.1509185 35.0455,30.0235 L28.551,26.1175 C26.7148787,25.0264225 24.3725396,25.3200127 22.8625,26.8305 L17.5305,32.1625 C16.0131677,33.6691826 15.7189607,36.0164425 16.8175,37.851 L20.7235,44.3455 C20.8541398,44.5970325 20.8598724,44.8951308 20.739,45.1515 C20.6405633,45.4070482 20.4284411,45.6019713 20.1655,45.6785 L12.8185,47.5075 C10.7501861,48.026386 9.29987787,49.8855917 9.3,52.018 L9.3,59.582 C9.30158142,61.2072523 10.1543976,62.7129139 11.5475,63.55 L4.65,63.55 C3.79395864,63.55 3.1,62.8560414 3.1,62 L3.1,15.5 L89.9,15.5 L89.9,62 Z M89.9,12.4 L3.1,12.4 L3.1,4.65 C3.1,3.79395864 3.79395864,3.1 4.65,3.1 L88.35,3.1 C89.2060414,3.1 89.9,3.79395864 89.9,4.65 L89.9,12.4 Z" id="Shape"></path>
                            <polygon id="Path" points="6.2 6.2 9.3 6.2 9.3 9.3 6.2 9.3"></polygon>
                            <polygon id="Path" points="12.4 6.2 15.5 6.2 15.5 9.3 12.4 9.3"></polygon>
                            <polygon id="Path" points="18.6 6.2 21.7 6.2 21.7 9.3 18.6 9.3"></polygon>
                            <path d="M46.5,37.2 C36.2275037,37.2 27.9,45.5275037 27.9,55.8 C27.9,66.0724963 36.2275037,74.4 46.5,74.4 C56.7724963,74.4 65.1,66.0724963 65.1,55.8 C65.0888945,45.5321072 56.7678928,37.2111055 46.5,37.2 L46.5,37.2 Z M46.5,71.3 C37.9395864,71.3 31,64.3604136 31,55.8 C31,47.2395864 37.9395864,40.3 46.5,40.3 C55.0604136,40.3 62,47.2395864 62,55.8 C61.9906033,64.3565184 55.0565184,71.2906033 46.5,71.3 Z" id="Shape"></path>
                            <polygon id="Path" points="44.95 54.25 48.05 54.25 48.05 57.35 44.95 57.35"></polygon>
                            <polygon id="Path" points="51.15 54.25 54.25 54.25 54.25 57.35 51.15 57.35"></polygon>
                            <polygon id="Path" points="38.75 54.25 41.85 54.25 41.85 57.35 38.75 57.35"></polygon>
                        </g>
                    </g>
                </g>
            </g>
        </g>
    </g>
</svg>