<?xml version="1.0" encoding="UTF-8"?>
<svg width="119px" height="100px" viewBox="0 0 119 100" version="1.1" xmlns="http://www.w3.org/2000/svg" xmlns:xlink="http://www.w3.org/1999/xlink">
    <!-- Generator: Sketch 63.1 (92452) - https://sketch.com -->
    <title>application_development</title>
    <desc>Created with Sketch.</desc>
    <g id="Page-1" stroke="none" stroke-width="1" fill="none" fill-rule="evenodd">
        <g id="application_services" transform="translate(-235.000000, -471.000000)" fill-rule="nonzero">
            <g id="section1" transform="translate(234.000000, 240.000000)">
                <g id="Group-6" transform="translate(1.000000, 231.000000)">
                    <g id="application_development">
                        <g id="blob-shape" opacity="0.49546596" fill="#FFB4BC">
                            <path d="M113.820005,13.2000005 C122.190005,24.090001 118.950005,43.8900017 113.490005,61.3200024 C108.060004,78.7800031 100.380004,93.8700037 89.0100035,98.1600039 C77.6400031,102.480004 62.5500025,96.0000038 45.7500018,89.3100035 C28.9500012,82.6500033 10.4700004,75.810003 3.42000014,61.5900024 C-3.63000014,47.3400019 0.75000003,25.740001 12.9900005,13.9500006 C25.200001,2.16000009 45.3000018,0.180000007 65.3700026,0.209667361 C85.4100034,0.24000001 105.420004,2.28000009 113.820005,13.2000005 Z" id="Path"></path>
                        </g>
                        <g id="code" transform="translate(8.000000, 4.000000)" fill="#FF0000">
                            <path d="M41.4876874,67.4889374 C41.0905,67.4889374 40.6904063,67.3523437 40.3639374,67.0743126 L29.1303126,57.508875 C28.7428126,57.1785313 28.52,56.6960937 28.52,56.1865313 C28.52,55.6779374 28.7437813,55.1955 29.1303126,54.8651563 L40.3639374,45.2997187 C41.0934063,44.6777813 42.1890626,44.7659374 42.811,45.4954063 C43.4319687,46.2258437 43.3447813,47.3215 42.6143437,47.9424687 L32.933625,56.1865313 L42.6143437,64.4305937 C43.3447813,65.0525313 43.4319687,66.1481874 42.811,66.8776563 C42.4670937,67.281625 41.9788437,67.4889374 41.4876874,67.4889374 Z" id="Path"></path>
                            <path d="M63.6643126,67.4889374 C63.1731563,67.4889374 62.6849063,67.281625 62.3419687,66.8776563 C61.7200313,66.1481874 61.8081874,65.0525313 62.5376563,64.4305937 L72.218375,56.1865313 L62.5376563,47.9424687 C61.8081874,47.3215 61.7200313,46.2258437 62.3419687,45.4954063 C62.9629374,44.7659374 64.0595626,44.6777813 64.7880626,45.2997187 L76.0216874,54.8651563 C76.4091874,55.1955 76.632,55.6779374 76.632,56.1865313 C76.632,56.6960937 76.4091874,57.1785313 76.0216874,57.508875 L64.7880626,67.0743126 C64.4615937,67.3523437 64.0615,67.4889374 63.6643126,67.4889374 L63.6643126,67.4889374 Z" id="Path"></path>
                            <path d="M48.5992813,74.6635 C48.480125,74.6635 48.36,74.6509063 48.2389063,74.6257187 C47.3011563,74.4280937 46.7005313,73.5068126 46.8981563,72.5690626 L53.8993126,39.3283437 C54.0969374,38.3905937 55.01725,37.7899687 55.9559687,37.9875937 C56.8937187,38.1852187 57.4943437,39.1055313 57.2967187,40.04425 L50.2955626,73.2849687 C50.123125,74.1025937 49.402375,74.6635 48.5992813,74.6635 L48.5992813,74.6635 Z" id="Path"></path>
                            <path d="M93.496,92.7733126 L11.656,92.7733126 C5.22931262,92.7733126 0,87.5449687 0,81.1173126 L0,11.656 C0,5.22931262 5.22931262,0 11.656,0 L93.496,0 C99.9226874,0 105.152,5.22931262 105.152,11.656 L105.152,81.1173126 C105.152,87.5449687 99.9226874,92.7733126 93.496,92.7733126 Z M11.656,3.472 C7.14356262,3.472 3.472,7.14356262 3.472,11.656 L3.472,81.1173126 C3.472,85.62975 7.14356262,89.3013126 11.656,89.3013126 L93.496,89.3013126 C98.0084374,89.3013126 101.68,85.62975 101.68,81.1173126 L101.68,11.656 C101.68,7.14356262 98.0084374,3.472 93.496,3.472 L11.656,3.472 Z" id="Shape"></path>
                            <path d="M103.416,27.7982813 L1.736,27.7982813 C0.776937376,27.7982813 0,27.0213437 0,26.0622813 C0,25.1041874 0.776937376,24.3262813 1.736,24.3262813 L103.416,24.3262813 C104.375063,24.3262813 105.152,25.1041874 105.152,26.0622813 C105.152,27.0213437 104.375063,27.7982813 103.416,27.7982813 Z" id="Path"></path>
                            <path d="M29.6611874,19.49125 C26.632875,19.49125 24.1674063,17.0257813 24.1674063,13.9974687 C24.1674063,10.9681874 26.632875,8.50368738 29.6611874,8.50368738 C32.6904687,8.50368738 35.1549687,10.9681874 35.1549687,13.9974687 C35.1549687,17.0257813 32.6904687,19.49125 29.6611874,19.49125 Z M29.6611874,11.9756874 C28.547125,11.9756874 27.6394063,12.8824374 27.6394063,13.9974687 C27.6394063,15.1125 28.547125,16.01925 29.6611874,16.01925 C30.7762187,16.01925 31.6829687,15.1125 31.6829687,13.9974687 C31.6829687,12.8824374 30.7762187,11.9756874 29.6611874,11.9756874 Z" id="Shape"></path>
                            <path d="M12.7816874,19.4379687 C9.75240631,19.4379687 7.28790631,16.9734687 7.28790631,13.9441874 C7.28790631,10.9149063 9.75240631,8.45040631 12.7816874,8.45040631 C15.8109687,8.45040631 18.2754687,10.9149063 18.2754687,13.9441874 C18.2754687,16.9734687 15.8109687,19.4379687 12.7816874,19.4379687 Z M12.7816874,11.9224063 C11.667625,11.9224063 10.7599063,12.830125 10.7599063,13.9441874 C10.7599063,15.0592187 11.667625,15.9659687 12.7816874,15.9659687 C13.8967187,15.9659687 14.8034687,15.0592187 14.8034687,13.9441874 C14.8034687,12.830125 13.8967187,11.9224063 12.7816874,11.9224063 Z" id="Shape"></path>
                            <path d="M46.5406874,19.5435626 C43.512375,19.5435626 41.047875,17.0790626 41.047875,14.0497813 C41.047875,11.0214687 43.512375,8.55696869 46.5406874,8.55696869 C49.5699687,8.55696869 52.0344687,11.0214687 52.0344687,14.0497813 C52.0344687,17.0790626 49.5699687,19.5435626 46.5406874,19.5435626 Z M46.5406874,12.028 C45.426625,12.028 44.519875,12.93475 44.519875,14.0497813 C44.519875,15.1648126 45.426625,16.0715626 46.5406874,16.0715626 C47.6557187,16.0715626 48.5624687,15.1648126 48.5624687,14.0497813 C48.5624687,12.93475 47.6557187,12.028 46.5406874,12.028 Z" id="Shape"></path>
                        </g>
                    </g>
                </g>
            </g>
        </g>
    </g>
</svg>