<?xml version="1.0" encoding="UTF-8"?>
<svg width="119px" height="100px" viewBox="0 0 119 100" version="1.1" xmlns="http://www.w3.org/2000/svg" xmlns:xlink="http://www.w3.org/1999/xlink">
    <!-- Generator: Sketch 63.1 (92452) - https://sketch.com -->
    <title>app_performance</title>
    <desc>Created with Sketch.</desc>
    <g id="Page-1" stroke="none" stroke-width="1" fill="none" fill-rule="evenodd">
        <g id="application_services" transform="translate(-235.000000, -1206.000000)" fill-rule="nonzero">
            <g id="section1" transform="translate(234.000000, 240.000000)">
                <g id="Group-11" transform="translate(1.000000, 966.000000)">
                    <g id="app_performance">
                        <g id="blob-shape" opacity="0.49546596" fill="#FFB4BC">
                            <path d="M113.820005,13.2000005 C122.190005,24.090001 118.950005,43.8900017 113.490005,61.3200024 C108.060004,78.7800031 100.380004,93.8700037 89.0100035,98.1600039 C77.6400031,102.480004 62.5500025,96.0000038 45.7500018,89.3100035 C28.9500012,82.6500033 10.4700004,75.810003 3.42000014,61.5900024 C-3.63000014,47.3400019 0.75000003,25.740001 12.9900005,13.9500006 C25.200001,2.16000009 45.3000018,0.180000007 65.3700026,0.209667361 C85.4100034,0.24000001 105.420004,2.28000009 113.820005,13.2000005 Z" id="Path"></path>
                        </g>
                        <g id="bandwith" transform="translate(9.000000, 9.000000)" fill="#FF0000">
                            <polygon id="Path" points="51.3316708 33.2206983 54.6433915 33.2206983 54.6433915 46.467581 51.3316708 46.467581"></polygon>
                            <polygon id="Path" points="20.0789237 52.5161607 21.9320645 49.7695994 32.914267 57.1773107 31.0611264 59.9246805"></polygon>
                            <polygon id="Path" points="33.3395516 39.1350628 36.2073918 37.4792024 42.8308332 48.9505631 39.962993 50.6072319"></polygon>
                            <polygon id="Path" points="73.0624123 57.1805446 84.0429979 49.7704079 85.8961387 52.5161607 74.9163613 59.9271061"></polygon>
                            <polygon id="Path" points="49.6758105 69.6496259 56.2992519 69.6496259 56.2992519 72.9613466 49.6758105 72.9613466"></polygon>
                            <path d="M0,2.10349127 L0,75.9289277 C1.3527075e-16,77.0334972 0.8954305,77.9289277 2,77.9289277 L43.398418,77.9289277 L43.398418,77.9289277 C45.5701176,81.084603 49.1567372,82.9700846 52.9875312,82.9700846 C56.8183252,82.9700846 60.4049448,81.084603 62.5766443,77.9289277 L103.975062,77.9289277 C105.079632,77.9289277 105.975062,77.0334972 105.975062,75.9289277 L105.975062,2.10349127 C105.975062,0.998921772 105.079632,0.103491272 103.975062,0.103491272 L2,0.103491272 C0.8954305,0.103491272 -1.3527075e-16,0.998921772 0,2.10349127 Z M52.9875312,79.5120208 C48.4549368,79.5120208 44.7809966,75.8380807 44.7809966,71.3054863 C44.7809966,66.7728919 48.4549368,63.0989517 52.9875312,63.0989517 C57.5201256,63.0989517 61.1940657,66.7728919 61.1940657,71.3054863 C61.1892145,75.8356551 57.5176999,79.5071696 52.9875312,79.5120208 Z M60.2173668,62.1699559 C59.3473931,61.4794752 58.3836307,60.9167414 57.3559948,60.4979251 L75.973913,25.8259236 L78.8918817,27.3920375 L60.2173668,62.1699559 Z M101.663342,74.617207 L64.1645885,74.617207 L64.1645885,74.617207 C65.1720115,71.2521237 64.5987667,67.6121415 62.6049428,64.7200456 L64.910049,60.4397112 C67.6250779,63.4070001 69.1313611,67.2830716 69.1321696,71.3054863 L72.4438903,71.3054863 C72.4374221,66.0621981 70.3085743,61.0444883 66.5424622,57.396421 L77.7195195,36.580122 C79.6486616,37.9554239 81.4605673,39.4875799 83.1374492,41.1604193 C91.1580228,49.138141 95.6550421,59.9925966 95.6259352,71.3054863 L98.9376559,71.3054863 C98.9708054,59.1121123 94.1245032,47.4127474 85.4789393,38.8140782 C83.5716276,36.914043 81.5026107,35.1821812 79.2961445,33.6395146 L83.3775815,26.0409913 L74.6212496,21.3434579 L70.5891325,28.8538518 C56.4092113,22.977488 40.2314234,24.5678576 27.4672304,33.0937598 C14.7030373,41.6204703 7.03902343,55.9556286 7.03740648,71.3054863 L10.3491272,71.3054863 C10.358021,57.1231395 17.4140234,43.8722141 29.1756448,35.9478549 C40.9380747,28.0234959 55.8691163,26.462233 69.0165504,31.7815228 L57.9001325,52.4797771 C52.0682377,50.9484298 45.8555272,52.2105382 41.084418,55.8974147 C36.3125,59.5834828 33.5222782,65.2755028 33.5311721,71.3054863 L36.8428928,71.3054863 C36.8259138,66.442205 39.0097413,61.8319923 42.7839386,58.7644463 C46.5581359,55.6969004 51.5168231,54.501091 56.2741875,55.5117479 L54.0289121,59.6942508 C53.6860973,59.6635267 53.3384312,59.6416966 52.9875312,59.6416966 C49.3063143,59.6352284 45.8385483,61.3703242 43.6361244,64.3206339 C41.433701,67.2717523 40.756965,71.0896099 41.8104738,74.617207 L4.3117207,74.617207 C3.75943595,74.617207 3.3117207,74.1694917 3.3117207,73.617207 L3.3117207,16.6620948 L3.3117207,16.6620948 L102.663342,16.6620948 L102.663342,73.617207 C102.663342,74.1694917 102.215626,74.617207 101.663342,74.617207 Z M102.663342,13.3503741 L3.3117207,13.3503741 L3.3117207,4.41521197 C3.3117207,3.86292722 3.75943595,3.41521197 4.3117207,3.41521197 L101.663342,3.41521197 C102.215626,3.41521197 102.663342,3.86292722 102.663342,4.41521197 L102.663342,13.3503741 L102.663342,13.3503741 Z" id="Shape"></path>
                            <polygon id="Path" points="6.6234414 6.72693267 9.93516209 6.72693267 9.93516209 10.0386534 6.6234414 10.0386534"></polygon>
                            <polygon id="Path" points="19.8703242 6.72693267 23.1820449 6.72693267 23.1820449 10.0386534 19.8703242 10.0386534"></polygon>
                            <polygon id="Path" points="13.2468828 6.72693267 16.5586035 6.72693267 16.5586035 10.0386534 13.2468828 10.0386534"></polygon>
                            <polygon id="Path" points="29.8054863 6.72693267 99.3516209 6.72693267 99.3516209 10.0386534 29.8054863 10.0386534"></polygon>
                            <polygon id="Path" points="14.9027431 67.9937656 28.1496259 67.9937656 28.1496259 71.3054863 14.9027431 71.3054863"></polygon>
                            <polygon id="Path" points="77.8254364 67.9937656 91.0723192 67.9937656 91.0723192 71.3054863 77.8254364 71.3054863"></polygon>
                        </g>
                    </g>
                </g>
            </g>
        </g>
    </g>
</svg>