<?xml version="1.0" encoding="UTF-8"?>
<svg width="119px" height="100px" viewBox="0 0 119 100" version="1.1" xmlns="http://www.w3.org/2000/svg" xmlns:xlink="http://www.w3.org/1999/xlink">
    <!-- Generator: Sketch 63.1 (92452) - https://sketch.com -->
    <title>app_security</title>
    <desc>Created with Sketch.</desc>
    <g id="Page-1" stroke="none" stroke-width="1" fill="none" fill-rule="evenodd">
        <g id="application_services" transform="translate(-235.000000, -1459.000000)" fill-rule="nonzero">
            <g id="section1" transform="translate(234.000000, 240.000000)">
                <g id="Group-12" transform="translate(1.000000, 1219.000000)">
                    <g id="app_security">
                        <g id="blob-shape" opacity="0.49546596" fill="#FFB4BC">
                            <path d="M113.820005,13.2000005 C122.190005,24.090001 118.950005,43.8900017 113.490005,61.3200024 C108.060004,78.7800031 100.380004,93.8700037 89.0100035,98.1600039 C77.6400031,102.480004 62.5500025,96.0000038 45.7500018,89.3100035 C28.9500012,82.6500033 10.4700004,75.810003 3.42000014,61.5900024 C-3.63000014,47.3400019 0.75000003,25.740001 12.9900005,13.9500006 C25.200001,2.16000009 45.3000018,0.180000007 65.3700026,0.209667361 C85.4100034,0.24000001 105.420004,2.28000009 113.820005,13.2000005 Z" id="Path"></path>
                        </g>
                        <g id="password" transform="translate(15.000000, 3.000000)" fill="#FF0000">
                            <path d="M6.2,93 L80.6,93 C84.0240468,93 86.8,90.2240468 86.8,86.8 L86.8,82.15 C86.8,81.293625 86.106375,80.6 85.25,80.6 L82.15,80.6 L82.15,55.8 L79.05,55.8 L79.05,80.6 L75.95,80.6 L75.95,55.8 L72.85,55.8 L72.85,80.6 L53.0657032,80.6 C51.4154375,80.5941875 49.9051563,81.5275782 49.1727813,83.0073437 C48.9615937,83.4340782 48.5256563,83.703875 48.05,83.7 L39.1157032,83.7 C38.6405313,83.7029063 38.2050782,83.4335937 37.9953437,83.0073437 C37.262,81.5275782 35.7517187,80.5941875 34.1,80.6 L13.95,80.6 L13.95,41.85 C13.95,40.993625 14.643625,40.3 15.5,40.3 L43.4,40.3 L43.4,37.2 L15.5,37.2 C12.9323282,37.2 10.85,39.2823282 10.85,41.85 L10.85,80.6 L7.75,80.6 L7.75,38.75 C7.75,36.1823282 9.83232816,34.1 12.4,34.1 L43.4,34.1 L43.4,31 L12.4,31 C8.122,31.0053282 4.65532816,34.472 4.65,38.75 L4.65,80.6 L1.55,80.6 C0.693625,80.6 0,81.293625 0,82.15 L0,86.8 C0,90.2240468 2.77595316,93 6.2,93 Z M3.1,83.6999766 L34.1,83.6999766 C34.5751718,83.6975782 35.010625,83.9659218 35.2227813,84.3907187 C35.9541875,85.8709687 37.4654375,86.8058125 39.1157032,86.8 L48.05,86.8 C49.7017187,86.8058125 51.2129687,85.8709687 51.9453437,84.3907187 C52.1550782,83.9654375 52.5910157,83.6970937 53.0657032,83.6999766 L83.7,83.6999766 L83.7,86.8 C83.7,88.5122657 82.3122657,89.9 80.6,89.9 L6.2,89.9 C4.48773434,89.9 3.1,88.5122657 3.1,86.8 L3.1,83.6999766 Z" id="Shape"></path>
                            <path d="M20.15,57.35 L20.15,69.75 C20.15,70.606375 20.843625,71.3 21.7,71.3 L65.1,71.3 C65.956375,71.3 66.65,70.606375 66.65,69.75 L66.65,57.35 C66.65,56.493625 65.956375,55.8 65.1,55.8 L21.7,55.8 C20.843625,55.8 20.15,56.493625 20.15,57.35 Z M23.25,58.9 L63.55,58.9 L63.55,68.2 L23.25,68.2 L23.25,58.9 Z" id="Shape"></path>
                            <polygon id="Path" points="26.35 62 29.45 62 29.45 65.1 26.35 65.1"></polygon>
                            <polygon id="Path" points="32.55 62 35.65 62 35.65 65.1 32.55 65.1"></polygon>
                            <polygon id="Path" points="38.75 62 41.85 62 41.85 65.1 38.75 65.1"></polygon>
                            <polygon id="Path" points="44.95 62 48.05 62 48.05 65.1 44.95 65.1"></polygon>
                            <path d="M88.35,23.3076407 L88.35,18.6 C88.35,8.327375 80.022625,0 69.75,0 C59.477375,0 51.15,8.327375 51.15,18.6 L51.15,23.3076407 C48.5125782,23.5885782 46.5092032,25.8084687 46.5,28.4609063 L46.5,47.4890937 C46.503875,50.3657968 48.8356563,52.6975782 51.7123593,52.7 L87.7876407,52.7 C90.6643437,52.6975782 92.996125,50.3657968 93,47.4890937 L93,28.4609063 C92.9907968,25.8084687 90.9874218,23.5885782 88.35,23.3076407 Z M54.25,18.6 C54.25,10.0391563 61.1891563,3.1 69.75,3.1 C78.3108437,3.1 85.25,10.0391563 85.25,18.6 L85.25,23.25 L82.15,23.25 L82.15,18.6 C82.15,11.7514218 76.5985782,6.2 69.75,6.2 C62.9014218,6.2 57.35,11.7514218 57.35,18.6 L57.35,23.25 L54.25,23.25 L54.25,18.6 Z M60.45,23.25 L60.45,18.6 C60.45,13.4646563 64.6146563,9.3 69.75,9.3 C74.8853437,9.3 79.05,13.4646563 79.05,18.6 L79.05,23.25 L60.45,23.25 Z M89.9,47.4890937 C89.8990313,48.6549843 88.9530468,49.5995157 87.7876407,49.6 L51.7123593,49.6 C50.5469532,49.5995157 49.6009687,48.6549843 49.6,47.4890937 L49.6,28.4609063 C49.6009687,27.2950157 50.5469532,26.3504843 51.7123593,26.35 L87.7876407,26.35 C88.9530468,26.3504843 89.8990313,27.2950157 89.9,28.4609063 L89.9,47.4890937 Z" id="Shape"></path>
                            <path d="M69.75,32.5499892 C67.4879687,32.5451563 65.5528907,34.1731407 65.1687813,36.4032032 C64.7856407,38.6327813 66.0663282,40.8134375 68.2,41.5647032 L68.2,44.95 L71.3,44.95 L71.3,41.5647032 C73.4336718,40.8134375 74.7143593,38.6327813 74.3312187,36.4032032 C73.9471093,34.1731407 72.0120313,32.5451563 69.75,32.5499892 Z M69.75,38.75 C68.893625,38.75 68.2,38.056375 68.2,37.2 C68.2,36.343625 68.893625,35.65 69.75,35.65 C70.606375,35.65 71.3,36.343625 71.3,37.2 C71.3,38.056375 70.606375,38.75 69.75,38.75 Z" id="Shape"></path>
                            <polygon id="Path" points="27.9 24.8 31 24.8 31 27.9 27.9 27.9"></polygon>
                            <polygon id="Path" points="27.9 18.6 31 18.6 31 21.7 27.9 21.7"></polygon>
                            <polygon id="Path" points="27.9 12.4 31 12.4 31 15.5 27.9 15.5"></polygon>
                            <polygon id="Path" points="27.9 6.2 31 6.2 31 9.3 27.9 9.3"></polygon>
                            <polygon id="Path" points="34.1 6.2 37.2 6.2 37.2 9.3 34.1 9.3"></polygon>
                            <polygon id="Path" points="40.3 6.2 43.4 6.2 43.4 9.3 40.3 9.3"></polygon>
                            <polygon id="Path" points="46.5 6.2 49.6 6.2 49.6 9.3 46.5 9.3"></polygon>
                        </g>
                    </g>
                </g>
            </g>
        </g>
    </g>
</svg>