<?xml version="1.0" encoding="UTF-8"?>
<svg width="119px" height="100px" viewBox="0 0 119 100" version="1.1" xmlns="http://www.w3.org/2000/svg" xmlns:xlink="http://www.w3.org/1999/xlink">
    <!-- Generator: Sketch 63.1 (92452) - https://sketch.com -->
    <title>architecture_consulting</title>
    <desc>Created with Sketch.</desc>
    <g id="Page-1" stroke="none" stroke-width="1" fill="none" fill-rule="evenodd">
        <g id="application_services" transform="translate(-235.000000, -700.000000)" fill-rule="nonzero">
            <g id="section1" transform="translate(234.000000, 240.000000)">
                <g id="Group-7" transform="translate(1.000000, 460.000000)">
                    <g id="architecture_consulting">
                        <g id="blob-shape" opacity="0.49546596" fill="#FFB4BC">
                            <path d="M113.820005,13.2000005 C122.190005,24.090001 118.950005,43.8900017 113.490005,61.3200024 C108.060004,78.7800031 100.380004,93.8700037 89.0100035,98.1600039 C77.6400031,102.480004 62.5500025,96.0000038 45.7500018,89.3100035 C28.9500012,82.6500033 10.4700004,75.810003 3.42000014,61.5900024 C-3.63000014,47.3400019 0.75000003,25.740001 12.9900005,13.9500006 C25.200001,2.16000009 45.3000018,0.180000007 65.3700026,0.209667361 C85.4100034,0.24000001 105.420004,2.28000009 113.820005,13.2000005 Z" id="Path"></path>
                        </g>
                        <g id="sketch" transform="translate(15.000000, 4.000000)" fill="#FF0000" stroke="#FF0000" stroke-width="0.2">
                            <path d="M82.2893789,65.6307539 C81.779332,65.4193242 81.1922695,65.5361191 80.8017422,65.9264648 L65.8843242,80.8438828 C65.4939785,81.2344102 65.3771836,81.8214727 65.5886133,82.3315195 C65.7996797,82.841748 66.2977383,83.1741504 66.8497441,83.1741504 L81.7671621,83.1741504 C82.5211523,83.1741504 83.1321914,82.5631113 83.1321914,81.8091211 L83.1321914,66.8917031 C83.1320098,66.3396973 82.7994258,65.842002 82.2893789,65.6307539 Z M70.1447051,80.4442734 L80.4017695,70.187209 L80.4017695,80.4442734 L70.1447051,80.4442734 Z" id="Shape"></path>
                            <path d="M92.1573691,43.7512324 C91.6473223,43.5398027 91.0602598,43.6565977 90.6697324,44.0469434 L86.5815469,48.1351289 L86.5815469,20.3384824 C86.5815469,19.5844922 85.9703262,18.9734531 85.2165176,18.9734531 L74.7284063,18.9734531 L78.5355938,15.1662656 C78.5361387,15.1657207 78.5366836,15.1649941 78.5372285,15.1644492 L82.2056426,11.4960352 C82.9916016,10.7100762 83.4244512,9.66455273 83.4244512,8.55291211 C83.4244512,7.44127148 82.9916016,6.39611133 82.2056426,5.60978906 L77.9636074,1.36775391 C77.1776484,0.581794922 76.132125,0.148945312 75.0204844,0.148945312 C73.9088438,0.148945312 72.863502,0.581794922 72.0773613,1.36775391 L68.4071309,5.03798437 L63.9721934,9.47292187 L54.4718438,18.9732715 L12.1008984,18.9732715 L12.1008984,5.46919922 C12.1008984,4.71520898 11.4896777,4.10416992 10.7358691,4.10416992 C4.81620117,4.1045332 0,8.92037109 0,14.8404023 L0,72.8175469 C0,72.9183574 0.011625,73.0164434 0.0323320312,73.1108965 C0.220875,75.6228047 1.30763086,77.9567051 3.12385547,79.7284277 C5.06523047,81.6218496 7.62799805,82.6646484 10.3402559,82.6646484 L52.0518457,82.6646484 L44.1960703,90.5204238 C43.8057246,90.9109512 43.6889297,91.497832 43.9001777,92.0080605 C44.1114258,92.5181074 44.6093027,92.8506914 45.1613086,92.8506914 L91.6349707,92.8506914 C92.3887793,92.8506914 93,92.2396523 93,91.4856621 L93,45.0123633 C93,44.4603574 92.6672344,43.9624805 92.1573691,43.7512324 Z M74.0082012,3.29841211 C74.5662012,2.74004883 75.4753125,2.74004883 76.0333125,3.29841211 L80.2755293,7.54062891 C80.8338926,8.09881055 80.8338926,9.00755859 80.2755293,9.56592187 L77.5707188,12.2709141 L71.3030273,6.0034043 L74.0082012,3.29841211 Z M69.3725508,7.93388086 L75.6400605,14.201209 L73.135418,16.7058516 L66.8682715,10.4385234 L69.3725508,7.93388086 Z M90.2703047,60.3504609 L87.7518574,60.3504609 C86.9978672,60.3504609 86.3868281,60.9615 86.3868281,61.7154902 C86.3868281,62.4694805 86.9978672,63.0805195 87.7518574,63.0805195 L90.2703047,63.0805195 L90.2703047,67.1939531 L87.7518574,67.1939531 C86.9978672,67.1939531 86.3868281,67.8049922 86.3868281,68.5589824 C86.3868281,69.3129727 86.9978672,69.9240117 87.7518574,69.9240117 L90.2703047,69.9240117 L90.2703047,74.0372637 L87.7518574,74.0372637 C86.9978672,74.0372637 86.3868281,74.6483027 86.3868281,75.402293 C86.3868281,76.1562832 86.9978672,76.7673223 87.7518574,76.7673223 L90.2703047,76.7673223 L90.2703047,80.8807559 L87.7518574,80.8807559 C86.9978672,80.8807559 86.3868281,81.4919766 86.3868281,82.2457852 C86.3868281,82.9997754 86.9978672,83.6108145 87.7518574,83.6108145 L90.2703047,83.6108145 L90.2703047,90.1211777 L48.4566328,90.1211777 L62.2446094,76.3333828 C62.7777246,75.8000859 62.7777246,74.9360215 62.2446094,74.4029062 C62.1833965,74.3416934 62.1176426,74.2886543 62.0488008,74.2414277 C61.5173203,73.8774199 60.7860352,73.9310039 60.3139512,74.4029062 L54.7819043,79.9349531 L10.3404375,79.9349531 C6.20048438,79.9349531 2.86774219,76.7028398 2.73659766,72.570334 C2.7444082,72.3109512 2.76457031,72.053748 2.79690234,71.7994512 C2.79708398,71.797998 2.79726562,71.7965449 2.79744727,71.7950918 C2.81270508,71.6743008 2.83105078,71.5540547 2.85193945,71.4345352 C2.85430078,71.4209121 2.85684375,71.4072891 2.85920508,71.393666 C2.87827734,71.287043 2.89971094,71.1809648 2.92314258,71.07525 C2.92968164,71.0458242 2.93658398,71.0163984 2.94348633,70.9871543 C2.96419336,70.8977871 2.98653516,70.8089648 3.01051172,70.7205059 C3.02358984,70.6725527 3.03721289,70.6251445 3.05119922,70.577373 C3.07117969,70.5079863 3.09188672,70.4387812 3.11386523,70.3703027 C3.13584375,70.3018242 3.15927539,70.2340723 3.18307031,70.1663203 C3.19959961,70.1189121 3.21594727,70.0715039 3.23374805,70.024459 C3.26698828,69.9350918 3.30222656,69.8466328 3.33855469,69.7589004 C3.3489082,69.7336523 3.35908008,69.708041 3.36979687,69.682793 C3.41647852,69.5738086 3.46497656,69.4660957 3.51619922,69.3596543 C3.51837891,69.3551133 3.52037695,69.3505723 3.52255664,69.3460312 C4.59024023,67.1365547 6.6436875,65.4892559 9.10800586,64.9781191 C9.1149082,64.976666 9.12181055,64.9750312 9.12871289,64.9735781 C9.24169336,64.9505098 9.35576367,64.9307109 9.47056055,64.9123652 C9.48963281,64.9092773 9.50870508,64.9054629 9.52814063,64.9025566 C9.63185742,64.8867539 9.73666406,64.8744023 9.8414707,64.8625957 C9.87089648,64.8593262 9.90014063,64.8547852 9.92974805,64.8518789 C10.0309219,64.841707 10.1330039,64.8349863 10.2350859,64.8286289 C10.267418,64.8266309 10.29975,64.8231797 10.332082,64.8215449 C10.4657695,64.8148242 10.6005469,64.811373 10.7358691,64.811373 C11.4896777,64.811373 12.1008984,64.200334 12.1008984,63.4463437 L12.1008984,53.5489277 C12.1008984,52.7949375 11.4896777,52.1838984 10.7358691,52.1838984 C9.98206055,52.1838984 9.37083984,52.7949375 9.37083984,53.5489277 L9.37083984,62.1672305 C7.06582031,62.4587637 4.92627539,63.4868496 3.23919727,65.1343301 C3.06173437,65.3076152 2.89353516,65.4878027 2.72969531,65.6708965 L2.72969531,14.8404023 C2.72969531,10.8913535 5.60433984,7.60057031 9.3706582,6.95066016 L9.3706582,20.3384824 L9.3706582,48.0889922 L9.3706582,48.0891738 C9.3706582,48.8429824 9.98187891,49.4542031 10.7356875,49.4542031 C11.4894961,49.4542031 12.1007168,48.8429824 12.1007168,48.0891738 L12.1007168,48.0889922 L12.1007168,21.7035117 L51.7419668,21.7035117 L44.1958887,29.2495898 C43.6627734,29.7828867 43.6627734,30.6469512 44.1958887,31.1800664 C44.7290039,31.713 45.59325,31.713 46.1261836,31.1800664 L56.0025293,21.3037207 C56.0028926,21.3033574 56.0030742,21.3029941 56.0034375,21.3028125 L64.9374316,12.3688184 L71.2045781,18.6363281 L70.4692969,19.3716094 C70.468752,19.3721543 70.4680254,19.3726992 70.4674805,19.3732441 L42.9438398,46.897248 L36.6765117,40.6299199 L42.1017539,35.2046777 C42.6348691,34.6713809 42.6348691,33.8073164 42.1017539,33.2742012 C41.5686387,32.7412676 40.7043926,32.7412676 40.171459,33.2742012 L33.7807969,39.6646816 C33.7466484,39.6988301 33.7146797,39.7349766 33.684709,39.7720312 C33.6747188,39.7843828 33.6658184,39.7976426 33.656373,39.8105391 C33.6371191,39.8361504 33.6182285,39.8619434 33.6006094,39.8888262 C33.5906191,39.9044473 33.5815371,39.9204316 33.5720918,39.9365977 C33.5570156,39.9620273 33.5424844,39.9878203 33.5292246,40.0141582 C33.5205059,40.0312324 33.5126953,40.0484883 33.5047031,40.0662891 C33.4925332,40.0929902 33.4812715,40.1202363 33.470918,40.1474824 C33.4672852,40.1571094 33.4625625,40.1661914 33.4591113,40.1758184 L30.7997109,47.7093633 L28.9865742,52.8459785 C28.9625977,52.9142754 28.9453418,52.9836621 28.9324453,53.0535937 L24.3928828,53.0535937 C23.6390742,53.0535937 23.0278535,53.6646328 23.0278535,54.418623 C23.0278535,55.1726133 23.6390742,55.7836523 24.3928828,55.7836523 L62.1948398,55.7836523 C62.9488301,55.7836523 63.5598691,55.1726133 63.5598691,54.418623 C63.5598691,53.6646328 62.9488301,53.0535937 62.1948398,53.0535937 L35.0735332,53.0535937 L43.398123,50.1150117 C43.4050254,50.1124687 43.4115645,50.1090176 43.4184668,50.1064746 C43.4507988,50.0944863 43.4825859,50.0810449 43.5140098,50.0666953 C43.526543,50.0608828 43.5390762,50.0554336 43.5512461,50.0494395 C43.5839414,50.0330918 43.6160918,50.0151094 43.6476973,49.9958555 C43.6578691,49.9896797 43.6684043,49.9840488 43.6783945,49.9776914 C43.7112715,49.9566211 43.7432402,49.9335527 43.7746641,49.9092129 C43.7824746,49.9032187 43.7906484,49.8979512 43.7982773,49.8917754 C43.8362402,49.8612598 43.8734766,49.8283828 43.9087148,49.7931445 L71.9983477,21.7036934 L83.8513066,21.7036934 L83.8513066,50.8653691 L64.325666,70.3911914 C63.7925508,70.9244883 63.7925508,71.7885527 64.325666,72.321668 C64.3589063,72.3549082 64.3935996,72.3861504 64.4293828,72.4153945 C64.6796836,72.619377 64.9853848,72.721459 65.2909043,72.721459 C65.5964238,72.721459 65.9023066,72.619377 66.1524258,72.4153945 C66.188209,72.386332 66.2229023,72.3549082 66.2561426,72.321668 C66.2566875,72.321123 66.2561426,72.321668 66.2566875,72.321123 L90.2703047,48.3073242 L90.2703047,60.3504609 Z M40.4471895,48.2611875 L36.5371934,49.6414746 L33.9321035,47.0363848 L35.3123906,43.1263887 L40.4471895,48.2611875 Z" id="Shape"></path>
                        </g>
                    </g>
                </g>
            </g>
        </g>
    </g>
</svg>