<?xml version="1.0" encoding="UTF-8"?>
<svg width="311px" height="243px" viewBox="0 0 311 243" version="1.1" xmlns="http://www.w3.org/2000/svg" xmlns:xlink="http://www.w3.org/1999/xlink">
    <!-- Generator: Sketch 63.1 (92452) - https://sketch.com -->
    <title>aws</title>
    <desc>Created with Sketch.</desc>
    <g id="aws" stroke="none" stroke-width="1" fill="none" fill-rule="evenodd">
        <g id="Group" transform="translate(15.000000, 16.000000)" fill-rule="nonzero">
            <g id="Asset-1">
                <path d="M97.1,37.73 C98.6254984,38.5655117 100.282766,39.1337177 102,39.41 C104.153891,39.9265679 106.365638,40.1618602 108.58,40.11 C110.610875,40.1335297 112.633666,39.850339 114.58,39.27 C116.282722,38.7338208 117.889423,37.93047 119.34,36.89 C120.657159,35.8975278 121.714021,34.6004703 122.42,33.11 C123.161364,31.5476534 123.544032,29.8393155 123.540032,28.11 C123.518385,25.949861 122.818791,23.8510804 121.54,22.11 C120.34,20.37 118.1,19 115,18 L109,16 C107.259338,15.561716 105.635024,14.7495594 104.24,13.62 C103.319351,12.6627839 102.866271,11.3491086 103.001092,10.0278665 C103.135912,8.70662441 103.844988,7.51153643 104.94,6.76 C106.702073,5.82289802 108.687436,5.38708666 110.68,5.5 C113.522001,5.46065106 116.339162,6.03363307 118.94,7.18 C119.468034,7.45156074 120.034637,7.64042832 120.62,7.74 C121.32,7.74 121.62,7.32 121.62,6.34 L121.62,4.69 C121.653064,4.18799341 121.503937,3.69090631 121.2,3.29 C120.883704,2.81417572 120.449626,2.42832793 119.94,2.17 C119.379964,1.82993295 118.763577,1.59286083 118.12,1.47 C117.42,1.19 116.58,1.05 115.74,0.77 C114.820148,0.551461388 113.883489,0.410962567 112.94,0.35 C111.97813,0.118358488 110.988304,0.0240893528 110,0.07 C108.204213,0.0776036382 106.416632,0.31281166 104.68,0.77 C103.064841,1.25390131 101.543319,2.00790006 100.18,3 C98.9400977,3.9601825 97.8947471,5.14808093 97.1,6.5 C96.2936675,7.95553599 95.9125171,9.60834306 96,11.27 C95.9889221,13.500809 96.7285877,15.6704945 98.1,17.43 C99.5,19.43 101.74,20.79 104.96,21.77 L111.12,23.77 C112.706379,24.1868376 114.181373,24.948235 115.44,26 C116.209587,26.7792635 116.616043,27.8462106 116.56,28.94 C116.608498,30.600295 115.750378,32.1556364 114.32,33 C112.78,34 110.82,34.4 108.02,34.4 C106.336718,34.4182285 104.657543,34.2301609 103.02,33.84 C101.372189,33.539517 99.7715471,33.0216623 98.26,32.3 C97.8783407,32.1832951 97.504289,32.0430257 97.14,31.88 C96.8754519,31.7660554 96.5872032,31.718014 96.3,31.74 C95.6,31.74 95.3,32.16 95.3,33.14 L95.3,35.24 C95.3260548,35.6721727 95.4205647,36.0974674 95.58,36.5 C95.996633,37.0259741 96.5219397,37.4557704 97.12,37.76 L97.1,37.73 Z" id="Path" fill="#252F3E"></path>
                <path d="M24.72,17 C23.2381772,16.7716541 21.7387233,16.6779383 20.24,16.72 C15.9,16.72 12.4,17.84 9.74,20.08 C7.13318709,22.2506947 5.68440388,25.5104569 5.82,28.9 C5.65024627,31.9623152 6.76670312,34.9564495 8.9,37.16 C11,39.26 13.8,40.24 17.44,40.24 C22.3035567,40.3047819 26.9298862,38.1426358 30,34.37 C30.3632778,35.237184 30.7842195,36.0790674 31.26,36.89 C31.691602,37.6157875 32.208621,38.2872408 32.8,38.89 C33.1227928,39.2452296 33.58002,39.4484417 34.06,39.45 C34.4646153,39.4146078 34.8518813,39.269383 35.18,39.03 L37.84,37.21 C38.3030331,36.9459681 38.6143679,36.4789659 38.68,35.95 C38.6360468,35.6047725 38.54171,35.2678556 38.4,34.95 C37.843239,33.9597665 37.3747627,32.9224263 37,31.85 C36.6898083,30.6147723 36.5485215,29.3431911 36.58,28.07 L36.58,14.07 C36.58,9.45 35.46,5.95 33.08,3.57 C30.7,1.19 27.08,0.07 21.88,0.07 C19.6129577,0.0558251695 17.353798,0.338220139 15.16,0.91 C13.3196271,1.3825351 11.5358809,2.05311637 9.84,2.91 C9.39586902,3.0804946 9.00803149,3.37137274 8.72,3.75 C8.44,4.03 8.44,4.59 8.44,5.29 L8.44,7.39 C8.44,8.23 8.72,8.79 9.28,8.79 C9.52113865,8.79956403 9.76108895,8.75157397 9.98,8.65 C10.26,8.51 10.82,8.37 11.52,8.09 C13.0184144,7.49574413 14.5637672,7.02745541 16.14,6.69 C17.6479542,6.29718258 19.2018654,6.10882971 20.76,6.13 C24.12,6.13 26.36,6.83 27.76,8.13 C29.16,9.43 29.76,11.77 29.76,14.99 L29.76,18 C27.94,17.58 26.4,17.3 24.76,17 L24.72,17 Z M29.62,24.56 C29.6437414,25.7866719 29.5024764,27.0109686 29.2,28.2 C28.9629238,29.1897171 28.4815957,30.1042405 27.8,30.86 C26.7305219,32.1185308 25.3209072,33.0420715 23.74,33.52 C22.3062379,34.0560997 20.7905842,34.3402848 19.26,34.36 C17.6165103,34.555482 15.9741401,33.9864886 14.8038257,32.8161743 C13.6335114,31.6458599 13.064518,30.0034897 13.26,28.36 C13.1561094,26.4882963 13.9329797,24.6755991 15.36,23.46 C16.76,22.34 18.86,21.78 21.66,21.78 C22.92,21.78 24.32,21.92 25.72,22.06 C27.0397243,22.2131389 28.3488385,22.4469093 29.64,22.76 L29.64,24.58 L29.62,24.56 Z" id="Shape" fill="#252F3E"></path>
                <path d="M51.18,37 C51.3403824,37.6122241 51.6264502,38.1843596 52.02,38.68 C52.5094214,39.0215581 53.1074243,39.1710589 53.7,39.1 L57.34,39.1 C57.9325757,39.1710589 58.5305786,39.0215581 59.02,38.68 C59.4135498,38.1843596 59.6996176,37.6122241 59.86,37 L66.44,9.42 L73.16,37 C73.1989936,37.6511695 73.5024606,38.2581034 74,38.68 C74.4983965,39.0013521 75.0890138,39.1490064 75.68,39.1 L79.32,39.1 C79.9091103,39.1281832 80.4934595,38.9820959 81,38.68 C81.4464568,38.2199586 81.7398409,37.6331903 81.84,37 L92.2,4 C92.3235137,3.67586335 92.4172345,3.34114614 92.48,3 C92.48,2.72 92.62,2.58 92.62,2.3 C92.62,1.6 92.34,1.3 91.62,1.3 L87.7,1.3 C87.1074243,1.22894115 86.5094214,1.37844186 86.02,1.72 C85.6264502,2.2156404 85.3403824,2.7877759 85.18,3.4 L77.76,32.1 L70.9,3.26 C70.8610064,2.60883055 70.5575394,2.00189657 70.06,1.58 C69.5616035,1.25864789 68.9709862,1.11099357 68.38,1.16 L64.88,1.16 C64.2874243,1.08894115 63.6894214,1.23844186 63.2,1.58 C62.8064502,2.0756404 62.5203824,2.6477759 62.36,3.26 L55.64,31.54 L48.52,3.29 C48.3596176,2.6777759 48.0735498,2.1056404 47.68,1.61 C47.1905786,1.26844186 46.5925757,1.11894115 46,1.19 L41.8,1.19 C41.1,1.19 40.8,1.47 40.8,2.19 C40.8685781,2.76547369 41.009699,3.32995704 41.22,3.87 L51.18,37 Z" id="Path" fill="#252F3E"></path>
                <path d="M114.6,57.75 C99.2721817,64.2425566 82.8060387,67.6214472 66.16,67.69 C43.8512068,67.7393353 21.9251213,61.8955989 2.6,50.75 C1.06,49.75 -0.2,51.45 1.2,52.75 C18.6343819,68.4517158 41.2975256,77.0876714 64.76,76.97 C82.26,76.97 102.7,71.51 116.84,60.97 C118.94,59.29 116.98,56.77 114.6,57.75 L114.6,57.75 Z" id="Path" fill="#FF9900"></path>
                <path d="M105.78,51.87 C104.52,52.71 104.78,53.97 106.06,53.87 C110.54,53.31 120.76,52.05 122.44,54.43 C124.12,56.81 120.44,66.19 118.8,70.53 C118.24,71.79 119.36,72.35 120.62,71.37 C128.18,65.07 130.14,51.77 128.62,49.95 C127.08,47.85 113.78,46.31 105.8,51.95 L105.78,51.87 Z" id="Path" fill="#FF9900"></path>
                <path d="M162.34,30.31 C162.187158,30.3258889 162.0353,30.272016 161.926642,30.1633581 C161.817984,30.0547002 161.764111,29.9028418 161.78,29.75 L161.78,6.65 C161.764111,6.49715824 161.817984,6.34529976 161.926642,6.23664191 C162.0353,6.12798405 162.187158,6.07411111 162.34,6.09 L163.04,6.09 C163.46,6.09 163.6,6.23 163.6,6.65 L163.74,8.05 C164.668557,7.29083249 165.707076,6.67716216 166.82,6.23 C167.7961,5.82962666 168.845439,5.63883758 169.9,5.67 C171.90672,5.59533751 173.829498,6.47877578 175.08,8.05 C176.465503,9.9037725 177.171627,12.1774915 177.08,14.49 C177.164168,16.8881879 176.461809,19.2481147 175.08,21.21 C173.771677,22.87983 171.739514,23.8177514 169.62,23.73 C167.478728,23.6712346 165.434604,22.8236713 163.88,21.35 L163.88,29.75 C163.895889,29.9028418 163.842016,30.0547002 163.733358,30.1633581 C163.6247,30.272016 163.472842,30.3258889 163.32,30.31 L162.34,30.31 Z M169.34,21.91 C170.951801,22.0174101 172.516196,21.3395057 173.54,20.09 C174.595453,18.473942 175.087609,16.5545355 174.94,14.63 C174.94,9.87 173.12,7.49 169.48,7.49 C167.406133,7.54591104 165.420325,8.34023402 163.88,9.73 L163.88,19.67 C164.687095,20.3854827 165.580735,20.9969205 166.54,21.49 C167.459852,21.7085386 168.396511,21.8490374 169.34,21.91 L169.34,21.91 Z" id="Shape" fill="#252F3E"></path>
                <path d="M185.3,23.59 C183.900664,23.6657994 182.532365,23.1590221 181.52,22.19 C180.530637,21.2483061 180.016659,19.9119645 180.12,18.55 C180.049172,17.0548311 180.668444,15.6098614 181.8,14.63 C183.115205,13.6106236 184.76018,13.1121464 186.42,13.23 C188.086573,13.2589035 189.738957,13.5421694 191.32,14.07 L191.32,11.27 C191.454191,10.1886017 191.085723,9.10530495 190.32,8.33 C189.376464,7.68526272 188.238249,7.38833719 187.1,7.49 C185.432374,7.50746882 183.778227,7.79103676 182.2,8.33 C182.06,8.33 181.78,8.47 181.64,8.47 C181.5,8.47 181.36,8.33 181.36,8.05 L181.36,7.35 C181.3403,7.19598794 181.391833,7.04138979 181.5,6.93 L181.78,6.65 C183.605139,5.91652556 185.553004,5.53645443 187.52,5.53 C189.114703,5.4134552 190.699842,5.85927557 192,6.79 C193.014424,7.77336042 193.529141,9.16309676 193.4,10.57 L193.4,22.57 C193.415889,22.7228418 193.362016,22.8747002 193.253358,22.9833581 C193.1447,23.092016 192.992842,23.1458889 192.84,23.13 L192.14,23.13 C191.987158,23.1458889 191.8353,23.092016 191.726642,22.9833581 C191.617984,22.8747002 191.564111,22.7228418 191.58,22.57 L191.44,21.17 C189.748445,22.6926122 187.555874,23.5397421 185.28,23.55 L185.3,23.59 Z M185.58,21.91 C186.541573,21.9143237 187.494057,21.7238267 188.38,21.35 C189.447094,20.9218497 190.477223,20.4067852 191.46,19.81 L191.46,15.61 C189.999675,15.2174358 188.492023,15.0289794 186.98,15.05 C183.76,15.05 182.22,16.31 182.22,18.69 C182.172467,19.5634568 182.474735,20.4198834 183.06,21.07 C183.752509,21.6781016 184.661132,21.9809759 185.58,21.91 L185.58,21.91 Z" id="Shape" fill="#252F3E"></path>
                <path d="M199.16,23.31 C199.007158,23.3258889 198.8553,23.272016 198.746642,23.1633581 C198.637984,23.0547002 198.584111,22.9028418 198.6,22.75 L198.6,6.65 C198.584111,6.49715824 198.637984,6.34529976 198.746642,6.23664191 C198.8553,6.12798405 199.007158,6.07411111 199.16,6.09 L199.86,6.09 C200.28,6.09 200.42,6.23 200.42,6.65 L200.56,8.65 C201.209042,7.7728786 202.078407,7.08290715 203.08,6.65 C203.95784,6.25046222 204.916018,6.05882647 205.88,6.09 L206.72,6.09 C206.872842,6.07411111 207.0247,6.12798405 207.133358,6.23664191 C207.242016,6.34529976 207.295889,6.49715824 207.28,6.65 L207.28,7.49 C207.28,7.63 207.28,7.63 207.14,7.77 C207,7.91 207,7.91 206.86,7.91 L205.6,7.91 C204.636018,7.87882647 203.67784,8.07046222 202.8,8.47 C201.910549,8.93942607 201.106071,9.55461543 200.42,10.29 L200.42,22.75 C200.435889,22.9028418 200.382016,23.0547002 200.273358,23.1633581 C200.1647,23.272016 200.012842,23.3258889 199.86,23.31 L199.16,23.31 Z" id="Path" fill="#252F3E"></path>
                <path d="M216.24,23.45 C215.09777,23.5523678 213.968964,23.1428679 213.158048,22.331952 C212.347132,21.5210361 211.937632,20.3922303 212.04,19.25 L212.04,7.91 L209.38,7.91 C209.227158,7.92588889 209.0753,7.87201595 208.966642,7.76335809 C208.857984,7.65470024 208.804111,7.50284176 208.82,7.35 L208.82,7.07 C208.8003,6.91598794 208.851833,6.76138979 208.96,6.65 C208.96,6.51 209.1,6.51 209.38,6.51 L212.18,6.23 L212.46,1.75 C212.46,1.61 212.6,1.47 212.6,1.33 C212.6,1.19 212.74,1.19 213.02,1.19 L213.58,1.19 C213.732842,1.17411111 213.8847,1.22798405 213.993358,1.33664191 C214.102016,1.44529976 214.155889,1.59715824 214.14,1.75 L214.14,6.23 L219,6.23 C219.152842,6.21411111 219.3047,6.26798405 219.413358,6.37664191 C219.522016,6.48529976 219.575889,6.63715824 219.56,6.79 L219.56,7.49 C219.575889,7.64284176 219.522016,7.79470024 219.413358,7.90335809 C219.3047,8.01201595 219.152842,8.06588889 219,8.05 L214.1,8.05 L214.1,19.39 C213.991812,20.1060896 214.195686,20.8342112 214.66,21.39 C215.227347,21.8318907 215.945677,22.033023 216.66,21.95 C217.223834,21.9858339 217.789874,21.9386639 218.34,21.81 C218.62,21.81 218.76,21.67 218.9,21.67 L219.18,21.67 C219.295789,21.6529327 219.412825,21.6916558 219.495585,21.7744154 C219.578344,21.8571749 219.617067,21.9742114 219.6,22.09 L219.6,22.65 C219.64225,22.9531125 219.467335,23.2446383 219.18,23.35 C218.34,23.35 217.36,23.49 216.24,23.49 L216.24,23.45 Z" id="Path" fill="#252F3E"></path>
                <path d="M223.8,23.31 C223.647158,23.3258889 223.4953,23.272016 223.386642,23.1633581 C223.277984,23.0547002 223.224111,22.9028418 223.24,22.75 L223.24,6.65 C223.224111,6.49715824 223.277984,6.34529976 223.386642,6.23664191 C223.4953,6.12798405 223.647158,6.07411111 223.8,6.09 L224.5,6.09 C224.92,6.09 225.06,6.23 225.06,6.65 L225.2,8.05 C226.257683,7.25346601 227.44049,6.63840637 228.7,6.23 C229.821267,5.80938971 231.003211,5.5730009 232.2,5.53 C233.585038,5.41801531 234.956257,5.87268263 236,6.79 C236.934201,7.8717377 237.388957,9.28653299 237.26,10.71 L237.26,22.61 C237.275889,22.7628418 237.222016,22.9147002 237.113358,23.0233581 C237.0047,23.132016 236.852842,23.1858889 236.7,23.17 L235.7,23.17 C235.547158,23.1858889 235.3953,23.132016 235.286642,23.0233581 C235.177984,22.9147002 235.124111,22.7628418 235.14,22.61 L235.14,11.69 C235.241663,10.5517507 234.944737,9.41353621 234.3,8.47 C233.610434,7.75117703 232.63233,7.38346876 231.64,7.47 C229.26221,7.48584963 226.953575,8.27176815 225.06,9.71 L225.06,22.89 C225.075889,23.0428418 225.022016,23.1947002 224.913358,23.3033581 C224.8047,23.412016 224.652842,23.4658889 224.5,23.45 L223.8,23.45 L223.8,23.31 Z" id="Path" fill="#252F3E"></path>
                <path d="M249.84,23.73 C247.18,23.73 245.08,23.03 243.84,21.49 C242.6,19.95 241.74,17.71 241.74,14.63 C241.591606,12.2511166 242.34097,9.9031097 243.84,8.05 C245.318474,6.46298077 247.412314,5.59480301 249.58,5.67 C251.359738,5.52920835 253.108195,6.19773575 254.34,7.49 C255.544965,8.86559848 256.149866,10.6658982 256.02,12.49 C256.053206,13.1930449 256.006237,13.8975846 255.88,14.59 C255.860531,14.8908465 255.620846,15.1305309 255.32,15.15 L243.82,15.15 C243.68354,17.0501287 244.22962,18.9365882 245.36,20.47 C246.633845,21.6842279 248.366199,22.295647 250.12,22.15 C251.699591,22.1685387 253.268029,21.8833682 254.74,21.31 C254.914915,21.2249399 255.105635,21.1772599 255.3,21.17 C255.44,21.17 255.44,21.17 255.58,21.31 C255.72,21.45 255.72,21.45 255.72,21.59 L255.72,22.15 C255.76225,22.4531125 255.587335,22.7446383 255.3,22.85 C253.519571,23.3446948 251.686792,23.6266609 249.84,23.69 L249.84,23.73 Z M254,13.51 L254,12.39 C254.082968,11.0806932 253.684659,9.78619065 252.88,8.75 C251.938816,7.86236902 250.670989,7.40595137 249.38,7.49 C245.74,7.49 243.92,9.49 243.64,13.49 L254,13.51 Z" id="Shape" fill="#252F3E"></path>
                <path d="M260.62,23.31 C260.467158,23.3258889 260.3153,23.272016 260.206642,23.1633581 C260.097984,23.0547002 260.044111,22.9028418 260.06,22.75 L260.06,6.65 C260.044111,6.49715824 260.097984,6.34529976 260.206642,6.23664191 C260.3153,6.12798405 260.467158,6.07411111 260.62,6.09 L261.32,6.09 C261.74,6.09 261.88,6.23 261.88,6.65 L262.02,8.65 C262.669042,7.7728786 263.538407,7.08290715 264.54,6.65 C265.41784,6.25046222 266.376018,6.05882647 267.34,6.09 L268.18,6.09 C268.332842,6.07411111 268.4847,6.12798405 268.593358,6.23664191 C268.702016,6.34529976 268.755889,6.49715824 268.74,6.65 L268.74,7.49 C268.74,7.63 268.74,7.63 268.6,7.77 C268.46,7.91 268.46,7.91 268.32,7.91 L267.06,7.91 C266.096018,7.87882647 265.13784,8.07046222 264.26,8.47 C263.370549,8.93942607 262.566071,9.55461543 261.88,10.29 L261.88,22.75 C261.895889,22.9028418 261.842016,23.0547002 261.733358,23.1633581 C261.6247,23.272016 261.472842,23.3258889 261.32,23.31 L260.62,23.31 Z" id="Path" fill="#252F3E"></path>
                <path d="M162.34,61 C162.187158,61.0158889 162.0353,60.962016 161.926642,60.8533581 C161.817984,60.7447002 161.764111,60.5928418 161.78,60.44 L161.78,44.44 C161.764111,44.2871582 161.817984,44.1352998 161.926642,44.0266419 C162.0353,43.917984 162.187158,43.8641111 162.34,43.88 L163.04,43.88 C163.46,43.88 163.6,44.02 163.6,44.44 L163.74,45.84 C164.797683,45.043466 165.98049,44.4284064 167.24,44.02 C168.361267,43.5993897 169.543211,43.3630009 170.74,43.32 C172.118302,43.2135361 173.481237,43.6678476 174.52,44.58 C175.454201,45.6617377 175.908957,47.076533 175.78,48.5 L175.78,60.4 C175.795889,60.5528418 175.742016,60.7047002 175.633358,60.8133581 C175.5247,60.922016 175.372842,60.9758889 175.22,60.96 L174.22,60.96 C174.067158,60.9758889 173.9153,60.922016 173.806642,60.8133581 C173.697984,60.7047002 173.644111,60.5528418 173.66,60.4 L173.66,49.35 C173.761663,48.2117507 173.464737,47.0735362 172.82,46.13 C172.130434,45.411177 171.15233,45.0434688 170.16,45.13 C167.78221,45.1458496 165.473575,45.9317681 163.58,47.37 L163.58,60.53 C163.595889,60.6828418 163.542016,60.8347002 163.433358,60.9433581 C163.3247,61.052016 163.172842,61.1058889 163.02,61.09 L162.32,61.09 L162.34,61 Z" id="Path" fill="#252F3E"></path>
                <path d="M188.38,61.53 C185.72,61.53 183.62,60.83 182.38,59.29 C181.14,57.75 180.28,55.51 180.28,52.43 C180.131606,50.0511166 180.88097,47.7031097 182.38,45.85 C183.858474,44.2629808 185.952314,43.394803 188.12,43.47 C189.899738,43.3292084 191.648195,43.9977357 192.88,45.29 C194.084965,46.6655985 194.689866,48.4658982 194.56,50.29 C194.593206,50.9930449 194.546237,51.6975846 194.42,52.39 C194.400531,52.6908465 194.160846,52.9305309 193.86,52.95 L182.36,52.95 C182.22354,54.8501287 182.76962,56.7365882 183.9,58.27 C185.173845,59.4842279 186.906199,60.095647 188.66,59.95 C190.239591,59.9685387 191.808029,59.6833682 193.28,59.11 C193.454915,59.0249399 193.645635,58.9772599 193.84,58.97 C193.98,58.97 193.98,58.97 194.12,59.11 C194.26,59.25 194.26,59.25 194.26,59.39 L194.26,60 C194.30225,60.3031125 194.127335,60.5946383 193.84,60.7 C192.061872,61.2053189 190.22779,61.4874854 188.38,61.54 L188.38,61.53 Z M192.58,51.17 L192.58,50.05 C192.662968,48.7406932 192.264659,47.4461907 191.46,46.41 C190.518816,45.522369 189.250989,45.0659514 187.96,45.15 C184.32,45.15 182.5,47.15 182.22,51.15 L192.58,51.17 Z" id="Shape" fill="#252F3E"></path>
                <path d="M204.06,61.25 C202.91777,61.3523678 201.788964,60.9428679 200.978048,60.131952 C200.167132,59.3210361 199.757632,58.1922303 199.86,57.05 L199.86,45.57 L197.2,45.57 C197.047158,45.5858889 196.8953,45.532016 196.786642,45.4233581 C196.677984,45.3147002 196.624111,45.1628418 196.64,45.01 L196.64,44.73 C196.6203,44.5759879 196.671833,44.4213898 196.78,44.31 C196.78,44.17 196.92,44.17 197.2,44.17 L200,43.89 L200.28,39.41 C200.28,39.27 200.42,39.13 200.42,38.99 C200.42,38.85 200.56,38.85 200.84,38.85 L201.4,38.85 C201.552842,38.8341111 201.7047,38.887984 201.813358,38.9966419 C201.922016,39.1052998 201.975889,39.2571582 201.96,39.41 L201.96,43.89 L206.86,43.89 C207.012842,43.8741111 207.1647,43.927984 207.273358,44.0366419 C207.382016,44.1452998 207.435889,44.2971582 207.42,44.45 L207.42,45.15 C207.435889,45.3028418 207.382016,45.4547002 207.273358,45.5633581 C207.1647,45.672016 207.012842,45.7258889 206.86,45.71 L202,45.71 L202,57.05 C201.891812,57.7660896 202.095686,58.4942112 202.56,59.05 C203.127347,59.4918907 203.845677,59.693023 204.56,59.61 C205.123834,59.6458339 205.689874,59.5986639 206.24,59.47 C206.52,59.47 206.66,59.33 206.8,59.33 L207,59.33 C207.115789,59.3129327 207.232825,59.3516558 207.315585,59.4344154 C207.398344,59.5171749 207.437067,59.6342114 207.42,59.75 L207.42,60.31 C207.46225,60.6131125 207.287335,60.9046383 207,61.01 C206.02966,61.186149 205.046146,61.2798169 204.06,61.29 L204.06,61.25 Z" id="Path" fill="#252F3E"></path>
                <path d="M215.12,61.0001294 C214.825548,61.0053841 214.553815,60.8423445 214.42,60.58 L209.1,44.76 C209.002428,44.5898786 208.953964,44.3960235 208.96,44.2 C208.96,44.06 209.1,43.92 209.38,43.92 L210.5,43.92 C210.78,43.92 210.92,44.06 211.06,44.34 L215.68,58.76 L219.74,44.34 C219.845362,44.0526654 220.136888,43.8777499 220.44,43.92 L221.7,43.92 C221.994452,43.9146159 222.266185,44.0776555 222.4,44.34 L226.46,58.76 L231.22,44.2 C231.36,43.92 231.5,43.78 231.78,43.78 L232.78,43.78 C233.06,43.78 233.2,43.92 233.2,44.06 C233.206036,44.2560235 233.157572,44.4498786 233.06,44.62 L227.46,60.44 C227.354638,60.7273346 227.063112,60.9022501 226.76,60.86 L225.64,60.86 C225.345548,60.8653841 225.073815,60.7023445 224.94,60.44 L220.86,46 L216.8,60.42 C216.694638,60.7073346 216.403112,60.8822501 216.1,60.84 L215.1,60.84 L215.12,61.0001294 Z" id="Path" fill="#252F3E"></path>
                <path d="M243.26,61.53 C241.046555,61.6330104 238.898623,60.7636091 237.38,59.15 C235.98,57.61 235.28,55.37 235.28,52.43 C235.156705,50.0113052 235.901451,47.6281186 237.38,45.71 C240.657031,42.5348213 245.862969,42.5348213 249.14,45.71 C250.54,47.25 251.24,49.49 251.24,52.43 C251.363295,54.8486948 250.618549,57.2318814 249.14,59.15 C247.621377,60.7636091 245.473445,61.6330104 243.26,61.53 L243.26,61.53 Z M243.26,59.71 C247.18,59.71 249.14,57.33 249.14,52.43 C249.14,47.53 247.14,45.15 243.26,45.15 C239.38,45.15 237.38,47.53 237.38,52.43 C237.38,57.33 239.38,59.71 243.26,59.71 Z" id="Shape" fill="#252F3E"></path>
                <path d="M256.14,61 C255.987158,61.0158889 255.8353,60.962016 255.726642,60.8533581 C255.617984,60.7447002 255.564111,60.5928418 255.58,60.44 L255.58,44.44 C255.564111,44.2871582 255.617984,44.1352998 255.726642,44.0266419 C255.8353,43.917984 255.987158,43.8641111 256.14,43.88 L256.84,43.88 C257.26,43.88 257.4,44.02 257.4,44.44 L257.54,46.44 C258.189042,45.5628786 259.058407,44.8729071 260.06,44.44 C260.93784,44.0404622 261.896018,43.8488265 262.86,43.88 L263.7,43.88 C263.852842,43.8641111 264.0047,43.917984 264.113358,44.0266419 C264.222016,44.1352998 264.275889,44.2871582 264.26,44.44 L264.26,45.28 C264.26,45.42 264.26,45.42 264.12,45.56 C263.98,45.7 263.98,45.7 263.84,45.7 L262.58,45.7 C261.616018,45.6688265 260.65784,45.8604622 259.78,46.26 C258.890549,46.7294261 258.086071,47.3446154 257.4,48.08 L257.4,60.54 C257.415889,60.6928418 257.362016,60.8447002 257.253358,60.9533581 C257.1447,61.062016 256.992842,61.1158889 256.84,61.1 L256.14,61.1 L256.14,61 Z" id="Path" fill="#252F3E"></path>
                <path d="M267.76,61 C267.607158,61.0158889 267.4553,60.962016 267.346642,60.8533581 C267.237984,60.7447002 267.184111,60.5928418 267.2,60.44 L267.2,36.33 C267.184111,36.1771582 267.237984,36.0252998 267.346642,35.9166419 C267.4553,35.807984 267.607158,35.7541111 267.76,35.77 L268.76,35.77 C268.912842,35.7541111 269.0647,35.807984 269.173358,35.9166419 C269.282016,36.0252998 269.335889,36.1771582 269.32,36.33 L269.32,51.45 L277.44,44.17 C277.661172,43.9510366 277.971684,43.8475328 278.28,43.89 L279.54,43.89 C279.82,43.89 279.96,44.03 279.96,44.17 C279.96,44.31 279.82,44.45 279.54,44.73 L271.26,52 L280.26,60.26 C280.4,60.4 280.54,60.54 280.54,60.68 C280.54,60.82 280.4,60.96 280.12,60.96 L278.72,60.96 C278.460424,60.9546836 278.211635,60.8551682 278.02,60.68 L269.34,52.56 L269.34,60.4 C269.355889,60.5528418 269.302016,60.7047002 269.193358,60.8133581 C269.0847,60.922016 268.932842,60.9758889 268.78,60.96 L267.76,61 Z" id="Path" fill="#252F3E"></path>
            </g>
            <path d="M3.73419948,105.807447 C2.64743661,105.467116 1.66730516,104.846119 0.890612029,104.005793 C0.288343867,103.240498 -0.026183099,102.284264 0.00285789698,101.306817 C-0.0456890443,100.000853 0.526581367,98.7501766 1.54255647,97.9418604 C2.74226262,97.0448479 4.21381084,96.5986256 5.70390397,96.6800017 C7.16306887,96.6836948 8.60904699,96.9593715 9.96928515,97.4931995 L9.96928515,100.044958 C8.67742088,99.6107595 7.32853286,99.3744639 5.96745597,99.3439257 C4.2266256,99.3439257 3.35274263,99.9047519 3.35274263,101.040425 C3.34289599,101.435351 3.50519415,101.814711 3.7966197,102.077953 C4.31435295,102.453579 4.89120351,102.738002 5.50277217,102.919192 L7.14650443,103.536101 C8.25784708,103.877136 9.26821134,104.491333 10.08719,105.323734 C10.6917757,106.067906 11.0029991,107.011639 10.961073,107.973638 C11.0201244,109.384279 10.4094169,110.738669 9.31734071,111.619007 C8.03039823,112.579802 6.45611159,113.064849 4.85776331,112.993031 C4.02200023,112.990944 3.1883143,112.908789 2.36789039,112.74767 C1.63839764,112.622356 0.926056337,112.410586 0.245603168,112.116741 L0.245603168,109.550961 C1.02364216,109.785218 1.81598364,109.967875 2.61757124,110.097767 C3.37438743,110.222332 4.13955177,110.287955 4.90631236,110.294056 C5.60832729,110.335977 6.30722507,110.170331 6.91763032,109.817354 C7.38067678,109.509386 7.64526865,108.974499 7.61118823,108.415288 C7.62996698,108.003173 7.47347179,107.602616 7.18118233,107.314667 C6.651947,106.919512 6.06127025,106.616252 5.43341638,106.417345 L3.74807064,105.786416 L3.73419948,105.807447 Z M15.95469,107.665183 C15.9372944,108.475573 16.2567906,109.256222 16.8355085,109.817354 C17.5793654,110.312231 18.4654844,110.5417 19.3531238,110.469314 C20.528423,110.443057 21.6948566,110.256775 22.8209133,109.915498 L22.8209133,112.09571 C22.2347311,112.388182 21.611672,112.598107 20.9691137,112.719629 C20.2328397,112.879035 19.4818957,112.958934 18.7289216,112.95798 C17.1457768,113.070483 15.5877649,112.511682 14.4288625,111.415708 C13.4440103,110.37818 12.9585198,108.870959 12.9585198,106.880027 C12.8561733,105.270644 13.3674213,103.682743 14.3872491,102.44249 C15.4491694,101.340079 16.931702,100.757041 18.4514985,100.844136 C19.6965979,100.764611 20.9188834,101.208564 21.8291255,102.070943 C22.6818035,103.026741 23.1125348,104.292361 23.0220451,105.576106 C23.0220451,105.905591 23.0220451,106.277139 22.9596249,106.704769 C22.9234625,107.046546 22.8678861,107.385939 22.793171,107.721266 L15.95469,107.665183 Z M18.3752071,103.08043 C17.7349798,103.046044 17.1094207,103.282205 16.6482479,103.73239 C16.2032313,104.271735 15.9579936,104.950928 15.95469,105.65322 L20.3032981,105.65322 L20.3032981,105.246621 C20.3032981,103.788473 19.6652248,103.059399 18.3960138,103.059399 L18.3752071,103.08043 Z M30.5194062,112.390143 C29.882586,112.639695 29.2049521,112.765743 28.5219594,112.761785 C26.5245126,112.761785 25.5257892,111.633028 25.5257892,109.375703 L25.5257892,96 L28.7647047,96 L28.7647047,109.116321 C28.7352065,109.425932 28.8084024,109.736668 28.972772,109.999622 C29.1553017,110.183847 29.4095119,110.276349 29.66633,110.251994 C29.9493131,110.246772 30.2317927,110.225708 30.5124706,110.188901 L30.5124706,112.390143 L30.5194062,112.390143 Z M35.1662442,107.665183 C35.1427076,108.47532 35.4603155,109.257514 36.0401272,109.817354 C36.7839841,110.312231 37.6701031,110.5417 38.5577424,110.469314 C39.7330871,110.44357 40.8995885,110.257277 42.025532,109.915498 L42.025532,112.09571 C41.4393498,112.388182 40.8162907,112.598107 40.1737324,112.719629 C39.443788,112.873004 38.6998846,112.948196 37.9543471,112.943959 C36.0678695,112.943959 34.6322046,112.429869 33.6473524,111.401687 C32.6694357,110.364159 32.1770096,108.856939 32.1770096,106.866006 C32.0788579,105.244824 32.6030285,103.647832 33.6404168,102.407438 C34.7023372,101.305028 36.1848698,100.72199 37.7046662,100.809084 C38.9498844,100.728712 40.1724929,101.172783 41.0822933,102.035891 C41.9349713,102.991689 42.3657025,104.25731 42.2752129,105.541054 C42.2752129,105.87054 42.2752129,106.242087 42.2127927,106.669717 C42.18006,107.011957 42.1244483,107.351566 42.0463388,107.686214 L35.1662442,107.665183 Z M37.5798258,103.08043 C36.9415704,103.045445 36.3179213,103.281834 35.8598021,103.73239 C35.4090205,104.268361 35.1629878,104.949756 35.1662123,105.65322 L39.5079168,105.65322 L39.5079168,105.246621 C39.5079168,103.788473 38.8698435,103.059399 37.6006325,103.059399 L37.5798258,103.08043 Z M52.935198,112.116741 C52.4864982,112.376122 51.9993925,112.560755 51.4925976,112.663546 C50.9171827,112.797389 50.3283407,112.86326 49.737896,112.859835 C48.2002641,112.971106 46.6880401,112.418291 45.5765486,111.338594 C43.6442769,108.705924 43.6754247,105.09677 45.6528399,102.498573 C46.766739,101.392799 48.2900036,100.812555 49.8488653,100.900218 C50.8907133,100.890087 51.9200278,101.130366 52.8519711,101.601251 L52.8519711,103.781462 C52.0732793,103.543523 51.2656514,103.416118 50.4522607,103.402905 C49.609857,103.330806 48.7764064,103.620949 48.156584,104.202082 C47.6115944,104.919715 47.351834,105.81742 47.4283482,106.718789 L47.4283482,107.034254 C47.3463892,107.928558 47.5933021,108.822033 48.1219061,109.543951 C48.7235353,110.117454 49.5379735,110.405452 50.3620982,110.336118 C51.217666,110.313638 52.0665381,110.17692 52.886649,109.929519 L52.886649,112.10973 L52.935198,112.116741 Z M61.9930644,112.31303 C61.1327842,112.637452 60.2201592,112.796742 59.3020597,112.782722 C58.2973298,112.867476 57.3001727,112.547466 56.527828,111.89241 C55.8589792,111.122561 55.5329203,110.108491 55.6262028,109.08828 L55.6262028,103.543111 L53.9131147,103.543111 L53.9131147,101.517127 L55.7163653,101.166611 L56.2018558,98.018974 L58.8651182,98.018974 L58.8651182,101.110528 L61.9375798,101.110528 L61.9375798,103.543111 L58.8651182,103.543111 L58.8651182,108.920032 C58.8265486,109.29662 58.9592152,109.670543 59.2257683,109.936529 C59.5836094,110.162996 60.0052913,110.264009 60.4256235,110.223952 C60.9529646,110.219236 61.4792207,110.174714 62,110.090756 L62,112.284988 L61.9930644,112.31303 Z" id="Shape" fill="#535B64"></path>
            <path d="M15.4488848,161.272855 C10.3670783,161.272855 6.51949157,159.865657 3.90612464,157.051558 C1.29275771,154.237459 -0.00925067987,150.092305 4.94693482e-05,144.616097 C4.94693482e-05,139.167523 1.35119615,135.010855 4.05338951,132.146093 C6.75558286,129.281331 10.6335576,127.846647 15.6873137,127.84203 C17.9862246,127.839761 20.2715396,128.18936 22.4614974,128.87833 C22.6315744,128.928198 22.7812972,129.029757 22.8892667,129.168491 C22.9974117,129.352482 23.0463185,129.56448 23.029519,129.776447 L23.029519,130.798918 C23.029519,131.206525 22.8401784,131.413782 22.4614974,131.413782 C21.9872729,131.35515 21.5183654,131.26045 21.0589749,131.13053 C20.2411173,130.923928 19.4091,130.776155 18.5694974,130.68838 C17.7300766,130.576436 16.8848472,130.51185 16.0379443,130.49494 C11.6854495,130.49494 8.43393479,131.618737 6.28340029,133.866332 C4.13286578,136.113926 3.05993607,139.485318 3.06461114,143.980507 L3.06461114,145.154967 C3.06461114,154.113104 7.27217865,158.594476 15.6873137,158.599082 C17.7479987,158.59896 19.799558,158.329476 21.7882866,157.797686 C22.1594808,157.678596 22.5427752,157.599831 22.9313424,157.562793 C23.3100235,157.562793 23.499364,157.763143 23.499364,158.177658 L23.499364,159.200129 C23.5167148,159.414335 23.4678185,159.628696 23.3591118,159.814994 C23.2466174,159.947404 23.0982766,160.04563 22.9313424,160.098246 C20.5178895,160.88506 17.9910359,161.28168 15.4488848,161.272855 L15.4488848,161.272855 Z M38.7658215,161.459238 C35.2688654,161.459238 32.5479717,160.356166 30.6031405,158.150024 C28.6583093,155.943881 27.6905688,152.864953 27.6998518,148.913239 C27.6998518,144.966132 28.6676594,141.901021 30.6031405,139.717907 C32.5386216,137.534793 35.2595152,136.436327 38.7658215,136.42251 C42.2674527,136.42251 44.9836712,137.520975 46.9144772,139.717907 C48.8452832,141.914838 49.8176988,144.979949 49.831724,148.913239 C49.831724,152.864953 48.8593084,155.943881 46.9144772,158.150024 C44.969646,160.356166 42.2534274,161.459238 38.7658215,161.459238 Z M38.7658215,159.013597 C44.2637097,159.013597 47.0126538,155.646811 47.0126538,148.913239 C47.0126538,142.179668 44.2637097,138.829002 38.7658215,138.861242 C33.2632582,138.861242 30.5119765,142.211908 30.5119765,148.913239 C30.5119765,155.614571 33.2632582,158.985963 38.7658215,159.027414 L38.7658215,159.013597 Z M56.74616,160.754562 C56.554074,160.77707 56.3621189,160.711555 56.2253362,160.576801 C56.0885536,160.442047 56.0220514,160.252939 56.0448987,160.063703 L56.0448987,137.824953 C56.0220514,137.635717 56.0885536,137.446609 56.2253362,137.311855 C56.3621189,137.177102 56.554074,137.111586 56.74616,137.134094 L57.6998753,137.134094 C57.9032918,137.103677 58.1100048,137.162801 58.2652621,137.295804 C58.4205194,137.428808 58.5086555,137.622272 58.5063257,137.824953 L58.6956662,139.842261 C60.2013464,138.77514 61.8544066,137.925973 63.604495,137.320626 C65.2089476,136.740883 66.9025974,136.43709 68.6115003,136.42251 C70.9490379,136.42251 72.7208913,137.028163 73.9270606,138.239469 C75.1542678,139.441563 75.7643651,141.210162 75.7643651,143.559083 L75.7643651,160.049886 C75.7872124,160.239122 75.7207103,160.42823 75.5839276,160.562984 C75.4471449,160.697737 75.2551898,160.763253 75.0631039,160.740745 L73.7657705,160.740745 C73.5736846,160.763253 73.3817295,160.697737 73.2449468,160.562984 C73.1081641,160.42823 73.041662,160.239122 73.0645093,160.049886 L73.0645093,144.692091 C73.0645093,142.65636 72.6671279,141.177922 71.8723652,140.256777 C71.0776024,139.335632 69.805982,138.875059 68.057504,138.875059 C64.7224343,138.924452 61.481605,139.97264 58.7657924,141.880295 L58.7657924,160.063703 C58.7858813,160.252305 58.7184812,160.439764 58.5823679,160.573858 C58.4462546,160.707952 58.2559733,160.774353 58.0645311,160.754562 L56.74616,160.754562 Z M89.1654676,161.445421 C87.8935261,161.442872 86.6250013,161.315587 85.3786569,161.065448 C84.207648,160.846829 83.0646924,160.501614 81.9705272,160.036069 C81.5887631,159.886785 81.3539776,159.505982 81.395493,159.103409 L81.395493,158.336555 C81.395493,157.956583 81.5708083,157.763143 81.9214389,157.763143 C82.0736007,157.782526 82.2237669,157.814888 82.3702461,157.859863 C82.6156875,157.928949 83.0715074,158.067121 83.7306929,158.281287 C85.5505536,158.818717 87.440928,159.088755 89.3407829,159.082683 C90.9051489,159.182923 92.4603082,158.780507 93.7727541,157.935857 C94.8095278,157.130695 95.3805626,155.876538 95.3015036,154.578283 C95.3173245,153.761542 94.9779015,152.977113 94.3688261,152.422803 C93.4549971,151.655632 92.3936919,151.077636 91.2482136,150.72329 L86.9074064,149.127406 C83.5039518,147.874648 81.8022245,145.822797 81.8022245,142.971853 C81.7477398,141.145389 82.5685927,139.400081 84.01821,138.260194 C85.6680888,136.99489 87.7218868,136.350657 89.810628,136.443235 C91.9493527,136.442039 94.0691289,136.838143 96.0588657,137.610787 C96.4384758,137.769342 96.6688265,138.153169 96.6268874,138.557264 L96.6268874,139.248123 C96.6268874,139.648821 96.4585847,139.84917 96.1149666,139.84917 C95.7103081,139.820658 95.3103089,139.746481 94.9228225,139.628095 C93.2145241,139.138439 91.4489909,138.869062 89.6703757,138.826699 C88.2882412,138.732939 86.9131893,139.08981 85.757338,139.842261 C84.8457281,140.560464 84.3481635,141.672408 84.4249416,142.819864 C84.3656094,143.737307 84.7046569,144.636393 85.357619,145.293139 C86.4539397,146.123827 87.6875653,146.761874 89.0041775,147.179183 L92.8190388,148.595444 C94.3023734,149.061401 95.6398609,149.89385 96.7040261,151.013451 C97.5318536,152.013575 97.9651671,153.274606 97.9242207,154.564466 C98.0013032,156.522852 97.1196791,158.398707 95.5539576,159.607736 C93.9831324,160.844373 91.8512982,161.466147 89.1444298,161.466147 L89.1654676,161.445421 Z M110.098116,161.445421 C107.812004,161.445421 106.054176,160.837465 104.824631,159.621553 C103.604437,158.391824 102.99434,156.609408 102.99434,154.253579 L102.99434,137.811136 C102.971492,137.6219 103.037994,137.432792 103.174777,137.298038 C103.31156,137.163285 103.503515,137.097769 103.695601,137.120277 L104.985921,137.120277 C105.178007,137.097769 105.369963,137.163285 105.506745,137.298038 C105.643528,137.432792 105.71003,137.6219 105.687183,137.811136 L105.687183,153.127479 C105.687183,155.19545 106.084564,156.692311 106.879327,157.618062 C107.678765,158.543813 108.934022,158.99978 110.652112,158.99978 C112.142176,159.014777 113.624068,158.781191 115.034995,158.308921 C116.592211,157.732147 118.065776,156.956355 119.417878,156.001452 L119.417878,137.824953 C119.395031,137.635717 119.461533,137.446609 119.598316,137.311855 C119.735098,137.177102 119.927053,137.111586 120.119139,137.134094 L121.402447,137.134094 C121.59389,137.114303 121.784171,137.180704 121.920284,137.314798 C122.056397,137.448892 122.123798,137.636351 122.103709,137.824953 L122.103709,160.049886 C122.123798,160.238488 122.056397,160.425947 121.920284,160.560041 C121.784171,160.694135 121.59389,160.760536 121.402447,160.740745 L120.525871,160.740745 C120.323571,160.761918 120.121393,160.699692 119.967306,160.568829 C119.81322,160.437966 119.720957,160.25013 119.712408,160.049886 L119.523067,158.177658 C116.835572,160.247747 113.53707,161.399648 110.126166,161.459238 L110.098116,161.445421 Z M133.653481,160.878916 C132.547603,160.94085 131.466178,160.542272 130.673121,159.780451 C129.917279,158.935549 129.53155,157.830299 129.600191,156.706128 L129.600191,126.695216 C129.577344,126.505979 129.643846,126.316871 129.780629,126.182118 C129.917412,126.047364 130.109367,125.981848 130.301453,126.004357 L131.584761,126.004357 C131.776847,125.981848 131.968802,126.047364 132.105584,126.182118 C132.242367,126.316871 132.308869,126.505979 132.286022,126.695216 L132.286022,156.664677 C132.230465,157.1837 132.375713,157.704267 132.692754,158.122389 C133.098616,158.445828 133.618167,158.597393 134.137352,158.543813 C134.35331,158.543102 134.568931,158.52694 134.782512,158.495453 C134.980284,158.470905 135.179273,158.457067 135.378584,158.454002 C135.568475,158.428508 135.759226,158.494517 135.891222,158.631399 C136.023218,158.768281 136.080357,158.959339 136.044782,159.14486 L136.044782,160.02916 C136.047788,160.378223 135.786011,160.674652 135.434685,160.720019 C134.835741,160.847411 134.224095,160.907668 133.611406,160.899642 L133.653481,160.878916 Z M148.919939,161.023997 C147.342365,161.129108 145.789625,160.595083 144.621207,159.545559 C143.565545,158.365172 143.032781,156.81795 143.141546,155.248416 L143.141546,139.476106 L139.382786,139.476106 C139.191344,139.495897 139.001062,139.429497 138.864949,139.295403 C138.728836,139.161308 138.661436,138.97385 138.681525,138.785247 L138.681525,138.301646 C138.666134,138.104175 138.71795,137.90728 138.828789,137.74205 C138.978726,137.587213 139.186607,137.499799 139.403824,137.50025 L143.260761,137.168637 L143.604379,130.950907 C143.611333,130.753154 143.685409,130.563413 143.814757,130.412037 C143.951354,130.293652 144.131541,130.236147 144.312652,130.253139 L145.168191,130.253139 C145.360927,130.227776 145.55465,130.29236 145.692146,130.427816 C145.829641,130.563272 145.895197,130.754121 145.869452,130.943998 L145.869452,137.099551 L152.783888,137.099551 C152.975974,137.077043 153.167929,137.142559 153.304712,137.277312 C153.441495,137.412066 153.507997,137.601174 153.48515,137.79041 L153.48515,138.729979 C153.507997,138.919215 153.441495,139.108323 153.304712,139.243077 C153.167929,139.37783 152.975974,139.443346 152.783888,139.420838 L145.86244,139.420838 L145.86244,155.061884 C145.86244,156.346882 146.135932,157.251907 146.696941,157.783868 C147.493601,158.394415 148.497364,158.681188 149.501986,158.585265 C150.319738,158.594581 151.13597,158.513474 151.935362,158.343464 L152.769863,158.198384 C152.918176,158.155202 153.071207,158.129689 153.225683,158.122389 C153.576314,158.122389 153.751629,158.308921 153.751629,158.681985 L153.751629,159.372844 C153.751629,159.907108 153.576314,160.23872 153.225683,160.367681 C151.836665,160.792295 150.388146,160.997489 148.933964,160.975637 L148.919939,161.023997 Z M159.691312,160.740745 C159.499226,160.763253 159.307271,160.697737 159.170488,160.562984 C159.033705,160.42823 158.967203,160.239122 158.99005,160.049886 L158.99005,137.824953 C158.967203,137.635717 159.033705,137.446609 159.170488,137.311855 C159.307271,137.177102 159.499226,137.111586 159.691312,137.134094 L160.988645,137.134094 C161.180731,137.111586 161.372686,137.177102 161.509469,137.311855 C161.646251,137.446609 161.712754,137.635717 161.689906,137.824953 L161.689906,160.049886 C161.712754,160.239122 161.646251,160.42823 161.509469,160.562984 C161.372686,160.697737 161.180731,160.763253 160.988645,160.740745 L159.691312,160.740745 Z M160.392573,132.035555 C159.834685,132.065451 159.289848,131.862287 158.891874,131.47596 C158.514614,131.062159 158.318087,130.518557 158.34489,129.962979 C158.317207,129.411423 158.514097,128.87179 158.891874,128.463815 C159.748781,127.717097 161.036365,127.717097 161.893272,128.463815 C162.271049,128.87179 162.467939,129.411423 162.440256,129.962979 C162.467059,130.518557 162.270532,131.062159 161.893272,131.47596 C161.494819,131.86155 160.950325,132.064586 160.392573,132.035555 L160.392573,132.035555 Z M170.076991,160.740745 C169.884905,160.763253 169.69295,160.697737 169.556167,160.562984 C169.419384,160.42823 169.352882,160.239122 169.37573,160.049886 L169.37573,137.824953 C169.352882,137.635717 169.419384,137.446609 169.556167,137.311855 C169.69295,137.177102 169.884905,137.111586 170.076991,137.134094 L171.016681,137.134094 C171.220097,137.103677 171.426811,137.162801 171.582068,137.295804 C171.737325,137.428808 171.825461,137.622272 171.823131,137.824953 L172.012472,139.842261 C173.518152,138.77514 175.171212,137.925973 176.921301,137.320626 C178.525753,136.740883 180.219403,136.43709 181.928306,136.42251 C184.265844,136.42251 186.037697,137.028163 187.243866,138.239469 C188.471074,139.441563 189.081171,141.210162 189.081171,143.559083 L189.081171,160.049886 C189.104018,160.239122 189.037516,160.42823 188.900733,160.562984 C188.763951,160.697737 188.571995,160.763253 188.37991,160.740745 L187.082576,160.740745 C186.88984,160.766107 186.696117,160.701524 186.558622,160.566068 C186.421126,160.430612 186.35557,160.239763 186.381315,160.049886 L186.381315,144.692091 C186.381315,142.65636 185.981596,141.177922 185.182158,140.256777 C184.38272,139.335632 183.113438,138.875059 181.37431,138.875059 C178.039091,138.923579 174.798005,139.97185 172.082598,141.880295 L172.082598,160.063703 C172.102687,160.252305 172.035287,160.439764 171.899174,160.573858 C171.76306,160.707952 171.572779,160.774353 171.381337,160.754562 L170.076991,160.740745 Z M204.887599,170.986183 C203.572515,170.989811 202.260776,170.855488 200.974562,170.585485 C199.816276,170.355654 198.692287,169.981906 197.629545,169.473202 C197.259263,169.290705 197.047846,168.89636 197.1036,168.492182 L197.1036,167.801323 C197.1036,167.393716 197.278915,167.193367 197.629545,167.193367 C197.73375,167.194441 197.837408,167.208367 197.9381,167.234819 C198.057315,167.234819 198.253668,167.32463 198.541185,167.421351 C200.538264,168.095397 202.629697,168.458999 204.740335,168.499091 C207.690307,168.499091 209.857204,167.780597 211.241026,166.343611 C212.624849,164.906624 213.32611,162.636001 213.34481,159.531741 L213.34481,157.231181 C212.17319,158.200268 210.852275,158.979194 209.431772,159.53865 C208.134141,160.075717 206.743759,160.361865 205.336407,160.381498 C202.513189,160.482907 199.799827,159.297972 197.980176,157.169004 C196.142872,155.013524 195.221882,152.169488 195.217207,148.636896 C195.217207,144.846383 196.131184,141.852661 197.959138,139.65573 C199.787083,137.49966 202.529495,136.304565 205.378482,136.42251 C208.342837,136.414133 211.194415,137.541313 213.330785,139.565918 L213.527138,137.824953 C213.535687,137.624709 213.62795,137.436873 213.782037,137.30601 C213.936123,137.175147 214.138301,137.112921 214.340601,137.134094 L215.294316,137.134094 C215.486402,137.111586 215.678357,137.177102 215.81514,137.311855 C215.951923,137.446609 216.018425,137.635717 215.995578,137.824953 L215.995578,159.676822 C215.995578,163.361403 215.041862,166.170896 213.134432,168.105301 C211.234014,170.032797 208.464032,171 204.845524,171 L204.887599,170.986183 Z M205.939491,157.963492 C208.314429,157.963492 210.775856,156.964049 213.323772,154.965164 L213.323772,141.914838 C212.195289,140.955733 210.922547,140.174982 209.550987,139.600461 C208.327614,139.105196 207.016667,138.85394 205.69405,138.861087 C203.155484,138.861087 201.234028,139.676455 199.943708,141.313791 C198.653387,142.951127 198.015239,145.348407 198.015239,148.533267 C198.015239,151.609892 198.690787,153.951904 200.041884,155.559303 C201.395318,157.175912 203.35885,157.977309 205.939491,157.977309 L205.939491,157.963492 Z" id="Shape" fill="#535B64"></path>
            <path d="M0.706267524,210.293401 C0.514315791,210.316423 0.322494804,210.249414 0.185807682,210.111591 C0.0491205597,209.973767 -0.0173351397,209.780351 0.00549621834,209.586803 L0.00549621834,177.712141 C-0.0202304801,177.517938 0.0452798881,177.32274 0.182679131,177.184198 C0.320078373,177.045656 0.513666276,176.979601 0.706267524,177.005542 L11.3790145,177.005542 C14.4063465,177.005542 16.812328,177.902922 18.5969589,179.697683 C20.3815899,181.492443 21.280913,183.894878 21.2949285,186.904988 C21.4053119,189.564657 20.4214264,192.152213 18.5759358,194.055766 C16.7913049,195.850526 14.3853234,196.747906 11.3579914,196.747906 L2.71047346,196.747906 L2.71047346,209.572671 C2.73330481,209.766219 2.66684912,209.959635 2.53016199,210.097459 C2.39347487,210.235282 2.20165388,210.302291 2.00970215,210.279269 L0.706267524,210.293401 Z M11.2809065,194.197086 C15.9807461,194.197086 18.3330018,191.764031 18.3376805,186.897922 C18.3423454,182.031813 15.9900897,179.584627 11.2809065,179.556363 L2.71047346,179.556363 L2.71047346,194.211218 L11.2809065,194.197086 Z M32.9207244,210.82335 C30.9932985,210.925393 29.1063655,210.240245 27.6859628,208.9226 C24.9434614,205.857607 25.1430042,201.141931 28.1344564,198.323621 C29.7275432,196.976373 31.8929265,196.302749 34.6306064,196.302749 C36.9400758,196.332091 39.2327327,196.70349 41.4350958,197.405043 L41.4350958,193.363299 C41.4350958,191.413087 40.9679149,190.016377 40.0335532,189.17317 C39.1085351,188.318185 37.5878613,187.88716 35.4505088,187.88716 C33.0850024,187.92217 30.7394657,188.329853 28.4988575,189.095444 C28.2730759,189.175749 28.0371318,189.22333 27.7980862,189.236763 C27.4827391,189.236763 27.3285694,189.024784 27.3285694,188.607891 L27.3285694,187.844764 C27.2833152,187.419953 27.5367703,187.020453 27.9382404,186.88379 C30.474652,185.884407 33.1758531,185.378515 35.8990025,185.392867 C38.7020877,185.392867 40.7763708,185.98641 42.1218517,187.173496 C43.4673326,188.360581 44.1424089,190.152986 44.1470807,192.550711 L44.1470807,209.558539 C44.1699121,209.752087 44.1034564,209.945503 43.9667693,210.083327 C43.8300822,210.22115 43.6382612,210.288159 43.4463094,210.265137 L42.4442065,210.265137 C42.2488437,210.280948 42.055842,210.213543 41.9120315,210.079278 C41.768221,209.945013 41.6867452,209.756159 41.6873735,209.558539 L41.4911575,207.495271 C39.1029754,209.575054 36.0687278,210.747354 32.9137167,210.809218 L32.9207244,210.82335 Z M33.3061486,208.329057 C34.6371576,208.305508 35.9545795,208.054646 37.2024371,207.587129 C38.6896512,207.036978 40.1134894,206.326247 41.4491112,205.467333 L41.4491112,199.461245 C39.4292649,198.91192 37.3463207,198.633944 35.2542929,198.634524 C30.8114028,198.634524 28.5876219,200.363336 28.58295,203.820958 C28.494929,205.066438 28.9297236,206.291936 29.781269,207.1985 C30.7563653,208.02702 32.0131036,208.440123 33.2851255,208.350255 L33.3061486,208.329057 Z M52.2269739,210.293401 C52.0356655,210.313643 51.8455171,210.24573 51.7094989,210.108581 C51.5734807,209.971432 51.5061277,209.779702 51.5262026,209.586803 L51.5262026,186.841394 C51.5061277,186.648495 51.5734807,186.456765 51.7094989,186.319616 C51.8455171,186.182467 52.0356655,186.114554 52.2269739,186.134796 L53.1239612,186.134796 C53.6355242,186.134796 53.9018173,186.375039 53.9298482,186.841394 L54.1751181,189.667789 C55.1673749,188.506124 56.3710032,187.546728 57.7210209,186.841394 C58.9522935,186.267233 60.2959346,185.979848 61.6523479,186.000542 C62.163911,186.000542 62.5773661,186.000542 62.8997209,186.042938 C63.098381,186.041934 63.2881283,186.125997 63.4217632,186.274218 C63.5553981,186.422439 63.6203609,186.620886 63.6004922,186.820196 L63.6004922,188.014348 C63.5979215,188.148813 63.5454063,188.27741 63.4533302,188.374713 C63.3607364,188.488203 63.2205061,188.551046 63.0749137,188.544297 C62.8156283,188.544297 62.5773661,188.544297 62.3741424,188.544297 C62.1709187,188.544297 61.8275408,188.544297 61.3790471,188.544297 C60.0402826,188.51956 58.7132373,188.799736 57.4967741,189.363951 C56.2446726,190.00764 55.1377408,190.904879 54.2451953,191.999564 L54.2451953,209.664529 C54.2652701,209.857428 54.1979171,210.049157 54.0618989,210.186307 C53.9258807,210.323456 53.7357324,210.391369 53.5444239,210.371127 L52.2269739,210.293401 Z M75.2823498,210.583107 C73.7081389,210.689482 72.1590791,210.143313 70.9936294,209.070986 C70.003206,208.062905 69.5103302,206.597891 69.515002,204.675943 L69.515002,188.530165 L65.7588678,188.530165 C65.5675594,188.550407 65.377411,188.482494 65.2413928,188.345344 C65.1053746,188.208195 65.0380216,188.016466 65.0580965,187.823566 L65.0580965,187.328947 C65.04419,187.128071 65.0932158,186.927866 65.1982508,186.756602 C65.3507134,186.597847 65.5607254,186.508552 65.7798909,186.509293 L69.6341331,186.170126 L69.9705033,179.810738 C69.9841656,179.609919 70.0574156,179.417885 70.1807347,179.259591 C70.3213571,179.140948 70.5024956,179.082603 70.6852901,179.097074 L71.5402311,179.097074 C71.7328323,179.071133 71.9264202,179.137188 72.0638195,179.27573 C72.2012187,179.414272 72.2667291,179.60947 72.2410024,179.803672 L72.2410024,186.099466 L79.1646229,186.099466 C79.3565746,186.076445 79.5483956,186.143453 79.6850827,186.281277 C79.8217698,186.4191 79.8882255,186.612516 79.8653942,186.806064 L79.8653942,187.767038 C79.8882255,187.960586 79.8217698,188.154002 79.6850827,188.291826 C79.5483956,188.42965 79.3565746,188.496658 79.1646229,188.473637 L72.2410024,188.473637 L72.2410024,204.471029 C72.2410024,205.785302 72.5213109,206.710947 73.0749202,207.255027 C73.8713532,207.878833 74.874153,208.172063 75.8780054,208.074682 C76.6951866,208.084211 77.5108479,208.001255 78.3096819,207.827372 L79.136592,207.678987 C79.2870337,207.634124 79.4423612,207.60802 79.5991011,207.601261 C79.9494867,207.601261 80.1246796,207.792042 80.1246796,208.173606 L80.1246796,208.880204 C80.1246796,209.42664 79.9494867,209.765808 79.5991011,209.897706 C78.2087621,210.332501 76.7588692,210.542373 75.303373,210.519513 L75.2823498,210.583107 Z M85.8639965,210.293401 C85.6726881,210.313643 85.4825398,210.24573 85.3465216,210.108581 C85.2105034,209.971432 85.1431504,209.779702 85.1632252,209.586803 L85.1632252,186.841394 C85.1431504,186.648495 85.2105034,186.456765 85.3465216,186.319616 C85.4825398,186.182467 85.6726881,186.114554 85.8639965,186.134796 L86.8170455,186.134796 C87.021413,186.101377 87.2299763,186.16079 87.3867886,186.297097 C87.5436008,186.433404 87.6326103,186.632653 87.6299402,186.841394 L87.8191485,188.904662 C89.3229611,187.811894 90.9750639,186.943277 92.7245476,186.325577 C94.3275477,185.731399 96.0202272,185.420645 97.7280547,185.406999 C100.063959,185.406999 101.832239,186.026451 103.032894,187.265353 C104.259243,188.494835 104.875922,190.303727 104.875922,192.706163 L104.875922,209.572671 C104.898753,209.766219 104.832298,209.959635 104.695611,210.097459 C104.558923,210.235282 104.367102,210.302291 104.175151,210.279269 L102.885732,210.279269 C102.69378,210.302291 102.501959,210.235282 102.365272,210.097459 C102.228585,209.959635 102.162129,209.766219 102.18496,209.572671 L102.18496,193.864984 C102.18496,191.780518 101.792528,190.268397 100.993649,189.328621 C100.19477,188.388845 98.9333814,187.915424 97.1814531,187.915424 C93.8489359,187.967279 90.610755,189.03922 87.8962333,190.989128 L87.8962333,209.586803 C87.9190647,209.780351 87.852609,209.973767 87.7159219,210.111591 C87.5792347,210.249414 87.3874138,210.316423 87.195462,210.293401 L85.8639965,210.293401 Z M122.360166,211 C118.590017,211 115.747221,209.921259 113.831779,207.763778 C111.916338,205.606297 110.963289,202.393629 110.972564,198.125774 C110.972564,194.08874 111.932689,190.960864 113.852802,188.742144 C115.772916,186.523425 118.466214,185.406999 121.932696,185.392867 C124.824545,185.392867 127.041318,186.224298 128.583015,187.88716 C130.124712,189.550022 130.893225,191.93597 130.888553,195.045004 C130.906357,196.009642 130.843061,196.974066 130.699345,197.927926 C130.662195,198.346216 130.302237,198.659106 129.88645,198.634525 L113.76871,198.634525 C113.801413,201.997934 114.532551,204.48045 115.962124,206.082074 C117.391698,207.683697 119.599127,208.482154 122.584413,208.477443 C124.81659,208.489747 127.031484,208.082384 129.115602,207.276225 C129.384585,207.153408 129.670476,207.072407 129.963535,207.035982 C130.099323,207.036531 130.226776,207.102099 130.306913,207.212632 C130.401436,207.327548 130.451254,207.473221 130.447067,207.622459 L130.447067,208.329057 C130.502781,208.742443 130.291512,209.145773 129.921489,209.332427 C127.563404,210.439536 124.989226,210.999699 122.388197,210.971736 L122.360166,211 Z M128.23263,196.444069 C128.260661,196.001267 128.274676,195.471318 128.274676,194.854222 C128.274676,192.550711 127.716395,190.807768 126.599833,189.625393 C125.485606,188.438307 123.859817,187.844764 121.694433,187.844764 C116.676911,187.844764 114.023324,190.711199 113.733671,196.444069 L128.23263,196.444069 Z M137.615957,210.279269 C137.424006,210.302291 137.232185,210.235282 137.095498,210.097459 C136.95881,209.959635 136.892355,209.766219 136.915186,209.572671 L136.915186,186.841394 C136.892355,186.647846 136.95881,186.45443 137.095498,186.316607 C137.232185,186.178783 137.424006,186.111774 137.615957,186.134796 L138.512945,186.134796 C139.024508,186.134796 139.297809,186.375039 139.325839,186.841394 L139.564102,189.667789 C140.558424,188.505412 141.764485,187.545972 143.117012,186.841394 C144.347748,186.265608 145.691762,185.978143 147.048339,186.000542 C147.552895,186.000542 147.973357,186.000542 148.295712,186.042938 C148.494372,186.041934 148.68412,186.125997 148.817754,186.274218 C148.951389,186.422439 149.016352,186.620886 148.996483,186.820196 L148.996483,188.014348 C148.993281,188.147358 148.943651,188.274966 148.856329,188.374713 C148.760235,188.487562 148.618308,188.550008 148.470905,188.544297 C148.218627,188.544297 147.973357,188.544297 147.770134,188.544297 C147.56691,188.544297 147.216524,188.544297 146.775038,188.544297 C145.434099,188.520435 144.104965,188.800546 142.885758,189.363951 C141.634855,190.009507 140.528275,190.906461 139.634179,191.999564 L139.634179,209.664529 C139.65701,209.858077 139.590554,210.051493 139.453867,210.189316 C139.31718,210.32714 139.125359,210.394148 138.933408,210.371127 L137.615957,210.279269 Z" id="Shape" fill="#535B64"></path>
        </g>
    </g>
</svg>