<?xml version="1.0" encoding="UTF-8"?>
<svg width="250px" height="206px" viewBox="0 0 250 206" version="1.1" xmlns="http://www.w3.org/2000/svg" xmlns:xlink="http://www.w3.org/1999/xlink">
    <!-- Generator: Sketch 58 (84663) - https://sketch.com -->
    <title>Group 11</title>
    <desc>Created with Sketch.</desc>
    <defs>
        <path d="M81.6098936,65.0466374 C92.1115111,65.0466374 100.705003,56.5676035 100.705003,46.2058584 C100.705003,37.0297772 93.9624969,29.1025723 85.1265935,27.4607526 C84.9274697,12.598952 72.671831,0.12556356 57.5626613,0.12556356 C47.9371887,0.12556356 38.8986984,5.25945374 33.9084822,12.6587477 C31.7163886,11.2185249 29.0827595,10.3762594 26.2500066,10.3762594 C18.6001887,10.3762594 12.3979143,16.4959249 12.3979143,24.0438539 C12.3979143,24.3052467 12.4221555,24.5598056 12.4377391,24.8194899 C12.420424,25.1304277 12.3979143,25.4447824 12.3979143,25.7523032 C5.4926463,29.0188583 0.277333544,36.7837604 0.277333544,44.8100553 C0.277333544,55.9406026 9.50629005,65.0466374 20.7870877,65.0466374" id="path-1"></path>
    </defs>
    <g id="desktop" stroke="none" stroke-width="1" fill="none" fill-rule="evenodd">
        <g id="cloud" transform="translate(-203.000000, -1038.000000)">
            <g id="Group-11" transform="translate(209.000000, 1045.000000)">
                <path d="M62.5,-3.46207799 L128,34.265922 L128,109.734078 L62.5,147.462078 L-3,109.734078 L-3,34.265922 L62.5,-3.46207799 Z" id="Polygon" stroke-opacity="0.0734812063" stroke="#000000" stroke-width="6" fill="#FFFFFF"></path>
                <g id="Group-10" transform="translate(9.000000, 23.000000)">
                    <g id="Group-3" transform="translate(56.242823, 33.551195) scale(-1, 1) rotate(-180.000000) translate(-56.242823, -33.551195) translate(5.742823, 0.551195)">
                        <mask id="mask-2" fill="white">
                            <use xlink:href="#path-1"></use>
                        </mask>
                        <use id="Shape" fill="#D9E6EA" fill-rule="nonzero" transform="translate(50.491168, 32.586100) scale(-1, 1) rotate(-180.000000) translate(-50.491168, -32.586100) " xlink:href="#path-1"></use>
                        <path d="M33.9084822,52.5134533 C42.3405307,59.2855298 51.302486,60.918753 60.794348,57.4131229 C68.7138906,54.4881976 73.5039259,48.1022346 75.1418814,38.3695547 C76.5899201,38.5714997 78.250524,38.615089 80.1236929,38.5003225 C81.9968618,38.3855561 83.6628571,38.1418631 85.1216787,37.7692434 C84.5958812,50.1646495 78.494807,58.722582 66.8184561,63.443041 C53.4920401,67.7215241 42.5220488,64.0783282 33.9084822,52.5134533 Z" id="Path-2" fill="#AEC9D2" opacity="0.464146205" mask="url(#mask-2)"></path>
                        <path d="M55.2571768,26.0155002 C65.6749828,35.0345104 75.6298168,37.7912005 85.1216787,34.2855703 L88.181555,36.9892774 C74.8247842,40.9804884 63.8499914,37.3225626 55.2571768,26.0155002 Z" id="Path-2" fill="#AEC9D2" opacity="0.464146205" mask="url(#mask-2)"></path>
                    </g>
                    <g id="send-(6)" transform="translate(0.000000, 48.636236)" fill-rule="nonzero">
                        <polygon id="Shape" fill="#A94D45" points="11.3072394 22.8537707 17.5415817 47.7731145 56.1237043 1.06443257"></polygon>
                        <polygon id="Shape" fill="#B07123" points="27.961586 35.2436029 17.5415817 47.7731145 19.4972813 30.6447247 25.7752571 31.2047445"></polygon>
                        <g id="Group" transform="translate(0.873741, 0.868395)" fill="#F9A53D">
                            <polygon id="Shape" points="55.249963 0.196037673 11.5915983 26.4683075 0.0185670017 19.9882362"></polygon>
                            <polygon id="Shape" points="55.249963 0.196037673 54.9440795 0.721797326 32.9306171 37.5808118 18.62354 29.7763298"></polygon>
                        </g>
                        <polygon id="Shape" fill="#B07123" points="33.8043584 38.4492067 56.1237043 1.06443257 40.9180325 42.3301721"></polygon>
                    </g>
                </g>
                <path d="M140,112.687059 L176,133.598823 L176,175.401177 L140,196.312941 L104,175.401177 L104,133.598823 L140,112.687059 Z" id="Polygon" stroke-opacity="0.0734812063" stroke="#000000" stroke-width="4" fill="#FFFFFF"></path>
                <g id="strategy-(2)" transform="translate(116.000000, 134.000000)" fill-rule="nonzero">
                    <path d="M29.3545189,47.5989783 C29.4400589,47.9460782 29.8024989,48.2299982 30.1599989,48.2299982 L36.1399987,48.2299982 C36.4974987,48.2299982 36.7200587,47.9459482 36.6345187,47.5989783 L30.4454789,22.4711492 C30.3599389,22.1240492 29.9974989,21.8399992 29.6399989,21.8399992 L23.6599991,21.8399992 C23.3024991,21.8399992 23.0799392,22.1240492 23.1654792,22.4710192 L29.3545189,47.5989783 Z" id="Path" fill="#F9A53D"></path>
                    <path d="M18.4854793,47.5989783 C18.3999393,47.9459482 18.0374993,48.2299982 17.6799994,48.2299982 L11.6999996,48.2299982 C11.3424996,48.2299982 11.1199396,47.9459482 11.2054796,47.5989783 L17.3945194,22.4711492 C17.4800594,22.1240492 17.8424993,21.8401292 18.1999993,21.8401292 L24.1799991,21.8401292 C24.5374991,21.8401292 24.7600591,22.1241792 24.6745191,22.4711492 L18.4854793,47.5989783 Z" id="Path" fill="#F9A53D"></path>
                    <polygon id="Path" fill="#B07123" points="23.0099992 21.8399992 17.5499994 21.8399992 14.2199195 35.3599987 21.4999192 35.3599987 23.9199991 25.5345991"></polygon>
                    <polygon id="Path" fill="#B07123" points="30.2899989 21.8399992 24.8299991 21.8399992 23.9199991 25.5345991 26.340079 35.3599987 33.6200788 35.3599987"></polygon>
                    <path d="M15.3403894,45.6301283 C15.3126994,45.6301283 15.2844894,45.6271383 15.2562794,45.6208983 C15.0459394,45.5747483 14.9128195,45.3667483 14.9590995,45.1564083 L16.2590994,39.2414086 C16.3053794,39.0309386 16.5128594,38.8974286 16.7237194,38.9442286 C16.9340594,38.9903786 17.0671794,39.1983786 17.0208994,39.4087186 L15.7208994,45.3237183 C15.6808594,45.5058483 15.5195294,45.6301283 15.3403894,45.6301283 Z" id="Path" fill="#B07123"></path>
                    <path d="M17.1602594,46.9301283 C17.1282794,46.9301283 17.0957794,46.9262283 17.0634094,46.9177783 C16.8547594,46.8644783 16.7287894,46.6520583 16.7820894,46.4434083 L21.2020892,29.1534089 C21.2555192,28.9448889 21.4675492,28.8185289 21.6765892,28.8722189 C21.8852392,28.9255189 22.0112092,29.1379389 21.9579092,29.3465889 L17.5379094,46.6365883 C17.4927994,46.8128683 17.3341994,46.9301283 17.1602594,46.9301283 Z" id="Path" fill="#B07123"></path>
                    <path d="M13.7802595,43.6368384 C13.7512695,43.6368384 13.7217595,43.6335884 13.6922495,43.6266984 C13.4824295,43.5783384 13.3515195,43.3689084 13.3998795,43.1589584 L15.2198794,35.2722487 C15.2683694,35.0625587 15.4775394,34.9313887 15.6876194,34.9800087 C15.8974394,35.0283687 16.0283494,35.2377987 15.9799894,35.4477487 L14.1599895,43.3344584 C14.1183895,43.5147684 13.9578395,43.6368384 13.7802595,43.6368384 Z" id="Path" fill="#B07123"></path>
                    <path d="M32.4996088,45.6301283 C32.3204688,45.6301283 32.1591388,45.5058483 32.1190988,45.3237183 L30.8190989,39.4087186 C30.7729489,39.1983786 30.9059389,38.9903786 31.1162789,38.9442286 C31.3263589,38.8974286 31.5346188,39.0309386 31.5808988,39.2414086 L32.8808988,45.1564083 C32.9270488,45.3667483 32.7940588,45.5747483 32.5837188,45.6208983 C32.5555088,45.6271383 32.5272988,45.6301283 32.4996088,45.6301283 Z" id="Path" fill="#B07123"></path>
                    <path d="M30.6797389,46.9301283 C30.5057989,46.9301283 30.3471989,46.8128683 30.3020889,46.6365883 L25.8820891,29.3465889 C25.8287891,29.1379389 25.954759,28.9255189 26.163409,28.8722189 C26.372319,28.8181389 26.584479,28.9448889 26.637909,29.1534089 L31.0579089,46.4434083 C31.1112089,46.6520583 30.9852389,46.8644783 30.7765889,46.9177783 C30.7442189,46.9262283 30.7117189,46.9301283 30.6797389,46.9301283 Z" id="Path" fill="#B07123"></path>
                    <path d="M34.0597388,43.6368384 C33.8821588,43.6368384 33.7216088,43.5148984 33.6800088,43.3344584 L31.8600088,35.4477487 C31.8115188,35.2379287 31.9424288,35.0283687 32.1523788,34.9800087 C32.3627188,34.9313887 32.5717588,35.0624287 32.6201188,35.2722487 L34.4401187,43.1589584 C34.4886087,43.3687784 34.3576987,43.5783384 34.1477487,43.6266984 C34.1182387,43.6335884 34.0887287,43.6368384 34.0597388,43.6368384 Z" id="Path" fill="#B07123"></path>
                    <rect id="Rectangle" fill="#597882" x="1.03999996" y="0" width="45.7599983" height="33.9299988"></rect>
                    <path d="M47.7099983,0.649999976 C47.7099983,1.00749996 47.4174983,1.29999995 47.0599983,1.29999995 L0.649999976,1.29999995 C0.292499989,1.29999995 0,1.00749996 0,0.649999976 L0,0.649999976 C0,0.292499989 0.292499989,0 0.649999976,0 L47.0599983,0 C47.4174983,0 47.7099983,0.292499989 47.7099983,0.649999976 L47.7099983,0.649999976 Z" id="Path" fill="#AEC9D2"></path>
                    <path d="M47.7099983,33.2799988 C47.7099983,33.6374988 47.4174983,33.9299988 47.0599983,33.9299988 L0.649999976,33.9299988 C0.292499989,33.9299988 0,33.6374988 0,33.2799988 L0,33.2799988 C0,32.9224988 0.292499989,32.6299988 0.649999976,32.6299988 L47.0599983,32.6299988 C47.4174983,32.6299988 47.7099983,32.9224988 47.7099983,33.2799988 L47.7099983,33.2799988 Z" id="Path" fill="#AEC9D2"></path>
                    <circle id="Oval" fill="#ECF0F1" cx="7.27999973" cy="9.57670965" r="1.55999994"></circle>
                    <circle id="Oval" fill="#ECF0F1" cx="10.0099996" cy="26.866709" r="1.55999994"></circle>
                    <circle id="Oval" fill="#ECF0F1" cx="11.5699996" cy="16.9867094" r="1.55999994"></circle>
                    <path d="M6.93341975,25.5235491 C6.86399975,25.5235491 6.79483975,25.4958591 6.74361975,25.4412591 C3.35919988,21.8281692 3.05993989,18.4094293 3.40469988,16.1778494 C3.77883986,13.7567295 4.94415982,12.2131096 4.99355982,12.1486296 C5.08104981,12.0344896 5.24419981,12.0132996 5.3580798,12.1002696 C5.4719598,12.1876296 5.4936698,12.3506495 5.4065698,12.4646595 C5.3930498,12.4823395 4.26347984,13.9864395 3.91494986,16.2810694 C3.44850987,19.3528393 4.52776983,22.3151492 7.12295974,25.0858391 C7.22110974,25.1906191 7.21577974,25.3550691 7.11099974,25.4533491 C7.06094974,25.5002791 6.99711974,25.5235491 6.93341975,25.5235491 Z" id="Path" fill="#ECF0F1"></path>
                    <path d="M7.27999973,25.956839 C7.26283973,25.956839 7.24567973,25.955149 7.22851973,25.951639 L4.75851983,25.4529591 C4.61772983,25.4246191 4.52672983,25.2874691 4.55519983,25.1468091 C4.58353983,25.0061491 4.72016983,24.9144991 4.86147982,24.9434891 L7.01999974,25.3791191 L7.01999974,23.1399992 C7.01999974,22.9964792 7.13647974,22.8799992 7.27999973,22.8799992 C7.42351973,22.8799992 7.53999972,22.9964792 7.53999972,23.1399992 L7.53999972,25.6968391 C7.53999972,25.7748391 7.50502972,25.8486791 7.44470973,25.8980791 C7.39777973,25.936429 7.33953973,25.956839 7.27999973,25.956839 Z" id="Path" fill="#ECF0F1"></path>
                    <path d="M24.1799991,13.3902595 C24.1134391,13.3902595 24.0468791,13.3649095 23.9961791,13.3140795 L21.3961792,10.7140796 C21.2946492,10.6125496 21.2946492,10.4479696 21.3961792,10.3464396 C21.4975792,10.2449096 21.6624192,10.2449096 21.7638192,10.3464396 L24.3638191,12.9464395 C24.4653491,13.0479695 24.4653491,13.2125495 24.3638191,13.3140795 C24.3131191,13.3649095 24.2465591,13.3902595 24.1799991,13.3902595 Z" id="Path" fill="#ECF0F1"></path>
                    <path d="M21.5799992,13.3902595 C21.5134392,13.3902595 21.4468792,13.3649095 21.3961792,13.3140795 C21.2946492,13.2125495 21.2946492,13.0479695 21.3961792,12.9464395 L23.9961791,10.3464396 C24.0975791,10.2449096 24.2624191,10.2449096 24.3638191,10.3464396 C24.4653491,10.4479696 24.4653491,10.6125496 24.3638191,10.7140796 L21.7638192,13.3140795 C21.7131192,13.3649095 21.6465592,13.3902595 21.5799992,13.3902595 Z" id="Path" fill="#ECF0F1"></path>
                    <g id="Group" transform="translate(29.119999, 19.239999)" fill="#ECF0F1">
                        <path d="M2.8599999,3.12025989 C2.7934399,3.12025989 2.7268799,3.09490989 2.6761799,3.04407989 L0.0761799972,0.444079984 C-0.0253499991,0.342549987 -0.0253499991,0.177969993 0.0761799972,0.0764399972 C0.177579993,-0.0250899991 0.342419987,-0.0250899991 0.443819984,0.0764399972 L3.04381989,2.6764399 C3.14534988,2.7779699 3.14534988,2.94254989 3.04381989,3.04407989 C2.99311989,3.09490989 2.92655989,3.12025989 2.8599999,3.12025989 Z" id="Path"></path>
                        <path d="M0.25999999,3.12025989 C0.193439993,3.12025989 0.126879995,3.09490989 0.0761799972,3.04407989 C-0.0253499991,2.94254989 -0.0253499991,2.7779699 0.0761799972,2.6764399 L2.6761799,0.0764399972 C2.7775799,-0.0250899991 2.94241989,-0.0250899991 3.04381989,0.0764399972 C3.14534988,0.177969993 3.14534988,0.342549987 3.04381989,0.444079984 L0.443819984,3.04407989 C0.393119986,3.09490989 0.326559988,3.12025989 0.25999999,3.12025989 Z" id="Path"></path>
                    </g>
                    <path d="M39.6499985,15.2102594 C39.5834385,15.2102594 39.5168786,15.1849094 39.4661786,15.1340794 L36.8661786,12.5340795 C36.7646487,12.4325495 36.7646487,12.2679696 36.8661786,12.1664396 C36.9675786,12.0649096 37.1324186,12.0649096 37.2338186,12.1664396 L39.8338185,14.7664395 C39.9353485,14.8679695 39.9353485,15.0325494 39.8338185,15.1340794 C39.7831185,15.1849094 39.7165585,15.2102594 39.6499985,15.2102594 Z" id="Path" fill="#ECF0F1"></path>
                    <path d="M37.0499986,15.2102594 C36.9834386,15.2102594 36.9168786,15.1849094 36.8661786,15.1340794 C36.7646487,15.0325494 36.7646487,14.8679695 36.8661786,14.7664395 L39.4661786,12.1664396 C39.5675785,12.0649096 39.7324185,12.0649096 39.8338185,12.1664396 C39.9353485,12.2679696 39.9353485,12.4325495 39.8338185,12.5340795 L37.2338186,15.1340794 C37.1831186,15.1849094 37.1165586,15.2102594 37.0499986,15.2102594 Z" id="Path" fill="#ECF0F1"></path>
                    <circle id="Oval" fill="#ECF0F1" cx="38.0899986" cy="27.256709" r="1.55999994"></circle>
                    <path d="M34.2603287,20.6701292 C34.1455387,20.6701292 34.0406288,20.5934292 34.0094288,20.4774692 C33.9722488,20.3388893 34.0542788,20.1964093 34.1928587,20.1590993 L34.1928587,20.1590993 C34.2984187,20.1303693 36.7825887,19.4283693 37.1833786,16.9239194 C37.2061286,16.7822194 37.3391186,16.6848494 37.4812086,16.7083794 C37.6230386,16.7309994 37.7194986,16.8643794 37.6968786,17.0062094 C37.2420086,19.8481393 34.4467487,20.6293092 34.3279287,20.6611592 C34.3053087,20.6672692 34.2825587,20.6701292 34.2603287,20.6701292 Z" id="Path" fill="#ECF0F1"></path>
                    <path d="M38.0899986,19.0452593 C37.9832686,19.0452593 37.8831686,18.9788293 37.8452086,18.8726193 L37.2782786,17.2850594 L35.5647487,17.7990793 C35.4275987,17.8398993 35.2823887,17.7624193 35.2410487,17.6246194 C35.1998387,17.4870794 35.2778387,17.3421294 35.4153787,17.3009194 L37.3653786,16.7159194 C37.4979786,16.6766594 37.6383786,16.7472494 37.6849186,16.8775094 L38.3349186,18.6976393 C38.3832786,18.8328393 38.3128186,18.9816893 38.1776186,19.0300493 C38.1484986,19.0403193 38.1189886,19.0452593 38.0899986,19.0452593 Z" id="Path" fill="#ECF0F1"></path>
                    <path d="M40.9931585,25.5667091 C40.9451885,25.5667091 40.8968285,25.5534491 40.8534085,25.5258891 C40.7323785,25.4485391 40.6968885,25.2878591 40.7742385,25.1668291 C40.7874985,25.1460291 42.1098585,23.0518592 42.8795884,19.9670893 C43.5865284,17.1338694 43.9584584,12.8568695 41.7163485,8.57050969 C41.6497885,8.44323969 41.6989285,8.2861997 41.8261985,8.2196397 C41.9534685,8.1533397 42.1106385,8.2023497 42.1770685,8.32961969 C44.4982184,12.7670395 44.1122484,17.1853494 43.3796984,20.1103493 C42.5876084,23.2729891 41.2681085,25.3596191 41.2123385,25.4468491 C41.1628085,25.5243291 41.0789585,25.5667091 40.9931585,25.5667091 Z" id="Path" fill="#ECF0F1"></path>
                    <path d="M40.9934185,10.7903896 C40.9679385,10.7903896 40.9419385,10.7866196 40.9163285,10.7785596 C40.7791785,10.7360496 40.7024785,10.5903196 40.7451185,10.4531696 L41.5251185,7.93961971 C41.5476085,7.86720971 41.6003885,7.80831971 41.6698085,7.77828971 C41.7392285,7.74786972 41.8183985,7.74968972 41.8865185,7.78257971 L44.4865184,9.03928967 C44.6158684,9.10168967 44.6699484,9.25729966 44.6075484,9.38651966 C44.5450184,9.51573965 44.3894084,9.56994965 44.2603184,9.50754965 L41.9322785,8.38226969 L41.2417185,10.6073496 C41.2071385,10.7187596 41.1043085,10.7903896 40.9934185,10.7903896 Z" id="Path" fill="#ECF0F1"></path>
                    <circle id="Oval" fill="#ECF0F1" cx="29.8999989" cy="6.84670975" r="1.55999994"></circle>
                    <circle id="Oval" fill="#ECF0F1" cx="19.3699993" cy="23.6167091" r="1.55999994"></circle>
                    <path d="M16.6399994,22.0999992 C16.5701894,22.0999992 16.5007694,22.0720492 16.4495494,22.0169292 L13.3890895,18.7236393 C13.2913295,18.6184693 13.2973095,18.4540193 13.4026095,18.3562593 C13.5079095,18.2584993 13.6723595,18.2646093 13.7699895,18.3697793 L16.8304494,21.6630692 C16.9282094,21.7682392 16.9222294,21.9326892 16.8169294,22.0304492 C16.7670094,22.0769892 16.7034394,22.0999992 16.6399994,22.0999992 Z" id="Path" fill="#ECF0F1"></path>
                    <path d="M17.1599994,22.3602592 C17.1502494,22.3602592 17.1403694,22.3597392 17.1304894,22.3585692 L14.6604895,22.0765992 C14.5178795,22.0602192 14.4154395,21.9313892 14.4316895,21.7887792 C14.4479395,21.6460392 14.5765095,21.5432092 14.7195095,21.5598492 L16.8118594,21.7987892 L16.2585794,19.6962993 C16.2220494,19.5574593 16.3049894,19.4152393 16.4438294,19.3787093 C16.5825394,19.3420493 16.7248894,19.4251193 16.7614194,19.5640893 L17.4114194,22.0340892 C17.4332594,22.1171592 17.4127194,22.2054292 17.3565594,22.2702992 C17.3068994,22.3278892 17.2350094,22.3602592 17.1599994,22.3602592 Z" id="Path" fill="#ECF0F1"></path>
                </g>
                <path d="M190,4.11427268 L241.5,33.8055992 L241.5,93.1944008 L190,122.885727 L138.5,93.1944008 L138.5,33.8055992 L190,4.11427268 Z" id="Polygon" stroke-opacity="0.0734812063" stroke="#000000" stroke-width="5" fill="#FFFFFF"></path>
                <g id="database-(7)" transform="translate(159.000000, 29.000000)" fill-rule="nonzero">
                    <g id="Group">
                        <path d="M58.1460023,9.60000038 L58.1460023,9.60000038 C57.2688023,4.24560017 44.7372018,0 29.4000012,0 C14.0628006,0 1.53120006,4.24560017 0.654000026,9.60000038 L0.654000026,9.60000038 L0.600000024,9.60000038 L0.600000024,10.2000004 L0.600000024,24 L0.600000024,24.600001 L0.600000024,25.200001 L0.600000024,38.4000015 L0.600000024,39 L0.600000024,39.6000016 L0.600000024,54 L0.654000026,54 C1.53120006,59.3532024 14.0640006,63.6000025 29.4000012,63.6000025 C44.7360018,63.6000025 57.2688023,59.3532024 58.1460023,54 L58.2000023,54 L58.2000023,39.6000016 L58.2000023,39 L58.2000023,38.4000015 L58.2000023,25.200001 L58.2000023,24.600001 L58.2000023,24 L58.2000023,10.2000004 L58.2000023,9.60000038 L58.1460023,9.60000038 Z" id="Path" fill="#545E73"></path>
                        <g transform="translate(0.000000, 37.200001)" id="Path">
                            <path d="M29.4000012,12.0000005 C13.4940005,12.0000005 0.600000024,7.4328003 0.600000024,1.80000007 L0.600000024,16.8000001 L0.654000026,16.8000001 C1.53120006,22.1532009 14.0640006,26.400001 29.4000012,26.400001 C44.7360018,26.400001 57.2688023,22.1532009 58.1460023,16.8000001 L58.2000023,16.8000001 L58.2000023,1.80000007 C58.2000023,7.4328003 45.3060018,12.0000005 29.4000012,12.0000005 Z" fill="#597882"></path>
                            <path d="M0.600000024,1.20000005 L0.600000024,1.80000007 C0.600000024,1.59840006 0.621600025,1.39920006 0.654000026,1.20000005 L0.600000024,1.20000005 Z" fill="#38454F"></path>
                            <path d="M58.1460023,1.20000005 C58.1784023,1.39920006 58.2000023,1.59840006 58.2000023,1.80000007 L58.2000023,1.20000005 L58.1460023,1.20000005 Z" fill="#38454F"></path>
                        </g>
                        <g transform="translate(0.000000, 22.800001)" id="Path">
                            <path d="M29.4000012,12.0000005 C13.4940005,12.0000005 0.600000024,7.4328003 0.600000024,1.80000007 L0.600000024,16.8000001 L0.654000026,16.8000001 C1.53120006,22.1532009 14.0640006,26.400001 29.4000012,26.400001 C44.7360018,26.400001 57.2688023,22.1532009 58.1460023,16.8000001 L58.2000023,16.8000001 L58.2000023,1.80000007 C58.2000023,7.4328003 45.3060018,12.0000005 29.4000012,12.0000005 Z" fill="#466872"></path>
                            <path d="M0.600000024,1.20000005 L0.600000024,1.80000007 C0.600000024,1.59840006 0.621600025,1.39920006 0.654000026,1.20000005 L0.600000024,1.20000005 Z" fill="#556080"></path>
                            <path d="M58.1460023,1.20000005 C58.1784023,1.39920006 58.2000023,1.59840006 58.2000023,1.80000007 L58.2000023,1.20000005 L58.1460023,1.20000005 Z" fill="#556080"></path>
                        </g>
                        <ellipse id="Oval" fill="#AEC9D2" cx="29.4000012" cy="10.2000004" rx="28.8000011" ry="10.2000004"></ellipse>
                        <g transform="translate(0.000000, 8.400000)" id="Path">
                            <path d="M29.4000012,12.0000005 C13.4940005,12.0000005 0.600000024,7.4328003 0.600000024,1.80000007 L0.600000024,16.8000001 L0.654000026,16.8000001 C1.53120006,22.1532009 14.0640006,26.400001 29.4000012,26.400001 C44.7360018,26.400001 57.2688023,22.1532009 58.1460023,16.8000001 L58.2000023,16.8000001 L58.2000023,1.80000007 C58.2000023,7.4328003 45.3060018,12.0000005 29.4000012,12.0000005 Z" fill="#375D68"></path>
                            <path d="M0.600000024,1.20000005 L0.600000024,1.80000007 C0.600000024,1.59840006 0.621600025,1.39920006 0.654000026,1.20000005 L0.600000024,1.20000005 Z" fill="#8697CB"></path>
                            <path d="M58.1460023,1.20000005 C58.1784023,1.39920006 58.2000023,1.59840006 58.2000023,1.80000007 L58.2000023,1.20000005 L58.1460023,1.20000005 Z" fill="#8697CB"></path>
                        </g>
                    </g>
                    <g id="Group" transform="translate(32.200001, 45.400002)" fill="#F9A53D">
                        <path d="M26.0540011,8.73320039 C25.9928011,4.0100002 22.2584009,0.200000048 17.6552007,0.200000048 C14.5736006,0.200000048 11.8880005,1.91120012 10.4252005,4.45520022 C9.92000043,4.28600021 9.38120041,4.19120021 8.82080039,4.19120021 C6.34520029,4.19120021 4.27880021,5.98160028 3.77120019,8.37200037 C1.66520011,9.41000041 0.200000048,11.6192005 0.200000048,14.1692006 C0.200000048,17.7068007 3.01160016,20.6000009 6.4496003,20.6000009 L19.3796008,20.6000009 C19.4528008,20.6000009 19.5224008,20.5916009 19.5956008,20.5892009 C19.6676008,20.5916009 19.7384008,20.6000009 19.8116008,20.6000009 L24.983601,20.6000009 C28.1840012,20.6000009 30.8024013,17.9060008 30.8024013,14.6132006 C30.8000013,11.6972005 28.7456012,9.25520041 26.0540011,8.73320039 Z" id="Path"></path>
                    </g>
                </g>
            </g>
        </g>
    </g>
</svg>