<?xml version="1.0" encoding="UTF-8"?>
<svg width="81px" height="66px" viewBox="0 0 81 66" version="1.1" xmlns="http://www.w3.org/2000/svg" xmlns:xlink="http://www.w3.org/1999/xlink">
    <!-- Generator: Sketch 48.2 (47327) - http://www.bohemiancoding.com/sketch -->
    <title>car</title>
    <desc>Created with Sketch.</desc>
    <defs></defs>
    <g id="Artboard-2" stroke="none" stroke-width="1" fill="none" fill-rule="evenodd" transform="translate(-481.000000, -19.000000)">
        <g id="car" transform="translate(482.000000, 19.000000)">
            <g id="Group" transform="translate(5.672465, 51.557529)" fill-rule="nonzero" stroke="#859DBA" stroke-width="2.5">
                <path d="M62.5517014,3.06906439 C59.2487466,3.80787273 55.9197243,4.40982154 52.5743001,4.89108908 L52.5743001,9.96932156 C52.5743001,11.3436013 53.6940302,12.4568422 55.0737028,12.4568422 L65.0711673,12.4568422 C66.4508399,12.4568422 67.57057,11.343747 67.57057,9.96932156 L67.57057,0.0717091551 C66.2745183,1.51682353 64.5486461,2.58896285 62.5517014,3.06906439 Z" id="Shape"></path>
                <path d="M5.10659009,3.06906439 C3.10832735,2.58896285 1.38260158,1.51682353 0.087867911,0.0717091551 L0.087867911,9.96932156 C0.087867911,11.3436013 1.20759799,12.4568422 2.58727064,12.4568422 L12.5847351,12.4568422 C13.9644078,12.4568422 15.0841378,11.343747 15.0841378,9.96932156 L15.0841378,4.89108908 C11.7398851,4.41113329 8.41071644,3.80903874 5.10659009,3.06906439 Z" id="Shape"></path>
            </g>
            <path d="M72.4599505,23.6299303 L66.8133007,22.4574345 C51.2985874,19.330384 35.3254674,19.330384 19.87877,22.4574345 L14.2321201,23.6299303 C9.92380541,24.5245155 6.83417085,28.3324989 6.83417085,32.7470886 L6.83417085,40.0889943 C6.83417085,44.6766675 9.96526415,48.666618 14.4084304,49.7430222 C19.1158408,50.8056567 23.8737098,51.5888999 28.6553328,52.1234005 L29.944537,48.9715182 C30.4166649,46.6100918 32.483995,44.909462 34.8835851,44.909462 L51.8059773,44.909462 C54.2068953,44.909462 56.2728975,46.6100918 56.7438451,48.9727027 L58.0318691,52.1170339 C62.8148199,51.5838658 67.5738693,50.8068412 72.2812796,49.7442067 C76.7256262,48.6664699 79.8567195,44.6765194 79.8567195,40.0888463 L79.8567195,32.7469405 C79.8567195,28.3324989 76.7670849,24.5245155 72.4599505,23.6299303 Z" id="Shape" fill="#FFEFF0" fill-rule="nonzero"></path>
            <path d="M14.6442191,23.8988789 L72.5921086,23.8988789 C73.9303231,24.1771388 75.149458,24.7386748 76.1943049,25.5116352 L68.0576846,5.00494633 C66.9200407,2.13441414 64.1534577,0.249742154 61.076181,0.249742154 L26.1613214,0.249742154 C23.0840447,0.249742154 20.3176085,2.13441414 19.1786432,5.00627419 L11.041876,25.5116352 C12.0868698,24.7386748 13.3073261,24.1771388 14.6442191,23.8988789 Z" id="Shape" fill="#FFEFF0" fill-rule="nonzero"></path>
            <ellipse id="Oval-7" fill="#859DBA" cx="29.5745394" cy="15.2564005" rx="2.12034532" ry="2.12122766"></ellipse>
            <ellipse id="Oval-7" fill="#859DBA" cx="37.284886" cy="15.2564005" rx="2.12034532" ry="2.12122766"></ellipse>
            <ellipse id="Oval-7" fill="#859DBA" cx="44.9952326" cy="15.2564005" rx="2.12034532" ry="2.12122766"></ellipse>
            <g id="Group" transform="translate(0.000000, 2.810390)" fill="#859DBA" fill-rule="nonzero" stroke="#859DBA">
                <path d="M39.5247191,55.1627294 C34.6028239,55.1627294 29.6796097,54.0854642 24.792738,53.5395124 C24.4438222,53.5006207 24.1287576,53.3165821 23.9211081,53.0336264 C23.7147774,52.7493499 23.635938,53.195395 23.7048126,52.8522672 L24.9891038,50.0877702 C26.4257984,46.9742422 27.6682239,45.0532727 31.120261,45.0532727 L47.9293238,45.0532727 C50.9172817,45.0532727 52.622321,46.999923 54.0591621,50.0877702 L55.3434533,52.8522672 C55.4121814,53.195395 55.3334885,52.7506707 55.1271578,53.0336264 C54.9208271,53.3167288 54.6044437,53.5007674 54.2568468,53.5395124 C49.3685096,54.0854642 44.4479332,55.1627294 39.5247191,55.1627294 Z M25.1376021,53.3868156 C33.8360228,54.2672363 45.3107425,54.5356563 54.0104821,53.6552357 L53.024331,50.5097237 C52.1666928,48.6066441 50.5826005,46.109522 48.3313339,46.109522 L30.7182509,46.109522 C28.6671639,46.109522 27.4768373,47.5523559 26.0237883,50.522798 L25.1376021,53.3868156 Z" id="Shape" stroke-width="2.24399996"></path>
                <path d="M39.5184178,55.1489338 C29.7558114,55.1489338 19.998334,54.0794847 10.509614,51.9429346 C5.49759558,50.7318609 2.01005025,46.2960025 2.01005025,41.1526081 L2.01005025,33.8751586 C2.01005025,28.9307725 5.520163,25.0154217 10.3545729,24.0134827 C21.7075091,24.013451 30.5434758,24.0134271 36.8624728,24.0134112 C43.5082457,24.0133945 54.119434,24.0133694 68.6960377,24.013336 C73.5304476,25.015275 77.0392414,28.9306258 77.0392414,33.8750119 L77.0392414,41.1524614 C77.0392414,46.2958557 73.5516961,50.7317141 68.5584351,51.9391188 C59.0560867,54.0794847 49.2860066,55.1489338 39.5184178,55.1489338 Z M9.68627366,25.0170465 C5.8565692,25.8335161 3.0760863,29.3560756 3.0760863,33.3916826 L3.0760863,41.1955139 C3.0760863,45.4660841 5.88646851,49.5512813 9.91158629,50.5543995 C29.2774888,55.0479723 49.7708696,55.0479723 69.1576711,50.5490487 C73.1631103,49.549865 75.973645,45.4646677 75.973645,41.1955139 L75.973645,33.3916826 C75.973645,29.3560756 73.1931621,25.8335161 69.3634576,25.0170465 C54.4802593,25.0170465 43.6522916,25.0170465 36.8795545,25.0170465 C30.3906952,25.0170465 21.3262682,25.0170465 9.68627366,25.0170465 Z" id="Shape" stroke-width="2.2"></path>
                <path d="M72.3604841,26.0445736 C72.1003726,26.0445736 71.9788996,25.8695083 71.758794,25.7054292 C70.8284009,25.0203478 70.52487,25.0938635 69.3944475,24.8609535 L9.4136366,24.8609535 C8.28072291,25.0963585 7.65825777,25.360813 6.73035588,26.0445736 C6.28017985,26.3788957 6.22812908,26.9091337 5.78659901,26.5648319 C5.34389661,26.2241991 5.64384417,26.4977647 5.85149373,25.9792573 L13.9722472,5.58047258 C15.3053368,2.22785887 18.4965749,0.0613694791 22.1016466,0.0613694791 L56.9477916,0.0613694791 C60.5530099,0.0613694791 63.7442479,2.22800563 65.077191,5.58047258 L73.197798,25.9801379 C73.4054475,26.4986453 73.2427863,25.8890159 72.8014027,26.2296488 C72.5764613,26.4038544 72.6305604,26.0445736 72.3604841,26.0445736 Z M9.40118056,24.8380419 L9.4136366,24.8380419 L9.40118056,24.8380419 Z M21.584505,0.994660915 C17.7123916,0.994660915 15.751928,4.00359721 14.7871762,6.42778224 L6.73035588,25.5686933 C7.05065408,25.4697409 7.87248423,24.8168206 8.2040574,24.7483265 L70.3718299,24.7483265 C70.7035514,24.8168206 71.5522481,25.2105446 71.8725463,25.3081598 L64.2632181,6.42644504 C63.2986147,4.00226001 61.2366556,1.25563957 57.1645931,0.994660915 L21.584505,0.994660915 Z" id="Shape" stroke-width="2.2"></path>
                <path d="M15.4740063,19.9689443 C15.1076521,19.9689443 14.7524351,19.8073602 14.5123998,19.5180938 C14.2197561,19.1649863 14.1422355,18.6802339 14.3123704,18.2531587 L18.6177648,7.43656195 C19.1879585,6.00006296 20.5560716,5.07091756 22.1016466,5.07091756 L56.9477916,5.07091756 C58.4933666,5.07091756 59.8614797,5.99888887 60.4328457,7.43656195 L64.7382401,18.2531587 C64.908375,18.678913 64.8307079,19.1648395 64.5382107,19.5167729 C64.2468859,19.8698805 63.8739812,19.943484 63.3339313,19.9450222 C60.4972624,19.9531022 49.867327,19.9590816 31.4441251,19.9629606 L27.7902332,22.7320066 L25.8813635,19.9587371 C20.5430438,19.9536976 17.1555973,19.949126 15.719024,19.9450222 C15.6198097,19.9447388 15.5553369,19.9689443 15.4740063,19.9689443 Z M63.8828419,18.6681281 L59.441789,7.60820443 C58.8814679,6.37109218 58.4333288,5.9968469 56.9477916,6.07823196 L22.1016466,6.07823196 C20.3688616,5.96538293 19.6672817,7.15875974 19.5236927,7.60820443 L14.9696235,18.6119695 C14.8738566,18.8393237 15.0325424,19.1121379 15.3662845,19.1134327 C16.3468276,19.1172369 19.9776117,19.1172369 26.2586369,19.1134327 L27.965413,21.6120741 L31.0985101,19.1134327 C51.078978,19.0680828 61.8684069,19.0454078 63.4667969,19.0454078 C63.6993962,19.0454078 64.005771,19.0454078 63.8828419,18.6681281 Z" id="Shape" stroke-width="1.01999998"></path>
                <path d="M19.4256491,40.0003456 C19.1393067,40.0003456 18.8529642,39.9665905 18.5727766,39.8964387 L10.9048369,37.7824898 C9.10662396,37.3329601 7.96242656,35.5244214 8.33127195,33.6734687 L8.75140694,31.5670046 C9.1102875,29.7760772 10.7546316,28.5638294 12.5591458,28.7466939 L21.3800754,29.880131 C23.1545486,30.0580056 24.5200239,31.5683255 24.5200239,33.3891922 L24.5200239,35.9465067 C24.5213428,37.4668064 23.5546073,38.813194 22.1116115,39.2966255 L20.543469,39.8201228 C20.1784337,39.9401735 19.8019681,40.0003456 19.4256491,40.0003456 Z M21.7152162,38.1080062 L21.7276723,38.1080062 L21.7152162,38.1080062 Z M9.58483825,31.7086212 L9.19185773,33.8424863 C8.75140694,35.7038597 10.3827004,36.8337859 11.0413395,36.9987835 L19.4256491,39.2966255 C20.1491834,39.2966255 23.297935,38.9906197 23.6735435,35.9465067 L23.6735435,33.3891922 C23.6735435,32.7310248 23.3496584,30.8085163 21.3800754,30.6638408 L12.5591458,29.6265099 C12.5218266,29.6186702 10.1143412,29.3326501 9.58483825,31.7086212 Z" id="Shape" stroke-width="1.5"></path>
                <path d="M64.8527848,40.0003456 C64.5664423,40.0003456 64.2800999,39.9665905 63.9999122,39.8964387 L56.3319725,37.7824898 C54.5337596,37.3329601 53.3895622,35.5244214 53.7584076,33.6734687 L54.1785426,31.5670046 C54.5374232,29.7760772 56.1817673,28.5638294 57.9862815,28.7466939 L66.8072111,29.880131 C68.5816842,30.0580056 69.9471596,31.5683255 69.9471596,33.3891922 L69.9471596,35.9465067 C69.9484785,37.4668064 68.981743,38.813194 67.5387471,39.2966255 L65.9706047,39.8201228 C65.6055694,39.9401735 65.2291038,40.0003456 64.8527848,40.0003456 Z M67.1423519,38.1080062 L67.154808,38.1080062 L67.1423519,38.1080062 Z M55.0119739,31.7086212 L54.6189934,33.8424863 C54.1785426,35.7038597 55.8098361,36.8337859 56.4684752,36.9987835 L64.8527848,39.2966255 C65.5763191,39.2966255 68.7250707,38.9906197 69.1006792,35.9465067 L69.1006792,33.3891922 C69.1006792,32.7310248 69.1006792,31.117765 66.8072111,30.6638408 L57.9862815,29.6265099 C57.9489623,29.6186702 55.5414769,29.3326501 55.0119739,31.7086212 Z" id="Shape" stroke-width="1.5" transform="translate(61.818245, 34.364413) scale(-1, 1) translate(-61.818245, -34.364413) "></path>
                <path d="M74.8959613,23.8562092 L72.1173846,23.8562092 C71.6059541,23.8562092 71.1458133,23.5431675 70.9557487,23.0685417 L68.9599976,18.0591403 C68.8061289,17.6734518 68.8537549,17.2363968 69.0863166,16.8919482 C69.3201971,16.5488204 69.7077998,16.3421806 70.1229524,16.3421806 L74.8959613,16.3421806 C76.9642505,16.3421806 78.6474282,18.0278802 78.6474282,20.0992683 C78.6474282,22.1705096 76.9642505,23.8562092 74.8959613,23.8562092 Z M72.240493,22.5844174 L75.4530965,22.5844174 C76.601587,22.5844174 77.6960977,21.638098 77.5337907,20.0991215 C77.3714837,18.560145 76.199577,17.6138257 75.0510864,17.6138257 L70.1779266,17.6138257 L72.240493,22.5844174 Z" id="Shape" stroke-width="1.93799996"></path>
                <path d="M6.15224269,23.8562092 L3.37366599,23.8562092 C2.86223554,23.8562092 2.40209468,23.5431675 2.21203013,23.0685417 L0.216279056,18.0591403 C0.0624102971,17.6734518 0.110036342,17.2363968 0.34259798,16.8919482 C0.576478494,16.5488204 0.964081225,16.3421806 1.37923379,16.3421806 L6.15224269,16.3421806 C8.2205319,16.3421806 9.90370958,18.0278802 9.90370958,20.0992683 C9.90370958,22.1705096 8.2205319,23.8562092 6.15224269,23.8562092 Z M3.4967744,22.5844174 L6.7093779,22.5844174 C7.85786842,22.5844174 8.95237908,21.638098 8.79007207,20.0991215 C8.62776506,18.560145 7.45585836,17.6138257 6.30736785,17.6138257 L1.434208,17.6138257 L3.4967744,22.5844174 Z" id="Shape" stroke-width="1.93799996" transform="translate(5.015460, 20.099195) scale(-1, 1) translate(-5.015460, -20.099195) "></path>
            </g>
        </g>
    </g>
</svg>