<?xml version="1.0" encoding="UTF-8"?>
<svg width="252px" height="260px" viewBox="0 0 252 260" version="1.1" xmlns="http://www.w3.org/2000/svg" xmlns:xlink="http://www.w3.org/1999/xlink">
    <!-- Generator: Sketch 49.3 (51167) - http://www.bohemiancoding.com/sketch -->
    <title>mobile</title>
    <desc>Created with Sketch.</desc>
    <defs></defs>
    <g id="desktop" stroke="none" stroke-width="1" fill="none" fill-rule="evenodd">
        <g id="Group-14" transform="translate(521.000000, 110.000000) scale(-1, 1) translate(-521.000000, -110.000000) translate(-199.000000, -40.000000)">
            <g id="mobile" transform="translate(1115.000000, 170.500000) scale(-1, 1) translate(-1115.000000, -170.500000) translate(989.000000, 40.000000)">
                <path d="M41.3499985,0.149999678 L211.449994,0.149999678 C233.817526,0.149999678 251.949993,18.3806896 251.949993,40.8693853 L251.949993,260 L0.849999607,260 L0.849999607,40.8693853 C0.849999607,18.3806896 18.9824668,0.149999678 41.3499985,0.149999678 Z" id="Rectangle-7" fill="#FFFFFF" fill-rule="nonzero"></path>
                <path d="M41.3499985,1.24349966 C19.5863901,1.24349966 1.94349959,18.8863902 1.94349959,40.6499986 L1.94349959,241.599988 C1.94349959,256.10906 1.94349959,261.911227 1.94349959,259.006487 L250.856493,259.006487 C250.856493,261.911227 250.856493,256.10906 250.856493,241.599988 L250.856493,40.6499986 C250.856493,18.8863902 233.213602,1.24349966 211.449994,1.24349966 L41.3499985,1.24349966 Z M41.3499985,0.149999678 L211.449994,0.149999678 C233.817526,0.149999678 251.949993,18.2824668 251.949993,40.6499986 L251.949993,241.599988 C251.949993,256.511676 251.949993,262.678342 251.949993,260.099987 L0.849999607,260.099987 C0.849999607,262.678342 0.849999607,256.511676 0.849999607,241.599988 L0.849999607,40.6499986 C0.849999607,18.2824668 18.9824668,0.149999678 41.3499985,0.149999678 Z" id="Rectangle-7" fill="#759DE6" fill-rule="nonzero"></path>
                <path d="M93,38 C95.209139,38 97,36.209139 97,34 C97,31.790861 95.209139,30 93,30 C90.790861,30 89,31.790861 89,34 C89,36.209139 90.790861,38 93,38 Z M93,39 C90.2385763,39 88,36.7614237 88,34 C88,31.2385763 90.2385763,29 93,29 C95.7614237,29 98,31.2385763 98,34 C98,36.7614237 95.7614237,39 93,39 Z" id="Oval-6" fill="#759DE6" fill-rule="nonzero"></path>
                <path d="M120,33 C119.447715,33 119,33.4477153 119,34 C119,34.5522847 119.447715,35 120,35 L162,35 C162.552285,35 163,34.5522847 163,34 C163,33.4477153 162.552285,33 162,33 L120,33 Z M120,32 L162,32 C163.104569,32 164,32.8954305 164,34 C164,35.1045695 163.104569,36 162,36 L120,36 C118.895431,36 118,35.1045695 118,34 C118,32.8954305 118.895431,32 120,32 Z" id="Rectangle-12" fill="#759DE6" fill-rule="nonzero"></path>
                <polygon id="Rectangle-8" fill="#E7ECED" fill-rule="nonzero" points="16.7934992 66.0434979 16.7934992 259.043498 236.006493 259.043498 236.006493 66.0434979"></polygon>
                <path d="M16.7934992,65.5484468 L16.7934992,259.009338 L236.006493,259.009338 L236.006493,65.5484468 L16.7934992,65.5484468 Z M15.6999992,64.949998 L237.099993,64.949998 L237.099993,260 L15.6999992,260 L15.6999992,64.949998 Z" id="Rectangle-8" fill="#759DE6" fill-rule="nonzero"></path>
                <path d="M72.4674999,141.899996 L220.832494,141.899996 C223.852111,141.899996 226.299994,144.347879 226.299994,147.367496 L226.299994,163.432495 C226.299994,166.452112 223.852111,168.899995 220.832494,168.899995 L72.4674999,168.899995 C69.4478831,168.899995 67,166.452112 67,163.432495 L67,147.367496 C67,144.347879 69.4478831,141.899996 72.4674999,141.899996 Z" id="Rectangle-11" fill="#45BBFF"></path>
                <path d="M78.5268555,159 L78.5268555,151.147461 L79.8105469,151.147461 L79.8105469,159 L78.5268555,159 Z M89.4785156,159 L88.7104492,156.228516 C88.6173498,155.934894 88.4490572,155.252772 88.2055664,154.182129 L88.1572266,154.182129 C87.9495432,155.148931 87.7848313,155.834633 87.6630859,156.239258 L86.8735352,159 L85.4770508,159 L83.8120117,153.05957 L85.1010742,153.05957 L85.8583984,155.986816 C86.0302743,156.710127 86.1520179,157.329587 86.2236328,157.845215 L86.2558594,157.845215 C86.2916668,157.58382 86.3462724,157.283937 86.4196777,156.945557 C86.493083,156.607176 86.5566404,156.353842 86.6103516,156.185547 L87.5126953,153.05957 L88.8984375,153.05957 L89.7739258,156.185547 C89.827637,156.361003 89.894775,156.629555 89.9753418,156.991211 C90.0559086,157.352866 90.1033528,157.633951 90.1176758,157.834473 L90.1606445,157.834473 C90.2143557,157.394041 90.33968,156.778162 90.5366211,155.986816 L91.3046875,153.05957 L92.5722656,153.05957 L90.8964844,159 L89.4785156,159 Z M94.8549805,159 L93.5927734,159 L93.5927734,153.05957 L94.8549805,153.05957 L94.8549805,159 Z M93.5175781,151.48584 C93.5175781,151.260253 93.5793451,151.086589 93.7028809,150.964844 C93.8264166,150.843098 94.0027658,150.782227 94.2319336,150.782227 C94.4539399,150.782227 94.6267084,150.843098 94.7502441,150.964844 C94.8737799,151.086589 94.9355469,151.260253 94.9355469,151.48584 C94.9355469,151.700685 94.8737799,151.869872 94.7502441,151.993408 C94.6267084,152.116944 94.4539399,152.178711 94.2319336,152.178711 C94.0027658,152.178711 93.8264166,152.116944 93.7028809,151.993408 C93.5793451,151.869872 93.5175781,151.700685 93.5175781,151.48584 Z M97.921875,159 L96.659668,159 L96.659668,150.642578 L97.921875,150.642578 L97.921875,159 Z M100.98877,159 L99.7265625,159 L99.7265625,150.642578 L100.98877,150.642578 L100.98877,159 Z M108.685547,152.952148 C109.426762,152.952148 110.004148,153.2207 110.417725,153.757812 C110.831301,154.294925 111.038086,155.048661 111.038086,156.019043 C111.038086,156.993006 110.828615,157.751218 110.409668,158.293701 C109.990721,158.836184 109.408858,159.107422 108.664062,159.107422 C107.912106,159.107422 107.328453,158.83708 106.913086,158.296387 L106.827148,158.296387 L106.596191,159 L105.650879,159 L105.650879,150.642578 L106.913086,150.642578 L106.913086,152.629883 C106.913086,152.776693 106.905925,152.995116 106.891602,153.285156 C106.877279,153.575197 106.866536,153.759602 106.859375,153.838379 L106.913086,153.838379 C107.31413,153.247556 107.904944,152.952148 108.685547,152.952148 Z M108.35791,153.983398 C107.849444,153.983398 107.483318,154.132892 107.259521,154.431885 C107.035725,154.730877 106.920247,155.231279 106.913086,155.933105 L106.913086,156.019043 C106.913086,156.742354 107.027668,157.26603 107.256836,157.590088 C107.486004,157.914146 107.860186,158.076172 108.379395,158.076172 C108.826988,158.076172 109.166259,157.898928 109.397217,157.544434 C109.628175,157.18994 109.743652,156.6779 109.743652,156.008301 C109.743652,154.658359 109.281743,153.983398 108.35791,153.983398 Z M115.098633,159.107422 C114.1748,159.107422 113.452395,158.837975 112.931396,158.299072 C112.410398,157.76017 112.149902,157.018071 112.149902,156.072754 C112.149902,155.102371 112.391599,154.339684 112.875,153.784668 C113.358401,153.229652 114.022619,152.952148 114.867676,152.952148 C115.651859,152.952148 116.271319,153.190265 116.726074,153.666504 C117.180829,154.142743 117.408203,154.79801 117.408203,155.632324 L117.408203,156.314453 L113.449707,156.314453 C113.467611,156.890953 113.623371,157.334064 113.916992,157.643799 C114.210613,157.953533 114.624184,158.108398 115.157715,158.108398 C115.508628,158.108398 115.835366,158.075277 116.137939,158.009033 C116.440513,157.942789 116.765461,157.832683 117.112793,157.678711 L117.112793,158.70459 C116.804849,158.8514 116.493328,158.955241 116.178223,159.016113 C115.863117,159.076986 115.503257,159.107422 115.098633,159.107422 Z M114.867676,153.908203 C114.466632,153.908203 114.145265,154.035318 113.903564,154.289551 C113.661864,154.543784 113.517741,154.914386 113.471191,155.401367 L116.16748,155.401367 C116.160319,154.910805 116.042156,154.539308 115.812988,154.286865 C115.58382,154.034423 115.268719,153.908203 114.867676,153.908203 Z M126.925781,159 L125.658203,159 L125.658203,155.347656 C125.658203,154.889321 125.566,154.547364 125.381592,154.321777 C125.197183,154.09619 124.904462,153.983398 124.503418,153.983398 C123.973467,153.983398 123.584067,154.141844 123.335205,154.45874 C123.086343,154.775636 122.961914,155.306474 122.961914,156.05127 L122.961914,159 L121.699707,159 L121.699707,150.642578 L122.961914,150.642578 L122.961914,152.76416 C122.961914,153.104331 122.94043,153.467772 122.897461,153.854492 L122.978027,153.854492 C123.149903,153.568032 123.388914,153.346029 123.695068,153.188477 C124.001222,153.030924 124.358396,152.952148 124.766602,152.952148 C126.206062,152.952148 126.925781,153.677239 126.925781,155.127441 L126.925781,159 Z M132.398926,159 L132.146484,158.172852 L132.103516,158.172852 C131.817056,158.534507 131.52881,158.78068 131.23877,158.911377 C130.948729,159.042074 130.576337,159.107422 130.121582,159.107422 C129.53792,159.107422 129.082277,158.949871 128.754639,158.634766 C128.427,158.31966 128.263184,157.873864 128.263184,157.297363 C128.263184,156.685056 128.490558,156.223146 128.945312,155.911621 C129.400067,155.600096 130.092932,155.430013 131.023926,155.401367 L132.049805,155.369141 L132.049805,155.052246 C132.049805,154.672687 131.961183,154.388917 131.783936,154.200928 C131.606689,154.012939 131.33187,153.918945 130.959473,153.918945 C130.655109,153.918945 130.363283,153.963704 130.083984,154.053223 C129.804686,154.142741 129.536134,154.248372 129.27832,154.370117 L128.870117,153.467773 C129.192384,153.299478 129.545083,153.171469 129.928223,153.08374 C130.311363,152.996012 130.673013,152.952148 131.013184,152.952148 C131.768721,152.952148 132.338947,153.11686 132.723877,153.446289 C133.108807,153.775718 133.30127,154.293128 133.30127,154.998535 L133.30127,159 L132.398926,159 Z M130.519043,158.140625 C130.977379,158.140625 131.345295,158.012615 131.622803,157.756592 C131.900311,157.500568 132.039062,157.141604 132.039062,156.679688 L132.039062,156.164062 L131.276367,156.196289 C130.681963,156.217774 130.249594,156.317138 129.979248,156.494385 C129.708902,156.671632 129.57373,156.942869 129.57373,157.308105 C129.57373,157.573081 129.652506,157.778075 129.810059,157.923096 C129.967611,158.068116 130.203937,158.140625 130.519043,158.140625 Z M138.076172,159.107422 C137.324215,159.107422 136.740562,158.83708 136.325195,158.296387 L136.25,158.296387 C136.30013,158.797691 136.325195,159.10205 136.325195,159.209473 L136.325195,161.642578 L135.062988,161.642578 L135.062988,153.05957 L136.083496,153.05957 C136.112142,153.170573 136.171224,153.435545 136.260742,153.854492 L136.325195,153.854492 C136.719077,153.252927 137.309892,152.952148 138.097656,152.952148 C138.838871,152.952148 139.416258,153.2207 139.829834,153.757812 C140.24341,154.294925 140.450195,155.048661 140.450195,156.019043 C140.450195,156.989425 140.23983,157.746742 139.819092,158.291016 C139.398354,158.835289 138.817387,159.107422 138.076172,159.107422 Z M137.77002,153.983398 C137.268715,153.983398 136.902589,154.130207 136.671631,154.423828 C136.440673,154.717449 136.325195,155.18652 136.325195,155.831055 L136.325195,156.019043 C136.325195,156.742354 136.439777,157.26603 136.668945,157.590088 C136.898113,157.914146 137.272296,158.076172 137.791504,158.076172 C138.228355,158.076172 138.56494,157.897137 138.80127,157.539062 C139.037599,157.180988 139.155762,156.670739 139.155762,156.008301 C139.155762,155.342282 139.038494,154.838299 138.803955,154.496338 C138.569416,154.154377 138.224774,153.983398 137.77002,153.983398 Z M144.929688,159.107422 C144.177731,159.107422 143.594078,158.83708 143.178711,158.296387 L143.103516,158.296387 C143.153646,158.797691 143.178711,159.10205 143.178711,159.209473 L143.178711,161.642578 L141.916504,161.642578 L141.916504,153.05957 L142.937012,153.05957 C142.965658,153.170573 143.024739,153.435545 143.114258,153.854492 L143.178711,153.854492 C143.572593,153.252927 144.163408,152.952148 144.951172,152.952148 C145.692387,152.952148 146.269773,153.2207 146.68335,153.757812 C147.096926,154.294925 147.303711,155.048661 147.303711,156.019043 C147.303711,156.989425 147.093345,157.746742 146.672607,158.291016 C146.25187,158.835289 145.670902,159.107422 144.929688,159.107422 Z M144.623535,153.983398 C144.122231,153.983398 143.756105,154.130207 143.525146,154.423828 C143.294188,154.717449 143.178711,155.18652 143.178711,155.831055 L143.178711,156.019043 C143.178711,156.742354 143.293293,157.26603 143.522461,157.590088 C143.751629,157.914146 144.125811,158.076172 144.64502,158.076172 C145.081871,158.076172 145.418456,157.897137 145.654785,157.539062 C145.891114,157.180988 146.009277,156.670739 146.009277,156.008301 C146.009277,155.342282 145.89201,154.838299 145.657471,154.496338 C145.422932,154.154377 145.07829,153.983398 144.623535,153.983398 Z M147.647461,153.05957 L149.022461,153.05957 L150.230957,156.427246 C150.413575,156.907066 150.535319,157.358234 150.596191,157.780762 L150.63916,157.780762 C150.671387,157.583821 150.730468,157.344809 150.816406,157.063721 C150.902344,156.782632 151.357092,155.447929 152.180664,153.05957 L153.544922,153.05957 L151.004395,159.789551 C150.542478,161.024909 149.772629,161.642578 148.694824,161.642578 C148.415526,161.642578 148.143393,161.612142 147.878418,161.55127 L147.878418,160.552246 C148.068198,160.595215 148.28483,160.616699 148.52832,160.616699 C149.137047,160.616699 149.56494,160.264001 149.812012,159.558594 L150.032227,159 L147.647461,153.05957 Z M159.517578,158.086914 C159.825522,158.086914 160.133462,158.038575 160.441406,157.941895 L160.441406,158.892578 C160.301757,158.953451 160.121827,159.004476 159.901611,159.045654 C159.681395,159.086833 159.453126,159.107422 159.216797,159.107422 C158.020827,159.107422 157.422852,158.47722 157.422852,157.216797 L157.422852,154.015625 L156.611816,154.015625 L156.611816,153.457031 L157.481934,152.995117 L157.911621,151.738281 L158.69043,151.738281 L158.69043,153.05957 L160.382324,153.05957 L160.382324,154.015625 L158.69043,154.015625 L158.69043,157.195312 C158.69043,157.499676 158.766519,157.724365 158.918701,157.869385 C159.070883,158.014405 159.270507,158.086914 159.517578,158.086914 Z M166.897461,156.019043 C166.897461,156.989425 166.648603,157.746742 166.150879,158.291016 C165.653155,158.835289 164.960291,159.107422 164.072266,159.107422 C163.51725,159.107422 163.026695,158.982098 162.600586,158.731445 C162.174477,158.480793 161.846844,158.120933 161.617676,157.651855 C161.388508,157.182778 161.273926,156.638512 161.273926,156.019043 C161.273926,155.055822 161.520994,154.303876 162.015137,153.763184 C162.50928,153.222491 163.205725,152.952148 164.104492,152.952148 C164.963871,152.952148 165.644203,153.228757 166.145508,153.781982 C166.646812,154.335208 166.897461,155.080887 166.897461,156.019043 Z M162.57373,156.019043 C162.57373,157.390469 163.080399,158.076172 164.09375,158.076172 C165.096359,158.076172 165.597656,157.390469 165.597656,156.019043 C165.597656,154.66194 165.092778,153.983398 164.083008,153.983398 C163.553057,153.983398 163.169028,154.158852 162.930908,154.509766 C162.692789,154.860679 162.57373,155.363766 162.57373,156.019043 Z M176.431152,159 L175.163574,159 L175.163574,155.347656 C175.163574,154.889321 175.071371,154.547364 174.886963,154.321777 C174.702554,154.09619 174.409833,153.983398 174.008789,153.983398 C173.478838,153.983398 173.089438,154.141844 172.840576,154.45874 C172.591714,154.775636 172.467285,155.306474 172.467285,156.05127 L172.467285,159 L171.205078,159 L171.205078,150.642578 L172.467285,150.642578 L172.467285,152.76416 C172.467285,153.104331 172.445801,153.467772 172.402832,153.854492 L172.483398,153.854492 C172.655274,153.568032 172.894286,153.346029 173.200439,153.188477 C173.506593,153.030924 173.863767,152.952148 174.271973,152.952148 C175.711433,152.952148 176.431152,153.677239 176.431152,155.127441 L176.431152,159 Z M180.781738,159.107422 C179.857906,159.107422 179.135501,158.837975 178.614502,158.299072 C178.093503,157.76017 177.833008,157.018071 177.833008,156.072754 C177.833008,155.102371 178.074705,154.339684 178.558105,153.784668 C179.041506,153.229652 179.705725,152.952148 180.550781,152.952148 C181.334965,152.952148 181.954425,153.190265 182.40918,153.666504 C182.863935,154.142743 183.091309,154.79801 183.091309,155.632324 L183.091309,156.314453 L179.132812,156.314453 C179.150716,156.890953 179.306476,157.334064 179.600098,157.643799 C179.893719,157.953533 180.307289,158.108398 180.84082,158.108398 C181.191734,158.108398 181.518472,158.075277 181.821045,158.009033 C182.123618,157.942789 182.448566,157.832683 182.795898,157.678711 L182.795898,158.70459 C182.487954,158.8514 182.176434,158.955241 181.861328,159.016113 C181.546222,159.076986 181.186363,159.107422 180.781738,159.107422 Z M180.550781,153.908203 C180.149738,153.908203 179.82837,154.035318 179.58667,154.289551 C179.344969,154.543784 179.200847,154.914386 179.154297,155.401367 L181.850586,155.401367 C181.843424,154.910805 181.725262,154.539308 181.496094,154.286865 C181.266926,154.034423 180.951825,153.908203 180.550781,153.908203 Z M185.787598,159 L184.525391,159 L184.525391,150.642578 L185.787598,150.642578 L185.787598,159 Z M190.605469,159.107422 C189.853512,159.107422 189.269859,158.83708 188.854492,158.296387 L188.779297,158.296387 C188.829427,158.797691 188.854492,159.10205 188.854492,159.209473 L188.854492,161.642578 L187.592285,161.642578 L187.592285,153.05957 L188.612793,153.05957 C188.641439,153.170573 188.70052,153.435545 188.790039,153.854492 L188.854492,153.854492 C189.248374,153.252927 189.839189,152.952148 190.626953,152.952148 C191.368168,152.952148 191.945555,153.2207 192.359131,153.757812 C192.772707,154.294925 192.979492,155.048661 192.979492,156.019043 C192.979492,156.989425 192.769126,157.746742 192.348389,158.291016 C191.927651,158.835289 191.346683,159.107422 190.605469,159.107422 Z M190.299316,153.983398 C189.798012,153.983398 189.431886,154.130207 189.200928,154.423828 C188.96997,154.717449 188.854492,155.18652 188.854492,155.831055 L188.854492,156.019043 C188.854492,156.742354 188.969074,157.26603 189.198242,157.590088 C189.42741,157.914146 189.801592,158.076172 190.320801,158.076172 C190.757652,158.076172 191.094237,157.897137 191.330566,157.539062 C191.566896,157.180988 191.685059,156.670739 191.685059,156.008301 C191.685059,155.342282 191.567791,154.838299 191.333252,154.496338 C191.098713,154.154377 190.754071,153.983398 190.299316,153.983398 Z M196.400879,153.05957 L197.775879,153.05957 L198.984375,156.427246 C199.166993,156.907066 199.288737,157.358234 199.349609,157.780762 L199.392578,157.780762 C199.424805,157.583821 199.483886,157.344809 199.569824,157.063721 C199.655762,156.782632 200.11051,155.447929 200.934082,153.05957 L202.29834,153.05957 L199.757812,159.789551 C199.295896,161.024909 198.526047,161.642578 197.448242,161.642578 C197.168944,161.642578 196.896811,161.612142 196.631836,161.55127 L196.631836,160.552246 C196.821616,160.595215 197.038247,160.616699 197.281738,160.616699 C197.890465,160.616699 198.318358,160.264001 198.56543,159.558594 L198.785645,159 L196.400879,153.05957 Z M208.469727,156.019043 C208.469727,156.989425 208.220868,157.746742 207.723145,158.291016 C207.225421,158.835289 206.532557,159.107422 205.644531,159.107422 C205.089515,159.107422 204.59896,158.982098 204.172852,158.731445 C203.746743,158.480793 203.419109,158.120933 203.189941,157.651855 C202.960774,157.182778 202.846191,156.638512 202.846191,156.019043 C202.846191,155.055822 203.093259,154.303876 203.587402,153.763184 C204.081545,153.222491 204.77799,152.952148 205.676758,152.952148 C206.536137,152.952148 207.216469,153.228757 207.717773,153.781982 C208.219078,154.335208 208.469727,155.080887 208.469727,156.019043 Z M204.145996,156.019043 C204.145996,157.390469 204.652664,158.076172 205.666016,158.076172 C206.668625,158.076172 207.169922,157.390469 207.169922,156.019043 C207.169922,154.66194 206.665044,153.983398 205.655273,153.983398 C205.125323,153.983398 204.741294,154.158852 204.503174,154.509766 C204.265054,154.860679 204.145996,155.363766 204.145996,156.019043 Z M214.109375,159 L213.932129,158.221191 L213.867676,158.221191 C213.692219,158.496909 213.442466,158.713541 213.118408,158.871094 C212.794351,159.028647 212.424644,159.107422 212.009277,159.107422 C211.289547,159.107422 210.752443,158.928387 210.397949,158.570312 C210.043455,158.212238 209.866211,157.669763 209.866211,156.942871 L209.866211,153.05957 L211.13916,153.05957 L211.13916,156.722656 C211.13916,157.177411 211.232258,157.518472 211.418457,157.74585 C211.604656,157.973227 211.896482,158.086914 212.293945,158.086914 C212.823896,158.086914 213.213296,157.928468 213.462158,157.611572 C213.71102,157.294676 213.835449,156.763838 213.835449,156.019043 L213.835449,153.05957 L215.103027,153.05957 L215.103027,159 L214.109375,159 Z" id="I-will-be-happy-to-h" fill="#FFFFFF"></path>
                <path d="M34.4674999,172.949995 L220.832494,172.949995 C223.852111,172.949995 226.299994,175.397878 226.299994,178.417495 L226.299994,194.482494 C226.299994,197.502111 223.852111,199.949994 220.832494,199.949994 L34.4674999,199.949994 C31.4478831,199.949994 29,197.502111 29,194.482494 L29,178.417495 C29,175.397878 31.4478831,172.949995 34.4674999,172.949995 Z" id="Rectangle-11" fill="#45BBFF"></path>
                <path d="M42.5844727,190.549995 L41.2954102,190.549995 L41.2954102,187.010444 L37.675293,187.010444 L37.675293,190.549995 L36.3916016,190.549995 L36.3916016,182.697456 L37.675293,182.697456 L37.675293,185.90937 L41.2954102,185.90937 L41.2954102,182.697456 L42.5844727,182.697456 L42.5844727,190.549995 Z M48.2348633,190.549995 L47.9824219,189.722846 L47.9394531,189.722846 C47.6529934,190.084502 47.3647475,190.330675 47.074707,190.461372 C46.7846665,190.592069 46.4122744,190.657417 45.9575195,190.657417 C45.3738578,190.657417 44.9182145,190.499866 44.5905762,190.184761 C44.2629378,189.869655 44.0991211,189.423858 44.0991211,188.847358 C44.0991211,188.23505 44.3264951,187.773141 44.78125,187.461616 C45.2360049,187.150091 45.928869,186.980008 46.8598633,186.951362 L47.8857422,186.919136 L47.8857422,186.602241 C47.8857422,186.222682 47.79712,185.938912 47.619873,185.750923 C47.4426261,185.562933 47.1678079,185.46894 46.7954102,185.46894 C46.4910467,185.46894 46.1992201,185.513699 45.9199219,185.603218 C45.6406236,185.692736 45.3720716,185.798367 45.1142578,185.920112 L44.7060547,185.017768 C45.0283219,184.849473 45.3810202,184.721463 45.7641602,184.633735 C46.1473001,184.546007 46.5089501,184.502143 46.8491211,184.502143 C47.6046587,184.502143 48.1748841,184.666855 48.5598145,184.996284 C48.9447448,185.325713 49.137207,185.843123 49.137207,186.54853 L49.137207,190.549995 L48.2348633,190.549995 Z M46.3549805,189.69062 C46.8133161,189.69062 47.1812323,189.56261 47.4587402,189.306587 C47.7362481,189.050563 47.875,188.691599 47.875,188.229682 L47.875,187.714057 L47.1123047,187.746284 C46.5179007,187.767768 46.085532,187.867133 45.8151855,188.04438 C45.5448391,188.221627 45.409668,188.492864 45.409668,188.8581 C45.409668,189.123076 45.4884432,189.32807 45.6459961,189.473091 C45.803549,189.618111 46.0398747,189.69062 46.3549805,189.69062 Z M52.2524414,190.549995 L49.996582,184.609565 L51.3286133,184.609565 L52.5371094,188.063178 C52.7447927,188.64326 52.870117,189.11233 52.9130859,189.470405 L52.9560547,189.470405 C52.9882814,189.212591 53.1136057,188.74352 53.3320312,188.063178 L54.5405273,184.609565 L55.8833008,184.609565 L53.6166992,190.549995 L52.2524414,190.549995 Z M59.3798828,190.657417 C58.4560501,190.657417 57.7336452,190.38797 57.2126465,189.849067 C56.6916478,189.310165 56.4311523,188.568066 56.4311523,187.622749 C56.4311523,186.652366 56.6728491,185.889679 57.15625,185.334663 C57.6396509,184.779647 58.3038695,184.502143 59.1489258,184.502143 C59.9331094,184.502143 60.5525693,184.740259 61.0073242,185.216499 C61.4620791,185.692738 61.6894531,186.348005 61.6894531,187.182319 L61.6894531,187.864448 L57.730957,187.864448 C57.7488608,188.440948 57.9046209,188.884059 58.1982422,189.193794 C58.4918634,189.503528 58.9054335,189.658393 59.4389648,189.658393 C59.7898781,189.658393 60.1166163,189.625272 60.4191895,189.559028 C60.7217626,189.492784 61.0467105,189.382678 61.394043,189.228706 L61.394043,190.254585 C61.0860987,190.401395 60.7745784,190.505235 60.4594727,190.566108 C60.1443669,190.626981 59.7845072,190.657417 59.3798828,190.657417 Z M59.1489258,185.458198 C58.7478821,185.458198 58.4265149,185.585313 58.1848145,185.839546 C57.943114,186.093779 57.7989911,186.46438 57.7524414,186.951362 L60.4487305,186.951362 C60.441569,186.4608 60.3234061,186.089303 60.0942383,185.83686 C59.8650705,185.584417 59.5499695,185.458198 59.1489258,185.458198 Z M65.0786133,184.609565 L66.4536133,184.609565 L67.6621094,187.977241 C67.8447275,188.457061 67.966471,188.908228 68.0273438,189.330757 L68.0703125,189.330757 C68.1025392,189.133816 68.1616207,188.894804 68.2475586,188.613716 C68.3334965,188.332627 68.7882446,186.997923 69.6118164,184.609565 L70.9760742,184.609565 L68.4355469,191.339546 C67.9736305,192.574903 67.2037814,193.192573 66.1259766,193.192573 C65.8466783,193.192573 65.5745456,193.162137 65.3095703,193.101264 L65.3095703,192.102241 C65.4993499,192.14521 65.7159819,192.166694 65.9594727,192.166694 C66.5681997,192.166694 66.9960925,191.813996 67.2431641,191.108589 L67.4633789,190.549995 L65.0786133,184.609565 Z M77.1474609,187.569038 C77.1474609,188.53942 76.8986027,189.296737 76.4008789,189.841011 C75.9031551,190.385284 75.2102909,190.657417 74.3222656,190.657417 C73.7672498,190.657417 73.2766948,190.532092 72.8505859,190.28144 C72.424477,190.030788 72.0968436,189.670928 71.8676758,189.20185 C71.638508,188.732772 71.5239258,188.188507 71.5239258,187.569038 C71.5239258,186.605817 71.7709936,185.853871 72.2651367,185.313178 C72.7592798,184.772486 73.4557247,184.502143 74.3544922,184.502143 C75.2138715,184.502143 75.8942032,184.778752 76.3955078,185.331977 C76.8968124,185.885203 77.1474609,186.630882 77.1474609,187.569038 Z M72.8237305,187.569038 C72.8237305,188.940464 73.3303986,189.626167 74.34375,189.626167 C75.3463592,189.626167 75.8476562,188.940464 75.8476562,187.569038 C75.8476562,186.211935 75.3427785,185.533393 74.3330078,185.533393 C73.8030572,185.533393 73.4190279,185.708847 73.1809082,186.059761 C72.9427885,186.410674 72.8237305,186.913761 72.8237305,187.569038 Z M82.7871094,190.549995 L82.6098633,189.771186 L82.5454102,189.771186 C82.3699535,190.046904 82.1202002,190.263536 81.7961426,190.421089 C81.472085,190.578642 81.1023784,190.657417 80.6870117,190.657417 C79.9672816,190.657417 79.4301776,190.478382 79.0756836,190.120307 C78.7211896,189.762233 78.5439453,189.219758 78.5439453,188.492866 L78.5439453,184.609565 L79.8168945,184.609565 L79.8168945,188.272651 C79.8168945,188.727406 79.9099926,189.068467 80.0961914,189.295844 C80.2823903,189.523222 80.5742168,189.636909 80.9716797,189.636909 C81.5016303,189.636909 81.8910307,189.478463 82.1398926,189.161567 C82.3887545,188.844671 82.5131836,188.313833 82.5131836,187.569038 L82.5131836,184.609565 L83.7807617,184.609565 L83.7807617,190.549995 L82.7871094,190.549995 Z M92.6269531,190.549995 L92.449707,189.771186 L92.3852539,189.771186 C92.2097973,190.046904 91.9600439,190.263536 91.6359863,190.421089 C91.3119287,190.578642 90.9422221,190.657417 90.5268555,190.657417 C89.8071253,190.657417 89.2700213,190.478382 88.9155273,190.120307 C88.5610334,189.762233 88.3837891,189.219758 88.3837891,188.492866 L88.3837891,184.609565 L89.6567383,184.609565 L89.6567383,188.272651 C89.6567383,188.727406 89.7498363,189.068467 89.9360352,189.295844 C90.122234,189.523222 90.4140605,189.636909 90.8115234,189.636909 C91.341474,189.636909 91.7308744,189.478463 91.9797363,189.161567 C92.2285982,188.844671 92.3530273,188.313833 92.3530273,187.569038 L92.3530273,184.609565 L93.6206055,184.609565 L93.6206055,190.549995 L92.6269531,190.549995 Z M99.4106445,188.8581 C99.4106445,189.438181 99.1993836,189.883083 98.7768555,190.192817 C98.3543273,190.502552 97.7491901,190.657417 96.9614258,190.657417 C96.1700807,190.657417 95.5345076,190.537464 95.0546875,190.297553 L95.0546875,189.207221 C95.7529332,189.529489 96.402829,189.69062 97.0043945,189.69062 C97.7814166,189.69062 98.1699219,189.456084 98.1699219,188.987007 C98.1699219,188.836615 98.1269536,188.711291 98.0410156,188.61103 C97.9550777,188.510769 97.8136403,188.406929 97.6166992,188.299507 C97.4197581,188.192084 97.1458351,188.070341 96.7949219,187.934272 C96.1109992,187.669297 95.6481946,187.404326 95.4064941,187.13935 C95.1647937,186.874375 95.0439453,186.530629 95.0439453,186.1081 C95.0439453,185.599634 95.24894,185.204863 95.6589355,184.923774 C96.0689311,184.642686 96.6266241,184.502143 97.3320312,184.502143 C98.0302769,184.502143 98.6909149,184.643581 99.3139648,184.92646 L98.9057617,185.877143 C98.264808,185.612168 97.7259136,185.479682 97.2890625,185.479682 C96.6230435,185.479682 96.2900391,185.669459 96.2900391,186.049018 C96.2900391,186.235217 96.3768709,186.392768 96.5505371,186.521675 C96.7242033,186.650581 97.1028617,186.827826 97.6865234,187.053413 C98.1770858,187.243192 98.5333648,187.416856 98.7553711,187.574409 C98.9773774,187.731962 99.1420893,187.913682 99.2495117,188.119575 C99.3569341,188.325468 99.4106445,188.571641 99.4106445,188.8581 Z M103.369141,190.657417 C102.445308,190.657417 101.722903,190.38797 101.201904,189.849067 C100.680906,189.310165 100.42041,188.568066 100.42041,187.622749 C100.42041,186.652366 100.662107,185.889679 101.145508,185.334663 C101.628909,184.779647 102.293127,184.502143 103.138184,184.502143 C103.922367,184.502143 104.541827,184.740259 104.996582,185.216499 C105.451337,185.692738 105.678711,186.348005 105.678711,187.182319 L105.678711,187.864448 L101.720215,187.864448 C101.738119,188.440948 101.893879,188.884059 102.1875,189.193794 C102.481121,189.503528 102.894691,189.658393 103.428223,189.658393 C103.779136,189.658393 104.105874,189.625272 104.408447,189.559028 C104.71102,189.492784 105.035968,189.382678 105.383301,189.228706 L105.383301,190.254585 C105.075357,190.401395 104.763836,190.505235 104.44873,190.566108 C104.133625,190.626981 103.773765,190.657417 103.369141,190.657417 Z M103.138184,185.458198 C102.73714,185.458198 102.415773,185.585313 102.174072,185.839546 C101.932372,186.093779 101.788249,186.46438 101.741699,186.951362 L104.437988,186.951362 C104.430827,186.4608 104.312664,186.089303 104.083496,185.83686 C103.854328,185.584417 103.539227,185.458198 103.138184,185.458198 Z M109.116211,190.657417 C108.374996,190.657417 107.796714,190.388865 107.381348,189.851753 C106.965981,189.314641 106.758301,188.560905 106.758301,187.590522 C106.758301,186.616559 106.968667,185.858347 107.389404,185.315864 C107.810142,184.773381 108.3929,184.502143 109.137695,184.502143 C109.918298,184.502143 110.512693,184.790389 110.920898,185.366889 L110.985352,185.366889 C110.924479,184.940781 110.894043,184.604195 110.894043,184.357124 L110.894043,182.192573 L112.161621,182.192573 L112.161621,190.549995 L111.17334,190.549995 L110.953125,189.771186 L110.894043,189.771186 C110.489419,190.36201 109.896814,190.657417 109.116211,190.657417 Z M109.45459,189.636909 C109.973798,189.636909 110.351561,189.490996 110.587891,189.199165 C110.82422,188.907334 110.945964,188.433787 110.953125,187.778511 L110.953125,187.601264 C110.953125,186.852888 110.831381,186.321155 110.587891,186.00605 C110.3444,185.690944 109.963056,185.533393 109.443848,185.533393 C108.999835,185.533393 108.657879,185.713323 108.417969,186.073188 C108.178059,186.433053 108.058105,186.945988 108.058105,187.612007 C108.058105,188.270864 108.174478,188.773056 108.407227,189.118598 C108.639975,189.46414 108.989093,189.636909 109.45459,189.636909 Z M122.092773,187.569038 C122.092773,188.53942 121.843915,189.296737 121.346191,189.841011 C120.848468,190.385284 120.155603,190.657417 119.267578,190.657417 C118.712562,190.657417 118.222007,190.532092 117.795898,190.28144 C117.36979,190.030788 117.042156,189.670928 116.812988,189.20185 C116.58382,188.732772 116.469238,188.188507 116.469238,187.569038 C116.469238,186.605817 116.716306,185.853871 117.210449,185.313178 C117.704592,184.772486 118.401037,184.502143 119.299805,184.502143 C120.159184,184.502143 120.839516,184.778752 121.34082,185.331977 C121.842125,185.885203 122.092773,186.630882 122.092773,187.569038 Z M117.769043,187.569038 C117.769043,188.940464 118.275711,189.626167 119.289062,189.626167 C120.291672,189.626167 120.792969,188.940464 120.792969,187.569038 C120.792969,186.211935 120.288091,185.533393 119.27832,185.533393 C118.74837,185.533393 118.36434,185.708847 118.126221,186.059761 C117.888101,186.410674 117.769043,186.913761 117.769043,187.569038 Z M127.732422,190.549995 L127.555176,189.771186 L127.490723,189.771186 C127.315266,190.046904 127.065513,190.263536 126.741455,190.421089 C126.417397,190.578642 126.047691,190.657417 125.632324,190.657417 C124.912594,190.657417 124.37549,190.478382 124.020996,190.120307 C123.666502,189.762233 123.489258,189.219758 123.489258,188.492866 L123.489258,184.609565 L124.762207,184.609565 L124.762207,188.272651 C124.762207,188.727406 124.855305,189.068467 125.041504,189.295844 C125.227703,189.523222 125.519529,189.636909 125.916992,189.636909 C126.446943,189.636909 126.836343,189.478463 127.085205,189.161567 C127.334067,188.844671 127.458496,188.313833 127.458496,187.569038 L127.458496,184.609565 L128.726074,184.609565 L128.726074,190.549995 L127.732422,190.549995 Z M133.538574,184.502143 C133.792807,184.502143 134.002278,184.520047 134.166992,184.555854 L134.043457,185.732124 C133.86442,185.689155 133.678224,185.667671 133.484863,185.667671 C132.979978,185.667671 132.570884,185.832383 132.257568,186.161811 C131.944253,186.49124 131.787598,186.919133 131.787598,187.445503 L131.787598,190.549995 L130.525391,190.549995 L130.525391,184.609565 L131.513672,184.609565 L131.680176,185.656928 L131.744629,185.656928 C131.94157,185.302435 132.198485,185.02135 132.515381,184.813667 C132.832277,184.605983 133.173338,184.502143 133.538574,184.502143 Z M142.116211,188.8581 C142.116211,189.438181 141.90495,189.883083 141.482422,190.192817 C141.059894,190.502552 140.454757,190.657417 139.666992,190.657417 C138.875647,190.657417 138.240074,190.537464 137.760254,190.297553 L137.760254,189.207221 C138.4585,189.529489 139.108395,189.69062 139.709961,189.69062 C140.486983,189.69062 140.875488,189.456084 140.875488,188.987007 C140.875488,188.836615 140.83252,188.711291 140.746582,188.61103 C140.660644,188.510769 140.519207,188.406929 140.322266,188.299507 C140.125325,188.192084 139.851401,188.070341 139.500488,187.934272 C138.816566,187.669297 138.353761,187.404326 138.112061,187.13935 C137.87036,186.874375 137.749512,186.530629 137.749512,186.1081 C137.749512,185.599634 137.954506,185.204863 138.364502,184.923774 C138.774497,184.642686 139.33219,184.502143 140.037598,184.502143 C140.735843,184.502143 141.396481,184.643581 142.019531,184.92646 L141.611328,185.877143 C140.970374,185.612168 140.43148,185.479682 139.994629,185.479682 C139.32861,185.479682 138.995605,185.669459 138.995605,186.049018 C138.995605,186.235217 139.082437,186.392768 139.256104,186.521675 C139.42977,186.650581 139.808428,186.827826 140.39209,187.053413 C140.882652,187.243192 141.238931,187.416856 141.460938,187.574409 C141.682944,187.731962 141.847656,187.913682 141.955078,188.119575 C142.062501,188.325468 142.116211,188.571641 142.116211,188.8581 Z M146.074707,190.657417 C145.150874,190.657417 144.428469,190.38797 143.907471,189.849067 C143.386472,189.310165 143.125977,188.568066 143.125977,187.622749 C143.125977,186.652366 143.367673,185.889679 143.851074,185.334663 C144.334475,184.779647 144.998694,184.502143 145.84375,184.502143 C146.627934,184.502143 147.247394,184.740259 147.702148,185.216499 C148.156903,185.692738 148.384277,186.348005 148.384277,187.182319 L148.384277,187.864448 L144.425781,187.864448 C144.443685,188.440948 144.599445,188.884059 144.893066,189.193794 C145.186688,189.503528 145.600258,189.658393 146.133789,189.658393 C146.484702,189.658393 146.811441,189.625272 147.114014,189.559028 C147.416587,189.492784 147.741535,189.382678 148.088867,189.228706 L148.088867,190.254585 C147.780923,190.401395 147.469403,190.505235 147.154297,190.566108 C146.839191,190.626981 146.479331,190.657417 146.074707,190.657417 Z M145.84375,185.458198 C145.442706,185.458198 145.121339,185.585313 144.879639,185.839546 C144.637938,186.093779 144.493815,186.46438 144.447266,186.951362 L147.143555,186.951362 C147.136393,186.4608 147.01823,186.089303 146.789062,185.83686 C146.559895,185.584417 146.244794,185.458198 145.84375,185.458198 Z M152.831543,184.502143 C153.085776,184.502143 153.295247,184.520047 153.459961,184.555854 L153.336426,185.732124 C153.157388,185.689155 152.971192,185.667671 152.777832,185.667671 C152.272947,185.667671 151.863852,185.832383 151.550537,186.161811 C151.237222,186.49124 151.080566,186.919133 151.080566,187.445503 L151.080566,190.549995 L149.818359,190.549995 L149.818359,184.609565 L150.806641,184.609565 L150.973145,185.656928 L151.037598,185.656928 C151.234539,185.302435 151.491453,185.02135 151.80835,184.813667 C152.125246,184.605983 152.466307,184.502143 152.831543,184.502143 Z M155.914551,190.549995 L153.658691,184.609565 L154.990723,184.609565 L156.199219,188.063178 C156.406902,188.64326 156.532226,189.11233 156.575195,189.470405 L156.618164,189.470405 C156.650391,189.212591 156.775715,188.74352 156.994141,188.063178 L158.202637,184.609565 L159.54541,184.609565 L157.278809,190.549995 L155.914551,190.549995 Z M161.709961,190.549995 L160.447754,190.549995 L160.447754,184.609565 L161.709961,184.609565 L161.709961,190.549995 Z M160.372559,183.035835 C160.372559,182.810248 160.434326,182.636584 160.557861,182.514839 C160.681397,182.393093 160.857746,182.332221 161.086914,182.332221 C161.30892,182.332221 161.481689,182.393093 161.605225,182.514839 C161.72876,182.636584 161.790527,182.810248 161.790527,183.035835 C161.790527,183.25068 161.72876,183.419867 161.605225,183.543403 C161.481689,183.666939 161.30892,183.728706 161.086914,183.728706 C160.857746,183.728706 160.681397,183.666939 160.557861,183.543403 C160.434326,183.419867 160.372559,183.25068 160.372559,183.035835 Z M165.910156,190.657417 C165.011389,190.657417 164.328371,190.395131 163.861084,189.870552 C163.393796,189.345972 163.160156,188.593131 163.160156,187.612007 C163.160156,186.612978 163.404539,185.844919 163.893311,185.307807 C164.382083,184.770695 165.088374,184.502143 166.012207,184.502143 C166.638838,184.502143 167.202797,184.618516 167.704102,184.851264 L167.322754,185.866401 C166.789223,185.658718 166.348797,185.554878 166.001465,185.554878 C164.97379,185.554878 164.459961,186.237 164.459961,187.601264 C164.459961,188.267283 164.587971,188.767685 164.843994,189.102485 C165.100018,189.437285 165.475095,189.604682 165.969238,189.604682 C166.531416,189.604682 167.063149,189.465035 167.564453,189.185737 L167.564453,190.286811 C167.338866,190.419299 167.098064,190.514187 166.842041,190.571479 C166.586018,190.628771 166.275392,190.657417 165.910156,190.657417 Z M171.555176,190.657417 C170.631343,190.657417 169.908938,190.38797 169.387939,189.849067 C168.866941,189.310165 168.606445,188.568066 168.606445,187.622749 C168.606445,186.652366 168.848142,185.889679 169.331543,185.334663 C169.814944,184.779647 170.479162,184.502143 171.324219,184.502143 C172.108402,184.502143 172.727862,184.740259 173.182617,185.216499 C173.637372,185.692738 173.864746,186.348005 173.864746,187.182319 L173.864746,187.864448 L169.90625,187.864448 C169.924154,188.440948 170.079914,188.884059 170.373535,189.193794 C170.667156,189.503528 171.080726,189.658393 171.614258,189.658393 C171.965171,189.658393 172.291909,189.625272 172.594482,189.559028 C172.897056,189.492784 173.222003,189.382678 173.569336,189.228706 L173.569336,190.254585 C173.261392,190.401395 172.949871,190.505235 172.634766,190.566108 C172.31966,190.626981 171.9598,190.657417 171.555176,190.657417 Z M171.324219,185.458198 C170.923175,185.458198 170.601808,185.585313 170.360107,185.839546 C170.118407,186.093779 169.974284,186.46438 169.927734,186.951362 L172.624023,186.951362 C172.616862,186.4608 172.498699,186.089303 172.269531,185.83686 C172.040363,185.584417 171.725262,185.458198 171.324219,185.458198 Z M181.190918,184.502143 C181.932133,184.502143 182.509519,184.770695 182.923096,185.307807 C183.336672,185.844919 183.543457,186.598655 183.543457,187.569038 C183.543457,188.543001 183.333986,189.301213 182.915039,189.843696 C182.496092,190.386179 181.914229,190.657417 181.169434,190.657417 C180.417477,190.657417 179.833824,190.387074 179.418457,189.846382 L179.33252,189.846382 L179.101563,190.549995 L178.15625,190.549995 L178.15625,182.192573 L179.418457,182.192573 L179.418457,184.179878 C179.418457,184.326688 179.411296,184.545111 179.396973,184.835151 C179.38265,185.125192 179.371908,185.309597 179.364746,185.388374 L179.418457,185.388374 C179.819501,184.797551 180.410315,184.502143 181.190918,184.502143 Z M180.863281,185.533393 C180.354815,185.533393 179.988689,185.682887 179.764893,185.98188 C179.541096,186.280872 179.425619,186.781274 179.418457,187.4831 L179.418457,187.569038 C179.418457,188.292349 179.533039,188.816025 179.762207,189.140083 C179.991375,189.46414 180.365557,189.626167 180.884766,189.626167 C181.332359,189.626167 181.67163,189.448922 181.902588,189.094428 C182.133546,188.739935 182.249023,188.227895 182.249023,187.558296 C182.249023,186.208354 181.787114,185.533393 180.863281,185.533393 Z M187.604004,190.657417 C186.680171,190.657417 185.957766,190.38797 185.436768,189.849067 C184.915769,189.310165 184.655273,188.568066 184.655273,187.622749 C184.655273,186.652366 184.89697,185.889679 185.380371,185.334663 C185.863772,184.779647 186.527991,184.502143 187.373047,184.502143 C188.15723,184.502143 188.77669,184.740259 189.231445,185.216499 C189.6862,185.692738 189.913574,186.348005 189.913574,187.182319 L189.913574,187.864448 L185.955078,187.864448 C185.972982,188.440948 186.128742,188.884059 186.422363,189.193794 C186.715985,189.503528 187.129555,189.658393 187.663086,189.658393 C188.013999,189.658393 188.340737,189.625272 188.643311,189.559028 C188.945884,189.492784 189.270832,189.382678 189.618164,189.228706 L189.618164,190.254585 C189.31022,190.401395 188.998699,190.505235 188.683594,190.566108 C188.368488,190.626981 188.008628,190.657417 187.604004,190.657417 Z M187.373047,185.458198 C186.972003,185.458198 186.650636,185.585313 186.408936,185.839546 C186.167235,186.093779 186.023112,186.46438 185.976562,186.951362 L188.672852,186.951362 C188.66569,186.4608 188.547527,186.089303 188.318359,185.83686 C188.089192,185.584417 187.774091,185.458198 187.373047,185.458198 Z M194.328613,185.56562 L192.878418,185.56562 L192.878418,190.549995 L191.61084,190.549995 L191.61084,185.56562 L190.633301,185.56562 L190.633301,184.9748 L191.61084,184.588081 L191.61084,184.201362 C191.61084,183.499536 191.775552,182.97944 192.10498,182.641059 C192.434409,182.302679 192.937497,182.133491 193.614258,182.133491 C194.05827,182.133491 194.495115,182.206895 194.924805,182.353706 L194.591797,183.309761 C194.280272,183.2095 193.983074,183.15937 193.700195,183.15937 C193.413736,183.15937 193.20516,183.247992 193.074463,183.425239 C192.943766,183.602486 192.878418,183.868352 192.878418,184.222846 L192.878418,184.609565 L194.328613,184.609565 L194.328613,185.56562 Z M200.607422,187.569038 C200.607422,188.53942 200.358564,189.296737 199.86084,189.841011 C199.363116,190.385284 198.670252,190.657417 197.782227,190.657417 C197.227211,190.657417 196.736656,190.532092 196.310547,190.28144 C195.884438,190.030788 195.556805,189.670928 195.327637,189.20185 C195.098469,188.732772 194.983887,188.188507 194.983887,187.569038 C194.983887,186.605817 195.230955,185.853871 195.725098,185.313178 C196.219241,184.772486 196.915686,184.502143 197.814453,184.502143 C198.673832,184.502143 199.354164,184.778752 199.855469,185.331977 C200.356773,185.885203 200.607422,186.630882 200.607422,187.569038 Z M196.283691,187.569038 C196.283691,188.940464 196.79036,189.626167 197.803711,189.626167 C198.80632,189.626167 199.307617,188.940464 199.307617,187.569038 C199.307617,186.211935 198.802739,185.533393 197.792969,185.533393 C197.263018,185.533393 196.878989,185.708847 196.640869,186.059761 C196.402749,186.410674 196.283691,186.913761 196.283691,187.569038 Z M205.070801,184.502143 C205.325034,184.502143 205.534504,184.520047 205.699219,184.555854 L205.575684,185.732124 C205.396646,185.689155 205.21045,185.667671 205.01709,185.667671 C204.512205,185.667671 204.10311,185.832383 203.789795,186.161811 C203.47648,186.49124 203.319824,186.919133 203.319824,187.445503 L203.319824,190.549995 L202.057617,190.549995 L202.057617,184.609565 L203.045898,184.609565 L203.212402,185.656928 L203.276855,185.656928 C203.473797,185.302435 203.730711,185.02135 204.047607,184.813667 C204.364504,184.605983 204.705565,184.502143 205.070801,184.502143 Z M209.174316,190.657417 C208.250484,190.657417 207.528079,190.38797 207.00708,189.849067 C206.486081,189.310165 206.225586,188.568066 206.225586,187.622749 C206.225586,186.652366 206.467283,185.889679 206.950684,185.334663 C207.434084,184.779647 208.098303,184.502143 208.943359,184.502143 C209.727543,184.502143 210.347003,184.740259 210.801758,185.216499 C211.256513,185.692738 211.483887,186.348005 211.483887,187.182319 L211.483887,187.864448 L207.525391,187.864448 C207.543294,188.440948 207.699055,188.884059 207.992676,189.193794 C208.286297,189.503528 208.699867,189.658393 209.233398,189.658393 C209.584312,189.658393 209.91105,189.625272 210.213623,189.559028 C210.516196,189.492784 210.841144,189.382678 211.188477,189.228706 L211.188477,190.254585 C210.880532,190.401395 210.569012,190.505235 210.253906,190.566108 C209.938801,190.626981 209.578941,190.657417 209.174316,190.657417 Z M208.943359,185.458198 C208.542316,185.458198 208.220948,185.585313 207.979248,185.839546 C207.737548,186.093779 207.593425,186.46438 207.546875,186.951362 L210.243164,186.951362 C210.236003,186.4608 210.11784,186.089303 209.888672,185.83686 C209.659504,185.584417 209.344403,185.458198 208.943359,185.458198 Z M213.535645,188.165229 L213.535645,187.821479 C213.535645,187.427597 213.607258,187.099964 213.750488,186.838569 C213.893718,186.577175 214.144367,186.306832 214.502441,186.027534 C214.92855,185.690944 215.203369,185.429553 215.326904,185.243354 C215.45044,185.057155 215.512207,184.835152 215.512207,184.577339 C215.512207,184.276556 215.411948,184.045601 215.211426,183.884468 C215.010904,183.723334 214.722658,183.642768 214.34668,183.642768 C214.006509,183.642768 213.691408,183.691108 213.401367,183.787788 C213.111327,183.884468 212.828452,184.000841 212.552734,184.136909 L212.101562,183.191596 C212.828454,182.786972 213.607255,182.584663 214.437988,182.584663 C215.139815,182.584663 215.696613,182.756536 216.108398,183.100288 C216.520184,183.44404 216.726074,183.918481 216.726074,184.523628 C216.726074,184.792184 216.686687,185.031195 216.60791,185.240669 C216.529134,185.450142 216.410076,185.649766 216.250732,185.839546 C216.091389,186.029325 215.816571,186.276393 215.42627,186.580757 C215.09326,186.842151 214.870362,187.058783 214.757568,187.230659 C214.644775,187.402535 214.588379,187.63349 214.588379,187.92353 L214.588379,188.165229 L213.535645,188.165229 Z M213.31543,189.878608 C213.31543,189.337915 213.578611,189.067573 214.10498,189.067573 C214.362794,189.067573 214.559732,189.138292 214.695801,189.279731 C214.831869,189.421171 214.899902,189.620794 214.899902,189.878608 C214.899902,190.132841 214.830974,190.334255 214.693115,190.482856 C214.555256,190.631457 214.359214,190.705757 214.10498,190.705757 C213.850747,190.705757 213.6556,190.633248 213.519531,190.488227 C213.383463,190.343207 213.31543,190.140003 213.31543,189.878608 Z" id="Have-you-used-our-se" fill="#FFFFFF"></path>
                <rect id="Rectangle-10" fill="#FFFFFF" x="62.949998" y="83.8499975" width="113.050002" height="40.4999989" rx="5.46749993"></rect>
                <path d="M77.2294922,101 L75.9404297,101 L75.9404297,97.4604492 L72.3203125,97.4604492 L72.3203125,101 L71.0366211,101 L71.0366211,93.1474609 L72.3203125,93.1474609 L72.3203125,96.359375 L75.9404297,96.359375 L75.9404297,93.1474609 L77.2294922,93.1474609 L77.2294922,101 Z M80.425293,101 L79.1630859,101 L79.1630859,95.0595703 L80.425293,95.0595703 L80.425293,101 Z M79.0878906,93.4858398 C79.0878906,93.2602528 79.1496576,93.0865892 79.2731934,92.9648438 C79.3967291,92.8430983 79.5730783,92.7822266 79.8022461,92.7822266 C80.0242524,92.7822266 80.1970209,92.8430983 80.3205566,92.9648438 C80.4440924,93.0865892 80.5058594,93.2602528 80.5058594,93.4858398 C80.5058594,93.7006847 80.4440924,93.8698724 80.3205566,93.9934082 C80.1970209,94.116944 80.0242524,94.1787109 79.8022461,94.1787109 C79.5730783,94.1787109 79.3967291,94.116944 79.2731934,93.9934082 C79.1496576,93.8698724 79.0878906,93.7006847 79.0878906,93.4858398 Z M83.5405273,99.8452148 C83.3686515,100.511234 83.0535505,101.36881 82.5952148,102.417969 L81.6660156,102.417969 C81.9130872,101.451167 82.0974929,100.552413 82.2192383,99.7216797 L83.4599609,99.7216797 L83.5405273,99.8452148 Z M88.159668,101 L88.159668,93.1474609 L89.4433594,93.1474609 L89.4433594,101 L88.159668,101 Z M99.1113281,101 L98.3432617,98.2285156 C98.2501623,97.9348944 98.0818697,97.2527723 97.8383789,96.1821289 L97.7900391,96.1821289 C97.5823557,97.1489306 97.4176438,97.8346334 97.2958984,98.2392578 L96.5063477,101 L95.1098633,101 L93.4448242,95.0595703 L94.7338867,95.0595703 L95.4912109,97.9868164 C95.6630868,98.7101273 95.7848304,99.3295873 95.8564453,99.8452148 L95.8886719,99.8452148 C95.9244793,99.5838203 95.9790849,99.2839372 96.0524902,98.9455566 C96.1258955,98.607176 96.1894529,98.353842 96.2431641,98.1855469 L97.1455078,95.0595703 L98.53125,95.0595703 L99.4067383,98.1855469 C99.4604495,98.3610035 99.5275875,98.6295555 99.6081543,98.9912109 C99.6887211,99.3528664 99.7361653,99.6339508 99.7504883,99.8344727 L99.793457,99.8344727 C99.8471682,99.3940408 99.9724925,98.7781615 100.169434,97.9868164 L100.9375,95.0595703 L102.205078,95.0595703 L100.529297,101 L99.1113281,101 Z M108.494629,98.019043 C108.494629,98.9894254 108.245771,99.7467421 107.748047,100.291016 C107.250323,100.835289 106.557459,101.107422 105.669434,101.107422 C105.114418,101.107422 104.623863,100.982098 104.197754,100.731445 C103.771645,100.480793 103.444012,100.120933 103.214844,99.6518555 C102.985676,99.1827776 102.871094,98.6385122 102.871094,98.019043 C102.871094,97.055822 103.118162,96.3038764 103.612305,95.7631836 C104.106448,95.2224908 104.802893,94.9521484 105.70166,94.9521484 C106.561039,94.9521484 107.241371,95.228757 107.742676,95.7819824 C108.24398,96.3352078 108.494629,97.0808872 108.494629,98.019043 Z M104.170898,98.019043 C104.170898,99.3904691 104.677567,100.076172 105.690918,100.076172 C106.693527,100.076172 107.194824,99.3904691 107.194824,98.019043 C107.194824,96.6619398 106.689946,95.9833984 105.680176,95.9833984 C105.150225,95.9833984 104.766196,96.1588524 104.528076,96.5097656 C104.289956,96.8606788 104.170898,97.3637663 104.170898,98.019043 Z M114.134277,101 L113.957031,100.221191 L113.892578,100.221191 C113.717122,100.496909 113.467368,100.713541 113.143311,100.871094 C112.819253,101.028647 112.449546,101.107422 112.03418,101.107422 C111.31445,101.107422 110.777346,100.928387 110.422852,100.570312 C110.068358,100.212238 109.891113,99.6697627 109.891113,98.9428711 L109.891113,95.0595703 L111.164062,95.0595703 L111.164062,98.7226562 C111.164062,99.1774111 111.257161,99.5184722 111.443359,99.7458496 C111.629558,99.973227 111.921385,100.086914 112.318848,100.086914 C112.848798,100.086914 113.238199,99.9284684 113.487061,99.6115723 C113.735922,99.2946761 113.860352,98.7638384 113.860352,98.019043 L113.860352,95.0595703 L115.12793,95.0595703 L115.12793,101 L114.134277,101 Z M118.189453,101 L116.927246,101 L116.927246,92.6425781 L118.189453,92.6425781 L118.189453,101 Z M121.997559,101.107422 C121.256344,101.107422 120.678062,100.83887 120.262695,100.301758 C119.847329,99.7646458 119.639648,99.0109098 119.639648,98.0405273 C119.639648,97.0665641 119.850014,96.3083523 120.270752,95.7658691 C120.69149,95.223386 121.274248,94.9521484 122.019043,94.9521484 C122.799646,94.9521484 123.394041,95.2403943 123.802246,95.8168945 L123.866699,95.8168945 C123.805827,95.3907856 123.775391,95.0542005 123.775391,94.8071289 L123.775391,92.6425781 L125.042969,92.6425781 L125.042969,101 L124.054688,101 L123.834473,100.221191 L123.775391,100.221191 C123.370766,100.812015 122.778161,101.107422 121.997559,101.107422 Z M122.335938,100.086914 C122.855146,100.086914 123.232909,99.9410008 123.469238,99.6491699 C123.705568,99.357339 123.827311,98.8837923 123.834473,98.2285156 L123.834473,98.0512695 C123.834473,97.3028934 123.712729,96.7711604 123.469238,96.4560547 C123.225747,96.1409489 122.844404,95.9833984 122.325195,95.9833984 C121.881183,95.9833984 121.539226,96.1633283 121.299316,96.5231934 C121.059406,96.8830584 120.939453,97.3959928 120.939453,98.0620117 C120.939453,98.7208692 121.055826,99.2230614 121.288574,99.5686035 C121.521323,99.9141456 121.87044,100.086914 122.335938,100.086914 Z M130.967285,101 L129.705078,101 L129.705078,92.6425781 L130.967285,92.6425781 L130.967285,101 Z M134.03418,101 L132.771973,101 L132.771973,95.0595703 L134.03418,95.0595703 L134.03418,101 Z M132.696777,93.4858398 C132.696777,93.2602528 132.758544,93.0865892 132.88208,92.9648438 C133.005616,92.8430983 133.181965,92.7822266 133.411133,92.7822266 C133.633139,92.7822266 133.805908,92.8430983 133.929443,92.9648438 C134.052979,93.0865892 134.114746,93.2602528 134.114746,93.4858398 C134.114746,93.7006847 134.052979,93.8698724 133.929443,93.9934082 C133.805908,94.116944 133.633139,94.1787109 133.411133,94.1787109 C133.181965,94.1787109 133.005616,94.116944 132.88208,93.9934082 C132.758544,93.8698724 132.696777,93.7006847 132.696777,93.4858398 Z M137.058105,97.8632812 L137.772461,96.9716797 L139.566406,95.0595703 L141.021973,95.0595703 L138.631836,97.6108398 L141.172363,101 L139.689941,101 L137.783203,98.3950195 L137.090332,98.9643555 L137.090332,101 L135.838867,101 L135.838867,92.6425781 L137.090332,92.6425781 L137.090332,96.7192383 L137.025879,97.8632812 L137.058105,97.8632812 Z M144.502441,101.107422 C143.578609,101.107422 142.856204,100.837975 142.335205,100.299072 C141.814206,99.7601698 141.553711,99.0180711 141.553711,98.0727539 C141.553711,97.1023715 141.795408,96.3396838 142.278809,95.784668 C142.762209,95.2296522 143.426428,94.9521484 144.271484,94.9521484 C145.055668,94.9521484 145.675128,95.1902645 146.129883,95.6665039 C146.584638,96.1427433 146.812012,96.7980102 146.812012,97.6323242 L146.812012,98.3144531 L142.853516,98.3144531 C142.871419,98.8909534 143.02718,99.3340642 143.320801,99.6437988 C143.614422,99.9535334 144.027992,100.108398 144.561523,100.108398 C144.912437,100.108398 145.239175,100.075277 145.541748,100.009033 C145.844321,99.9427894 146.169269,99.8326831 146.516602,99.6787109 L146.516602,100.70459 C146.208657,100.8514 145.897137,100.955241 145.582031,101.016113 C145.266926,101.076986 144.907066,101.107422 144.502441,101.107422 Z M144.271484,95.9082031 C143.870441,95.9082031 143.549073,96.0353177 143.307373,96.2895508 C143.065673,96.5437838 142.92155,96.9143856 142.875,97.4013672 L145.571289,97.4013672 C145.564128,96.9108048 145.445965,96.5393079 145.216797,96.2868652 C144.987629,96.0344226 144.672528,95.9082031 144.271484,95.9082031 Z M153.316406,100.086914 C153.62435,100.086914 153.93229,100.038575 154.240234,99.9418945 L154.240234,100.892578 C154.100585,100.953451 153.920655,101.004476 153.700439,101.045654 C153.480224,101.086833 153.251954,101.107422 153.015625,101.107422 C151.819655,101.107422 151.22168,100.47722 151.22168,99.2167969 L151.22168,96.015625 L150.410645,96.015625 L150.410645,95.4570312 L151.280762,94.9951172 L151.710449,93.7382812 L152.489258,93.7382812 L152.489258,95.0595703 L154.181152,95.0595703 L154.181152,96.015625 L152.489258,96.015625 L152.489258,99.1953125 C152.489258,99.499676 152.565348,99.7243645 152.717529,99.8693848 C152.869711,100.014405 153.069335,100.086914 153.316406,100.086914 Z M160.696289,98.019043 C160.696289,98.9894254 160.447431,99.7467421 159.949707,100.291016 C159.451983,100.835289 158.759119,101.107422 157.871094,101.107422 C157.316078,101.107422 156.825523,100.982098 156.399414,100.731445 C155.973305,100.480793 155.645672,100.120933 155.416504,99.6518555 C155.187336,99.1827776 155.072754,98.6385122 155.072754,98.019043 C155.072754,97.055822 155.319822,96.3038764 155.813965,95.7631836 C156.308108,95.2224908 157.004553,94.9521484 157.90332,94.9521484 C158.7627,94.9521484 159.443031,95.228757 159.944336,95.7819824 C160.445641,96.3352078 160.696289,97.0808872 160.696289,98.019043 Z M156.372559,98.019043 C156.372559,99.3904691 156.879227,100.076172 157.892578,100.076172 C158.895187,100.076172 159.396484,99.3904691 159.396484,98.019043 C159.396484,96.6619398 158.891607,95.9833984 157.881836,95.9833984 C157.351885,95.9833984 156.967856,96.1588524 156.729736,96.5097656 C156.491617,96.8606788 156.372559,97.3637663 156.372559,98.019043 Z M74.8930664,114.308105 C74.8930664,114.888186 74.6818055,115.333088 74.2592773,115.642822 C73.8367492,115.952557 73.231612,116.107422 72.4438477,116.107422 C71.6525026,116.107422 71.0169295,115.987469 70.5371094,115.747559 L70.5371094,114.657227 C71.2353551,114.979494 71.8852509,115.140625 72.4868164,115.140625 C73.2638385,115.140625 73.6523438,114.90609 73.6523438,114.437012 C73.6523438,114.28662 73.6093754,114.161296 73.5234375,114.061035 C73.4374996,113.960774 73.2960622,113.856934 73.0991211,113.749512 C72.90218,113.642089 72.628257,113.520346 72.2773438,113.384277 C71.5934211,113.119302 71.1306164,112.854331 70.888916,112.589355 C70.6472156,112.32438 70.5263672,111.980634 70.5263672,111.558105 C70.5263672,111.049639 70.7313619,110.654868 71.1413574,110.373779 C71.551353,110.092691 72.109046,109.952148 72.8144531,109.952148 C73.5126988,109.952148 74.1733367,110.093586 74.7963867,110.376465 L74.3881836,111.327148 C73.7472299,111.062173 73.2083355,110.929688 72.7714844,110.929688 C72.1054654,110.929688 71.7724609,111.119464 71.7724609,111.499023 C71.7724609,111.685222 71.8592928,111.842773 72.032959,111.97168 C72.2066252,112.100587 72.5852835,112.277831 73.1689453,112.503418 C73.6595077,112.693198 74.0157867,112.866861 74.237793,113.024414 C74.4597993,113.181967 74.6245112,113.363687 74.7319336,113.56958 C74.839356,113.775473 74.8930664,114.021646 74.8930664,114.308105 Z M78.652832,116.107422 C77.7540645,116.107422 77.0710473,115.845136 76.6037598,115.320557 C76.1364723,114.795977 75.902832,114.043136 75.902832,113.062012 C75.902832,112.062983 76.1472144,111.294925 76.6359863,110.757812 C77.1247583,110.2207 77.8310501,109.952148 78.7548828,109.952148 C79.3815135,109.952148 79.9454728,110.068521 80.4467773,110.30127 L80.0654297,111.316406 C79.5318984,111.108723 79.0914731,111.004883 78.7441406,111.004883 C77.7164662,111.004883 77.2026367,111.687005 77.2026367,113.05127 C77.2026367,113.717288 77.3306465,114.21769 77.5866699,114.55249 C77.8426933,114.88729 78.217771,115.054688 78.7119141,115.054688 C79.2740914,115.054688 79.8058243,114.91504 80.3071289,114.635742 L80.3071289,115.736816 C80.0815418,115.869304 79.8407402,115.964192 79.5847168,116.021484 C79.3286934,116.078776 79.0180682,116.107422 78.652832,116.107422 Z M86.9296875,116 L85.6621094,116 L85.6621094,112.347656 C85.6621094,111.889321 85.5699065,111.547364 85.385498,111.321777 C85.2010896,111.09619 84.9083679,110.983398 84.5073242,110.983398 C83.9773737,110.983398 83.5879732,111.141844 83.3391113,111.45874 C83.0902494,111.775636 82.9658203,112.306474 82.9658203,113.05127 L82.9658203,116 L81.7036133,116 L81.7036133,107.642578 L82.9658203,107.642578 L82.9658203,109.76416 C82.9658203,110.104331 82.9443362,110.467772 82.9013672,110.854492 L82.9819336,110.854492 C83.1538095,110.568032 83.3928207,110.346029 83.6989746,110.188477 C84.0051285,110.030924 84.3623026,109.952148 84.7705078,109.952148 C86.2099681,109.952148 86.9296875,110.677239 86.9296875,112.127441 L86.9296875,116 Z M91.2802734,116.107422 C90.3564407,116.107422 89.6340358,115.837975 89.1130371,115.299072 C88.5920384,114.76017 88.331543,114.018071 88.331543,113.072754 C88.331543,112.102371 88.5732398,111.339684 89.0566406,110.784668 C89.5400415,110.229652 90.2042601,109.952148 91.0493164,109.952148 C91.8335,109.952148 92.45296,110.190265 92.9077148,110.666504 C93.3624697,111.142743 93.5898438,111.79801 93.5898438,112.632324 L93.5898438,113.314453 L89.6313477,113.314453 C89.6492514,113.890953 89.8050116,114.334064 90.0986328,114.643799 C90.3922541,114.953533 90.8058242,115.108398 91.3393555,115.108398 C91.6902687,115.108398 92.017007,115.075277 92.3195801,115.009033 C92.6221532,114.942789 92.9471011,114.832683 93.2944336,114.678711 L93.2944336,115.70459 C92.9864893,115.8514 92.674969,115.955241 92.3598633,116.016113 C92.0447575,116.076986 91.6848979,116.107422 91.2802734,116.107422 Z M91.0493164,110.908203 C90.6482727,110.908203 90.3269055,111.035318 90.0852051,111.289551 C89.8435047,111.543784 89.6993817,111.914386 89.652832,112.401367 L92.3491211,112.401367 C92.3419596,111.910805 92.2237967,111.539308 91.9946289,111.286865 C91.7654611,111.034423 91.4503601,110.908203 91.0493164,110.908203 Z M97.0273438,116.107422 C96.2861291,116.107422 95.7078471,115.83887 95.2924805,115.301758 C94.8771138,114.764646 94.6694336,114.01091 94.6694336,113.040527 C94.6694336,112.066564 94.8797993,111.308352 95.3005371,110.765869 C95.7212749,110.223386 96.3040327,109.952148 97.0488281,109.952148 C97.829431,109.952148 98.4238261,110.240394 98.8320312,110.816895 L98.8964844,110.816895 C98.8356117,110.390786 98.8051758,110.0542 98.8051758,109.807129 L98.8051758,107.642578 L100.072754,107.642578 L100.072754,116 L99.0844727,116 L98.8642578,115.221191 L98.8051758,115.221191 C98.4005514,115.812015 97.8079466,116.107422 97.0273438,116.107422 Z M97.3657227,115.086914 C97.884931,115.086914 98.2626941,114.941001 98.4990234,114.64917 C98.7353527,114.357339 98.8570963,113.883792 98.8642578,113.228516 L98.8642578,113.05127 C98.8642578,112.302893 98.7425142,111.77116 98.4990234,111.456055 C98.2555326,111.140949 97.8741888,110.983398 97.3549805,110.983398 C96.9109678,110.983398 96.5690116,111.163328 96.3291016,111.523193 C96.0891915,111.883058 95.9692383,112.395993 95.9692383,113.062012 C95.9692383,113.720869 96.0856108,114.223061 96.3183594,114.568604 C96.5511079,114.914146 96.9002255,115.086914 97.3657227,115.086914 Z M106.066895,116 L105.889648,115.221191 L105.825195,115.221191 C105.649739,115.496909 105.399985,115.713541 105.075928,115.871094 C104.75187,116.028647 104.382164,116.107422 103.966797,116.107422 C103.247067,116.107422 102.709963,115.928387 102.355469,115.570312 C102.000975,115.212238 101.82373,114.669763 101.82373,113.942871 L101.82373,110.05957 L103.09668,110.05957 L103.09668,113.722656 C103.09668,114.177411 103.189778,114.518472 103.375977,114.74585 C103.562175,114.973227 103.854002,115.086914 104.251465,115.086914 C104.781415,115.086914 105.170816,114.928468 105.419678,114.611572 C105.66854,114.294676 105.792969,113.763838 105.792969,113.019043 L105.792969,110.05957 L107.060547,110.05957 L107.060547,116 L106.066895,116 Z M110.12207,116 L108.859863,116 L108.859863,107.642578 L110.12207,107.642578 L110.12207,116 Z M114.520996,116.107422 C113.597163,116.107422 112.874758,115.837975 112.35376,115.299072 C111.832761,114.76017 111.572266,114.018071 111.572266,113.072754 C111.572266,112.102371 111.813962,111.339684 112.297363,110.784668 C112.780764,110.229652 113.444983,109.952148 114.290039,109.952148 C115.074223,109.952148 115.693683,110.190265 116.148438,110.666504 C116.603192,111.142743 116.830566,111.79801 116.830566,112.632324 L116.830566,113.314453 L112.87207,113.314453 C112.889974,113.890953 113.045734,114.334064 113.339355,114.643799 C113.632977,114.953533 114.046547,115.108398 114.580078,115.108398 C114.930991,115.108398 115.25773,115.075277 115.560303,115.009033 C115.862876,114.942789 116.187824,114.832683 116.535156,114.678711 L116.535156,115.70459 C116.227212,115.8514 115.915692,115.955241 115.600586,116.016113 C115.28548,116.076986 114.925621,116.107422 114.520996,116.107422 Z M114.290039,110.908203 C113.888995,110.908203 113.567628,111.035318 113.325928,111.289551 C113.084227,111.543784 112.940104,111.914386 112.893555,112.401367 L115.589844,112.401367 C115.582682,111.910805 115.464519,111.539308 115.235352,111.286865 C115.006184,111.034423 114.691083,110.908203 114.290039,110.908203 Z M124.838867,116 L124.586426,115.172852 L124.543457,115.172852 C124.256997,115.534507 123.968751,115.78068 123.678711,115.911377 C123.38867,116.042074 123.016278,116.107422 122.561523,116.107422 C121.977862,116.107422 121.522218,115.949871 121.19458,115.634766 C120.866942,115.31966 120.703125,114.873864 120.703125,114.297363 C120.703125,113.685056 120.930499,113.223146 121.385254,112.911621 C121.840009,112.600096 122.532873,112.430013 123.463867,112.401367 L124.489746,112.369141 L124.489746,112.052246 C124.489746,111.672687 124.401124,111.388917 124.223877,111.200928 C124.04663,111.012939 123.771812,110.918945 123.399414,110.918945 C123.095051,110.918945 122.803224,110.963704 122.523926,111.053223 C122.244628,111.142741 121.976076,111.248372 121.718262,111.370117 L121.310059,110.467773 C121.632326,110.299478 121.985024,110.171469 122.368164,110.08374 C122.751304,109.996012 123.112954,109.952148 123.453125,109.952148 C124.208663,109.952148 124.778888,110.11686 125.163818,110.446289 C125.548749,110.775718 125.741211,111.293128 125.741211,111.998535 L125.741211,116 L124.838867,116 Z M122.958984,115.140625 C123.41732,115.140625 123.785236,115.012615 124.062744,114.756592 C124.340252,114.500568 124.479004,114.141604 124.479004,113.679688 L124.479004,113.164062 L123.716309,113.196289 C123.121905,113.217774 122.689536,113.317138 122.419189,113.494385 C122.148843,113.671632 122.013672,113.942869 122.013672,114.308105 C122.013672,114.573081 122.092447,114.778075 122.25,114.923096 C122.407553,115.068116 122.643879,115.140625 122.958984,115.140625 Z M134.351074,114.308105 C134.351074,114.888186 134.139813,115.333088 133.717285,115.642822 C133.294757,115.952557 132.68962,116.107422 131.901855,116.107422 C131.11051,116.107422 130.474937,115.987469 129.995117,115.747559 L129.995117,114.657227 C130.693363,114.979494 131.343259,115.140625 131.944824,115.140625 C132.721846,115.140625 133.110352,114.90609 133.110352,114.437012 C133.110352,114.28662 133.067383,114.161296 132.981445,114.061035 C132.895507,113.960774 132.75407,113.856934 132.557129,113.749512 C132.360188,113.642089 132.086265,113.520346 131.735352,113.384277 C131.051429,113.119302 130.588624,112.854331 130.346924,112.589355 C130.105223,112.32438 129.984375,111.980634 129.984375,111.558105 C129.984375,111.049639 130.18937,110.654868 130.599365,110.373779 C131.009361,110.092691 131.567054,109.952148 132.272461,109.952148 C132.970707,109.952148 133.631345,110.093586 134.254395,110.376465 L133.846191,111.327148 C133.205238,111.062173 132.666343,110.929688 132.229492,110.929688 C131.563473,110.929688 131.230469,111.119464 131.230469,111.499023 C131.230469,111.685222 131.317301,111.842773 131.490967,111.97168 C131.664633,112.100587 132.043291,112.277831 132.626953,112.503418 C133.117515,112.693198 133.473794,112.866861 133.695801,113.024414 C133.917807,113.181967 134.082519,113.363687 134.189941,113.56958 C134.297364,113.775473 134.351074,114.021646 134.351074,114.308105 Z M138.30957,116.107422 C137.385738,116.107422 136.663333,115.837975 136.142334,115.299072 C135.621335,114.76017 135.36084,114.018071 135.36084,113.072754 C135.36084,112.102371 135.602537,111.339684 136.085938,110.784668 C136.569338,110.229652 137.233557,109.952148 138.078613,109.952148 C138.862797,109.952148 139.482257,110.190265 139.937012,110.666504 C140.391767,111.142743 140.619141,111.79801 140.619141,112.632324 L140.619141,113.314453 L136.660645,113.314453 C136.678548,113.890953 136.834308,114.334064 137.12793,114.643799 C137.421551,114.953533 137.835121,115.108398 138.368652,115.108398 C138.719566,115.108398 139.046304,115.075277 139.348877,115.009033 C139.65145,114.942789 139.976398,114.832683 140.32373,114.678711 L140.32373,115.70459 C140.015786,115.8514 139.704266,115.955241 139.38916,116.016113 C139.074054,116.076986 138.714195,116.107422 138.30957,116.107422 Z M138.078613,110.908203 C137.67757,110.908203 137.356202,111.035318 137.114502,111.289551 C136.872802,111.543784 136.728679,111.914386 136.682129,112.401367 L139.378418,112.401367 C139.371256,111.910805 139.253094,111.539308 139.023926,111.286865 C138.794758,111.034423 138.479657,110.908203 138.078613,110.908203 Z M145.066406,109.952148 C145.320639,109.952148 145.53011,109.970052 145.694824,110.005859 L145.571289,111.182129 C145.392252,111.13916 145.206056,111.117676 145.012695,111.117676 C144.50781,111.117676 144.098716,111.282388 143.7854,111.611816 C143.472085,111.941245 143.31543,112.369138 143.31543,112.895508 L143.31543,116 L142.053223,116 L142.053223,110.05957 L143.041504,110.05957 L143.208008,111.106934 L143.272461,111.106934 C143.469402,110.75244 143.726317,110.471355 144.043213,110.263672 C144.360109,110.055989 144.70117,109.952148 145.066406,109.952148 Z M148.149414,116 L145.893555,110.05957 L147.225586,110.05957 L148.434082,113.513184 C148.641765,114.093265 148.76709,114.562335 148.810059,114.92041 L148.853027,114.92041 C148.885254,114.662596 149.010578,114.193526 149.229004,113.513184 L150.4375,110.05957 L151.780273,110.05957 L149.513672,116 L148.149414,116 Z M153.944824,116 L152.682617,116 L152.682617,110.05957 L153.944824,110.05957 L153.944824,116 Z M152.607422,108.48584 C152.607422,108.260253 152.669189,108.086589 152.792725,107.964844 C152.91626,107.843098 153.09261,107.782227 153.321777,107.782227 C153.543784,107.782227 153.716552,107.843098 153.840088,107.964844 C153.963624,108.086589 154.025391,108.260253 154.025391,108.48584 C154.025391,108.700685 153.963624,108.869872 153.840088,108.993408 C153.716552,109.116944 153.543784,109.178711 153.321777,109.178711 C153.09261,109.178711 152.91626,109.116944 152.792725,108.993408 C152.669189,108.869872 152.607422,108.700685 152.607422,108.48584 Z M158.14502,116.107422 C157.246252,116.107422 156.563235,115.845136 156.095947,115.320557 C155.62866,114.795977 155.39502,114.043136 155.39502,113.062012 C155.39502,112.062983 155.639402,111.294925 156.128174,110.757812 C156.616946,110.2207 157.323238,109.952148 158.24707,109.952148 C158.873701,109.952148 159.43766,110.068521 159.938965,110.30127 L159.557617,111.316406 C159.024086,111.108723 158.583661,111.004883 158.236328,111.004883 C157.208654,111.004883 156.694824,111.687005 156.694824,113.05127 C156.694824,113.717288 156.822834,114.21769 157.078857,114.55249 C157.334881,114.88729 157.709958,115.054688 158.204102,115.054688 C158.766279,115.054688 159.298012,114.91504 159.799316,114.635742 L159.799316,115.736816 C159.573729,115.869304 159.332928,115.964192 159.076904,116.021484 C158.820881,116.078776 158.510256,116.107422 158.14502,116.107422 Z M163.790039,116.107422 C162.866206,116.107422 162.143801,115.837975 161.622803,115.299072 C161.101804,114.76017 160.841309,114.018071 160.841309,113.072754 C160.841309,112.102371 161.083005,111.339684 161.566406,110.784668 C162.049807,110.229652 162.714026,109.952148 163.559082,109.952148 C164.343266,109.952148 164.962726,110.190265 165.41748,110.666504 C165.872235,111.142743 166.099609,111.79801 166.099609,112.632324 L166.099609,113.314453 L162.141113,113.314453 C162.159017,113.890953 162.314777,114.334064 162.608398,114.643799 C162.90202,114.953533 163.31559,115.108398 163.849121,115.108398 C164.200034,115.108398 164.526773,115.075277 164.829346,115.009033 C165.131919,114.942789 165.456867,114.832683 165.804199,114.678711 L165.804199,115.70459 C165.496255,115.8514 165.184735,115.955241 164.869629,116.016113 C164.554523,116.076986 164.194663,116.107422 163.790039,116.107422 Z M163.559082,110.908203 C163.158038,110.908203 162.836671,111.035318 162.594971,111.289551 C162.35327,111.543784 162.209147,111.914386 162.162598,112.401367 L164.858887,112.401367 C164.851725,111.910805 164.733562,111.539308 164.504395,111.286865 C164.275227,111.034423 163.960126,110.908203 163.559082,110.908203 Z" id="Hi,-I-would-like-to" fill="#000000"></path>
                <g id="user-(2)" transform="translate(23.799999, 83.849997)" fill-rule="nonzero">
                    <path d="M10.9044082,22.2263994 L6.27209983,24.5334475 C6.00026588,24.6687786 5.75596683,24.8351342 5.5286574,25.0164673 C8.22942148,27.0956455 11.7158091,28.3499992 15.5249996,28.3499992 C19.3060693,28.3499992 22.7701947,27.1143672 25.4633427,25.063539 C25.2149427,24.8720427 24.9454522,24.6998031 24.6466692,24.5639371 L19.6862853,22.2996815 C19.0453665,22.0070881 18.6405448,21.4090636 18.6405448,20.754874 L18.6405448,18.9779174 C18.7799769,18.832958 18.9393278,18.6468108 19.1098099,18.4269646 C19.7858797,17.5550684 20.2973259,16.5959826 20.6517645,15.5898251 C21.2879966,15.4106317 21.7566758,14.8741213 21.7566758,14.2365138 L21.7566758,12.3397384 C21.7566758,11.9225119 21.5533862,11.5496827 21.2376136,11.2886488 L21.2376136,8.54672242 C21.2376136,8.54672242 21.8545126,4.27978008 15.5255854,4.27978008 C9.19665825,4.27978008 9.81355729,8.54672242 9.81355729,8.54672242 L9.81355729,11.2886488 C9.49719881,11.5496827 9.29449504,11.9225119 9.29449504,12.3397384 L9.29449504,14.2365138 C9.29449504,14.7361156 9.58214692,15.1758081 10.012746,15.4298883 C10.5318082,17.4930193 11.890978,18.9779174 11.890978,18.9779174 L11.890978,20.7110117 C11.8903921,21.3422004 11.5119337,21.9236428 10.9044082,22.2263994 Z" id="Shape" fill="#FFFFFF"></path>
                    <path d="M15.7903892,0.00213962258 C7.21766019,-0.131586789 0.148805656,6.10541305 0.00234339616,13.9326874 C-0.0808471677,18.3707995 2.08562259,22.3595909 5.53510174,25.012188 C5.76065362,24.8324597 6.00260927,24.6677088 6.27151398,24.5339824 L10.9038224,22.2269343 C11.5113478,21.9241777 11.8898063,21.3427353 11.8898063,20.7104768 L11.8898063,18.9773825 C11.8898063,18.9773825 10.5300507,17.4924844 10.0115743,15.4293534 C9.58156107,15.1752732 9.29332334,14.7361156 9.29332334,14.2359789 L9.29332334,12.3392034 C9.29332334,11.921977 9.49661296,11.5491478 9.81238559,11.2881139 L9.81238559,8.54618751 C9.81238559,8.54618751 9.19548655,4.27924517 15.5244137,4.27924517 C21.8533409,4.27924517 21.2364419,8.54618751 21.2364419,8.54618751 L21.2364419,11.2881139 C21.5528004,11.5491478 21.7555041,11.921977 21.7555041,12.3392034 L21.7555041,14.2359789 C21.7555041,14.8735864 21.2868249,15.4100968 20.6505928,15.5892902 C20.2961542,16.5954477 19.784708,17.5545335 19.1086382,18.4264297 C18.9381561,18.6462759 18.7788052,18.8324231 18.6393731,18.9773825 L18.6393731,20.7543391 C18.6393731,21.4085287 19.0441948,22.0070881 19.6851136,22.2991466 L24.6454975,24.5634022 C24.9431088,24.6992682 25.2120135,24.8709729 25.4598276,25.0619342 C28.8050257,22.5147136 30.9662228,18.7061854 31.0464841,14.4173119 C31.194118,6.59003756 24.3637041,0.135866034 15.7903892,0.00213962258 Z" id="Shape" fill="#556080"></path>
                </g>
                <path d="M68.4174979,217.499994 L92.5824971,217.499994 C95.6021139,217.499994 98.049997,219.947877 98.049997,222.967494 L98.049997,239.032493 C98.049997,242.05211 95.6021139,244.499993 92.5824971,244.499993 L68.4174979,244.499993 C65.3978811,244.499993 62.949998,242.05211 62.949998,239.032493 L62.949998,222.967494 C62.949998,219.947877 65.3978811,217.499994 68.4174979,217.499994 Z" id="Rectangle-10" fill="#FFFFFF"></path>
                <path d="M73.9548806,230.979974 L75.813279,227.397455 L77.2097634,227.397455 L74.5940408,232.204584 L74.5940408,235.249994 L73.3049783,235.249994 L73.3049783,232.247552 L70.6999978,227.397455 L72.0964822,227.397455 L73.9548806,230.979974 Z M80.1584939,235.357416 C79.2346611,235.357416 78.5122562,235.087968 77.9912575,234.549066 C77.4702588,234.010164 77.2097634,233.268065 77.2097634,232.322748 C77.2097634,231.352365 77.4514602,230.589678 77.9348611,230.034662 C78.4182619,229.479646 79.0824805,229.202142 79.9275368,229.202142 C80.7117205,229.202142 81.3311804,229.440258 81.7859353,229.916498 C82.2406902,230.392737 82.4680642,231.048004 82.4680642,231.882318 L82.4680642,232.564447 L78.5095681,232.564447 C78.5274718,233.140947 78.683232,233.584058 78.9768533,233.893793 C79.2704745,234.203527 79.6840446,234.358392 80.2175759,234.358392 C80.5684891,234.358392 80.8952274,234.325271 81.1978005,234.259027 C81.5003736,234.192783 81.8253216,234.082677 82.172654,233.928705 L82.172654,234.954584 C81.8647098,235.101394 81.5531895,235.205234 81.2380837,235.266107 C80.922978,235.32698 80.5631183,235.357416 80.1584939,235.357416 Z M79.9275368,230.158197 C79.5264932,230.158197 79.2051259,230.285311 78.9634255,230.539545 C78.7217251,230.793778 78.5776022,231.164379 78.5310525,231.651361 L81.2273415,231.651361 C81.22018,231.160799 81.1020172,230.789302 80.8728493,230.536859 C80.6436815,230.284416 80.3285805,230.158197 79.9275368,230.158197 Z M87.8928689,233.558099 C87.8928689,234.13818 87.681608,234.583081 87.2590798,234.892816 C86.8365517,235.202551 86.2314145,235.357416 85.4436501,235.357416 C84.652305,235.357416 84.016732,235.237462 83.5369118,234.997552 L83.5369118,233.90722 C84.2351575,234.229488 84.8850534,234.390619 85.4866189,234.390619 C86.263641,234.390619 86.6521462,234.156083 86.6521462,233.687005 C86.6521462,233.536614 86.6091779,233.41129 86.52324,233.311029 C86.437302,233.210768 86.2958647,233.106928 86.0989236,232.999505 C85.9019825,232.892083 85.6280594,232.770339 85.2771462,232.634271 C84.5932235,232.369296 84.1304189,232.104324 83.8887185,231.839349 C83.6470181,231.574374 83.5261697,231.230627 83.5261697,230.808099 C83.5261697,230.299633 83.7311644,229.904862 84.1411599,229.623773 C84.5511554,229.342684 85.1088484,229.202142 85.8142556,229.202142 C86.5125013,229.202142 87.1731392,229.34358 87.7961892,229.626459 L87.3879861,230.577142 C86.7470323,230.312167 86.208138,230.179681 85.7712868,230.179681 C85.1052679,230.179681 84.7722634,230.369458 84.7722634,230.749017 C84.7722634,230.935216 84.8590952,231.092767 85.0327615,231.221673 C85.2064277,231.35058 85.585086,231.527825 86.1687478,231.753412 C86.6593101,231.943191 87.0155891,232.116855 87.2375954,232.274408 C87.4596018,232.431961 87.6243137,232.613681 87.7317361,232.819574 C87.8391585,233.025467 87.8928689,233.271639 87.8928689,233.558099 Z" id="Yes" fill="#000000"></path>
                <g id="user-(2)" transform="translate(23.799999, 217.499994)" fill-rule="nonzero">
                    <path d="M10.9044082,22.2263994 L6.27209983,24.5334475 C6.00026588,24.6687786 5.75596683,24.8351342 5.5286574,25.0164673 C8.22942148,27.0956455 11.7158091,28.3499992 15.5249996,28.3499992 C19.3060693,28.3499992 22.7701947,27.1143672 25.4633427,25.063539 C25.2149427,24.8720427 24.9454522,24.6998031 24.6466692,24.5639371 L19.6862853,22.2996815 C19.0453665,22.0070881 18.6405448,21.4090636 18.6405448,20.754874 L18.6405448,18.9779174 C18.7799769,18.832958 18.9393278,18.6468108 19.1098099,18.4269646 C19.7858797,17.5550684 20.2973259,16.5959826 20.6517645,15.5898251 C21.2879966,15.4106317 21.7566758,14.8741213 21.7566758,14.2365138 L21.7566758,12.3397384 C21.7566758,11.9225119 21.5533862,11.5496827 21.2376136,11.2886488 L21.2376136,8.54672242 C21.2376136,8.54672242 21.8545126,4.27978008 15.5255854,4.27978008 C9.19665825,4.27978008 9.81355729,8.54672242 9.81355729,8.54672242 L9.81355729,11.2886488 C9.49719881,11.5496827 9.29449504,11.9225119 9.29449504,12.3397384 L9.29449504,14.2365138 C9.29449504,14.7361156 9.58214692,15.1758081 10.012746,15.4298883 C10.5318082,17.4930193 11.890978,18.9779174 11.890978,18.9779174 L11.890978,20.7110117 C11.8903921,21.3422004 11.5119337,21.9236428 10.9044082,22.2263994 Z" id="Shape" fill="#FFFFFF"></path>
                    <path d="M15.7903892,0.00213962258 C7.21766019,-0.131586789 0.148805656,6.10541305 0.00234339616,13.9326874 C-0.0808471677,18.3707995 2.08562259,22.3595909 5.53510174,25.012188 C5.76065362,24.8324597 6.00260927,24.6677088 6.27151398,24.5339824 L10.9038224,22.2269343 C11.5113478,21.9241777 11.8898063,21.3427353 11.8898063,20.7104768 L11.8898063,18.9773825 C11.8898063,18.9773825 10.5300507,17.4924844 10.0115743,15.4293534 C9.58156107,15.1752732 9.29332334,14.7361156 9.29332334,14.2359789 L9.29332334,12.3392034 C9.29332334,11.921977 9.49661296,11.5491478 9.81238559,11.2881139 L9.81238559,8.54618751 C9.81238559,8.54618751 9.19548655,4.27924517 15.5244137,4.27924517 C21.8533409,4.27924517 21.2364419,8.54618751 21.2364419,8.54618751 L21.2364419,11.2881139 C21.5528004,11.5491478 21.7555041,11.921977 21.7555041,12.3392034 L21.7555041,14.2359789 C21.7555041,14.8735864 21.2868249,15.4100968 20.6505928,15.5892902 C20.2961542,16.5954477 19.784708,17.5545335 19.1086382,18.4264297 C18.9381561,18.6462759 18.7788052,18.8324231 18.6393731,18.9773825 L18.6393731,20.7543391 C18.6393731,21.4085287 19.0441948,22.0070881 19.6851136,22.2991466 L24.6454975,24.5634022 C24.9431088,24.6992682 25.2120135,24.8709729 25.4598276,25.0619342 C28.8050257,22.5147136 30.9662228,18.7061854 31.0464841,14.4173119 C31.194118,6.59003756 24.3637041,0.135866034 15.7903892,0.00213962258 Z" id="Shape" fill="#556080"></path>
                </g>
            </g>
        </g>
    </g>
</svg>