<?xml version="1.0" encoding="UTF-8"?>
<svg width="223px" height="323px" viewBox="0 0 223 323" version="1.1" xmlns="http://www.w3.org/2000/svg" xmlns:xlink="http://www.w3.org/1999/xlink">
    <!-- Generator: Sketch 49.3 (51167) - http://www.bohemiancoding.com/sketch -->
    <title>robot (2)</title>
    <desc>Created with Sketch.</desc>
    <defs></defs>
    <g id="desktop" stroke="none" stroke-width="1" fill="none" fill-rule="evenodd" opacity="0.100000001">
        <g id="chatbots" transform="translate(0.000000, -3102.000000)" fill-rule="nonzero">
            <g id="robot-(2)" transform="translate(-100.000000, 3102.000000)">
                <path d="M274.025519,182.682 C271.054296,182.682 268.652889,185.089074 268.652889,188.05463 L268.652889,231.037556 C268.652889,239.924148 261.420963,247.156074 252.53437,247.156074 L69.8574074,247.156074 C60.9708148,247.156074 53.7388889,239.924148 53.7388889,231.037556 L53.7388889,188.05463 C53.7388889,185.089074 51.3374815,182.682 48.3662593,182.682 C45.395037,182.682 42.9936296,185.089074 42.9936296,188.05463 L42.9936296,231.037556 C42.9936296,245.850222 55.0447407,257.901963 69.858037,257.901963 L252.53437,257.901963 C267.347037,257.901963 279.398778,245.850852 279.398778,231.037556 L279.398778,188.05463 C279.398148,185.089074 276.996741,182.682 274.025519,182.682 Z" id="Shape" fill="#42566C"></path>
                <path d="M53.7388889,166.563481 L53.7388889,112.835296 C53.7388889,103.948704 60.9708148,96.7167778 69.8574074,96.7167778 L112.840333,96.7167778 C115.811556,96.7167778 118.212963,94.3097037 118.212963,91.3441481 C118.212963,70.1646667 141.32163,53.7344815 161.195889,53.7344815 C175.176185,53.7344815 189.978148,61.455 198.043074,72.9476296 C199.746222,75.3710741 203.093333,75.9673333 205.527481,74.2641852 C207.955963,72.5553704 208.547185,69.2082593 206.83837,66.7797778 C197.737074,53.7987037 182.354593,45.0090741 166.569148,43.338037 L166.569148,31.2535556 C172.806889,29.024037 177.315037,23.1193704 177.315037,16.1235556 C177.315037,7.23696296 170.083111,0.00503703704 161.196519,0.00503703704 C152.309926,0.00503703704 145.078,7.23696296 145.078,16.1235556 C145.078,23.1187407 149.585519,29.024037 155.823889,31.2478889 L155.823889,43.3204074 C133.682333,45.7702963 110.944519,62.9044074 107.828481,85.9702593 L69.8574074,85.9702593 C55.0447407,85.9702593 42.993,98.0213704 42.993,112.834667 L42.9822963,161.190222 L31.2485185,161.190222 C29.019,154.946815 23.1143333,150.444333 16.1185185,150.444333 C7.23192593,150.444333 0,157.676259 0,166.562852 C0,175.449444 7.23192593,182.68137 16.1185185,182.68137 C23.1137037,182.68137 29.019,178.178889 31.2485185,171.935481 L48.3662593,171.935481 C51.3374815,171.936111 53.7388889,169.529037 53.7388889,166.563481 Z M161.195889,10.7509259 C164.161444,10.7509259 166.568519,13.163037 166.568519,16.1235556 C166.568519,19.0840741 164.161444,21.4961852 161.195889,21.4961852 C158.230333,21.4961852 155.823259,19.0840741 155.823259,16.1235556 C155.823259,13.1636667 158.230333,10.7509259 161.195889,10.7509259 Z M16.1185185,171.936111 C13.152963,171.936111 10.7458889,169.524 10.7458889,166.563481 C10.7458889,163.602963 13.152963,161.190852 16.1185185,161.190852 C19.0840741,161.190852 21.4911481,163.602963 21.4911481,166.563481 C21.4911481,169.524 19.0840741,171.936111 16.1185185,171.936111 Z" id="Shape" fill="#42566C"></path>
                <path d="M306.262556,150.444963 C299.26737,150.444963 293.362704,154.947444 291.138222,161.190852 L279.398148,161.190852 L279.398148,112.835296 C279.398148,98.0226296 267.347037,85.9708889 252.533741,85.9708889 L134.331481,85.9708889 C131.360259,85.9708889 128.958852,88.377963 128.958852,91.3435185 C128.958852,94.3090741 131.360259,96.7161481 134.331481,96.7161481 L252.533741,96.7161481 C261.420333,96.7161481 268.652259,103.948074 268.652259,112.834667 L268.652259,166.562852 C268.652259,169.528407 271.053667,171.935481 274.024889,171.935481 L291.137593,171.935481 C293.362074,178.178889 299.266741,182.68137 306.261926,182.68137 C315.148519,182.68137 322.380444,175.449444 322.380444,166.562852 C322.381074,157.676889 315.149148,150.444963 306.262556,150.444963 Z M306.262556,171.936111 C303.297,171.936111 300.889926,169.524 300.889926,166.563481 C300.889926,163.602963 303.297,161.190852 306.262556,161.190852 C309.228111,161.190852 311.635185,163.602963 311.635185,166.563481 C311.635185,169.524 309.228741,171.936111 306.262556,171.936111 Z" id="Shape" fill="#42566C"></path>
                <path d="M209.551444,268.647222 L112.840333,268.647222 C109.869111,268.647222 107.467704,271.054296 107.467704,274.019852 C107.467704,276.985407 109.869111,279.392481 112.840333,279.392481 L209.551444,279.392481 C212.522667,279.392481 214.924074,276.985407 214.924074,274.019852 C214.924074,271.054296 212.522667,268.647222 209.551444,268.647222 Z" id="Shape" fill="#42566C"></path>
                <path d="M236.415852,145.072333 C236.415852,136.185741 229.183926,128.953815 220.297333,128.953815 C211.410741,128.953815 204.178815,136.185741 204.178815,145.072333 C204.178815,153.958926 211.410741,161.190852 220.297333,161.190852 C229.183926,161.190852 236.415852,153.958926 236.415852,145.072333 Z M214.924074,145.072333 C214.924074,142.111815 217.331148,139.699704 220.296704,139.699704 C223.262259,139.699704 225.669333,142.111815 225.669333,145.072333 C225.669333,148.032852 223.262259,150.444963 220.296704,150.444963 C217.331148,150.444963 214.924074,148.032222 214.924074,145.072333 Z" id="Shape" fill="#E83F67"></path>
                <path d="M118.212963,145.072333 C118.212963,136.185741 110.981037,128.953815 102.094444,128.953815 C93.2078519,128.953815 85.9759259,136.185741 85.9759259,145.072333 C85.9759259,153.958926 93.2078519,161.190852 102.094444,161.190852 C110.981037,161.190852 118.212963,153.958926 118.212963,145.072333 Z M102.094444,150.444963 C99.1288889,150.444963 96.7218148,148.032852 96.7218148,145.072333 C96.7218148,142.111815 99.1288889,139.699704 102.094444,139.699704 C105.06,139.699704 107.467074,142.111815 107.467074,145.072333 C107.467704,148.032222 105.06063,150.444963 102.094444,150.444963 Z" id="Shape" fill="#E83F67"></path>
                <path d="M198.805556,311.630148 L123.586222,311.630148 C120.615,311.630148 118.213593,314.037222 118.213593,317.002778 C118.213593,319.968333 120.615,322.375407 123.586222,322.375407 L198.805556,322.375407 C201.776778,322.375407 204.178185,319.968333 204.178185,317.002778 C204.178185,314.037222 201.776778,311.630148 198.805556,311.630148 Z" id="Shape" fill="#42566C"></path>
                <path d="M107.467704,198.800519 L107.467704,220.291667 C107.467704,223.257222 109.869111,225.664296 112.840333,225.664296 L209.551444,225.664296 C212.522667,225.664296 214.924074,223.257222 214.924074,220.291667 L214.924074,198.800519 C214.924074,195.834963 212.522667,193.427889 209.551444,193.427889 L112.840333,193.427889 C109.869111,193.427889 107.467704,195.834333 107.467704,198.800519 Z M182.687037,204.173148 L204.178185,204.173148 L204.178185,214.919037 L182.687037,214.919037 L182.687037,204.173148 Z M150.45,204.173148 L171.941148,204.173148 L171.941148,214.919037 L150.45,214.919037 L150.45,204.173148 Z M118.212963,204.173148 L139.704111,204.173148 L139.704111,214.919037 L118.212963,214.919037 L118.212963,204.173148 Z" id="Shape" fill="#E83F67"></path>
                <path d="M198.805556,290.139 L123.586222,290.139 C120.615,290.139 118.213593,292.546074 118.213593,295.51163 C118.213593,298.477185 120.615,300.884259 123.586222,300.884259 L198.805556,300.884259 C201.776778,300.884259 204.178185,298.477185 204.178185,295.51163 C204.178185,292.546074 201.776778,290.139 198.805556,290.139 Z" id="Shape" fill="#E83F67"></path>
            </g>
        </g>
    </g>
</svg>