<?xml version="1.0" encoding="UTF-8"?>
<svg width="211px" height="294px" viewBox="0 0 211 294" version="1.1" xmlns="http://www.w3.org/2000/svg" xmlns:xlink="http://www.w3.org/1999/xlink">
    <!-- Generator: Sketch 49.3 (51167) - http://www.bohemiancoding.com/sketch -->
    <title>smartphone (10)</title>
    <desc>Created with Sketch.</desc>
    <defs></defs>
    <g id="desktop" stroke="none" stroke-width="1" fill="none" fill-rule="evenodd" opacity="0.100000001">
        <g id="chatbots" transform="translate(-1229.000000, -4128.000000)" fill-rule="nonzero">
            <g id="smartphone-(10)" transform="translate(1357.000000, 4275.000000) scale(-1, 1) translate(-1357.000000, -4275.000000) translate(1229.000000, 4128.000000)">
                <path d="M174.313817,60 C177.311475,60 179.769555,57.54 179.769555,54.54 L179.769555,30.84 C179.769555,13.8 165.920375,0 148.95363,0 L32.4046838,0 C15.3779859,0 1.58875878,13.86 1.58875878,30.84 L1.58875878,220.32 C1.58875878,223.32 4.04683841,225.78 7.04449649,225.78 C10.0421546,225.78 12.5002342,223.32 12.5002342,220.32 L12.5002342,30.84 C12.5002342,19.8 21.4332553,10.86 32.464637,10.86 L148.95363,10.86 C159.985012,10.86 168.918033,19.8 168.918033,30.84 L168.918033,37.32 L31.9850117,37.32 C28.9873536,37.32 26.529274,39.78 26.529274,42.78 C26.529274,45.78 28.9873536,48.24 31.9850117,48.24 L168.918033,48.24 L168.918033,54.6 C168.85808,57.6 171.316159,60 174.313817,60 Z" id="Shape" fill="#465A6F"></path>
                <path d="M178.090867,261.24 L178.090867,211.32 C178.090867,208.32 175.632787,205.86 172.635129,205.86 C169.637471,205.86 167.179391,208.32 167.179391,211.32 L167.179391,261.24 C167.179391,271.74 160.344731,282.66 148.893677,282.66 L32.4046838,282.66 C21.4332553,282.66 11.4210773,272.46 11.4210773,261.24 L11.4210773,252.42 L144.277283,252.42 C147.274941,252.42 149.733021,249.96 149.733021,246.96 C149.733021,243.96 147.274941,241.5 144.277283,241.5 L6.02529274,241.5 C3.02763466,241.5 0.569555035,243.96 0.569555035,246.96 L0.569555035,261.18 C0.569555035,278.4 15.4379391,293.46 32.4046838,293.46 L148.893677,293.46 C165.26089,293.52 178.090867,279.36 178.090867,261.24 Z" id="Shape" fill="#465A6F"></path>
                <path d="M255.490398,168.3 L255.490398,98.7 C255.490398,85.38 244.638876,74.52 231.269321,74.52 L117.358314,74.52 C104.048712,74.52 93.1372365,85.38 93.1372365,98.7 L93.1372365,168.3 C93.1372365,181.62 103.988759,192.54 117.358314,192.54 L126.651054,192.54 L126.651054,220.32 C126.651054,222.48 127.970023,224.46 129.948478,225.3 C130.607963,225.6 131.387354,225.72 132.106792,225.72 C133.485714,225.72 134.864637,225.18 135.883841,224.22 L168.977986,192.48 L231.389227,192.48 C244.638876,192.48 255.490398,181.62 255.490398,168.3 Z M166.699766,181.62 C165.320843,181.62 163.94192,182.16 162.922717,183.12 L137.442623,207.54 L137.442623,187.02 C137.442623,184.02 134.984543,181.56 131.986885,181.56 L117.298361,181.56 C109.924122,181.56 103.988759,175.56 103.988759,168.24 L103.988759,98.64 C103.988759,91.26 109.984075,85.32 117.298361,85.32 L231.269321,85.32 C238.64356,85.32 244.578923,91.32 244.578923,98.64 L244.578923,168.24 C244.578923,175.62 238.583607,181.56 231.269321,181.56 L166.699766,181.56 L166.699766,181.62 Z" id="Shape" fill="#E83F67"></path>
                <path d="M174.313817,130.32 C172.874941,130.32 171.496019,130.92 170.476815,131.88 C169.457611,132.9 168.918033,134.28 168.918033,135.72 C168.918033,137.16 169.517564,138.54 170.536768,139.56 C171.555972,140.58 172.934895,141.18 174.37377,141.18 C175.812646,141.18 177.191569,140.58 178.210773,139.56 C179.229977,138.54 179.829508,137.16 179.829508,135.72 C179.829508,134.28 179.229977,132.9 178.210773,131.88 C177.131616,130.92 175.752693,130.32 174.313817,130.32 Z" id="Shape" fill="#E83F67"></path>
                <path d="M194.518033,130.32 C193.079157,130.32 191.700234,130.92 190.68103,131.88 C189.661827,132.9 189.122248,134.28 189.122248,135.72 C189.122248,137.16 189.72178,138.54 190.68103,139.56 C191.700234,140.58 193.079157,141.18 194.518033,141.18 C195.956909,141.18 197.335831,140.58 198.355035,139.56 C199.374239,138.54 199.913817,137.16 199.913817,135.72 C199.913817,134.28 199.314286,132.9 198.355035,131.88 C197.395785,130.92 195.956909,130.32 194.518033,130.32 Z" id="Shape" fill="#E83F67"></path>
                <path d="M154.109602,130.32 C152.670726,130.32 151.291803,130.92 150.2726,131.88 C149.253396,132.9 148.713817,134.28 148.713817,135.72 C148.713817,137.16 149.313349,138.54 150.2726,139.56 C151.291803,140.58 152.670726,141.18 154.109602,141.18 C155.548478,141.18 156.9274,140.58 157.946604,139.56 C158.965808,138.54 159.56534,137.16 159.56534,135.72 C159.56534,134.28 158.965808,132.9 157.946604,131.88 C156.9274,130.92 155.548478,130.32 154.109602,130.32 Z" id="Shape" fill="#E83F67"></path>
            </g>
        </g>
    </g>
</svg>