<?xml version="1.0" encoding="UTF-8" standalone="no"?>
<svg width="119px" height="42px" viewBox="0 0 119 42" version="1.1" xmlns="http://www.w3.org/2000/svg" xmlns:xlink="http://www.w3.org/1999/xlink">
    <!-- Generator: Sketch 39.1 (31720) - http://www.bohemiancoding.com/sketch -->
    <title>Group</title>
    <desc>Created with Sketch.</desc>
    <defs></defs>
    <g id="Page-1" stroke="none" stroke-width="1" fill="none" fill-rule="evenodd">
        <g id="Artboard-2" transform="translate(-50.000000, -62.000000)" fill="#003D8A">
            <g id="Group" transform="translate(50.000000, 62.000000)">
                <path d="M55.9267188,31.40625 C55.9267188,31.796877 55.9540622,32.1757794 56.00875,32.5429688 C56.0634378,32.9101581 56.1610931,33.2382798 56.3017188,33.5273438 C56.4423445,33.8164077 56.6298426,34.0507804 56.8642188,34.2304688 C57.0985949,34.4101571 57.395467,34.5 57.7548438,34.5 C58.3329717,34.5 58.8564039,34.2500025 59.3251563,33.75 C59.7939086,33.2499975 60.2001546,32.648441 60.5439063,31.9453125 C60.887658,31.242184 61.164999,30.5156287 61.3759375,29.765625 C61.5868761,29.0156213 61.7235935,28.3906275 61.7860938,27.890625 L63.2157813,21 C62.5751531,21 61.9501593,21.1601546 61.3407813,21.4804688 C60.7314032,21.8007829 60.1571902,22.2343723 59.618125,22.78125 C59.0790598,23.3281277 58.582971,23.9531215 58.1298438,24.65625 C57.6767165,25.3593785 57.2860954,26.0976524 56.9579688,26.8710938 C56.6298421,27.6445351 56.3759384,28.4218711 56.19625,29.203125 C56.0165616,29.9843789 55.9267188,30.7187466 55.9267188,31.40625 L55.9267188,31.40625 Z M96.299374,33.7384785 C96.6468629,34.594878 97.1027462,35.368245 97.6670312,36.0585938 C98.4014099,36.9570357 99.3193695,37.6718723 100.420937,38.203125 C101.522505,38.7343777 102.807649,39 104.276406,39 C105.213911,39 106.139683,38.8945323 107.05375,38.6835938 C107.967817,38.4726552 108.850621,38.191408 109.702187,37.8398438 C110.553754,37.4882795 111.366246,37.0859398 112.139687,36.6328125 C112.913129,36.1796852 113.635778,35.7187523 114.307656,35.25 C115.854539,34.1562445 117.315462,32.8984446 118.690469,31.4765625 L115.667031,28.3359375 C115.057653,28.9296905 114.315473,29.5585904 113.440469,30.2226562 C112.565464,30.8867221 111.635786,31.4999972 110.651406,32.0625 C109.667026,32.6250028 108.655318,33.0937481 107.61625,33.46875 C106.577182,33.8437519 105.588911,34.03125 104.651406,34.03125 C104.35453,34.03125 104.077189,34.0000003 103.819375,33.9375 C103.561561,33.8749997 103.31547,33.7656258 103.081094,33.609375 C102.846718,33.4531242 102.616251,33.2343764 102.389687,32.953125 C102.163124,32.6718736 101.932657,32.3203146 101.698281,31.8984375 C103.057663,31.5234356 104.319369,31.0000034 105.483437,30.328125 C106.647506,29.6562466 107.651402,28.8906293 108.495156,28.03125 C109.33891,27.1718707 109.99906,26.2578173 110.475625,25.2890625 C110.95219,24.3203077 111.190469,23.3515673 111.190469,22.3828125 C111.190469,21.492183 111.03422,20.6875036 110.721719,19.96875 C110.409217,19.2499964 109.975628,18.6367213 109.420937,18.1289062 C108.866247,17.6210912 108.21391,17.2265639 107.463906,16.9453125 C106.713902,16.6640611 105.901411,16.5234375 105.026406,16.5234375 C103.948276,16.5234375 102.967817,16.7148418 102.085,17.0976562 C101.202183,17.4804707 100.405316,17.9960905 99.694375,18.6445312 C98.9834339,19.292972 98.3623464,20.0429645 97.8310937,20.8945312 C97.2998411,21.746098 96.8584392,22.6406203 96.506875,23.578125 C96.1553107,24.5156297 95.8935946,25.4726514 95.7217187,26.4492188 C95.5793778,27.2579741 95.4959784,28.0318914 95.471519,28.7709864 C95.2487161,28.9048925 95.0277413,29.0333136 94.8085938,29.15625 C94.261716,29.4687516 93.6796906,29.7460925 93.0625,29.9882812 C92.4453094,30.23047 91.9023461,30.3515625 91.4335938,30.3515625 C90.7929655,30.3515625 90.2695333,30.2656259 89.8632812,30.09375 C89.4570292,29.9218741 89.1367199,29.6914077 88.9023438,29.4023438 C88.6679676,29.1132798 88.5039067,28.7890643 88.4101562,28.4296875 C88.3164058,28.0703107 88.2695312,27.7031269 88.2695312,27.328125 C88.2695312,26.9687482 88.2968747,26.6210954 88.3515625,26.2851562 C88.4062503,25.9492171 88.4726559,25.6484388 88.5507812,25.3828125 C88.6289066,25.085936 88.7226557,24.7968764 88.8320312,24.515625 C89.175783,23.7499962 89.4921861,23.0859403 89.78125,22.5234375 C90.0703139,21.9609347 90.3203114,21.4492211 90.53125,20.9882812 C90.7421886,20.5273414 90.9062494,20.1015645 91.0234375,19.7109375 C91.1406256,19.3203105 91.1992188,18.9062522 91.1992188,18.46875 C91.1992188,17.8906221 90.925784,17.4179706 90.3789062,17.0507812 C89.8320285,16.6835919 89.1054733,16.5 88.1992188,16.5 C87.855467,16.5 87.5312515,16.5468745 87.2265625,16.640625 C86.9218735,16.7343755 86.6445325,16.855468 86.3945312,17.0039062 C86.14453,17.1523445 85.941407,17.328124 85.7851562,17.53125 C85.6289055,17.734376 85.527344,17.9453114 85.4804688,18.1640625 L79.3164062,32.859375 L78.9882812,32.8828125 L79.9023438,18.046875 C79.8867187,17.640623 79.7343764,17.2812516 79.4453125,16.96875 C79.1562486,16.6562484 78.7460964,16.5 78.2148438,16.5 C78.1367184,16.5 78.0625004,16.5039062 77.9921875,16.5117188 C77.9218746,16.5195313 77.8476566,16.5312499 77.7695312,16.546875 L74.9570312,16.9921875 C74.4570288,17.0703129 74.1328132,17.5585893 73.984375,18.4570312 C73.8359368,19.3554732 73.7617188,20.609367 73.7617188,22.21875 C73.7617188,22.8437531 73.7695312,23.453122 73.7851562,24.046875 C73.8007813,24.640628 73.8281248,25.289059 73.8671875,25.9921875 C73.9062502,26.695316 73.9492185,27.4804644 73.9960938,28.3476562 C74.0088003,28.5827266 74.0215067,28.8289901 74.0342131,29.0864472 C73.5183676,29.7439825 73.0059759,30.3531848 72.4970313,30.9140625 C72.1689046,31.2734393 71.8212519,31.6210921 71.4540625,31.9570312 C71.0868732,32.2929704 70.7196894,32.5937487 70.3525,32.859375 C69.9853107,33.1250013 69.6220331,33.3398429 69.2626563,33.5039062 C68.9032795,33.6679696 68.5595329,33.75 68.2314063,33.75 C67.7939041,33.75 67.5087507,33.5429708 67.3759375,33.1289062 C67.2431244,32.7148417 67.1767188,32.1406287 67.1767188,31.40625 C67.1767188,30.5468707 67.254843,29.6367236 67.4110938,28.6757812 C67.5673446,27.7148389 67.7392178,26.7539111 67.9267188,25.7929688 C68.1142197,24.8320264 68.286093,23.8945358 68.4423438,22.9804688 C68.5985946,22.0664017 68.6767188,21.2343787 68.6767188,20.484375 C68.6767188,19.9999976 68.6337505,19.6171889 68.5478125,19.3359375 C68.4618746,19.0546861 68.3407821,18.8359383 68.1845313,18.6796875 C68.0282805,18.5234367 67.8485948,18.4218752 67.6454688,18.375 C67.4423428,18.3281248 67.2235949,18.3046875 66.9892188,18.3046875 C66.8173429,18.3046875 66.6415634,18.3085937 66.461875,18.3164062 C66.2821866,18.3242188 66.1064071,18.328125 65.9345313,18.328125 C65.7314053,18.328125 65.5321885,18.3164064 65.336875,18.2929688 C65.1415615,18.2695311 64.9501572,18.2187504 64.7626563,18.140625 C64.5751553,18.0624996 64.4189069,17.9375009 64.2939063,17.765625 C64.1689056,17.5937491 64.0400007,17.4179696 63.9071875,17.2382812 C63.7743744,17.0585929 63.6064073,16.8984382 63.4032813,16.7578125 C63.2001553,16.6171868 62.9189081,16.546875 62.5595313,16.546875 C61.4814009,16.546875 60.4228177,16.7773414 59.38375,17.2382812 C58.3446823,17.6992211 57.356411,18.3203086 56.4189063,19.1015625 C55.4814016,19.8828164 54.618129,20.7968698 53.8290625,21.84375 C53.0399961,22.8906302 52.3564092,24.0039004 51.7782813,25.1835938 C51.2001534,26.3632871 50.7470329,27.5703063 50.4189063,28.8046875 C50.0907796,30.0390687 49.9267188,31.2421816 49.9267188,32.4140625 C49.9267188,33.4453177 50.0907796,34.3710896 50.4189063,35.1914062 C50.7470329,36.0117229 51.1845285,36.7070284 51.7314063,37.2773438 C52.278284,37.8476591 52.907184,38.2851547 53.618125,38.5898438 C54.3290661,38.8945328 55.0595275,39.046875 55.8095313,39.046875 C56.5126598,39.046875 57.2157778,38.9296887 57.9189063,38.6953125 C58.6220348,38.4609363 59.2978093,38.1601581 59.94625,37.7929688 C60.5946908,37.4257794 61.192341,37.0156273 61.7392188,36.5625 C62.2860965,36.1093727 62.7470294,35.6640647 63.1220313,35.2265625 C63.6220338,36.4921938 64.2157778,37.4570279 64.9032813,38.1210938 C65.5907847,38.7851596 66.4501511,39.1171875 67.4814063,39.1171875 C68.3407856,39.1171875 69.200152,38.9062521 70.0595313,38.484375 C70.9189106,38.0624979 71.72359,37.546878 72.4735938,36.9375 C73.1916978,36.3540404 73.8417527,35.7419413 74.4237762,35.1011857 C74.5085004,35.7106345 74.6432826,36.2836733 74.828125,36.8203125 C75.0703137,37.523441 75.4414038,38.1054664 75.9414062,38.5664062 C76.4414087,39.0273461 77.1445267,39.2578125 78.0507812,39.2578125 C78.597659,39.2578125 79.1796844,39.0039088 79.796875,38.4960938 C80.4140656,37.9882787 81.0312469,37.3359415 81.6484375,36.5390625 C82.2656281,35.7421835 82.8632784,34.8515674 83.4414062,33.8671875 C84.0195341,32.8828076 84.535154,31.9218797 84.9882812,30.984375 C85.0039063,31.578128 85.1406237,32.1484348 85.3984375,32.6953125 C85.6562513,33.2421902 86.0156227,33.7343728 86.4765625,34.171875 C86.9375023,34.6093772 87.4999967,34.95703 88.1640625,35.2148438 C88.8281283,35.4726575 89.582027,35.6015625 90.4257812,35.6015625 C91.4257862,35.6015625 92.476557,35.406252 93.578125,35.015625 C94.5103935,34.6850333 95.41747,34.259321 96.299374,33.7384785 Z M101.159219,27.984375 C101.721722,27.984375 102.334997,27.8398452 102.999062,27.5507812 C103.663128,27.2617173 104.28031,26.8906273 104.850625,26.4375 C105.42094,25.9843727 105.901404,25.4921902 106.292031,24.9609375 C106.682658,24.4296848 106.877969,23.914065 106.877969,23.4140625 C106.877969,22.710934 106.749064,22.1328148 106.49125,21.6796875 C106.233436,21.2265602 105.917033,21 105.542031,21 C104.870153,21 104.29594,21.1249988 103.819375,21.375 C103.34281,21.6250012 102.944377,21.9492168 102.624062,22.3476562 C102.303748,22.7460957 102.045938,23.1992162 101.850625,23.7070312 C101.655312,24.2148463 101.506875,24.7265599 101.405312,25.2421875 C101.303749,25.7578151 101.237344,26.2578101 101.206094,26.7421875 C101.174844,27.2265649 101.159219,27.6406233 101.159219,27.984375 Z M11.4901563,2.859375 C11.4901563,3.39062766 11.3612513,4.17577605 11.1034375,5.21484375 C10.8456238,6.25391145 10.5214082,7.4531182 10.1307813,8.8125 C9.74015434,10.1718818 9.31828356,11.6484295 8.86515629,13.2421875 C8.41202903,14.8359455 7.99015825,16.4531168 7.59953129,18.09375 C7.20890434,19.7343832 6.88468883,21.3476483 6.62687504,22.9335937 C6.36906125,24.5195392 6.24015629,25.9921807 6.24015629,27.3515625 C6.24015629,28.460943 6.3143743,29.4960889 6.46281254,30.4570313 C6.61125079,31.4179736 6.84171723,32.2539027 7.15421879,32.9648438 C7.46672036,33.6757848 7.85734145,34.234373 8.32609379,34.640625 C8.79484614,35.046877 9.34952809,35.25 9.99015629,35.25 C10.6307845,35.25 11.251872,35.0625019 11.8534375,34.6875 C12.4550031,34.3124981 13.0370285,33.7968783 13.5995313,33.140625 C14.1620341,32.4843717 14.7010912,31.7031295 15.2167188,30.796875 C15.7323464,29.8906205 16.2284352,28.9101615 16.705,27.8554688 C17.1815649,26.800776 17.6307792,25.6914121 18.0526563,24.5273438 C18.4745334,23.3632754 18.8729669,22.1875059 19.2479688,21 C20.5604754,16.8124791 21.7245262,12.0547141 22.7401563,6.7265625 C22.9276572,5.8671832 23.1503113,5.14844039 23.408125,4.5703125 C23.6659388,3.99218461 23.9745295,3.53125172 24.3339063,3.1875 C24.6932831,2.84374828 25.1112477,2.6015632 25.5878125,2.4609375 C26.0643774,2.3203118 26.6151532,2.25 27.2401563,2.25 C27.8339093,2.25 28.3221856,2.30468695 28.705,2.4140625 C29.0878145,2.52343805 29.3924989,2.67187406 29.6190625,2.859375 C29.8456262,3.04687594 30.0057808,3.27343617 30.0995313,3.5390625 C30.1932818,3.80468883 30.2401563,4.10156086 30.2401563,4.4296875 C30.2401563,4.53906305 30.1776569,4.99608973 30.0526563,5.80078125 C29.9276557,6.60547277 29.767501,7.63671246 29.5721875,8.89453125 C29.3768741,10.15235 29.1659387,11.578117 28.939375,13.171875 C28.7128114,14.765633 28.501876,16.4023354 28.3065625,18.0820312 C28.1112491,19.7617271 27.9510944,21.4218668 27.8260938,23.0625 C27.7010932,24.7031332 27.6385938,26.2109306 27.6385938,27.5859375 C27.6385938,28.9921945 27.6893745,30.2617131 27.7909375,31.3945312 C27.8925006,32.5273494 28.0643738,33.4921835 28.3065625,34.2890625 C28.5487513,35.0859415 28.8651543,35.6953104 29.2557813,36.1171875 C29.6464082,36.5390646 30.1307784,36.75 30.7089063,36.75 C31.7089113,36.75 32.6190584,36.3593789 33.439375,35.578125 C34.2596916,34.7968711 35.0096841,33.7539128 35.689375,32.4492188 C36.3690659,31.1445247 36.9784348,29.6328211 37.5175,27.9140625 C38.0565652,26.1953039 38.533123,24.3984469 38.9471875,22.5234375 C39.3612521,20.6484281 39.7206235,18.757822 40.0253125,16.8515625 C40.3300016,14.945303 40.5839053,13.1445397 40.7870313,11.4492187 C40.9901573,9.75389777 41.150312,8.23047551 41.2675,6.87890625 C41.3846881,5.52733699 41.4667186,4.46875383 41.5135938,3.703125 C41.560469,2.90624602 41.7049988,2.26562742 41.9471875,1.78125 C42.1893763,1.29687258 42.4979669,0.921876328 42.8729688,0.65625 C43.2479707,0.390623672 43.6737477,0.21484418 44.1503125,0.12890625 C44.6268774,0.0429683203 45.1151538,0 45.6151563,0 C46.0057832,0 46.3612484,0.0429683203 46.6815625,0.12890625 C47.0018766,0.21484418 47.2792176,0.363280195 47.5135938,0.57421875 C47.74797,0.785157305 47.9276557,1.06640449 48.0526563,1.41796875 C48.1776569,1.76953301 48.2401563,2.21874727 48.2401563,2.765625 C48.2401563,4.28125758 48.142501,5.91795996 47.9471875,7.67578125 C47.7518741,9.43360254 47.509689,11.1953037 47.220625,12.9609375 C46.9315611,14.7265713 46.6190642,16.4453041 46.283125,18.1171875 C45.9471859,19.7890709 45.634689,21.2968683 45.345625,22.640625 C45.0565611,23.9843817 44.814376,25.1171829 44.6190625,26.0390625 C44.4237491,26.9609421 44.3260938,27.5468738 44.3260938,27.796875 C44.3260938,28.406253 44.4120304,28.9257791 44.5839063,29.3554688 C44.7557822,29.7851584 44.9862486,30.1406236 45.2753125,30.421875 C45.5643765,30.7031264 45.9081231,30.9062494 46.3065625,31.03125 C46.705002,31.1562506 47.130779,31.21875 47.5839063,31.21875 C48.0370336,31.21875 48.5018727,31.1132823 48.9784375,30.9023438 C49.4550024,30.6914052 49.9120291,30.3984394 50.3495313,30.0234375 C50.7870335,29.6484356 51.1893732,29.1992214 51.5565625,28.6757812 C51.9237519,28.1523411 52.2323425,27.5703157 52.4823438,26.9296875 L52.8807813,31.78125 C51.7245255,33.1093816 50.5331312,34.1562462 49.3065625,34.921875 C48.0799939,35.6875038 46.9276617,36.0703125 45.8495313,36.0703125 C45.3339037,36.0703125 44.8495336,35.9882821 44.3964063,35.8242188 C43.943279,35.6601554 43.5409393,35.4062517 43.189375,35.0625 C42.8378108,34.7187483 42.544845,34.2734402 42.3104688,33.7265625 C42.0760926,33.1796848 41.9120318,32.5312538 41.8182813,31.78125 C41.0370274,33.2343823 40.197192,34.5429629 39.29875,35.7070312 C38.4003081,36.8710996 37.4471926,37.8632771 36.439375,38.6835938 C35.4315575,39.5039104 34.3768806,40.1367165 33.2753125,40.5820312 C32.1737445,41.027346 31.0370372,41.25 29.8651563,41.25 C28.3807739,41.25 27.1190677,40.8593789 26.08,40.078125 C25.0409323,39.2968711 24.1971908,38.2343817 23.54875,36.890625 C22.9003093,35.5468683 22.4276578,33.9687591 22.1307813,32.15625 C21.8339048,30.3437409 21.6854688,28.4140727 21.6854688,26.3671875 C21.6854688,25.6171837 21.7245309,24.9140658 21.8026563,24.2578125 C21.8807817,23.6015592 21.9432811,23.0156276 21.9901563,22.5 C21.4276535,26.0625178 20.7206293,29.0429568 19.8690625,31.4414062 C19.0174958,33.8398557 18.0175058,35.7656177 16.8690625,37.21875 C15.7206193,38.6718823 14.4081324,39.7070282 12.9315625,40.3242188 C11.4549927,40.9414093 9.81829028,41.25 8.02140629,41.25 C6.99015114,41.25 6.00578598,40.9101596 5.06828129,40.2304688 C4.13077661,39.5507779 3.3065661,38.5390692 2.59562504,37.1953125 C1.88468399,35.8515558 1.31437719,34.1679789 0.884687543,32.1445312 C0.454997894,30.1210836 0.240156293,27.757826 0.240156293,25.0546875 C0.240156293,23.3984292 0.333905355,21.6992275 0.521406293,19.9570312 C0.70890723,18.214835 0.978435785,16.4687588 1.33000004,14.71875 C1.6815643,12.9687412 2.11515371,11.2343836 2.63078129,9.515625 C3.14640887,7.79686641 3.73234051,6.12500812 4.38859379,4.5 C4.77922075,3.59374547 5.16984184,2.88672129 5.56046879,2.37890625 C5.95109575,1.87109121 6.34952926,1.49609496 6.75578129,1.25390625 C7.16203332,1.01171754 7.57218547,0.867187734 7.98625004,0.8203125 C8.40031461,0.773437266 8.81827918,0.75 9.24015629,0.75 C9.58390801,0.75 9.89640489,0.773437266 10.1776563,0.8203125 C10.4589077,0.867187734 10.6971866,0.964843008 10.8925,1.11328125 C11.0878135,1.26171949 11.2362495,1.47265488 11.3378125,1.74609375 C11.4393756,2.01953262 11.4901563,2.39062266 11.4901563,2.859375 Z" id="Wave"></path>
                <path d="M11.27,5.21484375 C11.0121862,6.25391145 10.6879707,7.4531182 10.2973438,8.8125 C9.90671681,10.1718818 9.48484603,11.6484295 9.03171876,13.2421875 C8.5785915,14.8359455 8.15672071,16.4531168 7.76609376,18.09375 C7.37546681,19.7343832 7.0512513,21.3476483 6.79343751,22.9335937 C6.53562372,24.5195392 6.40671876,25.9921807 6.40671876,27.3515625 C6.40671876,28.460943 6.48093677,29.4960889 6.62937501,30.4570313 C6.77781325,31.4179736 7.0082797,32.2539027 7.32078126,32.9648438 C7.63328282,33.6757848 8.02390392,34.234373 8.49265626,34.640625 C8.9614086,35.046877 9.51609056,35.25 10.1567188,35.25 C10.797347,35.25 11.4184345,35.0625019 12.02,34.6875 C12.6215655,34.3124981 13.2035909,33.7968783 13.7660938,33.140625 C14.3285966,32.4843717 14.8676537,31.7031295 15.3832813,30.796875 C15.8989088,29.8906205 16.3949976,28.9101615 16.8715625,27.8554688 C17.3481274,26.800776 17.7973417,25.6914121 18.2192188,24.5273438 C18.6410959,23.3632754 19.0395294,22.1875059 19.4145313,21 C20.7270378,16.8124791 21.8910887,12.0547141 22.9067188,6.7265625 C23.0942197,5.8671832 23.3168737,5.14844039 23.5746875,4.5703125 C23.8325013,3.99218461 24.141092,3.53125172 24.5004688,3.1875 C24.8598456,2.84374828 25.2778101,2.6015632 25.754375,2.4609375 C26.2309399,2.3203118 26.7817156,2.25 27.4067188,2.25 C28.0004717,2.25 28.4887481,2.30468695 28.8715625,2.4140625 C29.2543769,2.52343805 29.5590614,2.67187406 29.785625,2.859375 C30.0121886,3.04687594 30.1723433,3.27343617 30.2660938,3.5390625 C30.3598442,3.80468883 30.4067188,4.10156086 30.4067188,4.4296875 C30.4067188,4.53906305 30.3442194,4.99608973 30.2192188,5.80078125 C30.0942181,6.60547277 29.9340635,7.63671246 29.73875,8.89453125 C29.5434365,10.15235 29.3325011,11.578117 29.1059375,13.171875 C28.8793739,14.765633 28.6684385,16.4023354 28.473125,18.0820312 C28.2778115,19.7617271 28.1176569,21.4218668 27.9926563,23.0625 C27.8676556,24.7031332 27.8051563,26.2109306 27.8051563,27.5859375 C27.8051563,28.9921945 27.855937,30.2617131 27.9575,31.3945312 C28.059063,32.5273494 28.2309363,33.4921835 28.473125,34.2890625 C28.7153137,35.0859415 29.0317168,35.6953104 29.4223438,36.1171875 C29.8129707,36.5390646 30.2973409,36.75 30.8754688,36.75 C31.8754738,36.75 32.7856209,36.3593789 33.6059375,35.578125 C34.4262541,34.7968711 35.1762466,33.7539128 35.8559375,32.4492188 C36.5356284,31.1445247 37.1449973,29.6328211 37.6840625,27.9140625 C38.2231277,26.1953039 38.6996854,24.3984469 39.11375,22.5234375 C39.5278146,20.6484281 39.887186,18.757822 40.191875,16.8515625 C40.496564,14.945303 40.7504677,13.1445397 40.9535938,11.4492187 C41.1567198,9.75389777 41.3168744,8.23047551 41.4340625,6.87890625 C41.5512506,5.52733699 41.633281,4.46875383 41.6801563,3.703125 C41.7270315,2.90624602 41.8715613,2.26562742 42.11375,1.78125 C42.3559387,1.29687258 42.6645294,0.921876328 43.0395313,0.65625 C43.4145331,0.390623672 43.8403101,0.21484418 44.316875,0.12890625 C44.7934399,0.0429683203 45.2817163,0 45.7817188,0 C46.1723457,0 46.5278109,0.0429683203 46.848125,0.12890625 C47.1684391,0.21484418 47.4457801,0.363280195 47.6801563,0.57421875 C47.9145324,0.785157305 48.0942181,1.06640449 48.2192188,1.41796875 C48.3442194,1.76953301 48.4067188,2.21874727 48.4067188,2.765625 C48.4067188,4.28125758 48.3090635,5.91795996 48.11375,7.67578125 C47.9184365,9.43360254 47.6762515,11.1953037 47.3871875,12.9609375 C47.0981236,14.7265713 46.7856267,16.4453041 46.4496875,18.1171875 C46.1137483,19.7890709 45.8012515,21.2968683 45.5121875,22.640625 C45.2231236,23.9843817 44.9809385,25.1171829 44.785625,26.0390625 C44.5903115,26.9609421 44.4926563,27.5468738 44.4926563,27.796875 C44.4926563,28.406253 44.5785929,28.9257791 44.7504688,29.3554688 C44.9223446,29.7851584 45.1528111,30.1406236 45.441875,30.421875 C45.730939,30.7031264 46.0746855,30.9062494 46.473125,31.03125 C46.8715645,31.1562506 47.2973415,31.21875 47.7504688,31.21875 C48.203596,31.21875 48.6684351,31.1132823 49.145,30.9023438 C49.6215649,30.6914052 50.5624974,29.3750019 50.9999996,29 C51.4375017,28.6249981 50.6328102,28.3203151 50.9999996,27.796875 C51.3671889,27.2734349 52.7973425,26.6796907 53.0473438,26.0390625 L53.0473438,31.78125 C51.891088,33.1093816 50.6996936,34.1562462 49.473125,34.921875 C48.2465564,35.6875038 47.0942242,36.0703125 46.0160938,36.0703125 C45.5004662,36.0703125 45.016096,35.9882821 44.5629688,35.8242188 C44.1098415,35.6601554 43.7075018,35.4062517 43.3559375,35.0625 C43.0043733,34.7187483 42.7114074,34.2734402 42.4770313,33.7265625 C42.2426551,33.1796848 42.0785942,32.5312538 41.9848438,31.78125 C41.2035899,33.2343823 40.3637545,34.5429629 39.4653125,35.7070312 C38.5668705,36.8710996 37.613755,37.8632771 36.6059375,38.6835938 C35.59812,39.5039104 34.543443,40.1367165 33.441875,40.5820312 C32.340307,41.027346 31.2035996,41.25 30.0317188,41.25 C28.5473363,41.25 27.2856302,40.8593789 26.2465625,40.078125 C25.2074948,39.2968711 24.3637533,38.2343817 23.7153125,36.890625 C23.0668718,35.5468683 22.5942202,33.9687591 22.2973438,32.15625 C22.0004673,30.3437409 21.8520313,28.4140727 21.8520313,26.3671875 C21.8520313,25.6171837 21.8910934,24.9140658 21.9692188,24.2578125 C22.0473442,23.6015592 22.1098435,23.0156276 22.1567188,22.5 C21.5942159,26.0625178 20.8871918,29.0429568 20.035625,31.4414062 C19.1840583,33.8398557 18.1840683,35.7656177 17.035625,37.21875 C15.8871818,38.6718823 14.5746949,39.7070282 13.098125,40.3242188 C11.6215551,40.9414093 9.98485275,41.25 8.18796876,41.25 C7.1567136,41.25 6.17234845,40.9101596 5.23484376,40.2304688 C4.29733907,39.5507779 3.47312857,38.5390692 2.76218751,37.1953125 C2.05124646,35.8515558 1.48093966,34.1679789 1.05125001,32.1445312 C0.621560362,30.1210836 0.406718761,27.757826 0.406718761,25.0546875 C0.406718761,23.3984292 0.500467823,21.6992275 0.687968761,19.9570312 C0.875469698,18.214835 1.14499825,16.4687588 1.49656251,14.71875 C1.84812677,12.9687412 2.28171618,11.2343836 2.79734376,9.515625 C3.31297134,7.79686641 3.89890298,6.12500812 4.55515626,4.5 C4.94578321,3.59374547 5.33640431,2.88672129 5.72703126,2.37890625 C6.11765821,1.87109121 6.51609173,1.49609496 6.92234376,1.25390625 C7.32859579,1.01171754 7.73874794,0.867187734 8.15281251,0.8203125 C8.56687708,0.773437266 8.98484165,0.75 9.40671876,0.75 C9.75047048,0.75 10.0629674,0.773437266 10.3442188,0.8203125 C10.6254702,0.867187734 10.863749,0.964843008 11.0590625,1.11328125 C11.254376,1.26171949 11.402812,1.47265488 11.504375,1.74609375 C11.605938,2.01953262 11.6567188,2.39062266 11.6567188,2.859375 C11.6567188,3.39062766 11.5278138,4.17577605 11.27,5.21484375 Z" id="W"></path>
            </g>
        </g>
    </g>
</svg>