<?xml version="1.0" encoding="UTF-8"?>
<svg width="321px" height="294px" viewBox="0 0 321 294" version="1.1" xmlns="http://www.w3.org/2000/svg" xmlns:xlink="http://www.w3.org/1999/xlink">
    <!-- Generator: Sketch 63.1 (92452) - https://sketch.com -->
    <title>entry_level</title>
    <desc>Created with Sketch.</desc>
    <g id="Page-1" stroke="none" stroke-width="1" fill="none" fill-rule="evenodd">
        <g id="Artboard" transform="translate(-1888.000000, -91.000000)">
            <g id="entry_level" transform="translate(1865.000000, 20.000000)">
                <path d="M229.112529,73.1696866 C252.96434,82.5319588 276.195319,93.40392 298.664319,105.719513 C321.453241,118.174417 344.80429,133.727857 355.272001,160.004665 C364.068525,182.089335 362.078293,208.867378 353.75274,232.015271 C345.427187,255.163165 331.2069,275.166955 315.771203,293.211376 C296.086619,316.382793 273.747216,337.16188 249.212358,355.121359 C230.98122,368.396463 210.516768,380.167866 189.414226,378.907186 C173.446788,377.950285 158.573218,369.444498 146.768557,357.642717 C134.963895,345.840937 125.909097,330.758353 117.902589,315.113779 C98.5274095,276.645777 85.3501028,235.360126 78.8575688,192.782326 C74.5124809,168.950931 74.2997843,143.995558 74.0263173,119.313585 C73.919969,107.800393 73.919969,95.7555906 78.4777534,85.2448673 C85.9677125,67.9295138 103.682301,59.605993 120.135903,56.3859448 C157.114727,49.1256475 194.321441,59.4996707 229.112529,73.1696866 Z" id="Path" fill="#F8F8F8" fill-rule="nonzero" style="mix-blend-mode: multiply;" transform="translate(217.500000, 216.500000) rotate(-47.000000) translate(-217.500000, -216.500000) "></path>
                <ellipse id="Oval" fill-opacity="0.11527535" fill="#000000" cx="183.5" cy="318" rx="137.5" ry="4"></ellipse>
                <g id="Group-29" transform="translate(49.000000, 94.000000)" fill-rule="nonzero">
                    <g id="Asset-6" transform="translate(27.000000, 20.000000)" fill="#FF4D53">
                        <g id="Group">
                            <polygon id="Path" points="50.961599 203.839196 47.0375991 56.8367989 79.3799984 53.8991989 84.2831983 203.839196"></polygon>
                            <polygon id="Path" points="3.91679992 203.839196 0 84.7007983 32.3423994 82.3175984 37.2383993 203.839196"></polygon>
                            <polygon id="Path" points="97.9991981 203.839196 94.0823981 36.6623993 126.417597 33.3215993 131.320797 203.839196"></polygon>
                            <polygon id="Path" points="145.036797 203.839196 141.119997 25.1351995 173.455197 21.5567996 178.358396 203.839196"></polygon>
                            <polygon id="Path" points="192.074396 203.839196 188.157596 3.99599992 220.499996 0 225.395996 203.839196"></polygon>
                        </g>
                    </g>
                    <g id="Asset-7" transform="translate(0.000000, 65.000000)" fill="#444345">
                        <path d="M278.639994,0.309599994 L277.955994,0.446399991 C268.876795,2.26079996 260.675995,4.04639992 254.786395,5.42159989 C248.896795,6.79679986 245.260795,7.82639984 245.318395,8.13599984 C245.375995,8.44559983 249.112795,7.99199984 255.103195,7.00559986 C257.515195,6.60959987 260.308795,6.11999988 263.361595,5.56559989 L193.507196,79.3799984 L164.599197,53.2151989 L94.9103981,123.242398 C85.5503983,114.854398 76.5647985,106.898398 68.3927986,99.647998 L67.0391987,98.452798 L65.7575987,99.683998 C45.6839991,118.886398 29.1095994,134.899197 17.6183996,146.159997 C11.8583998,151.811997 7.40159985,156.275997 4.39919991,159.364797 C1.39679997,162.453597 -0.129599997,164.167197 0.00719999986,164.318397 C0.143999997,164.469597 1.95119996,163.043997 5.2127999,160.228797 C8.47439983,157.413597 13.1903997,153.208797 19.1663996,147.808797 C30.8519994,137.239197 47.3471991,122.061598 67.1039987,103.708798 C75.4991985,111.376798 84.7007983,119.750398 94.3919981,128.548797 L95.9111981,129.923997 L97.3511981,128.483997 C103.341598,122.543998 109.591198,116.344798 115.984798,109.965598 L164.224797,66.2543987 L192.189596,93.3479981 L275.925595,18.2591996 C275.709595,20.4983996 275.529595,22.5791996 275.378395,24.4007995 C274.888795,30.3119994 274.737595,33.9767993 275.054395,34.0127993 C275.371195,34.0487993 276.069595,30.4559994 276.962394,24.5879995 C277.855194,18.7199996 278.949594,10.5983998 280.022394,1.54799997 L280.202394,0 L278.639994,0.309599994 Z" id="Path"></path>
                    </g>
                    <g id="Asset-5" transform="translate(18.000000, 0.000000)">
                        <polygon id="Path" fill="#3C3C6B" points="165.052797 72.2591986 124.408798 114.206398 125.553598 104.781598"></polygon>
                        <path d="M13.0607997,134.279997 C9.23759982,135.921597 4.9319999,136.519197 1.33199997,138.988797 C-1.28159997,140.774397 0.295199994,142.192797 3.09599994,141.667197 C5.47866647,141.233358 7.7668741,140.385332 9.8567998,139.161597 C12.0167998,137.858397 16.0919997,137.001597 13.2263997,134.445597" id="Path" fill="#AAAAAA"></path>
                        <path d="M47.4335991,139.075197 C43.6247991,140.738397 38.8511992,140.623197 35.2655993,143.114397 C32.6663994,144.914397 34.2503993,146.325597 37.0511993,145.785597 C39.3767992,145.331997 41.6375992,144.086397 43.7903991,143.229597 C45.9431991,142.372797 51.119999,142.459197 48.239999,139.679997" id="Path" fill="#AAAAAA"></path>
                        <path d="M112.319998,86.1119983 L68.7455986,112.269598 C68.6423185,112.333449 68.5172127,112.351693 68.3999986,112.319998 L54.7199989,113.601598 L11.4335998,134.755197 L11.9519998,137.966397 C11.9519998,137.966397 104.687998,112.543198 118.007998,100.375198 L112.319998,86.1119983 Z" id="Path" fill="#3C3C6B"></path>
                        <polygon id="Path" fill="#3C3C6B" points="115.113598 92.5487982 96.9767981 127.274397 82.4255984 126.921597 44.5607991 140.068797 45.3815991 142.783197 102.542398 135.655197 132.854397 95.4935981"></polygon>
                        <polygon id="Path" fill="#FEBB84" points="159.263997 46.7135991 153.863997 52.653599 161.733597 55.5047989 172.000797 46.9511991"></polygon>
                        <path d="M153.136797,50.212799 L150.386397,51.314399 L120.146398,83.7719983 L100.339198,92.9375982 L125.099998,106.696798 L145.216797,93.1607981 C152.617892,88.1871198 158.810404,81.618186 163.339198,73.9367985 L164.879997,71.2799986 L165.794397,56.7935989" id="Path" fill="#FFFFFF"></path>
                        <line x1="205.559996" y1="22.5431996" x2="162.035997" y2="74.6063985" id="Path" fill="#FFFFFF"></line>
                        <polygon id="Path" fill="#3C3C6B" points="165.052797 72.2591986 164.620797 51.350399 212.659196 9.47519981 215.647196 11.6135998"></polygon>
                        <path d="M165.383997,23.1551995 L171.194397,28.1303994 L171.914397,31.8095994 L176.774396,35.9567993 L175.334397,37.9727992 L175.809597,38.5631992 L175.571997,39.3911992 C175.571997,39.3911992 172.821597,40.6871992 171.403197,40.2119992 C171.403197,40.2119992 172.490397,41.5295992 175.809597,40.9319992 L176.162396,42.1199992 L178.322396,45.0863991 L176.659196,47.2463991 L170.495997,48.196799 L159.839997,47.5703991 C159.839997,47.5703991 150.947997,43.5455991 155.102397,39.8663992 C155.102397,39.8663992 157.471197,38.4263992 161.027997,41.4071992 L156.239997,31.0967994 L163.353597,21.1391996 L165.383997,23.1551995 Z" id="Path" fill="#FEBB84"></path>
                        <path d="M159.458397,14.9687997 C159.458397,14.9687997 164.318397,13.4351997 165.729597,16.7255997 C167.140797,20.0159996 165.823197,23.4647995 165.823197,23.4647995 L161.791197,26.7479995 L162.403197,31.4999994 L158.846397,34.7255993 L163.699197,42.0335992 L162.863997,43.4159991 C162.863997,43.4159991 157.507197,39.3407992 156.146397,42.0623992 C154.375197,45.6047991 160.408797,47.7431991 160.408797,47.7431991 C160.408797,47.7431991 149.270397,44.5391991 148.535997,41.4719992 L148.658397,29.9519994 L156.124797,21.8159996 C156.124797,21.8159996 156.513597,17.2799997 159.458397,14.9687997 Z" id="Path" fill="#2A1F19"></path>
                        <path d="M160.372797,44.9567991 C160.372797,44.9567991 160.437597,45.0503991 160.444797,45.2231991 C160.447763,45.2711533 160.447763,45.3192449 160.444797,45.3671991 C160.439951,45.4290974 160.425372,45.4898438 160.401597,45.5471991 C160.375156,45.6154673 160.341357,45.6806519 160.300797,45.7415991 C160.250177,45.8102983 160.189496,45.8709792 160.120797,45.9215991 C160.085331,45.9520319 160.046711,45.978583 160.005597,46.0007991 C159.95525,46.0363355 159.899263,46.0631122 159.839997,46.0799991 C159.748029,46.1166969 159.65082,46.1385688 159.551997,46.1447991 C159.343341,46.1686097 159.132002,46.1464928 158.932797,46.0799991 C158.717456,46.019402 158.513253,45.9245933 158.327997,45.7991991 C158.122397,45.66608 157.944022,45.4950348 157.802397,45.2951991 C157.723197,45.1799991 157.679997,45.0863991 157.622397,44.9855991 C157.573061,44.8826144 157.529787,44.776834 157.492797,44.6687991 C157.261175,44.1185815 157.261175,43.4982168 157.492797,42.9479991 C157.759197,42.3935992 158.061597,42.1703992 158.119197,42.2279992 C158.176797,42.2855992 158.011197,42.5951992 157.874397,43.1063991 C157.79982,43.3957192 157.787549,43.6975805 157.838397,43.9919991 C157.863883,44.1633113 157.912318,44.3304122 157.982397,44.4887991 C158.018397,44.5751991 158.061597,44.6615991 158.104797,44.7479991 C158.146918,44.8329175 158.19504,44.9147249 158.248797,44.9927991 C158.349295,45.137739 158.476333,45.2623344 158.623197,45.3599991 C158.758859,45.4635544 158.909347,45.5460805 159.069597,45.6047991 C159.205334,45.6583381 159.348728,45.6899332 159.494397,45.6983991 C159.556573,45.7058679 159.61942,45.7058679 159.681597,45.6983991 C159.707897,45.7016379 159.734496,45.7016379 159.760797,45.6983991 L159.832797,45.6983991 C159.988243,45.5993237 160.110974,45.4565547 160.185597,45.2879991 C160.279197,45.0359991 160.329597,44.9567991 160.372797,44.9567991 Z" id="Path" fill="#FF9B60"></path>
                        <path d="M160.653597,44.5607991 C160.603197,44.6255991 160.423197,44.5607991 160.163997,44.4599991 C159.866152,44.3212608 159.542149,44.2476237 159.213597,44.2439991 C159.134816,44.2324753 159.054778,44.2324753 158.975997,44.2439991 C158.88551,44.2612555 158.796457,44.285324 158.709597,44.3159991 L158.227197,44.4599991 C158.108018,44.4951243 157.984232,44.5121146 157.859997,44.5103991 C157.81972,44.5196425 157.777873,44.5196425 157.737597,44.5103991 C157.701597,44.5103991 157.701597,44.4671991 157.737597,44.4455991 C157.758476,44.3998539 157.790694,44.3602004 157.831197,44.3303991 C157.914887,44.2567006 158.003931,44.1893155 158.097597,44.1287991 C158.240914,44.0311186 158.389984,43.9421576 158.543997,43.8623991 C158.641338,43.8135256 158.742466,43.7725926 158.846397,43.7399991 C158.971347,43.696362 159.102848,43.6744452 159.235197,43.6751991 C159.481952,43.6719483 159.726829,43.718475 159.955197,43.8119991 C160.126777,43.8894577 160.284792,43.9939909 160.423197,44.1215991 C160.610397,44.3303991 160.696797,44.5031991 160.653597,44.5607991 Z" id="Path" fill="#FF9B60"></path>
                        <path d="M155.087997,49.586399 L138.016797,49.586399 L74.0303985,82.0799984 L74.7935985,86.3999983 L133.876797,63.8711987 L113.263198,83.6855983 L87.0623983,84.3551983 L79.1423984,92.7863982 C95.9841032,95.0700889 113.115189,93.8767205 129.477597,89.2799982 C155.937597,81.5903984 156.362397,58.5503988 155.087997,49.586399 Z" id="Path" fill="#3C3C6B"></path>
                        <path d="M212.803196,9.9863998 L216.237596,5.62319989 L219.016796,1.70639997 L222.076796,0 C222.091107,0.414203407 221.906455,0.810269292 221.579996,1.06559998 C221.011196,1.56239997 218.656796,3.41279993 218.375996,4.48559991 C218.375996,4.48559991 219.369596,3.13199994 219.815996,4.19759992 C220.148236,4.93236582 220.270355,5.74483082 220.168796,6.54479987 C220.096796,7.18559986 219.671996,7.54559985 219.671996,8.04239984 C219.671996,8.53919983 219.815996,8.68319983 219.455996,9.03599982 C218.535208,9.56631197 217.571883,10.0190745 216.575996,10.3895998 L214.732796,11.3255998 L212.803196,9.9863998 Z" id="Path" fill="#FEBB84"></path>
                        <path d="M166.903197,17.4383997 C166.903197,17.4383997 167.032797,17.4383997 167.147997,17.6111997 C167.313877,17.8253795 167.436181,18.0699878 167.507997,18.3311996 C167.737848,19.155585 167.75765,20.0243981 167.565597,20.8583996 C167.415661,21.7061518 167.034438,22.4960043 166.463997,23.1407995 C166.284428,23.3369107 166.066265,23.4937921 165.823197,23.6015995 C165.650397,23.6663995 165.535197,23.6663995 165.520797,23.6015995 C165.506397,23.5367995 165.830397,23.3423995 166.154397,22.8815995 C166.576043,22.2240452 166.864686,21.4902061 167.003997,20.7215996 C167.173944,19.9608798 167.210487,19.1764243 167.111997,18.4031996 C167.039997,17.8127996 166.838397,17.4959997 166.903197,17.4383997 Z" id="Path" fill="#2A1F19"></path>
                        <path d="M165.160797,22.9535995 C165.081597,22.9031995 165.419997,22.3271996 165.592797,21.2975996 C165.689442,20.6955354 165.720824,20.0847987 165.686397,19.4759996 C165.64691,18.7408738 165.508877,18.0143806 165.275997,17.3159997 C165.157906,16.9533384 165.008545,16.6016172 164.829597,16.2647997 C164.661373,15.9531701 164.46623,15.6568423 164.246397,15.3791997 C164.04718,15.1354046 163.822731,14.913369 163.576797,14.7167997 C163.354469,14.5452083 163.112826,14.4002224 162.856797,14.2847997 C162.490741,14.1085365 162.099782,13.9895489 161.697597,13.9319997 C161.402397,13.8887997 161.236797,13.8599997 161.236797,13.8167997 C161.236797,13.7735997 161.395197,13.7303997 161.704797,13.7087997 C162.150813,13.6851639 162.59691,13.7537942 163.015197,13.9103997 C163.305912,14.0161457 163.581785,14.1589219 163.835997,14.3351997 C164.131734,14.5404863 164.400271,14.7824124 164.635197,15.0551997 C164.889879,15.348606 165.114221,15.6670276 165.304797,16.0055997 C165.504583,16.3724009 165.673176,16.7553495 165.808797,17.1503997 C166.054676,17.9090442 166.185726,18.7001929 166.197597,19.4975996 C166.209649,20.1478785 166.134582,20.7968437 165.974397,21.4271996 C165.864492,21.8511069 165.692211,22.2563315 165.463197,22.6295996 C165.319197,22.8527995 165.189597,22.9679995 165.160797,22.9535995 Z" id="Path" fill="#2A1F19"></path>
                        <path d="M170.639997,28.3895994 C170.733597,28.3895994 170.719197,28.7639994 170.697597,29.1887994 C170.675997,29.6135994 170.618397,29.9663994 170.517597,29.9735994 C170.416797,29.9807994 170.323197,29.6207994 170.351997,29.1671994 C170.380797,28.7135994 170.567997,28.3607994 170.639997,28.3895994 Z" id="Path" fill="#2A1F19"></path>
                        <path d="M164.001597,42.1919992 C164.035896,42.2824569 164.035896,42.3823414 164.001597,42.4727992 C163.96642,42.6277746 163.918249,42.7795111 163.857597,42.9263991 C163.793502,43.1050104 163.687303,43.265543 163.547997,43.3943991 C163.425597,43.5023991 163.310397,43.5239991 163.252797,43.4735991 C163.195197,43.4231991 163.187997,43.3223991 163.202397,43.1927991 C163.222967,43.0267574 163.266587,42.8643945 163.331997,42.7103992 C163.401362,42.523135 163.517928,42.3569663 163.670397,42.2279992 C163.828797,42.1343992 163.951197,42.1343992 164.001597,42.1919992 Z" id="Path" fill="#392A23"></path>
                        <path d="M158.745597,17.7623996 C158.745597,17.7623996 158.853597,17.6327996 159.105597,17.4599997 C159.469577,17.2247622 159.871501,17.0542492 160.293597,16.9559997 C160.923376,16.8076312 161.579017,16.8076312 162.208797,16.9559997 C162.583246,17.0378591 162.946039,17.1660461 163.288797,17.3375997 C163.65621,17.5153937 164.001726,17.7352674 164.318397,17.9927996 C164.643709,18.2549784 164.915115,18.5777314 165.117597,18.9431996 C165.297671,19.2844569 165.433179,19.647425 165.520797,20.0231996 C165.648193,20.6509775 165.674927,21.2950232 165.599997,21.9311996 C165.558708,22.3575069 165.46934,22.7777774 165.333597,23.1839995 C165.298409,23.3383241 165.234939,23.4847952 165.146397,23.6159995 C165.088797,23.6159995 165.297597,22.9679995 165.362397,21.9095996 C165.396029,21.3007192 165.345145,20.6901149 165.211197,20.0951996 C165.124465,19.7521423 164.996324,19.4209095 164.829597,19.1087996 C164.644401,18.7833718 164.400242,18.4952638 164.109597,18.2591996 C163.813776,18.0166739 163.49273,17.8066663 163.151997,17.6327996 C162.833472,17.4726805 162.497694,17.3494814 162.151197,17.2655997 C161.563512,17.1113893 160.949321,17.0868217 160.351197,17.1935997 C159.798568,17.3298507 159.260755,17.5203764 158.745597,17.7623996 L158.745597,17.7623996 Z" id="Path" fill="#1E1612"></path>
                        <path d="M156.311997,21.5999996 C156.311997,21.5999996 156.376797,21.4631996 156.556797,21.2615996 C156.83432,20.9844557 157.161646,20.762167 157.521597,20.6063996 C157.773797,20.5038001 158.037216,20.4312995 158.306397,20.3903996 C158.615121,20.3574626 158.926473,20.3574626 159.235197,20.3903996 C159.937652,20.4491459 160.627112,20.6142279 161.279997,20.8799996 C161.612873,21.0357501 161.93097,21.2213069 162.230397,21.4343996 C162.505519,21.6282788 162.767678,21.8399298 163.015197,22.0679996 C163.454013,22.4486815 163.811541,22.9139582 164.066397,23.4359995 C164.161257,23.6442404 164.212703,23.8696227 164.217597,24.0983995 C164.21588,24.2750405 164.176611,24.4492961 164.102397,24.6095995 C163.965597,24.8615995 163.828797,24.9407995 163.821597,24.9335995 C163.814397,24.9263995 163.893597,24.7967995 163.972797,24.5591995 C164.076387,24.2154288 164.029286,23.8438503 163.843197,23.5367995 C163.57107,23.0696749 163.214639,22.657093 162.791997,22.3199996 C162.548827,22.1038222 162.291451,21.9041754 162.021597,21.7223996 C161.739841,21.5257103 161.441049,21.3546281 161.128797,21.2111996 C160.512899,20.9449859 159.86381,20.7633379 159.199197,20.6711996 C158.914147,20.6461246 158.627446,20.6461246 158.342397,20.6711996 C158.096715,20.6978672 157.855042,20.753452 157.622397,20.8367996 C157.277352,20.9601269 156.954115,21.1375426 156.664797,21.3623996 C156.441597,21.5279996 156.326397,21.5999996 156.311997,21.5999996 Z" id="Path" fill="#1E1612"></path>
                        <path d="M145.195197,28.7999994 C145.466613,28.7570677 145.741245,28.7377953 146.015997,28.7423994 C146.751074,28.6792485 147.476107,28.5294084 148.175997,28.2959994 C148.66869,28.1288783 149.149747,27.9292395 149.615997,27.6983994 C150.105597,27.4391995 150.623997,27.1511995 151.142397,26.8127995 C152.200797,26.1431995 153.302397,25.3151995 154.533597,24.5303995 C155.157108,24.1651133 155.821752,23.8750866 156.513597,23.6663995 C157.147721,23.4662416 157.794844,23.3098737 158.450397,23.1983995 C159.561911,22.9692682 160.708482,22.9692682 161.819997,23.1983995 C162.250224,23.2974799 162.656485,23.4810316 163.015197,23.7383995 C163.284994,23.9282121 163.510886,24.173747 163.677597,24.4583995 L163.763997,24.6311995 C163.786273,24.6828296 163.805506,24.7357202 163.821597,24.7895995 C163.821597,24.8399995 163.857597,24.8831995 163.871997,24.9263995 L163.871997,25.0415995 C163.871997,25.1783995 163.871997,25.2575995 163.871997,25.2575995 C163.831937,25.1984134 163.802684,25.1325954 163.785597,25.0631995 L163.742397,24.9551995 C163.72622,24.9107183 163.706973,24.8674141 163.684797,24.8255995 L163.612797,24.6815995 C163.612797,24.6311995 163.547997,24.5807995 163.519197,24.5231995 C163.346503,24.2634326 163.123764,24.0406932 162.863997,23.8679995 C162.514159,23.643436 162.126162,23.484821 161.719197,23.3999995 C160.638399,23.2128423 159.532096,23.2299375 158.457597,23.4503995 C157.818346,23.5671467 157.188017,23.7283378 156.571197,23.9327995 C155.909142,24.132041 155.273394,24.4100293 154.677597,24.7607995 C153.460797,25.5383995 152.344797,26.3591995 151.271997,27.0215995 C150.731997,27.3599995 150.199197,27.6407995 149.695197,27.8927994 C149.229452,28.1186788 148.748239,28.3111639 148.255197,28.4687994 C147.529019,28.6898489 146.77503,28.8062201 146.015997,28.8143994 C145.743113,28.8488181 145.466706,28.8439689 145.195197,28.7999994 Z" id="Path" fill="#1E1612"></path>
                        <path d="M148.125597,30.6071994 C148.295078,30.480551 148.481758,30.3787254 148.679997,30.3047994 C149.039997,30.1319994 149.565597,29.8799994 150.220797,29.5847994 C150.991594,29.2333637 151.782588,28.928026 152.589597,28.6703994 C153.589188,28.3473911 154.635265,28.1916959 155.685597,28.2095994 L156.103197,28.2095994 L156.499197,28.2095994 L157.291197,28.2887994 C157.809597,28.3463994 158.306397,28.4255994 158.774397,28.5191994 C159.630455,28.688445 160.443511,29.028851 161.164797,29.5199994 C161.445655,29.7153314 161.689465,29.9591411 161.884797,30.2399994 C162.029649,30.4486467 162.139116,30.6797447 162.208797,30.9239994 C162.279151,31.1274881 162.296496,31.3455473 162.259197,31.5575994 C162.259197,31.5575994 162.215997,31.3343994 162.079197,30.9671994 C161.879519,30.4529422 161.51152,30.0214947 161.035197,29.7431994 C160.321078,29.331421 159.537875,29.0532742 158.723997,28.9223994 C157.71648,28.7501413 156.69939,28.6395357 155.678397,28.5911994 C154.664324,28.5732802 153.653695,28.7141853 152.683197,29.0087994 C151.783197,29.2679994 150.991197,29.5847994 150.321597,29.8439994 C149.611169,30.1566765 148.876817,30.411894 148.125597,30.6071994 L148.125597,30.6071994 Z" id="Path" fill="#1E1612"></path>
                        <path d="M190.382396,41.6663992 C190.382396,41.6663992 189.590396,37.1015993 192.542396,34.5167993 C194.166822,33.0130025 196.290574,32.1640146 198.503996,32.1335994 L190.382396,41.6663992 Z" id="Path" fill="#1C130F"></path>
                        <path d="M101.195998,68.0831986 C101.195998,68.0831986 112.910398,68.8823986 115.495198,60.7319988 L101.195998,68.0831986 Z" id="Path" fill="#1C130F"></path>
                        <polyline id="Path" fill="#FFFFFF" points="157.607997 60.3431988 162.835197 55.0871989 156.304797 47.894399 155.210397 49.636799 157.607997 60.3143988"></polyline>
                        <path d="M161.776797,55.7711989 L165.700797,55.3319989 C166.525743,56.5383829 166.234581,58.1829669 165.045597,59.0327988 C165.045597,59.0327988 161.337597,59.2559988 161.776797,55.7711989 Z" id="Path" fill="#B00006"></path>
                        <path d="M165.556797,58.5071988 C165.556797,58.5071988 156.513597,71.4095986 142.754397,73.1231985 C130.816797,74.6207985 109.778398,70.1495986 109.778398,70.1495986 L104.299198,62.0423988 L113.414398,58.7879988 C113.414398,58.7879988 133.005597,71.6471986 151.257597,65.4407987 C151.257597,65.4407987 158.767197,63.1295987 163.670397,58.1327988 L165.556797,58.5071988 Z" id="Path" fill="#B00006"></path>
                        <path d="M108.316798,91.1375982 C108.237598,91.1375982 108.194398,90.8207982 108.136798,90.3239982 C108.079198,89.8271982 108.007198,89.1503982 107.949598,88.3871982 C107.889888,87.7250653 107.9068,87.0582531 107.999998,86.3999983 C108.093598,85.8887983 108.230398,85.5935983 108.302398,85.6079983 C108.374398,85.6223983 108.388798,85.9391983 108.403198,86.4287983 C108.417598,86.9183983 108.453598,87.5951983 108.511198,88.3511982 C108.561132,89.0102538 108.561132,89.6721427 108.511198,90.3311982 C108.496798,90.8351982 108.395998,91.1447982 108.316798,91.1375982 Z" id="Path" fill="#1C130F"></path>
                        <path d="M127.382397,88.5599982 C127.231197,88.5599982 127.043997,88.3943982 126.957597,88.0991982 C126.871197,87.8039983 126.921597,87.5231983 127.072797,87.4799983 C127.223997,87.4367983 127.418397,87.6455983 127.504797,87.9407983 C127.591197,88.2359982 127.533597,88.4807982 127.382397,88.5599982 Z" id="Path" fill="#1C130F"></path>
                        <path d="M135.071997,86.2127983 C134.913597,86.2487983 134.726397,86.0471983 134.639997,85.7591983 C134.553597,85.4711983 134.639997,85.1903983 134.762397,85.1399983 C134.884797,85.0895983 135.107997,85.2911983 135.194397,85.6007983 C135.280797,85.9103983 135.223197,86.1839983 135.071997,86.2127983 Z" id="Path" fill="#1C130F"></path>
                        <path d="M141.069597,83.5991983 C140.903997,83.5991983 140.803197,83.3759983 140.731197,83.2319983 C140.706557,83.173877 140.687277,83.1136268 140.673597,83.0519983 C140.637036,82.9853612 140.614955,82.9117564 140.608797,82.8359984 C140.608797,82.7567984 140.673597,82.6775984 140.824797,82.6775984 C141.013751,82.6973788 141.176746,82.818935 141.249597,82.9943984 C141.309997,83.1395663 141.309997,83.3028304 141.249597,83.4479983 C141.224678,83.5294938 141.154171,83.5887197 141.069597,83.5991983 L141.069597,83.5991983 Z" id="Path" fill="#1C130F"></path>
                        <path d="M103.679998,97.9199981 C103.679998,97.9919981 103.370398,98.186398 102.772798,98.323198 C102.006998,98.4713572 101.226485,98.529352 100.447198,98.495998 L99.187198,98.495998 C98.805598,98.495998 98.467198,98.495998 98.179198,98.495998 C97.6103981,98.531998 97.2503981,98.603998 97.2215981,98.495998 C97.1927981,98.387998 97.5239981,98.215198 98.1143981,98.0711981 C98.4615179,97.985667 98.8158469,97.9326381 99.172798,97.9127981 C99.568798,97.9127981 100.000798,97.8767981 100.447198,97.9127981 C101.347198,97.9127981 102.146398,97.9127981 102.722398,97.9127981 C103.298398,97.9127981 103.679998,97.8191981 103.679998,97.9199981 Z" id="Path" fill="#1C130F"></path>
                        <path d="M114.479998,101.743198 C114.530398,101.800798 114.436798,101.973598 114.227998,102.196798 C113.960511,102.471912 113.660735,102.713667 113.335198,102.916798 C113.021564,103.123289 112.694429,103.308505 112.355998,103.471198 C112.096798,103.593598 111.909598,103.651198 111.866398,103.586398 C111.823198,103.521598 111.909598,103.355998 112.118398,103.147198 C112.393246,102.877344 112.694793,102.636106 113.018398,102.427198 C113.331616,102.219746 113.656116,102.029854 113.990398,101.858398 C114.235198,101.743198 114.415198,101.685598 114.479998,101.743198 Z" id="Path" fill="#1C130F"></path>
                        <path d="M4.35599991,140.630397 C4.20479992,140.630397 4.10399992,140.198397 3.95279992,139.687197 C3.80159992,139.175997 3.70079993,138.743997 3.83039992,138.664797 C3.95999992,138.585597 4.33439991,138.945597 4.49999991,139.535997 C4.58081843,139.786918 4.60056579,140.053507 4.55759991,140.313597 C4.52159991,140.522397 4.43519991,140.637597 4.35599991,140.630397 Z" id="Path" fill="#2A2D51"></path>
                        <path d="M3.25439994,141.119997 C3.09599994,141.119997 3.00239994,140.687997 2.85119994,140.183997 C2.69999995,139.679997 2.59199995,139.233597 2.72879995,139.154397 C2.86559994,139.075197 3.23279994,139.435197 3.39839993,140.025597 C3.47560482,140.27721 3.49528961,140.542955 3.45599993,140.803197 C3.41999993,141.004797 3.32639993,141.119997 3.25439994,141.119997 Z" id="Path" fill="#2A2D51"></path>
                        <path d="M5.2775999,140.299197 C5.1911999,140.299197 5.1263999,140.205597 5.0327999,140.075997 C4.91326724,139.895692 4.80505857,139.70813 4.70879991,139.514397 C4.58894139,139.294218 4.53401444,139.04455 4.55039991,138.794397 C4.55039991,138.578397 4.67999991,138.477597 4.75199991,138.484797 C4.8239999,138.491997 4.8815999,138.607197 4.9535999,138.743997 L5.2199999,139.291197 C5.33982439,139.513252 5.40869142,139.759206 5.42159989,140.011197 C5.42879989,140.176797 5.34959989,140.299197 5.2775999,140.299197 Z" id="Path" fill="#2A2D51"></path>
                        <path d="M6.32159987,140.169597 C6.24239988,140.169597 6.14879988,140.075997 6.02639988,139.903197 C5.86345869,139.66749 5.72816962,139.413823 5.62319989,139.147197 C5.50002945,138.861708 5.4600932,138.54721 5.50799989,138.239997 C5.57279989,137.973597 5.73839989,137.865597 5.79599988,137.908797 C5.85359988,137.951997 5.86799988,138.088797 5.91119988,138.261597 C5.9754037,138.507165 6.05721546,138.747787 6.15599988,138.981597 C6.26704834,139.24615 6.35146517,139.521108 6.40799987,139.802397 C6.47999987,139.996797 6.40079987,140.155197 6.32159987,140.169597 Z" id="Path" fill="#2A2D51"></path>
                        <path d="M6.78239987,138.463197 C6.78239987,138.427197 6.94079986,138.383997 7.22879986,138.362397 C7.40834023,138.344206 7.58925947,138.344206 7.76879985,138.362397 C8.01797386,138.376651 8.26223283,138.437716 8.48879983,138.542397 C8.62798618,138.606662 8.75664341,138.691624 8.87039982,138.794397 C8.93341889,138.848949 8.99126459,138.909205 9.04319982,138.974397 C9.09855745,139.038625 9.1468359,139.108629 9.18719982,139.183197 C9.24247125,139.278631 9.27912024,139.383692 9.29519982,139.492797 C9.30864946,139.564169 9.30864946,139.637425 9.29519982,139.708797 C9.27014789,139.78227 9.22822725,139.84885 9.17279982,139.903197 C9.0814923,139.995655 8.96283427,140.056246 8.83439982,140.075997 C8.73165265,140.089669 8.62754701,140.089669 8.52479983,140.075997 C8.32381469,140.068719 8.12494639,140.03234 7.93439984,139.967997 C7.75123776,139.904759 7.57312837,139.827738 7.40159985,139.737597 C7.21450556,139.633889 7.04047218,139.508198 6.88319986,139.363197 C6.71721151,139.201352 6.5893203,139.004596 6.50879987,138.787197 C6.42497564,138.556312 6.38114716,138.31282 6.37919987,138.067197 C6.36112018,137.844363 6.36112018,137.620431 6.37919987,137.397597 C6.40186232,136.971046 6.5070019,136.552932 6.68879987,136.166397 L6.79679986,135.935997 L7.00559986,136.029597 L7.20719986,136.137597 C7.27194999,136.179338 7.3322635,136.227589 7.38719985,136.281597 C7.48721071,136.387995 7.56115211,136.51616 7.60319985,136.655997 C7.67364692,136.889486 7.68600494,137.136646 7.63919985,137.375997 C7.57356411,137.725495 7.44942117,138.061411 7.27199986,138.369597 C6.99119986,138.873597 6.69599987,139.089597 6.66719987,139.039197 C6.63839987,138.988797 6.80399986,138.743997 6.99119986,138.239997 C7.11010902,137.947815 7.18531673,137.639706 7.21439986,137.325597 C7.23632305,137.15778 7.21653942,136.987146 7.15679986,136.828797 C7.1037766,136.685867 6.98631221,136.576412 6.83999986,136.533597 L7.15679986,136.396797 C7.02239289,136.731721 6.94688161,137.087355 6.93359986,137.447997 C6.92279976,137.647051 6.92279976,137.846544 6.93359986,138.045597 C6.94170079,138.236489 6.97560874,138.425404 7.03439986,138.607197 C7.1552406,138.8978 7.38160952,139.131886 7.66799985,139.262397 C7.80999621,139.343026 7.95665422,139.415152 8.10719984,139.478397 C8.2441954,139.526441 8.38712143,139.555511 8.53199983,139.564797 C8.62709377,139.58115 8.72490662,139.56861 8.81279982,139.528797 L8.81279982,139.528797 C8.81279982,139.528797 8.81279982,139.528797 8.81279982,139.528797 C8.80714002,139.486394 8.79499835,139.445112 8.77679983,139.406397 C8.72212167,139.300006 8.65439999,139.200842 8.57519983,139.111197 C8.49532165,139.028842 8.4058875,138.956328 8.30879983,138.895197 C7.97174325,138.724308 7.60520219,138.619233 7.22879986,138.585597 C6.94079986,138.542397 6.78239987,138.506397 6.78239987,138.463197 Z" id="Path" fill="#2A2D51"></path>
                        <path d="M2.45519995,141.544797 C2.45519995,141.587997 2.40479995,141.616797 2.29679995,141.645597 C2.23327481,141.663678 2.16818702,141.675731 2.10239996,141.681597 L1.85039996,141.681597 L1.53359997,141.623997 C1.41219166,141.585915 1.29418048,141.537747 1.18079998,141.479997 C0.909161606,141.338454 0.689733365,141.113982 0.554399989,140.839197 C0.418669241,140.554316 0.385601538,140.23127 0.460799991,139.924797 C0.523889231,139.692737 0.639695639,139.478372 0.799199984,139.298397 L0.98639998,139.118397 L1.15919998,139.017597 C1.25279998,138.967197 1.31759997,138.959997 1.34639997,139.017597 C1.37519997,139.075197 1.34639997,139.118397 1.31039997,139.204797 C1.27439997,139.291197 1.25999997,139.298397 1.23119998,139.363197 L1.13039998,139.557597 C0.950197013,139.882544 0.926383773,140.271494 1.06559998,140.615997 C1.1554057,140.795547 1.2922738,140.947346 1.46159997,141.055197 C1.53742646,141.110712 1.61679512,141.16122 1.69919997,141.206397 L1.93679996,141.314397 L2.14559996,141.393597 L2.31119995,141.451197 C2.40479995,141.465597 2.45519995,141.508797 2.45519995,141.544797 Z" id="Path" fill="#2A2D51"></path>
                        <path d="M37.2887993,145.979997 C37.2887993,146.051997 36.9863993,146.145597 36.4751993,146.116797 C36.1716463,146.093813 35.8731902,146.025872 35.5895993,145.915197 C35.2120715,145.775185 34.8857645,145.52418 34.6535993,145.195197 C34.5421584,145.015546 34.4618307,144.818378 34.4159993,144.611997 C34.3799188,144.414431 34.3799188,144.211963 34.4159993,144.014397 C34.4412302,143.828079 34.5103238,143.650409 34.6175993,143.495997 C34.7059114,143.374693 34.8100322,143.265729 34.9271993,143.171997 C35.083402,143.045043 35.2551946,142.93858 35.4383993,142.855197 C35.5607993,142.797597 35.6399993,142.775997 35.6687993,142.804797 C35.6975993,142.833597 35.6687993,142.912797 35.5751993,143.027997 C35.4815993,143.143197 35.3519993,143.279997 35.2151993,143.459997 C35.0573329,143.627132 34.960871,143.842902 34.9415993,144.071997 C34.9444364,144.355657 35.0213802,144.633648 35.1647993,144.878397 C35.3376449,145.11957 35.5711167,145.310818 35.8415993,145.432797 C36.0718889,145.549606 36.3130328,145.643652 36.5615993,145.713597 C36.9863993,145.843197 37.2887993,145.900797 37.2887993,145.979997 Z" id="Path" fill="#2A2D51"></path>
                        <path d="M37.7711992,144.719997 C37.6415993,144.806397 37.2887993,144.496797 37.1015993,143.999997 C36.9143993,143.503197 36.9935993,143.013597 37.1519993,143.006397 C37.3103993,142.999197 37.4759993,143.359197 37.6415993,143.805597 C37.8071992,144.251997 37.9007992,144.647997 37.7711992,144.719997 Z" id="Path" fill="#2A2D51"></path>
                        <path d="M38.8799992,144.669597 C38.7503992,144.748797 38.3327992,144.302397 38.0735992,143.603997 C37.9513469,143.295527 37.9068397,142.961723 37.9439992,142.631997 C37.9799992,142.358397 38.1239992,142.214397 38.1959992,142.250397 C38.2679992,142.286397 38.2823992,142.423197 38.3471992,142.617597 C38.4119992,142.811997 38.5055992,143.092797 38.6135992,143.409597 C38.8367992,144.043197 39.0167992,144.590397 38.8799992,144.669597 Z" id="Path" fill="#2A2D51"></path>
                        <path d="M39.9095992,144.187197 C39.8303992,144.187197 39.7439992,144.079197 39.6503992,143.891997 C39.52857,143.648108 39.4320655,143.392371 39.3623992,143.128797 C39.2826663,142.84813 39.2606229,142.554218 39.2975992,142.264797 C39.3335992,142.034397 39.4199992,141.904797 39.4991992,141.911997 C39.5783992,141.919197 39.6359992,142.041597 39.7007992,142.235997 C39.7655992,142.430397 39.8375992,142.682397 39.9167992,142.955997 C39.9960972,143.222664 40.0396771,143.498671 40.0463992,143.776797 C40.0463992,144.035997 39.9887992,144.179997 39.9095992,144.187197 Z" id="Path" fill="#2A2D51"></path>
                        <path d="M41.0399992,143.841597 C40.8887992,143.891997 40.6295992,143.467197 40.4567992,142.891197 C40.2839992,142.315197 40.2623992,141.811197 40.4135992,141.767997 C40.5647992,141.724797 40.8311992,142.156797 40.9967992,142.718397 C41.1623992,143.279997 41.1623992,143.791197 41.0399992,143.841597 Z" id="Path" fill="#2A2D51"></path>
                        <path d="M42.2567992,142.185597 C42.2567992,142.185597 42.3215992,142.034397 42.5591992,141.919197 C42.8937734,141.754787 43.2707351,141.696987 43.6391991,141.753597 C43.7751423,141.778634 43.9063296,141.824793 44.0279991,141.890397 C44.1676015,141.977663 44.2798695,142.102406 44.3519991,142.250397 C44.389185,142.330619 44.4158072,142.415326 44.4311991,142.502397 C44.4391481,142.578991 44.4391481,142.656203 44.4311991,142.732797 C44.4407461,142.823747 44.4407461,142.915447 44.4311991,143.006397 C44.3969175,143.13145 44.3238025,143.242383 44.2223991,143.323197 C44.1171377,143.396978 43.9908915,143.434852 43.8623991,143.431197 C43.7646396,143.426776 43.6678504,143.409837 43.5743991,143.380797 C43.4060047,143.33672 43.243903,143.271395 43.0919991,143.186397 C42.7968383,143.025945 42.5129781,142.845525 42.2423992,142.646397 L42.5735992,142.646397 C42.603044,142.622609 42.6275104,142.593249 42.6455992,142.559997 C42.6455992,142.559997 42.6455992,142.559997 42.6455992,142.559997 C42.6227752,142.640118 42.5748199,142.710789 42.5087992,142.761597 L42.2279992,142.991997 L42.0767992,142.639197 L42.0047992,142.473597 C41.858909,142.152336 41.7315012,141.822999 41.6231992,141.487197 C41.5053269,141.152073 41.4492187,140.798348 41.4575992,140.443197 C41.4632833,140.339633 41.4851481,140.237597 41.5223992,140.140797 C41.6115543,139.917275 41.8221403,139.765653 42.0623992,139.751997 C42.1641503,139.727541 42.270248,139.727541 42.3719992,139.751997 C42.4819331,139.789327 42.5758859,139.862965 42.6383992,139.960797 C42.6942355,140.037528 42.7312326,140.126321 42.7463992,140.219997 C42.7717094,140.362885 42.7717094,140.509109 42.7463992,140.651997 C42.6873817,141.033566 42.5501082,141.398812 42.3431992,141.724797 C42.2063992,141.955197 42.0695992,142.055997 42.0407992,142.027197 C42.0119992,141.998397 42.0407992,141.875997 42.1415992,141.631197 C42.254079,141.303385 42.3218887,140.961914 42.3431992,140.615997 C42.3616994,140.518467 42.3616994,140.418328 42.3431992,140.320797 C42.3381462,140.288202 42.3230438,140.257997 42.2999992,140.234397 C42.2999992,140.234397 42.2999992,140.234397 42.2495992,140.234397 C42.1991992,140.234397 42.0839992,140.234397 42.0695992,140.270397 C42.0250899,140.32764 42.0044496,140.399881 42.0119992,140.471997 C42.0234715,140.760318 42.0818358,141.044844 42.1847992,141.314397 C42.2855992,141.616797 42.4151992,141.919197 42.5591992,142.243197 C42.5591992,142.307997 42.6095992,142.365597 42.6311992,142.423197 L42.3359992,142.487997 L42.2927992,142.487997 L42.2495992,142.487997 L42.1703992,142.487997 L42.1271992,142.487997 L42.1271992,142.487997 C42.123827,142.466529 42.123827,142.444666 42.1271992,142.423197 C42.1513056,142.367257 42.1913778,142.319672 42.2423992,142.286397 L42.4079992,142.163997 L42.5663992,142.279197 C42.8172072,142.467805 43.0792946,142.640927 43.3511991,142.797597 C43.4683639,142.865722 43.5912259,142.92354 43.7183991,142.970397 L43.8695991,142.970397 L43.9199991,142.970397 C43.9199991,142.970397 43.9199991,142.970397 43.9199991,142.934397 C43.9199991,142.898397 43.9199991,142.855197 43.9199991,142.804797 C43.9199991,142.754397 43.9199991,142.696797 43.9199991,142.639197 C43.9199991,142.581597 43.9199991,142.545597 43.9199991,142.509597 C43.8893712,142.435576 43.8396871,142.370987 43.7759991,142.322397 C43.7012403,142.275442 43.6215657,142.236812 43.5383991,142.207197 C43.2324621,142.139846 42.9155362,142.139846 42.6095992,142.207197 C42.4007992,142.163997 42.2855992,142.214397 42.2567992,142.185597 Z" id="Path" fill="#2A2D51"></path>
                        <polygon id="Path" fill="#FEBB84" points="74.5199985 82.3391984 69.6311986 82.3319984 67.9679986 85.5359983 69.3935986 88.0199983 75.0527985 85.3559983"></polygon>
                    </g>
                </g>
            </g>
        </g>
    </g>
</svg>