<?xml version="1.0" encoding="UTF-8"?>
<svg width="321px" height="294px" viewBox="0 0 321 294" version="1.1" xmlns="http://www.w3.org/2000/svg" xmlns:xlink="http://www.w3.org/1999/xlink">
    <!-- Generator: Sketch 63.1 (92452) - https://sketch.com -->
    <title>fun_at_work</title>
    <desc>Created with Sketch.</desc>
    <defs>
        <path d="M229.112529,73.1696866 C252.96434,82.5319588 276.195319,93.40392 298.664319,105.719513 C321.453241,118.174417 344.80429,133.727857 355.272001,160.004665 C364.068525,182.089335 362.078293,208.867378 353.75274,232.015271 C345.427187,255.163165 331.2069,275.166955 315.771203,293.211376 C296.086619,316.382793 273.747216,337.16188 249.212358,355.121359 C230.98122,368.396463 210.516768,380.167866 189.414226,378.907186 C173.446788,377.950285 158.573218,369.444498 146.768557,357.642717 C134.963895,345.840937 125.909097,330.758353 117.902589,315.113779 C98.5274095,276.645777 85.3501028,235.360126 78.8575688,192.782326 C74.5124809,168.950931 74.2997843,143.995558 74.0263173,119.313585 C73.919969,107.800393 73.919969,95.7555906 78.4777534,85.2448673 C85.9677125,67.9295138 103.682301,59.605993 120.135903,56.3859448 C157.114727,49.1256475 194.321441,59.4996707 229.112529,73.1696866 Z" id="path-1"></path>
    </defs>
    <g id="Page-1" stroke="none" stroke-width="1" fill="none" fill-rule="evenodd">
        <g id="Artboard" transform="translate(-1428.000000, -91.000000)">
            <g id="fun_at_work" transform="translate(1405.000000, 20.000000)">
                <g id="Group-31">
                    <mask id="mask-2" fill="white">
                        <use xlink:href="#path-1"></use>
                    </mask>
                    <use id="Path" fill="#F8F8F8" fill-rule="nonzero" style="mix-blend-mode: multiply;" transform="translate(217.500000, 216.500000) rotate(-47.000000) translate(-217.500000, -216.500000) " xlink:href="#path-1"></use>
                    <ellipse id="Oval" fill-opacity="0.115712413" fill="#000000" mask="url(#mask-2)" cx="320" cy="325" rx="32" ry="4"></ellipse>
                    <g id="Asset-1" mask="url(#mask-2)" fill-rule="nonzero">
                        <g transform="translate(281.000000, 217.000000) scale(-1, 1) translate(-281.000000, -217.000000) translate(223.000000, 107.000000)">
                            <path d="M40.1199976,67.599996 C40.1199976,67.599996 39.5279976,72.2199957 38.6599977,73.8999956 C37.7919977,75.5799955 36.2599978,78.3759953 36.2599978,78.3759953 L34.7959979,78.7759953 C34.7959979,78.7759953 31.1959981,75.2519955 29.9399982,74.7759955 C28.6839983,74.2999956 26.3399984,74.6399956 26.3399984,74.6399956 C26.3399984,74.6399956 26.8039984,73.1119956 24.9439985,73.1799956 C23.0839986,73.2479956 21.2839987,73.8079956 20.6879988,73.8919956 C20.0919988,73.9759956 17.7599989,74.5079956 17.9599989,75.7039955 C18.1599989,76.8999954 24.2799986,75.9719955 24.2799986,75.9719955 C24.2799986,75.9719955 23.6799986,76.7039954 24.4119985,77.0359954 C25.1439985,77.3679954 28.4679983,77.1679954 28.4679983,77.1679954 C28.4679983,77.1679954 34.123998,80.2279952 35.5199979,82.5559951 C35.5199979,82.5559951 35.0519979,86.4159948 37.1799978,86.7479948 C37.1799978,86.7479948 38.5799977,93.5919944 39.1119977,93.6639944 C41.0614029,94.125078 43.083778,93.2622845 44.0999974,91.5359945 C44.0999974,91.5359945 47.6999972,89.0079947 47.8919971,86.3359949 C47.8919971,86.3359949 49.3559971,80.0159952 50.551997,77.4239954 C51.7479969,74.8319955 53.9999968,70.9799958 53.9999968,70.9799958 C53.9999968,70.9799958 42.7759975,64.1279962 40.1199976,67.599996 Z" id="Path" fill="#FCA675"></path>
                            <path d="M83.307995,30.9679982 C83.307995,30.9679982 79.5879953,29.0599983 79.0359953,28.9679983 C78.4839953,28.8759983 76.7439954,29.9639982 76.7439954,29.9639982 L60.0799964,33.863998 L58.7999965,34.9919979 L53.2799968,39.8479976 C53.2799968,39.8479976 45.4959973,44.1399974 43.3999974,48.1319971 C41.3039975,52.1239969 42.0039975,58.0079965 41.3999975,60.9039964 C40.7959976,63.7999962 40.0319976,68.0399959 40.0319976,68.0399959 C40.0319976,68.0399959 52.1719969,71.6999957 53.9679968,70.9799958 L58.2599965,59.8039964 C58.2599965,59.8039964 70.6319958,57.1119966 72.2279957,55.5159967 C73.8239956,53.9199968 83.307995,30.9679982 83.307995,30.9679982 Z" id="Path" fill="#FCA675"></path>
                            <circle id="Oval" fill="#E2800A" cx="21.8559987" cy="93.1519944" r="17.271999"></circle>
                            <circle id="Oval" fill="#FF9100" cx="20.3359988" cy="92.4319945" r="15.3519991"></circle>
                            <path d="M32.1079981,107.252042 L32.1079981,107.252042 C31.817718,107.215313 31.554155,107.064089 31.3759981,106.831994 C30.8519982,106.199994 30.7079982,105.027994 30.9519982,103.343994 C31.1959981,101.659994 32.0359981,100.075994 32.923998,98.4279941 C34.4839979,95.5239943 36.2559978,92.2319945 35.7839979,86.7599948 C35.5319979,83.863995 33.267998,80.5159952 33.247998,80.4839952 C33.1972666,80.4258928 33.1844686,80.3437956 33.2151078,80.2730086 C33.245747,80.2022215 33.3143617,80.1553627 33.3914451,80.1524526 C33.4685285,80.1498036 33.54034,80.1915987 33.575998,80.2599952 C33.671998,80.3999952 35.9199979,83.723995 36.1799978,86.7279948 C36.6639978,92.3279945 34.8639979,95.6639943 33.275998,98.6199941 C32.3679981,100.303994 31.5839981,101.759994 31.3479981,103.399994 C31.0679981,105.327994 31.3479981,106.179994 31.6719981,106.555994 C31.7772994,106.71085 31.9399596,106.817371 32.1239981,106.851994 C32.2335251,106.860512 32.316637,106.954234 32.3119981,107.063994 C32.3055736,107.171301 32.2154724,107.254336 32.1079981,107.252042 Z" id="Path" fill="#99500E"></path>
                            <path d="M25.3519985,110.267993 C25.3295203,110.272127 25.3064767,110.272127 25.2839985,110.267993 C25.2339111,110.249189 25.1934459,110.211101 25.1716474,110.162242 C25.1498489,110.113384 25.1485347,110.057828 25.1679985,110.007993 C32.6919981,90.4839946 20.4159988,76.5919954 20.2879988,76.4559954 C20.2112855,76.37687 20.2112855,76.2511209 20.2879988,76.1719955 C20.3671243,76.0952821 20.4928733,76.0952821 20.5719988,76.1719955 C20.6959988,76.3119955 33.135998,90.3839946 25.5239985,110.135993 C25.4967276,110.209341 25.4299035,110.260624 25.3519985,110.267993 L25.3519985,110.267993 Z" id="Path" fill="#99500E"></path>
                            <path d="M90.3439946,136.695992 C90.3439946,136.695992 92.2079945,134.899992 93.9439944,135.167992 C95.6799943,135.435992 99.3999941,136.367992 100.395994,138.095992 C101.391994,139.823992 100.727994,144.279991 100.395994,145.875991 C100.063994,147.471991 97.8039942,151.799991 97.4039942,154.127991 C97.0039942,156.455991 97.2039942,160.12799 96.6039942,161.43999 C96.0039943,162.75199 92.6039945,167.55999 90.8839946,168.63999 C89.1639947,169.71999 85.1599949,170.55599 85.1599949,170.55599 C85.1599949,170.55599 93.2719944,144.895991 93.0439945,144.295991 C92.8159945,143.695991 90.3439946,136.695992 90.3439946,136.695992 Z" id="Path" fill="#FFFFFF"></path>
                            <path d="M90.6119946,137.959992 C90.6119946,137.959992 93.8119944,136.499992 96.2119943,137.959992 C98.6119941,139.419992 99.931994,141.419992 99.6639941,142.883991 C99.3959941,144.347991 96.3479943,152.595991 96.2119943,154.855991 C96.0759943,157.115991 95.1759943,158.715991 95.1599943,161.25599 C95.1439943,163.79599 89.4199947,169.76799 87.1599948,170.16799 C84.8999949,170.56799 82.3599951,171.23199 81.3079952,170.83199 C80.2559952,170.43199 78.1079953,164.31199 78.1079953,164.31199 L90.6119946,137.959992 Z" id="Path" fill="#29292A"></path>
                            <path d="M90.7999946,158.635991 C90.2240962,158.584246 89.643596,158.639854 89.0879947,158.799991 C88.1572211,158.984194 87.208161,159.059368 86.2599949,159.023991 C86.1418753,159.012435 86.0253316,159.057935 85.9462865,159.146465 C85.8672415,159.234996 85.8351838,159.355929 85.8599949,159.47199 C85.8506383,159.651251 85.9618465,159.814793 86.1319949,159.87199 C86.2381047,159.909087 86.3410961,159.954563 86.4399948,160.00799 L84.143995,160.09199 C84.0163266,160.091883 83.8979336,160.158668 83.831995,160.26799 C83.726538,160.347715 83.6672837,160.474396 83.6736859,160.606442 C83.6800881,160.738488 83.75132,160.858842 83.863995,160.92799 C84.3276452,161.205098 84.8056481,161.457451 85.2959949,161.68399 C84.495995,161.68399 83.659995,161.62799 82.8439951,161.54799 C82.7055476,161.526804 82.56941,161.598114 82.5079951,161.72399 C82.3512554,161.735242 82.2156247,161.837227 82.1612995,161.984681 C82.1069743,162.132136 82.1440202,162.297738 82.2559951,162.40799 C83.3567836,163.627369 84.8018458,164.483806 86.3999949,164.86399 C86.8999948,164.98399 87.1119948,164.21199 86.6119948,164.09199 C85.4133664,163.80577 84.3060335,163.222529 83.391995,162.39599 C84.6839028,162.502013 85.9814286,162.522057 87.2759948,162.45599 L87.3439948,162.47999 C87.8159948,162.62799 88.0199948,161.92799 87.6039948,161.73599 C87.55139,161.693873 87.4872139,161.66876 87.4199948,161.66399 C86.7340294,161.448361 86.0654386,161.180924 85.4199949,160.86399 L87.3679948,160.79199 C87.4261162,160.7901 87.4832578,160.776495 87.5359948,160.75199 C87.7257386,160.888129 87.9295782,161.003459 88.1439947,161.09599 C88.7495019,161.330723 89.3850996,161.47885 90.0319946,161.53599 C90.8679946,161.61199 91.9879945,161.42799 92.2359945,160.47199 C92.4839945,159.51599 91.6639945,158.799991 90.7999946,158.635991 Z M90.8639946,160.69999 C90.2199946,161.02399 88.7519947,160.52799 88.1599947,160.23199 C87.9319969,160.119151 87.7150522,159.985234 87.5119948,159.83199 C87.8628694,159.815169 88.2126574,159.780457 88.5599947,159.72799 C88.9159947,159.67599 89.2599947,159.58399 89.6159947,159.51199 L90.1479946,159.42399 C90.7959946,159.287991 91.0386612,159.713324 90.8759946,160.69999 L90.8639946,160.69999 Z" id="Shape" fill="#FFFFFF"></path>
                            <path d="M85.2879949,158.419991 C85.2879949,158.419991 86.3559949,159.85199 87.6879948,158.419991 C89.0199947,156.987991 93.9399944,150.967991 93.9399944,150.051991 C93.9399944,149.135991 93.1399944,148.203991 92.6119945,147.271991 C92.0839945,146.339991 89.8119946,143.415991 86.8919948,143.671991 C83.971995,143.927991 82.0959951,155.727991 85.2879949,158.419991 Z" id="Path" fill="#FFFFFF"></path>
                            <path d="M62.9399962,149.363991 C62.9399962,149.363991 64.2679962,149.135991 62.9399962,152.063991 C61.6119963,154.991991 61.2039964,159.379991 61.5399963,160.71199 C61.8759963,162.04399 63.8519962,163.11199 63.5399962,163.51199 C63.2279962,163.91199 62.0199963,167.76799 66.543996,168.16799 C71.0679958,168.56799 73.4599956,167.10399 74.7919955,166.03999 C76.1239955,164.97599 80.5119952,165.37599 82.9079951,162.83999 C85.3039949,160.30399 87.4319948,157.915991 87.7079948,156.983991 C87.9839948,156.051991 93.3759944,151.047991 86.4199948,149.359991 C79.4639953,147.671991 62.9399962,149.363991 62.9399962,149.363991 Z" id="Path" fill="#FCA675"></path>
                            <path d="M38.5959977,122.663993 C38.5959977,122.663993 37.5319978,130.643992 36.0679979,133.971992 C34.6039979,137.299992 33.807998,139.171992 33.407998,143.547991 L33.007998,147.947991 C33.007998,147.947991 28.6079983,153.547991 27.2879984,157.659991 C25.9679985,161.77199 25.8239985,175.48399 25.8239985,175.48399 C26.9133033,176.881962 28.479941,177.829066 30.2239982,178.143989 C33.147998,178.675989 37.6719978,178.143989 37.6719978,178.143989 C37.6719978,178.143989 42.7279975,170.56399 43.6719974,165.37599 C44.6159973,160.18799 45.7999973,149.411991 45.7999973,149.411991 L57.6399966,133.843992 L52.2959969,123.879993 C52.2959969,123.879993 42.4519975,119.999993 38.5959977,122.663993 Z" id="Path" fill="#FCA675"></path>
                            <path d="M33.679998,207.775988 C33.679998,207.775988 35.3039979,211.163987 34.8799979,211.859987 C34.4559979,212.555987 27.8839983,215.271987 22.2839987,217.307987 C16.683999,219.343987 5.59999967,220.043987 5.0039997,219.943987 C4.40799974,219.843987 0.363999978,218.047987 0.0399999976,216.743987 C-0.283999983,215.439987 1.47599991,212.743987 1.47599991,212.743987 L33.679998,207.775988 Z" id="Path" fill="#FFFFFF"></path>
                            <path d="M25.8319985,174.79999 C25.8319985,174.79999 25.0319985,174.14399 25.0319985,175.47199 L25.0319985,180.799989 C25.0319985,181.727989 25.1679985,181.999989 25.0319985,182.799989 C24.8959985,183.599989 25.4319985,185.463989 25.0319985,186.259989 C24.6319985,187.055989 23.8319986,189.587989 23.8319986,189.587989 L22.7519986,194.707988 C22.7519986,194.707988 24.4959985,200.975988 25.6959985,202.707988 C26.8959984,204.439988 29.9999982,204.743988 29.9999982,205.143988 C29.9999982,205.543988 32.4599981,201.815988 32.4599981,201.815988 C32.4599981,201.815988 30.8599982,203.815988 32.4599981,199.687988 C34.059998,195.559988 34.323998,195.831988 34.4599979,192.487989 C34.5959979,189.143989 36.1999978,184.799989 37.3959978,181.999989 C38.5919977,179.199989 38.2279977,177.263989 38.2279977,177.263989 L25.8319985,174.79999 Z" id="Path" fill="#FFFFFF"></path>
                            <path d="M47.4759972,94.7119944 C47.4759972,94.7119944 45.3799973,98.1839941 45.3799973,99.6479941 C45.3799973,101.111994 45.7799973,102.307994 44.4479974,103.247994 C43.1159974,104.187994 42.4479975,103.247994 41.7879975,106.447994 C41.1279975,109.647993 41.2559975,109.907993 40.0599976,111.103993 C38.8639977,112.299993 37.2599978,114.303993 37.2599978,114.303993 L33.403998,121.903993 C34.8679979,123.503993 37.403998,123.903993 37.403998,123.903993 C39.4493577,122.996272 41.7041453,122.665662 43.9239974,122.947993 C47.3839972,123.483993 51.7719969,125.347993 53.5239968,129.471992 C55.2759967,133.595992 55.8239967,131.911992 56.3839966,133.871992 C56.6359966,134.759992 56.3519966,136.119992 56.8159966,136.135992 C57.2799966,136.151992 58.9759965,132.935992 60.0399964,132.135992 C61.1039964,131.335992 60.9719964,133.067992 62.5679963,130.671992 C64.1639962,128.275992 60.7079964,128.943992 64.1679962,128.271992 C67.627996,127.599992 67.795996,126.611992 68.8239959,124.547993 C69.8519958,122.483993 68.8239959,133.595992 68.8239959,133.595992 C68.8239959,133.595992 66.299996,137.995992 65.4999961,140.247992 C64.6999961,142.499992 62.5719963,148.095991 62.5719963,148.495991 C62.5719963,148.895991 65.0999961,153.947991 70.8199958,155.543991 C76.5399954,157.139991 82.6599951,155.811991 83.859995,155.011991 C83.859995,155.011991 87.1839948,147.411991 88.9119947,144.503991 C90.6399946,141.595992 91.5759945,140.247992 91.5759945,139.047992 C91.5759945,137.847992 90.6439946,135.047992 91.5759945,134.647992 C92.5079945,134.247992 93.3039944,133.847992 93.9759944,129.847992 C94.6479944,125.847992 93.9759944,123.719993 93.9759944,122.923993 C93.9759944,122.127993 96.903998,120.399993 96.1039943,116.011993 C95.3039943,111.623993 93.0439945,109.559993 93.0439945,109.559993 C93.0439945,109.559993 60.4799964,88.5799947 47.4759972,94.7119944 Z" id="Path" fill="#C80010"></path>
                            <path d="M19.1999989,199.423988 C19.1999989,199.423988 20.2479988,192.819989 21.2439987,191.731989 C22.2399987,190.643989 22.7679986,191.487989 25.1639985,191.731989 C27.5599984,191.975989 27.9439983,196.447988 27.9439983,196.447988 L25.8279985,201.283988 L31.0559981,201.283988 L32.739998,196.235988 C32.739998,196.235988 33.971998,195.967988 33.867998,196.235988 C33.763998,196.503988 34.8719979,197.959988 34.8719979,198.359988 C34.8719979,198.759988 34.071998,202.299988 34.071998,202.299988 L33.003998,205.039988 C33.003998,205.039988 35.7359979,209.467988 30.3479982,210.863987 C28.6039983,211.487987 20.4679988,215.387987 18.1559989,215.783987 C15.8439991,216.179987 6.03999964,218.047987 3.49199979,216.983987 C0.943999944,215.919987 1.03999994,214.455987 1.03999994,214.455987 C1.03999994,214.455987 0.343999979,210.455987 9.69199942,207.935988 C10.7999994,207.403988 19.1999989,199.423988 19.1999989,199.423988 Z" id="Path" fill="#29292A"></path>
                            <path d="M26.7159984,202.099988 C26.2696283,201.742146 25.7531828,201.481879 25.1999985,201.335988 C24.2999986,201.015988 23.3919986,200.715988 22.4879987,200.407988 C22.3572093,200.354179 22.2066301,200.391419 22.1159987,200.499988 C22.0313481,200.416158 21.9418616,200.337357 21.8479987,200.263988 L21.8479987,200.263988 C21.8533833,200.233558 21.8533833,200.202418 21.8479987,200.171988 C21.8360895,200.061149 21.7659474,199.965084 21.6639987,199.919988 C20.7679988,198.887988 19.7519988,197.859988 18.3199989,197.723988 C17.287999,197.627988 15.4999991,198.031988 14.9159991,198.983988 C13.3159992,201.583988 19.9279988,200.875988 21.3159987,200.711988 C21.3367071,200.810566 21.3938453,200.897702 21.4759987,200.955988 C22.5119987,201.723988 22.6359987,203.247988 23.6959986,204.079988 C24.5239985,204.727988 25.8639985,205.207988 26.7919984,204.479988 C27.5759984,203.851988 27.3959984,202.743988 26.7159984,202.099988 Z M18.5599989,200.099988 C17.8879989,200.099988 15.2879991,200.471988 15.8759991,199.147988 C16.055999,198.747988 17.423999,198.515988 17.7679989,198.495988 C18.347948,198.456455 18.9260378,198.596091 19.4239988,198.895988 C19.8726727,199.188485 20.2768305,199.544144 20.6239988,199.951988 C19.9479988,200.043988 19.2559989,200.099988 18.5599989,200.115988 L18.5599989,200.099988 Z M25.6359985,204.031988 C25.1439985,204.127988 24.4919985,203.691988 24.1279986,203.395988 C23.4479986,202.847988 23.1599986,202.039988 22.7479986,201.315988 C23.4999986,201.567988 24.2559986,201.815988 24.9999985,202.087988 C25.2520515,202.171075 25.4991249,202.268569 25.7399985,202.379988 C26.3999984,202.659988 26.3439984,203.199988 25.6359985,204.047988 L25.6359985,204.031988 Z" id="Shape" fill="#C9C9D6"></path>
                            <path d="M16.299999,208.839988 C15.4013475,208.298498 14.4446744,207.859743 13.4479992,207.531988 C14.2079992,207.531988 14.9679991,207.531988 15.7319991,207.531988 C16.243999,207.531988 16.243999,206.755988 15.7319991,206.731988 C14.033009,206.667242 12.331573,206.720704 10.6399994,206.891988 C10.1359994,206.943988 10.1279994,207.743988 10.6399994,207.691988 L10.7239994,207.691988 C10.7583795,207.712471 10.7964219,207.726057 10.8359994,207.731988 C12.6274129,207.97722 14.3495321,208.587109 15.8959991,209.523988 C16.0814275,209.605713 16.2986771,209.535863 16.4017313,209.361385 C16.5047856,209.186907 16.461084,208.962928 16.299999,208.839988 L16.299999,208.839988 Z" id="Path" fill="#C9C9D6"></path>
                            <path d="M22.0239987,204.091988 L21.8359987,204.051988 C21.8695398,203.92612 21.8396917,203.791804 21.7559987,203.691988 C21.3556211,203.199514 20.900718,202.754004 20.3999988,202.363988 C20.7319988,202.363988 21.0639987,202.363988 21.3999987,202.363988 C21.6209126,202.363988 21.7999987,202.184902 21.7999987,201.963988 C21.7999987,201.743074 21.6209126,201.563988 21.3999987,201.563988 C20.6879988,201.563988 19.9799988,201.563988 19.2759989,201.627988 C19.1119989,201.535988 18.9439989,201.447988 18.7719989,201.367988 C18.6424426,201.309391 18.4922441,201.318962 18.3711732,201.393529 C18.2501023,201.468096 18.1739683,201.597922 18.1679989,201.739988 C17.4393555,201.828012 16.7157301,201.953512 15.999999,202.115988 C15.8541531,202.139859 15.7416447,202.257259 15.7239991,202.403988 L15.6759991,202.383988 C15.1919991,202.211988 14.9839991,202.979988 15.4639991,203.155988 C15.8248286,203.282043 16.1775039,203.430327 16.519999,203.599988 C15.7831192,203.649947 15.049839,203.743444 14.3239991,203.879988 C14.1623507,203.900096 14.0407643,204.037095 14.0399992,204.199988 C13.882049,204.238009 13.762785,204.367788 13.7382134,204.528381 C13.7136418,204.688974 13.788644,204.848477 13.9279992,204.931988 C14.0919992,205.027988 14.2519992,205.123988 14.4119991,205.227988 C13.5693497,205.311125 12.7363633,205.473169 11.9239993,205.711988 C11.7303533,205.784849 11.6242285,205.99336 11.6792824,206.1928 C11.7343364,206.392241 11.9323978,206.516784 12.1359993,206.479988 C13.2184857,206.158746 14.3391045,205.98386 15.4679991,205.959988 C15.6039991,206.063988 15.7399991,206.167988 15.8679991,206.275988 C16.123999,206.483988 16.371999,206.703988 16.611999,206.927988 C16.851999,207.151988 17.383999,207.527988 17.411999,207.815988 C17.467999,208.323988 18.2679989,208.327988 18.2119989,207.815988 C18.1279989,207.055988 17.335999,206.479988 16.775999,206.007988 C17.4270101,206.060411 18.0729579,206.163388 18.7079989,206.315988 C19.2079989,206.439988 19.4199988,205.667988 18.9199989,205.547988 C17.8728066,205.289101 16.798696,205.154837 15.7199991,205.147988 C15.4439991,204.947988 15.1639991,204.747988 14.8799991,204.575988 C15.8340724,204.414294 16.8003321,204.335333 17.7679989,204.339988 C18.4453129,204.814994 19.0607305,205.372632 19.5999988,205.999988 C19.9359988,206.399988 20.4999988,205.823988 20.1679988,205.435988 C19.8465145,205.067602 19.500385,204.721472 19.1319989,204.399988 C20.0344502,204.480414 20.9291974,204.631545 21.8079987,204.851988 C22.3079987,204.987988 22.5199987,204.215988 22.0239987,204.091988 Z M18.0239989,203.563988 C17.590323,203.278085 17.1372222,203.022799 16.667999,202.799988 C17.4712975,202.635519 18.2832634,202.516662 19.0999989,202.443988 C19.7288734,202.827936 20.3010632,203.297805 20.7999988,203.839988 C19.8860037,203.675499 18.9604783,203.583214 18.0319989,203.563988 L18.0239989,203.563988 Z" id="Shape" fill="#C9C9D6"></path>
                            <path d="M61.4399963,34.035998 L61.5679963,39.0199977 C61.1523578,40.4898203 60.8554037,41.9906424 60.6799964,43.5079974 C60.5639964,45.2359973 62.0079963,51.6239969 63.0799962,52.7519969 C63.620519,53.3769985 64.3077351,53.8580497 65.0799961,54.1519968 C65.0799961,54.1519968 63.9079962,52.7519969 67.223996,50.151997 C70.5399958,47.5519972 73.4599956,45.8279973 75.8559955,40.3079976 C77.2576851,37.1451861 78.3300056,33.8464602 79.0559953,30.4639982 L76.8639954,24.1439986 C76.5169625,24.0221187 76.1594574,23.9324077 75.7959955,23.8759986 C75.5319955,23.8759986 71.3399957,28.9319983 71.3399957,28.9319983 L61.4399963,34.035998 Z" id="Path" fill="#FCA675"></path>
                            <path d="M58.7999965,34.9919979 C58.7999965,34.9919979 57.0719966,35.1279979 56.8719966,35.7239979 C56.6719966,36.3199978 56.3399966,37.3239978 56.0079967,37.4559978 C55.6759967,37.5879978 54.0799972,38.2559977 54.0079968,38.5199977 C53.7945206,38.9788159 53.5499513,39.4225153 53.2759968,39.8479976 L52.9439968,40.2479976 C52.9439968,40.2479976 50.815997,48.8959971 51.2799969,54.1519968 C51.7439969,59.4079965 52.4119969,61.9999963 52.8079969,62.7319963 C53.2039968,63.4639962 54.6719967,63.8639962 55.0039967,65.3919961 C55.3359967,66.919996 54.6719967,65.7239961 55.3359967,68.1919959 C55.9999967,70.6599958 55.4719967,70.9919958 57.1999966,72.3839957 C58.2863212,73.2912092 59.1891934,74.3977368 59.8599964,75.6439955 C59.8599964,75.6439955 58.5319965,75.9079955 58.9959965,77.6439954 C59.4599965,79.3799953 59.8599964,79.4399953 59.1279965,80.1039952 C58.3959965,80.7679952 58.0639965,80.5039952 58.1319965,81.2359952 C58.1999965,81.9679951 57.3319966,81.4359951 57.3999966,82.4359951 C57.4273835,83.1479591 57.3831614,83.8608734 57.2679966,84.563995 L56.9999966,85.1639949 C56.4996131,85.3569417 56.0107983,85.5786447 55.5359967,85.8279949 C55.5359967,85.8959949 54.4719968,85.8279949 54.4079968,86.6919948 C54.3439968,87.5559948 54.4719968,87.8919948 53.4759968,88.6919947 C52.4799969,89.4919947 51.5439969,90.8879946 51.2119969,91.2879946 C50.879997,91.6879945 48.4119971,92.4159945 48.4119971,92.4159945 L47.0799972,95.6159943 C47.0799972,95.6159943 49.807997,92.9519945 52.1359969,95.0159943 C54.4639968,97.0799942 57.9919965,102.615994 63.5759962,107.787994 C69.1599959,112.959993 75.2159955,117.363993 78.8759953,116.831993 C82.5359951,116.299993 92.9759945,109.583993 92.9759945,109.583993 C92.9759945,109.583993 97.6999942,88.4959947 97.6999942,87.5839948 C97.6999942,86.6719948 96.5679942,76.7439954 96.5679942,76.5439954 C96.5679942,76.3439954 104.399994,56.0799967 104.111994,52.1559969 C103.823994,48.2319971 104.111994,41.8439975 99.923994,39.9839976 C95.7359943,38.1239977 93.0719945,35.9399979 91.7399945,35.3319979 C90.4079946,34.7239979 87.7399948,32.863998 87.7399948,32.863998 C87.7399948,32.863998 84.0799972,30.7359982 83.815995,30.9359982 C83.551995,31.1359981 82.6159951,30.3359982 81.9519951,32.863998 C81.2879952,35.3919979 79.7559952,37.3199978 77.1519954,42.1119975 C74.5479956,46.9039972 71.8839957,49.759997 70.2399958,50.759997 C68.5959959,51.7599969 67.9759959,52.1559969 67.187996,52.6199969 C66.399996,53.0839968 65.9879961,54.7479967 65.0679961,55.3479967 C64.1479962,55.9479967 62.4399963,55.1479967 62.2679963,54.5479967 C62.0959963,53.9479968 61.7559963,54.2839968 60.4919964,53.3479968 C59.2279965,52.4119969 56.5679966,45.6999973 57.2919966,43.5039974 C58.0159965,41.3079975 59.1479965,38.5839977 58.7999965,34.9919979 Z" id="Path" fill="#29292A"></path>
                            <path d="M17.9999989,108.915994 C16.475999,108.915994 14.5039991,108.563994 11.9759993,107.563994 C11.8814288,107.519059 11.8375208,107.408792 11.8753179,107.311149 C11.913115,107.213507 12.0198226,107.161542 12.1199993,107.191994 C17.043999,109.135993 19.7519988,108.587994 21.1559987,107.787994 C22.3207071,107.127594 23.108427,105.95934 23.2839986,104.631994 C23.7279986,101.883994 21.0599987,98.6319941 17.023999,93.7119944 C16.147999,92.6399945 15.2439991,91.5359945 14.2759991,90.3279946 C8.73999948,83.391995 10.1919994,80.2319952 10.2759994,80.0999952 C10.3074388,80.0356874 10.3707977,79.9930373 10.4422096,79.9881107 C10.5136215,79.983184 10.5822371,80.0167295 10.6222096,80.0761106 C10.6621821,80.1354918 10.6674387,80.2116874 10.6359994,80.2759952 C10.6359994,80.3159952 9.27199945,83.387995 14.6079991,90.0799946 C15.5759991,91.2799946 16.479999,92.3879945 17.351999,93.4559944 C21.4559987,98.4639941 24.1519986,101.767994 23.6959986,104.695994 C23.5042971,106.143904 22.6437255,107.417728 21.3719987,108.135994 C20.3367827,108.68969 19.1732065,108.958845 17.9999989,108.915994 L17.9999989,108.915994 Z" id="Path" fill="#99500E"></path>
                            <path d="M24.0479986,104.939994 C19.9876436,104.935853 15.9851932,103.97669 12.3639993,102.139994 C5.52399967,98.5639941 4.42399974,92.3439945 4.41199974,92.2799945 C4.39432663,92.1695376 4.46954279,92.0656676 4.57999973,92.0479945 C4.69045667,92.0303214 4.7943266,92.1055376 4.81199971,92.2159945 C5.07620078,93.4356783 5.53112361,94.6060584 6.15999963,95.6839943 C7.65174749,98.2997789 9.87655762,100.421692 12.5599993,101.787994 C16.8054223,103.932262 21.5667344,104.844062 26.3039984,104.419994 C30.2039982,104.019994 35.5039979,102.419994 38.5119977,96.9799942 C38.5413068,96.9089411 38.6087409,96.86097 38.6854764,96.8565854 C38.7622119,96.8522008 38.8346713,96.8921784 38.8718831,96.9594305 C38.9090949,97.0266826 38.9044749,97.1093097 38.8599977,97.1719942 C35.7519979,102.771994 30.3359982,104.423994 26.3439984,104.815994 C25.5999985,104.899994 24.8199985,104.939994 24.0479986,104.939994 Z" id="Path" fill="#99500E"></path>
                            <path d="M67.199996,41.2479975 C64.6799961,41.2479975 61.4519963,34.047998 61.4519963,34.047998 C61.4519963,34.047998 61.9999963,28.0759983 63.1999962,27.4119984 C64.3999962,26.7479984 72.2439957,23.0119986 72.2439957,23.0119986 L76.8359954,24.1439986 C76.8359954,24.1439986 73.1319956,40.6479976 67.199996,41.2479975 Z" id="Path" fill="#DE8A51"></path>
                            <path d="M56.1559967,17.035999 C56.1559967,17.035999 54.9559967,16.367999 54.4919968,17.035999 C54.0279968,17.7039989 53.9439968,19.9959988 54.0919968,21.2399987 C54.2399968,22.4839987 55.1399967,23.9999986 55.5999967,24.2839986 C56.0367195,24.4940113 56.5117966,24.6124403 56.9959966,24.6319985 L60.8359964,33.431998 C60.8359964,33.431998 62.1839963,34.8759979 62.8359963,35.1759979 C63.4879962,35.4759979 66.727996,35.3239979 68.3239959,35.1759979 C69.9199958,35.0279979 71.1679958,33.479998 72.0159957,32.6799981 C72.8639957,31.8799981 75.3079955,26.8959984 75.8559955,24.3999985 C75.8559955,24.3999985 76.5559954,24.9479985 77.1519954,24.7999985 C77.7479954,24.6519985 79.4479953,23.0039986 79.9959952,21.8079987 C80.5439952,20.6119988 80.1479952,16.727999 80.0479952,16.567999 C79.5959953,15.8679991 77.7039954,17.051999 77.7039954,17.051999 C77.7039954,17.051999 75.8559955,8.91199947 75.8559955,8.89999947 C75.8559955,8.88799947 71.3679957,5.99199964 71.1159958,5.99199964 L62.5239963,5.99199964 C62.2239963,5.99199964 58.3839965,6.23999963 58.3839965,6.23999963 L57.0879966,7.93599953 L56.1559967,17.035999 Z" id="Path" fill="#FCA675"></path>
                            <path d="M56.1559967,17.035999 C56.1559967,17.035999 55.5559967,12.0439993 56.1559967,8.85199947 C56.7559966,5.65999966 60.0799964,0.203999988 66.399996,0.399999976 C72.7199957,0.595999964 77.1079954,3.92799977 77.9719954,7.19999957 C78.8359953,10.4719994 78.5359953,16.603999 78.5359953,16.603999 L77.1399954,17.375999 L74.9799955,9.45999944 C74.9799955,9.45999944 73.5999956,7.19999957 71.7199957,6.92399959 C69.8399958,6.6479996 61.2119964,6.85599959 60.2119964,6.99199958 C59.2119965,7.12799958 57.6839966,8.25599951 57.5519966,9.05199946 C57.4199966,9.84799941 56.8199966,17.367999 56.8199966,17.367999 L56.1559967,17.035999 Z" id="Path" fill="#110D0C"></path>
                            <path d="M78.1079953,104.767994 C76.8586555,105.890179 75.2742262,106.56922 73.5999956,106.699994 C70.7999958,106.899994 67.599996,108.451994 66.547996,108.959994 C65.4959961,109.467993 63.3479962,110.023993 62.6919963,108.959994 C62.0359963,107.895994 61.0279964,109.759993 61.8919963,110.887993 C62.7559963,112.015993 65.0199961,112.351993 65.8159961,112.419993 C65.8159961,112.419993 63.6879962,114.347993 63.4879962,115.219993 C63.2879962,116.091993 62.6879963,116.683993 62.6239963,117.547993 C62.5599963,118.411993 64.2239962,118.411993 64.8839961,117.547993 C65.5439961,116.683993 66.731996,114.495993 68.4119959,113.823993 C69.4462589,113.413197 70.517949,113.103746 71.6119957,112.899993 C71.6119957,112.899993 69.6839958,115.299993 68.8839959,116.419993 C68.0839959,117.539993 66.555996,120.075993 66.755996,120.819993 C66.955996,121.563993 67.287996,122.615993 69.2839959,120.819993 C71.2799958,119.023993 73.9399956,114.699993 73.9399956,114.699993 C73.9399956,114.699993 72.5439957,118.027993 71.6759957,119.023993 C70.8079958,120.019993 68.3519959,121.219993 68.3519959,122.351993 C68.3519959,123.483993 69.1519959,124.143993 69.8479958,123.811993 C70.5439958,123.479993 72.5439957,124.015993 74.3399956,123.479993 C76.1359955,122.943993 76.2679955,122.883993 77.2639954,121.351993 C78.2599953,119.819993 83.851995,112.903993 83.851995,112.903993 L84.583995,108.715994 C84.583995,108.715994 80.4359952,103.903994 78.1079953,104.767994 Z" id="Path" fill="#FCA675"></path>
                            <path d="M90.4799946,37.5999978 C88.4799947,37.5999978 85.6799949,42.8559974 84.623995,45.1999973 C83.567995,47.5439972 82.7639951,51.6519969 83.959995,55.3759967 C85.1559949,59.0999978 89.0159947,62.0279963 89.6799947,62.7599963 C90.3439946,63.4919962 96.0319943,78.4159953 97.0799942,80.9959952 C98.1279942,83.575995 98.5279941,84.111995 98.5279941,84.111995 C98.5279941,84.111995 98.1279942,87.1719948 93.6039944,92.7599945 C89.0799947,98.3479941 78.1079953,104.795994 78.1079953,104.795994 C78.1079953,104.795994 79.5679953,104.331994 81.4319951,106.459994 C82.5959726,107.824299 83.5185524,109.377263 84.159995,111.051993 C84.159995,111.051993 83.295995,113.051993 83.827995,112.911993 C84.359995,112.771993 84.359995,111.115993 85.9559949,110.511993 C87.5519948,109.907993 99.2599941,103.711994 103.647994,99.931994 C108.035994,96.1519943 114.691993,90.8199946 115.755993,87.8279948 C116.819993,84.8359949 106.307994,55.7679967 103.779994,52.1759969 C101.251994,48.5839971 102.399994,38.6519977 90.1439946,37.5999978" id="Path" fill="#FCA675"></path>
                        </g>
                    </g>
                </g>
                <ellipse id="Oval" fill-opacity="0.115712413" fill="#000000" cx="105" cy="317" rx="32" ry="4"></ellipse>
                <ellipse id="Oval" fill-opacity="0.115712413" fill="#000000" cx="205.5" cy="332.5" rx="38.5" ry="7.5"></ellipse>
                <g id="Asset-5" transform="translate(129.000000, 216.500000) scale(-1, 1) translate(-129.000000, -216.500000) translate(49.000000, 114.000000)" fill-rule="nonzero">
                    <path d="M114.856564,65.7165621 C116.233934,66.9156757 117.154636,68.5539067 117.462804,70.3539222 L120.192804,73.4479223 C120.192804,73.4479223 124.742804,80.1528025 123.592564,82.1839226 C121.525044,83.8219226 116.429044,90.1919228 103.208563,72.2176023 C102.815443,70.4121622 103.208563,69.9899222 103.208563,69.9899222 L106.317123,67.8641621 C108.121561,66.5138998 110.267259,65.6944497 112.512404,65.4981621 L114.856564,65.7165621 Z" id="Path" fill="#FAA489"></path>
                    <path d="M102.007363,30.918161 C100.963569,31.7205119 100.04369,32.6722796 99.2773631,33.7428011 C98.5227473,35.1309882 97.663657,36.4597795 96.707523,37.7176812 C94.640003,40.2875213 91.4004029,42.9520014 86.6975227,42.2240013 C74.7437623,40.1128013 78.8642425,31.114721 78.8642425,31.114721 C78.8642425,31.114721 83.4579226,31.471441 85.8748827,28.6686409 C86.4960796,27.8724166 86.9874797,26.9829824 87.3308827,26.0332808 C87.7473311,25.0040457 88.0500352,23.9323754 88.2336028,22.8373607 L88.3428028,22.2185607 C88.4956828,21.3085607 88.6558428,20.3912806 88.7213628,19.4740006 C88.7650301,18.8705495 88.7650301,18.2647316 88.7213628,17.6612806 L91.0000029,20.1000806 L93.6644829,23.0120807 L98.7022431,27.7732009 L102.007363,30.918161 Z" id="Path" fill="#FAA489"></path>
                    <path d="M98.6876831,27.7877609 L91.6188029,23.0120807 L91.6188029,23.0120807 L90.9708829,20.1000806 L88.7286428,17.6394406 C88.7723101,18.2428916 88.7723101,18.8487095 88.7286428,19.4521606 C88.6631228,20.3694406 88.5029628,21.2867207 88.3500828,22.1967207 C88.7484688,22.6612492 89.2713213,23.00224 89.8570428,23.1795207 C90.5927368,23.4299447 91.0815999,24.1278999 91.0655229,24.9048808 L91.0655229,27.6130409 L96.692963,37.7176812 C97.649097,36.4597795 98.5081873,35.1309882 99.2628031,33.7428011 C100.02913,32.6722796 100.949009,31.7205119 101.992803,30.918161 L98.6876831,27.7877609 Z" id="Path" fill="#F0947C"></path>
                    <path d="M106.783043,12.0411204 C107.581305,14.7309154 107.959467,17.5278383 107.904163,20.3330406 C107.904163,21.7016807 107.532883,37.6740012 99.7724031,32.905601 C92.8272829,27.6858409 91.8372029,27.0379209 91.7644029,26.6448008 C90.9927229,22.1384807 89.8060828,15.4481605 89.8060828,15.4481605 C89.8060828,15.4481605 97.0205631,1.92192006 106.783043,12.0411204 Z" id="Path" fill="#FAA489"></path>
                    <path d="M97.0278431,10.0318403 C97.5738431,10.4322403 98.1271231,10.5996803 98.1635231,11.3276804 C98.1813862,12.1118679 97.987754,12.8863964 97.6029631,13.5699204 C97.1057076,14.4259158 96.436431,15.1695564 95.637363,15.7539205 C94.7402032,16.4363622 93.7432912,16.9765608 92.6816829,17.3555205 C92.0192029,17.5957606 91.7207229,17.7559206 91.1310429,17.3555205 C90.633549,17.0349066 90.0913968,16.7895888 89.5221628,16.6275205 C89.0488617,16.4939342 88.5402759,16.6245545 88.1899228,16.9696805 C87.9743372,17.2595895 87.861615,17.6131273 87.8696028,17.9743206 C87.8406155,18.3669062 87.8406155,18.7610949 87.8696028,19.1536806 C87.9569628,20.3767206 89.6386428,21.1993607 89.8060828,22.4224007 C89.8643228,22.8592007 89.3692828,23.4197607 89.1363228,23.7400807 C88.9033628,24.0604008 88.5830428,24.5263208 88.2991228,24.9485608 C88.0880028,25.2543208 87.8332028,25.6765608 87.4328027,25.7930408 C87.4328027,25.7930408 84.7319227,9.13640029 90.1264028,7.89152025 L90.3375228,7.89152025 C91.3480885,7.63124368 92.4017633,7.58413822 93.4315229,7.75320024 C94.2378429,7.96713147 94.9929326,8.34096277 95.651923,8.85248028 C96.096003,9.19464029 96.460003,9.6387203 96.904083,9.96632031 L97.0278431,10.0318403 Z" id="Path" fill="#050505"></path>
                    <path d="M89.2892028,16.5547205 C88.8092998,16.4758532 88.3173685,16.5825685 87.9132828,16.8532005 C87.4473627,17.2172005 87.0105627,17.9233606 87.4692028,19.8161606 C87.8550428,20.7771207 88.4447228,22.5243207 91.1092029,22.6553607 C91.5387229,22.3423207 91.6552029,22.2768007 91.6552029,22.2768007 L90.8252829,17.1808005 C90.3541135,16.8832913 89.8340988,16.6713422 89.2892028,16.5547205 L89.2892028,16.5547205 Z" id="Path" fill="#FAA489"></path>
                    <path d="M117.572004,79.8761625 C117.572004,79.8761625 116.749364,75.0131224 121.343044,73.6881623 C125.711044,72.0064823 137.046004,67.4128021 138.087044,65.8621621 C138.363684,66.8231221 139.135364,70.5941622 141.414004,71.6861623 C139.543044,72.7344823 132.263044,78.7841625 132.263044,78.7841625 L121.663364,84.6081627 L118.431044,84.6081627 L117.572004,79.8761625 Z" id="Path" fill="#FAA489"></path>
                    <path d="M56.4345618,29.2510409 C56.4345618,29.2510409 53.4570417,30.772561 46.6065615,29.2510409 L40.3530413,28.5885609 C40.3530413,28.5885609 32.163041,29.2583209 30.466801,29.2583209 C28.7705609,29.2583209 21.2430407,28.5885609 21.2430407,28.5885609 C21.2430407,28.5885609 25.4800008,31.194801 21.7308007,36.4000011 C23.0048007,36.8804812 29.0690409,38.7660012 31.071041,39.4940012 C33.073041,40.2220013 36.4000011,42.5370413 49.5768016,40.6005613 C52.7980701,42.3249693 56.4996664,42.9342224 60.1036819,42.3332013 C61.8290419,40.6005613 62.695362,37.8487212 63.124882,35.7812011 C63.482782,34.1115498 63.0200196,32.3714547 61.8800019,31.100161 L61.8800019,31.100161 C60.929305,30.0513265 59.6026367,29.4207011 58.1890418,29.3456809 L56.4345618,29.2510409 Z" id="Path" fill="#FAA489"></path>
                    <path d="M51.6880016,38.8388012 C38.8679212,42.4278413 35.2716011,40.5641613 33.189521,40.0982413 C32.854641,40.0181613 32.396001,39.9235213 31.871841,39.8216013 C34.0558411,40.7170413 37.9870412,42.3113613 49.5913616,40.6005613 C52.8126301,42.3249693 56.5142264,42.9342224 60.1182419,42.3332013 C60.942804,41.4542553 61.5969621,40.4298191 62.047442,39.3120012 C58.6333288,40.2730147 55.0002855,40.107064 51.6880016,38.8388012 Z" id="Path" fill="#F0947C"></path>
                    <path d="M57.1989618,29.2947209 L56.4709618,29.2510409 C56.1873686,29.3779983 55.8924367,29.4779338 55.5900817,29.5495209 C56.1318814,29.5040208 56.6696161,29.4188592 57.1989618,29.2947209 Z" id="Path" fill="#E4B29A"></path>
                    <path d="M114.849284,65.7165621 C110.832486,66.5012637 107.138653,68.4596536 104.235043,71.3440022 L103.237683,72.2103223 L97.2244031,66.6120021 C96.6804194,66.6719652 96.1423041,66.7766663 95.615523,66.9250421 C90.738424,68.1684545 86.9886858,72.0705523 85.9404027,76.9932824 L58.4438418,61.9746419 L57.7158418,61.5888019 C59.4992411,58.5063336 60.2635898,54.9393729 59.8998419,51.3968016 C59.768775,49.7905909 59.768775,48.1763722 59.8998419,46.5701615 C59.9580819,45.6383214 60.0017619,44.8011214 60.0454419,44.1022414 C60.0891219,43.4033614 60.1036819,42.8646413 60.1182419,42.5661613 C60.1182419,42.3987213 60.1182419,42.3040813 60.1182419,42.3040813 C60.1182419,42.3040813 65.4326421,30.255681 56.4782418,29.2000809 C57.631707,28.2985444 58.9060047,27.5633727 60.2638419,27.0160808 L60.9918419,26.6957608 C65.5491221,24.7956808 71.9118423,23.3178407 75.2679224,24.6209608 C77.0291937,25.397389 78.6482594,26.4628228 80.0581625,27.7732009 L85.3944027,28.3556009 C85.3944027,28.3556009 90.6651229,33.182241 93.4024029,36.9969612 C94.356083,38.0452812 95.761123,39.9089613 95.761123,39.9089613 C95.761123,39.9089613 94.887523,41.2703213 95.761123,42.3113613 C96.634723,43.3524014 98.1853631,44.6992014 98.6731231,44.6992014 C100.973603,44.6992014 107.489203,50.7416016 109.760563,59.9872019 L114.849284,65.7165621 Z" id="Path" fill="#FF4D53"></path>
                    <path d="M114.849284,65.7165621 C110.832486,66.5012637 107.138653,68.4596536 104.235043,71.3440022 L103.237683,72.2103223 L97.2899231,66.6702421 C101.606963,62.644402 109.738723,60.0163219 109.738723,60.0163219 L114.849284,65.7165621 Z" id="Path" fill="#C80010"></path>
                    <path d="M124.975764,87.0251227 C124.741618,86.5934734 124.346571,86.2716801 123.876484,86.1296827 C122.791764,85.8020827 120.360244,85.0595227 118.969764,84.5936027 C118.506853,84.4346111 118.125068,84.0998958 117.906884,83.6617626 C115.95633,79.9056864 113.290401,76.5670924 110.059043,73.8337623 C108.798864,72.7316891 107.683419,71.4743674 106.739363,70.0918422 C106.20209,69.2924857 105.442997,68.6674994 104.555363,68.2936821 C103.2241,67.7731869 101.964297,67.0857989 100.806163,66.2480021 L99.9616831,65.6073621 C99.2742532,65.0917896 98.8696831,64.2826495 98.8696831,63.423362 C98.8696831,61.7562419 97.2899231,57.8978418 97.2899231,57.9488018 C97.2899231,60.3002419 95.426243,61.8654419 93.3223229,60.8171219 C89.6481396,59.1019656 85.6341402,58.2384455 81.5796826,58.2909618 C79.7265056,58.3148164 77.8776137,58.1069383 76.0760024,57.6721618 C72.6398423,56.7621618 58.0070418,61.3121619 57.7376818,61.5888019 C47.1889615,72.5088023 54.0394417,79.9344025 55.4517617,81.9728026 C55.6437331,82.2598946 55.9105938,82.488992 56.2234418,82.6352826 C60.0381619,84.3388027 73.6226423,85.5472827 78.2964025,85.3143227 C81.8417626,85.6710427 85.5036027,83.8583226 87.4837628,83.5525626 C87.6165925,83.5341234 87.751333,83.5341234 87.8841628,83.5525626 C89.5148828,83.7054426 90.5923228,83.0720826 91.8008029,82.6425626 C92.6196578,82.3640479 93.5226872,82.6831182 93.984803,83.4142426 C99.5103231,92.0483229 104.009363,91.4586429 106.892243,91.2184029 C107.09552,91.2013248 107.300211,91.221054 107.496483,91.2766429 C108.947384,91.7035078 110.312359,92.3810675 111.529604,93.2786429 L111.653364,93.3878429 L111.922724,93.6280829 C112.466364,94.1225164 113.247731,94.2560592 113.924724,93.970243 L123.956564,89.6823228 C124.458674,89.482281 124.854333,89.0814962 125.047895,88.5768525 C125.241457,88.0722087 125.215306,87.509634 124.975764,87.0251227 Z" id="Path" fill="#C80010" opacity="0.25" style="mix-blend-mode: multiply;"></path>
                    <path d="M125.849364,87.7531228 L112.607044,94.210483 L111.333044,93.1840029 C109.968032,92.263491 108.437801,91.6158 106.826723,91.2766429 C104.438883,91.5678429 100.828003,92.4560029 96.074163,87.6366428 C94.7429807,86.2463293 93.5439035,84.7352971 92.4924029,83.1230426 C90.4976828,83.3924026 89.3547228,84.8338427 86.9450427,84.6372827 C85.3507227,84.8920827 82.4896826,86.4427227 79.4393625,86.8212827 L79.2792025,86.8212827 C78.7429374,86.8842849 78.2024514,86.9037619 77.6630424,86.8795227 L77.4956024,86.8795227 C72.4651223,87.3454427 58.0652818,86.7339227 55.0004017,85.0813627 C55.0004017,85.0813627 45.8130414,74.8092824 57.7376818,61.6106419 C65.8330421,59.6086419 72.8364023,58.0652818 75.9376824,60.0600019 C76.5783224,60.0017619 88.0152028,57.7886418 95.841203,64.282402 C98.0252031,65.9204021 101.665203,68.2864021 101.665203,68.2864021 C101.665203,68.2864021 104.817443,68.0388821 106.397203,72.1084023 C111.059018,75.0038905 114.897316,79.0502735 117.542884,83.8583226 C118.831444,84.2732826 123.810964,85.4963227 123.810964,85.4963227 L125.849364,87.7531228 Z" id="Path" fill="#FAA489"></path>
                    <path d="M92.4924029,83.0648026 C90.4976828,83.3341626 89.3547228,84.7756027 86.9450427,84.5790427 C85.3507227,84.8338427 82.4896826,86.3844827 79.4393625,86.7630427 L79.2792025,86.7630427 C78.7424824,86.8198757 78.2024611,86.839336 77.6630424,86.8212827 L77.4956024,86.8212827 L77.3718424,86.8212827 C76.0386749,86.4583084 75.1441226,85.2084446 75.23053,83.8294523 C75.3169375,82.45046 76.3605127,81.322039 77.7285624,81.1283226 C85.9040027,79.7232825 89.9808028,76.0905624 90.2283228,75.8648824 C90.0972828,76.1269624 88.3355228,79.7305625 92.4924029,83.0648026 Z" id="Path" fill="#F0947C"></path>
                    <path d="M113.145764,86.3990427 C114.143124,87.3017627 118.154404,90.4976828 118.154404,90.4976828 L118.431044,91.3712829 L125.849364,87.7312828 L123.760004,85.4744827 C123.760004,85.4744827 118.780484,84.2441626 117.499204,83.8364826 C115.584272,80.3548886 113.036322,77.2613024 109.986243,74.7146423 C111.771401,78.3736349 112.843662,82.3390245 113.145764,86.3990427 Z" id="Path" fill="#DBA38D"></path>
                    <polygon id="Path" fill="#DBA38D" points="111.864484 93.5989629 112.607044 94.210483 113.961124 93.5480029"></polygon>
                    <path d="M106.834003,91.2548029 C108.442489,91.5950265 109.970138,92.2426705 111.333044,93.1621629 L112.607044,94.210483 L125.849364,87.7531228 L123.760004,85.4744827 C123.760004,85.4744827 118.780484,84.2441626 117.499204,83.8364826 C114.853954,79.0267048 111.018883,74.9760677 106.360803,72.0720023 L104.235043,71.6497623 C104.235043,71.6497623 97.9888031,68.8688022 93.6790429,73.0548023 C92.5288029,74.5108023 89.8570428,78.0852825 92.4996829,83.0575226 C94.188643,85.4089627 98.0179231,93.1840029 106.834003,91.2548029 Z" id="Path" fill="#FFFFFF"></path>
                    <path d="M114.609044,91.6770429 L113.335044,90.6287228 C111.969455,89.7077337 110.43961,89.0577352 108.828723,88.7140828 C100.019923,90.6578429 96.190643,82.8900826 94.494403,80.5240825 C93.0367867,78.0496289 92.9897655,74.9904856 94.370643,72.4724023 C94.1297534,72.6564816 93.8988898,72.8533232 93.6790429,73.0620823 C92.5288029,74.5180823 89.8570428,78.0925625 92.4996829,83.0648026 C94.188643,85.4089627 98.0179231,93.1985629 106.834003,91.2548029 C108.442489,91.5950265 109.970138,92.2426705 111.333044,93.1621629 L112.607044,94.210483 L125.849364,87.7531228 L124.866564,86.6684027 L114.609044,91.6770429 Z" id="Path" fill="#EAE8E8"></path>
                    <path d="M55.0076817,85.0595227 C55.0076817,85.0595227 52.8236817,96.350803 66.4445621,102.720803 C68.5048022,105.268803 85.8530427,127.836804 89.7405628,131.294804 C90.403395,132.91956 90.8015637,134.640042 90.9199229,136.390804 C90.9199229,136.390804 87.3745627,148.308165 89.6459228,157.044165 C90.9490429,166.712005 92.3176829,181.272006 92.3176829,181.272006 L93.861043,186.462646 L101.869043,188.734006 L103.689043,186.186006 C103.689043,186.186006 99.7796831,180.362006 102.051043,170.264645 C104.053043,159.068005 105.873043,140.962644 105.239683,139.048004 C105.603683,134.498004 108.879683,130.676004 104.329683,125.674644 C102.873683,120.032644 97.6830431,111.202003 97.6830431,111.202003 L86.3990427,84.6008827 L55.0076817,85.0595227 Z" id="Path" fill="#FAA489"></path>
                    <path d="M100.223763,185.640006 L98.2800031,180.544006 C98.2800031,180.544006 95.870323,166.122325 93.912003,156.592805 C91.0000029,148.046085 93.6936029,135.895764 93.6936029,135.895764 C93.6936029,135.895764 93.6135229,135.306084 93.4242429,134.439764 C92.988843,132.541614 91.994877,130.817388 90.5704828,129.489364 C86.3990427,125.565444 82.1402426,106.601043 71.9555223,109.702323 C78.0124825,117.426404 87.0615227,128.848724 89.7551228,131.229284 C90.417955,132.85404 90.8161237,134.574522 90.9344829,136.325284 C90.9344829,136.325284 87.3891227,148.242645 89.6604828,156.978645 C90.9490429,166.712005 92.3176829,181.272006 92.3176829,181.272006 L93.861043,186.462646 L101.869043,188.734006 L103.572563,186.353446 L100.223763,185.640006 Z" id="Path" fill="#DBA38D"></path>
                    <path d="M66.3426421,51.0910416 C65.8476021,53.3478417 65.9131221,55.7866418 64.806562,57.8104818 C63.6725131,59.6724847 61.8750013,61.0355761 59.7760819,61.6252019 C59.3381071,61.7638258 58.8934713,61.8804516 58.4438418,61.9746419 L57.7158418,61.5888019 C59.4992411,58.5063336 60.2635898,54.9393729 59.8998419,51.3968016 C59.768775,49.7905909 59.768775,48.1763722 59.8998419,46.5701615 C60.0163219,44.7137614 60.1400819,42.3040813 60.1400819,42.3040813 C60.1400819,42.3040813 63.408802,42.3550413 64.508082,42.1948813 C65.9338507,41.8420571 67.3386765,41.409429 68.7159222,40.8990413 C68.7159222,40.8990413 66.9250421,48.4265615 66.3426421,51.0910416 Z" id="Path" fill="#E4B29A" opacity="0.25" style="mix-blend-mode: multiply;"></path>
                    <path d="M105.239683,139.048004 C105.873043,140.962644 104.053043,159.068005 102.051043,170.264645 C99.7796831,180.362006 103.689043,186.186006 103.689043,186.186006 L102.516963,187.824006 C102.12912,188.367613 101.440236,188.606971 100.798883,188.420966 L94.858403,186.739286 C94.2378351,186.56099 93.7516521,186.077554 93.5698429,185.458006 L92.3176829,181.272006 C92.3176829,181.272006 90.9490429,166.712005 89.6750428,157.066005 C89.6750428,157.066005 87.4036827,150.514005 88.6776828,146.393525 C89.1581628,142.418644 90.6141628,136.318004 90.6141628,136.318004 C90.6141628,136.318004 96.656563,132.961924 105.239683,139.048004 Z" id="Path" fill="#FFFFFF"></path>
                    <path d="M102.604323,187.350806 C102.189386,187.874694 101.48864,188.079079 100.857123,187.860406 L95.033123,185.851126 C94.4230509,185.639219 93.9623849,185.131938 93.8100829,184.504326 L92.7908829,180.245526 C92.7908829,180.245526 92.2303229,165.634565 91.4877629,155.930325 C91.4877629,155.930325 89.5731228,149.269125 91.0728029,145.214165 C91.6988829,141.712484 93.1767229,136.580084 93.4970429,135.488084 C92.5023811,135.594664 91.5327402,135.867837 90.6287228,136.296164 C90.6287228,136.296164 89.1727228,142.396804 88.6922428,146.371685 C87.4182427,150.492165 89.6896028,157.044165 89.6896028,157.044165 C90.9490429,166.712005 92.3176829,181.272006 92.3176829,181.272006 L93.5698429,185.465286 C93.7516521,186.084834 94.2378351,186.56827 94.858403,186.746566 L100.798883,188.428246 C101.440236,188.614251 102.12912,188.374893 102.516963,187.831286 L103.689043,186.186006 L103.630803,186.091366 L102.604323,187.350806 Z" id="Path" fill="#EAE8E8"></path>
                    <path d="M92.3176829,181.272006 C89.7405799,182.752183 87.9517507,185.298132 87.4328027,188.224406 C89.1945628,191.558646 90.1628028,192.526886 94.108563,194.106646 C95.863043,195.438886 100.478563,198.896886 101.323043,199.988886 C102.167523,201.080886 108.850563,206.788407 115.096804,203.934646 C115.701044,203.264886 116.188804,200.716886 112.184804,199.624886 C110.871533,198.513099 109.762829,197.180191 108.908803,195.686406 C108.908803,195.686406 104.089443,187.853126 103.689043,186.222406 C99.3865631,186.076806 95.746563,186.804806 92.3176829,181.272006 Z" id="Path" fill="#E11F29"></path>
                    <path d="M102.182083,198.467366 C101.330323,197.375366 96.722083,193.917366 94.960323,192.585126 C91.0218429,191.005366 90.0463228,190.037126 88.2918428,186.695606 C88.4504412,185.850534 88.7145899,185.028738 89.0780828,184.249526 C88.2559353,185.435842 87.6951349,186.783251 87.4328027,188.202566 C89.1945628,191.536806 90.1628028,192.505046 94.108563,194.084806 C95.863043,195.417046 100.478563,198.875046 101.323043,199.967046 C102.167523,201.059046 108.850563,206.766567 115.096804,203.912806 C115.38661,203.537165 115.529022,203.068499 115.497204,202.595126 C109.382003,204.982966 103.012003,199.530246 102.182083,198.467366 Z" id="Path" fill="#AE0714"></path>
                    <path d="M97.6830431,111.187443 C83.5307226,110.867123 81.8053626,122.602484 81.8053626,122.602484 L81.8053626,122.602484 C81.0938583,122.401037 80.449963,122.011178 79.9416825,121.474084 C76.6001624,117.928724 71.2056822,109.549443 68.1699221,105.137763 C67.1876536,103.704367 65.8933887,102.51215 64.384322,101.650643 C53.0784817,95.171443 55.0004017,85.0595227 55.0004017,85.0595227 L55.4663217,85.0595227 L86.3990427,84.5863227 L86.9741627,85.9404027 L97.6830431,111.187443 Z" id="Path" fill="#29292A"></path>
                    <polygon id="Path" fill="#007F67" points="97.1224831 111.187443 97.6830431 111.187443 97.6466431 111.100083"></polygon>
                    <path d="M146.874005,94.210483 C146.511796,94.7041859 146.120405,95.1758001 145.701925,95.622803 C144.093045,97.2899231 141.195604,98.9497631 133.449684,98.8114431 C129.263684,98.2072031 124.844724,95.535443 120.484004,100.900803 C119.730254,101.807652 118.712253,102.456627 117.572004,102.757203 C114.842004,103.485203 110.961763,103.856483 110.292003,100.442163 C109.746003,98.8988031 109.564003,97.0351231 111.114643,95.622803 C111.187443,95.127763 111.252963,94.632723 111.303923,94.166803 C111.303923,93.955683 111.303923,93.4388029 111.420404,93.2859229 L111.420404,93.2859229 C111.667924,93.0311229 112.228484,93.1403229 112.570644,93.0529629 C113.043854,92.9273879 113.488657,92.7124001 113.881044,92.4196029 C114.593558,91.841801 115.240499,91.1875366 115.810244,90.4685628 C117.073999,88.9925244 118.568827,87.7312637 120.236484,86.7339227 C121.270244,86.1515227 122.762644,85.3216027 123.971124,85.5254427 C124.953924,85.7001627 125.929444,85.9112827 126.883124,86.1224027 C129.309301,86.5625319 131.695395,87.200447 134.017524,88.0297628 C137.992404,88.5830428 145.549045,88.5830428 146.459045,89.6750428 C147.369045,90.7670429 148.380965,92.2594429 146.874005,94.210483 Z" id="Path" fill="#E11F29"></path>
                    <path d="M97.5520031,110.910803 L86.9741627,85.9040027 L86.3990427,84.5499227 L55.4663217,85.0231227 L55.0004017,85.0231227 L55.5536817,85.0231227 C60.4240019,83.3196026 79.2282425,89.2236828 81.9873626,90.2792828 C84.0548826,91.0655229 85.4235227,91.5460029 86.2534427,92.8491229 L86.2534427,92.8928029 L97.5520031,110.910803 Z" id="Path" fill="#444345"></path>
                    <path d="M86.3990427,84.5790427 C84.4916827,84.8848027 81.3540026,87.0251227 77.6630424,86.8431227 C72.8000023,87.3381627 58.1016818,86.7339227 55.0076817,85.0595227 C55.0076817,85.0595227 45.8130414,74.7801624 57.7376818,61.5888019 C65.8330421,59.5868019 72.8436823,58.0361618 75.9376824,60.0381619 C76.5710424,59.9799219 88.0079228,57.7668018 95.833923,64.260562 C95.833923,64.260562 87.3454427,61.7708019 82.1256826,72.8145623 C81.2313543,74.6888218 80.6673628,76.7034287 80.4585625,78.7696025 C80.1600825,81.5360026 80.6696825,84.3533627 86.3990427,84.5790427 Z" id="Path" fill="#29292A"></path>
                    <polygon id="Path" fill="#02896F" points="56.9514418 85.0595227 56.9514418 85.0595227 57.4246418 85.0595227"></polygon>
                    <path d="M68.9197622,105.880323 C68.0206746,104.390759 66.7961779,103.123952 65.3380021,102.174803 C56.0414418,96.088723 58.7860018,84.5790427 58.7860018,84.5790427 C58.7860018,84.5790427 52.2340016,79.1263225 52.6562417,73.7318423 C52.8248027,70.4000752 53.8259906,67.1637354 55.5682417,64.318802 C53.5031383,66.9963011 52.1866406,70.1744875 51.7535216,73.5280023 C51.2463403,77.6131518 52.3945287,81.7314255 54.9421617,84.9648827 C54.9421617,84.9648827 55.0004017,85.0231227 55.0004017,85.0376827 C55.0004017,85.0522427 53.0784817,95.149603 64.384322,101.628803 C65.8933887,102.49031 67.1876536,103.682527 68.1699221,105.115923 C68.8979222,106.186083 69.7715222,107.489203 70.7179222,108.894243 L68.9197622,105.880323 Z" id="Path" fill="#444345"></path>
                    <path d="M84.1640826,69.2983222 C89.2600828,62.353202 95.812083,64.260562 95.812083,64.260562 C95.0421015,63.6233906 94.2188689,63.0534604 93.3514429,62.557042 C90.7233629,62.899202 87.0979227,64.377042 84.1640826,69.2983222 Z" id="Path" fill="#444345"></path>
                    <path d="M148.089765,60.8826419 C151.300245,59.4848819 154.947525,59.6814419 158.434645,59.9071219 C159.213605,59.9580819 159.584885,60.2638419 158.973365,60.9263219 C158.391524,61.5175071 157.6162,61.8793248 156.789365,61.9455219 C155.704645,62.054722 153.877365,61.6980019 152.778085,61.8072019 C151.271125,61.9673619 149.320085,63.882002 148.490165,64.602722" id="Path" fill="#FAA489"></path>
                    <path d="M147.332645,63.241362 C150.543125,61.8363219 154.183125,62.040162 157.677525,62.265842 C158.456485,62.316802 158.827765,62.622562 158.216245,63.285042 C157.635614,63.8768415 156.859117,64.2366184 156.032245,64.296962 C154.947525,64.413442 153.120245,64.056722 152.013685,64.165922 C150.506725,64.326082 148.562965,66.2407221 147.733045,66.9541621" id="Path" fill="#FAA489"></path>
                    <path d="M158.187125,58.0725618 C158.171026,58.2654719 158.100322,58.4498079 157.983285,58.6040018 C157.779417,58.8825915 157.533875,59.1281343 157.255285,59.3320019 L157.197045,59.3320019 C155.962551,60.0171356 154.544912,60.2996453 153.142085,60.1400819 C152.879179,60.1059615 152.612147,60.1232691 152.355845,60.1910419 C152.109386,60.2868269 151.884257,60.4303158 151.693365,60.6132819 C151.214446,60.8867995 150.683933,61.0578528 150.135445,61.1156019 C148.842172,61.3025236 147.539432,61.4167564 146.233365,61.4577619 L146.109605,61.4577619 L146.204245,61.3849619 L147.288965,60.5332019 L147.427285,60.4312819 C148.223231,59.7954952 149.016751,59.1694152 149.807845,58.5530418 C150.061603,58.3297931 150.352289,58.1524252 150.666885,58.0288818 C150.87265,57.9816611 151.082133,57.9524309 151.292965,57.9415218 L156.388965,57.6212018 L157.626565,57.6212018 C157.78815,57.6078729 157.949561,57.6488662 158.085205,57.7376818 C158.178029,57.8221657 158.217145,57.9506908 158.187125,58.0725618 Z" id="Path" fill="#F0947C"></path>
                    <path d="M158.187125,58.0725618 C158.19568,58.3209902 158.10384,58.5623986 157.932325,58.7423218 C157.719821,58.9775315 157.474654,59.18102 157.204325,59.3465619 L157.146085,59.3465619 C155.829166,59.9724053 154.343277,60.1488706 152.916405,59.8488819 C152.656483,59.801319 152.390087,59.801319 152.130165,59.8488819 C151.865846,59.9209602 151.618419,60.0446736 151.402165,60.2128819 L150.099045,61.1520019 L148.643045,62.178482 L146.954085,63.336002 L146.801205,62.957442 L146.196965,61.5014419 L146.196965,61.4286419 L145.832965,60.5623219 L147.056005,59.7542419 L147.201605,59.6596019 L149.742325,58.0070418 C150.015189,57.807764 150.320653,57.6574952 150.645045,57.5629618 C150.855604,57.5411932 151.067846,57.5411932 151.278405,57.5629618 L156.374405,57.7012818 L157.612005,57.7012818 C157.77359,57.687953 157.935001,57.7289462 158.070645,57.8177618 C158.144058,57.8821783 158.186443,57.9748969 158.187125,58.0725618 Z" id="Path" fill="#FAA489"></path>
                    <path d="M157.037086,65.185122 C156.964085,65.9131221 156.075925,66.2771221 155.333365,66.4154421 C154.419335,66.5819798 153.495096,66.6865647 152.566965,66.7284821 C151.684611,66.7026001 150.803431,66.8105999 149.953445,67.0488021 C148.431686,67.621043 147.072345,68.5555894 145.993125,69.7715222 C144.893845,70.9945622 144.005685,71.9555223 142.389524,72.2540023 C140.728043,72.5243232 139.023957,72.3173083 137.475524,71.6570423 L136.864004,70.4995222 C136.758456,69.7654865 137.032598,69.0280427 137.592004,68.5412022 C137.867852,68.255343 138.162107,67.9878383 138.472884,67.7404021 C140.079824,66.388966 141.426822,64.7557928 142.447764,62.921042 C142.851601,62.0586578 143.360181,61.2493308 143.962005,60.5113619 C144.584669,59.7623308 145.5546,59.3948069 146.517285,59.5431219 C146.701824,59.5861145 146.878624,59.6573257 147.041445,59.7542419 L147.085125,59.7542419 C147.825187,60.2758271 148.344301,61.0544981 148.541125,61.9382419 C148.541125,62.0037619 148.577525,62.083842 148.599365,62.178482 C148.730405,62.964722 148.803205,64.508082 149.283685,64.893922 C149.764165,65.2797621 151.023605,64.631842 151.671525,64.566322 C152.152005,64.529922 157.073285,64.792002 157.037086,65.185122 Z" id="Path" fill="#FAA489"></path>
                    <path d="M13.1768004,29.3165609 L13.1768004,29.4184809 L13.1258404,32.330481 L7.80416025,31.071041 C7.55219631,30.9938906 7.28759085,30.9666881 7.02520022,30.990961 C6.76556805,31.0465224 6.51864247,31.1502312 6.2972002,31.296721 C4.74656015,32.184881 2.81736009,32.883761 1.20120004,32.068401 C0.895440028,31.915521 0.575120018,31.566081 0.742560023,31.267601 C0.837000345,31.1383566 0.969295354,31.0416794 1.12112004,30.990961 L2.44608008,30.423121 L6.93784022,28.5084809 C7.12792119,28.4168132 7.32835127,28.3483737 7.53480024,28.3046409 C7.87170086,28.2657146 8.21296021,28.2929165 8.53944027,28.3847209 L13.1768004,29.3165609 Z" id="Path" fill="#FAA489"></path>
                    <path d="M12.5143204,32.068401 L12.5143204,32.148481 L12.4706404,34.4271211 L8.29192026,33.4443211 C8.0937828,33.3854505 7.88608832,33.3656701 7.68040024,33.386081 C7.47569895,33.4305832 7.28081301,33.5119913 7.10528022,33.6263211 C5.88952019,34.3252011 4.36800014,34.8712011 3.1304001,34.2160011 C2.89016009,34.0995211 2.63536008,33.8228811 2.76640009,33.5899211 C2.84061997,33.4877126 2.94500465,33.4113336 3.0648801,33.371521 L4.10592013,32.927441 L7.63672024,31.420481 C7.78425487,31.3467108 7.94093023,31.2928537 8.10264025,31.260321 C8.36649145,31.2311224 8.63350127,31.2533733 8.88888028,31.325841 L12.5143204,32.068401 Z" id="Path" fill="#FAA489"></path>
                    <path d="M24.5700008,33.298721 C24.3952808,32.177601 23.0776007,31.718961 22.0001607,31.362241 C20.0084378,30.7114824 18.151144,29.70514 16.5183205,28.3920009 C15.8188012,27.7415153 15.0440551,27.1769527 14.2105604,26.7103208 C13.3530174,26.2508788 12.3177293,26.2729649 11.4805604,26.7685608 C10.5851203,27.4019209 10.3812803,28.6613609 10.4977603,29.7533609 C10.5778403,30.423121 11.2257604,32.170321 10.9127203,32.774561 C10.6360803,33.269601 9.20192029,33.174961 8.57584027,33.356961 C8.10264025,33.4880011 3.64000011,35.5409611 3.83656012,35.9049611 C4.17872013,36.5747211 5.13240016,36.5674411 5.86768018,36.4145611 C6.77888689,36.2343464 7.67648442,35.9910951 8.55400027,35.6865611 C9.36456112,35.3343394 10.2235125,35.1061037 11.1020003,35.0095211 C12.7269821,34.9786634 14.3353711,35.3408007 15.7903205,36.0651211 C17.2463205,36.7931212 18.4475206,37.3391212 20.0636806,37.0333612 C21.7168186,36.6681613 23.2318511,35.8399436 24.4316808,34.6455211" id="Path" fill="#FAA489"></path>
                    <path d="M13.4534404,26.4555208 L8.84520028,25.5164008 C8.51751986,25.4315199 8.17754929,25.4044208 7.84056025,25.4363208 C7.6350494,25.483404 7.43498813,25.5517176 7.24360023,25.6401608 L1.45600005,28.1299209 C1.29416248,28.1681549 1.15029225,28.260643 1.04832003,28.3920009 C0.880880028,28.6977609 1.19392004,29.0399209 1.50696005,29.2000809 C3.0940001,30.0081609 5.02320016,29.3165609 6.60296021,28.4284009 C6.82496794,28.2813841 7.07153504,28.1753603 7.33096023,28.1153609 C7.5933176,28.0949072 7.85721185,28.1220365 8.10992025,28.1954409 L13.4316004,29.4476009" id="Path" fill="#FAA489"></path>
                    <path d="M89.4566428,54.3670417 C90.7160829,54.5053617 90.0972828,51.3968016 90.0972828,51.3968016 C90.0972828,51.3968016 89.3692828,51.8190416 87.2726427,51.6370416 C83.7200026,50.9090416 73.4406423,42.0565613 73.4406423,42.0565613 C73.4406423,42.0565613 83.7200026,53.7336817 89.4566428,54.3670417 Z" id="Path" fill="#C80010" opacity="0.25" style="mix-blend-mode: multiply;"></path>
                    <path d="M11.5169604,23.2523207 C14.2906404,24.9922408 18.4693606,27.9333609 21.1702407,29.8043209 C21.9281068,30.4329877 22.5731495,31.1863581 23.0776007,32.032001 C20.1656006,34.1577611 17.5156806,33.7719211 15.8922405,32.599841 C14.3325244,31.4678032 13.2853283,29.7634916 12.9802404,27.8605609 C12.9802404,27.8605609 12.9802404,27.8605609 12.9802404,27.8605609 C12.9802404,27.8605609 12.9802404,27.6712809 12.9438404,27.5766409 C12.9362252,27.2705906 12.861679,26.969921 12.7254404,26.6957608 L12.6599204,26.6084008 C12.5143089,26.4387024 12.3422226,26.2936582 12.1503204,26.1788808 C11.6552804,25.8512808 11.0000803,25.4508808 10.3885603,25.1087208 L10.3885603,25.1087208 C10.0172803,24.8830408 9.6605603,24.6573608 9.36936029,24.4389608 C8.52659873,23.9049078 8.24845889,22.8051365 8.73600027,21.9346407 L11.5169604,23.2523207 Z" id="Path" fill="#F0947C"></path>
                    <path d="M26.4264008,30.444961 C24.5481608,30.444961 22.8300807,29.4767209 21.1920807,28.5740009 C16.8896005,26.2080008 9.00536028,21.6216007 8.09536025,21.8400007 C7.62796867,22.7631362 7.9918341,23.8904693 8.91072028,24.3661608 C9.74064031,24.8684808 11.0219203,25.3999208 11.8736804,25.8585608 C12.1112506,25.963928 12.322567,26.1205506 12.4924804,26.3172008 C12.652607,26.5781489 12.7521196,26.8717111 12.7836804,27.1762409 C13.2001131,29.1683971 14.4386119,30.8919911 16.1938666,31.9221288 C17.9491213,32.9522664 20.0578297,33.1931076 22.0001607,32.585281 L26.4264008,30.444961 Z" id="Path" fill="#FAA489"></path>
                    <path d="M147.208885,59.6960019 C147.171129,59.7313487 147.136987,59.770368 147.106965,59.8124819 C147.034929,59.9058743 146.976134,60.0087659 146.932245,60.1182419 C146.854513,60.4153836 146.842095,60.7258409 146.895845,61.0282419 C147.077098,63.054747 146.395113,65.0636957 145.017605,66.5610421 C143.635196,68.0516437 141.692481,68.8963025 139.659524,68.8906704 L137.592004,68.5412022 C137.867852,68.255343 138.162107,67.9878383 138.472884,67.7404021 C140.079824,66.388966 141.426822,64.7557928 142.447764,62.921042 C142.851601,62.0586578 143.360181,61.2493308 143.962005,60.5113619 C144.584669,59.7623308 145.5546,59.3948069 146.517285,59.5431219 C146.701824,59.5861145 146.878624,59.6573257 147.041445,59.7542419 L147.208885,59.6960019 Z" id="Path" fill="#F0947C"></path>
                    <path d="M134.359684,68.1116821 C136.143284,67.5438421 137.511924,66.1388021 138.822324,64.792002 C142.243924,61.2684819 148.446485,54.6000017 149.378325,54.5199217 C149.725131,54.8779624 149.915391,55.3591765 149.907198,55.8575746 C149.899005,56.3559726 149.693032,56.8306734 149.334645,57.1771218 C148.686725,57.9051218 147.616565,58.7787218 146.932245,59.4630419 C146.740413,59.6356912 146.586688,59.8464428 146.480885,60.0818419 C146.399517,60.3784309 146.387067,60.6897015 146.444485,60.9918419 C146.627293,63.0185927 145.94565,65.0282905 144.567554,66.5256179 C143.189458,68.0229454 141.243092,68.8686303 139.208164,68.8542422" id="Path" fill="#FAA489"></path>
                    <path d="M112.672564,7.94976025 C112.672564,7.81872025 112.672564,7.70224024 112.672564,7.57848024 C112.676152,7.55434621 112.676152,7.52981427 112.672564,7.50568024 L112.672564,7.38920023 L112.628884,6.95968022 L112.585204,6.73400021 C112.542018,6.44422692 112.481239,6.15735007 112.403204,5.87496018 L112.315844,5.53280017 C112.353645,6.2114669 111.968374,6.84296275 111.347604,7.11984022 L111.303923,7.11984022 C110.728803,4.32432014 108.726803,-0.793520025 103.295923,1.65256005 C102.429603,0.837200026 100.951763,0.677040021 99.8379231,0.728000023 C97.4878187,0.714162759 95.2038323,1.50546511 93.3660029,2.97024009 C92.4511907,3.66159726 91.6376456,4.47759277 90.9490429,5.39448017 C90.5122428,6.02784019 89.6677628,7.19264023 90.1336828,7.88424025 C90.3666428,8.23368026 91.5023229,8.00072025 91.8736029,7.98616025 C92.5962004,7.92556316 93.3234098,8.019877 94.006643,8.26280026 C95.047683,8.69960027 95.761123,9.71880031 96.780323,10.1774403 C98.3992406,11.0432722 100.108089,11.7292526 101.876323,12.2231204 C103.525287,12.6154193 105.220692,12.7771198 106.914083,12.7036004 C107.828921,12.7790016 108.749068,12.6496837 109.607683,12.3250404 C110.313401,12.1387651 110.959889,11.7754288 111.485924,11.2694404 C111.993692,10.7235084 112.347853,10.0528621 112.512404,9.32568029 C112.62446,8.87578554 112.678287,8.41336478 112.672564,7.94976025 Z" id="Path" fill="#050505"></path>
                    <path d="M145.701925,95.622803 C144.093045,97.2899231 141.195604,98.9497631 133.449684,98.8114431 C129.263684,98.2072031 124.844724,95.535443 120.484004,100.900803 C119.730254,101.807652 118.712253,102.456627 117.572004,102.757203 C114.842004,103.485203 110.961763,103.856483 110.292003,100.442163 C109.85841,99.4714293 110.022791,98.3377652 110.714243,97.5301631 C111.330874,96.7643417 112.136242,96.1722327 113.051124,95.812083 C114.695827,95.2533929 116.469294,95.1951219 118.147124,95.644643 C119.938004,95.688323 122.442324,94.552643 123.832804,93.912003 C124.480724,93.6208029 128.739524,91.6406429 131.185604,90.8180029 C132.382086,90.7131749 133.585443,90.7131749 134.781924,90.8180029 C134.781924,90.8180029 140.918964,89.2455228 144.427925,91.0655229 C145.541765,91.5678429 147.543765,92.6671229 145.701925,95.622803 Z" id="Path" fill="#AE0714"></path>
                    <path d="M68.6504022,40.9281613 C66.9760021,42.9520014 60.0964019,42.3332013 60.0964019,42.3332013 C60.0964019,42.3332013 65.4108021,30.284801 56.4564018,29.2292009 C57.8323637,28.1616779 59.3613452,27.307608 60.9918419,26.6957608 C63.940242,27.5766409 71.1183222,31.253041 68.6504022,40.9281613 Z" id="Path" fill="#C80010"></path>
                </g>
                <g id="Asset-1" transform="translate(119.000000, 94.000000)" fill-rule="nonzero">
                    <path d="M49.0423997,78.3199996 C49.0423997,78.3199996 30.7295998,74.1223996 29.1543998,78.9975996 C27.5791999,83.8727995 26.9719999,93.5615995 31.5567998,94.5383995 C36.1415998,95.5151995 47.8455997,94.6087995 50.7671997,91.1591995 C53.6887997,87.7095995 54.5599997,79.3583996 49.0423997,78.3199996 Z" id="Path" fill="#FFFFFF"></path>
                    <path d="M50.3711997,62.1103997 C50.3711997,62.1103997 49.1567997,62.3919997 47.2735997,56.8831997 C45.3903998,51.3743997 47.1415997,45.2231998 49.4911997,47.0007997 C51.8407997,48.7783997 53.5831997,62.9727997 50.3711997,62.1103997 Z" id="Path" fill="#3D3D3D"></path>
                    <path d="M128.911199,150.171999 C128.911199,154.079199 124.255999,161.735199 120.049599,167.138399 C115.843199,172.541599 115.649599,174.899999 115.279999,175.243199 C114.873542,175.608122 114.427888,175.926869 113.951199,176.193599 C104.992799,181.095199 89.7335995,162.236799 92.8839995,154.527999 C96.1839995,146.423199 105.203999,122.399199 118.553599,114.144799 C125.179999,110.052799 130.407199,110.422399 134.059199,113.528799 C137.711199,116.635199 139.867199,122.645599 140.166399,129.606399 C140.799999,143.439999 128.911199,146.273599 128.911199,150.171999 Z" id="Path" fill="#FF4D53"></path>
                    <path d="M110.598399,146.123999 C104.526399,154.501599 96.1575995,161.303999 90.1295995,166.997599 C84.9727995,171.863999 81.5319996,175.920799 82.6671996,179.449599 C85.1487995,187.105599 92.3471995,222.006399 90.7807995,224.936799 C89.2143995,227.867199 77.5807996,227.409599 77.5807996,227.409599 C77.5807996,227.409599 59.4527997,174.723999 59.4527997,168.194399 C59.4527997,163.011199 82.2535996,136.725599 91.6871995,126.068799 L91.6871995,126.068799 C92.3266662,125.341333 92.9133328,124.690133 93.4471995,124.115199 C94.8727995,122.504799 95.7175995,121.571999 95.7175995,121.571999 C95.7175995,121.571999 116.406399,115.623199 120.480799,116.617599 L120.718399,116.696799 C124.467199,118.131199 121.633599,130.891199 110.598399,146.123999 Z" id="Path" fill="#FF4D53"></path>
                    <path d="M133.003199,112.736799 L120.735999,116.696799 L99.9151995,123.428799 L99.5543995,123.543199 L91.7223995,126.068799 L91.7223995,126.068799 C91.7223995,126.068799 79.0679996,115.191999 70.0567996,113.247199 C67.6807996,112.727999 65.3575996,111.099999 63.2631997,108.847199 C57.4199997,102.484799 53.3895997,91.1239995 55.0439997,85.0871995 C57.3055997,76.8327996 67.9711996,52.9671997 67.9711996,52.9671997 L68.9303996,53.6359997 C68.9303996,53.6359997 69.6255996,53.3455997 75.4599996,56.6455997 C75.8559996,56.8655997 76.2695996,57.0943997 76.7007996,57.3583997 C83.6791995,61.4063997 103.162399,85.2807995 103.725599,86.1783995 C104.288799,87.0759995 128.039999,108.363199 132.334399,112.208799 L132.994399,112.798399 L133.003199,112.736799 Z" id="Path" fill="#FF4D53"></path>
                    <path d="M94.4151995,233.076799 C94.4160378,233.481788 94.3258131,233.881785 94.1511995,234.247199 C93.2711995,235.751999 87.6215995,234.317599 84.6207995,234.695999 L84.6207995,234.695999 C84.1367995,234.880799 82.6231996,235.320799 78.8479996,236.271199 C67.8215996,239.051999 62.0399997,235.443999 62.0399997,235.443999 C61.9641683,234.960974 61.9435022,234.470893 61.9783997,233.983199 C62.3567997,229.213599 68.7719996,229.143199 72.5383996,228.386399 C76.6655996,227.567999 77.4927996,225.983999 77.4927996,225.983999 L78.1879996,226.063199 C78.1879996,226.063199 88.2287995,222.912799 90.9391995,224.303199 C93.2007995,225.491199 94.5559995,230.559999 94.4151995,233.076799 Z" id="Path" fill="#333434"></path>
                    <path d="M43.4895998,111.135199 C43.0407998,110.879999 -1.24959999,2.75439999 1.60159999,2.14719999 C4.45279998,1.53999999 10.3135999,-1.15279999 17.2127999,8.45679995 C24.1119999,18.0663999 43.4895998,104.535199 43.4895998,104.535199 L43.4895998,111.135199 Z" id="Path" fill="#FAD680"></path>
                    <path d="M51.2159997,95.5327995 C51.2159997,95.5327995 47.5199997,101.199999 45.0119998,101.833599 L37.8575998,98.3135995 C37.8575998,98.3135995 34.1087998,103.716799 36.0535998,107.993599 C36.0535998,107.993599 48.9719997,119.257599 51.6735997,118.553599 C54.3751997,117.849599 61.5031997,106.691199 61.5031997,106.691199 L51.2159997,95.5327995 Z" id="Path" fill="#FFC39E"></path>
                    <path d="M27.9927998,93.8255995 C27.9927998,93.8255995 23.7863999,103.619999 24.8511999,105.265599 C25.9159999,106.911199 31.2751998,110.219999 34.4255998,110.615999 C35.9151139,110.88841 37.4416857,110.88841 38.9311998,110.615999 C38.9311998,110.615999 37.7607998,102.695999 41.8615998,100.302399 C41.8615998,100.302399 43.5423998,96.9935995 42.9791998,95.2423995 C42.4159998,93.4911995 41.0695998,94.9431995 41.0695998,94.9431995 C41.0695998,94.9431995 38.8167998,96.0343995 37.1271998,94.8551995 C35.4375998,93.6759995 29.0399998,91.2119995 27.9927998,93.8255995 Z" id="Path" fill="#FFFFFF"></path>
                    <path d="M47.6695997,50.8199997 C47.6695997,50.8199997 48.4439997,51.1543997 49.8695997,56.5575997 C51.2951997,61.9607997 52.1751997,65.1199996 55.4399997,68.0767996 C58.7047997,71.0335996 61.5999997,73.1807996 65.2783996,69.1327996 C68.9567996,65.0847996 71.5791996,58.8719997 71.1655996,54.7711997 C70.9587071,52.5098021 70.5911116,50.2659989 70.0655996,48.0567997 L47.6695997,50.8199997 Z" id="Path" fill="#FFC39E"></path>
                    <path d="M60.3239997,74.0607996 L54.2343997,81.7167996 C48.1447997,89.3727995 52.1047997,88.1935995 50.0367997,89.4871995 C47.3263997,91.1767995 48.7783997,91.0095995 48.1007997,92.1271995 C47.4231997,93.2447995 45.0119998,94.3183995 45.0119998,94.3183995 C45.0119998,94.3183995 51.5415997,108.231199 60.2623997,111.126399 C63.9827312,108.080751 66.9491888,104.216827 68.9303996,99.8359995 C72.2039996,92.5759995 71.3855996,75.5655996 62.1807997,74.5007996" id="Path" fill="#FF4D53"></path>
                    <path d="M110.932799,122.029599 C110.932799,122.029599 100.372799,125.971999 96.5183995,131.031999 C96.1406684,131.530244 95.7882236,132.047163 95.4623995,132.580799 L95.4623995,132.580799 C92.7607995,136.980799 92.9015995,140.711999 91.3263995,143.017599 C90.1031995,144.777599 90.2615995,158.109599 90.1471995,166.988799 C84.9903995,171.846399 81.5495996,175.903199 82.6847996,179.431999 C85.1663995,187.087999 92.3647995,221.988799 90.7983995,224.919199 C90.4487982,225.458724 89.9328783,225.869606 89.3287995,226.089599 C85.7559995,227.717599 77.6247996,227.400799 77.6247996,227.400799 C77.6247996,227.400799 59.4967997,174.706399 59.4967997,168.176799 C59.4967997,167.015199 60.6495997,164.788799 62.5327997,161.911199 L62.6031997,161.796799 C66.9151996,155.267199 74.9759996,145.463999 82.0599996,137.156799 L82.4471996,136.707999 L82.4471996,136.707999 C85.9671995,132.545599 89.3111995,128.787999 91.7311995,126.051199 C91.7311995,126.051199 91.0095995,125.426399 89.7775995,124.449599 L89.4079995,124.159199 L89.4079995,124.159199 C85.3247995,120.938399 76.7183996,114.672799 70.0479996,113.238399 C67.6719996,112.719199 65.3487996,111.091199 63.2543997,108.838399 C66.4663996,106.048799 71.1743996,100.988799 71.5175996,94.9431995 C72.0807996,85.6767995 71.9663996,94.9431995 71.9663996,94.9431995 C71.9663996,94.9431995 68.0239996,105.899199 70.2767996,107.051999 C72.5295996,108.204799 80.1855996,103.575999 80.9775996,104.139199 C81.7695996,104.702399 73.0575996,111.126399 76.4719996,112.472799 C79.8863996,113.819199 83.0015996,120.691999 89.1879995,115.737599 C95.3743995,110.783199 95.1631995,112.701599 95.1631995,112.701599 C95.1631995,112.701599 88.5191995,116.529599 89.7511995,119.908799 C90.4815995,121.879999 91.3879995,123.551999 93.4559995,124.132799 C94.8463995,124.519999 96.7735995,124.405599 99.5455995,123.560799 L99.9063995,123.446399 C107.060799,121.114399 110.932799,122.029599 110.932799,122.029599 Z" id="Path" fill="#FF3C43"></path>
                    <path d="M76.9295996,227.444799 C76.1375996,226.450399 61.5999997,198.131999 60.7199997,195.650399 L60.7199997,195.650399 C60.6055997,195.650399 59.8399997,195.817599 58.0799997,193.740799 L58.0271997,193.670399 C56.8462609,192.184737 55.9511219,190.492924 55.3871997,188.680799 C55.1407997,188.073599 54.8679997,187.404799 54.5071997,186.647999 L54.3399997,186.287199 C53.0815997,183.523999 53.1959997,184.351199 54.1111997,178.983199 C54.1111997,178.877599 54.1111997,178.763199 54.1727997,178.648799 C54.2687813,178.087156 54.3275758,177.519789 54.3487997,176.950399 C54.5951997,171.907999 52.1399997,168.379199 54.1727997,165.026399 C56.4167997,161.312799 61.4855997,166.381599 61.4855997,166.381599 C63.4567997,167.551999 64.5655997,170.288799 66.4663996,174.301599 L66.9855996,175.392799 C67.6807996,176.827199 68.4903996,178.402399 69.4671996,180.100799 L69.8191996,180.716799 L70.1095996,181.227199 C70.8751996,182.591199 71.6759996,184.307199 72.5207996,186.260799 C72.7671996,186.850399 73.0223996,187.457599 73.2775996,188.082399 C78.9447996,202.047999 85.5271995,225.499999 85.9231995,226.617599 C86.2927995,227.919999 77.7127996,228.430399 76.9295996,227.444799 Z" id="Path" fill="#E11F29"></path>
                    <path d="M67.5311996,49.1567997 C67.5311996,49.1567997 69.0711996,53.1167997 69.5199996,53.2311997 C69.9687996,53.3455997 70.1623996,52.6679997 70.1623996,52.6679997 C70.1623996,52.6679997 69.9863996,49.5175997 70.2943996,49.3327997 C70.9136961,48.529522 70.8223266,47.3874036 70.0831996,46.6927997 C69.0711996,45.6015998 67.5311996,49.0159997 67.5311996,49.0159997" id="Path" fill="#030106"></path>
                    <path d="M71.2799996,42.4511998 L45.7599998,50.3359997 C45.7599998,50.3359997 39.3007998,33.6159998 52.0607997,30.4479998 C53.8993539,29.976251 55.7957392,29.7688339 57.6927997,29.8319998 C65.6831996,30.1839998 69.7399996,36.4143998 71.2095996,42.4511998 C71.3855996,43.0583998 71.1391996,41.8615998 71.2799996,42.4511998 Z" id="Path" fill="#FF4D53"></path>
                    <path d="M70.6903996,46.8687997 C71.1787925,45.193474 71.2632328,43.4262592 70.9367996,41.7119998 L46.1471997,48.8399997 L45.3463998,49.0335997 C45.3463998,49.0335997 41.5975998,54.2607997 44.1495998,54.4103997 C46.7015997,54.5599997 69.6695996,51.2071997 70.6903996,46.8687997 Z" id="Path" fill="#FF4D53"></path>
                    <path d="M71.2799996,42.4511998 C65.6391996,47.2207997 46.6399997,49.3415997 45.8215998,49.1391997 C45.0031998,48.9367997 44.8447998,48.1271997 51.6559997,47.3087997 C58.4671997,46.4903997 61.6439997,45.4255998 63.5007997,42.9087998 C67.7247996,37.1095998 60.6935997,31.6183998 57.7631997,29.8671998 C65.7095996,30.1839998 69.7663996,36.4143998 71.2799996,42.4511998 Z" id="Path" fill="#FF3C43"></path>
                    <path d="M70.2151996,49.4911997 C70.2151996,49.4911997 70.1623996,47.6255997 71.8519996,48.0655997 C73.5415996,48.5055997 73.1719996,54.0671997 72.1863996,54.6919997 C71.2007996,55.3167997 71.1127996,55.1759997 71.1127996,55.1759997 L70.2151996,49.4911997 Z" id="Path" fill="#FFC39E"></path>
                    <path d="M48.1623997,59.4351997 C47.5961547,59.4986715 47.03283,59.2935302 46.6399997,58.8807997 C46.3873289,58.445528 46.4293305,57.8995067 46.7455997,57.5079997 C47.6871997,55.9063997 49.0159997,53.8823997 49.0247997,53.8647997 L49.3239997,54.6391997 C49.1127997,55.0615997 48.4439997,56.3375997 47.5639997,57.9655997 C47.4055997,58.2295997 47.4143997,58.3527997 47.4319997,58.3703997 C47.5375997,58.5287997 48.2415997,58.5815997 48.8487997,58.4847997 C56.1175997,57.6047997 68.0591996,55.6775997 69.2295996,53.9615997 C70.2591996,52.4567997 70.8487996,49.8959997 70.8751996,46.7367997 L70.8751996,46.6399997 L71.7551996,46.6399997 L71.7551996,46.7103997 C71.7551996,50.0455997 71.0863996,52.7911997 69.9951996,54.4367997 C68.2351996,57.0767997 50.9519997,59.1095997 48.9895997,59.3383997 C48.7172454,59.3949034 48.4404413,59.4272953 48.1623997,59.4351997 Z" id="Path" fill="#5D5D5D"></path>
                    <path d="M49.7991997,65.2959996 C49.2582658,65.3509561 48.7222996,65.152811 48.3471997,64.7591996 C48.1036958,64.3414482 48.1421584,63.8169591 48.4439997,63.4391997 C49.3239997,61.9343997 50.7407997,59.8047997 50.7495997,59.7871997 L51.0399997,60.7199997 C51.0399997,60.7199997 50.1599997,62.3743997 49.2271997,63.9055997 C49.1039997,64.1255997 49.0951997,64.2399997 49.1039997,64.2663997 C49.5220156,64.4280837 49.9793275,64.4587758 50.4151997,64.3543997 C57.2527997,63.5623997 68.4815996,61.7143997 69.5815996,60.1127997 C70.5495996,58.7047997 71.0951996,56.2935997 71.1303996,53.3191997 L71.1303996,53.2575997 L72.0103996,53.2575997 L72.0103996,53.3191997 C72.0103996,56.5135997 71.3855996,59.0303997 70.3031996,60.6143997 C68.6135996,63.0783997 52.3687997,65.0143996 50.5207997,65.2343996 C50.2824679,65.2755105 50.0410512,65.2961192 49.7991997,65.2959996 Z" id="Path" fill="#5D5D5D"></path>
                    <path d="M66.8799996,175.366399 C61.5999997,175.867999 54.0055997,178.991999 54.0055997,178.991999 L54.0055997,178.991999 C54.0055997,178.886399 54.0055997,178.771999 54.0671997,178.657599 C54.1631813,178.095956 54.2219758,177.528589 54.2431997,176.959199 C58.0941658,175.34734 62.1990946,174.426859 66.3695996,174.239999 L66.8799996,175.366399 Z" id="Path" fill="#AE1D22"></path>
                    <path d="M70.0127996,181.200799 C66.7831996,182.582399 59.5055997,185.811999 55.2727997,188.689599 C55.0263997,188.082399 54.7535997,187.413599 54.3927997,186.656799 L54.2255997,186.295999 C58.9088117,183.438283 64.0141662,181.338524 69.3527996,180.074399 L69.7047996,180.690399 L70.0127996,181.200799 Z" id="Path" fill="#AE1D22"></path>
                    <path d="M73.1807996,188.055999 C72.3007996,188.469599 71.2095996,189.023999 69.9247996,189.719199 L68.7719996,190.361599 C65.9603106,191.941898 63.2557875,193.705718 60.6759997,195.641599 L60.6759997,195.641599 C60.5615997,195.641599 59.7959997,195.808799 58.0359997,193.731999 L57.9831997,193.661599 C61.1626094,191.57007 64.4788683,189.694385 67.9095996,188.047199 C68.2967996,187.871199 68.6927996,187.686399 69.0887996,187.519199 C70.2151996,187.026399 71.3415996,186.577599 72.4503996,186.216799 C72.6703996,186.823999 72.9255996,187.439999 73.1807996,188.055999 Z" id="Path" fill="#AE1D22"></path>
                    <path d="M61.9519997,193.538399 C61.9519997,193.538399 77.7919996,228.175199 78.6719996,227.911199 C79.5519996,227.647199 62.8319997,192.508799 62.8319997,192.508799 L61.9519997,193.538399 Z" id="Path" fill="#AE1D22"></path>
                    <path d="M65.0055996,191.602399 C65.0055996,191.602399 79.8071996,226.714399 80.6607996,226.467999 C81.5143996,226.221599 65.9383996,190.599199 65.9383996,190.599199 L65.0055996,191.602399 Z" id="Path" fill="#AE1D22"></path>
                    <path d="M80.8719996,219.691999 C80.2383996,219.850399 72.6879996,200.507999 68.7719996,190.361599 C68.4463996,189.525599 68.1471996,188.759999 67.8919996,188.064799 C68.2791996,187.888799 68.6751996,187.703999 69.0711996,187.536799 L69.9511996,189.719199 C73.9903996,200.111999 81.5055996,219.542399 80.8719996,219.691999 Z" id="Path" fill="#AE1D22"></path>
                    <path d="M62.9111997,174.838399 C62.7967997,174.750399 60.7727997,166.275999 59.4791997,167.006399 C58.1855997,167.736799 61.9519997,175.005599 61.9519997,175.005599 L62.9111997,174.838399 Z" id="Path" fill="#AE1D22"></path>
                    <path d="M59.2063997,175.797599 C59.0919997,175.683199 57.0679997,165.431199 55.7743997,166.319999 C54.4807997,167.208799 58.2471997,175.999999 58.2471997,175.999999 L59.2063997,175.797599 Z" id="Path" fill="#AE1D22"></path>
                    <path d="M89.9535995,124.167999 C89.9535995,124.167999 88.4223995,126.411999 89.0207995,127.432799 C89.6191995,128.453599 89.4255995,129.122399 85.8263995,130.697599 C82.2271996,132.272799 85.4743995,133.152799 82.4295996,136.734399 C79.3847996,140.315999 76.7623996,140.606399 72.8463996,146.229599 C68.9303996,151.852799 62.4799997,161.919999 62.4799997,161.919999 C62.4799997,161.919999 80.8719996,155.830399 83.5999995,151.430399 C86.3279995,147.030399 99.4927995,127.547199 89.4079995,124.150399 L89.9535995,124.167999 Z" id="Path" fill="#FF3C43"></path>
                    <path d="M72.2655996,57.1999997 C72.2655996,57.1999997 71.0159996,57.3495997 69.7575996,51.6559997 C68.4991996,45.9623998 70.9191996,40.0927998 73.0399996,42.1167998 C75.1607996,44.1407998 75.3543996,58.4319997 72.2655996,57.1999997 Z" id="Path" fill="#9C9C9C"></path>
                    <path d="M59.7607997,71.2799996 C57.1735997,69.7751996 56.2407997,65.4103996 56.0471997,64.8823996 L52.7999997,58.3879997 L53.5831997,57.9567997 L56.9095997,64.5303997 C56.9095997,64.5831997 58.3263997,69.7575996 60.6935997,71.1303996 L59.7607997,71.2799996 Z" id="Path" fill="#5D5D5D"></path>
                    <path d="M63.5623997,70.7695996 L62.8143997,70.7695996 C63.2543997,70.3119996 63.0959997,66.8975996 62.8143997,63.5535997 L62.8143997,56.6015997 L63.6943997,56.6015997 L63.6943997,63.5183997 C63.9143997,65.7095996 64.5655997,69.9335996 63.5623997,70.7695996 Z" id="Path" fill="#5D5D5D"></path>
                    <path d="M47.4671997,84.2687995 C47.4671997,84.2687995 34.5575998,85.2455995 33.2023998,83.0719995 C31.8471998,80.8983996 34.1615998,78.5751996 37.3999998,78.3199996 C40.6383998,78.0647996 47.4671997,78.0119996 47.4671997,78.0119996 C47.4671997,78.0119996 53.2487997,82.4647996 47.4671997,84.2687995 Z" id="Path" fill="#FFFFFF"></path>
                    <path d="M31.6799998,83.6967995 C31.6799998,83.6967995 39.5999998,84.4711995 40.2423998,86.0111995 C40.8847998,87.5511995 45.2671998,93.4647995 43.1111998,94.0191995 C40.9551998,94.5735995 33.5015998,94.1863995 31.6711998,91.9247995 C29.8407998,89.6631995 31.6799998,83.6967995 31.6799998,83.6967995 Z" id="Path" fill="#FFFFFF"></path>
                    <path d="M113.766399,200.393599 C113.167999,211.947999 113.968799,228.764799 113.968799,228.764799 C110.932799,232.478399 105.300799,223.247199 100.548799,225.948799 C95.7967995,228.650399 95.1367995,227.638399 95.1367995,227.638399 C95.1367995,227.638399 92.1271995,201.634399 91.7927995,194.083999 C91.4583995,186.533599 88.8007995,178.842399 88.2727995,176.994399 C88.2240992,176.814146 88.1623359,176.637679 88.0879995,176.466399 C87.8415995,175.876799 87.4543995,175.128799 87.2079995,174.706399 C87.1023995,174.503999 87.0231995,174.371999 87.0231995,174.371999 L86.6887995,173.694399 C85.9109226,172.282093 85.7424926,170.613682 86.2223995,169.074399 C86.2843225,168.882663 86.3638618,168.697071 86.4599995,168.519999 C86.4599995,168.519999 87.1375995,169.866399 86.1255995,167.393599 C86.0724416,167.267838 86.0283295,167.138442 85.9935995,167.006399 C85.2807995,164.595199 86.6183995,161.154399 86.6887995,160.978399 L86.6887995,160.978399 C86.6887995,160.520799 86.6887995,160.098399 86.6887995,159.623199 C86.4863995,148.491199 90.9391995,137.350399 102.194399,139.655999 C109.797599,141.213599 112.217599,148.983999 113.159199,158.276799 C113.107286,159.183622 113.184321,160.093223 113.387999,160.978399 C113.776356,161.906858 114.00257,162.895054 114.056799,163.899999 C114.161138,164.836684 114.037351,165.784709 113.695999,166.663199 C113.343999,167.208799 113.695999,167.974399 113.775199,168.616799 C114.056799,170.376799 114.540799,171.960799 113.977599,173.896799 C113.977599,173.896799 113.977599,173.993599 113.977599,174.037599 C113.977599,174.539199 114.030399,175.014399 114.047999,175.471999 C114.725599,188.566399 114.338399,189.261599 113.766399,200.393599 Z" id="Path" fill="#E11F29"></path>
                    <path d="M95.1895995,226.107199 C93.9177807,229.070221 94.2048368,232.472 95.9551995,235.179999 C98.4895995,239.289599 97.1695995,241.216799 98.2079995,242.615999 C99.0263995,243.715999 104.288799,244.305599 108.345599,243.179199 C112.402399,242.052799 113.625599,233.983199 112.569599,229.627199 C111.513599,225.271199 101.912799,219.911999 95.1895995,226.107199 Z" id="Path" fill="#333434"></path>
                    <path d="M113.379199,160.987199 C103.179999,156.103199 86.7239995,160.987199 86.7239995,160.987199 C86.7239995,160.529599 86.7239995,160.107199 86.7239995,159.631999 C96.7119995,156.270399 111.443199,157.766399 113.194399,158.285599 C113.238399,159.165599 113.317599,160.071999 113.379199,160.987199 Z" id="Path" fill="#AE1D22"></path>
                    <path d="M113.766399,168.625599 C108.389599,167.745599 96.2719995,165.651199 86.2575995,169.083199 C86.3195225,168.891463 86.3990618,168.705871 86.4951995,168.528799 C86.4951995,168.528799 87.1727995,169.875199 86.1607995,167.402399 C86.1076416,167.276638 86.0635295,167.147242 86.0287995,167.015199 C88.8183995,166.187999 98.5511995,163.891199 113.687199,166.671999 L113.766399,168.625599 Z" id="Path" fill="#AE1D22"></path>
                    <path d="M114.047999,175.471999 C105.389417,174.743896 96.6742761,175.077843 88.0967995,176.466399 C87.8503995,175.876799 87.4631995,175.128799 87.2167995,174.706399 C90.1383995,173.949599 99.1495995,172.154399 113.951199,174.028799 C114.003999,174.539199 114.030399,175.014399 114.047999,175.471999 Z" id="Path" fill="#AE1D22"></path>
                    <path d="M110.255199,174.838399 C110.255199,174.838399 111.777599,227.638399 110.571999,226.758399 C109.366399,225.878399 107.667999,174.574399 108.116799,174.345599 C108.584284,174.224496 109.074915,174.224496 109.542399,174.345599" id="Path" fill="#AE1D22"></path>
                    <path d="M104.887199,174.239999 C104.887199,174.239999 106.647199,222.727999 106.163199,223.159199 C105.679199,223.590399 101.639999,174.547999 102.291199,174.239999 C103.148757,174.075944 104.029642,174.075944 104.887199,174.239999 L104.887199,174.239999 Z" id="Path" fill="#AE1D22"></path>
                    <path d="M98.4103995,174.239999 C98.4103995,174.239999 100.759999,212.590399 100.302399,213.030399 C99.8447995,213.470399 95.1719995,174.547999 95.8143995,174.239999 C96.6719571,174.075944 97.5528418,174.075944 98.4103995,174.239999 L98.4103995,174.239999 Z" id="Path" fill="#AE1D22"></path>
                    <path d="M109.190399,158.223999 C109.190399,158.223999 109.190399,158.144799 109.190399,158.003999 C109.190399,156.243999 108.838399,145.331999 107.333599,144.654399 C105.828799,143.976799 107.333599,158.223999 107.333599,158.223999" id="Path" fill="#AE1D22"></path>
                    <path d="M103.223999,157.660799 L103.223999,157.379199 C103.223999,155.293599 102.871999,141.935199 101.367199,141.116799 C99.8623995,140.298399 101.367199,157.660799 101.367199,157.660799" id="Path" fill="#AE1D22"></path>
                    <path d="M96.7999995,158.223999 C96.7999995,158.223999 96.7999995,158.127199 96.7999995,157.951199 C96.7999995,155.856799 96.4567995,142.507199 94.9519995,141.679999 C93.3151995,140.799999 94.9519995,158.223999 94.9519995,158.223999" id="Path" fill="#AE1D22"></path>
                    <path d="M90.8863995,159.279999 C90.8863995,159.279999 90.8863995,159.183199 90.8863995,159.007199 C90.8863995,156.912799 90.4287995,146.687199 90.1119995,146.370399 C88.8887995,144.962399 89.0383995,159.279999 89.0383995,159.279999" id="Path" fill="#AE1D22"></path>
                    <path d="M33.2023998,83.0719995 C33.2023998,83.0719995 4.54079998,3.88959998 8.23679996,2.28799999 C11.9327999,0.686399996 1.28479999,-0.0967999995 0.0967999995,2.94799998 C-1.98879999,8.29839996 30.4567998,85.4127995 33.2023998,83.0719995 Z" id="Path" fill="#E3C274"></path>
                    <path d="M38.8607998,84.4799995 C38.8607998,84.4799995 43.3663998,85.2807995 43.0935998,87.4191995 C42.8207998,89.5575995 39.8639998,88.4135995 39.8639998,88.4135995 C39.8639998,88.4135995 42.7327998,89.4255995 42.6975998,90.3495995 C42.6623998,91.2735995 40.9375998,92.5671995 40.9375998,92.5671995 C40.9375998,92.5671995 42.1783998,93.9399995 41.1399998,94.4239995 C40.1015998,94.9079995 44.2551998,94.0807995 44.2551998,94.0807995 C44.2551998,94.0807995 47.2999997,93.9575995 48.0567997,92.1271995 C48.8135997,90.2967995 48.0039997,90.6839995 50.2919997,89.2759995 C48.0883619,88.3372739 45.995801,87.1567036 44.0527998,85.7559995 C41.0695998,83.5999995 40.1719998,84.6295995 38.8607998,84.4799995 Z" id="Path" fill="#EBEBEB"></path>
                    <path d="M91.4671995,175.471999 L94.4239995,197.251999 C94.4239995,197.251999 92.6639995,182.291999 89.9535995,175.964799 L90.8863995,175.603999" id="Path" fill="#AE1D22"></path>
                    <path d="M94.4152053,233.076799 C94.4160378,233.481788 94.3258131,233.881785 94.1511995,234.247199 C93.2711995,235.751999 87.6215995,234.317599 84.6207995,234.695999 L84.6207995,234.695999 C84.1367995,234.880799 82.6231996,235.320799 78.8479996,236.271199 C67.8215996,239.051999 62.0399997,235.443999 62.0399997,235.443999 C61.9641683,234.960974 61.9435022,234.470893 61.9783997,233.983199 C62.8583997,234.590399 64.9351996,235.637599 69.5639996,235.892799 C76.1551996,236.262399 81.5055996,233.032799 84.0751995,233.111999 C86.6447995,233.191199 94.2919995,232.390399 94.4152053,233.076799 Z" id="Path" fill="#212121"></path>
                    <path d="M94.4063995,228.447999 C94.4063995,228.447999 95.2863995,226.089599 97.2223995,225.807999 C99.1583995,225.526399 107.685599,224.487999 111.038399,228.782399 C114.391199,233.076799 112.375999,241.507199 109.225599,242.791999 C106.075199,244.076799 98.2343995,244.639999 97.9087995,241.999999 C97.5831995,239.359999 97.5743995,237.520799 96.1487995,235.021599 C94.9398423,233.047002 94.3342247,230.762172 94.4063995,228.447999 L94.4063995,228.447999 Z" id="Path" fill="#212121"></path>
                    <path d="M57.4639997,71.4823996 C56.3038373,71.5200993 55.1432294,71.4226437 54.0055997,71.1919996 C53.7228588,71.0727253 53.5159773,70.823154 53.4511997,70.5231996 C53.2311997,69.5463996 54.4895997,68.0063996 54.8855997,67.5575996 L55.5455997,68.1295996 C54.8855997,68.8951996 54.2255997,69.9599996 54.3047997,70.3295996 C55.0175997,70.6287996 62.8583997,71.2095996 67.1703996,68.2879996 C69.6642717,66.5914784 70.800318,63.4947791 69.9951996,60.5879997 L70.7695996,59.8487997 C70.7695996,59.9015997 72.3975996,65.8151996 67.6631996,69.0095996 C64.7063996,71.0071996 60.4471997,71.4823996 57.4639997,71.4823996 Z" id="Path" fill="#5D5D5D"></path>
                </g>
            </g>
        </g>
    </g>
</svg>