<?xml version="1.0" encoding="UTF-8"?>
<svg width="321px" height="293px" viewBox="0 0 321 293" version="1.1" xmlns="http://www.w3.org/2000/svg" xmlns:xlink="http://www.w3.org/1999/xlink">
    <!-- Generator: Sketch 63.1 (92452) - https://sketch.com -->
    <title>a_helping_hand</title>
    <desc>Created with Sketch.</desc>
    <defs>
        <path d="M228.902834,73.1696866 C252.754645,82.5319588 275.985625,93.40392 298.454625,105.719513 C321.243547,118.174417 344.594595,133.727857 355.062307,160.004665 C363.858831,182.089335 361.868598,208.867378 353.543046,232.015271 C345.217493,255.163165 330.997205,275.166955 315.561509,293.211376 C295.876924,316.382793 273.537521,337.16188 249.002664,355.121359 C230.771526,368.396463 210.307074,380.167866 189.204532,378.907186 C173.237094,377.950285 158.363524,369.444498 146.558862,357.642717 C134.754201,345.840937 125.699402,330.758353 117.692894,315.113779 C98.3177152,276.645777 85.1404085,235.360126 78.6478745,192.782326 C74.3027866,168.950931 74.09009,143.995558 73.816623,119.313585 C73.7102747,107.800393 73.7102747,95.7555906 78.2680591,85.2448673 C85.7580182,67.9295138 103.472607,59.605993 119.926209,56.3859448 C156.905033,49.1256475 194.111746,59.4996707 228.902834,73.1696866 Z" id="path-1"></path>
        <filter x="-0.9%" y="-25.0%" width="101.9%" height="150.0%" filterUnits="objectBoundingBox" id="filter-3">
            <feGaussianBlur stdDeviation="1" in="SourceGraphic"></feGaussianBlur>
        </filter>
    </defs>
    <g id="Page-1" stroke="none" stroke-width="1" fill="none" fill-rule="evenodd">
        <g id="Artboard" transform="translate(-50.000000, -91.000000)">
            <g id="a_helping_hand" transform="translate(27.000000, 19.000000)">
                <path d="M307.879808,327.463307 C307.762808,327.744107 307.622408,328.013207 307.505408,328.270607 C307.396989,328.520517 307.271907,328.762862 307.131008,328.996007 C306.370508,330.610607 305.528108,332.201807 304.627208,333.746207 L303.972008,333.746207 C305.025008,331.921007 306.019508,330.060707 306.920408,328.188707 C307.025708,327.954707 307.131008,327.709007 307.248008,327.475007 C307.291665,327.399424 307.330736,327.321283 307.365008,327.241007 C307.393125,327.167216 307.451013,327.108675 307.524484,327.079732 C307.597955,327.050789 307.680217,327.054119 307.751108,327.088907 C307.884781,327.161302 307.940718,327.324025 307.879808,327.463307 Z" id="Path" fill="#FFFFFF" fill-rule="nonzero"></path>
                <g id="Group-11" transform="translate(0.000000, 0.373660)">
                    <mask id="mask-2" fill="white">
                        <use xlink:href="#path-1"></use>
                    </mask>
                    <use id="Path" fill="#F8F8F8" fill-rule="nonzero" style="mix-blend-mode: multiply;" transform="translate(217.290306, 216.500000) rotate(-47.000000) translate(-217.290306, -216.500000) " xlink:href="#path-1"></use>
                    <ellipse id="Oval" fill-opacity="0.08" fill="#000000" filter="url(#filter-3)" mask="url(#mask-2)" cx="186" cy="334.62634" rx="160" ry="6"></ellipse>
                    <g id="Group-9" mask="url(#mask-2)" fill-rule="nonzero">
                        <g transform="translate(274.162040, 273.450282)" id="Path">
                            <path d="M42.7852683,59.9222647 L29.8099679,59.9222647 C29.7624313,60.0235555 29.7076909,60.1213063 29.6461679,60.2147647 L29.4589679,59.9222647 L10.2124674,59.9222647 C11.1484674,58.0385647 12.4120674,56.2250646 12.2482674,54.1775646 C12.0259674,51.3812645 9.27646734,49.4975644 6.76096727,48.3275644 C4.2454672,47.1575643 1.35556712,45.8237643 0.361067091,43.1912642 C-0.808932943,40.2194642 1.07476711,36.9668641 3.00526717,34.416264 C4.93576722,31.8656639 7.14706728,29.0108638 6.74926727,25.8284637 C6.25786726,22.0259636 2.29156715,19.6859636 0.747167102,16.1759635 C-0.797232942,12.6659634 0.372767091,8.48906325 2.89996716,5.64596317 C8.57530092,0.481283462 16.5579748,-1.29857693 23.8897678,0.965963032 C27.3997679,2.44016307 30.1960679,5.77466317 30.3130679,9.54206328 C30.4300679,13.3094634 27.8443679,17.1938635 29.0377679,20.8442636 C30.0205679,23.8862637 33.238068,25.5242637 36.0577681,26.9984638 C38.8774682,28.4726638 41.9779683,30.6137639 42.2353683,33.796164 L42.2353683,33.796164 C42.4342683,36.592464 40.3984682,38.9558641 38.6434682,41.1320642 C37.9230442,41.9832688 37.2954926,42.9089074 36.7714681,43.8932643 C36.6427681,44.1389643 36.5374681,44.3846643 36.4321681,44.6420643 C35.8164343,45.9303212 35.7282691,47.4081376 36.1864681,48.7604644 C36.7398629,49.9875015 37.6279186,51.0337041 38.7487682,51.7790645 L39.5443682,52.3523645 C40.4224671,52.9602655 41.2412012,53.6497258 41.9896683,54.4115646 C42.1066683,54.5870646 42.2470683,54.7391646 42.3757683,54.9029646 C42.5952891,55.2131041 42.7797176,55.5466451 42.9256683,55.8974646 C42.9981005,56.0720184 43.0567791,56.2519664 43.1011683,56.4356646 C43.1552728,56.6187972 43.1905554,56.8069711 43.2064683,56.9972646 C43.3219071,57.9922907 43.1767628,59.000237 42.7852683,59.9222647 L42.7852683,59.9222647 Z" fill="#65AD3B"></path>
                            <path d="M26.2414678,59.9222647 L25.6564678,59.9222647 L23.2579677,49.6145644 L23.0824677,48.7955644 L19.6894676,34.474764 L19.6075676,34.193964 C19.6075676,34.193964 19.6075676,34.193964 19.6075676,34.193964 L19.6075676,34.088664 L19.4203676,33.351564 L16.4017675,20.5985636 L16.2028675,19.7444636 L13.0789675,6.57026319 C13.0615429,6.49421189 13.0752244,6.41435099 13.1169702,6.3484366 C13.158716,6.28252221 13.2250658,6.23601784 13.3012675,6.21926318 C13.3747704,6.19803618 13.4539069,6.21060659 13.5172143,6.2535652 C13.5805217,6.29652381 13.6214385,6.36541805 13.6288675,6.44156319 L16.8814676,20.1656636 L17.0803676,20.9963636 L20.0287677,33.456864 L20.2159677,34.252464 L23.7259678,49.0880644 L23.7259678,49.2518644 L23.7844678,49.5092644 L23.8663678,49.8485644 L26.2414678,59.9222647 Z" fill="#FFFFFF"></path>
                            <path d="M23.6674678,49.9772644 C23.5950766,49.9997702 23.5175589,49.9997702 23.4451677,49.9772644 C23.3152542,49.8883177 23.2790556,49.7124958 23.3632677,49.5794644 L32.114868,35.867064 C32.1536221,35.8001221 32.2182738,35.7521311 32.2935682,35.7344148 C32.3688625,35.7166985 32.4481304,35.730826 32.512668,35.773464 C32.6425815,35.8624107 32.6787802,36.0382326 32.594568,36.171264 L23.8429678,49.8836644 C23.7960723,49.9329476 23.7345201,49.9657754 23.6674678,49.9772644 L23.6674678,49.9772644 Z" fill="#FFFFFF"></path>
                            <path d="M19.8883676,34.544964 C19.8226209,34.5803261 19.7435144,34.5803261 19.6777676,34.544964 C19.6121572,34.5081493 19.5640639,34.446546 19.5442688,34.3739637 C19.5244736,34.3013813 19.5346323,34.2238912 19.5724676,34.158864 L24.4513678,25.9688637 C24.4961808,25.8625041 24.599347,25.7924399 24.714736,25.7899345 C24.8301251,25.7875606 24.9361605,25.8532016 24.9854289,25.9575721 C25.0346974,26.0619426 25.0179862,26.1855265 24.9427678,26.2730638 L20.0755677,34.404564 C20.0354213,34.4753726 19.9675849,34.5262499 19.8883676,34.544964 Z" fill="#FFFFFF"></path>
                            <path d="M16.7995676,21.2069636 C16.7311445,21.2293013 16.6573906,21.2293013 16.5889676,21.2069636 C16.5207821,21.1726602 16.4703719,21.1110146 16.4502887,21.037376 C16.4302055,20.9637375 16.4423388,20.8850345 16.4836676,20.8208636 L22.6144677,9.77606328 C22.6887776,9.63713605 22.8616405,9.58475336 23.0005677,9.65906328 C23.139495,9.7333732 23.1918777,9.90623606 23.1175677,10.0451633 L16.9867676,21.1016636 C16.9364297,21.1548583 16.8711676,21.1915683 16.7995676,21.2069636 L16.7995676,21.2069636 Z" fill="#FFFFFF"></path>
                            <path d="M20.2042677,59.9222647 L19.2448676,59.9222647 C18.2386676,59.1617647 17.2441676,58.3778647 16.2730675,57.5822646 C16.1690203,57.4700753 16.1690203,57.2966539 16.2730675,57.1844646 C16.3868043,57.0729803 16.5688308,57.0729803 16.6825676,57.1844646 C17.8057676,58.0853647 18.9874676,59.0330647 20.2042677,59.9222647 Z" fill="#FFFFFF"></path>
                            <path d="M23.5621678,49.7198644 C23.6351774,49.6949193 23.6999328,49.6504 23.7493678,49.5911644 C23.8313308,49.4551418 23.7897841,49.2785683 23.6557678,49.1933644 L9.87316736,40.5470642 C9.73714476,40.4651012 9.56057129,40.5066479 9.47536735,40.6406642 C9.43272936,40.7052018 9.41860178,40.7844696 9.4363181,40.859764 C9.45403441,40.9350583 9.50202541,40.99971 9.56896735,41.0384642 L23.3515677,49.6730644 C23.4127354,49.7160851 23.4885366,49.7329298 23.5621678,49.7198644 L23.5621678,49.7198644 Z" fill="#FFFFFF"></path>
                            <path d="M19.5841676,34.076964 C19.656065,34.0562054 19.7182583,34.010597 19.7596676,33.948264 C19.8438798,33.8152326 19.8076812,33.6394107 19.6777676,33.550464 L11.7919674,28.2971638 C11.7083673,28.2386437 11.5998974,28.229169 11.5074175,28.2723088 C11.4149375,28.3154487 11.3524973,28.4046489 11.3436175,28.5063089 C11.3347376,28.6079688 11.3807673,28.7066437 11.4643674,28.7651638 L19.3618676,34.030164 C19.4271439,34.0738853 19.5068044,34.0906559 19.5841676,34.076964 L19.5841676,34.076964 Z" fill="#FFFFFF"></path>
                            <path d="M16.6591676,20.6921636 C16.7279709,20.6783456 16.7875819,20.6357663 16.8229676,20.5751636 C16.8688981,20.5149918 16.8885888,20.4388245 16.8775752,20.3639316 C16.8665615,20.2890386 16.8257765,20.2217648 16.7644676,20.1773636 L6.49186727,12.8180634 C6.42836782,12.7727286 6.34938793,12.754642 6.27248781,12.7678249 C6.19558769,12.7810078 6.12714144,12.8243674 6.08236725,12.8882634 C6.03761329,12.9498915 6.01981345,13.0270557 6.03304962,13.1020606 C6.04628579,13.1770656 6.08942237,13.2434763 6.15256726,13.2860634 L16.4251675,20.6453636 C16.4945097,20.689828 16.5780577,20.7065376 16.6591676,20.6921636 Z" fill="#FFFFFF"></path>
                            <path d="M70.7599691,26.4719638 C67.881769,31.0817639 61.5286688,33.0707639 59.6332688,38.1719641 C59.3591344,38.8941662 59.1820879,39.6495647 59.1067688,40.4183642 C58.7323688,44.2208643 60.4639688,48.2456644 60.6628688,52.2002645 C60.7746547,54.8929896 60.1431971,57.5645411 58.8376688,59.9222647 L29.8099679,59.9222647 C29.7624313,60.0235555 29.7076909,60.1213063 29.6461679,60.2147647 L29.4589679,59.9222647 C28.6998258,58.7392361 28.0572173,57.4853658 27.5401679,56.1782646 C25.1815016,49.5614514 27.5853548,42.18643 33.390168,38.2304641 C36.1279681,36.452064 39.5209682,35.504364 42.2236683,33.831264 C42.4810683,33.679164 42.7267683,33.503664 42.9841683,33.328164 C43.9674084,32.6615183 44.8167247,31.8161707 45.4879684,30.8360639 C48.5065685,26.3081638 46.4122684,19.9901636 48.4831685,14.9591634 C49.7208134,12.0202024 52.2545457,9.82372456 55.3393687,9.01556326 C58.3813687,8.24336324 64.1728689,10.6535633 64.1728689,10.6535633 C64.1728689,10.6535633 70.5025691,14.4560634 71.6491691,17.3810635 C72.794135,20.3832218 72.4649637,23.7485661 70.7599691,26.4719638 Z" fill="#559B2A"></path>
                            <path d="M60.7915688,17.8373635 L54.5086686,30.4850639 L54.1459686,31.2455639 L48.4480685,42.6998642 L48.0970685,43.4369642 L42.3874683,54.9380646 L41.3461683,57.0323646 L40.9951682,57.7460647 L39.9070682,59.9222647 L39.2869682,59.9222647 L40.4569682,57.5822646 L40.5622682,57.3833646 L40.5622682,57.3833646 C40.5622682,57.3833646 40.5622682,57.3833646 40.5622682,57.3833646 L40.9015682,56.7047646 L41.9662683,54.5519646 L47.4535684,43.4954642 L47.6524684,43.0859642 L47.6524684,43.0859642 L47.6524684,43.0859642 L47.9566684,42.4892642 L53.5960686,31.1168639 L53.6779686,30.8360639 L53.8066686,30.5786639 L54.1927686,29.7947639 L60.2533688,17.5799635 C60.3285443,17.4616352 60.4845878,17.4252251 60.6043688,17.4980635 C60.6791387,17.5099849 60.7442365,17.5557129 60.7808124,17.6220067 C60.8173883,17.6883005 60.8213568,17.767755 60.7915688,17.8373635 L60.7915688,17.8373635 Z" fill="#FFFFFF"></path>
                            <path d="M40.6207682,57.7460647 C40.5506098,57.7108441 40.4993292,57.6467432 40.4803682,57.5705646 C40.4585115,57.4991947 40.4659697,57.4220594 40.5010952,57.356199 C40.5362207,57.2903387 40.5961228,57.2411734 40.6675682,57.2195646 L56.1700687,52.2938645 C56.2733394,52.2411288 56.3980121,52.2543768 56.4878941,52.3276374 C56.5777762,52.400898 56.6158951,52.5203372 56.5850699,52.6321214 C56.5542447,52.7439056 56.4602961,52.8269263 56.3455687,52.8437645 L40.8079682,57.7460647 C40.7477799,57.7695598 40.6809566,57.7695598 40.6207682,57.7460647 L40.6207682,57.7460647 Z" fill="#FFFFFF"></path>
                            <path d="M47.6056684,43.5188642 C47.5047588,43.4699915 47.4406662,43.3677361 47.4406662,43.2556142 C47.4406662,43.1434924 47.5047588,43.041237 47.6056684,42.9923642 L56.5561687,39.8684641 C56.6272669,39.838791 56.7076736,39.8410142 56.7770236,39.8745706 C56.8463736,39.9081271 56.8980152,39.9697982 56.9188687,40.0439641 C56.9448621,40.115285 56.9408725,40.1940913 56.9078091,40.2624224 C56.8747456,40.3307534 56.8154257,40.382787 56.7433687,40.4066642 L47.8279684,43.5305642 C47.7552226,43.5561157 47.6753302,43.5519109 47.6056684,43.5188642 L47.6056684,43.5188642 Z" fill="#FFFFFF"></path>
                            <path d="M53.7832686,31.2923639 C53.7194939,31.2604717 53.669565,31.2063822 53.6428686,31.1402639 C53.6125675,31.0690954 53.6129658,30.9885795 53.6439693,30.9177142 C53.6749729,30.8468489 53.7338356,30.7919112 53.8066686,30.7658639 L65.588569,26.2145638 C65.6597374,26.1842627 65.7402534,26.1846609 65.8111187,26.2156645 C65.8819839,26.246668 65.9369216,26.3055308 65.962969,26.3783638 C65.9930284,26.4478935 65.9923912,26.5268725 65.9612138,26.5959082 C65.9300364,26.6649439 65.8712064,26.7176423 65.799169,26.7410638 L54.0172686,31.3040639 C53.9406524,31.3303024 53.8568854,31.326114 53.7832686,31.2923639 L53.7832686,31.2923639 Z" fill="#FFFFFF"></path>
                            <path d="M35.1100681,59.9222647 L34.5484681,59.9222647 C33.963468,58.3427647 33.378468,56.7632646 32.968968,55.1720646 C32.898768,54.8912646 32.816868,54.6338646 32.758368,54.3647646 C32.699868,54.0956645 32.641368,53.9786645 32.594568,53.7914645 C32.5763348,53.7284404 32.5885153,53.6605191 32.6275125,53.6077583 C32.6665096,53.5549974 32.727868,53.523425 32.793468,53.5223645 C32.9078576,53.5035068 33.0225892,53.5539887 33.085968,53.6510645 C33.085968,53.6510645 33.085968,53.6510645 33.085968,53.7329645 C33.144468,53.9786645 33.214668,54.2009646 33.296568,54.4466646 C33.846468,56.2835646 34.4197681,58.0970647 35.1100681,59.9222647 Z" fill="#FFFFFF"></path>
                            <path d="M40.7143682,57.5120646 C40.7813562,57.5420968 40.8579803,57.5420968 40.9249682,57.5120646 C41.0753491,57.4618739 41.1583714,57.3010181 41.1121683,57.1493646 L36.1279681,41.7053642 C36.0777774,41.5549834 35.9169216,41.471961 35.7652681,41.5181642 C35.6148873,41.5683549 35.5318649,41.7292107 35.5780681,41.8808642 L40.6207682,57.3482646 C40.6276008,57.41358 40.6615654,57.473018 40.7143682,57.5120646 Z" fill="#FFFFFF"></path>
                            <path d="M47.6641684,42.9572642 C47.7353809,42.9865195 47.815256,42.9865195 47.8864684,42.9572642 C47.9598374,42.9386035 48.0219524,42.8899012 48.0575782,42.8231028 C48.093204,42.7563043 48.099045,42.6775892 48.0736685,42.6062642 L45.3943684,33.515364 C45.3726471,33.4408912 45.3222314,33.3780973 45.2542119,33.3407963 C45.1861925,33.3034953 45.1061412,33.2947427 45.0316684,33.316464 C44.9602229,33.3380728 44.9003209,33.387238 44.8651953,33.4530983 C44.8300698,33.5189587 44.8226116,33.596094 44.8444684,33.667464 L47.5237684,42.7700642 C47.5437364,42.8486882 47.5942804,42.9160802 47.6641684,42.9572642 Z" fill="#FFFFFF"></path>
                            <path d="M54.0055686,30.8360639 C54.0685694,30.8656436 54.1414679,30.8656436 54.2044686,30.8360639 C54.277204,30.8197126 54.3398968,30.7739202 54.3775985,30.7096055 C54.4153001,30.6452908 54.4246319,30.5682178 54.4033686,30.4967639 L51.2326685,18.2585635 C51.1924596,18.1045536 51.0364815,18.0109667 50.8816685,18.0479635 C50.7314769,18.0931733 50.6402811,18.2451663 50.6710685,18.3989635 L53.8534686,30.6371639 C53.8663322,30.7253178 53.9238647,30.8005526 54.0055686,30.8360639 L54.0055686,30.8360639 Z" fill="#FFFFFF"></path>
                        </g>
                    </g>
                </g>
                <g id="Group-7" transform="translate(33.018727, 273.851858)" fill-rule="nonzero">
                    <path d="M29.4886738,60.1166496 L42.4522742,60.1166496 C42.4998108,60.2179404 42.5545512,60.3156912 42.6160742,60.4091496 C42.6862742,60.3155496 42.7447742,60.2102496 42.8032742,60.1166496 L62.0497747,60.1166496 C61.1254747,58.2446496 59.8501747,56.4194495 60.0256747,54.3719495 C60.2362747,51.5873494 62.9857748,49.7504493 65.5012748,48.5219493 C68.0167749,47.2934493 70.906675,46.0181492 71.901175,43.3856492 C73.0711751,40.4021491 71.187475,37.149549 69.256975,34.5989489 C67.3264749,32.0483488 65.1268748,29.1935488 65.5246748,26.0228487 C66.0043749,22.2086486 69.982375,19.8803485 71.526775,16.3586484 C73.0711751,12.8369483 71.889475,8.68344817 69.373975,5.82864809 C66.7082936,3.11969371 63.2575181,1.31857718 59.5108747,0.680647942 C55.8496818,-0.35670433 51.9537027,-0.205125753 48.3841744,1.11354795 C44.8741743,2.576048 42.0661742,5.92224809 41.9491742,9.6779482 C41.8321742,13.4336483 44.4295742,17.3297484 43.2361742,20.9801485 C42.2416742,24.0221486 39.0358741,25.6601487 36.216174,27.1460487 C33.3964739,28.6319487 30.3076738,30.7613488 30.0385738,33.9320489 L30.0385738,33.9320489 C29.8396738,36.728349 31.8754739,39.103449 33.6304739,41.2679491 C34.3454807,42.1258028 34.9762874,43.0504635 35.514174,44.0291492 C35.631174,44.2748492 35.736474,44.5205492 35.841774,44.7779492 C36.4681596,46.067586 36.5565415,47.5532439 36.087474,48.9080493 C35.5338574,50.1318211 34.6456131,51.1741899 33.5251739,51.9149494 L32.7295739,52.4999494 C31.8538015,53.110888 31.0353382,53.8001202 30.2842738,54.5591495 C30.1672738,54.7229495 30.0268738,54.8750495 29.9098738,55.0505495 C29.6817508,55.355209 29.4967095,55.6898582 29.3599738,56.0450495 C29.2802951,56.2139184 29.2175873,56.3902842 29.1727738,56.5715495 C29.1197485,56.7589188 29.0844928,56.9508669 29.0674738,57.1448496 C28.9344618,58.1553235 29.0801075,59.1829348 29.4886738,60.1166496 Z" id="Path" fill="#599D30"></path>
                    <path d="M46.0324743,60.1166496 L46.6057743,60.1166496 L49.0510744,49.8089493 L49.2382744,49.0016493 L52.6312745,34.6691489 L52.7014745,34.4000489 C52.7014745,34.4000489 52.7014745,34.4000489 52.7014745,34.4000489 L52.7014745,34.3181489 L52.8886745,33.5927489 L55.9189746,20.8280485 L56.1178746,19.9739485 L59.2300747,6.81144812 C59.2670715,6.65663518 59.1734846,6.50065701 59.0194747,6.46044811 C58.9463449,6.43937514 58.8677118,6.4499256 58.8030497,6.49038841 C58.7383875,6.53052355 58.6937437,6.59616215 58.6801746,6.67104811 L55.4392746,20.3600485 L55.2403746,21.1790485 L52.2919745,33.6512489 L52.1047745,34.4468489 L48.5947744,49.2707493 L48.5947744,49.4462493 L48.5947744,49.7036493 L48.5128744,50.0429493 L46.0324743,60.1166496 Z" id="Path" fill="#FFFFFF"></path>
                    <path d="M38.5912741,53.8454495 C38.7082741,54.1145495 38.8486741,54.3953495 38.9773741,54.6527495 C39.0794345,54.8997636 39.2007062,55.1383949 39.3400741,55.3664495 C40.1005741,56.9927495 40.9429741,58.5722496 41.8438742,60.1166496 L42.4990742,60.1166496 C41.4460742,58.3031496 40.4515741,56.4428495 39.5506741,54.5591495 C39.4453741,54.3368495 39.3400741,54.0911495 39.2347741,53.8571495 C39.1849556,53.7790639 39.141899,53.696865 39.1060741,53.6114495 C39.0776862,53.540728 39.0217734,53.4845819 38.9511709,53.4558996 C38.8805684,53.4272173 38.8013403,53.4284625 38.7316741,53.4593494 C38.5961483,53.5358877 38.5365672,53.6997357 38.5912741,53.8454495 L38.5912741,53.8454495 Z" id="Path" fill="#FFFFFF"></path>
                    <path d="M48.6064744,50.1716494 C48.6727075,50.2050244 48.7508412,50.2050244 48.8170744,50.1716494 C48.8840163,50.1328952 48.9320073,50.0682435 48.9497236,49.9929492 C48.9674399,49.9176548 48.9533124,49.838387 48.9106744,49.7738493 L40.1473741,36.061449 C40.0628001,35.9330493 39.890692,35.8965416 39.7612741,35.9795489 C39.6943322,36.0183031 39.6463412,36.0829548 39.6286249,36.1582491 C39.6109085,36.2335435 39.6250361,36.3128113 39.6676741,36.377349 L48.4192744,50.0897494 C48.4697998,50.1386657 48.5362578,50.1677411 48.6064744,50.1716494 Z" id="Path" fill="#FFFFFF"></path>
                    <path d="M52.3738745,34.7510489 C52.4421611,34.7742282 52.5161879,34.7742282 52.5844745,34.7510489 C52.7226829,34.6697306 52.769651,34.4922956 52.6897745,34.3532489 L47.8108743,26.2217487 C47.7300831,26.0903195 47.5611047,26.0442345 47.4247743,26.1164487 C47.2865659,26.197767 47.2395978,26.375202 47.3194743,26.5142487 L52.1983745,34.6457489 C52.2429565,34.7000655 52.3049683,34.7372726 52.3738745,34.7510489 Z" id="Path" fill="#FFFFFF"></path>
                    <path d="M55.4743746,21.4481485 C55.5377108,21.4761839 55.6099383,21.4761839 55.6732746,21.4481485 C55.811483,21.3668302 55.8584511,21.1893952 55.7785746,21.0503485 L49.6477744,10.0055482 C49.613471,9.9373628 49.5518254,9.8869526 49.4781868,9.86686936 C49.4045482,9.84678611 49.3258453,9.85891943 49.2616744,9.9002482 C49.1940588,9.93502969 49.1434393,9.99574527 49.121388,10.0685145 C49.0993367,10.1412836 49.1077392,10.2198847 49.1446744,10.2863482 L55.2871746,21.3311485 C55.3261015,21.3989815 55.3963433,21.4428826 55.4743746,21.4481485 L55.4743746,21.4481485 Z" id="Path" fill="#FFFFFF"></path>
                    <path d="M52.0579745,60.1166496 L53.0290745,60.1166496 C54.0352745,59.3561496 55.0297745,58.5722496 55.9891746,57.7766496 C56.0932219,57.6644603 56.0932219,57.4910389 55.9891746,57.3788496 C55.8694915,57.2830264 55.6993576,57.2830264 55.5796746,57.3788496 C54.4564745,58.2914496 53.2864745,59.2391496 52.0579745,60.1166496 Z" id="Path" fill="#FFFFFF"></path>
                    <path d="M48.7000744,49.9142493 C48.6247286,49.9010101 48.5598486,49.8534314 48.5245744,49.7855493 C48.4403622,49.6525179 48.4765608,49.476696 48.6064744,49.3877493 L62.3890748,40.7531491 C62.4536124,40.7105111 62.5328802,40.6963835 62.6081746,40.7140998 C62.6834689,40.7318161 62.7481206,40.7798071 62.7868748,40.8467491 C62.8698821,40.976167 62.8333744,41.1482751 62.7049748,41.2328491 L48.9106744,49.8791493 C48.8510549,49.9260012 48.7716664,49.9392326 48.7000744,49.9142493 L48.7000744,49.9142493 Z" id="Path" fill="#FFFFFF"></path>
                    <path d="M52.6897745,34.3181489 C52.6177906,34.3046556 52.5544159,34.2624058 52.5142745,34.2011489 C52.4695205,34.1395208 52.4517207,34.0623566 52.4649568,33.9873517 C52.478193,33.9123467 52.5213296,33.845936 52.5844745,33.8033489 L60.4819747,28.5383487 C60.6115178,28.4848783 60.7607837,28.5308052 60.8378619,28.6478499 C60.9149401,28.7648945 60.8981687,28.920163 60.7978747,29.0180487 L52.9120745,34.2830489 C52.8472858,34.3282393 52.7653348,34.3411789 52.6897745,34.3181489 L52.6897745,34.3181489 Z" id="Path" fill="#FFFFFF"></path>
                    <path d="M55.6030746,20.8982485 C55.5375489,20.8774052 55.4802428,20.8364723 55.4392746,20.7812485 C55.3945206,20.7196204 55.3767208,20.6424562 55.3899569,20.5674513 C55.4031931,20.4924463 55.4463297,20.4260356 55.5094746,20.3834485 L65.7820749,13.0241483 C65.9113095,12.9336841 66.0894106,12.9651137 66.1798748,13.0943483 C66.2703391,13.2235829 66.2389095,13.4016841 66.1096749,13.4921483 L55.8370746,20.8514485 C55.7677324,20.8959129 55.6841844,20.9126225 55.6030746,20.8982485 L55.6030746,20.8982485 Z" id="Path" fill="#FFFFFF"></path>
                    <path d="M1.50227302,26.6663487 C4.3921731,31.2761488 10.7452733,33.2651489 12.6406733,38.366349 C12.9031328,39.091385 13.076014,39.8457755 13.1554734,40.6127491 C13.5415734,44.4152492 11.7982733,48.4517493 11.5993733,52.4063494 C11.4879342,55.0953181 12.1194378,57.7630158 13.4245734,60.1166496 L42.4522742,60.1166496 C42.4998108,60.2179404 42.5545512,60.3156912 42.6160742,60.4091496 C42.6862742,60.3155496 42.7447742,60.2102496 42.8032742,60.1166496 C43.570761,58.9365817 44.2175208,57.6822597 44.7337743,56.3726495 C47.0967865,49.7558964 44.6920632,42.3782054 38.8837741,38.424849 C36.145974,36.658149 32.7529739,35.7104489 30.0502738,34.0256489 C29.7928738,33.8735489 29.5471738,33.7097489 29.2897738,33.5225489 C28.3359665,32.8630043 27.5111362,32.0342084 26.8561737,31.0772488 C23.8375737,26.5610487 25.9318737,20.2313485 23.8726737,15.2120484 C22.6341097,12.269258 20.0948774,10.0717622 17.0047735,9.26844819 C13.9393734,8.48454816 8.17127321,10.9181482 8.17127321,10.9181482 C8.17127321,10.9181482 1.82987303,14.7206483 0.683272995,17.6339484 C-0.459539876,20.6087973 -0.156982465,23.9455733 1.50227302,26.6663487 Z" id="Path" fill="#65AD3B"></path>
                    <path d="M11.4706733,18.0317484 L17.7535735,30.6794488 L18.1162735,31.4516488 L23.8141737,42.9059491 L24.1651737,43.6430492 L29.8864738,55.1441495 L30.9160739,57.2384496 L31.2670739,57.9521496 L32.3551739,60.1166496 L32.9869739,60.1166496 L31.8169739,57.7766496 L31.7116739,57.5777496 L31.7116739,57.5192496 C31.7116739,57.5192496 31.7116739,57.5192496 31.7116739,57.5192496 L31.3840739,56.8523495 L30.3076738,54.6995495 L24.8320737,43.6430492 L24.6331737,43.2218492 L24.6331737,43.2218492 L24.3289737,42.6251491 L18.6895735,31.2410488 L18.6193735,31.1123488 L18.4906735,30.8432488 L18.1162735,30.0710488 L12.0439733,17.8445484 C12.0081229,17.7870307 11.9501056,17.7468764 11.8836461,17.7335845 C11.8171866,17.7202926 11.7481882,17.7350438 11.6929733,17.7743484 C11.6286925,17.7772366 11.5684376,17.8064673 11.52638,17.8551655 C11.4843224,17.9038638 11.4641739,17.9677319 11.4706733,18.0317484 L11.4706733,18.0317484 Z" id="Path" fill="#FFFFFF"></path>
                    <path d="M31.6414739,57.9755496 C31.7166606,57.95026 31.7739153,57.888601 31.7935739,57.8117496 C31.8397771,57.6600961 31.7567547,57.4992403 31.6063739,57.4490496 L16.0921734,52.5350494 C16.0208035,52.5131927 15.9436682,52.5206509 15.8778078,52.5557764 C15.8119475,52.5909019 15.7627822,52.650804 15.7411734,52.7222494 C15.7157969,52.7935745 15.7216379,52.8722895 15.7572637,52.939088 C15.7928895,53.0058864 15.8550045,53.0545887 15.9283734,53.0732494 L31.4308739,57.9989496 C31.5011778,58.0217462 31.5778888,58.0132228 31.6414739,57.9755496 L31.6414739,57.9755496 Z" id="Path" fill="#FFFFFF"></path>
                    <path d="M24.6682737,43.6781492 C24.7322251,43.640967 24.7817097,43.5832349 24.8086737,43.5143492 C24.8501054,43.3664824 24.7748346,43.2109227 24.6331737,43.1516492 L15.6709734,40.0277491 C15.5226319,39.9803742 15.3631813,40.0575277 15.3082734,40.2032491 C15.2786003,40.2743473 15.2808234,40.354754 15.3143799,40.424104 C15.3479363,40.493454 15.4096075,40.5450956 15.4837734,40.5659491 L24.4342737,43.6781492 C24.5081915,43.7138371 24.5943558,43.7138371 24.6682737,43.6781492 L24.6682737,43.6781492 Z" id="Path" fill="#FFFFFF"></path>
                    <path d="M18.4906735,31.4867488 C18.5507233,31.453485 18.5965077,31.3993761 18.6193735,31.3346488 C18.6496746,31.2634803 18.6492764,31.1829644 18.6182728,31.1120991 C18.5872693,31.0412339 18.5284065,30.9862961 18.4555735,30.9602488 L6.67367317,26.4089487 C6.52510023,26.352858 6.35891343,26.4255647 6.29927316,26.5727487 C6.26897208,26.6439172 6.2693703,26.7244331 6.30037386,26.7952984 C6.33137741,26.8661636 6.39024018,26.9211014 6.46307316,26.9471487 L18.2566735,31.4984488 C18.3323669,31.5304909 18.4185538,31.5261815 18.4906735,31.4867488 Z" id="Path" fill="#FFFFFF"></path>
                    <path d="M37.152174,60.1166496 L37.7137741,60.1166496 C38.2987741,58.5488496 38.8837741,56.9576495 39.2932741,55.3664495 C39.3634741,55.0973495 39.4453741,54.8399495 39.5038741,54.5591495 C39.5623741,54.2783495 39.6325741,54.1730495 39.6676741,53.9975495 C39.6852193,53.9350953 39.6746082,53.868093 39.6386237,53.8141164 C39.6026393,53.7601397 39.5448723,53.7245747 39.4804741,53.7167495 C39.3635743,53.7002301 39.2482045,53.7556076 39.1879741,53.8571495 C39.1879741,53.8571495 39.1879741,53.8571495 39.1879741,53.9390495 C39.1879741,54.1730495 39.0475741,54.4070495 38.9773741,54.6527495 C38.4157741,56.5481495 37.8424741,58.3031496 37.152174,60.1166496 Z" id="Path" fill="#FFFFFF"></path>
                    <path d="M31.5712739,57.7181496 C31.5014109,57.7535878 31.4188368,57.7535878 31.3489739,57.7181496 C31.198593,57.6679588 31.1155707,57.507103 31.1617739,57.3554496 L36.251274,41.9114491 C36.3014647,41.7610683 36.4623206,41.6780459 36.613974,41.7242491 C36.7596954,41.779157 36.8368489,41.9386076 36.789474,42.0869491 L31.7467739,57.5543496 C31.7111072,57.6291891 31.6483925,57.6877229 31.5712739,57.7181496 Z" id="Path" fill="#FFFFFF"></path>
                    <path d="M24.5512737,43.1516492 C24.4839887,43.1802594 24.4079586,43.1802594 24.3406737,43.1516492 C24.2670723,43.1325584 24.2043596,43.0844353 24.1668724,43.0182815 C24.1293852,42.9521277 24.1203289,42.8735994 24.1417737,42.8006491 L26.8327737,33.6980489 C26.8514345,33.6246799 26.9001368,33.562565 26.9669352,33.5269391 C27.0337336,33.4913133 27.1124487,33.4854723 27.1837738,33.5108489 C27.3330632,33.5560921 27.4205777,33.7105294 27.3826738,33.8618489 L24.6916737,42.9527491 C24.6792558,43.0376394 24.6271043,43.1115208 24.5512737,43.1516492 L24.5512737,43.1516492 Z" id="Path" fill="#FFFFFF"></path>
                    <path d="M18.2683735,31.0070488 C18.2013855,31.037081 18.1247615,31.037081 18.0577735,31.0070488 C17.9841722,30.9879581 17.9214594,30.939835 17.8839722,30.8736812 C17.8464851,30.8075274 17.8374287,30.728999 17.8588735,30.6560488 L21.0412736,18.4529484 C21.0864834,18.3027568 21.2384764,18.211561 21.3922736,18.2423484 C21.5462835,18.2825574 21.6398704,18.4385355 21.6028736,18.5933485 L18.4087735,30.8081488 C18.3931003,30.891701 18.3418532,30.9643012 18.2683735,31.0070488 L18.2683735,31.0070488 Z" id="Path" fill="#FFFFFF"></path>
                </g>
                <path d="M256.470006,214.570004 C253.600068,214.811059 251.077482,212.681402 250.833768,209.811688 C250.590053,206.941974 252.717372,204.417416 255.586858,204.171042 C258.456345,203.924668 260.982873,206.049647 261.231907,208.918904 C261.47492,211.79357 259.344255,214.322099 256.470006,214.570004 L256.470006,214.570004 Z" id="Path" fill="#A9F7F3" fill-rule="nonzero"></path>
                <path d="M250.877406,209.749604 C250.665755,206.876132 252.823062,204.374916 255.696464,204.162311 C258.569865,203.949707 261.071797,206.106184 261.285355,208.979515 C261.498913,211.852846 259.343266,214.355493 256.470006,214.570004 C255.088277,214.67629 253.721186,214.22734 252.671484,213.322576 C251.621782,212.417812 250.976092,211.131897 250.877406,209.749604 L250.877406,209.749604 Z" id="Path" fill="#A9F7F3" fill-rule="nonzero"></path>
                <path d="M250.877406,209.749604 C250.665755,206.876132 252.823062,204.374916 255.696464,204.162311 C258.569865,203.949707 261.071797,206.106184 261.285355,208.979515 C261.498913,211.852846 259.343266,214.355493 256.470006,214.570004 C255.088277,214.67629 253.721186,214.22734 252.671484,213.322576 C251.621782,212.417812 250.976092,211.131897 250.877406,209.749604 L250.877406,209.749604 Z" id="Path" fill="#A9F7F3" fill-rule="nonzero"></path>
                <polygon id="Path" fill="#2A2A2B" fill-rule="nonzero" points="159.488704 330.423407 159.488704 334.986407 91.0437017 334.986407 91.0437017 330.423407 96.1332018 330.423407"></polygon>
                <polygon id="Path" fill="#444345" fill-rule="nonzero" points="159.488704 316.266407 159.488704 330.423407 96.1332018 330.423407 96.1332018 316.266407 116.877302 316.266407"></polygon>
                <rect id="Rectangle" fill="#2A2A2B" fill-rule="nonzero" x="116.865602" y="312.499007" width="42.6231012" height="3.75570011"></rect>
                <polygon id="Path" fill="#444345" fill-rule="nonzero" points="159.488704 302.167907 159.488704 312.499007 116.877302 312.499007 116.877302 302.167907 131.455503 302.167907"></polygon>
                <rect id="Rectangle" fill="#2A2A2B" fill-rule="nonzero" x="131.455503" y="297.909106" width="28.0332008" height="4.24710012"></rect>
                <rect id="Rectangle" fill="#444345" fill-rule="nonzero" x="131.455503" y="288.712906" width="28.0332008" height="9.19620026"></rect>
                <rect id="Rectangle" fill="#2A2A2B" fill-rule="nonzero" x="125.757603" y="283.939306" width="33.731101" height="4.64490013"></rect>
                <polygon id="Path" fill="#2A2A2B" fill-rule="nonzero" points="131.455503 297.909106 131.455503 302.167907 116.877302 302.167907 111.249602 302.167907 111.249602 297.909106"></polygon>
                <polygon id="Path" fill="#2A2A2B" fill-rule="nonzero" points="116.877302 312.499007 116.877302 316.266407 96.1332018 316.266407 94.8930018 316.266407 94.8930018 312.499007"></polygon>
                <path d="M186.819904,95.8384007 C186.521897,94.8941557 186.521897,93.8810455 186.819904,92.9368006 C187.832535,94.1868695 189.341792,94.9308094 190.950005,94.9726006 C192.678973,94.9556079 194.403634,95.1481099 196.086305,95.5459006 C197.927051,96.3220637 199.477956,97.6560877 200.520605,99.3601008 C201.076294,100.287507 201.798151,101.104554 202.650005,101.770301 C202.060339,102.932037 201.307848,104.003647 200.415305,104.952701 C200.172521,105.268191 199.823152,105.484467 199.432505,105.561101 C199.192876,105.550072 198.958004,105.490359 198.742205,105.385601 C197.186105,104.742101 195.594905,103.864601 193.921805,104.086901 C193.574246,104.156636 193.222493,104.203536 192.868805,104.227301 C192.506403,104.250026 192.156141,104.092408 191.932805,103.806101 C191.786317,103.512121 191.714013,103.186754 191.722205,102.858401 C191.478439,101.553002 190.792591,100.371361 189.780004,99.5122008 C188.759297,98.6696254 187.878661,97.6705181 187.170904,96.5521007 C187.036462,96.3231831 186.919142,96.0846319 186.819904,95.8384007 Z" id="Path" fill="#F4C7A8" fill-rule="nonzero"></path>
                <path d="M177.424804,137.443602 L177.424804,137.502102 L177.424804,137.502102 C176.288611,139.427216 174.850714,141.157433 173.166004,142.626702 C171.464581,144.101255 169.328468,144.980347 167.082004,145.130502 C166.856712,145.162521 166.627089,145.121517 166.426804,145.013502 C166.144372,144.807579 166.011084,144.453677 166.087504,144.112602 C166.179743,143.781982 166.334651,143.472165 166.543804,143.200002 C167.534404,141.741402 168.552304,140.298402 169.597504,138.871002 L167.327704,137.829702 C167.117104,137.736102 166.883104,137.595702 166.859704,137.373402 C166.836304,137.151102 167.292604,136.835202 167.655304,136.800102 C170.273265,136.486278 172.802702,135.655063 175.096504,134.354802 L175.307104,134.237802 L175.307104,134.237802 C175.71412,135.47631 176.445342,136.583242 177.424804,137.443602 Z" id="Path" fill="#F4C7A8" fill-rule="nonzero"></path>
                <path d="M175.353904,134.272902 L175.143304,134.389902 L175.143304,134.389902 C181.168804,128.984502 187.241104,123.520601 192.143405,117.073901 C196.016105,111.984401 199.233605,106.192901 204.440105,102.484001 L204.440105,102.331901 C205.370609,102.29477 206.232844,101.833474 206.780105,101.080001 C207.283205,100.342901 207.435305,99.4186008 207.950105,98.6581007 C209.295605,96.4000007 212.840705,96.0958007 213.905405,93.6856006 C214.619105,92.0710005 213.905405,90.1756005 214.338305,88.4557004 C214.724405,86.9698004 215.952905,85.8349004 216.374105,84.3490003 L216.526205,84.3490003 C219.343259,84.1887476 222.127964,85.0162975 224.400305,86.6890004 C225.570305,87.5431004 226.541406,88.5727004 227.688006,89.4268005 C230.343906,91.3690005 233.678406,92.1061005 236.931006,92.6092006 C240.183606,93.1123006 243.518106,93.4516006 246.536706,94.7737006 C249.240621,95.9566314 251.561938,97.8687809 253.240806,100.296101 C253.994058,101.263352 254.460287,102.422841 254.586306,103.642301 L254.434206,103.993301 L254.282106,103.923101 L254.282106,103.923101 C253.318609,103.547439 252.297298,103.341593 251.263506,103.314701 C250.222537,103.28633 249.183726,103.424575 248.186406,103.724201 C246.0439,104.393283 244.139068,105.664525 242.699106,107.386301 C241.529106,108.708401 240.710106,110.241101 239.516706,111.504701 C237.025998,113.98296 233.669938,115.3967 230.156706,115.447601 L229.560006,115.447601 C228.701071,114.824591 227.983409,114.027189 227.454006,113.107601 C227.220006,112.721501 227.032806,112.312001 226.775406,111.937601 C225.780905,110.580401 224.037605,110.077301 222.563405,109.270001 L222.563405,109.270001 C219.322505,111.610001 214.841405,110.872901 211.074005,112.136501 C208.500082,113.130804 206.207091,114.737103 204.393305,116.816501 C202.509605,118.828901 200.883305,121.051901 198.952805,123.040901 C193.196405,129.160002 185.310604,132.670002 178.910704,137.993502 L178.910704,138.227502 C178.394328,138.112387 177.917848,137.862033 177.530104,137.502102 L177.530104,137.443602 C176.576341,136.593748 175.862265,135.508513 175.459204,134.296302 L175.353904,134.272902 Z" id="Path" fill="#FF4D53" fill-rule="nonzero"></path>
                <path d="M226.050006,102.250001 C220.644605,104.707001 216.268805,108.930701 210.781505,111.235601 C210.290105,111.446201 210.500705,112.265201 211.003805,112.054601 C216.561305,109.714601 221.007305,105.467501 226.482906,102.987101 C226.962606,102.764801 226.529706,102.039401 226.050006,102.250001 Z" id="Path" fill="#D6252B" fill-rule="nonzero"></path>
                <path d="M229.209006,105.245201 C226.132437,105.343785 223.091263,105.932271 220.200005,106.988501 C219.696905,107.164001 219.919205,107.983001 220.434005,107.795801 C223.250887,106.768172 226.212338,106.191676 229.209006,106.087601 C229.441628,106.087601 229.630206,105.899023 229.630206,105.666401 C229.630206,105.433779 229.441628,105.245201 229.209006,105.245201 L229.209006,105.245201 Z" id="Path" fill="#D6252B" fill-rule="nonzero"></path>
                <path d="M232.672206,109.714601 C229.99358,108.63475 227.146387,108.03284 224.259905,107.936201 C223.710005,107.936201 223.710005,108.755201 224.259905,108.778601 C227.070328,108.88049 229.841619,109.470379 232.449906,110.521901 C232.953006,110.732501 233.175306,109.913501 232.672206,109.714601 Z" id="Path" fill="#D6252B" fill-rule="nonzero"></path>
                <path d="M243.330906,102.437201 C242.453406,103.455101 241.552506,104.437901 240.616506,105.397301 C239.796245,106.395122 238.87046,107.301292 237.855306,108.100001 C239.832606,104.133701 242.149206,100.296101 242.874606,95.8618007 C242.968206,95.3236006 242.149206,95.1013006 242.067306,95.6395006 C241.295106,100.319501 238.744506,104.297501 236.720406,108.509501 C236.615106,108.731801 236.720406,109.082801 236.966106,109.129601 C238.136106,109.316801 238.814706,108.357401 239.657106,107.550101 C241.154706,106.122701 242.570406,104.613401 243.927606,103.045601 C244.278606,102.624401 243.681906,102.027701 243.330906,102.437201 Z" id="Path" fill="#D6252B" fill-rule="nonzero"></path>
                <path d="M217.532405,95.7682006 C214.302744,95.5948323 211.101901,96.4554945 208.394705,98.2252007 C207.950105,98.5294007 208.394705,99.2548007 208.827605,98.9623007 C211.401691,97.2656634 214.454572,96.4449964 217.532405,96.6223007 C218.082305,96.6340007 218.070605,95.7916007 217.532405,95.7682006 Z" id="Path" fill="#D6252B" fill-rule="nonzero"></path>
                <path d="M202.650005,101.770301 C201.819143,101.099249 201.1174,100.282532 200.579105,99.3601008 C199.536456,97.6560877 197.985551,96.3220637 196.144805,95.5459006 C194.462134,95.1481099 192.737473,94.9556079 191.008505,94.9726006 C189.363668,94.9433855 187.818305,94.1792895 186.796504,92.8900006 C186.498497,93.8342455 186.498497,94.8473557 186.796504,95.7916007 C185.886411,95.4921633 185.035256,95.0368944 184.281004,94.4461006 C183.417437,93.7810538 182.971965,92.7074667 183.111004,91.6264005 C183.300605,90.9991426 183.642225,90.4284367 184.105504,89.9650005 C186.047704,87.8239004 188.785504,86.3029004 189.955504,83.6821003 C190.296287,82.5610468 190.800943,81.4965372 191.453105,80.5231002 C192.623105,79.2595002 194.518505,79.1542002 196.215005,79.2712002 C197.013604,79.2848417 197.804381,79.4311355 198.555005,79.7041002 C199.265753,80.0495988 199.953569,80.4404037 200.614205,80.8741002 C202.268751,81.7178801 204.175171,81.9260046 205.972805,81.4591002 C208.406405,80.7922002 210.652805,78.9085002 213.121505,79.3648002 C214.194462,79.6100015 215.125702,80.2721777 215.709621,81.20513 C216.293539,82.1380824 216.482112,83.2650807 216.233705,84.3373003 C215.812505,85.8232004 214.584005,86.9581004 214.197905,88.4440004 C213.741605,90.1405005 214.478705,92.0593005 213.765005,93.6739006 C212.700305,96.0841007 209.155205,96.3883007 207.809705,98.6464007 C207.353405,99.4069008 207.201305,100.331201 206.639705,101.068301 C206.092444,101.821774 205.230209,102.28307 204.299705,102.320201 C203.900011,102.337655 203.501178,102.269853 203.129705,102.121301 C202.9569,102.023043 202.795946,101.905272 202.650005,101.770301 L202.650005,101.770301 Z" id="Path" fill="#262626" fill-rule="nonzero"></path>
                <path d="M237.574506,184.419103 C238.580706,182.079103 240.511206,179.844403 241.575906,177.516103 L241.575906,177.516103 C241.575906,177.644803 241.575906,177.387403 241.575906,177.516103 C241.575906,177.644803 242.547006,177.726703 243.213906,177.820303 C244.041624,177.91984 244.878288,177.91984 245.706006,177.820303 C245.940006,177.820303 245.495406,177.878803 245.706006,177.820303 C245.969244,181.17799 245.945759,184.552006 245.635806,187.905703 L245.050806,188.069503 C245.050806,188.069503 244.430706,184.044703 244.149906,181.833403 L244.079706,181.833403 C243.532303,184.000362 242.804359,186.117663 241.903506,188.163103 L241.833306,188.163103 C238.800337,188.642354 235.721229,188.760177 232.660506,188.514103 C233.169312,186.196724 235.202304,184.531607 237.574506,184.489303 L237.574506,184.419103 Z" id="Path" fill="#4A4A68" fill-rule="nonzero"></path>
                <path d="M209.751905,183.869203 C210.758105,181.529203 211.752605,179.189203 212.829005,176.849203 C214.324673,177.396924 215.921641,177.612515 217.509005,177.481003 C217.871705,177.481003 217.146305,177.551203 217.509005,177.481003 C217.509005,177.481003 217.719605,184.185103 217.509005,187.624903 C217.509005,187.812103 216.994205,187.929103 216.924005,187.788703 C216.994205,187.929103 216.339005,181.447303 216.339005,181.447303 L216.257105,181.447303 C215.706046,183.613172 214.978204,185.730174 214.080905,187.777003 L213.999005,187.777003 C210.969985,188.256426 207.894729,188.374252 204.837905,188.128003 C205.117523,186.866176 205.855463,185.753013 206.908805,185.004103 C207.746852,184.42985 208.736072,184.116393 209.751905,184.103203 L209.751905,183.869203 Z" id="Path" fill="#4A4A68" fill-rule="nonzero"></path>
                <path d="M243.763806,140.860002 C245.501089,144.510517 246.808547,148.350438 247.659906,152.302602 C249.087306,160.001202 247.402506,170.168503 245.706006,177.796903 C244.878288,177.89644 244.041624,177.89644 243.213906,177.796903 C242.660288,177.741991 242.112324,177.640227 241.575906,177.492703 C241.143006,168.975103 238.428606,158.456802 236.895906,150.044502 C235.805393,143.706595 235.413049,137.268228 235.725906,130.844802 C240.329161,127.48578 244.540294,123.620015 248.280006,119.320301 C249.709127,117.71948 250.835063,115.871994 251.602806,113.868101 C252.772806,110.486801 252.176106,106.789601 251.193306,103.338101 C252.227098,103.364993 253.248409,103.570839 254.211906,103.946501 L254.211906,103.946501 C256.328355,106.757156 257.055595,110.376141 256.189206,113.786201 C255.300006,117.062201 253.018506,119.753201 251.193306,122.608001 C247.648206,128.165502 245.682606,134.553702 243.763806,140.860002 Z" id="Path" fill="#0E1922" fill-rule="nonzero"></path>
                <path d="M229.899306,115.705001 L230.051406,115.482701 C233.564638,115.4318 236.920698,114.01806 239.411406,111.539801 C240.581406,110.276201 241.470606,108.743501 242.593806,107.421401 C244.033768,105.699625 245.9386,104.428383 248.081106,103.759301 C249.078426,103.459675 250.117237,103.32143 251.158206,103.349801 C252.141006,106.789601 252.714306,110.486801 251.567706,113.879801 C250.809293,115.876936 249.695414,117.720188 248.280006,119.320301 C244.537946,123.628873 240.322812,127.502558 235.714206,130.868202 C231.268206,134.284602 226.646706,137.537202 222.399605,141.199302 L222.317705,141.199302 C223.185867,142.791101 223.625337,144.581237 223.593005,146.394102 C223.524643,148.462047 223.238359,150.517014 222.738905,152.524902 L217.509005,177.445903 C215.921641,177.577415 214.324673,177.361824 212.829005,176.814103 C212.806057,176.820608 212.781753,176.820608 212.758805,176.814103 L212.758805,176.814103 C213.070805,166.759903 213.222905,156.705702 213.215105,146.651502 C213.148149,144.852189 213.281569,143.051012 213.612905,141.281202 C214.477698,138.383907 215.883029,135.676462 217.754705,133.301802 C221.810705,127.420602 225.858906,121.555001 229.899306,115.705001 Z" id="Path" fill="#15212C" fill-rule="nonzero"></path>
                <path d="M236.720406,114.769001 C235.594916,119.816982 235.095854,124.984433 235.234506,130.154502 C235.234506,130.692702 236.100306,130.692702 236.088606,130.154502 C235.942617,125.044666 236.425949,119.936281 237.527706,114.944501 C237.644706,114.464801 236.837406,114.230801 236.720406,114.769001 Z" id="Path" fill="#010F14" fill-rule="nonzero"></path>
                <path d="M234.591006,129.241902 C233.652677,126.211357 233.187011,123.054301 233.210406,119.881901 C233.210406,119.649279 233.021828,119.460701 232.789206,119.460701 C232.556583,119.460701 232.368006,119.649279 232.368006,119.881901 C232.341906,123.125261 232.815456,126.353296 233.772006,129.452502 C233.935806,129.979002 234.754806,129.756702 234.591006,129.241902 Z" id="Path" fill="#010F14" fill-rule="nonzero"></path>
                <path d="M242.254506,136.893702 C241.438916,138.78206 240.202295,140.458902 238.639206,141.796002 C238.229706,142.158702 238.826406,142.755402 239.235906,142.392702 C240.849138,141.007168 242.128923,139.27546 242.979906,137.326602 C243.202206,136.823502 242.430006,136.402302 242.254506,136.893702 Z" id="Path" fill="#15212C" fill-rule="nonzero"></path>
                <path d="M242.582106,139.690002 L241.669506,141.515202 C241.423806,141.994902 242.160906,142.427802 242.394906,141.936402 L243.307506,140.122902 C243.600006,139.690002 242.827806,139.245402 242.582106,139.690002 Z" id="Path" fill="#051B23" fill-rule="nonzero"></path>
                <path d="M218.386505,143.796702 C218.307176,143.597093 218.090351,143.489152 217.883263,143.546176 C217.676176,143.603201 217.545171,143.80692 217.579205,144.019002 C218.303876,146.645752 218.820276,149.325559 219.123605,152.033502 C219.123605,152.571702 220.024505,152.571702 219.966005,152.033502 C219.669135,149.248806 219.140808,146.49368 218.386505,143.796702 Z" id="Path" fill="#010F14" fill-rule="nonzero"></path>
                <path d="M220.340405,142.111902 C220.176605,141.597102 219.357605,141.819402 219.533105,142.334202 C220.079838,144.086527 220.471347,145.883555 220.703105,147.704502 C220.773305,148.231002 221.615705,148.242702 221.545505,147.704502 C221.314613,145.807551 220.911243,143.935602 220.340405,142.111902 L220.340405,142.111902 Z" id="Path" fill="#010F14" fill-rule="nonzero"></path>
                <path d="M118.632302,165.324703 C118.84472,166.316106 118.899994,167.334735 118.796102,168.343303 C118.796102,168.881503 118.527002,169.513303 117.988802,169.618603 C117.450602,169.723903 117.052802,169.138903 116.818802,168.659203 C116.484566,167.89989 115.97058,167.233314 115.321202,166.717003 C114.642105,166.155918 113.6603,166.155918 112.981202,166.717003 C112.549185,167.234455 112.420382,167.940652 112.641902,168.577303 C112.860308,169.197696 113.142626,169.793701 113.484302,170.355703 C113.977828,171.298197 114.30253,172.31982 114.443702,173.374303 C114.621856,174.124411 114.463755,174.914916 114.010802,175.538803 C113.548195,175.967192 112.93229,176.190774 112.302602,176.158903 C111.543586,174.645872 110.427154,173.34069 109.050002,172.356403 C107.549248,171.309687 106.269131,169.977888 105.282602,168.436903 C104.305116,166.827811 104.500173,164.767829 105.762302,163.370803 C105.972902,163.183603 106.218602,163.008103 106.265402,162.727303 C106.277314,162.448921 106.199376,162.17409 106.043102,161.943403 C105.421359,160.676355 105.691088,159.152623 106.710002,158.176002 C107.575802,157.380402 108.839402,157.123002 109.752002,156.362502 C110.992202,155.309502 111.401702,153.449202 112.782302,152.571702 C114.075348,151.978235 115.531763,151.842083 116.912402,152.185602 C118.304702,152.349402 119.907602,152.361102 120.902103,151.354902 C121.288203,150.957102 121.533903,150.442302 121.908303,150.021102 C122.249039,149.557861 122.837818,149.349238 123.394203,149.494602 C123.593734,149.575613 123.770455,149.704138 123.909003,149.869002 C124.749299,150.749698 125.282763,151.87818 125.430003,153.086502 C125.564576,154.280021 125.564576,155.484884 125.430003,156.678402 C125.431607,156.964669 125.37176,157.247947 125.254503,157.509102 C125.065605,157.784355 124.801647,157.999583 124.494003,158.129202 L124.260003,158.234502 C123.230403,158.714202 122.083803,158.924802 121.019103,159.322602 C119.829483,159.673136 118.854037,160.528791 118.351502,161.662603 C118.136636,162.887541 118.233195,164.146842 118.632302,165.324703 Z" id="Path" fill="#424242" fill-rule="nonzero"></path>
                <path d="M118.655702,186.267703 C119.25519,187.031804 119.707468,187.900653 119.989502,188.830003 C120.676624,191.900882 120.987011,195.044043 120.913803,198.190004 C120.890669,200.806261 121.18931,203.415437 121.803003,205.958804 C121.47744,207.079617 121.22728,208.220969 121.054203,209.375204 C120.810357,211.441091 120.771166,213.526013 120.937203,215.599604 C120.667564,214.701434 120.302797,213.834621 119.849102,213.013904 C118.778334,211.43578 118.016105,209.669155 117.602702,207.807404 C117.380402,205.947104 118.035602,204.063404 117.942002,202.191404 C117.754802,198.564404 114.829802,195.311803 114.701102,191.836903 L115.227602,191.053003 C116.139729,189.943444 116.72691,188.603051 116.924102,187.180303 C116.994302,185.156203 115.531802,183.518203 113.952302,182.149303 C115.769961,183.173386 117.361843,184.554343 118.632302,186.209203 L118.655702,186.267703 Z" id="Path" fill="#3C3C66" fill-rule="nonzero"></path>
                <path d="M124.622703,190.397803 C124.650242,193.950863 124.205653,197.491836 123.300603,200.927804 C122.832603,202.647704 122.271003,204.344204 121.803003,206.052404 C121.18931,203.509037 120.890669,200.899861 120.913803,198.283604 C120.987011,195.137643 120.676624,191.994482 119.989502,188.923603 C119.711494,187.981912 119.259047,187.10083 118.655702,186.326203 L118.655702,186.326203 C119.229002,185.378503 120.246902,183.635203 121.182903,183.354403 L121.335003,183.155503 C121.402834,183.194587 121.46569,183.241729 121.522203,183.295903 C121.639203,183.366103 121.756203,183.459703 121.873203,183.541603 C122.017892,183.592894 122.166608,183.63203 122.317803,183.658603 C123.797994,185.134507 124.61331,187.149561 124.575903,189.239503 C124.599303,189.590503 124.622703,190.000003 124.622703,190.397803 Z" id="Path" fill="#FFFFFF" fill-rule="nonzero"></path>
                <path d="M113.156702,181.810003 C113.425802,181.950403 113.683202,182.090803 113.952302,182.254603 C115.531802,183.623503 116.994302,185.261503 116.924102,187.285603 C116.72691,188.708351 116.139729,190.048744 115.227602,191.158303 L114.701102,191.942203 L103.866902,207.854204 L103.749902,207.994604 C105.35617,209.742021 106.554947,211.823897 107.259902,214.090304 C109.541402,220.665704 110.290202,227.650604 111.039002,234.565305 L111.039002,234.565305 C110.960382,234.698295 110.847163,234.807471 110.711402,234.881205 C110.569109,234.953684 110.420237,235.012449 110.266802,235.056705 C109.036927,235.43096 107.786947,235.735643 106.522802,235.969305 L106.359002,235.969305 L106.359002,235.793805 C103.191206,230.073761 100.491398,224.106794 98.2860019,217.951304 C97.3295562,215.621864 96.5091756,213.238854 95.8290018,210.814304 C95.4171469,209.284196 95.16233,207.716091 95.0685018,206.134304 L95.1738018,206.134304 C96.9467897,201.574532 99.0061948,197.131375 101.339702,192.831403 C102.860702,190.000003 104.510402,187.227103 106.277102,184.536103 C106.838706,183.548338 107.590244,182.681485 108.488402,181.985503 C108.950996,181.657817 109.477088,181.43064 110.032802,181.318603 C111.106369,181.082267 112.22887,181.231382 113.203502,181.739803 C113.203502,181.739803 113.156702,181.739803 113.156702,181.810003 Z" id="Path" fill="#505079" fill-rule="nonzero"></path>
                <path d="M121.182903,183.284203 C120.246902,183.565003 119.229002,185.308303 118.655702,186.256003 C117.385243,184.601143 115.793361,183.220186 113.975702,182.196103 C113.706602,182.032303 113.449202,181.891903 113.180102,181.751503 C113.180102,181.751503 113.180102,181.751503 113.180102,181.751503 C112.20547,181.243082 111.082969,181.093967 110.009402,181.330303 L109.939202,180.733603 C109.794984,179.715432 109.89115,178.677637 110.220002,177.703303 C110.269127,177.528397 110.371329,177.373051 110.512502,177.258703 C110.818876,177.129713 111.169186,177.160365 111.448502,177.340603 C111.628218,177.413148 111.803964,177.495163 111.975002,177.586303 C115.279007,179.086383 118.416233,180.929503 121.335003,183.085303 L121.182903,183.284203 Z" id="Path" fill="#FFFFFF" fill-rule="nonzero"></path>
                <path d="M125.125803,333.289907 C123.021432,333.880328 120.795174,333.880328 118.690802,333.289907 C113.530659,332.249554 108.448558,330.853931 103.480802,329.113007 C102.943073,328.982454 102.455129,328.69782 102.076802,328.294007 C101.789553,327.837782 101.631822,327.312011 101.620502,326.773007 C101.456702,325.099907 101.292902,323.450207 101.117402,321.777107 L107.868302,321.531407 C111.620515,324.197697 115.588915,326.545863 119.732102,328.551407 C121.901859,329.379737 123.889028,330.623705 125.582103,332.213507 C125.719755,332.342936 125.806851,332.517129 125.827803,332.704907 C125.769303,332.962307 125.430003,333.172907 125.125803,333.289907 Z" id="Path" fill="#000000" fill-rule="nonzero"></path>
                <path d="M138.885003,277.469206 C142.044003,278.299906 146.150703,279.271006 148.923603,280.031506 C150.432903,280.441006 152.223003,281.131306 152.515503,282.687406 C150.04608,283.224406 147.530654,283.522182 145.004103,283.576606 L132.520203,284.266906 C132.238078,284.300975 131.952283,284.247899 131.701203,284.114806 C131.484203,283.900114 131.354905,283.612322 131.338503,283.307506 C131.111872,280.943379 131.014227,278.568658 131.046003,276.193906 C131.388838,276.433447 131.797789,276.560222 132.216003,276.556606 L137.282103,277.036306 L137.282103,277.036306 C137.761803,277.176706 138.300003,277.328806 138.885003,277.469206 Z" id="Path" fill="#000000" fill-rule="nonzero"></path>
                <path d="M164.952604,150.220002 C162.594051,152.036479 159.608133,152.836654 156.657304,152.443002 C155.90488,151.166151 154.842501,150.099748 153.568503,149.342502 C153.427449,149.225452 153.264324,149.137921 153.088803,149.085102 C155.545803,145.894902 158.014504,142.696902 160.494904,139.491102 C160.724264,138.949461 161.221201,138.568047 161.803728,138.486542 C162.386254,138.405036 162.968792,138.635412 163.338004,139.093302 C164.227204,139.736802 165.210004,140.590902 165.151504,141.690702 C165.057204,142.278023 164.811191,142.830546 164.437804,143.293602 L160.026904,149.857302 C161.320913,149.404202 162.671446,149.132521 164.040004,149.050002 C164.326189,149.01632 164.61623,149.056604 164.882404,149.167002 C165.151075,149.293143 165.289513,149.594741 165.210004,149.880702 C165.153368,150.013223 165.064964,150.129755 164.952604,150.220002 Z" id="Path" fill="#FFDEC5" fill-rule="nonzero"></path>
                <path d="M106.429202,236.355405 L106.429202,235.922505 C107.693347,235.688843 108.943327,235.38416 110.173202,235.009905 C110.326637,234.965649 110.475509,234.906884 110.617802,234.834405 C111.460202,235.922505 112.688702,236.683005 113.601302,237.724305 L113.753402,237.923205 C115.367138,239.95195 115.731499,242.704901 114.701102,245.083605 C114.350102,245.879205 113.683202,246.674805 112.817402,246.628005 L112.817402,246.628005 C112.422782,246.574798 112.048266,246.42177 111.729302,246.183405 C109.775402,245.013405 107.704502,243.749805 106.780202,241.655505 C106.18887,239.952482 106.067615,238.121534 106.429202,236.355405 L106.429202,236.355405 Z" id="Path" fill="#FFDEC5" fill-rule="nonzero"></path>
                <path d="M120.984003,224.749004 C118.550402,227.089004 115.742402,229.042904 113.554502,231.511605 C112.675669,232.457237 111.9208,233.510908 111.308102,234.647205 L111.015602,234.483405 L111.015602,234.483405 L111.015602,234.483405 C110.266802,227.568704 109.518002,220.583804 107.236502,214.008404 C106.531547,211.741997 105.33277,209.660121 103.726502,207.912704 L103.843502,207.772304 L114.677702,191.860303 C114.806402,195.370303 117.731402,198.587804 117.918602,202.214804 C118.012202,204.086804 117.357002,205.970504 117.579302,207.830804 C117.992705,209.692555 118.754934,211.45918 119.825702,213.037304 C120.279397,213.858021 120.644164,214.724834 120.913803,215.623004 L120.913803,215.623004 C120.913803,216.383504 121.019103,217.132304 121.077603,217.892804 C121.071921,217.919809 121.071921,217.9477 121.077603,217.974704 C121.077603,218.103404 121.077603,218.232104 121.077603,218.360804 L121.533903,224.070404 L120.984003,224.749004 Z" id="Path" fill="#48486F" fill-rule="nonzero"></path>
                <path d="M113.730002,237.583905 C113.735801,237.69693 113.735801,237.810179 113.730002,237.923205 L113.577902,237.724305 C112.665302,236.683005 111.436802,235.922505 110.594402,234.834405 C110.730163,234.760671 110.843382,234.651495 110.922002,234.518505 L110.922002,234.518505 L111.214502,234.682305 C111.8272,233.546008 112.582069,232.492337 113.460902,231.546705 C113.624702,233.535705 113.730002,235.559805 113.730002,237.583905 Z" id="Path" fill="#3D3D65" fill-rule="nonzero"></path>
                <path d="M156.657304,152.431302 L156.657304,152.431302 C152.727671,156.514811 148.571509,160.374104 144.208503,163.990903 C137.890503,169.431403 132.508503,178.651003 127.009503,185.975203 L126.822303,185.518903 C125.933397,183.828342 124.608389,182.406382 122.984703,181.400503 C122.411403,181.002703 121.814703,180.616603 121.218003,180.230503 L120.867003,180.230503 C120.868433,180.130244 120.888262,180.0311 120.925503,179.938003 C121.02909,179.699739 121.194759,179.493663 121.405203,179.341303 C122.036692,178.855321 122.733941,178.461395 123.476103,178.171303 C125.50969,177.350924 127.431904,176.277785 129.197403,174.977203 C129.35719,174.879848 129.493122,174.747913 129.595203,174.591103 C129.694294,174.400165 129.738825,174.185604 129.723903,173.971003 C129.723903,172.321303 128.553903,170.788603 128.764503,169.150603 C128.8374,168.739502 128.97984,168.343835 129.185703,167.980603 C129.490401,167.472911 129.490401,166.838595 129.185703,166.330903 C137.106603,160.867003 143.646903,153.343902 152.316603,149.202102 C152.548426,149.061287 152.818233,148.99588 153.088803,149.014902 L153.088803,149.014902 C153.264324,149.067721 153.427449,149.155252 153.568503,149.272302 C154.849709,150.045854 155.912735,151.133039 156.657304,152.431302 Z" id="Path" fill="#505079" fill-rule="nonzero"></path>
                <path d="M121.522203,183.225703 C121.253659,182.424397 121.050199,181.602731 120.913803,180.768703 C120.8965,180.609271 120.8965,180.448435 120.913803,180.289003 L121.299903,180.289003 C121.884903,180.663403 122.469903,181.049503 123.066603,181.459003 C123.538339,182.293772 123.930082,183.171278 124.236603,184.079803 L122.411403,183.588403 C122.260208,183.56183 122.111492,183.522694 121.966803,183.471403 C121.756203,183.389503 121.639203,183.295903 121.522203,183.225703 Z" id="Path" fill="#FFFFFF" fill-rule="nonzero"></path>
                <path d="M134.684703,240.017505 C129.478203,238.964505 118.445102,239.572905 113.882102,237.583905 L113.730002,237.583905 C113.659802,235.559805 113.577902,233.535705 113.507702,231.511605 C115.695602,229.042904 118.503602,227.042204 120.937203,224.749004 C129.595203,224.655404 138.487203,224.667104 146.595303,227.498504 C147.294525,227.671539 147.92358,228.055508 148.397103,228.598304 C148.68368,229.065656 148.852324,229.595681 148.888503,230.142704 C149.883003,237.466905 147.051603,244.674105 144.770103,251.694105 C142.092617,260.012707 140.135408,268.546141 138.920103,277.200106 L137.270403,277.036306 L137.270403,277.036306 L132.180903,276.580006 C131.762689,276.583622 131.353738,276.456847 131.010903,276.217306 C130.734021,275.918324 130.565154,275.535286 130.531203,275.129206 C130.168503,272.789206 130.823703,270.320506 131.209803,267.933706 C132.099003,262.317705 131.443803,256.584705 131.818203,250.898505 C131.981246,247.107743 132.958919,243.396577 134.684703,240.017505 L134.684703,240.017505 Z" id="Path" fill="#505079" fill-rule="nonzero"></path>
                <path d="M121.803003,206.005604 C122.271003,204.297404 122.832603,202.600904 123.300603,200.881004 C124.205653,197.445036 124.650242,193.904063 124.622703,190.351003 C124.622703,189.941503 124.622703,189.543703 124.622703,189.181003 C125.441703,188.198203 126.272403,187.145203 127.091403,186.045403 C127.550209,187.461054 127.760018,188.945552 127.711503,190.432903 C127.721546,194.846772 127.014227,199.23294 125.617203,203.419904 C123.955803,208.392404 121.299903,213.212804 121.194603,218.419304 C121.194603,218.290604 121.194603,218.161904 121.194603,218.033204 C121.298406,217.249456 121.238649,216.452701 121.019103,215.693204 L121.019103,215.693204 C120.853066,213.619613 120.892257,211.534691 121.136103,209.468804 C121.280213,208.300711 121.503019,207.14368 121.803003,206.005604 Z" id="Path" fill="#3C3C66" fill-rule="nonzero"></path>
                <path d="M126.857403,185.577403 L127.044603,186.033703 C126.225603,187.133503 125.394903,188.186503 124.575903,189.169303 C124.61331,187.079361 123.797994,185.064307 122.317803,183.588403 L124.143003,184.079803 C123.836482,183.171278 123.444739,182.293772 122.973003,181.459003 C124.613901,182.458373 125.955617,183.880915 126.857403,185.577403 L126.857403,185.577403 Z" id="Path" fill="#3C3C66" fill-rule="nonzero"></path>
                <path d="M107.880002,321.496307 L101.129102,321.742007 L100.778102,321.742007 C101.877902,310.042007 97.1511018,298.412206 97.7595018,286.642006 C97.9935019,281.962006 99.0699019,277.387306 99.2571019,272.730706 C99.6900019,261.522105 94.9398018,250.500705 95.9109018,239.315505 L95.9694018,238.870905 C99.6745927,239.362365 103.429785,238.452774 106.499402,236.320305 C106.149073,238.089576 106.282458,239.920585 106.885502,241.620405 C107.809802,243.714705 109.880702,244.990005 111.834602,246.148305 C112.153566,246.38667 112.528082,246.539698 112.922702,246.592905 C113.367658,258.817505 113.168482,271.057057 112.326002,283.260706 C111.811202,289.321306 110.980502,295.335106 110.746502,301.395707 C110.533065,308.047462 110.924676,314.70485 111.916502,321.285707 L111.647402,321.285707 L107.880002,321.496307 Z" id="Path" fill="#3D3D65" fill-rule="nonzero"></path>
                <path d="M106.312202,235.945905 L106.476002,235.945905 L106.476002,236.378805 C103.406385,238.511274 99.6511927,239.420865 95.9460018,238.929405 C95.1543155,238.827262 94.3718985,238.662955 93.6060017,238.438005 C93.2877741,238.370583 92.9978553,238.207248 92.7753017,237.970005 C92.4945017,237.443505 92.4945017,236.811705 92.7753017,236.285205 C95.6652018,228.212204 94.5069018,219.320204 95.6652018,210.814304 C96.3453756,213.238854 97.1657562,215.621864 98.1222019,217.951304 C100.327598,224.106794 103.027406,230.073761 106.195202,235.793805 L106.312202,235.945905 Z" id="Path" fill="#48486F" fill-rule="nonzero"></path>
                <path d="M121.358403,184.267003 L120.750003,186.490003 L120.609602,186.946303 L120.609602,187.098403 C120.335964,186.891379 120.077872,186.664571 119.837402,186.419803 C119.463002,186.033703 118.866302,186.630403 119.240702,187.016503 C119.615102,187.402603 120.656403,188.572603 121.229703,187.800403 C121.471221,187.355012 121.637269,186.87268 121.721103,186.373003 C121.920003,185.764603 122.107203,185.203003 122.294403,184.547803 C122.481603,183.892603 121.522203,183.752203 121.358403,184.267003 Z" id="Path" fill="#CCCCCC" fill-rule="nonzero"></path>
                <path d="M120.913803,180.768703 C121.050199,181.602731 121.253659,182.424397 121.522203,183.225703 C121.46569,183.171529 121.402834,183.124387 121.335003,183.085303 C118.416233,180.929503 115.279007,179.086383 111.975002,177.586303 L112.466402,176.533303 C112.433756,176.420347 112.390671,176.310675 112.337702,176.205703 C112.96739,176.237574 113.583295,176.013992 114.045902,175.585603 C114.498855,174.961716 114.656956,174.171211 114.478802,173.421103 C114.33763,172.36662 114.012928,171.344997 113.519402,170.402503 C113.177726,169.840501 112.895408,169.244496 112.677002,168.624103 C112.455482,167.987452 112.584285,167.281255 113.016302,166.763803 C113.6954,166.202718 114.677205,166.202718 115.356302,166.763803 C116.00568,167.280114 116.519666,167.94669 116.853902,168.706003 C117.111302,169.185703 117.509102,169.747303 118.023902,169.665403 C118.538702,169.583503 118.772702,168.928303 118.831202,168.390103 C118.935094,167.381535 118.87982,166.362906 118.667402,165.371503 C118.246723,164.203258 118.126035,162.948102 118.316402,161.721103 C118.818937,160.587291 119.794383,159.731636 120.984003,159.381102 C122.048703,158.983302 123.195303,158.772702 124.224903,158.293002 C124.834059,158.896504 125.25302,159.665278 125.430003,160.504302 C125.591457,161.570483 125.886267,162.612145 126.307503,163.604803 C126.858264,164.584549 127.667756,165.394041 128.647503,165.944803 C128.839141,166.060549 128.999756,166.221164 129.115503,166.412803 C129.420201,166.920495 129.420201,167.554811 129.115503,168.062503 C128.90964,168.425735 128.7672,168.821402 128.694303,169.232503 C128.436903,170.870503 129.618603,172.403203 129.653703,174.052903 C129.668625,174.267504 129.624094,174.482065 129.525003,174.673003 C129.422922,174.829813 129.28699,174.961748 129.127203,175.059103 C127.361704,176.359685 125.43949,177.432824 123.405903,178.253203 C122.663741,178.543295 121.966492,178.937221 121.335003,179.423203 C121.124559,179.575563 120.95889,179.781639 120.855303,180.019903 C120.818062,180.113 120.798233,180.212144 120.796803,180.312403 C120.819532,180.468218 120.858752,180.621176 120.913803,180.768703 L120.913803,180.768703 Z" id="Path" fill="#FFDEC5" fill-rule="nonzero"></path>
                <path d="M121.311603,178.019203 C119.370384,177.645104 117.562291,176.765273 116.070002,175.468603 C115.660502,175.117603 115.063802,175.714303 115.473302,176.065303 C117.058979,177.459627 118.98378,178.41194 121.054203,178.826503 C121.627503,178.943503 121.849803,178.124503 121.311603,178.019203 Z" id="Path" fill="#EFB68F" fill-rule="nonzero"></path>
                <rect id="Rectangle" fill="#FF4D53" fill-rule="nonzero" x="200.438705" y="188.174803" width="65.3211019" height="65.3211019"></rect>
                <rect id="Rectangle" fill="#444345" fill-rule="nonzero" x="196.308605" y="188.174803" width="72.7155021" height="7.51140021"></rect>
                <rect id="Rectangle" fill="#FFFFFF" fill-rule="nonzero" x="204.849605" y="203.653904" width="56.9907016" height="3.19410009"></rect>
                <rect id="Rectangle" fill="#FFFFFF" fill-rule="nonzero" x="204.849605" y="212.124704" width="56.9907016" height="3.19410009"></rect>
                <rect id="Rectangle" fill="#FFFFFF" fill-rule="nonzero" x="204.849605" y="220.888004" width="56.9907016" height="3.19410009"></rect>
                <rect id="Rectangle" fill="#FFFFFF" fill-rule="nonzero" x="204.849605" y="229.358804" width="56.9907016" height="3.19410009"></rect>
                <rect id="Rectangle" fill="#FFFFFF" fill-rule="nonzero" x="204.849605" y="239.151705" width="56.9907016" height="3.19410009"></rect>
                <rect id="Rectangle" fill="#FF4D53" fill-rule="nonzero" x="159.488704" y="253.484205" width="128.009704" height="81.5022023"></rect>
                <rect id="Rectangle" fill="#444345" fill-rule="nonzero" x="155.616003" y="248.301105" width="138.574804" height="9.14940026"></rect>
                <rect id="Rectangle" fill="#FFFFFF" fill-rule="nonzero" x="168.006304" y="265.008705" width="6.31800018" height="10.1205003"></rect>
                <rect id="Rectangle" fill="#FFFFFF" fill-rule="nonzero" x="180.852904" y="265.008705" width="6.31800018" height="10.1205003"></rect>
                <rect id="Rectangle" fill="#FFFFFF" fill-rule="nonzero" x="193.687805" y="265.008705" width="6.31800018" height="10.1205003"></rect>
                <rect id="Rectangle" fill="#FFFFFF" fill-rule="nonzero" x="206.522705" y="265.008705" width="6.31800018" height="10.1205003"></rect>
                <rect id="Rectangle" fill="#FFFFFF" fill-rule="nonzero" x="219.357605" y="265.008705" width="6.31800018" height="10.1205003"></rect>
                <rect id="Rectangle" fill="#FFFFFF" fill-rule="nonzero" x="232.192506" y="265.008705" width="6.31800018" height="10.1205003"></rect>
                <rect id="Rectangle" fill="#FFFFFF" fill-rule="nonzero" x="245.039106" y="265.008705" width="6.31800018" height="10.1205003"></rect>
                <rect id="Rectangle" fill="#FFFFFF" fill-rule="nonzero" x="258.681306" y="265.008705" width="6.31800018" height="10.1205003"></rect>
                <rect id="Rectangle" fill="#FFFFFF" fill-rule="nonzero" x="271.516207" y="265.008705" width="6.31800018" height="10.1205003"></rect>
                <rect id="Rectangle" fill="#FFFFFF" fill-rule="nonzero" x="167.608504" y="282.488506" width="6.31800018" height="10.1205003"></rect>
                <rect id="Rectangle" fill="#FFFFFF" fill-rule="nonzero" x="180.443404" y="282.488506" width="6.31800018" height="10.1205003"></rect>
                <rect id="Rectangle" fill="#FFFFFF" fill-rule="nonzero" x="193.278305" y="282.488506" width="6.31800018" height="10.1205003"></rect>
                <rect id="Rectangle" fill="#FFFFFF" fill-rule="nonzero" x="206.124905" y="282.488506" width="6.31800018" height="10.1205003"></rect>
                <rect id="Rectangle" fill="#FFFFFF" fill-rule="nonzero" x="218.959805" y="282.488506" width="6.31800018" height="10.1205003"></rect>
                <rect id="Rectangle" fill="#FFFFFF" fill-rule="nonzero" x="231.794706" y="282.488506" width="6.31800018" height="10.1205003"></rect>
                <rect id="Rectangle" fill="#FFFFFF" fill-rule="nonzero" x="244.629606" y="282.488506" width="6.31800018" height="10.1205003"></rect>
                <rect id="Rectangle" fill="#FFFFFF" fill-rule="nonzero" x="258.271806" y="282.488506" width="6.31800018" height="10.1205003"></rect>
                <rect id="Rectangle" fill="#FFFFFF" fill-rule="nonzero" x="271.118407" y="282.488506" width="6.31800018" height="10.1205003"></rect>
                <rect id="Rectangle" fill="#FFFFFF" fill-rule="nonzero" x="167.807404" y="299.675806" width="6.31800018" height="10.1205003"></rect>
                <rect id="Rectangle" fill="#FFFFFF" fill-rule="nonzero" x="180.642304" y="299.675806" width="6.31800018" height="10.1205003"></rect>
                <rect id="Rectangle" fill="#FFFFFF" fill-rule="nonzero" x="193.488905" y="299.675806" width="6.31800018" height="10.1205003"></rect>
                <rect id="Rectangle" fill="#FFFFFF" fill-rule="nonzero" x="206.323805" y="299.675806" width="6.31800018" height="10.1205003"></rect>
                <rect id="Rectangle" fill="#FFFFFF" fill-rule="nonzero" x="219.158705" y="299.675806" width="6.31800018" height="10.1205003"></rect>
                <rect id="Rectangle" fill="#FFFFFF" fill-rule="nonzero" x="231.993606" y="299.675806" width="6.31800018" height="10.1205003"></rect>
                <rect id="Rectangle" fill="#FFFFFF" fill-rule="nonzero" x="244.840206" y="299.675806" width="6.31800018" height="10.1205003"></rect>
                <rect id="Rectangle" fill="#FFFFFF" fill-rule="nonzero" x="258.470706" y="299.675806" width="6.31800018" height="10.1205003"></rect>
                <rect id="Rectangle" fill="#FFFFFF" fill-rule="nonzero" x="271.317307" y="299.675806" width="6.31800018" height="10.1205003"></rect>
                <rect id="Rectangle" fill="#FFFFFF" fill-rule="nonzero" x="167.409604" y="317.155607" width="6.31800018" height="10.1205003"></rect>
                <rect id="Rectangle" fill="#FFFFFF" fill-rule="nonzero" x="180.244504" y="317.155607" width="6.31800018" height="10.1205003"></rect>
                <rect id="Rectangle" fill="#FFFFFF" fill-rule="nonzero" x="193.079405" y="317.155607" width="6.31800018" height="10.1205003"></rect>
                <rect id="Rectangle" fill="#FFFFFF" fill-rule="nonzero" x="205.914305" y="317.155607" width="6.31800018" height="10.1205003"></rect>
                <rect id="Rectangle" fill="#FFFFFF" fill-rule="nonzero" x="218.760905" y="317.155607" width="6.31800018" height="10.1205003"></rect>
                <rect id="Rectangle" fill="#FFFFFF" fill-rule="nonzero" x="231.595806" y="317.155607" width="6.31800018" height="10.1205003"></rect>
                <rect id="Rectangle" fill="#FFFFFF" fill-rule="nonzero" x="244.430706" y="317.155607" width="6.31800018" height="10.1205003"></rect>
                <rect id="Rectangle" fill="#FFFFFF" fill-rule="nonzero" x="258.072906" y="317.155607" width="6.31800018" height="10.1205003"></rect>
                <rect id="Rectangle" fill="#FFFFFF" fill-rule="nonzero" x="270.907807" y="317.155607" width="6.31800018" height="10.1205003"></rect>
            </g>
        </g>
    </g>
</svg>