<?xml version="1.0" encoding="UTF-8"?>
<svg width="322px" height="294px" viewBox="0 0 322 294" version="1.1" xmlns="http://www.w3.org/2000/svg" xmlns:xlink="http://www.w3.org/1999/xlink">
    <!-- Generator: Sketch 63.1 (92452) - https://sketch.com -->
    <title>openings</title>
    <desc>Created with Sketch.</desc>
    <defs>
        <path d="M229.112529,73.1696866 C252.96434,82.5319588 276.195319,93.40392 298.664319,105.719513 C321.453241,118.174417 344.80429,133.727857 355.272001,160.004665 C364.068525,182.089335 362.078293,208.867378 353.75274,232.015271 C345.427187,255.163165 331.2069,275.166955 315.771203,293.211376 C296.086619,316.382793 273.747216,337.16188 249.212358,355.121359 C230.98122,368.396463 210.516768,380.167866 189.414226,378.907186 C173.446788,377.950285 158.573218,369.444498 146.768557,357.642717 C134.963895,345.840937 125.909097,330.758353 117.902589,315.113779 C98.5274095,276.645777 85.3501028,235.360126 78.8575688,192.782326 C74.5124809,168.950931 74.2997843,143.995558 74.0263173,119.313585 C73.919969,107.800393 73.919969,95.7555906 78.4777534,85.2448673 C85.9677125,67.9295138 103.682301,59.605993 120.135903,56.3859448 C157.114727,49.1256475 194.321441,59.4996707 229.112529,73.1696866 Z" id="path-1"></path>
        <path d="M68.008001,93.0320023 L72.9200011,56.7840017 C73.5435195,52.1883238 73.4977101,47.5265391 72.7840011,42.9440015 L67.440001,8.688001 C66.6593221,3.68596997 62.3505863,-0.00141144719 57.2880009,-7.27595772e-13 L10.4720002,-7.27595772e-13 C7.4710203,-0.00123166369 4.61981819,1.31096329 2.66883436,3.59121409 C0.71785054,5.8714649 -0.137467935,8.89133897 0.328000005,11.856001 L5.18400008,42.9440015 C5.89770907,47.5265391 5.94351851,52.1883238 5.32000008,56.7840017 L0.776000012,90.2720022 C0.3764757,93.210219 1.26616989,96.177745 3.21630635,98.4115098 C5.1664428,100.645275 7.98674522,101.928002 10.9520002,101.928002 L57.8320009,101.928002 C62.9719862,101.926291 67.3194674,98.1256624 68.008001,93.0320023 L68.008001,93.0320023 Z" id="path-3"></path>
        <path d="M115.584002,13.9680002 L6.9760001,13.9680002 C3.30803512,13.9680002 0.329613282,11.0039228 0.312000005,7.33600011 L0.312000005,6.6640001 C0.312000005,2.98357447 3.29557448,0 6.9760001,0 L111.952002,0 C112.915268,0 113.839081,0.38265605 114.520214,1.06378819 C115.201346,1.74492032 115.584002,2.66873375 115.584002,3.63200005 L115.584002,13.9680002 Z" id="path-5"></path>
        <path d="M9.16000018,22.1280003 L64.3600001,22.1280003 C66.6939061,22.1280003 68.9322206,21.2008601 70.5825408,19.55054 C72.2328609,17.9002198 73.1600011,15.6619053 73.1600011,13.3280002 L73.1600011,3.63200005 C73.1600011,1.62610181 71.5338993,0 69.5280011,0 L0.36000005,0 L0.36000005,13.3280002 C0.36000005,18.1881061 4.29989431,22.1280003 9.16000018,22.1280003 Z" id="path-7"></path>
        <rect id="path-9" x="2" y="26.0215913" width="46.5680007" height="23.3760003" rx="2.40000004"></rect>
        <filter x="-31.1%" y="-53.5%" width="162.3%" height="224.1%" filterUnits="objectBoundingBox" id="filter-10">
            <feOffset dx="0" dy="2" in="SourceAlpha" result="shadowOffsetOuter1"></feOffset>
            <feGaussianBlur stdDeviation="4.5" in="shadowOffsetOuter1" result="shadowBlurOuter1"></feGaussianBlur>
            <feColorMatrix values="0 0 0 0 0   0 0 0 0 0   0 0 0 0 0  0 0 0 0.273218969 0" type="matrix" in="shadowBlurOuter1"></feColorMatrix>
        </filter>
    </defs>
    <g id="Page-1" stroke="none" stroke-width="1" fill="none" fill-rule="evenodd">
        <g id="Artboard" transform="translate(-968.000000, -91.000000)">
            <g id="openings" transform="translate(945.000000, 20.000000)">
                <g id="Group-17">
                    <path d="M289.638131,322 C306.252507,322 320.718439,321.832783 333.035926,321.541596 L335.851732,312.528078 C322.940359,312.194047 307.535825,312 289.638131,312 C161.155639,312 57,314.238576 57,317 C57,319.761424 161.155639,322 289.638131,322 Z" id="Oval" fill="#E4E4E4"></path>
                    <mask id="mask-2" fill="white">
                        <use xlink:href="#path-1"></use>
                    </mask>
                    <use id="Path" fill="#F8F8F8" fill-rule="nonzero" style="mix-blend-mode: multiply;" transform="translate(217.500000, 216.500000) rotate(-47.000000) translate(-217.500000, -216.500000) " xlink:href="#path-1"></use>
                    <g id="Group-16" mask="url(#mask-2)">
                        <g transform="translate(146.000000, 210.000000)" id="Group-3">
                            <g transform="translate(0.800001, 0.000001)">
                                <g id="Asset-1" transform="translate(0.000000, 0.600001)" fill-rule="nonzero">
                                    <rect id="Rectangle" fill="#505079" x="196.152003" y="14.6000002" width="9.20800014" height="89.1600013"></rect>
                                    <path d="M205.096003,107.640002 L201.656003,107.640002 C199.513138,107.640002 197.776003,105.902866 197.776003,103.760002 L208.976003,103.760002 C208.976003,105.902866 207.238868,107.640002 205.096003,107.640002 Z" id="Path" fill="#383838"></path>
                                    <rect id="Rectangle" fill="#383838" x="143.576002" y="8.78400013" width="7.94400012" height="7.94400012"></rect>
                                    <rect id="Rectangle" fill="#383838" x="58.296001" y="8.78400013" width="7.94400012" height="7.94400012"></rect>
                                    <rect id="Rectangle" fill="#383838" x="2.48000019" y="8.78400013" width="7.94400012" height="7.94400012"></rect>
                                    <rect id="Rectangle" fill="#383838" x="58.296001" y="8.78400013" width="7.94400012" height="7.94400012"></rect>
                                    <path d="M63.9920011,107.64001 L60.5520011,107.64001 C59.5236952,107.64001 58.5376225,107.230964 57.8112512,106.503092 C57.08488,105.77522 56.6778764,104.788305 56.6799927,103.760002 L67.8800012,103.760002 C67.8800012,104.790429 67.4701208,105.778537 66.7407485,106.506408 C66.0113762,107.23428 65.0224265,107.642126 63.9920011,107.64001 Z" id="Path" fill="#383838"></path>
                                    <rect id="Rectangle" fill="#383838" x="2.48000019" y="8.78400013" width="7.94400012" height="7.94400012"></rect>
                                    <path d="M8.16800027,107.64001 L4.72800022,107.64001 C2.58826022,107.63559 0.856000162,105.899746 0.856000162,103.760002 L12.0560003,103.760002 C12.0560003,104.790429 11.64612,105.778537 10.9167477,106.506408 C10.1873753,107.23428 9.19842567,107.642126 8.16800027,107.64001 Z" id="Path" fill="#383838"></path>
                                    <polygon id="Rectangle" fill="#8686A9" points="76.1440009 0 214.560003 0 214.560003 11.8880002 76.1440009 11.8880002"></polygon>
                                </g>
                            </g>
                        </g>
                    </g>
                </g>
                <g id="Group-16" transform="translate(45.000000, 125.000000)">
                    <g id="Group-3" transform="translate(0.800001, 0.000001)">
                        <g id="Asset-6" transform="translate(2.199999, -0.000001)">
                            <path d="M118.944002,60.4000009 L90.6080014,60.4000009 C88.3823835,60.4000009 86.2482699,61.2857544 84.6767734,62.8617537 C83.105277,64.437753 82.2256241,66.5743923 82.2319668,68.800001 L82.2319668,71.5120011 L87.3440013,71.5120011 C89.1532316,71.5103163 90.8562882,72.3658674 91.9350019,73.818346 C93.0137156,75.2708245 93.3405272,77.148473 92.8160014,78.8800012 L84.6960013,105.760002 L94.6800014,105.760002 L102.000002,81.6000012 C103.812315,75.6002233 109.332505,71.4893055 115.600002,71.4720011 L127.320017,71.4720011 L127.320017,68.800001 C127.324249,66.5750406 126.443911,64.4396378 124.872876,62.8641012 C123.30184,61.2885645 121.168965,60.4021199 118.944002,60.4000009 L118.944002,60.4000009 Z" id="Path" fill="#444345" fill-rule="nonzero"></path>
                            <path d="M2.19200006,34.0000625 C2.0411831,33.9978488 1.89204328,33.9680209 1.75200006,33.9120005 C1.1364164,33.6704072 0.832309317,32.9763275 1.07200005,32.3600005 L11.6000002,5.17600008 C12.4675335,2.92820631 14.4561228,1.30449576 16.8320003,0.904000013 C17.260719,0.82968877 17.696516,0.98974106 17.9752308,1.32386674 C18.2539456,1.65799241 18.3332347,2.11542983 18.1832308,2.52386675 C18.0332269,2.93230367 17.676719,3.22968881 17.2480003,3.30400005 C15.7041039,3.56024121 14.4125137,4.61727373 13.8560002,6.08000009 L3.30400008,33.2800005 C3.11139021,33.7213925 2.67356179,34.0048786 2.19200006,34.0000625 Z" id="Path" fill="#FDF093" fill-rule="nonzero"></path>
                            <path d="M74.8720011,96.8400014 L79.7840012,60.5920009 C80.4043079,55.9959018 80.3558047,51.334198 79.6400012,46.7520007 L74.2960011,12.4960002 C73.5153222,7.49396916 69.2065865,3.80658774 64.144001,3.80799965 L17.3360003,3.80799965 C14.3345515,3.80799965 11.4828835,5.11912678 9.53070692,7.3989737 C7.57853031,9.67882062 6.72115977,12.6984523 7.18400014,15.6640002 L12.0320002,46.7520007 C12.7457092,51.3345382 12.7915186,55.996323 12.1680002,60.5920009 L7.60000014,94.0800014 C7.20302604,97.0190779 8.09472888,99.9863963 10.0460701,102.219785 C11.9974114,104.453174 14.8182359,105.736002 17.7840003,105.736002 L64.688001,105.736002 C69.8297163,105.734796 74.1797703,101.934906 74.8720011,96.8400014 Z" id="Path" fill="#F72631" fill-rule="nonzero"></path>
                            <g id="Group-5" transform="translate(15.216000, 3.807999)">
                                <mask id="mask-4" fill="white">
                                    <use xlink:href="#path-3"></use>
                                </mask>
                                <use id="Path" fill="#FB464C" fill-rule="nonzero" xlink:href="#path-3"></use>
                                <rect id="Rectangle" fill="#000000" fill-rule="nonzero" opacity="0.0928385417" mask="url(#mask-4)" x="-5.60000008" y="51.7920016" width="86.4320013" height="57.7760009"></rect>
                            </g>
                            <path d="M120.504002,169.168003 C119.347225,166.735666 117.715147,164.559562 115.704002,162.768002 C114.770553,161.895376 113.78472,161.080528 112.752002,160.328002 C112.248002,159.944002 111.720002,159.632002 111.200002,159.280002 C110.680002,158.928002 110.160002,158.568002 109.600002,158.288002 C105.353815,155.891865 100.836439,154.011863 96.1440015,152.688002 C91.5642032,151.356263 86.8930514,150.361604 82.1680013,149.712002 C79.2400012,149.264002 76.3200012,148.968002 73.3680011,148.744002 L73.3680011,121.160002 L62.800001,121.160002 L62.800001,148.800002 C59.8720009,149.024002 56.9440009,149.320002 54.0000008,149.768002 C49.2749507,150.417604 44.6037989,151.412263 40.0240006,152.744002 C35.3336364,154.066503 30.8187499,155.946587 26.5760004,158.344002 C26.0240004,158.624002 25.5120004,159.008002 24.9760004,159.336002 C24.4400004,159.664002 23.9280004,160.000002 23.4240004,160.384002 C22.3912817,161.136528 21.4054494,161.951376 20.4720003,162.824002 C18.4608547,164.615562 16.8287769,166.791666 15.6720003,169.224003 C15.0677951,170.612003 15.6446841,172.230681 16.9905499,172.923685 C18.3364157,173.61669 19.9891176,173.14606 20.7680003,171.848003 L20.7680003,171.784003 C21.768465,170.188217 23.0700042,168.802444 24.6000004,167.704002 C25.3932025,167.094701 26.2241993,166.53625 27.0880004,166.032002 C27.5120004,165.760002 28.0000004,165.544002 28.4400005,165.304002 C28.8800005,165.064002 29.3360005,164.808002 29.8240005,164.616002 C33.7185754,162.884397 37.8062694,161.624785 42.0000007,160.864002 C44.9402211,160.299349 47.9104454,159.904031 50.8960008,159.680002 C50.3304399,160.673134 49.8358712,161.705045 49.4160008,162.768002 C48.5216865,165.07933 47.945746,167.501509 47.7040007,169.968003 C47.5847421,171.277208 48.4795592,172.462801 49.7712924,172.707071 C51.0630255,172.951341 52.3289714,172.174354 52.6960008,170.912003 L52.6960008,170.864003 C53.6455378,167.143811 55.7249721,163.80945 58.6480009,161.320002 C59.8147776,160.400403 61.1408771,159.703455 62.560001,159.264002 C64.088001,159.264002 65.608001,159.336002 67.136001,159.384002 C67.4022875,159.404142 67.6697146,159.404142 67.936001,159.384002 L68.216001,159.384002 C68.392001,159.384002 68.5680011,159.384002 68.7440011,159.384002 L69.0000011,159.384002 C70.5306677,159.336002 72.0586678,159.296002 73.5840011,159.264002 C75.003125,159.703455 76.3292245,160.400403 77.4960012,161.320002 C80.41903,163.80945 82.4984642,167.143811 83.4480013,170.864003 L83.4480013,170.920003 C83.8139125,172.185834 85.08336,172.964974 86.3776908,172.718139 C87.6720215,172.471303 88.5656299,171.279657 88.4400013,169.968003 C88.1982561,167.501509 87.6223156,165.07933 86.7280013,162.768002 C86.3081309,161.705045 85.8135622,160.673134 85.2480013,159.680002 C88.2335567,159.904031 91.203781,160.299349 94.1440014,160.864002 C98.3244316,161.609292 102.401168,162.850038 106.288002,164.560002 C106.776002,164.752002 107.208002,165.016002 107.672002,165.248002 C108.136002,165.480002 108.600002,165.704002 109.024002,165.976002 C109.887803,166.48025 110.7188,167.038701 111.512002,167.648002 C113.041998,168.746444 114.343537,170.132217 115.344002,171.728003 L115.384002,171.808003 C116.166463,173.104743 117.821419,173.571015 119.165751,172.873484 C120.510084,172.175952 121.081721,170.554373 120.472002,169.168003 L120.504002,169.168003 Z" id="Path" fill="#383838" fill-rule="nonzero"></path>
                            <circle id="Oval" fill="#383838" fill-rule="nonzero" transform="translate(15.855163, 179.687916) rotate(-22.500000) translate(-15.855163, -179.687916) " cx="15.8551634" cy="179.687916" r="9.80000015"></circle>
                            <path d="M15.8560003,186.136008 C13.2473021,186.139239 10.8936731,184.570288 9.89312411,182.161094 C8.89257507,179.751899 9.44226216,176.977188 11.2857464,175.131414 C13.1292306,173.28564 15.903257,172.732508 18.3136918,173.730066 C20.7241266,174.727623 22.2960004,177.079303 22.2960004,179.688003 C22.2916046,183.244191 19.4121804,186.127192 15.8560003,186.136008 Z" id="Path" fill="#4A4A4A" fill-rule="nonzero"></path>
                            <circle id="Oval" fill="#383838" fill-rule="nonzero" transform="translate(48.063827, 179.690012) rotate(-45.000000) translate(-48.063827, -179.690012) " cx="48.0638271" cy="179.690012" r="9.80000015"></circle>
                            <path d="M48.0640007,186.136003 C45.4517481,186.155449 43.0858817,184.596834 42.0727123,182.188987 C41.0595429,179.781139 41.5992953,176.999903 43.4395741,175.145822 C45.279853,173.291741 48.0569781,172.731223 50.4723287,173.726373 C52.8876794,174.721523 54.4640008,177.075678 54.4640008,179.688003 C54.4597466,183.228679 51.6045462,186.105293 48.0640007,186.136003 L48.0640007,186.136003 Z" id="Path" fill="#4A4A4A" fill-rule="nonzero"></path>
                            <circle id="Oval" fill="#383838" fill-rule="nonzero" transform="translate(88.669391, 179.677591) rotate(-76.650000) translate(-88.669391, -179.677591) " cx="88.6693911" cy="179.677591" r="9.80000015"></circle>
                            <circle id="Oval" fill="#4A4A4A" fill-rule="nonzero" cx="88.6720014" cy="179.688003" r="6.4400001"></circle>
                            <circle id="Oval" fill="#383838" fill-rule="nonzero" transform="translate(120.874184, 179.675923) rotate(-76.650000) translate(-120.874184, -179.675923) " cx="120.874184" cy="179.675923" r="9.80000015"></circle>
                            <path d="M120.880002,186.136003 C117.31887,186.136003 114.432002,183.249135 114.432002,179.688003 C114.432002,176.126871 117.31887,173.240003 120.880002,173.240003 C124.441134,173.240003 127.328002,176.126871 127.328002,179.688003 C127.323594,183.247307 124.439307,186.131595 120.880002,186.136003 Z" id="Path" fill="#4A4A4A" fill-rule="nonzero"></path>
                            <path d="M34.2000005,109.672002 L102.000002,109.672002 L102.000002,116.704002 C102.000002,120.930492 100.321035,124.983876 97.3324551,127.972456 C94.3438754,130.961035 90.2904914,132.640002 86.0640013,132.640002 L50.1360008,132.640002 C45.9095107,132.640002 41.8561267,130.961035 38.8675469,127.972456 C35.8789672,124.983876 34.2000005,120.930492 34.2000005,116.704002 L34.2000005,109.672002 Z" id="Path" fill="#444345" fill-rule="nonzero"></path>
                            <g id="Group-10" transform="translate(15.104000, 99.064001)">
                                <mask id="mask-6" fill="white">
                                    <use xlink:href="#path-5"></use>
                                </mask>
                                <use id="Path" fill="#D62C32" fill-rule="nonzero" xlink:href="#path-5"></use>
                                <rect id="Rectangle" fill="#000000" fill-rule="nonzero" opacity="0.1" mask="url(#mask-6)" x="-3.20000005" y="6.9680001" width="53.8640008" height="10.0080001"></rect>
                            </g>
                            <g id="Group-6" transform="translate(57.504001, 99.032001)">
                                <mask id="mask-8" fill="white">
                                    <use xlink:href="#path-7"></use>
                                </mask>
                                <use id="Path" fill="#FF4D53" fill-rule="nonzero" xlink:href="#path-7"></use>
                                <rect id="Rectangle" fill="#000000" fill-rule="nonzero" opacity="0.1" mask="url(#mask-8)" x="-3" y="17.0080003" width="78.1440012" height="16.6000002"></rect>
                            </g>
                            <path d="M59.9040009,60.3999396 L31.6000005,60.3999396 C29.3688426,60.3914676 27.2264883,61.2734676 25.6480591,62.8503949 C24.06963,64.4273223 23.185591,66.568836 23.1919658,68.800001 L23.1919658,71.5120011 L28.3040005,71.5120011 C30.1132308,71.5103163 31.8162874,72.3658674 32.8950011,73.818346 C33.9737148,75.2708245 34.3005263,77.148473 33.7760005,78.8800012 L25.6560004,105.760002 L35.6400006,105.760002 L42.9200007,81.6000012 C44.7477469,75.5927646 50.2888649,71.4872703 56.5680009,71.4880011 L68.2800355,71.4880011 L68.2800355,68.800001 C68.2863782,66.5743923 67.4067253,64.437753 65.8352289,62.8617537 C64.2637324,61.2857544 62.1296188,60.3999396 59.9040009,60.3999396 L59.9040009,60.3999396 Z" id="Path" fill="#444345" fill-rule="nonzero"></path>
                            <rect id="Rectangle" fill="#FFBFC0" fill-rule="nonzero" x="25.6560004" y="9.40800014" width="50.4160008" height="21.8480003" rx="9.60000014"></rect>
                        </g>
                        <g id="Group-30" transform="translate(0.292026, 0.773922)" fill-rule="nonzero">
                            <g id="Rectangle" transform="translate(25.284000, 37.709591) rotate(-9.890000) translate(-25.284000, -37.709591) ">
                                <use fill="black" fill-opacity="1" filter="url(#filter-10)" xlink:href="#path-9"></use>
                                <use fill="#FFFFFF" xlink:href="#path-9"></use>
                            </g>
                            <path d="M8.92320002,43.064 C9.04266668,43.064 9.15360002,43.0341333 9.25600002,42.9744 C9.35840002,42.9146667 9.43520002,42.8293333 9.48640002,42.7184 L9.48640002,42.7184 L13.16,34.552 C13.1941334,34.4837333 13.2112,34.4154667 13.2112,34.3472 C13.2112,34.2192 13.1578667,34.1104 13.0512,34.0208 C12.9445334,33.9312 12.8229334,33.8864 12.6864,33.8864 C12.5925334,33.8864 12.5050667,33.912 12.424,33.9632 C12.3429334,34.0144 12.2810667,34.0869333 12.2384,34.1808 L12.2384,34.1808 L8.94880002,41.6432 L5.64640002,34.1808 C5.55253335,33.9845333 5.40320002,33.8864 5.19840002,33.8864 C5.06186668,33.8864 4.93813335,33.9312 4.82720002,34.0208 C4.71626668,34.1104 4.66080002,34.2234667 4.66080002,34.36 C4.66080002,34.4197333 4.67360002,34.4837333 4.69920002,34.552 L4.69920002,34.552 L8.36000002,42.7184 C8.41120002,42.8293333 8.48800002,42.9146667 8.59040002,42.9744 C8.69280002,43.0341333 8.80373335,43.064 8.92320002,43.064 Z M15.8352,43.0896 C16.2704,43.0896 16.6544,42.9893333 16.9872,42.7888 C17.32,42.5882667 17.5674667,42.3045333 17.7296,41.9376 L17.7296,41.9376 L17.7296,42.552 C17.7296,42.7056 17.7765333,42.8293333 17.8704,42.9232 C17.9642667,43.0170667 18.088,43.064 18.2416,43.064 C18.3952,43.064 18.5168,43.0170667 18.6064,42.9232 C18.696,42.8293333 18.7408,42.7056 18.7408,42.552 L18.7408,42.552 L18.7408,39.0704 C18.7408,37.432 17.96,36.6128 16.3984,36.6128 C16.0229333,36.6128 15.6453333,36.6618667 15.2656,36.76 C14.8858667,36.8581333 14.5466667,36.9925333 14.248,37.1632 C14.0858667,37.2570667 13.9685333,37.3488 13.896,37.4384 C13.8234667,37.528 13.7872,37.6325333 13.7872,37.752 C13.7872,37.8714667 13.8213333,37.9696 13.8896,38.0464 C13.9578667,38.1232 14.0432,38.1616 14.1456,38.1616 C14.2394667,38.1616 14.4016,38.0890667 14.632,37.944 C15.2293333,37.6282667 15.8181333,37.4704 16.3984,37.4704 C16.8677333,37.4704 17.2069333,37.5898667 17.416,37.8288 C17.6250667,38.0677333 17.7296,38.4432 17.7296,38.9552 L17.7296,38.9552 L17.7296,39.3776 L17.448,39.3776 C16.4752,39.3776 15.7157333,39.4352 15.1696,39.5504 C14.6234667,39.6656 14.2309333,39.8533333 13.992,40.1136 C13.7530667,40.3738667 13.6336,40.7386667 13.6336,41.208 C13.6336,41.5578667 13.7317333,41.8778667 13.928,42.168 C14.1242667,42.4581333 14.3909333,42.6842667 14.728,42.8464 C15.0650667,43.0085333 15.4341333,43.0896 15.8352,43.0896 Z M15.976,42.2704 C15.6090667,42.2704 15.304,42.1616 15.0608,41.944 C14.8176,41.7264 14.696,41.4512 14.696,41.1184 C14.696,40.8282667 14.7792,40.6085333 14.9456,40.4592 C15.112,40.3098667 15.3914667,40.2032 15.784,40.1392 C16.1765333,40.0752 16.7482667,40.0432 17.4992,40.0432 L17.4992,40.0432 L17.7296,40.0432 L17.7296,40.4144 C17.7296,40.9605333 17.5653333,41.4064 17.2368,41.752 C16.9082667,42.0976 16.488,42.2704 15.976,42.2704 Z M23.464,43.0896 C23.8053333,43.0896 24.1445333,43.0405333 24.4816,42.9424 C24.8186667,42.8442667 25.1066667,42.7141333 25.3456,42.552 C25.5077333,42.4410667 25.6186667,42.3408 25.6784,42.2512 C25.7381333,42.1616 25.768,42.0613333 25.768,41.9504 C25.768,41.8309333 25.736,41.7328 25.672,41.656 C25.608,41.5792 25.5290667,41.5408 25.4352,41.5408 C25.3754667,41.5408 25.3029333,41.5621333 25.2176,41.6048 C25.1322667,41.6474667 25.0426667,41.6986667 24.9488,41.7584 C24.7354667,41.9034667 24.5242667,42.0186667 24.3152,42.104 C24.1061333,42.1893333 23.8565333,42.232 23.5664,42.232 C22.9434667,42.232 22.4592,42.0272 22.1136,41.6176 C21.768,41.208 21.5952,40.6277333 21.5952,39.8768 C21.5952,39.1258667 21.768,38.5392 22.1136,38.1168 C22.4592,37.6944 22.9434667,37.4832 23.5664,37.4832 C23.8565333,37.4832 24.1018667,37.5258667 24.3024,37.6112 C24.5029333,37.6965333 24.7141333,37.8117333 24.936,37.9568 C24.9530667,37.9653333 24.9850667,37.9866667 25.032,38.0208 C25.0789333,38.0549333 25.1365333,38.0890667 25.2048,38.1232 C25.2730667,38.1573333 25.3370667,38.1744 25.3968,38.1744 C25.4992,38.1744 25.5824,38.136 25.6464,38.0592 C25.7104,37.9824 25.7424,37.8842667 25.7424,37.7648 C25.7424,37.6453333 25.7104,37.5365333 25.6464,37.4384 C25.5824,37.3402667 25.4736,37.24 25.32,37.1376 C25.0810667,36.9669333 24.8016,36.8368 24.4816,36.7472 C24.1616,36.6576 23.8394667,36.6128 23.5152,36.6128 C22.9264,36.6128 22.4058667,36.7493333 21.9536,37.0224 C21.5013333,37.2954667 21.1493333,37.6794667 20.8976,38.1744 C20.6458667,38.6693333 20.52,39.2368 20.52,39.8768 C20.52,40.5168 20.6416,41.08 20.8848,41.5664 C21.128,42.0528 21.4736,42.4282667 21.9216,42.6928 C22.3696,42.9573333 22.8837333,43.0896 23.464,43.0896 Z M29.2624,43.0896 C29.6976,43.0896 30.0816,42.9893333 30.4144,42.7888 C30.7472,42.5882667 30.9946667,42.3045333 31.1568,41.9376 L31.1568,41.9376 L31.1568,42.552 C31.1568,42.7056 31.2037333,42.8293333 31.2976,42.9232 C31.3914667,43.0170667 31.5152,43.064 31.6688,43.064 C31.8224,43.064 31.944,43.0170667 32.0336,42.9232 C32.1232,42.8293333 32.168,42.7056 32.168,42.552 L32.168,42.552 L32.168,39.0704 C32.168,37.432 31.3872,36.6128 29.8256,36.6128 C29.4501333,36.6128 29.0725333,36.6618667 28.6928,36.76 C28.3130667,36.8581333 27.9738667,36.9925333 27.6752,37.1632 C27.5130667,37.2570667 27.3957333,37.3488 27.3232,37.4384 C27.2506667,37.528 27.2144,37.6325333 27.2144,37.752 C27.2144,37.8714667 27.2485333,37.9696 27.3168,38.0464 C27.3850667,38.1232 27.4704,38.1616 27.5728,38.1616 C27.6666667,38.1616 27.8288,38.0890667 28.0592,37.944 C28.6565333,37.6282667 29.2453333,37.4704 29.8256,37.4704 C30.2949333,37.4704 30.6341333,37.5898667 30.8432,37.8288 C31.0522667,38.0677333 31.1568,38.4432 31.1568,38.9552 L31.1568,38.9552 L31.1568,39.3776 L30.8752,39.3776 C29.9024,39.3776 29.1429333,39.4352 28.5968,39.5504 C28.0506667,39.6656 27.6581333,39.8533333 27.4192,40.1136 C27.1802667,40.3738667 27.0608,40.7386667 27.0608,41.208 C27.0608,41.5578667 27.1589333,41.8778667 27.3552,42.168 C27.5514667,42.4581333 27.8181333,42.6842667 28.1552,42.8464 C28.4922667,43.0085333 28.8613333,43.0896 29.2624,43.0896 Z M29.4032,42.2704 C29.0362667,42.2704 28.7312,42.1616 28.488,41.944 C28.2448,41.7264 28.1232,41.4512 28.1232,41.1184 C28.1232,40.8282667 28.2064,40.6085333 28.3728,40.4592 C28.5392,40.3098667 28.8186667,40.2032 29.2112,40.1392 C29.6037333,40.0752 30.1754667,40.0432 30.9264,40.0432 L30.9264,40.0432 L31.1568,40.0432 L31.1568,40.4144 C31.1568,40.9605333 30.9925333,41.4064 30.664,41.752 C30.3354667,42.0976 29.9152,42.2704 29.4032,42.2704 Z M39.1824,43.064 C39.3445333,43.064 39.4704,43.0192 39.56,42.9296 C39.6496,42.84 39.6944,42.7141333 39.6944,42.552 L39.6944,42.552 L39.6944,39.0832 C39.6944,37.4362667 38.9477333,36.6128 37.4544,36.6128 C36.9850667,36.6128 36.5669333,36.7130667 36.2,36.9136 C35.8330667,37.1141333 35.5472,37.4064 35.3424,37.7904 L35.3424,37.7904 L35.3424,37.1376 C35.3424,36.9925333 35.2976,36.8730667 35.208,36.7792 C35.1184,36.6853333 34.9968,36.6384 34.8432,36.6384 C34.6810667,36.6384 34.5530667,36.6853333 34.4592,36.7792 C34.3653333,36.8730667 34.3184,36.9968 34.3184,37.1504 L34.3184,37.1504 L34.3184,42.552 C34.3184,42.7141333 34.3653333,42.84 34.4592,42.9296 C34.5530667,43.0192 34.6810667,43.064 34.8432,43.064 C35.0053333,43.064 35.1312,43.0192 35.2208,42.9296 C35.3104,42.84 35.3552,42.7141333 35.3552,42.552 L35.3552,42.552 L35.3552,39.4288 C35.3552,38.8314667 35.5258667,38.3578667 35.8672,38.008 C36.2085333,37.6581333 36.6650667,37.4832 37.2368,37.4832 C37.7317333,37.4832 38.0922667,37.6154667 38.3184,37.88 C38.5445333,38.1445333 38.6576,38.5669333 38.6576,39.1472 L38.6576,39.1472 L38.6576,42.552 C38.6576,42.7141333 38.7045333,42.84 38.7984,42.9296 C38.8922667,43.0192 39.0202667,43.064 39.1824,43.064 Z M44.5328,43.064 C44.7461333,43.0810667 44.9061333,43.0533333 45.0128,42.9808 C45.1194667,42.9082667 45.1728,42.7994667 45.1728,42.6544 C45.1728,42.4069333 45.0234667,42.2704 44.7248,42.2448 L44.7248,42.2448 L44.3792,42.2192 C43.9952,42.1936 43.7072,42.0762667 43.5152,41.8672 C43.3232,41.6581333 43.2272,41.3189333 43.2272,40.8496 L43.2272,40.8496 L43.2272,37.5856 L44.648,37.5856 C44.7845333,37.5856 44.8933333,37.5493333 44.9744,37.4768 C45.0554667,37.4042667 45.096,37.3082667 45.096,37.1888 C45.096,37.0608 45.0554667,36.9584 44.9744,36.8816 C44.8933333,36.8048 44.7845333,36.7664 44.648,36.7664 L44.648,36.7664 L43.2272,36.7664 L43.2272,35.32 C43.2272,35.1578667 43.1802667,35.032 43.0864,34.9424 C42.9925333,34.8528 42.8688,34.808 42.7152,34.808 C42.5530667,34.808 42.4250667,34.8528 42.3312,34.9424 C42.2373333,35.032 42.1904,35.1578667 42.1904,35.32 L42.1904,35.32 L42.1904,36.7664 L41.3328,36.7664 C41.1877333,36.7664 41.0746667,36.8048 40.9936,36.8816 C40.9125333,36.9584 40.872,37.0608 40.872,37.1888 C40.872,37.3082667 40.9125333,37.4042667 40.9936,37.4768 C41.0746667,37.5493333 41.1877333,37.5856 41.3328,37.5856 L41.3328,37.5856 L42.1904,37.5856 L42.1904,40.7984 C42.1904,41.5237333 42.3525333,42.0656 42.6768,42.424 C43.0010667,42.7824 43.5045333,42.9872 44.1872,43.0384 L44.1872,43.0384 L44.5328,43.064 Z" id="Vacant" fill="#1C1C1C" transform="translate(24.916800, 38.488000) rotate(-11.000000) translate(-24.916800, -38.488000) "></path>
                            <path d="M43.2839733,26.4260777 C42.9343008,26.4249888 42.6020204,26.2734223 42.3719733,26.0100777 L23.283973,3.96207738 C22.2630272,2.77938217 20.6939522,2.2229079 19.1559729,2.49807736 C18.4932312,2.61295258 17.8628481,2.16881905 17.7479729,1.50607734 C17.6330977,0.843335631 18.0772312,0.212952549 18.7399729,0.0980773194 C21.120633,-0.310634631 23.5392368,0.57578063 25.091973,2.42607735 L44.1879733,24.4100777 C44.3970791,24.6493108 44.5020175,24.9621282 44.4794863,25.2790668 C44.4569551,25.5960053 44.3088193,25.8908317 44.0679733,26.0980777 C43.8570986,26.3019794 43.5772222,26.4190705 43.2839733,26.4260777 L43.2839733,26.4260777 Z" id="Path" fill="#FDF093"></path>
                        </g>
                        <g id="Asset-1" transform="translate(91.000000, 85.600001)" fill-rule="nonzero">
                            <rect id="Rectangle" fill="#8686A9" x="155.568002" y="14.6000002" width="9.20800014" height="89.1600013"></rect>
                            <rect id="Rectangle" fill="#505079" x="150.328002" y="14.6000002" width="9.20800014" height="89.1600013"></rect>
                            <path d="M159.272002,107.64001 L155.832002,107.64001 C153.689137,107.64001 151.952002,105.902866 151.952002,103.760002 L163.152011,103.760002 C163.154132,104.789693 162.746031,105.777824 162.017928,106.505927 C161.289825,107.234031 160.301694,107.642131 159.272002,107.64001 Z" id="Path" fill="#383838"></path>
                            <rect id="Rectangle" fill="#8686A9" x="70.288001" y="14.6000002" width="9.20800014" height="89.1600013"></rect>
                            <rect id="Rectangle" fill="#505079" x="65.056001" y="14.6000002" width="9.20800014" height="89.1600013"></rect>
                            <path d="M73.9920011,107.64001 L70.5520011,107.64001 C69.5236952,107.64001 68.5376225,107.230964 67.8112512,106.503092 C67.08488,105.77522 66.6778764,104.788305 66.6799927,103.760002 L77.8800012,103.760002 C77.8800012,104.790429 77.4701208,105.778537 76.7407485,106.506408 C76.0113762,107.23428 75.0224265,107.642126 73.9920011,107.64001 Z" id="Path" fill="#383838"></path>
                            <rect id="Rectangle" fill="#8686A9" x="14.4640002" y="14.6000002" width="9.20800014" height="89.1600013"></rect>
                            <rect id="Rectangle" fill="#505079" x="9.23200014" y="14.6000002" width="9.20800014" height="89.1600013"></rect>
                            <path d="M18.1680003,107.64001 L14.7280002,107.64001 C12.5882602,107.63559 10.8560002,105.899746 10.8560002,103.760002 L22.0560003,103.760002 C22.0560003,104.790429 21.64612,105.778537 20.9167477,106.506408 C20.1873753,107.23428 19.1984257,107.642126 18.1680003,107.64001 Z" id="Path" fill="#383838"></path>
                            <path d="M58.1440009,0 L58.1440009,11.8880002 L58.1440009,0 Z" id="Rectangle" fill="#8686A9"></path>
                            <rect id="Rectangle" fill="#505079" x="0" y="0" width="86.3680013" height="11.8880002"></rect>
                        </g>
                        <g id="Asset-3" transform="translate(122.200000, 44.000000)" fill-rule="nonzero">
                            <polygon id="Path" fill="#FFBFC0" points="16.5760002 26.8080004 7.0240001 26.8080004 9.55200014 41.6400006 23.6080004 41.6400006 26.1360004 26.8080004"></polygon>
                            <path d="M13.0800002,18.8400003 C11.9387007,18.845111 10.7988969,18.7568163 9.67200014,18.5760003 C9.41600014,18.5760003 9.20000014,18.4480003 8.97600013,18.3920003 C8.75200013,18.3360003 8.57600013,18.2240003 8.38400012,18.1440003 C8.07522579,17.9789678 7.80308567,17.7530915 7.58400011,17.4800003 C7.16350639,16.8575732 6.91763283,16.1337656 6.8720001,15.3840002 C6.76448657,14.3975878 6.76448657,13.4024126 6.8720001,12.4160002 L6.8720001,12.3120002 C6.96183571,11.1434307 6.37543939,10.0264221 5.36257302,9.4367384 C4.34970665,8.84705469 3.08881653,8.88858598 2.11694953,9.543643 C1.14508252,10.1987 0.63346168,11.3518751 0.800000012,12.5120002 C0.961053815,13.9753428 1.29401722,15.4146039 1.79200003,16.8000003 C1.85600003,16.9840003 1.91200003,17.1600003 1.99200003,17.3440003 L2.26400003,17.8960003 L2.53600004,18.4480003 C2.62400004,18.6240003 2.76800004,18.8080003 2.88000004,18.9920003 L3.25600005,19.5200003 C3.39425429,19.6975306 3.54390317,19.8658856 3.70400006,20.0240003 L4.17600006,20.5040003 C4.35200006,20.6480003 4.53600007,20.7840003 4.72000007,20.9200003 C5.44355538,21.43548 6.25775818,21.8100133 7.12000011,22.0240003 C7.5109003,22.1075084 7.90619266,22.168939 8.30400012,22.2080003 C8.67612171,22.24486 9.05019716,22.2582198 9.42400014,22.2480003 C10.74091,22.1813331 12.0496917,22.0020113 13.3360002,21.7120003 C14.0513017,21.5619039 14.5426086,20.9022734 14.4815756,20.1739465 C14.4205426,19.4456196 13.8263061,18.8769564 13.0960002,18.8480003 L13.0800002,18.8400003 Z" id="Path" fill="#A2DE52"></path>
                            <path d="M16.5760002,0 C11.3760002,0 7.20000011,4.15200006 9.14400014,12.8960002 C11.0880002,21.6400003 10.9280002,23.6640004 11.8240002,25.6960004 C12.7200002,27.7280004 16.5760002,27.4960004 16.5760002,27.4960004 C16.5760002,27.4960004 20.4400003,27.7280004 21.3760003,25.6960004 C22.3120003,23.6640004 22.1200003,21.6320003 24.0480004,12.8960002 C25.9760004,4.16000006 21.7840003,0 16.5760002,0 Z" id="Path" fill="#A2DE52"></path>
                            <path d="M20.0000003,13.2960002 C21.2781716,13.3080153 22.5549709,13.2089763 23.8160004,13.0000002 C24.087651,12.9514883 24.3551224,12.8819458 24.6160004,12.7920002 C24.8640004,12.7200002 25.0640004,12.6080002 25.2880004,12.5200002 C25.6336666,12.3346825 25.9362757,12.078419 26.1760004,11.7680002 C26.6472669,11.0721585 26.9235092,10.2627685 26.9760004,9.42400014 C27.0953449,8.31787663 27.0953449,7.20212361 26.9760004,6.09600009 L26.9760004,5.98400009 C26.8368319,4.73675038 27.3895414,3.51299614 28.4173107,2.79279477 C29.44508,2.0725934 30.7839979,1.97080431 31.9088304,2.5273576 C33.0336629,3.08391088 33.765019,4.2100461 33.8160005,5.46400008 C33.8402343,5.71140807 33.8402343,5.9605921 33.8160005,6.20800009 C33.639648,7.84385463 33.2773067,9.45426021 32.7360005,11.0080002 C32.6640005,11.2160002 32.6000005,11.4160002 32.5120005,11.6240002 L32.2080005,12.2480002 L31.9040005,12.8560002 C31.8000005,13.0560002 31.6400005,13.2640002 31.5120005,13.4640002 L31.0960005,14.0640002 C30.9389758,14.2602602 30.7706929,14.4472412 30.5920005,14.6240002 L30.0640004,15.1600002 C29.8640004,15.3280002 29.6560004,15.4800002 29.4480004,15.6320002 C28.6448567,16.2106902 27.7376121,16.6290005 26.7760004,16.8640003 C26.3380623,16.9625479 25.8945956,17.034678 25.4480004,17.0800003 C25.0240004,17.0800003 24.5920004,17.1440003 24.2000004,17.1200003 C22.7241775,17.0459539 21.2574479,16.8452154 19.8160003,16.5200002 C18.9323447,16.4470986 18.2750987,15.6716558 18.3480003,14.7880002 C18.4209019,13.9043446 19.1963447,13.2470986 20.0800003,13.3200002 L20.0000003,13.2960002 Z" id="Path" fill="#A2DE52"></path>
                            <path d="M27.2000004,29.0880004 L5.94400009,29.0880004 C5.60794486,29.0862511 5.29070653,28.9326194 5.08096117,28.6700493 C4.87121582,28.4074791 4.79146463,28.0641388 4.86400007,27.7360004 L5.57600008,24.5360004 L27.5840004,24.5360004 L28.2960004,27.7360004 C28.3691525,28.0668822 28.2874355,28.4130628 28.0740389,28.6763038 C27.8606423,28.9395449 27.5388577,29.0911144 27.2000004,29.0880004 Z" id="Path" fill="#FF3A41"></path>
                            <path d="M175.200003,23.7600004 C174.400003,23.1600003 172.528003,22.4160003 169.464003,23.9440004 C169.368003,21.8560003 169.184003,20.4400003 169.184003,20.4400003 L142.512002,20.4400003 C142.512002,20.4400003 139.848002,41.3680006 149.176002,41.3680006 L162.512002,41.3680006 C165.760002,41.3680006 167.552002,38.8320006 168.512003,35.5200005 C173.832003,33.6960005 176.208003,30.4080005 176.640003,27.8480004 C176.991383,26.3214964 176.430524,24.7292785 175.200003,23.7600004 L175.200003,23.7600004 Z M174.280003,27.4480004 C174.016003,29.0480004 172.480003,31.2000005 169.128003,32.7040005 C169.431909,30.5846968 169.568332,28.4447391 169.536003,26.3040004 C169.793885,26.3408646 170.056839,26.2961065 170.288003,26.1760004 C171.800003,25.3760004 173.112003,25.1760004 173.800003,25.6720004 C174.294028,26.1189826 174.478933,26.8147282 174.272003,27.4480004 L174.280003,27.4480004 Z" id="Shape" fill="#444345"></path>
                        </g>
                    </g>
                </g>
            </g>
        </g>
    </g>
</svg>