<?xml version="1.0" encoding="UTF-8"?>
<svg width="327px" height="294px" viewBox="0 0 327 294" version="1.1" xmlns="http://www.w3.org/2000/svg" xmlns:xlink="http://www.w3.org/1999/xlink">
    <!-- Generator: Sketch 63.1 (92452) - https://sketch.com -->
    <title>our_work_culture</title>
    <desc>Created with Sketch.</desc>
    <defs>
        <path d="M228.32427,73.1696866 C252.176081,82.5319588 275.407061,93.40392 297.87606,105.719513 C320.664982,118.174417 344.016031,133.727857 354.483743,160.004665 C363.280266,182.089335 361.290034,208.867378 352.964481,232.015271 C344.638928,255.163165 330.418641,275.166955 314.982944,293.211376 C295.29836,316.382793 272.958957,337.16188 248.424099,355.121359 C230.192961,368.396463 209.728509,380.167866 188.625967,378.907186 C172.658529,377.950285 157.784959,369.444498 145.980298,357.642717 C134.175636,345.840937 125.120838,330.758353 117.11433,315.113779 C97.7391507,276.645777 84.561844,235.360126 78.0693099,192.782326 C73.7242221,168.950931 73.5115255,143.995558 73.2380585,119.313585 C73.1317102,107.800393 73.1317102,95.7555906 77.6894946,85.2448673 C85.1794536,67.9295138 102.894042,59.605993 119.347644,56.3859448 C156.326468,49.1256475 193.533182,59.4996707 228.32427,73.1696866 Z" id="path-1"></path>
        <path d="M0.698884843,0 L12.9748841,9 L18.9748838,23.0399986 L15.9748839,47.1119972 L16.4728839,75.1919955 L11.9728842,75.1919955 C11.9728842,75.1919955 4.95288459,56.1359967 5.97288453,39.0899977 C6.99288447,22.0439987 2.20488475,2.50799985 0.698884843,0 Z" id="path-3"></path>
        <path d="M4.94399971,0.131798681 C4.94399971,0.131798681 1.54799991,-0.906201257 -5.06261699e-13,2.84379852 L7.66199954,11.399798 C7.66199954,11.399798 11.8619993,17.7237976 11.2619993,19.0017976 C10.6619994,20.2797975 8.48399949,23.6157973 11.4479993,21.2697974 C14.4119991,18.9237976 15.4019991,18.1317976 14.7239991,16.2597977 C14.0459992,14.3877978 12.9779992,11.999798 12.9779992,11.999798 L17.387999,16.5477977 C17.387999,16.5477977 13.4879992,7.54779824 9.24599945,9.34779813" id="path-5"></path>
        <path d="M8.70399936,1.44413324 C8.70399936,1.44413324 6.51999949,-1.35786659 3.0999997,0.844133276 L4.44999962,12.2441326 C4.44999962,12.2441326 4.25799963,19.8341321 3.0339997,20.5361321 C1.80999977,21.2381321 -1.89200001,22.720132 1.88199977,22.498132 C5.65599954,22.276132 6.92199947,22.210132 7.44399944,20.2841321 C7.96599941,18.3581322 8.44599938,15.8021324 8.44599938,15.8021324 L9.44199932,22.060132 C9.44199932,22.060132 11.4099992,12.4601326 6.93399947,11.4701326" id="path-7"></path>
        <path d="M23.3179978,1.70199889 C23.3179978,1.70199889 31.0279974,8.07399851 30.3259974,26.9919974 C29.6239975,45.9099963 22.6219979,87.2619938 19.1179981,95.6739933 C19.1179981,95.6739933 12.8059985,96.3759932 12.1099985,94.9719933 C12.1099985,94.9719933 11.4079985,26.9919974 12.8059985,22.7919976 C12.8059985,22.7919976 -0.508000745,13.6779982 0.205999213,5.27199867 C0.91999917,-3.13400083 23.3179978,1.70199889 23.3179978,1.70199889 Z" id="path-9"></path>
        <path d="M20.6528517,0.814443928 C20.6528517,0.814443928 13.6448521,5.72244364 7.33285246,0.814443928 C5.84896253,0.761438692 4.39314943,1.22831753 3.21685271,2.13444385 C0.618852864,3.99444374 0.414852876,10.9124433 0.414852876,16.144443 C0.414852876,25.9544424 1.7288528,41.4644415 1.7288528,41.4644415 C1.7288528,41.4644415 9.44485234,51.6644409 25.0088514,37.9364417 C25.0088514,37.9364417 21.3488516,30.9524421 22.0508516,28.8464423 C22.7528515,26.7404424 26.9588513,19.0364428 26.9588513,19.0364428 C26.9588513,19.0364428 29.0588512,7.82244351 33.9548509,7.82244351 C33.9548509,7.82244351 22.7528515,2.9144438 20.6528517,0.814443928 Z" id="path-11"></path>
        <path d="M57.6179966,4.20942107 C57.6179966,4.20942107 37.8899977,16.1434204 33.221998,17.1814203 C33.221998,17.1814203 21.2819987,33.7954193 5.71199966,44.6914187 L0,38.985419 C0,38.985419 23.8799986,2.13342119 31.1459981,0.585421283 C38.4119977,-0.962578624 56.5799966,1.61142122 57.6179966,4.20942107 Z" id="path-13"></path>
    </defs>
    <g id="Page-1" stroke="none" stroke-width="1" fill="none" fill-rule="evenodd">
        <g id="Artboard" transform="translate(-508.000000, -91.000000)">
            <g id="our_work_culture" transform="translate(486.000000, 20.000000)">
                <g id="Group-28">
                    <mask id="mask-2" fill="white">
                        <use xlink:href="#path-1"></use>
                    </mask>
                    <use id="Path" fill="#F8F8F8" fill-rule="nonzero" style="mix-blend-mode: multiply;" transform="translate(216.711741, 216.500000) rotate(-47.000000) translate(-216.711741, -216.500000) " xlink:href="#path-1"></use>
                    <g id="Asset-2" mask="url(#mask-2)">
                        <g transform="translate(46.000000, 214.726010)">
                            <path d="M21.0360008,7.5180003 L18.7560007,8.95800036 L20.4000008,6 C19.4422752,3.81115792 18.1464627,1.786451 16.5600007,0 C13.5840286,7.32403829 12.3714134,15.2450872 13.0200005,23.1240009 L16.6200007,25.176001 L13.2000005,24.930001 C14.4000006,35.3100014 18.2460007,42.2100017 18.2460007,42.2100017 L21.4740009,42.4440017 C25.992001,25.680001 23.7840009,14.2560006 21.0360008,7.5180003 Z" id="Path" fill="#7FC6CC" fill-rule="nonzero"></path>
                            <g id="Group" stroke-width="1" fill="none" fill-rule="evenodd" transform="translate(13.200001, 6.600000)">
                                <path d="M3.64800014,0.450000018 C4.04800016,10.8020004 4.9280002,21.1180008 6.28800025,31.3980012 C6.68800027,34.3220014 7.12000028,37.2400015 7.5840003,40.1520016 C7.5840003,40.2840016 7.80000031,40.2420016 7.78200031,40.1160016 C6.14600024,29.9400012 4.9880002,19.7040008 4.30800017,9.40800037 C4.11600016,6.42800026 3.96400016,3.44600014 3.85200015,0.462000018 C3.85200015,0.336000013 3.64200014,0.318000013 3.64800014,0.462000018 L3.64800014,0.450000018 Z" id="Path" fill="#C1E7ED" fill-rule="nonzero"></path>
                                <path d="M4.36800017,10.5780004 C5.55082673,9.15612398 6.81917603,7.80762623 8.16600032,6.54000026 C8.26200033,6.45600026 8.13000032,6.30000025 8.03400032,6.39000025 C6.67372785,7.66815542 5.3933131,9.02872133 4.20000017,10.4640004 C4.11600016,10.5600004 4.28400017,10.6740004 4.36800017,10.5780004 L4.36800017,10.5780004 Z" id="Path" fill="#C1E7ED" fill-rule="nonzero"></path>
                                <path d="M6.00000024,26.400001 C7.20000029,24.740001 8.34200033,23.0520009 9.42600037,21.3360008 C9.45109105,21.289908 9.43711209,21.2322989 9.39368665,21.2028316 C9.35026121,21.1733643 9.29156315,21.181657 9.25800037,21.2220008 C8.15400032,22.9340009 7.01200028,24.622001 5.83200023,26.286001 C5.76000023,26.388001 5.92800024,26.5080011 6.00000024,26.400001 Z" id="Path" fill="#C1E7ED" fill-rule="nonzero"></path>
                                <path d="M4.9740002,16.9740007 C5.84742659,15.7807012 6.78899201,14.6388027 7.79400031,13.5540005 C7.88400031,13.4640005 7.75200031,13.3080005 7.6620003,13.4040005 C6.64298802,14.5005788 5.68743225,15.6544575 4.80000019,16.8600007 C4.72200019,16.9620007 4.89000019,17.0760007 4.9680002,16.9740007 L4.9740002,16.9740007 Z" id="Path" fill="#C1E7ED" fill-rule="nonzero"></path>
                                <path d="M4.02000016,5.53800022 L1.15800005,3.97200016 C1.04400004,3.91200016 0.930000037,4.08000016 1.04400004,4.14000016 L3.90600016,5.70000023 C4.02000016,5.76600023 4.14000016,5.59800022 4.02000016,5.53800022 L4.02000016,5.53800022 Z" id="Path" fill="#C1E7ED" fill-rule="nonzero"></path>
                                <path d="M4.57200018,14.5380006 L1.20000005,12.6000005 C1.08600004,12.5340005 0.972000039,12.7020005 1.08600004,12.7620005 L4.44000018,14.6820006 C4.55400018,14.7480006 4.66800019,14.5800006 4.55400018,14.5140006 L4.57200018,14.5380006 Z" id="Path" fill="#C1E7ED" fill-rule="nonzero"></path>
                                <path d="M6.56400026,31.9920013 C5.64268895,31.4582235 4.67223169,31.0141841 3.66600015,30.6660012 C3.61494359,30.6538638 3.56300957,30.6824485 3.54594957,30.7320776 C3.52888958,30.7817067 3.55227192,30.8361814 3.60000014,30.8580012 C4.58967096,31.1993123 5.54409466,31.6353332 6.45000026,32.1600013 C6.56400026,32.2200013 6.67800027,32.0580013 6.56400026,31.9920013 Z" id="Path" fill="#C1E7ED" fill-rule="nonzero"></path>
                                <path d="M5.40000021,23.3340009 C3.59382585,22.6462244 1.84444867,21.8176776 0.168000007,20.8560008 C0.0540000021,20.7900008 -0.0600000024,20.9580008 0.0540000021,21.0240008 C1.74384666,21.992977 3.50728375,22.8275502 5.32800021,23.5200009 C5.3754803,23.527552 5.42178712,23.5009232 5.43914256,23.4560883 C5.45649799,23.4112534 5.44018956,23.3603864 5.40000021,23.3340009 L5.40000021,23.3340009 Z" id="Path" fill="#C1E7ED" fill-rule="nonzero"></path>
                            </g>
                            <path d="M10.6320004,16.5780007 L9.25200037,18.3780007 L9.67800038,15.6000006 C8.28656421,14.1573522 6.67689919,12.9425107 4.9080002,12.0000005 C4.71132464,18.6207192 6.06536343,25.1957178 8.86200035,31.2000012 L12.3120005,31.7640013 L9.52800038,32.5680013 C11.7688682,37.1322775 14.8181087,41.2528179 18.5280007,44.7300018 L21.1440008,43.9680017 C19.8420008,29.4540012 14.7660006,21.0900008 10.6320004,16.5780007 Z" id="Path" fill="#76BABA" fill-rule="nonzero"></path>
                            <g id="Group" stroke-width="1" fill="none" fill-rule="evenodd" transform="translate(6.000000, 16.800001)">
                                <path d="M1.20000005,0.600000024 C4.52800018,8.65200034 8.23200033,16.5320007 12.3120005,24.240001 C13.4760005,26.4320011 14.6760006,28.6080011 15.9120006,30.7680012 C15.9660006,30.8640012 16.1100006,30.7680012 16.0560006,30.6780012 C11.7760005,23.1500009 7.86800031,15.4240006 4.33200017,7.5000003 C3.30800013,5.20800021 2.30800009,2.90000012 1.33200005,0.576000023 C1.29000005,0.480000019 1.12800004,0.522022189 1.17000005,0.624000025 L1.20000005,0.600000024 Z" id="Path" fill="#C1E7ED" fill-rule="nonzero"></path>
                                <path d="M4.71600019,8.40000033 C5.23037591,6.93556273 5.83143821,5.50303091 6.51600026,4.11000016 C6.56400026,4.00800016 6.41400025,3.93000016 6.36600025,4.02600016 C5.66930795,5.43262232 5.05624201,6.87913739 4.53000018,8.35800033 C4.49400018,8.46000034 4.66200019,8.50200034 4.69800019,8.40000033 L4.71600019,8.40000033 Z" id="Path" fill="#C1E7ED" fill-rule="nonzero"></path>
                                <path d="M10.6080004,20.4300008 C11.0520004,18.7740007 11.4520005,17.1100007 11.8080005,15.4380006 C11.8151991,15.3950559 11.7883874,15.35373 11.7462371,15.3428022 C11.7040868,15.3318743 11.6605738,15.3549679 11.6460005,15.3960006 C11.2740004,17.0720007 10.8740004,18.7360007 10.4460004,20.3880008 C10.4388018,20.4309455 10.4656135,20.4722714 10.5077638,20.4831993 C10.5499141,20.4941271 10.5934271,20.4710336 10.6080004,20.4300008 L10.6080004,20.4300008 Z" id="Path" fill="#C1E7ED" fill-rule="nonzero"></path>
                                <path d="M7.06200028,13.2720005 C7.39550055,12.0783474 7.7961383,10.9044788 8.26200033,9.75600039 C8.30400033,9.65400038 8.16000032,9.57000038 8.11800032,9.67200038 C7.63341115,10.8328171 7.21670831,12.0208208 6.87000027,13.2300005 C6.87000027,13.3380005 7.00800028,13.3740005 7.03800028,13.2720005 L7.06200028,13.2720005 Z" id="Path" fill="#C1E7ED" fill-rule="nonzero"></path>
                                <path d="M3.00000012,4.53000018 L0.282000011,4.13400016 C0.174000007,4.13400016 0.132000005,4.28400017 0.24000001,4.29600017 L2.95800012,4.69200019 C3.06600012,4.69200019 3.10800012,4.54200018 3.00000012,4.53000018 Z" id="Path" fill="#C1E7ED" fill-rule="nonzero"></path>
                                <path d="M6.03600024,11.4720005 L2.82600011,10.9380004 C2.72403025,10.9380004 2.67600011,11.0820004 2.79000011,11.1000004 L5.99400024,11.6340005 C6.10200024,11.6340005 6.14400024,11.4900005 6.03600024,11.4720005 Z" id="Path" fill="#C1E7ED" fill-rule="nonzero"></path>
                                <path d="M12.6960005,24.648001 C11.8138762,24.5009212 10.9201704,24.4346464 10.0260004,24.450001 C9.98653061,24.4604552 9.95904383,24.4961702 9.95904383,24.537001 C9.95904383,24.5778318 9.98653061,24.6135467 10.0260004,24.624001 C10.9061285,24.6036613 11.7861744,24.6679568 12.6540005,24.816001 C12.7620005,24.816001 12.8040005,24.666001 12.6960005,24.648001 L12.6960005,24.648001 Z" id="Path" fill="#C1E7ED" fill-rule="nonzero"></path>
                                <path d="M9.27000037,18.1560007 C7.64538063,18.1402977 6.02446213,17.9978655 4.42200018,17.7300007 C4.31400017,17.7300007 4.27200017,17.8740007 4.38000017,17.8920007 C5.99569716,18.1675274 7.63102275,18.3119979 9.27000037,18.3240007 C9.31639229,18.3240007 9.35400037,18.2863926 9.35400037,18.2400007 C9.35400037,18.1936088 9.31639229,18.1560007 9.27000037,18.1560007 L9.27000037,18.1560007 Z" id="Path" fill="#C1E7ED" fill-rule="nonzero"></path>
                            </g>
                            <path d="M32.2680013,17.4000007 L30.0000012,17.5800007 L32.3460013,16.0020006 C32.4790417,13.9979933 32.2968259,11.9855209 31.8060013,10.0380004 C26.7657926,14.3689739 22.8136083,19.8235226 20.2680008,25.962001 L22.2000009,28.8900011 L19.7220008,27.3780011 C17.8583286,32.1148476 16.8683386,37.1501766 16.8000007,42.2400017 L19.1220008,43.6620017 C28.9860012,32.8680013 31.7280013,23.4780009 32.2680013,17.4000007 Z" id="Path" fill="#7FC6CC" fill-rule="nonzero"></path>
                            <g id="Group" stroke-width="1" fill="none" fill-rule="evenodd" transform="translate(16.800001, 15.000001)">
                                <path d="M12.5220005,0.420000017 C8.83000035,8.31200033 5.51600022,16.3720007 2.5800001,24.600001 C1.74800007,26.9320011 0.948000038,29.2800012 0.180000007,31.6440013 C0.150000006,31.7460013 0.312000012,31.7940013 0.348000014,31.6860013 C3.03600012,23.4540009 6.11000024,15.3580006 9.57000038,7.39800029 C10.5740004,5.0940002 11.6080005,2.80600011 12.6720005,0.534000021 C12.7200005,0.432000017 12.5760005,0.342000014 12.5280005,0.444000018 L12.5220005,0.420000017 Z" id="Path" fill="#C1E7ED" fill-rule="nonzero"></path>
                                <path d="M9.16200036,8.26800033 C10.593658,7.66276873 12.0602846,7.14383936 13.5540005,6.71400027 C13.6560005,6.71400027 13.6200005,6.51600026 13.5120005,6.54600026 C12.0045218,6.98281171 10.5239766,7.50771406 9.07800036,8.11800032 C8.97600036,8.16000032 9.07800036,8.31000033 9.16200036,8.26800033 L9.16200036,8.26800033 Z" id="Path" fill="#C1E7ED" fill-rule="nonzero"></path>
                                <path d="M4.26000017,20.7360008 C5.78400023,19.9360008 7.28800029,19.1140008 8.77200035,18.2700007 C8.86800035,18.2160007 8.77200035,18.0660007 8.69400035,18.1200007 C7.20000029,18.9720008 5.70600023,19.8000008 4.20000017,20.5860008 C4.10400016,20.6340008 4.20000017,20.7840008 4.27800017,20.7360008 L4.26000017,20.7360008 Z" id="Path" fill="#C1E7ED" fill-rule="nonzero"></path>
                                <path d="M7.15200028,13.2840005 C8.2644494,12.7278091 9.40839194,12.2369756 10.5780004,11.8140005 C10.6800004,11.7780005 10.6380004,11.6100005 10.5360004,11.6460005 C9.35281659,12.0760827 8.19495979,12.5728794 7.06800028,13.1340005 C6.97200028,13.1820005 7.06800028,13.3320005 7.15200028,13.2840005 L7.15200028,13.2840005 Z" id="Path" fill="#C1E7ED" fill-rule="nonzero"></path>
                                <path d="M10.8420004,4.36800017 L9.30600037,2.09400008 C9.24000037,2.00400008 9.09000036,2.09400008 9.15600036,2.17800009 L10.6920004,4.44600018 C10.7520004,4.53600018 10.9020004,4.44600018 10.8420004,4.36800017 Z" id="Path" fill="#C1E7ED" fill-rule="nonzero"></path>
                                <path d="M7.80000031,11.3100004 C7.20000029,10.3980004 6.60000026,9.51000038 6.03000024,8.58600034 C5.97000024,8.49000034 5.82000023,8.58600034 5.88000023,8.66400034 C6.48000026,9.57600038 7.08000028,10.4640004 7.6500003,11.3880005 C7.71000031,11.4840005 7.86000031,11.3880005 7.80000031,11.3100004 Z" id="Path" fill="#C1E7ED" fill-rule="nonzero"></path>
                                <path d="M2.5560001,25.122001 C2.07227324,24.3689044 1.51775794,23.6637056 0.900000036,23.0160009 C0.828000033,22.9380009 0.702000028,23.0520009 0.780000031,23.1360009 C1.38432856,23.770987 1.92677982,24.4621101 2.4000001,25.200001 C2.4600001,25.296001 2.6100001,25.200001 2.5500001,25.122001 L2.5560001,25.122001 Z" id="Path" fill="#C1E7ED" fill-rule="nonzero"></path>
                                <path d="M5.0400002,18.2100007 C3.95352819,16.9999906 2.96444508,15.7059569 2.08200008,14.3400006 C2.02200008,14.2500006 1.87200007,14.3400006 1.93200008,14.4240006 C2.82477102,15.8030724 3.82806903,17.1073598 4.9320002,18.3240007 C5.0040002,18.4080007 5.1300002,18.2880007 5.0580002,18.2100007 L5.0400002,18.2100007 Z" id="Path" fill="#C1E7ED" fill-rule="nonzero"></path>
                            </g>
                            <rect id="Rectangle" fill="#B4B7D3" fill-rule="nonzero" x="11.4300005" y="40.7760016" width="14.0700006" height="11.5860005" rx="1.15200005"></rect>
                            <rect id="Rectangle" fill="#EFF2F7" fill-rule="nonzero" opacity="0.37" x="16.5120007" y="40.7760016" width="14.0700006" height="11.5860005" rx="1.15200005"></rect>
                            <rect id="Rectangle" fill="#8686A9" fill-rule="nonzero" x="0" y="51.366002" width="313.206012" height="5.59800022"></rect>
                            <polygon id="Path" fill="#B4B7D3" fill-rule="nonzero" points="8.54400034 56.9640023 10.2240004 127.800005 14.7000006 127.800005 18.0600007 56.9640023"></polygon>
                            <polygon id="Path" fill="#8686A9" fill-rule="nonzero" points="291.294012 56.9640023 289.614012 127.800005 285.132011 127.800005 281.772011 56.9640023"></polygon>
                        </g>
                    </g>
                    <ellipse id="Oval" fill="#E8E8E8" mask="url(#mask-2)" cx="203" cy="342.72601" rx="150" ry="5"></ellipse>
                </g>
                <path d="M203,347.72601 C285.842712,347.72601 285.842712,337.72601 203,337.72601 C120.157288,337.72601 53,339.964587 53,342.72601 C53,345.487434 120.157288,347.72601 203,347.72601 Z" id="Oval" fill="#E8E8E8"></path>
                <g id="Group-12" transform="translate(81.000000, 72.726010)" fill-rule="nonzero">
                    <rect id="Rectangle" fill="#E5E6F0" x="20.9718005" y="2.64392958e-13" width="1" height="43.791901"></rect>
                    <ellipse id="Oval" fill="#E5E6F0" cx="21.2585005" cy="55.9797013" rx="5.42900013" ry="4.79460011"></ellipse>
                    <polygon id="Path" fill="#FF4D53" points="21.1426005 42.053401 -2.60058647e-13 55.6930013 42.980601 55.6930013"></polygon>
                    <rect id="Rectangle" fill="#E5E6F0" x="156.129504" y="2.64392958e-13" width="1" height="43.791901"></rect>
                    <ellipse id="Oval" fill="#E5E6F0" cx="156.416204" cy="55.9797013" rx="5.42900013" ry="4.79460011"></ellipse>
                    <polygon id="Path" fill="#FF4D53" points="156.300304 42.053401 135.157703 55.6930013 178.138304 55.6930013"></polygon>
                </g>
                <g id="Asset-9" transform="translate(92.211741, 144.000000)" fill-rule="nonzero">
                    <rect id="Rectangle" fill="#FFBFC0" x="0.690000027" y="0.75000003" width="255.30001" height="93.7140037"></rect>
                    <rect id="Rectangle" fill="#FF4D53" x="0.534000021" y="0.594000024" width="255.92401" height="3.73800015"></rect>
                    <rect id="Rectangle" fill="#FFFFFF" x="34.1580014" y="22.0800009" width="81.5700032" height="10.5840004"></rect>
                    <rect id="Rectangle" fill="#FFFFFF" transform="translate(173.640007, 57.573002) rotate(-90.000000) translate(-173.640007, -57.573002) " x="146.553006" y="54.1470022" width="54.1740022" height="6.85200027"></rect>
                    <rect id="Rectangle" fill="#FFFFFF" transform="translate(188.586007, 62.550002) rotate(-90.000000) translate(-188.586007, -62.550002) " x="165.858007" y="59.1240023" width="45.4560018" height="6.85200027"></rect>
                    <rect id="Rectangle" fill="#FFFFFF" transform="translate(204.774008, 64.734003) rotate(-90.000000) translate(-204.774008, -64.734003) " x="184.848007" y="61.3080024" width="39.8520016" height="6.85200027"></rect>
                    <rect id="Rectangle" fill="#FFFFFF" x="34.1580014" y="42.3180017" width="81.5700032" height="10.5840004"></rect>
                    <circle id="Oval" fill="#FF4D53" cx="140.640006" cy="25.506001" r="4.9800002"></circle>
                    <circle id="Oval" fill="#FF4D53" cx="140.640006" cy="47.6100019" r="4.9800002"></circle>
                    <path d="M114.762005,75.192003 C114.762005,73.5660029 114.798005,74.1960029 114.798005,73.8600029 C114.798005,65.9460026 108.576004,59.3580024 100.890004,59.3580024 C100.634419,59.32817 100.381618,59.2780111 100.134004,59.2080024 L100.134004,75.192003 L114.762005,75.192003 Z" id="Path" fill="#FFFFFF"></path>
                    <path d="M98.5080039,76.8000031 L98.5080039,60.8700024 C90.3960036,61.2840024 85.3620034,67.5300027 85.3620034,75.180003 C85.3620034,83.0940033 91.5840036,89.8380036 99.2700039,89.8380036 C106.611122,89.8335732 112.685822,84.1265585 113.148004,76.8000031 L98.5080039,76.8000031 Z" id="Path" fill="#FFFFFF"></path>
                </g>
                <g id="Asset-4" transform="translate(81.000000, 159.726010)">
                    <path d="M37.9679977,178.559989 C37.9679977,178.559989 35.9639979,181.067989 35.9639979,185.579989 L57.5219966,185.579989 C57.5219966,185.579989 59.0279965,185.579989 58.5299965,184.577989 C58.0319965,183.575989 50.003997,183.071989 48.4979971,182.069989 C46.9919972,181.067989 45.4979973,178.061989 45.4979973,178.061989 L37.9679977,178.559989 Z" id="Path" fill="#212D3C" fill-rule="nonzero"></path>
                    <path d="M17.399999,97.8299942 L12.8939992,179.063989 C12.8939992,179.063989 15.4019991,182.063989 20.4179988,180.065989 L37.4699978,98.8319941 L37.9679977,178.559989 C37.9679977,178.559989 43.4819974,181.067989 45.9899973,178.559989 L51.5099969,88.3019947 L47.4959972,83.789995 L26.7599984,83.789995 L17.399999,97.8299942 Z" id="Path" fill="#373761" fill-rule="nonzero"></path>
                    <path d="M63.5219962,67.295996 C63.5219962,67.295996 61.5359963,58.7159965 59.0279965,57.6959966 C56.5199966,56.6759966 56.9999966,65.2379961 56.9999966,65.2379961 L63.5219962,67.295996 Z" id="Path" fill="#505079" fill-rule="nonzero"></path>
                    <path d="M41.7299975,27.8759983 L31.9499981,26.6279984 L27.1859985,37.4279978 L25.6859985,82.5599951 L28.6859985,86.0699949 L49.745997,86.0699949 L46.7459972,47.4599972 C46.7459972,47.4599972 44.2379974,29.8859982 41.7299975,27.8759983 Z" id="Path" fill="#F2F5F8" fill-rule="nonzero"></path>
                    <path d="M39.4739976,28.1279983 C39.4739976,28.1279983 40.4759976,30.6359982 37.4699978,31.1279981 C34.4639979,31.6199981 31.9499981,27.6179984 31.9499981,27.6179984 L31.4519981,21.0959987 L39.4739976,28.1279983 Z" id="Path" fill="#E8A992" fill-rule="nonzero"></path>
                    <path d="M31.9499981,26.6279984 L12.8939992,32.1419981 C12.8939992,32.1419981 18.8939992,62.2259963 16.403999,82.7879951 C13.9139992,103.349994 12.8939992,102.341994 12.8939992,102.341994 L27.9419983,102.341994 C27.9419983,102.341994 39.9719976,71.0039958 31.9499981,26.6279984 Z" id="Path" fill="#505079" fill-rule="nonzero"></path>
                    <g id="Group" transform="translate(14.999999, 26.599999)" fill="#38385C" fill-rule="nonzero">
                        <path d="M15.3779991,0.615999665 C12.9779992,3.59599949 10.4539994,6.46999932 7.80599953,9.23799915 C7.77710875,9.26842331 7.76620583,9.31172723 7.77724518,9.35220488 C7.78828454,9.39268252 7.81966289,9.42445518 7.85999953,9.43599914 C9.46799944,9.69399912 13.2059992,9.60399913 13.4099992,11.583999 C13.5239992,12.7179989 11.2259993,15.6999988 10.6679994,16.7499987 C10.3679994,17.3139987 9.65399942,18.3039986 9.56999943,18.9399986 C9.48599943,19.5759985 10.6139994,21.0579984 10.8479994,21.7059984 C11.1959993,22.6599984 11.4779993,23.6319983 11.7839993,24.6039982 C14.3519991,32.7799977 16.645999,41.0359973 18.6659989,49.3719968 C18.6825674,49.4333004 18.7456953,49.4695653 18.8069989,49.4529968 C18.8683025,49.4364282 18.9045674,49.3733004 18.8879989,49.3119968 C17.219999,42.4599972 15.3759991,35.6599976 13.3559992,28.911998 C12.4919993,26.0559981 11.4719993,23.2419983 10.5959994,20.3979985 C9.59999943,17.2539987 12.6779992,13.4619989 14.1599992,10.6659991 C14.1756445,10.6344885 14.1766741,10.5976997 14.1628157,10.5653634 C14.1489573,10.5330272 14.121607,10.5084011 14.0879992,10.4979991 C12.8459992,10.1739991 11.1359993,10.0959991 9.9899994,9.56199913 C9.11399946,9.72999912 8.71399948,9.39999914 8.78999948,8.57199919 C9.18999945,8.17199921 9.58999943,7.75199924 9.9899994,7.31199927 C11.8799993,5.19999939 13.7399992,3.01599952 15.5399991,0.783999655 C15.6359991,0.663999662 15.4679991,0.501999672 15.3779991,0.615999665 L15.3779991,0.615999665 Z" id="Path"></path>
                        <path d="M2.32799986,31.7199978 C2.8176496,31.4797039 3.23252448,31.1104653 3.52799979,30.6519979 C3.61199978,30.5259979 3.4079998,30.4059979 3.3299998,30.5319979 C3.05485477,30.9557704 2.66889042,31.296083 2.21399987,31.5159978 C2.07599988,31.5819978 2.21399987,31.7859978 2.32799986,31.7199978 L2.32799986,31.7199978 Z" id="Path"></path>
                        <path d="M2.61599984,32.5719978 C3.32079862,32.4164345 4.04584674,32.3739037 4.76399972,32.4459978 C4.91399971,32.4459978 4.91399971,32.2239978 4.76399972,32.2119978 C4.02533543,32.1408035 3.28005111,32.1873837 2.55599985,32.3499978 C2.41199986,32.3499978 2.47199985,32.6079978 2.61599984,32.5719978 L2.61599984,32.5719978 Z" id="Path"></path>
                        <path d="M2.14799987,56.2359964 C4.88399971,56.9619963 7.63199955,57.5979963 10.4159994,56.7819963 C10.4556559,56.7712784 10.486582,56.7402181 10.4971282,56.7005156 C10.5076744,56.6608131 10.4962385,56.6185001 10.4671282,56.5895156 C10.4380179,56.560531 10.3956559,56.5492784 10.3559994,56.5599963 C7.60799955,57.3639963 4.90199971,56.7279963 2.21399987,56.0139964 C2.06999988,55.9719964 2.00399988,56.1999964 2.14799987,56.2359964 Z" id="Path"></path>
                        <path d="M2.32799986,58.0719962 C4.67263502,58.6005769 7.10091336,58.6414226 9.46199944,58.1919962 C9.61199943,58.1919962 9.54599943,57.9399962 9.40199944,57.9639962 C7.08093559,58.4103662 4.69243623,58.3695022 2.38799986,57.8439963 C2.24399987,57.8139963 2.17799987,58.0359962 2.32799986,58.0719962 L2.32799986,58.0719962 Z" id="Path"></path>
                        <path d="M9.47399944,56.5359963 C10.1099994,59.0199962 9.29399945,61.485996 7.92599953,63.5799959 C7.37045638,64.498428 6.64078136,65.29944 5.77799966,65.9379958 C3.92999977,67.2039957 0.977999942,67.1379957 0.281999983,64.5039959 C0.265431435,64.4426923 0.202303593,64.4064273 0.140999996,64.4229959 C0.0796963986,64.4395644 0.0434314655,64.5026923 0.0599999964,64.5639959 C0.809999952,67.4919957 4.10399976,67.5639957 6.18599963,65.9499958 C8.85599947,63.8499959 10.5479994,59.7999961 9.69599942,56.4759963 C9.68528146,56.4363399 9.65422117,56.4054137 9.61451866,56.3948675 C9.57481616,56.3843213 9.53250321,56.3957572 9.50351867,56.4248675 C9.47453414,56.4539778 9.46328147,56.4963399 9.47399944,56.5359963 L9.47399944,56.5359963 Z" id="Path"></path>
                    </g>
                    <g id="Group-18" transform="translate(38.781113, 27.395998)">
                        <mask id="mask-4" fill="white">
                            <use xlink:href="#path-3"></use>
                        </mask>
                        <use id="Path" fill="#505079" fill-rule="nonzero" xlink:href="#path-3"></use>
                        <g id="Group-15" mask="url(#mask-4)" fill="#38385C" fill-rule="nonzero">
                            <g transform="translate(11.999997, 56.478218)" id="Path">
                                <path d="M0.434886647,0.479778942 C1.8472606,0.354863031 3.26631129,0.322794089 4.68288639,0.383778948 C4.83288638,0.383778948 4.83288638,0.155778961 4.68288639,0.149778962 C3.26631129,0.0887941032 1.8472606,0.120863045 0.434886647,0.245778956 C0.284886656,0.245778956 0.284886656,0.491778941 0.434886647,0.479778942 L0.434886647,0.479778942 Z"></path>
                                <path d="M0.146886664,3.12577878 L4.81488639,2.38177883 C4.96488638,2.38177883 4.89888638,2.13577884 4.75488639,2.15977884 L0.0868866676,2.9037788 C-0.0631133235,2.9037788 -0.00311332704,3.14977878 0.146886664,3.12577878 Z"></path>
                                <path d="M0.356886652,0.455778944 C-0.801113279,3.00577879 1.2448866,5.96377862 2.8888865,7.8297785 C4.02888643,9.12577843 7.29888624,11.1297783 7.8568862,8.20777848 C7.8568862,8.05777849 7.66488622,7.99777849 7.63488622,8.14177849 C7.03488625,11.3097783 3.95088644,8.62177846 3.24288648,7.8777785 C2.67522516,7.25526441 2.17075246,6.57794449 1.73688657,5.85577862 C0.746886628,4.26577872 -0.303113309,2.47777882 0.536886641,0.575778936 C0.602886637,0.437778945 0.398886649,0.323778951 0.338886653,0.455778944 L0.356886652,0.455778944 Z"></path>
                                <path d="M1.56888658,17.5257779 L6.36888629,17.4057779 C6.51888628,17.4057779 6.51888628,17.1657779 6.36888629,17.1717779 L1.56888658,17.2917779 C1.41888659,17.2917779 1.41888659,17.5317779 1.56888658,17.5257779 Z"></path>
                            </g>
                        </g>
                    </g>
                    <g id="Group" transform="translate(41.999997, 29.399998)" fill="#38385C" fill-rule="nonzero">
                        <path d="M0.317999981,0.32999998 C0.97180809,2.76849797 1.75084103,5.17168441 2.65199984,7.52999955 C3.25199981,9.02399946 5.59199967,12.3899993 2.79599983,12.1199993 C2.68799984,12.1199993 2.65199984,12.2519993 2.71199984,12.3179993 C4.30799974,14.0759992 5.93399965,15.5039991 6.02399964,18.0839989 C6.08399964,19.7879988 5.15999969,22.0379987 4.79399971,23.7239986 L2.32799986,34.9979979 C2.32799986,35.1419979 2.51999985,35.2019979 2.54999985,35.0579979 L5.99999964,19.2479989 C6.30599962,17.8499989 6.7559996,16.985999 6.18599963,15.7679991 C5.68199966,14.7179991 1.7579999,12.2219993 4.90199971,12.5279993 C4.9979997,12.5279993 5.0399997,12.4259993 5.0039997,12.3539993 C3.17073492,8.46002072 1.67718594,4.41499224 0.539999968,0.263999984 C0.521774564,0.202696391 0.457303578,0.167774614 0.395999982,0.186000007 C0.334696385,0.204225401 0.299774598,0.268696381 0.317999981,0.32999998 Z" id="Path"></path>
                        <path d="M8.49599949,9.26399945 C7.62844938,14.4073845 8.09322851,19.6872755 9.84599941,24.5999985 C9.89999941,24.7379985 10.1219994,24.6779985 10.0739994,24.5399985 C8.33349808,19.6704153 7.86672162,14.4367358 8.71799948,9.33599944 C8.71799948,9.19199945 8.51999949,9.12599946 8.49599949,9.27599945 L8.49599949,9.26399945 Z" id="Path"></path>
                        <path d="M6.90599959,7.73399954 L8.04599952,6.7919996 C8.15999951,6.6959996 7.99199952,6.53399961 7.87799953,6.6299996 L6.7439996,7.57199955 C6.62399961,7.66199954 6.7919996,7.82999953 6.90599959,7.73399954 Z" id="Path"></path>
                        <path d="M7.26599957,8.57999949 L7.86599953,8.3639995 C8.00399952,8.3159995 7.94399953,8.08799952 7.80599953,8.13599952 L7.20599957,8.3519995 C7.06799958,8.4059995 7.12799958,8.62799949 7.27199957,8.57999949 L7.26599957,8.57999949 Z" id="Path"></path>
                    </g>
                    <polygon id="Path" fill="#FF4D53" fill-rule="nonzero" points="60.9659964 47.6339972 45.9899973 57.2159966 25.9319985 57.2159966 24.9299985 81.2819952 46.9559972 82.8179951 59.5319965 74.7659955"></polygon>
                    <path d="M21.7259987,68.9399959 L23.0999986,68.2559959 L25.5539985,67.475996 L25.4639985,69.6299958 L27.4139984,69.8219958 C27.4139984,69.8219958 29.6219982,76.0919955 25.1879985,76.2899955 C20.7539988,76.4879954 18.8099989,75.0899955 18.8099989,75.0899955 C18.8099989,75.0899955 17.609999,69.6299958 21.7259987,68.9399959 Z" id="Path" fill="#E8A992" fill-rule="nonzero"></path>
                    <path d="M60.1319964,63.1319962 C60.664296,63.7889355 61.1343214,64.4939737 61.5359963,65.2379961 C62.0399963,66.2399961 64.5359962,67.241996 63.5399962,68.7479959 C63.5399962,68.7479959 65.0459961,71.2559958 63.5399962,71.7479957 C62.0339963,72.2399957 59.5319965,73.7519956 58.0259965,72.7499957 C56.5199966,71.7479957 57.7259966,66.0359961 60.1319964,63.1319962 Z" id="Path" fill="#E8A992" fill-rule="nonzero"></path>
                    <path d="M49.751997,11.3339993 C49.751997,11.3339993 47.7479972,23.3339986 41.2259975,25.8719985 C41.2259975,25.8719985 30.6959982,25.3739985 33.203998,16.871999 C33.203998,16.871999 29.6939982,17.369999 29.6939982,14.8679991 C29.6939982,12.3659993 33.203998,9.34799944 34.7099979,14.3639997 L37.7099978,5.36399968 L49.751997,11.3339993 Z" id="Path" fill="#E8A992" fill-rule="nonzero"></path>
                    <path d="M35.2679979,12.6599992 C35.2679979,12.6599992 35.9039979,21.7079987 45.8339973,21.7859987 C45.8339973,21.7859987 45.2339973,27.3779984 44.7359973,27.8759983 C43.0265459,29.1783123 40.8578357,29.7226586 38.7359977,29.3819982 C35.7359979,28.8839983 30.2159982,21.8639987 30.7139982,20.3819988 C31.2119981,18.8999989 34.325998,15.4919991 35.2679979,12.6599992 Z" id="Path" fill="#503D42" fill-rule="nonzero"></path>
                    <path d="M49.2299971,13.6679992 C49.2299971,13.6679992 53.5139968,12.5819993 53.5139968,9.07199946 C53.5139968,5.56199967 46.9919972,0.551999967 41.9999975,0.0479999971 C39.0078574,-0.231890136 36.0522388,0.873427203 33.977998,3.04799982 L31.9499981,11.5799993 C31.9499981,11.5799993 34.4579979,12.0839993 34.4579979,14.5799991 C34.4579979,14.5799991 38.9699977,11.5799993 40.4579976,9.05999946 C40.4759976,9.07199946 42.9419974,12.7439992 49.2299971,13.6679992 Z" id="Path" fill="#503D42" fill-rule="nonzero"></path>
                    <path d="M9.82199941,185.249989 L23.8619986,185.249989 C23.8619986,185.249989 23.3579986,182.741989 22.3559987,181.739989 C21.3539987,180.737989 20.8499988,178.739989 18.3419989,178.229989 C15.4736006,177.649022 12.5782645,179.09669 11.3219994,181.739989 C10.4214009,182.694971 9.88972999,183.939081 9.82199941,185.249989 L9.82199941,185.249989 Z" id="Path" fill="#212D3C" fill-rule="nonzero"></path>
                    <path d="M13.0199992,32.0699981 C13.0199992,32.0699981 -1.39199992,54.9539967 0.107999994,65.9999961 C1.6079999,77.0459954 19.5539988,76.2899955 19.5539988,76.2899955 C19.5539988,76.2899955 17.063999,70.6859958 21.1139987,68.8199959 C21.1139987,68.8199959 13.6499992,64.9979961 11.1419993,64.9979961 C11.1419993,64.9979961 19.6679988,54.4679968 20.1419988,50.453997 C20.6159988,46.4399972 19.0379989,33.071998 13.0199992,32.0699981 Z" id="Path" fill="#505079" fill-rule="nonzero"></path>
                    <g id="Group" transform="translate(5.400000, 32.399998)" fill="#38385C" fill-rule="nonzero">
                        <path d="M7.84199953,0.67799996 C12.2313846,5.89885837 13.5509577,13.0436971 11.3159993,19.4879988 C11.2679993,19.6259988 11.4899993,19.6919988 11.5379993,19.5479988 C13.7967661,13.0245433 12.4540916,5.79370589 8.00399952,0.515999969 C7.90799953,0.395999976 7.74599954,0.563999966 7.84199953,0.67799996 L7.84199953,0.67799996 Z" id="Path"></path>
                        <path d="M11.0879993,24.8879985 C11.2019993,23.7839986 11.2619993,22.6799986 11.2679993,21.5639987 C11.2555556,21.5093978 11.2070003,21.4706633 11.1509993,21.4706633 C11.0949984,21.4706633 11.046443,21.5093978 11.0339993,21.5639987 C11.0339993,22.6799986 10.9679993,23.7839986 10.8539994,24.8879985 C10.8539994,25.0379985 11.0759993,25.0379985 11.0879993,24.8879985 Z" id="Path"></path>
                        <path d="M5.51399967,32.2199981 C3.98806699,31.552611 2.22952211,31.6922138 0.827999951,32.5919981 C0.701999958,32.6759981 0.827999951,32.879998 0.947999943,32.795998 C2.27161872,31.9255543 3.94352684,31.7768401 5.39999968,32.3999981 C5.53799967,32.4539981 5.65799966,32.2559981 5.51999967,32.1959981 L5.51399967,32.2199981 Z" id="Path"></path>
                        <path d="M2.64599984,30.6419982 C3.46075613,30.7508188 4.2458749,31.0200023 4.9559997,31.4339981 C5.01073193,31.4549202 5.07257078,31.4332558 5.10227953,31.382751 C5.13198827,31.3322461 5.12087865,31.2676708 5.0759997,31.2299981 C4.32755672,30.7997063 3.50196515,30.5204321 2.64599984,30.4079982 C2.49599985,30.4079982 2.49599985,30.6239982 2.64599984,30.6419982 L2.64599984,30.6419982 Z" id="Path"></path>
                        <path d="M13.6619992,36.4799978 C11.7065711,37.6620323 11.0076017,40.1609792 12.0659993,42.1859975 C12.1319993,42.3179975 12.3299993,42.1859975 12.2639993,42.0659975 C11.2562082,40.1484371 11.9226819,37.7775822 13.7819992,36.6659978 C13.8268781,36.6283251 13.8379878,36.5637499 13.808279,36.513245 C13.7785703,36.4627401 13.7167314,36.4410757 13.6619992,36.4619978 L13.6619992,36.4799978 Z" id="Path"></path>
                    </g>
                </g>
                <g id="Asset-3" transform="translate(266.000000, 161.726010)">
                    <path d="M31.5059981,38.2919977 C31.5059981,38.2919977 25.2839985,37.9859977 24.0359986,45.4559973 C22.7879986,52.9259968 18.7439989,69.4259959 18.7439989,69.4259959 L0,71.8799957 L1.93199988,73.4759956 C1.93199988,73.4759956 18.1319989,76.2779955 22.4759987,73.7879956 C26.8199984,71.2979958 27.7739983,56.0399967 29.0159983,52.3079969 C30.2579982,48.5759971 31.5059981,38.2919977 31.5059981,38.2919977 Z" id="Path" fill="#C57E69" fill-rule="nonzero"></path>
                    <path d="M43.3139974,33.869998 C43.3139974,33.869998 48.3359971,33.953998 48.3359971,30.6479982 C48.3359971,30.6479982 53.8499968,28.8059983 52.0139969,25.1279985 C52.0139969,25.1279985 56.4239966,21.0839987 53.4839968,17.7779989 C53.4839968,17.7779989 56.7959966,12.6299992 53.4839968,10.4219994 C53.4839968,10.4219994 52.0139969,3.07199982 47.9699971,4.54199973 C47.9699971,4.54199973 47.2319972,-0.257999985 41.3699975,2.33399986 C41.3699975,2.33399986 35.4839979,-2.07599988 33.647998,1.22999993 C33.647998,1.22999993 26.2919984,0.863999949 26.2919984,4.54199973 C26.2919984,4.54199973 20.4119988,6.7439996 22.6199987,11.5259993 C22.6199987,11.5259993 19.6739988,16.673999 22.2479987,19.2479989 C22.2479987,19.2479989 19.6739988,24.0479986 23.3519986,26.2319984 C23.3519986,26.2319984 22.6199987,31.3799981 26.2919984,31.7459981 C26.2919984,31.7459981 30.7079982,36.5459978 34.013998,33.953998 C33.995998,33.953998 41.6039975,36.7199978 43.3139974,33.869998 Z" id="Path" fill="#503D42" fill-rule="nonzero"></path>
                    <g id="Group-25" transform="translate(39.881998, 160.200192)">
                        <mask id="mask-6" fill="white">
                            <use xlink:href="#path-5"></use>
                        </mask>
                        <use id="Path" fill="#C57E69" fill-rule="nonzero" xlink:href="#path-5"></use>
                        <path d="M9.91799941,8.1777982 L9.31799944,9.26979814 C9.31799944,9.26979814 16.343999,18.4617976 10.9019994,18.6657976 C5.45999967,18.8697976 9.26399945,24.8757972 9.26399945,24.8757972 L17.063999,21.6957974 L22.1459987,15.5997978 L14.9939991,5.99979833 L9.91799941,8.1777982 Z" id="Path" fill="#525BA0" fill-rule="nonzero" mask="url(#mask-6)"></path>
                    </g>
                    <g id="Group-24" transform="translate(35.881998, 162.955857)">
                        <mask id="mask-8" fill="white">
                            <use xlink:href="#path-7"></use>
                        </mask>
                        <use id="Path" fill="#C57E69" fill-rule="nonzero" xlink:href="#path-7"></use>
                        <path d="M8.1279994,10.8641327 L7.01199946,11.4101326 C7.01199946,11.4101326 7.47399944,22.972132 2.90799971,20.0081321 C-1.65800002,17.0441323 -2,24.1481319 -2,24.1481319 L6.19599951,26.0441318 L13.8759991,24.0221319 L13.5519991,12.0221326 L8.1279994,10.8641327 Z" id="Path" fill="#525BA0" fill-rule="nonzero" mask="url(#mask-8)"></path>
                    </g>
                    <path d="M51.2039969,56.4419966 C51.2039969,56.4419966 51.2039969,103.397994 55.4039967,104.093994 C59.6039964,104.789994 63.1079962,103.397994 65.2139961,104.093994 C67.319996,104.789994 70.1159958,104.093994 70.1159958,104.093994 C66.568771,101.854516 62.3735216,100.868019 58.1999965,101.291994 L57.4979966,76.0919955 C57.4979966,76.0919955 65.2079961,41.0519976 55.3979967,45.2579973 C55.4099967,45.2279973 48.4019971,52.2359969 51.2039969,56.4419966 Z" id="Path" fill="#C57E69" fill-rule="nonzero"></path>
                    <g id="Group-26" transform="translate(25.779999, 73.597997)">
                        <mask id="mask-10" fill="white">
                            <use xlink:href="#path-9"></use>
                        </mask>
                        <use id="Path" fill="#495A71" fill-rule="nonzero" xlink:href="#path-9"></use>
                        <path d="M18.3019981,4.27599873 C19.1839981,9.33399843 21.9019979,15.2919981 26.1499977,18.4299979 C28.8619975,20.4399978 33.0859973,20.5059978 34.5499972,17.001998 C34.6099972,16.863998 34.3819972,16.803998 34.3279972,16.941998 C33.0739973,19.9779978 29.4799975,20.1819978 27.0199976,18.7419979 C25.2199977,17.6799979 23.8819978,15.879998 22.7239979,14.1939981 C20.622558,11.2154833 19.1898369,7.8178875 18.5239981,4.23399873 C18.5239981,4.08399874 18.2719981,4.14999874 18.3019981,4.29399873 L18.3019981,4.27599873 Z" id="Path" fill="#636D90" fill-rule="nonzero" mask="url(#mask-10)"></path>
                        <path d="M18.3319981,10.5519984 C23.7319978,10.5519984 29.1319975,10.4739984 34.4119972,9.20199844 C34.4639903,9.17716983 34.4909986,9.11889281 34.4763353,9.06317261 C34.4616721,9.00745242 34.4094768,8.97001843 34.3519972,8.97399845 C29.0779975,10.2459984 23.7259978,10.3179984 18.3319981,10.3179984 C18.2773972,10.3304421 18.2386627,10.3789974 18.2386627,10.4349984 C18.2386627,10.4909993 18.2773972,10.5395547 18.3319981,10.5519984 L18.3319981,10.5519984 Z" id="Path" fill="#636D90" fill-rule="nonzero" mask="url(#mask-10)"></path>
                        <path d="M-1.96600066,6.5019986 C11.8999985,8.96799845 26.5159976,11.3019983 39.8359969,5.30199867 C39.9739968,5.24199867 39.8359969,5.03799869 39.7219969,5.10399868 C26.4619976,11.1039983 11.8879985,8.70399847 -1.90600066,6.26799861 C-2.05000065,6.26799861 -2.11600065,6.4659986 -1.96600066,6.4959986 L-1.96600066,6.5019986 Z" id="Path" fill="#636D90" fill-rule="nonzero" mask="url(#mask-10)"></path>
                        <polyline id="Path" fill="#8199F0" fill-rule="nonzero" opacity="0.5" style="mix-blend-mode: multiply;" mask="url(#mask-10)" points="11.1199986 60.3999954 22.8499979 89.2299937 16.3159983 97.6359932 10.3999986 87.6759938 11.1199986 60.3999954"></polyline>
                    </g>
                    <g id="Group" transform="translate(23.399999, 77.399995)" opacity="0.5">
                        <g style="mix-blend-mode: multiply;" transform="translate(12.599999, 49.199997)" fill="#8199F0" fill-rule="nonzero" id="Path">
                            <path d="M0.641999962,1.04999994 C0.900469209,1.04999994 1.10999993,0.840469213 1.10999993,0.581999965 C1.10999993,0.323530718 0.900469209,0.113999993 0.641999962,0.113999993 C0.383530714,0.113999993 0.17399999,0.323530718 0.17399999,0.581999965 C0.17399999,0.840469213 0.383530714,1.04999994 0.641999962,1.04999994 L0.641999962,1.04999994 Z"></path>
                        </g>
                        <g style="mix-blend-mode: multiply;" transform="translate(20.399999, 0.000000)"></g>
                        <g style="mix-blend-mode: multiply;" transform="translate(20.399999, 4.800000)"></g>
                        <g style="mix-blend-mode: multiply;" transform="translate(0.000000, 1.200000)"></g>
                        <g style="mix-blend-mode: multiply;" transform="translate(17.999999, 13.199999)" fill="#8199F0" fill-rule="nonzero" id="Path">
                            <path d="M11.0039992,0.317999981 C12.3611016,16.4769414 10.9837943,32.7490461 6.92999941,48.4499971 C5.07599952,55.7999967 2.89799965,62.9999962 1.39799974,70.4219958 C-0.0660001749,77.6219954 0.155999812,77.6939954 1.61999972,70.4819958 C3.19799963,62.6819963 5.51999949,55.1039967 7.43399938,47.4119972 C11.3061798,32.0337925 12.5917455,16.1183269 11.2379992,0.317999981 C11.2379992,0.16799999 10.9919992,0.16799999 11.0039992,0.317999981 Z"></path>
                        </g>
                    </g>
                    <path d="M39.2879977,94.2839944 C39.2879977,94.9859943 35.0879979,121.613993 34.385998,124.421993 C33.683998,127.229992 47.6999972,163.66799 47.6999972,164.36399 C47.6999972,164.36399 45.5939973,169.27199 42.0899975,168.56399 C38.5859977,167.85599 19.6679988,127.199992 19.6679988,121.613993 C19.6679988,116.027993 24.0779986,82.4999951 26.0759984,78.2279953 C28.0739983,73.9559956 39.2879977,94.2839944 39.2879977,94.2839944 Z" id="Path" fill="#495A71" fill-rule="nonzero"></path>
                    <path d="M44.8979973,38.2199977 C44.8979973,38.2199977 40.8479976,32.6879981 43.0259974,27.4199984 L35.5559979,30.1979982 C35.5559979,30.1979982 36.7979978,37.0499978 31.5779981,38.2199977 C29.1119983,38.7719977 32.981998,43.1279974 32.981998,43.1279974 L42.0899975,43.1279974 L44.8979973,38.2199977 Z" id="Path" fill="#C57E69" fill-rule="nonzero"></path>
                    <path d="M34.5059979,34.127998 C34.5059979,34.127998 41.1599975,35.8019979 41.7839975,28.9559983 C42.4079975,22.1099987 33.689998,33.935998 33.689998,33.935998" id="Path" fill="#BC8B77" fill-rule="nonzero" opacity="0.35" style="mix-blend-mode: multiply;"></path>
                    <path d="M29.9219982,12.1439993 C29.9219982,12.9539992 26.6819984,30.7859982 33.977998,33.221998 C41.2739975,35.6579979 44.5139973,25.1159985 44.5139973,25.1159985 L39.6539976,13.7639992 L29.9219982,12.1439993 Z" id="Path" fill="#C57E69" fill-rule="nonzero"></path>
                    <g id="Group-27" transform="translate(24.245146, 37.405554)">
                        <mask id="mask-12" fill="white">
                            <use xlink:href="#path-11"></use>
                        </mask>
                        <use id="Path" fill="#FF4D53" fill-rule="nonzero" xlink:href="#path-11"></use>
                        <path d="M5.44285258,1.08444391 C8.92285237,3.07044379 12.9368521,4.08444373 16.9268519,3.25044378 C21.0428516,2.38644383 24.2168515,-0.457555996 27.2288513,-3.20555583 C27.3428513,-3.30755583 27.1748513,-3.46955582 27.0668513,-3.36755582 C24.3548514,-0.877555971 21.4628516,1.74444387 17.8148518,2.79444381 C13.6148521,3.99444374 9.26485235,2.9984438 5.56285257,0.886443924 C5.50812034,0.865521805 5.44628149,0.887186209 5.41657275,0.937691079 C5.386864,0.988195949 5.39797363,1.05277122 5.44285258,1.09044391 L5.44285258,1.08444391 Z" id="Path" fill="#C6964B" fill-rule="nonzero" mask="url(#mask-12)"></path>
                    </g>
                    <g id="Group" transform="translate(20.399999, 81.599998)" fill="#C6964B" fill-rule="nonzero">
                        <path d="M0.599999964,1.16399707 C0.858469212,1.16399707 1.06799994,0.954466345 1.06799994,0.695997097 C1.06799994,0.43752785 0.858469212,0.227997125 0.599999964,0.227997125 C0.341530717,0.227997125 0.131999992,0.43752785 0.131999992,0.695997097 C0.131999992,0.954466345 0.341530717,1.16399707 0.599999964,1.16399707 Z" id="Path"></path>
                    </g>
                    <path d="M27.7739983,14.3219991 C27.7739983,14.3219991 29.6399982,16.811999 32.4419981,14.3219991 C32.8864709,15.1158474 33.6308913,15.6981524 34.5084068,15.9383977 C35.3859223,16.1786429 36.3231413,16.0567354 37.1099978,15.5999991 C37.1099978,15.5999991 38.0459977,18.7079989 40.5359976,17.7779989 C40.5359976,17.7779989 41.4719975,25.5779985 44.2739974,22.7579986 C47.0759972,19.9379988 40.5359976,9.37199944 40.5359976,9.37199944 L33.377998,9.37199944 L27.7739983,9.97199941 C27.7739983,9.97199941 26.5259984,12.7619992 27.7739983,14.3219991 Z" id="Path" fill="#503D42" fill-rule="nonzero"></path>
                    <path d="M36.8099978,24.8279985 C36.1977151,24.8731389 35.5952655,24.65486 35.1539979,24.2279986 C34.689018,23.772731 34.4090272,23.1614534 34.367998,22.5119987 L34.367998,22.5119987 C34.2794245,21.8773026 34.448366,21.2335438 34.8371881,20.7241306 C35.2260101,20.2147174 35.8024146,19.8819647 36.4379978,19.7999988 C37.0483558,19.7558295 37.6485766,19.9740916 38.0879977,20.3999988 C38.5566161,20.8533157 38.8390651,21.4652884 38.8799977,22.1159987 C39.0355437,23.3689995 38.1936453,24.5282491 36.9539978,24.7679985 L36.8099978,24.8279985 Z M34.4879979,22.4879987 C34.5270638,23.1079018 34.7942322,23.6913976 35.2379979,24.1259986 C35.6484409,24.5396186 36.216171,24.7579763 36.7979978,24.7259985 C38.0312733,24.560937 38.9028823,23.4353315 38.7539977,22.1999987 C38.7183554,21.5792405 38.4506476,20.9945667 38.0039977,20.5619988 C37.5953031,20.1457076 37.0263168,19.9268667 36.4439978,19.9619988 L36.3059978,19.9619988 C35.1352874,20.2030606 34.3448461,21.3013305 34.4879979,22.4879987 L34.4879979,22.4879987 Z" id="Shape" fill="#EBBC63" fill-rule="nonzero"></path>
                    <path d="M30.8639982,24.0779986 C29.5498635,24.1015849 28.461217,23.0637598 28.4219983,21.7499987 L28.4219983,21.7499987 C28.2698182,20.8962207 28.6165017,20.0302175 29.3158017,19.5173089 C30.0151018,19.0044004 30.9452524,18.933897 31.7138735,19.3355402 C32.4824946,19.7371835 32.9557497,20.541037 32.933998,21.4079987 C32.984284,22.052404 32.796415,22.6928662 32.4059981,23.2079986 C32.0678149,23.6571754 31.5690279,23.9581676 31.0139982,24.0479986 L30.8639982,24.0779986 Z M28.5419983,21.7379987 L28.5419983,21.7379987 C28.5715,22.9892641 29.606605,23.9814632 30.8579982,23.9579986 C31.4345269,23.9093912 31.9628449,23.6168515 32.3099981,23.1539986 C32.6869475,22.658363 32.8665427,22.04047 32.813998,21.4199987 C32.7844963,20.1687333 31.7493913,19.1765343 30.4979982,19.1999989 C30.4540466,19.19708 30.4099498,19.19708 30.3659982,19.1999989 C29.18772,19.4386434 28.3925177,20.5451256 28.5419983,21.7379987 L28.5419983,21.7379987 Z" id="Shape" fill="#EBBC63" fill-rule="nonzero"></path>
                    <polygon id="Path" fill="#EBBC63" fill-rule="nonzero" points="45.0719973 22.8899986 45.0659973 22.7579986 38.7119977 22.3979987 38.7179977 22.5299987"></polygon>
                    <path d="M34.4099979,21.8759987 L34.5059979,21.7979987 C34.0833958,21.3191857 33.3656053,21.241165 32.849998,21.6179987 L32.915998,21.7199987 C33.3763571,21.3668301 34.0325279,21.4353459 34.4099979,21.8759987 L34.4099979,21.8759987 Z" id="Path" fill="#EBBC63" fill-rule="nonzero"></path>
                    <polygon id="Path" fill="#EBBC63" fill-rule="nonzero" points="29.3279983 21.2579987 29.3519983 21.1379987 28.5359983 20.9639988 28.5119983 21.0839987"></polygon>
                    <path d="M46.5299972,24.7679985 C46.0559973,25.8959985 45.0359973,26.5379984 44.2499974,26.2079984 C43.4639974,25.8779985 43.2059974,24.6959985 43.6499974,23.5739986 C44.0939974,22.4519987 45.1439973,21.8039987 45.9359973,22.1339987 C46.7279972,22.4639987 47.0039972,23.6459986 46.5299972,24.7679985 Z" id="Path" fill="#C57E69" fill-rule="nonzero"></path>
                    <g id="Group" opacity="0.5" style="mix-blend-mode: multiply;" transform="translate(34.199998, 98.999994)" fill="#8199F0" fill-rule="nonzero">
                        <path d="M0.491999971,0.785999953 C2.4825034,1.74996681 4.5211868,2.61110026 6.59999961,3.3659998 C6.7439996,3.4199998 6.80399959,3.19199981 6.6599996,3.14399981 C4.59884134,2.39758332 2.57631381,1.54852226 0.599999964,0.599999964 C0.467999972,0.533999968 0.347999979,0.731999956 0.485999971,0.797999952 L0.491999971,0.785999953 Z" id="Path"></path>
                    </g>
                    <g id="Group" opacity="0.5" style="mix-blend-mode: multiply;" transform="translate(34.799998, 97.799994)" fill="#8199F0" fill-rule="nonzero">
                        <path d="M0.215999987,0.239999986 C2.66399984,1.52799991 5.15999969,2.71399984 7.70399954,3.79799977 C7.83599953,3.85799977 7.95599953,3.65399978 7.81799953,3.59399979 C5.27399969,2.51399985 2.77999983,1.32999992 0.33599998,0.0419999975 C0.203999988,-0.0299999982 0.083999995,0.17399999 0.215999987,0.239999986 L0.215999987,0.239999986 Z" id="Path"></path>
                    </g>
                    <g id="Group" opacity="0.5" style="mix-blend-mode: multiply;" transform="translate(32.399998, 82.799995)" fill="#8199F0" fill-rule="nonzero">
                        <path d="M0.395999976,0.16199999 C0.629999962,3.76199978 1.25399993,12.9179992 6.39599998,12.7619992 C6.54599961,12.7619992 6.54599961,12.5219993 6.39599998,12.5279993 C1.5959999,12.6839992 0.851999949,3.45599979 0.635999962,0.17399999 C0.635999962,0.0239999986 0.395999976,0.0239999986 0.401999976,0.17399999 L0.395999976,0.16199999 Z" id="Path"></path>
                    </g>
                    <g id="Group" opacity="0.5" style="mix-blend-mode: multiply;" transform="translate(24.599999, 80.999995)" fill="#8199F0" fill-rule="nonzero">
                        <path d="M0.473999972,1.28399992 C6.47494712,4.44128083 13.699833,4.18096572 19.4579988,0.599999964 C19.5839988,0.521999969 19.4579988,0.317999981 19.3379988,0.395999976 C13.6544482,3.92653386 6.5278196,4.18896175 0.599999964,1.08599994 C0.467999972,1.01399994 0.347999979,1.21799993 0.485999971,1.28399992 L0.473999972,1.28399992 Z" id="Path"></path>
                    </g>
                    <g id="Group" opacity="0.5" style="mix-blend-mode: multiply;" transform="translate(23.399999, 85.199995)" fill="#8199F0" fill-rule="nonzero">
                        <path d="M0.125999992,7.52399955 C4.41599974,8.48399949 6.6959996,4.14599975 7.14599957,0.569999966 C7.14599957,0.419999975 6.92999959,0.425999975 6.91199959,0.569999966 C6.48599961,3.98999976 4.31999974,8.21999951 0.185999989,7.29599957 C0.128520348,7.29201954 0.0763250303,7.32945353 0.0616618214,7.38517372 C0.0469986124,7.44089392 0.0740068218,7.49917094 0.125999992,7.52399955 L0.125999992,7.52399955 Z" id="Path"></path>
                    </g>
                    <g id="Group" opacity="0.5" style="mix-blend-mode: multiply;" transform="translate(34.199998, 100.199994)" fill="#8199F0" fill-rule="nonzero">
                        <path d="M1.19999993,0.323999981 L0.16199999,2.99999982 C0.101999994,3.13799981 0.32999998,3.19799981 0.383999977,3.05999982 C0.743999956,2.17799987 1.09799993,1.28999992 1.45199991,0.407999976 C1.50599991,0.263999984 1.28399992,0.203999988 1.22399993,0.34199998 L1.19999993,0.323999981 Z" id="Path"></path>
                    </g>
                    <g id="Group" opacity="0.5" style="mix-blend-mode: multiply;" transform="translate(29.399998, 106.799994)" fill="#8199F0" fill-rule="nonzero">
                        <path d="M3.83399977,0.34199998 C3.16999981,3.22999981 2.50199985,6.11199964 1.82999989,8.98799946 C1.28999992,11.3459993 0.311999981,13.9319992 0.16199999,16.349999 C0.0299999982,18.3899989 0.971999942,20.2379988 1.6739999,22.1219987 C2.57399985,24.5459985 3.51199979,26.9459984 4.48799973,29.3219983 C8.40166251,38.9029276 12.8960052,48.2362528 17.9459989,57.2699966 C17.9663631,57.3053659 18.0040496,57.3272332 18.0448624,57.3272332 C18.0856751,57.3272332 18.1234137,57.3055536 18.1438624,57.2702331 C18.164311,57.2349126 18.1643631,57.1913659 18.1439989,57.1559966 C13.2863834,48.4599851 8.94292729,39.4865812 5.13599969,30.2819982 C4.28799974,28.2339983 3.46999979,26.1759984 2.68199984,24.1079986 C1.58999991,21.2579987 0.16199999,18.4919989 0.587999965,15.3719991 C1.27199992,10.3679994 2.92199983,5.30399968 4.05599976,0.371999978 C4.09199976,0.221999987 3.86999977,0.16199999 3.83399977,0.305999982 L3.83399977,0.34199998 Z" id="Path"></path>
                    </g>
                </g>
                <g id="Group-23" transform="translate(162.000000, 201.726010)">
                    <g id="Group-19" transform="translate(58.000000, 46.000000)" fill-rule="nonzero">
                        <g id="Asset-8" transform="translate(0.399996, -0.000003)">
                            <polygon id="Path" fill="#A0AAC1" points="12.5579993 46.0699972 3.13199981 95.2399943 5.15399969 95.2399943 17.273999 46.0699972"></polygon>
                            <polygon id="Path" fill="#A0AAC1" points="34.115998 46.0699972 43.5479974 95.2399943 41.5259975 95.2399943 29.3999982 46.0699972"></polygon>
                            <path d="M0.437999974,41.6819975 C0.437999974,41.6819975 -4.27799975,47.7419972 17.273999,47.0819972 C38.8259977,46.4219972 44.2199974,46.4099972 46.2419972,41.0219976 C48.2639971,35.6339979 52.3019969,3.2879998 55.6679967,1.94399988 C59.0339965,0.599999964 51.6299969,-2.77199983 49.607997,4.63799972 C47.5859972,12.0479993 44.8919973,38.9999977 36.1379978,39.6599976 C27.3839984,40.3199976 0.437999974,41.6819975 0.437999974,41.6819975 Z" id="Path" fill="#A884B4"></path>
                        </g>
                    </g>
                    <g id="Asset-1">
                        <path d="M23.8619986,126.329992 L18.1739989,131.867992 C18.1739989,131.867992 19.1519989,134.327992 13.7699992,138.431992 C13.7699992,138.431992 0.917999945,119.543993 1.76999989,118.979993 C2.62199984,118.415993 9.61799943,124.415993 9.61799943,124.415993 L14.7719991,126.641992 L20.1719988,120.641993 L23.8619986,126.329992 Z" id="Path" fill="#FCA675" fill-rule="nonzero"></path>
                        <path d="M18.8399989,132.353992 C18.6839989,131.675992 18.5939989,131.399992 15.5639991,131.879992 C12.5339993,132.359992 15.8099991,126.527992 14.4419991,125.555993 C13.0739992,124.583993 1.07399994,117.521993 1.07399994,117.521993 L0,120.443993 L13.7999992,140.057992 C13.7999992,140.057992 19.6559988,135.905992 18.8399989,132.353992 Z" id="Path" fill="#5E2C2C" fill-rule="nonzero"></path>
                        <g id="Group-21" transform="translate(17.549999, 82.556574)">
                            <mask id="mask-14" fill="white">
                                <use xlink:href="#path-13"></use>
                            </mask>
                            <use id="Path" fill="#373761" fill-rule="nonzero" xlink:href="#path-13"></use>
                            <path d="M54.2279968,7.86942085 C54.2279968,7.86942085 35.8559979,7.86942085 34.301998,7.26942088 C32.747998,6.66942092 39.5939976,13.1854205 39.9059976,18.7894202 C40.2179976,24.3934199 24.3359985,31.5574194 24.3359985,31.5574194 C24.3359985,31.5574194 16.241999,6.35742094 18.1139989,5.09142101 C19.9859988,3.82542109 49.2479971,0.399421294 54.2279968,7.86942085 Z" id="Path" fill="#BA436E" fill-rule="nonzero" opacity="0.3" style="mix-blend-mode: multiply;" mask="url(#mask-14)"></path>
                        </g>
                        <path d="M58.5539965,123.095993 L60.1139964,130.895992 C60.1139964,130.895992 62.7059963,131.411992 63.2279962,138.161992 C63.2279962,138.161992 40.3859976,138.683992 40.3859976,137.645992 C40.3859976,136.607992 49.1999971,133.997992 49.1999971,133.997992 L53.8739968,130.883992 L51.7979969,123.083993 L58.5539965,123.095993 Z" id="Path" fill="#FCA675" fill-rule="nonzero"></path>
                        <path d="M60.8819964,130.589992 C60.2279964,130.349992 59.9459964,130.277992 58.6979965,133.079992 C57.4499966,135.881992 54.3419968,129.965992 52.7879969,130.589992 C51.2339969,131.213992 38.7779977,137.435992 38.7779977,137.435992 L40.6439976,139.931992 L64.6439961,138.995992 C64.6439961,138.995992 64.3079962,131.831992 60.8819964,130.589992 Z" id="Path" fill="#5E2C2C" fill-rule="nonzero"></path>
                        <path d="M92.8139945,30.1859982 L94.3679944,31.1999981 C94.3679944,31.1999981 100.079994,31.1999981 104.753994,33.275998 C104.753994,33.275998 104.753994,75.3179955 100.601994,80.5139952 C100.601994,80.5139952 77.2439954,79.4759953 67.895996,70.6499958 C67.895996,70.6499958 73.0919956,33.275998 75.6959955,31.7219981 C78.2999953,30.1679982 87.5999948,31.1999981 87.5999948,31.1999981 L92.8139945,30.1859982 Z" id="Path" fill="#FFFFFF" fill-rule="nonzero"></path>
                        <path d="M101.165994,79.5539953 C101.165994,79.5539953 101.117994,93.5099944 49.733997,88.3199947 C49.733997,88.3199947 57.5339966,100.775994 60.1139964,124.133993 L50.771997,126.209992 C50.771997,126.209992 33.305998,90.8099946 36.0479979,75.7019955 C36.1508292,75.1704639 36.5664662,74.7548269 37.0979978,74.6519956 C41.2979975,73.8059956 60.1859964,70.2119958 72.5699957,70.6739958 C86.5859948,71.1899958 101.165994,79.5539953 101.165994,79.5539953 Z" id="Path" fill="#373761" fill-rule="nonzero"></path>
                        <g id="Group" transform="translate(46.199997, 70.199996)" fill="#322A50" fill-rule="nonzero">
                            <path d="M24.2999986,0.725999957 L30.3779982,2.25599987 C30.5219982,2.29199986 30.5879982,2.06999988 30.4379982,2.03399988 L24.3659985,0.49799997 C24.3071061,0.490101266 24.2513013,0.526491553 24.2347792,0.583568037 C24.218257,0.640644522 24.2459935,0.701217801 24.2999986,0.725999957 L24.2999986,0.725999957 Z" id="Path"></path>
                            <path d="M27.4139984,3.3719998 L29.5919982,3.97199976 C29.6508907,3.97989847 29.7066955,3.94350818 29.7232176,3.8864317 C29.7397398,3.82935521 29.7120033,3.76878193 29.6579982,3.74399978 L27.4739984,3.14399981 C27.3299984,3.10199982 27.2699984,3.3299998 27.4139984,3.3719998 L27.4139984,3.3719998 Z" id="Path"></path>
                            <path d="M4.00199976,16.799999 C3.42969914,15.9317295 2.97948418,14.9889026 2.66399984,13.9979992 C2.61599984,13.8539992 2.38799986,13.9139992 2.43599985,14.0579992 C2.75945242,15.0688193 3.21757012,16.0314719 3.79799977,16.919999 C3.88199977,17.039999 4.07999976,16.919999 4.00199976,16.799999 L4.00199976,16.799999 Z" id="Path"></path>
                            <path d="M2.80199983,17.309999 L0.599999964,15.4619991 C0.485999971,15.3659991 0.317999981,15.5279991 0.437999974,15.6299991 L2.63399984,17.477999 C2.74799984,17.573999 2.90999983,17.405999 2.79599983,17.309999 L2.80199983,17.309999 Z" id="Path"></path>
                        </g>
                        <path d="M93.8819944,23.4899986 L94.3679944,31.1999981 C94.3679944,31.1999981 89.6999947,35.3999979 86.0639949,31.1999981 L86.5859948,24.4559985 L93.8819944,23.4899986 Z" id="Path" fill="#FCA675" fill-rule="nonzero"></path>
                        <path d="M83.963995,28.3979983 C83.963995,28.3979983 91.9439945,29.3339983 92.8859945,24.6359985 C93.8279944,19.9379988 83.963995,28.3979983 83.963995,28.3979983 Z" id="Path" fill="#ECB485" fill-rule="nonzero" opacity="0.39" style="mix-blend-mode: multiply;"></path>
                        <path d="M109.139993,57.1139966 C109.139993,57.1139966 107.165994,54.1139968 105.095994,50.429997 C107.807994,47.5019972 111.737993,47.2979972 113.495993,47.3819972 C115.387368,51.8310487 116.844146,56.45255 117.845993,61.1819964 C117.845993,61.1819964 115.349993,68.0339959 89.5139947,64.9199961 L87.6419948,60.8759964 C87.6419948,60.8759964 103.847994,59.9159964 109.139993,57.1139966 Z" id="Path" fill="#FCA675" fill-rule="nonzero"></path>
                        <path d="M104.777994,52.1339969 C102.341994,47.8259971 100.085994,40.9319976 100.421994,38.7419977 C101.021994,34.6979979 102.287994,34.073998 102.287994,34.073998 C102.287994,34.073998 104.153994,31.8959981 106.649994,34.385998 C108.083994,35.8199979 112.511993,42.8219974 115.049993,49.0199971 C113.285993,48.9359971 107.489994,49.1999971 104.777994,52.1339969 Z" id="Path" fill="#FFFFFF" fill-rule="nonzero"></path>
                        <path d="M90.8399946,62.9999962 L82.4819951,42.3359975 C82.2001943,41.6454683 81.5298056,41.1930151 80.7839952,41.1897659 L45.5459973,41.1897659 C45.10813,41.1816935 44.6962273,41.3971385 44.4532985,41.7615316 C44.2103698,42.1259248 44.1699216,42.5890061 44.3459974,42.9899974 L53.9459968,65.6039961 L104.813994,65.6039961 L104.333994,63.8039962 L90.8399946,62.9999962 Z" id="Path" fill="#525BA0" fill-rule="nonzero"></path>
                        <path d="M106.883994,34.109998 C106.392106,33.7892481 105.871944,33.5141048 105.329994,33.287998 C104.603994,33.011998 103.739994,31.3499981 102.773994,32.1479981 C102.773994,32.1479981 100.937994,31.2839981 100.697994,32.3519981 C100.457994,33.419998 99.5939941,35.2559979 100.385994,36.2279978 C101.177994,37.1999978 105.041994,35.9999979 106.883994,34.109998 Z" id="Path" fill="#BC8B77" fill-rule="nonzero"></path>
                        <path d="M82.3679951,7.57799955 C82.3679951,7.57799955 76.5119954,24.7259985 84.539995,26.9159984 C92.5679945,29.1059983 96.1019943,20.9999987 96.1019943,20.9999987 L96.1679943,9.53999943 L82.3679951,7.57799955 Z" id="Path" fill="#FCA675" fill-rule="nonzero"></path>
                        <path d="M93.2459944,25.1999985 C93.2459944,25.1999985 105.755994,19.6559988 101.003994,11.6639993 C101.003994,11.6639993 101.687994,5.69399966 94.9319943,4.46399973 C94.9319943,4.46399973 86.6219948,-3.72599978 86.6099948,2.12399987 C86.6099948,2.12399987 79.8959952,-0.83399995 80.9459952,5.17799969 C80.9459952,5.17799969 74.9459955,5.17799969 79.8719952,9.80999942 C83.9373005,12.9808565 89.3385161,13.8607028 94.1999944,12.1439993 C94.1999944,12.1439993 91.3259946,15.3959991 92.6939945,19.2899989 C92.6999945,19.2899989 91.8359945,23.0159986 93.2459944,25.1999985 Z" id="Path" fill="#744E4D" fill-rule="nonzero"></path>
                        <path d="M92.5019945,19.3919988 C91.8119945,20.7239988 92.1419945,22.2659987 93.2279944,22.8239986 C94.3139944,23.3819986 95.7659943,22.7639986 96.4499943,21.4319987 C97.1339942,20.0999988 96.8099942,18.5579989 95.7179943,17.9999989 C94.6259944,17.441999 93.1859944,18.0599989 92.5019945,19.3919988 Z" id="Path" fill="#ECB485" fill-rule="nonzero"></path>
                        <path d="M94.8719943,11.5679993 C94.8679221,11.6576157 94.8454564,11.7454361 94.8059943,11.8259993 C94.7812575,11.8877198 94.7490149,11.9461595 94.7099944,11.9999993 C94.6417884,12.0944402 94.5655012,12.1827727 94.4819944,12.2639993 C94.3223215,12.402509 94.149501,12.525091 93.9659944,12.6299992 C93.6150032,12.8187453 93.2449185,12.9695951 92.8619945,13.0799992 C92.1240255,13.2959642 91.3694508,13.4504915 90.6059946,13.5419992 C90.2299946,13.6019992 89.8519946,13.6439992 89.4719947,13.6679992 C89.0939947,13.7099992 88.7159947,13.7339992 88.3379947,13.7519992 C87.5759948,13.7999992 86.8199948,13.8059992 86.0639949,13.8239992 C86.8139948,13.7519992 87.5699948,13.6979992 88.3199947,13.5959992 C88.6979947,13.5539992 89.0699947,13.4999992 89.4419947,13.4399992 C89.8139946,13.3799992 90.1859946,13.3139992 90.5579946,13.2359992 C91.2918985,13.0982525 92.0125651,12.8975097 92.7119945,12.6359992 C93.051548,12.512117 93.3772996,12.3532628 93.6839944,12.1619993 C93.8220588,12.071038 93.9506967,11.9665197 94.0679944,11.8499993 C94.1180598,11.7968609 94.1623105,11.7385306 94.1999944,11.6759993 C94.1999944,11.6459993 94.2359944,11.6159993 94.2359944,11.5979993 C94.2359944,11.5799993 94.2359944,11.5319993 94.2359944,11.5979993 L94.8719943,11.5679993 Z" id="Path" fill="#744E4D" fill-rule="nonzero"></path>
                        <path d="M100.349994,11.3039993 C100.575917,11.2962466 100.795594,11.2278566 100.985994,11.1059993 C101.19748,10.9664472 101.375689,10.7820933 101.507994,10.5659994 C101.652713,10.3391872 101.763864,10.0926346 101.837994,9.83399941 C101.911211,9.56007911 101.96534,9.28141046 101.999994,8.99999946 C102.017955,9.28171345 102.017955,9.56428543 101.999994,9.84599941 C101.96778,10.136057 101.897162,10.4205473 101.789994,10.6919994 C101.679646,10.9812158 101.505293,11.2417185 101.279994,11.4539993 C101.032904,11.6866783 100.725065,11.8447579 100.391994,11.9099993 L100.349994,11.3039993 Z" id="Path" fill="#744E4D" fill-rule="nonzero"></path>
                        <path d="M99.995994,10.9799993 C100.158656,11.1334982 100.342536,11.2628204 100.541994,11.3639993 C100.751371,11.4728119 100.975859,11.5496638 101.207994,11.5919993 C101.69735,11.6693618 102.198172,11.5670662 102.617994,11.3039993 C102.424195,11.4771925 102.205829,11.6207479 101.969994,11.7299993 C101.724109,11.8391612 101.458961,11.8983095 101.189994,11.9039993 C100.91423,11.9152381 100.638507,11.8807726 100.373994,11.8019993 C100.100322,11.7274049 99.8394106,11.6121182 99.5999941,11.4599993 L99.995994,10.9799993 Z" id="Path" fill="#744E4D" fill-rule="nonzero"></path>
                        <path d="M103.913994,50.189997 L102.839994,49.1999971 C102.731994,49.0919971 102.563994,49.2599971 102.671994,49.3619971 L103.751994,50.387997 C103.859994,50.489997 104.027994,50.327997 103.913994,50.219997 L103.913994,50.189997 Z" id="Path" fill="#637DD3" fill-rule="nonzero"></path>
                        <path d="M102.893994,50.861997 L100.637994,49.3859971 C100.511994,49.3019971 100.391994,49.505997 100.517994,49.583997 L102.773994,51.065997 C102.899994,51.149997 103.019994,50.945997 102.893994,50.861997 Z" id="Path" fill="#637DD3" fill-rule="nonzero"></path>
                        <path d="M81.9119951,71.1779958 C88.6190296,71.9015913 95.1097534,73.9773983 100.991994,77.2799954 C101.046726,77.3009175 101.108565,77.2792531 101.138274,77.2287482 C101.167983,77.1782434 101.156873,77.1136681 101.111994,77.0759954 C95.1908234,73.7595877 88.6597415,71.6757644 81.9119951,70.9499958 C81.7619951,70.9499958 81.7619951,71.1659958 81.9119951,71.1779958 L81.9119951,71.1779958 Z" id="Path" fill="#637DD3" fill-rule="nonzero"></path>
                        <path d="M84.9479949,31.7639981 C86.0999949,33.125998 87.6659948,34.4339979 89.5259947,34.5539979 C91.5479945,34.6859979 93.3359944,33.545998 94.9259943,32.4899981 C95.0519943,32.4059981 94.9259943,32.2079981 94.8059943,32.2859981 C93.2159944,33.323998 91.5179945,34.4339979 89.5319947,34.277998 C87.6839948,34.139998 86.2379949,32.963998 85.0859949,31.6019981 C84.9899949,31.4819981 84.8219949,31.6499981 84.9179949,31.7639981 L84.9479949,31.7639981 Z" id="Path" fill="#637DD3" fill-rule="nonzero"></path>
                        <path d="M105.323994,50.573997 C107.219994,48.1739971 110.873993,48.2219971 113.651993,48.1199971 C113.714954,48.1199971 113.765993,48.0689576 113.765993,48.0059971 C113.765993,47.9430367 113.714954,47.8919971 113.651993,47.8919971 C110.825993,47.9939971 107.093994,47.9819971 105.155994,50.411997 C105.065994,50.525997 105.227994,50.693997 105.323994,50.573997 Z" id="Path" fill="#637DD3" fill-rule="nonzero"></path>
                    </g>
                </g>
                <g id="Asset-2" transform="translate(46.000000, 214.726010)" fill-rule="nonzero">
                    <path d="M21.0360008,7.5180003 L18.7560007,8.95800036 L20.4000008,6 C19.4422752,3.81115792 18.1464627,1.786451 16.5600007,0 C13.5840286,7.32403829 12.3714134,15.2450872 13.0200005,23.1240009 L16.6200007,25.176001 L13.2000005,24.930001 C14.4000006,35.3100014 18.2460007,42.2100017 18.2460007,42.2100017 L21.4740009,42.4440017 C25.992001,25.680001 23.7840009,14.2560006 21.0360008,7.5180003 Z" id="Path" fill="#78C34D"></path>
                    <g id="Group" transform="translate(13.200001, 6.600000)" fill="#C1E7ED">
                        <path d="M3.64800014,0.450000018 C4.04800016,10.8020004 4.9280002,21.1180008 6.28800025,31.3980012 C6.68800027,34.3220014 7.12000028,37.2400015 7.5840003,40.1520016 C7.5840003,40.2840016 7.80000031,40.2420016 7.78200031,40.1160016 C6.14600024,29.9400012 4.9880002,19.7040008 4.30800017,9.40800037 C4.11600016,6.42800026 3.96400016,3.44600014 3.85200015,0.462000018 C3.85200015,0.336000013 3.64200014,0.318000013 3.64800014,0.462000018 L3.64800014,0.450000018 Z" id="Path"></path>
                        <path d="M4.36800017,10.5780004 C5.55082673,9.15612398 6.81917603,7.80762623 8.16600032,6.54000026 C8.26200033,6.45600026 8.13000032,6.30000025 8.03400032,6.39000025 C6.67372785,7.66815542 5.3933131,9.02872133 4.20000017,10.4640004 C4.11600016,10.5600004 4.28400017,10.6740004 4.36800017,10.5780004 L4.36800017,10.5780004 Z" id="Path"></path>
                        <path d="M6.00000024,26.400001 C7.20000029,24.740001 8.34200033,23.0520009 9.42600037,21.3360008 C9.45109105,21.289908 9.43711209,21.2322989 9.39368665,21.2028316 C9.35026121,21.1733643 9.29156315,21.181657 9.25800037,21.2220008 C8.15400032,22.9340009 7.01200028,24.622001 5.83200023,26.286001 C5.76000023,26.388001 5.92800024,26.5080011 6.00000024,26.400001 Z" id="Path"></path>
                        <path d="M4.9740002,16.9740007 C5.84742659,15.7807012 6.78899201,14.6388027 7.79400031,13.5540005 C7.88400031,13.4640005 7.75200031,13.3080005 7.6620003,13.4040005 C6.64298802,14.5005788 5.68743225,15.6544575 4.80000019,16.8600007 C4.72200019,16.9620007 4.89000019,17.0760007 4.9680002,16.9740007 L4.9740002,16.9740007 Z" id="Path"></path>
                        <path d="M4.02000016,5.53800022 L1.15800005,3.97200016 C1.04400004,3.91200016 0.930000037,4.08000016 1.04400004,4.14000016 L3.90600016,5.70000023 C4.02000016,5.76600023 4.14000016,5.59800022 4.02000016,5.53800022 L4.02000016,5.53800022 Z" id="Path"></path>
                        <path d="M4.57200018,14.5380006 L1.20000005,12.6000005 C1.08600004,12.5340005 0.972000039,12.7020005 1.08600004,12.7620005 L4.44000018,14.6820006 C4.55400018,14.7480006 4.66800019,14.5800006 4.55400018,14.5140006 L4.57200018,14.5380006 Z" id="Path"></path>
                        <path d="M6.56400026,31.9920013 C5.64268895,31.4582235 4.67223169,31.0141841 3.66600015,30.6660012 C3.61494359,30.6538638 3.56300957,30.6824485 3.54594957,30.7320776 C3.52888958,30.7817067 3.55227192,30.8361814 3.60000014,30.8580012 C4.58967096,31.1993123 5.54409466,31.6353332 6.45000026,32.1600013 C6.56400026,32.2200013 6.67800027,32.0580013 6.56400026,31.9920013 Z" id="Path"></path>
                        <path d="M5.40000021,23.3340009 C3.59382585,22.6462244 1.84444867,21.8176776 0.168000007,20.8560008 C0.0540000021,20.7900008 -0.0600000024,20.9580008 0.0540000021,21.0240008 C1.74384666,21.992977 3.50728375,22.8275502 5.32800021,23.5200009 C5.3754803,23.527552 5.42178712,23.5009232 5.43914256,23.4560883 C5.45649799,23.4112534 5.44018956,23.3603864 5.40000021,23.3340009 L5.40000021,23.3340009 Z" id="Path"></path>
                    </g>
                    <path d="M10.6320004,16.5780007 L9.25200037,18.3780007 L9.67800038,15.6000006 C8.28656421,14.1573522 6.67689919,12.9425107 4.9080002,12.0000005 C4.71132464,18.6207192 6.06536343,25.1957178 8.86200035,31.2000012 L12.3120005,31.7640013 L9.52800038,32.5680013 C11.7688682,37.1322775 14.8181087,41.2528179 18.5280007,44.7300018 L21.1440008,43.9680017 C19.8420008,29.4540012 14.7660006,21.0900008 10.6320004,16.5780007 Z" id="Path" fill="#8EDA63"></path>
                    <g id="Group" transform="translate(6.000000, 16.800001)" fill="#C1E7ED">
                        <path d="M1.20000005,0.600000024 C4.52800018,8.65200034 8.23200033,16.5320007 12.3120005,24.240001 C13.4760005,26.4320011 14.6760006,28.6080011 15.9120006,30.7680012 C15.9660006,30.8640012 16.1100006,30.7680012 16.0560006,30.6780012 C11.7760005,23.1500009 7.86800031,15.4240006 4.33200017,7.5000003 C3.30800013,5.20800021 2.30800009,2.90000012 1.33200005,0.576000023 C1.29000005,0.480000019 1.12800004,0.522022189 1.17000005,0.624000025 L1.20000005,0.600000024 Z" id="Path"></path>
                        <path d="M4.71600019,8.40000033 C5.23037591,6.93556273 5.83143821,5.50303091 6.51600026,4.11000016 C6.56400026,4.00800016 6.41400025,3.93000016 6.36600025,4.02600016 C5.66930795,5.43262232 5.05624201,6.87913739 4.53000018,8.35800033 C4.49400018,8.46000034 4.66200019,8.50200034 4.69800019,8.40000033 L4.71600019,8.40000033 Z" id="Path"></path>
                        <path d="M10.6080004,20.4300008 C11.0520004,18.7740007 11.4520005,17.1100007 11.8080005,15.4380006 C11.8151991,15.3950559 11.7883874,15.35373 11.7462371,15.3428022 C11.7040868,15.3318743 11.6605738,15.3549679 11.6460005,15.3960006 C11.2740004,17.0720007 10.8740004,18.7360007 10.4460004,20.3880008 C10.4388018,20.4309455 10.4656135,20.4722714 10.5077638,20.4831993 C10.5499141,20.4941271 10.5934271,20.4710336 10.6080004,20.4300008 L10.6080004,20.4300008 Z" id="Path"></path>
                        <path d="M7.06200028,13.2720005 C7.39550055,12.0783474 7.7961383,10.9044788 8.26200033,9.75600039 C8.30400033,9.65400038 8.16000032,9.57000038 8.11800032,9.67200038 C7.63341115,10.8328171 7.21670831,12.0208208 6.87000027,13.2300005 C6.87000027,13.3380005 7.00800028,13.3740005 7.03800028,13.2720005 L7.06200028,13.2720005 Z" id="Path"></path>
                        <path d="M3.00000012,4.53000018 L0.282000011,4.13400016 C0.174000007,4.13400016 0.132000005,4.28400017 0.24000001,4.29600017 L2.95800012,4.69200019 C3.06600012,4.69200019 3.10800012,4.54200018 3.00000012,4.53000018 Z" id="Path"></path>
                        <path d="M6.03600024,11.4720005 L2.82600011,10.9380004 C2.72403025,10.9380004 2.67600011,11.0820004 2.79000011,11.1000004 L5.99400024,11.6340005 C6.10200024,11.6340005 6.14400024,11.4900005 6.03600024,11.4720005 Z" id="Path"></path>
                        <path d="M12.6960005,24.648001 C11.8138762,24.5009212 10.9201704,24.4346464 10.0260004,24.450001 C9.98653061,24.4604552 9.95904383,24.4961702 9.95904383,24.537001 C9.95904383,24.5778318 9.98653061,24.6135467 10.0260004,24.624001 C10.9061285,24.6036613 11.7861744,24.6679568 12.6540005,24.816001 C12.7620005,24.816001 12.8040005,24.666001 12.6960005,24.648001 L12.6960005,24.648001 Z" id="Path"></path>
                        <path d="M9.27000037,18.1560007 C7.64538063,18.1402977 6.02446213,17.9978655 4.42200018,17.7300007 C4.31400017,17.7300007 4.27200017,17.8740007 4.38000017,17.8920007 C5.99569716,18.1675274 7.63102275,18.3119979 9.27000037,18.3240007 C9.31639229,18.3240007 9.35400037,18.2863926 9.35400037,18.2400007 C9.35400037,18.1936088 9.31639229,18.1560007 9.27000037,18.1560007 L9.27000037,18.1560007 Z" id="Path"></path>
                    </g>
                    <path d="M32.2680013,17.4000007 L30.0000012,17.5800007 L32.3460013,16.0020006 C32.4790417,13.9979933 32.2968259,11.9855209 31.8060013,10.0380004 C26.7657926,14.3689739 22.8136083,19.8235226 20.2680008,25.962001 L22.2000009,28.8900011 L19.7220008,27.3780011 C17.8583286,32.1148476 16.8683386,37.1501766 16.8000007,42.2400017 L19.1220008,43.6620017 C28.9860012,32.8680013 31.7280013,23.4780009 32.2680013,17.4000007 Z" id="Path" fill="#67B03D"></path>
                    <g id="Group" transform="translate(16.800001, 15.000001)" fill="#C1E7ED">
                        <path d="M12.5220005,0.420000017 C8.83000035,8.31200033 5.51600022,16.3720007 2.5800001,24.600001 C1.74800007,26.9320011 0.948000038,29.2800012 0.180000007,31.6440013 C0.150000006,31.7460013 0.312000012,31.7940013 0.348000014,31.6860013 C3.03600012,23.4540009 6.11000024,15.3580006 9.57000038,7.39800029 C10.5740004,5.0940002 11.6080005,2.80600011 12.6720005,0.534000021 C12.7200005,0.432000017 12.5760005,0.342000014 12.5280005,0.444000018 L12.5220005,0.420000017 Z" id="Path"></path>
                        <path d="M9.16200036,8.26800033 C10.593658,7.66276873 12.0602846,7.14383936 13.5540005,6.71400027 C13.6560005,6.71400027 13.6200005,6.51600026 13.5120005,6.54600026 C12.0045218,6.98281171 10.5239766,7.50771406 9.07800036,8.11800032 C8.97600036,8.16000032 9.07800036,8.31000033 9.16200036,8.26800033 L9.16200036,8.26800033 Z" id="Path"></path>
                        <path d="M4.26000017,20.7360008 C5.78400023,19.9360008 7.28800029,19.1140008 8.77200035,18.2700007 C8.86800035,18.2160007 8.77200035,18.0660007 8.69400035,18.1200007 C7.20000029,18.9720008 5.70600023,19.8000008 4.20000017,20.5860008 C4.10400016,20.6340008 4.20000017,20.7840008 4.27800017,20.7360008 L4.26000017,20.7360008 Z" id="Path"></path>
                        <path d="M7.15200028,13.2840005 C8.2644494,12.7278091 9.40839194,12.2369756 10.5780004,11.8140005 C10.6800004,11.7780005 10.6380004,11.6100005 10.5360004,11.6460005 C9.35281659,12.0760827 8.19495979,12.5728794 7.06800028,13.1340005 C6.97200028,13.1820005 7.06800028,13.3320005 7.15200028,13.2840005 L7.15200028,13.2840005 Z" id="Path"></path>
                        <path d="M10.8420004,4.36800017 L9.30600037,2.09400008 C9.24000037,2.00400008 9.09000036,2.09400008 9.15600036,2.17800009 L10.6920004,4.44600018 C10.7520004,4.53600018 10.9020004,4.44600018 10.8420004,4.36800017 Z" id="Path"></path>
                        <path d="M7.80000031,11.3100004 C7.20000029,10.3980004 6.60000026,9.51000038 6.03000024,8.58600034 C5.97000024,8.49000034 5.82000023,8.58600034 5.88000023,8.66400034 C6.48000026,9.57600038 7.08000028,10.4640004 7.6500003,11.3880005 C7.71000031,11.4840005 7.86000031,11.3880005 7.80000031,11.3100004 Z" id="Path"></path>
                        <path d="M2.5560001,25.122001 C2.07227324,24.3689044 1.51775794,23.6637056 0.900000036,23.0160009 C0.828000033,22.9380009 0.702000028,23.0520009 0.780000031,23.1360009 C1.38432856,23.770987 1.92677982,24.4621101 2.4000001,25.200001 C2.4600001,25.296001 2.6100001,25.200001 2.5500001,25.122001 L2.5560001,25.122001 Z" id="Path"></path>
                        <path d="M5.0400002,18.2100007 C3.95352819,16.9999906 2.96444508,15.7059569 2.08200008,14.3400006 C2.02200008,14.2500006 1.87200007,14.3400006 1.93200008,14.4240006 C2.82477102,15.8030724 3.82806903,17.1073598 4.9320002,18.3240007 C5.0040002,18.4080007 5.1300002,18.2880007 5.0580002,18.2100007 L5.0400002,18.2100007 Z" id="Path"></path>
                    </g>
                    <rect id="Rectangle" fill="#FF4D53" x="11.4300005" y="40.7760016" width="14.0700006" height="11.5860005" rx="1.15200005"></rect>
                    <rect id="Rectangle" fill="#EFF2F7" opacity="0.37" x="16.5120007" y="40.7760016" width="14.0700006" height="11.5860005" rx="1.15200005"></rect>
                    <polygon id="Rectangle" fill="#8686A9" points="0 51.366002 283.206012 51.366002 283.206012 56.9640023 0 56.9640023"></polygon>
                    <g id="Group" opacity="0.24" transform="translate(144.000000, 27.000000)">
                        <path d="M2.21899996,14.6999997 C2.21899996,14.6999997 -0.503999991,13.4329998 1.01499998,10.8359998 C2.53399996,8.23899986 5.7749999,9.05799985 3.81499994,5.57199991 C1.85499997,2.08599996 -0.55999999,3.60499994 1.40699998,1.07099998 C3.37399994,-1.46299998 4.57799992,1.25999998 4.25599993,1.88999997 C4.0583709,2.25168289 3.61098471,2.39361231 3.24099994,2.21199996 C3.46048578,2.18762792 3.6580301,2.06763931 3.78083848,1.8841015 C3.90364687,1.70056369 3.93920138,1.47218483 3.87799993,1.25999998 C3.75199994,0.370999994 1.97399997,0.685999988 1.65899997,1.88999997 C1.34399998,3.09399995 10.1569998,6.52399989 7.81199987,8.42799986 C5.46699991,10.3319998 4.50799992,11.7249998 5.39699991,12.6279998 C6.28599989,13.5309998 3.24099994,14.8539997 3.24099994,14.8539997 L2.21899996,14.6999997 Z" id="Path" fill="#A08787"></path>
                        <path d="M3.25499994,15.0989997 C3.94703909,14.5466608 4.15223767,13.5822275 3.74499994,12.7959998 C3.12899995,11.2559998 1.81299997,11.7459998 2.61099996,9.66699984 C3.40899994,7.58799987 4.38899993,8.49799986 3.59099994,6.99299988 C2.79299995,5.48799991 2.30299996,7.10499988 2.42899996,7.48299987 C2.55499996,7.86099987 2.84199995,7.67199987 2.84199995,7.67199987 C2.84199995,7.67199987 2.53399996,7.62999987 2.58299996,7.10499988 C2.63199996,6.57999989 3.35999994,6.76199988 3.48599994,7.48299987 C3.61199994,8.20399986 0.0349999994,10.2339998 0.986999983,11.3679998 C1.93899997,12.5019998 2.33099996,13.3279998 1.96699997,13.8529998 C1.60299997,14.3779998 2.84199995,15.1759997 2.84199995,15.1759997 L3.25499994,15.0989997 Z" id="Path" fill="#FFFFFF"></path>
                    </g>
                    <path d="M151.379753,41 L143.058331,41 C142.879746,41.0013867 142.709742,41.0753701 142.588825,41.2043227 C142.467909,41.3332753 142.406908,41.5056501 142.420356,41.6803764 L142.725474,43.8235621 C142.368518,43.610044 141.944076,43.5325669 141.532737,43.6058417 C140.926274,43.7550806 140.43815,44.1955847 140.235983,44.7760891 C139.986446,45.4279826 139.933484,46.1365823 140.083423,46.8172183 C140.21207,47.5097494 140.54757,48.1491511 141.047321,48.6542347 C141.396978,49.0259448 141.88425,49.2441473 142.399552,49.2597697 C142.503315,49.2698657 142.607842,49.2698657 142.711605,49.2597697 C142.980767,49.2037674 143.231194,49.0820852 143.43973,48.9059739 L143.807259,51.5458344 C143.883539,52.1581732 150.824991,52.1445657 150.887402,51.5458344 L151.996925,41.6939839 C152.01425,41.5204764 151.957844,41.3476429 151.841022,41.2162805 C151.724199,41.0849182 151.557311,41.0066677 151.379753,41 L151.379753,41 Z M142.600653,48.6406271 C142.192849,48.6932156 141.785652,48.5395544 141.518868,48.2324013 C140.699803,47.3703425 140.433028,46.1349079 140.825417,45.0210246 C140.950399,44.63383 141.265881,44.3345292 141.664493,44.2249842 C141.724377,44.2179264 141.784907,44.2179264 141.844791,44.2249842 C142.191086,44.245836 142.515023,44.3998608 142.746278,44.6536213 C142.784436,44.6865438 142.81927,44.7229992 142.850296,44.7624816 L143.314908,48.0759147 C143.171718,48.3569999 142.911033,48.5631058 142.600653,48.6406271 L142.600653,48.6406271 Z" id="Shape" fill="#FF4D53"></path>
                    <polygon id="Path" fill="#8686A9" points="8.54400034 56.9640023 10.2240004 127.800005 14.7000006 127.800005 18.0600007 56.9640023"></polygon>
                </g>
            </g>
        </g>
    </g>
</svg>