<?xml version="1.0" encoding="UTF-8"?>
<svg width="224px" height="355px" viewBox="0 0 224 355" version="1.1" xmlns="http://www.w3.org/2000/svg" xmlns:xlink="http://www.w3.org/1999/xlink">
    <!-- Generator: Sketch 50 (54983) - http://www.bohemiancoding.com/sketch -->
    <title>ipad (1)</title>
    <desc>Created with Sketch.</desc>
    <defs></defs>
    <g id="Page-1" stroke="none" stroke-width="1" fill="none" fill-rule="evenodd">
        <g id="Large-Device-Desktops" transform="translate(-1216.000000, -1672.000000)" fill-rule="nonzero">
            <g id="ipad-(1)" transform="translate(1370.382546, 1850.460139) rotate(-23.000000) translate(-1370.382546, -1850.460139) translate(1255.882546, 1696.960139)">
                <path d="M8.25364243,256.330608 C11.0846531,256.330608 13.3825201,254.038302 13.3825201,251.214141 L13.4182394,25.5835332 C13.4182394,18.1231934 21.3270372,10.2335332 28.8054734,10.2335332 L203.193926,10.2335332 C222.705881,11.2951882 218.493327,40.0669569 218.493327,47.5272967 C218.493327,50.3514569 220.791194,52.6437635 223.622205,52.6437635 C226.453215,52.6437635 228.751082,50.3514569 228.751082,47.5272967 C228.751684,34.3772635 232.795681,1.29934236 203.194527,-3.93072241e-11 L28.8054734,-3.93072241e-11 C15.6241436,-3.93072241e-11 3.16048404,12.4335 3.16048404,25.5835332 L3.12476477,251.214141 C3.12476477,254.038302 5.42263179,256.330608 8.25364243,256.330608 Z" id="Shape" fill="#D8DBDF"></path>
                <path d="M223.710638,40.9335332 L12.2964013,39.3911734 C9.46539067,39.3911734 7.16752365,41.6834801 7.16752365,44.5076402 C7.16752365,47.3318004 9.46539067,49.624107 12.2964013,49.624107 L218.58116,51.1664668 L218.58116,281.416467 C218.58116,288.876807 210.672362,296.766467 203.193926,296.766467 L28.8054734,296.766467 C21.3270372,296.766467 13.4182394,288.876807 13.4182394,281.416467 L13.4182394,255.832934 L218.889338,256.387312 C221.720349,256.387312 224.018216,254.095005 224.018216,251.270845 C224.018216,248.446685 221.720349,246.154378 218.889338,246.154378 L8.2893617,245.6 C5.45835106,245.6 3.16048404,247.892307 3.16048404,250.716467 L3.16048404,281.416467 C3.16048404,294.5665 15.6241436,307 28.8060745,307 L203.194527,307 C216.376457,307 228.840117,294.5665 228.840117,281.416467 L228.840117,46.05 C228.839516,43.2258398 226.541649,40.9335332 223.710638,40.9335332 Z" id="Shape" fill="#D8DBDF"></path>
                <g id="Group-9" transform="translate(106.796100, 143.650690) rotate(-9.000000) translate(-106.796100, -143.650690) translate(12.796100, 56.150690)">
                    <path d="M73.0663552,6.97276294 C70.9155467,5.25997974 67.748568,5.57125904 65.9919723,7.66903248 L45.3529935,32.3183684 L33.6374191,17.5751848 C31.9364829,15.4345794 28.778185,15.0436126 26.5834616,16.7031047 C24.3887382,18.3620989 23.9883978,21.4425188 25.689334,23.5831243 L41.2755467,43.1987004 C42.2140999,44.3795696 43.6530787,45.0788274 45.1849935,45.0977532 C45.2064404,45.0977532 45.2283978,45.0977532 45.249334,45.0977532 C46.7577595,45.0977532 48.1880574,44.436845 49.1434616,43.2958196 L73.779717,13.8727044 C75.5363127,11.775429 75.2171638,8.68604419 73.0663552,6.97276294 Z" id="Shape" fill="#F1D8DE" transform="translate(49.774598, 25.482392) rotate(14.000000) translate(-49.774598, -25.482392) "></path>
                    <path d="M182.388151,27.4794627 L101.943215,27.4794627 C99.1668748,27.4794627 96.9154705,29.6753514 96.9154705,32.3832322 C96.9154705,35.0911131 99.1668748,37.2870018 101.943215,37.2870018 L182.388151,37.2870018 C185.164492,37.2870018 187.415896,35.0911131 187.415896,32.3832322 C187.415896,29.6753514 185.164492,27.4794627 182.388151,27.4794627 Z" id="Shape" fill="#D8DBDF" transform="translate(142.165683, 32.383232) rotate(9.000000) translate(-142.165683, -32.383232) "></path>
                    <path d="M127.317155,46.1603488 L97.150176,46.1603488 C94.3738356,46.1603488 92.1224313,48.3562375 92.1224313,51.0641183 C92.1224313,53.7719992 94.3738356,55.9678879 97.150176,55.9678879 L127.317155,55.9678879 C130.093495,55.9678879 132.344899,53.7719992 132.344899,51.0641183 C132.344899,48.3562375 130.093495,46.1603488 127.317155,46.1603488 Z" id="Shape" fill="#D8DBDF" transform="translate(112.233665, 51.064118) rotate(9.000000) translate(-112.233665, -51.064118) "></path>
                    <path d="M60.7571523,66.2278798 C58.6063438,64.5150966 55.4393651,64.8263759 53.6827693,66.9241493 L33.0437906,91.5734852 L21.3282161,76.8303016 C19.62728,74.6896962 16.4689821,74.2987294 14.2742587,75.9582216 C12.0795353,77.6172157 11.6791949,80.6976356 13.380131,82.8382411 L28.9663438,102.453817 C29.904897,103.634686 31.3438757,104.333944 32.8757906,104.35287 C32.8972374,104.35287 32.9191949,104.35287 32.940131,104.35287 C34.4485566,104.35287 35.8788544,103.691962 36.8342587,102.550936 L61.470514,73.1278212 C63.2271098,71.0300477 62.9079608,67.940663 60.7571523,66.2278798 Z" id="Shape" fill="#F1D8DE" transform="translate(37.465395, 84.737509) rotate(14.000000) translate(-37.465395, -84.737509) "></path>
                    <path d="M169.248394,84.6362608 L88.8034574,84.6362608 C86.0271169,84.6362608 83.7757127,86.8321495 83.7757127,89.5400303 C83.7757127,92.2479112 86.0271169,94.4437999 88.8034574,94.4437999 L169.248394,94.4437999 C172.024734,94.4437999 174.276138,92.2479112 174.276138,89.5400303 C174.276138,86.8321495 172.024734,84.6362608 169.248394,84.6362608 Z" id="Shape" fill="#D8DBDF" transform="translate(129.025925, 89.540030) rotate(10.000000) translate(-129.025925, -89.540030) "></path>
                    <path d="M115.542106,103.736412 L85.375127,103.736412 C82.5987866,103.736412 80.3473824,105.9323 80.3473824,108.640181 C80.3473824,111.348062 82.5987866,113.543951 85.375127,113.543951 L115.542106,113.543951 C118.318446,113.543951 120.56985,111.348062 120.56985,108.640181 C120.56985,105.9323 118.318446,103.736412 115.542106,103.736412 Z" id="Shape" fill="#D8DBDF" transform="translate(100.458616, 108.640181) rotate(10.000000) translate(-100.458616, -108.640181) "></path>
                    <path d="M53.3274648,126.482684 C51.1766563,124.769901 48.0096776,125.081181 46.2530818,127.178954 L25.6141031,151.82829 L13.8985286,137.085106 C12.1975925,134.944501 9.03929459,134.553534 6.84457119,136.213026 C4.64984779,137.87202 4.24950736,140.95244 5.95044353,143.093046 L21.5366563,162.708622 C22.4752095,163.889491 23.9141882,164.588749 25.4461031,164.607675 C25.4675499,164.607675 25.4895074,164.607675 25.5104435,164.607675 C27.0188691,164.607675 28.4491669,163.946766 29.4045712,162.805741 L54.0408265,133.382626 C55.7974223,131.284852 55.4782733,128.195468 53.3274648,126.482684 Z" id="Shape" fill="#F1D8DE" transform="translate(30.035708, 144.992314) rotate(15.000000) translate(-30.035708, -144.992314) "></path>
                    <path d="M156.099533,140.732139 L75.6545967,140.732139 C72.8782563,140.732139 70.626852,142.928028 70.626852,145.635909 C70.626852,148.34379 72.8782563,150.539678 75.6545967,150.539678 L156.099533,150.539678 C158.875873,150.539678 161.127278,148.34379 161.127278,145.635909 C161.127278,142.928028 158.875873,140.732139 156.099533,140.732139 Z" id="Shape" fill="#D8DBDF" transform="translate(115.877065, 145.635909) rotate(11.000000) translate(-115.877065, -145.635909) "></path>
                    <path d="M101.567736,160.697069 L71.400757,160.697069 C68.6244166,160.697069 66.3730123,162.892958 66.3730123,165.600839 C66.3730123,168.30872 68.6244166,170.504609 71.400757,170.504609 L101.567736,170.504609 C104.344076,170.504609 106.59548,168.30872 106.59548,165.600839 C106.59548,162.893456 104.344076,160.697069 101.567736,160.697069 Z" id="Shape" fill="#D8DBDF" transform="translate(86.484246, 165.600839) rotate(11.000000) translate(-86.484246, -165.600839) "></path>
                </g>
                <path d="M116.102782,20.4664668 C113.271771,20.4664668 110.999149,22.7587734 110.999149,25.5829336 C110.999149,28.4070937 113.322862,30.6994004 116.153872,30.6994004 C118.990293,30.6994004 121.28275,28.4070937 121.28275,25.5829336 C121.28275,22.7587734 118.990293,20.4664668 116.153872,20.4664668 L116.102782,20.4664668 Z" id="Shape" fill="#D8DBDF"></path>
                <path d="M105.741644,276.3 C105.741644,281.943523 110.342186,286.533533 116,286.533533 C121.657814,286.533533 126.258356,281.944123 126.258356,276.3 C126.258356,270.656477 121.657814,266.066467 116,266.066467 C110.342186,266.066467 105.741644,270.656477 105.741644,276.3 Z" id="Shape" fill="#D8DBDF"></path>
            </g>
        </g>
    </g>
</svg>