<?xml version="1.0" encoding="UTF-8"?>
<svg width="231px" height="327px" viewBox="0 0 231 327" version="1.1" xmlns="http://www.w3.org/2000/svg" xmlns:xlink="http://www.w3.org/1999/xlink">
    <!-- Generator: Sketch 50 (54983) - http://www.bohemiancoding.com/sketch -->
    <title>diagram</title>
    <desc>Created with Sketch.</desc>
    <defs></defs>
    <g id="Page-1" stroke="none" stroke-width="1" fill="none" fill-rule="evenodd">
        <g id="Large-Device-Desktops" transform="translate(0.000000, -2335.000000)" fill-rule="nonzero">
            <g id="diagram" transform="translate(57.488744, 2500.480932) rotate(-13.000000) translate(-57.488744, -2500.480932) translate(-87.011256, 2355.980932)">
                <rect id="Rectangle-path" fill="#D8DBDF" x="0.0018024948" y="278.810651" width="288.399168" height="9.593361"></rect>
                <path d="M278.282967,41.6291909 L259.056356,3.25574689 C257.870915,0.884987552 254.985121,-0.0779460581 252.609432,1.10503527 C252.608231,1.10563485 252.607029,1.10623444 252.605827,1.10683402 L214.152605,20.293556 C211.776917,21.4777365 210.812582,24.3599419 211.999225,26.7307012 C213.185867,29.1014606 216.074064,30.0637946 218.449753,28.8796141 L246.299499,14.9932241 L238.700181,36.6454398 C205.29815,131.576544 119.265674,198.176054 18.8198482,206.860444 L19.6369792,216.453805 C123.867443,207.443241 213.1372,138.324873 247.779948,39.811249 L255.537886,17.6889585 L269.679058,45.9174232 C270.865701,48.2881826 273.753898,49.2505166 276.129586,48.0663361 C278.505875,46.8821556 279.469609,44.0005498 278.282967,41.6291909 Z" id="Shape" fill="#F1D8DE"></path>
                <path d="M57.6816362,230.843846 L24.0350665,230.843846 C21.3805925,230.843846 19.2284137,232.99156 19.2284137,235.640527 L19.2284137,264.42061 C19.2284137,267.069577 21.3805925,269.21729 24.0350665,269.21729 L57.6816362,269.21729 C60.3361102,269.21729 62.488289,267.069577 62.488289,264.42061 L62.488289,235.640527 C62.488289,232.99156 60.3361102,230.843846 57.6816362,230.843846 Z M52.8749834,259.623929 L28.8417193,259.623929 L28.8417193,240.437207 L52.8749834,240.437207 L52.8749834,259.623929 Z" id="Shape" fill="#D8DBDF"></path>
                <path d="M110.554817,216.453805 L76.9082474,216.453805 C74.2537734,216.453805 72.1015946,218.601519 72.1015946,221.250485 L72.1015946,264.42061 C72.1015946,267.069577 74.2537734,269.21729 76.9082474,269.21729 L110.554817,269.21729 C113.209291,269.21729 115.36147,267.069577 115.36147,264.42061 L115.36147,221.250485 C115.36147,218.601519 113.209291,216.453805 110.554817,216.453805 Z M105.748164,259.623929 L81.7149002,259.623929 L81.7149002,226.047166 L105.748164,226.047166 L105.748164,259.623929 Z" id="Shape" fill="#D8DBDF"></path>
                <path d="M163.427998,192.470402 L129.781428,192.470402 C127.126954,192.470402 124.974775,194.618116 124.974775,197.267083 L124.974775,264.42061 C124.974775,267.069577 127.126954,269.21729 129.781428,269.21729 L163.427998,269.21729 C166.082472,269.21729 168.234651,267.069577 168.234651,264.42061 L168.234651,197.267083 C168.234651,194.618116 166.082472,192.470402 163.427998,192.470402 Z M158.621345,259.623929 L134.588081,259.623929 L134.588081,202.063763 L158.621345,202.063763 L158.621345,259.623929 Z" id="Shape" fill="#D8DBDF"></path>
                <path d="M216.301179,158.893639 L182.654609,158.893639 C180.000135,158.893639 177.847956,161.041353 177.847956,163.69032 L177.847956,264.42061 C177.847956,267.069577 180.000135,269.21729 182.654609,269.21729 L216.301179,269.21729 C218.955653,269.21729 221.107832,267.069577 221.107832,264.42061 L221.107832,163.69032 C221.107832,161.041353 218.955653,158.893639 216.301179,158.893639 Z M211.494526,259.623929 L187.461262,259.623929 L187.461262,168.487 L211.494526,168.487 L211.494526,259.623929 Z" id="Shape" fill="#D8DBDF"></path>
                <path d="M269.17436,91.740112 L235.52779,91.740112 C232.873316,91.740112 230.721137,93.8878257 230.721137,96.5367925 L230.721137,264.42061 C230.721137,267.069577 232.873316,269.21729 235.52779,269.21729 L269.17436,269.21729 C271.828834,269.21729 273.981012,267.069577 273.981012,264.42061 L273.981012,96.5367925 C273.981012,93.8878257 271.828834,91.740112 269.17436,91.740112 Z M264.367707,259.623929 L240.334443,259.623929 L240.334443,101.333473 L264.367707,101.333473 L264.367707,259.623929 Z" id="Shape" fill="#D8DBDF"></path>
            </g>
        </g>
    </g>
</svg>