<?xml version="1.0" encoding="UTF-8"?>
<svg width="175px" height="313px" viewBox="0 0 175 313" version="1.1" xmlns="http://www.w3.org/2000/svg" xmlns:xlink="http://www.w3.org/1999/xlink">
    <!-- Generator: Sketch 50 (54983) - http://www.bohemiancoding.com/sketch -->
    <title>user</title>
    <desc>Created with Sketch.</desc>
    <defs></defs>
    <g id="Page-1" stroke="none" stroke-width="1" fill="none" fill-rule="evenodd">
        <g id="Large-Device-Desktops" transform="translate(0.000000, -1025.000000)" fill-rule="nonzero">
            <g id="user" transform="translate(58.137386, 1181.480278) rotate(-340.000000) translate(-58.137386, -1181.480278) translate(-18.362614, 1037.480278)">
                <g id="navigation-(1)">
                    <path d="M133.679562,0 L19.320438,0 C8.80866788,0 0.260770073,8.6113125 0.260770073,19.1998125 L0.260770073,268.799625 C0.260770073,279.388688 8.80922628,287.999437 19.320438,287.999437 L133.679562,287.999437 C144.191332,287.999437 152.73923,279.388125 152.73923,268.799625 L152.73923,19.1998125 C152.73923,8.6113125 144.191332,0 133.679562,0 Z M143.209675,268.800188 C143.209675,274.094438 138.935726,278.400375 133.679562,278.400375 L19.320438,278.400375 C14.0648321,278.400375 9.79032482,274.095 9.79032482,268.800188 L9.79032482,19.1998125 C9.79032482,13.9055625 14.0642737,9.599625 19.320438,9.599625 L133.679562,9.599625 C138.935168,9.599625 143.209675,13.905 143.209675,19.1998125 L143.209675,268.800188 Z" id="Shape" stroke="#D8DBDF" stroke-width="0.9" fill="#D8DBDF"></path>
                    <rect id="Rectangle-path" fill="#D8DBDF" x="5.02554745" y="240.000188" width="142.948905" height="9.6001875"></rect>
                    <rect id="Rectangle-path" fill="#D8DBDF" x="5.02554745" y="38.4001875" width="42.8846715" height="9.6001875"></rect>
                    <rect id="Rectangle-path" fill="#D8DBDF" x="57.4403321" y="259.2" width="38.1198942" height="9.6001875"></rect>
                    <rect id="Rectangle-path" fill="#D8DBDF" x="100.325004" y="38.4001875" width="47.6494489" height="9.6001875"></rect>
                    <path d="M59.4125803,96.0001875 L70.3386788,84.99375 L63.6010949,78.206625 L49.3062044,92.606625 C47.4428431,94.4836875 47.4428431,97.51725 49.3062044,99.39375 L73.131208,123.393938 L79.868792,116.606813 L59.4125803,96.0001875 Z" id="Shape" fill="#D8DBDF"></path>
                    <rect id="Rectangle-path" fill="#D8DBDF" transform="translate(105.090825, 72.002231) rotate(-45.000000) translate(-105.090825, -72.002231) " x="100.325814" y="58.4255797" width="9.53002174" height="27.1533021"></rect>
                    <path d="M76.5,14.4 C70.5011715,14.4 64.6877299,16.1713125 59.7035036,19.526625 C45.8279672,28.8579375 42.0733248,47.822625 51.3315,61.7956875 L72.5354015,93.859875 C73.4171058,95.1991875 74.9085766,96.00075 76.5,96.00075 C78.0964489,96.00075 79.578427,95.1991875 80.4690657,93.859875 L101.672967,61.80075 C105.003788,56.775375 106.762172,50.9236875 106.762172,44.88075 C106.757704,28.0749375 93.1820255,14.4 76.5,14.4 Z M93.7398613,56.4721875 L76.5,82.5406875 L59.2556715,56.467125 C52.9134307,46.8961875 55.4865109,33.9024375 64.9926131,27.5085 C68.4088686,25.2140625 72.3879854,23.999625 76.5,23.999625 C87.9264197,23.999625 97.2275912,33.3691875 97.2275912,44.8745625 C97.2275912,49.012875 96.0220182,53.0206875 93.7398613,56.4721875 Z" id="Shape" fill="#F1D8DE"></path>
                    <ellipse id="Oval" fill="#F1D8DE" cx="76.5" cy="43.2" rx="9.53011314" ry="9.6001875"></ellipse>
                    <path d="M144.605661,44.60625 L47.910219,142.012688 L8.39433942,102.20625 L1.65675547,108.993375 L44.541427,152.193375 C45.4705949,153.129375 46.6906861,153.599625 47.910219,153.599625 C49.1303102,153.599625 50.3498431,153.129375 51.2790109,152.193375 L151.343245,51.393375 L144.605661,44.60625 Z" id="Shape" fill="#D8DBDF"></path>
                    <path d="M32.2193431,164.606625 L8.39433942,140.606437 L1.65675547,147.393563 L22.1129672,168.000187 L1.65675547,188.60625 L8.39433942,195.393375 L32.2193431,171.39375 C34.082146,169.516687 34.082146,166.483125 32.2193431,164.606625 Z" id="Shape" fill="#D8DBDF"></path>
                    <polygon id="Shape" fill="#D8DBDF" points="151.343245 118.593562 144.605661 111.806437 77.8959854 179.006625 88.0023613 182.400187"></polygon>
                    <polygon id="Shape" fill="#D8DBDF" points="77.9578414 178.996153 15.951646 241.406437 22.6892299 248.193562 88.0084977 182.365622"></polygon>
                </g>
            </g>
        </g>
    </g>
</svg>