<?xml version="1.0" encoding="UTF-8"?>
<svg width="73px" height="69px" viewBox="0 0 73 69" version="1.1" xmlns="http://www.w3.org/2000/svg" xmlns:xlink="http://www.w3.org/1999/xlink">
    <!-- Generator: Sketch 52.4 (67378) - http://www.bohemiancoding.com/sketch -->
    <title>data_analytics_white</title>
    <desc>Created with Sketch.</desc>
    <g id="data_analytics_white" stroke="none" stroke-width="1" fill="none" fill-rule="evenodd">
        <g id="analytics-(2)" transform="translate(7.000000, 5.000000)" fill="#FFFFFF">
            <path d="M57.0967742,13.5483871 L52.2580645,13.5483871 L52.2580645,0.967741935 C52.2580645,0.433782823 51.8256993,0 51.2903226,0 L8.70967742,0 C8.17430069,0 7.74193548,0.433782823 7.74193548,0.967741935 L7.74193548,13.5483871 L2.90322581,13.5483871 C1.30276585,13.5483871 0,14.8511529 0,16.4516129 L0,45.483871 C0,47.0843309 1.30276585,48.3870968 2.90322581,48.3870968 L22.2580645,48.3870968 L22.2580645,52.2580645 L21.2903226,52.2580645 C17.555916,52.2580645 14.516129,55.2978515 14.516129,59.0322581 C14.516129,59.5676348 14.9484942,60 15.483871,60 L44.516129,60 C45.0515058,60 45.483871,59.5676348 45.483871,59.0322581 C45.483871,55.2978515 42.444084,52.2580645 38.7096774,52.2580645 L37.7419355,52.2580645 L37.7419355,48.3870968 L57.0967742,48.3870968 C58.6972342,48.3870968 60,47.0843309 60,45.483871 L60,16.4516129 C60,14.8511529 58.6972342,13.5483871 57.0967742,13.5483871 Z M9.67741935,9.67741935 L50.3225806,9.67741935 L50.3225806,42.5806452 L9.67741935,42.5806452 L9.67741935,9.67741935 Z M50.3225806,1.93548387 L50.3225806,7.74193548 L9.67741935,7.74193548 L9.67741935,1.93548387 L50.3225806,1.93548387 Z M43.4505733,58.0645161 L16.5494267,58.0645161 C16.9992755,55.8592175 18.9531881,54.1935484 21.2903226,54.1935484 L38.7096774,54.1935484 C41.0468119,54.1935484 43.0016696,55.8592175 43.4505733,58.0645161 Z M35.8064516,52.2580645 L24.1935484,52.2580645 L24.1935484,48.3870968 L35.8064516,48.3870968 L35.8064516,52.2580645 Z M58.0645161,45.483871 C58.0645161,46.0178301 57.6307333,46.4516129 57.0967742,46.4516129 L2.90322581,46.4516129 C2.36926669,46.4516129 1.93548387,46.0178301 1.93548387,45.483871 L1.93548387,16.4516129 C1.93548387,15.9185988 2.36926669,15.483871 2.90322581,15.483871 L7.74193548,15.483871 L7.74193548,43.5483871 C7.74193548,44.0837638 8.17430069,44.516129 8.70967742,44.516129 L51.2903226,44.516129 C51.8256993,44.516129 52.2580645,44.0837638 52.2580645,43.5483871 L52.2580645,15.483871 L57.0967742,15.483871 C57.6307333,15.483871 58.0645161,15.9185988 58.0645161,16.4516129 L58.0645161,45.483871 Z" id="Shape" fill-rule="nonzero"></path>
            <polygon id="Path" points="11.6129032 3.87096774 13.5483871 3.87096774 13.5483871 5.80645161 11.6129032 5.80645161"></polygon>
            <polygon id="Path" points="15.483871 3.87096774 17.4193548 3.87096774 17.4193548 5.80645161 15.483871 5.80645161"></polygon>
            <polygon id="Path" points="19.3548387 3.87096774 21.2903226 3.87096774 21.2903226 5.80645161 19.3548387 5.80645161"></polygon>
            <polygon id="Path" points="23.2258065 3.87096774 48.3870968 3.87096774 48.3870968 5.80645161 23.2258065 5.80645161"></polygon>
            <path d="M45.483871,14.516129 C44.2241054,14.516129 43.1594947,15.327936 42.758789,16.4516129 L38.3959173,16.4516129 L36.7047316,12.2205772 C36.5506868,11.835465 36.1636845,11.5878592 35.7511656,11.6138482 C35.335339,11.6379473 34.9818864,11.9243007 34.8727319,12.3250063 L32.8101374,19.8859627 L31.8853957,17.1117376 C31.7535598,16.7176475 31.3849862,16.4516129 30.9677419,16.4516129 L28.6627394,16.4516129 L26.9942352,13.1160219 C26.8260144,12.7791079 26.4891002,12.5669418 26.1002079,12.5815902 C25.7226562,12.5924584 25.3876323,12.8216356 25.2387853,13.1670552 L23.4067856,17.4396737 L22.2193171,13.2823525 C22.1101626,12.8991305 21.7751385,12.6212828 21.3782131,12.5844254 C20.9718373,12.5437877 20.6013735,12.758789 20.4232296,13.1146043 L18.7566155,16.4516129 L17.241211,16.4516129 C16.8405053,15.327936 15.7758946,14.516129 14.516129,14.516129 C12.9156691,14.516129 11.6129032,15.8188949 11.6129032,17.4193548 C11.6129032,19.0198148 12.9156691,20.3225806 14.516129,20.3225806 C15.7758946,20.3225806 16.8405053,19.5107736 17.241211,18.3870968 L19.3548387,18.3870968 C19.7215222,18.3870968 20.0565461,18.1801285 20.2209866,17.85172 L21.0446069,16.2058972 L22.2958669,20.5876701 C22.4078566,20.9817604 22.757529,21.2614983 23.1648501,21.2874873 C23.5868196,21.3106414 23.953503,21.0781565 24.1151083,20.7029675 L26.195659,15.8458292 L27.1983682,17.8507749 C27.3628087,18.1801285 27.6978327,18.3870968 28.0645161,18.3870968 L30.2698148,18.3870968 L31.984627,23.5315335 C32.117408,23.928459 32.4869267,24.1935484 32.9032258,24.1935484 L32.929215,24.1935484 C33.3549647,24.1817352 33.7240108,23.8925467 33.8369456,23.4814453 L35.9808152,15.6213773 L36.8436555,17.7794228 C36.991085,18.1461063 37.3459551,18.3870968 37.7419355,18.3870968 L42.758789,18.3870968 C43.1594947,19.5107736 44.2241054,20.3225806 45.483871,20.3225806 C47.0843309,20.3225806 48.3870968,19.0198148 48.3870968,17.4193548 C48.3870968,15.8188949 47.0843309,14.516129 45.483871,14.516129 Z M14.516129,18.3870968 C13.9821699,18.3870968 13.5483871,17.952369 13.5483871,17.4193548 C13.5483871,16.8863407 13.9821699,16.4516129 14.516129,16.4516129 C15.0500881,16.4516129 15.483871,16.8863407 15.483871,17.4193548 C15.483871,17.952369 15.0500881,18.3870968 14.516129,18.3870968 Z M45.483871,18.3870968 C44.9499119,18.3870968 44.516129,17.952369 44.516129,17.4193548 C44.516129,16.8863407 44.9499119,16.4516129 45.483871,16.4516129 C46.0178301,16.4516129 46.4516129,16.8863407 46.4516129,17.4193548 C46.4516129,17.952369 46.0178301,18.3870968 45.483871,18.3870968 Z" id="Shape" fill-rule="nonzero"></path>
            <path d="M19.3548387,25.1612903 C15.0860006,25.1612903 11.6129032,28.6343877 11.6129032,32.9032258 C11.6129032,37.172064 15.0860006,40.6451613 19.3548387,40.6451613 C23.6236769,40.6451613 27.0967742,37.172064 27.0967742,32.9032258 C27.0967742,28.6343877 23.6236769,25.1612903 19.3548387,25.1612903 Z M25.0743448,31.9354839 L20.3225806,31.9354839 L20.3225806,27.1837198 C22.748551,27.5943485 24.663716,29.5095135 25.0743448,31.9354839 Z M18.3870968,27.1837198 L18.3870968,31.09438 L15.1346711,28.9268838 C15.9842805,28.0267137 17.1145729,27.398721 18.3870968,27.1837198 Z M19.3548387,38.7096774 C16.1525013,38.7096774 13.5483871,36.1055632 13.5483871,32.9032258 C13.5483871,32.0592869 13.7331465,31.2588206 14.0582473,30.5353767 L18.8175719,33.7084173 L18.827495,33.6937689 C18.9810673,33.7963079 19.1554309,33.8709677 19.3548387,33.8709677 L25.0743448,33.8709677 C24.6107926,36.6125881 22.2259325,38.7096774 19.3548387,38.7096774 Z" id="Shape" fill-rule="nonzero"></path>
            <polygon id="Path" points="29.0322581 35.8064516 30.9677419 35.8064516 30.9677419 40.6451613 29.0322581 40.6451613"></polygon>
            <polygon id="Path" points="32.9032258 31.9354839 34.8387097 31.9354839 34.8387097 40.6451613 32.9032258 40.6451613"></polygon>
            <polygon id="Path" points="36.7741935 28.0645161 38.7096774 28.0645161 38.7096774 40.6451613 36.7741935 40.6451613"></polygon>
            <polygon id="Path" points="40.6451613 33.8709677 42.5806452 33.8709677 42.5806452 40.6451613 40.6451613 40.6451613"></polygon>
            <polygon id="Path" points="44.516129 24.1935484 46.4516129 24.1935484 46.4516129 40.6451613 44.516129 40.6451613"></polygon>
        </g>
    </g>
</svg>