<?xml version="1.0" encoding="UTF-8"?>
<svg width="73px" height="69px" viewBox="0 0 73 69" version="1.1" xmlns="http://www.w3.org/2000/svg" xmlns:xlink="http://www.w3.org/1999/xlink">
    <!-- Generator: Sketch 52.4 (67378) - http://www.bohemiancoding.com/sketch -->
    <title>iot_white</title>
    <desc>Created with Sketch.</desc>
    <g id="iot_white" stroke="none" stroke-width="1" fill="none" fill-rule="evenodd">
        <g id="wifi-router" transform="translate(8.000000, 7.000000)" fill="#FFFFFF">
            <path d="M10.5438789,9.25520784 C9.12786328,8.3167451 7.26132813,8.36837647 5.89912109,9.38337647 C5.52234766,9.66416471 5.44361719,10.1984471 5.72330859,10.5765843 C5.89005859,10.802102 6.14641406,10.9211725 6.40616797,10.9211725 C6.58220703,10.9211725 6.75971875,10.8664706 6.91185547,10.7530863 C7.70244531,10.1639882 8.78575391,10.1341922 9.60760937,10.6788235 C9.99922266,10.9383451 10.526207,10.8301922 10.7847148,10.4370431 C11.0432227,10.0438941 10.9353789,9.51484314 10.5438789,9.25520784 Z" id="Path"></path>
            <path d="M13.1095859,5.81990196 C10.2010898,3.75771765 6.31078516,3.78273725 3.42902344,5.88199608 C3.04919141,6.1586902 2.96479687,6.69206275 3.24029687,7.07338431 C3.40648047,7.30333725 3.66566797,7.42547843 3.92870703,7.42547843 C4.1016875,7.42547843 4.27625391,7.37259608 4.42691797,7.26273725 C6.71984375,5.59233725 9.81525391,5.57266275 12.1293633,7.21338039 C12.5124805,7.48507059 13.0426367,7.39340784 13.3133789,7.00878824 C13.5841211,6.62394118 13.4928164,6.09181961 13.1095859,5.81990196 Z" id="Path"></path>
            <path d="M15.5545352,2.30134902 C11.1856172,-0.786070588 5.33146875,-0.762415686 0.987472656,2.36037255 C0.605941406,2.63456471 0.518148437,3.16748235 0.791382812,3.55039608 C0.957339844,3.78307843 1.21811328,3.90692549 1.48285156,3.90692549 C1.65401953,3.90692549 1.827,3.85506667 1.97675781,3.74736863 C5.73407031,1.04627451 10.7975156,1.02580392 14.5764648,3.69630588 C14.9601484,3.96742745 15.4903047,3.87496863 15.7602539,3.48978039 C16.0303164,3.10459216 15.9382187,2.57247059 15.5545352,2.30134902 Z" id="Path"></path>
            <path d="M44.4372891,36.4709686 L8.96383203,36.4709686 L8.96383203,13.6212431 C8.96383203,13.1501922 8.58343359,12.768302 8.11422266,12.768302 C7.64501172,12.768302 7.26461328,13.1501922 7.26461328,13.6212431 L7.26461328,36.4709686 L3.57379687,36.4709686 C1.60315625,36.4709686 0,38.0804118 0,40.0587804 L0,47.3518824 C0,49.0363843 1.16249219,50.4526078 2.7241875,50.8365451 L2.7241875,52.821851 C2.7241875,53.7948863 3.512625,54.5864157 4.48185937,54.5864157 L6.29798437,54.5864157 C7.26721875,54.5864157 8.05565625,53.7948863 8.05565625,52.821851 L8.05565625,50.9399216 L9.02183203,50.9399216 C9.49104297,50.9399216 9.87144141,50.5580314 9.87144141,50.0869804 C9.87144141,49.6159294 9.49115625,49.2339255 9.02194531,49.2339255 L3.57379687,49.2339255 C2.54010547,49.2339255 1.69921875,48.3896275 1.69921875,47.3518824 L1.69921875,40.0587804 C1.69921875,39.0210353 2.54010547,38.176851 3.57379687,38.176851 L44.4372891,38.176851 C44.9065,38.176851 45.2868984,37.7949608 45.2868984,37.3239098 C45.2868984,36.8527451 44.9065,36.4709686 44.4372891,36.4709686 Z M4.42340625,50.9398078 L6.3564375,50.9398078 L6.3564375,52.8217373 L6.35655078,52.8217373 C6.35655078,52.854149 6.33038281,52.8804196 6.29809766,52.8804196 L4.48185937,52.8804196 C4.44957422,52.8804196 4.42340625,52.854149 4.42340625,52.8217373 L4.42340625,50.9398078 Z" id="Shape" fill-rule="nonzero"></path>
            <path d="M54.4262031,36.4709686 L50.7353867,36.4709686 L50.7353867,13.6212431 C50.7353867,13.1501922 50.3549883,12.768302 49.8857773,12.768302 C49.4165664,12.768302 49.036168,13.1501922 49.036168,13.6212431 L49.036168,36.4709686 L48.0691992,36.4709686 C47.5999883,36.4709686 47.2195898,36.8527451 47.2195898,37.3239098 C47.2195898,37.7949608 47.5999883,38.176851 48.0691992,38.176851 L54.4260898,38.176851 C55.4597812,38.176851 56.300668,39.0210353 56.300668,40.0587804 L56.300668,47.3518824 C56.300668,48.3896275 55.4597812,49.2339255 54.4260898,49.2339255 L12.6545352,49.2339255 C12.1853242,49.2339255 11.8049258,49.6158157 11.8049258,50.0868667 C11.8049258,50.5579176 12.1853242,50.9398078 12.6545352,50.9398078 L49.9442305,50.9398078 L49.9442305,52.8217373 C49.9442305,53.7947725 50.732668,54.586302 51.7019023,54.586302 L53.5180273,54.586302 C54.4872617,54.586302 55.2756992,53.7947725 55.2756992,52.8217373 L55.2756992,50.8364314 C56.8375078,50.4526078 58,49.0363843 58,47.3518824 L58,40.0587804 C58,38.0804118 56.3968438,36.4709686 54.4262031,36.4709686 Z M53.5765938,52.8217373 C53.5765938,52.854149 53.5503125,52.8804196 53.5181406,52.8804196 L51.7020156,52.8804196 C51.6697305,52.8804196 51.6435625,52.854149 51.6435625,52.8217373 L51.6435625,50.9398078 L53.5765938,50.9398078 L53.5765938,52.8217373 Z" id="Shape" fill-rule="nonzero"></path>
            <path d="M21.7353867,41.0289725 C20.2655625,41.0289725 19.0696523,42.2295725 19.0696523,43.7051608 C19.0696523,45.1808627 20.2655625,46.381349 21.7353867,46.381349 C23.2052109,46.381349 24.4011211,45.180749 24.4011211,43.7051608 C24.4011211,42.2295725 23.2052109,41.0289725 21.7353867,41.0289725 Z M21.7353867,44.6755804 C21.2025117,44.6755804 20.7688711,44.2403529 20.7688711,43.7052745 C20.7688711,43.1703098 21.2025117,42.7349686 21.7353867,42.7349686 C22.2682617,42.7349686 22.7019023,43.1703098 22.7019023,43.7052745 C22.7019023,44.2402392 22.2682617,44.6755804 21.7353867,44.6755804 Z" id="Shape" fill-rule="nonzero"></path>
            <path d="M36.2646133,41.0289725 C34.7947891,41.0289725 33.5988789,42.2295725 33.5988789,43.7051608 C33.5988789,45.1808627 34.7947891,46.381349 36.2646133,46.381349 C37.7344375,46.381349 38.9303477,45.180749 38.9303477,43.7051608 C38.9303477,42.2295725 37.7344375,41.0289725 36.2646133,41.0289725 Z M36.2646133,44.6755804 C35.7317383,44.6755804 35.2980977,44.2403529 35.2980977,43.7052745 C35.2980977,43.1703098 35.7317383,42.7349686 36.2646133,42.7349686 C36.7974883,42.7349686 37.2311289,43.1703098 37.2311289,43.7052745 C37.2311289,44.2402392 36.7974883,44.6755804 36.2646133,44.6755804 Z" id="Shape" fill-rule="nonzero"></path>
            <path d="M29,41.0290863 C27.5300625,41.0290863 26.3342656,42.2296863 26.3342656,43.7052745 C26.3342656,45.1809765 27.5301758,46.3814627 29,46.3814627 C30.4698242,46.3814627 31.6657344,45.1808627 31.6657344,43.7052745 C31.6657344,42.2295725 30.4699375,41.0290863 29,41.0290863 Z M29,44.6755804 C28.467125,44.6755804 28.0334844,44.2403529 28.0334844,43.7052745 C28.0334844,43.1703098 28.467125,42.7349686 29,42.7349686 C29.532875,42.7349686 29.9665156,43.1703098 29.9665156,43.7052745 C29.9665156,44.2402392 29.532875,44.6755804 29,44.6755804 Z" id="Shape" fill-rule="nonzero"></path>
            <path d="M52.3153203,9.25520784 C50.899418,8.3167451 49.0328828,8.36837647 47.6706758,9.38337647 C47.2939023,9.66416471 47.2151719,10.1984471 47.4948633,10.5765843 C47.6616133,10.802102 47.9179687,10.9211725 48.1777227,10.9211725 C48.3537617,10.9211725 48.5312734,10.8664706 48.6834102,10.7530863 C49.4738867,10.1639882 50.5571953,10.1341922 51.3790508,10.6788235 C51.7706641,10.9383451 52.2976484,10.8301922 52.5561562,10.4370431 C52.8146641,10.0438941 52.7068203,9.51484314 52.3153203,9.25520784 Z" id="Path"></path>
            <path d="M54.8811406,5.81990196 C51.9726445,3.75771765 48.0823398,3.78262353 45.2004648,5.88199608 C44.8206328,6.1586902 44.7362383,6.69206275 45.0117383,7.07338431 C45.1779219,7.30333725 45.4371094,7.42547843 45.7001484,7.42547843 C45.8731289,7.42547843 46.0476953,7.37259608 46.1983594,7.26273725 C48.4913984,5.59245098 51.5866953,5.57266275 53.9008047,7.21338039 C54.2840352,7.48495686 54.8143047,7.39329412 55.0849336,7.00867451 C55.3556758,6.62394118 55.2643711,6.09181961 54.8811406,5.81990196 Z" id="Path"></path>
            <path d="M57.3262031,2.30134902 C52.9571719,-0.786070588 47.1031367,-0.762415686 42.7591406,2.36048627 C42.3776094,2.63467843 42.2898164,3.16759608 42.5630508,3.5505098 C42.7288945,3.78307843 42.9897812,3.90692549 43.2545195,3.90692549 C43.4258008,3.90692549 43.598668,3.85506667 43.7484258,3.74736863 C47.505625,1.04638824 52.5690703,1.02580392 56.3481328,3.69630588 C56.7318164,3.96742745 57.2618594,3.87496863 57.5319219,3.48978039 C57.8019844,3.10459216 57.7098867,2.57247059 57.3262031,2.30134902 Z" id="Path"></path>
        </g>
    </g>
</svg>