<?xml version="1.0" encoding="UTF-8"?>
<svg width="73px" height="69px" viewBox="0 0 73 69" version="1.1" xmlns="http://www.w3.org/2000/svg" xmlns:xlink="http://www.w3.org/1999/xlink">
    <!-- Generator: Sketch 52.4 (67378) - http://www.bohemiancoding.com/sketch -->
    <title>machine_learning_white</title>
    <desc>Created with Sketch.</desc>
    <g id="machine_learning_white" stroke="none" stroke-width="1" fill="none" fill-rule="evenodd">
        <g id="machine" transform="translate(8.000000, 6.000000)" fill="#FFFFFF">
            <path d="M58,29 C58,25.0214528 56.0280841,21.2936775 52.7968277,19.0317067 C53.7172379,17.5832599 54.2580645,15.8712512 54.2580645,14.0322581 C54.2580645,8.87385021 50.0616337,4.67741935 44.9032258,4.67741935 C44.6218498,4.67741935 44.3363628,4.69249304 44.0408266,4.72127016 C42.6394279,1.87005424 39.6918316,0 36.483871,0 C31.8411668,0 28.0645161,3.77756432 28.0645161,8.41935484 L28.0645161,13.0967742 L26.1935484,13.0967742 L26.1935484,9.35483871 L24.3225806,9.35483871 L24.3225806,13.0967742 L20.5806452,13.0967742 L20.5806452,9.35483871 L18.7096774,9.35483871 L18.7096774,13.0967742 L14.9677419,13.0967742 L14.9677419,9.35483871 L13.0967742,9.35483871 L13.0967742,13.0967742 L9.35483871,13.0967742 L9.35483871,9.35483871 L7.48387097,9.35483871 L7.48387097,13.0967742 L7.09652218,13.0967742 L3.74193548,16.4513609 L3.74193548,16.8387097 L0,16.8387097 L0,18.7096774 L3.74193548,18.7096774 L3.74193548,22.4516129 L0,22.4516129 L0,24.3225806 L3.74193548,24.3225806 L3.74193548,28.0645161 L0,28.0645161 L0,29.9354839 L3.74193548,29.9354839 L3.74193548,33.6774194 L0,33.6774194 L0,35.5483871 L3.74193548,35.5483871 L3.74193548,39.2903226 L0,39.2903226 L0,41.1612903 L3.74193548,41.1612903 L3.74193548,44.9032258 L7.48387097,44.9032258 L7.48387097,48.6451613 L9.35483871,48.6451613 L9.35483871,44.9032258 L13.0967742,44.9032258 L13.0967742,48.6451613 L14.9677419,48.6451613 L14.9677419,44.9032258 L18.7096774,44.9032258 L18.7096774,48.6451613 L20.5806452,48.6451613 L20.5806452,44.9032258 L24.3225806,44.9032258 L24.3225806,48.6451613 L26.1935484,48.6451613 L26.1935484,44.9032258 L28.0645161,44.9032258 L28.0645161,49.5806452 C28.0645161,54.2233493 31.8411668,58 36.483871,58 C39.8590127,58 42.7673261,55.9997637 44.1098003,53.1261655 L44.1550214,53.1165732 C48.9247102,52.1477445 52.3870968,47.907006 52.3870968,43.0322581 C52.3870968,41.8537676 52.1870274,40.6999434 51.7891728,39.593624 C55.5900328,37.4531564 58,33.386451 58,29 Z M34.9701046,26.3196195 C35.0226342,26.4365549 35.0683121,26.5548608 35.1153604,26.6745369 L35.2734061,27.0870086 L37.4193548,27.8036952 L37.4193548,30.1972183 L35.2715788,30.9129914 L35.1144468,31.3272902 C35.0683121,31.4483367 35.0208071,31.5652722 34.9701046,31.6812942 L34.7887632,32.0860005 L35.8000725,34.108619 L34.1077055,35.800986 L32.0850869,34.7896768 L31.6803805,34.9710181 C31.5643587,35.0226342 31.4474232,35.0692257 31.3263766,35.1153604 L30.9120778,35.2724924 L30.1963048,37.4193548 L27.8027817,37.4193548 L27.0870086,35.2715788 L26.6727098,35.1144468 C26.5516633,35.0683121 26.4347278,35.0208071 26.3187058,34.9701046 L25.9139995,34.7887632 L23.891381,35.8000725 L22.199014,34.1077055 L23.2103232,32.0850869 L23.0289819,31.6803805 C22.9773658,31.5643587 22.9307743,31.4474232 22.8846396,31.3263766 L22.7275076,30.9120778 L20.5806452,30.1963048 L20.5806452,27.8027817 L22.7265939,27.0870086 L22.8846396,26.6745369 C22.9316879,26.5548608 22.9782793,26.4356413 23.0298954,26.3196195 L23.2112368,25.9149131 L22.1999275,23.8922945 L23.8922945,22.1999275 L25.9149131,23.2112368 L26.3196195,23.0298954 C26.4347278,22.9782793 26.5516633,22.9316879 26.6704259,22.8864667 L27.0870086,22.7293347 L27.8036952,20.5806452 L30.1972183,20.5806452 L30.913905,22.7302482 L31.3304877,22.8873802 C31.4492502,22.9326014 31.5661857,22.9791929 31.6812942,23.030809 L32.0860005,23.2121503 L34.108619,22.2008411 L35.800986,23.8932082 L34.7896768,25.9158266 L34.9701046,26.3196195 Z M5.61290323,43.0322581 L5.61290323,17.2260585 L7.87121976,14.9677419 L28.0645161,14.9677419 L28.0645161,18.7096774 L26.4543694,18.7096774 L25.6892641,21.007277 L23.5236738,19.9237966 L19.9237966,23.5236738 L21.0063634,25.6883506 L18.7096774,26.4543694 L18.7096774,31.5447171 L21.007277,32.3098224 L19.9237966,34.4754127 L23.5236738,38.0752898 L25.6892641,36.9918095 L26.4543694,39.2903226 L28.0645161,39.2903226 L28.0645161,43.0322581 L5.61290323,43.0322581 Z M50.203692,38.3073337 L49.3655021,38.7010774 L49.7510238,39.5429215 C50.2589623,40.6524383 50.516129,41.8263609 50.516129,43.0322581 C50.516129,46.6705046 48.1559507,49.8697864 44.7721301,51.0080802 C44.8525233,50.543079 44.9032258,50.0680286 44.9032258,49.5806452 C44.9032258,48.1006804 44.5131363,46.644925 43.7758947,45.3700542 L42.1575258,46.3073651 C42.7298702,47.2981194 43.0322581,48.4300182 43.0322581,49.5806452 C43.0322581,53.1905715 40.0937973,56.1290323 36.483871,56.1290323 C32.8739447,56.1290323 29.9354839,53.1905715 29.9354839,49.5806452 L29.9354839,39.2903226 L31.5456306,39.2903226 L32.3107359,36.992723 L34.4763262,38.0762034 L38.0762034,34.4763262 L36.992723,32.3107359 L39.2903226,31.5456306 L39.2903226,26.4552829 L36.9936366,25.6892641 L38.0762034,23.5245873 L34.4763262,19.9247102 L32.3107359,21.0081905 L31.5456306,18.7096774 L29.9354839,18.7096774 L29.9354839,8.41935484 C29.9354839,4.80851502 32.8739447,1.87096774 36.483871,1.87096774 C39.1724736,1.87096774 41.6281188,3.56242127 42.5932932,6.07973166 L42.868731,6.79824537 L43.6260711,6.6671497 C44.0855909,6.58675655 44.5026304,6.5483871 44.9032258,6.5483871 C49.0297693,6.5483871 52.3870968,9.90571452 52.3870968,14.0322581 C52.3870968,18.1588016 49.0297693,21.516129 44.9032258,21.516129 L44.9032258,23.3870968 C47.542953,23.3870968 49.9259703,22.2830614 51.6283865,20.5189799 C54.4142831,22.4274036 56.1290323,25.598365 56.1290323,29 C56.1290323,32.9616463 53.8035691,36.6158801 50.203692,38.3073337 Z" id="Shape" fill-rule="nonzero"></path>
            <path d="M31.8064516,8.41935484 L33.6774194,8.41935484 C33.6774194,6.87224354 34.9367597,5.61290323 36.483871,5.61290323 L36.483871,3.74193548 C33.9048954,3.74193548 31.8064516,5.84037923 31.8064516,8.41935484 Z" id="Path"></path>
            <path d="M48.6451613,14.0322581 L50.516129,14.0322581 C50.516129,10.9366652 47.9988186,8.41935484 44.9032258,8.41935484 L44.9032258,10.2903226 C46.9669544,10.2903226 48.6451613,11.9685294 48.6451613,14.0322581 Z" id="Path"></path>
            <path d="M46.500126,28.4984565 C47.0295332,29.0287771 47.3223286,29.7335875 47.3223286,30.483619 C47.3223286,31.2341073 47.0304467,31.9384608 46.500126,32.4678679 C45.4403982,33.5275958 43.5918126,33.5275958 42.531628,32.4678679 L41.2087954,33.7907006 C42.0912928,34.6736548 43.266129,35.1610383 44.515877,35.1610383 C45.765625,35.1610383 46.9409179,34.6736548 47.8229587,33.7907006 C48.7059129,32.9086599 49.1932964,31.7333669 49.1932964,30.483619 C49.1932964,29.233871 48.7059129,28.0599484 47.8229587,27.1756238 L46.500126,28.4984565 Z" id="Path"></path>
            <path d="M33.6774194,49.5806452 L31.8064516,49.5806452 C31.8064516,52.1596208 33.9048954,54.2580645 36.483871,54.2580645 L36.483871,52.3870968 C34.9367597,52.3870968 33.6774194,51.1277565 33.6774194,49.5806452 Z" id="Path"></path>
            <path d="M37.4193548,10.2903226 L37.4193548,12.1612903 C38.9664661,12.1612903 40.2258065,13.4206306 40.2258065,14.9677419 C40.2258065,16.5148532 38.9664661,17.7741935 37.4193548,17.7741935 L37.4193548,19.6451613 C39.9983305,19.6451613 42.0967742,17.5467175 42.0967742,14.9677419 C42.0967742,12.3887663 39.9983305,10.2903226 37.4193548,10.2903226 Z" id="Path"></path>
            <path d="M29,24.3225806 C26.4210244,24.3225806 24.3225806,26.4210244 24.3225806,29 C24.3225806,31.5789756 26.4210244,33.6774194 29,33.6774194 C31.5789756,33.6774194 33.6774194,31.5789756 33.6774194,29 C33.6774194,26.4210244 31.5789756,24.3225806 29,24.3225806 Z M29,31.8064516 C27.4528887,31.8064516 26.1935484,30.5471113 26.1935484,29 C26.1935484,27.4528887 27.4528887,26.1935484 29,26.1935484 C30.5471113,26.1935484 31.8064516,27.4528887 31.8064516,29 C31.8064516,30.5471113 30.5471113,31.8064516 29,31.8064516 Z" id="Shape" fill-rule="nonzero"></path>
            <polygon id="Path" points="14.9677419 16.8387097 24.3225806 16.8387097 24.3225806 18.7096774 14.9677419 18.7096774"></polygon>
            <polygon id="Path" points="9.35483871 24.3225806 7.48387097 24.3225806 7.48387097 41.1612903 24.3225806 41.1612903 24.3225806 39.2903226 9.35483871 39.2903226"></polygon>
            <path d="M10.2903226,22.4516129 C11.8374339,22.4516129 13.0967742,21.1922726 13.0967742,19.6451613 C13.0967742,18.09805 11.8374339,16.8387097 10.2903226,16.8387097 C8.74321129,16.8387097 7.48387097,18.09805 7.48387097,19.6451613 C7.48387097,21.1922726 8.74321129,22.4516129 10.2903226,22.4516129 Z M10.2903226,18.7096774 C10.8064831,18.7096774 11.2258065,19.1299143 11.2258065,19.6451613 C11.2258065,20.1604083 10.8064831,20.5806452 10.2903226,20.5806452 C9.7741621,20.5806452 9.35483871,20.1604083 9.35483871,19.6451613 C9.35483871,19.1299143 9.7741621,18.7096774 10.2903226,18.7096774 Z" id="Shape" fill-rule="nonzero"></path>
        </g>
    </g>
</svg>