<?xml version="1.0" encoding="UTF-8"?>
<svg width="73px" height="69px" viewBox="0 0 73 69" version="1.1" xmlns="http://www.w3.org/2000/svg" xmlns:xlink="http://www.w3.org/1999/xlink">
    <!-- Generator: Sketch 52.4 (67378) - http://www.bohemiancoding.com/sketch -->
    <title>mobile_apps</title>
    <desc>Created with Sketch.</desc>
    <g id="mobile_apps" stroke="none" stroke-width="1" fill="none" fill-rule="evenodd">
        <g id="smartphone-(1)" transform="translate(20.000000, 6.000000)">
            <path d="M28.6085,0 L4.25816667,0 C1.91013333,0 0,1.9111 0,4.25816667 L0,53.7408667 C0,56.0889 1.91013333,58 4.25816667,58 L28.6075333,58 C30.9565333,58 32.8666667,56.0889 32.8666667,53.7418333 L32.8666667,4.25816667 C32.8666667,1.9111 30.9565333,0 28.6085,0 Z M1.93333333,7.73333333 L30.9333333,7.73333333 L30.9333333,44.4666667 L1.93333333,44.4666667 L1.93333333,7.73333333 Z M4.25816667,1.93333333 L28.6075333,1.93333333 C29.8903,1.93333333 30.9333333,2.97636667 30.9333333,4.25816667 L30.9333333,5.8 L1.93333333,5.8 L1.93333333,4.25816667 C1.93333333,2.97636667 2.97636667,1.93333333 4.25816667,1.93333333 Z M28.6085,56.0666667 L4.25816667,56.0666667 C2.97636667,56.0666667 1.93333333,55.0236333 1.93333333,53.7418333 L1.93333333,46.4 L30.9333333,46.4 L30.9333333,53.7418333 C30.9333333,55.0236333 29.8903,56.0666667 28.6085,56.0666667 Z" id="Shape" fill="#42566C" fill-rule="nonzero"></path>
            <path d="M16.4333333,47.3666667 C14.3008667,47.3666667 12.5666667,49.1008667 12.5666667,51.2333333 C12.5666667,53.3658 14.3008667,55.1 16.4333333,55.1 C18.5658,55.1 20.3,53.3658 20.3,51.2333333 C20.3,49.1008667 18.5658,47.3666667 16.4333333,47.3666667 Z M16.4333333,53.1666667 C15.3671,53.1666667 14.5,52.2995667 14.5,51.2333333 C14.5,50.1671 15.3671,49.3 16.4333333,49.3 C17.4995667,49.3 18.3666667,50.1671 18.3666667,51.2333333 C18.3666667,52.2995667 17.4995667,53.1666667 16.4333333,53.1666667 Z" id="Shape" fill="#42566C" fill-rule="nonzero"></path>
            <path d="M12.5666667,4.83333333 L16.4333333,4.83333333 C16.9669333,4.83333333 17.4,4.40123333 17.4,3.86666667 C17.4,3.3321 16.9669333,2.9 16.4333333,2.9 L12.5666667,2.9 C12.0330667,2.9 11.6,3.3321 11.6,3.86666667 C11.6,4.40123333 12.0330667,4.83333333 12.5666667,4.83333333 Z" id="Path" fill="#42566C"></path>
            <path d="M19.3333333,4.83333333 L20.3,4.83333333 C20.8336,4.83333333 21.2666667,4.40123333 21.2666667,3.86666667 C21.2666667,3.3321 20.8336,2.9 20.3,2.9 L19.3333333,2.9 C18.7997333,2.9 18.3666667,3.3321 18.3666667,3.86666667 C18.3666667,4.40123333 18.7997333,4.83333333 19.3333333,4.83333333 Z" id="Path" fill="#42566C"></path>
            <path d="M18.3299333,10.6526667 L14.5367333,10.6526667 C13.4502,10.6526667 12.5666667,11.5362 12.5666667,12.6227333 L12.5666667,16.4159333 C12.5666667,17.5024667 13.4502,18.386 14.5367333,18.386 L18.3299333,18.386 C19.4164667,18.386 20.3,17.5024667 20.3,16.4159333 L20.3,12.6227333 C20.3,11.5362 19.4164667,10.6526667 18.3299333,10.6526667 Z M18.3666667,16.4149667 C18.3666667,16.4352667 18.3502333,16.4517 18.3299333,16.4517 L14.5,16.4149667 L14.5367333,12.5850333 L18.3666667,12.6227333 L18.3666667,16.4149667 Z" id="Shape" fill="#42566C" fill-rule="nonzero"></path>
            <path d="M9.62993333,10.6526667 L5.83673333,10.6526667 C4.7502,10.6526667 3.86666667,11.5362 3.86666667,12.6227333 L3.86666667,16.4159333 C3.86666667,17.5024667 4.7502,18.386 5.83673333,18.386 L9.62993333,18.386 C10.7164667,18.386 11.6,17.5024667 11.6,16.4159333 L11.6,12.6227333 C11.6,11.5362 10.7164667,10.6526667 9.62993333,10.6526667 Z M9.66666667,16.4149667 C9.66666667,16.4352667 9.65023333,16.4517 9.62993333,16.4517 L5.8,16.4149667 L5.83673333,12.5850333 L9.66666667,12.6227333 L9.66666667,16.4149667 Z" id="Shape" fill="#42566C" fill-rule="nonzero"></path>
            <path d="M27.0299333,10.6526667 L23.2367333,10.6526667 C22.1502,10.6526667 21.2666667,11.5362 21.2666667,12.6227333 L21.2666667,16.4159333 C21.2666667,17.5024667 22.1502,18.386 23.2367333,18.386 L27.0299333,18.386 C28.1164667,18.386 29,17.5024667 29,16.4159333 L29,12.6227333 C29,11.5362 28.1164667,10.6526667 27.0299333,10.6526667 Z M27.0666667,16.4149667 C27.0666667,16.4352667 27.0502333,16.4517 27.0299333,16.4517 L23.2,16.4149667 L23.2367333,12.5850333 L27.0666667,12.6227333 L27.0666667,16.4149667 Z" id="Shape" fill="#42566C" fill-rule="nonzero"></path>
            <path d="M18.3299333,19.3333333 L14.5367333,19.3333333 C13.4502,19.3333333 12.5666667,20.2168667 12.5666667,21.3034 L12.5666667,25.0966 C12.5666667,26.1831333 13.4502,27.0666667 14.5367333,27.0666667 L18.3299333,27.0666667 C19.4164667,27.0666667 20.3,26.1831333 20.3,25.0966 L20.3,21.3034 C20.3,20.2168667 19.4164667,19.3333333 18.3299333,19.3333333 Z M18.3666667,25.0966 C18.3666667,25.1159333 18.3502333,25.1333333 18.3299333,25.1333333 L14.5,25.0966 L14.5367333,21.2666667 L18.3666667,21.3034 L18.3666667,25.0966 Z" id="Shape" fill="#42566C" fill-rule="nonzero"></path>
            <path d="M9.62993333,19.3333333 L5.83673333,19.3333333 C4.7502,19.3333333 3.86666667,20.2168667 3.86666667,21.3034 L3.86666667,25.0966 C3.86666667,26.1831333 4.7502,27.0666667 5.83673333,27.0666667 L9.62993333,27.0666667 C10.7164667,27.0666667 11.6,26.1831333 11.6,25.0966 L11.6,21.3034 C11.6,20.2168667 10.7164667,19.3333333 9.62993333,19.3333333 Z M9.66666667,25.0966 C9.66666667,25.1159333 9.65023333,25.1333333 9.62993333,25.1333333 L5.8,25.0966 L5.83673333,21.2666667 L9.66666667,21.3034 L9.66666667,25.0966 Z" id="Shape" fill="#E83F67" fill-rule="nonzero"></path>
            <path d="M27.0299333,19.3333333 L23.2367333,19.3333333 C22.1502,19.3333333 21.2666667,20.2168667 21.2666667,21.3034 L21.2666667,25.0966 C21.2666667,26.1831333 22.1502,27.0666667 23.2367333,27.0666667 L27.0299333,27.0666667 C28.1164667,27.0666667 29,26.1831333 29,25.0966 L29,21.3034 C29,20.2168667 28.1164667,19.3333333 27.0299333,19.3333333 Z M27.0666667,25.0966 C27.0666667,25.1159333 27.0502333,25.1333333 27.0299333,25.1333333 L23.2,25.0966 L23.2367333,21.2666667 L27.0666667,21.3034 L27.0666667,25.0966 Z" id="Shape" fill="#42566C" fill-rule="nonzero"></path>
            <path d="M18.3299333,28.0333333 L14.5367333,28.0333333 C13.4502,28.0333333 12.5666667,28.9168667 12.5666667,30.0034 L12.5666667,33.7966 C12.5666667,34.8831333 13.4502,35.7666667 14.5367333,35.7666667 L18.3299333,35.7666667 C19.4164667,35.7666667 20.3,34.8831333 20.3,33.7966 L20.3,30.0034 C20.3,28.9168667 19.4164667,28.0333333 18.3299333,28.0333333 Z M18.3666667,33.7966 C18.3666667,33.8159333 18.3502333,33.8333333 18.3299333,33.8333333 L14.5,33.7966 L14.5367333,29.9666667 L18.3666667,30.0034 L18.3666667,33.7966 Z" id="Shape" fill="#42566C" fill-rule="nonzero"></path>
            <path d="M9.62993333,28.0333333 L5.83673333,28.0333333 C4.7502,28.0333333 3.86666667,28.9168667 3.86666667,30.0034 L3.86666667,33.7966 C3.86666667,34.8831333 4.7502,35.7666667 5.83673333,35.7666667 L9.62993333,35.7666667 C10.7164667,35.7666667 11.6,34.8831333 11.6,33.7966 L11.6,30.0034 C11.6,28.9168667 10.7164667,28.0333333 9.62993333,28.0333333 Z M9.66666667,33.7966 C9.66666667,33.8159333 9.65023333,33.8333333 9.62993333,33.8333333 L5.8,33.7966 L5.83673333,29.9666667 L9.66666667,30.0034 L9.66666667,33.7966 Z" id="Shape" fill="#E83F67" fill-rule="nonzero"></path>
            <path d="M27.0299333,28.0333333 L23.2367333,28.0333333 C22.1502,28.0333333 21.2666667,28.9168667 21.2666667,30.0034 L21.2666667,33.7966 C21.2666667,34.8831333 22.1502,35.7666667 23.2367333,35.7666667 L27.0299333,35.7666667 C28.1164667,35.7666667 29,34.8831333 29,33.7966 L29,30.0034 C29,28.9168667 28.1164667,28.0333333 27.0299333,28.0333333 Z M27.0666667,33.7966 C27.0666667,33.8159333 27.0502333,33.8333333 27.0299333,33.8333333 L23.2,33.7966 L23.2367333,29.9666667 L27.0666667,30.0034 L27.0666667,33.7966 Z" id="Shape" fill="#E83F67" fill-rule="nonzero"></path>
        </g>
    </g>
</svg>