<?xml version="1.0" encoding="UTF-8"?>
<svg width="170px" height="261px" viewBox="0 0 170 261" version="1.1" xmlns="http://www.w3.org/2000/svg" xmlns:xlink="http://www.w3.org/1999/xlink">
    <!-- Generator: Sketch 52.4 (67378) - http://www.bohemiancoding.com/sketch -->
    <title>renewable-energy</title>
    <desc>Created with Sketch.</desc>
    <g id="Page-1" stroke="none" stroke-width="1" fill="none" fill-rule="evenodd">
        <g id="Large-Device-Desktops" transform="translate(0.000000, -609.000000)" stroke-width="0.4">
            <g id="renewable-energy" transform="translate(39.588291, 739.588291) rotate(-14.000000) translate(-39.588291, -739.588291) translate(-90.411709, 609.588291)">
                <path d="M8.66683594,130 C8.66683594,63.0977344 63.0931641,8.66683594 130,8.66683594 C167.556797,8.66683594 202.700469,26.3514063 225.580469,56.3336719 L199.333672,56.3336719 C196.937305,56.3336719 195.000508,58.2750391 195.000508,60.6668359 C195.000508,63.0586328 196.937305,65 199.333672,65 L234,65 C234.134063,65 234.251367,64.935 234.381367,64.9217969 C234.671836,64.8999609 234.944531,64.8349609 235.226367,64.7526953 C235.516836,64.6658594 235.776836,64.5622656 236.036836,64.423125 C236.153633,64.3626953 236.283633,64.3535547 236.396367,64.2758594 C236.517734,64.1976562 236.582734,64.0722266 236.690898,63.9813281 C236.925,63.7949609 237.128633,63.5913281 237.315,63.3617969 C237.488164,63.1449609 237.64,62.9286328 237.765938,62.6899609 C237.895937,62.4472266 237.995469,62.2044922 238.073672,61.9404297 C238.16457,61.6545313 238.225508,61.3772656 238.246836,61.0735938 C238.264102,60.9349609 238.333672,60.8090234 238.333672,60.6663281 L238.333672,26 C238.333672,23.6082031 236.396875,21.6668359 234.000508,21.6668359 C231.604141,21.6668359 229.667344,23.6082031 229.667344,26 L229.667344,47.5886328 C205.13543,17.6017969 168.783164,0 130,0 C58.3182031,0 0,58.3182031 0,130 C0,143.793203 2.145,157.36043 6.37457031,170.325898 C6.96820313,172.159102 8.67140625,173.320469 10.4954688,173.320469 C10.9372656,173.320469 11.3922656,173.246836 11.8386328,173.103633 C14.1136328,172.358164 15.3572656,169.914062 14.6163672,167.63957 C10.6686328,155.54043 8.66683594,142.878633 8.66683594,130 Z" id="Path" stroke="#D8DBDF" fill="#D8DBDF"></path>
                <path d="M115.361797,216.345898 C115.895,216.562734 116.449531,216.666328 117,216.666328 C118.42543,216.666328 119.808203,215.955898 120.631367,214.699062 L185.631367,115.032227 C186.571836,113.593594 186.567266,111.734492 185.626797,110.295859 C184.682266,108.857227 182.975,108.099062 181.289063,108.393594 L135.329492,116.050391 L147.263594,48.4199219 C147.627695,46.3617578 146.474961,44.338125 144.516328,43.6053516 C142.570898,42.8817187 140.360898,43.6444531 139.285859,45.4339844 L74.2858594,153.767148 C73.4103906,155.218984 73.4667578,157.038984 74.4204297,158.438516 C75.3695313,159.833984 77.0508984,160.548984 78.7104297,160.271719 L124.518164,152.64082 L112.748594,211.483086 C112.345898,213.52043 113.438203,215.561836 115.361797,216.345898 Z M86.5454688,150.184531 L134.658672,69.9877344 L125.736406,120.57957 C125.489609,121.966406 125.931406,123.383203 126.919609,124.384102 C127.911875,125.385 129.324609,125.84457 130.711445,125.605898 L172.983281,118.564062 L125.663281,191.117266 L134.247852,148.182734 C134.529688,146.787266 134.104648,145.34457 133.116953,144.317266 C132.289219,143.467695 131.166953,143 130.001523,143 C129.763359,143 129.529258,143.017266 129.291094,143.06043 L86.5454688,150.184531 Z" id="Shape" stroke="#F1D8DE" fill="#F1D8DE" fill-rule="nonzero"></path>
                <path d="M253.378633,88.9332031 C252.620469,86.6627734 250.176367,85.4318359 247.892734,86.1945703 C245.626367,86.9486719 244.395937,89.4014063 245.149531,91.6718359 C249.253164,103.987305 251.333164,116.883203 251.333164,130 C251.333164,196.902266 196.906328,251.333164 130,251.333164 C92.4518359,251.333164 57.3081641,233.653164 34.4195313,203.666328 L60.6663281,203.666328 C63.0626953,203.666328 64.9994922,201.724961 64.9994922,199.333164 C64.9994922,196.941367 63.0626953,195 60.6663281,195 L26,195 C25.87,195 25.7532031,195.065 25.6272656,195.078203 C25.3327344,195.100039 25.0508984,195.165039 24.7604297,195.251367 C24.4785937,195.338203 24.2185937,195.437734 23.9631641,195.571797 C23.8504297,195.636797 23.7204297,195.64543 23.6036328,195.723633 C23.4822656,195.801836 23.4172656,195.927266 23.3091016,196.018164 C23.075,196.204531 22.8713672,196.408164 22.685,196.637695 C22.5118359,196.854531 22.36,197.070859 22.2345703,197.309531 C22.1045703,197.552266 22.0050391,197.795 21.9268359,198.063633 C21.8359375,198.345469 21.775,198.622734 21.7491016,198.921836 C21.7358984,199.065039 21.6668359,199.186406 21.6668359,199.333672 L21.6668359,234 C21.6668359,236.391797 23.6036328,238.333164 26,238.333164 C28.3963672,238.333164 30.3331641,236.391797 30.3331641,234 L30.3331641,212.402734 C54.8686328,242.398203 91.2208984,260 130,260 C201.681797,260 260,201.681797 260,130 C260,115.951367 257.768164,102.132266 253.378633,88.9332031 Z" id="Path" stroke="#D8DBDF" fill="#D8DBDF"></path>
            </g>
        </g>
    </g>
</svg>