<?xml version="1.0" encoding="UTF-8"?>
<svg width="154px" height="330px" viewBox="0 0 154 330" version="1.1" xmlns="http://www.w3.org/2000/svg" xmlns:xlink="http://www.w3.org/1999/xlink">
    <!-- Generator: Sketch 52.4 (67378) - http://www.bohemiancoding.com/sketch -->
    <title>solar-panel</title>
    <desc>Created with Sketch.</desc>
    <g id="Page-1" stroke="none" stroke-width="1" fill="none" fill-rule="evenodd">
        <g id="Large-Device-Desktops" transform="translate(-1286.000000, -1832.000000)">
            <g id="solar-panel" transform="translate(1396.610714, 1985.594447) rotate(-13.000000) translate(-1396.610714, -1985.594447) translate(1267.110714, 1828.094447)">
                <path d="M129.498767,24.80625 C116.65175,24.80625 106.200483,35.2332422 106.200483,48.0504199 C106.200483,60.8675977 116.65175,71.2939746 129.498767,71.2939746 C142.345783,71.2939746 152.79705,60.8663672 152.79705,48.0504199 C152.797667,35.2332422 142.345783,24.80625 129.498767,24.80625 Z M129.498767,62.0168555 C121.779333,62.0168555 115.498583,55.7513086 115.498583,48.0498047 C115.498583,40.3483008 121.778717,34.0821387 129.498767,34.0821387 C137.218817,34.0821387 143.49895,40.3476855 143.49895,48.0498047 C143.49895,55.7519238 137.218817,62.0168555 129.498767,62.0168555 Z" id="Shape" fill="#F1D8DE" fill-rule="nonzero"></path>
                <path d="M129.498767,0 C126.93035,0 124.849717,2.07703125 124.849717,4.63825195 L124.849717,10.8398145 C124.849717,13.4016504 126.930967,15.4780664 129.498767,15.4780664 C132.066567,15.4780664 134.147817,13.4010352 134.147817,10.8398145 L134.147817,4.63825195 C134.148433,2.07703125 132.067183,0 129.498767,0 Z" id="Path" fill="#F1D8DE"></path>
                <path d="M106.41385,18.4582617 L102.01825,14.0734863 C100.2034,12.2622363 97.2594333,12.2628516 95.44335,14.0734863 C93.6278833,15.8847363 93.6278833,18.8218652 95.4439667,20.6337305 L99.83895,25.0191211 C100.746683,25.9247461 101.93685,26.3775586 103.1264,26.3775586 C104.31595,26.3775586 105.506117,25.9247461 106.414467,25.0185059 C108.229933,23.2066406 108.229933,20.2695117 106.41385,18.4582617 Z" id="Path" fill="#F1D8DE"></path>
                <path d="M92.2027667,43.4109375 L85.9867667,43.4109375 C83.41835,43.4109375 81.3377167,45.4879688 81.3377167,48.0491895 C81.3377167,50.6110254 83.4189667,52.6874414 85.9867667,52.6874414 L92.2027667,52.6874414 C94.7711833,52.6874414 96.8518167,50.6104102 96.8518167,48.0491895 C96.8518167,45.4879688 94.7705667,43.4109375 92.2027667,43.4109375 Z" id="Path" fill="#F1D8DE"></path>
                <path d="M106.41385,71.0817187 C104.597767,69.2704687 101.654417,69.2704687 99.8377167,71.0817187 L95.4427333,75.4664941 C93.6272667,77.2777441 93.6272667,80.214873 95.4427333,82.026123 C96.3510833,82.931748 97.54125,83.3851758 98.7308,83.3851758 C99.92035,83.3851758 101.110517,82.9323633 102.018867,82.026123 L106.41385,77.6413477 C108.229317,75.8300977 108.229317,72.8929687 106.41385,71.0817187 Z" id="Path" fill="#F1D8DE"></path>
                <path d="M129.498767,80.621543 C126.93035,80.621543 124.849717,82.6985742 124.849717,85.2597949 L124.849717,91.4613574 C124.849717,94.0231934 126.930967,96.0996094 129.498767,96.0996094 C132.066567,96.0996094 134.147817,94.0225781 134.147817,91.4613574 L134.147817,85.2597949 C134.148433,82.6985742 132.067183,80.621543 129.498767,80.621543 Z" id="Path" fill="#F1D8DE"></path>
                <path d="M163.555417,75.4677246 L159.160433,71.0829492 C157.344967,69.2716992 154.401,69.271084 152.584917,71.082334 C150.768833,72.893584 150.768833,75.8307129 152.5843,77.6425781 L156.979283,82.0273535 C157.887633,82.9329785 159.077183,83.385791 160.26735,83.385791 C161.4569,83.385791 162.647067,82.9329785 163.5548,82.0273535 C165.370883,80.2161035 165.370883,77.2789746 163.555417,75.4677246 Z" id="Path" fill="#F1D8DE"></path>
                <path d="M173.012,43.412168 L166.796,43.412168 C164.227583,43.412168 162.14695,45.4891992 162.14695,48.0504199 C162.14695,50.6116406 164.2282,52.6886719 166.796,52.6886719 L173.012,52.6886719 C175.580417,52.6886719 177.66105,50.6116406 177.66105,48.0504199 C177.66105,45.4891992 175.580417,43.412168 173.012,43.412168 Z" id="Path" fill="#F1D8DE"></path>
                <path d="M163.5548,14.0728711 C161.73995,12.2616211 158.795983,12.2622363 156.9799,14.0728711 L152.584917,18.4576465 C150.76945,20.2688965 150.76945,23.2060254 152.585533,25.0178906 C153.49265,25.9241309 154.682817,26.3769434 155.872367,26.3769434 C157.061917,26.3769434 158.252083,25.9241309 159.160433,25.0178906 L163.555417,20.6331152 C165.370883,18.8218652 165.370883,15.8847363 163.5548,14.0728711 Z" id="Path" fill="#F1D8DE"></path>
                <path d="M258.459183,237.591826 C258.455483,237.510615 258.454867,237.43002 258.44685,237.348809 C258.430817,237.185771 258.40615,237.025195 258.37285,236.867695 C258.372233,236.864004 258.372233,236.860928 258.371,236.857236 L250.091017,197.618818 C250.087933,197.604668 250.08485,197.591133 250.082383,197.576982 L241.803017,158.341025 C241.799933,158.326875 241.79685,158.31334 241.794383,158.299189 L233.507,119.024473 C233.054367,116.87792 231.156267,115.34168 228.957233,115.34168 L30.0396833,115.34168 C27.84065,115.34168 25.9431667,116.87792 25.4899167,119.024473 L17.2043833,158.294883 C17.2006833,158.311494 17.1969833,158.32749 17.1939,158.344102 L8.91515,197.580674 C8.91268333,197.591748 8.91021667,197.603437 8.90836667,197.614512 L0.629,236.853545 C0.594466667,237.019043 0.56795,237.188232 0.5513,237.359268 C0.5476,237.398643 0.548216667,237.439248 0.545133333,237.478623 C0.537116667,237.58875 0.528483333,237.698877 0.528483333,237.811465 L0.528483333,256.417998 C0.528483333,258.979834 2.60973333,261.05625 5.17753333,261.05625 L115.523867,261.05625 L115.523867,287.115117 L79.7683,287.115117 C77.1998833,287.115117 75.11925,289.192148 75.11925,291.753369 L75.11925,305.72165 L30.0403,305.72165 C27.4718833,305.72165 25.39125,307.798682 25.39125,310.359902 C25.39125,312.921123 27.4725,314.998154 30.0403,314.998154 L79.7689167,314.998154 L179.228,314.998154 L228.949833,314.998154 C231.51825,314.998154 233.598883,312.921123 233.598883,310.359902 C233.598883,307.798682 231.517633,305.72165 228.949833,305.72165 L183.877667,305.72165 L183.877667,291.753369 C183.877667,289.191533 181.796417,287.115117 179.228617,287.115117 L143.47305,287.115117 L143.47305,261.05625 L253.82,261.05625 C256.388417,261.05625 258.46905,258.979219 258.46905,256.417998 L258.46905,237.894521 C258.469667,237.888369 258.469667,237.880986 258.469667,237.873604 L258.469667,237.813311 C258.470283,237.737637 258.462883,237.665654 258.459183,237.591826 Z M248.091783,233.173828 L175.275167,233.173828 L173.164317,203.173154 L241.761083,203.173154 L248.091783,233.173828 Z M233.473083,163.895977 L239.8044,193.89665 L172.511883,193.89665 L170.401033,163.895977 L233.473083,163.895977 Z M225.185083,124.618799 L231.5164,154.619473 L169.7486,154.619473 L167.63775,124.618799 L225.185083,124.618799 Z M100.680083,124.618799 L158.316833,124.618799 L160.427683,154.619473 L98.56985,154.619473 L100.680083,124.618799 Z M97.9180333,163.895977 L161.080117,163.895977 L163.190967,193.89665 L95.8078,193.89665 L97.9180333,163.895977 Z M95.1559833,203.17377 L163.8434,203.17377 L165.953633,233.173828 L93.04575,233.173828 L95.1559833,203.17377 Z M33.81245,124.618799 L91.3591667,124.618799 L89.2489333,154.619473 L27.48175,154.619473 L33.81245,124.618799 Z M25.5250667,163.895977 L88.5965,163.895977 L86.4862667,193.89665 L19.1943667,193.89665 L25.5250667,163.895977 Z M174.579567,296.393467 L174.579567,305.722881 L84.4185833,305.722881 L84.4185833,296.393467 L120.17415,296.393467 L138.824617,296.393467 L174.579567,296.393467 Z M124.8232,287.116348 L124.8232,261.05748 L134.17495,261.05748 L134.17495,287.116348 L124.8232,287.116348 Z M138.878267,251.780361 C138.860383,251.780361 138.8425,251.7779 138.824617,251.7779 L120.17415,251.7779 C120.156267,251.7779 120.138383,251.780361 120.1205,251.780361 L9.82658333,251.780361 L9.82658333,242.450947 L31.9741667,242.450947 C34.5425833,242.450947 36.6232167,240.373916 36.6232167,237.812695 C36.6232167,235.250859 34.5419667,233.174443 31.9741667,233.174443 L10.9069833,233.174443 L17.2370667,203.17377 L85.8338333,203.17377 L83.7236,233.173828 L52.0799667,233.173828 L52.07935,233.173828 C49.5109333,233.173828 47.4303,235.250859 47.4303,237.81208 C47.4303,240.373916 49.51155,242.450332 52.07935,242.450332 L52.0799667,242.450332 L88.05445,242.450332 C88.0575333,242.450332 88.06,242.450332 88.0630833,242.450332 C88.0649333,242.450332 88.0674,242.450332 88.06925,242.450332 L170.9289,242.450332 C170.93075,242.450332 170.933217,242.450332 170.935067,242.450332 C170.93815,242.450332 170.940617,242.450332 170.9437,242.450332 L249.170333,242.450332 L249.170333,251.779746 L138.878267,251.779746 L138.878267,251.780361 Z" id="Shape" fill="#D8DBDF" fill-rule="nonzero"></path>
            </g>
        </g>
    </g>
</svg>