<?xml version="1.0" encoding="UTF-8"?>
<svg width="139px" height="151px" viewBox="0 0 139 151" version="1.1" xmlns="http://www.w3.org/2000/svg" xmlns:xlink="http://www.w3.org/1999/xlink">
    <!-- Generator: Sketch 51.2 (57519) - http://www.bohemiancoding.com/sketch -->
    <title>development (1)</title>
    <desc>Created with Sketch.</desc>
    <defs></defs>
    <g id="Page-1" stroke="none" stroke-width="1" fill="none" fill-rule="evenodd">
        <g id="Large-Device-Desktops-Copy" transform="translate(-293.000000, -1324.000000)" fill-rule="nonzero">
            <g id="Group-25" transform="translate(148.000000, 271.000000)">
                <g id="Group-9" transform="translate(145.000000, 1048.000000)">
                    <g id="development-(1)" transform="translate(0.000000, 5.000000)">
                        <g id="group-(3)">
                            <path d="M117.415172,106.472835 L99.5562607,106.472835 C95.8653926,106.470457 92.2370544,107.420845 89.0257163,109.23126 C86.2923152,110.774155 83.9277221,112.888948 82.0956304,115.42979 C80.875298,115.217756 79.6386361,115.111937 78.3995845,115.11273 L60.5247421,115.11273 C59.2856905,115.111541 58.0490287,115.217756 56.8286963,115.42979 C54.9970029,112.888551 52.6324097,110.773759 49.8986103,109.23126 C46.6872722,107.420845 43.0589341,106.470457 39.3680659,106.472835 L21.5091547,106.472835 C9.64197994,106.498992 0.028277937,116.065496 0.00199140409,127.874409 L0.00199140409,139.938556 C0.0107535817,141.202042 1.04230086,142.221391 2.31202006,142.221391 L38.9538539,142.221391 L38.9538539,148.562598 C38.9538539,149.832029 39.9881891,150.861286 41.2638825,150.861286 L97.5967192,150.861286 C98.8724126,150.861286 99.9067479,149.832029 99.9067479,148.562598 L99.9067479,142.221391 L136.548582,142.221391 C137.824275,142.221391 138.85861,141.192134 138.85861,139.922703 L138.85861,127.874409 C138.832324,116.090068 129.257255,106.533869 117.415172,106.472835 Z" id="Shape" fill="#2CA0DA"></path>
                            <path d="M41.9329943,74.9728871 C38.8889341,71.925937 34.7484069,70.213811 30.4306447,70.2169816 C21.4474212,70.2090551 14.1584842,77.4491286 14.1505186,86.3886457 C14.142553,95.3277664 21.4183467,102.580919 30.4019685,102.588845 C39.3855903,102.596772 46.6741289,95.3566982 46.6820946,86.4171811 C46.6856791,82.126958 44.977851,78.0107218 41.9329943,74.9728871 Z" id="Shape" fill="#4FBF9F"></path>
                            <path d="M96.6727077,9.00847769 C88.8799456,3.04457218 79.2925301,-0.128013123 69.4621633,0.00396325459 C59.6317966,-0.128013123 50.0447794,3.04457218 42.2516189,9.00847769 C35.1144269,14.6838583 30.7014756,22.5786614 30.7014756,31.3136745 C30.7102378,35.7501417 31.8445415,40.1124961 33.9992407,43.9960892 C36.0495903,47.664874 38.8048968,50.8969081 42.1082378,53.5079003 L40.2761461,65.6354593 C40.0853696,66.8819029 40.9464527,68.0459108 42.1990458,68.2357507 C42.7180057,68.3142231 43.2481175,68.2135564 43.701361,67.95 L56.1595845,60.7210236 C58.1338625,61.3052073 60.1459771,61.7554331 62.1815903,62.0685302 C64.5959685,62.4386982 67.0354384,62.6241785 69.4780946,62.6233858 C79.3084613,62.7553622 88.8958768,59.5827769 96.688639,53.6188714 C103.8099,47.9276378 108.222851,40.0486877 108.222851,31.3136745 C108.222851,22.5786614 103.8099,14.6838583 96.6727077,9.00847769 Z" id="Shape" fill="#F06151"></path>
                            <path d="M108.506825,70.2011286 C99.5236017,70.1932021 92.2346648,77.4332756 92.2266991,86.3727927 C92.2227163,90.6630157 93.9309427,94.7796483 96.9757994,97.8170866 C100.01986,100.864037 104.160387,102.576163 108.478149,102.572992 C117.461372,102.580919 124.750309,95.3408451 124.758275,86.4013281 C124.766241,77.461811 117.490049,70.2090551 108.506825,70.2011286 Z" id="Shape" fill="#4FBF9F"></path>
                            <path d="M80.940616,83.5572966 C77.8929713,80.5349186 73.7647908,78.839042 69.4621633,78.8410236 C65.1444011,78.837853 61.0038739,80.549979 57.9598138,83.5969291 C51.6247593,89.9226798 51.6426819,100.160955 57.9996418,106.464908 C64.3566017,112.768861 74.6453897,112.751026 80.9804441,106.425276 C87.3154986,100.099525 87.2975759,89.8612493 80.940616,83.5572966 Z" id="Shape" fill="#4FBF9F"></path>
                        </g>
                        <g id="group-(3)">
                            <path d="M117.415172,106.472835 L99.5562607,106.472835 C95.8653926,106.470457 92.2370544,107.420845 89.0257163,109.23126 C86.2923152,110.774155 83.9277221,112.888948 82.0956304,115.42979 C80.875298,115.217756 79.6386361,115.111937 78.3995845,115.11273 L60.5247421,115.11273 C59.2856905,115.111541 58.0490287,115.217756 56.8286963,115.42979 C54.9970029,112.888551 52.6324097,110.773759 49.8986103,109.23126 C46.6872722,107.420845 43.0589341,106.470457 39.3680659,106.472835 L21.5091547,106.472835 C9.64197994,106.498992 0.028277937,116.065496 0.00199140409,127.874409 L0.00199140409,139.938556 C0.0107535817,141.202042 1.04230086,142.221391 2.31202006,142.221391 L38.9538539,142.221391 L38.9538539,148.562598 C38.9538539,149.832029 39.9881891,150.861286 41.2638825,150.861286 L97.5967192,150.861286 C98.8724126,150.861286 99.9067479,149.832029 99.9067479,148.562598 L99.9067479,142.221391 L136.548582,142.221391 C137.824275,142.221391 138.85861,141.192134 138.85861,139.922703 L138.85861,127.874409 C138.832324,116.090068 129.257255,106.533869 117.415172,106.472835 Z M39.1928223,134.453412 L39.1928223,134.944856 C39.1928223,135.166798 39.1928223,135.372887 39.1928223,135.594829 L39.1928223,136.514304 L39.1928223,137.624016 L4.62204871,137.624016 L4.62204871,127.874409 C4.64833524,118.604357 12.1933668,111.096367 21.5091547,111.07021 L39.3680659,111.07021 C42.2599828,111.067039 45.1033095,111.809753 47.6204441,113.22622 C49.3079599,114.175816 50.8218252,115.403633 52.0971203,116.856562 C44.9085501,119.961375 39.9714613,126.694152 39.1928223,134.453412 Z M95.2388968,136.514304 L95.2388968,146.279764 L43.6376361,146.279764 L43.6376361,136.339921 C43.6376361,136.160386 43.6376361,135.986003 43.6376361,135.816772 C43.6376361,135.542118 43.6376361,135.267068 43.6376361,134.992415 L43.6376361,134.580236 C43.6376361,134.421706 43.6376361,134.263176 43.6376361,134.104646 L43.6376361,133.597349 L43.6376361,133.438819 L43.6376361,133.264436 L43.6376361,132.915669 L43.7332235,132.535197 L43.8925358,131.964488 L44.0040544,131.584016 C46.2925759,124.682008 52.759063,120.008934 60.0627364,119.979606 L60.5247421,119.725958 L78.3995845,119.725958 C86.8817708,119.756871 94.0352923,126.021588 95.1433095,134.39 C95.1433095,134.738766 95.1433095,135.087533 95.2388968,135.436299 C95.2388968,135.795766 95.2388968,136.154837 95.2388968,136.514304 Z M134.302278,137.639869 L99.8908166,137.639869 L99.8908166,136.260656 C99.8908166,136.086273 99.8908166,135.91189 99.8908166,135.737507 C99.8908166,135.557971 99.8908166,135.378039 99.8908166,135.198504 C99.8908166,134.944856 99.8908166,134.675354 99.8908166,134.421706 L99.8908166,134.183911 L99.8908166,133.914409 L99.8908166,133.422966 L99.8908166,133.343701 L99.8908166,133.153465 L99.8908166,132.979081 L99.8908166,132.86811 L99.8908166,132.662021 L99.8908166,132.440079 L99.8908166,132.329108 L99.8908166,132.18643 L99.8908166,132.043753 L99.8908166,131.901076 L99.8908166,131.55231 L99.8908166,131.39378 L99.8908166,131.18769 L99.8908166,130.981601 L99.779298,130.585276 L99.779298,130.426745 L99.779298,130.284068 L99.779298,130.173097 L99.779298,130.014567 L99.779298,129.808478 L99.5562607,129.19021 C97.4804212,123.699121 93.2466963,119.286037 87.8308739,116.967533 C88.7891375,115.555822 89.9545072,114.294714 91.2879513,113.22622 C93.805086,111.809753 96.6484126,111.067039 99.5403295,111.07021 L117.415172,111.07021 C126.730562,111.096367 134.275991,118.604357 134.302278,127.874409 L134.302278,137.639869 Z" id="Shape" fill="#183651"></path>
                            <ellipse id="Oval" fill="#FFFFFF" cx="69.5577507" cy="30.853937" rx="2.61272206" ry="2.59989501"></ellipse>
                            <path d="M41.9329943,74.9728871 C38.8889341,71.925937 34.7484069,70.213811 30.4306447,70.2169816 C21.4474212,70.2090551 14.1584842,77.4491286 14.1505186,86.3886457 C14.142553,95.3277664 21.4183467,102.580919 30.4019685,102.588845 C39.3855903,102.596772 46.6741289,95.3566982 46.6820946,86.4171811 C46.6856791,82.126958 44.977851,78.0107218 41.9329943,74.9728871 Z M38.6670917,94.5830709 C34.1199198,99.1095039 26.7465473,99.1110892 22.197384,94.5862415 C17.6486189,90.0613937 17.6470258,82.7242205 22.1941977,78.1973911 C26.7413696,73.670958 34.1147421,73.6693727 38.6639054,78.1942205 C40.8480774,80.3668766 42.0755788,83.3139528 42.0763754,86.3870604 C42.0807564,89.4617533 40.8540516,92.4112073 38.6670917,94.5830709 Z" id="Shape" fill="#183651"></path>
                            <ellipse id="Oval" fill="#FFFFFF" cx="86.4448567" cy="30.853937" rx="2.61272206" ry="2.59989501"></ellipse>
                            <path d="M96.6727077,9.00847769 C88.8799456,3.04457218 79.2925301,-0.128013123 69.4621633,0.00396325459 C59.6317966,-0.128013123 50.0447794,3.04457218 42.2516189,9.00847769 C35.1144269,14.6838583 30.7014756,22.5786614 30.7014756,31.3136745 C30.7102378,35.7501417 31.8445415,40.1124961 33.9992407,43.9960892 C36.0495903,47.664874 38.8048968,50.8969081 42.1082378,53.5079003 L40.2761461,65.6354593 C40.0853696,66.8819029 40.9464527,68.0459108 42.1990458,68.2357507 C42.7180057,68.3142231 43.2481175,68.2135564 43.701361,67.95 L56.1595845,60.7210236 C58.1338625,61.3052073 60.1459771,61.7554331 62.1815903,62.0685302 C64.5959685,62.4386982 67.0354384,62.6241785 69.4780946,62.6233858 C79.3084613,62.7553622 88.8958768,59.5827769 96.688639,53.6188714 C103.8099,47.9276378 108.222851,40.0486877 108.222851,31.3136745 C108.222851,22.5786614 103.8099,14.6838583 96.6727077,9.00847769 Z M93.805086,50.0677953 C86.8172493,55.3583438 78.241467,58.150853 69.4621633,57.9943045 C67.2596705,57.9974751 65.0599656,57.8333963 62.8825645,57.5028609 C60.7222894,57.1814409 58.5914871,56.6884121 56.5100716,56.0285302 C55.8923381,55.834727 55.221235,55.9092362 54.6620487,56.2346194 L45.5653152,61.5770866 L46.8876074,52.8579265 C47.0138625,52.0062231 46.6510287,51.1557087 45.9476648,50.654357 C42.6801691,48.3013727 39.9626991,45.2730499 37.9820487,41.7766667 C36.2104957,38.57079 35.2793152,34.9721549 35.2737393,31.3136745 C35.2737393,24.0212861 39.0175788,17.3947244 45.071447,12.5754068 C52.0592837,7.28485827 60.6350659,4.49234908 69.4143696,4.64889764 C78.1936734,4.49234908 86.7694556,7.28485827 93.7572923,12.5754068 C99.8111605,17.3313123 103.555,24.0212861 103.555,31.3136745 C103.555,38.606063 99.8589542,45.2326247 93.805086,50.0677953 Z" id="Shape" fill="#183651"></path>
                            <path d="M108.506825,70.2011286 C99.5236017,70.1932021 92.2346648,77.4332756 92.2266991,86.3727927 C92.2227163,90.6630157 93.9309427,94.7796483 96.9757994,97.8170866 C100.01986,100.864037 104.160387,102.576163 108.478149,102.572992 C117.461372,102.580919 124.750309,95.3408451 124.758275,86.4013281 C124.766241,77.461811 117.490049,70.2090551 108.506825,70.2011286 Z M116.730129,94.5763333 C112.182957,99.1027664 104.809585,99.1043517 100.260421,94.5795039 C98.0762493,92.4068478 96.8487479,89.4597717 96.8479513,86.386664 C96.8435702,83.3119711 98.0702751,80.3625171 100.257235,78.1906535 C104.804407,73.6642205 112.177779,73.6626352 116.726943,78.1874829 C121.275708,82.7123307 121.277301,90.0499003 116.730129,94.5763333 Z" id="Shape" fill="#183651"></path>
                            <ellipse id="Oval" fill="#FFFFFF" cx="52.6706447" cy="30.853937" rx="2.61272206" ry="2.59989501"></ellipse>
                            <path d="M80.940616,83.5572966 C77.8929713,80.5349186 73.7647908,78.839042 69.4621633,78.8410236 C65.1444011,78.837853 61.0038739,80.549979 57.9598138,83.5969291 C51.6247593,89.9226798 51.6426819,100.160955 57.9996418,106.464908 C64.3566017,112.768861 74.6453897,112.751026 80.9804441,106.425276 C87.3154986,100.099525 87.2975759,89.8612493 80.940616,83.5572966 Z M69.4589771,106.628194 C63.0271404,106.626213 57.8148395,101.436331 57.8164327,95.0364672 C57.8180258,88.6366037 63.0339112,83.4494961 69.4653496,83.4510814 C72.5536189,83.451874 75.515235,84.6733491 77.6986103,86.8467979 C79.8855702,89.0186614 81.1122751,91.9681155 81.107894,95.0428084 C81.1059026,101.443068 75.8904155,106.62978 69.4589771,106.628194 Z" id="Shape" fill="#183651"></path>
                        </g>
                    </g>
                </g>
            </g>
        </g>
    </g>
</svg>