<?xml version="1.0" encoding="UTF-8"?>
<svg width="139px" height="175px" viewBox="0 0 139 175" version="1.1" xmlns="http://www.w3.org/2000/svg" xmlns:xlink="http://www.w3.org/1999/xlink">
    <!-- Generator: Sketch 51.2 (57519) - http://www.bohemiancoding.com/sketch -->
    <title>development (1)</title>
    <desc>Created with Sketch.</desc>
    <defs></defs>
    <g id="Page-1" stroke="none" stroke-width="1" fill="none" fill-rule="evenodd">
        <g id="Large-Device-Desktops-Copy" transform="translate(-299.000000, -1879.000000)" fill-rule="nonzero">
            <g id="Group-25" transform="translate(148.000000, 271.000000)">
                <g id="Group-11" transform="translate(151.000000, 1598.000000)">
                    <g id="development-(1)" transform="translate(0.000000, 10.000000)">
                        <g id="Group" transform="translate(20.880701, 142.425743)" fill="#183651">
                            <rect id="Rectangle-path" transform="translate(4.095120, 4.117745) rotate(-147.180777) translate(-4.095120, -4.117745) " x="1.37436747" y="1.38804219" width="5.44150594" height="5.45940563"></rect>
                            <rect id="Rectangle-path" transform="translate(15.503606, 11.518885) rotate(-147.180777) translate(-15.503606, -11.518885) " x="12.7828528" y="8.78918267" width="5.44150594" height="5.45940563"></rect>
                            <rect id="Rectangle-path" transform="translate(26.909405, 18.920073) rotate(-147.180777) translate(-26.909405, -18.920073) " x="24.1886521" y="16.1903703" width="5.44150594" height="5.45940563"></rect>
                            <rect id="Rectangle-path" transform="translate(103.090765, 4.261314) rotate(-122.814408) translate(-103.090765, -4.261314) " x="100.370332" y="1.53193257" width="5.44086566" height="5.45876324"></rect>
                            <rect id="Rectangle-path" transform="translate(91.660002, 11.572055) rotate(-122.819223) translate(-91.660002, -11.572055) " x="88.9392487" y="8.84235245" width="5.44150594" height="5.45940563"></rect>
                            <rect id="Rectangle-path" transform="translate(80.257665, 18.880511) rotate(-122.814408) translate(-80.257665, -18.880511) " x="77.5372318" y="16.1511291" width="5.44086566" height="5.45876324"></rect>
                        </g>
                        <path d="M96.7481669,34.120495 L89.1304035,34.120495 L89.1304035,128.838465 L96.7481669,128.838465 L98.108346,117.647129 C101.645226,116.828267 105.182107,115.190545 108.174985,113.279752 L117.153273,120.376782 L127.763914,109.731238 L120.690153,100.723416 C122.59468,97.7206931 123.954859,94.1721782 125.04321,90.6236634 L136.197854,89.2590099 L136.197854,73.9730198 L125.04321,72.6083663 C124.227033,69.0598515 122.59468,65.5113366 120.690153,62.5086139 L127.763914,53.5007921 L117.153273,42.8552475 L108.174985,49.9522772 C105.182107,48.0414851 101.645226,46.6768317 98.108346,45.584901 L96.7481669,34.120495 Z" id="Shape" fill="#2CA0DA"></path>
                        <path d="M89.1304035,131.568119 C88.3142269,131.568119 87.7702243,131.29505 87.2258763,130.749257 C86.6818737,130.203465 86.4096997,129.657327 86.4096997,128.838465 L86.4096997,34.120495 C86.4096997,32.4827723 87.4980503,31.3908416 89.1304035,31.3908416 L96.7481669,31.3908416 C98.108346,31.3908416 99.1966966,32.4827723 99.4688706,33.8474257 L100.557221,43.1283168 C103.277925,43.9471782 105.726455,45.0391089 107.903156,46.1310396 L115.249091,40.3986634 C116.337441,39.579802 117.969795,39.579802 118.785971,40.6717327 L129.396612,51.3172772 C130.484963,52.4092079 130.484963,53.7738614 129.668786,54.8657921 L123.955205,62.2358911 C125.315384,64.6924752 126.403734,67.1490594 126.948082,69.6059901 L136.470373,70.6979208 C137.830552,70.9709901 138.918903,72.0625743 138.918903,73.4275743 L138.918903,88.7128713 C138.918903,90.0775248 137.830552,91.1694554 136.470373,91.4425248 L126.948082,92.5344554 C126.131906,95.2641089 125.043555,97.7206931 123.955205,99.9045545 L129.668786,107.274653 C130.484963,108.366584 130.484963,110.004307 129.396612,110.823168 L118.785971,121.468713 C117.697621,122.560644 116.337441,122.560644 115.249091,121.741782 L107.903156,116.009406 C105.454626,117.374059 103.006096,118.46599 100.557221,119.012129 L99.4688706,128.29302 C99.1966966,129.657673 98.1086914,130.749604 96.7481669,130.749604 L89.1304035,131.568119 Z M91.8511073,36.8494554 L91.8511073,126.108465 L94.2996371,126.108465 L95.3879877,117.373713 C95.6601617,116.281782 96.2041643,115.189851 97.5646888,114.917129 C100.829395,114.098267 104.094447,112.733267 107.086979,111.095545 C108.17533,110.549752 109.263681,110.549752 110.079857,111.368614 L117.153618,116.827921 L124.499553,109.457822 L119.058145,102.360792 C118.241969,101.541931 118.241969,100.176931 118.785971,99.3580693 C120.690498,96.3553465 121.778849,93.3529703 122.595025,89.8044554 C122.867199,88.7125248 123.683376,87.8936634 124.771727,87.6205941 L133.477841,86.5286634 L133.477841,76.1561881 L124.771727,75.3373267 C123.683376,75.0642574 122.595025,74.5184653 122.595025,73.1534653 C121.778849,69.8780198 120.418324,66.6022277 118.785971,63.5998515 C118.241969,62.5079208 118.241969,61.4159901 119.058145,60.5971287 L124.499553,53.500099 L117.153618,46.13 L110.079857,51.5893069 C109.263681,52.4081683 107.903156,52.4081683 107.086979,51.8623762 C104.094102,49.9515842 101.101569,48.8596535 97.5646888,48.0407921 C96.4763383,47.7677228 95.6601617,46.9488614 95.3879877,45.5842079 L94.2996371,36.8494554 L91.8511073,36.8494554 Z" id="Shape" fill="#183651"></path>
                        <path d="M105.454281,81.6158416 C105.454281,72.6080198 98.108346,65.2379208 89.1300581,65.2379208 L89.1300581,97.7203465 C98.1086914,97.7206931 105.454281,90.6236634 105.454281,81.6158416 Z" id="Shape" fill="#FFFFFF"></path>
                        <path d="M89.1304035,100.450347 C87.4980503,100.450347 86.4096997,99.3584158 86.4096997,97.7206931 L86.4096997,65.2382673 C86.4096997,63.6005446 87.4980503,62.5086139 89.1304035,62.5086139 C99.4688706,62.5086139 108.174985,70.970297 108.174985,81.6158416 C108.174985,91.9883168 99.7410446,100.450347 89.1304035,100.450347 Z M91.8511073,68.2406436 L91.8511073,94.7179703 C98.1086914,93.3533168 102.733922,87.8940099 102.733922,81.3427723 C102.733922,75.064604 98.1086914,69.6056436 91.8511073,68.2406436 Z" id="Shape" fill="#183651"></path>
                        <path d="M49.9525454,137.846287 L58.9308333,137.846287 L58.9308333,25.1126733 L49.9525454,25.1126733 L48.3201922,38.4878713 C43.9671352,39.579802 39.8862522,41.2175248 36.0771979,43.6741089 L25.4665567,35.4851485 L12.6792144,48.3145545 L20.8413258,58.960099 C18.6646246,62.7816832 16.7604428,66.8759901 15.6720922,71.2433663 L2.34074728,72.8810891 L2.34074728,90.8967327 L15.6720922,92.5344554 C16.7604428,96.9018317 18.392796,100.996139 20.8413258,104.817723 L12.6792144,115.463267 L25.4665567,128.292673 L36.0771979,120.103713 C39.8862522,122.287574 43.9671352,124.19802 48.3201922,125.016881 L49.9525454,137.846287 Z" id="Shape" fill="#F06151"></path>
                        <path d="M58.9308333,140.575941 L49.9525454,140.575941 C48.5923662,140.575941 47.5040156,139.48401 47.2318416,138.119356 L45.8716624,126.65495 C42.606956,125.56302 39.3419042,124.471089 36.3493719,122.833366 L27.0989099,129.930396 C26.0105593,130.749257 24.3782061,130.749257 23.5620295,129.657327 L10.7746872,116.827921 C9.95851063,116.009059 9.95851063,114.371337 10.7746872,113.279406 L17.848448,103.998515 C16.2160948,100.995792 14.8555702,97.7203465 14.0393936,94.444901 L2.61257588,93.0802475 C1.25239669,92.8071782 0.164046096,91.7155941 0.164046096,90.3505941 L0.164046096,72.3349505 C0.164046096,70.970297 1.25239669,69.8783663 2.61257588,69.605297 L14.0393936,68.2406436 C15.1277442,64.965198 16.2160948,61.6894059 17.848448,58.6870297 L10.7746872,49.4061386 C9.95851063,48.3142079 9.95851063,46.6764851 11.0468612,45.8576238 L23.8342035,33.0282178 C24.9225541,31.9362871 26.2827333,31.9362871 27.3710839,32.7551485 L36.6215459,39.8521782 C39.6144236,38.2144554 42.87913,36.8494554 46.1438364,36.0305941 L47.5040156,24.5661881 C47.7761896,23.2015347 48.8641948,22.109604 50.2247194,22.109604 L59.2030073,22.109604 C60.0191839,22.109604 60.5631865,22.3826733 61.1075345,22.9284653 C61.6515371,23.4742574 61.9237111,24.020396 61.9237111,24.8392574 L61.9237111,137.845941 C61.6515371,139.48401 60.5631865,140.575941 58.9308333,140.575941 Z M52.4010752,135.116634 L56.2101295,135.116634 L56.2101295,27.8423267 L52.4010752,27.8423267 L51.040896,38.7609406 C50.768722,39.8528713 50.2247194,40.944802 48.8641948,41.2175248 C44.7833118,42.3094554 40.9742574,43.6741089 37.437377,45.8579703 C36.3490265,46.4037624 35.2606759,46.4037624 34.4444993,45.584901 L25.7383853,38.7609406 L16.4879234,48.0418317 L23.2895101,56.7765842 C24.1056867,57.5954455 24.1056867,58.9604455 23.5616841,59.7793069 C21.384983,63.3278218 19.7526298,67.1494059 18.9364532,71.2437129 C18.6642792,72.3356436 17.8481026,73.154505 16.4879234,73.4275743 L5.60510826,74.7922277 L5.60510826,88.1674257 L16.4879234,89.5320792 C17.576274,89.8051485 18.6646246,90.3509406 18.9364532,91.7159406 C20.0248038,95.8102475 21.384983,99.6318317 23.5616841,103.180347 C24.1056867,104.272277 24.1056867,105.364208 23.2895101,106.183069 L16.4879234,114.917822 L25.7383853,124.198713 L34.4444993,117.374752 C35.2606759,116.555891 36.6212005,116.555891 37.437377,117.101683 C40.9742574,119.285545 44.7833118,120.923267 48.8641948,121.742129 C49.9525454,122.015198 50.768722,122.834059 51.040896,124.198713 L52.4010752,135.116634 Z" id="Shape" fill="#183651"></path>
                        <path d="M39.6140782,81.6158416 C39.6140782,92.2613861 48.3201922,100.996139 58.9308333,100.996139 L58.9308333,62.2355446 C48.3201922,62.2355446 39.6140782,70.970297 39.6140782,81.6158416 Z" id="Shape" fill="#FFFFFF"></path>
                        <path d="M58.9308333,103.725792 C46.687839,103.725792 36.8933745,93.8991089 36.8933745,81.6158416 C36.8933745,69.3325743 46.687839,59.5058911 58.9308333,59.5058911 C60.5631865,59.5058911 61.6515371,60.5978218 61.6515371,62.2355446 L61.6515371,100.996139 C61.6515371,102.361139 60.5631865,103.725792 58.9308333,103.725792 Z M56.2101295,65.2379208 C48.3201922,66.6025743 42.334782,73.4268812 42.334782,81.6158416 C42.334782,89.804802 48.3201922,96.6287624 56.2101295,97.9937624 L56.2101295,65.2379208 Z" id="Shape" fill="#183651"></path>
                        <rect id="Rectangle-path" fill="#4FBF9F" x="58.9308333" y="30.2989109" width="30.1995702" height="116.009059"></rect>
                        <path d="M89.1304035,149.037624 L58.9308333,149.037624 C57.2984801,149.037624 56.2101295,147.945693 56.2101295,146.30797 L56.2101295,30.2989109 C56.2101295,28.6611881 57.2984801,27.5692574 58.9308333,27.5692574 L89.1304035,27.5692574 C90.7627567,27.5692574 91.8511073,28.6611881 91.8511073,30.2989109 L91.8511073,146.30797 C91.8511073,147.67297 90.7627567,149.037624 89.1304035,149.037624 Z M61.6515371,143.578317 L86.4096997,143.578317 L86.4096997,33.0285644 L61.6515371,33.0285644 L61.6515371,143.578317 Z" id="Shape" fill="#183651"></path>
                        <rect id="Rectangle-path" fill="#FFFFFF" x="68.9974718" y="40.1255941" width="10.3384671" height="96.0829703"></rect>
                        <path d="M82.6006453,2.72965347 L65.4602461,2.72965347 C61.9233657,2.72965347 58.9304879,5.73237624 58.9304879,9.28089109 L58.9304879,30.2989109 L89.1300581,30.2989109 L89.1300581,9.28089109 C89.1304035,5.73237624 86.1375257,2.72965347 82.6006453,2.72965347 Z" id="Shape" fill="#E1E6E7"></path>
                        <path d="M89.1304035,33.0285644 L58.9308333,33.0285644 C57.2984801,33.0285644 56.2101295,31.9366337 56.2101295,30.2989109 L56.2101295,9.28089109 C56.2101295,4.09430693 60.2913579,0 65.4605915,0 L82.6009907,0 C87.7702243,0 91.8514527,4.09430693 91.8514527,9.28089109 L91.8514527,30.2989109 C91.8511073,31.6635644 90.7627567,33.0285644 89.1304035,33.0285644 Z M61.6515371,27.5692574 L86.4096997,27.5692574 L86.4096997,9.28089109 C86.4096997,7.0970297 84.7773465,5.45930693 82.6006453,5.45930693 L65.4602461,5.45930693 C63.2835449,5.45930693 61.6511917,7.0970297 61.6511917,9.28089109 L61.6515371,27.5692574 Z" id="Shape" fill="#183651"></path>
                        <polygon id="Shape" fill="#FFFFFF" points="74.1667054 171.966436 89.1304035 146.30797 58.9308333 146.30797"></polygon>
                        <path d="M74.1667054,174.696089 C73.0783548,174.696089 72.2621782,174.150297 71.7181756,173.331436 L56.7544775,147.67297 C56.2104749,146.854109 56.2104749,145.762178 56.7544775,144.943317 C57.2984801,144.124455 58.1146567,143.578663 59.2030073,143.578663 L89.4025775,143.578663 C90.4909281,143.578663 91.3071047,144.124455 91.8511073,144.943317 C92.3951099,145.762178 92.3951099,146.854109 91.8511073,147.67297 L76.3434066,173.331436 C76.0712326,174.150297 74.982882,174.696089 74.1667054,174.696089 Z M63.8282383,149.037624 L74.1667054,166.780198 L84.5051725,149.037624 L63.8282383,149.037624 Z" id="Shape" fill="#183651"></path>
                    </g>
                </g>
            </g>
        </g>
    </g>
</svg>