<?xml version="1.0" encoding="UTF-8"?>
<svg width="172px" height="177px" viewBox="0 0 172 177" version="1.1" xmlns="http://www.w3.org/2000/svg" xmlns:xlink="http://www.w3.org/1999/xlink">
    <!-- Generator: Sketch 51.2 (57519) - http://www.bohemiancoding.com/sketch -->
    <title>development (2)</title>
    <desc>Created with Sketch.</desc>
    <defs></defs>
    <g id="Page-1" stroke="none" stroke-width="1" fill="none" fill-rule="evenodd">
        <g id="Large-Device-Desktops-Copy" transform="translate(-978.000000, -1048.000000)" fill-rule="nonzero">
            <g id="Group-25" transform="translate(148.000000, 271.000000)">
                <g id="Group-12" transform="translate(142.000000, 773.000000)">
                    <g id="development-(2)" transform="translate(688.000000, 4.000000)">
                        <path d="M145.325061,131.074634 L145.325061,48.5260396 C145.325061,42.4523109 140.355743,37.4826416 134.281663,37.4826416 L13.9097465,37.4826416 C7.83601782,37.4826416 2.86634851,42.4519604 2.86634851,48.5260396 L2.86634851,131.074634 L145.325061,131.074634 Z" id="Shape" fill="#4FBF9F"></path>
                        <path d="M145.325061,133.835483 L2.86669901,133.835483 C1.21025941,133.835483 0.105849505,132.731073 0.105849505,131.074634 L0.105849505,48.5260396 C0.105849505,40.7958713 6.17957822,34.7217921 13.910097,34.7217921 L134.281663,34.7217921 C142.011832,34.7217921 148.085911,40.7955208 148.085911,48.5260396 L148.085911,131.074634 C148.085911,132.731073 146.705311,133.835483 145.325061,133.835483 Z M5.62719802,128.313784 L142.564212,128.313784 L142.564212,48.5260396 C142.564212,43.8325604 138.975143,40.2434911 134.281663,40.2434911 L13.9097465,40.2434911 C9.21626733,40.2434911 5.62719802,43.8325604 5.62719802,48.5260396 L5.62719802,128.313784 Z" id="Shape" fill="#183651"></path>
                        <g id="Group" transform="translate(2.803960, 48.368317)" fill="#FFFFFF">
                            <rect id="Rectangle-path" x="11.1057861" y="0.157722772" width="120.371917" height="71.505196"></rect>
                            <path d="M0.0627386139,82.7063168 L0.0627386139,94.8537743 C0.0627386139,100.927503 5.03205743,105.897172 11.1061366,105.897172 L131.477703,105.897172 C137.551432,105.897172 142.521101,100.927853 142.521101,94.8537743 L142.521101,82.7063168 L0.0627386139,82.7063168 Z" id="Shape"></path>
                        </g>
                        <g id="Group" transform="translate(0.000000, 128.281188)" fill="#183651">
                            <path d="M134.281663,29.0213406 L13.9097465,29.0213406 C6.17957822,29.0213406 0.10549901,22.9476119 0.10549901,15.2170931 L0.10549901,3.06963564 C0.10549901,1.41319604 1.20990891,0.308786139 2.86634851,0.308786139 L145.324711,0.308786139 C146.98115,0.308786139 148.08556,1.41319604 148.08556,3.06963564 L148.08556,15.2170931 C148.085911,22.6714218 141.735992,29.0213406 134.281663,29.0213406 Z M5.62754851,5.55429505 L5.62754851,14.9412535 C5.62754851,19.6347327 9.21661782,23.223802 13.910097,23.223802 L134.281663,23.223802 C138.975143,23.223802 142.564212,19.6347327 142.564212,14.9412535 L142.564212,5.55429505 L5.62754851,5.55429505 Z" id="Shape"></path>
                            <path d="M93.6978416,48.6231267 L54.4939188,48.6231267 C53.665699,48.6231267 52.8374792,48.071097 52.285099,47.5187168 C51.7330693,46.690497 51.7330693,45.8622772 52.0089089,45.0340574 L60.0152673,25.4322713 C60.567297,24.3278614 61.3955168,23.7758317 62.4999267,23.7758317 L85.6907822,23.7758317 C86.7951921,23.7758317 87.899602,24.3278614 88.1754416,25.4322713 L96.1818,44.7578673 C96.4579901,45.309897 96.7338297,45.5860871 96.7338297,46.4143069 C96.4583406,47.5187168 95.3542812,48.6231267 93.6978416,48.6231267 Z M58.3591782,43.1014277 L89.5563921,43.1014277 L83.758503,29.0213406 L64.1567168,29.0213406 L58.3591782,43.1014277 Z" id="Shape"></path>
                        </g>
                        <path d="M98.1151307,176.904315 L50.0766297,176.904315 C48.4201901,176.904315 47.3157802,175.799905 47.3157802,174.143465 C47.3157802,172.487026 48.4201901,171.382616 50.0766297,171.382616 L98.1147802,171.382616 C99.7712198,171.382616 100.87563,172.487026 100.87563,174.143465 C100.87563,175.799905 99.7715703,176.904315 98.1151307,176.904315 Z" id="Shape" fill="#183651"></path>
                        <rect id="Rectangle-path" fill="#FFFFFF" x="26.0575545" y="80.2752832" width="19.0497564" height="19.0497564"></rect>
                        <path d="M45.3831505,102.362079 L26.0575545,102.362079 C24.4011149,102.362079 23.296705,101.257669 23.296705,99.6012297 L23.296705,80.5514733 C23.296705,78.8950337 24.4011149,77.7906238 26.0575545,77.7906238 L45.1073109,77.7906238 C46.7637505,77.7906238 47.8681604,78.8950337 47.8681604,80.5514733 L47.8681604,99.6012297 C48.144,100.981479 46.7637505,102.362079 45.3831505,102.362079 Z M28.818404,96.8403802 L42.3464614,96.8403802 L42.3464614,83.3123228 L28.818404,83.3123228 L28.818404,96.8403802 Z" id="Shape" fill="#183651"></path>
                        <rect id="Rectangle-path" fill="#FFFFFF" x="64.4329069" y="80.2752832" width="19.0497564" height="19.0497564"></rect>
                        <path d="M83.7588535,102.362079 L64.709097,102.362079 C63.0526574,102.362079 61.9482475,101.257669 61.9482475,99.6012297 L61.9482475,80.5514733 C61.9482475,78.8950337 63.0526574,77.7906238 64.709097,77.7906238 L83.7588535,77.7906238 C85.4152931,77.7906238 86.519703,78.8950337 86.519703,80.5514733 L86.519703,99.6012297 C86.519703,100.981479 85.139103,102.362079 83.7588535,102.362079 Z M67.1937564,96.8403802 L80.7218139,96.8403802 L80.7218139,83.3123228 L67.1937564,83.3123228 L67.1937564,96.8403802 Z" id="Shape" fill="#183651"></path>
                        <rect id="Rectangle-path" fill="#FFFFFF" x="102.808259" y="80.2752832" width="19.0497564" height="19.0497564"></rect>
                        <path d="M122.134206,102.362079 L103.08445,102.362079 C101.42801,102.362079 100.3236,101.257669 100.3236,99.6012297 L100.3236,80.5514733 C100.3236,78.8950337 101.42801,77.7906238 103.08445,77.7906238 L122.134206,77.7906238 C123.790646,77.7906238 124.895055,78.8950337 124.895055,80.5514733 L124.895055,99.6012297 C124.895055,100.981479 123.514455,102.362079 122.134206,102.362079 Z M105.569109,96.8403802 L119.097166,96.8403802 L119.097166,83.3123228 L105.569109,83.3123228 L105.569109,96.8403802 Z" id="Shape" fill="#183651"></path>
                        <path d="M45.3831505,113.405477 L26.0575545,113.405477 C24.4011149,113.405477 23.296705,112.301067 23.296705,110.644628 C23.296705,108.988188 24.4011149,107.883778 26.0575545,107.883778 L45.1073109,107.883778 C46.7637505,107.883778 47.8681604,108.988188 47.8681604,110.644628 C47.8681604,112.301067 46.7637505,113.405477 45.3831505,113.405477 Z" id="Shape" fill="#183651"></path>
                        <path d="M83.7588535,113.405477 L64.709097,113.405477 C63.0526574,113.405477 61.9482475,112.301067 61.9482475,110.644628 C61.9482475,108.988188 63.0526574,107.883778 64.709097,107.883778 L83.7588535,107.883778 C85.4152931,107.883778 86.519703,108.988188 86.519703,110.644628 C86.519703,112.301067 85.139103,113.405477 83.7588535,113.405477 Z" id="Shape" fill="#183651"></path>
                        <g id="Group" transform="translate(55.027723, 107.601980)" fill="#183651">
                            <path d="M67.1064832,5.80349703 L48.0567267,5.80349703 C46.4002871,5.80349703 45.2958772,4.69908713 45.2958772,3.04264752 C45.2958772,1.38620792 46.4002871,0.28179802 48.0567267,0.28179802 L67.1064832,0.28179802 C68.7629228,0.28179802 69.8673327,1.38620792 69.8673327,3.04264752 C69.8673327,4.69908713 68.4867327,5.80349703 67.1064832,5.80349703 Z" id="Shape"></path>
                            <rect id="Rectangle-path" x="0.0185762376" y="32.3072317" width="5.52169901" height="5.52169901"></rect>
                            <rect id="Rectangle-path" x="16.3071327" y="32.3072317" width="5.52169901" height="5.52169901"></rect>
                            <rect id="Rectangle-path" x="32.5960396" y="32.3072317" width="5.52169901" height="5.52169901"></rect>
                        </g>
                        <path d="M83.7588535,51.010699 L87.8999525,41.8999307 L81.5500337,38.3108614 C82.1020634,35.826202 82.1020634,33.3415426 81.8262238,31.1327228 L88.4523327,27.8198436 L85.1394535,18.4328851 L77.9613149,20.0893248 C76.5810653,18.156695 74.9242752,16.2240653 72.991996,14.8438158 L75.2008158,7.94186733 L66.0893465,3.80076832 L62.5002772,9.87449703 C60.0156178,9.32246733 57.5309584,9.32246733 55.3221386,9.59830693 L52.0092594,2.97219802 L42.622301,6.28507723 L44.2787406,13.4632158 C42.3461109,14.8434653 40.4134812,16.5002554 39.0332317,18.4325347 L31.8550931,16.2237149 L27.7139941,25.3351842 L34.0639129,29.2004436 C33.5118832,31.685103 33.5118832,34.1697624 33.7877228,36.3785822 L27.1616139,39.6914614 L30.4744931,49.0784198 L37.6526317,47.4219802 C39.0328812,49.3546099 40.6896713,51.2872396 42.6219505,52.6674891 L40.4131307,59.5694376 L49.523899,63.7105366 L53.3891584,57.3606178 C55.8738178,57.9126475 58.3584772,57.9126475 60.567297,57.6368079 L63.8801762,64.2629168 L73.2671347,60.9500376 L71.610695,53.771899 C73.5433248,52.3916495 75.4759545,50.7348594 76.856204,48.8025802 L83.7588535,51.010699 Z" id="Shape" fill="#FFFFFF"></path>
                        <path d="M63.8808772,67.0234158 C62.7764673,67.0234158 61.9482475,66.4713861 61.3962178,65.6431663 L58.9115584,60.6738475 C57.5313089,60.6738475 56.1507089,60.6738475 54.7704594,60.3976574 L51.7334198,65.0911366 C50.9052,66.1955465 49.5246,66.7475762 48.1443505,66.1955465 L39.0335822,62.0544475 C37.6533327,61.5024178 37.1009525,60.1218178 37.6533327,58.7415683 L39.3097723,53.4960594 C38.2053624,52.6678396 37.3771426,51.5634297 36.5489228,50.4590198 L31.0272238,51.8392693 C29.6469743,52.1154594 28.2663743,51.2872396 27.7143446,50.1828297 L24.4014653,40.7958713 C23.8494356,39.4156218 24.4014653,38.0350218 25.7817149,37.4829921 L30.7510337,34.9983327 C30.7510337,33.6180832 30.7510337,32.2374832 31.0272238,30.8572337 L26.3337446,27.5443545 C25.2293347,26.7161347 24.677305,25.3355347 25.2293347,23.9552851 L29.3704337,14.8445168 C29.9224634,13.4642673 31.3030634,12.9118871 32.6833129,13.4642673 L37.9288218,15.1207069 C38.7570416,14.016297 39.8614515,13.1880772 40.9658614,12.3598574 L39.5856119,6.83815842 C39.3094218,5.45790891 40.1376416,4.07730891 41.2420515,3.52527921 L50.6290099,0.2124 C52.0092594,-0.339629703 53.3898594,0.2124 53.9418891,1.5926495 L56.7027386,6.56196832 C58.0829881,6.56196832 59.4635881,6.56196832 60.8438376,6.83815842 L63.8808772,2.14467921 C64.709097,1.04026931 66.089697,0.488239604 67.4699465,1.04026931 L76.5807149,5.18136832 C77.9609644,5.73339802 78.5133446,7.11399802 77.9609644,8.49424752 L76.0283347,13.7397564 C77.1327446,14.5679762 77.9609644,15.6723861 78.7891842,16.776796 L84.3108832,15.3965465 C85.6911327,15.1203564 87.0717327,15.9485762 87.6237624,17.0529861 L90.9366416,26.4399446 C91.4886713,27.8201941 90.9366416,29.2007941 89.5563921,29.7528238 L84.5870733,32.2374832 C84.5870733,33.6177327 84.5870733,34.9983327 84.3108832,36.3785822 L89.0043624,39.4156218 C90.1087723,40.2438416 90.660802,41.6244416 90.1087723,43.0046911 L85.9676733,52.1154594 C85.4156436,53.4957089 84.0350436,54.0480891 82.6547941,53.4957089 L77.4092851,51.8392693 C76.5810653,52.9436792 75.4766554,53.771899 74.3722455,54.6001188 L75.752495,60.1218178 C76.0286851,61.5020673 75.2004653,62.8826673 74.0960554,63.434697 L64.709097,66.7475762 C64.4329069,67.0234158 64.1567168,67.0234158 63.8808772,67.0234158 Z M60.2918079,54.8759584 C61.3962178,54.8759584 62.2244376,55.4279881 62.7764673,56.2562079 L64.9852871,60.673497 L69.6787663,59.0170574 L68.5743564,54.3235782 C68.2981663,53.2191683 68.8505465,52.1147584 69.6787663,51.2865386 C71.3352059,50.1821287 72.9916455,48.5256891 74.3722455,46.8692495 C75.2004653,46.0410297 76.3048752,45.489 77.4092851,46.0410297 L82.1027644,47.4212792 L84.3115842,43.0039901 L80.1704851,40.5193307 C79.0660752,39.967301 78.7902356,38.8628911 78.7902356,37.7584812 C79.0664257,35.5496614 79.3422653,33.6173822 79.0664257,31.4085624 C79.0664257,30.3041525 79.6184554,29.1997426 80.4466752,28.6477129 L84.8639644,26.4388931 L83.2075248,21.7454139 L78.5140455,22.8498238 C77.4096356,23.1260139 76.3052257,22.5736337 75.4770059,21.7454139 C74.372596,20.0889743 72.7161564,18.4325347 71.0597168,17.0519347 C70.231497,16.2237149 69.6794673,15.119305 70.231497,14.014895 L71.6117465,9.32141584 L67.1944574,7.11259604 L64.709798,11.253695 C64.1577683,12.358105 63.0533584,12.6339446 61.9489485,12.6339446 C59.7401287,12.3577545 57.8078495,12.0819149 55.5990297,12.3577545 C54.4946198,12.3577545 53.3902099,11.8057248 52.8381802,10.977505 L50.6293604,6.56021584 L45.6600416,8.21665545 L46.7644515,12.9101347 C47.0406416,14.0145446 46.4882614,15.1189545 45.6600416,15.9471743 C44.003602,17.0515842 42.3471624,18.7080238 40.9665624,20.3644634 C40.1383426,21.1926832 39.0339327,21.7447129 37.9295228,21.1926832 L33.2356931,19.8134851 L31.0268733,24.2307743 L35.1679723,26.7154337 C36.2723822,27.2674634 36.5482218,28.3718733 36.5482218,29.4762832 C36.2720317,31.685103 35.9961921,33.6173822 36.2720317,35.826202 C36.2720317,36.9306119 35.720002,38.0350218 34.8917822,38.5870515 L30.4744931,40.7958713 L32.1309327,45.4893505 L36.8244119,44.3849406 C37.9288218,44.1087505 39.0332317,44.6611307 39.8614515,45.4893505 C40.9658614,47.1457901 42.622301,48.8022297 44.2787406,50.1828297 C45.1069604,51.0110495 45.6589901,52.1154594 45.1069604,53.2198693 L43.7267109,57.9133485 L48.144,60.1221683 L50.6286594,55.9810693 C51.1806891,54.8766594 52.285099,54.6008198 53.3895089,54.6008198 C55.5983287,54.8770099 57.5306079,55.1528495 59.7394277,54.8770099 C60.2918079,54.8759584 60.2918079,54.8759584 60.2918079,54.8759584 Z" id="Shape" fill="#183651"></path>
                        <circle id="Oval" fill="#F06151" cx="57.8071485" cy="33.6173822" r="17.3933168"></circle>
                        <circle id="Oval" fill="#FFFFFF" cx="57.8071485" cy="33.6173822" r="6.90194851"></circle>
                        <path d="M57.8071485,43.2805307 C56.426899,43.2805307 55.046299,43.0043406 53.6660495,42.4523109 C51.4572297,41.347901 49.5249505,39.4152713 48.6967307,36.9306119 C47.8685109,34.4459525 47.8685109,31.9612931 48.9729208,29.4762832 C50.6293604,26.163404 53.9422396,23.9545842 57.807499,23.9545842 C59.1877485,23.9545842 60.5683485,24.2307743 61.948598,24.782804 C66.6420772,26.9916238 68.8505465,32.7891624 66.6420772,37.4826416 C64.9852871,41.0717109 61.3962178,43.2805307 57.8071485,43.2805307 Z M57.8071485,29.4762832 C56.1507089,29.4762832 54.7701089,30.304503 53.9418891,31.9609426 C53.3898594,33.0653525 53.3898594,34.1697624 53.9418891,34.9979822 C54.4939188,35.826202 55.046299,36.9306119 56.1507089,37.206802 C58.0833386,38.0350218 60.567998,37.206802 61.6724079,35.2741723 C62.5006277,33.3415426 61.6724079,30.8568832 59.7397782,29.7524733 C58.9112079,29.7524733 58.3591782,29.4762832 57.8071485,29.4762832 Z" id="Shape" fill="#183651"></path>
                        <path d="M168.515917,47.6978198 L168.515917,36.9306119 L160.509558,36.1023921 C159.957529,33.6177327 158.853119,31.1330733 157.472519,28.9242535 L162.441838,22.5743347 L154.987509,15.1200059 L148.637941,20.0896752 C146.429121,18.7094257 143.944461,17.8808554 141.459802,17.0526356 L140.631582,9.04627723 L129.864374,9.04627723 L129.036154,17.0526356 C126.551495,17.6046653 124.066836,18.7090752 121.858016,20.0896752 L115.508097,15.1203564 L108.054119,22.5743347 L113.023438,28.9242535 C111.643188,31.1330733 110.814618,33.6177327 109.986398,36.1023921 L101.98004,36.9306119 L101.98004,47.6978198 L109.986398,48.5260396 C110.538428,51.010699 111.642838,53.4953584 113.023438,55.7041782 L108.054119,62.054097 L115.508448,69.5084257 L121.858366,64.5391069 C124.067186,65.9193564 126.551846,66.7479267 129.036505,67.5761465 L129.864725,75.582505 L140.631933,75.582505 L141.460152,67.5761465 C143.944812,67.0241168 146.429471,65.9197069 148.638291,64.5391069 L154.98821,69.5084257 L162.442539,62.054097 L157.47322,55.7041782 C158.853469,53.4953584 159.68204,51.010699 160.510259,48.5260396 L168.515917,47.6978198 Z" id="Shape" fill="#FFFFFF"></path>
                        <path d="M140.631582,78.343004 L129.864374,78.343004 C128.484125,78.343004 127.379715,77.2385941 127.103525,75.8583446 L126.275305,69.7846158 C124.895055,69.2325861 123.238265,68.6802059 121.858016,67.8519861 L117.164537,71.7172455 C116.060127,72.5454653 114.403687,72.5454653 113.575467,71.4410554 L106.121139,63.9867267 C105.016729,62.8823168 105.016729,61.5020673 105.844949,60.3976574 L109.710208,55.7041782 C108.881988,54.3239287 108.329958,52.9433287 107.777578,51.2868891 L101.70385,50.4586693 C100.3236,50.1824792 99.2191901,49.0784198 99.2191901,47.6978198 L99.2191901,36.9306119 C99.2191901,35.5503624 100.3236,34.4459525 101.70385,34.1697624 L107.777578,33.3415426 C108.329608,31.9612931 108.881988,30.304503 109.710208,28.9242535 L105.844949,24.2307743 C105.016729,23.1263644 105.016729,21.4699248 106.121139,20.641705 L113.575467,13.1873762 C114.679877,12.0829663 116.060127,12.0829663 117.164537,12.9111861 L121.858016,16.7764455 C123.238265,15.9482257 124.618865,15.396196 126.275305,14.8438158 L127.103525,8.77008713 C127.379715,7.38983762 128.483774,6.28542772 129.864374,6.28542772 L140.631582,6.28542772 C142.011832,6.28542772 143.116242,7.38983762 143.392432,8.77008713 L144.220651,14.8438158 C145.600901,15.3958455 147.257691,15.9482257 148.637941,16.7764455 L153.33142,12.9111861 C154.43583,12.0829663 156.092269,12.0829663 156.920489,13.1873762 L164.374818,20.641705 C165.479228,21.7461149 165.479228,23.1263644 164.651008,24.2307743 L160.785749,29.2000931 C161.613968,30.5803426 162.165998,31.9609426 162.718378,33.6173822 L168.792107,34.445602 C170.172356,34.7217921 171.276766,35.8258515 171.276766,37.2064515 L171.276766,47.9736594 C171.276766,49.3539089 170.172356,50.4583188 168.792107,50.7345089 L162.718378,51.2865386 C162.166349,52.6667881 161.613968,54.3235782 160.785749,55.7038277 L164.651008,60.3973069 C165.479228,61.5017168 165.479228,63.1581564 164.374818,63.9863762 L156.920489,71.440705 C155.816079,72.5451149 154.43583,72.5451149 153.33142,71.716895 L148.362101,67.8516356 C146.981851,68.6798554 145.601251,69.2318851 143.944812,69.7842653 L143.116592,75.8579941 C143.116242,77.2385941 142.012182,78.343004 140.631582,78.343004 Z M132.349034,72.821305 L138.146923,72.821305 L138.698952,67.2996059 C138.975143,66.195196 139.527172,65.0907861 140.907772,64.8149465 C143.116592,64.2629168 145.325061,63.434697 147.257691,62.054097 C148.362101,61.5020673 149.466511,61.5020673 150.294731,62.3302871 L154.71202,65.6431663 L158.853119,61.5020673 L155.54024,57.0847782 C154.71202,56.2565584 154.71202,54.8759584 155.26405,54.0477386 C156.368459,52.1151089 157.472869,49.9066396 158.024899,47.6978198 C158.301089,46.5934099 159.129309,45.7651901 160.509558,45.489 L166.031257,44.9369703 L166.031257,39.1390812 L160.509558,38.5870515 C159.405149,38.3108614 158.300739,37.7588317 158.024899,36.3782317 C157.472869,34.1694119 156.64465,31.9609426 155.26405,30.0283129 C154.71202,28.923903 154.71202,27.8194931 155.54024,26.9912733 L158.853119,22.8501743 L154.71202,18.7090752 L150.294731,22.0219545 C149.466511,22.8501743 148.085911,22.8501743 147.257691,22.2981446 C145.325061,21.1937347 143.116592,20.0893248 140.907772,19.537295 C139.803362,19.261105 138.975143,18.4328851 138.698952,17.0526356 L138.146923,11.5309366 L132.349034,11.5309366 L131.797004,17.0526356 C131.520814,18.1570455 130.968784,19.2614554 129.588184,19.537295 C127.379364,20.0893248 125.170895,20.9175446 123.238265,22.2981446 C122.133855,22.8501743 121.029446,22.8501743 120.201226,22.0219545 L115.783937,18.7090752 L111.643188,22.8501743 L114.956067,27.2674634 C115.784287,28.0956832 115.784287,29.4762832 115.232257,30.304503 C114.127848,32.2371327 113.023438,34.445602 112.471408,36.6544218 C112.195218,37.7588317 111.366998,38.5870515 109.986749,38.8632416 L104.46505,39.4152713 L104.46505,45.2131604 L109.986749,45.7651901 C111.091158,45.7651901 112.195568,46.5934099 112.471408,47.9740099 C113.023438,50.1828297 113.851657,52.391299 115.232257,54.3239287 C115.784287,55.4283386 115.784287,56.5327485 114.956067,57.3609683 L111.643188,61.7782574 L115.784287,65.9193564 L120.201576,62.6064772 C121.029796,61.7782574 122.410396,61.7782574 123.238616,62.3302871 C125.171246,63.434697 127.379715,64.5391069 129.588535,65.0911366 C130.692945,65.3673267 131.521164,66.1955465 131.797354,67.575796 L132.349034,72.821305 Z" id="Shape" fill="#183651"></path>
                        <circle id="Oval" fill="#2CA0DA" cx="135.109883" cy="42.4523109" r="18.4973762"></circle>
                        <circle id="Oval" fill="#FFFFFF" cx="135.109883" cy="42.4523109" r="7.45432871"></circle>
                        <path d="M135.109883,52.391299 C129.588184,52.391299 124.894705,47.9740099 124.894705,42.1761208 C124.894705,36.6544218 129.311994,31.9609426 135.109883,31.9609426 C140.631582,31.9609426 145.325061,36.3782317 145.325061,42.1761208 C145.325061,47.9736594 140.907772,52.391299 135.109883,52.391299 Z M135.109883,37.7588317 C132.625224,37.7588317 130.416404,39.9676515 130.416404,42.4523109 C130.416404,44.9369703 132.625224,47.1457901 135.109883,47.1457901 C137.594543,47.1457901 139.803362,44.9369703 139.803362,42.4523109 C139.803362,39.6914614 137.870733,37.7588317 135.109883,37.7588317 Z" id="Shape" fill="#183651"></path>
                    </g>
                </g>
            </g>
        </g>
    </g>
</svg>