<?xml version="1.0" encoding="UTF-8"?>
<svg width="167px" height="171px" viewBox="0 0 167 171" version="1.1" xmlns="http://www.w3.org/2000/svg" xmlns:xlink="http://www.w3.org/1999/xlink">
    <!-- Generator: Sketch 51.2 (57519) - http://www.bohemiancoding.com/sketch -->
    <title>cart (1)</title>
    <desc>Created with Sketch.</desc>
    <defs></defs>
    <g id="Page-1" stroke="none" stroke-width="1" fill="none" fill-rule="evenodd">
        <g id="Large-Device-Desktops-Copy" transform="translate(-974.000000, -1574.000000)" fill-rule="nonzero">
            <g id="Group-25" transform="translate(148.000000, 271.000000)">
                <g id="Group-12" transform="translate(142.000000, 1299.000000)">
                    <g id="cart-(1)" transform="translate(684.000000, 10.000000)">
                        <g id="Group" transform="translate(22.910641, 45.973305)">
                            <rect id="Rectangle-path" fill="#FFFFFF" x="2.86383018" y="3.41701458" width="137.463849" height="69.0984628"></rect>
                            <path d="M143.191509,75.39458 L0,75.39458 L0,0.537911964 L143.191509,0.537911964 L143.191509,75.39458 Z M5.72766036,69.6363748 L137.463849,69.6363748 L137.463849,6.2961172 L5.72766036,6.2961172 L5.72766036,69.6363748 Z" id="Shape" fill="#183651"></path>
                        </g>
                        <path d="M25.7744716,26.357499 L11.4553207,26.357499 C9.87448647,26.357499 8.59149055,25.0705401 8.59149055,23.4783963 C8.59149055,21.8862526 9.87448647,20.5992937 11.4553207,20.5992937 L25.7744716,20.5992937 C27.3553059,20.5992937 28.6383018,21.8862526 28.6383018,23.4783963 C28.6383018,25.0705401 27.3553059,26.357499 25.7744716,26.357499 Z" id="Shape" fill="#183651"></path>
                        <path d="M25.7744716,52.2694225 C24.1936374,52.2694225 22.9106415,50.9824636 22.9106415,49.3903199 L22.9106415,23.4783963 C22.9106415,21.8862526 24.1936374,20.5992937 25.7744716,20.5992937 C27.3553059,20.5992937 28.6383018,21.8862526 28.6383018,23.4783963 L28.6383018,49.3903199 C28.6383018,50.9824636 27.3553059,52.2694225 25.7744716,52.2694225 Z" id="Shape" fill="#183651"></path>
                        <path d="M25.7744716,141.521604 C24.1936374,141.521604 22.9106415,140.234645 22.9106415,138.642501 L22.9106415,118.488783 C22.9106415,116.896639 24.1936374,115.60968 25.7744716,115.60968 C27.3553059,115.60968 28.6383018,116.896639 28.6383018,118.488783 L28.6383018,138.642501 C28.6383018,140.234645 27.3553059,141.521604 25.7744716,141.521604 Z" id="Shape" fill="#183651"></path>
                        <ellipse id="Oval" fill="#183651" cx="54.4127735" cy="153.038014" rx="11.4553207" ry="11.5164105"></ellipse>
                        <ellipse id="Oval" fill="#183651" cx="123.144698" cy="153.038014" rx="11.4553207" ry="11.5164105"></ellipse>
                        <path d="M148.919169,141.521604 L25.7744716,141.521604 C24.1936374,141.521604 22.9106415,140.234645 22.9106415,138.642501 C22.9106415,137.050357 24.1936374,135.763398 25.7744716,135.763398 L148.919169,135.763398 C150.500004,135.763398 151.783,137.050357 151.783,138.642501 C151.783,140.234645 150.500004,141.521604 148.919169,141.521604 Z" id="Shape" fill="#183651"></path>
                        <path d="M163.23832,75.3022435 L25.7744716,75.3022435 C24.1936374,75.3022435 22.9106415,74.0152846 22.9106415,72.4231408 C22.9106415,70.8309971 24.1936374,69.5440382 25.7744716,69.5440382 L163.23832,69.5440382 C164.819155,69.5440382 166.102151,70.8309971 166.102151,72.4231408 C166.102151,74.0152846 164.819155,75.3022435 163.23832,75.3022435 Z" id="Shape" fill="#183651"></path>
                        <path d="M163.23832,98.3350644 L25.7744716,98.3350644 C24.1936374,98.3350644 22.9106415,97.0481055 22.9106415,95.4559618 C22.9106415,93.863818 24.1936374,92.5768592 25.7744716,92.5768592 L163.23832,92.5768592 C164.819155,92.5768592 166.102151,93.863818 166.102151,95.4559618 C166.102151,97.0481055 164.819155,98.3350644 163.23832,98.3350644 Z" id="Shape" fill="#183651"></path>
                        <path d="M48.6851131,121.367885 C47.1042788,121.367885 45.8212829,120.080926 45.8212829,118.488783 L45.8212829,49.3903199 C45.8212829,47.7981762 47.1042788,46.5112173 48.6851131,46.5112173 C50.2659473,46.5112173 51.5489433,47.7981762 51.5489433,49.3903199 L51.5489433,118.488783 C51.5489433,120.080926 50.2659473,121.367885 48.6851131,121.367885 Z" id="Shape" fill="#183651"></path>
                        <path d="M71.5957545,121.367885 C70.0149203,121.367885 68.7319244,120.080926 68.7319244,118.488783 L68.7319244,49.3903199 C68.7319244,47.7981762 70.0149203,46.5112173 71.5957545,46.5112173 C73.1765888,46.5112173 74.4595847,47.7981762 74.4595847,49.3903199 L74.4595847,118.488783 C74.4595847,120.080926 73.1765888,121.367885 71.5957545,121.367885 Z" id="Shape" fill="#183651"></path>
                        <path d="M94.506396,121.367885 C92.9255617,121.367885 91.6425658,120.080926 91.6425658,118.488783 L91.6425658,49.3903199 C91.6425658,47.7981762 92.9255617,46.5112173 94.506396,46.5112173 C96.0872303,46.5112173 97.3702262,47.7981762 97.3702262,49.3903199 L97.3702262,118.488783 C97.3702262,120.080926 96.0872303,121.367885 94.506396,121.367885 Z" id="Shape" fill="#183651"></path>
                        <path d="M117.417037,121.367885 C115.836203,121.367885 114.553207,120.080926 114.553207,118.488783 L114.553207,49.3903199 C114.553207,47.7981762 115.836203,46.5112173 117.417037,46.5112173 C118.997872,46.5112173 120.280868,47.7981762 120.280868,49.3903199 L120.280868,118.488783 C120.280868,120.080926 118.997872,121.367885 117.417037,121.367885 Z" id="Shape" fill="#183651"></path>
                        <path d="M140.327679,121.367885 C138.746845,121.367885 137.463849,120.080926 137.463849,118.488783 L137.463849,49.3903199 C137.463849,47.7981762 138.746845,46.5112173 140.327679,46.5112173 C141.908513,46.5112173 143.191509,47.7981762 143.191509,49.3903199 L143.191509,118.488783 C143.191509,120.080926 141.908513,121.367885 140.327679,121.367885 Z" id="Shape" fill="#183651"></path>
                        <ellipse id="Oval" fill="#F06151" cx="8.59149055" cy="23.4783963" rx="8.59149055" ry="8.63730785"></ellipse>
                        <path d="M36.9436226,20.3283964 L83.337245,20.3283964 L83.337245,48.7595779 L36.9436226,48.7595779 L36.9436226,20.3283964 Z" id="Rectangle-path" stroke="#183651" stroke-width="6.29999983" fill="#4FBF9F"></path>
                        <rect id="Rectangle-path" stroke="#183651" stroke-width="6.29999983" fill="#2CA0DA" x="77.0372452" y="-2.70442451" width="52.1212827" height="52.3656417"></rect>
                        <rect id="Rectangle-path" stroke="#183651" stroke-width="6.29999983" fill="#F06151" x="122.858528" y="5.93288334" width="34.9383016" height="43.7283339"></rect>
                    </g>
                </g>
            </g>
        </g>
    </g>
</svg>