<?xml version="1.0" encoding="UTF-8"?>
<svg width="279px" height="260px" viewBox="0 0 279 260" version="1.1" xmlns="http://www.w3.org/2000/svg" xmlns:xlink="http://www.w3.org/1999/xlink">
    <!-- Generator: Sketch 54.1 (76490) - https://sketchapp.com -->
    <title>Group 21</title>
    <desc>Created with Sketch.</desc>
    <defs>
        <circle id="path-1" cx="130" cy="130" r="130"></circle>
    </defs>
    <g id="desktop" stroke="none" stroke-width="1" fill="none" fill-rule="evenodd">
        <g id="devops" transform="translate(-140.000000, -1611.000000)">
            <g id="Group-29" transform="translate(140.000000, 1611.000000)">
                <g id="Group-21">
                    <mask id="mask-2" fill="white">
                        <use xlink:href="#path-1"></use>
                    </mask>
                    <use id="Oval" fill-opacity="0.102901005" fill="#4AA7CD" xlink:href="#path-1"></use>
                    <g id="Group-23" mask="url(#mask-2)">
                        <g transform="translate(-1.000000, 10.000000)">
                            <g id="boy-(1)" transform="translate(0.000000, 96.000000)">
                                <g id="Group" transform="translate(0.000000, 14.351759)" fill-rule="nonzero">
                                    <rect id="Rectangle" fill="#FDCC9B" x="34.7697917" y="74.2888894" width="17.7594792" height="19.6870251"></rect>
                                    <path d="M34.7703958,76.6072965 C34.7703958,76.6072965 42.2409167,81.3158693 52.529875,80.2251357 L52.529875,74.2882915 L34.7703958,74.2882915 L34.7703958,76.6072965 Z" id="Path" fill="#FCBC85"></path>
                                    <ellipse id="Oval" fill="#FCBC85" cx="9.16158333" cy="43.7615025" rx="8.6655625" ry="9.78550754"></ellipse>
                                    <ellipse id="Oval" fill="#FCBC85" cx="78.1380833" cy="43.7615025" rx="8.6655625" ry="9.78550754"></ellipse>
                                    <path d="M78.1030417,25.0707286 C78.1030417,10.6573769 67.4473542,0.110030151 43.6498333,0.110030151 C19.8523125,0.110030151 9.196625,10.6567789 9.196625,25.0707286 C9.196625,39.4846784 6.71047917,77.4528543 43.6498333,77.4528543 C80.5891875,77.4528543 78.1030417,39.4846784 78.1030417,25.0707286 Z" id="Path" fill="#FDCC9B"></path>
                                    <g transform="translate(19.937500, 26.311558)">
                                        <g transform="translate(3.020833, 10.763819)" id="Oval">
                                            <ellipse fill="#3B2519" cx="3.91016667" cy="4.34260302" rx="3.72952083" ry="4.04301005"></ellipse>
                                            <ellipse fill="#FFFFFF" cx="2.28435417" cy="2.55760302" rx="1.11529167" ry="1.10388945"></ellipse>
                                        </g>
                                        <path d="M0.964854167,5.0871005 C2.72841667,5.96016583 5.56014583,2.12107035 12.04225,5.46084422 C13.224,6.06959799 13.9290625,0.253547739 6.98114583,0.253547739 C0.964854167,0.253547739 -0.100895833,4.56027136 0.964854167,5.0871005 Z" id="Path" fill="#51362A"></path>
                                        <g transform="translate(36.854167, 10.763819)" id="Oval">
                                            <ellipse fill="#3B2519" cx="4.099875" cy="4.34260302" rx="3.72952083" ry="4.04301005"></ellipse>
                                            <ellipse fill="#FFFFFF" cx="2.4740625" cy="2.55760302" rx="1.11529167" ry="1.10388945"></ellipse>
                                        </g>
                                        <path d="M46.4598125,5.0871005 C44.69625,5.96016583 41.8645208,2.12107035 35.3824167,5.46084422 C34.2006667,6.06959799 33.4956042,0.253547739 40.444125,0.253547739 C46.4598125,0.253547739 47.5249583,4.56027136 46.4598125,5.0871005 Z" id="Path" fill="#51362A"></path>
                                    </g>
                                    <path d="M43.6498333,55.6387789 C39.9644167,55.6387789 37.7447083,52.9143367 37.7447083,54.2323065 C37.7447083,55.5508744 38.8104583,58.0558543 43.6498333,58.0558543 C48.4892083,58.0558543 49.5549583,55.5508744 49.5549583,54.2323065 C49.5549583,52.9137387 47.3346458,55.6387789 43.6498333,55.6387789 Z" id="Path" fill="#FCBC85"></path>
                                    <path d="M43.6498333,67.7600352 C42.3750417,67.7600352 41.6071458,66.817603 41.6071458,67.2738693 C41.6071458,67.7301357 41.9756875,68.5960251 43.6498333,68.5960251 C45.3239792,68.5960251 45.6919167,67.7301357 45.6919167,67.2738693 C45.6919167,66.817603 44.9240208,67.7600352 43.6498333,67.7600352 Z" id="Path" fill="#FCBC85"></path>
                                    <path d="M43.6498333,64.4011256 C37.80875,64.4011256 34.2894792,62.0468392 34.2894792,62.6436332 C34.2894792,63.2404271 35.9787292,65.5881357 43.6498333,65.5881357 C51.3209375,65.5881357 53.0101875,63.2404271 53.0101875,62.6436332 C53.0095833,62.0468392 49.4909167,64.4011256 43.6498333,64.4011256 Z" id="Path" fill="#F7945E"></path>
                                </g>
                                <path d="M43.6498333,96.5502613 L43.6498333,118.698613 L0.496020833,118.698613 C0.496020833,109.733548 23.2265833,96.5502613 43.6498333,96.5502613 Z" id="Path" fill="#F7941E" fill-rule="nonzero"></path>
                                <path d="M43.6498333,96.5502613 L43.6498333,118.698613 L86.8036458,118.698613 C86.8036458,109.733548 64.0730833,96.5502613 43.6498333,96.5502613 Z" id="Path" fill="#F7941E" fill-rule="nonzero"></path>
                                <path d="M43.6498333,96.5502613 C39.305875,96.5502613 34.858,97.1512412 30.5460625,98.176794 C30.5750625,98.2144673 35.3286458,104.284663 43.6498333,104.284663 C51.355375,104.284663 56.4781042,99.0863367 57.220625,98.2868241 C52.7630833,97.1919045 48.150875,96.5502613 43.6498333,96.5502613 Z" id="Path" fill="#F36C21" fill-rule="nonzero"></path>
                                <path d="M34.7697917,97.3168844 C34.7697917,97.3168844 37.3671042,100.505367 43.6492292,100.505367 C49.9313542,100.505367 52.5292708,97.3168844 52.5292708,97.3168844 C52.5292708,97.3168844 43.3169375,93.9974422 34.7697917,97.3168844 Z" id="Path" fill="#FDCC9B" fill-rule="nonzero"></path>
                                <path d="M71.9755833,11.3863266 C71.9755833,11.3863266 59.189,-4.69721106 32.6129167,1.36700503 C6.0374375,7.43062312 4.04610417,23.2510452 4.84541667,38.6427085 C5.64472917,54.0349698 7.775625,63.0646181 10.2962083,61.9487688 C12.8167917,60.8323216 11.5051458,50.6724724 11.7715833,48.3277538 C12.0380208,45.9830352 14.4353542,35.3794774 30.598625,36.9617588 C46.7612917,38.5440402 60.381625,32.7429397 60.381625,32.7429397 C60.381625,32.7429397 65.8644375,39.6024824 69.4725208,40.9168643 C76.6826458,43.5426382 74.3179375,61.0511859 77.1430208,61.0511859 C79.9681042,61.0511859 93.8198333,20.6145075 71.9755833,11.3863266 Z" id="Path" fill="#51362A" fill-rule="nonzero"></path>
                            </g>
                            <g id="Group-18" transform="translate(90.000000, 0.000000)">
                                <g id="file-(2)" transform="translate(18.863636, 0.000000)" fill-rule="nonzero">
                                    <polygon id="Path" fill="#EDEADA" points="63.4392292 19.5517241 43.9194664 0 0.697134387 0 0.697134387 81 63.4392292 81"></polygon>
                                    <g id="Group" transform="translate(12.548419, 18.155172)" fill="#CEC9AE">
                                        <path d="M2.09140316,13.9655172 L36.9481225,13.9655172 C37.7177589,13.9655172 38.3423913,13.3412586 38.3423913,12.5689655 C38.3423913,11.7966724 37.7177589,11.1724138 36.9481225,11.1724138 L2.09140316,11.1724138 C1.3217668,11.1724138 0.697134387,11.7966724 0.697134387,12.5689655 C0.697134387,13.3412586 1.3217668,13.9655172 2.09140316,13.9655172 Z" id="Path"></path>
                                        <path d="M2.09140316,2.79310345 L16.0340909,2.79310345 C16.8037273,2.79310345 17.4283597,2.16884483 17.4283597,1.39655172 C17.4283597,0.624258621 16.8037273,0 16.0340909,0 L2.09140316,0 C1.3217668,0 0.697134387,0.624258621 0.697134387,1.39655172 C0.697134387,2.16884483 1.3217668,2.79310345 2.09140316,2.79310345 Z" id="Path"></path>
                                        <path d="M36.9481225,22.3448276 L2.09140316,22.3448276 C1.3217668,22.3448276 0.697134387,22.9690862 0.697134387,23.7413793 C0.697134387,24.5136724 1.3217668,25.137931 2.09140316,25.137931 L36.9481225,25.137931 C37.7177589,25.137931 38.3423913,24.5136724 38.3423913,23.7413793 C38.3423913,22.9690862 37.7177589,22.3448276 36.9481225,22.3448276 Z" id="Path"></path>
                                        <path d="M36.9481225,33.5172414 L2.09140316,33.5172414 C1.3217668,33.5172414 0.697134387,34.1415 0.697134387,34.9137931 C0.697134387,35.6860862 1.3217668,36.3103448 2.09140316,36.3103448 L36.9481225,36.3103448 C37.7177589,36.3103448 38.3423913,35.6860862 38.3423913,34.9137931 C38.3423913,34.1415 37.7177589,33.5172414 36.9481225,33.5172414 Z" id="Path"></path>
                                        <path d="M36.9481225,44.6896552 L2.09140316,44.6896552 C1.3217668,44.6896552 0.697134387,45.3139138 0.697134387,46.0862069 C0.697134387,46.8585 1.3217668,47.4827586 2.09140316,47.4827586 L36.9481225,47.4827586 C37.7177589,47.4827586 38.3423913,46.8585 38.3423913,46.0862069 C38.3423913,45.3139138 37.7177589,44.6896552 36.9481225,44.6896552 Z" id="Path"></path>
                                    </g>
                                    <polygon id="Path" fill="#CEC9AE" points="43.9194664 0 43.9194664 19.5517241 63.4392292 19.5517241"></polygon>
                                </g>
                                <g id="server-(2)" transform="translate(0.000000, 29.109375)" fill-rule="nonzero">
                                    <path d="M48.3531808,17.445986 L3.20742529,17.445986 C1.43658516,17.445986 0,16.0002058 0,14.2180312 L0,3.67528772 C0,1.89311315 1.43658516,0.447332974 3.20742529,0.447332974 L48.3522918,0.447332974 C50.1240209,0.447332974 51.5606061,1.89311315 51.5606061,3.67528772 L51.5606061,14.2171366 C51.5606061,16.0002058 50.1240209,17.445986 48.3531808,17.445986 Z" id="Path" fill="#0591C7"></path>
                                    <path d="M48.3531808,34.444639 L3.20742529,34.444639 C1.43658516,34.444639 0,32.9988588 0,31.2166843 L0,20.6739407 C0,18.8917662 1.43658516,17.445986 3.20742529,17.445986 L48.3522918,17.445986 C50.1240209,17.445986 51.5597171,18.8917662 51.5597171,20.6739407 L51.5597171,31.2157896 C51.5606061,32.9988588 50.1240209,34.444639 48.3531808,34.444639 Z" id="Path" fill="#06AAE9"></path>
                                    <path d="M48.3531808,51.443292 L3.20742529,51.443292 C1.43658516,51.443292 0,49.9975119 0,48.2153373 L0,37.6725937 C0,35.8904192 1.43658516,34.444639 3.20742529,34.444639 L48.3522918,34.444639 C50.1240209,34.444639 51.5597171,35.8904192 51.5597171,37.6725937 L51.5597171,48.2144426 C51.5606061,49.9975119 50.1240209,51.443292 48.3531808,51.443292 Z" id="Path" fill="#0591C7"></path>
                                    <ellipse id="Oval" fill="#FFFFFF" cx="8.44527168" cy="8.94665948" rx="3.11141588" ry="3.13133082"></ellipse>
                                    <ellipse id="Oval" fill="#29485A" cx="43.5598224" cy="7.60466056" rx="1" ry="1"></ellipse>
                                    <ellipse id="Oval" fill="#29485A" cx="40.0039185" cy="7.60466056" rx="1" ry="1"></ellipse>
                                    <ellipse id="Oval" fill="#29485A" cx="45.3377743" cy="10.2886584" rx="1" ry="1"></ellipse>
                                    <ellipse id="Oval" fill="#29485A" cx="41.7818704" cy="10.2886584" rx="1" ry="1"></ellipse>
                                    <ellipse id="Oval" fill="#29485A" cx="36.4480146" cy="7.60466056" rx="1" ry="1"></ellipse>
                                    <ellipse id="Oval" fill="#29485A" cx="38.2259666" cy="10.2886584" rx="1" ry="1"></ellipse>
                                    <ellipse id="Oval" fill="#29485A" cx="32.8921108" cy="7.60466056" rx="1" ry="1"></ellipse>
                                    <ellipse id="Oval" fill="#29485A" cx="34.6700627" cy="10.2886584" rx="1" ry="1"></ellipse>
                                    <ellipse id="Oval" fill="#29485A" cx="29.3362069" cy="7.60466056" rx="1" ry="1"></ellipse>
                                    <ellipse id="Oval" fill="#29485A" cx="31.1141588" cy="10.2886584" rx="1" ry="1"></ellipse>
                                    <ellipse id="Oval" fill="#FFFFFF" cx="8.44527168" cy="25.9453125" rx="3.11141588" ry="3.13133082"></ellipse>
                                    <ellipse id="Oval" fill="#29485A" cx="43.5598224" cy="24.6033136" rx="1" ry="1"></ellipse>
                                    <ellipse id="Oval" fill="#29485A" cx="40.0039185" cy="24.6033136" rx="1" ry="1"></ellipse>
                                    <ellipse id="Oval" fill="#29485A" cx="45.3377743" cy="27.2873114" rx="1" ry="1"></ellipse>
                                    <ellipse id="Oval" fill="#29485A" cx="41.7818704" cy="27.2873114" rx="1" ry="1"></ellipse>
                                    <ellipse id="Oval" fill="#29485A" cx="36.4480146" cy="24.6033136" rx="1" ry="1"></ellipse>
                                    <ellipse id="Oval" fill="#29485A" cx="38.2259666" cy="27.2873114" rx="1" ry="1"></ellipse>
                                    <ellipse id="Oval" fill="#29485A" cx="32.8921108" cy="24.6033136" rx="1" ry="1"></ellipse>
                                    <ellipse id="Oval" fill="#29485A" cx="34.6700627" cy="27.2873114" rx="1" ry="1"></ellipse>
                                    <ellipse id="Oval" fill="#29485A" cx="29.3362069" cy="24.6033136" rx="1" ry="1"></ellipse>
                                    <ellipse id="Oval" fill="#29485A" cx="31.1141588" cy="27.2873114" rx="1" ry="1"></ellipse>
                                    <ellipse id="Oval" fill="#FFFFFF" cx="8.44527168" cy="42.9439655" rx="3.11141588" ry="3.13133082"></ellipse>
                                    <ellipse id="Oval" fill="#29485A" cx="43.5598224" cy="41.6019666" rx="1" ry="1"></ellipse>
                                    <ellipse id="Oval" fill="#29485A" cx="40.0039185" cy="41.6019666" rx="1" ry="1"></ellipse>
                                    <ellipse id="Oval" fill="#29485A" cx="45.3377743" cy="44.2859644" rx="1" ry="1"></ellipse>
                                    <ellipse id="Oval" fill="#29485A" cx="41.7818704" cy="44.2859644" rx="1" ry="1"></ellipse>
                                    <ellipse id="Oval" fill="#29485A" cx="36.4480146" cy="41.6019666" rx="1" ry="1"></ellipse>
                                    <ellipse id="Oval" fill="#29485A" cx="38.2259666" cy="44.2859644" rx="1" ry="1"></ellipse>
                                    <ellipse id="Oval" fill="#29485A" cx="32.8921108" cy="41.6019666" rx="1" ry="1"></ellipse>
                                    <ellipse id="Oval" fill="#29485A" cx="34.6700627" cy="44.2859644" rx="1" ry="1"></ellipse>
                                    <ellipse id="Oval" fill="#29485A" cx="29.3362069" cy="41.6019666" rx="1" ry="1"></ellipse>
                                    <ellipse id="Oval" fill="#29485A" cx="31.1141588" cy="44.2859644" rx="1" ry="1"></ellipse>
                                </g>
                            </g>
                            <g id="Group-20" transform="translate(45.000000, 51.000000)">
                                <polyline id="Path-2" stroke="#A4C9D7" stroke-width="5" points="0.257708333 42.2458629 0 6 34.7909115 6"></polyline>
                                <polygon id="Triangle" fill="#A4C9D7" transform="translate(39.143484, 6.170828) rotate(-270.000000) translate(-39.143484, -6.170828) " points="39.1434845 0.170828249 45.1434845 12.1708282 33.1434845 12.1708282"></polygon>
                            </g>
                            <g id="Group-19" transform="translate(173.000000, 56.000000)">
                                <polyline id="Path-3" stroke="#A4C9D7" stroke-width="5" points="-3.55271368e-15 0.603313578 61 1.0658141e-14 61 43.0300714"></polyline>
                                <polygon id="Triangle" fill="#A4C9D7" transform="translate(61.065359, 41.642508) rotate(-180.000000) translate(-61.065359, -41.642508) " points="61.0653595 35.6425079 67.0653595 47.6425079 55.0653595 47.6425079"></polygon>
                            </g>
                        </g>
                    </g>
                    <g id="server-(2)" transform="translate(159.000000, 110.000000)" fill-rule="nonzero">
                        <path d="M112.535172,40.3448276 L7.46482759,40.3448276 C3.34344828,40.3448276 0,37.0013793 0,32.88 L0,8.49931034 C0,4.37793103 3.34344828,1.03448276 7.46482759,1.03448276 L112.533103,1.03448276 C116.656552,1.03448276 120,4.37793103 120,8.49931034 L120,32.877931 C120,37.0013793 116.656552,40.3448276 112.535172,40.3448276 Z" id="Path" fill="#0591C7"></path>
                        <path d="M112.535172,79.6551724 L7.46482759,79.6551724 C3.34344828,79.6551724 0,76.3117241 0,72.1903448 L0,47.8096552 C0,43.6882759 3.34344828,40.3448276 7.46482759,40.3448276 L112.533103,40.3448276 C116.656552,40.3448276 119.997931,43.6882759 119.997931,47.8096552 L119.997931,72.1882759 C120,76.3117241 116.656552,79.6551724 112.535172,79.6551724 Z" id="Path" fill="#06AAE9"></path>
                        <path d="M112.535172,118.965517 L7.46482759,118.965517 C3.34344828,118.965517 0,115.622069 0,111.50069 L0,87.12 C0,82.9986207 3.34344828,79.6551724 7.46482759,79.6551724 L112.533103,79.6551724 C116.656552,79.6551724 119.997931,82.9986207 119.997931,87.12 L119.997931,111.498621 C120,115.622069 116.656552,118.965517 112.535172,118.965517 Z" id="Path" fill="#0591C7"></path>
                        <circle id="Oval" fill="#FFFFFF" cx="19.6551724" cy="20.6896552" r="7.24137931"></circle>
                        <circle id="Oval" fill="#29485A" cx="101.37931" cy="17.5862069" r="2.06896552"></circle>
                        <circle id="Oval" fill="#29485A" cx="93.1034483" cy="17.5862069" r="2.06896552"></circle>
                        <circle id="Oval" fill="#29485A" cx="105.517241" cy="23.7931034" r="2.06896552"></circle>
                        <circle id="Oval" fill="#29485A" cx="97.2413793" cy="23.7931034" r="2.06896552"></circle>
                        <circle id="Oval" fill="#29485A" cx="84.8275862" cy="17.5862069" r="2.06896552"></circle>
                        <circle id="Oval" fill="#29485A" cx="88.9655172" cy="23.7931034" r="2.06896552"></circle>
                        <circle id="Oval" fill="#29485A" cx="76.5517241" cy="17.5862069" r="2.06896552"></circle>
                        <circle id="Oval" fill="#29485A" cx="80.6896552" cy="23.7931034" r="2.06896552"></circle>
                        <circle id="Oval" fill="#29485A" cx="68.2758621" cy="17.5862069" r="2.06896552"></circle>
                        <circle id="Oval" fill="#29485A" cx="72.4137931" cy="23.7931034" r="2.06896552"></circle>
                        <circle id="Oval" fill="#FFFFFF" cx="19.6551724" cy="60" r="7.24137931"></circle>
                        <circle id="Oval" fill="#29485A" cx="101.37931" cy="56.8965517" r="2.06896552"></circle>
                        <circle id="Oval" fill="#29485A" cx="93.1034483" cy="56.8965517" r="2.06896552"></circle>
                        <circle id="Oval" fill="#29485A" cx="105.517241" cy="63.1034483" r="2.06896552"></circle>
                        <circle id="Oval" fill="#29485A" cx="97.2413793" cy="63.1034483" r="2.06896552"></circle>
                        <circle id="Oval" fill="#29485A" cx="84.8275862" cy="56.8965517" r="2.06896552"></circle>
                        <circle id="Oval" fill="#29485A" cx="88.9655172" cy="63.1034483" r="2.06896552"></circle>
                        <circle id="Oval" fill="#29485A" cx="76.5517241" cy="56.8965517" r="2.06896552"></circle>
                        <circle id="Oval" fill="#29485A" cx="80.6896552" cy="63.1034483" r="2.06896552"></circle>
                        <circle id="Oval" fill="#29485A" cx="68.2758621" cy="56.8965517" r="2.06896552"></circle>
                        <circle id="Oval" fill="#29485A" cx="72.4137931" cy="63.1034483" r="2.06896552"></circle>
                        <circle id="Oval" fill="#FFFFFF" cx="19.6551724" cy="99.3103448" r="7.24137931"></circle>
                        <circle id="Oval" fill="#29485A" cx="101.37931" cy="96.2068966" r="2.06896552"></circle>
                        <circle id="Oval" fill="#29485A" cx="93.1034483" cy="96.2068966" r="2.06896552"></circle>
                        <circle id="Oval" fill="#29485A" cx="105.517241" cy="102.413793" r="2.06896552"></circle>
                        <circle id="Oval" fill="#29485A" cx="97.2413793" cy="102.413793" r="2.06896552"></circle>
                        <circle id="Oval" fill="#29485A" cx="84.8275862" cy="96.2068966" r="2.06896552"></circle>
                        <circle id="Oval" fill="#29485A" cx="88.9655172" cy="102.413793" r="2.06896552"></circle>
                        <circle id="Oval" fill="#29485A" cx="76.5517241" cy="96.2068966" r="2.06896552"></circle>
                        <circle id="Oval" fill="#29485A" cx="80.6896552" cy="102.413793" r="2.06896552"></circle>
                        <circle id="Oval" fill="#29485A" cx="68.2758621" cy="96.2068966" r="2.06896552"></circle>
                        <circle id="Oval" fill="#29485A" cx="72.4137931" cy="102.413793" r="2.06896552"></circle>
                    </g>
                </g>
            </g>
        </g>
    </g>
</svg>