<?xml version="1.0" encoding="UTF-8"?>
<svg width="279px" height="260px" viewBox="0 0 279 260" version="1.1" xmlns="http://www.w3.org/2000/svg" xmlns:xlink="http://www.w3.org/1999/xlink">
    <!-- Generator: Sketch 54.1 (76490) - https://sketchapp.com -->
    <title>Group 21</title>
    <desc>Created with Sketch.</desc>
    <defs>
        <circle id="path-1" cx="130" cy="130" r="130"></circle>
    </defs>
    <g id="desktop" stroke="none" stroke-width="1" fill="none" fill-rule="evenodd">
        <g id="devops" transform="translate(-140.000000, -2231.000000)">
            <g id="Group-31" transform="translate(140.000000, 2231.000000)">
                <g id="Group-21">
                    <mask id="mask-2" fill="white">
                        <use xlink:href="#path-1"></use>
                    </mask>
                    <use id="Oval" fill-opacity="0.102901005" fill="#4AA7CD" xlink:href="#path-1"></use>
                    <g id="Group-22" mask="url(#mask-2)">
                        <g transform="translate(-52.000000, 9.000000)">
                            <g id="server-(2)" transform="translate(0.000000, 73.000000)">
                                <path d="M135.98,47.75 L9.02,47.75 C4.04,47.75 0,43.71 0,38.73 L0,9.27 C0,4.29 4.04,0.25 9.02,0.25 L135.9775,0.25 C140.96,0.25 145,4.29 145,9.27 L145,38.7275 C145,43.71 140.96,47.75 135.98,47.75 Z" id="Path" fill="#0591C7" fill-rule="nonzero"></path>
                                <path d="M135.98,95.25 L9.02,95.25 C4.04,95.25 0,91.21 0,86.23 L0,56.77 C0,51.79 4.04,47.75 9.02,47.75 L135.9775,47.75 C140.96,47.75 144.9975,51.79 144.9975,56.77 L144.9975,86.2275 C145,91.21 140.96,95.25 135.98,95.25 Z" id="Path" fill="#06AAE9" fill-rule="nonzero"></path>
                                <path d="M135.98,142.75 L9.02,142.75 C4.04,142.75 0,138.71 0,133.73 L0,104.27 C0,99.29 4.04,95.25 9.02,95.25 L135.9775,95.25 C140.96,95.25 144.9975,99.29 144.9975,104.27 L144.9975,133.7275 C145,138.71 140.96,142.75 135.98,142.75 Z" id="Path" fill="#0591C7" fill-rule="nonzero"></path>
                                <circle id="Oval" fill="#29485A" fill-rule="nonzero" cx="122.5" cy="20.25" r="2.5"></circle>
                                <circle id="Oval" fill="#29485A" fill-rule="nonzero" cx="112.5" cy="20.25" r="2.5"></circle>
                                <circle id="Oval" fill="#29485A" fill-rule="nonzero" cx="127.5" cy="27.75" r="2.5"></circle>
                                <circle id="Oval" fill="#29485A" fill-rule="nonzero" cx="117.5" cy="27.75" r="2.5"></circle>
                                <circle id="Oval" fill="#29485A" fill-rule="nonzero" cx="102.5" cy="20.25" r="2.5"></circle>
                                <circle id="Oval" fill="#29485A" fill-rule="nonzero" cx="107.5" cy="27.75" r="2.5"></circle>
                                <circle id="Oval" fill="#29485A" fill-rule="nonzero" cx="92.5" cy="20.25" r="2.5"></circle>
                                <circle id="Oval" fill="#29485A" fill-rule="nonzero" cx="97.5" cy="27.75" r="2.5"></circle>
                                <circle id="Oval" fill="#29485A" fill-rule="nonzero" cx="82.5" cy="20.25" r="2.5"></circle>
                                <circle id="Oval" fill="#29485A" fill-rule="nonzero" cx="87.5" cy="27.75" r="2.5"></circle>
                                <circle id="Oval" fill="#29485A" fill-rule="nonzero" cx="122.5" cy="67.75" r="2.5"></circle>
                                <circle id="Oval" fill="#29485A" fill-rule="nonzero" cx="112.5" cy="67.75" r="2.5"></circle>
                                <circle id="Oval" fill="#29485A" fill-rule="nonzero" cx="127.5" cy="75.25" r="2.5"></circle>
                                <circle id="Oval" fill="#29485A" fill-rule="nonzero" cx="117.5" cy="75.25" r="2.5"></circle>
                                <circle id="Oval" fill="#29485A" fill-rule="nonzero" cx="102.5" cy="67.75" r="2.5"></circle>
                                <circle id="Oval" fill="#29485A" fill-rule="nonzero" cx="107.5" cy="75.25" r="2.5"></circle>
                                <circle id="Oval" fill="#29485A" fill-rule="nonzero" cx="92.5" cy="67.75" r="2.5"></circle>
                                <circle id="Oval" fill="#29485A" fill-rule="nonzero" cx="97.5" cy="75.25" r="2.5"></circle>
                                <circle id="Oval" fill="#29485A" fill-rule="nonzero" cx="82.5" cy="67.75" r="2.5"></circle>
                                <circle id="Oval" fill="#29485A" fill-rule="nonzero" cx="87.5" cy="75.25" r="2.5"></circle>
                                <circle id="Oval" fill="#29485A" fill-rule="nonzero" cx="122.5" cy="115.25" r="2.5"></circle>
                                <circle id="Oval" fill="#29485A" fill-rule="nonzero" cx="112.5" cy="115.25" r="2.5"></circle>
                                <circle id="Oval" fill="#29485A" fill-rule="nonzero" cx="127.5" cy="122.75" r="2.5"></circle>
                                <circle id="Oval" fill="#29485A" fill-rule="nonzero" cx="117.5" cy="122.75" r="2.5"></circle>
                                <circle id="Oval" fill="#29485A" fill-rule="nonzero" cx="102.5" cy="115.25" r="2.5"></circle>
                                <circle id="Oval" fill="#29485A" fill-rule="nonzero" cx="107.5" cy="122.75" r="2.5"></circle>
                                <circle id="Oval" fill="#29485A" fill-rule="nonzero" cx="92.5" cy="115.25" r="2.5"></circle>
                                <circle id="Oval" fill="#29485A" fill-rule="nonzero" cx="97.5" cy="122.75" r="2.5"></circle>
                                <circle id="Oval" fill="#29485A" fill-rule="nonzero" cx="82.5" cy="115.25" r="2.5"></circle>
                                <circle id="Oval" fill="#29485A" fill-rule="nonzero" cx="87.5" cy="122.75" r="2.5"></circle>
                            </g>
                            <g id="mobileme-logo-of-black-cloud" transform="translate(159.000000, 0.000000)">
                                <path d="M107,50.9893388 C107,62.5931038 97.5935269,72 85.994648,72 L21.0016205,72 C9.40299035,72 0,62.5931038 0,50.9893388 C0,40.5093234 7.66856925,31.8275545 17.701444,30.2389923 C17.5743228,29.503492 17.5041698,28.7467516 17.5041698,27.9677831 C17.5041698,20.6154965 23.4626974,14.6561655 30.8148318,14.6561655 C34.0936141,14.6561655 37.0982523,15.8421536 39.4162867,17.8155075 C43.548846,8.50073407 48.8466417,0 63.709128,0 C81.7339724,0 90.2769665,13.9055995 90.2769665,28.5790535 C90.2769665,29.1927937 90.2510945,29.8008534 90.20955,30.4024917 C99.7901617,32.3553464 107,40.8296538 107,50.9893388 Z" id="MobileMe" fill="#B5DBE8" fill-rule="nonzero"></path>
                            </g>
                            <g id="Group-20" transform="translate(145.000000, 148.000000)">
                                <path d="M0,1.24586291 L68.890625,1.24586291" id="Path-2" stroke="#A4C9D7" stroke-width="5"></path>
                            </g>
                            <g id="Group-19" transform="translate(218.000000, 72.000000)">
                                <path d="M1,0 L1,51.8339844" id="Path-3" stroke="#A4C9D7" stroke-width="5"></path>
                            </g>
                        </g>
                    </g>
                    <g id="tab" transform="translate(147.000000, 117.000000)" fill-rule="nonzero">
                        <path d="M0,24.75 L0,123.75 C0,128.308045 3.69195544,132 8.25,132 L123.75,132 C128.308045,132 132,128.308045 132,123.75 L132,24.75 L0,24.75 Z" id="Path" fill="#E1EAF7"></path>
                        <polygon id="Path" fill="#B0BEC5" points="0 0 132 0 132 33 0 33"></polygon>
                        <polygon id="Path" fill="#FFFFFF" points="16.5 12.375 24.75 12.375 24.75 20.625 16.5 20.625"></polygon>
                        <polygon id="Path" fill="#FFFFFF" points="33 12.375 41.25 12.375 41.25 20.625 33 20.625"></polygon>
                        <path d="M111.375,20.625 L53.625,20.625 C51.347992,20.625 49.5,18.777008 49.5,16.5 C49.5,14.222992 51.347992,12.375 53.625,12.375 L111.375,12.375 C113.652008,12.375 115.5,14.222992 115.5,16.5 C115.5,18.777008 113.652008,20.625 111.375,20.625 Z" id="Path" fill="#90A4AE"></path>
                        <path d="M99,74.25 L66,74.25 L66,53.625 L90.75,53.625 C95.3080446,53.625 99,57.3169554 99,61.875 L99,74.25 Z" id="Path" fill="#62808C"></path>
                        <path d="M74.25,74.25 L41.25,74.25 L41.25,53.625 L66,53.625 C70.5580446,53.625 74.25,57.3169554 74.25,61.875 L74.25,74.25 Z" id="Path" fill="#77959E"></path>
                        <path d="M107.25,115.5 L24.75,115.5 C20.1919554,115.5 16.5,111.808045 16.5,107.25 L16.5,53.625 L41.25,53.625 C45.8080446,53.625 49.5,57.3169554 49.5,61.875 L49.5,66 L115.5,66 L115.5,107.25 C115.5,111.808045 111.808045,115.5 107.25,115.5 Z" id="Path" fill="#F7941E"></path>
                        <g id="Group" transform="translate(41.250000, 78.375000)" fill="#FFFFFF">
                            <path d="M45.375,8.25 L4.125,8.25 C1.84799201,8.25 0,6.40200799 0,4.125 C0,1.84799201 1.84799201,0 4.125,0 L45.375,0 C47.652008,0 49.5,1.84799201 49.5,4.125 C49.5,6.40200799 47.652008,8.25 45.375,8.25 Z" id="Path"></path>
                            <path d="M20.625,24.75 L4.125,24.75 C1.84799201,24.75 0,22.902008 0,20.625 C0,18.347992 1.84799201,16.5 4.125,16.5 L20.625,16.5 C22.902008,16.5 24.75,18.347992 24.75,20.625 C24.75,22.902008 22.902008,24.75 20.625,24.75 Z" id="Path"></path>
                            <polygon id="Path" points="33 16.5 41.25 16.5 41.25 24.75 33 24.75"></polygon>
                        </g>
                    </g>
                </g>
            </g>
        </g>
    </g>
</svg>