<?xml version="1.0" encoding="UTF-8"?>
<svg width="260px" height="260px" viewBox="0 0 260 260" version="1.1" xmlns="http://www.w3.org/2000/svg" xmlns:xlink="http://www.w3.org/1999/xlink">
    <!-- Generator: Sketch 54.1 (76490) - https://sketchapp.com -->
    <title>Group 21</title>
    <desc>Created with Sketch.</desc>
    <defs>
        <circle id="path-1" cx="130" cy="130" r="130"></circle>
    </defs>
    <g id="desktop" stroke="none" stroke-width="1" fill="none" fill-rule="evenodd">
        <g id="devops" transform="translate(-1040.000000, -2541.000000)">
            <g id="Group-32" transform="translate(240.000000, 2541.000000)">
                <g id="Group-21" transform="translate(800.000000, 0.000000)">
                    <mask id="mask-2" fill="white">
                        <use xlink:href="#path-1"></use>
                    </mask>
                    <use id="Oval" fill-opacity="0.102901005" fill="#4AA7CD" xlink:href="#path-1"></use>
                    <g id="Group-25" mask="url(#mask-2)">
                        <g transform="translate(15.000000, 77.000000)" id="graphs">
                            <g>
                                <polygon id="Path" fill="#06AAE9" fill-rule="nonzero" points="0 26.3448276 191 26.3448276 191 125.137931 0 125.137931"></polygon>
                                <path d="M191,26.3448276 L191,125.137931 L0,125.137931 C86.42467,114.227918 152.117903,83.2602034 191,26.3448276 Z" id="Path" fill="#129FD5" fill-rule="nonzero"></path>
                                <path d="M131.724138,177.827586 C135.356521,177.838842 138.299089,180.78141 138.310345,184.413793 C138.28301,188.039745 135.350089,190.972665 131.724138,191 L59.2758621,191 C55.6434788,190.988744 52.700911,188.046176 52.6896552,184.413793 C52.7169904,180.787842 55.6499107,177.854921 59.2758621,177.827586 L131.724138,177.827586 Z" id="Path" fill="#787680" fill-rule="nonzero"></path>
                                <polygon id="Path" fill="#B5DBE8" fill-rule="nonzero" points="121.844828 177.827586 69.1551724 177.827586 72.4482759 151.482759 118.551724 151.482759"></polygon>
                                <path d="M191,125.137931 L191,138.310345 C190.979097,145.576719 185.093961,151.461855 177.827586,151.482759 L13.1724138,151.482759 C5.90603943,151.461855 0.0209034681,145.576719 0,138.310345 L0,125.137931 L191,125.137931 Z" id="Path" fill="#B5DBE8" fill-rule="nonzero"></path>
                                <path d="M191,13.1724138 L191,26.3448276 L0,26.3448276 L0,13.1724138 C0.0209034681,5.90603943 5.90603943,0.0209034681 13.1724138,0 L177.827586,0 C185.102,0 191,5.89799973 191,13.1724138 Z" id="Path" fill="#29485A" fill-rule="nonzero"></path>
                                <polygon id="Path" fill="#73ACBF" fill-rule="nonzero" points="119.375 158.068966 71.625 158.068966 72.4482759 151.482759 118.551724 151.482759"></polygon>
                                <polygon id="Path" fill="#F7941E" fill-rule="nonzero" points="118.551724 46.1034483 138.310345 46.1034483 138.310345 105.37931 118.551724 105.37931"></polygon>
                                <polygon id="Path" fill="#32CC77" fill-rule="nonzero" points="85.6206897 59.2758621 105.37931 59.2758621 105.37931 105.37931 85.6206897 105.37931"></polygon>
                                <polygon id="Path" fill="#FFE122" fill-rule="nonzero" points="52.6896552 72.4482759 72.4482759 72.4482759 72.4482759 105.37931 52.6896552 105.37931"></polygon>
                                <polygon id="Path" fill="#1A6FB0" fill-rule="nonzero" points="32.9310345 102.086207 158.068966 102.086207 158.068966 108.672414 32.9310345 108.672414"></polygon>
                                <g id="Group" transform="translate(16.465517, 42.810345)" fill="#1E81CE" fill-rule="nonzero">
                                    <polygon id="Path" points="0 0 6.5862069 0 6.5862069 6.5862069 0 6.5862069"></polygon>
                                    <polygon id="Path" points="13.1724138 0 32.9310345 0 32.9310345 6.5862069 13.1724138 6.5862069"></polygon>
                                    <polygon id="Path" points="0 13.1724138 32.9310345 13.1724138 32.9310345 19.7586207 0 19.7586207"></polygon>
                                    <polygon id="Path" points="141.603448 0 158.068966 0 158.068966 6.5862069 141.603448 6.5862069"></polygon>
                                    <polygon id="Path" points="141.603448 13.1724138 158.068966 13.1724138 158.068966 19.7586207 141.603448 19.7586207"></polygon>
                                </g>
                                <polygon id="Path" fill="#73ACBF" fill-rule="nonzero" points="167.948276 135.017241 174.534483 135.017241 174.534483 141.603448 167.948276 141.603448"></polygon>
                                <polygon id="Path" fill="#06AAE9" fill-rule="nonzero" points="16.4655172 9.87931034 23.0517241 9.87931034 23.0517241 16.4655172 16.4655172 16.4655172"></polygon>
                                <polygon id="Path" fill="#06AAE9" fill-rule="nonzero" points="29.637931 9.87931034 36.2241379 9.87931034 36.2241379 16.4655172 29.637931 16.4655172"></polygon>
                                <polygon id="Path" fill="#06AAE9" fill-rule="nonzero" points="42.8103448 9.87931034 49.3965517 9.87931034 49.3965517 16.4655172 42.8103448 16.4655172"></polygon>
                            </g>
                        </g>
                    </g>
                    <g id="graphs" transform="translate(15.000000, 77.000000)" fill-rule="nonzero">
                        <polygon id="Path" fill="#06AAE9" points="0 26.3448276 191 26.3448276 191 125.137931 0 125.137931"></polygon>
                        <path d="M191,26.3448276 L191,125.137931 L0,125.137931 C86.42467,114.227918 152.117903,83.2602034 191,26.3448276 Z" id="Path" fill="#129FD5"></path>
                        <path d="M146.94212,151.482759 C117.215519,151.482759 72.6256167,151.482759 13.1724138,151.482759 C5.90603943,151.461855 0.0209034681,145.576719 0,138.310345 L0,125.137931 L149.229167,125.137931 C154.567906,142.701149 153.805557,151.482759 146.94212,151.482759 Z" id="Path" fill="#B5DBE8"></path>
                        <path d="M191,13.1724138 L191,26.3448276 L0,26.3448276 L0,13.1724138 C0.0209034681,5.90603943 5.90603943,0.0209034681 13.1724138,0 L177.827586,0 C185.102,0 191,5.89799973 191,13.1724138 Z" id="Path" fill="#29485A"></path>
                        <polygon id="Path" fill="#F7941E" points="118.551724 46.1034483 138.310345 46.1034483 138.310345 105.37931 118.551724 105.37931"></polygon>
                        <polygon id="Path" fill="#32CC77" points="85.6206897 59.2758621 105.37931 59.2758621 105.37931 105.37931 85.6206897 105.37931"></polygon>
                        <polygon id="Path" fill="#FFE122" points="52.6896552 72.4482759 72.4482759 72.4482759 72.4482759 105.37931 52.6896552 105.37931"></polygon>
                        <polygon id="Path" fill="#1A6FB0" points="32.9310345 102.086207 158.068966 102.086207 158.068966 108.672414 32.9310345 108.672414"></polygon>
                        <g id="Group" transform="translate(16.465517, 42.810345)" fill="#1E81CE">
                            <polygon id="Path" points="0 0 6.5862069 0 6.5862069 6.5862069 0 6.5862069"></polygon>
                            <polygon id="Path" points="13.1724138 0 32.9310345 0 32.9310345 6.5862069 13.1724138 6.5862069"></polygon>
                            <polygon id="Path" points="0 13.1724138 32.9310345 13.1724138 32.9310345 19.7586207 0 19.7586207"></polygon>
                            <polygon id="Path" points="141.603448 0 158.068966 0 158.068966 6.5862069 141.603448 6.5862069"></polygon>
                            <polygon id="Path" points="141.603448 13.1724138 158.068966 13.1724138 158.068966 19.7586207 141.603448 19.7586207"></polygon>
                        </g>
                        <polygon id="Path" fill="#73ACBF" points="167.948276 135.017241 174.534483 135.017241 174.534483 141.603448 167.948276 141.603448"></polygon>
                        <polygon id="Path" fill="#06AAE9" points="16.4655172 9.87931034 23.0517241 9.87931034 23.0517241 16.4655172 16.4655172 16.4655172"></polygon>
                        <polygon id="Path" fill="#06AAE9" points="29.637931 9.87931034 36.2241379 9.87931034 36.2241379 16.4655172 29.637931 16.4655172"></polygon>
                        <polygon id="Path" fill="#06AAE9" points="42.8103448 9.87931034 49.3965517 9.87931034 49.3965517 16.4655172 42.8103448 16.4655172"></polygon>
                    </g>
                    <g id="customer-service" transform="translate(111.000000, 9.000000)" fill-rule="nonzero">
                        <path d="M99.3628397,0.725916255 L9.74078661,0.725916255 C4.82447003,0.725916255 0.840704191,4.69688248 0.840704191,9.59567071 L0.840704191,51.2087028 C0.840704191,56.107491 4.82447003,60.0784573 9.74078661,60.0784573 L14.9515182,60.0784573 L14.9515182,80.4343972 L35.3817008,60.0784573 L99.3628397,60.0784573 C104.279156,60.0784573 108.26433,56.107491 108.26433,51.2087028 L108.26433,9.59567071 C108.26433,4.69688248 104.279156,0.725916255 99.3628397,0.725916255 Z" id="Path" fill="#32CC77"></path>
                        <path d="M25.274374,32.9722962 C28.5185794,30.7601212 32.5572841,28.0047281 32.5572841,23.2940307 C32.5572841,21.0593972 31.6486813,19.1546248 29.9314922,17.786052 C28.4129278,16.5746896 26.3196197,15.8798757 24.1882769,15.8798757 C20.2524062,15.8798757 16.0700156,18.2913712 16.0700156,22.7592347 C16.0700156,24.7299794 16.9025492,25.6886822 18.6155121,25.6886822 C20.5482306,25.6886822 21.5906583,24.6190898 21.5906583,23.6140662 C21.5906583,21.946513 22.5499742,20.9892138 24.2234939,20.9892138 C26.1942466,20.9892138 26.8929552,22.3269061 26.8929552,23.4708923 C26.8929552,25.589022 24.3869016,27.4222074 21.7329359,29.3634752 C18.738068,31.5531915 15.6417749,33.8187059 15.6417749,36.7832449 L15.6417749,40.2362587 C15.6417749,41.3072546 17.106809,41.9908392 18.1154286,41.9908392 L30.8330517,41.9908392 C31.7515154,41.9908392 32.5572841,40.821587 32.5572841,39.4881057 C32.5572841,38.1939274 31.7515154,37.0583627 30.8330517,37.0583627 L21.5188156,37.0583627 L21.5188156,36.7832449 C21.5188156,35.5339835 23.2599523,34.3478872 25.274374,32.9722962 Z" id="Path" fill="#1E894E"></path>
                        <path d="M47.6936221,41.9894357 C49.6390182,41.9894357 50.5250824,41.0812648 50.5250824,40.2362587 L50.5250824,36.5081263 L52.0154727,36.5081263 C52.9043541,36.5081263 53.7763308,35.2167551 53.7763308,33.9001182 C53.7763308,32.107639 52.8635019,31.2921101 52.0154727,31.2921101 L50.5250824,31.2921101 L50.5250824,28.8455231 C50.5250824,28.0538565 49.7841131,27.127438 47.6936221,27.127438 C45.6031311,27.127438 44.8621617,28.0524525 44.8621617,28.8455231 L44.8621617,31.2921101 L41.9095545,31.2921101 L48.1993407,18.7194887 C48.2951314,18.4991135 48.3824698,18.2632979 48.3824698,18.0246748 C48.3824698,17.4435579 48.0091679,16.8863033 47.3301807,16.4553783 C46.776567,16.1058659 46.079267,15.8798757 45.5510098,15.8798757 C44.5113988,15.8798757 43.6732306,16.393617 43.1886424,17.3284573 L34.9365558,33.4509456 C34.6829922,33.9141547 34.6449576,34.3324468 34.6449576,34.5401891 C34.6449576,35.7178636 35.4112831,36.5081263 36.5495019,36.5081263 L44.8621617,36.5081263 L44.8621617,40.2348551 C44.8621617,41.0812648 45.7482259,41.9894357 47.6936221,41.9894357 L47.6936221,41.9894357 Z" id="Path" fill="#1E894E"></path>
                        <path d="M69.0493116,15.3366579 L56.5120005,40.9984485 C56.3950794,41.2314569 56.3274624,41.4841165 56.3274624,41.694666 C56.3274624,42.6281027 57.1501354,43.6275116 58.3742841,43.6275116 C59.0927144,43.6275116 59.7702926,43.249926 60.0224476,42.7123229 L72.5963844,17.0491283 C72.7189403,16.8048906 72.7442968,16.535387 72.7442968,16.3529108 C72.7442968,15.1962915 71.6314342,14.4200648 70.5904147,14.4200648 C69.8860717,14.4200648 69.3240056,14.7541371 69.0493116,15.3366579 L69.0493116,15.3366579 Z" id="Path" fill="#1E894E"></path>
                        <path d="M78.6283808,24.9054374 C80.1835709,24.9054374 81.4964669,24.1025414 81.4964669,23.1508572 L81.4964669,20.8109487 L87.7989307,20.8109487 L87.7989307,23.2449024 L79.0171784,38.3988622 C78.8410926,38.7160905 78.7622062,39.0080527 78.7622062,39.3463357 C78.7622062,41.0293293 80.6498463,42.2027926 82.344496,42.2027926 C83.1502652,42.2027926 83.6785224,41.9515366 83.9560336,41.4307771 L92.3151803,25.4851506 C92.5842396,24.982639 93.46326,23.2491135 93.46326,22.0826683 L93.46326,17.6330527 C93.46326,16.8680554 92.263059,15.8798757 90.9881973,15.8798757 L78.3072003,15.8798757 C77.0591037,15.8798757 75.8321379,16.748744 75.8321379,17.6330527 L75.8321379,23.1508572 C75.8321379,24.1179818 77.0872778,24.9054374 78.6283808,24.9054374 Z" id="Path" fill="#1E894E"></path>
                    </g>
                </g>
            </g>
        </g>
    </g>
</svg>